<?xml version="1.0" encoding="utf-8" standalone="no"?>
<!DOCTYPE svg PUBLIC "-//W3C//DTD SVG 1.1//EN"
  "http://www.w3.org/Graphics/SVG/1.1/DTD/svg11.dtd">
<svg xmlns:xlink="http://www.w3.org/1999/xlink" width="864pt" height="576pt" viewBox="0 0 864 576" xmlns="http://www.w3.org/2000/svg" version="1.1">
 <metadata>
  <rdf:RDF xmlns:dc="http://purl.org/dc/elements/1.1/" xmlns:cc="http://creativecommons.org/ns#" xmlns:rdf="http://www.w3.org/1999/02/22-rdf-syntax-ns#">
   <cc:Work>
    <dc:type rdf:resource="http://purl.org/dc/dcmitype/StillImage"/>
    <dc:date>2025-07-04T01:50:20.625557</dc:date>
    <dc:format>image/svg+xml</dc:format>
    <dc:creator>
     <cc:Agent>
      <dc:title>Matplotlib v3.10.3, https://matplotlib.org/</dc:title>
     </cc:Agent>
    </dc:creator>
   </cc:Work>
  </rdf:RDF>
 </metadata>
 <defs>
  <style type="text/css">*{stroke-linejoin: round; stroke-linecap: butt}</style>
 </defs>
 <g id="figure_1">
  <g id="patch_1">
   <path d="M 0 576 
L 864 576 
L 864 0 
L 0 0 
z
" style="fill: #ffffff"/>
  </g>
  <g id="axes_1">
   <g id="patch_2">
    <path d="M 40.75 262.972732 
L 853.2 262.972732 
L 853.2 26.88 
L 40.75 26.88 
z
" style="fill: #ffffff"/>
   </g>
   <g id="patch_3">
    <path d="M 139.928205 262.972732 
L 143.902792 262.972732 
L 143.902792 26.88 
L 139.928205 26.88 
z
" clip-path="url(#pd9074d9b07)" style="fill: #808080; opacity: 0.3; stroke: #808080; stroke-linejoin: miter"/>
   </g>
   <g id="matplotlib.axis_1">
    <g id="xtick_1">
     <g id="line2d_1">
      <path d="M 62.423755 262.972732 
L 62.423755 26.88 
" clip-path="url(#pd9074d9b07)" style="fill: none; stroke: #b0b0b0; stroke-opacity: 0.3; stroke-width: 0.8; stroke-linecap: square"/>
     </g>
     <g id="line2d_2">
      <defs>
       <path id="m292b7f24e6" d="M 0 0 
L 0 3.5 
" style="stroke: #000000; stroke-width: 0.8"/>
      </defs>
      <g>
       <use xlink:href="#m292b7f24e6" x="62.423755" y="262.972732" style="stroke: #000000; stroke-width: 0.8"/>
      </g>
     </g>
    </g>
    <g id="xtick_2">
     <g id="line2d_3">
      <path d="M 157.813847 262.972732 
L 157.813847 26.88 
" clip-path="url(#pd9074d9b07)" style="fill: none; stroke: #b0b0b0; stroke-opacity: 0.3; stroke-width: 0.8; stroke-linecap: square"/>
     </g>
     <g id="line2d_4">
      <g>
       <use xlink:href="#m292b7f24e6" x="157.813847" y="262.972732" style="stroke: #000000; stroke-width: 0.8"/>
      </g>
     </g>
    </g>
    <g id="xtick_3">
     <g id="line2d_5">
      <path d="M 253.203939 262.972732 
L 253.203939 26.88 
" clip-path="url(#pd9074d9b07)" style="fill: none; stroke: #b0b0b0; stroke-opacity: 0.3; stroke-width: 0.8; stroke-linecap: square"/>
     </g>
     <g id="line2d_6">
      <g>
       <use xlink:href="#m292b7f24e6" x="253.203939" y="262.972732" style="stroke: #000000; stroke-width: 0.8"/>
      </g>
     </g>
    </g>
    <g id="xtick_4">
     <g id="line2d_7">
      <path d="M 348.594031 262.972732 
L 348.594031 26.88 
" clip-path="url(#pd9074d9b07)" style="fill: none; stroke: #b0b0b0; stroke-opacity: 0.3; stroke-width: 0.8; stroke-linecap: square"/>
     </g>
     <g id="line2d_8">
      <g>
       <use xlink:href="#m292b7f24e6" x="348.594031" y="262.972732" style="stroke: #000000; stroke-width: 0.8"/>
      </g>
     </g>
    </g>
    <g id="xtick_5">
     <g id="line2d_9">
      <path d="M 443.984123 262.972732 
L 443.984123 26.88 
" clip-path="url(#pd9074d9b07)" style="fill: none; stroke: #b0b0b0; stroke-opacity: 0.3; stroke-width: 0.8; stroke-linecap: square"/>
     </g>
     <g id="line2d_10">
      <g>
       <use xlink:href="#m292b7f24e6" x="443.984123" y="262.972732" style="stroke: #000000; stroke-width: 0.8"/>
      </g>
     </g>
    </g>
    <g id="xtick_6">
     <g id="line2d_11">
      <path d="M 539.374215 262.972732 
L 539.374215 26.88 
" clip-path="url(#pd9074d9b07)" style="fill: none; stroke: #b0b0b0; stroke-opacity: 0.3; stroke-width: 0.8; stroke-linecap: square"/>
     </g>
     <g id="line2d_12">
      <g>
       <use xlink:href="#m292b7f24e6" x="539.374215" y="262.972732" style="stroke: #000000; stroke-width: 0.8"/>
      </g>
     </g>
    </g>
    <g id="xtick_7">
     <g id="line2d_13">
      <path d="M 634.764307 262.972732 
L 634.764307 26.88 
" clip-path="url(#pd9074d9b07)" style="fill: none; stroke: #b0b0b0; stroke-opacity: 0.3; stroke-width: 0.8; stroke-linecap: square"/>
     </g>
     <g id="line2d_14">
      <g>
       <use xlink:href="#m292b7f24e6" x="634.764307" y="262.972732" style="stroke: #000000; stroke-width: 0.8"/>
      </g>
     </g>
    </g>
    <g id="xtick_8">
     <g id="line2d_15">
      <path d="M 730.154399 262.972732 
L 730.154399 26.88 
" clip-path="url(#pd9074d9b07)" style="fill: none; stroke: #b0b0b0; stroke-opacity: 0.3; stroke-width: 0.8; stroke-linecap: square"/>
     </g>
     <g id="line2d_16">
      <g>
       <use xlink:href="#m292b7f24e6" x="730.154399" y="262.972732" style="stroke: #000000; stroke-width: 0.8"/>
      </g>
     </g>
    </g>
    <g id="xtick_9">
     <g id="line2d_17">
      <path d="M 825.544491 262.972732 
L 825.544491 26.88 
" clip-path="url(#pd9074d9b07)" style="fill: none; stroke: #b0b0b0; stroke-opacity: 0.3; stroke-width: 0.8; stroke-linecap: square"/>
     </g>
     <g id="line2d_18">
      <g>
       <use xlink:href="#m292b7f24e6" x="825.544491" y="262.972732" style="stroke: #000000; stroke-width: 0.8"/>
      </g>
     </g>
    </g>
   </g>
   <g id="matplotlib.axis_2">
    <g id="ytick_1">
     <g id="line2d_19">
      <path d="M 40.75 244.803579 
L 853.2 244.803579 
" clip-path="url(#pd9074d9b07)" style="fill: none; stroke: #b0b0b0; stroke-opacity: 0.3; stroke-width: 0.8; stroke-linecap: square"/>
     </g>
     <g id="line2d_20">
      <defs>
       <path id="m5715c9891d" d="M 0 0 
L -3.5 0 
" style="stroke: #000000; stroke-width: 0.8"/>
      </defs>
      <g>
       <use xlink:href="#m5715c9891d" x="40.75" y="244.803579" style="stroke: #000000; stroke-width: 0.8"/>
      </g>
     </g>
     <g id="text_1">
      <text style="font-size: 10px; font-family: 'Noto Sans JP'; text-anchor: end" x="33.75" y="248.788736" transform="rotate(-0 33.75 248.788736)">25</text>
     </g>
    </g>
    <g id="ytick_2">
     <g id="line2d_21">
      <path d="M 40.75 218.240491 
L 853.2 218.240491 
" clip-path="url(#pd9074d9b07)" style="fill: none; stroke: #b0b0b0; stroke-opacity: 0.3; stroke-width: 0.8; stroke-linecap: square"/>
     </g>
     <g id="line2d_22">
      <g>
       <use xlink:href="#m5715c9891d" x="40.75" y="218.240491" style="stroke: #000000; stroke-width: 0.8"/>
      </g>
     </g>
     <g id="text_2">
      <text style="font-size: 10px; font-family: 'Noto Sans JP'; text-anchor: end" x="33.75" y="222.225647" transform="rotate(-0 33.75 222.225647)">50</text>
     </g>
    </g>
    <g id="ytick_3">
     <g id="line2d_23">
      <path d="M 40.75 191.677402 
L 853.2 191.677402 
" clip-path="url(#pd9074d9b07)" style="fill: none; stroke: #b0b0b0; stroke-opacity: 0.3; stroke-width: 0.8; stroke-linecap: square"/>
     </g>
     <g id="line2d_24">
      <g>
       <use xlink:href="#m5715c9891d" x="40.75" y="191.677402" style="stroke: #000000; stroke-width: 0.8"/>
      </g>
     </g>
     <g id="text_3">
      <text style="font-size: 10px; font-family: 'Noto Sans JP'; text-anchor: end" x="33.75" y="195.662558" transform="rotate(-0 33.75 195.662558)">75</text>
     </g>
    </g>
    <g id="ytick_4">
     <g id="line2d_25">
      <path d="M 40.75 165.114313 
L 853.2 165.114313 
" clip-path="url(#pd9074d9b07)" style="fill: none; stroke: #b0b0b0; stroke-opacity: 0.3; stroke-width: 0.8; stroke-linecap: square"/>
     </g>
     <g id="line2d_26">
      <g>
       <use xlink:href="#m5715c9891d" x="40.75" y="165.114313" style="stroke: #000000; stroke-width: 0.8"/>
      </g>
     </g>
     <g id="text_4">
      <text style="font-size: 10px; font-family: 'Noto Sans JP'; text-anchor: end" x="33.75" y="169.09947" transform="rotate(-0 33.75 169.09947)">100</text>
     </g>
    </g>
    <g id="ytick_5">
     <g id="line2d_27">
      <path d="M 40.75 138.551225 
L 853.2 138.551225 
" clip-path="url(#pd9074d9b07)" style="fill: none; stroke: #b0b0b0; stroke-opacity: 0.3; stroke-width: 0.8; stroke-linecap: square"/>
     </g>
     <g id="line2d_28">
      <g>
       <use xlink:href="#m5715c9891d" x="40.75" y="138.551225" style="stroke: #000000; stroke-width: 0.8"/>
      </g>
     </g>
     <g id="text_5">
      <text style="font-size: 10px; font-family: 'Noto Sans JP'; text-anchor: end" x="33.75" y="142.536381" transform="rotate(-0 33.75 142.536381)">125</text>
     </g>
    </g>
    <g id="ytick_6">
     <g id="line2d_29">
      <path d="M 40.75 111.988136 
L 853.2 111.988136 
" clip-path="url(#pd9074d9b07)" style="fill: none; stroke: #b0b0b0; stroke-opacity: 0.3; stroke-width: 0.8; stroke-linecap: square"/>
     </g>
     <g id="line2d_30">
      <g>
       <use xlink:href="#m5715c9891d" x="40.75" y="111.988136" style="stroke: #000000; stroke-width: 0.8"/>
      </g>
     </g>
     <g id="text_6">
      <text style="font-size: 10px; font-family: 'Noto Sans JP'; text-anchor: end" x="33.75" y="115.973292" transform="rotate(-0 33.75 115.973292)">150</text>
     </g>
    </g>
    <g id="ytick_7">
     <g id="line2d_31">
      <path d="M 40.75 85.425047 
L 853.2 85.425047 
" clip-path="url(#pd9074d9b07)" style="fill: none; stroke: #b0b0b0; stroke-opacity: 0.3; stroke-width: 0.8; stroke-linecap: square"/>
     </g>
     <g id="line2d_32">
      <g>
       <use xlink:href="#m5715c9891d" x="40.75" y="85.425047" style="stroke: #000000; stroke-width: 0.8"/>
      </g>
     </g>
     <g id="text_7">
      <text style="font-size: 10px; font-family: 'Noto Sans JP'; text-anchor: end" x="33.75" y="89.410204" transform="rotate(-0 33.75 89.410204)">175</text>
     </g>
    </g>
    <g id="ytick_8">
     <g id="line2d_33">
      <path d="M 40.75 58.861959 
L 853.2 58.861959 
" clip-path="url(#pd9074d9b07)" style="fill: none; stroke: #b0b0b0; stroke-opacity: 0.3; stroke-width: 0.8; stroke-linecap: square"/>
     </g>
     <g id="line2d_34">
      <g>
       <use xlink:href="#m5715c9891d" x="40.75" y="58.861959" style="stroke: #000000; stroke-width: 0.8"/>
      </g>
     </g>
     <g id="text_8">
      <text style="font-size: 10px; font-family: 'Noto Sans JP'; text-anchor: end" x="33.75" y="62.847115" transform="rotate(-0 33.75 62.847115)">200</text>
     </g>
    </g>
    <g id="ytick_9">
     <g id="line2d_35">
      <path d="M 40.75 32.29887 
L 853.2 32.29887 
" clip-path="url(#pd9074d9b07)" style="fill: none; stroke: #b0b0b0; stroke-opacity: 0.3; stroke-width: 0.8; stroke-linecap: square"/>
     </g>
     <g id="line2d_36">
      <g>
       <use xlink:href="#m5715c9891d" x="40.75" y="32.29887" style="stroke: #000000; stroke-width: 0.8"/>
      </g>
     </g>
     <g id="text_9">
      <text style="font-size: 10px; font-family: 'Noto Sans JP'; text-anchor: end" x="33.75" y="36.284026" transform="rotate(-0 33.75 36.284026)">225</text>
     </g>
    </g>
   </g>
   <g id="line2d_37">
    <path d="M 77.679545 211.865349 
L 78.057131 212.927873 
L 78.390555 211.865349 
L 79.768412 210.802826 
L 80.470589 208.677779 
L 82.345269 204.427685 
L 84.328147 202.302637 
L 86.322064 193.802449 
L 88.304942 191.677402 
L 90.365103 187.427308 
L 92.343564 185.302261 
L 94.335274 181.052167 
L 96.207746 182.11469 
L 98.19504 174.677025 
L 100.182333 161.926743 
L 104.15692 153.426554 
L 106.144214 147.051413 
L 110.118801 136.426178 
L 112.106095 138.551225 
L 114.093388 136.426178 
L 116.080682 128.988513 
L 118.067975 140.676272 
L 120.055269 142.801319 
L 122.042563 132.176083 
L 124.029856 137.488701 
L 126.01715 128.988513 
L 128.004443 117.300754 
L 129.991737 114.113183 
L 131.97903 101.362901 
L 133.966324 86.487571 
L 135.953618 85.425047 
L 137.940911 73.737288 
L 139.928205 73.737288 
M 143.902792 67.362147 
L 145.890086 48.236723 
L 147.877379 47.1742 
L 149.864673 50.36177 
L 151.851966 51.424294 
L 153.83926 57.799435 
L 155.826553 66.299624 
L 157.813847 70.549718 
L 159.801141 84.362524 
L 161.788434 104.550471 
L 163.775728 115.175707 
L 165.763021 119.425801 
L 167.750315 142.801319 
L 169.737609 150.238984 
L 173.712196 160.864219 
L 177.686783 179.989643 
L 179.674076 184.239737 
L 183.648664 196.99002 
L 185.635957 201.240114 
L 187.623251 207.615255 
L 189.610544 206.552732 
L 191.597838 208.677779 
L 193.585132 213.990396 
L 195.572425 218.240491 
L 197.559719 219.303014 
L 199.547012 218.240491 
L 201.534306 219.303014 
L 203.5216 223.553108 
L 205.508893 226.740679 
L 207.496187 228.865726 
L 209.48348 229.92825 
L 211.470774 232.053297 
L 213.458067 230.990773 
L 215.445361 227.803203 
L 217.432655 234.178344 
L 219.419948 237.365915 
L 221.407242 239.490962 
L 223.394535 239.490962 
L 225.381829 237.365915 
L 227.369123 237.365915 
L 229.356416 235.240867 
L 231.34371 235.240867 
L 233.331003 232.053297 
L 235.318297 234.178344 
L 237.30559 237.365915 
L 239.292884 235.240867 
L 241.280178 236.303391 
L 243.267471 236.303391 
L 245.254765 238.428438 
L 247.242058 238.428438 
L 249.229352 239.490962 
L 251.216646 239.490962 
L 253.203939 238.428438 
L 255.191233 234.178344 
L 257.178526 232.053297 
L 263.140407 219.303014 
L 265.127701 220.365538 
L 267.114994 220.365538 
L 269.102288 215.05292 
L 271.089581 213.990396 
L 273.076875 209.740302 
L 275.064169 207.615255 
L 277.051462 206.552732 
L 281.026049 202.302637 
L 283.013343 199.115067 
L 285.000636 199.115067 
L 286.98793 192.739926 
L 288.975224 184.239737 
L 290.962517 174.677025 
L 292.949811 170.426931 
L 294.937104 160.864219 
L 296.924398 154.489078 
L 298.911692 151.301507 
L 302.886279 132.176083 
L 304.873572 127.925989 
L 306.860866 133.238607 
L 308.848159 127.925989 
L 310.835453 128.988513 
L 312.822747 125.800942 
L 314.81004 123.675895 
L 316.797334 119.425801 
L 318.784627 108.800565 
L 320.771921 93.925236 
L 326.733802 62.049529 
L 328.721095 58.861959 
L 330.708389 43.986629 
L 332.695682 37.611488 
L 334.682976 40.799058 
L 336.67027 46.111676 
L 338.657563 48.236723 
L 340.644857 53.549341 
L 342.63215 59.924482 
L 344.619444 82.237477 
L 346.606738 86.487571 
L 350.581325 99.237853 
L 352.568618 110.925613 
L 354.555912 119.425801 
L 356.543205 125.800942 
L 358.530499 135.363654 
L 360.517793 143.863842 
L 362.505086 150.238984 
L 364.49238 159.801696 
L 366.479673 173.614502 
L 368.466967 181.052167 
L 370.454261 178.927119 
L 372.441554 188.489831 
L 374.428848 195.927496 
L 376.416141 200.17759 
L 380.390728 206.552732 
L 382.378022 208.677779 
L 384.365316 216.115444 
L 386.352609 219.303014 
L 388.339903 218.240491 
L 390.327196 218.240491 
L 392.31449 221.428061 
L 396.289077 223.553108 
L 398.276371 226.740679 
L 400.263664 227.803203 
L 402.250958 227.803203 
L 406.225545 234.178344 
L 408.212839 238.428438 
L 412.187426 242.678532 
L 414.174719 243.741056 
L 416.162013 243.741056 
L 418.149307 246.928626 
L 420.1366 246.928626 
L 422.123894 245.866103 
L 424.111187 245.866103 
L 426.098481 246.928626 
L 428.085774 245.866103 
L 430.073068 242.678532 
L 432.060362 242.678532 
L 434.047655 240.553485 
L 436.034949 239.490962 
L 438.022242 239.490962 
L 440.009536 238.428438 
L 441.99683 238.428438 
L 443.984123 235.240867 
L 445.971417 234.178344 
L 447.95871 229.92825 
L 449.946004 224.615632 
L 451.933297 223.553108 
L 455.907885 219.303014 
L 457.895178 218.240491 
L 459.882472 212.927873 
L 461.869765 209.740302 
L 463.857059 205.490208 
L 465.844353 199.115067 
L 471.806233 186.364784 
L 473.793527 183.177214 
L 475.78082 186.364784 
L 479.755408 175.739549 
L 481.742701 167.23936 
L 483.729995 159.801696 
L 485.717288 150.238984 
L 487.704582 154.489078 
L 489.691876 152.364031 
L 491.679169 155.551601 
L 493.666463 156.614125 
L 495.653756 151.301507 
L 497.64105 147.051413 
L 499.628344 149.17646 
L 501.615637 152.364031 
L 503.602931 156.614125 
L 505.590224 161.926743 
L 507.577518 154.489078 
L 509.564811 143.863842 
L 511.552105 139.613748 
L 513.539399 139.613748 
L 515.526692 120.488324 
L 517.513986 121.550848 
L 521.488573 104.550471 
L 523.475867 109.863089 
L 525.46316 111.988136 
L 527.450454 108.800565 
L 529.437747 107.738042 
L 533.412334 97.112806 
L 535.399628 106.675518 
L 537.386922 107.738042 
L 539.374215 118.363277 
L 541.361509 130.051036 
L 543.348802 135.363654 
L 545.336096 141.738795 
L 547.32339 151.301507 
L 549.310683 158.739172 
L 551.297977 173.614502 
L 553.28527 179.989643 
L 557.259857 190.614878 
L 559.247151 198.052543 
L 561.234445 195.927496 
L 563.221738 202.302637 
L 565.209032 209.740302 
L 567.196325 209.740302 
L 569.183619 216.115444 
L 571.170913 218.240491 
L 573.158206 221.428061 
L 575.1455 225.678155 
L 577.132793 227.803203 
L 579.120087 227.803203 
L 581.10738 229.92825 
L 583.094674 228.865726 
L 585.081968 233.11582 
L 587.069261 235.240867 
L 589.056555 238.428438 
L 595.018436 241.616009 
L 597.005729 244.803579 
L 600.980316 246.928626 
L 602.96761 249.053674 
L 604.954903 250.116197 
L 606.942197 249.053674 
L 609.591922 252.241244 
L 610.916784 252.241244 
L 612.241647 250.116197 
L 613.566509 245.866103 
L 614.22894 244.803579 
L 615.553803 244.803579 
L 616.216234 245.866103 
L 616.878665 244.803579 
L 617.541096 245.866103 
L 622.178115 245.866103 
L 622.840546 244.803579 
L 623.502977 246.928626 
L 624.165408 246.928626 
L 624.827839 245.866103 
L 626.152702 247.99115 
L 626.815133 246.928626 
L 627.477564 246.928626 
L 628.139995 244.803579 
L 628.802426 245.866103 
L 629.464858 243.741056 
L 630.127289 243.741056 
L 631.452151 245.866103 
L 634.101876 245.866103 
L 634.764307 246.928626 
L 635.426738 246.928626 
L 636.08917 247.99115 
L 637.414032 245.866103 
L 638.076463 242.678532 
L 638.738894 241.616009 
L 639.401326 237.365915 
L 640.063757 236.303391 
L 640.726188 234.178344 
L 642.05105 234.178344 
L 642.713482 237.365915 
L 644.038344 230.990773 
L 644.700775 228.865726 
L 645.363206 233.11582 
L 646.025638 230.990773 
L 646.688069 230.990773 
L 647.3505 229.92825 
L 648.012931 227.803203 
L 650.000225 224.615632 
L 650.662656 226.740679 
L 651.325087 225.678155 
L 651.987518 225.678155 
L 652.649949 224.615632 
L 653.312381 222.490585 
L 654.637243 222.490585 
L 655.299674 224.615632 
L 655.962105 224.615632 
L 656.624537 221.428061 
L 657.286968 219.303014 
L 657.949399 219.303014 
L 658.61183 218.240491 
L 659.274261 220.365538 
L 659.936693 218.240491 
L 660.599124 219.303014 
L 661.261555 215.05292 
L 661.923986 211.865349 
L 662.586417 211.865349 
L 663.248849 209.740302 
L 663.91128 206.552732 
L 664.573711 205.490208 
L 665.236142 203.365161 
L 665.898573 205.490208 
L 666.561005 203.365161 
L 667.223436 203.365161 
L 667.885867 202.302637 
L 669.210729 198.052543 
L 669.873161 194.864973 
L 671.198023 192.739926 
L 671.860454 188.489831 
L 672.522885 186.364784 
L 673.185317 185.302261 
L 673.847748 185.302261 
L 674.510179 182.11469 
L 675.17261 181.052167 
L 675.835041 176.802072 
L 676.497472 173.614502 
L 677.159904 178.927119 
L 677.822335 175.739549 
L 678.484766 175.739549 
L 679.147197 177.864596 
L 679.809628 175.739549 
L 680.47206 171.489455 
L 681.134491 173.614502 
L 681.796922 172.551978 
L 682.459353 168.301884 
L 683.121784 162.989266 
L 683.784216 162.989266 
L 685.109078 165.114313 
L 685.771509 162.989266 
L 686.43394 162.989266 
L 687.096372 164.05179 
L 687.758803 167.23936 
L 688.421234 167.23936 
L 689.083665 168.301884 
L 689.746096 168.301884 
L 690.408528 171.489455 
L 691.070959 173.614502 
L 691.73339 168.301884 
L 692.395821 169.364408 
L 693.720684 162.989266 
L 695.045546 165.114313 
L 695.707977 161.926743 
L 696.370408 159.801696 
L 697.03284 153.426554 
L 697.695271 155.551601 
L 698.357702 152.364031 
L 699.020133 151.301507 
L 699.682564 147.051413 
L 700.344995 148.113937 
L 701.007427 144.926366 
L 701.669858 143.863842 
L 702.332289 139.613748 
L 702.99472 138.551225 
L 703.657151 136.426178 
L 704.319583 135.363654 
L 704.982014 133.238607 
L 707.631739 128.988513 
L 708.29417 126.863466 
L 708.956601 118.363277 
L 709.619032 115.175707 
L 710.281463 109.863089 
L 710.943895 115.175707 
L 711.606326 109.863089 
L 712.268757 102.425424 
L 712.931188 102.425424 
L 713.593619 103.487948 
L 714.256051 101.362901 
L 716.243344 104.550471 
L 716.905775 103.487948 
L 717.568207 106.675518 
L 718.230638 107.738042 
L 718.893069 110.925613 
L 719.5555 104.550471 
L 720.217931 106.675518 
L 720.880363 107.738042 
L 721.542794 104.550471 
L 722.205225 105.612995 
L 722.867656 110.925613 
L 723.530087 108.800565 
L 724.192518 107.738042 
L 724.85495 108.800565 
L 727.504674 108.800565 
L 728.167106 109.863089 
L 728.829537 111.988136 
L 730.154399 118.363277 
L 730.81683 123.675895 
L 732.141693 127.925989 
L 732.804124 131.11356 
L 733.466555 132.176083 
L 734.128986 132.176083 
L 734.791418 133.238607 
L 735.453849 138.551225 
L 736.11628 141.738795 
L 736.778711 142.801319 
L 737.441142 142.801319 
L 738.103574 145.98889 
L 738.766005 151.301507 
L 739.428436 153.426554 
L 740.090867 157.676649 
L 740.753298 160.864219 
L 741.41573 161.926743 
L 742.078161 168.301884 
L 742.740592 168.301884 
L 743.403023 169.364408 
L 744.065454 171.489455 
L 744.727886 177.864596 
L 745.390317 182.11469 
L 746.052748 183.177214 
L 746.715179 183.177214 
L 747.37761 185.302261 
L 748.040041 184.239737 
L 748.702473 185.302261 
L 749.364904 187.427308 
L 750.027335 187.427308 
L 752.014629 190.614878 
L 752.67706 194.864973 
L 754.001922 199.115067 
L 755.326785 201.240114 
L 755.989216 201.240114 
L 756.651647 204.427685 
L 757.314078 204.427685 
L 757.976509 207.615255 
L 760.626234 211.865349 
L 761.288665 211.865349 
L 761.951097 212.927873 
L 762.613528 215.05292 
L 765.925684 220.365538 
L 766.588115 223.553108 
L 767.250546 224.615632 
L 767.912977 223.553108 
L 768.575409 225.678155 
L 769.23784 224.615632 
L 770.562702 224.615632 
L 771.887565 228.865726 
L 772.549996 228.865726 
L 773.212427 229.92825 
L 773.874858 233.11582 
L 774.537289 234.178344 
L 775.862152 234.178344 
L 776.524583 233.11582 
L 777.187014 233.11582 
L 779.174308 236.303391 
L 779.836739 236.303391 
L 780.49917 237.365915 
L 781.161601 236.303391 
L 781.824032 236.303391 
L 783.148895 238.428438 
L 783.811326 238.428438 
L 784.473757 239.490962 
L 785.136188 242.678532 
L 786.461051 244.803579 
L 787.785913 244.803579 
L 788.448344 243.741056 
L 789.110776 244.803579 
L 789.773207 242.678532 
L 790.435638 241.616009 
L 791.098069 241.616009 
L 792.422932 239.490962 
L 793.085363 240.553485 
L 793.747794 239.490962 
L 794.410225 240.553485 
L 795.072656 240.553485 
L 795.735088 243.741056 
L 796.397519 243.741056 
L 797.05995 245.866103 
L 797.722381 246.928626 
L 801.034537 246.928626 
L 802.359399 244.803579 
L 803.684262 244.803579 
L 804.346693 242.678532 
L 805.009124 241.616009 
L 806.333987 241.616009 
L 806.996418 242.678532 
L 808.32128 242.678532 
L 808.983711 240.553485 
L 809.646143 240.553485 
L 810.308574 239.490962 
L 812.295867 239.490962 
L 813.62073 238.428438 
L 814.945592 239.490962 
L 815.608023 236.303391 
L 816.270455 236.303391 
L 816.270455 236.303391 
" clip-path="url(#pd9074d9b07)" style="fill: none; stroke: #2288ff; stroke-width: 1.5; stroke-linecap: square"/>
   </g>
   <g id="patch_4">
    <path d="M 40.75 262.972732 
L 40.75 26.88 
" style="fill: none; stroke: #000000; stroke-width: 0.8; stroke-linejoin: miter; stroke-linecap: square"/>
   </g>
   <g id="patch_5">
    <path d="M 853.2 262.972732 
L 853.2 26.88 
" style="fill: none; stroke: #000000; stroke-width: 0.8; stroke-linejoin: miter; stroke-linecap: square"/>
   </g>
   <g id="patch_6">
    <path d="M 40.75 262.972732 
L 853.2 262.972732 
" style="fill: none; stroke: #000000; stroke-width: 0.8; stroke-linejoin: miter; stroke-linecap: square"/>
   </g>
   <g id="patch_7">
    <path d="M 40.75 26.88 
L 853.2 26.88 
" style="fill: none; stroke: #000000; stroke-width: 0.8; stroke-linejoin: miter; stroke-linecap: square"/>
   </g>
   <g id="text_10">
    <text style="font-size: 12px; font-family: 'Noto Sans JP'; text-anchor: middle" x="446.975" y="20.88" transform="rotate(-0 446.975 20.88)">同時接続数の推移</text>
   </g>
  </g>
  <g id="axes_2">
   <g id="patch_8">
    <path d="M 40.75 529.445464 
L 853.2 529.445464 
L 853.2 293.352732 
L 40.75 293.352732 
z
" style="fill: #ffffff"/>
   </g>
   <g id="patch_9">
    <path d="M 139.928205 529.445464 
L 143.902792 529.445464 
L 143.902792 293.352732 
L 139.928205 293.352732 
z
" clip-path="url(#p43dc1ee968)" style="fill: #808080; opacity: 0.3; stroke: #808080; stroke-linejoin: miter"/>
   </g>
   <g id="matplotlib.axis_3">
    <g id="xtick_10">
     <g id="line2d_38">
      <path d="M 62.423755 529.445464 
L 62.423755 293.352732 
" clip-path="url(#p43dc1ee968)" style="fill: none; stroke: #b0b0b0; stroke-opacity: 0.3; stroke-width: 0.8; stroke-linecap: square"/>
     </g>
     <g id="line2d_39">
      <g>
       <use xlink:href="#m292b7f24e6" x="62.423755" y="529.445464" style="stroke: #000000; stroke-width: 0.8"/>
      </g>
     </g>
     <g id="text_11">
      <text style="font-size: 10px; font-family: 'Noto Sans JP'" transform="translate(26.650304 563.358113) rotate(-30)">06-30 12</text>
     </g>
    </g>
    <g id="xtick_11">
     <g id="line2d_40">
      <path d="M 157.813847 529.445464 
L 157.813847 293.352732 
" clip-path="url(#p43dc1ee968)" style="fill: none; stroke: #b0b0b0; stroke-opacity: 0.3; stroke-width: 0.8; stroke-linecap: square"/>
     </g>
     <g id="line2d_41">
      <g>
       <use xlink:href="#m292b7f24e6" x="157.813847" y="529.445464" style="stroke: #000000; stroke-width: 0.8"/>
      </g>
     </g>
     <g id="text_12">
      <text style="font-size: 10px; font-family: 'Noto Sans JP'" transform="translate(122.040396 563.358113) rotate(-30)">07-01 00</text>
     </g>
    </g>
    <g id="xtick_12">
     <g id="line2d_42">
      <path d="M 253.203939 529.445464 
L 253.203939 293.352732 
" clip-path="url(#p43dc1ee968)" style="fill: none; stroke: #b0b0b0; stroke-opacity: 0.3; stroke-width: 0.8; stroke-linecap: square"/>
     </g>
     <g id="line2d_43">
      <g>
       <use xlink:href="#m292b7f24e6" x="253.203939" y="529.445464" style="stroke: #000000; stroke-width: 0.8"/>
      </g>
     </g>
     <g id="text_13">
      <text style="font-size: 10px; font-family: 'Noto Sans JP'" transform="translate(217.430488 563.358113) rotate(-30)">07-01 12</text>
     </g>
    </g>
    <g id="xtick_13">
     <g id="line2d_44">
      <path d="M 348.594031 529.445464 
L 348.594031 293.352732 
" clip-path="url(#p43dc1ee968)" style="fill: none; stroke: #b0b0b0; stroke-opacity: 0.3; stroke-width: 0.8; stroke-linecap: square"/>
     </g>
     <g id="line2d_45">
      <g>
       <use xlink:href="#m292b7f24e6" x="348.594031" y="529.445464" style="stroke: #000000; stroke-width: 0.8"/>
      </g>
     </g>
     <g id="text_14">
      <text style="font-size: 10px; font-family: 'Noto Sans JP'" transform="translate(312.82058 563.358113) rotate(-30)">07-02 00</text>
     </g>
    </g>
    <g id="xtick_14">
     <g id="line2d_46">
      <path d="M 443.984123 529.445464 
L 443.984123 293.352732 
" clip-path="url(#p43dc1ee968)" style="fill: none; stroke: #b0b0b0; stroke-opacity: 0.3; stroke-width: 0.8; stroke-linecap: square"/>
     </g>
     <g id="line2d_47">
      <g>
       <use xlink:href="#m292b7f24e6" x="443.984123" y="529.445464" style="stroke: #000000; stroke-width: 0.8"/>
      </g>
     </g>
     <g id="text_15">
      <text style="font-size: 10px; font-family: 'Noto Sans JP'" transform="translate(408.210672 563.358113) rotate(-30)">07-02 12</text>
     </g>
    </g>
    <g id="xtick_15">
     <g id="line2d_48">
      <path d="M 539.374215 529.445464 
L 539.374215 293.352732 
" clip-path="url(#p43dc1ee968)" style="fill: none; stroke: #b0b0b0; stroke-opacity: 0.3; stroke-width: 0.8; stroke-linecap: square"/>
     </g>
     <g id="line2d_49">
      <g>
       <use xlink:href="#m292b7f24e6" x="539.374215" y="529.445464" style="stroke: #000000; stroke-width: 0.8"/>
      </g>
     </g>
     <g id="text_16">
      <text style="font-size: 10px; font-family: 'Noto Sans JP'" transform="translate(503.600764 563.358113) rotate(-30)">07-03 00</text>
     </g>
    </g>
    <g id="xtick_16">
     <g id="line2d_50">
      <path d="M 634.764307 529.445464 
L 634.764307 293.352732 
" clip-path="url(#p43dc1ee968)" style="fill: none; stroke: #b0b0b0; stroke-opacity: 0.3; stroke-width: 0.8; stroke-linecap: square"/>
     </g>
     <g id="line2d_51">
      <g>
       <use xlink:href="#m292b7f24e6" x="634.764307" y="529.445464" style="stroke: #000000; stroke-width: 0.8"/>
      </g>
     </g>
     <g id="text_17">
      <text style="font-size: 10px; font-family: 'Noto Sans JP'" transform="translate(598.990856 563.358113) rotate(-30)">07-03 12</text>
     </g>
    </g>
    <g id="xtick_17">
     <g id="line2d_52">
      <path d="M 730.154399 529.445464 
L 730.154399 293.352732 
" clip-path="url(#p43dc1ee968)" style="fill: none; stroke: #b0b0b0; stroke-opacity: 0.3; stroke-width: 0.8; stroke-linecap: square"/>
     </g>
     <g id="line2d_53">
      <g>
       <use xlink:href="#m292b7f24e6" x="730.154399" y="529.445464" style="stroke: #000000; stroke-width: 0.8"/>
      </g>
     </g>
     <g id="text_18">
      <text style="font-size: 10px; font-family: 'Noto Sans JP'" transform="translate(694.380948 563.358113) rotate(-30)">07-04 00</text>
     </g>
    </g>
    <g id="xtick_18">
     <g id="line2d_54">
      <path d="M 825.544491 529.445464 
L 825.544491 293.352732 
" clip-path="url(#p43dc1ee968)" style="fill: none; stroke: #b0b0b0; stroke-opacity: 0.3; stroke-width: 0.8; stroke-linecap: square"/>
     </g>
     <g id="line2d_55">
      <g>
       <use xlink:href="#m292b7f24e6" x="825.544491" y="529.445464" style="stroke: #000000; stroke-width: 0.8"/>
      </g>
     </g>
     <g id="text_19">
      <text style="font-size: 10px; font-family: 'Noto Sans JP'" transform="translate(789.77104 563.358113) rotate(-30)">07-04 12</text>
     </g>
    </g>
   </g>
   <g id="matplotlib.axis_4">
    <g id="ytick_10">
     <g id="line2d_56">
      <path d="M 40.75 512.581697 
L 853.2 512.581697 
" clip-path="url(#p43dc1ee968)" style="fill: none; stroke: #b0b0b0; stroke-opacity: 0.3; stroke-width: 0.8; stroke-linecap: square"/>
     </g>
     <g id="line2d_57">
      <g>
       <use xlink:href="#m5715c9891d" x="40.75" y="512.581697" style="stroke: #000000; stroke-width: 0.8"/>
      </g>
     </g>
     <g id="text_20">
      <text style="font-size: 10px; font-family: 'Noto Sans JP'; text-anchor: end" x="33.75" y="516.566854" transform="rotate(-0 33.75 516.566854)">8680</text>
     </g>
    </g>
    <g id="ytick_11">
     <g id="line2d_58">
      <path d="M 40.75 488.052582 
L 853.2 488.052582 
" clip-path="url(#p43dc1ee968)" style="fill: none; stroke: #b0b0b0; stroke-opacity: 0.3; stroke-width: 0.8; stroke-linecap: square"/>
     </g>
     <g id="line2d_59">
      <g>
       <use xlink:href="#m5715c9891d" x="40.75" y="488.052582" style="stroke: #000000; stroke-width: 0.8"/>
      </g>
     </g>
     <g id="text_21">
      <text style="font-size: 10px; font-family: 'Noto Sans JP'; text-anchor: end" x="33.75" y="492.037739" transform="rotate(-0 33.75 492.037739)">8688</text>
     </g>
    </g>
    <g id="ytick_12">
     <g id="line2d_60">
      <path d="M 40.75 463.523467 
L 853.2 463.523467 
" clip-path="url(#p43dc1ee968)" style="fill: none; stroke: #b0b0b0; stroke-opacity: 0.3; stroke-width: 0.8; stroke-linecap: square"/>
     </g>
     <g id="line2d_61">
      <g>
       <use xlink:href="#m5715c9891d" x="40.75" y="463.523467" style="stroke: #000000; stroke-width: 0.8"/>
      </g>
     </g>
     <g id="text_22">
      <text style="font-size: 10px; font-family: 'Noto Sans JP'; text-anchor: end" x="33.75" y="467.508624" transform="rotate(-0 33.75 467.508624)">8696</text>
     </g>
    </g>
    <g id="ytick_13">
     <g id="line2d_62">
      <path d="M 40.75 438.994352 
L 853.2 438.994352 
" clip-path="url(#p43dc1ee968)" style="fill: none; stroke: #b0b0b0; stroke-opacity: 0.3; stroke-width: 0.8; stroke-linecap: square"/>
     </g>
     <g id="line2d_63">
      <g>
       <use xlink:href="#m5715c9891d" x="40.75" y="438.994352" style="stroke: #000000; stroke-width: 0.8"/>
      </g>
     </g>
     <g id="text_23">
      <text style="font-size: 10px; font-family: 'Noto Sans JP'; text-anchor: end" x="33.75" y="442.979509" transform="rotate(-0 33.75 442.979509)">8704</text>
     </g>
    </g>
    <g id="ytick_14">
     <g id="line2d_64">
      <path d="M 40.75 414.465237 
L 853.2 414.465237 
" clip-path="url(#p43dc1ee968)" style="fill: none; stroke: #b0b0b0; stroke-opacity: 0.3; stroke-width: 0.8; stroke-linecap: square"/>
     </g>
     <g id="line2d_65">
      <g>
       <use xlink:href="#m5715c9891d" x="40.75" y="414.465237" style="stroke: #000000; stroke-width: 0.8"/>
      </g>
     </g>
     <g id="text_24">
      <text style="font-size: 10px; font-family: 'Noto Sans JP'; text-anchor: end" x="33.75" y="418.450394" transform="rotate(-0 33.75 418.450394)">8712</text>
     </g>
    </g>
    <g id="ytick_15">
     <g id="line2d_66">
      <path d="M 40.75 389.936122 
L 853.2 389.936122 
" clip-path="url(#p43dc1ee968)" style="fill: none; stroke: #b0b0b0; stroke-opacity: 0.3; stroke-width: 0.8; stroke-linecap: square"/>
     </g>
     <g id="line2d_67">
      <g>
       <use xlink:href="#m5715c9891d" x="40.75" y="389.936122" style="stroke: #000000; stroke-width: 0.8"/>
      </g>
     </g>
     <g id="text_25">
      <text style="font-size: 10px; font-family: 'Noto Sans JP'; text-anchor: end" x="33.75" y="393.921279" transform="rotate(-0 33.75 393.921279)">8720</text>
     </g>
    </g>
    <g id="ytick_16">
     <g id="line2d_68">
      <path d="M 40.75 365.407007 
L 853.2 365.407007 
" clip-path="url(#p43dc1ee968)" style="fill: none; stroke: #b0b0b0; stroke-opacity: 0.3; stroke-width: 0.8; stroke-linecap: square"/>
     </g>
     <g id="line2d_69">
      <g>
       <use xlink:href="#m5715c9891d" x="40.75" y="365.407007" style="stroke: #000000; stroke-width: 0.8"/>
      </g>
     </g>
     <g id="text_26">
      <text style="font-size: 10px; font-family: 'Noto Sans JP'; text-anchor: end" x="33.75" y="369.392164" transform="rotate(-0 33.75 369.392164)">8728</text>
     </g>
    </g>
    <g id="ytick_17">
     <g id="line2d_70">
      <path d="M 40.75 340.877892 
L 853.2 340.877892 
" clip-path="url(#p43dc1ee968)" style="fill: none; stroke: #b0b0b0; stroke-opacity: 0.3; stroke-width: 0.8; stroke-linecap: square"/>
     </g>
     <g id="line2d_71">
      <g>
       <use xlink:href="#m5715c9891d" x="40.75" y="340.877892" style="stroke: #000000; stroke-width: 0.8"/>
      </g>
     </g>
     <g id="text_27">
      <text style="font-size: 10px; font-family: 'Noto Sans JP'; text-anchor: end" x="33.75" y="344.863049" transform="rotate(-0 33.75 344.863049)">8736</text>
     </g>
    </g>
    <g id="ytick_18">
     <g id="line2d_72">
      <path d="M 40.75 316.348777 
L 853.2 316.348777 
" clip-path="url(#p43dc1ee968)" style="fill: none; stroke: #b0b0b0; stroke-opacity: 0.3; stroke-width: 0.8; stroke-linecap: square"/>
     </g>
     <g id="line2d_73">
      <g>
       <use xlink:href="#m5715c9891d" x="40.75" y="316.348777" style="stroke: #000000; stroke-width: 0.8"/>
      </g>
     </g>
     <g id="text_28">
      <text style="font-size: 10px; font-family: 'Noto Sans JP'; text-anchor: end" x="33.75" y="320.333934" transform="rotate(-0 33.75 320.333934)">8744</text>
     </g>
    </g>
   </g>
   <g id="line2d_74">
    <path d="M 77.679545 518.713976 
L 94.335274 518.713976 
L 96.207746 515.647837 
L 98.19504 509.515558 
L 100.182333 512.581697 
L 102.169627 509.515558 
L 106.144214 509.515558 
L 108.131507 506.449419 
L 110.118801 500.31714 
L 114.093388 506.449419 
L 116.080682 503.383279 
L 118.067975 503.383279 
L 122.042563 509.515558 
L 124.029856 509.515558 
L 126.01715 506.449419 
L 128.004443 497.251 
L 129.991737 497.251 
L 131.97903 484.986443 
L 133.966324 481.920304 
L 137.940911 481.920304 
L 139.928205 478.854164 
M 143.902792 475.788025 
L 145.890086 475.788025 
L 147.877379 472.721885 
L 149.864673 463.523467 
L 151.851966 463.523467 
L 153.83926 457.391189 
L 155.826553 457.391189 
L 157.813847 460.457328 
L 159.801141 454.325049 
L 161.788434 454.325049 
L 163.775728 451.25891 
L 171.724902 451.25891 
L 173.712196 448.19277 
L 175.699489 448.19277 
L 177.686783 457.391189 
L 179.674076 454.325049 
L 187.623251 454.325049 
L 189.610544 448.19277 
L 207.496187 448.19277 
L 209.48348 454.325049 
L 225.381829 454.325049 
L 227.369123 457.391189 
L 233.331003 457.391189 
L 235.318297 460.457328 
L 249.229352 460.457328 
L 251.216646 463.523467 
L 259.16582 463.523467 
L 261.153113 460.457328 
L 281.026049 460.457328 
L 283.013343 457.391189 
L 285.000636 460.457328 
L 294.937104 460.457328 
L 296.924398 457.391189 
L 298.911692 457.391189 
L 300.898985 451.25891 
L 302.886279 451.25891 
L 304.873572 454.325049 
L 308.848159 454.325049 
L 310.835453 451.25891 
L 314.81004 451.25891 
L 316.797334 448.19277 
L 318.784627 448.19277 
L 320.771921 445.126631 
L 322.759215 445.126631 
L 324.746508 442.060492 
L 326.733802 448.19277 
L 328.721095 442.060492 
L 330.708389 438.994352 
L 334.682976 438.994352 
L 336.67027 442.060492 
L 340.644857 442.060492 
L 342.63215 438.994352 
L 344.619444 438.994352 
L 346.606738 435.928213 
L 350.581325 435.928213 
L 352.568618 432.862074 
L 354.555912 432.862074 
L 356.543205 429.795934 
L 358.530499 423.663655 
L 360.517793 420.597516 
L 368.466967 420.597516 
L 370.454261 423.663655 
L 376.416141 423.663655 
L 378.403435 420.597516 
L 382.378022 420.597516 
L 384.365316 417.531377 
L 426.098481 417.531377 
L 428.085774 414.465237 
L 438.022242 414.465237 
L 440.009536 411.399098 
L 441.99683 411.399098 
L 443.984123 408.332959 
L 445.971417 411.399098 
L 461.869765 411.399098 
L 463.857059 408.332959 
L 465.844353 408.332959 
L 467.831646 411.399098 
L 473.793527 411.399098 
L 477.768114 405.266819 
L 485.717288 405.266819 
L 487.704582 402.20068 
L 489.691876 396.068401 
L 493.666463 389.936122 
L 495.653756 389.936122 
L 497.64105 393.002262 
L 501.615637 393.002262 
L 503.602931 396.068401 
L 507.577518 396.068401 
L 521.488573 374.605425 
L 523.475867 374.605425 
L 525.46316 368.473147 
L 527.450454 368.473147 
L 533.412334 359.274729 
L 537.386922 359.274729 
L 539.374215 362.340868 
L 557.259857 362.340868 
L 559.247151 359.274729 
L 569.183619 359.274729 
L 571.170913 356.208589 
L 589.056555 356.208589 
L 591.043848 353.14245 
L 620.853252 353.14245 
L 621.515683 350.07631 
L 632.777014 350.07631 
L 633.439445 353.14245 
L 637.414032 353.14245 
L 638.076463 350.07631 
L 640.063757 350.07631 
L 640.726188 347.010171 
L 642.05105 347.010171 
L 642.713482 350.07631 
L 657.286968 350.07631 
L 657.949399 353.14245 
L 669.873161 353.14245 
L 670.535592 350.07631 
L 677.159904 350.07631 
L 677.822335 343.944032 
L 689.746096 343.944032 
L 690.408528 340.877892 
L 691.070959 340.877892 
L 691.73339 337.811753 
L 692.395821 340.877892 
L 696.370408 340.877892 
L 697.03284 337.811753 
L 702.332289 337.811753 
L 702.99472 343.944032 
L 704.982014 343.944032 
L 705.644445 347.010171 
L 708.956601 347.010171 
L 709.619032 343.944032 
L 713.593619 343.944032 
L 714.256051 340.877892 
L 716.905775 340.877892 
L 717.568207 337.811753 
L 719.5555 337.811753 
L 720.217931 334.745614 
L 722.867656 334.745614 
L 723.530087 337.811753 
L 724.192518 334.745614 
L 734.128986 334.745614 
L 734.791418 331.679474 
L 737.441142 331.679474 
L 738.103574 325.547195 
L 738.766005 325.547195 
L 739.428436 322.481056 
L 744.065454 322.481056 
L 745.390317 316.348777 
L 746.715179 316.348777 
L 747.37761 313.282638 
L 749.364904 313.282638 
L 750.027335 310.216499 
L 788.448344 310.216499 
L 789.110776 307.150359 
L 792.422932 307.150359 
L 793.085363 304.08422 
L 816.270455 304.08422 
L 816.270455 304.08422 
" clip-path="url(#p43dc1ee968)" style="fill: none; stroke: #2288ff; stroke-width: 1.5; stroke-linecap: square"/>
   </g>
   <g id="patch_10">
    <path d="M 40.75 529.445464 
L 40.75 293.352732 
" style="fill: none; stroke: #000000; stroke-width: 0.8; stroke-linejoin: miter; stroke-linecap: square"/>
   </g>
   <g id="patch_11">
    <path d="M 853.2 529.445464 
L 853.2 293.352732 
" style="fill: none; stroke: #000000; stroke-width: 0.8; stroke-linejoin: miter; stroke-linecap: square"/>
   </g>
   <g id="patch_12">
    <path d="M 40.75 529.445464 
L 853.2 529.445464 
" style="fill: none; stroke: #000000; stroke-width: 0.8; stroke-linejoin: miter; stroke-linecap: square"/>
   </g>
   <g id="patch_13">
    <path d="M 40.75 293.352732 
L 853.2 293.352732 
" style="fill: none; stroke: #000000; stroke-width: 0.8; stroke-linejoin: miter; stroke-linecap: square"/>
   </g>
   <g id="text_29">
    <text style="font-size: 12px; font-family: 'Noto Sans JP'; text-anchor: middle" x="446.975" y="287.352732" transform="rotate(-0 446.975 287.352732)">サーバー数の推移</text>
   </g>
  </g>
 </g>
 <defs>
  <clipPath id="pd9074d9b07">
   <rect x="40.75" y="26.88" width="812.45" height="236.092732"/>
  </clipPath>
  <clipPath id="p43dc1ee968">
   <rect x="40.75" y="293.352732" width="812.45" height="236.092732"/>
  </clipPath>
 </defs>
</svg>
