<!DOCTYPE svg  PUBLIC '-//W3C//DTD SVG 1.1//EN'  'http://www.w3.org/Graphics/SVG/1.1/DTD/svg11.dtd'>
<svg version="1.1" viewBox="0 0 864 576" xmlns="http://www.w3.org/2000/svg" xmlns:xlink="http://www.w3.org/1999/xlink">
 <defs>
  <style type="text/css">*{stroke-linejoin: round; stroke-linecap: butt}</style>
 </defs>
 <g id="e">
  <g id="f">
   <path d="m0 576h864v-576h-864z" fill="#fff"/>
  </g>
  <g id="g">
   <g id="h">
    <path d="m40.75 262.97h812.45v-236.09h-812.45z" fill="#fff"/>
   </g>
   <g id="i">
    <path d="m137.36 262.97h3.8105v-236.09h-3.8105z" clip-path="url(#b)" fill="#808080" opacity=".3" stroke="#808080"/>
   </g>
   <g id="j">
    <g id="k">
     <g id="l">
      <path d="m63.053 262.97v-236.09" clip-path="url(#b)" fill="none" stroke="#b0b0b0" stroke-linecap="square" stroke-opacity=".3" stroke-width=".8"/>
     </g>
     <g id="m">
      <defs>
       <path id="d" d="m0 0v3.5" stroke="#000" stroke-width=".8"/>
      </defs>
      <use x="63.053417" y="262.972732" stroke="#000000" stroke-width=".8" xlink:href="#d"/>
     </g>
    </g>
    <g id="n">
     <g id="o">
      <path d="m154.51 262.97v-236.09" clip-path="url(#b)" fill="none" stroke="#b0b0b0" stroke-linecap="square" stroke-opacity=".3" stroke-width=".8"/>
     </g>
     <g id="p">
      <use x="154.506413" y="262.972732" stroke="#000000" stroke-width=".8" xlink:href="#d"/>
     </g>
    </g>
    <g id="q">
     <g id="r">
      <path d="m245.96 262.97v-236.09" clip-path="url(#b)" fill="none" stroke="#b0b0b0" stroke-linecap="square" stroke-opacity=".3" stroke-width=".8"/>
     </g>
     <g id="s">
      <use x="245.959409" y="262.972732" stroke="#000000" stroke-width=".8" xlink:href="#d"/>
     </g>
    </g>
    <g id="t">
     <g id="u">
      <path d="m337.41 262.97v-236.09" clip-path="url(#b)" fill="none" stroke="#b0b0b0" stroke-linecap="square" stroke-opacity=".3" stroke-width=".8"/>
     </g>
     <g id="v">
      <use x="337.412405" y="262.972732" stroke="#000000" stroke-width=".8" xlink:href="#d"/>
     </g>
    </g>
    <g id="w">
     <g id="x">
      <path d="m428.87 262.97v-236.09" clip-path="url(#b)" fill="none" stroke="#b0b0b0" stroke-linecap="square" stroke-opacity=".3" stroke-width=".8"/>
     </g>
     <g id="y">
      <use x="428.865401" y="262.972732" stroke="#000000" stroke-width=".8" xlink:href="#d"/>
     </g>
    </g>
    <g id="z">
     <g id="aa">
      <path d="m520.32 262.97v-236.09" clip-path="url(#b)" fill="none" stroke="#b0b0b0" stroke-linecap="square" stroke-opacity=".3" stroke-width=".8"/>
     </g>
     <g id="ab">
      <use x="520.318398" y="262.972732" stroke="#000000" stroke-width=".8" xlink:href="#d"/>
     </g>
    </g>
    <g id="ac">
     <g id="ad">
      <path d="m611.77 262.97v-236.09" clip-path="url(#b)" fill="none" stroke="#b0b0b0" stroke-linecap="square" stroke-opacity=".3" stroke-width=".8"/>
     </g>
     <g id="ae">
      <use x="611.771394" y="262.972732" stroke="#000000" stroke-width=".8" xlink:href="#d"/>
     </g>
    </g>
    <g id="af">
     <g id="ag">
      <path d="m703.22 262.97v-236.09" clip-path="url(#b)" fill="none" stroke="#b0b0b0" stroke-linecap="square" stroke-opacity=".3" stroke-width=".8"/>
     </g>
     <g id="ah">
      <use x="703.22439" y="262.972732" stroke="#000000" stroke-width=".8" xlink:href="#d"/>
     </g>
    </g>
    <g id="ai">
     <g id="aj">
      <path d="m794.68 262.97v-236.09" clip-path="url(#b)" fill="none" stroke="#b0b0b0" stroke-linecap="square" stroke-opacity=".3" stroke-width=".8"/>
     </g>
     <g id="ak">
      <use x="794.677386" y="262.972732" stroke="#000000" stroke-width=".8" xlink:href="#d"/>
     </g>
    </g>
   </g>
   <g id="al">
    <g id="am">
     <g id="an">
      <path d="m40.75 244.8h812.45" clip-path="url(#b)" fill="none" stroke="#b0b0b0" stroke-linecap="square" stroke-opacity=".3" stroke-width=".8"/>
     </g>
     <g id="ao">
      <defs>
       <path id="c" d="m0 0h-3.5" stroke="#000" stroke-width=".8"/>
      </defs>
      <use x="40.75" y="244.803579" stroke="#000000" stroke-width=".8" xlink:href="#c"/>
     </g>
     <g id="ap">
      <text transform="rotate(-0 33.75 248.79)" x="33.75" y="248.788736" font-family="'Noto Sans JP'" font-size="10px" text-anchor="end">25</text>
     </g>
    </g>
    <g id="aq">
     <g id="ar">
      <path d="m40.75 218.24h812.45" clip-path="url(#b)" fill="none" stroke="#b0b0b0" stroke-linecap="square" stroke-opacity=".3" stroke-width=".8"/>
     </g>
     <g id="as">
      <use x="40.75" y="218.240491" stroke="#000000" stroke-width=".8" xlink:href="#c"/>
     </g>
     <g id="at">
      <text transform="rotate(-0 33.75 222.23)" x="33.75" y="222.225647" font-family="'Noto Sans JP'" font-size="10px" text-anchor="end">50</text>
     </g>
    </g>
    <g id="au">
     <g id="av">
      <path d="m40.75 191.68h812.45" clip-path="url(#b)" fill="none" stroke="#b0b0b0" stroke-linecap="square" stroke-opacity=".3" stroke-width=".8"/>
     </g>
     <g id="aw">
      <use x="40.75" y="191.677402" stroke="#000000" stroke-width=".8" xlink:href="#c"/>
     </g>
     <g id="ax">
      <text transform="rotate(-0 33.75 195.66)" x="33.75" y="195.662558" font-family="'Noto Sans JP'" font-size="10px" text-anchor="end">75</text>
     </g>
    </g>
    <g id="ay">
     <g id="az">
      <path d="m40.75 165.11h812.45" clip-path="url(#b)" fill="none" stroke="#b0b0b0" stroke-linecap="square" stroke-opacity=".3" stroke-width=".8"/>
     </g>
     <g id="ba">
      <use x="40.75" y="165.114313" stroke="#000000" stroke-width=".8" xlink:href="#c"/>
     </g>
     <g id="bb">
      <text transform="rotate(-0 33.75 169.1)" x="33.75" y="169.09947" font-family="'Noto Sans JP'" font-size="10px" text-anchor="end">100</text>
     </g>
    </g>
    <g id="bc">
     <g id="bd">
      <path d="m40.75 138.55h812.45" clip-path="url(#b)" fill="none" stroke="#b0b0b0" stroke-linecap="square" stroke-opacity=".3" stroke-width=".8"/>
     </g>
     <g id="be">
      <use x="40.75" y="138.551225" stroke="#000000" stroke-width=".8" xlink:href="#c"/>
     </g>
     <g id="bf">
      <text transform="rotate(-0 33.75 142.54)" x="33.75" y="142.536381" font-family="'Noto Sans JP'" font-size="10px" text-anchor="end">125</text>
     </g>
    </g>
    <g id="bg">
     <g id="bh">
      <path d="m40.75 111.99h812.45" clip-path="url(#b)" fill="none" stroke="#b0b0b0" stroke-linecap="square" stroke-opacity=".3" stroke-width=".8"/>
     </g>
     <g id="bi">
      <use x="40.75" y="111.988136" stroke="#000000" stroke-width=".8" xlink:href="#c"/>
     </g>
     <g id="bj">
      <text transform="rotate(-0 33.75 115.97)" x="33.75" y="115.973292" font-family="'Noto Sans JP'" font-size="10px" text-anchor="end">150</text>
     </g>
    </g>
    <g id="bk">
     <g id="bl">
      <path d="m40.75 85.425h812.45" clip-path="url(#b)" fill="none" stroke="#b0b0b0" stroke-linecap="square" stroke-opacity=".3" stroke-width=".8"/>
     </g>
     <g id="bm">
      <use x="40.75" y="85.425047" stroke="#000000" stroke-width=".8" xlink:href="#c"/>
     </g>
     <g id="bn">
      <text transform="rotate(-0 33.75 89.41)" x="33.75" y="89.410204" font-family="'Noto Sans JP'" font-size="10px" text-anchor="end">175</text>
     </g>
    </g>
    <g id="bo">
     <g id="bp">
      <path d="m40.75 58.862h812.45" clip-path="url(#b)" fill="none" stroke="#b0b0b0" stroke-linecap="square" stroke-opacity=".3" stroke-width=".8"/>
     </g>
     <g id="bq">
      <use x="40.75" y="58.861959" stroke="#000000" stroke-width=".8" xlink:href="#c"/>
     </g>
     <g id="br">
      <text transform="rotate(-0 33.75 62.847)" x="33.75" y="62.847115" font-family="'Noto Sans JP'" font-size="10px" text-anchor="end">200</text>
     </g>
    </g>
    <g id="bs">
     <g id="bt">
      <path d="m40.75 32.299h812.45" clip-path="url(#b)" fill="none" stroke="#b0b0b0" stroke-linecap="square" stroke-opacity=".3" stroke-width=".8"/>
     </g>
     <g id="bu">
      <use x="40.75" y="32.29887" stroke="#000000" stroke-width=".8" xlink:href="#c"/>
     </g>
     <g id="bv">
      <text transform="rotate(-0 33.75 36.284)" x="33.75" y="36.284026" font-family="'Noto Sans JP'" font-size="10px" text-anchor="end">225</text>
     </g>
    </g>
   </g>
   <g id="bw">
    <path d="m77.68 211.87.362 1.0625.31966-1.0625 1.321-1.0625.6732-2.125 1.7973-4.2501 1.901-2.125 1.9116-8.5002 1.901-2.125 1.9751-4.2501 1.8968-2.125 1.9095-4.2501 1.7952 1.0625 1.9053-7.4377 1.9053-12.75 3.8105-8.5002 1.9053-6.3751 3.8105-10.625 1.9053 2.125 1.9053-2.125 1.9053-7.4377 1.9053 11.688 1.9053 2.125 1.9053-10.625 1.9053 5.3126 1.9053-8.5002 1.9053-11.688 1.9053-3.1876 1.9053-12.75 1.9053-14.875 1.9053-1.0625 1.9053-11.688h1.9053m3.8105-6.3751 1.9053-19.125 1.9053-1.0625 1.9053 3.1876 1.9053 1.0625 1.9053 6.3751 1.9053 8.5002 1.9053 4.2501 1.9053 13.813 1.9053 20.188 1.9053 10.625 1.9053 4.2501 1.9053 23.376 1.9053 7.4377 3.8105 10.625 3.8105 19.125 1.9053 4.2501 3.8105 12.75 1.9053 4.2501 1.9053 6.3751 1.9053-1.0625 1.9053 2.125 1.9053 5.3126 1.9053 4.2501 1.9053 1.0625 1.9053-1.0625 1.9053 1.0625 1.9053 4.2501 1.9053 3.1876 1.9053 2.125 1.9053 1.0625 1.9053 2.125 1.9053-1.0625 1.9053-3.1876 1.9053 6.3751 1.9053 3.1876 1.9053 2.125h1.9053l1.9053-2.125h1.9053l1.9053-2.125h1.9053l1.9053-3.1876 1.9053 2.125 1.9053 3.1876 1.9053-2.125 1.9053 1.0625h1.9053l1.9053 2.125h1.9053l1.9053 1.0625h1.9053l1.9053-1.0625 1.9053-4.2501 1.9053-2.125 5.7158-12.75 1.9053 1.0625h1.9053l1.9053-5.3126 1.9053-1.0625 1.9053-4.2501 1.9053-2.125 1.9053-1.0625 3.8105-4.2501 1.9053-3.1876h1.9053l1.9053-6.3751 1.9053-8.5002 1.9053-9.5627 1.9053-4.2501 1.9053-9.5627 1.9053-6.3751 1.9053-3.1876 3.8105-19.125 1.9053-4.2501 1.9053 5.3126 1.9053-5.3126 1.9053 1.0625 1.9053-3.1876 1.9053-2.125 1.9053-4.2501 1.9053-10.625 1.9053-14.875 5.7158-31.876 1.9053-3.1876 1.9053-14.875 1.9053-6.3751 1.9053 3.1876 1.9053 5.3126 1.9053 2.125 1.9053 5.3126 1.9053 6.3751 1.9053 22.313 1.9053 4.2501 3.8105 12.75 1.9053 11.688 1.9053 8.5002 1.9053 6.3751 1.9053 9.5627 1.9053 8.5002 1.9053 6.3751 1.9053 9.5627 1.9053 13.813 1.9053 7.4377 1.9053-2.125 1.9053 9.5627 1.9053 7.4377 1.9053 4.2501 3.8105 6.3751 1.9053 2.125 1.9053 7.4377 1.9053 3.1876 1.9053-1.0625h1.9053l1.9053 3.1876 3.8105 2.125 1.9053 3.1876 1.9053 1.0625h1.9053l3.8105 6.3751 1.9053 4.2501 3.8105 4.2501 1.9053 1.0625h1.9053l1.9053 3.1876h1.9053l1.9053-1.0625h1.9053l1.9053 1.0625 1.9053-1.0625 1.9053-3.1876h1.9053l1.9053-2.125 1.9053-1.0625h1.9053l1.9053-1.0625h1.9053l1.9053-3.1876 1.9053-1.0625 1.9053-4.2501 1.9053-5.3126 1.9053-1.0625 3.8105-4.2501 1.9053-1.0625 1.9053-5.3126 1.9053-3.1876 1.9053-4.2501 1.9053-6.3751 5.7158-12.75 1.9053-3.1876 1.9053 3.1876 3.8105-10.625 1.9053-8.5002 1.9053-7.4377 1.9053-9.5627 1.9053 4.2501 1.9053-2.125 1.9053 3.1876 1.9053 1.0625 1.9053-5.3126 1.9053-4.2501 1.9053 2.125 1.9053 3.1876 1.9053 4.2501 1.9053 5.3126 1.9053-7.4377 1.9053-10.625 1.9053-4.2501h1.9053l1.9053-19.125 1.9053 1.0625 3.8105-17 1.9053 5.3126 1.9053 2.125 1.9053-3.1876 1.9053-1.0625 3.8105-10.625 1.9053 9.5627 1.9053 1.0625 1.9053 10.625 1.9053 11.688 1.9053 5.3126 1.9053 6.3751 1.9053 9.5627 1.9053 7.4377 1.9053 14.875 1.9053 6.3751 3.8105 10.625 1.9053 7.4377 1.9053-2.125 1.9053 6.3751 1.9053 7.4377h1.9053l1.9053 6.3751 1.9053 2.125 1.9053 3.1876 1.9053 4.2501 1.9053 2.125h1.9053l1.9053 2.125 1.9053-1.0625 1.9053 4.2501 1.9053 2.125 1.9053 3.1876 5.7158 3.1876 1.9053 3.1876 3.8105 2.125 1.9053 2.125 1.9053 1.0625 1.9053-1.0625 2.5404 3.1876h1.2702l1.2702-2.125 1.2702-4.2501.63509-1.0625h1.2702l.63509 1.0625.63509-1.0625.63509 1.0625h4.4456l.63509-1.0625.63509 2.125h.63509l.63509-1.0625 1.2702 2.125.63509-1.0625h.63509l.63509-2.125.63509 1.0625.63509-2.125h.63509l1.2702 2.125h2.5404l.63509 1.0625h.63509l.63509 1.0625 1.2702-2.125.63509-3.1876.63509-1.0625.63509-4.2501.63509-1.0625.63509-2.125h1.2702l.63509 3.1876 1.2702-6.3751.63509-2.125.63509 4.2501.63509-2.125h.63509l.63509-1.0625.63509-2.125 1.9053-3.1876.63509 2.125.63509-1.0625h.63509l.63509-1.0625.63509-2.125h1.2702l.63509 2.125h.63509l.63509-3.1876.63509-2.125h.63509l.63509-1.0625.63509 2.125.63509-2.125.63509 1.0625.63509-4.2501.63509-3.1876h.63509l.63509-2.125.63509-3.1876.63509-1.0625.63509-2.125.63509 2.125.63509-2.125h.63509l.63509-1.0625 1.2702-4.2501.63509-3.1876 1.2702-2.125.63509-4.2501.63509-2.125.63509-1.0625h.63509l.63509-3.1876.63509-1.0625.63509-4.2501.63509-3.1876.63509 5.3126.63509-3.1876h.63509l.63509 2.125.63509-2.125.63509-4.2501.63509 2.125.63509-1.0625.63509-4.2501.63509-5.3126h.63509l1.2702 2.125.63509-2.125h.63509l.63509 1.0625.63509 3.1876h.63509l.63509 1.0625h.63509l.63509 3.1876.63509 2.125.63509-5.3126.63509 1.0625 1.2702-6.3751 1.2702 2.125.63509-3.1876.63509-2.125.63509-6.3751.63509 2.125.63509-3.1876.63509-1.0625.63509-4.2501.63509 1.0625.63509-3.1876.63509-1.0625.63509-4.2501.63509-1.0625.63509-2.125.63509-1.0625.63509-2.125 2.5404-4.2501.63509-2.125.63509-8.5002.63509-3.1876.63509-5.3126.63509 5.3126.63509-5.3126.63509-7.4377h.63509l.63509 1.0625.63509-2.125 1.9053 3.1876.63509-1.0625.63509 3.1876.63509 1.0625.63509 3.1876.63509-6.3751.63509 2.125.63509 1.0625.63509-3.1876.63509 1.0625.63509 5.3126.63509-2.125.63509-1.0625.63509 1.0625h2.5404l.63509 1.0625.63509 2.125 1.2702 6.3751.63509 5.3126 1.2702 4.2501.63509 3.1876.63509 1.0625h.63509l.63509 1.0625.63509 5.3126.63509 3.1876.63509 1.0625h.63509l.63509 3.1876.63509 5.3126.63509 2.125.63509 4.2501.63509 3.1876.63509 1.0625.63509 6.3751h.63509l.63509 1.0625.63509 2.125.63509 6.3751.63509 4.2501.63509 1.0625h.63509l.63509 2.125.63509-1.0625.63509 1.0625.63509 2.125h.63509l1.9053 3.1876.63509 4.2501 1.2702 4.2501 1.2702 2.125h.63509l.63509 3.1876h.63509l.63509 3.1876 2.5404 4.2501h.63509l.63509 1.0625.63509 2.125 3.1755 5.3126.63509 3.1876.63509 1.0625.63509-1.0625.63509 2.125.63509-1.0625h1.2702l1.2702 4.2501h.63509l.63509 1.0625.63509 3.1876.63509 1.0625h1.2702l.63509-1.0625h.63509l1.9053 3.1876h.63509l.63509 1.0625.63509-1.0625h.63509l1.2702 2.125h.63509l.63509 1.0625.63509 3.1876 1.2702 2.125h1.2702l.63509-1.0625.63509 1.0625.63509-2.125.63509-1.0625h.63509l1.2702-2.125.63509 1.0625.63509-1.0625.63509 1.0625h.63509l.63509 3.1876h.63509l.63509 2.125.63509 1.0625h3.1755l1.2702-2.125h1.2702l.63509-2.125.63509-1.0625h1.2702l.63509 1.0625h1.2702l.63509-2.125h.63509l.63509-1.0625h1.9053l1.2702-1.0625 1.2702 1.0625.63509-3.1876.63509-1.0625 2.5404-2.125h1.2702l1.2702-2.125 1.2702-3.1876 1.2702-1.0625 1.2702-2.125 2.5404 2.125 1.2702-3.1876 1.2702-5.3126h1.2702l1.2702-1.0625 1.2702-3.1876 1.2702 2.125 1.2702-5.3126 1.2702-2.125h1.2702l2.5404-2.125 1.2702-2.125 1.2702-3.1876 1.2702 3.1876 1.2702-2.125v0" clip-path="url(#b)" fill="none" stroke="#28f" stroke-linecap="square" stroke-width="1.5"/>
   </g>
   <g id="bx">
    <path d="m40.75 262.97v-236.09" fill="none" stroke="#000" stroke-linecap="square" stroke-width=".8"/>
   </g>
   <g id="by">
    <path d="m853.2 262.97v-236.09" fill="none" stroke="#000" stroke-linecap="square" stroke-width=".8"/>
   </g>
   <g id="bz">
    <path d="m40.75 262.97h812.45" fill="none" stroke="#000" stroke-linecap="square" stroke-width=".8"/>
   </g>
   <g id="ca">
    <path d="m40.75 26.88h812.45" fill="none" stroke="#000" stroke-linecap="square" stroke-width=".8"/>
   </g>
   <g id="cb">
    <text transform="rotate(-0 446.98 20.88)" x="446.975" y="20.88" font-family="'Noto Sans JP'" font-size="12px" text-anchor="middle">同時接続数の推移</text>
   </g>
  </g>
  <g id="cc">
   <g id="cd">
    <path d="m40.75 529.45h812.45v-236.09h-812.45z" fill="#fff"/>
   </g>
   <g id="ce">
    <path d="m137.36 529.45h3.8105v-236.09h-3.8105z" clip-path="url(#a)" fill="#808080" opacity=".3" stroke="#808080"/>
   </g>
   <g id="cf">
    <g id="cg">
     <g id="ch">
      <path d="m63.053 529.45v-236.09" clip-path="url(#a)" fill="none" stroke="#b0b0b0" stroke-linecap="square" stroke-opacity=".3" stroke-width=".8"/>
     </g>
     <g id="ci">
      <use x="63.053417" y="529.445464" stroke="#000000" stroke-width=".8" xlink:href="#d"/>
     </g>
     <g id="cj">
      <text transform="translate(27.28 563.36) rotate(-30)" font-family="'Noto Sans JP'" font-size="10px">06-30 12</text>
     </g>
    </g>
    <g id="ck">
     <g id="cl">
      <path d="m154.51 529.45v-236.09" clip-path="url(#a)" fill="none" stroke="#b0b0b0" stroke-linecap="square" stroke-opacity=".3" stroke-width=".8"/>
     </g>
     <g id="cm">
      <use x="154.506413" y="529.445464" stroke="#000000" stroke-width=".8" xlink:href="#d"/>
     </g>
     <g id="cn">
      <text transform="translate(118.73 563.36) rotate(-30)" font-family="'Noto Sans JP'" font-size="10px">07-01 00</text>
     </g>
    </g>
    <g id="co">
     <g id="cp">
      <path d="m245.96 529.45v-236.09" clip-path="url(#a)" fill="none" stroke="#b0b0b0" stroke-linecap="square" stroke-opacity=".3" stroke-width=".8"/>
     </g>
     <g id="cq">
      <use x="245.959409" y="529.445464" stroke="#000000" stroke-width=".8" xlink:href="#d"/>
     </g>
     <g id="cr">
      <text transform="translate(210.19 563.36) rotate(-30)" font-family="'Noto Sans JP'" font-size="10px">07-01 12</text>
     </g>
    </g>
    <g id="cs">
     <g id="ct">
      <path d="m337.41 529.45v-236.09" clip-path="url(#a)" fill="none" stroke="#b0b0b0" stroke-linecap="square" stroke-opacity=".3" stroke-width=".8"/>
     </g>
     <g id="cu">
      <use x="337.412405" y="529.445464" stroke="#000000" stroke-width=".8" xlink:href="#d"/>
     </g>
     <g id="cv">
      <text transform="translate(301.64 563.36) rotate(-30)" font-family="'Noto Sans JP'" font-size="10px">07-02 00</text>
     </g>
    </g>
    <g id="cw">
     <g id="cx">
      <path d="m428.87 529.45v-236.09" clip-path="url(#a)" fill="none" stroke="#b0b0b0" stroke-linecap="square" stroke-opacity=".3" stroke-width=".8"/>
     </g>
     <g id="cy">
      <use x="428.865401" y="529.445464" stroke="#000000" stroke-width=".8" xlink:href="#d"/>
     </g>
     <g id="cz">
      <text transform="translate(393.09 563.36) rotate(-30)" font-family="'Noto Sans JP'" font-size="10px">07-02 12</text>
     </g>
    </g>
    <g id="da">
     <g id="db">
      <path d="m520.32 529.45v-236.09" clip-path="url(#a)" fill="none" stroke="#b0b0b0" stroke-linecap="square" stroke-opacity=".3" stroke-width=".8"/>
     </g>
     <g id="dc">
      <use x="520.318398" y="529.445464" stroke="#000000" stroke-width=".8" xlink:href="#d"/>
     </g>
     <g id="dd">
      <text transform="translate(484.54 563.36) rotate(-30)" font-family="'Noto Sans JP'" font-size="10px">07-03 00</text>
     </g>
    </g>
    <g id="de">
     <g id="df">
      <path d="m611.77 529.45v-236.09" clip-path="url(#a)" fill="none" stroke="#b0b0b0" stroke-linecap="square" stroke-opacity=".3" stroke-width=".8"/>
     </g>
     <g id="dg">
      <use x="611.771394" y="529.445464" stroke="#000000" stroke-width=".8" xlink:href="#d"/>
     </g>
     <g id="dh">
      <text transform="translate(576 563.36) rotate(-30)" font-family="'Noto Sans JP'" font-size="10px">07-03 12</text>
     </g>
    </g>
    <g id="di">
     <g id="dj">
      <path d="m703.22 529.45v-236.09" clip-path="url(#a)" fill="none" stroke="#b0b0b0" stroke-linecap="square" stroke-opacity=".3" stroke-width=".8"/>
     </g>
     <g id="dk">
      <use x="703.22439" y="529.445464" stroke="#000000" stroke-width=".8" xlink:href="#d"/>
     </g>
     <g id="dl">
      <text transform="translate(667.45 563.36) rotate(-30)" font-family="'Noto Sans JP'" font-size="10px">07-04 00</text>
     </g>
    </g>
    <g id="dm">
     <g id="dn">
      <path d="m794.68 529.45v-236.09" clip-path="url(#a)" fill="none" stroke="#b0b0b0" stroke-linecap="square" stroke-opacity=".3" stroke-width=".8"/>
     </g>
     <g id="do">
      <use x="794.677386" y="529.445464" stroke="#000000" stroke-width=".8" xlink:href="#d"/>
     </g>
     <g id="dp">
      <text transform="translate(758.9 563.36) rotate(-30)" font-family="'Noto Sans JP'" font-size="10px">07-04 12</text>
     </g>
    </g>
   </g>
   <g id="dq">
    <g id="dr">
     <g id="ds">
      <path d="m40.75 512.67h812.45" clip-path="url(#a)" fill="none" stroke="#b0b0b0" stroke-linecap="square" stroke-opacity=".3" stroke-width=".8"/>
     </g>
     <g id="dt">
      <use x="40.75" y="512.668067" stroke="#000000" stroke-width=".8" xlink:href="#c"/>
     </g>
     <g id="du">
      <text transform="rotate(-0 33.75 516.65)" x="33.75" y="516.653224" font-family="'Noto Sans JP'" font-size="10px" text-anchor="end">8680</text>
     </g>
    </g>
    <g id="dv">
     <g id="dw">
      <path d="m40.75 488.48h812.45" clip-path="url(#a)" fill="none" stroke="#b0b0b0" stroke-linecap="square" stroke-opacity=".3" stroke-width=".8"/>
     </g>
     <g id="dx">
      <use x="40.75" y="488.484433" stroke="#000000" stroke-width=".8" xlink:href="#c"/>
     </g>
     <g id="dy">
      <text transform="rotate(-0 33.75 492.47)" x="33.75" y="492.469589" font-family="'Noto Sans JP'" font-size="10px" text-anchor="end">8688</text>
     </g>
    </g>
    <g id="dz">
     <g id="ea">
      <path d="m40.75 464.3h812.45" clip-path="url(#a)" fill="none" stroke="#b0b0b0" stroke-linecap="square" stroke-opacity=".3" stroke-width=".8"/>
     </g>
     <g id="eb">
      <use x="40.75" y="464.300798" stroke="#000000" stroke-width=".8" xlink:href="#c"/>
     </g>
     <g id="ec">
      <text transform="rotate(-0 33.75 468.29)" x="33.75" y="468.285955" font-family="'Noto Sans JP'" font-size="10px" text-anchor="end">8696</text>
     </g>
    </g>
    <g id="ed">
     <g id="ee">
      <path d="m40.75 440.12h812.45" clip-path="url(#a)" fill="none" stroke="#b0b0b0" stroke-linecap="square" stroke-opacity=".3" stroke-width=".8"/>
     </g>
     <g id="ef">
      <use x="40.75" y="440.117164" stroke="#000000" stroke-width=".8" xlink:href="#c"/>
     </g>
     <g id="eg">
      <text transform="rotate(-0 33.75 444.1)" x="33.75" y="444.10232" font-family="'Noto Sans JP'" font-size="10px" text-anchor="end">8704</text>
     </g>
    </g>
    <g id="eh">
     <g id="ei">
      <path d="m40.75 415.93h812.45" clip-path="url(#a)" fill="none" stroke="#b0b0b0" stroke-linecap="square" stroke-opacity=".3" stroke-width=".8"/>
     </g>
     <g id="ej">
      <use x="40.75" y="415.933529" stroke="#000000" stroke-width=".8" xlink:href="#c"/>
     </g>
     <g id="ek">
      <text transform="rotate(-0 33.75 419.92)" x="33.75" y="419.918686" font-family="'Noto Sans JP'" font-size="10px" text-anchor="end">8712</text>
     </g>
    </g>
    <g id="el">
     <g id="em">
      <path d="m40.75 391.75h812.45" clip-path="url(#a)" fill="none" stroke="#b0b0b0" stroke-linecap="square" stroke-opacity=".3" stroke-width=".8"/>
     </g>
     <g id="en">
      <use x="40.75" y="391.749895" stroke="#000000" stroke-width=".8" xlink:href="#c"/>
     </g>
     <g id="eo">
      <text transform="rotate(-0 33.75 395.74)" x="33.75" y="395.735051" font-family="'Noto Sans JP'" font-size="10px" text-anchor="end">8720</text>
     </g>
    </g>
    <g id="ep">
     <g id="eq">
      <path d="m40.75 367.57h812.45" clip-path="url(#a)" fill="none" stroke="#b0b0b0" stroke-linecap="square" stroke-opacity=".3" stroke-width=".8"/>
     </g>
     <g id="er">
      <use x="40.75" y="367.56626" stroke="#000000" stroke-width=".8" xlink:href="#c"/>
     </g>
     <g id="es">
      <text transform="rotate(-0 33.75 371.55)" x="33.75" y="371.551417" font-family="'Noto Sans JP'" font-size="10px" text-anchor="end">8728</text>
     </g>
    </g>
    <g id="et">
     <g id="eu">
      <path d="m40.75 343.38h812.45" clip-path="url(#a)" fill="none" stroke="#b0b0b0" stroke-linecap="square" stroke-opacity=".3" stroke-width=".8"/>
     </g>
     <g id="ev">
      <use x="40.75" y="343.382626" stroke="#000000" stroke-width=".8" xlink:href="#c"/>
     </g>
     <g id="ew">
      <text transform="rotate(-0 33.75 347.37)" x="33.75" y="347.367782" font-family="'Noto Sans JP'" font-size="10px" text-anchor="end">8736</text>
     </g>
    </g>
    <g id="ex">
     <g id="ey">
      <path d="m40.75 319.2h812.45" clip-path="url(#a)" fill="none" stroke="#b0b0b0" stroke-linecap="square" stroke-opacity=".3" stroke-width=".8"/>
     </g>
     <g id="ez">
      <use x="40.75" y="319.198991" stroke="#000000" stroke-width=".8" xlink:href="#c"/>
     </g>
     <g id="fa">
      <text transform="rotate(-0 33.75 323.18)" x="33.75" y="323.184148" font-family="'Noto Sans JP'" font-size="10px" text-anchor="end">8744</text>
     </g>
    </g>
    <g id="fb">
     <g id="fc">
      <path d="m40.75 295.02h812.45" clip-path="url(#a)" fill="none" stroke="#b0b0b0" stroke-linecap="square" stroke-opacity=".3" stroke-width=".8"/>
     </g>
     <g id="fd">
      <use x="40.75" y="295.015357" stroke="#000000" stroke-width=".8" xlink:href="#c"/>
     </g>
     <g id="fe">
      <text transform="rotate(-0 33.75 299)" x="33.75" y="299.000513" font-family="'Noto Sans JP'" font-size="10px" text-anchor="end">8752</text>
     </g>
    </g>
   </g>
   <g id="ff">
    <path d="m77.68 518.71h15.968l1.7952-3.023 1.9053-6.0459 1.9053 3.023 1.9053-3.023h3.8105l1.9053-3.023 1.9053-6.0459 3.8105 6.0459 1.9053-3.023h1.9053l3.8105 6.0459h1.9053l1.9053-3.023 1.9053-9.0689h1.9053l1.9053-12.092 1.9053-3.023h3.8105l1.9053-3.023m3.8105-3.023h1.9053l1.9053-3.023 1.9053-9.0689h1.9053l1.9053-6.0459h1.9053l1.9053 3.023 1.9053-6.0459h1.9053l1.9053-3.023h7.6211l1.9053-3.023h1.9053l1.9053 9.0689 1.9053-3.023h7.6211l1.9053-6.0459h17.147l1.9053 6.0459h15.242l1.9053 3.023h5.7158l1.9053 3.023h13.337l1.9053 3.023h7.6211l1.9053-3.023h19.053l1.9053-3.023 1.9053 3.023h9.5264l1.9053-3.023h1.9053l1.9053-6.0459h1.9053l1.9053 3.023h3.8105l1.9053-3.023h3.8105l1.9053-3.023h1.9053l1.9053-3.023h1.9053l1.9053-3.023 1.9053 6.0459 1.9053-6.0459 1.9053-3.023h3.8105l1.9053 3.023h3.8105l1.9053-3.023h1.9053l1.9053-3.023h3.8105l1.9053-3.023h1.9053l1.9053-3.023 1.9053-6.0459 1.9053-3.023h7.6211l1.9053 3.023h5.7158l1.9053-3.023h3.8105l1.9053-3.023h40.011l1.9053-3.023h9.5264l1.9053-3.023h1.9053l1.9053-3.023 1.9053 3.023h15.242l1.9053-3.023h1.9053l1.9053 3.023h5.7158l3.8105-6.0459h7.6211l1.9053-3.023 1.9053-6.0459 3.8105-6.0459h1.9053l1.9053 3.023h3.8105l1.9053 3.023h3.8105l13.337-21.161h1.9053l1.9053-6.0459h1.9053l5.7158-9.0689h3.8105l1.9053 3.023h17.147l1.9053-3.023h9.5264l1.9053-3.023h17.147l1.9053-3.023h28.579l.63509-3.023h10.797l.63509 3.023h3.8105l.63509-3.023h1.9053l.63509-3.023h1.2702l.63509 3.023h13.972l.63509 3.023h11.432l.63509-3.023h6.3509l.63509-6.0459h11.432l.63509-3.023h.63509l.63509-3.023.63509 3.023h3.8105l.63509-3.023h5.0807l.63509 6.0459h1.9053l.63509 3.023h3.1755l.63509-3.023h3.8105l.63509-3.023h2.5404l.63509-3.023h1.9053l.63509-3.023h2.5404l.63509 3.023.63509-3.023h9.5264l.63509-3.023h2.5404l.63509-6.0459h.63509l.63509-3.023h4.4456l1.2702-6.0459h1.2702l.63509-3.023h1.9053l.63509-3.023h36.835l.63509-3.023h3.1755l.63509-3.023h26.039l1.2702 3.023h1.2702l1.2702-3.023h19.053l1.2702-3.023 1.2702 3.023h1.2702v0" clip-path="url(#a)" fill="none" stroke="#28f" stroke-linecap="square" stroke-width="1.5"/>
   </g>
   <g id="fg">
    <path d="m40.75 529.45v-236.09" fill="none" stroke="#000" stroke-linecap="square" stroke-width=".8"/>
   </g>
   <g id="fh">
    <path d="m853.2 529.45v-236.09" fill="none" stroke="#000" stroke-linecap="square" stroke-width=".8"/>
   </g>
   <g id="fi">
    <path d="m40.75 529.45h812.45" fill="none" stroke="#000" stroke-linecap="square" stroke-width=".8"/>
   </g>
   <g id="fj">
    <path d="m40.75 293.35h812.45" fill="none" stroke="#000" stroke-linecap="square" stroke-width=".8"/>
   </g>
   <g id="fk">
    <text transform="rotate(-0 446.98 287.35)" x="446.975" y="287.352732" font-family="'Noto Sans JP'" font-size="12px" text-anchor="middle">サーバー数の推移</text>
   </g>
  </g>
 </g>
 <defs>
  <clipPath id="b">
   <rect x="40.75" y="26.88" width="812.45" height="236.09"/>
  </clipPath>
  <clipPath id="a">
   <rect x="40.75" y="293.35" width="812.45" height="236.09"/>
  </clipPath>
 </defs>
</svg>
