<!DOCTYPE svg  PUBLIC '-//W3C//DTD SVG 1.1//EN'  'http://www.w3.org/Graphics/SVG/1.1/DTD/svg11.dtd'>
<svg version="1.1" viewBox="0 0 864 576" xmlns="http://www.w3.org/2000/svg" xmlns:xlink="http://www.w3.org/1999/xlink">
 <defs>
  <style type="text/css">*{stroke-linejoin: round; stroke-linecap: butt}</style>
 </defs>
 <g id="e">
  <g id="f">
   <path d="m0 576h864v-576h-864z" fill="#fff"/>
  </g>
  <g id="g">
   <g id="h">
    <path d="m40.75 262.97h812.45v-236.09h-812.45z" fill="#fff"/>
   </g>
   <g id="i">
    <path d="m138.3 262.97h3.8704v-236.09h-3.8704z" clip-path="url(#a)" fill="#808080" opacity=".3" stroke="#808080"/>
   </g>
   <g id="j">
    <g id="k">
     <g id="l">
      <path d="m62.823 262.97v-236.09" clip-path="url(#a)" fill="none" stroke="#b0b0b0" stroke-linecap="square" stroke-opacity=".3" stroke-width=".8"/>
     </g>
     <g id="m">
      <defs>
       <path id="d" d="m0 0v3.5" stroke="#000" stroke-width=".8"/>
      </defs>
      <use x="62.823481" y="262.972732" stroke="#000000" stroke-width=".8" xlink:href="#d"/>
     </g>
    </g>
    <g id="n">
     <g id="o">
      <path d="m155.71 262.97v-236.09" clip-path="url(#a)" fill="none" stroke="#b0b0b0" stroke-linecap="square" stroke-opacity=".3" stroke-width=".8"/>
     </g>
     <g id="p">
      <use x="155.714203" y="262.972732" stroke="#000000" stroke-width=".8" xlink:href="#d"/>
     </g>
    </g>
    <g id="q">
     <g id="r">
      <path d="m248.6 262.97v-236.09" clip-path="url(#a)" fill="none" stroke="#b0b0b0" stroke-linecap="square" stroke-opacity=".3" stroke-width=".8"/>
     </g>
     <g id="s">
      <use x="248.604926" y="262.972732" stroke="#000000" stroke-width=".8" xlink:href="#d"/>
     </g>
    </g>
    <g id="t">
     <g id="u">
      <path d="m341.5 262.97v-236.09" clip-path="url(#a)" fill="none" stroke="#b0b0b0" stroke-linecap="square" stroke-opacity=".3" stroke-width=".8"/>
     </g>
     <g id="v">
      <use x="341.495649" y="262.972732" stroke="#000000" stroke-width=".8" xlink:href="#d"/>
     </g>
    </g>
    <g id="w">
     <g id="x">
      <path d="m434.39 262.97v-236.09" clip-path="url(#a)" fill="none" stroke="#b0b0b0" stroke-linecap="square" stroke-opacity=".3" stroke-width=".8"/>
     </g>
     <g id="y">
      <use x="434.386372" y="262.972732" stroke="#000000" stroke-width=".8" xlink:href="#d"/>
     </g>
    </g>
    <g id="z">
     <g id="aa">
      <path d="m527.28 262.97v-236.09" clip-path="url(#a)" fill="none" stroke="#b0b0b0" stroke-linecap="square" stroke-opacity=".3" stroke-width=".8"/>
     </g>
     <g id="ab">
      <use x="527.277095" y="262.972732" stroke="#000000" stroke-width=".8" xlink:href="#d"/>
     </g>
    </g>
    <g id="ac">
     <g id="ad">
      <path d="m620.17 262.97v-236.09" clip-path="url(#a)" fill="none" stroke="#b0b0b0" stroke-linecap="square" stroke-opacity=".3" stroke-width=".8"/>
     </g>
     <g id="ae">
      <use x="620.167817" y="262.972732" stroke="#000000" stroke-width=".8" xlink:href="#d"/>
     </g>
    </g>
    <g id="af">
     <g id="ag">
      <path d="m713.06 262.97v-236.09" clip-path="url(#a)" fill="none" stroke="#b0b0b0" stroke-linecap="square" stroke-opacity=".3" stroke-width=".8"/>
     </g>
     <g id="ah">
      <use x="713.05854" y="262.972732" stroke="#000000" stroke-width=".8" xlink:href="#d"/>
     </g>
    </g>
    <g id="ai">
     <g id="aj">
      <path d="m805.95 262.97v-236.09" clip-path="url(#a)" fill="none" stroke="#b0b0b0" stroke-linecap="square" stroke-opacity=".3" stroke-width=".8"/>
     </g>
     <g id="ak">
      <use x="805.949263" y="262.972732" stroke="#000000" stroke-width=".8" xlink:href="#d"/>
     </g>
    </g>
   </g>
   <g id="al">
    <g id="am">
     <g id="an">
      <path d="m40.75 244.8h812.45" clip-path="url(#a)" fill="none" stroke="#b0b0b0" stroke-linecap="square" stroke-opacity=".3" stroke-width=".8"/>
     </g>
     <g id="ao">
      <defs>
       <path id="c" d="m0 0h-3.5" stroke="#000" stroke-width=".8"/>
      </defs>
      <use x="40.75" y="244.803579" stroke="#000000" stroke-width=".8" xlink:href="#c"/>
     </g>
     <g id="ap">
      <text transform="rotate(-0 33.75 248.79)" x="33.75" y="248.788736" font-family="'Noto Sans JP'" font-size="10px" text-anchor="end">25</text>
     </g>
    </g>
    <g id="aq">
     <g id="ar">
      <path d="m40.75 218.24h812.45" clip-path="url(#a)" fill="none" stroke="#b0b0b0" stroke-linecap="square" stroke-opacity=".3" stroke-width=".8"/>
     </g>
     <g id="as">
      <use x="40.75" y="218.240491" stroke="#000000" stroke-width=".8" xlink:href="#c"/>
     </g>
     <g id="at">
      <text transform="rotate(-0 33.75 222.23)" x="33.75" y="222.225647" font-family="'Noto Sans JP'" font-size="10px" text-anchor="end">50</text>
     </g>
    </g>
    <g id="au">
     <g id="av">
      <path d="m40.75 191.68h812.45" clip-path="url(#a)" fill="none" stroke="#b0b0b0" stroke-linecap="square" stroke-opacity=".3" stroke-width=".8"/>
     </g>
     <g id="aw">
      <use x="40.75" y="191.677402" stroke="#000000" stroke-width=".8" xlink:href="#c"/>
     </g>
     <g id="ax">
      <text transform="rotate(-0 33.75 195.66)" x="33.75" y="195.662558" font-family="'Noto Sans JP'" font-size="10px" text-anchor="end">75</text>
     </g>
    </g>
    <g id="ay">
     <g id="az">
      <path d="m40.75 165.11h812.45" clip-path="url(#a)" fill="none" stroke="#b0b0b0" stroke-linecap="square" stroke-opacity=".3" stroke-width=".8"/>
     </g>
     <g id="ba">
      <use x="40.75" y="165.114313" stroke="#000000" stroke-width=".8" xlink:href="#c"/>
     </g>
     <g id="bb">
      <text transform="rotate(-0 33.75 169.1)" x="33.75" y="169.09947" font-family="'Noto Sans JP'" font-size="10px" text-anchor="end">100</text>
     </g>
    </g>
    <g id="bc">
     <g id="bd">
      <path d="m40.75 138.55h812.45" clip-path="url(#a)" fill="none" stroke="#b0b0b0" stroke-linecap="square" stroke-opacity=".3" stroke-width=".8"/>
     </g>
     <g id="be">
      <use x="40.75" y="138.551225" stroke="#000000" stroke-width=".8" xlink:href="#c"/>
     </g>
     <g id="bf">
      <text transform="rotate(-0 33.75 142.54)" x="33.75" y="142.536381" font-family="'Noto Sans JP'" font-size="10px" text-anchor="end">125</text>
     </g>
    </g>
    <g id="bg">
     <g id="bh">
      <path d="m40.75 111.99h812.45" clip-path="url(#a)" fill="none" stroke="#b0b0b0" stroke-linecap="square" stroke-opacity=".3" stroke-width=".8"/>
     </g>
     <g id="bi">
      <use x="40.75" y="111.988136" stroke="#000000" stroke-width=".8" xlink:href="#c"/>
     </g>
     <g id="bj">
      <text transform="rotate(-0 33.75 115.97)" x="33.75" y="115.973292" font-family="'Noto Sans JP'" font-size="10px" text-anchor="end">150</text>
     </g>
    </g>
    <g id="bk">
     <g id="bl">
      <path d="m40.75 85.425h812.45" clip-path="url(#a)" fill="none" stroke="#b0b0b0" stroke-linecap="square" stroke-opacity=".3" stroke-width=".8"/>
     </g>
     <g id="bm">
      <use x="40.75" y="85.425047" stroke="#000000" stroke-width=".8" xlink:href="#c"/>
     </g>
     <g id="bn">
      <text transform="rotate(-0 33.75 89.41)" x="33.75" y="89.410204" font-family="'Noto Sans JP'" font-size="10px" text-anchor="end">175</text>
     </g>
    </g>
    <g id="bo">
     <g id="bp">
      <path d="m40.75 58.862h812.45" clip-path="url(#a)" fill="none" stroke="#b0b0b0" stroke-linecap="square" stroke-opacity=".3" stroke-width=".8"/>
     </g>
     <g id="bq">
      <use x="40.75" y="58.861959" stroke="#000000" stroke-width=".8" xlink:href="#c"/>
     </g>
     <g id="br">
      <text transform="rotate(-0 33.75 62.847)" x="33.75" y="62.847115" font-family="'Noto Sans JP'" font-size="10px" text-anchor="end">200</text>
     </g>
    </g>
    <g id="bs">
     <g id="bt">
      <path d="m40.75 32.299h812.45" clip-path="url(#a)" fill="none" stroke="#b0b0b0" stroke-linecap="square" stroke-opacity=".3" stroke-width=".8"/>
     </g>
     <g id="bu">
      <use x="40.75" y="32.29887" stroke="#000000" stroke-width=".8" xlink:href="#c"/>
     </g>
     <g id="bv">
      <text transform="rotate(-0 33.75 36.284)" x="33.75" y="36.284026" font-family="'Noto Sans JP'" font-size="10px" text-anchor="end">225</text>
     </g>
    </g>
   </g>
   <g id="bw">
    <path d="m77.68 211.87.36769 1.0625.32469-1.0625 1.3418-1.0625.68378-2.125 1.8256-4.2501 1.9309-2.125 1.9417-8.5002 1.9309-2.125 2.0062-4.2501 1.9266-2.125 1.9395-4.2501 1.8234 1.0625 1.9352-7.4377 1.9352-12.75 3.8704-8.5002 1.9352-6.3751 3.8704-10.625 1.9352 2.125 1.9352-2.125 1.9352-7.4377 1.9352 11.688 1.9352 2.125 1.9352-10.625 1.9352 5.3126 1.9352-8.5002 1.9352-11.688 1.9352-3.1876 1.9352-12.75 1.9352-14.875 1.9352-1.0625 1.9352-11.688h1.9352m3.8704-6.3751 1.9352-19.125 1.9352-1.0625 1.9352 3.1876 1.9352 1.0625 1.9352 6.3751 1.9352 8.5002 1.9352 4.2501 1.9352 13.813 1.9352 20.188 1.9352 10.625 1.9352 4.2501 1.9352 23.376 1.9352 7.4377 3.8704 10.625 3.8704 19.125 1.9352 4.2501 3.8704 12.75 1.9352 4.2501 1.9352 6.3751 1.9352-1.0625 1.9352 2.125 1.9352 5.3126 1.9352 4.2501 1.9352 1.0625 1.9352-1.0625 1.9352 1.0625 1.9352 4.2501 1.9352 3.1876 1.9352 2.125 1.9352 1.0625 1.9352 2.125 1.9352-1.0625 1.9352-3.1876 1.9352 6.3751 1.9352 3.1876 1.9352 2.125h1.9352l1.9352-2.125h1.9352l1.9352-2.125h1.9352l1.9352-3.1876 1.9352 2.125 1.9352 3.1876 1.9352-2.125 1.9352 1.0625h1.9352l1.9352 2.125h1.9352l1.9352 1.0625h1.9352l1.9352-1.0625 1.9352-4.2501 1.9352-2.125 5.8057-12.75 1.9352 1.0625h1.9352l1.9352-5.3126 1.9352-1.0625 1.9352-4.2501 1.9352-2.125 1.9352-1.0625 3.8704-4.2501 1.9352-3.1876h1.9352l1.9352-6.3751 1.9352-8.5002 1.9352-9.5627 1.9352-4.2501 1.9352-9.5627 1.9352-6.3751 1.9352-3.1876 3.8704-19.125 1.9352-4.2501 1.9352 5.3126 1.9352-5.3126 1.9352 1.0625 1.9352-3.1876 1.9352-2.125 1.9352-4.2501 1.9352-10.625 1.9352-14.875 5.8057-31.876 1.9352-3.1876 1.9352-14.875 1.9352-6.3751 1.9352 3.1876 1.9352 5.3126 1.9352 2.125 1.9352 5.3126 1.9352 6.3751 1.9352 22.313 1.9352 4.2501 3.8704 12.75 1.9352 11.688 1.9352 8.5002 1.9352 6.3751 1.9352 9.5627 1.9352 8.5002 1.9352 6.3751 1.9352 9.5627 1.9352 13.813 1.9352 7.4377 1.9352-2.125 1.9352 9.5627 1.9352 7.4377 1.9352 4.2501 3.8704 6.3751 1.9352 2.125 1.9352 7.4377 1.9352 3.1876 1.9352-1.0625h1.9352l1.9352 3.1876 3.8704 2.125 1.9352 3.1876 1.9352 1.0625h1.9352l3.8704 6.3751 1.9352 4.2501 3.8704 4.2501 1.9352 1.0625h1.9352l1.9352 3.1876h1.9352l1.9352-1.0625h1.9352l1.9352 1.0625 1.9352-1.0625 1.9352-3.1876h1.9352l1.9352-2.125 1.9352-1.0625h1.9352l1.9352-1.0625h1.9352l1.9352-3.1876 1.9352-1.0625 1.9352-4.2501 1.9352-5.3126 1.9352-1.0625 3.8704-4.2501 1.9352-1.0625 1.9352-5.3126 1.9352-3.1876 1.9352-4.2501 1.9352-6.3751 5.8057-12.75 1.9352-3.1876 1.9352 3.1876 3.8704-10.625 1.9352-8.5002 1.9352-7.4377 1.9352-9.5627 1.9352 4.2501 1.9352-2.125 1.9352 3.1876 1.9352 1.0625 1.9352-5.3126 1.9352-4.2501 1.9352 2.125 1.9352 3.1876 1.9352 4.2501 1.9352 5.3126 1.9352-7.4377 1.9352-10.625 1.9352-4.2501h1.9352l1.9352-19.125 1.9352 1.0625 3.8704-17 1.9352 5.3126 1.9352 2.125 1.9352-3.1876 1.9352-1.0625 3.8704-10.625 1.9352 9.5627 1.9352 1.0625 1.9352 10.625 1.9352 11.688 1.9352 5.3126 1.9352 6.3751 1.9352 9.5627 1.9352 7.4377 1.9352 14.875 1.9352 6.3751 3.8704 10.625 1.9352 7.4377 1.9352-2.125 1.9352 6.3751 1.9352 7.4377h1.9352l1.9352 6.3751 1.9352 2.125 1.9352 3.1876 1.9352 4.2501 1.9352 2.125h1.9352l1.9352 2.125 1.9352-1.0625 1.9352 4.2501 1.9352 2.125 1.9352 3.1876 5.8057 3.1876 1.9352 3.1876 3.8704 2.125 1.9352 2.125 1.9352 1.0625 1.9352-1.0625 2.5803 3.1876h1.2901l1.2901-2.125 1.2901-4.2501.64507-1.0625h1.2901l.64507 1.0625.64508-1.0625.64507 1.0625h4.5155l.64507-1.0625.64508 2.125h.64507l.64508-1.0625 1.2901 2.125.64508-1.0625h.64507l.64508-2.125.64507 1.0625.64508-2.125h.64507l1.2901 2.125h2.5803l.64507 1.0625h.64508l.64507 1.0625 1.2901-2.125.64508-3.1876.64507-1.0625.64508-4.2501.64507-1.0625.64508-2.125h1.2901l.64507 3.1876 1.2901-6.3751.64507-2.125.64508 4.2501.64507-2.125h.64508l.64507-1.0625.64508-2.125 1.9352-3.1876.64508 2.125.64507-1.0625h.64508l.64507-1.0625.64507-2.125h1.2901l.64508 2.125h.64507l.64508-3.1876.64507-2.125h.64508l.64507-1.0625.64508 2.125.64507-2.125.64508 1.0625.64507-4.2501.64508-3.1876h.64507l.64507-2.125.64508-3.1876.64507-1.0625.64508-2.125.64507 2.125.64508-2.125h.64507l.64508-1.0625 1.2901-4.2501.64507-3.1876 1.2901-2.125.64507-4.2501.64508-2.125.64507-1.0625h.64508l.64507-3.1876.64508-1.0625.64507-4.2501.64508-3.1876.64507 5.3126.64508-3.1876h.64507l.64508 2.125.64507-2.125.64507-4.2501.64508 2.125.64507-1.0625.64508-4.2501.64507-5.3126h.64508l1.2901 2.125.64507-2.125h.64508l.64507 1.0625.64508 3.1876h.64507l.64508 1.0625h.64507l.64507 3.1876.64508 2.125.64507-5.3126.64508 1.0625 1.2901-6.3751 1.2901 2.125.64507-3.1876.64508-2.125.64507-6.3751.64508 2.125.64507-3.1876.64507-1.0625.64508-4.2501.64507 1.0625.64508-3.1876.64507-1.0625.64508-4.2501.64507-1.0625.64508-2.125.64507-1.0625.64508-2.125 2.5803-4.2501.64507-2.125.64507-8.5002.64508-3.1876.64507-5.3126.64508 5.3126.64507-5.3126.64508-7.4377h.64507l.64508 1.0625.64507-2.125 1.9352 3.1876.64507-1.0625.64507 3.1876.64508 1.0625.64507 3.1876.64508-6.3751.64507 2.125.64508 1.0625.64507-3.1876.64508 1.0625.64507 5.3126.64508-2.125.64507-1.0625.64508 1.0625h2.5803l.64508 1.0625.64507 2.125 1.2901 6.3751.64508 5.3126 1.2901 4.2501.64507 3.1876.64508 1.0625h.64507l.64508 1.0625.64507 5.3126.64507 3.1876.64508 1.0625h.64507l.64508 3.1876.64507 5.3126.64508 2.125.64507 4.2501.64508 3.1876.64507 1.0625.64508 6.3751h.64507l.64508 1.0625.64507 2.125.64508 6.3751.64507 4.2501.64507 1.0625h.64508l.64507 2.125.64508-1.0625.64507 1.0625.64508 2.125h.64507l1.9352 3.1876.64507 4.2501 1.2901 4.2501 1.2901 2.125h.64507l.64508 3.1876h.64507l.64508 3.1876 2.5803 4.2501h.64507l.64508 1.0625.64507 2.125 3.2254 5.3126.64508 3.1876.64507 1.0625.64508-1.0625.64507 2.125.64508-1.0625h1.2901l1.2901 4.2501h.64507l.64507 1.0625.64508 3.1876.64507 1.0625h1.2901l.64508-1.0625h.64507l1.9352 3.1876h.64507l.64508 1.0625.64507-1.0625h.64507l1.2901 2.125h.64508l.64507 1.0625.64508 3.1876 1.2901 2.125h1.2901l.64507-1.0625.64508 1.0625.64507-2.125.64508-1.0625h.64507l1.2901-2.125.64507 1.0625.64508-1.0625.64507 1.0625h.64508l.64507 3.1876h.64508l.64507 2.125.64508 1.0625h3.2254l1.2901-2.125h1.2901l.64507-2.125.64508-1.0625h1.2901l.64507 1.0625h1.2901l.64508-2.125h.64507l.64507-1.0625h1.9352l1.2901-1.0625 1.2901 1.0625.64507-3.1876.64508-1.0625 2.5803-2.125h1.2901l1.2901-2.125 1.2901-3.1876 1.2901-1.0625 1.2901-2.125 2.5803 2.125 1.2901-3.1876 1.2901-5.3126h1.2901l1.2901-1.0625 1.2901-3.1876 1.2901 2.125v0" clip-path="url(#a)" fill="none" stroke="#28f" stroke-linecap="square" stroke-width="1.5"/>
   </g>
   <g id="bx">
    <path d="m40.75 262.97v-236.09" fill="none" stroke="#000" stroke-linecap="square" stroke-width=".8"/>
   </g>
   <g id="by">
    <path d="m853.2 262.97v-236.09" fill="none" stroke="#000" stroke-linecap="square" stroke-width=".8"/>
   </g>
   <g id="bz">
    <path d="m40.75 262.97h812.45" fill="none" stroke="#000" stroke-linecap="square" stroke-width=".8"/>
   </g>
   <g id="ca">
    <path d="m40.75 26.88h812.45" fill="none" stroke="#000" stroke-linecap="square" stroke-width=".8"/>
   </g>
   <g id="cb">
    <text transform="rotate(-0 446.98 20.88)" x="446.975" y="20.88" font-family="'Noto Sans JP'" font-size="12px" text-anchor="middle">同時接続数の推移</text>
   </g>
  </g>
  <g id="cc">
   <g id="cd">
    <path d="m40.75 529.45h812.45v-236.09h-812.45z" fill="#fff"/>
   </g>
   <g id="ce">
    <path d="m138.3 529.45h3.8704v-236.09h-3.8704z" clip-path="url(#b)" fill="#808080" opacity=".3" stroke="#808080"/>
   </g>
   <g id="cf">
    <g id="cg">
     <g id="ch">
      <path d="m62.823 529.45v-236.09" clip-path="url(#b)" fill="none" stroke="#b0b0b0" stroke-linecap="square" stroke-opacity=".3" stroke-width=".8"/>
     </g>
     <g id="ci">
      <use x="62.823481" y="529.445464" stroke="#000000" stroke-width=".8" xlink:href="#d"/>
     </g>
     <g id="cj">
      <text transform="translate(27.05 563.36) rotate(-30)" font-family="'Noto Sans JP'" font-size="10px">06-30 12</text>
     </g>
    </g>
    <g id="ck">
     <g id="cl">
      <path d="m155.71 529.45v-236.09" clip-path="url(#b)" fill="none" stroke="#b0b0b0" stroke-linecap="square" stroke-opacity=".3" stroke-width=".8"/>
     </g>
     <g id="cm">
      <use x="155.714203" y="529.445464" stroke="#000000" stroke-width=".8" xlink:href="#d"/>
     </g>
     <g id="cn">
      <text transform="translate(119.94 563.36) rotate(-30)" font-family="'Noto Sans JP'" font-size="10px">07-01 00</text>
     </g>
    </g>
    <g id="co">
     <g id="cp">
      <path d="m248.6 529.45v-236.09" clip-path="url(#b)" fill="none" stroke="#b0b0b0" stroke-linecap="square" stroke-opacity=".3" stroke-width=".8"/>
     </g>
     <g id="cq">
      <use x="248.604926" y="529.445464" stroke="#000000" stroke-width=".8" xlink:href="#d"/>
     </g>
     <g id="cr">
      <text transform="translate(212.83 563.36) rotate(-30)" font-family="'Noto Sans JP'" font-size="10px">07-01 12</text>
     </g>
    </g>
    <g id="cs">
     <g id="ct">
      <path d="m341.5 529.45v-236.09" clip-path="url(#b)" fill="none" stroke="#b0b0b0" stroke-linecap="square" stroke-opacity=".3" stroke-width=".8"/>
     </g>
     <g id="cu">
      <use x="341.495649" y="529.445464" stroke="#000000" stroke-width=".8" xlink:href="#d"/>
     </g>
     <g id="cv">
      <text transform="translate(305.72 563.36) rotate(-30)" font-family="'Noto Sans JP'" font-size="10px">07-02 00</text>
     </g>
    </g>
    <g id="cw">
     <g id="cx">
      <path d="m434.39 529.45v-236.09" clip-path="url(#b)" fill="none" stroke="#b0b0b0" stroke-linecap="square" stroke-opacity=".3" stroke-width=".8"/>
     </g>
     <g id="cy">
      <use x="434.386372" y="529.445464" stroke="#000000" stroke-width=".8" xlink:href="#d"/>
     </g>
     <g id="cz">
      <text transform="translate(398.61 563.36) rotate(-30)" font-family="'Noto Sans JP'" font-size="10px">07-02 12</text>
     </g>
    </g>
    <g id="da">
     <g id="db">
      <path d="m527.28 529.45v-236.09" clip-path="url(#b)" fill="none" stroke="#b0b0b0" stroke-linecap="square" stroke-opacity=".3" stroke-width=".8"/>
     </g>
     <g id="dc">
      <use x="527.277095" y="529.445464" stroke="#000000" stroke-width=".8" xlink:href="#d"/>
     </g>
     <g id="dd">
      <text transform="translate(491.5 563.36) rotate(-30)" font-family="'Noto Sans JP'" font-size="10px">07-03 00</text>
     </g>
    </g>
    <g id="de">
     <g id="df">
      <path d="m620.17 529.45v-236.09" clip-path="url(#b)" fill="none" stroke="#b0b0b0" stroke-linecap="square" stroke-opacity=".3" stroke-width=".8"/>
     </g>
     <g id="dg">
      <use x="620.167817" y="529.445464" stroke="#000000" stroke-width=".8" xlink:href="#d"/>
     </g>
     <g id="dh">
      <text transform="translate(584.39 563.36) rotate(-30)" font-family="'Noto Sans JP'" font-size="10px">07-03 12</text>
     </g>
    </g>
    <g id="di">
     <g id="dj">
      <path d="m713.06 529.45v-236.09" clip-path="url(#b)" fill="none" stroke="#b0b0b0" stroke-linecap="square" stroke-opacity=".3" stroke-width=".8"/>
     </g>
     <g id="dk">
      <use x="713.05854" y="529.445464" stroke="#000000" stroke-width=".8" xlink:href="#d"/>
     </g>
     <g id="dl">
      <text transform="translate(677.29 563.36) rotate(-30)" font-family="'Noto Sans JP'" font-size="10px">07-04 00</text>
     </g>
    </g>
    <g id="dm">
     <g id="dn">
      <path d="m805.95 529.45v-236.09" clip-path="url(#b)" fill="none" stroke="#b0b0b0" stroke-linecap="square" stroke-opacity=".3" stroke-width=".8"/>
     </g>
     <g id="do">
      <use x="805.949263" y="529.445464" stroke="#000000" stroke-width=".8" xlink:href="#d"/>
     </g>
     <g id="dp">
      <text transform="translate(770.18 563.36) rotate(-30)" font-family="'Noto Sans JP'" font-size="10px">07-04 12</text>
     </g>
    </g>
   </g>
   <g id="dq">
    <g id="dr">
     <g id="ds">
      <path d="m40.75 512.58h812.45" clip-path="url(#b)" fill="none" stroke="#b0b0b0" stroke-linecap="square" stroke-opacity=".3" stroke-width=".8"/>
     </g>
     <g id="dt">
      <use x="40.75" y="512.581697" stroke="#000000" stroke-width=".8" xlink:href="#c"/>
     </g>
     <g id="du">
      <text transform="rotate(-0 33.75 516.57)" x="33.75" y="516.566854" font-family="'Noto Sans JP'" font-size="10px" text-anchor="end">8680</text>
     </g>
    </g>
    <g id="dv">
     <g id="dw">
      <path d="m40.75 488.05h812.45" clip-path="url(#b)" fill="none" stroke="#b0b0b0" stroke-linecap="square" stroke-opacity=".3" stroke-width=".8"/>
     </g>
     <g id="dx">
      <use x="40.75" y="488.052582" stroke="#000000" stroke-width=".8" xlink:href="#c"/>
     </g>
     <g id="dy">
      <text transform="rotate(-0 33.75 492.04)" x="33.75" y="492.037739" font-family="'Noto Sans JP'" font-size="10px" text-anchor="end">8688</text>
     </g>
    </g>
    <g id="dz">
     <g id="ea">
      <path d="m40.75 463.52h812.45" clip-path="url(#b)" fill="none" stroke="#b0b0b0" stroke-linecap="square" stroke-opacity=".3" stroke-width=".8"/>
     </g>
     <g id="eb">
      <use x="40.75" y="463.523467" stroke="#000000" stroke-width=".8" xlink:href="#c"/>
     </g>
     <g id="ec">
      <text transform="rotate(-0 33.75 467.51)" x="33.75" y="467.508624" font-family="'Noto Sans JP'" font-size="10px" text-anchor="end">8696</text>
     </g>
    </g>
    <g id="ed">
     <g id="ee">
      <path d="m40.75 438.99h812.45" clip-path="url(#b)" fill="none" stroke="#b0b0b0" stroke-linecap="square" stroke-opacity=".3" stroke-width=".8"/>
     </g>
     <g id="ef">
      <use x="40.75" y="438.994352" stroke="#000000" stroke-width=".8" xlink:href="#c"/>
     </g>
     <g id="eg">
      <text transform="rotate(-0 33.75 442.98)" x="33.75" y="442.979509" font-family="'Noto Sans JP'" font-size="10px" text-anchor="end">8704</text>
     </g>
    </g>
    <g id="eh">
     <g id="ei">
      <path d="m40.75 414.47h812.45" clip-path="url(#b)" fill="none" stroke="#b0b0b0" stroke-linecap="square" stroke-opacity=".3" stroke-width=".8"/>
     </g>
     <g id="ej">
      <use x="40.75" y="414.465237" stroke="#000000" stroke-width=".8" xlink:href="#c"/>
     </g>
     <g id="ek">
      <text transform="rotate(-0 33.75 418.45)" x="33.75" y="418.450394" font-family="'Noto Sans JP'" font-size="10px" text-anchor="end">8712</text>
     </g>
    </g>
    <g id="el">
     <g id="em">
      <path d="m40.75 389.94h812.45" clip-path="url(#b)" fill="none" stroke="#b0b0b0" stroke-linecap="square" stroke-opacity=".3" stroke-width=".8"/>
     </g>
     <g id="en">
      <use x="40.75" y="389.936122" stroke="#000000" stroke-width=".8" xlink:href="#c"/>
     </g>
     <g id="eo">
      <text transform="rotate(-0 33.75 393.92)" x="33.75" y="393.921279" font-family="'Noto Sans JP'" font-size="10px" text-anchor="end">8720</text>
     </g>
    </g>
    <g id="ep">
     <g id="eq">
      <path d="m40.75 365.41h812.45" clip-path="url(#b)" fill="none" stroke="#b0b0b0" stroke-linecap="square" stroke-opacity=".3" stroke-width=".8"/>
     </g>
     <g id="er">
      <use x="40.75" y="365.407007" stroke="#000000" stroke-width=".8" xlink:href="#c"/>
     </g>
     <g id="es">
      <text transform="rotate(-0 33.75 369.39)" x="33.75" y="369.392164" font-family="'Noto Sans JP'" font-size="10px" text-anchor="end">8728</text>
     </g>
    </g>
    <g id="et">
     <g id="eu">
      <path d="m40.75 340.88h812.45" clip-path="url(#b)" fill="none" stroke="#b0b0b0" stroke-linecap="square" stroke-opacity=".3" stroke-width=".8"/>
     </g>
     <g id="ev">
      <use x="40.75" y="340.877892" stroke="#000000" stroke-width=".8" xlink:href="#c"/>
     </g>
     <g id="ew">
      <text transform="rotate(-0 33.75 344.86)" x="33.75" y="344.863049" font-family="'Noto Sans JP'" font-size="10px" text-anchor="end">8736</text>
     </g>
    </g>
    <g id="ex">
     <g id="ey">
      <path d="m40.75 316.35h812.45" clip-path="url(#b)" fill="none" stroke="#b0b0b0" stroke-linecap="square" stroke-opacity=".3" stroke-width=".8"/>
     </g>
     <g id="ez">
      <use x="40.75" y="316.348777" stroke="#000000" stroke-width=".8" xlink:href="#c"/>
     </g>
     <g id="fa">
      <text transform="rotate(-0 33.75 320.33)" x="33.75" y="320.333934" font-family="'Noto Sans JP'" font-size="10px" text-anchor="end">8744</text>
     </g>
    </g>
   </g>
   <g id="fb">
    <path d="m77.68 518.71h16.219l1.8234-3.0661 1.9352-6.1323 1.9352 3.0661 1.9352-3.0661h3.8704l1.9352-3.0661 1.9352-6.1323 3.8704 6.1323 1.9352-3.0661h1.9352l3.8704 6.1323h1.9352l1.9352-3.0661 1.9352-9.1984h1.9352l1.9352-12.265 1.9352-3.0661h3.8704l1.9352-3.0661m3.8704-3.0661h1.9352l1.9352-3.0661 1.9352-9.1984h1.9352l1.9352-6.1323h1.9352l1.9352 3.0661 1.9352-6.1323h1.9352l1.9352-3.0661h7.7409l1.9352-3.0661h1.9352l1.9352 9.1984 1.9352-3.0661h7.7409l1.9352-6.1323h17.417l1.9352 6.1323h15.482l1.9352 3.0661h5.8057l1.9352 3.0661h13.547l1.9352 3.0661h7.7409l1.9352-3.0661h19.352l1.9352-3.0661 1.9352 3.0661h9.6761l1.9352-3.0661h1.9352l1.9352-6.1323h1.9352l1.9352 3.0661h3.8704l1.9352-3.0661h3.8704l1.9352-3.0661h1.9352l1.9352-3.0661h1.9352l1.9352-3.0661 1.9352 6.1323 1.9352-6.1323 1.9352-3.0661h3.8704l1.9352 3.0661h3.8704l1.9352-3.0661h1.9352l1.9352-3.0661h3.8704l1.9352-3.0661h1.9352l1.9352-3.0661 1.9352-6.1323 1.9352-3.0661h7.7409l1.9352 3.0661h5.8057l1.9352-3.0661h3.8704l1.9352-3.0661h40.64l1.9352-3.0661h9.6761l1.9352-3.0661h1.9352l1.9352-3.0661 1.9352 3.0661h15.482l1.9352-3.0661h1.9352l1.9352 3.0661h5.8057l3.8704-6.1323h7.7409l1.9352-3.0661 1.9352-6.1323 3.8704-6.1323h1.9352l1.9352 3.0661h3.8704l1.9352 3.0661h3.8704l13.547-21.463h1.9352l1.9352-6.1323h1.9352l5.8057-9.1984h3.8704l1.9352 3.0661h17.417l1.9352-3.0661h9.6761l1.9352-3.0661h17.417l1.9352-3.0661h29.028l.64507-3.0661h10.966l.64508 3.0661h3.8704l.64508-3.0661h1.9352l.64508-3.0661h1.2901l.64507 3.0661h14.192l.64508 3.0661h11.611l.64508-3.0661h6.4507l.64508-6.1323h11.611l.64507-3.0661h.64508l.64507-3.0661.64508 3.0661h3.8704l.64507-3.0661h5.1606l.64507 6.1323h1.9352l.64507 3.0661h3.2254l.64508-3.0661h3.8704l.64507-3.0661h2.5803l.64507-3.0661h1.9352l.64507-3.0661h2.5803l.64508 3.0661.64507-3.0661h9.6761l.64508-3.0661h2.5803l.64508-6.1323h.64507l.64508-3.0661h4.5155l1.2901-6.1323h1.2901l.64507-3.0661h1.9352l.64507-3.0661h37.414l.64508-3.0661h3.2254l.64507-3.0661h26.448l1.2901 3.0661h1.2901l1.2901-3.0661h11.611v0" clip-path="url(#b)" fill="none" stroke="#28f" stroke-linecap="square" stroke-width="1.5"/>
   </g>
   <g id="fc">
    <path d="m40.75 529.45v-236.09" fill="none" stroke="#000" stroke-linecap="square" stroke-width=".8"/>
   </g>
   <g id="fd">
    <path d="m853.2 529.45v-236.09" fill="none" stroke="#000" stroke-linecap="square" stroke-width=".8"/>
   </g>
   <g id="fe">
    <path d="m40.75 529.45h812.45" fill="none" stroke="#000" stroke-linecap="square" stroke-width=".8"/>
   </g>
   <g id="ff">
    <path d="m40.75 293.35h812.45" fill="none" stroke="#000" stroke-linecap="square" stroke-width=".8"/>
   </g>
   <g id="fg">
    <text transform="rotate(-0 446.98 287.35)" x="446.975" y="287.352732" font-family="'Noto Sans JP'" font-size="12px" text-anchor="middle">サーバー数の推移</text>
   </g>
  </g>
 </g>
 <defs>
  <clipPath id="a">
   <rect x="40.75" y="26.88" width="812.45" height="236.09"/>
  </clipPath>
  <clipPath id="b">
   <rect x="40.75" y="293.35" width="812.45" height="236.09"/>
  </clipPath>
 </defs>
</svg>
