<!DOCTYPE svg  PUBLIC '-//W3C//DTD SVG 1.1//EN'  'http://www.w3.org/Graphics/SVG/1.1/DTD/svg11.dtd'>
<svg version="1.1" viewBox="0 0 864 576" xmlns="http://www.w3.org/2000/svg" xmlns:xlink="http://www.w3.org/1999/xlink">
 <defs>
  <style type="text/css">*{stroke-linejoin: round; stroke-linecap: butt}</style>
 </defs>
 <g id="e">
  <g id="f">
   <path d="m0 576h864v-576h-864z" fill="#fff"/>
  </g>
  <g id="g">
   <g id="h">
    <path d="m40.66 262.97h812.54v-236.09h-812.54z" fill="#fff"/>
   </g>
   <g id="i">
    <path d="m136.77 262.97h3.7785v-236.09h-3.7785z" clip-path="url(#a)" fill="#808080" opacity=".3" stroke="#808080"/>
   </g>
   <g id="j">
    <g id="k">
     <g id="l">
      <path d="m63.091 262.97v-236.09" clip-path="url(#a)" fill="none" stroke="#b0b0b0" stroke-linecap="square" stroke-opacity=".3" stroke-width=".8"/>
     </g>
     <g id="m">
      <defs>
       <path id="c" d="m0 0v3.5" stroke="#000" stroke-width=".8"/>
      </defs>
      <use x="63.090595" y="262.972732" stroke="#000000" stroke-width=".8" xlink:href="#c"/>
     </g>
    </g>
    <g id="n">
     <g id="o">
      <path d="m153.77 262.97v-236.09" clip-path="url(#a)" fill="none" stroke="#b0b0b0" stroke-linecap="square" stroke-opacity=".3" stroke-width=".8"/>
     </g>
     <g id="p">
      <use x="153.773965" y="262.972732" stroke="#000000" stroke-width=".8" xlink:href="#c"/>
     </g>
    </g>
    <g id="q">
     <g id="r">
      <path d="m244.46 262.97v-236.09" clip-path="url(#a)" fill="none" stroke="#b0b0b0" stroke-linecap="square" stroke-opacity=".3" stroke-width=".8"/>
     </g>
     <g id="s">
      <use x="244.457335" y="262.972732" stroke="#000000" stroke-width=".8" xlink:href="#c"/>
     </g>
    </g>
    <g id="t">
     <g id="u">
      <path d="m335.14 262.97v-236.09" clip-path="url(#a)" fill="none" stroke="#b0b0b0" stroke-linecap="square" stroke-opacity=".3" stroke-width=".8"/>
     </g>
     <g id="v">
      <use x="335.140705" y="262.972732" stroke="#000000" stroke-width=".8" xlink:href="#c"/>
     </g>
    </g>
    <g id="w">
     <g id="x">
      <path d="m425.82 262.97v-236.09" clip-path="url(#a)" fill="none" stroke="#b0b0b0" stroke-linecap="square" stroke-opacity=".3" stroke-width=".8"/>
     </g>
     <g id="y">
      <use x="425.824075" y="262.972732" stroke="#000000" stroke-width=".8" xlink:href="#c"/>
     </g>
    </g>
    <g id="z">
     <g id="aa">
      <path d="m516.51 262.97v-236.09" clip-path="url(#a)" fill="none" stroke="#b0b0b0" stroke-linecap="square" stroke-opacity=".3" stroke-width=".8"/>
     </g>
     <g id="ab">
      <use x="516.507446" y="262.972732" stroke="#000000" stroke-width=".8" xlink:href="#c"/>
     </g>
    </g>
    <g id="ac">
     <g id="ad">
      <path d="m607.19 262.97v-236.09" clip-path="url(#a)" fill="none" stroke="#b0b0b0" stroke-linecap="square" stroke-opacity=".3" stroke-width=".8"/>
     </g>
     <g id="ae">
      <use x="607.190816" y="262.972732" stroke="#000000" stroke-width=".8" xlink:href="#c"/>
     </g>
    </g>
    <g id="af">
     <g id="ag">
      <path d="m697.87 262.97v-236.09" clip-path="url(#a)" fill="none" stroke="#b0b0b0" stroke-linecap="square" stroke-opacity=".3" stroke-width=".8"/>
     </g>
     <g id="ah">
      <use x="697.874186" y="262.972732" stroke="#000000" stroke-width=".8" xlink:href="#c"/>
     </g>
    </g>
    <g id="ai">
     <g id="aj">
      <path d="m788.56 262.97v-236.09" clip-path="url(#a)" fill="none" stroke="#b0b0b0" stroke-linecap="square" stroke-opacity=".3" stroke-width=".8"/>
     </g>
     <g id="ak">
      <use x="788.557556" y="262.972732" stroke="#000000" stroke-width=".8" xlink:href="#c"/>
     </g>
    </g>
   </g>
   <g id="al">
    <g id="am">
     <g id="an">
      <path d="m40.66 244.8h812.54" clip-path="url(#a)" fill="none" stroke="#b0b0b0" stroke-linecap="square" stroke-opacity=".3" stroke-width=".8"/>
     </g>
     <g id="ao">
      <defs>
       <path id="d" d="m0 0h-3.5" stroke="#000" stroke-width=".8"/>
      </defs>
      <use x="40.66" y="244.803579" stroke="#000000" stroke-width=".8" xlink:href="#d"/>
     </g>
     <g id="ap">
      <text transform="rotate(-0 33.66 248.79)" x="33.66" y="248.788736" font-family="'Noto Sans JP'" font-size="10px" text-anchor="end">25</text>
     </g>
    </g>
    <g id="aq">
     <g id="ar">
      <path d="m40.66 218.24h812.54" clip-path="url(#a)" fill="none" stroke="#b0b0b0" stroke-linecap="square" stroke-opacity=".3" stroke-width=".8"/>
     </g>
     <g id="as">
      <use x="40.66" y="218.240491" stroke="#000000" stroke-width=".8" xlink:href="#d"/>
     </g>
     <g id="at">
      <text transform="rotate(-0 33.66 222.23)" x="33.66" y="222.225647" font-family="'Noto Sans JP'" font-size="10px" text-anchor="end">50</text>
     </g>
    </g>
    <g id="au">
     <g id="av">
      <path d="m40.66 191.68h812.54" clip-path="url(#a)" fill="none" stroke="#b0b0b0" stroke-linecap="square" stroke-opacity=".3" stroke-width=".8"/>
     </g>
     <g id="aw">
      <use x="40.66" y="191.677402" stroke="#000000" stroke-width=".8" xlink:href="#d"/>
     </g>
     <g id="ax">
      <text transform="rotate(-0 33.66 195.66)" x="33.66" y="195.662558" font-family="'Noto Sans JP'" font-size="10px" text-anchor="end">75</text>
     </g>
    </g>
    <g id="ay">
     <g id="az">
      <path d="m40.66 165.11h812.54" clip-path="url(#a)" fill="none" stroke="#b0b0b0" stroke-linecap="square" stroke-opacity=".3" stroke-width=".8"/>
     </g>
     <g id="ba">
      <use x="40.66" y="165.114313" stroke="#000000" stroke-width=".8" xlink:href="#d"/>
     </g>
     <g id="bb">
      <text transform="rotate(-0 33.66 169.1)" x="33.66" y="169.09947" font-family="'Noto Sans JP'" font-size="10px" text-anchor="end">100</text>
     </g>
    </g>
    <g id="bc">
     <g id="bd">
      <path d="m40.66 138.55h812.54" clip-path="url(#a)" fill="none" stroke="#b0b0b0" stroke-linecap="square" stroke-opacity=".3" stroke-width=".8"/>
     </g>
     <g id="be">
      <use x="40.66" y="138.551225" stroke="#000000" stroke-width=".8" xlink:href="#d"/>
     </g>
     <g id="bf">
      <text transform="rotate(-0 33.66 142.54)" x="33.66" y="142.536381" font-family="'Noto Sans JP'" font-size="10px" text-anchor="end">125</text>
     </g>
    </g>
    <g id="bg">
     <g id="bh">
      <path d="m40.66 111.99h812.54" clip-path="url(#a)" fill="none" stroke="#b0b0b0" stroke-linecap="square" stroke-opacity=".3" stroke-width=".8"/>
     </g>
     <g id="bi">
      <use x="40.66" y="111.988136" stroke="#000000" stroke-width=".8" xlink:href="#d"/>
     </g>
     <g id="bj">
      <text transform="rotate(-0 33.66 115.97)" x="33.66" y="115.973292" font-family="'Noto Sans JP'" font-size="10px" text-anchor="end">150</text>
     </g>
    </g>
    <g id="bk">
     <g id="bl">
      <path d="m40.66 85.425h812.54" clip-path="url(#a)" fill="none" stroke="#b0b0b0" stroke-linecap="square" stroke-opacity=".3" stroke-width=".8"/>
     </g>
     <g id="bm">
      <use x="40.66" y="85.425047" stroke="#000000" stroke-width=".8" xlink:href="#d"/>
     </g>
     <g id="bn">
      <text transform="rotate(-0 33.66 89.41)" x="33.66" y="89.410204" font-family="'Noto Sans JP'" font-size="10px" text-anchor="end">175</text>
     </g>
    </g>
    <g id="bo">
     <g id="bp">
      <path d="m40.66 58.862h812.54" clip-path="url(#a)" fill="none" stroke="#b0b0b0" stroke-linecap="square" stroke-opacity=".3" stroke-width=".8"/>
     </g>
     <g id="bq">
      <use x="40.66" y="58.861959" stroke="#000000" stroke-width=".8" xlink:href="#d"/>
     </g>
     <g id="br">
      <text transform="rotate(-0 33.66 62.847)" x="33.66" y="62.847115" font-family="'Noto Sans JP'" font-size="10px" text-anchor="end">200</text>
     </g>
    </g>
    <g id="bs">
     <g id="bt">
      <path d="m40.66 32.299h812.54" clip-path="url(#a)" fill="none" stroke="#b0b0b0" stroke-linecap="square" stroke-opacity=".3" stroke-width=".8"/>
     </g>
     <g id="bu">
      <use x="40.66" y="32.29887" stroke="#000000" stroke-width=".8" xlink:href="#d"/>
     </g>
     <g id="bv">
      <text transform="rotate(-0 33.66 36.284)" x="33.66" y="36.284026" font-family="'Noto Sans JP'" font-size="10px" text-anchor="end">225</text>
     </g>
    </g>
   </g>
   <g id="bw">
    <path d="m77.594 211.87.35896 1.0625.31697-1.0625 1.3099-1.0625.66753-2.125 1.7822-4.2501 1.885-2.125 1.8955-8.5002 1.885-2.125 1.9585-4.2501 1.8808-2.125 1.8934-4.2501 1.7801 1.0625 1.8892-7.4377 1.8892-12.75 3.7785-8.5002 1.8892-6.3751 3.7785-10.625 1.8892 2.125 1.8892-2.125 1.8892-7.4377 1.8892 11.688 1.8892 2.125 1.8892-10.625 1.8892 5.3126 1.8892-8.5002 1.8892-11.688 1.8892-3.1876 1.8892-12.75 1.8892-14.875 1.8892-1.0625 1.8892-11.688h1.8892m3.7785-6.3751 1.8892-19.125 1.8892-1.0625 1.8892 3.1876 1.8892 1.0625 1.8892 6.3751 1.8892 8.5002 1.8892 4.2501 1.8892 13.813 1.8892 20.188 1.8892 10.625 1.8892 4.2501 1.8892 23.376 1.8892 7.4377 3.7785 10.625 3.7785 19.125 1.8892 4.2501 3.7785 12.75 1.8892 4.2501 1.8892 6.3751 1.8892-1.0625 1.8892 2.125 1.8892 5.3126 1.8892 4.2501 1.8892 1.0625 1.8892-1.0625 1.8892 1.0625 1.8892 4.2501 1.8892 3.1876 1.8892 2.125 1.8892 1.0625 1.8892 2.125 1.8892-1.0625 1.8892-3.1876 1.8892 6.3751 1.8892 3.1876 1.8892 2.125h1.8892l1.8892-2.125h1.8892l1.8892-2.125h1.8892l1.8892-3.1876 1.8892 2.125 1.8892 3.1876 1.8892-2.125 1.8892 1.0625h1.8892l1.8892 2.125h1.8892l1.8892 1.0625h1.8892l1.8892-1.0625 1.8892-4.2501 1.8892-2.125 5.6677-12.75 1.8892 1.0625h1.8892l1.8892-5.3126 1.8892-1.0625 1.8892-4.2501 1.8892-2.125 1.8892-1.0625 3.7785-4.2501 1.8892-3.1876h1.8892l1.8892-6.3751 1.8892-8.5002 1.8892-9.5627 1.8892-4.2501 1.8892-9.5627 1.8892-6.3751 1.8892-3.1876 3.7785-19.125 1.8892-4.2501 1.8892 5.3126 1.8892-5.3126 1.8892 1.0625 1.8892-3.1876 1.8892-2.125 1.8892-4.2501 1.8892-10.625 1.8892-14.875 5.6677-31.876 1.8892-3.1876 1.8892-14.875 1.8892-6.3751 1.8892 3.1876 1.8892 5.3126 1.8892 2.125 1.8892 5.3126 1.8892 6.3751 1.8892 22.313 1.8892 4.2501 3.7785 12.75 1.8892 11.688 1.8892 8.5002 1.8892 6.3751 1.8892 9.5627 1.8892 8.5002 1.8892 6.3751 1.8892 9.5627 1.8892 13.813 1.8892 7.4377 1.8892-2.125 1.8892 9.5627 1.8892 7.4377 1.8892 4.2501 3.7785 6.3751 1.8892 2.125 1.8892 7.4377 1.8892 3.1876 1.8892-1.0625h1.8892l1.8892 3.1876 3.7785 2.125 1.8892 3.1876 1.8892 1.0625h1.8892l3.7785 6.3751 1.8892 4.2501 3.7785 4.2501 1.8892 1.0625h1.8892l1.8892 3.1876h1.8892l1.8892-1.0625h1.8892l1.8892 1.0625 1.8892-1.0625 1.8892-3.1876h1.8892l1.8892-2.125 1.8892-1.0625h1.8892l1.8892-1.0625h1.8892l1.8892-3.1876 1.8892-1.0625 1.8892-4.2501 1.8892-5.3126 1.8892-1.0625 3.7785-4.2501 1.8892-1.0625 1.8892-5.3126 1.8892-3.1876 1.8892-4.2501 1.8892-6.3751 5.6677-12.75 1.8892-3.1876 1.8892 3.1876 3.7785-10.625 1.8892-8.5002 1.8892-7.4377 1.8892-9.5627 1.8892 4.2501 1.8892-2.125 1.8892 3.1876 1.8892 1.0625 1.8892-5.3126 1.8892-4.2501 1.8892 2.125 1.8892 3.1876 1.8892 4.2501 1.8892 5.3126 1.8892-7.4377 1.8892-10.625 1.8892-4.2501h1.8892l1.8892-19.125 1.8892 1.0625 3.7785-17 1.8892 5.3126 1.8892 2.125 1.8892-3.1876 1.8892-1.0625 3.7785-10.625 1.8892 9.5627 1.8892 1.0625 1.8892 10.625 1.8892 11.688 1.8892 5.3126 1.8892 6.3751 1.8892 9.5627 1.8892 7.4377 1.8892 14.875 1.8892 6.3751 3.7785 10.625 1.8892 7.4377 1.8892-2.125 1.8892 6.3751 1.8892 7.4377h1.8892l1.8892 6.3751 1.8892 2.125 1.8892 3.1876 1.8892 4.2501 1.8892 2.125h1.8892l1.8892 2.125 1.8892-1.0625 1.8892 4.2501 1.8892 2.125 1.8892 3.1876 5.6677 3.1876 1.8892 3.1876 3.7785 2.125 1.8892 2.125 1.8892 1.0625 1.8892-1.0625 2.519 3.1876h1.2595l1.2595-2.125 1.2595-4.2501.62974-1.0625h1.2595l.62974 1.0625.62975-1.0625.62974 1.0625h4.4082l.62974-1.0625.62975 2.125h.62975l.62974-1.0625 1.2595 2.125.62974-1.0625h.62975l.62974-2.125.62975 1.0625.62975-2.125h.62974l1.2595 2.125h2.519l.62975 1.0625h.62974l.62975 1.0625 1.2595-2.125.62975-3.1876.62974-1.0625.62975-4.2501.62975-1.0625.62974-2.125h1.2595l.62974 3.1876 1.2595-6.3751.62975-2.125.62975 4.2501.62974-2.125h.62975l.62975-1.0625.62974-2.125 1.8892-3.1876.62975 2.125.62974-1.0625h.62975l.62975-1.0625.62974-2.125h1.2595l.62975 2.125h.62975l.62974-3.1876.62975-2.125h.62975l.62974-1.0625.62975 2.125.62975-2.125.62974 1.0625.62975-4.2501.62974-3.1876h.62975l.62975-2.125.62974-3.1876.62975-1.0625.62975-2.125.62974 2.125.62975-2.125h.62974l.62975-1.0625 1.2595-4.2501.62975-3.1876 1.2595-2.125.62975-4.2501.62974-2.125.62975-1.0625h.62975l.62974-3.1876.62975-1.0625.62975-4.2501.62974-3.1876.62975 5.3126.62974-3.1876h.62975l.62975 2.125.62974-2.125.62975-4.2501.62975 2.125.62974-1.0625.62975-4.2501.62974-5.3126h.62975l1.2595 2.125.62975-2.125h.62975l.62974 1.0625.62975 3.1876h.62974l.62975 1.0625h.62975l.62974 3.1876.62975 2.125.62975-5.3126.62974 1.0625 1.2595-6.3751 1.2595 2.125.62974-3.1876.62975-2.125.62975-6.3751.62974 2.125.62975-3.1876.62974-1.0625.62975-4.2501.62975 1.0625.62974-3.1876.62975-1.0625.62975-4.2501.62974-1.0625.62975-2.125.62974-1.0625.62975-2.125 2.519-4.2501.62974-2.125.62975-8.5002.62974-3.1876.62975-5.3126.62975 5.3126.62974-5.3126.62975-7.4377h.62975l.62974 1.0625.62975-2.125 1.8892 3.1876.62974-1.0625.62975 3.1876.62975 1.0625.62974 3.1876.62975-6.3751.62974 2.125.62975 1.0625.62975-3.1876.62974 1.0625.62975 5.3126.62975-2.125.62974-1.0625.62975 1.0625h2.519l.62975 1.0625.62975 2.125 1.2595 6.3751.62975 5.3126 1.2595 4.2501.62974 3.1876.62975 1.0625h.62975l.62974 1.0625.62975 5.3126.62975 3.1876.62974 1.0625h.62975l.62974 3.1876.62975 5.3126.62975 2.125.62974 4.2501.62975 3.1876.62975 1.0625.62974 6.3751h.62975l.62974 1.0625.62975 2.125.62975 6.3751.62974 4.2501.62975 1.0625h.62975l.62974 2.125.62975-1.0625.62974 1.0625.62975 2.125h.62975l1.8892 3.1876.62974 4.2501 1.2595 4.2501 1.2595 2.125h.62974l.62975 3.1876h.62975l.62974 3.1876 2.519 4.2501h.62974l.62975 1.0625.62975 2.125 3.1487 5.3126.62974 3.1876.62975 1.0625.62975-1.0625.62974 2.125.62975-1.0625h1.2595l1.2595 4.2501h.62975l.62975 1.0625.62974 3.1876.62975 1.0625h1.2595l.62975-1.0625h.62974l1.8892 3.1876h.62975l.62974 1.0625.62975-1.0625h.62975l1.2595 2.125h.62975l.62974 1.0625.62975 3.1876 1.2595 2.125h1.2595l.62975-1.0625.62975 1.0625.62974-2.125.62975-1.0625h.62975l1.2595-2.125.62974 1.0625.62975-1.0625.62975 1.0625h.62974l.62975 3.1876h.62975l.62974 2.125.62975 1.0625h3.1487l1.2595-2.125h1.2595l.62975-2.125.62975-1.0625h1.2595l.62975 1.0625h1.2595l.62974-2.125h.62975l.62975-1.0625h1.8892l1.2595-1.0625 1.2595 1.0625.62975-3.1876.62974-1.0625 2.519-2.125h1.2595l1.2595-2.125 1.2595-3.1876 1.2595-1.0625 1.2595-2.125 2.519 2.125 1.2595-3.1876 1.2595-5.3126h1.2595l1.2595-1.0625 1.2595-3.1876 1.2595 2.125 1.2595-5.3126 1.2595-2.125h1.2595l2.519-2.125 1.2595-2.125 1.2595-3.1876 1.2595 3.1876 1.2595-2.125 1.2595 1.0625h1.2595l2.519-10.625h1.2595v0" clip-path="url(#a)" fill="none" stroke="#28f" stroke-linecap="square" stroke-width="1.5"/>
   </g>
   <g id="bx">
    <path d="m40.66 262.97v-236.09" fill="none" stroke="#000" stroke-linecap="square" stroke-width=".8"/>
   </g>
   <g id="by">
    <path d="m853.2 262.97v-236.09" fill="none" stroke="#000" stroke-linecap="square" stroke-width=".8"/>
   </g>
   <g id="bz">
    <path d="m40.66 262.97h812.54" fill="none" stroke="#000" stroke-linecap="square" stroke-width=".8"/>
   </g>
   <g id="ca">
    <path d="m40.66 26.88h812.54" fill="none" stroke="#000" stroke-linecap="square" stroke-width=".8"/>
   </g>
   <g id="cb">
    <text transform="rotate(-0 446.93 20.88)" x="446.93" y="20.88" font-family="'Noto Sans JP'" font-size="12px" text-anchor="middle">同時接続数の推移</text>
   </g>
  </g>
  <g id="cc">
   <g id="cd">
    <path d="m40.66 529.45h812.54v-236.09h-812.54z" fill="#fff"/>
   </g>
   <g id="ce">
    <path d="m136.77 529.45h3.7785v-236.09h-3.7785z" clip-path="url(#b)" fill="#808080" opacity=".3" stroke="#808080"/>
   </g>
   <g id="cf">
    <g id="cg">
     <g id="ch">
      <path d="m63.091 529.45v-236.09" clip-path="url(#b)" fill="none" stroke="#b0b0b0" stroke-linecap="square" stroke-opacity=".3" stroke-width=".8"/>
     </g>
     <g id="ci">
      <use x="63.090595" y="529.445464" stroke="#000000" stroke-width=".8" xlink:href="#c"/>
     </g>
     <g id="cj">
      <text transform="translate(27.317 563.36) rotate(-30)" font-family="'Noto Sans JP'" font-size="10px">06-30 12</text>
     </g>
    </g>
    <g id="ck">
     <g id="cl">
      <path d="m153.77 529.45v-236.09" clip-path="url(#b)" fill="none" stroke="#b0b0b0" stroke-linecap="square" stroke-opacity=".3" stroke-width=".8"/>
     </g>
     <g id="cm">
      <use x="153.773965" y="529.445464" stroke="#000000" stroke-width=".8" xlink:href="#c"/>
     </g>
     <g id="cn">
      <text transform="translate(118 563.36) rotate(-30)" font-family="'Noto Sans JP'" font-size="10px">07-01 00</text>
     </g>
    </g>
    <g id="co">
     <g id="cp">
      <path d="m244.46 529.45v-236.09" clip-path="url(#b)" fill="none" stroke="#b0b0b0" stroke-linecap="square" stroke-opacity=".3" stroke-width=".8"/>
     </g>
     <g id="cq">
      <use x="244.457335" y="529.445464" stroke="#000000" stroke-width=".8" xlink:href="#c"/>
     </g>
     <g id="cr">
      <text transform="translate(208.68 563.36) rotate(-30)" font-family="'Noto Sans JP'" font-size="10px">07-01 12</text>
     </g>
    </g>
    <g id="cs">
     <g id="ct">
      <path d="m335.14 529.45v-236.09" clip-path="url(#b)" fill="none" stroke="#b0b0b0" stroke-linecap="square" stroke-opacity=".3" stroke-width=".8"/>
     </g>
     <g id="cu">
      <use x="335.140705" y="529.445464" stroke="#000000" stroke-width=".8" xlink:href="#c"/>
     </g>
     <g id="cv">
      <text transform="translate(299.37 563.36) rotate(-30)" font-family="'Noto Sans JP'" font-size="10px">07-02 00</text>
     </g>
    </g>
    <g id="cw">
     <g id="cx">
      <path d="m425.82 529.45v-236.09" clip-path="url(#b)" fill="none" stroke="#b0b0b0" stroke-linecap="square" stroke-opacity=".3" stroke-width=".8"/>
     </g>
     <g id="cy">
      <use x="425.824075" y="529.445464" stroke="#000000" stroke-width=".8" xlink:href="#c"/>
     </g>
     <g id="cz">
      <text transform="translate(390.05 563.36) rotate(-30)" font-family="'Noto Sans JP'" font-size="10px">07-02 12</text>
     </g>
    </g>
    <g id="da">
     <g id="db">
      <path d="m516.51 529.45v-236.09" clip-path="url(#b)" fill="none" stroke="#b0b0b0" stroke-linecap="square" stroke-opacity=".3" stroke-width=".8"/>
     </g>
     <g id="dc">
      <use x="516.507446" y="529.445464" stroke="#000000" stroke-width=".8" xlink:href="#c"/>
     </g>
     <g id="dd">
      <text transform="translate(480.73 563.36) rotate(-30)" font-family="'Noto Sans JP'" font-size="10px">07-03 00</text>
     </g>
    </g>
    <g id="de">
     <g id="df">
      <path d="m607.19 529.45v-236.09" clip-path="url(#b)" fill="none" stroke="#b0b0b0" stroke-linecap="square" stroke-opacity=".3" stroke-width=".8"/>
     </g>
     <g id="dg">
      <use x="607.190816" y="529.445464" stroke="#000000" stroke-width=".8" xlink:href="#c"/>
     </g>
     <g id="dh">
      <text transform="translate(571.42 563.36) rotate(-30)" font-family="'Noto Sans JP'" font-size="10px">07-03 12</text>
     </g>
    </g>
    <g id="di">
     <g id="dj">
      <path d="m697.87 529.45v-236.09" clip-path="url(#b)" fill="none" stroke="#b0b0b0" stroke-linecap="square" stroke-opacity=".3" stroke-width=".8"/>
     </g>
     <g id="dk">
      <use x="697.874186" y="529.445464" stroke="#000000" stroke-width=".8" xlink:href="#c"/>
     </g>
     <g id="dl">
      <text transform="translate(662.1 563.36) rotate(-30)" font-family="'Noto Sans JP'" font-size="10px">07-04 00</text>
     </g>
    </g>
    <g id="dm">
     <g id="dn">
      <path d="m788.56 529.45v-236.09" clip-path="url(#b)" fill="none" stroke="#b0b0b0" stroke-linecap="square" stroke-opacity=".3" stroke-width=".8"/>
     </g>
     <g id="do">
      <use x="788.557556" y="529.445464" stroke="#000000" stroke-width=".8" xlink:href="#c"/>
     </g>
     <g id="dp">
      <text transform="translate(752.78 563.36) rotate(-30)" font-family="'Noto Sans JP'" font-size="10px">07-04 12</text>
     </g>
    </g>
   </g>
   <g id="dq">
    <g id="dr">
     <g id="ds">
      <path d="m40.66 512.91h812.54" clip-path="url(#b)" fill="none" stroke="#b0b0b0" stroke-linecap="square" stroke-opacity=".3" stroke-width=".8"/>
     </g>
     <g id="dt">
      <use x="40.66" y="512.913172" stroke="#000000" stroke-width=".8" xlink:href="#d"/>
     </g>
     <g id="du">
      <text transform="rotate(-0 33.66 516.9)" x="33.66" y="516.898328" font-family="'Noto Sans JP'" font-size="10px" text-anchor="end">8680</text>
     </g>
    </g>
    <g id="dv">
     <g id="dw">
      <path d="m40.66 483.91h812.54" clip-path="url(#b)" fill="none" stroke="#b0b0b0" stroke-linecap="square" stroke-opacity=".3" stroke-width=".8"/>
     </g>
     <g id="dx">
      <use x="40.66" y="483.909151" stroke="#000000" stroke-width=".8" xlink:href="#d"/>
     </g>
     <g id="dy">
      <text transform="rotate(-0 33.66 487.89)" x="33.66" y="487.894307" font-family="'Noto Sans JP'" font-size="10px" text-anchor="end">8690</text>
     </g>
    </g>
    <g id="dz">
     <g id="ea">
      <path d="m40.66 454.91h812.54" clip-path="url(#b)" fill="none" stroke="#b0b0b0" stroke-linecap="square" stroke-opacity=".3" stroke-width=".8"/>
     </g>
     <g id="eb">
      <use x="40.66" y="454.90513" stroke="#000000" stroke-width=".8" xlink:href="#d"/>
     </g>
     <g id="ec">
      <text transform="rotate(-0 33.66 458.89)" x="33.66" y="458.890286" font-family="'Noto Sans JP'" font-size="10px" text-anchor="end">8700</text>
     </g>
    </g>
    <g id="ed">
     <g id="ee">
      <path d="m40.66 425.9h812.54" clip-path="url(#b)" fill="none" stroke="#b0b0b0" stroke-linecap="square" stroke-opacity=".3" stroke-width=".8"/>
     </g>
     <g id="ef">
      <use x="40.66" y="425.901109" stroke="#000000" stroke-width=".8" xlink:href="#d"/>
     </g>
     <g id="eg">
      <text transform="rotate(-0 33.66 429.89)" x="33.66" y="429.886265" font-family="'Noto Sans JP'" font-size="10px" text-anchor="end">8710</text>
     </g>
    </g>
    <g id="eh">
     <g id="ei">
      <path d="m40.66 396.9h812.54" clip-path="url(#b)" fill="none" stroke="#b0b0b0" stroke-linecap="square" stroke-opacity=".3" stroke-width=".8"/>
     </g>
     <g id="ej">
      <use x="40.66" y="396.897087" stroke="#000000" stroke-width=".8" xlink:href="#d"/>
     </g>
     <g id="ek">
      <text transform="rotate(-0 33.66 400.88)" x="33.66" y="400.882244" font-family="'Noto Sans JP'" font-size="10px" text-anchor="end">8720</text>
     </g>
    </g>
    <g id="el">
     <g id="em">
      <path d="m40.66 367.89h812.54" clip-path="url(#b)" fill="none" stroke="#b0b0b0" stroke-linecap="square" stroke-opacity=".3" stroke-width=".8"/>
     </g>
     <g id="en">
      <use x="40.66" y="367.893066" stroke="#000000" stroke-width=".8" xlink:href="#d"/>
     </g>
     <g id="eo">
      <text transform="rotate(-0 33.66 371.88)" x="33.66" y="371.878223" font-family="'Noto Sans JP'" font-size="10px" text-anchor="end">8730</text>
     </g>
    </g>
    <g id="ep">
     <g id="eq">
      <path d="m40.66 338.89h812.54" clip-path="url(#b)" fill="none" stroke="#b0b0b0" stroke-linecap="square" stroke-opacity=".3" stroke-width=".8"/>
     </g>
     <g id="er">
      <use x="40.66" y="338.889045" stroke="#000000" stroke-width=".8" xlink:href="#d"/>
     </g>
     <g id="es">
      <text transform="rotate(-0 33.66 342.87)" x="33.66" y="342.874201" font-family="'Noto Sans JP'" font-size="10px" text-anchor="end">8740</text>
     </g>
    </g>
    <g id="et">
     <g id="eu">
      <path d="m40.66 309.89h812.54" clip-path="url(#b)" fill="none" stroke="#b0b0b0" stroke-linecap="square" stroke-opacity=".3" stroke-width=".8"/>
     </g>
     <g id="ev">
      <use x="40.66" y="309.885024" stroke="#000000" stroke-width=".8" xlink:href="#d"/>
     </g>
     <g id="ew">
      <text transform="rotate(-0 33.66 313.87)" x="33.66" y="313.87018" font-family="'Noto Sans JP'" font-size="10px" text-anchor="end">8750</text>
     </g>
    </g>
   </g>
   <g id="ex">
    <path d="m77.594 518.71h15.834l1.7801-2.9004 1.8892-5.8008 1.8892 2.9004 1.8892-2.9004h3.7785l1.8892-2.9004 1.8892-5.8008 3.7785 5.8008 1.8892-2.9004h1.8892l3.7785 5.8008h1.8892l1.8892-2.9004 1.8892-8.7012h1.8892l1.8892-11.602 1.8892-2.9004h3.7785l1.8892-2.9004m3.7785-2.9004h1.8892l1.8892-2.9004 1.8892-8.7012h1.8892l1.8892-5.8008h1.8892l1.8892 2.9004 1.8892-5.8008h1.8892l1.8892-2.9004h7.5569l1.8892-2.9004h1.8892l1.8892 8.7012 1.8892-2.9004h7.5569l1.8892-5.8008h17.003l1.8892 5.8008h15.114l1.8892 2.9004h5.6677l1.8892 2.9004h13.225l1.8892 2.9004h7.5569l1.8892-2.9004h18.892l1.8892-2.9004 1.8892 2.9004h9.4462l1.8892-2.9004h1.8892l1.8892-5.8008h1.8892l1.8892 2.9004h3.7785l1.8892-2.9004h3.7785l1.8892-2.9004h1.8892l1.8892-2.9004h1.8892l1.8892-2.9004 1.8892 5.8008 1.8892-5.8008 1.8892-2.9004h3.7785l1.8892 2.9004h3.7785l1.8892-2.9004h1.8892l1.8892-2.9004h3.7785l1.8892-2.9004h1.8892l1.8892-2.9004 1.8892-5.8008 1.8892-2.9004h7.5569l1.8892 2.9004h5.6677l1.8892-2.9004h3.7785l1.8892-2.9004h39.674l1.8892-2.9004h9.4462l1.8892-2.9004h1.8892l1.8892-2.9004 1.8892 2.9004h15.114l1.8892-2.9004h1.8892l1.8892 2.9004h5.6677l3.7785-5.8008h7.5569l1.8892-2.9004 1.8892-5.8008 3.7785-5.8008h1.8892l1.8892 2.9004h3.7785l1.8892 2.9004h3.7785l13.225-20.303h1.8892l1.8892-5.8008h1.8892l5.6677-8.7012h3.7785l1.8892 2.9004h17.003l1.8892-2.9004h9.4462l1.8892-2.9004h17.003l1.8892-2.9004h28.339l.62974-2.9004h10.706l.62974 2.9004h3.7785l.62975-2.9004h1.8892l.62974-2.9004h1.2595l.62974 2.9004h13.854l.62975 2.9004h11.335l.62975-2.9004h6.2975l.62974-5.8008h11.335l.62974-2.9004h.62975l.62975-2.9004.62974 2.9004h3.7785l.62975-2.9004h5.038l.62974 5.8008h1.8892l.62975 2.9004h3.1487l.62974-2.9004h3.7785l.62975-2.9004h2.519l.62975-2.9004h1.8892l.62974-2.9004h2.519l.62975 2.9004.62974-2.9004h9.4462l.62974-2.9004h2.519l.62974-5.8008h.62975l.62975-2.9004h4.4082l1.2595-5.8008h1.2595l.62974-2.9004h1.8892l.62975-2.9004h36.525l.62975-2.9004h3.1487l.62974-2.9004h25.82l1.2595 2.9004h1.2595l1.2595-2.9004h18.892l1.2595-2.9004 1.2595 2.9004h2.519l1.2595-2.9004 1.2595-8.7012 1.2595 2.9004h1.2595v0" clip-path="url(#b)" fill="none" stroke="#28f" stroke-linecap="square" stroke-width="1.5"/>
   </g>
   <g id="ey">
    <path d="m40.66 529.45v-236.09" fill="none" stroke="#000" stroke-linecap="square" stroke-width=".8"/>
   </g>
   <g id="ez">
    <path d="m853.2 529.45v-236.09" fill="none" stroke="#000" stroke-linecap="square" stroke-width=".8"/>
   </g>
   <g id="fa">
    <path d="m40.66 529.45h812.54" fill="none" stroke="#000" stroke-linecap="square" stroke-width=".8"/>
   </g>
   <g id="fb">
    <path d="m40.66 293.35h812.54" fill="none" stroke="#000" stroke-linecap="square" stroke-width=".8"/>
   </g>
   <g id="fc">
    <text transform="rotate(-0 446.93 287.35)" x="446.93" y="287.352732" font-family="'Noto Sans JP'" font-size="12px" text-anchor="middle">サーバー数の推移</text>
   </g>
  </g>
 </g>
 <defs>
  <clipPath id="a">
   <rect x="40.66" y="26.88" width="812.54" height="236.09"/>
  </clipPath>
  <clipPath id="b">
   <rect x="40.66" y="293.35" width="812.54" height="236.09"/>
  </clipPath>
 </defs>
</svg>
