<!DOCTYPE svg  PUBLIC '-//W3C//DTD SVG 1.1//EN'  'http://www.w3.org/Graphics/SVG/1.1/DTD/svg11.dtd'>
<svg version="1.1" viewBox="0 0 864 576" xmlns="http://www.w3.org/2000/svg" xmlns:xlink="http://www.w3.org/1999/xlink">
 <defs>
  <style type="text/css">*{stroke-linejoin: round; stroke-linecap: butt}</style>
 </defs>
 <g id="e">
  <g id="f">
   <path d="m0 576h864v-576h-864z" fill="#fff"/>
  </g>
  <g id="g">
   <g id="h">
    <path d="m40.75 262.97h812.45v-236.09h-812.45z" fill="#fff"/>
   </g>
   <g id="i">
    <path d="m138.62 262.97h3.8908v-236.09h-3.8908z" clip-path="url(#b)" fill="#808080" opacity=".3" stroke="#808080"/>
   </g>
   <g id="j">
    <g id="k">
     <g id="l">
      <path d="m62.745 262.97v-236.09" clip-path="url(#b)" fill="none" stroke="#b0b0b0" stroke-linecap="square" stroke-opacity=".3" stroke-width=".8"/>
     </g>
     <g id="m">
      <defs>
       <path id="c" d="m0 0v3.5" stroke="#000" stroke-width=".8"/>
      </defs>
      <use x="62.74522" y="262.972732" stroke="#000000" stroke-width=".8" xlink:href="#c"/>
     </g>
    </g>
    <g id="n">
     <g id="o">
      <path d="m156.13 262.97v-236.09" clip-path="url(#b)" fill="none" stroke="#b0b0b0" stroke-linecap="square" stroke-opacity=".3" stroke-width=".8"/>
     </g>
     <g id="p">
      <use x="156.125284" y="262.972732" stroke="#000000" stroke-width=".8" xlink:href="#c"/>
     </g>
    </g>
    <g id="q">
     <g id="r">
      <path d="m249.51 262.97v-236.09" clip-path="url(#b)" fill="none" stroke="#b0b0b0" stroke-linecap="square" stroke-opacity=".3" stroke-width=".8"/>
     </g>
     <g id="s">
      <use x="249.505347" y="262.972732" stroke="#000000" stroke-width=".8" xlink:href="#c"/>
     </g>
    </g>
    <g id="t">
     <g id="u">
      <path d="m342.89 262.97v-236.09" clip-path="url(#b)" fill="none" stroke="#b0b0b0" stroke-linecap="square" stroke-opacity=".3" stroke-width=".8"/>
     </g>
     <g id="v">
      <use x="342.88541" y="262.972732" stroke="#000000" stroke-width=".8" xlink:href="#c"/>
     </g>
    </g>
    <g id="w">
     <g id="x">
      <path d="m436.27 262.97v-236.09" clip-path="url(#b)" fill="none" stroke="#b0b0b0" stroke-linecap="square" stroke-opacity=".3" stroke-width=".8"/>
     </g>
     <g id="y">
      <use x="436.265474" y="262.972732" stroke="#000000" stroke-width=".8" xlink:href="#c"/>
     </g>
    </g>
    <g id="z">
     <g id="aa">
      <path d="m529.65 262.97v-236.09" clip-path="url(#b)" fill="none" stroke="#b0b0b0" stroke-linecap="square" stroke-opacity=".3" stroke-width=".8"/>
     </g>
     <g id="ab">
      <use x="529.645537" y="262.972732" stroke="#000000" stroke-width=".8" xlink:href="#c"/>
     </g>
    </g>
    <g id="ac">
     <g id="ad">
      <path d="m623.03 262.97v-236.09" clip-path="url(#b)" fill="none" stroke="#b0b0b0" stroke-linecap="square" stroke-opacity=".3" stroke-width=".8"/>
     </g>
     <g id="ae">
      <use x="623.025601" y="262.972732" stroke="#000000" stroke-width=".8" xlink:href="#c"/>
     </g>
    </g>
    <g id="af">
     <g id="ag">
      <path d="m716.41 262.97v-236.09" clip-path="url(#b)" fill="none" stroke="#b0b0b0" stroke-linecap="square" stroke-opacity=".3" stroke-width=".8"/>
     </g>
     <g id="ah">
      <use x="716.405664" y="262.972732" stroke="#000000" stroke-width=".8" xlink:href="#c"/>
     </g>
    </g>
    <g id="ai">
     <g id="aj">
      <path d="m809.79 262.97v-236.09" clip-path="url(#b)" fill="none" stroke="#b0b0b0" stroke-linecap="square" stroke-opacity=".3" stroke-width=".8"/>
     </g>
     <g id="ak">
      <use x="809.785728" y="262.972732" stroke="#000000" stroke-width=".8" xlink:href="#c"/>
     </g>
    </g>
   </g>
   <g id="al">
    <g id="am">
     <g id="an">
      <path d="m40.75 244.8h812.45" clip-path="url(#b)" fill="none" stroke="#b0b0b0" stroke-linecap="square" stroke-opacity=".3" stroke-width=".8"/>
     </g>
     <g id="ao">
      <defs>
       <path id="d" d="m0 0h-3.5" stroke="#000" stroke-width=".8"/>
      </defs>
      <use x="40.75" y="244.803579" stroke="#000000" stroke-width=".8" xlink:href="#d"/>
     </g>
     <g id="ap">
      <text transform="rotate(-0 33.75 248.79)" x="33.75" y="248.788736" font-family="'Noto Sans JP'" font-size="10px" text-anchor="end">25</text>
     </g>
    </g>
    <g id="aq">
     <g id="ar">
      <path d="m40.75 218.24h812.45" clip-path="url(#b)" fill="none" stroke="#b0b0b0" stroke-linecap="square" stroke-opacity=".3" stroke-width=".8"/>
     </g>
     <g id="as">
      <use x="40.75" y="218.240491" stroke="#000000" stroke-width=".8" xlink:href="#d"/>
     </g>
     <g id="at">
      <text transform="rotate(-0 33.75 222.23)" x="33.75" y="222.225647" font-family="'Noto Sans JP'" font-size="10px" text-anchor="end">50</text>
     </g>
    </g>
    <g id="au">
     <g id="av">
      <path d="m40.75 191.68h812.45" clip-path="url(#b)" fill="none" stroke="#b0b0b0" stroke-linecap="square" stroke-opacity=".3" stroke-width=".8"/>
     </g>
     <g id="aw">
      <use x="40.75" y="191.677402" stroke="#000000" stroke-width=".8" xlink:href="#d"/>
     </g>
     <g id="ax">
      <text transform="rotate(-0 33.75 195.66)" x="33.75" y="195.662558" font-family="'Noto Sans JP'" font-size="10px" text-anchor="end">75</text>
     </g>
    </g>
    <g id="ay">
     <g id="az">
      <path d="m40.75 165.11h812.45" clip-path="url(#b)" fill="none" stroke="#b0b0b0" stroke-linecap="square" stroke-opacity=".3" stroke-width=".8"/>
     </g>
     <g id="ba">
      <use x="40.75" y="165.114313" stroke="#000000" stroke-width=".8" xlink:href="#d"/>
     </g>
     <g id="bb">
      <text transform="rotate(-0 33.75 169.1)" x="33.75" y="169.09947" font-family="'Noto Sans JP'" font-size="10px" text-anchor="end">100</text>
     </g>
    </g>
    <g id="bc">
     <g id="bd">
      <path d="m40.75 138.55h812.45" clip-path="url(#b)" fill="none" stroke="#b0b0b0" stroke-linecap="square" stroke-opacity=".3" stroke-width=".8"/>
     </g>
     <g id="be">
      <use x="40.75" y="138.551225" stroke="#000000" stroke-width=".8" xlink:href="#d"/>
     </g>
     <g id="bf">
      <text transform="rotate(-0 33.75 142.54)" x="33.75" y="142.536381" font-family="'Noto Sans JP'" font-size="10px" text-anchor="end">125</text>
     </g>
    </g>
    <g id="bg">
     <g id="bh">
      <path d="m40.75 111.99h812.45" clip-path="url(#b)" fill="none" stroke="#b0b0b0" stroke-linecap="square" stroke-opacity=".3" stroke-width=".8"/>
     </g>
     <g id="bi">
      <use x="40.75" y="111.988136" stroke="#000000" stroke-width=".8" xlink:href="#d"/>
     </g>
     <g id="bj">
      <text transform="rotate(-0 33.75 115.97)" x="33.75" y="115.973292" font-family="'Noto Sans JP'" font-size="10px" text-anchor="end">150</text>
     </g>
    </g>
    <g id="bk">
     <g id="bl">
      <path d="m40.75 85.425h812.45" clip-path="url(#b)" fill="none" stroke="#b0b0b0" stroke-linecap="square" stroke-opacity=".3" stroke-width=".8"/>
     </g>
     <g id="bm">
      <use x="40.75" y="85.425047" stroke="#000000" stroke-width=".8" xlink:href="#d"/>
     </g>
     <g id="bn">
      <text transform="rotate(-0 33.75 89.41)" x="33.75" y="89.410204" font-family="'Noto Sans JP'" font-size="10px" text-anchor="end">175</text>
     </g>
    </g>
    <g id="bo">
     <g id="bp">
      <path d="m40.75 58.862h812.45" clip-path="url(#b)" fill="none" stroke="#b0b0b0" stroke-linecap="square" stroke-opacity=".3" stroke-width=".8"/>
     </g>
     <g id="bq">
      <use x="40.75" y="58.861959" stroke="#000000" stroke-width=".8" xlink:href="#d"/>
     </g>
     <g id="br">
      <text transform="rotate(-0 33.75 62.847)" x="33.75" y="62.847115" font-family="'Noto Sans JP'" font-size="10px" text-anchor="end">200</text>
     </g>
    </g>
    <g id="bs">
     <g id="bt">
      <path d="m40.75 32.299h812.45" clip-path="url(#b)" fill="none" stroke="#b0b0b0" stroke-linecap="square" stroke-opacity=".3" stroke-width=".8"/>
     </g>
     <g id="bu">
      <use x="40.75" y="32.29887" stroke="#000000" stroke-width=".8" xlink:href="#d"/>
     </g>
     <g id="bv">
      <text transform="rotate(-0 33.75 36.284)" x="33.75" y="36.284026" font-family="'Noto Sans JP'" font-size="10px" text-anchor="end">225</text>
     </g>
    </g>
   </g>
   <g id="bw">
    <path d="m77.68 211.87.36963 1.0625.3264-1.0625 1.3488-1.0625.68738-2.125 1.8352-4.2501 1.9411-2.125 1.9519-8.5002 1.9411-2.125 2.0168-4.2501 1.9368-2.125 1.9497-4.2501 1.833 1.0625 1.9454-7.4377 1.9454-12.75 3.8908-8.5002 1.9454-6.3751 3.8908-10.625 1.9454 2.125 1.9454-2.125 1.9454-7.4377 1.9454 11.688 1.9454 2.125 1.9454-10.625 1.9454 5.3126 1.9454-8.5002 1.9454-11.688 1.9454-3.1876 1.9454-12.75 1.9454-14.875 1.9454-1.0625 1.9454-11.688h1.9454m3.8908-6.3751 1.9454-19.125 1.9454-1.0625 1.9454 3.1876 1.9454 1.0625 1.9454 6.3751 1.9454 8.5002 1.9454 4.2501 1.9454 13.813 1.9454 20.188 1.9454 10.625 1.9454 4.2501 1.9454 23.376 1.9454 7.4377 3.8908 10.625 3.8908 19.125 1.9454 4.2501 3.8908 12.75 1.9454 4.2501 1.9454 6.3751 1.9454-1.0625 1.9454 2.125 1.9454 5.3126 1.9454 4.2501 1.9454 1.0625 1.9454-1.0625 1.9454 1.0625 1.9454 4.2501 1.9454 3.1876 1.9454 2.125 1.9454 1.0625 1.9454 2.125 1.9454-1.0625 1.9454-3.1876 1.9454 6.3751 1.9454 3.1876 1.9454 2.125h1.9454l1.9454-2.125h1.9454l1.9454-2.125h1.9454l1.9454-3.1876 1.9454 2.125 1.9454 3.1876 1.9454-2.125 1.9454 1.0625h1.9454l1.9454 2.125h1.9454l1.9454 1.0625h1.9454l1.9454-1.0625 1.9454-4.2501 1.9454-2.125 5.8363-12.75 1.9454 1.0625h1.9454l1.9454-5.3126 1.9454-1.0625 1.9454-4.2501 1.9454-2.125 1.9454-1.0625 3.8908-4.2501 1.9454-3.1876h1.9454l1.9454-6.3751 1.9454-8.5002 1.9454-9.5627 1.9454-4.2501 1.9454-9.5627 1.9454-6.3751 1.9454-3.1876 3.8908-19.125 1.9454-4.2501 1.9454 5.3126 1.9454-5.3126 1.9454 1.0625 1.9454-3.1876 1.9454-2.125 1.9454-4.2501 1.9454-10.625 1.9454-14.875 5.8363-31.876 1.9454-3.1876 1.9454-14.875 1.9454-6.3751 1.9454 3.1876 1.9454 5.3126 1.9454 2.125 1.9454 5.3126 1.9454 6.3751 1.9454 22.313 1.9454 4.2501 3.8908 12.75 1.9454 11.688 1.9454 8.5002 1.9454 6.3751 1.9454 9.5627 1.9454 8.5002 1.9454 6.3751 1.9454 9.5627 1.9454 13.813 1.9454 7.4377 1.9454-2.125 1.9454 9.5627 1.9454 7.4377 1.9454 4.2501 3.8908 6.3751 1.9454 2.125 1.9454 7.4377 1.9454 3.1876 1.9454-1.0625h1.9454l1.9454 3.1876 3.8908 2.125 1.9454 3.1876 1.9454 1.0625h1.9454l3.8908 6.3751 1.9454 4.2501 3.8908 4.2501 1.9454 1.0625h1.9454l1.9454 3.1876h1.9454l1.9454-1.0625h1.9454l1.9454 1.0625 1.9454-1.0625 1.9454-3.1876h1.9454l1.9454-2.125 1.9454-1.0625h1.9454l1.9454-1.0625h1.9454l1.9454-3.1876 1.9454-1.0625 1.9454-4.2501 1.9454-5.3126 1.9454-1.0625 3.8908-4.2501 1.9454-1.0625 1.9454-5.3126 1.9454-3.1876 1.9454-4.2501 1.9454-6.3751 5.8363-12.75 1.9454-3.1876 1.9454 3.1876 3.8908-10.625 1.9454-8.5002 1.9454-7.4377 1.9454-9.5627 1.9454 4.2501 1.9454-2.125 1.9454 3.1876 1.9454 1.0625 1.9454-5.3126 1.9454-4.2501 1.9454 2.125 1.9454 3.1876 1.9454 4.2501 1.9454 5.3126 1.9454-7.4377 1.9454-10.625 1.9454-4.2501h1.9454l1.9454-19.125 1.9454 1.0625 3.8908-17 1.9454 5.3126 1.9454 2.125 1.9454-3.1876 1.9454-1.0625 3.8908-10.625 1.9454 9.5627 1.9454 1.0625 1.9454 10.625 1.9454 11.688 1.9454 5.3126 1.9454 6.3751 1.9454 9.5627 1.9454 7.4377 1.9454 14.875 1.9454 6.3751 3.8908 10.625 1.9454 7.4377 1.9454-2.125 1.9454 6.3751 1.9454 7.4377h1.9454l1.9454 6.3751 1.9454 2.125 1.9454 3.1876 1.9454 4.2501 1.9454 2.125h1.9454l1.9454 2.125 1.9454-1.0625 1.9454 4.2501 1.9454 2.125 1.9454 3.1876 5.8363 3.1876 1.9454 3.1876 3.8908 2.125 1.9454 2.125 1.9454 1.0625 1.9454-1.0625 2.5939 3.1876h1.2969l1.2969-2.125 1.2969-4.2501.64847-1.0625h1.2969l.64847 1.0625.64847-1.0625.64847 1.0625h4.5393l.64847-1.0625.64847 2.125h.64847l.64847-1.0625 1.2969 2.125.64847-1.0625h.64847l.64847-2.125.64847 1.0625.64847-2.125h.64847l1.2969 2.125h2.5939l.64847 1.0625h.64847l.64847 1.0625 1.2969-2.125.64847-3.1876.64847-1.0625.64847-4.2501.64847-1.0625.64847-2.125h1.2969l.64847 3.1876 1.2969-6.3751.64847-2.125.64847 4.2501.64847-2.125h.64847l.64847-1.0625.64847-2.125 1.9454-3.1876.64847 2.125.64847-1.0625h.64847l.64847-1.0625.64847-2.125h1.2969l.64847 2.125h.64847l.64847-3.1876.64847-2.125h.64847l.64847-1.0625.64847 2.125.64847-2.125.64847 1.0625.64847-4.2501.64847-3.1876h.64847l.64847-2.125.64847-3.1876.64847-1.0625.64847-2.125.64847 2.125.64847-2.125h.64847l.64847-1.0625 1.2969-4.2501.64847-3.1876 1.2969-2.125.64847-4.2501.64847-2.125.64847-1.0625h.64847l.64847-3.1876.64847-1.0625.64847-4.2501.64847-3.1876.64847 5.3126.64847-3.1876h.64847l.64847 2.125.64847-2.125.64847-4.2501.64847 2.125.64847-1.0625.64847-4.2501.64847-5.3126h.64847l1.2969 2.125.64847-2.125h.64847l.64847 1.0625.64847 3.1876h.64847l.64847 1.0625h.64847l.64847 3.1876.64847 2.125.64847-5.3126.64847 1.0625 1.2969-6.3751 1.2969 2.125.64847-3.1876.64847-2.125.64847-6.3751.64847 2.125.64847-3.1876.64847-1.0625.64847-4.2501.64847 1.0625.64847-3.1876.64847-1.0625.64847-4.2501.64847-1.0625.64847-2.125.64847-1.0625.64847-2.125 2.5939-4.2501.64847-2.125.64847-8.5002.64847-3.1876.64847-5.3126.64847 5.3126.64847-5.3126.64847-7.4377h.64847l.64847 1.0625.64847-2.125 1.9454 3.1876.64847-1.0625.64847 3.1876.64847 1.0625.64847 3.1876.64847-6.3751.64847 2.125.64847 1.0625.64847-3.1876.64847 1.0625.64847 5.3126.64847-2.125.64847-1.0625.64847 1.0625h2.5939l.64847 1.0625.64847 2.125 1.2969 6.3751.64847 5.3126 1.2969 4.2501.64847 3.1876.64847 1.0625h.64847l.64847 1.0625.64847 5.3126.64847 3.1876.64847 1.0625h.64847l.64847 3.1876.64847 5.3126.64847 2.125.64847 4.2501.64847 3.1876.64847 1.0625.64847 6.3751h.64847l.64847 1.0625.64847 2.125.64847 6.3751.64847 4.2501.64847 1.0625h.64847l.64847 2.125.64847-1.0625.64847 1.0625.64847 2.125h.64847l1.9454 3.1876.64847 4.2501 1.2969 4.2501 1.2969 2.125h.64847l.64847 3.1876h.64847l.64847 3.1876 2.5939 4.2501h.64847l.64847 1.0625.64847 2.125 3.2424 5.3126.64847 3.1876.64847 1.0625.64847-1.0625.64847 2.125.64847-1.0625h1.2969l1.2969 4.2501h.64847l.64847 1.0625.64847 3.1876.64847 1.0625h1.2969l.64847-1.0625h.64847l1.9454 3.1876h.64847l.64847 1.0625.64847-1.0625h.64847l1.2969 2.125h.64847l.64847 1.0625.64847 3.1876 1.2969 2.125h1.2969l.64847-1.0625.64847 1.0625.64847-2.125.64847-1.0625h.64847l1.2969-2.125.64847 1.0625.64847-1.0625.64847 1.0625h.64847l.64847 3.1876h.64847l.64847 2.125.64847 1.0625h3.2424l1.2969-2.125h1.2969l.64847-2.125.64847-1.0625h1.2969l.64847 1.0625h1.2969l.64847-2.125h.64847l.64847-1.0625h1.9454l1.2969-1.0625 1.2969 1.0625.64847-3.1876.64847-1.0625 2.5939-2.125h1.2969l1.2969-2.125 1.2969-3.1876 1.2969-1.0625 1.2969-2.125 2.5939 2.125 1.2969-3.1876 1.2969-5.3126h1.2969v0" clip-path="url(#b)" fill="none" stroke="#28f" stroke-linecap="square" stroke-width="1.5"/>
   </g>
   <g id="bx">
    <path d="m40.75 262.97v-236.09" fill="none" stroke="#000" stroke-linecap="square" stroke-width=".8"/>
   </g>
   <g id="by">
    <path d="m853.2 262.97v-236.09" fill="none" stroke="#000" stroke-linecap="square" stroke-width=".8"/>
   </g>
   <g id="bz">
    <path d="m40.75 262.97h812.45" fill="none" stroke="#000" stroke-linecap="square" stroke-width=".8"/>
   </g>
   <g id="ca">
    <path d="m40.75 26.88h812.45" fill="none" stroke="#000" stroke-linecap="square" stroke-width=".8"/>
   </g>
   <g id="cb">
    <text transform="rotate(-0 446.98 20.88)" x="446.975" y="20.88" font-family="'Noto Sans JP'" font-size="12px" text-anchor="middle">同時接続数の推移</text>
   </g>
  </g>
  <g id="cc">
   <g id="cd">
    <path d="m40.75 529.45h812.45v-236.09h-812.45z" fill="#fff"/>
   </g>
   <g id="ce">
    <path d="m138.62 529.45h3.8908v-236.09h-3.8908z" clip-path="url(#a)" fill="#808080" opacity=".3" stroke="#808080"/>
   </g>
   <g id="cf">
    <g id="cg">
     <g id="ch">
      <path d="m62.745 529.45v-236.09" clip-path="url(#a)" fill="none" stroke="#b0b0b0" stroke-linecap="square" stroke-opacity=".3" stroke-width=".8"/>
     </g>
     <g id="ci">
      <use x="62.74522" y="529.445464" stroke="#000000" stroke-width=".8" xlink:href="#c"/>
     </g>
     <g id="cj">
      <text transform="translate(26.972 563.36) rotate(-30)" font-family="'Noto Sans JP'" font-size="10px">06-30 12</text>
     </g>
    </g>
    <g id="ck">
     <g id="cl">
      <path d="m156.13 529.45v-236.09" clip-path="url(#a)" fill="none" stroke="#b0b0b0" stroke-linecap="square" stroke-opacity=".3" stroke-width=".8"/>
     </g>
     <g id="cm">
      <use x="156.125284" y="529.445464" stroke="#000000" stroke-width=".8" xlink:href="#c"/>
     </g>
     <g id="cn">
      <text transform="translate(120.35 563.36) rotate(-30)" font-family="'Noto Sans JP'" font-size="10px">07-01 00</text>
     </g>
    </g>
    <g id="co">
     <g id="cp">
      <path d="m249.51 529.45v-236.09" clip-path="url(#a)" fill="none" stroke="#b0b0b0" stroke-linecap="square" stroke-opacity=".3" stroke-width=".8"/>
     </g>
     <g id="cq">
      <use x="249.505347" y="529.445464" stroke="#000000" stroke-width=".8" xlink:href="#c"/>
     </g>
     <g id="cr">
      <text transform="translate(213.73 563.36) rotate(-30)" font-family="'Noto Sans JP'" font-size="10px">07-01 12</text>
     </g>
    </g>
    <g id="cs">
     <g id="ct">
      <path d="m342.89 529.45v-236.09" clip-path="url(#a)" fill="none" stroke="#b0b0b0" stroke-linecap="square" stroke-opacity=".3" stroke-width=".8"/>
     </g>
     <g id="cu">
      <use x="342.88541" y="529.445464" stroke="#000000" stroke-width=".8" xlink:href="#c"/>
     </g>
     <g id="cv">
      <text transform="translate(307.11 563.36) rotate(-30)" font-family="'Noto Sans JP'" font-size="10px">07-02 00</text>
     </g>
    </g>
    <g id="cw">
     <g id="cx">
      <path d="m436.27 529.45v-236.09" clip-path="url(#a)" fill="none" stroke="#b0b0b0" stroke-linecap="square" stroke-opacity=".3" stroke-width=".8"/>
     </g>
     <g id="cy">
      <use x="436.265474" y="529.445464" stroke="#000000" stroke-width=".8" xlink:href="#c"/>
     </g>
     <g id="cz">
      <text transform="translate(400.49 563.36) rotate(-30)" font-family="'Noto Sans JP'" font-size="10px">07-02 12</text>
     </g>
    </g>
    <g id="da">
     <g id="db">
      <path d="m529.65 529.45v-236.09" clip-path="url(#a)" fill="none" stroke="#b0b0b0" stroke-linecap="square" stroke-opacity=".3" stroke-width=".8"/>
     </g>
     <g id="dc">
      <use x="529.645537" y="529.445464" stroke="#000000" stroke-width=".8" xlink:href="#c"/>
     </g>
     <g id="dd">
      <text transform="translate(493.87 563.36) rotate(-30)" font-family="'Noto Sans JP'" font-size="10px">07-03 00</text>
     </g>
    </g>
    <g id="de">
     <g id="df">
      <path d="m623.03 529.45v-236.09" clip-path="url(#a)" fill="none" stroke="#b0b0b0" stroke-linecap="square" stroke-opacity=".3" stroke-width=".8"/>
     </g>
     <g id="dg">
      <use x="623.025601" y="529.445464" stroke="#000000" stroke-width=".8" xlink:href="#c"/>
     </g>
     <g id="dh">
      <text transform="translate(587.25 563.36) rotate(-30)" font-family="'Noto Sans JP'" font-size="10px">07-03 12</text>
     </g>
    </g>
    <g id="di">
     <g id="dj">
      <path d="m716.41 529.45v-236.09" clip-path="url(#a)" fill="none" stroke="#b0b0b0" stroke-linecap="square" stroke-opacity=".3" stroke-width=".8"/>
     </g>
     <g id="dk">
      <use x="716.405664" y="529.445464" stroke="#000000" stroke-width=".8" xlink:href="#c"/>
     </g>
     <g id="dl">
      <text transform="translate(680.63 563.36) rotate(-30)" font-family="'Noto Sans JP'" font-size="10px">07-04 00</text>
     </g>
    </g>
    <g id="dm">
     <g id="dn">
      <path d="m809.79 529.45v-236.09" clip-path="url(#a)" fill="none" stroke="#b0b0b0" stroke-linecap="square" stroke-opacity=".3" stroke-width=".8"/>
     </g>
     <g id="do">
      <use x="809.785728" y="529.445464" stroke="#000000" stroke-width=".8" xlink:href="#c"/>
     </g>
     <g id="dp">
      <text transform="translate(774.01 563.36) rotate(-30)" font-family="'Noto Sans JP'" font-size="10px">07-04 12</text>
     </g>
    </g>
   </g>
   <g id="dq">
    <g id="dr">
     <g id="ds">
      <path d="m40.75 512.58h812.45" clip-path="url(#a)" fill="none" stroke="#b0b0b0" stroke-linecap="square" stroke-opacity=".3" stroke-width=".8"/>
     </g>
     <g id="dt">
      <use x="40.75" y="512.581697" stroke="#000000" stroke-width=".8" xlink:href="#d"/>
     </g>
     <g id="du">
      <text transform="rotate(-0 33.75 516.57)" x="33.75" y="516.566854" font-family="'Noto Sans JP'" font-size="10px" text-anchor="end">8680</text>
     </g>
    </g>
    <g id="dv">
     <g id="dw">
      <path d="m40.75 488.05h812.45" clip-path="url(#a)" fill="none" stroke="#b0b0b0" stroke-linecap="square" stroke-opacity=".3" stroke-width=".8"/>
     </g>
     <g id="dx">
      <use x="40.75" y="488.052582" stroke="#000000" stroke-width=".8" xlink:href="#d"/>
     </g>
     <g id="dy">
      <text transform="rotate(-0 33.75 492.04)" x="33.75" y="492.037739" font-family="'Noto Sans JP'" font-size="10px" text-anchor="end">8688</text>
     </g>
    </g>
    <g id="dz">
     <g id="ea">
      <path d="m40.75 463.52h812.45" clip-path="url(#a)" fill="none" stroke="#b0b0b0" stroke-linecap="square" stroke-opacity=".3" stroke-width=".8"/>
     </g>
     <g id="eb">
      <use x="40.75" y="463.523467" stroke="#000000" stroke-width=".8" xlink:href="#d"/>
     </g>
     <g id="ec">
      <text transform="rotate(-0 33.75 467.51)" x="33.75" y="467.508624" font-family="'Noto Sans JP'" font-size="10px" text-anchor="end">8696</text>
     </g>
    </g>
    <g id="ed">
     <g id="ee">
      <path d="m40.75 438.99h812.45" clip-path="url(#a)" fill="none" stroke="#b0b0b0" stroke-linecap="square" stroke-opacity=".3" stroke-width=".8"/>
     </g>
     <g id="ef">
      <use x="40.75" y="438.994352" stroke="#000000" stroke-width=".8" xlink:href="#d"/>
     </g>
     <g id="eg">
      <text transform="rotate(-0 33.75 442.98)" x="33.75" y="442.979509" font-family="'Noto Sans JP'" font-size="10px" text-anchor="end">8704</text>
     </g>
    </g>
    <g id="eh">
     <g id="ei">
      <path d="m40.75 414.47h812.45" clip-path="url(#a)" fill="none" stroke="#b0b0b0" stroke-linecap="square" stroke-opacity=".3" stroke-width=".8"/>
     </g>
     <g id="ej">
      <use x="40.75" y="414.465237" stroke="#000000" stroke-width=".8" xlink:href="#d"/>
     </g>
     <g id="ek">
      <text transform="rotate(-0 33.75 418.45)" x="33.75" y="418.450394" font-family="'Noto Sans JP'" font-size="10px" text-anchor="end">8712</text>
     </g>
    </g>
    <g id="el">
     <g id="em">
      <path d="m40.75 389.94h812.45" clip-path="url(#a)" fill="none" stroke="#b0b0b0" stroke-linecap="square" stroke-opacity=".3" stroke-width=".8"/>
     </g>
     <g id="en">
      <use x="40.75" y="389.936122" stroke="#000000" stroke-width=".8" xlink:href="#d"/>
     </g>
     <g id="eo">
      <text transform="rotate(-0 33.75 393.92)" x="33.75" y="393.921279" font-family="'Noto Sans JP'" font-size="10px" text-anchor="end">8720</text>
     </g>
    </g>
    <g id="ep">
     <g id="eq">
      <path d="m40.75 365.41h812.45" clip-path="url(#a)" fill="none" stroke="#b0b0b0" stroke-linecap="square" stroke-opacity=".3" stroke-width=".8"/>
     </g>
     <g id="er">
      <use x="40.75" y="365.407007" stroke="#000000" stroke-width=".8" xlink:href="#d"/>
     </g>
     <g id="es">
      <text transform="rotate(-0 33.75 369.39)" x="33.75" y="369.392164" font-family="'Noto Sans JP'" font-size="10px" text-anchor="end">8728</text>
     </g>
    </g>
    <g id="et">
     <g id="eu">
      <path d="m40.75 340.88h812.45" clip-path="url(#a)" fill="none" stroke="#b0b0b0" stroke-linecap="square" stroke-opacity=".3" stroke-width=".8"/>
     </g>
     <g id="ev">
      <use x="40.75" y="340.877892" stroke="#000000" stroke-width=".8" xlink:href="#d"/>
     </g>
     <g id="ew">
      <text transform="rotate(-0 33.75 344.86)" x="33.75" y="344.863049" font-family="'Noto Sans JP'" font-size="10px" text-anchor="end">8736</text>
     </g>
    </g>
    <g id="ex">
     <g id="ey">
      <path d="m40.75 316.35h812.45" clip-path="url(#a)" fill="none" stroke="#b0b0b0" stroke-linecap="square" stroke-opacity=".3" stroke-width=".8"/>
     </g>
     <g id="ez">
      <use x="40.75" y="316.348777" stroke="#000000" stroke-width=".8" xlink:href="#d"/>
     </g>
     <g id="fa">
      <text transform="rotate(-0 33.75 320.33)" x="33.75" y="320.333934" font-family="'Noto Sans JP'" font-size="10px" text-anchor="end">8744</text>
     </g>
    </g>
   </g>
   <g id="fb">
    <path d="m77.68 518.71h16.305l1.833-3.0661 1.9454-6.1323 1.9454 3.0661 1.9454-3.0661h3.8908l1.9454-3.0661 1.9454-6.1323 3.8908 6.1323 1.9454-3.0661h1.9454l3.8908 6.1323h1.9454l1.9454-3.0661 1.9454-9.1984h1.9454l1.9454-12.265 1.9454-3.0661h3.8908l1.9454-3.0661m3.8908-3.0661h1.9454l1.9454-3.0661 1.9454-9.1984h1.9454l1.9454-6.1323h1.9454l1.9454 3.0661 1.9454-6.1323h1.9454l1.9454-3.0661h7.7817l1.9454-3.0661h1.9454l1.9454 9.1984 1.9454-3.0661h7.7817l1.9454-6.1323h17.509l1.9454 6.1323h15.563l1.9454 3.0661h5.8363l1.9454 3.0661h13.618l1.9454 3.0661h7.7817l1.9454-3.0661h19.454l1.9454-3.0661 1.9454 3.0661h9.7271l1.9454-3.0661h1.9454l1.9454-6.1323h1.9454l1.9454 3.0661h3.8908l1.9454-3.0661h3.8908l1.9454-3.0661h1.9454l1.9454-3.0661h1.9454l1.9454-3.0661 1.9454 6.1323 1.9454-6.1323 1.9454-3.0661h3.8908l1.9454 3.0661h3.8908l1.9454-3.0661h1.9454l1.9454-3.0661h3.8908l1.9454-3.0661h1.9454l1.9454-3.0661 1.9454-6.1323 1.9454-3.0661h7.7817l1.9454 3.0661h5.8363l1.9454-3.0661h3.8908l1.9454-3.0661h40.854l1.9454-3.0661h9.7271l1.9454-3.0661h1.9454l1.9454-3.0661 1.9454 3.0661h15.563l1.9454-3.0661h1.9454l1.9454 3.0661h5.8363l3.8908-6.1323h7.7817l1.9454-3.0661 1.9454-6.1323 3.8908-6.1323h1.9454l1.9454 3.0661h3.8908l1.9454 3.0661h3.8908l13.618-21.463h1.9454l1.9454-6.1323h1.9454l5.8363-9.1984h3.8908l1.9454 3.0661h17.509l1.9454-3.0661h9.7271l1.9454-3.0661h17.509l1.9454-3.0661h29.181l.64847-3.0661h11.024l.64847 3.0661h3.8908l.64847-3.0661h1.9454l.64847-3.0661h1.2969l.64847 3.0661h14.266l.64847 3.0661h11.673l.64847-3.0661h6.4847l.64847-6.1323h11.673l.64847-3.0661h.64847l.64847-3.0661.64847 3.0661h3.8908l.64847-3.0661h5.1878l.64847 6.1323h1.9454l.64847 3.0661h3.2424l.64847-3.0661h3.8908l.64847-3.0661h2.5939l.64847-3.0661h1.9454l.64847-3.0661h2.5939l.64847 3.0661.64847-3.0661h9.7271l.64847-3.0661h2.5939l.64847-6.1323h.64847l.64847-3.0661h4.5393l1.2969-6.1323h1.2969l.64847-3.0661h1.9454l.64847-3.0661h37.611l.64847-3.0661h3.2424l.64847-3.0661h26.587l1.2969 3.0661h1.2969l1.2969-3.0661h7.7817v0" clip-path="url(#a)" fill="none" stroke="#28f" stroke-linecap="square" stroke-width="1.5"/>
   </g>
   <g id="fc">
    <path d="m40.75 529.45v-236.09" fill="none" stroke="#000" stroke-linecap="square" stroke-width=".8"/>
   </g>
   <g id="fd">
    <path d="m853.2 529.45v-236.09" fill="none" stroke="#000" stroke-linecap="square" stroke-width=".8"/>
   </g>
   <g id="fe">
    <path d="m40.75 529.45h812.45" fill="none" stroke="#000" stroke-linecap="square" stroke-width=".8"/>
   </g>
   <g id="ff">
    <path d="m40.75 293.35h812.45" fill="none" stroke="#000" stroke-linecap="square" stroke-width=".8"/>
   </g>
   <g id="fg">
    <text transform="rotate(-0 446.98 287.35)" x="446.975" y="287.352732" font-family="'Noto Sans JP'" font-size="12px" text-anchor="middle">サーバー数の推移</text>
   </g>
  </g>
 </g>
 <defs>
  <clipPath id="b">
   <rect x="40.75" y="26.88" width="812.45" height="236.09"/>
  </clipPath>
  <clipPath id="a">
   <rect x="40.75" y="293.35" width="812.45" height="236.09"/>
  </clipPath>
 </defs>
</svg>
