<?xml version="1.0" encoding="UTF-8"?>
<!DOCTYPE svg  PUBLIC '-//W3C//DTD SVG 1.1//EN'  'http://www.w3.org/Graphics/SVG/1.1/DTD/svg11.dtd'>
<svg width="864pt" height="576pt" version="1.1" viewBox="0 0 864 576" xmlns="http://www.w3.org/2000/svg" xmlns:xlink="http://www.w3.org/1999/xlink">
 <defs>
  <style type="text/css">*{stroke-linejoin: round; stroke-linecap: butt}</style>
 </defs>
 <g id="e">
  <g id="f">
   <path d="m0 576h864v-576h-864z" fill="#fff"/>
  </g>
  <g id="g">
   <g id="h">
    <path d="m40.75 261.66h812.45v-234.78h-812.45z" fill="#fff"/>
   </g>
   <g id="i">
    <path d="m416.16 261.66h3.9746v-234.78h-3.9746z" clip-path="url(#b)" fill="#808080" opacity=".3" stroke="#808080"/>
   </g>
   <g id="j">
    <path d="m609.59 261.66h1.3249v-234.78h-1.3249z" clip-path="url(#b)" fill="#808080" opacity=".3" stroke="#808080"/>
   </g>
   <g id="k">
    <g id="l">
     <g id="m">
      <path d="m62.424 261.66v-234.78" clip-path="url(#b)" fill="none" stroke="#b0b0b0" stroke-linecap="square" stroke-opacity=".3" stroke-width=".8"/>
     </g>
     <g id="n">
      <defs>
       <path id="d" d="m0 0v3.5" stroke="#000" stroke-width=".8"/>
      </defs>
      <use x="62.423755" y="261.662732" stroke="#000000" stroke-width=".8" xlink:href="#d"/>
     </g>
    </g>
    <g id="o">
     <g id="p">
      <path d="m157.81 261.66v-234.78" clip-path="url(#b)" fill="none" stroke="#b0b0b0" stroke-linecap="square" stroke-opacity=".3" stroke-width=".8"/>
     </g>
     <g id="q">
      <use x="157.813847" y="261.662732" stroke="#000000" stroke-width=".8" xlink:href="#d"/>
     </g>
    </g>
    <g id="r">
     <g id="s">
      <path d="m253.2 261.66v-234.78" clip-path="url(#b)" fill="none" stroke="#b0b0b0" stroke-linecap="square" stroke-opacity=".3" stroke-width=".8"/>
     </g>
     <g id="t">
      <use x="253.203939" y="261.662732" stroke="#000000" stroke-width=".8" xlink:href="#d"/>
     </g>
    </g>
    <g id="u">
     <g id="v">
      <path d="m348.59 261.66v-234.78" clip-path="url(#b)" fill="none" stroke="#b0b0b0" stroke-linecap="square" stroke-opacity=".3" stroke-width=".8"/>
     </g>
     <g id="w">
      <use x="348.594031" y="261.662732" stroke="#000000" stroke-width=".8" xlink:href="#d"/>
     </g>
    </g>
    <g id="x">
     <g id="y">
      <path d="m443.98 261.66v-234.78" clip-path="url(#b)" fill="none" stroke="#b0b0b0" stroke-linecap="square" stroke-opacity=".3" stroke-width=".8"/>
     </g>
     <g id="z">
      <use x="443.984123" y="261.662732" stroke="#000000" stroke-width=".8" xlink:href="#d"/>
     </g>
    </g>
    <g id="aa">
     <g id="ab">
      <path d="m539.37 261.66v-234.78" clip-path="url(#b)" fill="none" stroke="#b0b0b0" stroke-linecap="square" stroke-opacity=".3" stroke-width=".8"/>
     </g>
     <g id="ac">
      <use x="539.374215" y="261.662732" stroke="#000000" stroke-width=".8" xlink:href="#d"/>
     </g>
    </g>
    <g id="ad">
     <g id="ae">
      <path d="m634.76 261.66v-234.78" clip-path="url(#b)" fill="none" stroke="#b0b0b0" stroke-linecap="square" stroke-opacity=".3" stroke-width=".8"/>
     </g>
     <g id="af">
      <use x="634.764307" y="261.662732" stroke="#000000" stroke-width=".8" xlink:href="#d"/>
     </g>
    </g>
    <g id="ag">
     <g id="ah">
      <path d="m730.15 261.66v-234.78" clip-path="url(#b)" fill="none" stroke="#b0b0b0" stroke-linecap="square" stroke-opacity=".3" stroke-width=".8"/>
     </g>
     <g id="ai">
      <use x="730.154399" y="261.662732" stroke="#000000" stroke-width=".8" xlink:href="#d"/>
     </g>
    </g>
    <g id="aj">
     <g id="ak">
      <path d="m825.54 261.66v-234.78" clip-path="url(#b)" fill="none" stroke="#b0b0b0" stroke-linecap="square" stroke-opacity=".3" stroke-width=".8"/>
     </g>
     <g id="al">
      <use x="825.544491" y="261.662732" stroke="#000000" stroke-width=".8" xlink:href="#d"/>
     </g>
    </g>
   </g>
   <g id="am">
    <g id="an">
     <g id="ao">
      <path d="m40.75 261.66h812.45" clip-path="url(#b)" fill="none" stroke="#b0b0b0" stroke-linecap="square" stroke-opacity=".3" stroke-width=".8"/>
     </g>
     <g id="ap">
      <defs>
       <path id="c" d="m0 0h-3.5" stroke="#000" stroke-width=".8"/>
      </defs>
      <use x="40.75" y="261.662732" stroke="#000000" stroke-width=".8" xlink:href="#c"/>
     </g>
     <g id="aq">
      <text transform="rotate(-0 33.75 265.65)" x="33.75" y="265.647888" font-family="'Noto Sans JP'" font-size="10px" text-anchor="end">0</text>
     </g>
    </g>
    <g id="ar">
     <g id="as">
      <path d="m40.75 234.98h812.45" clip-path="url(#b)" fill="none" stroke="#b0b0b0" stroke-linecap="square" stroke-opacity=".3" stroke-width=".8"/>
     </g>
     <g id="at">
      <use x="40.75" y="234.982876" stroke="#000000" stroke-width=".8" xlink:href="#c"/>
     </g>
     <g id="au">
      <text transform="rotate(-0 33.75 238.97)" x="33.75" y="238.968032" font-family="'Noto Sans JP'" font-size="10px" text-anchor="end">15</text>
     </g>
    </g>
    <g id="av">
     <g id="aw">
      <path d="m40.75 208.3h812.45" clip-path="url(#b)" fill="none" stroke="#b0b0b0" stroke-linecap="square" stroke-opacity=".3" stroke-width=".8"/>
     </g>
     <g id="ax">
      <use x="40.75" y="208.30302" stroke="#000000" stroke-width=".8" xlink:href="#c"/>
     </g>
     <g id="ay">
      <text transform="rotate(-0 33.75 212.29)" x="33.75" y="212.288176" font-family="'Noto Sans JP'" font-size="10px" text-anchor="end">30</text>
     </g>
    </g>
    <g id="az">
     <g id="ba">
      <path d="m40.75 181.62h812.45" clip-path="url(#b)" fill="none" stroke="#b0b0b0" stroke-linecap="square" stroke-opacity=".3" stroke-width=".8"/>
     </g>
     <g id="bb">
      <use x="40.75" y="181.623164" stroke="#000000" stroke-width=".8" xlink:href="#c"/>
     </g>
     <g id="bc">
      <text transform="rotate(-0 33.75 185.61)" x="33.75" y="185.60832" font-family="'Noto Sans JP'" font-size="10px" text-anchor="end">45</text>
     </g>
    </g>
    <g id="bd">
     <g id="be">
      <path d="m40.75 154.94h812.45" clip-path="url(#b)" fill="none" stroke="#b0b0b0" stroke-linecap="square" stroke-opacity=".3" stroke-width=".8"/>
     </g>
     <g id="bf">
      <use x="40.75" y="154.943308" stroke="#000000" stroke-width=".8" xlink:href="#c"/>
     </g>
     <g id="bg">
      <text transform="rotate(-0 33.75 158.93)" x="33.75" y="158.928465" font-family="'Noto Sans JP'" font-size="10px" text-anchor="end">60</text>
     </g>
    </g>
    <g id="bh">
     <g id="bi">
      <path d="m40.75 128.26h812.45" clip-path="url(#b)" fill="none" stroke="#b0b0b0" stroke-linecap="square" stroke-opacity=".3" stroke-width=".8"/>
     </g>
     <g id="bj">
      <use x="40.75" y="128.263452" stroke="#000000" stroke-width=".8" xlink:href="#c"/>
     </g>
     <g id="bk">
      <text transform="rotate(-0 33.75 132.25)" x="33.75" y="132.248609" font-family="'Noto Sans JP'" font-size="10px" text-anchor="end">75</text>
     </g>
    </g>
    <g id="bl">
     <g id="bm">
      <path d="m40.75 101.58h812.45" clip-path="url(#b)" fill="none" stroke="#b0b0b0" stroke-linecap="square" stroke-opacity=".3" stroke-width=".8"/>
     </g>
     <g id="bn">
      <use x="40.75" y="101.583597" stroke="#000000" stroke-width=".8" xlink:href="#c"/>
     </g>
     <g id="bo">
      <text transform="rotate(-0 33.75 105.57)" x="33.75" y="105.568753" font-family="'Noto Sans JP'" font-size="10px" text-anchor="end">90</text>
     </g>
    </g>
    <g id="bp">
     <g id="bq">
      <path d="m40.75 74.904h812.45" clip-path="url(#b)" fill="none" stroke="#b0b0b0" stroke-linecap="square" stroke-opacity=".3" stroke-width=".8"/>
     </g>
     <g id="br">
      <use x="40.75" y="74.903741" stroke="#000000" stroke-width=".8" xlink:href="#c"/>
     </g>
     <g id="bs">
      <text transform="rotate(-0 33.75 78.889)" x="33.75" y="78.888897" font-family="'Noto Sans JP'" font-size="10px" text-anchor="end">105</text>
     </g>
    </g>
    <g id="bt">
     <g id="bu">
      <path d="m40.75 48.224h812.45" clip-path="url(#b)" fill="none" stroke="#b0b0b0" stroke-linecap="square" stroke-opacity=".3" stroke-width=".8"/>
     </g>
     <g id="bv">
      <use x="40.75" y="48.223885" stroke="#000000" stroke-width=".8" xlink:href="#c"/>
     </g>
     <g id="bw">
      <text transform="rotate(-0 33.75 52.209)" x="33.75" y="52.209041" font-family="'Noto Sans JP'" font-size="10px" text-anchor="end">120</text>
     </g>
    </g>
   </g>
   <g id="bx">
    <path d="m77.68 204.75h0.37759l0.33342-14.229h5.9376l1.9939-7.1146h6.0215l1.9917-8.8933h5.8471l1.9873-5.336h5.9619l1.9873-10.672h5.9619l1.9873-5.336h5.9619l1.9873-19.565h5.9619l1.9873-23.123h5.9619l1.9873-53.36h5.9619l1.9873-19.565h5.9619l1.9873 7.1146h5.9619l1.9873 44.466h5.9619l1.9873 40.909h5.9619l1.9873 33.794h5.9619l1.9873 12.451h5.9619l1.9873 17.787h5.9619l1.9873 17.787h5.9619l1.9873 5.336h5.9619l1.9873 7.1146h5.9619l1.9873-7.1146h5.9619l1.9873-8.8933h21.86l1.9873 1.7787h5.9619l1.9873-7.1146h5.9619l1.9873-8.8933h5.9619l1.9873-5.336h5.9619l1.9873-3.5573h5.9619l1.9873 1.7787h5.9619l1.9873-5.336h5.9619l1.9873-28.459h5.9619l1.9873-51.581h5.9619l1.9873-37.352h5.9619l1.9873-10.672h5.9619l1.9873-3.5573h5.9619l1.9873 33.794h5.9619l1.9873 42.688h5.9619l1.9873 37.352h5.9619l1.9873 28.459h5.9619l1.9873 14.229h5.9619l1.9873 3.5573h13.911l1.9873 3.5573h3.9746m3.9746 37.352h5.9619l1.9873-14.229h5.9619l1.9873-7.1146h5.9619l1.9873-7.1146h5.9619l1.9873-3.5573h5.9619l1.9873-5.336h5.9619l1.9873-7.1146h5.9619l1.9873-10.672h5.9619l1.9873-3.5573h5.9619l1.9873-8.8933h5.9619l1.9873-1.7787h5.9619l1.9873-8.8933h5.9619l1.9873-46.245h5.9619l1.9873-51.581h5.9619l1.9873-14.229h5.9619l1.9873 3.5573h5.9619l1.9873 26.68h5.9619l1.9873 35.573h5.9619l1.9873 24.901h5.9619l1.9873 21.344h5.9619l1.9873 10.672h5.9619l1.9873 12.451h5.9619l1.9873 16.008h5.9619l1.9873 8.8933h6.6243m1.3249 30.237h7.2867l0.66243-7.1146h7.2867l0.66243-14.229h7.2867l0.66243-5.336h7.2867l0.66243-5.336h7.2867l0.66243-5.336h7.2867l0.66243-1.7787h7.2867l0.66243-3.5573h7.2867l0.66243-12.451h7.2867l0.66243 3.5573h7.2867l0.66243 1.7787h7.2867l0.66243-23.123h7.2867l0.66243-55.138h7.2867l0.66243-23.123h7.2867l0.66243-24.901h7.2867l0.66243 3.5573h7.2867l0.66243 21.344h7.2867l0.66243 58.696h7.2867l0.66243 17.787h7.2867l0.66243 10.672h7.2867l0.66243 19.565h7.2867l0.66243 3.5573h7.2867l0.66243 8.8933h7.2867l0.66243 5.336h7.2867l0.66243 3.5573h14.573v0" clip-path="url(#b)" fill="none" stroke="#28f" stroke-linecap="square" stroke-width="1.5"/>
   </g>
   <g id="by">
    <path d="m40.75 261.66v-234.78" fill="none" stroke="#000" stroke-linecap="square" stroke-width=".8"/>
   </g>
   <g id="bz">
    <path d="m853.2 261.66v-234.78" fill="none" stroke="#000" stroke-linecap="square" stroke-width=".8"/>
   </g>
   <g id="ca">
    <path d="m40.75 261.66h812.45" fill="none" stroke="#000" stroke-linecap="square" stroke-width=".8"/>
   </g>
   <g id="cb">
    <path d="m40.75 26.88h812.45" fill="none" stroke="#000" stroke-linecap="square" stroke-width=".8"/>
   </g>
   <g id="cc">
    <text transform="rotate(-0 446.98 20.88)" x="446.975" y="20.88" font-family="'Noto Sans JP'" font-size="12px" text-anchor="middle">同時接続数の推移</text>
   </g>
  </g>
  <g id="cd">
   <g id="ce">
    <path d="m40.75 529.45h812.45v-234.78h-812.45z" fill="#fff"/>
   </g>
   <g id="cf">
    <path d="m416.16 529.45h3.9746v-234.78h-3.9746z" clip-path="url(#a)" fill="#808080" opacity=".3" stroke="#808080"/>
   </g>
   <g id="cg">
    <path d="m609.59 529.45h1.3249v-234.78h-1.3249z" clip-path="url(#a)" fill="#808080" opacity=".3" stroke="#808080"/>
   </g>
   <g id="ch">
    <g id="ci">
     <g id="cj">
      <path d="m62.424 529.45v-234.78" clip-path="url(#a)" fill="none" stroke="#b0b0b0" stroke-linecap="square" stroke-opacity=".3" stroke-width=".8"/>
     </g>
     <g id="ck">
      <use x="62.423755" y="529.445464" stroke="#000000" stroke-width=".8" xlink:href="#d"/>
     </g>
     <g id="cl">
      <text transform="translate(26.65 563.36) rotate(-30)" font-family="'Noto Sans JP'" font-size="10px">06-30 12</text>
     </g>
    </g>
    <g id="cm">
     <g id="cn">
      <path d="m157.81 529.45v-234.78" clip-path="url(#a)" fill="none" stroke="#b0b0b0" stroke-linecap="square" stroke-opacity=".3" stroke-width=".8"/>
     </g>
     <g id="co">
      <use x="157.813847" y="529.445464" stroke="#000000" stroke-width=".8" xlink:href="#d"/>
     </g>
     <g id="cp">
      <text transform="translate(122.04 563.36) rotate(-30)" font-family="'Noto Sans JP'" font-size="10px">07-01 00</text>
     </g>
    </g>
    <g id="cq">
     <g id="cr">
      <path d="m253.2 529.45v-234.78" clip-path="url(#a)" fill="none" stroke="#b0b0b0" stroke-linecap="square" stroke-opacity=".3" stroke-width=".8"/>
     </g>
     <g id="cs">
      <use x="253.203939" y="529.445464" stroke="#000000" stroke-width=".8" xlink:href="#d"/>
     </g>
     <g id="ct">
      <text transform="translate(217.43 563.36) rotate(-30)" font-family="'Noto Sans JP'" font-size="10px">07-01 12</text>
     </g>
    </g>
    <g id="cu">
     <g id="cv">
      <path d="m348.59 529.45v-234.78" clip-path="url(#a)" fill="none" stroke="#b0b0b0" stroke-linecap="square" stroke-opacity=".3" stroke-width=".8"/>
     </g>
     <g id="cw">
      <use x="348.594031" y="529.445464" stroke="#000000" stroke-width=".8" xlink:href="#d"/>
     </g>
     <g id="cx">
      <text transform="translate(312.82 563.36) rotate(-30)" font-family="'Noto Sans JP'" font-size="10px">07-02 00</text>
     </g>
    </g>
    <g id="cy">
     <g id="cz">
      <path d="m443.98 529.45v-234.78" clip-path="url(#a)" fill="none" stroke="#b0b0b0" stroke-linecap="square" stroke-opacity=".3" stroke-width=".8"/>
     </g>
     <g id="da">
      <use x="443.984123" y="529.445464" stroke="#000000" stroke-width=".8" xlink:href="#d"/>
     </g>
     <g id="db">
      <text transform="translate(408.21 563.36) rotate(-30)" font-family="'Noto Sans JP'" font-size="10px">07-02 12</text>
     </g>
    </g>
    <g id="dc">
     <g id="dd">
      <path d="m539.37 529.45v-234.78" clip-path="url(#a)" fill="none" stroke="#b0b0b0" stroke-linecap="square" stroke-opacity=".3" stroke-width=".8"/>
     </g>
     <g id="de">
      <use x="539.374215" y="529.445464" stroke="#000000" stroke-width=".8" xlink:href="#d"/>
     </g>
     <g id="df">
      <text transform="translate(503.6 563.36) rotate(-30)" font-family="'Noto Sans JP'" font-size="10px">07-03 00</text>
     </g>
    </g>
    <g id="dg">
     <g id="dh">
      <path d="m634.76 529.45v-234.78" clip-path="url(#a)" fill="none" stroke="#b0b0b0" stroke-linecap="square" stroke-opacity=".3" stroke-width=".8"/>
     </g>
     <g id="di">
      <use x="634.764307" y="529.445464" stroke="#000000" stroke-width=".8" xlink:href="#d"/>
     </g>
     <g id="dj">
      <text transform="translate(598.99 563.36) rotate(-30)" font-family="'Noto Sans JP'" font-size="10px">07-03 12</text>
     </g>
    </g>
    <g id="dk">
     <g id="dl">
      <path d="m730.15 529.45v-234.78" clip-path="url(#a)" fill="none" stroke="#b0b0b0" stroke-linecap="square" stroke-opacity=".3" stroke-width=".8"/>
     </g>
     <g id="dm">
      <use x="730.154399" y="529.445464" stroke="#000000" stroke-width=".8" xlink:href="#d"/>
     </g>
     <g id="dn">
      <text transform="translate(694.38 563.36) rotate(-30)" font-family="'Noto Sans JP'" font-size="10px">07-04 00</text>
     </g>
    </g>
    <g id="do">
     <g id="dp">
      <path d="m825.54 529.45v-234.78" clip-path="url(#a)" fill="none" stroke="#b0b0b0" stroke-linecap="square" stroke-opacity=".3" stroke-width=".8"/>
     </g>
     <g id="dq">
      <use x="825.544491" y="529.445464" stroke="#000000" stroke-width=".8" xlink:href="#d"/>
     </g>
     <g id="dr">
      <text transform="translate(789.77 563.36) rotate(-30)" font-family="'Noto Sans JP'" font-size="10px">07-04 12</text>
     </g>
    </g>
   </g>
   <g id="ds">
    <g id="dt">
     <g id="du">
      <path d="m40.75 518.77h812.45" clip-path="url(#a)" fill="none" stroke="#b0b0b0" stroke-linecap="square" stroke-opacity=".3" stroke-width=".8"/>
     </g>
     <g id="dv">
      <use x="40.75" y="518.773522" stroke="#000000" stroke-width=".8" xlink:href="#c"/>
     </g>
     <g id="dw">
      <text transform="rotate(-0 33.75 522.76)" x="33.75" y="522.758678" font-family="'Noto Sans JP'" font-size="10px" text-anchor="end">1704</text>
     </g>
    </g>
    <g id="dx">
     <g id="dy">
      <path d="m40.75 495.06h812.45" clip-path="url(#a)" fill="none" stroke="#b0b0b0" stroke-linecap="square" stroke-opacity=".3" stroke-width=".8"/>
     </g>
     <g id="dz">
      <use x="40.75" y="495.058094" stroke="#000000" stroke-width=".8" xlink:href="#c"/>
     </g>
     <g id="ea">
      <text transform="rotate(-0 33.75 499.04)" x="33.75" y="499.04325" font-family="'Noto Sans JP'" font-size="10px" text-anchor="end">1706</text>
     </g>
    </g>
    <g id="eb">
     <g id="ec">
      <path d="m40.75 471.34h812.45" clip-path="url(#a)" fill="none" stroke="#b0b0b0" stroke-linecap="square" stroke-opacity=".3" stroke-width=".8"/>
     </g>
     <g id="ed">
      <use x="40.75" y="471.342667" stroke="#000000" stroke-width=".8" xlink:href="#c"/>
     </g>
     <g id="ee">
      <text transform="rotate(-0 33.75 475.33)" x="33.75" y="475.327823" font-family="'Noto Sans JP'" font-size="10px" text-anchor="end">1708</text>
     </g>
    </g>
    <g id="ef">
     <g id="eg">
      <path d="m40.75 447.63h812.45" clip-path="url(#a)" fill="none" stroke="#b0b0b0" stroke-linecap="square" stroke-opacity=".3" stroke-width=".8"/>
     </g>
     <g id="eh">
      <use x="40.75" y="447.627239" stroke="#000000" stroke-width=".8" xlink:href="#c"/>
     </g>
     <g id="ei">
      <text transform="rotate(-0 33.75 451.61)" x="33.75" y="451.612395" font-family="'Noto Sans JP'" font-size="10px" text-anchor="end">1710</text>
     </g>
    </g>
    <g id="ej">
     <g id="ek">
      <path d="m40.75 423.91h812.45" clip-path="url(#a)" fill="none" stroke="#b0b0b0" stroke-linecap="square" stroke-opacity=".3" stroke-width=".8"/>
     </g>
     <g id="el">
      <use x="40.75" y="423.911812" stroke="#000000" stroke-width=".8" xlink:href="#c"/>
     </g>
     <g id="em">
      <text transform="rotate(-0 33.75 427.9)" x="33.75" y="427.896968" font-family="'Noto Sans JP'" font-size="10px" text-anchor="end">1712</text>
     </g>
    </g>
    <g id="en">
     <g id="eo">
      <path d="m40.75 400.2h812.45" clip-path="url(#a)" fill="none" stroke="#b0b0b0" stroke-linecap="square" stroke-opacity=".3" stroke-width=".8"/>
     </g>
     <g id="ep">
      <use x="40.75" y="400.196384" stroke="#000000" stroke-width=".8" xlink:href="#c"/>
     </g>
     <g id="eq">
      <text transform="rotate(-0 33.75 404.18)" x="33.75" y="404.18154" font-family="'Noto Sans JP'" font-size="10px" text-anchor="end">1714</text>
     </g>
    </g>
    <g id="er">
     <g id="es">
      <path d="m40.75 376.48h812.45" clip-path="url(#a)" fill="none" stroke="#b0b0b0" stroke-linecap="square" stroke-opacity=".3" stroke-width=".8"/>
     </g>
     <g id="et">
      <use x="40.75" y="376.480957" stroke="#000000" stroke-width=".8" xlink:href="#c"/>
     </g>
     <g id="eu">
      <text transform="rotate(-0 33.75 380.47)" x="33.75" y="380.466113" font-family="'Noto Sans JP'" font-size="10px" text-anchor="end">1716</text>
     </g>
    </g>
    <g id="ev">
     <g id="ew">
      <path d="m40.75 352.77h812.45" clip-path="url(#a)" fill="none" stroke="#b0b0b0" stroke-linecap="square" stroke-opacity=".3" stroke-width=".8"/>
     </g>
     <g id="ex">
      <use x="40.75" y="352.765529" stroke="#000000" stroke-width=".8" xlink:href="#c"/>
     </g>
     <g id="ey">
      <text transform="rotate(-0 33.75 356.75)" x="33.75" y="356.750686" font-family="'Noto Sans JP'" font-size="10px" text-anchor="end">1718</text>
     </g>
    </g>
    <g id="ez">
     <g id="fa">
      <path d="m40.75 329.05h812.45" clip-path="url(#a)" fill="none" stroke="#b0b0b0" stroke-linecap="square" stroke-opacity=".3" stroke-width=".8"/>
     </g>
     <g id="fb">
      <use x="40.75" y="329.050102" stroke="#000000" stroke-width=".8" xlink:href="#c"/>
     </g>
     <g id="fc">
      <text transform="rotate(-0 33.75 333.04)" x="33.75" y="333.035258" font-family="'Noto Sans JP'" font-size="10px" text-anchor="end">1720</text>
     </g>
    </g>
    <g id="fd">
     <g id="fe">
      <path d="m40.75 305.33h812.45" clip-path="url(#a)" fill="none" stroke="#b0b0b0" stroke-linecap="square" stroke-opacity=".3" stroke-width=".8"/>
     </g>
     <g id="ff">
      <use x="40.75" y="305.334674" stroke="#000000" stroke-width=".8" xlink:href="#c"/>
     </g>
     <g id="fg">
      <text transform="rotate(-0 33.75 309.32)" x="33.75" y="309.319831" font-family="'Noto Sans JP'" font-size="10px" text-anchor="end">1722</text>
     </g>
    </g>
   </g>
   <g id="fh">
    <path d="m77.68 518.77h6.6486l1.9939-23.715h37.708l1.9873-23.715h13.911l1.9873-35.573h5.9619l1.9873-11.858h5.9619l1.9873-11.858h29.809l1.9873 11.858h53.657l1.9873-11.858h5.9619l1.9873 11.858h37.759l1.9873 23.715h21.86l1.9873 11.858h5.9619l1.9873-23.715h13.911l1.9873-23.715h5.9619l1.9873-11.858h67.568m3.9746 0h13.911l1.9873 11.858h85.454l1.9873-11.858h5.9619l1.9873 11.858h5.9619l1.9873-23.715h13.911l1.9873-23.715h37.759l1.9873-11.858h14.573m1.3249-11.858h62.931l0.66243 11.858h23.185l0.66243-11.858h7.2867l0.66243-23.715h7.2867l0.66243-11.858h31.134l0.66243 11.858h70.218v0" clip-path="url(#a)" fill="none" stroke="#28f" stroke-linecap="square" stroke-width="1.5"/>
   </g>
   <g id="fi">
    <path d="m40.75 529.45v-234.78" fill="none" stroke="#000" stroke-linecap="square" stroke-width=".8"/>
   </g>
   <g id="fj">
    <path d="m853.2 529.45v-234.78" fill="none" stroke="#000" stroke-linecap="square" stroke-width=".8"/>
   </g>
   <g id="fk">
    <path d="m40.75 529.45h812.45" fill="none" stroke="#000" stroke-linecap="square" stroke-width=".8"/>
   </g>
   <g id="fl">
    <path d="m40.75 294.66h812.45" fill="none" stroke="#000" stroke-linecap="square" stroke-width=".8"/>
   </g>
   <g id="fm">
    <text transform="rotate(-0 446.98 288.66)" x="446.975" y="288.662732" font-family="'Noto Sans JP'" font-size="12px" text-anchor="middle">サーバー数の推移</text>
   </g>
  </g>
 </g>
 <defs>
  <clipPath id="b">
   <rect x="40.75" y="26.88" width="812.45" height="234.78"/>
  </clipPath>
  <clipPath id="a">
   <rect x="40.75" y="294.66" width="812.45" height="234.78"/>
  </clipPath>
 </defs>
</svg>
