<!DOCTYPE svg  PUBLIC '-//W3C//DTD SVG 1.1//EN'  'http://www.w3.org/Graphics/SVG/1.1/DTD/svg11.dtd'>
<svg version="1.1" viewBox="0 0 864 576" xmlns="http://www.w3.org/2000/svg" xmlns:xlink="http://www.w3.org/1999/xlink">
 <defs>
  <style type="text/css">*{stroke-linejoin: round; stroke-linecap: butt}</style>
 </defs>
 <g id="z">
  <g id="aa">
   <path d="m0 576h864v-576h-864z" fill="#fff"/>
  </g>
  <g id="ab">
   <g id="ac">
    <path d="m40.84 259.78h812.36v-232.9h-812.36z" fill="#fff"/>
   </g>
   <g id="ad">
    <path d="m114.4 259.78h.16464v-232.9h-.16464z" clip-path="url(#c)" fill="#ddd" stroke="#ddd"/>
   </g>
   <g id="ae">
    <path d="m148.64 259.78h.16464v-232.9h-.16464z" clip-path="url(#c)" fill="#ddd" stroke="#ddd"/>
   </g>
   <g id="af">
    <path d="m503.37 259.78h.32929v-232.9h-.32929z" clip-path="url(#c)" fill="#ddd" stroke="#ddd"/>
   </g>
   <g id="ag">
    <path d="m503.86 259.78h.16464v-232.9h-.16464z" clip-path="url(#c)" fill="#ddd" stroke="#ddd"/>
   </g>
   <g id="ah">
    <path d="m713.54 259.78h.16464v-232.9h-.16464z" clip-path="url(#c)" fill="#ddd" stroke="#ddd"/>
   </g>
   <g id="ai">
    <g id="aj">
     <g id="ak">
      <path d="m98.593 259.78v-232.9" clip-path="url(#c)" fill="none" stroke="#b0b0b0" stroke-linecap="square" stroke-opacity=".3" stroke-width=".8"/>
     </g>
     <g id="al">
      <defs>
       <path id="f" d="m0 0v3.5" stroke="#000" stroke-width=".8"/>
      </defs>
      <use x="98.592876" y="259.777732" stroke="#000000" stroke-width=".8" xlink:href="#f"/>
     </g>
    </g>
    <g id="am">
     <g id="an">
      <path d="m193.43 259.78v-232.9" clip-path="url(#c)" fill="none" stroke="#b0b0b0" stroke-linecap="square" stroke-opacity=".3" stroke-width=".8"/>
     </g>
     <g id="ao">
      <use x="193.427618" y="259.777732" stroke="#000000" stroke-width=".8" xlink:href="#f"/>
     </g>
    </g>
    <g id="ap">
     <g id="aq">
      <path d="m288.26 259.78v-232.9" clip-path="url(#c)" fill="none" stroke="#b0b0b0" stroke-linecap="square" stroke-opacity=".3" stroke-width=".8"/>
     </g>
     <g id="ar">
      <use x="288.262361" y="259.777732" stroke="#000000" stroke-width=".8" xlink:href="#f"/>
     </g>
    </g>
    <g id="as">
     <g id="at">
      <path d="m383.1 259.78v-232.9" clip-path="url(#c)" fill="none" stroke="#b0b0b0" stroke-linecap="square" stroke-opacity=".3" stroke-width=".8"/>
     </g>
     <g id="au">
      <use x="383.097103" y="259.777732" stroke="#000000" stroke-width=".8" xlink:href="#f"/>
     </g>
    </g>
    <g id="av">
     <g id="aw">
      <path d="m454.22 259.78v-232.9" clip-path="url(#c)" fill="none" stroke="#b0b0b0" stroke-linecap="square" stroke-opacity=".3" stroke-width=".8"/>
     </g>
     <g id="ax">
      <use x="454.22316" y="259.777732" stroke="#000000" stroke-width=".8" xlink:href="#f"/>
     </g>
    </g>
    <g id="ay">
     <g id="az">
      <path d="m549.06 259.78v-232.9" clip-path="url(#c)" fill="none" stroke="#b0b0b0" stroke-linecap="square" stroke-opacity=".3" stroke-width=".8"/>
     </g>
     <g id="ba">
      <use x="549.057902" y="259.777732" stroke="#000000" stroke-width=".8" xlink:href="#f"/>
     </g>
    </g>
    <g id="bb">
     <g id="bc">
      <path d="m643.89 259.78v-232.9" clip-path="url(#c)" fill="none" stroke="#b0b0b0" stroke-linecap="square" stroke-opacity=".3" stroke-width=".8"/>
     </g>
     <g id="bd">
      <use x="643.892644" y="259.777732" stroke="#000000" stroke-width=".8" xlink:href="#f"/>
     </g>
    </g>
    <g id="be">
     <g id="bf">
      <path d="m738.73 259.78v-232.9" clip-path="url(#c)" fill="none" stroke="#b0b0b0" stroke-linecap="square" stroke-opacity=".3" stroke-width=".8"/>
     </g>
     <g id="bg">
      <use x="738.727386" y="259.777732" stroke="#000000" stroke-width=".8" xlink:href="#f"/>
     </g>
    </g>
    <g id="bh">
     <g id="bi">
      <path d="m833.56 259.78v-232.9" clip-path="url(#c)" fill="none" stroke="#b0b0b0" stroke-linecap="square" stroke-opacity=".3" stroke-width=".8"/>
     </g>
     <g id="bj">
      <use x="833.562129" y="259.777732" stroke="#000000" stroke-width=".8" xlink:href="#f"/>
     </g>
    </g>
   </g>
   <g id="bk">
    <g id="bl">
     <g id="bm">
      <path d="m40.84 249.19h812.36" clip-path="url(#c)" fill="none" stroke="#b0b0b0" stroke-linecap="square" stroke-opacity=".3" stroke-width=".8"/>
     </g>
     <g id="bn">
      <defs>
       <path id="g" d="m0 0h-3.5" stroke="#000" stroke-width=".8"/>
      </defs>
      <use x="40.84" y="249.191471" stroke="#000000" stroke-width=".8" xlink:href="#g"/>
     </g>
     <g id="bo">
      <!-- 0 -->
      <g transform="translate(28.14 253.18) scale(.1 -.1)">
       <defs>
        <path id="a" transform="scale(.015625)" d="m1830-90q-460 0-806 275-346 276-535 823-188 547-188 1366 0 820 188 1357 189 538 535 803 346 266 806 266 461 0 800-269 340-269 528-803 189-534 189-1354 0-819-189-1366-188-547-528-823-339-275-800-275zm0 589q237 0 422 185 186 186 288 599 103 413 103 1091 0 679-103 1082-102 403-288 582-185 180-422 180-236 0-422-180-186-179-292-582-105-403-105-1082 0-678 105-1091 106-413 292-599 186-185 422-185z"/>
       </defs>
       <use xlink:href="#a"/>
      </g>
     </g>
    </g>
    <g id="bp">
     <g id="bq">
      <path d="m40.84 225.13h812.36" clip-path="url(#c)" fill="none" stroke="#b0b0b0" stroke-linecap="square" stroke-opacity=".3" stroke-width=".8"/>
     </g>
     <g id="br">
      <use x="40.84" y="225.131788" stroke="#000000" stroke-width=".8" xlink:href="#g"/>
     </g>
     <g id="bs">
      <!-- 25 -->
      <g transform="translate(22.44 229.12) scale(.1 -.1)">
       <defs>
        <path id="b" transform="scale(.015625)" d="m282 0v429q697 621 1164 1136 468 515 701 956 234 442 234 826 0 256-87 451-86 196-262 301-176 106-445 106-275 0-506-151-230-150-422-368l-416 410q301 333 637 518 336 186 803 186 429 0 749-176t496-493 176-745q0-455-224-919t-615-935q-390-470-889-950 186 20 394 36t374 16h1184v-634h-3046z"/>
        <path id="e" transform="scale(.015625)" d="m1715-90q-365 0-653 90t-506 237q-217 147-383 307l352 480q134-134 294-246t361-183q202-70 452-70 262 0 473 118 212 119 333 346 122 227 122 541 0 460-247 716-246 256-649 256-224 0-384-64t-365-198l-365 237 141 2240h2387v-627h-1747l-109-1204q154 77 307 118 154 42 340 42 397 0 723-160t518-490q192-329 192-847 0-519-224-887t-586-560q-361-192-777-192z"/>
       </defs>
       <use xlink:href="#b"/>
       <use transform="translate(57)" xlink:href="#e"/>
      </g>
     </g>
    </g>
    <g id="bt">
     <g id="bu">
      <path d="m40.84 201.07h812.36" clip-path="url(#c)" fill="none" stroke="#b0b0b0" stroke-linecap="square" stroke-opacity=".3" stroke-width=".8"/>
     </g>
     <g id="bv">
      <use x="40.84" y="201.072105" stroke="#000000" stroke-width=".8" xlink:href="#g"/>
     </g>
     <g id="bw">
      <!-- 50 -->
      <g transform="translate(22.44 205.06) scale(.1 -.1)">
       <use xlink:href="#e"/>
       <use transform="translate(57)" xlink:href="#a"/>
      </g>
     </g>
    </g>
    <g id="bx">
     <g id="by">
      <path d="m40.84 177.01h812.36" clip-path="url(#c)" fill="none" stroke="#b0b0b0" stroke-linecap="square" stroke-opacity=".3" stroke-width=".8"/>
     </g>
     <g id="bz">
      <use x="40.84" y="177.012422" stroke="#000000" stroke-width=".8" xlink:href="#g"/>
     </g>
     <g id="ca">
      <!-- 75 -->
      <g transform="translate(22.44 181) scale(.1 -.1)">
       <defs>
        <path id="l" transform="scale(.015625)" d="m1235 0q32 646 109 1187t224 1024 384 941 576 938h-2208v627h3027v-455q-409-512-665-989-256-476-397-969t-205-1053-90-1251h-755z"/>
       </defs>
       <use xlink:href="#l"/>
       <use transform="translate(57)" xlink:href="#e"/>
      </g>
     </g>
    </g>
    <g id="cb">
     <g id="cc">
      <path d="m40.84 152.95h812.36" clip-path="url(#c)" fill="none" stroke="#b0b0b0" stroke-linecap="square" stroke-opacity=".3" stroke-width=".8"/>
     </g>
     <g id="cd">
      <use x="40.84" y="152.952739" stroke="#000000" stroke-width=".8" xlink:href="#g"/>
     </g>
     <g id="ce">
      <!-- 100 -->
      <g transform="translate(16.74 156.94) scale(.1 -.1)">
       <defs>
        <path id="i" transform="scale(.015625)" d="m544 0v608h1037v3277h-845v467q333 58 579 147 247 90 451 218h557v-4109h915v-608h-2694z"/>
       </defs>
       <use xlink:href="#i"/>
       <use transform="translate(57)" xlink:href="#a"/>
       <use transform="translate(114)" xlink:href="#a"/>
      </g>
     </g>
    </g>
    <g id="cf">
     <g id="cg">
      <path d="m40.84 128.89h812.36" clip-path="url(#c)" fill="none" stroke="#b0b0b0" stroke-linecap="square" stroke-opacity=".3" stroke-width=".8"/>
     </g>
     <g id="ch">
      <use x="40.84" y="128.893056" stroke="#000000" stroke-width=".8" xlink:href="#g"/>
     </g>
     <g id="ci">
      <!-- 125 -->
      <g transform="translate(16.74 132.88) scale(.1 -.1)">
       <use xlink:href="#i"/>
       <use transform="translate(57)" xlink:href="#b"/>
       <use transform="translate(114)" xlink:href="#e"/>
      </g>
     </g>
    </g>
    <g id="cj">
     <g id="ck">
      <path d="m40.84 104.83h812.36" clip-path="url(#c)" fill="none" stroke="#b0b0b0" stroke-linecap="square" stroke-opacity=".3" stroke-width=".8"/>
     </g>
     <g id="cl">
      <use x="40.84" y="104.833373" stroke="#000000" stroke-width=".8" xlink:href="#g"/>
     </g>
     <g id="cm">
      <!-- 150 -->
      <g transform="translate(16.74 108.82) scale(.1 -.1)">
       <use xlink:href="#i"/>
       <use transform="translate(57)" xlink:href="#e"/>
       <use transform="translate(114)" xlink:href="#a"/>
      </g>
     </g>
    </g>
    <g id="cn">
     <g id="co">
      <path d="m40.84 80.774h812.36" clip-path="url(#c)" fill="none" stroke="#b0b0b0" stroke-linecap="square" stroke-opacity=".3" stroke-width=".8"/>
     </g>
     <g id="cp">
      <use x="40.84" y="80.77369" stroke="#000000" stroke-width=".8" xlink:href="#g"/>
     </g>
     <g id="cq">
      <!-- 175 -->
      <g transform="translate(16.74 84.759) scale(.1 -.1)">
       <use xlink:href="#i"/>
       <use transform="translate(57)" xlink:href="#l"/>
       <use transform="translate(114)" xlink:href="#e"/>
      </g>
     </g>
    </g>
    <g id="cr">
     <g id="cs">
      <path d="m40.84 56.714h812.36" clip-path="url(#c)" fill="none" stroke="#b0b0b0" stroke-linecap="square" stroke-opacity=".3" stroke-width=".8"/>
     </g>
     <g id="ct">
      <use x="40.84" y="56.714007" stroke="#000000" stroke-width=".8" xlink:href="#g"/>
     </g>
     <g id="cu">
      <!-- 200 -->
      <g transform="translate(16.74 60.699) scale(.1 -.1)">
       <use xlink:href="#b"/>
       <use transform="translate(57)" xlink:href="#a"/>
       <use transform="translate(114)" xlink:href="#a"/>
      </g>
     </g>
    </g>
    <g id="cv">
     <g id="cw">
      <path d="m40.84 32.654h812.36" clip-path="url(#c)" fill="none" stroke="#b0b0b0" stroke-linecap="square" stroke-opacity=".3" stroke-width=".8"/>
     </g>
     <g id="cx">
      <use x="40.84" y="32.654324" stroke="#000000" stroke-width=".8" xlink:href="#g"/>
     </g>
     <g id="cy">
      <!-- 225 -->
      <g transform="translate(16.74 36.639) scale(.1 -.1)">
       <use xlink:href="#b"/>
       <use transform="translate(57)" xlink:href="#b"/>
       <use transform="translate(114)" xlink:href="#e"/>
      </g>
     </g>
    </g>
   </g>
   <g id="cz">
    <path d="m77.765 139.48h.082321l.082322-.96239.65858 20.21.24696 2.8872.32929 7.6991.082321 1.9248.16464 6.7367h.082322l.24696 2.8872.24697 5.7743h.082322l.082321-.96239.49393 9.6239h.082322l.24697 4.8119h.082322l.16464.96239h.082322l.082322-.96239.57625 6.7367.082321-.96239.16464.96239h.16464l.082322 1.9248.082321-.96239.082322.96239.082322-.96239.082322.96239.16464-.96239h.082321l.16464-3.8496.32929-2.8872h.082322l.16464.96239h.24696l.24697 1.9248.16464-.96239h.082322l.24697 6.7367.082321-1.9248.16464.96239.082322-.96239.16464 1.9248h.16464l.24697-3.8495h.082322l.082321 2.8872.082322-.96239.32929-2.8872.082321.96239.24697-1.9248.16464 1.9248.082322 2.8872.16464-3.8495h.082322l.24696-4.8119.082322.96239.16464-.96239h.082322l.082321.96239.49393-5.7743.082322.96239.24697-6.7367h.082321l.65858-7.6991.082322-2.8872.082322.96239.24696-1.9248.16464-7.6991h.082322l.24696-3.8495.16464-1.9248h.082322l.082321 2.8872.082322-1.9248.082322.96239.082322-1.9248.082322.96239.24696-3.8495h.082322l.16464 2.8872.16464-4.8119.16464 1.9248.082322 2.8872.16464-3.8495.16464 3.8495.41161-5.7743.16464 1.9248h.16464l.16464 2.8872h.16464l.16464-2.8872.24697 4.8119.16464-4.8119.082321-.96239.082322 1.9248.082322-.96239.082322.96239.16464-2.8872.082321-1.9248.082322.96239.082322-.96239.24696-11.549.082322.96239.082322-.96239.082322 3.8495.16464-6.7367.082321-6.7367.082322 1.9248.24697-12.511.65857-37.533.082322.96239.24697-2.8872.082321.96239.82322-27.909.082322 1.9248.082321-5.7743.082322.96239.32929 7.6991.32929-6.7367.57625 15.398.32929 14.436.082322-1.9248.32929 8.6615.57625 23.097.24696 6.7367.41161 14.436.082322-.96239.41161 10.586.32929 12.511.32929 3.8496.24696 10.586.082322-.96239.16464 1.9248.082322 2.8872.082321-.96239h.082322l.082322 1.9248.082322-.96239.16464 1.9248.24696-3.8495.082322.96239.41161 10.586h.082322l.49393 9.6239h.16464l.16464.96239h.24697l.32929 2.8872h.082322l.082322-.96239.24696 4.8119.16464-.96239.24696 1.9248h.16464l.082322 1.9248.24696-2.8872.082322.96239.082322 2.8872.082322-.96239.41161-3.8496.24696 1.9248.16464-.96239h.41161l.082322-.96239.082322 1.9248.24696-1.9248h.32929l.16464.96239h.16464l.32929-2.8872.16464 1.9248.082321-.96239.082322.96239.082322-2.8872.082322.96239h.16464l.24696 1.9248h.082322l.082322-.96239.24696 2.8872.082322-.96239.24696 1.9248h.082322l.16464-2.8872.082322-.96239.082322.96239.16464-.96239h.16464l.16464-4.8119.16464-.96239h.082322l.32929-3.8495.16464-3.8496.16464 1.9248h.082321l.082322.96239.082322-.96239.24697-4.8119.16464-.96239h.082322l.32929-3.8495.16464 2.8872h.082322l.082322.96239m.16464 10.586.082322 1.9248.16464-2.8872h.082322l.24696-1.9248h.16464l.082322-.96239.082321-2.8872.082322.96239.16464-.96239h.16464l.16464 2.8872.24697-4.8119.16464 2.8872.082322-.96239.16464-3.8495h.082322l.082321.96239.24697-2.8872.16464 2.8872.082322 21.173.24697-14.436.16464-2.8872.082322-.96239.082322-2.8872.082322.96239.24696-3.8495.16464 2.8872.32929-5.7743.082322.96239.41161-11.549.57625-32.721 1.0702-35.608.082322.96239.16464-5.7743h.082322l.16464-2.8872.16464 4.8119.32929-7.6991.24696 2.8872.16464 6.7367.57625 6.7367.16464-.96239.16464 3.8495.16464-1.9248.49393 24.06.41161 12.511h.082321l.16464 18.285.16464 5.7743.16464.96239.16464 2.8872.41161 2.8872.16464 5.7743.49393 7.6991h.16464l.082322-1.9248.49393 9.6239h.082322l.24696-1.9248h.16464l.16464.96239.16464 3.8495h.082322l.24697 2.8872.082322-.96239.57625 5.7743h.16464l.16464.96239h.082321l.24697 1.9248h.082322l.24696 1.9248h.082322l.16464-.96239.16464.96239h.082322l.16464.96239h.082322l.082321-.96239.16464 1.9248h.082322l.16464.96239.082321 33.684.082322-2.8872.32929-4.8119.16464-5.7743.082322.96239.082322-1.9248.16464.96239.16464-1.9248.082322-.96239.16464 4.8119h.082321l.16464-1.9248.16464-.96239h.082322l.16464-1.9248.49393-4.8119.082322.96239.082322-.96239.16464-3.8495h.082322l.16464-.96239h.41161l.16464-1.9248h.16464l.082322.96239.082322-.96239.16464.96239.082321-2.8872.16464 1.9248.16464-2.8872.24696-4.8119.57625-7.6991.24697-3.8495h.082321l.24697-3.8496.16464-.96239h.082322l.16464 1.9248.082322-.96239.41161 3.8496h.32929l.41161-5.7743.16464 1.9248.24696-3.8495h.16464l.16464-1.9248.32929-2.8872h.24696l.082322-.96239.41161 3.8495.082322-2.8872.082322 2.8872.32929-5.7743.082322-.96239.082322 1.9248.16464-2.8872.16464-4.8119.082322.96239.16464 10.586.32929-4.8119.16464-5.7743.082322-.96239.16464-7.6991.082322 2.8872.24697-4.8119.082321.96239.32929-13.473.16464-5.7743.24697-14.436.082322 15.398.24696-16.361.082322-1.9248.24696-10.586.082322-1.9248.24697-12.511.16464-2.8872h.082322l.24697-7.6991.082321-.96239.24697-6.7367h.082322l.082322-1.9248.082321.96239.082322-.96239.082322 1.9248.082322-1.9248.082322.96239.16464-.96239.32929 8.6615.24696 3.8495.16464 3.8495.082322-1.9248.082321.96239.082322 48.119.082322-9.6239h.082322l.49393 15.398.24696-1.9248h.082322l.16464 9.6239.16464-.96239.24697 3.8496.082322-.96239m.16464 26.947h.16464l.24697 3.8496.082321.96239.16464 2.8872h.16464l.16464.96239h.24697l.49393 4.8119.082322-.96239.24696 5.7743.082322-.96239.24696 4.8119.16464.96239h.082322l.16464.96239.16464-.96239h.082322l.16464.96239h.082321l.24697 1.9248h.082322l.082322.96239.16464-1.9248.24697 1.9248h.082321l.24697 1.9248h.082322l.16464.96239h.24697l.16464.96239h.49393l.16464-2.8872h.082322l.082322.96239.082322-.96239.16464.96239.16464-1.9248h.082322l.16464-.96239.24697 1.9248h.082322l.16464-.96239.082322.96239.16464-1.9248h.32929l.24697 1.9248.24696-3.8496h.16464l.16464-.96239.16464.96239.16464-.96239h.16464l.082322.96239.082322-.96239.16464 2.8872h.082321l.16464-1.9248h.082322l.16464.96239.16464-2.8872.082322-2.8872.082322.96239.082322-.96239.082322.96239.16464-3.8495.082322.96239.41161-4.8119.16464.96239.16464-1.9248h.082322l.16464-2.8872h.16464l.082321.96239.32929-3.8496.082321.96239.082322-1.9248.082322.96239.16464-6.7367h.082322l.16464.96239h.24697l.16464-3.8495.082322 1.9248.24697-3.8496.082322-.96239.16464.96239h.082322l.082322.96239.082322 2.8872.082321-1.9248.082322.96239.32929-3.8495.082321.96239.082322-1.9248.32929-1.9248.082321-2.8872.082322.96239.16464-.96239h.082322l.082321-2.8872.24697 2.8872.082322-.96239.16464-8.6615.082322.96239.082322-.96239.16464 1.9248.16464 5.7743.24697-10.586.082322.96239h.082322l.32929-13.473.41161-14.436h.082322l.24696-3.8495.16464-11.549.082322-.96239.16464-2.8872.16464-14.436.082322 1.9248.32929-8.6615.24697-9.6239.16464-2.8872.24697-8.6615.082322-.96239.24696-5.7743.16464-.96239.082322 2.8872.082321-.96239.082322.96239.082322-.96239.24696 4.8119.082322-1.9248.24697 1.9248.24696 6.7367.16464 2.8872.082322-.96239.082322.96239.16464 4.8119.16464-.96239.16464 8.6615.082322.96239.16464 5.7743.16464 3.8495.16464 6.7367.16464 4.8119.082322.96239.49393 18.285.32929 6.7367h.082322l.24696 5.7743.082322-.96239.41161 14.436.082322.96239.16464 4.8119h.082322l.16464 2.8872.41161 7.6991h.082322l.16464 2.8872h.082322l.24696 4.8119.16464 2.8872.082322-.96239h.082321l.082322.96239.16464-.96239h.16464l.082322-.96239.24697 4.8119h.16464l.082322.96239.082322-.96239.24697 1.9248h.082321l.16464-.96239.082322 3.8496.16464-1.9248h.49393l.32929 2.8872.082322-.96239.7409 7.6991h.082322l.16464-2.8872h.24697l.082322-.96239.082322 1.9248.082321-1.9248.16464 1.9248h.082322l.16464-.96239.082321 1.9248.16464-.96239h.082322l.082322-.96239.082322 1.9248.16464-2.8872h.082322l.082322.96239.41161-3.8495.16464.96239.16464-.96239h.24697l.49393-4.8119h.082321l.16464 1.9248.24697-2.8872.16464.96239.16464-1.9248.16464 1.9248.24696-3.8495.082322 1.9248.24696-3.8496.16464-2.8872.082322.96239.24696-6.7367.16464-1.9248.24696 3.8495.082322-1.9248.24697 1.9248h.082322l.16464 1.9248h.24697l.16464-2.8872.24697 1.9248.49393-4.8119h.32929l.082322-1.9248.082322.96239.24696-3.8496.082322-.96239.16464 2.8872.082321 3.8495.082322-.96239.16464.96239h.082322l.082322-1.9248.24696 2.8872.16464-2.8872.32929-7.6991.24696-6.7367.16464 4.8119.49393-6.7367.65858-16.361 1.3995-70.254.082322-6.7367.16464 3.8495.24697-8.6615.082321-.96239.082322 2.8872.32929-5.7743.082321.96239.082322-.96239.082322.96239.16464 7.6991.082322 6.7367.082321-.96239h.082322l.16464 1.9248.16464-1.9248.082322.96239.32929 12.511.082321-1.9248.082322.96239.49393 20.21.24697 9.6239.082322-.96239.16464 3.8495h.082322l.32929 8.6615.24697 6.7367.41161 8.6615.16464 5.7743h.16464l.24697 7.6991.57625 7.6991.16464 3.8495.49393 9.6239.57625 6.7367.16464 4.8119.082322-.96239.16464 1.9248.65858 8.6615.24696 6.7367h.082322l.16464 1.9248.16464-.96239h.16464l.082322-.96239.082321.96239.16464 2.8872.082322-.96239.16464.96239h.082321l.16464-1.9248.24697 1.9248h.16464l.41161 4.8119.16464-.96239h.41161l.082322.96239.16464-2.8872h.32929l.16464-.96239h.082322l.082322.96239.24697-3.8495h.082321l.16464-2.8872.082322.96239h.082322l.082322-.96239.16464.96239h.49393l.082322.96239.41161-4.8119.16464-3.8496h.082322l.082321 1.9248.082322-1.9248.24697 2.8872.41161-3.8495h.082322l.16464-1.9248.082322-.96239.082322.96239.57625-5.7743h.16464l.32929-3.8495.16464.96239.16464-.96239.082322.96239.16464 2.8872.082322-1.9248.082322 1.9248.16464-2.8872h.082322l.32929-4.8119.16464 1.9248.082321-.96239.082322.96239.082322-.96239.16464.96239h.16464l.082322-1.9248.16464.96239.16464-3.8495.082322-.96239.082322 1.9248.16464-.96239.082322.96239.41161-4.8119.16464.96239.082322-.96239.082322.96239.082322-.96239.16464-7.6991.16464 1.9248h.082322l.082322-.96239.082322.96239.082321-2.8872.082322 1.9248.16464-4.8119.16464 2.8872.16464-2.8872h.082322l.082322-.96239.082322.96239.57625-16.361.082322-1.9248.16464-4.8119.16464-5.7743.24696-21.173.082322-.96239.41161-18.285h.082322l.16464 2.8872.32929-19.248.082322-.96239.16464-5.7743.16464.96239.082322-1.9248.16464.96239.16464-4.8119h.082322l.082322-.96239.082321 1.9248.16464-1.9248.082322.96239.16464-3.8495.082321 2.8872.082322-2.8872.082322.96239.24697 6.7367.32929 9.6239h.082322l.16464 1.9248.24697-4.8119.24696 9.6239.082322.96239.32929 11.549.49393 12.511.24697 8.6615h.082322l.24696 9.6239 1.0702 23.097.41161 5.7743.65858 13.473.16464.96239h.082322l.57625 5.7743h.082322l.24696 5.7743h.16464l.16464 2.8872.16464-.96239.41161 4.8119.16464-.96239.24696 1.9248h.082322l.16464-.96239h.082322l.082321-2.8872.082322.96239h.082322l.082322-.96239.24696 1.9248.082322-1.9248.16464 2.8872h.24696l.082322-1.9248.082322.96239.16464-.96239h.16464l.082322-1.9248.16464 1.9248.082322-1.9248.16464.96239h.082322l.24697-1.9248.082321.96239.16464-.96239.24696 1.9248h.082322l.082322.96239.16464 2.8872.24696-1.9248.082322 2.8872.082322-.96239.082322-1.9248.082322.96239.24696-2.8872.082322.96239.082322-1.9248.082321.96239.16464-.96239h.082322l.082322-2.8872.082322.96239.16464-2.8872.24697-4.8119.082322 1.9248.65857-8.6615.16464-1.9248.24696 1.9248h.082322l.082322.96239.16464-5.7743.24696-2.8872.082322.96239.24696-3.8495.082322-.96239.24697 1.9248h.082321l.16464-3.8495.16464-.96239h.16464l.24697 5.7743.16464-2.8872h.082321l.16464-.96239.082322 1.9248.41161-4.8119.16464.96239.16464-1.9248h.082322l.082322-.96239.49393 4.8119.082322-2.8872.082322.96239.16464-.96239.16464 1.9248.24696-1.9248h.082322l.24697-8.6615.082321-.96239.082322 1.9248.16464-3.8496.082322 1.9248.082322-.96239.082321 1.9248.082322-.96239.32929-9.6239.082322.96239.082322-.96239.24697-8.6615.98786-42.345h.082321l.49393-20.21h.082322l.32929-15.398.082322.96239.41161-14.436.082322.96239.16464-5.7743.082322 3.8495.082321-3.8495.16464 3.8495.082322.96239.16464 2.8872.082321 56.781.082322-12.511.082322-5.7743.082322 2.8872.082322-.96239.082322-1.9248.16464 5.7743h.082322l.082322-1.9248.24696 12.511.082322-.96239.16464 3.8495.082322-1.9248.16464 4.8119.32929 4.8119.32929 9.6239.082322-.96239.16464-5.7743.7409 23.097.16464-.96239.32929 8.6615h.082322l.32929 6.7367h.082322l.24696 11.549h.082322l.16464.96239h.082321l.16464 5.7743h.16464l.24696 1.9248h.16464l.32929 7.6991.082322-.96239.082322.96239.32929 7.6991h.082322l.16464 2.8872h.16464l.41161 3.8496h.41161l.24696 3.8495h.082322l.32929 2.8872.082322-.96239.082322.96239.082322-1.9248.16464 1.9248.082322.96239.16464-.96239h.16464l.16464.96239h.082322l.16464-.96239.24697 1.9248h.082322l.24696 2.8872.7409-9.6239.082321.96239h.082322l.082322.96239.16464-1.9248.082322-2.8872.16464 2.8872h.082322l.16464-3.8495.32929 5.7743h.082322l.082322-.96239.082322.96239.16464-2.8872h.082322l.082322 1.9248.082322-.96239.16464 1.9248.16464-2.8872.082322-2.8872.082322.96239.24696-3.8495.16464.96239h.16464l.24697-2.8872.24696-4.8119h.082322l.24697-2.8872.16464 2.8872h.082322l.16464-1.9248.082322-.96239.16464-2.8872.082322-.96239.16464-2.8872.24696-2.8872.082322.96239.57625-6.7367.16464-2.8872h.082322l.24697-4.8119h.16464l.082322-.96239.16464.96239.082322-2.8872.082321.96239.24697-1.9248.32929 3.8495.082322 4.8119.16464-1.9248.082322.96239.24696-3.8495.082322-.96239.16464.96239.16464-.96239.16464 5.7743.082322-1.9248.16464 1.9248.57625-7.6991.24697-5.7743.082321 3.8496.49393-21.173.41161-20.21.082322 1.9248.082322-6.7367.082322.96239.41161-18.285.082322-2.8872.16464 4.8119.24696-10.586.082322.96239.32929-10.586.082322-.96239.16464 7.6991.082321.96239.32929-5.7743.24696 4.8119.082322-1.9248.16464.96239.49393 26.947.16464 8.6615h.16464l.24696 8.6615.16464.96239.57625 22.135.082322.96239.49393 13.473h.082321l.082322 2.8872.082322-.96239.082322.96239.49393 14.436 1.0702 12.511.49393-5.7743.32929 4.8119.24696 3.8495h.16464l.16464 1.9248.24696 1.9248h.41161l.16464.96239h.082322l.082321.96239.082322-.96239.082322.96239.16464 5.7743h.16464l.24697 2.8872.24696-1.9248h.16464l.16464-.96239.24696 1.9248h.24697l.16464 3.8495.16464-.96239.16464 1.9248.16464-1.9248.082322 2.8872.082322-.96239h.082322l.16464-.96239h.16464l.082322-1.9248.16464.96239h.16464l.32929-2.8872.24697 1.9248h.082322l.16464-.96239h.32929l.16464.96239.16464-.96239h.24696l.32929 2.8872.41161-5.7743.082322 1.9248.16464-.96239h.16464l.16464-2.8872h.082321l.16464-.96239.082322.96239.32929-2.8872h.082322l.16464-2.8872h.16464l.082322.96239.082322-.96239.24696 2.8872.16464-1.9248.082322 1.9248.24696-5.7743.16464 1.9248.082322.96239.082322-1.9248.16464.96239.16464-.96239h.082322l.16464.96239h.082322l.082322 1.9248.16464-2.8872h.16464l.24697-1.9248.082322.96239.082322-1.9248.082321.96239.082322-1.9248.16464.96239h.16464l.32929-4.8119.082322 1.9248.32929-3.8495.16464 2.8872.24696-10.586.24697 1.9248.16464-1.9248.082322-.96239.082322-2.8872.082322.96239 1.0702-25.984.082322.96239.24697-19.248.082322-.96239.49393-26.947.16464-9.6239.082322-.96239.16464-8.6615.082321 39.458.082322-4.8119.082322-1.9248.24697-17.323h.082321l.082322-1.9248.082322 2.8872.24696-6.7367h.082322l.082322.96239.082322 4.8119.24696-3.8495.16464 2.8872h.082322l.24696 3.8495.082322-1.9248.16464 3.8495h.082322l.82322 21.173.16464 5.7743.082321-.96239.082322 2.8872.16464 7.6991.32929 6.7367h.082322l.41161 5.7743.7409 17.323.082321-.96239.16464 2.8872.16464 7.6991h.16464l.57625 5.7743h.082322l.16464 2.8872.082321.96239.16464 3.8495.16464.96239h.082322l.16464 1.9248.16464 2.8872.082322.96239.16464-.96239h.082322l.65858 6.7367h.082322l.41161 3.8495h.082322l.16464 1.9248h.082322l.082322.96239.082322-.96239.32929 2.8872.16464-.96239.16464 1.9248.24697-1.9248h.082322l.16464-.96239h.082322l.16464 1.9248h.082321l.24697 1.9248h.082322l.32929 2.8872.082322-.96239.16464 1.9248.32929-2.8872h.16464l.24697-1.9248.082322.96239.24696-3.8495.082322 1.9248.082322-2.8872.082322.96239h.082322l.16464.96239.16464-.96239h.24696l.32929-2.8872h.082321l.16464-.96239.082322.96239.082322-.96239.16464 1.9248.32929-2.8872h.082322l.16464-2.8872.16464.96239h.32929l.24697-1.9248.16464 1.9248h.16464l.16464-.96239.16464 1.9248h.32929l.16464-.96239.082322.96239.16464-3.8495.32929 2.8872.16464-.96239h.082321l.24697-2.8872.082322.96239.16464-.96239h.082322l.16464-2.8872.082322 1.9248.16464-1.9248h.082322l.082322-2.8872.082322.96239.16464-.96239.082322.96239.082322-1.9248.082322.96239.24696-4.8119.082322-1.9248.082322.96239.082322-1.9248.16464 1.9248.49393-6.7367.24697-9.6239.65858-7.6991.082321.96239.082322-.96239.24697-9.6239h.16464l.32929-9.6239.082321-.96239.49393-25.022.16464-5.7743.32929-15.398.16464-4.8119.32929-6.7367.082322.96239.16464-4.8119.082322-4.8119.082321 1.9248.24697-7.6991.082322.96239.24696-1.9248.41161 12.511.082322-1.9248.41161 18.285.41161 20.21.082322-.96239.24697 4.8119h.082321l.24697 6.7367.32929 5.7743.16464 2.8872.49393 13.473 1.6464 36.571.24697 1.9248h.082322l.32929 3.8496.16464 3.8495.16464.96239h.082322l.16464 1.9248.16464 3.8495h.082322l.082322-.96239.24697 2.8872.082321-.96239.16464 2.8872.16464 1.9248h.082321l.41161 3.8496.24696-2.8872.16464 1.9248.16464-.96239.16464.96239h.16464l.16464.96239h.082322l.082322-.96239.24696 1.9248h.24697l.24696-1.9248.16464 1.9248.32929-3.8495.16464.96239.24696-1.9248h.16464l.16464.96239h.082322l.16464-.96239h.16464l.24696-1.9248h.24697l.24696-3.8496.16464.96239h.16464l.16464-.96239.16464.96239.16464-1.9248.65857-6.7367h.16464l.24696-3.8496h.082322l.16464.96239.16464-2.8872h.082322l.082322.96239.16464-.96239h.16464l.90554-9.6239.082322.96239.16464-2.8872h.41161l.16464-.96239h.082322l.16464-.96239.24697 2.8872.24696-1.9248h.082322l.082322-2.8872.082322.96239h.082321l.082322.96239.082322-1.9248.16464 1.9248h.16464l.24697-1.9248.24696 1.9248.32929-13.473.082321.96239h.082322l.082322-1.9248.32929 3.8496.082322-3.8496.082322 1.9248.24696-8.6615h.082322l.082322-.96239.16464 1.9248.16464-5.7743.49393-19.248.24697-3.8495.16464-4.8119.7409-46.195.24696-5.7743.16464 2.8872.24697-10.586.16464-3.8495.082322 1.9248.16464-8.6615.082321.96239.24697-1.9248h.082322l.32929 2.8872h.082322l.32929-3.8495.082322.96239.082322-.96239.90554 43.307.082322 1.9248.082322-.96239.90554 29.834.082321-.96239.7409 23.097.32929 3.8496.24697 4.8119.41161 8.6615h.082322l.24696 4.8119h.082322l.24696 5.7743h.082322l.16464-.96239.32929 5.7743.41161 5.7743.16464 2.8872h.082322l.16464 1.9248.082322.96239.16464 3.8495h.16464l.24696 1.9248h.082322l.16464 1.9248h.32929l.082322.96239.24696 6.7367.16464-1.9248.082322 42.345.082321-2.8872h.16464l.49393-4.8119.082322.96239.16464-.96239h.082322l.41161-3.8495h.32929l.24696-4.8119h.16464l1.1525-14.436.16464 1.9248.16464-2.8872.24696 3.8495.16464-1.9248.16464.96239h.16464l.49393-4.8119h.16464l.41161-5.7743.24696 4.8119h.082322l.65858-6.7367.082322.96239.32929-2.8872h.082322l.32929-6.7367h.16464l.16464-1.9248.082322.96239.16464-1.9248.24696-5.7743.082322 2.8872.082322-.96239.082322.96239.16464-.96239.24697 1.9248.32929-3.8495.16464.96239h.16464l.32929-2.8872.082322.96239.49393-4.8119.41161 3.8495.16464-3.8495.082322-.96239.082322-3.8495.082322 1.9248.24696-1.9248h.082322l.32929-3.8496.082322.96239.16464-2.8872.32929-7.6991.082322-1.9248.082322.96239.24696-4.8119.49393-27.909.24697-12.511.16464-7.6991.082322-.96239.16464 2.8872.41161-9.6239.082322 1.9248.24696-14.436.32929 2.8872.16464-3.8495h.082322l.082322.96239.16464 3.8496h.082322l.16464 3.8495.24696-2.8872.16464 1.9248.082322-1.9248.49393 9.6239.16464-1.9248.32929 9.6239.24696 12.511.16464 7.6991.24696 5.7743.16464 2.8872.82322 17.323.082322-.96239.82322 18.285h.082322l.082322 1.9248.082322-.96239.24696 2.8872.082322-.96239.41161 5.7743.16464 1.9248h.082322l.082322-.96239.65857 13.473.24697 1.9248h.082321l.16464 2.8872h.082322l.49393 4.8119h.24696l.41161 3.8495.082322-.96239.16464 1.9248h.082322l.16464.96239h.082322l.41161 3.8495h.24697l.082322-.96239.16464 1.9248.16464.96239.24696-1.9248h.16464l.082322-1.9248.32929 2.8872.16464-1.9248.24696-1.9248h.082322l.16464-3.8495h.16464l.16464-.96239h.32929l.082322-.96239.24697 1.9248h.16464l.16464 1.9248.16464-3.8496.16464.96239h.16464l.32929-7.6991.082322.96239.49393-4.8119.082322.96239.24696-1.9248.082322.96239.32929-9.6239h.082322l.16464-.96239h.082322l.24696-3.8495.082322.96239.082322-1.9248.16464.96239.32929-3.8495.082322 1.9248.24696-1.9248.16464.96239h.082322l.082321-.96239.49393 4.8119h.082322l.16464-2.8872.16464-.96239h.32929l.16464-.96239h.16464l.16464.96239h.082322l.16464-1.9248.41161 5.7743.082322-.96239h.082322l.41161-10.586.16464 2.8872h.082322l.082321.96239.16464-1.9248h.082322l.082322 1.9248.32929-8.6615h.16464l.65857-26.947.49393-31.759.24697-8.6615.082322-.96239.24696-10.586.24696-8.6615.082322 1.9248.082322-.96239.16464-4.8119.16464-3.8495h.082322l.082322-2.8872.082322.96239.16464 1.9248.082321-2.8872.082322 3.8495.32929-10.586.16464 2.8872h.082322l.16464 2.8872h.082321l.41161 4.8119.082321-.96239.082322 2.8872.082322-.96239h.082322l.24696 18.285h.082322l.16464 5.7743.082322-.96239.24696 5.7743.24697 10.586.24696 3.8495.082322-1.9248.16464 6.7367h.16464l.082322.96239.082322-.96239.32929 7.6991.16464 6.7367.16464 1.9248.16464 3.8495h.082322l.16464 5.7743.24696 4.8119.082322 1.9248.24696 9.6239.41161 5.7743.41161 7.6991.24696 1.9248h.16464l.16464 4.8119h.16464l.24697 5.7743.082321-.96239.24697 1.9248h.082322l.16464 1.9248.16464.96239h.082322l.16464-1.9248.24697 1.9248h.082322l.49393 4.8119h.082321l.082322.96239.082322-.96239.16464.96239.16464-.96239.16464 2.8872.082322-.96239h.16464l.082321-1.9248.32929 2.8872h.082321l.082322.96239.16464-2.8872.16464 3.8495.082321-.96239.16464-5.7743.082322.96239.16464-2.8872.16464 2.8872.24697-4.8119h.082322l.16464-1.9248h.16464l.082322-.96239.082321 1.9248.082322-.96239.16464 1.9248.16464 1.9248.24696-3.8495.16464.96239h.32929l.16464-2.8872.082321.96239.16464-2.8872h.082322l.24696-3.8495h.41161l.16464-1.9248.16464-.96239h.082322l.082322-.96239.24696 1.9248.16464-.96239h.082321l.41161-10.586.16464-3.8496.16464-1.9248.082322 1.9248.082322-1.9248.24696 1.9248.082322-.96239.16464 1.9248h.082322l.24697-6.7367.082322.96239.082321 2.8872.16464-2.8872.082322.96239.16464-1.9248.32929 2.8872.24696 7.6991.16464-2.8872h.082322l.16464 4.8119.41161 3.8495h.082321l.082322.96239.082322-.96239.082322.96239.082322-.96239.082322.96239.24696-4.8119.082322-.96239.082322.96239.24696-4.8119h.082322l.16464-7.6991.082321.96239h.082322l.16464-10.586.32929-9.6239.24697-19.248.24696-20.21.32929-15.398.32929-15.398.082322-1.9248.082321 2.8872.24697-7.6991.16464-2.8872.24696-3.8495.16464-3.8495.082321 1.9248.24697-1.9248.16464 3.8495.16464-4.8119.16464-1.9248.24696 6.7367.16464 1.9248.24697 1.9248.24696 9.6239h.082322l.32929 4.8119.32929 15.398h.082322l.082322-.96239.16464 3.8495h.082322l.41161 5.7743.24696 7.6991.16464 7.6991.082322.96239.082321-.96239.41161 5.7743.41161 15.398.16464.96239.16464 6.7367h.082322l.24696 2.8872.24697 11.549.16464.96239h.082322l.41161 4.8119.082322-.96239.24697 1.9248h.24696l.082322.96239.24696 6.7367.49393 6.7367.082322-.96239h.16464l.16464 2.8872h.082322l.49393 5.7743.16464-.96239h.082322l.32929 3.8495.16464-1.9248.24696 3.8495.16464 1.9248.082322-.96239.16464 1.9248.082322-.96239.082322.96239.16464-2.8872.24696 1.9248.082322-.96239.082322.96239.082322-.96239.082321 2.8872.082322-.96239.16464-.96239h.16464l.24697 1.9248h.16464l.16464-3.8495.41161 3.8495.24697-4.8119.24696-1.9248h.082322l.082322 1.9248.082322-.96239.16464.96239.41161-8.6615h.082321l.082322.96239.24697-6.7367.16464 1.9248.57625-6.7367.16464-5.7743.16464.96239.24697-2.8872.082322.96239.082322-3.8495.082321.96239.32929-3.8495.082322 1.9248.082321-.96239.16464 1.9248h.082322l.082322-.96239.16464.96239.24697-3.8496.082322-.96239.16464-3.8495.082322-.96239.16464 1.9248.082322-.96239.082321.96239.32929-2.8872.16464 1.9248.082322.96239.082322-2.8872.16464 6.7367.16464-2.8872.32929 7.6991.16464 1.9248.082322.96239.082322-2.8872.082322.96239.082321-.96239.16464 2.8872.24697-7.6991h.16464l.16464-.96239.16464 3.8495.082321 1.9248.16464-.96239.24697-8.6615.082321-.96239.16464-3.8496.41161-8.6615.082322.96239.24696-16.361.16464-8.6615.65858-13.473.24696-14.436.082322-.96239.16464-10.586.082321 1.9248.24697-8.6615.16464 2.8872.082321-1.9248.082322-4.8119.082322.96239.16464.96239.16464-.96239h.082322l.082322-.96239.16464 3.8495.082321-.96239.16464-3.8495h.082322l.082322 2.8872.082322-2.8872.082321.96239.49393 15.398h.24697l.24696 14.436.16464 8.6615.082322-.96239.082322 1.9248.16464 5.7743.32929 8.6615.24696 10.586.49393 10.586h.082322l.16464 2.8872h.082322l.65858 19.248.41161 7.6991.57625 7.6991.082322-.96239.082321-.96239.24697 3.8495.16464 1.9248.24696 1.9248h.16464l.16464 3.8495h.16464l.49393 4.8119h.082322l.24696 2.8872.082322-.96239.24697 4.8119.16464 1.9248.49393 4.8119.16464-.96239h.082322l.16464 2.8872h.49393l.16464.96239h.16464l.16464-.96239h.16464l.16464-.96239h.24697l.16464 1.9248.16464-1.9248.16464.96239.16464-1.9248.49393-4.8119h.32929l.16464-1.9248.082322 1.9248.32929-2.8872.082321 1.9248.082322-.96239.24697-4.8119.16464-3.8496.082322.96239.24697-1.9248.16464.96239h.082322l.16464 1.9248.32929-3.8495.16464 1.9248.24696-1.9248.16464.96239h.24696l.32929-5.7743h.24696l.082322 2.8872.082322-.96239.082322.96239.16464-1.9248.082322.96239.082322-1.9248.082322.96239.16464-1.9248.16464-1.9248.16464.96239h.082321l.16464-1.9248h.24697l.082321-1.9248.16464 1.9248.24697-3.8495h.082321l.082322-.96239.082322.96239.16464 2.8872h.082321l.24697-6.7367h.082322l.49393-5.7743.16464 1.9248.24697-6.7367.24696 2.8872.24697-4.8119.082322-.96239.16464-3.8496.082322 3.8496.32929-12.511.24697-3.8496.49393-16.361.24696-12.511.082322-1.9248.16464-7.6991h.082322l.24696-5.7743.082322 2.8872.16464-9.6239.49393-12.511.16464 2.8872h.082322l.49393-13.473.082322.96239.082322-2.8872.24696 10.586.082322-1.9248 1.1525 37.533.16464.96239.082322-1.9248 1.0702 33.684.16464 1.9248h.082322l.082322.96239.32929 15.398.41161 3.8496h.082322l.24697 6.7367.16464 1.9248.16464-.96239.57625 5.7743.16464 16.361.082322.96239.16464 4.8119.16464-.96239.41161 5.7743.082321 1.9248.082322-.96239.16464 4.8119.082322-.96239.16464.96239h.082322l.16464.96239.082322-.96239.24696 3.8495h.082322l.16464.96239h.24696l.082322.96239.082322-.96239.16464.96239h.082322l.32929-2.8872h.16464l.16464-.96239h.082322l.16464-1.9248.082322.96239.16464-.96239h.082322l.16464.96239.082322 6.7367.082322-.96239.082322 4.8119.082322-.96239h.082321l.082322-1.9248.082322.96239.57625-5.7743.082322.96239.16464-.96239h.082322l.32929-3.8495.16464 2.8872h.32929l.41161-3.8495h.082322l.082322.96239.24697-1.9248h.082321l.41161-3.8496h.16464l.24697-4.8119h.16464l.16464-1.9248.24696-1.9248.16464 18.285.082322-1.9248.082322-.96239.24696-4.8119.082322-1.9248.082322.96239.16464-.96239.16464 1.9248.24697-1.9248h.082321l.16464.96239.16464-2.8872.24696-4.8119h.32929l.082321 7.6991.082322-1.9248h.082322l.16464-2.8872.24696-3.8495.32929-2.8872.082322 1.9248.32929-4.8119.082321.96239h.082322l.16464-2.8872.082322.96239.16464 15.398.32929-9.6239.16464.96239.32929-3.8496.082321.96239.24697-9.6239.082322-1.9248.082322-5.7743.082321.96239.32929-4.8119.16464-6.7367.082322-.96239.32929-7.6991h.082322l1.0702-47.157.082322-.96239.16464-4.8119.082322 1.9248.24697-14.436h.082322l.32929-12.511.082322 1.9248.24696-4.8119.24697 3.8496h.082321l.082322-.96239.082322 1.9248.16464-2.8872.082322 2.8872.32929 33.684.082322-1.9248.24696-4.8119.24697 2.8872.082321 2.8872.082322 35.608.082322-2.8872h.082322l.082322-.96239.082322.96239.082321-1.9248.24697 5.7743h.082322l.082322-1.9248.57625 16.361h.082322l.082322-.96239.32929 10.586.24697 2.8872.24696 51.007.082322-2.8872.082322 2.8872.082322-1.9248.24696 1.9248.24697-1.9248h.082321l.16464-.96239.082322.96239.082322-2.8872.16464 2.8872h.32929l.082322.96239.16464-.96239h.082322l.16464 1.9248h.082322l.16464.96239h.082322l.16464-.96239h.082321l.16464-.96239h.24697l.41161-3.8495h.082322l.16464-.96239h.16464l.16464 2.8872.082322.96239.32929-2.8872h.082321l.24697 1.9248h.082322l.16464-1.9248.082322.96239.082322-1.9248.16464.96239h.082321l.16464-3.8496h.082322l.082322 1.9248.082322-1.9248.24696 1.9248h.16464l.24696 1.9248h.49393l.41161-3.8496h.16464l.24696-1.9248.082322.96239.24697-1.9248h.24696l.41161-3.8495.082322-4.8119.082322 1.9248.082322-1.9248.16464.96239h.24697l.082322.96239.16464-1.9248h.082322l.16464-.96239h.082322l.24696 1.9248h.082322l.16464 1.9248h.082321l.32929-5.7743.57625-5.7743h.32929l.16464-1.9248h.24697l.16464-.96239h.082321l.49393-4.8119h.082322l.082322.96239.32929-2.8872h.082322l.16464 2.8872.082322-.96239.16464-4.8119.082322 1.9248.16464-3.8495.082322.96239.16464-3.8495.082322 1.9248.32929-5.7743.24697-12.511.082322-.96239.082321 1.9248.41161-10.586.082321.96239.082322-.96239.082322 1.9248.082322-1.9248.16464.96239.082321-.96239.16464-4.8119.082322-.96239.082322 2.8872.16464-7.6991.16464.96239.24696-12.511.32929-19.248.41161-21.173.082322.96239.24696-3.8495.16464-12.511.082322 1.9248.24696-9.6239.16464-5.7743.082322.96239h.082321l.24697 3.8495.082322-.96239.32929 3.8495.16464 3.8495.24696-5.7743.082322 1.9248.082322-2.8872.41161 22.135h.082322l.41161 14.436.16464 2.8872h.082321l.082322 2.8872.082322-.96239.24696 6.7367.16464 7.6991m.32929 39.458.082322-.96239.082322 1.9248m.16464 1.9248.24696 3.8495.16464 3.8496h.16464l.082322 3.8495.082322-.96239.16464 34.646.16464 1.9248.16464-.96239h.082322l.16464-.96239.32929 2.8872h.082322l.16464 11.549.24697-2.8872.16464 2.8872h.49393l.16464 3.8495.24697 3.8496.16464 5.7743.082322.96239.32929-2.8872h.082322l.082322-.96239.16464-2.8872h.082321l.24697-1.9248.16464.96239h.24696l.082322-1.9248.082322.96239.082322 5.7743.082321-.96239h.24697l.082322.96239.16464-.96239h.41161l.082322.96239.16464-2.8872h.24696l.16464-2.8872h.24696l.16464-1.9248.41161-3.8495h.16464l.24696-1.9248h.082322l.082322-.96239.082322.96239.16464-1.9248h.082321l.24697 1.9248h.32929l.082322.96239.082322-1.9248.16464.96239h.082322l.41161-3.8495h.082322l.32929-2.8872h.082322l.24697-3.8495.16464-.96239.082322.96239.082322-.96239.16464.96239.16464-1.9248.16464 1.9248h.16464l.16464-.96239h.082322l.082322-.96239.16464.96239.32929-7.6991h.082322l.082322-.96239.16464-2.8872.16464 2.8872.41161-7.6991h.082322l.16464 1.9248.24697-1.9248h.082322l.24696-4.8119.16464.96239.16464-.96239h.082321l.082322.96239.24697-2.8872.24696 4.8119.16464-2.8872.16464.96239.082322-1.9248.082322.96239.16464-2.8872.082322.96239.24696-6.7367h.082322l.16464-2.8872.41161-11.549.082321.96239h.16464l.082322.96239 1.0702-39.458.24696-11.549.41161-18.285.98786-30.796h.082322l.082322.96239.082322-1.9248.082321.96239.082322-.96239.16464 51.969.082322-.96239.082322-1.9248.24696-8.6615h.082322l.082322 3.8495.24696-4.8119.082322 1.9248.082322-2.8872.16464 3.8496.082322 24.06.082322-1.9248.082322 2.8872.082322-2.8872.24696 7.6991.082322-.96239.16464 7.6991.24696 6.7367.082322-2.8872.32929 5.7743h.16464l.32929 7.6991h.082322l.16464 1.9248.082322-.96239.16464 1.9248h.082322l.16464 2.8872.082322 16.361.082321-.96239.082322.96239.082322 16.361.082322-3.8496.16464-.96239.16464 2.8872.16464-1.9248h.082322l.49393 4.8119h.082321l.16464.96239h.24697l.16464-.96239.24697 3.8495.24696 2.8872.16464 5.7743h.082322l.32929 3.8495.16464-.96239.24696 1.9248.16464-.96239h.16464l.16464.96239h.082322l.082322 12.511.082321-1.9248.082322-1.9248.082322.96239.16464-.96239h.082322l.082321 1.9248.24697-1.9248h.16464l.16464-.96239h.32929l.32929-2.8872h.082322l.16464-.96239h.082322l.16464-.96239h.16464l.16464-1.9248h.082322l.16464.96239.16464-.96239h.082322l.16464-1.9248h.082321l.16464.96239.082322-4.8119.082322.96239h.32929l.16464-1.9248.082321 1.9248.41161-3.8495h.082321l.24697.96239.16464-2.8872h.082321l.24697-1.9248.082322.96239.24696-1.9248h.082322l.24696 1.9248h.49393l.16464-1.9248.082322.96239.16464-.96239h.082321l.16464-2.8872.082322 1.9248.16464-2.8872h.41161l.32929-5.7743.16464-2.8872.16464-2.8872h.082322l.16464-2.8872.082322-.96239.32929 2.8872.24696-2.8872.082322.96239.16464-2.8872.082322-.96239.41161-12.511.24696 3.8495.082322-.96239.32929-5.7743.16464-.96239h.16464l.082321.96239.082322 2.8872.082322-.96239.082322 1.9248.16464-7.6991h.16464l.082322-1.9248.16464.96239.16464-4.8119.24697-7.6991.082322-.96239.32929-16.361.082322-1.9248.41161-20.21h.082322l.082322-.96239.16464-6.7367.082322.96239.16464-2.8872.082321-1.9248.082322.96239.41161-14.436.16464-5.7743.082322 1.9248.24696-6.7367.24697-2.8872.16464-4.8119.16464 5.7743.16464-4.8119.082322.96239.082321-3.8495.24697 7.6991.32929-5.7743.082322.96239.24697 6.7367h.082321l.24697 8.6615.082322 34.646.082321-11.549.16464 2.8872.16464-2.8872.16464-2.8872.082322.96239.32929 8.6615.082321.96239.7409 23.097.082322-1.9248.082321 6.7367.082322 29.834.082322-.96239.082322-.96239.16464 14.436.49393 4.8119h.16464l.24697 6.7367h.24696l.082322-.96239.24696 1.9248h.082322l.16464.96239h.082322l.41161 4.8119.16464-.96239.16464 1.9248.16464-.96239h.082322l.16464-.96239h.24697l.082322-.96239.24696 2.8872.082322-.96239.16464.96239h.16464l.082322-.96239.082322.96239.082322-1.9248.16464 1.9248h.16464l.082322.96239.16464-1.9248h.082322l.16464 1.9248.57625 5.7743h.16464l.082322-.96239.16464.96239.16464-.96239h.16464l.41161-3.8495h.082322l.32929-2.8872h.16464l.082322.96239.16464-.96239.16464.96239.16464-.96239.082322.96239.24696-3.8495h.082322l.082322-1.9248.082322.96239.082321-.96239.16464.96239.7409-8.6615.082322.96239.16464-1.9248.082322.96239.082322-1.9248.16464 2.8872.082322-.96239.082322.96239.16464-3.8495.16464 1.9248 1.3171-16.361.24697-4.8119.082322.96239.41161-3.8496h.082322l.082321-.96239.16464-3.8495.16464.96239.082322-.96239.16464 2.8872.16464-2.8872.082322.96239.16464-.96239.24697 4.8119.16464-1.9248.32929 2.8872.24696-2.8872.082322.96239.082322-.96239.082322.96239.082322-.96239.082321.96239.16464-2.8872.41161-8.6615h.082322l.16464-.96239h.082321l.16464-1.9248.082322.96239.24696-7.6991h.16464l.082322.96239.16464-10.586.082322 1.9248.41161-31.759.082322.96239h.082322l.24697-13.473.16464-7.6991.41161-21.173.082322-1.9248.082322 46.195.16464-25.984.24696-8.6615.16464-7.6991.24696-11.549.32929-7.6991.41161-4.8119.16464 3.8496.082322-.96239.16464 2.8872.32929 5.7743h.16464l.32929 7.6991.082322 5.7743.082322-.96239.32929 7.6991.32929 8.6615.24697 10.586.41161 15.398.082322 59.668.082322-.96239.32929 6.7367h.082322l.082321 19.248.082322-2.8872.082322 4.8119.32929-5.7743.16464 2.8872h.082322l.16464 1.9248.32929 10.586h.16464l.24696 1.9248h.24696l.16464 14.436h.32929l.16464.96239h.16464l.16464.96239.16464-.96239h.32929l.16464.96239h.16464l.16464 1.9248.90554-9.6239h.24697l.16464 1.9248.24697-1.9248.24696 1.9248.082322-.96239.16464-3.8496.41161-3.8495h.16464l.24696-3.8495.082322.96239.082322 1.9248.16464-.96239h.16464l.24697-1.9248h.082321l.24697-1.9248h.24696l.082322-.96239.082322.96239.082322-2.8872.082322.96239h.082321l.41161-4.8119.082321-2.8872.16464 1.9248h.24697l.24696-2.8872.16464 1.9248.16464-2.8872h.082322l.082322.96239.65858-7.6991.16464.96239.24697-4.8119h.16464l.082322-4.8119.082322 12.511.082322-1.9248h.082322l.082321.96239.41161-10.586h.16464l.082322-.96239.082322-2.8872.082322.96239.16464-.96239h.24697l.16464-.96239h.16464l.57625-5.7743h.16464l.16464 2.8872.24697-2.8872.082321.96239.16464-.96239.16464 1.9248.16464-1.9248.24697-8.6615.082322.96239.082322.96239.16464-2.8872.082322.96239.16464-2.8872h.24696l.16464-2.8872h.082322l.16464-2.8872h.082322l.24697-1.9248.082321.96239.24697-11.549.082322-.96239.082322 103.94.082321-17.323.16464-20.21.32929-8.6615.49393-36.571.41161-18.285.082322-3.8496.082322.96239.082322-1.9248.16464-5.7743h.082321l.32929-17.323.082321.96239.082322-2.8872.082322.96239.16464 2.8872.16464-4.8119.24697 14.436.082322-.96239.082322 3.8495.082321-1.9248.16464 2.8872.082322-.96239.16464 3.8495.082322.96239.16464 2.8872.082322.96239.082322-2.8872.16464 3.8495h.082322l.82322 20.21.16464 3.8495.7409 15.398h.082322l.65858 6.7367h.082322l.16464.96239h.16464l.082322-1.9248.32929 4.8119.082322-.96239h.082322l.16464-.96239.49393 6.7367.082322-.96239h.16464l.16464 3.8496h.16464l.16464.96239.082322 12.511.082321-.96239h.16464l.16464.96239h.082322l.32929 2.8872h.082322l.24696 2.8872.082322-.96239.41161 3.8495h.16464l.24696-2.8872.082322.96239.082322-.96239.082322.96239.16464-1.9248.16464-2.8872h.082322l.24696-1.9248h.41161l.082322-.96239.082322.96239.24697-1.9248h.082321l.082322-.96239.16464.96239h.16464l.16464-2.8872h.16464l.65857-6.7367.082322.96239.16464-1.9248h.082322l.082321-.96239.16464.96239.16464-1.9248.082322.96239.16464-.96239.41161 4.8119.32929-2.8872h.16464l.24697 2.8872.49393-9.6239.082322-.96239.082321.96239.16464-.96239.24697 1.9248h.24696l.16464-1.9248.082321.96239.082322-.96239.082322.96239.32929-5.7743h.082322l.082322-2.8872.082322.96239h.082322l.16464-1.9248.16464.96239h.082322l.16464.96239.32929-2.8872h.082322l.082321.96239.16464-1.9248h.082322l.16464-3.8495.16464.96239.16464-.96239.082322.96239.24696-6.7367.32929 2.8872h.082322l.16464-2.8872.082322 1.9248.16464-5.7743.16464-1.9248.41161-5.7743.16464-7.6991.32929-4.8119.24697-4.8119.16464-1.9248.16464-7.6991.32929-18.285.24697-7.6991.082322-4.8119.082321.96239.57625-16.361.16464-.96239.24696 3.8495.16464-6.7367.082322 1.9248h.082322l.16464-3.8496.16464 2.8872.24696 2.8872.32929 9.6239h.16464l.16464 1.9248.41161 14.436.16464 2.8872.082322.96239.082321-.96239.32929 15.398.082321-.96239.16464 5.7743.16464 2.8872.082322-.96239.24696 8.6615h.082322l.082322.96239.24696 4.8119.24697 3.8495.24696 4.8119h.082322l.57625 13.473.082322-.96239.57625 11.549.16464 2.8872.24696 5.7743.16464.96239h.082322l.41161 3.8496h.082322l.57625 5.7743h.41161l.41161 4.8119.16464-.96239h.16464l.24697 3.8495.16464 2.8872h.082322l.16464-1.9248.16464.96239h.24697l.32929-2.8872h.082322l.16464.96239h.082322l.16464-1.9248h.32929l.24697 1.9248h.32929l.16464.96239.16464-.96239.16464.96239h.49393l.082322-.96239.16464.96239h.082321l.082322-1.9248.082322.96239.41161-3.8495h.16464l.16464.96239h.082321l.24697 1.9248.16464-1.9248h.082322l.082322-.96239.16464.96239h.082322l.32929-2.8872.16464 2.8872h.082321l.24697-1.9248h.082322l.41161-3.8496h.082322l.16464-2.8872.41161 3.8496.24697-3.8496.16464.96239.082321-1.9248.16464 1.9248.082322-1.9248.082322 1.9248.32929-3.8496.16464 2.8872.082321-.96239.082322 1.9248.24697-1.9248h.082322l.16464-1.9248.16464-.96239.082322.96239.32929-3.8495.082322.96239.49393-6.7367.082322-1.9248.16464 1.9248.082322-.96239.082322 1.9248.32929-7.6991h.082322l.49393-6.7367.16464-3.8496.16464-4.8119.16464-5.7743.082322 1.9248.49393-6.7367.41161-16.361.32929-22.135.16464-5.7743.082322.96239.082321-.96239.16464-7.6991h.082322l.082322-.96239.082322-3.8495.082321.96239.16464-3.8495h.082322l.16464-2.8872h.24697l.24696-9.6239.49393 13.473.24697 5.7743.082322-1.9248.82322 25.984h.082322l.57625 14.436.082322 4.8119.082322-.96239.082322.96239.57625 16.361.41161 7.6991.082322-.96239.49393 9.6239h.082321l.65858 7.6991.16464 3.8496.24696 1.9248h.082322l.16464.96239h.082321l.32929 2.8872h.41161l.16464 1.9248.16464 2.8872.082322-.96239.32929 2.8872h.082322l.41161 3.8495h.16464l.16464 2.8872h.082321l.082322-.96239.16464.96239h.16464l.16464.96239h.32929l.24697-1.9248.32929 2.8872h.16464l.082322-.96239.16464 1.9248h.082322l.24697-1.9248.082322 1.9248.082321-.96239.082322.96239.082322-.96239.082322.96239.41161-3.8495h.32929l.082322-1.9248.16464.96239h.16464l.24697 1.9248.082322-.96239.082321.96239.082322-.96239.24697 1.9248h.082322l.16464-1.9248.24697-1.9248h.082322l.16464-1.9248h.082322l.16464-.96239h.082322l.16464-2.8872h.16464l.16464.96239h.16464l.32929-2.8872h.082322l.32929-3.8496.082321.96239.082322-1.9248.082322.96239.24696-1.9248.16464.96239h.082322l.32929-5.7743h.16464l.16464-.96239.16464 1.9248h.24697l.082322-1.9248.16464 1.9248.24697-4.8119h.082321l.082322.96239.16464-2.8872h.082322l.16464-2.8872.16464 1.9248.24697-3.8495.082321.96239.082322-.96239.16464.96239h.082322l.16464-3.8495h.082322l.24697 4.8119.16464-3.8495h.082322l.16464-1.9248.24696-4.8119.082322-.96239.24696 3.8496.082322-3.8496.16464 1.9248.57625-16.361.082322-.96239.90554-48.119h.16464l.082322-5.7743.082322.96239.082322-2.8872.24696-14.436.082322 2.8872.24697-6.7367.082321-2.8872.082322 1.9248.24697-3.8495.24696-4.8119.082322-.96239.16464 3.8495.082321-.96239.16464 1.9248.16464 10.586.082322.96239.24696 4.8119.082322 1.9248.16464-.96239.082321 1.9248.082322-1.9248.082322.96239.082322-1.9248.082322.96239.24696 13.473h.082322l.49393 9.6239.16464.96239.32929 12.511.082322-.96239.41161 11.549.32929 4.8119.7409 22.135.49393 4.8119.16464-.96239.49393 4.8119h.082322l.32929 2.8872h.082322l.16464 1.9248.32929 2.8872h.082322l.16464 3.8495.24697 3.8495h.082322l.16464 4.8119.82322 8.6615h.082321l.16464.96239h.32929l.16464-.96239h.082322l.16464.96239.082321-.96239.24697 1.9248h.082322l.57625 5.7743.16464-.96239h.16464l.16464-1.9248h.16464l.082322.96239.24696-1.9248h.082322l.16464-1.9248.16464.96239h.16464l.16464-.96239h.32929l.16464 1.9248h.082322l.24696-1.9248.082322.96239.16464-.96239.082322 1.9248.16464-1.9248.16464.96239.082321-1.9248.082322.96239.082322-.96239.49393 4.8119.49393-10.586h.082322l.082322.96239.32929-4.8119.16464 1.9248.24696-1.9248h.082322l.16464 1.9248h.082321l.32929-3.8495.082321 2.8872.082322-.96239h.082322l.16464-1.9248.16464.96239.16464-3.8495h.16464l.16464 2.8872.16464-1.9248.082322.96239.082322-.96239.082321.96239.082322-1.9248.082322 1.9248.082322-.96239.24696-4.8119h.082322l.082322-.96239.16464-5.7743.32929 2.8872.16464-.96239.16464.96239h.16464l.082322.96239.082322-.96239.082321.96239.082322-1.9248.082322 2.8872.24697-6.7367.082321-1.9248.082322.96239.16464-9.6239.16464-.96239.32929-11.549h.082322l.24696-10.586.082322-1.9248.57625-39.458.082322 1.9248.082321-.96239.24697-10.586.082322-.96239.24696-16.361.082322 3.8495.082322-2.8872.082322.96239h.082321l.16464-4.8119.32929-7.6991.16464 1.9248h.082322l.16464 5.7743.082321-1.9248.32929 15.398.082321-.96239h.082322l.082322-.96239.16464 2.8872.24696 15.398.82322 36.571.16464-.96239.16464 4.8119.082322-1.9248.16464 4.8119h.082322l.32929 11.549.41161 5.7743.32929 7.6991.16464 1.9248.082322-.96239.32929 5.7743.082321-.96239.16464.96239h.16464l.16464 1.9248.32929 2.8872h.082321l.24697 3.8495h.16464l.16464 2.8872.082322-.96239h.16464l.24696 1.9248h.16464l.16464-1.9248.16464 1.9248.16464 11.549h.16464l.16464 1.9248.082322-.96239.16464 1.9248.24696-1.9248.16464 1.9248h.16464l.082322.96239.16464-1.9248.16464.96239h.082322l.24697-1.9248h.082322l.16464 2.8872.16464 2.8872h.24696l.24697 1.9248h.082322l.16464 1.9248h.24697l.082322-.96239.16464.96239h.16464l.16464-.96239.082321.96239.082322-.96239.32929 2.8872.16464-2.8872h.24697l.16464-.96239h.082322l.16464.96239h.32929l.24697-2.8872.16464.96239h.082322l.16464 1.9248h.082322l.24696-3.8495.082322.96239h.082322l.082321-2.8872.41161 7.6991.32929-2.8872.16464 1.9248h.082321l.16464-1.9248h.082322l.16464.96239h.082322l.41161-3.8495h.16464l.082322-.96239.082322-2.8872.16464 1.9248h.082322l.41161-8.6615h.082322l.24697-3.8495.082321-.96239.24697 3.8495.32929-2.8872.082322 1.9248.082322-.96239.082322-2.8872.082322.96239.32929-6.7367.082322.96239.24696-2.8872.16464 1.9248.082322-1.9248.082321 1.9248.24697-3.8495h.24696l.16464-3.8495.082322.96239.082322-3.8495.082321.96239.16464-.96239.16464.96239h.16464l.24697-9.6239.16464-2.8872.24696-3.8495h.082322l.082322-1.9248.49393-23.097.82322-28.872.082322.96239.16464-1.9248.16464-12.511m.16464 22.135.16464-8.6615.082322 24.06.082322-7.6991.16464-3.8495.32929-9.6239.16464-4.8119h.16464l.16464-1.9248.24696 9.6239.082322-3.8496.32929 6.7367.16464-1.9248.49393 13.473.082322-.96239h.082322l.082322.96239.16464-.96239.082322 1.9248.082322-.96239.57625 16.361.57625 12.511h.082322l.24697 4.8119.082322.96239.24696 9.6239h.082322l1.4818 17.323.16464 2.8872.32929 2.8872h.082321l.082322.96239.16464 3.8496h.082322l.082322.96239h.49393l.082321-.96239.16464.96239h.16464l.24696 4.8119h.082322l.082322.96239.24696-1.9248h.082322l.24697 1.9248h.082321l.32929-2.8872h.082321l.16464 2.8872.082322-.96239.16464-.96239.16464.96239h.16464l.082322.96239.082322-2.8872.082321.96239h.32929l.082321-.96239.16464.96239.082322 4.8119.082322-.96239.16464.96239.16464-.96239.16464.96239.082322-.96239.082321.96239.16464-2.8872h.082322l.24696 1.9248.16464-.96239h.16464l.082321.96239.082322-1.9248.16464 2.8872.16464-.96239h.082321l.32929-3.8496.082322 1.9248.24696-4.8119.082322-.96239.24696-6.7367.24697-2.8872.082322.96239.16464-1.9248.24697 1.9248.16464-1.9248.16464-4.8119h.16464l.16464-1.9248.082322.96239.16464-2.8872.082322-.96239.082321.96239.24697-4.8119.082322-.96239.082322.96239.16464-2.8872.082322 2.8872.082322-1.9248.16464 1.9248.16464-1.9248h.082322l.082322-1.9248.082322 2.8872.082321-.96239.16464.96239.16464-2.8872.082322.96239.082321-3.8495.082322.96239h.082322l.24697 3.8495.16464.96239h.082322l.16464 3.8495.082322-.96239.16464 4.8119.082322-1.9248.16464 4.8119.24696-4.8119h.082322l.16464 1.9248h.082321l.082322-1.9248.082322-4.8119.16464 1.9248.16464.96239.24697-4.8119.082322.96239.24696-12.511.32929-13.473.082322.96239.082322-1.9248 1.3995-78.916h.082322l.24696-8.6615.24697-7.6991.41161 4.8119.082322-1.9248.32929 3.8495.082322-.96239.57625 18.285.16464-1.9248.16464 4.8119h.082322l.16464 3.8495.082321-.96239.16464 5.7743.24696 9.6239h.082322l.16464 4.8119.16464 2.8872.082321-.96239.24697 3.8495.082322 1.9248.24696 9.6239.16464.96239.32929 13.473.32929 12.511.082322-.96239.16464 2.8872.32929 9.6239h.082322l.57625 11.549.98786 10.586h.082322l.41161 4.8119.24696 7.6991.24697-1.9248h.16464l.24697 3.8495h.16464l.32929 2.8872h.082321l.24697 1.9248h.082322l.16464 1.9248.16464-.96239.16464.96239h.16464l.24697-1.9248h.082322l.16464 1.9248.16464-1.9248h.24696l.24697 1.9248.57625-5.7743h.16464l.16464-.96239.082322.96239.16464-.96239h.082322l.16464-1.9248.16464-.96239h.082321l.24697 1.9248.16464-1.9248.082321-.96239.082322 1.9248.24697-1.9248.082322.96239.65857-6.7367.082322.96239.49393-8.6615.24696 3.8495.16464-3.8495h.082322l.082322-1.9248.082321.96239.49393-5.7743.24697 1.9248.24696-6.7367.082322 1.9248.16464-4.8119.082322 1.9248.32929-3.8495.082322.96239.082322-1.9248.16464 1.9248.082322-1.9248.16464.96239.082322-1.9248.41161 3.8496h.082322l.57625-5.7743.16464 3.8495.41161.96239.32929 7.6991h.16464l.082322-.96239.082322 11.549.082321-2.8872.082322 1.9248.41161-4.8119.41161-15.398h.082321l.082322.96239.082322 19.248.082322-3.8495.24696-5.7743.57625-34.646.16464-5.7743.41161-15.398.24696-6.7367.32929-15.398.082321-.96239.49393-13.473h.082322l.082322 1.9248.082322 5.7743.082322-1.9248h.082322l.16464-4.8119.41161 9.6239.082322-2.8872.7409 29.834.90554 37.533h.082321l.41161 10.586.16464 4.8119.082322-.96239.16464-.96239.41161 11.549.082322.96239.16464 6.7367h.24697l.16464 2.8872.24697 6.7367h.082322l.32929 4.8119.41161 8.6615h.082322l.24696 3.8495.16464-.96239h.16464l.082322-1.9248.49393 5.7743.082321-.96239.16464 1.9248.16464-.96239h.082322l.16464 2.8872h.082322l.16464-.96239h.24696l.16464-.96239.16464 1.9248.16464-.96239.16464.96239h.082322l.16464 1.9248h.082322l.082322-.96239.16464.96239h.082322l.082322-.96239.16464 1.9248h.24696l.082322 1.9248.16464-.96239h.082322l.082321 1.9248.16464-.96239h.082322l.082322.96239.24696-1.9248.082322.96239.24696-2.8872.16464.96239h.24697l.082321.96239.16464-.96239h.16464l.16464-.96239h.32929l.082321.96239.16464-.96239.16464 1.9248.082322.96239.082321-.96239.082322 1.9248.16464-.96239h.16464l.082321.96239.24697-1.9248h.16464l.24697-1.9248.082322.96239.082322-.96239.082321.96239.24697-1.9248h.16464l.16464-1.9248.49393-4.8119h.082322l.16464-2.8872h.24696l.16464-.96239.082322.96239.16464-1.9248.082322.96239.16464-2.8872.16464 1.9248h.082322l.082322-1.9248.16464.96239.16464-.96239h.082322l.24697-2.8872.082321.96239.49393-4.8119h.082322l.082322-1.9248.082322.96239.082322-.96239.082322.96239.082321-.96239.082322.96239.082322-2.8872.082322.96239h.082322l.16464-2.8872.16464 1.9248.082322-1.9248.24696 2.8872.16464-2.8872h.082322l.41161-10.586.16464-6.7367.16464 1.9248.32929-3.8496.16464-5.7743.41161-7.6991.32929-22.135.24696-11.549.24696-13.473.082322 1.9248.41161-12.511.082322.96239.16464-1.9248.32929-4.8119.16464-2.8872.082322 1.9248.082321-.96239.16464-3.8495h.16464l.24696 2.8872.16464 3.8495.082322 31.759.082322-6.7367.082321-.96239.16464 5.7743h.082322l.082322-.96239.16464 5.7743h.16464l.32929 8.6615.24697 9.6239.082322-.96239.16464 5.7743.082322-.96239.49393 14.436.32929 3.8495.082322-.96239.16464 4.8119h.082322l.24696 2.8872.41161 12.511h.16464l.082322 1.9248.082321-.96239.65858 8.6615.24697 3.8495h.24696l.57625 5.7743h.32929l.082322.96239.082322 2.8872.082322-.96239h.24696l.16464-.96239.082322.96239.16464 4.8119h.082322l.082322-.96239.32929 5.7743.24697 1.9248h.16464l.082322-.96239.082322.96239.16464-.96239h.082321l.16464-1.9248.32929 2.8872h.24697l.24696-1.9248h.16464l.24696 1.9248.16464-1.9248h.082322l.24696 1.9248h.082322l.16464 1.9248.082322.96239.32929-2.8872h.32929l.16464-1.9248.24696-1.9248h.082322l.16464-.96239h.24696l.082322-.96239.16464 1.9248h.082322l.082321-.96239.16464.96239.16464-.96239h.16464l.082322-1.9248.16464.96239h.082322l.16464-1.9248.082322.96239.16464-1.9248.16464.96239h.082322l.16464.96239.16464-2.8872.082321.96239.49393-4.8119h.16464l.24697-3.8495h.16464l.16464-1.9248h.16464l.082322.96239.24697-1.9248.082322.96239.16464-2.8872.16464 1.9248.24696-4.8119h.082322l.24697 2.8872.082321-1.9248.16464.96239.57625-5.7743.16464 1.9248.16464-3.8496.082322 1.9248.32929-3.8495.082322 1.9248.082322-.96239.32929-11.549.24697 2.8872.24696-7.6991.24697-5.7743.082322 3.8495.16464-3.8495.16464-5.7743.16464-6.7367h.082322l.082322 1.9248.49393-26.947.16464-.96239.24696-15.398.16464 2.8872h.082322l.32929-14.436.082322-.96239.41161-10.586.082322-.96239.16464 3.8495.16464-.96239h.082322l.16464 35.608.65857 11.549.16464-8.6615.082322-.96239.16464 1.9248.16464-4.8119h.082322l.16464 8.6615.16464-2.8872.082322 5.7743.082322-.96239.16464 1.9248h.082322l.082322 1.9248.24696 9.6239.082322-.96239.57625 11.549.082322.96239.24696 5.7743h.082322l.24697 3.8495.65857 14.436h.082322l.16464-.96239h.082322l.082321-.96239.16464 1.9248.24696 5.7743.16464.96239h.16464l.57625 5.7743h.082321l.16464.96239h.24697l.24696 3.8495h.24696v0" clip-path="url(#c)" fill="none" stroke="#28f" stroke-linecap="square" stroke-width="1.5"/>
   </g>
   <g id="da">
    <path d="m40.84 259.78v-232.9" fill="none" stroke="#000" stroke-linecap="square" stroke-width=".8"/>
   </g>
   <g id="db">
    <path d="m853.2 259.78v-232.9" fill="none" stroke="#000" stroke-linecap="square" stroke-width=".8"/>
   </g>
   <g id="dc">
    <path d="m40.84 259.78h812.36" fill="none" stroke="#000" stroke-linecap="square" stroke-width=".8"/>
   </g>
   <g id="dd">
    <path d="m40.84 26.88h812.36" fill="none" stroke="#000" stroke-linecap="square" stroke-width=".8"/>
   </g>
   <g id="de">
    <!-- 同時接続数の推移 -->
    <g transform="translate(399.02 20.88) scale(.12 -.12)">
     <defs>
      <path id="v" transform="scale(.015625)" d="m1587 3936h3232v-518h-3232v518zm320-1114h557v-2534h-557v2534zm301 0h2291v-2086h-2291v512h1734v1069h-1734v505zm-1683 2260h5113v-570h-4524v-5056h-589v5626zm4768 0h595v-4896q0-250-67-397t-227-218q-160-77-426-96t-675-19q-13 83-45 192t-77 218q-45 108-89 185 281-13 527-13 247 0 330 0 83 7 118 42 36 35 36 112v4890z"/>
      <path id="t" transform="scale(.015625)" d="m2714 4672h3238v-525h-3238v525zm-244-1235h3712v-538h-3712v538zm20-1184h3635v-531h-3635v531zm1523 3155h595v-2310h-595v2310zm832-2451h589v-2823q0-230-61-364-61-135-227-199-167-70-423-86t-633-16q-20 121-78 285-57 163-121 284 275-6 509-9t310-3q77 6 106 28 29 23 29 93v2810zm-2023-1677 487 282q153-160 313-352t294-381q135-189 206-343l-519-313q-64 153-189 348-124 196-278 394-154 199-314 365zm-2086 3718h1619v-4281h-1619v544h1056v3187h-1056v550zm32-1843h1293v-537h-1293v537zm-320 1843h563v-4832h-563v4832z"/>
      <path id="u" transform="scale(.015625)" d="m3866 5408h614v-870h-614v870zm-1479-653h3597v-518h-3597v518zm-230-1485h4e3v-518h-4e3v518zm825 922 519 102q64-160 121-342 58-182 96-352 39-170 45-304l-544-128q-6 134-42 313-35 180-83 365-48 186-112 346zm1856 109 589-71q-96-275-202-557-105-281-195-486l-518 77q58 147 122 329 64 183 118 372t86 336zm-2643-2106h3943v-518h-3943v518zm1408 685 602-115q-167-371-362-784t-390-797-362-685l-525 179q160 288 346 666t368 784 323 752zm-659-2157 358 403q352-102 733-240 381-137 752-304 371-166 697-336 327-169 558-329l-384-461q-218 160-532 336-313 176-685 345-371 170-755 323-384 154-742 263zm1894 1114 583-71q-122-550-353-944-230-393-604-662t-922-435q-547-167-1296-269-25 128-93 269-67 141-137 230 678 64 1168 192t819 349q330 221 531 550 202 330 304 791zm-4684 217q396 90 953 240 557 151 1120 311l77-544q-525-154-1053-311-528-156-963-284l-134 588zm121 2093h1965v-563h-1965v563zm819 1248h576v-5229q0-236-51-374t-192-208q-141-77-355-99-214-23-541-16-13 115-64 288t-109 294q205-6 381-6t234 0q64 0 92 28 29 29 29 93v5229z"/>
      <path id="s" transform="scale(.015625)" d="m4058 5408h595v-1798h-595v1798zm-1415-563h3443v-499h-3443v499zm231-992h3008v-499h-3008v499zm-224-877h3475v-1203h-531v729h-2432v-729h-512v1203zm1964-877h551v-1881q0-122 22-157 23-35 106-35 25 0 92 0 68 0 135 0t99 0q51 0 83 54t45 224 19 515q90-70 234-131t259-93q-19-429-83-662-64-234-183-326-118-93-316-93-39 0-103 0t-134 0-138 0q-67 0-99 0-237 0-365 64t-176 218q-48 153-48 422v1881zm-1164-6h550v-455q0-243-48-528-48-284-186-579-137-294-409-572-272-279-727-503-70 90-192 208-121 118-230 195 416 205 665 438 250 234 371 474 122 240 164 467 42 228 42 413v442zm-2240 3309 524-192q-121-244-259-503-137-259-275-496t-259-416l-410 173q122 186 246 438 125 253 240 515 116 263 193 481zm716-743 500-230q-224-359-496-756-272-396-548-764-275-368-518-650l-358 205q179 211 377 483 199 272 387 569 189 298 358 592 170 295 298 551zm-1721-665 307 403q166-154 339-340 173-185 320-364t224-327l-326-460q-77 160-218 348-141 189-314 384-172 196-332 356zm1485-832 435 179q128-211 249-458 122-246 215-474 93-227 137-412l-473-211q-32 185-119 422-86 237-201 486-115 250-243 468zm-1530-583q422 26 998 54 576 29 1184 68l7-499q-570-45-1127-84-556-38-992-70l-70 531zm1702-992 436 135q121-276 214-596t118-556l-454-148q-26 237-112 563-86 327-202 602zm-1363 109 499-83q-57-455-163-897-105-441-253-748-51 32-134 73-83 42-170 83-86 42-144 62 148 294 234 697t131 813zm691 627h525v-2861h-525v2861z"/>
      <path id="o" transform="scale(.015625)" d="m224 2022h3187v-499h-3187v499zm51 2247h3111v-487h-3111v487zm1127-1735 563-121q-154-320-333-672t-352-679q-173-326-326-582l-532 173q148 243 324 566t345 669q170 346 311 646zm934-832 563-64q-89-480-262-838t-461-614-701-432-976-298q-25 128-99 269t-157 237q659 102 1085 303 426 202 666 554t342 883zm422 3597 519-211q-147-218-298-436-150-217-278-377l-403 186q121 173 252 413 132 240 208 425zm-1203 109h563v-2957h-563v2957zm-1075-320 448 186q134-192 246-420 112-227 157-393l-467-211q-38 172-147 406t-237 432zm1094-1050 397-236q-160-263-400-529-240-265-519-489-278-224-553-378-51 103-141 237-89 135-179 218 269 109 534 294 266 186 493 416 228 231 368 467zm487-204q83-45 246-145 163-99 352-211t346-211 221-150l-327-423q-83 77-230 198-147 122-317 253-170 132-327 250-156 119-259 189l295 250zm1798 396h2311v-556h-2311v556zm115 1178 615-90q-103-640-263-1235t-384-1101q-224-505-512-889-44 57-134 134t-186 157-166 125q275 339 473 796 199 458 340 995 141 538 217 1108zm1223-1510 614-58q-147-1101-445-1940-297-838-813-1443-515-604-1321-1014-26 71-90 177-64 105-134 208-70 102-128 159 742 346 1212 880 471 535 730 1290 260 755 375 1741zm-1005-135q134-851 387-1597 253-745 659-1305 407-560 1002-874-70-57-154-150-83-93-154-189-70-96-121-179-633 371-1056 988-422 618-688 1434-265 816-425 1783l550 89zm-3309-3065 327 416q377-148 754-330 378-182 701-378 324-195 548-368l-416-435q-211 179-519 378-307 198-666 383-358 186-729 334z"/>
      <path id="r" transform="scale(.015625)" d="m3686 4378q-64-493-163-1041-99-547-265-1084-192-653-432-1104t-522-688-595-237q-320 0-596 221-275 221-448 621-172 400-172 931 0 537 220 1017 221 480 611 851 391 372 909 583 519 211 1121 211 576 0 1040-186 464-185 793-515 330-329 502-771 173-441 173-941 0-672-278-1194-278-521-816-851-538-329-1318-444l-378 601q166 20 307 42t263 48q307 70 585 217 279 148 496 375 218 227 342 534 125 308 125 692t-122 713q-121 330-358 573-236 243-582 380-346 138-781 138-525 0-935-186-409-185-694-489-284-304-432-656-147-352-147-678 0-365 89-605 90-240 224-355 135-115 276-115t288 144 297 457q151 314 298 800 147 461 246 982 100 522 145 1021l684-12z"/>
      <path id="p" transform="scale(.015625)" d="m2995 2925h2893v-519h-2893v519zm0-1280h2893v-519h-2893v519zm-64-1299h3232v-557h-3232v557zm1312 3577h563v-3763h-563v3763zm429 1466 634-141q-154-390-340-794-185-403-339-684l-512 140q103 199 208 458 106 259 195 528 90 269 154 493zm-1472 25 582-147q-153-518-371-1018-217-499-483-931t-573-758q-38 64-109 160-70 96-147 198-77 103-141 160 416 416 733 1034t509 1302zm128-1203h2720v-537h-2720v-4205h-582v4422l313 320h269zm-3174-2157q396 90 953 240 557 151 1120 311l77-544q-525-154-1053-311-528-156-963-284l-134 588zm121 2093h1965v-563h-1965v563zm819 1248h576v-5229q0-236-51-374t-192-208q-141-77-355-99-214-23-541-16-13 115-64 288t-109 294q205-6 381-6t234 0q64 0 92 28 29 29 29 93v5229z"/>
      <path id="n" transform="scale(.015625)" d="m4051 5402 595-109q-281-493-729-941t-1107-806q-39 64-106 144t-141 153q-73 74-137 119 608 288 1011 678t614 762zm-77-557h1511v-493h-1863l352 493zm1293 0h109l109 25 384-179q-192-505-496-905t-695-701q-390-301-845-519-454-217-947-358-44 109-137 253t-176 227q448 109 867 294 419 186 777 445 359 259 631 592t419 730v96zm-1990-954 377 307q167-96 336-218 170-121 320-249 151-128 247-237l-397-332q-90 108-237 236t-317 259q-169 132-329 234zm1107-934 595-109q-307-538-803-1031-496-492-1232-876-38 64-102 144t-138 156q-74 77-138 116 455 217 807 483t604 554q253 288 407 563zm-90-589h1460v-506h-1818l358 506zm1268 0h121l109 26 384-167q-192-614-531-1075t-787-794q-448-332-983-553-534-221-1129-355-45 115-132 269-86 153-176 249 551 96 1043 285 493 189 903 473 410 285 714 669t464 883v90zm-2132-1056 410 339q186-102 384-237 198-134 371-275t282-269l-435-371q-103 128-270 272-166 144-361 288t-381 253zm-2150 3533h589v-5376h-589v5376zm-992-1242h2336v-569h-2336v569zm1024-224 365-160q-96-339-231-707-134-368-291-727-157-358-336-672-179-313-365-537-44 128-134 291t-160 272q173 192 339 457 167 266 323 570 157 304 282 618t208 595zm941 1946 416-467q-314-122-695-221-380-99-784-173-403-74-780-131-20 102-71 236-51 135-102 231 358 58 732 138 375 80 711 179t573 208zm-397-2579q58-45 179-170 122-125 266-266 144-140 259-265t160-183l-352-473q-58 102-157 255-99 154-218 317-118 164-227 311-108 147-185 237l275 237z"/>
     </defs>
     <use xlink:href="#v"/>
     <use transform="translate(100)" xlink:href="#t"/>
     <use transform="translate(200)" xlink:href="#u"/>
     <use transform="translate(300)" xlink:href="#s"/>
     <use transform="translate(400)" xlink:href="#o"/>
     <use transform="translate(500)" xlink:href="#r"/>
     <use transform="translate(600)" xlink:href="#p"/>
     <use transform="translate(700)" xlink:href="#n"/>
    </g>
   </g>
  </g>
  <g id="df">
   <g id="dg">
    <path d="m40.84 523.06h812.36v-232.9h-812.36z" fill="#fff"/>
   </g>
   <g id="dh">
    <path d="m114.4 523.06h.16464v-232.9h-.16464z" clip-path="url(#d)" fill="#ddd" stroke="#ddd"/>
   </g>
   <g id="di">
    <path d="m148.64 523.06h.16464v-232.9h-.16464z" clip-path="url(#d)" fill="#ddd" stroke="#ddd"/>
   </g>
   <g id="dj">
    <path d="m503.37 523.06h.32929v-232.9h-.32929z" clip-path="url(#d)" fill="#ddd" stroke="#ddd"/>
   </g>
   <g id="dk">
    <path d="m503.86 523.06h.16464v-232.9h-.16464z" clip-path="url(#d)" fill="#ddd" stroke="#ddd"/>
   </g>
   <g id="dl">
    <path d="m713.54 523.06h.16464v-232.9h-.16464z" clip-path="url(#d)" fill="#ddd" stroke="#ddd"/>
   </g>
   <g id="dm">
    <g id="dn">
     <g id="do">
      <path d="m98.593 523.06v-232.9" clip-path="url(#d)" fill="none" stroke="#b0b0b0" stroke-linecap="square" stroke-opacity=".3" stroke-width=".8"/>
     </g>
     <g id="dp">
      <use x="98.592876" y="523.055464" stroke="#000000" stroke-width=".8" xlink:href="#f"/>
     </g>
     <g id="dq">
      <!-- 2026-08-17 -->
      <g transform="translate(51.803 563.33) rotate(-30) scale(.1 -.1)">
       <defs>
        <path id="j" transform="scale(.015625)" d="m1971-90q-339 0-634 144-294 144-518 435-224 292-352 733-128 442-128 1044 0 678 147 1161 148 483 397 784 250 301 570 445t665 144q397 0 688-147 292-147 490-359l-403-448q-128 154-327 253-198 99-409 99-307 0-567-182-259-182-413-605-153-422-153-1145 0-608 115-1002t326-589q212-195 493-195 212 0 375 121 163 122 259 343t96 522q0 300-90 511-89 212-259 320-169 109-419 109-211 0-451-134t-458-461l-25 538q134 192 313 323t374 201q196 71 375 71 397 0 694-163 298-163 467-490 170-326 170-825 0-468-195-817-195-348-512-544-317-195-701-195z"/>
        <path id="h" transform="scale(.015625)" d="m301 1536v544h1689v-544h-1689z"/>
        <path id="m" transform="scale(.015625)" d="m1830-90q-441 0-787 163-345 164-547 448-202 285-202 650 0 314 122 557t314 419 403 291v32q-256 186-442 458-185 272-185 643 0 365 176 640t480 425q304 151 694 151 410 0 704-160t457-439q164-278 164-649 0-237-96-448t-234-381q-137-169-291-278v-32q218-115 397-285 179-169 288-406t109-557q0-346-189-628-189-281-532-448-342-166-803-166zm314 2708q205 198 310 419 106 221 106 464 0 211-83 384t-247 272q-163 99-393 99-288 0-480-183-192-182-192-502 0-256 134-429 135-172 359-294t486-230zm-294-2170q236 0 418 89 183 90 285 253 103 164 103 388 0 211-90 367-89 157-246 272-157 116-368 215t-454 195q-244-173-398-426-153-252-153-553 0-237 118-416 119-179 324-282 205-102 461-102z"/>
       </defs>
       <use xlink:href="#b"/>
       <use transform="translate(57)" xlink:href="#a"/>
       <use transform="translate(114)" xlink:href="#b"/>
       <use transform="translate(171)" xlink:href="#j"/>
       <use transform="translate(228)" xlink:href="#h"/>
       <use transform="translate(263.7)" xlink:href="#a"/>
       <use transform="translate(320.7)" xlink:href="#m"/>
       <use transform="translate(377.7)" xlink:href="#h"/>
       <use transform="translate(413.4)" xlink:href="#i"/>
       <use transform="translate(470.4)" xlink:href="#l"/>
      </g>
     </g>
    </g>
    <g id="dr">
     <g id="ds">
      <path d="m193.43 523.06v-232.9" clip-path="url(#d)" fill="none" stroke="#b0b0b0" stroke-linecap="square" stroke-opacity=".3" stroke-width=".8"/>
     </g>
     <g id="dt">
      <use x="193.427618" y="523.055464" stroke="#000000" stroke-width=".8" xlink:href="#f"/>
     </g>
     <g id="du">
      <!-- 2026-08-21 -->
      <g transform="translate(146.64 563.33) rotate(-30) scale(.1 -.1)">
       <use xlink:href="#b"/>
       <use transform="translate(57)" xlink:href="#a"/>
       <use transform="translate(114)" xlink:href="#b"/>
       <use transform="translate(171)" xlink:href="#j"/>
       <use transform="translate(228)" xlink:href="#h"/>
       <use transform="translate(263.7)" xlink:href="#a"/>
       <use transform="translate(320.7)" xlink:href="#m"/>
       <use transform="translate(377.7)" xlink:href="#h"/>
       <use transform="translate(413.4)" xlink:href="#b"/>
       <use transform="translate(470.4)" xlink:href="#i"/>
      </g>
     </g>
    </g>
    <g id="dv">
     <g id="dw">
      <path d="m288.26 523.06v-232.9" clip-path="url(#d)" fill="none" stroke="#b0b0b0" stroke-linecap="square" stroke-opacity=".3" stroke-width=".8"/>
     </g>
     <g id="dx">
      <use x="288.262361" y="523.055464" stroke="#000000" stroke-width=".8" xlink:href="#f"/>
     </g>
     <g id="dy">
      <!-- 2026-08-25 -->
      <g transform="translate(241.47 563.33) rotate(-30) scale(.1 -.1)">
       <use xlink:href="#b"/>
       <use transform="translate(57)" xlink:href="#a"/>
       <use transform="translate(114)" xlink:href="#b"/>
       <use transform="translate(171)" xlink:href="#j"/>
       <use transform="translate(228)" xlink:href="#h"/>
       <use transform="translate(263.7)" xlink:href="#a"/>
       <use transform="translate(320.7)" xlink:href="#m"/>
       <use transform="translate(377.7)" xlink:href="#h"/>
       <use transform="translate(413.4)" xlink:href="#b"/>
       <use transform="translate(470.4)" xlink:href="#e"/>
      </g>
     </g>
    </g>
    <g id="dz">
     <g id="ea">
      <path d="m383.1 523.06v-232.9" clip-path="url(#d)" fill="none" stroke="#b0b0b0" stroke-linecap="square" stroke-opacity=".3" stroke-width=".8"/>
     </g>
     <g id="eb">
      <use x="383.097103" y="523.055464" stroke="#000000" stroke-width=".8" xlink:href="#f"/>
     </g>
     <g id="ec">
      <!-- 2026-08-29 -->
      <g transform="translate(336.31 563.33) rotate(-30) scale(.1 -.1)">
       <defs>
        <path id="k" transform="scale(.015625)" d="m1562-90q-410 0-708 150-297 151-502 356l403 461q141-160 346-256t422-96q224 0 425 102 202 103 352 333 151 230 237 614 87 384 87 941 0 589-115 970t-323 563-496 182q-205 0-372-118-166-118-262-336t-96-525q0-301 86-512 87-211 259-323 173-112 417-112 224 0 460 141 237 141 448 461l32-544q-134-180-313-314t-371-208-384-74q-391 0-689 166-297 167-467 496-169 330-169 823 0 467 195 816t515 541 698 192q339 0 636-138 298-137 519-419 221-281 349-710t128-1018q0-691-141-1187t-391-807q-249-310-563-461-313-150-652-150z"/>
       </defs>
       <use xlink:href="#b"/>
       <use transform="translate(57)" xlink:href="#a"/>
       <use transform="translate(114)" xlink:href="#b"/>
       <use transform="translate(171)" xlink:href="#j"/>
       <use transform="translate(228)" xlink:href="#h"/>
       <use transform="translate(263.7)" xlink:href="#a"/>
       <use transform="translate(320.7)" xlink:href="#m"/>
       <use transform="translate(377.7)" xlink:href="#h"/>
       <use transform="translate(413.4)" xlink:href="#b"/>
       <use transform="translate(470.4)" xlink:href="#k"/>
      </g>
     </g>
    </g>
    <g id="ed">
     <g id="ee">
      <path d="m454.22 523.06v-232.9" clip-path="url(#d)" fill="none" stroke="#b0b0b0" stroke-linecap="square" stroke-opacity=".3" stroke-width=".8"/>
     </g>
     <g id="ef">
      <use x="454.22316" y="523.055464" stroke="#000000" stroke-width=".8" xlink:href="#f"/>
     </g>
     <g id="eg">
      <!-- 2026-09-01 -->
      <g transform="translate(407.43 563.33) rotate(-30) scale(.1 -.1)">
       <use xlink:href="#b"/>
       <use transform="translate(57)" xlink:href="#a"/>
       <use transform="translate(114)" xlink:href="#b"/>
       <use transform="translate(171)" xlink:href="#j"/>
       <use transform="translate(228)" xlink:href="#h"/>
       <use transform="translate(263.7)" xlink:href="#a"/>
       <use transform="translate(320.7)" xlink:href="#k"/>
       <use transform="translate(377.7)" xlink:href="#h"/>
       <use transform="translate(413.4)" xlink:href="#a"/>
       <use transform="translate(470.4)" xlink:href="#i"/>
      </g>
     </g>
    </g>
    <g id="eh">
     <g id="ei">
      <path d="m549.06 523.06v-232.9" clip-path="url(#d)" fill="none" stroke="#b0b0b0" stroke-linecap="square" stroke-opacity=".3" stroke-width=".8"/>
     </g>
     <g id="ej">
      <use x="549.057902" y="523.055464" stroke="#000000" stroke-width=".8" xlink:href="#f"/>
     </g>
     <g id="ek">
      <!-- 2026-09-05 -->
      <g transform="translate(502.27 563.33) rotate(-30) scale(.1 -.1)">
       <use xlink:href="#b"/>
       <use transform="translate(57)" xlink:href="#a"/>
       <use transform="translate(114)" xlink:href="#b"/>
       <use transform="translate(171)" xlink:href="#j"/>
       <use transform="translate(228)" xlink:href="#h"/>
       <use transform="translate(263.7)" xlink:href="#a"/>
       <use transform="translate(320.7)" xlink:href="#k"/>
       <use transform="translate(377.7)" xlink:href="#h"/>
       <use transform="translate(413.4)" xlink:href="#a"/>
       <use transform="translate(470.4)" xlink:href="#e"/>
      </g>
     </g>
    </g>
    <g id="el">
     <g id="em">
      <path d="m643.89 523.06v-232.9" clip-path="url(#d)" fill="none" stroke="#b0b0b0" stroke-linecap="square" stroke-opacity=".3" stroke-width=".8"/>
     </g>
     <g id="en">
      <use x="643.892644" y="523.055464" stroke="#000000" stroke-width=".8" xlink:href="#f"/>
     </g>
     <g id="eo">
      <!-- 2026-09-09 -->
      <g transform="translate(597.1 563.33) rotate(-30) scale(.1 -.1)">
       <use xlink:href="#b"/>
       <use transform="translate(57)" xlink:href="#a"/>
       <use transform="translate(114)" xlink:href="#b"/>
       <use transform="translate(171)" xlink:href="#j"/>
       <use transform="translate(228)" xlink:href="#h"/>
       <use transform="translate(263.7)" xlink:href="#a"/>
       <use transform="translate(320.7)" xlink:href="#k"/>
       <use transform="translate(377.7)" xlink:href="#h"/>
       <use transform="translate(413.4)" xlink:href="#a"/>
       <use transform="translate(470.4)" xlink:href="#k"/>
      </g>
     </g>
    </g>
    <g id="ep">
     <g id="eq">
      <path d="m738.73 523.06v-232.9" clip-path="url(#d)" fill="none" stroke="#b0b0b0" stroke-linecap="square" stroke-opacity=".3" stroke-width=".8"/>
     </g>
     <g id="er">
      <use x="738.727386" y="523.055464" stroke="#000000" stroke-width=".8" xlink:href="#f"/>
     </g>
     <g id="es">
      <!-- 2026-09-13 -->
      <g transform="translate(691.94 563.33) rotate(-30) scale(.1 -.1)">
       <defs>
        <path id="w" transform="scale(.015625)" d="m1715-90q-371 0-656 90t-503 240q-217 150-377 323l359 474q211-205 479-359 269-153 634-153 269 0 467 92 199 93 311 266t112 423q0 256-125 451t-429 300q-304 106-835 106v551q467 0 732 105 266 106 384 291 119 186 119 423 0 307-192 489-192 183-531 183-269 0-503-119-233-118-438-316l-384 460q282 256 614 413 333 157 737 157 422 0 748-144 327-144 512-413 186-269 186-659 0-403-221-685-221-281-592-422v-26q269-70 490-227t349-400 128-557q0-422-215-726-214-304-573-468-358-163-787-163z"/>
       </defs>
       <use xlink:href="#b"/>
       <use transform="translate(57)" xlink:href="#a"/>
       <use transform="translate(114)" xlink:href="#b"/>
       <use transform="translate(171)" xlink:href="#j"/>
       <use transform="translate(228)" xlink:href="#h"/>
       <use transform="translate(263.7)" xlink:href="#a"/>
       <use transform="translate(320.7)" xlink:href="#k"/>
       <use transform="translate(377.7)" xlink:href="#h"/>
       <use transform="translate(413.4)" xlink:href="#i"/>
       <use transform="translate(470.4)" xlink:href="#w"/>
      </g>
     </g>
    </g>
    <g id="et">
     <g id="eu">
      <path d="m833.56 523.06v-232.9" clip-path="url(#d)" fill="none" stroke="#b0b0b0" stroke-linecap="square" stroke-opacity=".3" stroke-width=".8"/>
     </g>
     <g id="ev">
      <use x="833.562129" y="523.055464" stroke="#000000" stroke-width=".8" xlink:href="#f"/>
     </g>
     <g id="ew">
      <!-- 2026-09-17 -->
      <g transform="translate(786.77 563.33) rotate(-30) scale(.1 -.1)">
       <use xlink:href="#b"/>
       <use transform="translate(57)" xlink:href="#a"/>
       <use transform="translate(114)" xlink:href="#b"/>
       <use transform="translate(171)" xlink:href="#j"/>
       <use transform="translate(228)" xlink:href="#h"/>
       <use transform="translate(263.7)" xlink:href="#a"/>
       <use transform="translate(320.7)" xlink:href="#k"/>
       <use transform="translate(377.7)" xlink:href="#h"/>
       <use transform="translate(413.4)" xlink:href="#i"/>
       <use transform="translate(470.4)" xlink:href="#l"/>
      </g>
     </g>
    </g>
   </g>
   <g id="ex">
    <g id="ey">
     <g id="ez">
      <path d="m40.84 505.57h812.36" clip-path="url(#d)" fill="none" stroke="#b0b0b0" stroke-linecap="square" stroke-opacity=".3" stroke-width=".8"/>
     </g>
     <g id="fa">
      <use x="40.84" y="505.56512" stroke="#000000" stroke-width=".8" xlink:href="#g"/>
     </g>
     <g id="fb">
      <!-- 5050 -->
      <g transform="translate(11.04 509.55) scale(.1 -.1)">
       <use xlink:href="#e"/>
       <use transform="translate(57)" xlink:href="#a"/>
       <use transform="translate(114)" xlink:href="#e"/>
       <use transform="translate(171)" xlink:href="#a"/>
      </g>
     </g>
    </g>
    <g id="fc">
     <g id="fd">
      <path d="m40.84 476.8h812.36" clip-path="url(#d)" fill="none" stroke="#b0b0b0" stroke-linecap="square" stroke-opacity=".3" stroke-width=".8"/>
     </g>
     <g id="fe">
      <use x="40.84" y="476.798108" stroke="#000000" stroke-width=".8" xlink:href="#g"/>
     </g>
     <g id="ff">
      <!-- 5075 -->
      <g transform="translate(11.04 480.78) scale(.1 -.1)">
       <use xlink:href="#e"/>
       <use transform="translate(57)" xlink:href="#a"/>
       <use transform="translate(114)" xlink:href="#l"/>
       <use transform="translate(171)" xlink:href="#e"/>
      </g>
     </g>
    </g>
    <g id="fg">
     <g id="fh">
      <path d="m40.84 448.03h812.36" clip-path="url(#d)" fill="none" stroke="#b0b0b0" stroke-linecap="square" stroke-opacity=".3" stroke-width=".8"/>
     </g>
     <g id="fi">
      <use x="40.84" y="448.031096" stroke="#000000" stroke-width=".8" xlink:href="#g"/>
     </g>
     <g id="fj">
      <!-- 5100 -->
      <g transform="translate(11.04 452.02) scale(.1 -.1)">
       <use xlink:href="#e"/>
       <use transform="translate(57)" xlink:href="#i"/>
       <use transform="translate(114)" xlink:href="#a"/>
       <use transform="translate(171)" xlink:href="#a"/>
      </g>
     </g>
    </g>
    <g id="fk">
     <g id="fl">
      <path d="m40.84 419.26h812.36" clip-path="url(#d)" fill="none" stroke="#b0b0b0" stroke-linecap="square" stroke-opacity=".3" stroke-width=".8"/>
     </g>
     <g id="fm">
      <use x="40.84" y="419.264083" stroke="#000000" stroke-width=".8" xlink:href="#g"/>
     </g>
     <g id="fn">
      <!-- 5125 -->
      <g transform="translate(11.04 423.25) scale(.1 -.1)">
       <use xlink:href="#e"/>
       <use transform="translate(57)" xlink:href="#i"/>
       <use transform="translate(114)" xlink:href="#b"/>
       <use transform="translate(171)" xlink:href="#e"/>
      </g>
     </g>
    </g>
    <g id="fo">
     <g id="fp">
      <path d="m40.84 390.5h812.36" clip-path="url(#d)" fill="none" stroke="#b0b0b0" stroke-linecap="square" stroke-opacity=".3" stroke-width=".8"/>
     </g>
     <g id="fq">
      <use x="40.84" y="390.497071" stroke="#000000" stroke-width=".8" xlink:href="#g"/>
     </g>
     <g id="fr">
      <!-- 5150 -->
      <g transform="translate(11.04 394.48) scale(.1 -.1)">
       <use xlink:href="#e"/>
       <use transform="translate(57)" xlink:href="#i"/>
       <use transform="translate(114)" xlink:href="#e"/>
       <use transform="translate(171)" xlink:href="#a"/>
      </g>
     </g>
    </g>
    <g id="fs">
     <g id="ft">
      <path d="m40.84 361.73h812.36" clip-path="url(#d)" fill="none" stroke="#b0b0b0" stroke-linecap="square" stroke-opacity=".3" stroke-width=".8"/>
     </g>
     <g id="fu">
      <use x="40.84" y="361.730059" stroke="#000000" stroke-width=".8" xlink:href="#g"/>
     </g>
     <g id="fv">
      <!-- 5175 -->
      <g transform="translate(11.04 365.72) scale(.1 -.1)">
       <use xlink:href="#e"/>
       <use transform="translate(57)" xlink:href="#i"/>
       <use transform="translate(114)" xlink:href="#l"/>
       <use transform="translate(171)" xlink:href="#e"/>
      </g>
     </g>
    </g>
    <g id="fw">
     <g id="fx">
      <path d="m40.84 332.96h812.36" clip-path="url(#d)" fill="none" stroke="#b0b0b0" stroke-linecap="square" stroke-opacity=".3" stroke-width=".8"/>
     </g>
     <g id="fy">
      <use x="40.84" y="332.963046" stroke="#000000" stroke-width=".8" xlink:href="#g"/>
     </g>
     <g id="fz">
      <!-- 5200 -->
      <g transform="translate(11.04 336.95) scale(.1 -.1)">
       <use xlink:href="#e"/>
       <use transform="translate(57)" xlink:href="#b"/>
       <use transform="translate(114)" xlink:href="#a"/>
       <use transform="translate(171)" xlink:href="#a"/>
      </g>
     </g>
    </g>
    <g id="ga">
     <g id="gb">
      <path d="m40.84 304.2h812.36" clip-path="url(#d)" fill="none" stroke="#b0b0b0" stroke-linecap="square" stroke-opacity=".3" stroke-width=".8"/>
     </g>
     <g id="gc">
      <use x="40.84" y="304.196034" stroke="#000000" stroke-width=".8" xlink:href="#g"/>
     </g>
     <g id="gd">
      <!-- 5225 -->
      <g transform="translate(11.04 308.18) scale(.1 -.1)">
       <use xlink:href="#e"/>
       <use transform="translate(57)" xlink:href="#b"/>
       <use transform="translate(114)" xlink:href="#b"/>
       <use transform="translate(171)" xlink:href="#e"/>
      </g>
     </g>
    </g>
   </g>
   <g id="ge">
    <path d="m77.765 512.47h1.2348l.16464-1.1507h4.5277l.16464 1.1507h.16464l.16464-1.1507h4.5277l.24697-2.3014h4.61l.16464-1.1507h1.2348l.24696-2.3014h.7409l.16464-1.1507h.57625l.24697-2.3014h.49393l.16464-1.1507h.24697l.16464 1.1507h.82322l.16464-1.1507h2.6343l.16464 1.1507.24697-2.3014h.16464l.16464-1.1507h2.9636l.16464-1.1507h2.305l.16464-1.1507h.16464l.16464-1.1507h2.9636l.16464-1.1507h2.9636m.16464 0h2.2227l.16464 1.1507h1.0702l.16464-2.3014.16464-1.1507h1.1525l.16464-1.1507h2.058l.16464-1.1507h4.3631l.16464-1.1507h7.8206l.16464-1.1507h.7409l.16464-2.3014h2.552l.16464-1.1507h.16464l.16464 1.1507h2.7989l.16464-1.1507h.082322l.16464 1.1507h.90554l.16464-1.1507h.7409l.16464 1.1507h.16464l.16464-1.1507h.32929l.16464-1.1507h.49393l.16464-1.1507h.49393l.16464-1.1507h1.1525l.16464 1.1507h1.3995l.16464-1.1507h.082322m.16464 0 .16464-1.1507h6.6681l.16464-1.1507h1.3171l.16464 1.1507h1.5641l.16464 1.1507h2.7989l.16464-1.1507h1.8111l.16464-1.1507h1.3995l.16464-1.1507h1.6464l.16464-1.1507h.49393l.16464-1.1507h.082321l.16464-1.1507h.32929l.16464-1.1507h.32929l.16464-1.1507h.7409l.16464-1.1507h.41161l.16464-1.1507h.49393l.24696 2.3014h.7409l.16464-1.1507h2.7989l.16464-1.1507h5.5156l.16464-1.1507h2.6343l.16464-1.1507h1.8934l.16464-1.1507h2.058l.16464 1.1507h1.5641l.16464-1.1507h.65858l.16464-1.1507h.32929l.16464-1.1507h.16464l.16464-1.1507h.98786l.16464-1.1507h.90554l.32929-3.452.16464 2.3014h.24697l.16464 1.1507h.16464l.082322-1.1507.16464 1.1507h2.1404l.16464-1.1507h.49393l.16464 1.1507h.82322l.16464 1.1507h2.305l.16464-1.1507h.32929l.16464 1.1507h2.2227l.16464 1.1507h2.3873l.16464-1.1507h1.8111l.16464-1.1507h.49393l.082322-1.1507.16464 1.1507.16464-1.1507h1.0702l.16464-1.1507h1.1525l.16464-1.1507h.82322l.16464-1.1507h.49393l.16464 1.1507h.90554l.16464-1.1507.082322 1.1507.24696-2.3014h.32929l.16464-1.1507h1.4818l.16464 1.1507h.16464l.24697-2.3014h.98786l.16464-1.1507h.082322l.16464 2.3014h.7409l.16464-1.1507h6.915l.16464-1.1507h.65857l.16464 1.1507h3.0459l.16464-1.1507h.98786l.16464-1.1507h.24696l.16464 1.1507h1.7288l.16464 1.1507h.90554l.082322-1.1507.16464 1.1507h1.0702l.16464-1.1507h1.7288l.16464 1.1507h.32929l.32929-3.452h2.552l.32929-3.452h.7409l.16464-2.3014h1.8111l.16464-1.1507h6.6681l.16464-2.3014h.24696l.16464 1.1507h5.6802l.16464 1.1507.16464-1.1507h.57625l.16464-1.1507h1.2348l.16464-1.1507h.32929l.24696-2.3014h.41161l.16464-1.1507h.24696l.16464 1.1507h.32929l.16464-1.1507h1.8111l.16464-1.1507h2.305l.16464-1.1507h.98786l.16464-1.1507h6.915l.16464 1.1507h.90554l.16464-1.1507h.65857l.16464-1.1507h.65858l.16464-1.1507h6.5857l.082322-2.3014.16464 1.1507h.7409l.16464-1.1507h.41161l.16464-1.1507h.32929l.16464 1.1507h2.305l.16464-1.1507h.57625l.16464-1.1507h1.5641l.16464-1.1507h4.857l.16464 1.1507h3.4575l.16464-1.1507h.98786l.082321-1.1507.16464 1.1507h3.2106l.16464-1.1507.16464 1.1507h.16464l.16464-1.1507h.082322l.16464 1.1507h.24697l.32929 3.452h.57625l.16464-1.1507h2.3873l.16464-1.1507h.082322l.16464 1.1507h.7409l.16464-1.1507h3.6222l.16464-1.1507h9.9609l.16464-1.1507h.57625l.16464-1.1507h.65858l.16464 1.1507h4.3631l.082322 1.1507.16464-1.1507h1.2348l.082322-1.1507.16464 1.1507h.7409l.16464-1.1507h.90554l.16464-1.1507h1.2348l.82322-1.1507h4.0338l.16464 1.1507h9.0554l.16464-1.1507h.082321l.16464 1.1507h.90554l.16464-1.1507h.082322l.24696-2.3014h1.8111l.16464-1.1507h1.8111l.16464-1.1507h.90554l.16464-1.1507h1.8111l.16464-1.1507h1.5641l.16464-1.1507h.41161l.16464-1.1507h1.6464l.16464-1.1507h10.043l.16464-1.1507h3.3752l.16464-1.1507h2.7166l.16464-1.1507h.082322l.16464 1.1507h1.0702l.082322-1.1507.16464 1.1507h.82322l.16464-1.1507h.7409l.16464-1.1507.16464 1.1507h.98786l.16464-1.1507h1.2348l.16464-1.1507h7.8206l.16464-1.1507h8.0675l.16464-1.1507h1.0702l.16464-1.1507h.90554l.16464-1.1507h.49393l.24697-2.3014h1.4818l.16464-1.1507h.32929l.24696-2.3014h2.552l.16464-1.1507h.7409l.16464-1.1507h4.1161l.16464 1.1507h1.3172l.16464-1.1507h6.4211l.16464 2.3014h1.5641l.16464 1.1507h1.5641l.24697-2.3014h1.6464l.16464-1.1507h.16464l.24697-2.3014h.41161l.16464 1.1507h.65857l.24697-2.3014h9.0554l.16464-1.1507h4.857l.16464-1.1507h1.1525l.16464-1.1507h2.3873l.16464-1.1507h2.3873l.16464-1.1507h1.0702l.16464-1.1507h.41161l.16464 1.1507h.082322l.16464-1.1507h1.0702l.16464 1.1507.24696-2.3014h.49393l.16464-1.1507h4.9393l.16464-1.1507h.16464l.16464-1.1507h1.7288l.16464 1.1507h5.3509l.16464-1.1507h2.3873l.16464 1.1507h2.305l.16464-1.1507h2.3873l.16464 1.1507h.82322l.16464 1.1507h.32929l.082322-1.1507.16464 1.1507h1.3995l.16464 1.1507h.98786l.16464-1.1507h6.9974l.16464-1.1507h4.7747l.16464 1.1507h.90554l.16464-1.1507h1.4818l.16464-1.1507h4.61l.16464 1.1507h.98786l.16464 1.1507h.24697l.16464-1.1507h.24697l.16464-1.1507h1.6464l.16464-1.1507h.24696m.32929 1.1507h.16464m.16464 0h2.4697l.16464 2.3014h9.8786l.16464 1.1507h2.8813l.16464-1.1507h.41161l.16464 1.1507h.49393l.16464 1.1507h.65857l.16464-1.1507h.082322l.16464-1.1507h.98786l.16464-1.1507h.41161l.16464 1.1507h1.3171l.24696-2.3014h2.058l.16464 1.1507h1.4818l.16464-1.1507h4.2807l.16464 1.1507h3.4575l.16464-1.1507h.49393l.16464-2.3014.16464-1.1507h.32929l.16464 1.1507h2.2227l.16464-1.1507h1.6464l.16464-1.1507h2.552l.16464-1.1507h.24697l.16464-1.1507h1.4818l.16464-1.1507h.90554l.16464-1.1507h.7409l.16464-1.1507h1.8934l.16464 1.1507h7.4913l.16464-1.1507h4.1984l.16464-1.1507h1.2348l.16464-1.1507h7.3266l.24697-2.3014h.49393l.16464-1.1507h1.8111l.16464 1.1507h.24697l.16464-1.1507h7.7383l.16464 1.1507h.7409l.16464 1.1507h.57625l.16464 1.1507h.49393l.16464 1.1507h.24696l.16464-1.1507h.24696l.16464 1.1507h.49393l.082322 1.1507.16464-1.1507h5.3509l.082322-1.1507.16464 1.1507h.90554l.16464-1.1507h.41161l.082322-1.1507.16464 1.1507h.7409l.24697-2.3014h.65857l.16464 3.452h3.3752l.16464-1.1507h4.7747l.16464 1.1507h5.104l.16464-1.1507h.90554l.16464-1.1507h.98786l.16464-1.1507h1.1525l.16464-1.1507h.16464l.16464-1.1507h.24697l.16464-1.1507h.32929l.16464-1.1507h4.0338l.16464-1.1507h.65857l.16464-1.1507h3.1282l.16464-1.1507h6.8327l.16464-1.1507h.7409l.16464-1.1507h8.2322l.16464-1.1507h.57625l.16464-1.1507h.16464l.16464-2.3014h2.058l.16464-1.1507h2.2227l.082322-1.1507.24697 2.3014h.57625l.082322-1.1507.16464 1.1507h1.1525l.16464-1.1507h4.1984l.16464 1.1507h.16464l.16464-1.1507h.16464l.16464 1.1507h3.2106l.16464 1.1507h4.6923l.16464-1.1507h.98786l.16464 1.1507.16464-2.3014h1.2348l.16464-1.1507h1.3171l.16464-1.1507h.49393l.082322-1.1507.16464 1.1507h.82322l.082321-1.1507h.41161l.16464 1.1507h14.489l.16464-1.1507h1.7288l.16464 1.1507h1.4818l.16464-1.1507h.16464l.16464 1.1507h.7409l.16464-1.1507h.49393l.16464-1.1507h.98786l.24697-2.3014h3.1282l.16464-1.1507h2.1404l.16464-1.1507h2.4697l.16464-1.1507h.24697l.16464-1.1507h2.9636l.16464 1.1507h9.7963l.16464 1.1507.16464-1.1507h.7409l.16464 1.1507h1.7288l.16464-1.1507h.16464m.16464 0 .16464-1.1507h.16464l.16464-1.1507h3.7868l.16464 1.1507h.41161l.16464 1.1507h5.104l.16464 1.1507h5.7625l.16464 1.1507h.16464l.16464-1.1507h1.9757l.16464-1.1507h2.3873l.16464-1.1507h.82322l.16464-1.1507h.98786l.16464-1.1507h.082322l.24696-2.3014h.98786l.16464-1.1507h6.8327l.16464 1.1507h4.3631l.16464-1.1507h1.8111l.24697-1.1507h.16464l.16464-1.1507h3.2106l.24697-2.3014h1.4818l.16464-1.1507h1.2348l.16464-1.1507h.98786l.16464-1.1507h.16464l.16464-1.1507.16464 1.1507h1.6464l.16464-1.1507h.32929l.16464-1.1507h12.842l.16464 1.1507h.57625l.16464 1.1507.16464-1.1507h.57625l.16464-1.1507h5.104l.16464-1.1507h.24696l.24697-2.3014h.082321l.16464-1.1507h.16464l.16464 1.1507h2.552l.16464-2.3014h.57625l.16464-1.1507h4.9393l.16464-1.1507h2.7166l.16464 1.1507h.57625l.16464-1.1507h4.0338l.16464-1.1507h.24697l.16464-1.1507h2.305l.16464-1.1507h3.4575l.16464-1.1507h.57625l.16464-1.1507h1.3171l.32929 2.3014.7409 1.1507h.7409l.32929-3.452h1.8934l.16464-1.1507h.57625l.16464-1.1507h2.4697v0" clip-path="url(#d)" fill="none" stroke="#28f" stroke-linecap="square" stroke-width="1.5"/>
   </g>
   <g id="gf">
    <path d="m40.84 523.06v-232.9" fill="none" stroke="#000" stroke-linecap="square" stroke-width=".8"/>
   </g>
   <g id="gg">
    <path d="m853.2 523.06v-232.9" fill="none" stroke="#000" stroke-linecap="square" stroke-width=".8"/>
   </g>
   <g id="gh">
    <path d="m40.84 523.06h812.36" fill="none" stroke="#000" stroke-linecap="square" stroke-width=".8"/>
   </g>
   <g id="gi">
    <path d="m40.84 290.16h812.36" fill="none" stroke="#000" stroke-linecap="square" stroke-width=".8"/>
   </g>
   <g id="gj">
    <!-- サーバー数の推移 -->
    <g transform="translate(399.02 284.16) scale(.12 -.12)">
     <defs>
      <path id="y" transform="scale(.015625)" d="m4685 2893q0-621-84-1111-83-489-288-877-204-387-569-691t-928-560l-544 512q448 167 781 371 333 205 550 503 218 298 323 739 106 442 106 1075v1620q0 192-10 339-9 147-22 217h723q-6-70-22-217t-16-339v-1581zm-2304 2086q-7-64-23-199-16-134-16-313v-2317q0-128 6-256 7-128 13-224 7-96 13-140h-710q6 44 12 140 7 96 13 221 7 125 7 259v2317q0 122-10 256-9 135-28 256h723zm-1978-1197q45-12 144-22t237-20q138-9 285-9h4217q237 0 394 13t246 26v-679q-76 7-240 13-163 6-393 6h-4224q-147 0-282-3-134-3-234-10-99-6-150-12v697z"/>
      <path id="q" transform="scale(.015625)" d="m621 2854q109-6 265-16 157-9 339-16 183-6 349-6 128 0 352 0t509 0 598 0q314 0 624 0 311 0 586 0t486 0q212 0 327 0 230 0 416 16t301 22v-793q-109 6-308 19-198 13-409 13-109 0-324 0-214 0-489 0t-586 0q-310 0-624 0-313 0-598 0t-509 0-352 0q-262 0-525-10-262-9-428-22v793z"/>
      <path id="x" transform="scale(.015625)" d="m4941 5037q83-109 176-269t182-320q90-160 154-288l-416-179q-96 192-240 448t-272 435l416 173zm723 275q83-122 182-282 100-160 196-317 96-156 153-271l-416-186q-102 205-246 454-144 250-279 429l410 173zm-4339-3360q102 262 201 556 100 295 183 612t144 630q61 314 93 602l723-147q-19-83-45-183-26-99-48-195t-42-166q-32-154-86-394t-131-512-164-551q-86-278-182-514-115-301-269-618-153-317-326-618-173-300-346-550l-697 294q301 397 563 874t429 880zm3155 198q-96 250-215 531-118 282-243 567-124 285-246 534-122 250-224 429l659 218q96-179 221-429t253-535q128-284 249-566 122-281 218-525 90-230 195-518 106-288 211-592 106-304 195-589 90-285 154-515l-729-237q-84 352-199 736t-240 768-259 723z"/>
     </defs>
     <use xlink:href="#y"/>
     <use transform="translate(100)" xlink:href="#q"/>
     <use transform="translate(200)" xlink:href="#x"/>
     <use transform="translate(300)" xlink:href="#q"/>
     <use transform="translate(400)" xlink:href="#o"/>
     <use transform="translate(500)" xlink:href="#r"/>
     <use transform="translate(600)" xlink:href="#p"/>
     <use transform="translate(700)" xlink:href="#n"/>
    </g>
   </g>
  </g>
 </g>
 <defs>
  <clipPath id="c">
   <rect x="40.84" y="26.88" width="812.36" height="232.9"/>
  </clipPath>
  <clipPath id="d">
   <rect x="40.84" y="290.16" width="812.36" height="232.9"/>
  </clipPath>
 </defs>
</svg>
