<!DOCTYPE svg  PUBLIC '-//W3C//DTD SVG 1.1//EN'  'http://www.w3.org/Graphics/SVG/1.1/DTD/svg11.dtd'>
<svg version="1.1" viewBox="0 0 864 576" xmlns="http://www.w3.org/2000/svg" xmlns:xlink="http://www.w3.org/1999/xlink">
 <defs>
  <style type="text/css">*{stroke-linejoin: round; stroke-linecap: butt}</style>
 </defs>
 <g id="e">
  <g id="f">
   <path d="m0 576h864v-576h-864z" fill="#fff"/>
  </g>
  <g id="g">
   <g id="h">
    <path d="m32.148 262.97h821.05v-236.09h-821.05z" fill="#fff"/>
   </g>
   <g id="i">
    <g id="j">
     <g id="k">
      <path d="m54.585 262.97v-236.09" clip-path="url(#a)" fill="none" stroke="#b0b0b0" stroke-linecap="square" stroke-opacity=".3" stroke-width=".8"/>
     </g>
     <g id="l">
      <defs>
       <path id="b" d="m0 0v3.5" stroke="#000" stroke-width=".8"/>
      </defs>
      <use x="54.585158" y="262.972732" stroke="#000000" stroke-width=".8" xlink:href="#b"/>
     </g>
    </g>
    <g id="m">
     <g id="n">
      <path d="m147.65 262.97v-236.09" clip-path="url(#a)" fill="none" stroke="#b0b0b0" stroke-linecap="square" stroke-opacity=".3" stroke-width=".8"/>
     </g>
     <g id="o">
      <use x="147.6466" y="262.972732" stroke="#000000" stroke-width=".8" xlink:href="#b"/>
     </g>
    </g>
    <g id="p">
     <g id="q">
      <path d="m240.71 262.97v-236.09" clip-path="url(#a)" fill="none" stroke="#b0b0b0" stroke-linecap="square" stroke-opacity=".3" stroke-width=".8"/>
     </g>
     <g id="r">
      <use x="240.708042" y="262.972732" stroke="#000000" stroke-width=".8" xlink:href="#b"/>
     </g>
    </g>
    <g id="s">
     <g id="t">
      <path d="m333.77 262.97v-236.09" clip-path="url(#a)" fill="none" stroke="#b0b0b0" stroke-linecap="square" stroke-opacity=".3" stroke-width=".8"/>
     </g>
     <g id="u">
      <use x="333.769484" y="262.972732" stroke="#000000" stroke-width=".8" xlink:href="#b"/>
     </g>
    </g>
    <g id="v">
     <g id="w">
      <path d="m426.83 262.97v-236.09" clip-path="url(#a)" fill="none" stroke="#b0b0b0" stroke-linecap="square" stroke-opacity=".3" stroke-width=".8"/>
     </g>
     <g id="x">
      <use x="426.830926" y="262.972732" stroke="#000000" stroke-width=".8" xlink:href="#b"/>
     </g>
    </g>
    <g id="y">
     <g id="z">
      <path d="m519.89 262.97v-236.09" clip-path="url(#a)" fill="none" stroke="#b0b0b0" stroke-linecap="square" stroke-opacity=".3" stroke-width=".8"/>
     </g>
     <g id="aa">
      <use x="519.892368" y="262.972732" stroke="#000000" stroke-width=".8" xlink:href="#b"/>
     </g>
    </g>
    <g id="ab">
     <g id="ac">
      <path d="m612.95 262.97v-236.09" clip-path="url(#a)" fill="none" stroke="#b0b0b0" stroke-linecap="square" stroke-opacity=".3" stroke-width=".8"/>
     </g>
     <g id="ad">
      <use x="612.953809" y="262.972732" stroke="#000000" stroke-width=".8" xlink:href="#b"/>
     </g>
    </g>
    <g id="ae">
     <g id="af">
      <path d="m706.02 262.97v-236.09" clip-path="url(#a)" fill="none" stroke="#b0b0b0" stroke-linecap="square" stroke-opacity=".3" stroke-width=".8"/>
     </g>
     <g id="ag">
      <use x="706.015251" y="262.972732" stroke="#000000" stroke-width=".8" xlink:href="#b"/>
     </g>
    </g>
    <g id="ah">
     <g id="ai">
      <path d="m799.08 262.97v-236.09" clip-path="url(#a)" fill="none" stroke="#b0b0b0" stroke-linecap="square" stroke-opacity=".3" stroke-width=".8"/>
     </g>
     <g id="aj">
      <use x="799.076693" y="262.972732" stroke="#000000" stroke-width=".8" xlink:href="#b"/>
     </g>
    </g>
   </g>
   <g id="ak">
    <g id="al">
     <g id="am">
      <path d="m32.148 252.24h821.05" clip-path="url(#a)" fill="none" stroke="#b0b0b0" stroke-linecap="square" stroke-opacity=".3" stroke-width=".8"/>
     </g>
     <g id="an">
      <defs>
       <path id="d" d="m0 0h-3.5" stroke="#000" stroke-width=".8"/>
      </defs>
      <use x="32.14798" y="252.241244" stroke="#000000" stroke-width=".8" xlink:href="#d"/>
     </g>
     <g id="ao">
      <text transform="rotate(-0 25.148 256.23)" x="25.14798" y="256.2264" font-family="'Noto Sans JP'" font-size="10px" text-anchor="end">0</text>
     </g>
    </g>
    <g id="ap">
     <g id="aq">
      <path d="m32.148 225.41h821.05" clip-path="url(#a)" fill="none" stroke="#b0b0b0" stroke-linecap="square" stroke-opacity=".3" stroke-width=".8"/>
     </g>
     <g id="ar">
      <use x="32.14798" y="225.412525" stroke="#000000" stroke-width=".8" xlink:href="#d"/>
     </g>
     <g id="as">
      <text transform="rotate(-0 25.148 229.4)" x="25.14798" y="229.397681" font-family="'Noto Sans JP'" font-size="10px" text-anchor="end">1</text>
     </g>
    </g>
    <g id="at">
     <g id="au">
      <path d="m32.148 198.58h821.05" clip-path="url(#a)" fill="none" stroke="#b0b0b0" stroke-linecap="square" stroke-opacity=".3" stroke-width=".8"/>
     </g>
     <g id="av">
      <use x="32.14798" y="198.583805" stroke="#000000" stroke-width=".8" xlink:href="#d"/>
     </g>
     <g id="aw">
      <text transform="rotate(-0 25.148 202.57)" x="25.14798" y="202.568961" font-family="'Noto Sans JP'" font-size="10px" text-anchor="end">2</text>
     </g>
    </g>
    <g id="ax">
     <g id="ay">
      <path d="m32.148 171.76h821.05" clip-path="url(#a)" fill="none" stroke="#b0b0b0" stroke-linecap="square" stroke-opacity=".3" stroke-width=".8"/>
     </g>
     <g id="az">
      <use x="32.14798" y="171.755086" stroke="#000000" stroke-width=".8" xlink:href="#d"/>
     </g>
     <g id="ba">
      <text transform="rotate(-0 25.148 175.74)" x="25.14798" y="175.740242" font-family="'Noto Sans JP'" font-size="10px" text-anchor="end">3</text>
     </g>
    </g>
    <g id="bb">
     <g id="bc">
      <path d="m32.148 144.93h821.05" clip-path="url(#a)" fill="none" stroke="#b0b0b0" stroke-linecap="square" stroke-opacity=".3" stroke-width=".8"/>
     </g>
     <g id="bd">
      <use x="32.14798" y="144.926366" stroke="#000000" stroke-width=".8" xlink:href="#d"/>
     </g>
     <g id="be">
      <text transform="rotate(-0 25.148 148.91)" x="25.14798" y="148.911522" font-family="'Noto Sans JP'" font-size="10px" text-anchor="end">4</text>
     </g>
    </g>
    <g id="bf">
     <g id="bg">
      <path d="m32.148 118.1h821.05" clip-path="url(#a)" fill="none" stroke="#b0b0b0" stroke-linecap="square" stroke-opacity=".3" stroke-width=".8"/>
     </g>
     <g id="bh">
      <use x="32.14798" y="118.097646" stroke="#000000" stroke-width=".8" xlink:href="#d"/>
     </g>
     <g id="bi">
      <text transform="rotate(-0 25.148 122.08)" x="25.14798" y="122.082803" font-family="'Noto Sans JP'" font-size="10px" text-anchor="end">5</text>
     </g>
    </g>
    <g id="bj">
     <g id="bk">
      <path d="m32.148 91.269h821.05" clip-path="url(#a)" fill="none" stroke="#b0b0b0" stroke-linecap="square" stroke-opacity=".3" stroke-width=".8"/>
     </g>
     <g id="bl">
      <use x="32.14798" y="91.268927" stroke="#000000" stroke-width=".8" xlink:href="#d"/>
     </g>
     <g id="bm">
      <text transform="rotate(-0 25.148 95.254)" x="25.14798" y="95.254083" font-family="'Noto Sans JP'" font-size="10px" text-anchor="end">6</text>
     </g>
    </g>
    <g id="bn">
     <g id="bo">
      <path d="m32.148 64.44h821.05" clip-path="url(#a)" fill="none" stroke="#b0b0b0" stroke-linecap="square" stroke-opacity=".3" stroke-width=".8"/>
     </g>
     <g id="bp">
      <use x="32.14798" y="64.440207" stroke="#000000" stroke-width=".8" xlink:href="#d"/>
     </g>
     <g id="bq">
      <text transform="rotate(-0 25.148 68.425)" x="25.14798" y="68.425364" font-family="'Noto Sans JP'" font-size="10px" text-anchor="end">7</text>
     </g>
    </g>
    <g id="br">
     <g id="bs">
      <path d="m32.148 37.611h821.05" clip-path="url(#a)" fill="none" stroke="#b0b0b0" stroke-linecap="square" stroke-opacity=".3" stroke-width=".8"/>
     </g>
     <g id="bt">
      <use x="32.14798" y="37.611488" stroke="#000000" stroke-width=".8" xlink:href="#d"/>
     </g>
     <g id="bu">
      <text transform="rotate(-0 25.148 41.597)" x="25.14798" y="41.596644" font-family="'Noto Sans JP'" font-size="10px" text-anchor="end">8</text>
     </g>
    </g>
   </g>
   <g id="bv">
    <path d="m69.469 225.41h4.5518l1.9345-26.829h1.9452l1.9345-26.829 2.0099 26.829 1.9302-26.829h11.525l1.9388 26.829h5.8163l1.9388-26.829h9.6939l1.9388-53.657h5.8163l1.9388 26.829h1.9388l1.9388-26.829h1.9388l1.9388-26.829h1.9388l1.9388 26.829h1.9388l1.9388-26.829h3.8776l1.9388 26.829h3.8776l1.9388-26.829h5.8163l1.9388 26.829h3.8776l1.9388 26.829h1.9388l1.9388 26.829h5.8163l1.9388 26.829h1.9388l1.9388 26.829h7.7551l1.9388 26.829h11.633l1.9388-26.829h42.653l1.9388-26.829h13.571l1.9388 26.829h5.8163l1.9388-26.829h13.571l3.8776-53.657h3.8776l1.9388-26.829h11.633l1.9388-26.829h3.8776l5.8163 80.486h1.9388l1.9388-26.829h1.9388l1.9388-26.829h5.8163l1.9388 26.829h5.8163l1.9388 26.829h1.9388l1.9388 26.829h7.7551l1.9388-26.829h13.571l1.9388 26.829h5.8163l1.9388 26.829h3.8776l1.9388-26.829h21.327l1.9388-26.829h5.8163l1.9388-26.829 1.9388 26.829h5.8163l1.9388 26.829h23.265l1.9388-26.829h15.51l1.9388-26.829h1.9388l1.9388 26.829 1.9388-26.829 1.9388 26.829h15.51l5.8163-80.486 1.9388 26.829 1.9388-53.657 3.8776 53.657 1.9388-53.657 1.9388 26.829h1.9388l1.9388 26.829h3.8776l1.9388-26.829 1.9388 26.829h11.633l1.9388 26.829h1.9388l1.9388-26.829 1.9388 26.829h5.8163l1.9388 26.829h1.9388l3.8776 53.657h35.544l.64626-26.829.64626 26.829h2.585l.64626-26.829h3.2313l.64626-26.829h9.0476l.64626 26.829h1.9388l.64626-26.829h2.585l.64626-26.829h3.8776l.64626 26.829h18.742l.64626-26.829h10.986l.64626 26.829h13.571l.64626 26.829h3.8776l.64626-26.829h6.4626l.64626 26.829h1.2925l1.2925-53.657h2.585l.64626-26.829h3.2313l.64626-26.829h1.2925l.64626 26.829h1.2925l.64626 26.829h4.5238l.64626-53.657h.64626l.64626-26.829h1.2925l.64626 26.829h2.585l1.2925-53.657h7.1089l.64626 26.829h.64626l.64626 26.829h3.8776l.64626 53.657h5.8163l.64626 26.829h25.204l.64626 26.829h36.191l.64626-26.829h14.218l1.2925 26.829h5.1701l1.2925 26.829h11.633v0" clip-path="url(#a)" fill="none" stroke="#28f" stroke-linecap="square" stroke-width="1.5"/>
   </g>
   <g id="bw">
    <path d="m32.148 262.97v-236.09" fill="none" stroke="#000" stroke-linecap="square" stroke-width=".8"/>
   </g>
   <g id="bx">
    <path d="m853.2 262.97v-236.09" fill="none" stroke="#000" stroke-linecap="square" stroke-width=".8"/>
   </g>
   <g id="by">
    <path d="m32.148 262.97h821.05" fill="none" stroke="#000" stroke-linecap="square" stroke-width=".8"/>
   </g>
   <g id="bz">
    <path d="m32.148 26.88h821.05" fill="none" stroke="#000" stroke-linecap="square" stroke-width=".8"/>
   </g>
   <g id="ca">
    <text transform="rotate(-0 442.67 20.88)" x="442.67399" y="20.88" font-family="'Noto Sans JP'" font-size="12px" text-anchor="middle">同時接続数の推移</text>
   </g>
  </g>
  <g id="cb">
   <g id="cc">
    <path d="m32.148 529.45h821.05v-236.09h-821.05z" fill="#fff"/>
   </g>
   <g id="cd">
    <g id="ce">
     <g id="cf">
      <path d="m54.585 529.45v-236.09" clip-path="url(#c)" fill="none" stroke="#b0b0b0" stroke-linecap="square" stroke-opacity=".3" stroke-width=".8"/>
     </g>
     <g id="cg">
      <use x="54.585158" y="529.445464" stroke="#000000" stroke-width=".8" xlink:href="#b"/>
     </g>
     <g id="ch">
      <text transform="translate(18.812 563.36) rotate(-30)" font-family="'Noto Sans JP'" font-size="10px">06-30 12</text>
     </g>
    </g>
    <g id="ci">
     <g id="cj">
      <path d="m147.65 529.45v-236.09" clip-path="url(#c)" fill="none" stroke="#b0b0b0" stroke-linecap="square" stroke-opacity=".3" stroke-width=".8"/>
     </g>
     <g id="ck">
      <use x="147.6466" y="529.445464" stroke="#000000" stroke-width=".8" xlink:href="#b"/>
     </g>
     <g id="cl">
      <text transform="translate(111.87 563.36) rotate(-30)" font-family="'Noto Sans JP'" font-size="10px">07-01 00</text>
     </g>
    </g>
    <g id="cm">
     <g id="cn">
      <path d="m240.71 529.45v-236.09" clip-path="url(#c)" fill="none" stroke="#b0b0b0" stroke-linecap="square" stroke-opacity=".3" stroke-width=".8"/>
     </g>
     <g id="co">
      <use x="240.708042" y="529.445464" stroke="#000000" stroke-width=".8" xlink:href="#b"/>
     </g>
     <g id="cp">
      <text transform="translate(204.93 563.36) rotate(-30)" font-family="'Noto Sans JP'" font-size="10px">07-01 12</text>
     </g>
    </g>
    <g id="cq">
     <g id="cr">
      <path d="m333.77 529.45v-236.09" clip-path="url(#c)" fill="none" stroke="#b0b0b0" stroke-linecap="square" stroke-opacity=".3" stroke-width=".8"/>
     </g>
     <g id="cs">
      <use x="333.769484" y="529.445464" stroke="#000000" stroke-width=".8" xlink:href="#b"/>
     </g>
     <g id="ct">
      <text transform="translate(298 563.36) rotate(-30)" font-family="'Noto Sans JP'" font-size="10px">07-02 00</text>
     </g>
    </g>
    <g id="cu">
     <g id="cv">
      <path d="m426.83 529.45v-236.09" clip-path="url(#c)" fill="none" stroke="#b0b0b0" stroke-linecap="square" stroke-opacity=".3" stroke-width=".8"/>
     </g>
     <g id="cw">
      <use x="426.830926" y="529.445464" stroke="#000000" stroke-width=".8" xlink:href="#b"/>
     </g>
     <g id="cx">
      <text transform="translate(391.06 563.36) rotate(-30)" font-family="'Noto Sans JP'" font-size="10px">07-02 12</text>
     </g>
    </g>
    <g id="cy">
     <g id="cz">
      <path d="m519.89 529.45v-236.09" clip-path="url(#c)" fill="none" stroke="#b0b0b0" stroke-linecap="square" stroke-opacity=".3" stroke-width=".8"/>
     </g>
     <g id="da">
      <use x="519.892368" y="529.445464" stroke="#000000" stroke-width=".8" xlink:href="#b"/>
     </g>
     <g id="db">
      <text transform="translate(484.12 563.36) rotate(-30)" font-family="'Noto Sans JP'" font-size="10px">07-03 00</text>
     </g>
    </g>
    <g id="dc">
     <g id="dd">
      <path d="m612.95 529.45v-236.09" clip-path="url(#c)" fill="none" stroke="#b0b0b0" stroke-linecap="square" stroke-opacity=".3" stroke-width=".8"/>
     </g>
     <g id="de">
      <use x="612.953809" y="529.445464" stroke="#000000" stroke-width=".8" xlink:href="#b"/>
     </g>
     <g id="df">
      <text transform="translate(577.18 563.36) rotate(-30)" font-family="'Noto Sans JP'" font-size="10px">07-03 12</text>
     </g>
    </g>
    <g id="dg">
     <g id="dh">
      <path d="m706.02 529.45v-236.09" clip-path="url(#c)" fill="none" stroke="#b0b0b0" stroke-linecap="square" stroke-opacity=".3" stroke-width=".8"/>
     </g>
     <g id="di">
      <use x="706.015251" y="529.445464" stroke="#000000" stroke-width=".8" xlink:href="#b"/>
     </g>
     <g id="dj">
      <text transform="translate(670.24 563.36) rotate(-30)" font-family="'Noto Sans JP'" font-size="10px">07-04 00</text>
     </g>
    </g>
    <g id="dk">
     <g id="dl">
      <path d="m799.08 529.45v-236.09" clip-path="url(#c)" fill="none" stroke="#b0b0b0" stroke-linecap="square" stroke-opacity=".3" stroke-width=".8"/>
     </g>
     <g id="dm">
      <use x="799.076693" y="529.445464" stroke="#000000" stroke-width=".8" xlink:href="#b"/>
     </g>
     <g id="dn">
      <text transform="translate(763.3 563.36) rotate(-30)" font-family="'Noto Sans JP'" font-size="10px">07-04 12</text>
     </g>
    </g>
   </g>
   <g id="do">
    <g id="dp">
     <g id="dq">
      <path d="m32.148 499.2h821.05" clip-path="url(#c)" fill="none" stroke="#b0b0b0" stroke-linecap="square" stroke-opacity=".3" stroke-width=".8"/>
     </g>
     <g id="dr">
      <use x="32.14798" y="499.20218" stroke="#000000" stroke-width=".8" xlink:href="#d"/>
     </g>
     <g id="ds">
      <text transform="rotate(-0 25.148 503.19)" x="25.14798" y="503.187336" font-family="'Noto Sans JP'" font-size="10px" text-anchor="end">50</text>
     </g>
    </g>
    <g id="dt">
     <g id="du">
      <path d="m32.148 460.18h821.05" clip-path="url(#c)" fill="none" stroke="#b0b0b0" stroke-linecap="square" stroke-opacity=".3" stroke-width=".8"/>
     </g>
     <g id="dv">
      <use x="32.14798" y="460.178588" stroke="#000000" stroke-width=".8" xlink:href="#d"/>
     </g>
     <g id="dw">
      <text transform="rotate(-0 25.148 464.16)" x="25.14798" y="464.163744" font-family="'Noto Sans JP'" font-size="10px" text-anchor="end">52</text>
     </g>
    </g>
    <g id="dx">
     <g id="dy">
      <path d="m32.148 421.15h821.05" clip-path="url(#c)" fill="none" stroke="#b0b0b0" stroke-linecap="square" stroke-opacity=".3" stroke-width=".8"/>
     </g>
     <g id="dz">
      <use x="32.14798" y="421.154996" stroke="#000000" stroke-width=".8" xlink:href="#d"/>
     </g>
     <g id="ea">
      <text transform="rotate(-0 25.148 425.14)" x="25.14798" y="425.140152" font-family="'Noto Sans JP'" font-size="10px" text-anchor="end">54</text>
     </g>
    </g>
    <g id="eb">
     <g id="ec">
      <path d="m32.148 382.13h821.05" clip-path="url(#c)" fill="none" stroke="#b0b0b0" stroke-linecap="square" stroke-opacity=".3" stroke-width=".8"/>
     </g>
     <g id="ed">
      <use x="32.14798" y="382.131404" stroke="#000000" stroke-width=".8" xlink:href="#d"/>
     </g>
     <g id="ee">
      <text transform="rotate(-0 25.148 386.12)" x="25.14798" y="386.11656" font-family="'Noto Sans JP'" font-size="10px" text-anchor="end">56</text>
     </g>
    </g>
    <g id="ef">
     <g id="eg">
      <path d="m32.148 343.11h821.05" clip-path="url(#c)" fill="none" stroke="#b0b0b0" stroke-linecap="square" stroke-opacity=".3" stroke-width=".8"/>
     </g>
     <g id="eh">
      <use x="32.14798" y="343.107812" stroke="#000000" stroke-width=".8" xlink:href="#d"/>
     </g>
     <g id="ei">
      <text transform="rotate(-0 25.148 347.09)" x="25.14798" y="347.092968" font-family="'Noto Sans JP'" font-size="10px" text-anchor="end">58</text>
     </g>
    </g>
    <g id="ej">
     <g id="ek">
      <path d="m32.148 304.08h821.05" clip-path="url(#c)" fill="none" stroke="#b0b0b0" stroke-linecap="square" stroke-opacity=".3" stroke-width=".8"/>
     </g>
     <g id="el">
      <use x="32.14798" y="304.08422" stroke="#000000" stroke-width=".8" xlink:href="#d"/>
     </g>
     <g id="em">
      <text transform="rotate(-0 25.148 308.07)" x="25.14798" y="308.069376" font-family="'Noto Sans JP'" font-size="10px" text-anchor="end">60</text>
     </g>
    </g>
   </g>
   <g id="en">
    <path d="m69.469 518.71h8.4315l1.9345-19.512h2.0099l3.8733-39.024h23.153l1.9388-19.512h176.43l1.9388-19.512h124.08l1.9388-19.512 1.9388 19.512h19.388l1.9388-19.512h60.102l1.9388-19.512h19.388l1.9388-19.512 1.9388 19.512h11.633l1.9388-19.512h54.932l.64626-19.512h3.2313l.64626-19.512h94.354l.64626-19.512h124.08v0" clip-path="url(#c)" fill="none" stroke="#28f" stroke-linecap="square" stroke-width="1.5"/>
   </g>
   <g id="eo">
    <path d="m32.148 529.45v-236.09" fill="none" stroke="#000" stroke-linecap="square" stroke-width=".8"/>
   </g>
   <g id="ep">
    <path d="m853.2 529.45v-236.09" fill="none" stroke="#000" stroke-linecap="square" stroke-width=".8"/>
   </g>
   <g id="eq">
    <path d="m32.148 529.45h821.05" fill="none" stroke="#000" stroke-linecap="square" stroke-width=".8"/>
   </g>
   <g id="er">
    <path d="m32.148 293.35h821.05" fill="none" stroke="#000" stroke-linecap="square" stroke-width=".8"/>
   </g>
   <g id="es">
    <text transform="rotate(-0 442.67 287.35)" x="442.67399" y="287.352732" font-family="'Noto Sans JP'" font-size="12px" text-anchor="middle">サーバー数の推移</text>
   </g>
  </g>
 </g>
 <defs>
  <clipPath id="a">
   <rect x="32.148" y="26.88" width="821.05" height="236.09"/>
  </clipPath>
  <clipPath id="c">
   <rect x="32.148" y="293.35" width="821.05" height="236.09"/>
  </clipPath>
 </defs>
</svg>
