<!DOCTYPE svg  PUBLIC '-//W3C//DTD SVG 1.1//EN'  'http://www.w3.org/Graphics/SVG/1.1/DTD/svg11.dtd'>
<svg version="1.1" viewBox="0 0 864 576" xmlns="http://www.w3.org/2000/svg" xmlns:xlink="http://www.w3.org/1999/xlink">
 <defs>
  <style type="text/css">*{stroke-linejoin: round; stroke-linecap: butt}</style>
 </defs>
 <g id="aa">
  <g id="ab">
   <path d="m0 576h864v-576h-864z" fill="#fff"/>
  </g>
  <g id="ac">
   <g id="ad">
    <path d="m29.32 259.78h823.88v-232.9h-823.88z" fill="#fff"/>
   </g>
   <g id="ae">
    <g id="af">
     <g id="ag">
      <path d="m107.49 259.78v-232.9" clip-path="url(#b)" fill="none" stroke="#b0b0b0" stroke-linecap="square" stroke-opacity=".3" stroke-width=".8"/>
     </g>
     <g id="ah">
      <defs>
       <path id="f" d="m0 0v3.5" stroke="#000" stroke-width=".8"/>
      </defs>
      <use x="107.490687" y="259.777732" stroke="#000000" stroke-width=".8" xlink:href="#f"/>
     </g>
    </g>
    <g id="ai">
     <g id="aj">
      <path d="m204.44 259.78v-232.9" clip-path="url(#b)" fill="none" stroke="#b0b0b0" stroke-linecap="square" stroke-opacity=".3" stroke-width=".8"/>
     </g>
     <g id="ak">
      <use x="204.438855" y="259.777732" stroke="#000000" stroke-width=".8" xlink:href="#f"/>
     </g>
    </g>
    <g id="al">
     <g id="am">
      <path d="m301.39 259.78v-232.9" clip-path="url(#b)" fill="none" stroke="#b0b0b0" stroke-linecap="square" stroke-opacity=".3" stroke-width=".8"/>
     </g>
     <g id="an">
      <use x="301.387022" y="259.777732" stroke="#000000" stroke-width=".8" xlink:href="#f"/>
     </g>
    </g>
    <g id="ao">
     <g id="ap">
      <path d="m398.34 259.78v-232.9" clip-path="url(#b)" fill="none" stroke="#b0b0b0" stroke-linecap="square" stroke-opacity=".3" stroke-width=".8"/>
     </g>
     <g id="aq">
      <use x="398.335189" y="259.777732" stroke="#000000" stroke-width=".8" xlink:href="#f"/>
     </g>
    </g>
    <g id="ar">
     <g id="as">
      <path d="m495.28 259.78v-232.9" clip-path="url(#b)" fill="none" stroke="#b0b0b0" stroke-linecap="square" stroke-opacity=".3" stroke-width=".8"/>
     </g>
     <g id="at">
      <use x="495.283356" y="259.777732" stroke="#000000" stroke-width=".8" xlink:href="#f"/>
     </g>
    </g>
    <g id="au">
     <g id="av">
      <path d="m592.23 259.78v-232.9" clip-path="url(#b)" fill="none" stroke="#b0b0b0" stroke-linecap="square" stroke-opacity=".3" stroke-width=".8"/>
     </g>
     <g id="aw">
      <use x="592.231524" y="259.777732" stroke="#000000" stroke-width=".8" xlink:href="#f"/>
     </g>
    </g>
    <g id="ax">
     <g id="ay">
      <path d="m689.18 259.78v-232.9" clip-path="url(#b)" fill="none" stroke="#b0b0b0" stroke-linecap="square" stroke-opacity=".3" stroke-width=".8"/>
     </g>
     <g id="az">
      <use x="689.179691" y="259.777732" stroke="#000000" stroke-width=".8" xlink:href="#f"/>
     </g>
    </g>
    <g id="ba">
     <g id="bb">
      <path d="m786.13 259.78v-232.9" clip-path="url(#b)" fill="none" stroke="#b0b0b0" stroke-linecap="square" stroke-opacity=".3" stroke-width=".8"/>
     </g>
     <g id="bc">
      <use x="786.127858" y="259.777732" stroke="#000000" stroke-width=".8" xlink:href="#f"/>
     </g>
    </g>
   </g>
   <g id="bd">
    <g id="be">
     <g id="bf">
      <path d="m29.32 249.19h823.88" clip-path="url(#b)" fill="none" stroke="#b0b0b0" stroke-linecap="square" stroke-opacity=".3" stroke-width=".8"/>
     </g>
     <g id="bg">
      <defs>
       <path id="c" d="m0 0h-3.5" stroke="#000" stroke-width=".8"/>
      </defs>
      <use x="29.32" y="249.191471" stroke="#000000" stroke-width=".8" xlink:href="#c"/>
     </g>
     <g id="bh">
      <!-- 0 -->
      <g transform="translate(16.62 253.18) scale(.1 -.1)">
       <defs>
        <path id="a" transform="scale(.015625)" d="m1830-90q-460 0-806 275-346 276-535 823-188 547-188 1366 0 820 188 1357 189 538 535 803 346 266 806 266 461 0 800-269 340-269 528-803 189-534 189-1354 0-819-189-1366-188-547-528-823-339-275-800-275zm0 589q237 0 422 185 186 186 288 599 103 413 103 1091 0 679-103 1082-102 403-288 582-185 180-422 180-236 0-422-180-186-179-292-582-105-403-105-1082 0-678 105-1091 106-413 292-599 186-185 422-185z"/>
       </defs>
       <use xlink:href="#a"/>
      </g>
     </g>
    </g>
    <g id="bi">
     <g id="bj">
      <path d="m29.32 225.67h823.88" clip-path="url(#b)" fill="none" stroke="#b0b0b0" stroke-linecap="square" stroke-opacity=".3" stroke-width=".8"/>
     </g>
     <g id="bk">
      <use x="29.32" y="225.666448" stroke="#000000" stroke-width=".8" xlink:href="#c"/>
     </g>
     <g id="bl">
      <!-- 1 -->
      <g transform="translate(16.62 229.65) scale(.1 -.1)">
       <defs>
        <path id="n" transform="scale(.015625)" d="m544 0v608h1037v3277h-845v467q333 58 579 147 247 90 451 218h557v-4109h915v-608h-2694z"/>
       </defs>
       <use xlink:href="#n"/>
      </g>
     </g>
    </g>
    <g id="bm">
     <g id="bn">
      <path d="m29.32 202.14h823.88" clip-path="url(#b)" fill="none" stroke="#b0b0b0" stroke-linecap="square" stroke-opacity=".3" stroke-width=".8"/>
     </g>
     <g id="bo">
      <use x="29.32" y="202.141425" stroke="#000000" stroke-width=".8" xlink:href="#c"/>
     </g>
     <g id="bp">
      <!-- 2 -->
      <g transform="translate(16.62 206.13) scale(.1 -.1)">
       <defs>
        <path id="d" transform="scale(.015625)" d="m282 0v429q697 621 1164 1136 468 515 701 956 234 442 234 826 0 256-87 451-86 196-262 301-176 106-445 106-275 0-506-151-230-150-422-368l-416 410q301 333 637 518 336 186 803 186 429 0 749-176t496-493 176-745q0-455-224-919t-615-935q-390-470-889-950 186 20 394 36t374 16h1184v-634h-3046z"/>
       </defs>
       <use xlink:href="#d"/>
      </g>
     </g>
    </g>
    <g id="bq">
     <g id="br">
      <path d="m29.32 178.62h823.88" clip-path="url(#b)" fill="none" stroke="#b0b0b0" stroke-linecap="square" stroke-opacity=".3" stroke-width=".8"/>
     </g>
     <g id="bs">
      <use x="29.32" y="178.616401" stroke="#000000" stroke-width=".8" xlink:href="#c"/>
     </g>
     <g id="bt">
      <!-- 3 -->
      <g transform="translate(16.62 182.6) scale(.1 -.1)">
       <defs>
        <path id="m" transform="scale(.015625)" d="m1715-90q-371 0-656 90t-503 240q-217 150-377 323l359 474q211-205 479-359 269-153 634-153 269 0 467 92 199 93 311 266t112 423q0 256-125 451t-429 300q-304 106-835 106v551q467 0 732 105 266 106 384 291 119 186 119 423 0 307-192 489-192 183-531 183-269 0-503-119-233-118-438-316l-384 460q282 256 614 413 333 157 737 157 422 0 748-144 327-144 512-413 186-269 186-659 0-403-221-685-221-281-592-422v-26q269-70 490-227t349-400 128-557q0-422-215-726-214-304-573-468-358-163-787-163z"/>
       </defs>
       <use xlink:href="#m"/>
      </g>
     </g>
    </g>
    <g id="bu">
     <g id="bv">
      <path d="m29.32 155.09h823.88" clip-path="url(#b)" fill="none" stroke="#b0b0b0" stroke-linecap="square" stroke-opacity=".3" stroke-width=".8"/>
     </g>
     <g id="bw">
      <use x="29.32" y="155.091378" stroke="#000000" stroke-width=".8" xlink:href="#c"/>
     </g>
     <g id="bx">
      <!-- 4 -->
      <g transform="translate(16.62 159.08) scale(.1 -.1)">
       <defs>
        <path id="k" transform="scale(.015625)" d="m2170 0v3072q0 192 12 457 13 266 20 458h-26q-90-179-183-365-92-185-195-364l-921-1415h2579v-576h-3328v493l1875 2957h858v-4717h-691z"/>
       </defs>
       <use xlink:href="#k"/>
      </g>
     </g>
    </g>
    <g id="by">
     <g id="bz">
      <path d="m29.32 131.57h823.88" clip-path="url(#b)" fill="none" stroke="#b0b0b0" stroke-linecap="square" stroke-opacity=".3" stroke-width=".8"/>
     </g>
     <g id="ca">
      <use x="29.32" y="131.566354" stroke="#000000" stroke-width=".8" xlink:href="#c"/>
     </g>
     <g id="cb">
      <!-- 5 -->
      <g transform="translate(16.62 135.55) scale(.1 -.1)">
       <defs>
        <path id="h" transform="scale(.015625)" d="m1715-90q-365 0-653 90t-506 237q-217 147-383 307l352 480q134-134 294-246t361-183q202-70 452-70 262 0 473 118 212 119 333 346 122 227 122 541 0 460-247 716-246 256-649 256-224 0-384-64t-365-198l-365 237 141 2240h2387v-627h-1747l-109-1204q154 77 307 118 154 42 340 42 397 0 723-160t518-490q192-329 192-847 0-519-224-887t-586-560q-361-192-777-192z"/>
       </defs>
       <use xlink:href="#h"/>
      </g>
     </g>
    </g>
    <g id="cc">
     <g id="cd">
      <path d="m29.32 108.04h823.88" clip-path="url(#b)" fill="none" stroke="#b0b0b0" stroke-linecap="square" stroke-opacity=".3" stroke-width=".8"/>
     </g>
     <g id="ce">
      <use x="29.32" y="108.041331" stroke="#000000" stroke-width=".8" xlink:href="#c"/>
     </g>
     <g id="cf">
      <!-- 6 -->
      <g transform="translate(16.62 112.03) scale(.1 -.1)">
       <defs>
        <path id="j" transform="scale(.015625)" d="m1971-90q-339 0-634 144-294 144-518 435-224 292-352 733-128 442-128 1044 0 678 147 1161 148 483 397 784 250 301 570 445t665 144q397 0 688-147 292-147 490-359l-403-448q-128 154-327 253-198 99-409 99-307 0-567-182-259-182-413-605-153-422-153-1145 0-608 115-1002t326-589q212-195 493-195 212 0 375 121 163 122 259 343t96 522q0 300-90 511-89 212-259 320-169 109-419 109-211 0-451-134t-458-461l-25 538q134 192 313 323t374 201q196 71 375 71 397 0 694-163 298-163 467-490 170-326 170-825 0-468-195-817-195-348-512-544-317-195-701-195z"/>
       </defs>
       <use xlink:href="#j"/>
      </g>
     </g>
    </g>
    <g id="cg">
     <g id="ch">
      <path d="m29.32 84.516h823.88" clip-path="url(#b)" fill="none" stroke="#b0b0b0" stroke-linecap="square" stroke-opacity=".3" stroke-width=".8"/>
     </g>
     <g id="ci">
      <use x="29.32" y="84.516307" stroke="#000000" stroke-width=".8" xlink:href="#c"/>
     </g>
     <g id="cj">
      <!-- 7 -->
      <g transform="translate(16.62 88.501) scale(.1 -.1)">
       <defs>
        <path id="i" transform="scale(.015625)" d="m1235 0q32 646 109 1187t224 1024 384 941 576 938h-2208v627h3027v-455q-409-512-665-989-256-476-397-969t-205-1053-90-1251h-755z"/>
       </defs>
       <use xlink:href="#i"/>
      </g>
     </g>
    </g>
    <g id="ck">
     <g id="cl">
      <path d="m29.32 60.991h823.88" clip-path="url(#b)" fill="none" stroke="#b0b0b0" stroke-linecap="square" stroke-opacity=".3" stroke-width=".8"/>
     </g>
     <g id="cm">
      <use x="29.32" y="60.991284" stroke="#000000" stroke-width=".8" xlink:href="#c"/>
     </g>
     <g id="cn">
      <!-- 8 -->
      <g transform="translate(16.62 64.976) scale(.1 -.1)">
       <defs>
        <path id="l" transform="scale(.015625)" d="m1830-90q-441 0-787 163-345 164-547 448-202 285-202 650 0 314 122 557t314 419 403 291v32q-256 186-442 458-185 272-185 643 0 365 176 640t480 425q304 151 694 151 410 0 704-160t457-439q164-278 164-649 0-237-96-448t-234-381q-137-169-291-278v-32q218-115 397-285 179-169 288-406t109-557q0-346-189-628-189-281-532-448-342-166-803-166zm314 2708q205 198 310 419 106 221 106 464 0 211-83 384t-247 272q-163 99-393 99-288 0-480-183-192-182-192-502 0-256 134-429 135-172 359-294t486-230zm-294-2170q236 0 418 89 183 90 285 253 103 164 103 388 0 211-90 367-89 157-246 272-157 116-368 215t-454 195q-244-173-398-426-153-252-153-553 0-237 118-416 119-179 324-282 205-102 461-102z"/>
       </defs>
       <use xlink:href="#l"/>
      </g>
     </g>
    </g>
    <g id="co">
     <g id="cp">
      <path d="m29.32 37.466h823.88" clip-path="url(#b)" fill="none" stroke="#b0b0b0" stroke-linecap="square" stroke-opacity=".3" stroke-width=".8"/>
     </g>
     <g id="cq">
      <use x="29.32" y="37.466261" stroke="#000000" stroke-width=".8" xlink:href="#c"/>
     </g>
     <g id="cr">
      <!-- 9 -->
      <g transform="translate(16.62 41.451) scale(.1 -.1)">
       <defs>
        <path id="r" transform="scale(.015625)" d="m1562-90q-410 0-708 150-297 151-502 356l403 461q141-160 346-256t422-96q224 0 425 102 202 103 352 333 151 230 237 614 87 384 87 941 0 589-115 970t-323 563-496 182q-205 0-372-118-166-118-262-336t-96-525q0-301 86-512 87-211 259-323 173-112 417-112 224 0 460 141 237 141 448 461l32-544q-134-180-313-314t-371-208-384-74q-391 0-689 166-297 167-467 496-169 330-169 823 0 467 195 816t515 541 698 192q339 0 636-138 298-137 519-419 221-281 349-710t128-1018q0-691-141-1187t-391-807q-249-310-563-461-313-150-652-150z"/>
       </defs>
       <use xlink:href="#r"/>
      </g>
     </g>
    </g>
   </g>
   <g id="cs">
    <path d="m66.769 225.67h2.371l1.0076-23.525h1.0132l1.0076-23.525 1.0469 23.525 1.0054-23.525h6.0032l1.0099 23.525h3.0296l1.0099-23.525h5.0494l1.0099-47.05h3.0296l1.0099 23.525h1.0099l1.0099-23.525h1.0099l1.0099-23.525h1.0099l1.0099 23.525h1.0099l1.0099-23.525h2.0198l1.0099 23.525h2.0198l1.0099-23.525h3.0296l1.0099 23.525h2.0198l1.0099 23.525h1.0099l1.0099 23.525h3.0296l1.0099 23.525h1.0099l1.0099 23.525h4.0395l1.0099 23.525h6.0593l1.0099-23.525h22.217l1.0099-23.525h7.0691l1.0099 23.525h3.0296l1.0099-23.525h7.0691l2.0198-47.05h2.0198l1.0099-23.525h6.0593l1.0099-23.525h2.0198l3.0296 70.575h1.0099l1.0099-23.525h1.0099l1.0099-23.525h3.0296l1.0099 23.525h3.0296l1.0099 23.525h1.0099l1.0099 23.525h4.0395l1.0099-23.525h7.0691l1.0099 23.525h3.0296l1.0099 23.525h2.0198l1.0099-23.525h11.109l1.0099-23.525h3.0296l1.0099-23.525 1.0099 23.525h3.0296l1.0099 23.525h12.119l1.0099-23.525h8.079l1.0099-23.525h1.0099l1.0099 23.525 1.0099-23.525 1.0099 23.525h8.079l3.0296-70.575 1.0099 23.525 1.0099-47.05 2.0198 47.05 1.0099-47.05 1.0099 23.525h1.0099l1.0099 23.525h2.0198l1.0099-23.525 1.0099 23.525h6.0593l1.0099 23.525h1.0099l1.0099-23.525 1.0099 23.525h3.0296l1.0099 23.525h1.0099l2.0198 47.05h18.514l.33663-23.525.33663 23.525h1.3465l.33662-23.525h1.6831l.33663-23.525h4.7128l.33663 23.525h1.0099l.33663-23.525h1.3465l.33663-23.525h2.0198l.33663 23.525h9.7621l.33662-23.525h5.7226l.33663 23.525h7.0691l.33663 23.525h2.0198l.33663-23.525h3.3663l.33663 23.525h.67325l.67325-47.05h1.3465l.33662-23.525h1.6831l.33663-23.525h.67325l.33663 23.525h.67325l.33662 23.525h2.3564l.33663-47.05h.33662l.33663-23.525h.67325l.33663 23.525h1.3465l.67325-47.05h3.7029l.33662 23.525h.33663l.33662 23.525h2.0198l.33662 47.05h3.0296l.33662 23.525h13.128l.33663 23.525h18.851l.33663-23.525h7.4058l.67325 23.525h2.693l.67325 23.525h7.4058l.67325-23.525.67325 47.05h8.7523l2.0198-70.575h.67325l1.3465-47.05h1.3465l.67325 23.525.67325-23.525h.67325l.67325 23.525h.67325l.67325 47.05h.67325l.67325-23.525h.67325l.67325-23.525h1.3465l.67325-23.525h3.3663l.67325 23.525 1.3465-47.05.67325 23.525.67325-23.525h2.693l1.3465-47.05.67325 23.525h2.0198l1.3465-47.05.67325 23.525h3.3663l.67325 23.525h3.3663l.67325 23.525h3.3663l1.3465 47.05h.67325l.67325 23.525h4.7128l.67325 23.525h6.0593l.67325 23.525h2.0198l.67325 23.525h2.0198l.67325-23.525h12.119l.67325-23.525h1.3465l.67325-23.525h.67325l.67325 23.525h2.693l.67325-23.525h4.7128l.67325-23.525.67325 23.525h2.0198l.67325-23.525h3.3663l.67325 23.525h1.3465l.67325 23.525.67325-23.525.67325 23.525 1.3465-47.05h.67325l.67325 23.525h.67325l.67325-23.525h1.3465l.67325 23.525h.67325l.67325 23.525h4.7128l.67325-47.05h2.693l.67325 23.525.67325-47.05h2.0198l.67325 23.525h.67325l.67325-23.525.67325-47.05.67325 23.525h2.693l.67325 23.525h.67325l.67325 23.525h.67325l.67325-23.525h2.0198l.67325-23.525h1.3465l.67325 23.525h1.3465l.67325-23.525h2.0198l.67325 23.525.67325-23.525.67325 23.525h4.0395l.67325 23.525.67325-23.525h.67325l.67325 23.525h1.3465l.67325 23.525h8.7523l.67325-23.525h11.445l.67325 23.525h6.7325l.67325 23.525h4.0395l.67325-23.525h2.693l1.3465-47.05h2.0198l.67325 23.525h.67325l.67325 23.525h9.4255l.67325 23.525h8.079l.67325-23.525h1.3465l1.3465-47.05.67325 23.525h.67325l.67325-23.525.67325 23.525h4.0395l.67325-23.525h.67325l.67325-23.525h1.3465l.67325-23.525h5.386l.67325-47.05.67325 23.525h.67325l2.0198 70.575h1.3465l.67325 23.525h4.7128l.67325 23.525h8.079l.67325 23.525h8.7523l.67325 23.525h10.099l.67325-23.525h4.0395l.67325-23.525h14.138l.67325 23.525h2.693l.67325-23.525h2.0198l.67325-23.525h2.693l.67325-23.525h1.3465l.67325 23.525h5.386l.67325-23.525h.67325l.67325 23.525h2.0198l.67325 23.525h1.3465l.67325-23.525h1.3465l.67325-23.525h5.386l.67325-23.525h.67325l.67325 23.525h1.3465l.67325-23.525h2.0198l.67325 23.525h2.0198l.67325 23.525.67325-23.525.67325 23.525h5.386l.67325 23.525h7.4058l.67325 23.525h8.7523v0" clip-path="url(#b)" fill="none" stroke="#28f" stroke-linecap="square" stroke-width="1.5"/>
   </g>
   <g id="ct">
    <path d="m29.32 259.78v-232.9" fill="none" stroke="#000" stroke-linecap="square" stroke-width=".8"/>
   </g>
   <g id="cu">
    <path d="m853.2 259.78v-232.9" fill="none" stroke="#000" stroke-linecap="square" stroke-width=".8"/>
   </g>
   <g id="cv">
    <path d="m29.32 259.78h823.88" fill="none" stroke="#000" stroke-linecap="square" stroke-width=".8"/>
   </g>
   <g id="cw">
    <path d="m29.32 26.88h823.88" fill="none" stroke="#000" stroke-linecap="square" stroke-width=".8"/>
   </g>
   <g id="cx">
    <!-- 同時接続数の推移 -->
    <g transform="translate(393.26 20.88) scale(.12 -.12)">
     <defs>
      <path id="x" transform="scale(.015625)" d="m1587 3936h3232v-518h-3232v518zm320-1114h557v-2534h-557v2534zm301 0h2291v-2086h-2291v512h1734v1069h-1734v505zm-1683 2260h5113v-570h-4524v-5056h-589v5626zm4768 0h595v-4896q0-250-67-397t-227-218q-160-77-426-96t-675-19q-13 83-45 192t-77 218q-45 108-89 185 281-13 527-13 247 0 330 0 83 7 118 42 36 35 36 112v4890z"/>
      <path id="v" transform="scale(.015625)" d="m2714 4672h3238v-525h-3238v525zm-244-1235h3712v-538h-3712v538zm20-1184h3635v-531h-3635v531zm1523 3155h595v-2310h-595v2310zm832-2451h589v-2823q0-230-61-364-61-135-227-199-167-70-423-86t-633-16q-20 121-78 285-57 163-121 284 275-6 509-9t310-3q77 6 106 28 29 23 29 93v2810zm-2023-1677 487 282q153-160 313-352t294-381q135-189 206-343l-519-313q-64 153-189 348-124 196-278 394-154 199-314 365zm-2086 3718h1619v-4281h-1619v544h1056v3187h-1056v550zm32-1843h1293v-537h-1293v537zm-320 1843h563v-4832h-563v4832z"/>
      <path id="w" transform="scale(.015625)" d="m3866 5408h614v-870h-614v870zm-1479-653h3597v-518h-3597v518zm-230-1485h4e3v-518h-4e3v518zm825 922 519 102q64-160 121-342 58-182 96-352 39-170 45-304l-544-128q-6 134-42 313-35 180-83 365-48 186-112 346zm1856 109 589-71q-96-275-202-557-105-281-195-486l-518 77q58 147 122 329 64 183 118 372t86 336zm-2643-2106h3943v-518h-3943v518zm1408 685 602-115q-167-371-362-784t-390-797-362-685l-525 179q160 288 346 666t368 784 323 752zm-659-2157 358 403q352-102 733-240 381-137 752-304 371-166 697-336 327-169 558-329l-384-461q-218 160-532 336-313 176-685 345-371 170-755 323-384 154-742 263zm1894 1114 583-71q-122-550-353-944-230-393-604-662t-922-435q-547-167-1296-269-25 128-93 269-67 141-137 230 678 64 1168 192t819 349q330 221 531 550 202 330 304 791zm-4684 217q396 90 953 240 557 151 1120 311l77-544q-525-154-1053-311-528-156-963-284l-134 588zm121 2093h1965v-563h-1965v563zm819 1248h576v-5229q0-236-51-374t-192-208q-141-77-355-99-214-23-541-16-13 115-64 288t-109 294q205-6 381-6t234 0q64 0 92 28 29 29 29 93v5229z"/>
      <path id="u" transform="scale(.015625)" d="m4058 5408h595v-1798h-595v1798zm-1415-563h3443v-499h-3443v499zm231-992h3008v-499h-3008v499zm-224-877h3475v-1203h-531v729h-2432v-729h-512v1203zm1964-877h551v-1881q0-122 22-157 23-35 106-35 25 0 92 0 68 0 135 0t99 0q51 0 83 54t45 224 19 515q90-70 234-131t259-93q-19-429-83-662-64-234-183-326-118-93-316-93-39 0-103 0t-134 0-138 0q-67 0-99 0-237 0-365 64t-176 218q-48 153-48 422v1881zm-1164-6h550v-455q0-243-48-528-48-284-186-579-137-294-409-572-272-279-727-503-70 90-192 208-121 118-230 195 416 205 665 438 250 234 371 474 122 240 164 467 42 228 42 413v442zm-2240 3309 524-192q-121-244-259-503-137-259-275-496t-259-416l-410 173q122 186 246 438 125 253 240 515 116 263 193 481zm716-743 500-230q-224-359-496-756-272-396-548-764-275-368-518-650l-358 205q179 211 377 483 199 272 387 569 189 298 358 592 170 295 298 551zm-1721-665 307 403q166-154 339-340 173-185 320-364t224-327l-326-460q-77 160-218 348-141 189-314 384-172 196-332 356zm1485-832 435 179q128-211 249-458 122-246 215-474 93-227 137-412l-473-211q-32 185-119 422-86 237-201 486-115 250-243 468zm-1530-583q422 26 998 54 576 29 1184 68l7-499q-570-45-1127-84-556-38-992-70l-70 531zm1702-992 436 135q121-276 214-596t118-556l-454-148q-26 237-112 563-86 327-202 602zm-1363 109 499-83q-57-455-163-897-105-441-253-748-51 32-134 73-83 42-170 83-86 42-144 62 148 294 234 697t131 813zm691 627h525v-2861h-525v2861z"/>
      <path id="p" transform="scale(.015625)" d="m224 2022h3187v-499h-3187v499zm51 2247h3111v-487h-3111v487zm1127-1735 563-121q-154-320-333-672t-352-679q-173-326-326-582l-532 173q148 243 324 566t345 669q170 346 311 646zm934-832 563-64q-89-480-262-838t-461-614-701-432-976-298q-25 128-99 269t-157 237q659 102 1085 303 426 202 666 554t342 883zm422 3597 519-211q-147-218-298-436-150-217-278-377l-403 186q121 173 252 413 132 240 208 425zm-1203 109h563v-2957h-563v2957zm-1075-320 448 186q134-192 246-420 112-227 157-393l-467-211q-38 172-147 406t-237 432zm1094-1050 397-236q-160-263-400-529-240-265-519-489-278-224-553-378-51 103-141 237-89 135-179 218 269 109 534 294 266 186 493 416 228 231 368 467zm487-204q83-45 246-145 163-99 352-211t346-211 221-150l-327-423q-83 77-230 198-147 122-317 253-170 132-327 250-156 119-259 189l295 250zm1798 396h2311v-556h-2311v556zm115 1178 615-90q-103-640-263-1235t-384-1101q-224-505-512-889-44 57-134 134t-186 157-166 125q275 339 473 796 199 458 340 995 141 538 217 1108zm1223-1510 614-58q-147-1101-445-1940-297-838-813-1443-515-604-1321-1014-26 71-90 177-64 105-134 208-70 102-128 159 742 346 1212 880 471 535 730 1290 260 755 375 1741zm-1005-135q134-851 387-1597 253-745 659-1305 407-560 1002-874-70-57-154-150-83-93-154-189-70-96-121-179-633 371-1056 988-422 618-688 1434-265 816-425 1783l550 89zm-3309-3065 327 416q377-148 754-330 378-182 701-378 324-195 548-368l-416-435q-211 179-519 378-307 198-666 383-358 186-729 334z"/>
      <path id="t" transform="scale(.015625)" d="m3686 4378q-64-493-163-1041-99-547-265-1084-192-653-432-1104t-522-688-595-237q-320 0-596 221-275 221-448 621-172 400-172 931 0 537 220 1017 221 480 611 851 391 372 909 583 519 211 1121 211 576 0 1040-186 464-185 793-515 330-329 502-771 173-441 173-941 0-672-278-1194-278-521-816-851-538-329-1318-444l-378 601q166 20 307 42t263 48q307 70 585 217 279 148 496 375 218 227 342 534 125 308 125 692t-122 713q-121 330-358 573-236 243-582 380-346 138-781 138-525 0-935-186-409-185-694-489-284-304-432-656-147-352-147-678 0-365 89-605 90-240 224-355 135-115 276-115t288 144 297 457q151 314 298 800 147 461 246 982 100 522 145 1021l684-12z"/>
      <path id="q" transform="scale(.015625)" d="m2995 2925h2893v-519h-2893v519zm0-1280h2893v-519h-2893v519zm-64-1299h3232v-557h-3232v557zm1312 3577h563v-3763h-563v3763zm429 1466 634-141q-154-390-340-794-185-403-339-684l-512 140q103 199 208 458 106 259 195 528 90 269 154 493zm-1472 25 582-147q-153-518-371-1018-217-499-483-931t-573-758q-38 64-109 160-70 96-147 198-77 103-141 160 416 416 733 1034t509 1302zm128-1203h2720v-537h-2720v-4205h-582v4422l313 320h269zm-3174-2157q396 90 953 240 557 151 1120 311l77-544q-525-154-1053-311-528-156-963-284l-134 588zm121 2093h1965v-563h-1965v563zm819 1248h576v-5229q0-236-51-374t-192-208q-141-77-355-99-214-23-541-16-13 115-64 288t-109 294q205-6 381-6t234 0q64 0 92 28 29 29 29 93v5229z"/>
      <path id="o" transform="scale(.015625)" d="m4051 5402 595-109q-281-493-729-941t-1107-806q-39 64-106 144t-141 153q-73 74-137 119 608 288 1011 678t614 762zm-77-557h1511v-493h-1863l352 493zm1293 0h109l109 25 384-179q-192-505-496-905t-695-701q-390-301-845-519-454-217-947-358-44 109-137 253t-176 227q448 109 867 294 419 186 777 445 359 259 631 592t419 730v96zm-1990-954 377 307q167-96 336-218 170-121 320-249 151-128 247-237l-397-332q-90 108-237 236t-317 259q-169 132-329 234zm1107-934 595-109q-307-538-803-1031-496-492-1232-876-38 64-102 144t-138 156q-74 77-138 116 455 217 807 483t604 554q253 288 407 563zm-90-589h1460v-506h-1818l358 506zm1268 0h121l109 26 384-167q-192-614-531-1075t-787-794q-448-332-983-553-534-221-1129-355-45 115-132 269-86 153-176 249 551 96 1043 285 493 189 903 473 410 285 714 669t464 883v90zm-2132-1056 410 339q186-102 384-237 198-134 371-275t282-269l-435-371q-103 128-270 272-166 144-361 288t-381 253zm-2150 3533h589v-5376h-589v5376zm-992-1242h2336v-569h-2336v569zm1024-224 365-160q-96-339-231-707-134-368-291-727-157-358-336-672-179-313-365-537-44 128-134 291t-160 272q173 192 339 457 167 266 323 570 157 304 282 618t208 595zm941 1946 416-467q-314-122-695-221-380-99-784-173-403-74-780-131-20 102-71 236-51 135-102 231 358 58 732 138 375 80 711 179t573 208zm-397-2579q58-45 179-170 122-125 266-266 144-140 259-265t160-183l-352-473q-58 102-157 255-99 154-218 317-118 164-227 311-108 147-185 237l275 237z"/>
     </defs>
     <use xlink:href="#x"/>
     <use transform="translate(100)" xlink:href="#v"/>
     <use transform="translate(200)" xlink:href="#w"/>
     <use transform="translate(300)" xlink:href="#u"/>
     <use transform="translate(400)" xlink:href="#p"/>
     <use transform="translate(500)" xlink:href="#t"/>
     <use transform="translate(600)" xlink:href="#q"/>
     <use transform="translate(700)" xlink:href="#o"/>
    </g>
   </g>
  </g>
  <g id="cy">
   <g id="cz">
    <path d="m29.32 523.06h823.88v-232.9h-823.88z" fill="#fff"/>
   </g>
   <g id="da">
    <g id="db">
     <g id="dc">
      <path d="m107.49 523.06v-232.9" clip-path="url(#e)" fill="none" stroke="#b0b0b0" stroke-linecap="square" stroke-opacity=".3" stroke-width=".8"/>
     </g>
     <g id="dd">
      <use x="107.490687" y="523.055464" stroke="#000000" stroke-width=".8" xlink:href="#f"/>
     </g>
     <g id="de">
      <!-- 2025-07-01 -->
      <g transform="translate(60.701 563.33) rotate(-30) scale(.1 -.1)">
       <defs>
        <path id="g" transform="scale(.015625)" d="m301 1536v544h1689v-544h-1689z"/>
       </defs>
       <use xlink:href="#d"/>
       <use transform="translate(57)" xlink:href="#a"/>
       <use transform="translate(114)" xlink:href="#d"/>
       <use transform="translate(171)" xlink:href="#h"/>
       <use transform="translate(228)" xlink:href="#g"/>
       <use transform="translate(263.7)" xlink:href="#a"/>
       <use transform="translate(320.7)" xlink:href="#i"/>
       <use transform="translate(377.7)" xlink:href="#g"/>
       <use transform="translate(413.4)" xlink:href="#a"/>
       <use transform="translate(470.4)" xlink:href="#n"/>
      </g>
     </g>
    </g>
    <g id="df">
     <g id="dg">
      <path d="m204.44 523.06v-232.9" clip-path="url(#e)" fill="none" stroke="#b0b0b0" stroke-linecap="square" stroke-opacity=".3" stroke-width=".8"/>
     </g>
     <g id="dh">
      <use x="204.438855" y="523.055464" stroke="#000000" stroke-width=".8" xlink:href="#f"/>
     </g>
     <g id="di">
      <!-- 2025-07-02 -->
      <g transform="translate(157.65 563.33) rotate(-30) scale(.1 -.1)">
       <use xlink:href="#d"/>
       <use transform="translate(57)" xlink:href="#a"/>
       <use transform="translate(114)" xlink:href="#d"/>
       <use transform="translate(171)" xlink:href="#h"/>
       <use transform="translate(228)" xlink:href="#g"/>
       <use transform="translate(263.7)" xlink:href="#a"/>
       <use transform="translate(320.7)" xlink:href="#i"/>
       <use transform="translate(377.7)" xlink:href="#g"/>
       <use transform="translate(413.4)" xlink:href="#a"/>
       <use transform="translate(470.4)" xlink:href="#d"/>
      </g>
     </g>
    </g>
    <g id="dj">
     <g id="dk">
      <path d="m301.39 523.06v-232.9" clip-path="url(#e)" fill="none" stroke="#b0b0b0" stroke-linecap="square" stroke-opacity=".3" stroke-width=".8"/>
     </g>
     <g id="dl">
      <use x="301.387022" y="523.055464" stroke="#000000" stroke-width=".8" xlink:href="#f"/>
     </g>
     <g id="dm">
      <!-- 2025-07-03 -->
      <g transform="translate(254.6 563.33) rotate(-30) scale(.1 -.1)">
       <use xlink:href="#d"/>
       <use transform="translate(57)" xlink:href="#a"/>
       <use transform="translate(114)" xlink:href="#d"/>
       <use transform="translate(171)" xlink:href="#h"/>
       <use transform="translate(228)" xlink:href="#g"/>
       <use transform="translate(263.7)" xlink:href="#a"/>
       <use transform="translate(320.7)" xlink:href="#i"/>
       <use transform="translate(377.7)" xlink:href="#g"/>
       <use transform="translate(413.4)" xlink:href="#a"/>
       <use transform="translate(470.4)" xlink:href="#m"/>
      </g>
     </g>
    </g>
    <g id="dn">
     <g id="do">
      <path d="m398.34 523.06v-232.9" clip-path="url(#e)" fill="none" stroke="#b0b0b0" stroke-linecap="square" stroke-opacity=".3" stroke-width=".8"/>
     </g>
     <g id="dp">
      <use x="398.335189" y="523.055464" stroke="#000000" stroke-width=".8" xlink:href="#f"/>
     </g>
     <g id="dq">
      <!-- 2025-07-04 -->
      <g transform="translate(351.55 563.33) rotate(-30) scale(.1 -.1)">
       <use xlink:href="#d"/>
       <use transform="translate(57)" xlink:href="#a"/>
       <use transform="translate(114)" xlink:href="#d"/>
       <use transform="translate(171)" xlink:href="#h"/>
       <use transform="translate(228)" xlink:href="#g"/>
       <use transform="translate(263.7)" xlink:href="#a"/>
       <use transform="translate(320.7)" xlink:href="#i"/>
       <use transform="translate(377.7)" xlink:href="#g"/>
       <use transform="translate(413.4)" xlink:href="#a"/>
       <use transform="translate(470.4)" xlink:href="#k"/>
      </g>
     </g>
    </g>
    <g id="dr">
     <g id="ds">
      <path d="m495.28 523.06v-232.9" clip-path="url(#e)" fill="none" stroke="#b0b0b0" stroke-linecap="square" stroke-opacity=".3" stroke-width=".8"/>
     </g>
     <g id="dt">
      <use x="495.283356" y="523.055464" stroke="#000000" stroke-width=".8" xlink:href="#f"/>
     </g>
     <g id="du">
      <!-- 2025-07-05 -->
      <g transform="translate(448.49 563.33) rotate(-30) scale(.1 -.1)">
       <use xlink:href="#d"/>
       <use transform="translate(57)" xlink:href="#a"/>
       <use transform="translate(114)" xlink:href="#d"/>
       <use transform="translate(171)" xlink:href="#h"/>
       <use transform="translate(228)" xlink:href="#g"/>
       <use transform="translate(263.7)" xlink:href="#a"/>
       <use transform="translate(320.7)" xlink:href="#i"/>
       <use transform="translate(377.7)" xlink:href="#g"/>
       <use transform="translate(413.4)" xlink:href="#a"/>
       <use transform="translate(470.4)" xlink:href="#h"/>
      </g>
     </g>
    </g>
    <g id="dv">
     <g id="dw">
      <path d="m592.23 523.06v-232.9" clip-path="url(#e)" fill="none" stroke="#b0b0b0" stroke-linecap="square" stroke-opacity=".3" stroke-width=".8"/>
     </g>
     <g id="dx">
      <use x="592.231524" y="523.055464" stroke="#000000" stroke-width=".8" xlink:href="#f"/>
     </g>
     <g id="dy">
      <!-- 2025-07-06 -->
      <g transform="translate(545.44 563.33) rotate(-30) scale(.1 -.1)">
       <use xlink:href="#d"/>
       <use transform="translate(57)" xlink:href="#a"/>
       <use transform="translate(114)" xlink:href="#d"/>
       <use transform="translate(171)" xlink:href="#h"/>
       <use transform="translate(228)" xlink:href="#g"/>
       <use transform="translate(263.7)" xlink:href="#a"/>
       <use transform="translate(320.7)" xlink:href="#i"/>
       <use transform="translate(377.7)" xlink:href="#g"/>
       <use transform="translate(413.4)" xlink:href="#a"/>
       <use transform="translate(470.4)" xlink:href="#j"/>
      </g>
     </g>
    </g>
    <g id="dz">
     <g id="ea">
      <path d="m689.18 523.06v-232.9" clip-path="url(#e)" fill="none" stroke="#b0b0b0" stroke-linecap="square" stroke-opacity=".3" stroke-width=".8"/>
     </g>
     <g id="eb">
      <use x="689.179691" y="523.055464" stroke="#000000" stroke-width=".8" xlink:href="#f"/>
     </g>
     <g id="ec">
      <!-- 2025-07-07 -->
      <g transform="translate(642.39 563.33) rotate(-30) scale(.1 -.1)">
       <use xlink:href="#d"/>
       <use transform="translate(57)" xlink:href="#a"/>
       <use transform="translate(114)" xlink:href="#d"/>
       <use transform="translate(171)" xlink:href="#h"/>
       <use transform="translate(228)" xlink:href="#g"/>
       <use transform="translate(263.7)" xlink:href="#a"/>
       <use transform="translate(320.7)" xlink:href="#i"/>
       <use transform="translate(377.7)" xlink:href="#g"/>
       <use transform="translate(413.4)" xlink:href="#a"/>
       <use transform="translate(470.4)" xlink:href="#i"/>
      </g>
     </g>
    </g>
    <g id="ed">
     <g id="ee">
      <path d="m786.13 523.06v-232.9" clip-path="url(#e)" fill="none" stroke="#b0b0b0" stroke-linecap="square" stroke-opacity=".3" stroke-width=".8"/>
     </g>
     <g id="ef">
      <use x="786.127858" y="523.055464" stroke="#000000" stroke-width=".8" xlink:href="#f"/>
     </g>
     <g id="eg">
      <!-- 2025-07-08 -->
      <g transform="translate(739.34 563.33) rotate(-30) scale(.1 -.1)">
       <use xlink:href="#d"/>
       <use transform="translate(57)" xlink:href="#a"/>
       <use transform="translate(114)" xlink:href="#d"/>
       <use transform="translate(171)" xlink:href="#h"/>
       <use transform="translate(228)" xlink:href="#g"/>
       <use transform="translate(263.7)" xlink:href="#a"/>
       <use transform="translate(320.7)" xlink:href="#i"/>
       <use transform="translate(377.7)" xlink:href="#g"/>
       <use transform="translate(413.4)" xlink:href="#a"/>
       <use transform="translate(470.4)" xlink:href="#l"/>
      </g>
     </g>
    </g>
   </g>
   <g id="eh">
    <g id="ei">
     <g id="ej">
      <path d="m29.32 521.67h823.88" clip-path="url(#e)" fill="none" stroke="#b0b0b0" stroke-linecap="square" stroke-opacity=".3" stroke-width=".8"/>
     </g>
     <g id="ek">
      <use x="29.32" y="521.674647" stroke="#000000" stroke-width=".8" xlink:href="#c"/>
     </g>
     <g id="el">
      <!-- 48 -->
      <g transform="translate(10.92 525.66) scale(.1 -.1)">
       <use xlink:href="#k"/>
       <use transform="translate(57)" xlink:href="#l"/>
      </g>
     </g>
    </g>
    <g id="em">
     <g id="en">
      <path d="m29.32 494.06h823.88" clip-path="url(#e)" fill="none" stroke="#b0b0b0" stroke-linecap="square" stroke-opacity=".3" stroke-width=".8"/>
     </g>
     <g id="eo">
      <use x="29.32" y="494.058315" stroke="#000000" stroke-width=".8" xlink:href="#c"/>
     </g>
     <g id="ep">
      <!-- 51 -->
      <g transform="translate(10.92 498.04) scale(.1 -.1)">
       <use xlink:href="#h"/>
       <use transform="translate(57)" xlink:href="#n"/>
      </g>
     </g>
    </g>
    <g id="eq">
     <g id="er">
      <path d="m29.32 466.44h823.88" clip-path="url(#e)" fill="none" stroke="#b0b0b0" stroke-linecap="square" stroke-opacity=".3" stroke-width=".8"/>
     </g>
     <g id="es">
      <use x="29.32" y="466.441984" stroke="#000000" stroke-width=".8" xlink:href="#c"/>
     </g>
     <g id="et">
      <!-- 54 -->
      <g transform="translate(10.92 470.43) scale(.1 -.1)">
       <use xlink:href="#h"/>
       <use transform="translate(57)" xlink:href="#k"/>
      </g>
     </g>
    </g>
    <g id="eu">
     <g id="ev">
      <path d="m29.32 438.83h823.88" clip-path="url(#e)" fill="none" stroke="#b0b0b0" stroke-linecap="square" stroke-opacity=".3" stroke-width=".8"/>
     </g>
     <g id="ew">
      <use x="29.32" y="438.825652" stroke="#000000" stroke-width=".8" xlink:href="#c"/>
     </g>
     <g id="ex">
      <!-- 57 -->
      <g transform="translate(10.92 442.81) scale(.1 -.1)">
       <use xlink:href="#h"/>
       <use transform="translate(57)" xlink:href="#i"/>
      </g>
     </g>
    </g>
    <g id="ey">
     <g id="ez">
      <path d="m29.32 411.21h823.88" clip-path="url(#e)" fill="none" stroke="#b0b0b0" stroke-linecap="square" stroke-opacity=".3" stroke-width=".8"/>
     </g>
     <g id="fa">
      <use x="29.32" y="411.20932" stroke="#000000" stroke-width=".8" xlink:href="#c"/>
     </g>
     <g id="fb">
      <!-- 60 -->
      <g transform="translate(10.92 415.19) scale(.1 -.1)">
       <use xlink:href="#j"/>
       <use transform="translate(57)" xlink:href="#a"/>
      </g>
     </g>
    </g>
    <g id="fc">
     <g id="fd">
      <path d="m29.32 383.59h823.88" clip-path="url(#e)" fill="none" stroke="#b0b0b0" stroke-linecap="square" stroke-opacity=".3" stroke-width=".8"/>
     </g>
     <g id="fe">
      <use x="29.32" y="383.592988" stroke="#000000" stroke-width=".8" xlink:href="#c"/>
     </g>
     <g id="ff">
      <!-- 63 -->
      <g transform="translate(10.92 387.58) scale(.1 -.1)">
       <use xlink:href="#j"/>
       <use transform="translate(57)" xlink:href="#m"/>
      </g>
     </g>
    </g>
    <g id="fg">
     <g id="fh">
      <path d="m29.32 355.98h823.88" clip-path="url(#e)" fill="none" stroke="#b0b0b0" stroke-linecap="square" stroke-opacity=".3" stroke-width=".8"/>
     </g>
     <g id="fi">
      <use x="29.32" y="355.976656" stroke="#000000" stroke-width=".8" xlink:href="#c"/>
     </g>
     <g id="fj">
      <!-- 66 -->
      <g transform="translate(10.92 359.96) scale(.1 -.1)">
       <use xlink:href="#j"/>
       <use transform="translate(57)" xlink:href="#j"/>
      </g>
     </g>
    </g>
    <g id="fk">
     <g id="fl">
      <path d="m29.32 328.36h823.88" clip-path="url(#e)" fill="none" stroke="#b0b0b0" stroke-linecap="square" stroke-opacity=".3" stroke-width=".8"/>
     </g>
     <g id="fm">
      <use x="29.32" y="328.360324" stroke="#000000" stroke-width=".8" xlink:href="#c"/>
     </g>
     <g id="fn">
      <!-- 69 -->
      <g transform="translate(10.92 332.35) scale(.1 -.1)">
       <use xlink:href="#j"/>
       <use transform="translate(57)" xlink:href="#r"/>
      </g>
     </g>
    </g>
    <g id="fo">
     <g id="fp">
      <path d="m29.32 300.74h823.88" clip-path="url(#e)" fill="none" stroke="#b0b0b0" stroke-linecap="square" stroke-opacity=".3" stroke-width=".8"/>
     </g>
     <g id="fq">
      <use x="29.32" y="300.743993" stroke="#000000" stroke-width=".8" xlink:href="#c"/>
     </g>
     <g id="fr">
      <!-- 72 -->
      <g transform="translate(10.92 304.73) scale(.1 -.1)">
       <use xlink:href="#i"/>
       <use transform="translate(57)" xlink:href="#d"/>
      </g>
     </g>
    </g>
   </g>
   <g id="fs">
    <path d="m66.769 512.47h4.3918l1.0076-9.2054h1.0469l2.0175-18.411h12.06l1.0099-9.2054h91.899l1.0099-9.2054h64.632l1.0099-9.2054 1.0099 9.2054h10.099l1.0099-9.2054h31.306l1.0099-9.2054h10.099l1.0099-9.2054 1.0099 9.2054h6.0593l1.0099-9.2054h28.613l.33662-9.2054h1.6831l.33663-9.2054h49.147l.33662-9.2054h77.424l.67325-9.2054h.67325l1.3465-18.411h1.3465l.67325-9.2054h10.099l.67325-9.2054h10.099l.67325-9.2054h37.029l.67325-9.2054h24.91l.67325 9.2054h20.198l.67325-9.2054h9.4255l.67325-9.2054h12.792l.67325-9.2054h8.7523l.67325-9.2054h57.226l.67325 9.2054h6.7325l.67325-9.2054h4.7128l.67325-9.2054h2.693l.67325-9.2054h113.11l.67325 9.2054h16.158v0" clip-path="url(#e)" fill="none" stroke="#28f" stroke-linecap="square" stroke-width="1.5"/>
   </g>
   <g id="ft">
    <path d="m29.32 523.06v-232.9" fill="none" stroke="#000" stroke-linecap="square" stroke-width=".8"/>
   </g>
   <g id="fu">
    <path d="m853.2 523.06v-232.9" fill="none" stroke="#000" stroke-linecap="square" stroke-width=".8"/>
   </g>
   <g id="fv">
    <path d="m29.32 523.06h823.88" fill="none" stroke="#000" stroke-linecap="square" stroke-width=".8"/>
   </g>
   <g id="fw">
    <path d="m29.32 290.16h823.88" fill="none" stroke="#000" stroke-linecap="square" stroke-width=".8"/>
   </g>
   <g id="fx">
    <!-- サーバー数の推移 -->
    <g transform="translate(393.26 284.16) scale(.12 -.12)">
     <defs>
      <path id="z" transform="scale(.015625)" d="m4685 2893q0-621-84-1111-83-489-288-877-204-387-569-691t-928-560l-544 512q448 167 781 371 333 205 550 503 218 298 323 739 106 442 106 1075v1620q0 192-10 339-9 147-22 217h723q-6-70-22-217t-16-339v-1581zm-2304 2086q-7-64-23-199-16-134-16-313v-2317q0-128 6-256 7-128 13-224 7-96 13-140h-710q6 44 12 140 7 96 13 221 7 125 7 259v2317q0 122-10 256-9 135-28 256h723zm-1978-1197q45-12 144-22t237-20q138-9 285-9h4217q237 0 394 13t246 26v-679q-76 7-240 13-163 6-393 6h-4224q-147 0-282-3-134-3-234-10-99-6-150-12v697z"/>
      <path id="s" transform="scale(.015625)" d="m621 2854q109-6 265-16 157-9 339-16 183-6 349-6 128 0 352 0t509 0 598 0q314 0 624 0 311 0 586 0t486 0q212 0 327 0 230 0 416 16t301 22v-793q-109 6-308 19-198 13-409 13-109 0-324 0-214 0-489 0t-586 0q-310 0-624 0-313 0-598 0t-509 0-352 0q-262 0-525-10-262-9-428-22v793z"/>
      <path id="y" transform="scale(.015625)" d="m4941 5037q83-109 176-269t182-320q90-160 154-288l-416-179q-96 192-240 448t-272 435l416 173zm723 275q83-122 182-282 100-160 196-317 96-156 153-271l-416-186q-102 205-246 454-144 250-279 429l410 173zm-4339-3360q102 262 201 556 100 295 183 612t144 630q61 314 93 602l723-147q-19-83-45-183-26-99-48-195t-42-166q-32-154-86-394t-131-512-164-551q-86-278-182-514-115-301-269-618-153-317-326-618-173-300-346-550l-697 294q301 397 563 874t429 880zm3155 198q-96 250-215 531-118 282-243 567-124 285-246 534-122 250-224 429l659 218q96-179 221-429t253-535q128-284 249-566 122-281 218-525 90-230 195-518 106-288 211-592 106-304 195-589 90-285 154-515l-729-237q-84 352-199 736t-240 768-259 723z"/>
     </defs>
     <use xlink:href="#z"/>
     <use transform="translate(100)" xlink:href="#s"/>
     <use transform="translate(200)" xlink:href="#y"/>
     <use transform="translate(300)" xlink:href="#s"/>
     <use transform="translate(400)" xlink:href="#p"/>
     <use transform="translate(500)" xlink:href="#t"/>
     <use transform="translate(600)" xlink:href="#q"/>
     <use transform="translate(700)" xlink:href="#o"/>
    </g>
   </g>
  </g>
 </g>
 <defs>
  <clipPath id="b">
   <rect x="29.32" y="26.88" width="823.88" height="232.9"/>
  </clipPath>
  <clipPath id="e">
   <rect x="29.32" y="290.16" width="823.88" height="232.9"/>
  </clipPath>
 </defs>
</svg>
