<!DOCTYPE svg  PUBLIC '-//W3C//DTD SVG 1.1//EN'  'http://www.w3.org/Graphics/SVG/1.1/DTD/svg11.dtd'>
<svg version="1.1" viewBox="0 0 864 576" xmlns="http://www.w3.org/2000/svg" xmlns:xlink="http://www.w3.org/1999/xlink">
 <defs>
  <style type="text/css">*{stroke-linejoin: round; stroke-linecap: butt}</style>
 </defs>
 <g id="e">
  <g id="f">
   <path d="m0 576h864v-576h-864z" fill="#fff"/>
  </g>
  <g id="g">
   <g id="h">
    <path d="m32.064 262.97h821.14v-236.09h-821.14z" fill="#fff"/>
   </g>
   <g id="i">
    <g id="j">
     <g id="k">
      <path d="m54.606 262.97v-236.09" clip-path="url(#c)" fill="none" stroke="#b0b0b0" stroke-linecap="square" stroke-opacity=".3" stroke-width=".8"/>
     </g>
     <g id="l">
      <defs>
       <path id="a" d="m0 0v3.5" stroke="#000" stroke-width=".8"/>
      </defs>
      <use x="54.606336" y="262.972732" stroke="#000000" stroke-width=".8" xlink:href="#a"/>
     </g>
    </g>
    <g id="m">
     <g id="n">
      <path d="m147.04 262.97v-236.09" clip-path="url(#c)" fill="none" stroke="#b0b0b0" stroke-linecap="square" stroke-opacity=".3" stroke-width=".8"/>
     </g>
     <g id="o">
      <use x="147.037012" y="262.972732" stroke="#000000" stroke-width=".8" xlink:href="#a"/>
     </g>
    </g>
    <g id="p">
     <g id="q">
      <path d="m239.47 262.97v-236.09" clip-path="url(#c)" fill="none" stroke="#b0b0b0" stroke-linecap="square" stroke-opacity=".3" stroke-width=".8"/>
     </g>
     <g id="r">
      <use x="239.467689" y="262.972732" stroke="#000000" stroke-width=".8" xlink:href="#a"/>
     </g>
    </g>
    <g id="s">
     <g id="t">
      <path d="m331.9 262.97v-236.09" clip-path="url(#c)" fill="none" stroke="#b0b0b0" stroke-linecap="square" stroke-opacity=".3" stroke-width=".8"/>
     </g>
     <g id="u">
      <use x="331.898365" y="262.972732" stroke="#000000" stroke-width=".8" xlink:href="#a"/>
     </g>
    </g>
    <g id="v">
     <g id="w">
      <path d="m424.33 262.97v-236.09" clip-path="url(#c)" fill="none" stroke="#b0b0b0" stroke-linecap="square" stroke-opacity=".3" stroke-width=".8"/>
     </g>
     <g id="x">
      <use x="424.329042" y="262.972732" stroke="#000000" stroke-width=".8" xlink:href="#a"/>
     </g>
    </g>
    <g id="y">
     <g id="z">
      <path d="m516.76 262.97v-236.09" clip-path="url(#c)" fill="none" stroke="#b0b0b0" stroke-linecap="square" stroke-opacity=".3" stroke-width=".8"/>
     </g>
     <g id="aa">
      <use x="516.759719" y="262.972732" stroke="#000000" stroke-width=".8" xlink:href="#a"/>
     </g>
    </g>
    <g id="ab">
     <g id="ac">
      <path d="m609.19 262.97v-236.09" clip-path="url(#c)" fill="none" stroke="#b0b0b0" stroke-linecap="square" stroke-opacity=".3" stroke-width=".8"/>
     </g>
     <g id="ad">
      <use x="609.190395" y="262.972732" stroke="#000000" stroke-width=".8" xlink:href="#a"/>
     </g>
    </g>
    <g id="ae">
     <g id="af">
      <path d="m701.62 262.97v-236.09" clip-path="url(#c)" fill="none" stroke="#b0b0b0" stroke-linecap="square" stroke-opacity=".3" stroke-width=".8"/>
     </g>
     <g id="ag">
      <use x="701.621072" y="262.972732" stroke="#000000" stroke-width=".8" xlink:href="#a"/>
     </g>
    </g>
    <g id="ah">
     <g id="ai">
      <path d="m794.05 262.97v-236.09" clip-path="url(#c)" fill="none" stroke="#b0b0b0" stroke-linecap="square" stroke-opacity=".3" stroke-width=".8"/>
     </g>
     <g id="aj">
      <use x="794.051749" y="262.972732" stroke="#000000" stroke-width=".8" xlink:href="#a"/>
     </g>
    </g>
   </g>
   <g id="ak">
    <g id="al">
     <g id="am">
      <path d="m32.064 252.24h821.14" clip-path="url(#c)" fill="none" stroke="#b0b0b0" stroke-linecap="square" stroke-opacity=".3" stroke-width=".8"/>
     </g>
     <g id="an">
      <defs>
       <path id="d" d="m0 0h-3.5" stroke="#000" stroke-width=".8"/>
      </defs>
      <use x="32.064483" y="252.241244" stroke="#000000" stroke-width=".8" xlink:href="#d"/>
     </g>
     <g id="ao">
      <text transform="rotate(-0 25.064 256.23)" x="25.064483" y="256.2264" font-family="'Noto Sans JP'" font-size="10px" text-anchor="end">0</text>
     </g>
    </g>
    <g id="ap">
     <g id="aq">
      <path d="m32.064 198.58h821.14" clip-path="url(#c)" fill="none" stroke="#b0b0b0" stroke-linecap="square" stroke-opacity=".3" stroke-width=".8"/>
     </g>
     <g id="ar">
      <use x="32.064483" y="198.583805" stroke="#000000" stroke-width=".8" xlink:href="#d"/>
     </g>
     <g id="as">
      <text transform="rotate(-0 25.064 202.57)" x="25.064483" y="202.568961" font-family="'Noto Sans JP'" font-size="10px" text-anchor="end">1</text>
     </g>
    </g>
    <g id="at">
     <g id="au">
      <path d="m32.064 144.93h821.14" clip-path="url(#c)" fill="none" stroke="#b0b0b0" stroke-linecap="square" stroke-opacity=".3" stroke-width=".8"/>
     </g>
     <g id="av">
      <use x="32.064483" y="144.926366" stroke="#000000" stroke-width=".8" xlink:href="#d"/>
     </g>
     <g id="aw">
      <text transform="rotate(-0 25.064 148.91)" x="25.064483" y="148.911522" font-family="'Noto Sans JP'" font-size="10px" text-anchor="end">2</text>
     </g>
    </g>
    <g id="ax">
     <g id="ay">
      <path d="m32.064 91.269h821.14" clip-path="url(#c)" fill="none" stroke="#b0b0b0" stroke-linecap="square" stroke-opacity=".3" stroke-width=".8"/>
     </g>
     <g id="az">
      <use x="32.064483" y="91.268927" stroke="#000000" stroke-width=".8" xlink:href="#d"/>
     </g>
     <g id="ba">
      <text transform="rotate(-0 25.064 95.254)" x="25.064483" y="95.254083" font-family="'Noto Sans JP'" font-size="10px" text-anchor="end">3</text>
     </g>
    </g>
    <g id="bb">
     <g id="bc">
      <path d="m32.064 37.611h821.14" clip-path="url(#c)" fill="none" stroke="#b0b0b0" stroke-linecap="square" stroke-opacity=".3" stroke-width=".8"/>
     </g>
     <g id="bd">
      <use x="32.064483" y="37.611488" stroke="#000000" stroke-width=".8" xlink:href="#d"/>
     </g>
     <g id="be">
      <text transform="rotate(-0 25.064 41.597)" x="25.064483" y="41.596644" font-family="'Noto Sans JP'" font-size="10px" text-anchor="end">4</text>
     </g>
    </g>
   </g>
   <g id="bf">
    <path d="m69.389 198.58h41.061l1.9256 53.657h3.8513l1.9256-53.657h5.7769l1.9256-53.657h1.9256l1.9256-53.657h7.7026l1.9256 107.31 1.9256-53.657 1.9256 53.657h1.9256l1.9256-107.31 1.9256 53.657h7.7026l1.9256 53.657h1.9256l1.9256 53.657h80.877l1.9256-53.657h25.033l1.9256-107.31h5.7769l1.9256 53.657h11.554l1.9256 53.657 3.8513-107.31h5.7769l1.9256-53.657h3.8513l1.9256 107.31 1.9256-53.657h1.9256l1.9256 53.657h5.7769l1.9256 53.657h25.033l1.9256 53.657h50.067l1.9256-53.657h11.554l1.9256 53.657h25.033l3.8513-107.31h15.405l1.9256-53.657h7.7026l1.9256-53.657h1.9256l1.9256 53.657h11.554l1.9256-53.657h17.331l1.9256 53.657h3.8513l1.9256 53.657h5.7769l1.9256 53.657h3.8513l1.9256 53.657h51.992l1.9256-53.657 2.5675 53.657h13.479l.64188-53.657h40.438l.64188-53.657h7.0607l.64188 53.657h8.9863l.64188 53.657h1.9256l.64188-53.657h16.047l.64188 53.657h5.7769l.64188-53.657h7.0607l.64188-53.657h5.135l.64188-53.657h5.7769l.64188 53.657h19.898l.64188 53.657h7.0607l.64188 53.657h42.364l.64188-53.657h13.479l1.2838 53.657h24.391l1.2838-53.657h1.2838v0" clip-path="url(#c)" fill="none" stroke="#28f" stroke-linecap="square" stroke-width="1.5"/>
   </g>
   <g id="bg">
    <path d="m32.064 262.97v-236.09" fill="none" stroke="#000" stroke-linecap="square" stroke-width=".8"/>
   </g>
   <g id="bh">
    <path d="m853.2 262.97v-236.09" fill="none" stroke="#000" stroke-linecap="square" stroke-width=".8"/>
   </g>
   <g id="bi">
    <path d="m32.064 262.97h821.14" fill="none" stroke="#000" stroke-linecap="square" stroke-width=".8"/>
   </g>
   <g id="bj">
    <path d="m32.064 26.88h821.14" fill="none" stroke="#000" stroke-linecap="square" stroke-width=".8"/>
   </g>
   <g id="bk">
    <text transform="rotate(-0 442.63 20.88)" x="442.632242" y="20.88" font-family="'Noto Sans JP'" font-size="12px" text-anchor="middle">同時接続数の推移</text>
   </g>
  </g>
  <g id="bl">
   <g id="bm">
    <path d="m32.064 529.45h821.14v-236.09h-821.14z" fill="#fff"/>
   </g>
   <g id="bn">
    <g id="bo">
     <g id="bp">
      <path d="m54.606 529.45v-236.09" clip-path="url(#b)" fill="none" stroke="#b0b0b0" stroke-linecap="square" stroke-opacity=".3" stroke-width=".8"/>
     </g>
     <g id="bq">
      <use x="54.606336" y="529.445464" stroke="#000000" stroke-width=".8" xlink:href="#a"/>
     </g>
     <g id="br">
      <text transform="translate(18.833 563.36) rotate(-30)" font-family="'Noto Sans JP'" font-size="10px">06-30 12</text>
     </g>
    </g>
    <g id="bs">
     <g id="bt">
      <path d="m147.04 529.45v-236.09" clip-path="url(#b)" fill="none" stroke="#b0b0b0" stroke-linecap="square" stroke-opacity=".3" stroke-width=".8"/>
     </g>
     <g id="bu">
      <use x="147.037012" y="529.445464" stroke="#000000" stroke-width=".8" xlink:href="#a"/>
     </g>
     <g id="bv">
      <text transform="translate(111.26 563.36) rotate(-30)" font-family="'Noto Sans JP'" font-size="10px">07-01 00</text>
     </g>
    </g>
    <g id="bw">
     <g id="bx">
      <path d="m239.47 529.45v-236.09" clip-path="url(#b)" fill="none" stroke="#b0b0b0" stroke-linecap="square" stroke-opacity=".3" stroke-width=".8"/>
     </g>
     <g id="by">
      <use x="239.467689" y="529.445464" stroke="#000000" stroke-width=".8" xlink:href="#a"/>
     </g>
     <g id="bz">
      <text transform="translate(203.69 563.36) rotate(-30)" font-family="'Noto Sans JP'" font-size="10px">07-01 12</text>
     </g>
    </g>
    <g id="ca">
     <g id="cb">
      <path d="m331.9 529.45v-236.09" clip-path="url(#b)" fill="none" stroke="#b0b0b0" stroke-linecap="square" stroke-opacity=".3" stroke-width=".8"/>
     </g>
     <g id="cc">
      <use x="331.898365" y="529.445464" stroke="#000000" stroke-width=".8" xlink:href="#a"/>
     </g>
     <g id="cd">
      <text transform="translate(296.12 563.36) rotate(-30)" font-family="'Noto Sans JP'" font-size="10px">07-02 00</text>
     </g>
    </g>
    <g id="ce">
     <g id="cf">
      <path d="m424.33 529.45v-236.09" clip-path="url(#b)" fill="none" stroke="#b0b0b0" stroke-linecap="square" stroke-opacity=".3" stroke-width=".8"/>
     </g>
     <g id="cg">
      <use x="424.329042" y="529.445464" stroke="#000000" stroke-width=".8" xlink:href="#a"/>
     </g>
     <g id="ch">
      <text transform="translate(388.56 563.36) rotate(-30)" font-family="'Noto Sans JP'" font-size="10px">07-02 12</text>
     </g>
    </g>
    <g id="ci">
     <g id="cj">
      <path d="m516.76 529.45v-236.09" clip-path="url(#b)" fill="none" stroke="#b0b0b0" stroke-linecap="square" stroke-opacity=".3" stroke-width=".8"/>
     </g>
     <g id="ck">
      <use x="516.759719" y="529.445464" stroke="#000000" stroke-width=".8" xlink:href="#a"/>
     </g>
     <g id="cl">
      <text transform="translate(480.99 563.36) rotate(-30)" font-family="'Noto Sans JP'" font-size="10px">07-03 00</text>
     </g>
    </g>
    <g id="cm">
     <g id="cn">
      <path d="m609.19 529.45v-236.09" clip-path="url(#b)" fill="none" stroke="#b0b0b0" stroke-linecap="square" stroke-opacity=".3" stroke-width=".8"/>
     </g>
     <g id="co">
      <use x="609.190395" y="529.445464" stroke="#000000" stroke-width=".8" xlink:href="#a"/>
     </g>
     <g id="cp">
      <text transform="translate(573.42 563.36) rotate(-30)" font-family="'Noto Sans JP'" font-size="10px">07-03 12</text>
     </g>
    </g>
    <g id="cq">
     <g id="cr">
      <path d="m701.62 529.45v-236.09" clip-path="url(#b)" fill="none" stroke="#b0b0b0" stroke-linecap="square" stroke-opacity=".3" stroke-width=".8"/>
     </g>
     <g id="cs">
      <use x="701.621072" y="529.445464" stroke="#000000" stroke-width=".8" xlink:href="#a"/>
     </g>
     <g id="ct">
      <text transform="translate(665.85 563.36) rotate(-30)" font-family="'Noto Sans JP'" font-size="10px">07-04 00</text>
     </g>
    </g>
    <g id="cu">
     <g id="cv">
      <path d="m794.05 529.45v-236.09" clip-path="url(#b)" fill="none" stroke="#b0b0b0" stroke-linecap="square" stroke-opacity=".3" stroke-width=".8"/>
     </g>
     <g id="cw">
      <use x="794.051749" y="529.445464" stroke="#000000" stroke-width=".8" xlink:href="#a"/>
     </g>
     <g id="cx">
      <text transform="translate(758.28 563.36) rotate(-30)" font-family="'Noto Sans JP'" font-size="10px">07-04 12</text>
     </g>
    </g>
   </g>
   <g id="cy">
    <g id="cz">
     <g id="da">
      <path d="m32.064 518.71h821.14" clip-path="url(#b)" fill="none" stroke="#b0b0b0" stroke-linecap="square" stroke-opacity=".3" stroke-width=".8"/>
     </g>
     <g id="db">
      <use x="32.064483" y="518.713976" stroke="#000000" stroke-width=".8" xlink:href="#d"/>
     </g>
     <g id="dc">
      <text transform="rotate(-0 25.064 522.7)" x="25.064483" y="522.699132" font-family="'Noto Sans JP'" font-size="10px" text-anchor="end">30</text>
     </g>
    </g>
    <g id="dd">
     <g id="de">
      <path d="m32.064 475.79h821.14" clip-path="url(#b)" fill="none" stroke="#b0b0b0" stroke-linecap="square" stroke-opacity=".3" stroke-width=".8"/>
     </g>
     <g id="df">
      <use x="32.064483" y="475.788025" stroke="#000000" stroke-width=".8" xlink:href="#d"/>
     </g>
     <g id="dg">
      <text transform="rotate(-0 25.064 479.77)" x="25.064483" y="479.773181" font-family="'Noto Sans JP'" font-size="10px" text-anchor="end">31</text>
     </g>
    </g>
    <g id="dh">
     <g id="di">
      <path d="m32.064 432.86h821.14" clip-path="url(#b)" fill="none" stroke="#b0b0b0" stroke-linecap="square" stroke-opacity=".3" stroke-width=".8"/>
     </g>
     <g id="dj">
      <use x="32.064483" y="432.862074" stroke="#000000" stroke-width=".8" xlink:href="#d"/>
     </g>
     <g id="dk">
      <text transform="rotate(-0 25.064 436.85)" x="25.064483" y="436.84723" font-family="'Noto Sans JP'" font-size="10px" text-anchor="end">32</text>
     </g>
    </g>
    <g id="dl">
     <g id="dm">
      <path d="m32.064 389.94h821.14" clip-path="url(#b)" fill="none" stroke="#b0b0b0" stroke-linecap="square" stroke-opacity=".3" stroke-width=".8"/>
     </g>
     <g id="dn">
      <use x="32.064483" y="389.936122" stroke="#000000" stroke-width=".8" xlink:href="#d"/>
     </g>
     <g id="do">
      <text transform="rotate(-0 25.064 393.92)" x="25.064483" y="393.921279" font-family="'Noto Sans JP'" font-size="10px" text-anchor="end">33</text>
     </g>
    </g>
    <g id="dp">
     <g id="dq">
      <path d="m32.064 347.01h821.14" clip-path="url(#b)" fill="none" stroke="#b0b0b0" stroke-linecap="square" stroke-opacity=".3" stroke-width=".8"/>
     </g>
     <g id="dr">
      <use x="32.064483" y="347.010171" stroke="#000000" stroke-width=".8" xlink:href="#d"/>
     </g>
     <g id="ds">
      <text transform="rotate(-0 25.064 351)" x="25.064483" y="350.995327" font-family="'Noto Sans JP'" font-size="10px" text-anchor="end">34</text>
     </g>
    </g>
    <g id="dt">
     <g id="du">
      <path d="m32.064 304.08h821.14" clip-path="url(#b)" fill="none" stroke="#b0b0b0" stroke-linecap="square" stroke-opacity=".3" stroke-width=".8"/>
     </g>
     <g id="dv">
      <use x="32.064483" y="304.08422" stroke="#000000" stroke-width=".8" xlink:href="#d"/>
     </g>
     <g id="dw">
      <text transform="rotate(-0 25.064 308.07)" x="25.064483" y="308.069376" font-family="'Noto Sans JP'" font-size="10px" text-anchor="end">35</text>
     </g>
    </g>
   </g>
   <g id="dx">
    <path d="m69.389 518.71h58.392l1.9256-42.926h9.6282l1.9256-42.926h9.6282l1.9256 42.926h231.08l1.9256-42.926h80.877l1.9256-42.926h1.9256l1.9256-42.926h100.13l1.9256-42.926h241.35v0" clip-path="url(#b)" fill="none" stroke="#28f" stroke-linecap="square" stroke-width="1.5"/>
   </g>
   <g id="dy">
    <path d="m32.064 529.45v-236.09" fill="none" stroke="#000" stroke-linecap="square" stroke-width=".8"/>
   </g>
   <g id="dz">
    <path d="m853.2 529.45v-236.09" fill="none" stroke="#000" stroke-linecap="square" stroke-width=".8"/>
   </g>
   <g id="ea">
    <path d="m32.064 529.45h821.14" fill="none" stroke="#000" stroke-linecap="square" stroke-width=".8"/>
   </g>
   <g id="eb">
    <path d="m32.064 293.35h821.14" fill="none" stroke="#000" stroke-linecap="square" stroke-width=".8"/>
   </g>
   <g id="ec">
    <text transform="rotate(-0 442.63 287.35)" x="442.632242" y="287.352732" font-family="'Noto Sans JP'" font-size="12px" text-anchor="middle">サーバー数の推移</text>
   </g>
  </g>
 </g>
 <defs>
  <clipPath id="c">
   <rect x="32.064" y="26.88" width="821.14" height="236.09"/>
  </clipPath>
  <clipPath id="b">
   <rect x="32.064" y="293.35" width="821.14" height="236.09"/>
  </clipPath>
 </defs>
</svg>
