<!DOCTYPE svg  PUBLIC '-//W3C//DTD SVG 1.1//EN'  'http://www.w3.org/Graphics/SVG/1.1/DTD/svg11.dtd'>
<svg version="1.1" viewBox="0 0 864 576" xmlns="http://www.w3.org/2000/svg" xmlns:xlink="http://www.w3.org/1999/xlink">
 <defs>
  <style type="text/css">*{stroke-linejoin: round; stroke-linecap: butt}</style>
 </defs>
 <g id="e">
  <g id="f">
   <path d="m0 576h864v-576h-864z" fill="#fff"/>
  </g>
  <g id="g">
   <g id="h">
    <path d="m32.169 262.97h821.03v-236.09h-821.03z" fill="#fff"/>
   </g>
   <g id="i">
    <g id="j">
     <g id="k">
      <path d="m54.58 262.97v-236.09" clip-path="url(#c)" fill="none" stroke="#b0b0b0" stroke-linecap="square" stroke-opacity=".3" stroke-width=".8"/>
     </g>
     <g id="l">
      <defs>
       <path id="a" d="m0 0v3.5" stroke="#000" stroke-width=".8"/>
      </defs>
      <use x="54.579821" y="262.972732" stroke="#000000" stroke-width=".8" xlink:href="#a"/>
     </g>
    </g>
    <g id="m">
     <g id="n">
      <path d="m147.8 262.97v-236.09" clip-path="url(#c)" fill="none" stroke="#b0b0b0" stroke-linecap="square" stroke-opacity=".3" stroke-width=".8"/>
     </g>
     <g id="o">
      <use x="147.800301" y="262.972732" stroke="#000000" stroke-width=".8" xlink:href="#a"/>
     </g>
    </g>
    <g id="p">
     <g id="q">
      <path d="m241.02 262.97v-236.09" clip-path="url(#c)" fill="none" stroke="#b0b0b0" stroke-linecap="square" stroke-opacity=".3" stroke-width=".8"/>
     </g>
     <g id="r">
      <use x="241.020782" y="262.972732" stroke="#000000" stroke-width=".8" xlink:href="#a"/>
     </g>
    </g>
    <g id="s">
     <g id="t">
      <path d="m334.24 262.97v-236.09" clip-path="url(#c)" fill="none" stroke="#b0b0b0" stroke-linecap="square" stroke-opacity=".3" stroke-width=".8"/>
     </g>
     <g id="u">
      <use x="334.241262" y="262.972732" stroke="#000000" stroke-width=".8" xlink:href="#a"/>
     </g>
    </g>
    <g id="v">
     <g id="w">
      <path d="m427.46 262.97v-236.09" clip-path="url(#c)" fill="none" stroke="#b0b0b0" stroke-linecap="square" stroke-opacity=".3" stroke-width=".8"/>
     </g>
     <g id="x">
      <use x="427.461742" y="262.972732" stroke="#000000" stroke-width=".8" xlink:href="#a"/>
     </g>
    </g>
    <g id="y">
     <g id="z">
      <path d="m520.68 262.97v-236.09" clip-path="url(#c)" fill="none" stroke="#b0b0b0" stroke-linecap="square" stroke-opacity=".3" stroke-width=".8"/>
     </g>
     <g id="aa">
      <use x="520.682223" y="262.972732" stroke="#000000" stroke-width=".8" xlink:href="#a"/>
     </g>
    </g>
    <g id="ab">
     <g id="ac">
      <path d="m613.9 262.97v-236.09" clip-path="url(#c)" fill="none" stroke="#b0b0b0" stroke-linecap="square" stroke-opacity=".3" stroke-width=".8"/>
     </g>
     <g id="ad">
      <use x="613.902703" y="262.972732" stroke="#000000" stroke-width=".8" xlink:href="#a"/>
     </g>
    </g>
    <g id="ae">
     <g id="af">
      <path d="m707.12 262.97v-236.09" clip-path="url(#c)" fill="none" stroke="#b0b0b0" stroke-linecap="square" stroke-opacity=".3" stroke-width=".8"/>
     </g>
     <g id="ag">
      <use x="707.123184" y="262.972732" stroke="#000000" stroke-width=".8" xlink:href="#a"/>
     </g>
    </g>
    <g id="ah">
     <g id="ai">
      <path d="m800.34 262.97v-236.09" clip-path="url(#c)" fill="none" stroke="#b0b0b0" stroke-linecap="square" stroke-opacity=".3" stroke-width=".8"/>
     </g>
     <g id="aj">
      <use x="800.343664" y="262.972732" stroke="#000000" stroke-width=".8" xlink:href="#a"/>
     </g>
    </g>
   </g>
   <g id="ak">
    <g id="al">
     <g id="am">
      <path d="m32.169 252.24h821.03" clip-path="url(#c)" fill="none" stroke="#b0b0b0" stroke-linecap="square" stroke-opacity=".3" stroke-width=".8"/>
     </g>
     <g id="an">
      <defs>
       <path id="d" d="m0 0h-3.5" stroke="#000" stroke-width=".8"/>
      </defs>
      <use x="32.169035" y="252.241244" stroke="#000000" stroke-width=".8" xlink:href="#d"/>
     </g>
     <g id="ao">
      <text transform="rotate(-0 25.169 256.23)" x="25.169035" y="256.2264" font-family="'Noto Sans JP'" font-size="10px" text-anchor="end">0</text>
     </g>
    </g>
    <g id="ap">
     <g id="aq">
      <path d="m32.169 198.58h821.03" clip-path="url(#c)" fill="none" stroke="#b0b0b0" stroke-linecap="square" stroke-opacity=".3" stroke-width=".8"/>
     </g>
     <g id="ar">
      <use x="32.169035" y="198.583805" stroke="#000000" stroke-width=".8" xlink:href="#d"/>
     </g>
     <g id="as">
      <text transform="rotate(-0 25.169 202.57)" x="25.169035" y="202.568961" font-family="'Noto Sans JP'" font-size="10px" text-anchor="end">1</text>
     </g>
    </g>
    <g id="at">
     <g id="au">
      <path d="m32.169 144.93h821.03" clip-path="url(#c)" fill="none" stroke="#b0b0b0" stroke-linecap="square" stroke-opacity=".3" stroke-width=".8"/>
     </g>
     <g id="av">
      <use x="32.169035" y="144.926366" stroke="#000000" stroke-width=".8" xlink:href="#d"/>
     </g>
     <g id="aw">
      <text transform="rotate(-0 25.169 148.91)" x="25.169035" y="148.911522" font-family="'Noto Sans JP'" font-size="10px" text-anchor="end">2</text>
     </g>
    </g>
    <g id="ax">
     <g id="ay">
      <path d="m32.169 91.269h821.03" clip-path="url(#c)" fill="none" stroke="#b0b0b0" stroke-linecap="square" stroke-opacity=".3" stroke-width=".8"/>
     </g>
     <g id="az">
      <use x="32.169035" y="91.268927" stroke="#000000" stroke-width=".8" xlink:href="#d"/>
     </g>
     <g id="ba">
      <text transform="rotate(-0 25.169 95.254)" x="25.169035" y="95.254083" font-family="'Noto Sans JP'" font-size="10px" text-anchor="end">3</text>
     </g>
    </g>
    <g id="bb">
     <g id="bc">
      <path d="m32.169 37.611h821.03" clip-path="url(#c)" fill="none" stroke="#b0b0b0" stroke-linecap="square" stroke-opacity=".3" stroke-width=".8"/>
     </g>
     <g id="bd">
      <use x="32.169035" y="37.611488" stroke="#000000" stroke-width=".8" xlink:href="#d"/>
     </g>
     <g id="be">
      <text transform="rotate(-0 25.169 41.597)" x="25.169035" y="41.596644" font-family="'Noto Sans JP'" font-size="10px" text-anchor="end">4</text>
     </g>
    </g>
   </g>
   <g id="bf">
    <path d="m69.489 198.58h41.412l1.9421 53.657h3.8842l1.9421-53.657h5.8263l1.9421-53.657h1.9421l1.9421-53.657h7.7684l1.9421 107.31 1.9421-53.657 1.9421 53.657h1.9421l1.9421-107.31 1.9421 53.657h7.7684l1.9421 53.657h1.9421l1.9421 53.657h81.568l1.9421-53.657h25.247l1.9421-107.31h5.8263l1.9421 53.657h11.653l1.9421 53.657 3.8842-107.31h5.8263l1.9421-53.657h3.8842l1.9421 107.31 1.9421-53.657h1.9421l1.9421 53.657h5.8263l1.9421 53.657h25.247l1.9421 53.657h50.494l1.9421-53.657h11.653l1.9421 53.657h25.247l3.8842-107.31h15.537l1.9421-53.657h7.7684l1.9421-53.657h1.9421l1.9421 53.657h11.653l1.9421-53.657h17.479l1.9421 53.657h3.8842l1.9421 53.657h5.8263l1.9421 53.657h3.8842l1.9421 53.657h52.437l1.9421-53.657 2.5895 53.657h13.595l.64736-53.657h40.784l.64736-53.657h7.121l.64736 53.657h9.0631l.64736 53.657h1.9421l.64736-53.657h16.184l.64736 53.657h5.8263l.64736-53.657h7.121l.64736-53.657h5.1789l.64736-53.657h5.8263l.64736 53.657h20.068l.64736 53.657h7.121l.64736 53.657h42.726l.64736-53.657h13.595l1.2947 53.657h20.716v0" clip-path="url(#c)" fill="none" stroke="#28f" stroke-linecap="square" stroke-width="1.5"/>
   </g>
   <g id="bg">
    <path d="m32.169 262.97v-236.09" fill="none" stroke="#000" stroke-linecap="square" stroke-width=".8"/>
   </g>
   <g id="bh">
    <path d="m853.2 262.97v-236.09" fill="none" stroke="#000" stroke-linecap="square" stroke-width=".8"/>
   </g>
   <g id="bi">
    <path d="m32.169 262.97h821.03" fill="none" stroke="#000" stroke-linecap="square" stroke-width=".8"/>
   </g>
   <g id="bj">
    <path d="m32.169 26.88h821.03" fill="none" stroke="#000" stroke-linecap="square" stroke-width=".8"/>
   </g>
   <g id="bk">
    <text transform="rotate(-0 442.68 20.88)" x="442.684517" y="20.88" font-family="'Noto Sans JP'" font-size="12px" text-anchor="middle">同時接続数の推移</text>
   </g>
  </g>
  <g id="bl">
   <g id="bm">
    <path d="m32.169 529.45h821.03v-236.09h-821.03z" fill="#fff"/>
   </g>
   <g id="bn">
    <g id="bo">
     <g id="bp">
      <path d="m54.58 529.45v-236.09" clip-path="url(#b)" fill="none" stroke="#b0b0b0" stroke-linecap="square" stroke-opacity=".3" stroke-width=".8"/>
     </g>
     <g id="bq">
      <use x="54.579821" y="529.445464" stroke="#000000" stroke-width=".8" xlink:href="#a"/>
     </g>
     <g id="br">
      <text transform="translate(18.806 563.36) rotate(-30)" font-family="'Noto Sans JP'" font-size="10px">06-30 12</text>
     </g>
    </g>
    <g id="bs">
     <g id="bt">
      <path d="m147.8 529.45v-236.09" clip-path="url(#b)" fill="none" stroke="#b0b0b0" stroke-linecap="square" stroke-opacity=".3" stroke-width=".8"/>
     </g>
     <g id="bu">
      <use x="147.800301" y="529.445464" stroke="#000000" stroke-width=".8" xlink:href="#a"/>
     </g>
     <g id="bv">
      <text transform="translate(112.03 563.36) rotate(-30)" font-family="'Noto Sans JP'" font-size="10px">07-01 00</text>
     </g>
    </g>
    <g id="bw">
     <g id="bx">
      <path d="m241.02 529.45v-236.09" clip-path="url(#b)" fill="none" stroke="#b0b0b0" stroke-linecap="square" stroke-opacity=".3" stroke-width=".8"/>
     </g>
     <g id="by">
      <use x="241.020782" y="529.445464" stroke="#000000" stroke-width=".8" xlink:href="#a"/>
     </g>
     <g id="bz">
      <text transform="translate(205.25 563.36) rotate(-30)" font-family="'Noto Sans JP'" font-size="10px">07-01 12</text>
     </g>
    </g>
    <g id="ca">
     <g id="cb">
      <path d="m334.24 529.45v-236.09" clip-path="url(#b)" fill="none" stroke="#b0b0b0" stroke-linecap="square" stroke-opacity=".3" stroke-width=".8"/>
     </g>
     <g id="cc">
      <use x="334.241262" y="529.445464" stroke="#000000" stroke-width=".8" xlink:href="#a"/>
     </g>
     <g id="cd">
      <text transform="translate(298.47 563.36) rotate(-30)" font-family="'Noto Sans JP'" font-size="10px">07-02 00</text>
     </g>
    </g>
    <g id="ce">
     <g id="cf">
      <path d="m427.46 529.45v-236.09" clip-path="url(#b)" fill="none" stroke="#b0b0b0" stroke-linecap="square" stroke-opacity=".3" stroke-width=".8"/>
     </g>
     <g id="cg">
      <use x="427.461742" y="529.445464" stroke="#000000" stroke-width=".8" xlink:href="#a"/>
     </g>
     <g id="ch">
      <text transform="translate(391.69 563.36) rotate(-30)" font-family="'Noto Sans JP'" font-size="10px">07-02 12</text>
     </g>
    </g>
    <g id="ci">
     <g id="cj">
      <path d="m520.68 529.45v-236.09" clip-path="url(#b)" fill="none" stroke="#b0b0b0" stroke-linecap="square" stroke-opacity=".3" stroke-width=".8"/>
     </g>
     <g id="ck">
      <use x="520.682223" y="529.445464" stroke="#000000" stroke-width=".8" xlink:href="#a"/>
     </g>
     <g id="cl">
      <text transform="translate(484.91 563.36) rotate(-30)" font-family="'Noto Sans JP'" font-size="10px">07-03 00</text>
     </g>
    </g>
    <g id="cm">
     <g id="cn">
      <path d="m613.9 529.45v-236.09" clip-path="url(#b)" fill="none" stroke="#b0b0b0" stroke-linecap="square" stroke-opacity=".3" stroke-width=".8"/>
     </g>
     <g id="co">
      <use x="613.902703" y="529.445464" stroke="#000000" stroke-width=".8" xlink:href="#a"/>
     </g>
     <g id="cp">
      <text transform="translate(578.13 563.36) rotate(-30)" font-family="'Noto Sans JP'" font-size="10px">07-03 12</text>
     </g>
    </g>
    <g id="cq">
     <g id="cr">
      <path d="m707.12 529.45v-236.09" clip-path="url(#b)" fill="none" stroke="#b0b0b0" stroke-linecap="square" stroke-opacity=".3" stroke-width=".8"/>
     </g>
     <g id="cs">
      <use x="707.123184" y="529.445464" stroke="#000000" stroke-width=".8" xlink:href="#a"/>
     </g>
     <g id="ct">
      <text transform="translate(671.35 563.36) rotate(-30)" font-family="'Noto Sans JP'" font-size="10px">07-04 00</text>
     </g>
    </g>
    <g id="cu">
     <g id="cv">
      <path d="m800.34 529.45v-236.09" clip-path="url(#b)" fill="none" stroke="#b0b0b0" stroke-linecap="square" stroke-opacity=".3" stroke-width=".8"/>
     </g>
     <g id="cw">
      <use x="800.343664" y="529.445464" stroke="#000000" stroke-width=".8" xlink:href="#a"/>
     </g>
     <g id="cx">
      <text transform="translate(764.57 563.36) rotate(-30)" font-family="'Noto Sans JP'" font-size="10px">07-04 12</text>
     </g>
    </g>
   </g>
   <g id="cy">
    <g id="cz">
     <g id="da">
      <path d="m32.169 518.71h821.03" clip-path="url(#b)" fill="none" stroke="#b0b0b0" stroke-linecap="square" stroke-opacity=".3" stroke-width=".8"/>
     </g>
     <g id="db">
      <use x="32.169035" y="518.713976" stroke="#000000" stroke-width=".8" xlink:href="#d"/>
     </g>
     <g id="dc">
      <text transform="rotate(-0 25.169 522.7)" x="25.169035" y="522.699132" font-family="'Noto Sans JP'" font-size="10px" text-anchor="end">30</text>
     </g>
    </g>
    <g id="dd">
     <g id="de">
      <path d="m32.169 475.79h821.03" clip-path="url(#b)" fill="none" stroke="#b0b0b0" stroke-linecap="square" stroke-opacity=".3" stroke-width=".8"/>
     </g>
     <g id="df">
      <use x="32.169035" y="475.788025" stroke="#000000" stroke-width=".8" xlink:href="#d"/>
     </g>
     <g id="dg">
      <text transform="rotate(-0 25.169 479.77)" x="25.169035" y="479.773181" font-family="'Noto Sans JP'" font-size="10px" text-anchor="end">31</text>
     </g>
    </g>
    <g id="dh">
     <g id="di">
      <path d="m32.169 432.86h821.03" clip-path="url(#b)" fill="none" stroke="#b0b0b0" stroke-linecap="square" stroke-opacity=".3" stroke-width=".8"/>
     </g>
     <g id="dj">
      <use x="32.169035" y="432.862074" stroke="#000000" stroke-width=".8" xlink:href="#d"/>
     </g>
     <g id="dk">
      <text transform="rotate(-0 25.169 436.85)" x="25.169035" y="436.84723" font-family="'Noto Sans JP'" font-size="10px" text-anchor="end">32</text>
     </g>
    </g>
    <g id="dl">
     <g id="dm">
      <path d="m32.169 389.94h821.03" clip-path="url(#b)" fill="none" stroke="#b0b0b0" stroke-linecap="square" stroke-opacity=".3" stroke-width=".8"/>
     </g>
     <g id="dn">
      <use x="32.169035" y="389.936122" stroke="#000000" stroke-width=".8" xlink:href="#d"/>
     </g>
     <g id="do">
      <text transform="rotate(-0 25.169 393.92)" x="25.169035" y="393.921279" font-family="'Noto Sans JP'" font-size="10px" text-anchor="end">33</text>
     </g>
    </g>
    <g id="dp">
     <g id="dq">
      <path d="m32.169 347.01h821.03" clip-path="url(#b)" fill="none" stroke="#b0b0b0" stroke-linecap="square" stroke-opacity=".3" stroke-width=".8"/>
     </g>
     <g id="dr">
      <use x="32.169035" y="347.010171" stroke="#000000" stroke-width=".8" xlink:href="#d"/>
     </g>
     <g id="ds">
      <text transform="rotate(-0 25.169 351)" x="25.169035" y="350.995327" font-family="'Noto Sans JP'" font-size="10px" text-anchor="end">34</text>
     </g>
    </g>
    <g id="dt">
     <g id="du">
      <path d="m32.169 304.08h821.03" clip-path="url(#b)" fill="none" stroke="#b0b0b0" stroke-linecap="square" stroke-opacity=".3" stroke-width=".8"/>
     </g>
     <g id="dv">
      <use x="32.169035" y="304.08422" stroke="#000000" stroke-width=".8" xlink:href="#d"/>
     </g>
     <g id="dw">
      <text transform="rotate(-0 25.169 308.07)" x="25.169035" y="308.069376" font-family="'Noto Sans JP'" font-size="10px" text-anchor="end">35</text>
     </g>
    </g>
   </g>
   <g id="dx">
    <path d="m69.489 518.71h58.891l1.9421-42.926h9.7105l1.9421-42.926h9.7105l1.9421 42.926h233.05l1.9421-42.926h81.568l1.9421-42.926h1.9421l1.9421-42.926h100.99l1.9421-42.926h236.94v0" clip-path="url(#b)" fill="none" stroke="#28f" stroke-linecap="square" stroke-width="1.5"/>
   </g>
   <g id="dy">
    <path d="m32.169 529.45v-236.09" fill="none" stroke="#000" stroke-linecap="square" stroke-width=".8"/>
   </g>
   <g id="dz">
    <path d="m853.2 529.45v-236.09" fill="none" stroke="#000" stroke-linecap="square" stroke-width=".8"/>
   </g>
   <g id="ea">
    <path d="m32.169 529.45h821.03" fill="none" stroke="#000" stroke-linecap="square" stroke-width=".8"/>
   </g>
   <g id="eb">
    <path d="m32.169 293.35h821.03" fill="none" stroke="#000" stroke-linecap="square" stroke-width=".8"/>
   </g>
   <g id="ec">
    <text transform="rotate(-0 442.68 287.35)" x="442.684517" y="287.352732" font-family="'Noto Sans JP'" font-size="12px" text-anchor="middle">サーバー数の推移</text>
   </g>
  </g>
 </g>
 <defs>
  <clipPath id="c">
   <rect x="32.169" y="26.88" width="821.03" height="236.09"/>
  </clipPath>
  <clipPath id="b">
   <rect x="32.169" y="293.35" width="821.03" height="236.09"/>
  </clipPath>
 </defs>
</svg>
