<!DOCTYPE svg  PUBLIC '-//W3C//DTD SVG 1.1//EN'  'http://www.w3.org/Graphics/SVG/1.1/DTD/svg11.dtd'>
<svg version="1.1" viewBox="0 0 864 576" xmlns="http://www.w3.org/2000/svg" xmlns:xlink="http://www.w3.org/1999/xlink">
 <defs>
  <style type="text/css">*{stroke-linejoin: round; stroke-linecap: butt}</style>
 </defs>
 <g id="e">
  <g id="f">
   <path d="m0 576h864v-576h-864z" fill="#fff"/>
  </g>
  <g id="g">
   <g id="h">
    <path d="m32.406 262.97h820.79v-236.09h-820.79z" fill="#fff"/>
   </g>
   <g id="i">
    <g id="j">
     <g id="k">
      <path d="m54.52 262.97v-236.09" clip-path="url(#c)" fill="none" stroke="#b0b0b0" stroke-linecap="square" stroke-opacity=".3" stroke-width=".8"/>
     </g>
     <g id="l">
      <defs>
       <path id="a" d="m0 0v3.5" stroke="#000" stroke-width=".8"/>
      </defs>
      <use x="54.519959" y="262.972732" stroke="#000000" stroke-width=".8" xlink:href="#a"/>
     </g>
    </g>
    <g id="m">
     <g id="n">
      <path d="m149.53 262.97v-236.09" clip-path="url(#c)" fill="none" stroke="#b0b0b0" stroke-linecap="square" stroke-opacity=".3" stroke-width=".8"/>
     </g>
     <g id="o">
      <use x="149.526417" y="262.972732" stroke="#000000" stroke-width=".8" xlink:href="#a"/>
     </g>
    </g>
    <g id="p">
     <g id="q">
      <path d="m244.53 262.97v-236.09" clip-path="url(#c)" fill="none" stroke="#b0b0b0" stroke-linecap="square" stroke-opacity=".3" stroke-width=".8"/>
     </g>
     <g id="r">
      <use x="244.532876" y="262.972732" stroke="#000000" stroke-width=".8" xlink:href="#a"/>
     </g>
    </g>
    <g id="s">
     <g id="t">
      <path d="m339.54 262.97v-236.09" clip-path="url(#c)" fill="none" stroke="#b0b0b0" stroke-linecap="square" stroke-opacity=".3" stroke-width=".8"/>
     </g>
     <g id="u">
      <use x="339.539335" y="262.972732" stroke="#000000" stroke-width=".8" xlink:href="#a"/>
     </g>
    </g>
    <g id="v">
     <g id="w">
      <path d="m434.55 262.97v-236.09" clip-path="url(#c)" fill="none" stroke="#b0b0b0" stroke-linecap="square" stroke-opacity=".3" stroke-width=".8"/>
     </g>
     <g id="x">
      <use x="434.545793" y="262.972732" stroke="#000000" stroke-width=".8" xlink:href="#a"/>
     </g>
    </g>
    <g id="y">
     <g id="z">
      <path d="m529.55 262.97v-236.09" clip-path="url(#c)" fill="none" stroke="#b0b0b0" stroke-linecap="square" stroke-opacity=".3" stroke-width=".8"/>
     </g>
     <g id="aa">
      <use x="529.552252" y="262.972732" stroke="#000000" stroke-width=".8" xlink:href="#a"/>
     </g>
    </g>
    <g id="ab">
     <g id="ac">
      <path d="m624.56 262.97v-236.09" clip-path="url(#c)" fill="none" stroke="#b0b0b0" stroke-linecap="square" stroke-opacity=".3" stroke-width=".8"/>
     </g>
     <g id="ad">
      <use x="624.55871" y="262.972732" stroke="#000000" stroke-width=".8" xlink:href="#a"/>
     </g>
    </g>
    <g id="ae">
     <g id="af">
      <path d="m719.57 262.97v-236.09" clip-path="url(#c)" fill="none" stroke="#b0b0b0" stroke-linecap="square" stroke-opacity=".3" stroke-width=".8"/>
     </g>
     <g id="ag">
      <use x="719.565169" y="262.972732" stroke="#000000" stroke-width=".8" xlink:href="#a"/>
     </g>
    </g>
    <g id="ah">
     <g id="ai">
      <path d="m814.57 262.97v-236.09" clip-path="url(#c)" fill="none" stroke="#b0b0b0" stroke-linecap="square" stroke-opacity=".3" stroke-width=".8"/>
     </g>
     <g id="aj">
      <use x="814.571627" y="262.972732" stroke="#000000" stroke-width=".8" xlink:href="#a"/>
     </g>
    </g>
   </g>
   <g id="ak">
    <g id="al">
     <g id="am">
      <path d="m32.406 252.24h820.79" clip-path="url(#c)" fill="none" stroke="#b0b0b0" stroke-linecap="square" stroke-opacity=".3" stroke-width=".8"/>
     </g>
     <g id="an">
      <defs>
       <path id="d" d="m0 0h-3.5" stroke="#000" stroke-width=".8"/>
      </defs>
      <use x="32.405556" y="252.241244" stroke="#000000" stroke-width=".8" xlink:href="#d"/>
     </g>
     <g id="ao">
      <text transform="rotate(-0 25.406 256.23)" x="25.405556" y="256.2264" font-family="'Noto Sans JP'" font-size="10px" text-anchor="end">0</text>
     </g>
    </g>
    <g id="ap">
     <g id="aq">
      <path d="m32.406 198.58h820.79" clip-path="url(#c)" fill="none" stroke="#b0b0b0" stroke-linecap="square" stroke-opacity=".3" stroke-width=".8"/>
     </g>
     <g id="ar">
      <use x="32.405556" y="198.583805" stroke="#000000" stroke-width=".8" xlink:href="#d"/>
     </g>
     <g id="as">
      <text transform="rotate(-0 25.406 202.57)" x="25.405556" y="202.568961" font-family="'Noto Sans JP'" font-size="10px" text-anchor="end">1</text>
     </g>
    </g>
    <g id="at">
     <g id="au">
      <path d="m32.406 144.93h820.79" clip-path="url(#c)" fill="none" stroke="#b0b0b0" stroke-linecap="square" stroke-opacity=".3" stroke-width=".8"/>
     </g>
     <g id="av">
      <use x="32.405556" y="144.926366" stroke="#000000" stroke-width=".8" xlink:href="#d"/>
     </g>
     <g id="aw">
      <text transform="rotate(-0 25.406 148.91)" x="25.405556" y="148.911522" font-family="'Noto Sans JP'" font-size="10px" text-anchor="end">2</text>
     </g>
    </g>
    <g id="ax">
     <g id="ay">
      <path d="m32.406 91.269h820.79" clip-path="url(#c)" fill="none" stroke="#b0b0b0" stroke-linecap="square" stroke-opacity=".3" stroke-width=".8"/>
     </g>
     <g id="az">
      <use x="32.405556" y="91.268927" stroke="#000000" stroke-width=".8" xlink:href="#d"/>
     </g>
     <g id="ba">
      <text transform="rotate(-0 25.406 95.254)" x="25.405556" y="95.254083" font-family="'Noto Sans JP'" font-size="10px" text-anchor="end">3</text>
     </g>
    </g>
    <g id="bb">
     <g id="bc">
      <path d="m32.406 37.611h820.79" clip-path="url(#c)" fill="none" stroke="#b0b0b0" stroke-linecap="square" stroke-opacity=".3" stroke-width=".8"/>
     </g>
     <g id="bd">
      <use x="32.405556" y="37.611488" stroke="#000000" stroke-width=".8" xlink:href="#d"/>
     </g>
     <g id="be">
      <text transform="rotate(-0 25.406 41.597)" x="25.405556" y="41.596644" font-family="'Noto Sans JP'" font-size="10px" text-anchor="end">4</text>
     </g>
    </g>
   </g>
   <g id="bf">
    <path d="m69.714 198.58h42.205l1.9793 53.657h3.9586l1.9793-53.657h5.9379l1.9793-53.657h1.9793l1.9793-53.657h7.9172l1.9793 107.31 1.9793-53.657 1.9793 53.657h1.9793l1.9793-107.31 1.9793 53.657h7.9172l1.9793 53.657h1.9793l1.9793 53.657h83.131l1.9793-53.657h25.731l1.9793-107.31h5.9379l1.9793 53.657h11.876l1.9793 53.657 3.9586-107.31h5.9379l1.9793-53.657h3.9586l1.9793 107.31 1.9793-53.657h1.9793l1.9793 53.657h5.9379l1.9793 53.657h25.731l1.9793 53.657h51.462l1.9793-53.657h11.876l1.9793 53.657h25.731l3.9586-107.31h15.834l1.9793-53.657h7.9172l1.9793-53.657h1.9793l1.9793 53.657h11.876l1.9793-53.657h17.814l1.9793 53.657h3.9586l1.9793 53.657h5.9379l1.9793 53.657h3.9586l1.9793 53.657h53.441l1.9793-53.657 2.6391 53.657h13.855l.65977-53.657h41.565l.65977-53.657h7.2574l.65977 53.657h9.2367l.65977 53.657h1.9793l.65977-53.657h16.494l.65977 53.657h5.9379l.65977-53.657h7.2574l.65977-53.657h5.2781l.65977-53.657h5.9379l.65977 53.657h20.453l.65977 53.657h7.2574l.65977 53.657h43.545l.65977-53.657h13.855l1.3195 53.657h6.5977v0" clip-path="url(#c)" fill="none" stroke="#28f" stroke-linecap="square" stroke-width="1.5"/>
   </g>
   <g id="bg">
    <path d="m32.406 262.97v-236.09" fill="none" stroke="#000" stroke-linecap="square" stroke-width=".8"/>
   </g>
   <g id="bh">
    <path d="m853.2 262.97v-236.09" fill="none" stroke="#000" stroke-linecap="square" stroke-width=".8"/>
   </g>
   <g id="bi">
    <path d="m32.406 262.97h820.79" fill="none" stroke="#000" stroke-linecap="square" stroke-width=".8"/>
   </g>
   <g id="bj">
    <path d="m32.406 26.88h820.79" fill="none" stroke="#000" stroke-linecap="square" stroke-width=".8"/>
   </g>
   <g id="bk">
    <text transform="rotate(-0 442.8 20.88)" x="442.802778" y="20.88" font-family="'Noto Sans JP'" font-size="12px" text-anchor="middle">同時接続数の推移</text>
   </g>
  </g>
  <g id="bl">
   <g id="bm">
    <path d="m32.406 529.45h820.79v-236.09h-820.79z" fill="#fff"/>
   </g>
   <g id="bn">
    <g id="bo">
     <g id="bp">
      <path d="m54.52 529.45v-236.09" clip-path="url(#b)" fill="none" stroke="#b0b0b0" stroke-linecap="square" stroke-opacity=".3" stroke-width=".8"/>
     </g>
     <g id="bq">
      <use x="54.519959" y="529.445464" stroke="#000000" stroke-width=".8" xlink:href="#a"/>
     </g>
     <g id="br">
      <text transform="translate(18.747 563.36) rotate(-30)" font-family="'Noto Sans JP'" font-size="10px">06-30 12</text>
     </g>
    </g>
    <g id="bs">
     <g id="bt">
      <path d="m149.53 529.45v-236.09" clip-path="url(#b)" fill="none" stroke="#b0b0b0" stroke-linecap="square" stroke-opacity=".3" stroke-width=".8"/>
     </g>
     <g id="bu">
      <use x="149.526417" y="529.445464" stroke="#000000" stroke-width=".8" xlink:href="#a"/>
     </g>
     <g id="bv">
      <text transform="translate(113.75 563.36) rotate(-30)" font-family="'Noto Sans JP'" font-size="10px">07-01 00</text>
     </g>
    </g>
    <g id="bw">
     <g id="bx">
      <path d="m244.53 529.45v-236.09" clip-path="url(#b)" fill="none" stroke="#b0b0b0" stroke-linecap="square" stroke-opacity=".3" stroke-width=".8"/>
     </g>
     <g id="by">
      <use x="244.532876" y="529.445464" stroke="#000000" stroke-width=".8" xlink:href="#a"/>
     </g>
     <g id="bz">
      <text transform="translate(208.76 563.36) rotate(-30)" font-family="'Noto Sans JP'" font-size="10px">07-01 12</text>
     </g>
    </g>
    <g id="ca">
     <g id="cb">
      <path d="m339.54 529.45v-236.09" clip-path="url(#b)" fill="none" stroke="#b0b0b0" stroke-linecap="square" stroke-opacity=".3" stroke-width=".8"/>
     </g>
     <g id="cc">
      <use x="339.539335" y="529.445464" stroke="#000000" stroke-width=".8" xlink:href="#a"/>
     </g>
     <g id="cd">
      <text transform="translate(303.77 563.36) rotate(-30)" font-family="'Noto Sans JP'" font-size="10px">07-02 00</text>
     </g>
    </g>
    <g id="ce">
     <g id="cf">
      <path d="m434.55 529.45v-236.09" clip-path="url(#b)" fill="none" stroke="#b0b0b0" stroke-linecap="square" stroke-opacity=".3" stroke-width=".8"/>
     </g>
     <g id="cg">
      <use x="434.545793" y="529.445464" stroke="#000000" stroke-width=".8" xlink:href="#a"/>
     </g>
     <g id="ch">
      <text transform="translate(398.77 563.36) rotate(-30)" font-family="'Noto Sans JP'" font-size="10px">07-02 12</text>
     </g>
    </g>
    <g id="ci">
     <g id="cj">
      <path d="m529.55 529.45v-236.09" clip-path="url(#b)" fill="none" stroke="#b0b0b0" stroke-linecap="square" stroke-opacity=".3" stroke-width=".8"/>
     </g>
     <g id="ck">
      <use x="529.552252" y="529.445464" stroke="#000000" stroke-width=".8" xlink:href="#a"/>
     </g>
     <g id="cl">
      <text transform="translate(493.78 563.36) rotate(-30)" font-family="'Noto Sans JP'" font-size="10px">07-03 00</text>
     </g>
    </g>
    <g id="cm">
     <g id="cn">
      <path d="m624.56 529.45v-236.09" clip-path="url(#b)" fill="none" stroke="#b0b0b0" stroke-linecap="square" stroke-opacity=".3" stroke-width=".8"/>
     </g>
     <g id="co">
      <use x="624.55871" y="529.445464" stroke="#000000" stroke-width=".8" xlink:href="#a"/>
     </g>
     <g id="cp">
      <text transform="translate(588.79 563.36) rotate(-30)" font-family="'Noto Sans JP'" font-size="10px">07-03 12</text>
     </g>
    </g>
    <g id="cq">
     <g id="cr">
      <path d="m719.57 529.45v-236.09" clip-path="url(#b)" fill="none" stroke="#b0b0b0" stroke-linecap="square" stroke-opacity=".3" stroke-width=".8"/>
     </g>
     <g id="cs">
      <use x="719.565169" y="529.445464" stroke="#000000" stroke-width=".8" xlink:href="#a"/>
     </g>
     <g id="ct">
      <text transform="translate(683.79 563.36) rotate(-30)" font-family="'Noto Sans JP'" font-size="10px">07-04 00</text>
     </g>
    </g>
    <g id="cu">
     <g id="cv">
      <path d="m814.57 529.45v-236.09" clip-path="url(#b)" fill="none" stroke="#b0b0b0" stroke-linecap="square" stroke-opacity=".3" stroke-width=".8"/>
     </g>
     <g id="cw">
      <use x="814.571627" y="529.445464" stroke="#000000" stroke-width=".8" xlink:href="#a"/>
     </g>
     <g id="cx">
      <text transform="translate(778.8 563.36) rotate(-30)" font-family="'Noto Sans JP'" font-size="10px">07-04 12</text>
     </g>
    </g>
   </g>
   <g id="cy">
    <g id="cz">
     <g id="da">
      <path d="m32.406 518.71h820.79" clip-path="url(#b)" fill="none" stroke="#b0b0b0" stroke-linecap="square" stroke-opacity=".3" stroke-width=".8"/>
     </g>
     <g id="db">
      <use x="32.405556" y="518.713976" stroke="#000000" stroke-width=".8" xlink:href="#d"/>
     </g>
     <g id="dc">
      <text transform="rotate(-0 25.406 522.7)" x="25.405556" y="522.699132" font-family="'Noto Sans JP'" font-size="10px" text-anchor="end">30</text>
     </g>
    </g>
    <g id="dd">
     <g id="de">
      <path d="m32.406 475.79h820.79" clip-path="url(#b)" fill="none" stroke="#b0b0b0" stroke-linecap="square" stroke-opacity=".3" stroke-width=".8"/>
     </g>
     <g id="df">
      <use x="32.405556" y="475.788025" stroke="#000000" stroke-width=".8" xlink:href="#d"/>
     </g>
     <g id="dg">
      <text transform="rotate(-0 25.406 479.77)" x="25.405556" y="479.773181" font-family="'Noto Sans JP'" font-size="10px" text-anchor="end">31</text>
     </g>
    </g>
    <g id="dh">
     <g id="di">
      <path d="m32.406 432.86h820.79" clip-path="url(#b)" fill="none" stroke="#b0b0b0" stroke-linecap="square" stroke-opacity=".3" stroke-width=".8"/>
     </g>
     <g id="dj">
      <use x="32.405556" y="432.862074" stroke="#000000" stroke-width=".8" xlink:href="#d"/>
     </g>
     <g id="dk">
      <text transform="rotate(-0 25.406 436.85)" x="25.405556" y="436.84723" font-family="'Noto Sans JP'" font-size="10px" text-anchor="end">32</text>
     </g>
    </g>
    <g id="dl">
     <g id="dm">
      <path d="m32.406 389.94h820.79" clip-path="url(#b)" fill="none" stroke="#b0b0b0" stroke-linecap="square" stroke-opacity=".3" stroke-width=".8"/>
     </g>
     <g id="dn">
      <use x="32.405556" y="389.936122" stroke="#000000" stroke-width=".8" xlink:href="#d"/>
     </g>
     <g id="do">
      <text transform="rotate(-0 25.406 393.92)" x="25.405556" y="393.921279" font-family="'Noto Sans JP'" font-size="10px" text-anchor="end">33</text>
     </g>
    </g>
    <g id="dp">
     <g id="dq">
      <path d="m32.406 347.01h820.79" clip-path="url(#b)" fill="none" stroke="#b0b0b0" stroke-linecap="square" stroke-opacity=".3" stroke-width=".8"/>
     </g>
     <g id="dr">
      <use x="32.405556" y="347.010171" stroke="#000000" stroke-width=".8" xlink:href="#d"/>
     </g>
     <g id="ds">
      <text transform="rotate(-0 25.406 351)" x="25.405556" y="350.995327" font-family="'Noto Sans JP'" font-size="10px" text-anchor="end">34</text>
     </g>
    </g>
    <g id="dt">
     <g id="du">
      <path d="m32.406 304.08h820.79" clip-path="url(#b)" fill="none" stroke="#b0b0b0" stroke-linecap="square" stroke-opacity=".3" stroke-width=".8"/>
     </g>
     <g id="dv">
      <use x="32.405556" y="304.08422" stroke="#000000" stroke-width=".8" xlink:href="#d"/>
     </g>
     <g id="dw">
      <text transform="rotate(-0 25.406 308.07)" x="25.405556" y="308.069376" font-family="'Noto Sans JP'" font-size="10px" text-anchor="end">35</text>
     </g>
    </g>
   </g>
   <g id="dx">
    <path d="m69.714 518.71h60.019l1.9793-42.926h9.8965l1.9793-42.926h9.8965l1.9793 42.926h237.52l1.9793-42.926h83.131l1.9793-42.926h1.9793l1.9793-42.926h102.92l1.9793-42.926h226.96v0" clip-path="url(#b)" fill="none" stroke="#28f" stroke-linecap="square" stroke-width="1.5"/>
   </g>
   <g id="dy">
    <path d="m32.406 529.45v-236.09" fill="none" stroke="#000" stroke-linecap="square" stroke-width=".8"/>
   </g>
   <g id="dz">
    <path d="m853.2 529.45v-236.09" fill="none" stroke="#000" stroke-linecap="square" stroke-width=".8"/>
   </g>
   <g id="ea">
    <path d="m32.406 529.45h820.79" fill="none" stroke="#000" stroke-linecap="square" stroke-width=".8"/>
   </g>
   <g id="eb">
    <path d="m32.406 293.35h820.79" fill="none" stroke="#000" stroke-linecap="square" stroke-width=".8"/>
   </g>
   <g id="ec">
    <text transform="rotate(-0 442.8 287.35)" x="442.802778" y="287.352732" font-family="'Noto Sans JP'" font-size="12px" text-anchor="middle">サーバー数の推移</text>
   </g>
  </g>
 </g>
 <defs>
  <clipPath id="c">
   <rect x="32.406" y="26.88" width="820.79" height="236.09"/>
  </clipPath>
  <clipPath id="b">
   <rect x="32.406" y="293.35" width="820.79" height="236.09"/>
  </clipPath>
 </defs>
</svg>
