<?xml version="1.0" encoding="UTF-8"?>
<!DOCTYPE svg  PUBLIC '-//W3C//DTD SVG 1.1//EN'  'http://www.w3.org/Graphics/SVG/1.1/DTD/svg11.dtd'>
<svg width="864pt" height="576pt" version="1.1" viewBox="0 0 864 576" xmlns="http://www.w3.org/2000/svg" xmlns:xlink="http://www.w3.org/1999/xlink">
 <defs>
  <style type="text/css">*{stroke-linejoin: round; stroke-linecap: butt}</style>
 </defs>
 <g id="e">
  <g id="f">
   <path d="m0 576h864v-576h-864z" fill="#fff"/>
  </g>
  <g id="g">
   <g id="h">
    <path d="m32.583 262.97h820.62v-236.09h-820.62z" fill="#fff"/>
   </g>
   <g id="i">
    <g id="j">
     <g id="k">
      <path d="m54.475 262.97v-236.09" clip-path="url(#c)" fill="none" stroke="#b0b0b0" stroke-linecap="square" stroke-opacity=".3" stroke-width=".8"/>
     </g>
     <g id="l">
      <defs>
       <path id="a" d="m0 0v3.5" stroke="#000" stroke-width=".8"/>
      </defs>
      <use x="54.475049" y="262.972732" stroke="#000000" stroke-width=".8" xlink:href="#a"/>
     </g>
    </g>
    <g id="m">
     <g id="n">
      <path d="m150.82 262.97v-236.09" clip-path="url(#c)" fill="none" stroke="#b0b0b0" stroke-linecap="square" stroke-opacity=".3" stroke-width=".8"/>
     </g>
     <g id="o">
      <use x="150.823981" y="262.972732" stroke="#000000" stroke-width=".8" xlink:href="#a"/>
     </g>
    </g>
    <g id="p">
     <g id="q">
      <path d="m247.17 262.97v-236.09" clip-path="url(#c)" fill="none" stroke="#b0b0b0" stroke-linecap="square" stroke-opacity=".3" stroke-width=".8"/>
     </g>
     <g id="r">
      <use x="247.172913" y="262.972732" stroke="#000000" stroke-width=".8" xlink:href="#a"/>
     </g>
    </g>
    <g id="s">
     <g id="t">
      <path d="m343.52 262.97v-236.09" clip-path="url(#c)" fill="none" stroke="#b0b0b0" stroke-linecap="square" stroke-opacity=".3" stroke-width=".8"/>
     </g>
     <g id="u">
      <use x="343.521845" y="262.972732" stroke="#000000" stroke-width=".8" xlink:href="#a"/>
     </g>
    </g>
    <g id="v">
     <g id="w">
      <path d="m439.87 262.97v-236.09" clip-path="url(#c)" fill="none" stroke="#b0b0b0" stroke-linecap="square" stroke-opacity=".3" stroke-width=".8"/>
     </g>
     <g id="x">
      <use x="439.870777" y="262.972732" stroke="#000000" stroke-width=".8" xlink:href="#a"/>
     </g>
    </g>
    <g id="y">
     <g id="z">
      <path d="m536.22 262.97v-236.09" clip-path="url(#c)" fill="none" stroke="#b0b0b0" stroke-linecap="square" stroke-opacity=".3" stroke-width=".8"/>
     </g>
     <g id="aa">
      <use x="536.219709" y="262.972732" stroke="#000000" stroke-width=".8" xlink:href="#a"/>
     </g>
    </g>
    <g id="ab">
     <g id="ac">
      <path d="m632.57 262.97v-236.09" clip-path="url(#c)" fill="none" stroke="#b0b0b0" stroke-linecap="square" stroke-opacity=".3" stroke-width=".8"/>
     </g>
     <g id="ad">
      <use x="632.56864" y="262.972732" stroke="#000000" stroke-width=".8" xlink:href="#a"/>
     </g>
    </g>
    <g id="ae">
     <g id="af">
      <path d="m728.92 262.97v-236.09" clip-path="url(#c)" fill="none" stroke="#b0b0b0" stroke-linecap="square" stroke-opacity=".3" stroke-width=".8"/>
     </g>
     <g id="ag">
      <use x="728.917572" y="262.972732" stroke="#000000" stroke-width=".8" xlink:href="#a"/>
     </g>
    </g>
    <g id="ah">
     <g id="ai">
      <path d="m825.27 262.97v-236.09" clip-path="url(#c)" fill="none" stroke="#b0b0b0" stroke-linecap="square" stroke-opacity=".3" stroke-width=".8"/>
     </g>
     <g id="aj">
      <use x="825.266504" y="262.972732" stroke="#000000" stroke-width=".8" xlink:href="#a"/>
     </g>
    </g>
   </g>
   <g id="ak">
    <g id="al">
     <g id="am">
      <path d="m32.583 252.24h820.62" clip-path="url(#c)" fill="none" stroke="#b0b0b0" stroke-linecap="square" stroke-opacity=".3" stroke-width=".8"/>
     </g>
     <g id="an">
      <defs>
       <path id="d" d="m0 0h-3.5" stroke="#000" stroke-width=".8"/>
      </defs>
      <use x="32.583434" y="252.241244" stroke="#000000" stroke-width=".8" xlink:href="#d"/>
     </g>
     <g id="ao">
      <text transform="rotate(-0 25.583 256.23)" x="25.583434" y="256.2264" font-family="'Noto Sans JP'" font-size="10px" text-anchor="end">0</text>
     </g>
    </g>
    <g id="ap">
     <g id="aq">
      <path d="m32.583 198.58h820.62" clip-path="url(#c)" fill="none" stroke="#b0b0b0" stroke-linecap="square" stroke-opacity=".3" stroke-width=".8"/>
     </g>
     <g id="ar">
      <use x="32.583434" y="198.583805" stroke="#000000" stroke-width=".8" xlink:href="#d"/>
     </g>
     <g id="as">
      <text transform="rotate(-0 25.583 202.57)" x="25.583434" y="202.568961" font-family="'Noto Sans JP'" font-size="10px" text-anchor="end">1</text>
     </g>
    </g>
    <g id="at">
     <g id="au">
      <path d="m32.583 144.93h820.62" clip-path="url(#c)" fill="none" stroke="#b0b0b0" stroke-linecap="square" stroke-opacity=".3" stroke-width=".8"/>
     </g>
     <g id="av">
      <use x="32.583434" y="144.926366" stroke="#000000" stroke-width=".8" xlink:href="#d"/>
     </g>
     <g id="aw">
      <text transform="rotate(-0 25.583 148.91)" x="25.583434" y="148.911522" font-family="'Noto Sans JP'" font-size="10px" text-anchor="end">2</text>
     </g>
    </g>
    <g id="ax">
     <g id="ay">
      <path d="m32.583 91.269h820.62" clip-path="url(#c)" fill="none" stroke="#b0b0b0" stroke-linecap="square" stroke-opacity=".3" stroke-width=".8"/>
     </g>
     <g id="az">
      <use x="32.583434" y="91.268927" stroke="#000000" stroke-width=".8" xlink:href="#d"/>
     </g>
     <g id="ba">
      <text transform="rotate(-0 25.583 95.254)" x="25.583434" y="95.254083" font-family="'Noto Sans JP'" font-size="10px" text-anchor="end">3</text>
     </g>
    </g>
    <g id="bb">
     <g id="bc">
      <path d="m32.583 37.611h820.62" clip-path="url(#c)" fill="none" stroke="#b0b0b0" stroke-linecap="square" stroke-opacity=".3" stroke-width=".8"/>
     </g>
     <g id="bd">
      <use x="32.583434" y="37.611488" stroke="#000000" stroke-width=".8" xlink:href="#d"/>
     </g>
     <g id="be">
      <text transform="rotate(-0 25.583 41.597)" x="25.583434" y="41.596644" font-family="'Noto Sans JP'" font-size="10px" text-anchor="end">4</text>
     </g>
    </g>
   </g>
   <g id="bf">
    <path d="m69.884 198.58h42.802l2.0073 53.657h4.0145l2.0073-53.657h6.0218l2.0073-53.657h2.0073l2.0073-53.657h8.0291l2.0073 107.31 2.0073-53.657 2.0073 53.657h2.0073l2.0073-107.31 2.0073 53.657h8.0291l2.0073 53.657h2.0073l2.0073 53.657h84.305l2.0073-53.657h26.095l2.0073-107.31h6.0218l2.0073 53.657h12.044l2.0073 53.657 4.0145-107.31h6.0218l2.0073-53.657h4.0145l2.0073 107.31 2.0073-53.657h2.0073l2.0073 53.657h6.0218l2.0073 53.657h26.095l2.0073 53.657h52.189l2.0073-53.657h12.044l2.0073 53.657h26.095l4.0145-107.31h16.058l2.0073-53.657h8.0291l2.0073-53.657h2.0073l2.0073 53.657h12.044l2.0073-53.657h18.065l2.0073 53.657h4.0145l2.0073 53.657h6.0218l2.0073 53.657h4.0145l2.0073 53.657h54.196l2.0073-53.657 2.6764 53.657h14.051l0.66909-53.657h42.153l0.66909-53.657h7.36l0.66909 53.657h9.3673l0.66909 53.657h2.0073l0.66909-53.657h16.727l0.66909 53.657h6.0218l0.66909-53.657h7.36l0.66909-53.657h5.3527l0.66909-53.657h6.0218l0.66909 53.657h20.742l0.66909 53.657h7.36l0.66909 53.657h44.16l0.66909-53.657h11.375v0" clip-path="url(#c)" fill="none" stroke="#28f" stroke-linecap="square" stroke-width="1.5"/>
   </g>
   <g id="bg">
    <path d="m32.583 262.97v-236.09" fill="none" stroke="#000" stroke-linecap="square" stroke-width=".8"/>
   </g>
   <g id="bh">
    <path d="m853.2 262.97v-236.09" fill="none" stroke="#000" stroke-linecap="square" stroke-width=".8"/>
   </g>
   <g id="bi">
    <path d="m32.583 262.97h820.62" fill="none" stroke="#000" stroke-linecap="square" stroke-width=".8"/>
   </g>
   <g id="bj">
    <path d="m32.583 26.88h820.62" fill="none" stroke="#000" stroke-linecap="square" stroke-width=".8"/>
   </g>
   <g id="bk">
    <text transform="rotate(-0 442.89 20.88)" x="442.891717" y="20.88" font-family="'Noto Sans JP'" font-size="12px" text-anchor="middle">同時接続数の推移</text>
   </g>
  </g>
  <g id="bl">
   <g id="bm">
    <path d="m32.583 529.45h820.62v-236.09h-820.62z" fill="#fff"/>
   </g>
   <g id="bn">
    <g id="bo">
     <g id="bp">
      <path d="m54.475 529.45v-236.09" clip-path="url(#b)" fill="none" stroke="#b0b0b0" stroke-linecap="square" stroke-opacity=".3" stroke-width=".8"/>
     </g>
     <g id="bq">
      <use x="54.475049" y="529.445464" stroke="#000000" stroke-width=".8" xlink:href="#a"/>
     </g>
     <g id="br">
      <text transform="translate(18.702 563.36) rotate(-30)" font-family="'Noto Sans JP'" font-size="10px">06-30 12</text>
     </g>
    </g>
    <g id="bs">
     <g id="bt">
      <path d="m150.82 529.45v-236.09" clip-path="url(#b)" fill="none" stroke="#b0b0b0" stroke-linecap="square" stroke-opacity=".3" stroke-width=".8"/>
     </g>
     <g id="bu">
      <use x="150.823981" y="529.445464" stroke="#000000" stroke-width=".8" xlink:href="#a"/>
     </g>
     <g id="bv">
      <text transform="translate(115.05 563.36) rotate(-30)" font-family="'Noto Sans JP'" font-size="10px">07-01 00</text>
     </g>
    </g>
    <g id="bw">
     <g id="bx">
      <path d="m247.17 529.45v-236.09" clip-path="url(#b)" fill="none" stroke="#b0b0b0" stroke-linecap="square" stroke-opacity=".3" stroke-width=".8"/>
     </g>
     <g id="by">
      <use x="247.172913" y="529.445464" stroke="#000000" stroke-width=".8" xlink:href="#a"/>
     </g>
     <g id="bz">
      <text transform="translate(211.4 563.36) rotate(-30)" font-family="'Noto Sans JP'" font-size="10px">07-01 12</text>
     </g>
    </g>
    <g id="ca">
     <g id="cb">
      <path d="m343.52 529.45v-236.09" clip-path="url(#b)" fill="none" stroke="#b0b0b0" stroke-linecap="square" stroke-opacity=".3" stroke-width=".8"/>
     </g>
     <g id="cc">
      <use x="343.521845" y="529.445464" stroke="#000000" stroke-width=".8" xlink:href="#a"/>
     </g>
     <g id="cd">
      <text transform="translate(307.75 563.36) rotate(-30)" font-family="'Noto Sans JP'" font-size="10px">07-02 00</text>
     </g>
    </g>
    <g id="ce">
     <g id="cf">
      <path d="m439.87 529.45v-236.09" clip-path="url(#b)" fill="none" stroke="#b0b0b0" stroke-linecap="square" stroke-opacity=".3" stroke-width=".8"/>
     </g>
     <g id="cg">
      <use x="439.870777" y="529.445464" stroke="#000000" stroke-width=".8" xlink:href="#a"/>
     </g>
     <g id="ch">
      <text transform="translate(404.1 563.36) rotate(-30)" font-family="'Noto Sans JP'" font-size="10px">07-02 12</text>
     </g>
    </g>
    <g id="ci">
     <g id="cj">
      <path d="m536.22 529.45v-236.09" clip-path="url(#b)" fill="none" stroke="#b0b0b0" stroke-linecap="square" stroke-opacity=".3" stroke-width=".8"/>
     </g>
     <g id="ck">
      <use x="536.219709" y="529.445464" stroke="#000000" stroke-width=".8" xlink:href="#a"/>
     </g>
     <g id="cl">
      <text transform="translate(500.45 563.36) rotate(-30)" font-family="'Noto Sans JP'" font-size="10px">07-03 00</text>
     </g>
    </g>
    <g id="cm">
     <g id="cn">
      <path d="m632.57 529.45v-236.09" clip-path="url(#b)" fill="none" stroke="#b0b0b0" stroke-linecap="square" stroke-opacity=".3" stroke-width=".8"/>
     </g>
     <g id="co">
      <use x="632.56864" y="529.445464" stroke="#000000" stroke-width=".8" xlink:href="#a"/>
     </g>
     <g id="cp">
      <text transform="translate(596.8 563.36) rotate(-30)" font-family="'Noto Sans JP'" font-size="10px">07-03 12</text>
     </g>
    </g>
    <g id="cq">
     <g id="cr">
      <path d="m728.92 529.45v-236.09" clip-path="url(#b)" fill="none" stroke="#b0b0b0" stroke-linecap="square" stroke-opacity=".3" stroke-width=".8"/>
     </g>
     <g id="cs">
      <use x="728.917572" y="529.445464" stroke="#000000" stroke-width=".8" xlink:href="#a"/>
     </g>
     <g id="ct">
      <text transform="translate(693.14 563.36) rotate(-30)" font-family="'Noto Sans JP'" font-size="10px">07-04 00</text>
     </g>
    </g>
    <g id="cu">
     <g id="cv">
      <path d="m825.27 529.45v-236.09" clip-path="url(#b)" fill="none" stroke="#b0b0b0" stroke-linecap="square" stroke-opacity=".3" stroke-width=".8"/>
     </g>
     <g id="cw">
      <use x="825.266504" y="529.445464" stroke="#000000" stroke-width=".8" xlink:href="#a"/>
     </g>
     <g id="cx">
      <text transform="translate(789.49 563.36) rotate(-30)" font-family="'Noto Sans JP'" font-size="10px">07-04 12</text>
     </g>
    </g>
   </g>
   <g id="cy">
    <g id="cz">
     <g id="da">
      <path d="m32.583 518.71h820.62" clip-path="url(#b)" fill="none" stroke="#b0b0b0" stroke-linecap="square" stroke-opacity=".3" stroke-width=".8"/>
     </g>
     <g id="db">
      <use x="32.583434" y="518.713976" stroke="#000000" stroke-width=".8" xlink:href="#d"/>
     </g>
     <g id="dc">
      <text transform="rotate(-0 25.583 522.7)" x="25.583434" y="522.699132" font-family="'Noto Sans JP'" font-size="10px" text-anchor="end">30</text>
     </g>
    </g>
    <g id="dd">
     <g id="de">
      <path d="m32.583 475.79h820.62" clip-path="url(#b)" fill="none" stroke="#b0b0b0" stroke-linecap="square" stroke-opacity=".3" stroke-width=".8"/>
     </g>
     <g id="df">
      <use x="32.583434" y="475.788025" stroke="#000000" stroke-width=".8" xlink:href="#d"/>
     </g>
     <g id="dg">
      <text transform="rotate(-0 25.583 479.77)" x="25.583434" y="479.773181" font-family="'Noto Sans JP'" font-size="10px" text-anchor="end">31</text>
     </g>
    </g>
    <g id="dh">
     <g id="di">
      <path d="m32.583 432.86h820.62" clip-path="url(#b)" fill="none" stroke="#b0b0b0" stroke-linecap="square" stroke-opacity=".3" stroke-width=".8"/>
     </g>
     <g id="dj">
      <use x="32.583434" y="432.862074" stroke="#000000" stroke-width=".8" xlink:href="#d"/>
     </g>
     <g id="dk">
      <text transform="rotate(-0 25.583 436.85)" x="25.583434" y="436.84723" font-family="'Noto Sans JP'" font-size="10px" text-anchor="end">32</text>
     </g>
    </g>
    <g id="dl">
     <g id="dm">
      <path d="m32.583 389.94h820.62" clip-path="url(#b)" fill="none" stroke="#b0b0b0" stroke-linecap="square" stroke-opacity=".3" stroke-width=".8"/>
     </g>
     <g id="dn">
      <use x="32.583434" y="389.936122" stroke="#000000" stroke-width=".8" xlink:href="#d"/>
     </g>
     <g id="do">
      <text transform="rotate(-0 25.583 393.92)" x="25.583434" y="393.921279" font-family="'Noto Sans JP'" font-size="10px" text-anchor="end">33</text>
     </g>
    </g>
    <g id="dp">
     <g id="dq">
      <path d="m32.583 347.01h820.62" clip-path="url(#b)" fill="none" stroke="#b0b0b0" stroke-linecap="square" stroke-opacity=".3" stroke-width=".8"/>
     </g>
     <g id="dr">
      <use x="32.583434" y="347.010171" stroke="#000000" stroke-width=".8" xlink:href="#d"/>
     </g>
     <g id="ds">
      <text transform="rotate(-0 25.583 351)" x="25.583434" y="350.995327" font-family="'Noto Sans JP'" font-size="10px" text-anchor="end">34</text>
     </g>
    </g>
    <g id="dt">
     <g id="du">
      <path d="m32.583 304.08h820.62" clip-path="url(#b)" fill="none" stroke="#b0b0b0" stroke-linecap="square" stroke-opacity=".3" stroke-width=".8"/>
     </g>
     <g id="dv">
      <use x="32.583434" y="304.08422" stroke="#000000" stroke-width=".8" xlink:href="#d"/>
     </g>
     <g id="dw">
      <text transform="rotate(-0 25.583 308.07)" x="25.583434" y="308.069376" font-family="'Noto Sans JP'" font-size="10px" text-anchor="end">35</text>
     </g>
    </g>
   </g>
   <g id="dx">
    <path d="m69.884 518.71h60.867l2.0073-42.926h10.036l2.0073-42.926h10.036l2.0073 42.926h240.87l2.0073-42.926h84.305l2.0073-42.926h2.0073l2.0073-42.926h104.38l2.0073-42.926h219.46v0" clip-path="url(#b)" fill="none" stroke="#28f" stroke-linecap="square" stroke-width="1.5"/>
   </g>
   <g id="dy">
    <path d="m32.583 529.45v-236.09" fill="none" stroke="#000" stroke-linecap="square" stroke-width=".8"/>
   </g>
   <g id="dz">
    <path d="m853.2 529.45v-236.09" fill="none" stroke="#000" stroke-linecap="square" stroke-width=".8"/>
   </g>
   <g id="ea">
    <path d="m32.583 529.45h820.62" fill="none" stroke="#000" stroke-linecap="square" stroke-width=".8"/>
   </g>
   <g id="eb">
    <path d="m32.583 293.35h820.62" fill="none" stroke="#000" stroke-linecap="square" stroke-width=".8"/>
   </g>
   <g id="ec">
    <text transform="rotate(-0 442.89 287.35)" x="442.891717" y="287.352732" font-family="'Noto Sans JP'" font-size="12px" text-anchor="middle">サーバー数の推移</text>
   </g>
  </g>
 </g>
 <defs>
  <clipPath id="c">
   <rect x="32.583" y="26.88" width="820.62" height="236.09"/>
  </clipPath>
  <clipPath id="b">
   <rect x="32.583" y="293.35" width="820.62" height="236.09"/>
  </clipPath>
 </defs>
</svg>
