<?xml version="1.0" encoding="utf-8" standalone="no"?>
<!DOCTYPE svg PUBLIC "-//W3C//DTD SVG 1.1//EN"
  "http://www.w3.org/Graphics/SVG/1.1/DTD/svg11.dtd">
<svg xmlns:xlink="http://www.w3.org/1999/xlink" width="864pt" height="576pt" viewBox="0 0 864 576" xmlns="http://www.w3.org/2000/svg" version="1.1">
 <metadata>
  <rdf:RDF xmlns:dc="http://purl.org/dc/elements/1.1/" xmlns:cc="http://creativecommons.org/ns#" xmlns:rdf="http://www.w3.org/1999/02/22-rdf-syntax-ns#">
   <cc:Work>
    <dc:type rdf:resource="http://purl.org/dc/dcmitype/StillImage"/>
    <dc:date>2025-07-04T01:40:24.968686</dc:date>
    <dc:format>image/svg+xml</dc:format>
    <dc:creator>
     <cc:Agent>
      <dc:title>Matplotlib v3.10.3, https://matplotlib.org/</dc:title>
     </cc:Agent>
    </dc:creator>
   </cc:Work>
  </rdf:RDF>
 </metadata>
 <defs>
  <style type="text/css">*{stroke-linejoin: round; stroke-linecap: butt}</style>
 </defs>
 <g id="figure_1">
  <g id="patch_1">
   <path d="M 0 576 
L 864 576 
L 864 0 
L 0 0 
z
" style="fill: #ffffff"/>
  </g>
  <g id="axes_1">
   <g id="patch_2">
    <path d="M 46.6 262.972732 
L 853.2 262.972732 
L 853.2 26.88 
L 46.6 26.88 
z
" style="fill: #ffffff"/>
   </g>
   <g id="matplotlib.axis_1">
    <g id="xtick_1">
     <g id="line2d_1">
      <path d="M 68.090477 262.972732 
L 68.090477 26.88 
" clip-path="url(#pd41ef3e1b8)" style="fill: none; stroke: #b0b0b0; stroke-opacity: 0.3; stroke-width: 0.8; stroke-linecap: square"/>
     </g>
     <g id="line2d_2">
      <defs>
       <path id="m29e4cd6435" d="M 0 0 
L 0 3.5 
" style="stroke: #000000; stroke-width: 0.8"/>
      </defs>
      <g>
       <use xlink:href="#m29e4cd6435" x="68.090477" y="262.972732" style="stroke: #000000; stroke-width: 0.8"/>
      </g>
     </g>
    </g>
    <g id="xtick_2">
     <g id="line2d_3">
      <path d="M 162.963899 262.972732 
L 162.963899 26.88 
" clip-path="url(#pd41ef3e1b8)" style="fill: none; stroke: #b0b0b0; stroke-opacity: 0.3; stroke-width: 0.8; stroke-linecap: square"/>
     </g>
     <g id="line2d_4">
      <g>
       <use xlink:href="#m29e4cd6435" x="162.963899" y="262.972732" style="stroke: #000000; stroke-width: 0.8"/>
      </g>
     </g>
    </g>
    <g id="xtick_3">
     <g id="line2d_5">
      <path d="M 257.837322 262.972732 
L 257.837322 26.88 
" clip-path="url(#pd41ef3e1b8)" style="fill: none; stroke: #b0b0b0; stroke-opacity: 0.3; stroke-width: 0.8; stroke-linecap: square"/>
     </g>
     <g id="line2d_6">
      <g>
       <use xlink:href="#m29e4cd6435" x="257.837322" y="262.972732" style="stroke: #000000; stroke-width: 0.8"/>
      </g>
     </g>
    </g>
    <g id="xtick_4">
     <g id="line2d_7">
      <path d="M 352.710744 262.972732 
L 352.710744 26.88 
" clip-path="url(#pd41ef3e1b8)" style="fill: none; stroke: #b0b0b0; stroke-opacity: 0.3; stroke-width: 0.8; stroke-linecap: square"/>
     </g>
     <g id="line2d_8">
      <g>
       <use xlink:href="#m29e4cd6435" x="352.710744" y="262.972732" style="stroke: #000000; stroke-width: 0.8"/>
      </g>
     </g>
    </g>
    <g id="xtick_5">
     <g id="line2d_9">
      <path d="M 447.584166 262.972732 
L 447.584166 26.88 
" clip-path="url(#pd41ef3e1b8)" style="fill: none; stroke: #b0b0b0; stroke-opacity: 0.3; stroke-width: 0.8; stroke-linecap: square"/>
     </g>
     <g id="line2d_10">
      <g>
       <use xlink:href="#m29e4cd6435" x="447.584166" y="262.972732" style="stroke: #000000; stroke-width: 0.8"/>
      </g>
     </g>
    </g>
    <g id="xtick_6">
     <g id="line2d_11">
      <path d="M 542.457588 262.972732 
L 542.457588 26.88 
" clip-path="url(#pd41ef3e1b8)" style="fill: none; stroke: #b0b0b0; stroke-opacity: 0.3; stroke-width: 0.8; stroke-linecap: square"/>
     </g>
     <g id="line2d_12">
      <g>
       <use xlink:href="#m29e4cd6435" x="542.457588" y="262.972732" style="stroke: #000000; stroke-width: 0.8"/>
      </g>
     </g>
    </g>
    <g id="xtick_7">
     <g id="line2d_13">
      <path d="M 637.331011 262.972732 
L 637.331011 26.88 
" clip-path="url(#pd41ef3e1b8)" style="fill: none; stroke: #b0b0b0; stroke-opacity: 0.3; stroke-width: 0.8; stroke-linecap: square"/>
     </g>
     <g id="line2d_14">
      <g>
       <use xlink:href="#m29e4cd6435" x="637.331011" y="262.972732" style="stroke: #000000; stroke-width: 0.8"/>
      </g>
     </g>
    </g>
    <g id="xtick_8">
     <g id="line2d_15">
      <path d="M 732.204433 262.972732 
L 732.204433 26.88 
" clip-path="url(#pd41ef3e1b8)" style="fill: none; stroke: #b0b0b0; stroke-opacity: 0.3; stroke-width: 0.8; stroke-linecap: square"/>
     </g>
     <g id="line2d_16">
      <g>
       <use xlink:href="#m29e4cd6435" x="732.204433" y="262.972732" style="stroke: #000000; stroke-width: 0.8"/>
      </g>
     </g>
    </g>
    <g id="xtick_9">
     <g id="line2d_17">
      <path d="M 827.077855 262.972732 
L 827.077855 26.88 
" clip-path="url(#pd41ef3e1b8)" style="fill: none; stroke: #b0b0b0; stroke-opacity: 0.3; stroke-width: 0.8; stroke-linecap: square"/>
     </g>
     <g id="line2d_18">
      <g>
       <use xlink:href="#m29e4cd6435" x="827.077855" y="262.972732" style="stroke: #000000; stroke-width: 0.8"/>
      </g>
     </g>
    </g>
   </g>
   <g id="matplotlib.axis_2">
    <g id="ytick_1">
     <g id="line2d_19">
      <path d="M 46.6 248.852353 
L 853.2 248.852353 
" clip-path="url(#pd41ef3e1b8)" style="fill: none; stroke: #b0b0b0; stroke-opacity: 0.3; stroke-width: 0.8; stroke-linecap: square"/>
     </g>
     <g id="line2d_20">
      <defs>
       <path id="md131c47fc8" d="M 0 0 
L -3.5 0 
" style="stroke: #000000; stroke-width: 0.8"/>
      </defs>
      <g>
       <use xlink:href="#md131c47fc8" x="46.6" y="248.852353" style="stroke: #000000; stroke-width: 0.8"/>
      </g>
     </g>
     <g id="text_1">
      <text style="font-size: 10px; font-family: 'Noto Sans JP'; text-anchor: end" x="39.6" y="252.83751" transform="rotate(-0 39.6 252.83751)">25</text>
     </g>
    </g>
    <g id="ytick_2">
     <g id="line2d_21">
      <path d="M 46.6 220.611596 
L 853.2 220.611596 
" clip-path="url(#pd41ef3e1b8)" style="fill: none; stroke: #b0b0b0; stroke-opacity: 0.3; stroke-width: 0.8; stroke-linecap: square"/>
     </g>
     <g id="line2d_22">
      <g>
       <use xlink:href="#md131c47fc8" x="46.6" y="220.611596" style="stroke: #000000; stroke-width: 0.8"/>
      </g>
     </g>
     <g id="text_2">
      <text style="font-size: 10px; font-family: 'Noto Sans JP'; text-anchor: end" x="39.6" y="224.596752" transform="rotate(-0 39.6 224.596752)">50</text>
     </g>
    </g>
    <g id="ytick_3">
     <g id="line2d_23">
      <path d="M 46.6 192.370838 
L 853.2 192.370838 
" clip-path="url(#pd41ef3e1b8)" style="fill: none; stroke: #b0b0b0; stroke-opacity: 0.3; stroke-width: 0.8; stroke-linecap: square"/>
     </g>
     <g id="line2d_24">
      <g>
       <use xlink:href="#md131c47fc8" x="46.6" y="192.370838" style="stroke: #000000; stroke-width: 0.8"/>
      </g>
     </g>
     <g id="text_3">
      <text style="font-size: 10px; font-family: 'Noto Sans JP'; text-anchor: end" x="39.6" y="196.355995" transform="rotate(-0 39.6 196.355995)">75</text>
     </g>
    </g>
    <g id="ytick_4">
     <g id="line2d_25">
      <path d="M 46.6 164.130081 
L 853.2 164.130081 
" clip-path="url(#pd41ef3e1b8)" style="fill: none; stroke: #b0b0b0; stroke-opacity: 0.3; stroke-width: 0.8; stroke-linecap: square"/>
     </g>
     <g id="line2d_26">
      <g>
       <use xlink:href="#md131c47fc8" x="46.6" y="164.130081" style="stroke: #000000; stroke-width: 0.8"/>
      </g>
     </g>
     <g id="text_4">
      <text style="font-size: 10px; font-family: 'Noto Sans JP'; text-anchor: end" x="39.6" y="168.115237" transform="rotate(-0 39.6 168.115237)">100</text>
     </g>
    </g>
    <g id="ytick_5">
     <g id="line2d_27">
      <path d="M 46.6 135.889324 
L 853.2 135.889324 
" clip-path="url(#pd41ef3e1b8)" style="fill: none; stroke: #b0b0b0; stroke-opacity: 0.3; stroke-width: 0.8; stroke-linecap: square"/>
     </g>
     <g id="line2d_28">
      <g>
       <use xlink:href="#md131c47fc8" x="46.6" y="135.889324" style="stroke: #000000; stroke-width: 0.8"/>
      </g>
     </g>
     <g id="text_5">
      <text style="font-size: 10px; font-family: 'Noto Sans JP'; text-anchor: end" x="39.6" y="139.87448" transform="rotate(-0 39.6 139.87448)">125</text>
     </g>
    </g>
    <g id="ytick_6">
     <g id="line2d_29">
      <path d="M 46.6 107.648566 
L 853.2 107.648566 
" clip-path="url(#pd41ef3e1b8)" style="fill: none; stroke: #b0b0b0; stroke-opacity: 0.3; stroke-width: 0.8; stroke-linecap: square"/>
     </g>
     <g id="line2d_30">
      <g>
       <use xlink:href="#md131c47fc8" x="46.6" y="107.648566" style="stroke: #000000; stroke-width: 0.8"/>
      </g>
     </g>
     <g id="text_6">
      <text style="font-size: 10px; font-family: 'Noto Sans JP'; text-anchor: end" x="39.6" y="111.633722" transform="rotate(-0 39.6 111.633722)">150</text>
     </g>
    </g>
    <g id="ytick_7">
     <g id="line2d_31">
      <path d="M 46.6 79.407809 
L 853.2 79.407809 
" clip-path="url(#pd41ef3e1b8)" style="fill: none; stroke: #b0b0b0; stroke-opacity: 0.3; stroke-width: 0.8; stroke-linecap: square"/>
     </g>
     <g id="line2d_32">
      <g>
       <use xlink:href="#md131c47fc8" x="46.6" y="79.407809" style="stroke: #000000; stroke-width: 0.8"/>
      </g>
     </g>
     <g id="text_7">
      <text style="font-size: 10px; font-family: 'Noto Sans JP'; text-anchor: end" x="39.6" y="83.392965" transform="rotate(-0 39.6 83.392965)">175</text>
     </g>
    </g>
    <g id="ytick_8">
     <g id="line2d_33">
      <path d="M 46.6 51.167051 
L 853.2 51.167051 
" clip-path="url(#pd41ef3e1b8)" style="fill: none; stroke: #b0b0b0; stroke-opacity: 0.3; stroke-width: 0.8; stroke-linecap: square"/>
     </g>
     <g id="line2d_34">
      <g>
       <use xlink:href="#md131c47fc8" x="46.6" y="51.167051" style="stroke: #000000; stroke-width: 0.8"/>
      </g>
     </g>
     <g id="text_8">
      <text style="font-size: 10px; font-family: 'Noto Sans JP'; text-anchor: end" x="39.6" y="55.152208" transform="rotate(-0 39.6 55.152208)">200</text>
     </g>
    </g>
   </g>
   <g id="line2d_35">
    <path d="M 83.263636 224.000487 
L 87.904089 224.000487 
L 89.876226 235.29679 
L 115.527188 235.29679 
L 117.503718 220.611596 
L 127.386366 220.611596 
L 129.362896 219.481966 
L 131.339425 214.963444 
L 135.292485 214.963444 
L 137.269014 187.852317 
L 141.222074 183.333796 
L 143.198603 183.333796 
L 145.175133 151.704148 
L 147.151662 135.889324 
L 149.128192 106.518936 
L 151.104722 90.704112 
L 153.081251 90.704112 
L 155.057781 68.111506 
L 157.034311 68.111506 
L 159.01084 71.500397 
L 162.963899 71.500397 
L 164.940429 98.611524 
L 166.916959 112.167087 
L 168.893488 112.167087 
L 170.870018 135.889324 
L 172.846548 135.889324 
L 174.823077 166.389342 
L 186.682255 166.389342 
L 188.658785 199.14862 
L 212.37714 199.14862 
L 214.35367 233.037529 
L 216.330199 233.037529 
L 218.306729 240.944941 
L 226.212848 240.944941 
L 228.189377 243.204202 
L 245.978144 243.204202 
L 247.954674 249.981984 
L 253.884262 249.981984 
L 255.860792 244.333832 
L 261.790381 244.333832 
L 263.766911 243.204202 
L 275.626088 243.204202 
L 277.602618 242.074571 
L 287.485266 242.074571 
L 289.461796 239.815311 
L 303.297503 239.815311 
L 305.274033 235.29679 
L 307.250562 233.037529 
L 309.227092 233.037529 
L 311.203622 227.389378 
L 315.156681 227.389378 
L 317.133211 216.093075 
L 321.08627 216.093075 
L 323.062799 202.537511 
L 325.039329 193.500469 
L 328.992388 193.500469 
L 330.968918 170.907863 
L 332.945448 170.907863 
L 334.921977 139.278215 
L 336.898507 131.370802 
L 338.875036 107.648566 
L 340.851566 102.000415 
L 342.828096 94.093003 
L 344.804625 94.093003 
L 346.781155 89.574481 
L 348.757685 83.92633 
L 350.734214 83.92633 
L 352.710744 80.537439 
L 354.687274 104.259675 
L 356.663803 112.167087 
L 360.616862 112.167087 
L 362.593392 149.444887 
L 364.569922 149.444887 
L 366.546451 164.130081 
L 368.522981 172.037493 
L 370.499511 172.037493 
L 372.47604 186.722687 
L 374.45257 186.722687 
L 376.429099 195.759729 
L 378.405629 205.926402 
L 382.358688 205.926402 
L 384.335218 218.352335 
L 386.311748 218.352335 
L 388.288277 228.519008 
L 390.264807 228.519008 
L 392.241336 231.907899 
L 441.654577 231.907899 
L 443.631107 248.852353 
L 453.513755 248.852353 
L 455.490285 246.593093 
L 469.325992 246.593093 
L 471.302522 240.944941 
L 479.20864 240.944941 
L 481.18517 236.42642 
L 504.903525 236.42642 
L 506.880055 218.352335 
L 508.856585 218.352335 
L 510.833114 209.315293 
L 512.809644 209.315293 
L 514.786174 194.630099 
L 516.762703 194.630099 
L 518.739233 168.648602 
L 520.715762 166.389342 
L 522.692292 148.315257 
L 524.668822 138.148584 
L 526.645351 120.074499 
L 528.621881 94.093003 
L 530.598411 74.889288 
L 532.57494 56.815203 
L 534.55147 53.426312 
L 536.527999 53.426312 
L 538.504529 37.611488 
L 540.481059 42.130009 
L 542.457588 48.907791 
L 544.434118 60.204094 
L 546.410648 60.204094 
L 548.387177 95.222633 
L 552.340236 129.111542 
L 558.269825 129.111542 
L 560.246355 175.426384 
L 566.175944 175.426384 
L 568.152474 200.278251 
L 570.129003 207.056032 
L 572.105533 218.352335 
L 576.058592 218.352335 
L 578.035122 227.389378 
L 581.988181 227.389378 
L 585.94124 231.907899 
L 628.766049 231.907899 
L 629.424892 247.722723 
L 631.401422 247.722723 
L 632.060265 245.463462 
L 638.648697 245.463462 
L 639.30754 243.204202 
L 639.966383 243.204202 
L 640.625227 244.333832 
L 665.661269 244.333832 
L 666.320112 237.55605 
L 668.955485 237.55605 
L 669.614328 233.037529 
L 683.450035 233.037529 
L 684.108878 222.870856 
L 696.626899 222.870856 
L 697.285743 213.833814 
L 697.944586 213.833814 
L 698.603429 212.704184 
L 700.579959 212.704184 
L 701.238802 211.574553 
L 704.533018 211.574553 
L 705.191861 196.88936 
L 708.486077 196.88936 
L 709.14492 175.426384 
L 709.803764 170.907863 
L 714.415666 170.907863 
L 715.074509 146.055996 
L 715.733353 140.407845 
L 716.392196 132.500433 
L 717.051039 132.500433 
L 717.709882 114.426348 
L 719.027569 114.426348 
L 719.686412 94.093003 
L 724.298314 94.093003 
L 724.957157 80.537439 
L 725.616001 82.7967 
L 728.910217 82.7967 
L 729.56906 87.315221 
L 730.227903 83.92633 
L 730.886746 83.92633 
L 731.54559 87.315221 
L 732.863276 87.315221 
L 733.522119 103.130045 
L 734.839806 103.130045 
L 735.498649 111.037457 
L 736.157492 111.037457 
L 736.816335 118.944869 
L 738.134022 118.944869 
L 738.792865 131.370802 
L 739.451708 140.407845 
L 741.428238 140.407845 
L 742.087081 159.61156 
L 746.698983 159.61156 
L 747.357827 177.685645 
L 761.852377 177.685645 
L 762.51122 220.611596 
L 765.805436 220.611596 
L 766.46428 226.259747 
L 778.982301 226.259747 
L 779.641144 239.815311 
L 803.359499 239.815311 
L 804.018343 252.241244 
L 816.536364 252.241244 
L 816.536364 252.241244 
" clip-path="url(#pd41ef3e1b8)" style="fill: none; stroke: #2288ff; stroke-width: 1.5; stroke-linecap: square"/>
   </g>
   <g id="patch_3">
    <path d="M 46.6 262.972732 
L 46.6 26.88 
" style="fill: none; stroke: #000000; stroke-width: 0.8; stroke-linejoin: miter; stroke-linecap: square"/>
   </g>
   <g id="patch_4">
    <path d="M 853.2 262.972732 
L 853.2 26.88 
" style="fill: none; stroke: #000000; stroke-width: 0.8; stroke-linejoin: miter; stroke-linecap: square"/>
   </g>
   <g id="patch_5">
    <path d="M 46.6 262.972732 
L 853.2 262.972732 
" style="fill: none; stroke: #000000; stroke-width: 0.8; stroke-linejoin: miter; stroke-linecap: square"/>
   </g>
   <g id="patch_6">
    <path d="M 46.6 26.88 
L 853.2 26.88 
" style="fill: none; stroke: #000000; stroke-width: 0.8; stroke-linejoin: miter; stroke-linecap: square"/>
   </g>
   <g id="text_9">
    <text style="font-size: 12px; font-family: 'Noto Sans JP'; text-anchor: middle" x="449.9" y="20.88" transform="rotate(-0 449.9 20.88)">同時接続数の推移</text>
   </g>
  </g>
  <g id="axes_2">
   <g id="patch_7">
    <path d="M 46.6 529.445464 
L 853.2 529.445464 
L 853.2 293.352732 
L 46.6 293.352732 
z
" style="fill: #ffffff"/>
   </g>
   <g id="matplotlib.axis_3">
    <g id="xtick_10">
     <g id="line2d_36">
      <path d="M 68.090477 529.445464 
L 68.090477 293.352732 
" clip-path="url(#p0283dbcf8e)" style="fill: none; stroke: #b0b0b0; stroke-opacity: 0.3; stroke-width: 0.8; stroke-linecap: square"/>
     </g>
     <g id="line2d_37">
      <g>
       <use xlink:href="#m29e4cd6435" x="68.090477" y="529.445464" style="stroke: #000000; stroke-width: 0.8"/>
      </g>
     </g>
     <g id="text_10">
      <text style="font-size: 10px; font-family: 'Noto Sans JP'" transform="translate(32.317026 563.358113) rotate(-30)">06-30 12</text>
     </g>
    </g>
    <g id="xtick_11">
     <g id="line2d_38">
      <path d="M 162.963899 529.445464 
L 162.963899 293.352732 
" clip-path="url(#p0283dbcf8e)" style="fill: none; stroke: #b0b0b0; stroke-opacity: 0.3; stroke-width: 0.8; stroke-linecap: square"/>
     </g>
     <g id="line2d_39">
      <g>
       <use xlink:href="#m29e4cd6435" x="162.963899" y="529.445464" style="stroke: #000000; stroke-width: 0.8"/>
      </g>
     </g>
     <g id="text_11">
      <text style="font-size: 10px; font-family: 'Noto Sans JP'" transform="translate(127.190448 563.358113) rotate(-30)">07-01 00</text>
     </g>
    </g>
    <g id="xtick_12">
     <g id="line2d_40">
      <path d="M 257.837322 529.445464 
L 257.837322 293.352732 
" clip-path="url(#p0283dbcf8e)" style="fill: none; stroke: #b0b0b0; stroke-opacity: 0.3; stroke-width: 0.8; stroke-linecap: square"/>
     </g>
     <g id="line2d_41">
      <g>
       <use xlink:href="#m29e4cd6435" x="257.837322" y="529.445464" style="stroke: #000000; stroke-width: 0.8"/>
      </g>
     </g>
     <g id="text_12">
      <text style="font-size: 10px; font-family: 'Noto Sans JP'" transform="translate(222.063871 563.358113) rotate(-30)">07-01 12</text>
     </g>
    </g>
    <g id="xtick_13">
     <g id="line2d_42">
      <path d="M 352.710744 529.445464 
L 352.710744 293.352732 
" clip-path="url(#p0283dbcf8e)" style="fill: none; stroke: #b0b0b0; stroke-opacity: 0.3; stroke-width: 0.8; stroke-linecap: square"/>
     </g>
     <g id="line2d_43">
      <g>
       <use xlink:href="#m29e4cd6435" x="352.710744" y="529.445464" style="stroke: #000000; stroke-width: 0.8"/>
      </g>
     </g>
     <g id="text_13">
      <text style="font-size: 10px; font-family: 'Noto Sans JP'" transform="translate(316.937293 563.358113) rotate(-30)">07-02 00</text>
     </g>
    </g>
    <g id="xtick_14">
     <g id="line2d_44">
      <path d="M 447.584166 529.445464 
L 447.584166 293.352732 
" clip-path="url(#p0283dbcf8e)" style="fill: none; stroke: #b0b0b0; stroke-opacity: 0.3; stroke-width: 0.8; stroke-linecap: square"/>
     </g>
     <g id="line2d_45">
      <g>
       <use xlink:href="#m29e4cd6435" x="447.584166" y="529.445464" style="stroke: #000000; stroke-width: 0.8"/>
      </g>
     </g>
     <g id="text_14">
      <text style="font-size: 10px; font-family: 'Noto Sans JP'" transform="translate(411.810715 563.358113) rotate(-30)">07-02 12</text>
     </g>
    </g>
    <g id="xtick_15">
     <g id="line2d_46">
      <path d="M 542.457588 529.445464 
L 542.457588 293.352732 
" clip-path="url(#p0283dbcf8e)" style="fill: none; stroke: #b0b0b0; stroke-opacity: 0.3; stroke-width: 0.8; stroke-linecap: square"/>
     </g>
     <g id="line2d_47">
      <g>
       <use xlink:href="#m29e4cd6435" x="542.457588" y="529.445464" style="stroke: #000000; stroke-width: 0.8"/>
      </g>
     </g>
     <g id="text_15">
      <text style="font-size: 10px; font-family: 'Noto Sans JP'" transform="translate(506.684137 563.358113) rotate(-30)">07-03 00</text>
     </g>
    </g>
    <g id="xtick_16">
     <g id="line2d_48">
      <path d="M 637.331011 529.445464 
L 637.331011 293.352732 
" clip-path="url(#p0283dbcf8e)" style="fill: none; stroke: #b0b0b0; stroke-opacity: 0.3; stroke-width: 0.8; stroke-linecap: square"/>
     </g>
     <g id="line2d_49">
      <g>
       <use xlink:href="#m29e4cd6435" x="637.331011" y="529.445464" style="stroke: #000000; stroke-width: 0.8"/>
      </g>
     </g>
     <g id="text_16">
      <text style="font-size: 10px; font-family: 'Noto Sans JP'" transform="translate(601.55756 563.358113) rotate(-30)">07-03 12</text>
     </g>
    </g>
    <g id="xtick_17">
     <g id="line2d_50">
      <path d="M 732.204433 529.445464 
L 732.204433 293.352732 
" clip-path="url(#p0283dbcf8e)" style="fill: none; stroke: #b0b0b0; stroke-opacity: 0.3; stroke-width: 0.8; stroke-linecap: square"/>
     </g>
     <g id="line2d_51">
      <g>
       <use xlink:href="#m29e4cd6435" x="732.204433" y="529.445464" style="stroke: #000000; stroke-width: 0.8"/>
      </g>
     </g>
     <g id="text_17">
      <text style="font-size: 10px; font-family: 'Noto Sans JP'" transform="translate(696.430982 563.358113) rotate(-30)">07-04 00</text>
     </g>
    </g>
    <g id="xtick_18">
     <g id="line2d_52">
      <path d="M 827.077855 529.445464 
L 827.077855 293.352732 
" clip-path="url(#p0283dbcf8e)" style="fill: none; stroke: #b0b0b0; stroke-opacity: 0.3; stroke-width: 0.8; stroke-linecap: square"/>
     </g>
     <g id="line2d_53">
      <g>
       <use xlink:href="#m29e4cd6435" x="827.077855" y="529.445464" style="stroke: #000000; stroke-width: 0.8"/>
      </g>
     </g>
     <g id="text_18">
      <text style="font-size: 10px; font-family: 'Noto Sans JP'" transform="translate(791.304404 563.358113) rotate(-30)">07-04 12</text>
     </g>
    </g>
   </g>
   <g id="matplotlib.axis_4">
    <g id="ytick_9">
     <g id="line2d_54">
      <path d="M 46.6 518.713976 
L 853.2 518.713976 
" clip-path="url(#p0283dbcf8e)" style="fill: none; stroke: #b0b0b0; stroke-opacity: 0.3; stroke-width: 0.8; stroke-linecap: square"/>
     </g>
     <g id="line2d_55">
      <g>
       <use xlink:href="#md131c47fc8" x="46.6" y="518.713976" style="stroke: #000000; stroke-width: 0.8"/>
      </g>
     </g>
     <g id="text_19">
      <text style="font-size: 10px; font-family: 'Noto Sans JP'; text-anchor: end" x="39.6" y="522.699132" transform="rotate(-0 39.6 522.699132)">47782</text>
     </g>
    </g>
    <g id="ytick_10">
     <g id="line2d_56">
      <path d="M 46.6 482.94235 
L 853.2 482.94235 
" clip-path="url(#p0283dbcf8e)" style="fill: none; stroke: #b0b0b0; stroke-opacity: 0.3; stroke-width: 0.8; stroke-linecap: square"/>
     </g>
     <g id="line2d_57">
      <g>
       <use xlink:href="#md131c47fc8" x="46.6" y="482.94235" style="stroke: #000000; stroke-width: 0.8"/>
      </g>
     </g>
     <g id="text_20">
      <text style="font-size: 10px; font-family: 'Noto Sans JP'; text-anchor: end" x="39.6" y="486.927506" transform="rotate(-0 39.6 486.927506)">47784</text>
     </g>
    </g>
    <g id="ytick_11">
     <g id="line2d_58">
      <path d="M 46.6 447.170724 
L 853.2 447.170724 
" clip-path="url(#p0283dbcf8e)" style="fill: none; stroke: #b0b0b0; stroke-opacity: 0.3; stroke-width: 0.8; stroke-linecap: square"/>
     </g>
     <g id="line2d_59">
      <g>
       <use xlink:href="#md131c47fc8" x="46.6" y="447.170724" style="stroke: #000000; stroke-width: 0.8"/>
      </g>
     </g>
     <g id="text_21">
      <text style="font-size: 10px; font-family: 'Noto Sans JP'; text-anchor: end" x="39.6" y="451.15588" transform="rotate(-0 39.6 451.15588)">47786</text>
     </g>
    </g>
    <g id="ytick_12">
     <g id="line2d_60">
      <path d="M 46.6 411.399098 
L 853.2 411.399098 
" clip-path="url(#p0283dbcf8e)" style="fill: none; stroke: #b0b0b0; stroke-opacity: 0.3; stroke-width: 0.8; stroke-linecap: square"/>
     </g>
     <g id="line2d_61">
      <g>
       <use xlink:href="#md131c47fc8" x="46.6" y="411.399098" style="stroke: #000000; stroke-width: 0.8"/>
      </g>
     </g>
     <g id="text_22">
      <text style="font-size: 10px; font-family: 'Noto Sans JP'; text-anchor: end" x="39.6" y="415.384254" transform="rotate(-0 39.6 415.384254)">47788</text>
     </g>
    </g>
    <g id="ytick_13">
     <g id="line2d_62">
      <path d="M 46.6 375.627472 
L 853.2 375.627472 
" clip-path="url(#p0283dbcf8e)" style="fill: none; stroke: #b0b0b0; stroke-opacity: 0.3; stroke-width: 0.8; stroke-linecap: square"/>
     </g>
     <g id="line2d_63">
      <g>
       <use xlink:href="#md131c47fc8" x="46.6" y="375.627472" style="stroke: #000000; stroke-width: 0.8"/>
      </g>
     </g>
     <g id="text_23">
      <text style="font-size: 10px; font-family: 'Noto Sans JP'; text-anchor: end" x="39.6" y="379.612628" transform="rotate(-0 39.6 379.612628)">47790</text>
     </g>
    </g>
    <g id="ytick_14">
     <g id="line2d_64">
      <path d="M 46.6 339.855846 
L 853.2 339.855846 
" clip-path="url(#p0283dbcf8e)" style="fill: none; stroke: #b0b0b0; stroke-opacity: 0.3; stroke-width: 0.8; stroke-linecap: square"/>
     </g>
     <g id="line2d_65">
      <g>
       <use xlink:href="#md131c47fc8" x="46.6" y="339.855846" style="stroke: #000000; stroke-width: 0.8"/>
      </g>
     </g>
     <g id="text_24">
      <text style="font-size: 10px; font-family: 'Noto Sans JP'; text-anchor: end" x="39.6" y="343.841002" transform="rotate(-0 39.6 343.841002)">47792</text>
     </g>
    </g>
    <g id="ytick_15">
     <g id="line2d_66">
      <path d="M 46.6 304.08422 
L 853.2 304.08422 
" clip-path="url(#p0283dbcf8e)" style="fill: none; stroke: #b0b0b0; stroke-opacity: 0.3; stroke-width: 0.8; stroke-linecap: square"/>
     </g>
     <g id="line2d_67">
      <g>
       <use xlink:href="#md131c47fc8" x="46.6" y="304.08422" style="stroke: #000000; stroke-width: 0.8"/>
      </g>
     </g>
     <g id="text_25">
      <text style="font-size: 10px; font-family: 'Noto Sans JP'; text-anchor: end" x="39.6" y="308.069376" transform="rotate(-0 39.6 308.069376)">47794</text>
     </g>
    </g>
   </g>
   <g id="line2d_68">
    <path d="M 83.263636 518.713976 
L 87.904089 518.713976 
L 89.876226 500.828163 
L 115.527188 500.828163 
L 117.503718 465.056537 
L 127.386366 465.056537 
L 131.339425 429.284911 
L 135.292485 429.284911 
L 137.269014 411.399098 
L 139.245544 411.399098 
L 141.222074 393.513285 
L 143.198603 393.513285 
L 145.175133 411.399098 
L 147.151662 411.399098 
L 151.104722 375.627472 
L 153.081251 375.627472 
L 155.057781 321.970033 
L 157.034311 321.970033 
L 159.01084 357.741659 
L 162.963899 357.741659 
L 164.940429 411.399098 
L 166.916959 429.284911 
L 186.682255 429.284911 
L 188.658785 447.170724 
L 212.37714 447.170724 
L 214.35367 429.284911 
L 245.978144 429.284911 
L 247.954674 465.056537 
L 261.790381 465.056537 
L 263.766911 447.170724 
L 275.626088 447.170724 
L 277.602618 429.284911 
L 287.485266 429.284911 
L 289.461796 411.399098 
L 328.992388 411.399098 
L 330.968918 393.513285 
L 332.945448 393.513285 
L 334.921977 357.741659 
L 336.898507 357.741659 
L 342.828096 304.08422 
L 344.804625 321.970033 
L 346.781155 304.08422 
L 354.687274 304.08422 
L 356.663803 321.970033 
L 360.616862 321.970033 
L 362.593392 339.855846 
L 364.569922 339.855846 
L 366.546451 375.627472 
L 368.522981 393.513285 
L 370.499511 393.513285 
L 372.47604 411.399098 
L 374.45257 411.399098 
L 376.429099 393.513285 
L 382.358688 393.513285 
L 384.335218 375.627472 
L 386.311748 375.627472 
L 388.288277 393.513285 
L 390.264807 393.513285 
L 392.241336 411.399098 
L 441.654577 411.399098 
L 443.631107 447.170724 
L 445.607636 465.056537 
L 469.325992 465.056537 
L 471.302522 447.170724 
L 479.20864 447.170724 
L 481.18517 465.056537 
L 504.903525 465.056537 
L 506.880055 482.94235 
L 508.856585 482.94235 
L 510.833114 465.056537 
L 512.809644 465.056537 
L 514.786174 447.170724 
L 516.762703 447.170724 
L 518.739233 429.284911 
L 522.692292 429.284911 
L 524.668822 411.399098 
L 526.645351 429.284911 
L 528.621881 393.513285 
L 530.598411 375.627472 
L 532.57494 339.855846 
L 534.55147 375.627472 
L 536.527999 375.627472 
L 538.504529 411.399098 
L 540.481059 411.399098 
L 542.457588 393.513285 
L 544.434118 411.399098 
L 566.175944 411.399098 
L 568.152474 429.284911 
L 628.766049 429.284911 
L 629.424892 393.513285 
L 638.648697 393.513285 
L 639.30754 411.399098 
L 683.450035 411.399098 
L 684.108878 393.513285 
L 697.944586 393.513285 
L 698.603429 375.627472 
L 700.579959 375.627472 
L 701.238802 393.513285 
L 704.533018 393.513285 
L 705.191861 411.399098 
L 708.486077 411.399098 
L 709.14492 393.513285 
L 714.415666 393.513285 
L 715.074509 357.741659 
L 715.733353 339.855846 
L 724.298314 339.855846 
L 724.957157 357.741659 
L 741.428238 357.741659 
L 742.087081 339.855846 
L 761.852377 339.855846 
L 762.51122 357.741659 
L 803.359499 357.741659 
L 804.018343 339.855846 
L 816.536364 339.855846 
L 816.536364 339.855846 
" clip-path="url(#p0283dbcf8e)" style="fill: none; stroke: #2288ff; stroke-width: 1.5; stroke-linecap: square"/>
   </g>
   <g id="patch_8">
    <path d="M 46.6 529.445464 
L 46.6 293.352732 
" style="fill: none; stroke: #000000; stroke-width: 0.8; stroke-linejoin: miter; stroke-linecap: square"/>
   </g>
   <g id="patch_9">
    <path d="M 853.2 529.445464 
L 853.2 293.352732 
" style="fill: none; stroke: #000000; stroke-width: 0.8; stroke-linejoin: miter; stroke-linecap: square"/>
   </g>
   <g id="patch_10">
    <path d="M 46.6 529.445464 
L 853.2 529.445464 
" style="fill: none; stroke: #000000; stroke-width: 0.8; stroke-linejoin: miter; stroke-linecap: square"/>
   </g>
   <g id="patch_11">
    <path d="M 46.6 293.352732 
L 853.2 293.352732 
" style="fill: none; stroke: #000000; stroke-width: 0.8; stroke-linejoin: miter; stroke-linecap: square"/>
   </g>
   <g id="text_26">
    <text style="font-size: 12px; font-family: 'Noto Sans JP'; text-anchor: middle" x="449.9" y="287.352732" transform="rotate(-0 449.9 287.352732)">サーバー数の推移</text>
   </g>
  </g>
 </g>
 <defs>
  <clipPath id="pd41ef3e1b8">
   <rect x="46.6" y="26.88" width="806.6" height="236.092732"/>
  </clipPath>
  <clipPath id="p0283dbcf8e">
   <rect x="46.6" y="293.352732" width="806.6" height="236.092732"/>
  </clipPath>
 </defs>
</svg>
