<?xml version="1.0" encoding="utf-8" standalone="no"?>
<!DOCTYPE svg PUBLIC "-//W3C//DTD SVG 1.1//EN"
  "http://www.w3.org/Graphics/SVG/1.1/DTD/svg11.dtd">
<svg xmlns:xlink="http://www.w3.org/1999/xlink" width="864pt" height="576pt" viewBox="0 0 864 576" xmlns="http://www.w3.org/2000/svg" version="1.1">
 <metadata>
  <rdf:RDF xmlns:dc="http://purl.org/dc/elements/1.1/" xmlns:cc="http://creativecommons.org/ns#" xmlns:rdf="http://www.w3.org/1999/02/22-rdf-syntax-ns#">
   <cc:Work>
    <dc:type rdf:resource="http://purl.org/dc/dcmitype/StillImage"/>
    <dc:date>2025-07-04T01:30:16.628837</dc:date>
    <dc:format>image/svg+xml</dc:format>
    <dc:creator>
     <cc:Agent>
      <dc:title>Matplotlib v3.10.3, https://matplotlib.org/</dc:title>
     </cc:Agent>
    </dc:creator>
   </cc:Work>
  </rdf:RDF>
 </metadata>
 <defs>
  <style type="text/css">*{stroke-linejoin: round; stroke-linecap: butt}</style>
 </defs>
 <g id="figure_1">
  <g id="patch_1">
   <path d="M 0 576 
L 864 576 
L 864 0 
L 0 0 
z
" style="fill: #ffffff"/>
  </g>
  <g id="axes_1">
   <g id="patch_2">
    <path d="M 46.6 262.972732 
L 853.2 262.972732 
L 853.2 26.88 
L 46.6 26.88 
z
" style="fill: #ffffff"/>
   </g>
   <g id="matplotlib.axis_1">
    <g id="xtick_1">
     <g id="line2d_1">
      <path d="M 68.063162 262.972732 
L 68.063162 26.88 
" clip-path="url(#pb04bdb563b)" style="fill: none; stroke: #b0b0b0; stroke-opacity: 0.3; stroke-width: 0.8; stroke-linecap: square"/>
     </g>
     <g id="line2d_2">
      <defs>
       <path id="mff2877b5e5" d="M 0 0 
L 0 3.5 
" style="stroke: #000000; stroke-width: 0.8"/>
      </defs>
      <g>
       <use xlink:href="#mff2877b5e5" x="68.063162" y="262.972732" style="stroke: #000000; stroke-width: 0.8"/>
      </g>
     </g>
    </g>
    <g id="xtick_2">
     <g id="line2d_3">
      <path d="M 163.107378 262.972732 
L 163.107378 26.88 
" clip-path="url(#pb04bdb563b)" style="fill: none; stroke: #b0b0b0; stroke-opacity: 0.3; stroke-width: 0.8; stroke-linecap: square"/>
     </g>
     <g id="line2d_4">
      <g>
       <use xlink:href="#mff2877b5e5" x="163.107378" y="262.972732" style="stroke: #000000; stroke-width: 0.8"/>
      </g>
     </g>
    </g>
    <g id="xtick_3">
     <g id="line2d_5">
      <path d="M 258.151594 262.972732 
L 258.151594 26.88 
" clip-path="url(#pb04bdb563b)" style="fill: none; stroke: #b0b0b0; stroke-opacity: 0.3; stroke-width: 0.8; stroke-linecap: square"/>
     </g>
     <g id="line2d_6">
      <g>
       <use xlink:href="#mff2877b5e5" x="258.151594" y="262.972732" style="stroke: #000000; stroke-width: 0.8"/>
      </g>
     </g>
    </g>
    <g id="xtick_4">
     <g id="line2d_7">
      <path d="M 353.19581 262.972732 
L 353.19581 26.88 
" clip-path="url(#pb04bdb563b)" style="fill: none; stroke: #b0b0b0; stroke-opacity: 0.3; stroke-width: 0.8; stroke-linecap: square"/>
     </g>
     <g id="line2d_8">
      <g>
       <use xlink:href="#mff2877b5e5" x="353.19581" y="262.972732" style="stroke: #000000; stroke-width: 0.8"/>
      </g>
     </g>
    </g>
    <g id="xtick_5">
     <g id="line2d_9">
      <path d="M 448.240026 262.972732 
L 448.240026 26.88 
" clip-path="url(#pb04bdb563b)" style="fill: none; stroke: #b0b0b0; stroke-opacity: 0.3; stroke-width: 0.8; stroke-linecap: square"/>
     </g>
     <g id="line2d_10">
      <g>
       <use xlink:href="#mff2877b5e5" x="448.240026" y="262.972732" style="stroke: #000000; stroke-width: 0.8"/>
      </g>
     </g>
    </g>
    <g id="xtick_6">
     <g id="line2d_11">
      <path d="M 543.284242 262.972732 
L 543.284242 26.88 
" clip-path="url(#pb04bdb563b)" style="fill: none; stroke: #b0b0b0; stroke-opacity: 0.3; stroke-width: 0.8; stroke-linecap: square"/>
     </g>
     <g id="line2d_12">
      <g>
       <use xlink:href="#mff2877b5e5" x="543.284242" y="262.972732" style="stroke: #000000; stroke-width: 0.8"/>
      </g>
     </g>
    </g>
    <g id="xtick_7">
     <g id="line2d_13">
      <path d="M 638.328459 262.972732 
L 638.328459 26.88 
" clip-path="url(#pb04bdb563b)" style="fill: none; stroke: #b0b0b0; stroke-opacity: 0.3; stroke-width: 0.8; stroke-linecap: square"/>
     </g>
     <g id="line2d_14">
      <g>
       <use xlink:href="#mff2877b5e5" x="638.328459" y="262.972732" style="stroke: #000000; stroke-width: 0.8"/>
      </g>
     </g>
    </g>
    <g id="xtick_8">
     <g id="line2d_15">
      <path d="M 733.372675 262.972732 
L 733.372675 26.88 
" clip-path="url(#pb04bdb563b)" style="fill: none; stroke: #b0b0b0; stroke-opacity: 0.3; stroke-width: 0.8; stroke-linecap: square"/>
     </g>
     <g id="line2d_16">
      <g>
       <use xlink:href="#mff2877b5e5" x="733.372675" y="262.972732" style="stroke: #000000; stroke-width: 0.8"/>
      </g>
     </g>
    </g>
    <g id="xtick_9">
     <g id="line2d_17">
      <path d="M 828.416891 262.972732 
L 828.416891 26.88 
" clip-path="url(#pb04bdb563b)" style="fill: none; stroke: #b0b0b0; stroke-opacity: 0.3; stroke-width: 0.8; stroke-linecap: square"/>
     </g>
     <g id="line2d_18">
      <g>
       <use xlink:href="#mff2877b5e5" x="828.416891" y="262.972732" style="stroke: #000000; stroke-width: 0.8"/>
      </g>
     </g>
    </g>
   </g>
   <g id="matplotlib.axis_2">
    <g id="ytick_1">
     <g id="line2d_19">
      <path d="M 46.6 248.852353 
L 853.2 248.852353 
" clip-path="url(#pb04bdb563b)" style="fill: none; stroke: #b0b0b0; stroke-opacity: 0.3; stroke-width: 0.8; stroke-linecap: square"/>
     </g>
     <g id="line2d_20">
      <defs>
       <path id="m7909912a86" d="M 0 0 
L -3.5 0 
" style="stroke: #000000; stroke-width: 0.8"/>
      </defs>
      <g>
       <use xlink:href="#m7909912a86" x="46.6" y="248.852353" style="stroke: #000000; stroke-width: 0.8"/>
      </g>
     </g>
     <g id="text_1">
      <text style="font-size: 10px; font-family: 'Noto Sans JP'; text-anchor: end" x="39.6" y="252.83751" transform="rotate(-0 39.6 252.83751)">25</text>
     </g>
    </g>
    <g id="ytick_2">
     <g id="line2d_21">
      <path d="M 46.6 220.611596 
L 853.2 220.611596 
" clip-path="url(#pb04bdb563b)" style="fill: none; stroke: #b0b0b0; stroke-opacity: 0.3; stroke-width: 0.8; stroke-linecap: square"/>
     </g>
     <g id="line2d_22">
      <g>
       <use xlink:href="#m7909912a86" x="46.6" y="220.611596" style="stroke: #000000; stroke-width: 0.8"/>
      </g>
     </g>
     <g id="text_2">
      <text style="font-size: 10px; font-family: 'Noto Sans JP'; text-anchor: end" x="39.6" y="224.596752" transform="rotate(-0 39.6 224.596752)">50</text>
     </g>
    </g>
    <g id="ytick_3">
     <g id="line2d_23">
      <path d="M 46.6 192.370838 
L 853.2 192.370838 
" clip-path="url(#pb04bdb563b)" style="fill: none; stroke: #b0b0b0; stroke-opacity: 0.3; stroke-width: 0.8; stroke-linecap: square"/>
     </g>
     <g id="line2d_24">
      <g>
       <use xlink:href="#m7909912a86" x="46.6" y="192.370838" style="stroke: #000000; stroke-width: 0.8"/>
      </g>
     </g>
     <g id="text_3">
      <text style="font-size: 10px; font-family: 'Noto Sans JP'; text-anchor: end" x="39.6" y="196.355995" transform="rotate(-0 39.6 196.355995)">75</text>
     </g>
    </g>
    <g id="ytick_4">
     <g id="line2d_25">
      <path d="M 46.6 164.130081 
L 853.2 164.130081 
" clip-path="url(#pb04bdb563b)" style="fill: none; stroke: #b0b0b0; stroke-opacity: 0.3; stroke-width: 0.8; stroke-linecap: square"/>
     </g>
     <g id="line2d_26">
      <g>
       <use xlink:href="#m7909912a86" x="46.6" y="164.130081" style="stroke: #000000; stroke-width: 0.8"/>
      </g>
     </g>
     <g id="text_4">
      <text style="font-size: 10px; font-family: 'Noto Sans JP'; text-anchor: end" x="39.6" y="168.115237" transform="rotate(-0 39.6 168.115237)">100</text>
     </g>
    </g>
    <g id="ytick_5">
     <g id="line2d_27">
      <path d="M 46.6 135.889324 
L 853.2 135.889324 
" clip-path="url(#pb04bdb563b)" style="fill: none; stroke: #b0b0b0; stroke-opacity: 0.3; stroke-width: 0.8; stroke-linecap: square"/>
     </g>
     <g id="line2d_28">
      <g>
       <use xlink:href="#m7909912a86" x="46.6" y="135.889324" style="stroke: #000000; stroke-width: 0.8"/>
      </g>
     </g>
     <g id="text_5">
      <text style="font-size: 10px; font-family: 'Noto Sans JP'; text-anchor: end" x="39.6" y="139.87448" transform="rotate(-0 39.6 139.87448)">125</text>
     </g>
    </g>
    <g id="ytick_6">
     <g id="line2d_29">
      <path d="M 46.6 107.648566 
L 853.2 107.648566 
" clip-path="url(#pb04bdb563b)" style="fill: none; stroke: #b0b0b0; stroke-opacity: 0.3; stroke-width: 0.8; stroke-linecap: square"/>
     </g>
     <g id="line2d_30">
      <g>
       <use xlink:href="#m7909912a86" x="46.6" y="107.648566" style="stroke: #000000; stroke-width: 0.8"/>
      </g>
     </g>
     <g id="text_6">
      <text style="font-size: 10px; font-family: 'Noto Sans JP'; text-anchor: end" x="39.6" y="111.633722" transform="rotate(-0 39.6 111.633722)">150</text>
     </g>
    </g>
    <g id="ytick_7">
     <g id="line2d_31">
      <path d="M 46.6 79.407809 
L 853.2 79.407809 
" clip-path="url(#pb04bdb563b)" style="fill: none; stroke: #b0b0b0; stroke-opacity: 0.3; stroke-width: 0.8; stroke-linecap: square"/>
     </g>
     <g id="line2d_32">
      <g>
       <use xlink:href="#m7909912a86" x="46.6" y="79.407809" style="stroke: #000000; stroke-width: 0.8"/>
      </g>
     </g>
     <g id="text_7">
      <text style="font-size: 10px; font-family: 'Noto Sans JP'; text-anchor: end" x="39.6" y="83.392965" transform="rotate(-0 39.6 83.392965)">175</text>
     </g>
    </g>
    <g id="ytick_8">
     <g id="line2d_33">
      <path d="M 46.6 51.167051 
L 853.2 51.167051 
" clip-path="url(#pb04bdb563b)" style="fill: none; stroke: #b0b0b0; stroke-opacity: 0.3; stroke-width: 0.8; stroke-linecap: square"/>
     </g>
     <g id="line2d_34">
      <g>
       <use xlink:href="#m7909912a86" x="46.6" y="51.167051" style="stroke: #000000; stroke-width: 0.8"/>
      </g>
     </g>
     <g id="text_8">
      <text style="font-size: 10px; font-family: 'Noto Sans JP'; text-anchor: end" x="39.6" y="55.152208" transform="rotate(-0 39.6 55.152208)">200</text>
     </g>
    </g>
   </g>
   <g id="line2d_35">
    <path d="M 83.263636 224.000487 
L 87.912443 224.000487 
L 89.88813 235.29679 
L 115.58527 235.29679 
L 117.565358 220.611596 
L 127.465797 220.611596 
L 129.445885 219.481966 
L 131.425973 214.963444 
L 135.386148 214.963444 
L 137.366236 187.852317 
L 141.326412 183.333796 
L 143.3065 183.333796 
L 145.286588 151.704148 
L 147.266675 135.889324 
L 149.246763 106.518936 
L 151.226851 90.704112 
L 153.206939 90.704112 
L 155.187027 68.111506 
L 157.167115 68.111506 
L 159.147202 71.500397 
L 163.107378 71.500397 
L 165.087466 98.611524 
L 167.067554 112.167087 
L 169.047642 112.167087 
L 171.027729 135.889324 
L 173.007817 135.889324 
L 174.987905 166.389342 
L 186.868432 166.389342 
L 188.84852 199.14862 
L 212.609574 199.14862 
L 214.589662 233.037529 
L 216.56975 233.037529 
L 218.549838 240.944941 
L 226.470189 240.944941 
L 228.450277 243.204202 
L 246.271067 243.204202 
L 248.251155 249.981984 
L 254.191419 249.981984 
L 256.171506 244.333832 
L 262.11177 244.333832 
L 264.091858 243.204202 
L 275.972385 243.204202 
L 277.952473 242.074571 
L 287.852912 242.074571 
L 289.833 239.815311 
L 303.693614 239.815311 
L 305.673702 235.29679 
L 307.65379 233.037529 
L 309.633878 233.037529 
L 311.613966 227.389378 
L 315.574141 227.389378 
L 317.554229 216.093075 
L 321.514405 216.093075 
L 323.494493 202.537511 
L 325.474581 193.500469 
L 329.434756 193.500469 
L 331.414844 170.907863 
L 333.394932 170.907863 
L 335.37502 139.278215 
L 337.355108 131.370802 
L 339.335195 107.648566 
L 341.315283 102.000415 
L 343.295371 94.093003 
L 345.275459 94.093003 
L 347.255547 89.574481 
L 349.235635 83.92633 
L 351.215722 83.92633 
L 353.19581 80.537439 
L 355.175898 104.259675 
L 357.155986 112.167087 
L 361.116162 112.167087 
L 363.096249 149.444887 
L 365.076337 149.444887 
L 367.056425 164.130081 
L 369.036513 172.037493 
L 371.016601 172.037493 
L 372.996689 186.722687 
L 374.976776 186.722687 
L 376.956864 195.759729 
L 378.936952 205.926402 
L 382.897128 205.926402 
L 384.877216 218.352335 
L 386.857303 218.352335 
L 388.837391 228.519008 
L 390.817479 228.519008 
L 392.797567 231.907899 
L 442.299763 231.907899 
L 444.279851 248.852353 
L 454.18029 248.852353 
L 456.160378 246.593093 
L 470.020993 246.593093 
L 472.00108 240.944941 
L 479.921432 240.944941 
L 481.90152 236.42642 
L 505.662574 236.42642 
L 507.642661 218.352335 
L 509.622749 218.352335 
L 511.602837 209.315293 
L 513.582925 209.315293 
L 515.563013 194.630099 
L 517.543101 194.630099 
L 519.523188 168.648602 
L 521.503276 166.389342 
L 523.483364 148.315257 
L 525.463452 138.148584 
L 527.44354 120.074499 
L 529.423628 94.093003 
L 531.403715 74.889288 
L 533.383803 56.815203 
L 535.363891 53.426312 
L 537.343979 53.426312 
L 539.324067 37.611488 
L 541.304155 42.130009 
L 543.284242 48.907791 
L 545.26433 60.204094 
L 547.244418 60.204094 
L 549.224506 95.222633 
L 553.184682 129.111542 
L 559.124945 129.111542 
L 561.105033 175.426384 
L 567.045296 175.426384 
L 569.025384 200.278251 
L 571.005472 207.056032 
L 572.98556 218.352335 
L 576.945736 218.352335 
L 578.925823 227.389378 
L 582.885999 227.389378 
L 586.846175 231.907899 
L 629.748078 231.907899 
L 630.408107 247.722723 
L 632.388195 247.722723 
L 633.048224 245.463462 
L 639.648517 245.463462 
L 640.308546 243.204202 
L 640.968576 243.204202 
L 641.628605 244.333832 
L 666.709717 244.333832 
L 667.369747 237.55605 
L 670.009864 237.55605 
L 670.669893 233.037529 
L 684.530508 233.037529 
L 685.190537 222.870856 
L 697.731094 222.870856 
L 698.391123 213.833814 
L 699.051152 213.833814 
L 699.711181 212.704184 
L 701.691269 212.704184 
L 702.351298 211.574553 
L 705.651445 211.574553 
L 706.311474 196.88936 
L 709.611621 196.88936 
L 710.27165 175.426384 
L 710.931679 170.907863 
L 715.551884 170.907863 
L 716.211913 146.055996 
L 716.871943 140.407845 
L 717.531972 132.500433 
L 718.192001 132.500433 
L 718.85203 114.426348 
L 720.172089 114.426348 
L 720.832118 94.093003 
L 725.452323 94.093003 
L 726.112353 80.537439 
L 726.772382 82.7967 
L 730.072528 82.7967 
L 730.732557 87.315221 
L 731.392587 83.92633 
L 732.052616 83.92633 
L 732.712645 87.315221 
L 734.032704 87.315221 
L 734.692733 103.130045 
L 736.012792 103.130045 
L 736.672821 111.037457 
L 737.33285 111.037457 
L 737.99288 118.944869 
L 739.312938 118.944869 
L 739.972967 131.370802 
L 740.632997 140.407845 
L 742.613084 140.407845 
L 743.273114 159.61156 
L 747.893319 159.61156 
L 748.553348 177.685645 
L 763.073992 177.685645 
L 763.734021 220.611596 
L 767.034168 220.611596 
L 767.694197 226.259747 
L 780.234753 226.259747 
L 780.894783 239.815311 
L 804.655837 239.815311 
L 805.315866 252.241244 
L 816.536364 252.241244 
L 816.536364 252.241244 
" clip-path="url(#pb04bdb563b)" style="fill: none; stroke: #2288ff; stroke-width: 1.5; stroke-linecap: square"/>
   </g>
   <g id="patch_3">
    <path d="M 46.6 262.972732 
L 46.6 26.88 
" style="fill: none; stroke: #000000; stroke-width: 0.8; stroke-linejoin: miter; stroke-linecap: square"/>
   </g>
   <g id="patch_4">
    <path d="M 853.2 262.972732 
L 853.2 26.88 
" style="fill: none; stroke: #000000; stroke-width: 0.8; stroke-linejoin: miter; stroke-linecap: square"/>
   </g>
   <g id="patch_5">
    <path d="M 46.6 262.972732 
L 853.2 262.972732 
" style="fill: none; stroke: #000000; stroke-width: 0.8; stroke-linejoin: miter; stroke-linecap: square"/>
   </g>
   <g id="patch_6">
    <path d="M 46.6 26.88 
L 853.2 26.88 
" style="fill: none; stroke: #000000; stroke-width: 0.8; stroke-linejoin: miter; stroke-linecap: square"/>
   </g>
   <g id="text_9">
    <text style="font-size: 12px; font-family: 'Noto Sans JP'; text-anchor: middle" x="449.9" y="20.88" transform="rotate(-0 449.9 20.88)">同時接続数の推移</text>
   </g>
  </g>
  <g id="axes_2">
   <g id="patch_7">
    <path d="M 46.6 529.445464 
L 853.2 529.445464 
L 853.2 293.352732 
L 46.6 293.352732 
z
" style="fill: #ffffff"/>
   </g>
   <g id="matplotlib.axis_3">
    <g id="xtick_10">
     <g id="line2d_36">
      <path d="M 68.063162 529.445464 
L 68.063162 293.352732 
" clip-path="url(#pa60f9110d9)" style="fill: none; stroke: #b0b0b0; stroke-opacity: 0.3; stroke-width: 0.8; stroke-linecap: square"/>
     </g>
     <g id="line2d_37">
      <g>
       <use xlink:href="#mff2877b5e5" x="68.063162" y="529.445464" style="stroke: #000000; stroke-width: 0.8"/>
      </g>
     </g>
     <g id="text_10">
      <text style="font-size: 10px; font-family: 'Noto Sans JP'" transform="translate(32.289711 563.358113) rotate(-30)">06-30 12</text>
     </g>
    </g>
    <g id="xtick_11">
     <g id="line2d_38">
      <path d="M 163.107378 529.445464 
L 163.107378 293.352732 
" clip-path="url(#pa60f9110d9)" style="fill: none; stroke: #b0b0b0; stroke-opacity: 0.3; stroke-width: 0.8; stroke-linecap: square"/>
     </g>
     <g id="line2d_39">
      <g>
       <use xlink:href="#mff2877b5e5" x="163.107378" y="529.445464" style="stroke: #000000; stroke-width: 0.8"/>
      </g>
     </g>
     <g id="text_11">
      <text style="font-size: 10px; font-family: 'Noto Sans JP'" transform="translate(127.333927 563.358113) rotate(-30)">07-01 00</text>
     </g>
    </g>
    <g id="xtick_12">
     <g id="line2d_40">
      <path d="M 258.151594 529.445464 
L 258.151594 293.352732 
" clip-path="url(#pa60f9110d9)" style="fill: none; stroke: #b0b0b0; stroke-opacity: 0.3; stroke-width: 0.8; stroke-linecap: square"/>
     </g>
     <g id="line2d_41">
      <g>
       <use xlink:href="#mff2877b5e5" x="258.151594" y="529.445464" style="stroke: #000000; stroke-width: 0.8"/>
      </g>
     </g>
     <g id="text_12">
      <text style="font-size: 10px; font-family: 'Noto Sans JP'" transform="translate(222.378143 563.358113) rotate(-30)">07-01 12</text>
     </g>
    </g>
    <g id="xtick_13">
     <g id="line2d_42">
      <path d="M 353.19581 529.445464 
L 353.19581 293.352732 
" clip-path="url(#pa60f9110d9)" style="fill: none; stroke: #b0b0b0; stroke-opacity: 0.3; stroke-width: 0.8; stroke-linecap: square"/>
     </g>
     <g id="line2d_43">
      <g>
       <use xlink:href="#mff2877b5e5" x="353.19581" y="529.445464" style="stroke: #000000; stroke-width: 0.8"/>
      </g>
     </g>
     <g id="text_13">
      <text style="font-size: 10px; font-family: 'Noto Sans JP'" transform="translate(317.422359 563.358113) rotate(-30)">07-02 00</text>
     </g>
    </g>
    <g id="xtick_14">
     <g id="line2d_44">
      <path d="M 448.240026 529.445464 
L 448.240026 293.352732 
" clip-path="url(#pa60f9110d9)" style="fill: none; stroke: #b0b0b0; stroke-opacity: 0.3; stroke-width: 0.8; stroke-linecap: square"/>
     </g>
     <g id="line2d_45">
      <g>
       <use xlink:href="#mff2877b5e5" x="448.240026" y="529.445464" style="stroke: #000000; stroke-width: 0.8"/>
      </g>
     </g>
     <g id="text_14">
      <text style="font-size: 10px; font-family: 'Noto Sans JP'" transform="translate(412.466575 563.358113) rotate(-30)">07-02 12</text>
     </g>
    </g>
    <g id="xtick_15">
     <g id="line2d_46">
      <path d="M 543.284242 529.445464 
L 543.284242 293.352732 
" clip-path="url(#pa60f9110d9)" style="fill: none; stroke: #b0b0b0; stroke-opacity: 0.3; stroke-width: 0.8; stroke-linecap: square"/>
     </g>
     <g id="line2d_47">
      <g>
       <use xlink:href="#mff2877b5e5" x="543.284242" y="529.445464" style="stroke: #000000; stroke-width: 0.8"/>
      </g>
     </g>
     <g id="text_15">
      <text style="font-size: 10px; font-family: 'Noto Sans JP'" transform="translate(507.510791 563.358113) rotate(-30)">07-03 00</text>
     </g>
    </g>
    <g id="xtick_16">
     <g id="line2d_48">
      <path d="M 638.328459 529.445464 
L 638.328459 293.352732 
" clip-path="url(#pa60f9110d9)" style="fill: none; stroke: #b0b0b0; stroke-opacity: 0.3; stroke-width: 0.8; stroke-linecap: square"/>
     </g>
     <g id="line2d_49">
      <g>
       <use xlink:href="#mff2877b5e5" x="638.328459" y="529.445464" style="stroke: #000000; stroke-width: 0.8"/>
      </g>
     </g>
     <g id="text_16">
      <text style="font-size: 10px; font-family: 'Noto Sans JP'" transform="translate(602.555007 563.358113) rotate(-30)">07-03 12</text>
     </g>
    </g>
    <g id="xtick_17">
     <g id="line2d_50">
      <path d="M 733.372675 529.445464 
L 733.372675 293.352732 
" clip-path="url(#pa60f9110d9)" style="fill: none; stroke: #b0b0b0; stroke-opacity: 0.3; stroke-width: 0.8; stroke-linecap: square"/>
     </g>
     <g id="line2d_51">
      <g>
       <use xlink:href="#mff2877b5e5" x="733.372675" y="529.445464" style="stroke: #000000; stroke-width: 0.8"/>
      </g>
     </g>
     <g id="text_17">
      <text style="font-size: 10px; font-family: 'Noto Sans JP'" transform="translate(697.599224 563.358113) rotate(-30)">07-04 00</text>
     </g>
    </g>
    <g id="xtick_18">
     <g id="line2d_52">
      <path d="M 828.416891 529.445464 
L 828.416891 293.352732 
" clip-path="url(#pa60f9110d9)" style="fill: none; stroke: #b0b0b0; stroke-opacity: 0.3; stroke-width: 0.8; stroke-linecap: square"/>
     </g>
     <g id="line2d_53">
      <g>
       <use xlink:href="#mff2877b5e5" x="828.416891" y="529.445464" style="stroke: #000000; stroke-width: 0.8"/>
      </g>
     </g>
     <g id="text_18">
      <text style="font-size: 10px; font-family: 'Noto Sans JP'" transform="translate(792.64344 563.358113) rotate(-30)">07-04 12</text>
     </g>
    </g>
   </g>
   <g id="matplotlib.axis_4">
    <g id="ytick_9">
     <g id="line2d_54">
      <path d="M 46.6 518.713976 
L 853.2 518.713976 
" clip-path="url(#pa60f9110d9)" style="fill: none; stroke: #b0b0b0; stroke-opacity: 0.3; stroke-width: 0.8; stroke-linecap: square"/>
     </g>
     <g id="line2d_55">
      <g>
       <use xlink:href="#m7909912a86" x="46.6" y="518.713976" style="stroke: #000000; stroke-width: 0.8"/>
      </g>
     </g>
     <g id="text_19">
      <text style="font-size: 10px; font-family: 'Noto Sans JP'; text-anchor: end" x="39.6" y="522.699132" transform="rotate(-0 39.6 522.699132)">47782</text>
     </g>
    </g>
    <g id="ytick_10">
     <g id="line2d_56">
      <path d="M 46.6 482.94235 
L 853.2 482.94235 
" clip-path="url(#pa60f9110d9)" style="fill: none; stroke: #b0b0b0; stroke-opacity: 0.3; stroke-width: 0.8; stroke-linecap: square"/>
     </g>
     <g id="line2d_57">
      <g>
       <use xlink:href="#m7909912a86" x="46.6" y="482.94235" style="stroke: #000000; stroke-width: 0.8"/>
      </g>
     </g>
     <g id="text_20">
      <text style="font-size: 10px; font-family: 'Noto Sans JP'; text-anchor: end" x="39.6" y="486.927506" transform="rotate(-0 39.6 486.927506)">47784</text>
     </g>
    </g>
    <g id="ytick_11">
     <g id="line2d_58">
      <path d="M 46.6 447.170724 
L 853.2 447.170724 
" clip-path="url(#pa60f9110d9)" style="fill: none; stroke: #b0b0b0; stroke-opacity: 0.3; stroke-width: 0.8; stroke-linecap: square"/>
     </g>
     <g id="line2d_59">
      <g>
       <use xlink:href="#m7909912a86" x="46.6" y="447.170724" style="stroke: #000000; stroke-width: 0.8"/>
      </g>
     </g>
     <g id="text_21">
      <text style="font-size: 10px; font-family: 'Noto Sans JP'; text-anchor: end" x="39.6" y="451.15588" transform="rotate(-0 39.6 451.15588)">47786</text>
     </g>
    </g>
    <g id="ytick_12">
     <g id="line2d_60">
      <path d="M 46.6 411.399098 
L 853.2 411.399098 
" clip-path="url(#pa60f9110d9)" style="fill: none; stroke: #b0b0b0; stroke-opacity: 0.3; stroke-width: 0.8; stroke-linecap: square"/>
     </g>
     <g id="line2d_61">
      <g>
       <use xlink:href="#m7909912a86" x="46.6" y="411.399098" style="stroke: #000000; stroke-width: 0.8"/>
      </g>
     </g>
     <g id="text_22">
      <text style="font-size: 10px; font-family: 'Noto Sans JP'; text-anchor: end" x="39.6" y="415.384254" transform="rotate(-0 39.6 415.384254)">47788</text>
     </g>
    </g>
    <g id="ytick_13">
     <g id="line2d_62">
      <path d="M 46.6 375.627472 
L 853.2 375.627472 
" clip-path="url(#pa60f9110d9)" style="fill: none; stroke: #b0b0b0; stroke-opacity: 0.3; stroke-width: 0.8; stroke-linecap: square"/>
     </g>
     <g id="line2d_63">
      <g>
       <use xlink:href="#m7909912a86" x="46.6" y="375.627472" style="stroke: #000000; stroke-width: 0.8"/>
      </g>
     </g>
     <g id="text_23">
      <text style="font-size: 10px; font-family: 'Noto Sans JP'; text-anchor: end" x="39.6" y="379.612628" transform="rotate(-0 39.6 379.612628)">47790</text>
     </g>
    </g>
    <g id="ytick_14">
     <g id="line2d_64">
      <path d="M 46.6 339.855846 
L 853.2 339.855846 
" clip-path="url(#pa60f9110d9)" style="fill: none; stroke: #b0b0b0; stroke-opacity: 0.3; stroke-width: 0.8; stroke-linecap: square"/>
     </g>
     <g id="line2d_65">
      <g>
       <use xlink:href="#m7909912a86" x="46.6" y="339.855846" style="stroke: #000000; stroke-width: 0.8"/>
      </g>
     </g>
     <g id="text_24">
      <text style="font-size: 10px; font-family: 'Noto Sans JP'; text-anchor: end" x="39.6" y="343.841002" transform="rotate(-0 39.6 343.841002)">47792</text>
     </g>
    </g>
    <g id="ytick_15">
     <g id="line2d_66">
      <path d="M 46.6 304.08422 
L 853.2 304.08422 
" clip-path="url(#pa60f9110d9)" style="fill: none; stroke: #b0b0b0; stroke-opacity: 0.3; stroke-width: 0.8; stroke-linecap: square"/>
     </g>
     <g id="line2d_67">
      <g>
       <use xlink:href="#m7909912a86" x="46.6" y="304.08422" style="stroke: #000000; stroke-width: 0.8"/>
      </g>
     </g>
     <g id="text_25">
      <text style="font-size: 10px; font-family: 'Noto Sans JP'; text-anchor: end" x="39.6" y="308.069376" transform="rotate(-0 39.6 308.069376)">47794</text>
     </g>
    </g>
   </g>
   <g id="line2d_68">
    <path d="M 83.263636 518.713976 
L 87.912443 518.713976 
L 89.88813 500.828163 
L 115.58527 500.828163 
L 117.565358 465.056537 
L 127.465797 465.056537 
L 131.425973 429.284911 
L 135.386148 429.284911 
L 137.366236 411.399098 
L 139.346324 411.399098 
L 141.326412 393.513285 
L 143.3065 393.513285 
L 145.286588 411.399098 
L 147.266675 411.399098 
L 151.226851 375.627472 
L 153.206939 375.627472 
L 155.187027 321.970033 
L 157.167115 321.970033 
L 159.147202 357.741659 
L 163.107378 357.741659 
L 165.087466 411.399098 
L 167.067554 429.284911 
L 186.868432 429.284911 
L 188.84852 447.170724 
L 212.609574 447.170724 
L 214.589662 429.284911 
L 246.271067 429.284911 
L 248.251155 465.056537 
L 262.11177 465.056537 
L 264.091858 447.170724 
L 275.972385 447.170724 
L 277.952473 429.284911 
L 287.852912 429.284911 
L 289.833 411.399098 
L 329.434756 411.399098 
L 331.414844 393.513285 
L 333.394932 393.513285 
L 335.37502 357.741659 
L 337.355108 357.741659 
L 343.295371 304.08422 
L 345.275459 321.970033 
L 347.255547 304.08422 
L 355.175898 304.08422 
L 357.155986 321.970033 
L 361.116162 321.970033 
L 363.096249 339.855846 
L 365.076337 339.855846 
L 367.056425 375.627472 
L 369.036513 393.513285 
L 371.016601 393.513285 
L 372.996689 411.399098 
L 374.976776 411.399098 
L 376.956864 393.513285 
L 382.897128 393.513285 
L 384.877216 375.627472 
L 386.857303 375.627472 
L 388.837391 393.513285 
L 390.817479 393.513285 
L 392.797567 411.399098 
L 442.299763 411.399098 
L 444.279851 447.170724 
L 446.259939 465.056537 
L 470.020993 465.056537 
L 472.00108 447.170724 
L 479.921432 447.170724 
L 481.90152 465.056537 
L 505.662574 465.056537 
L 507.642661 482.94235 
L 509.622749 482.94235 
L 511.602837 465.056537 
L 513.582925 465.056537 
L 515.563013 447.170724 
L 517.543101 447.170724 
L 519.523188 429.284911 
L 523.483364 429.284911 
L 525.463452 411.399098 
L 527.44354 429.284911 
L 529.423628 393.513285 
L 531.403715 375.627472 
L 533.383803 339.855846 
L 535.363891 375.627472 
L 537.343979 375.627472 
L 539.324067 411.399098 
L 541.304155 411.399098 
L 543.284242 393.513285 
L 545.26433 411.399098 
L 567.045296 411.399098 
L 569.025384 429.284911 
L 629.748078 429.284911 
L 630.408107 393.513285 
L 639.648517 393.513285 
L 640.308546 411.399098 
L 684.530508 411.399098 
L 685.190537 393.513285 
L 699.051152 393.513285 
L 699.711181 375.627472 
L 701.691269 375.627472 
L 702.351298 393.513285 
L 705.651445 393.513285 
L 706.311474 411.399098 
L 709.611621 411.399098 
L 710.27165 393.513285 
L 715.551884 393.513285 
L 716.211913 357.741659 
L 716.871943 339.855846 
L 725.452323 339.855846 
L 726.112353 357.741659 
L 742.613084 357.741659 
L 743.273114 339.855846 
L 763.073992 339.855846 
L 763.734021 357.741659 
L 804.655837 357.741659 
L 805.315866 339.855846 
L 816.536364 339.855846 
L 816.536364 339.855846 
" clip-path="url(#pa60f9110d9)" style="fill: none; stroke: #2288ff; stroke-width: 1.5; stroke-linecap: square"/>
   </g>
   <g id="patch_8">
    <path d="M 46.6 529.445464 
L 46.6 293.352732 
" style="fill: none; stroke: #000000; stroke-width: 0.8; stroke-linejoin: miter; stroke-linecap: square"/>
   </g>
   <g id="patch_9">
    <path d="M 853.2 529.445464 
L 853.2 293.352732 
" style="fill: none; stroke: #000000; stroke-width: 0.8; stroke-linejoin: miter; stroke-linecap: square"/>
   </g>
   <g id="patch_10">
    <path d="M 46.6 529.445464 
L 853.2 529.445464 
" style="fill: none; stroke: #000000; stroke-width: 0.8; stroke-linejoin: miter; stroke-linecap: square"/>
   </g>
   <g id="patch_11">
    <path d="M 46.6 293.352732 
L 853.2 293.352732 
" style="fill: none; stroke: #000000; stroke-width: 0.8; stroke-linejoin: miter; stroke-linecap: square"/>
   </g>
   <g id="text_26">
    <text style="font-size: 12px; font-family: 'Noto Sans JP'; text-anchor: middle" x="449.9" y="287.352732" transform="rotate(-0 449.9 287.352732)">サーバー数の推移</text>
   </g>
  </g>
 </g>
 <defs>
  <clipPath id="pb04bdb563b">
   <rect x="46.6" y="26.88" width="806.6" height="236.092732"/>
  </clipPath>
  <clipPath id="pa60f9110d9">
   <rect x="46.6" y="293.352732" width="806.6" height="236.092732"/>
  </clipPath>
 </defs>
</svg>
