<!DOCTYPE svg  PUBLIC '-//W3C//DTD SVG 1.1//EN'  'http://www.w3.org/Graphics/SVG/1.1/DTD/svg11.dtd'>
<svg version="1.1" viewBox="0 0 864 576" xmlns="http://www.w3.org/2000/svg" xmlns:xlink="http://www.w3.org/1999/xlink">
 <defs>
  <style type="text/css">*{stroke-linejoin: round; stroke-linecap: butt}</style>
 </defs>
 <g id="e">
  <g id="f">
   <path d="m0 576h864v-576h-864z" fill="#fff"/>
  </g>
  <g id="g">
   <g id="h">
    <path d="m46.6 262.97h806.6v-236.09h-806.6z" fill="#fff"/>
   </g>
   <g id="i">
    <g id="j">
     <g id="k">
      <path d="m68.437 262.97v-236.09" clip-path="url(#a)" fill="none" stroke="#b0b0b0" stroke-linecap="square" stroke-opacity=".3" stroke-width=".8"/>
     </g>
     <g id="l">
      <defs>
       <path id="b" d="m0 0v3.5" stroke="#000" stroke-width=".8"/>
      </defs>
      <use x="68.436845" y="262.972732" stroke="#000000" stroke-width=".8" xlink:href="#b"/>
     </g>
    </g>
    <g id="m">
     <g id="n">
      <path d="m161.14 262.97v-236.09" clip-path="url(#a)" fill="none" stroke="#b0b0b0" stroke-linecap="square" stroke-opacity=".3" stroke-width=".8"/>
     </g>
     <g id="o">
      <use x="161.14453" y="262.972732" stroke="#000000" stroke-width=".8" xlink:href="#b"/>
     </g>
    </g>
    <g id="p">
     <g id="q">
      <path d="m253.85 262.97v-236.09" clip-path="url(#a)" fill="none" stroke="#b0b0b0" stroke-linecap="square" stroke-opacity=".3" stroke-width=".8"/>
     </g>
     <g id="r">
      <use x="253.852216" y="262.972732" stroke="#000000" stroke-width=".8" xlink:href="#b"/>
     </g>
    </g>
    <g id="s">
     <g id="t">
      <path d="m346.56 262.97v-236.09" clip-path="url(#a)" fill="none" stroke="#b0b0b0" stroke-linecap="square" stroke-opacity=".3" stroke-width=".8"/>
     </g>
     <g id="u">
      <use x="346.559902" y="262.972732" stroke="#000000" stroke-width=".8" xlink:href="#b"/>
     </g>
    </g>
    <g id="v">
     <g id="w">
      <path d="m439.27 262.97v-236.09" clip-path="url(#a)" fill="none" stroke="#b0b0b0" stroke-linecap="square" stroke-opacity=".3" stroke-width=".8"/>
     </g>
     <g id="x">
      <use x="439.267587" y="262.972732" stroke="#000000" stroke-width=".8" xlink:href="#b"/>
     </g>
    </g>
    <g id="y">
     <g id="z">
      <path d="m531.98 262.97v-236.09" clip-path="url(#a)" fill="none" stroke="#b0b0b0" stroke-linecap="square" stroke-opacity=".3" stroke-width=".8"/>
     </g>
     <g id="aa">
      <use x="531.975273" y="262.972732" stroke="#000000" stroke-width=".8" xlink:href="#b"/>
     </g>
    </g>
    <g id="ab">
     <g id="ac">
      <path d="m624.68 262.97v-236.09" clip-path="url(#a)" fill="none" stroke="#b0b0b0" stroke-linecap="square" stroke-opacity=".3" stroke-width=".8"/>
     </g>
     <g id="ad">
      <use x="624.682959" y="262.972732" stroke="#000000" stroke-width=".8" xlink:href="#b"/>
     </g>
    </g>
    <g id="ae">
     <g id="af">
      <path d="m717.39 262.97v-236.09" clip-path="url(#a)" fill="none" stroke="#b0b0b0" stroke-linecap="square" stroke-opacity=".3" stroke-width=".8"/>
     </g>
     <g id="ag">
      <use x="717.390644" y="262.972732" stroke="#000000" stroke-width=".8" xlink:href="#b"/>
     </g>
    </g>
    <g id="ah">
     <g id="ai">
      <path d="m810.1 262.97v-236.09" clip-path="url(#a)" fill="none" stroke="#b0b0b0" stroke-linecap="square" stroke-opacity=".3" stroke-width=".8"/>
     </g>
     <g id="aj">
      <use x="810.09833" y="262.972732" stroke="#000000" stroke-width=".8" xlink:href="#b"/>
     </g>
    </g>
   </g>
   <g id="ak">
    <g id="al">
     <g id="am">
      <path d="m46.6 248.85h806.6" clip-path="url(#a)" fill="none" stroke="#b0b0b0" stroke-linecap="square" stroke-opacity=".3" stroke-width=".8"/>
     </g>
     <g id="an">
      <defs>
       <path id="d" d="m0 0h-3.5" stroke="#000" stroke-width=".8"/>
      </defs>
      <use x="46.6" y="248.852353" stroke="#000000" stroke-width=".8" xlink:href="#d"/>
     </g>
     <g id="ao">
      <text transform="rotate(-0 39.6 252.84)" x="39.6" y="252.83751" font-family="'Noto Sans JP'" font-size="10px" text-anchor="end">25</text>
     </g>
    </g>
    <g id="ap">
     <g id="aq">
      <path d="m46.6 220.61h806.6" clip-path="url(#a)" fill="none" stroke="#b0b0b0" stroke-linecap="square" stroke-opacity=".3" stroke-width=".8"/>
     </g>
     <g id="ar">
      <use x="46.6" y="220.611596" stroke="#000000" stroke-width=".8" xlink:href="#d"/>
     </g>
     <g id="as">
      <text transform="rotate(-0 39.6 224.6)" x="39.6" y="224.596752" font-family="'Noto Sans JP'" font-size="10px" text-anchor="end">50</text>
     </g>
    </g>
    <g id="at">
     <g id="au">
      <path d="m46.6 192.37h806.6" clip-path="url(#a)" fill="none" stroke="#b0b0b0" stroke-linecap="square" stroke-opacity=".3" stroke-width=".8"/>
     </g>
     <g id="av">
      <use x="46.6" y="192.370838" stroke="#000000" stroke-width=".8" xlink:href="#d"/>
     </g>
     <g id="aw">
      <text transform="rotate(-0 39.6 196.36)" x="39.6" y="196.355995" font-family="'Noto Sans JP'" font-size="10px" text-anchor="end">75</text>
     </g>
    </g>
    <g id="ax">
     <g id="ay">
      <path d="m46.6 164.13h806.6" clip-path="url(#a)" fill="none" stroke="#b0b0b0" stroke-linecap="square" stroke-opacity=".3" stroke-width=".8"/>
     </g>
     <g id="az">
      <use x="46.6" y="164.130081" stroke="#000000" stroke-width=".8" xlink:href="#d"/>
     </g>
     <g id="ba">
      <text transform="rotate(-0 39.6 168.12)" x="39.6" y="168.115237" font-family="'Noto Sans JP'" font-size="10px" text-anchor="end">100</text>
     </g>
    </g>
    <g id="bb">
     <g id="bc">
      <path d="m46.6 135.89h806.6" clip-path="url(#a)" fill="none" stroke="#b0b0b0" stroke-linecap="square" stroke-opacity=".3" stroke-width=".8"/>
     </g>
     <g id="bd">
      <use x="46.6" y="135.889324" stroke="#000000" stroke-width=".8" xlink:href="#d"/>
     </g>
     <g id="be">
      <text transform="rotate(-0 39.6 139.87)" x="39.6" y="139.87448" font-family="'Noto Sans JP'" font-size="10px" text-anchor="end">125</text>
     </g>
    </g>
    <g id="bf">
     <g id="bg">
      <path d="m46.6 107.65h806.6" clip-path="url(#a)" fill="none" stroke="#b0b0b0" stroke-linecap="square" stroke-opacity=".3" stroke-width=".8"/>
     </g>
     <g id="bh">
      <use x="46.6" y="107.648566" stroke="#000000" stroke-width=".8" xlink:href="#d"/>
     </g>
     <g id="bi">
      <text transform="rotate(-0 39.6 111.63)" x="39.6" y="111.633722" font-family="'Noto Sans JP'" font-size="10px" text-anchor="end">150</text>
     </g>
    </g>
    <g id="bj">
     <g id="bk">
      <path d="m46.6 79.408h806.6" clip-path="url(#a)" fill="none" stroke="#b0b0b0" stroke-linecap="square" stroke-opacity=".3" stroke-width=".8"/>
     </g>
     <g id="bl">
      <use x="46.6" y="79.407809" stroke="#000000" stroke-width=".8" xlink:href="#d"/>
     </g>
     <g id="bm">
      <text transform="rotate(-0 39.6 83.393)" x="39.6" y="83.392965" font-family="'Noto Sans JP'" font-size="10px" text-anchor="end">175</text>
     </g>
    </g>
    <g id="bn">
     <g id="bo">
      <path d="m46.6 51.167h806.6" clip-path="url(#a)" fill="none" stroke="#b0b0b0" stroke-linecap="square" stroke-opacity=".3" stroke-width=".8"/>
     </g>
     <g id="bp">
      <use x="46.6" y="51.167051" stroke="#000000" stroke-width=".8" xlink:href="#d"/>
     </g>
     <g id="bq">
      <text transform="rotate(-0 39.6 55.152)" x="39.6" y="55.152208" font-family="'Noto Sans JP'" font-size="10px" text-anchor="end">200</text>
     </g>
    </g>
   </g>
   <g id="br">
    <path d="m83.264 224h4.5345l1.9271 11.296h25.065l1.9314-14.685h9.657l1.9314-1.1296 1.9314-4.5185h3.8628l1.9314-27.111 3.8628-4.5185h1.9314l1.9314-31.63 1.9314-15.815 1.9314-29.37 1.9314-15.815h1.9314l1.9314-22.593h1.9314l1.9314 3.3889h3.8628l1.9314 27.111 1.9314 13.556h1.9314l1.9314 23.722h1.9314l1.9314 30.5h11.588l1.9314 32.759h23.177l1.9314 33.889h1.9314l1.9314 7.9074h7.7256l1.9314 2.2593h17.383l1.9314 6.7778h5.7942l1.9314-5.6482h5.7942l1.9314-1.1296h11.588l1.9314-1.1296h9.6571l1.9314-2.2593h13.52l1.9314-4.5185 1.9314-2.2593h1.9314l1.9314-5.6482h3.8628l1.9314-11.296h3.8628l1.9314-13.556 1.9314-9.037h3.8628l1.9314-22.593h1.9314l1.9314-31.63 1.9314-7.9074 1.9314-23.722 1.9314-5.6482 1.9314-7.9074h1.9314l1.9314-4.5185 1.9314-5.6482h1.9314l1.9314-3.3889 1.9314 23.722 1.9314 7.9074h3.8628l1.9314 37.278h1.9314l1.9314 14.685 1.9314 7.9074h1.9314l1.9314 14.685h1.9314l1.9314 9.037 1.9314 10.167h3.8628l1.9314 12.426h1.9314l1.9314 10.167h1.9314l1.9314 3.3889h48.285l1.9314 16.944h9.6571l1.9314-2.2593h13.52l1.9314-5.6482h7.7256l1.9314-4.5185h23.177l1.9314-18.074h1.9314l1.9314-9.037h1.9314l1.9314-14.685h1.9314l1.9314-25.981 1.9314-2.2593 1.9314-18.074 1.9314-10.167 1.9314-18.074 1.9314-25.981 1.9314-19.204 1.9314-18.074 1.9314-3.3889h1.9314l1.9314-15.815 1.9314 4.5185 1.9314 6.7778 1.9314 11.296h1.9314l1.9314 35.019 3.8628 33.889h5.7942l1.9314 46.315h5.7942l1.9314 24.852 1.9314 6.7778 1.9314 11.296h3.8628l1.9314 9.037h3.8628l3.8628 4.5185h41.847l.6438 15.815h1.9314l.6438-2.2593h6.438l.6438-2.2593h.6438l.6438 1.1296h24.465l.6438-6.7778h2.5752l.6438-4.5185h13.52l.6438-10.167h12.232l.6438-9.037h.6438l.6438-1.1296h1.9314l.6438-1.1296h3.219l.6438-14.685h3.219l.6438-21.463.6438-4.5185h4.5066l.6438-24.852.6438-5.6482.6438-7.9074h.6438l.6438-18.074h1.2876l.6438-20.333h4.5066l.6438-13.556.6438 2.2593h3.219l.6438 4.5185.6438-3.3889h.6438l.6438 3.3889h1.2876l.6438 15.815h1.2876l.6438 7.9074h.6438l.6438 7.9074h1.2876l.6438 12.426.6438 9.037h1.9314l.6438 19.204h4.5066l.6438 18.074h14.164l.6438 42.926h3.219l.6438 5.6482h12.232l.6438 13.556h23.177l.6438 12.426h28.971v0" clip-path="url(#a)" fill="none" stroke="#28f" stroke-linecap="square" stroke-width="1.5"/>
   </g>
   <g id="bs">
    <path d="m46.6 262.97v-236.09" fill="none" stroke="#000" stroke-linecap="square" stroke-width=".8"/>
   </g>
   <g id="bt">
    <path d="m853.2 262.97v-236.09" fill="none" stroke="#000" stroke-linecap="square" stroke-width=".8"/>
   </g>
   <g id="bu">
    <path d="m46.6 262.97h806.6" fill="none" stroke="#000" stroke-linecap="square" stroke-width=".8"/>
   </g>
   <g id="bv">
    <path d="m46.6 26.88h806.6" fill="none" stroke="#000" stroke-linecap="square" stroke-width=".8"/>
   </g>
   <g id="bw">
    <text transform="rotate(-0 449.9 20.88)" x="449.9" y="20.88" font-family="'Noto Sans JP'" font-size="12px" text-anchor="middle">同時接続数の推移</text>
   </g>
  </g>
  <g id="bx">
   <g id="by">
    <path d="m46.6 529.45h806.6v-236.09h-806.6z" fill="#fff"/>
   </g>
   <g id="bz">
    <g id="ca">
     <g id="cb">
      <path d="m68.437 529.45v-236.09" clip-path="url(#c)" fill="none" stroke="#b0b0b0" stroke-linecap="square" stroke-opacity=".3" stroke-width=".8"/>
     </g>
     <g id="cc">
      <use x="68.436845" y="529.445464" stroke="#000000" stroke-width=".8" xlink:href="#b"/>
     </g>
     <g id="cd">
      <text transform="translate(32.663 563.36) rotate(-30)" font-family="'Noto Sans JP'" font-size="10px">06-30 12</text>
     </g>
    </g>
    <g id="ce">
     <g id="cf">
      <path d="m161.14 529.45v-236.09" clip-path="url(#c)" fill="none" stroke="#b0b0b0" stroke-linecap="square" stroke-opacity=".3" stroke-width=".8"/>
     </g>
     <g id="cg">
      <use x="161.14453" y="529.445464" stroke="#000000" stroke-width=".8" xlink:href="#b"/>
     </g>
     <g id="ch">
      <text transform="translate(125.37 563.36) rotate(-30)" font-family="'Noto Sans JP'" font-size="10px">07-01 00</text>
     </g>
    </g>
    <g id="ci">
     <g id="cj">
      <path d="m253.85 529.45v-236.09" clip-path="url(#c)" fill="none" stroke="#b0b0b0" stroke-linecap="square" stroke-opacity=".3" stroke-width=".8"/>
     </g>
     <g id="ck">
      <use x="253.852216" y="529.445464" stroke="#000000" stroke-width=".8" xlink:href="#b"/>
     </g>
     <g id="cl">
      <text transform="translate(218.08 563.36) rotate(-30)" font-family="'Noto Sans JP'" font-size="10px">07-01 12</text>
     </g>
    </g>
    <g id="cm">
     <g id="cn">
      <path d="m346.56 529.45v-236.09" clip-path="url(#c)" fill="none" stroke="#b0b0b0" stroke-linecap="square" stroke-opacity=".3" stroke-width=".8"/>
     </g>
     <g id="co">
      <use x="346.559902" y="529.445464" stroke="#000000" stroke-width=".8" xlink:href="#b"/>
     </g>
     <g id="cp">
      <text transform="translate(310.79 563.36) rotate(-30)" font-family="'Noto Sans JP'" font-size="10px">07-02 00</text>
     </g>
    </g>
    <g id="cq">
     <g id="cr">
      <path d="m439.27 529.45v-236.09" clip-path="url(#c)" fill="none" stroke="#b0b0b0" stroke-linecap="square" stroke-opacity=".3" stroke-width=".8"/>
     </g>
     <g id="cs">
      <use x="439.267587" y="529.445464" stroke="#000000" stroke-width=".8" xlink:href="#b"/>
     </g>
     <g id="ct">
      <text transform="translate(403.49 563.36) rotate(-30)" font-family="'Noto Sans JP'" font-size="10px">07-02 12</text>
     </g>
    </g>
    <g id="cu">
     <g id="cv">
      <path d="m531.98 529.45v-236.09" clip-path="url(#c)" fill="none" stroke="#b0b0b0" stroke-linecap="square" stroke-opacity=".3" stroke-width=".8"/>
     </g>
     <g id="cw">
      <use x="531.975273" y="529.445464" stroke="#000000" stroke-width=".8" xlink:href="#b"/>
     </g>
     <g id="cx">
      <text transform="translate(496.2 563.36) rotate(-30)" font-family="'Noto Sans JP'" font-size="10px">07-03 00</text>
     </g>
    </g>
    <g id="cy">
     <g id="cz">
      <path d="m624.68 529.45v-236.09" clip-path="url(#c)" fill="none" stroke="#b0b0b0" stroke-linecap="square" stroke-opacity=".3" stroke-width=".8"/>
     </g>
     <g id="da">
      <use x="624.682959" y="529.445464" stroke="#000000" stroke-width=".8" xlink:href="#b"/>
     </g>
     <g id="db">
      <text transform="translate(588.91 563.36) rotate(-30)" font-family="'Noto Sans JP'" font-size="10px">07-03 12</text>
     </g>
    </g>
    <g id="dc">
     <g id="dd">
      <path d="m717.39 529.45v-236.09" clip-path="url(#c)" fill="none" stroke="#b0b0b0" stroke-linecap="square" stroke-opacity=".3" stroke-width=".8"/>
     </g>
     <g id="de">
      <use x="717.390644" y="529.445464" stroke="#000000" stroke-width=".8" xlink:href="#b"/>
     </g>
     <g id="df">
      <text transform="translate(681.62 563.36) rotate(-30)" font-family="'Noto Sans JP'" font-size="10px">07-04 00</text>
     </g>
    </g>
    <g id="dg">
     <g id="dh">
      <path d="m810.1 529.45v-236.09" clip-path="url(#c)" fill="none" stroke="#b0b0b0" stroke-linecap="square" stroke-opacity=".3" stroke-width=".8"/>
     </g>
     <g id="di">
      <use x="810.09833" y="529.445464" stroke="#000000" stroke-width=".8" xlink:href="#b"/>
     </g>
     <g id="dj">
      <text transform="translate(774.32 563.36) rotate(-30)" font-family="'Noto Sans JP'" font-size="10px">07-04 12</text>
     </g>
    </g>
   </g>
   <g id="dk">
    <g id="dl">
     <g id="dm">
      <path d="m46.6 518.71h806.6" clip-path="url(#c)" fill="none" stroke="#b0b0b0" stroke-linecap="square" stroke-opacity=".3" stroke-width=".8"/>
     </g>
     <g id="dn">
      <use x="46.6" y="518.713976" stroke="#000000" stroke-width=".8" xlink:href="#d"/>
     </g>
     <g id="do">
      <text transform="rotate(-0 39.6 522.7)" x="39.6" y="522.699132" font-family="'Noto Sans JP'" font-size="10px" text-anchor="end">47782</text>
     </g>
    </g>
    <g id="dp">
     <g id="dq">
      <path d="m46.6 482.94h806.6" clip-path="url(#c)" fill="none" stroke="#b0b0b0" stroke-linecap="square" stroke-opacity=".3" stroke-width=".8"/>
     </g>
     <g id="dr">
      <use x="46.6" y="482.94235" stroke="#000000" stroke-width=".8" xlink:href="#d"/>
     </g>
     <g id="ds">
      <text transform="rotate(-0 39.6 486.93)" x="39.6" y="486.927506" font-family="'Noto Sans JP'" font-size="10px" text-anchor="end">47784</text>
     </g>
    </g>
    <g id="dt">
     <g id="du">
      <path d="m46.6 447.17h806.6" clip-path="url(#c)" fill="none" stroke="#b0b0b0" stroke-linecap="square" stroke-opacity=".3" stroke-width=".8"/>
     </g>
     <g id="dv">
      <use x="46.6" y="447.170724" stroke="#000000" stroke-width=".8" xlink:href="#d"/>
     </g>
     <g id="dw">
      <text transform="rotate(-0 39.6 451.16)" x="39.6" y="451.15588" font-family="'Noto Sans JP'" font-size="10px" text-anchor="end">47786</text>
     </g>
    </g>
    <g id="dx">
     <g id="dy">
      <path d="m46.6 411.4h806.6" clip-path="url(#c)" fill="none" stroke="#b0b0b0" stroke-linecap="square" stroke-opacity=".3" stroke-width=".8"/>
     </g>
     <g id="dz">
      <use x="46.6" y="411.399098" stroke="#000000" stroke-width=".8" xlink:href="#d"/>
     </g>
     <g id="ea">
      <text transform="rotate(-0 39.6 415.38)" x="39.6" y="415.384254" font-family="'Noto Sans JP'" font-size="10px" text-anchor="end">47788</text>
     </g>
    </g>
    <g id="eb">
     <g id="ec">
      <path d="m46.6 375.63h806.6" clip-path="url(#c)" fill="none" stroke="#b0b0b0" stroke-linecap="square" stroke-opacity=".3" stroke-width=".8"/>
     </g>
     <g id="ed">
      <use x="46.6" y="375.627472" stroke="#000000" stroke-width=".8" xlink:href="#d"/>
     </g>
     <g id="ee">
      <text transform="rotate(-0 39.6 379.61)" x="39.6" y="379.612628" font-family="'Noto Sans JP'" font-size="10px" text-anchor="end">47790</text>
     </g>
    </g>
    <g id="ef">
     <g id="eg">
      <path d="m46.6 339.86h806.6" clip-path="url(#c)" fill="none" stroke="#b0b0b0" stroke-linecap="square" stroke-opacity=".3" stroke-width=".8"/>
     </g>
     <g id="eh">
      <use x="46.6" y="339.855846" stroke="#000000" stroke-width=".8" xlink:href="#d"/>
     </g>
     <g id="ei">
      <text transform="rotate(-0 39.6 343.84)" x="39.6" y="343.841002" font-family="'Noto Sans JP'" font-size="10px" text-anchor="end">47792</text>
     </g>
    </g>
    <g id="ej">
     <g id="ek">
      <path d="m46.6 304.08h806.6" clip-path="url(#c)" fill="none" stroke="#b0b0b0" stroke-linecap="square" stroke-opacity=".3" stroke-width=".8"/>
     </g>
     <g id="el">
      <use x="46.6" y="304.08422" stroke="#000000" stroke-width=".8" xlink:href="#d"/>
     </g>
     <g id="em">
      <text transform="rotate(-0 39.6 308.07)" x="39.6" y="308.069376" font-family="'Noto Sans JP'" font-size="10px" text-anchor="end">47794</text>
     </g>
    </g>
   </g>
   <g id="en">
    <path d="m83.264 518.71h4.5345l1.9271-17.886h25.065l1.9314-35.772h9.657l3.8628-35.772h3.8628l1.9314-17.886h1.9314l1.9314-17.886h1.9314l1.9314 17.886h1.9314l3.8628-35.772h1.9314l1.9314-53.657h1.9314l1.9314 35.772h3.8628l1.9314 53.657 1.9314 17.886h19.314l1.9314 17.886h23.177l1.9314-17.886h30.903l1.9314 35.772h13.52l1.9314-17.886h11.588l1.9314-17.886h9.6571l1.9314-17.886h38.628l1.9314-17.886h1.9314l1.9314-35.772h1.9314l5.7942-53.657 1.9314 17.886 1.9314-17.886h7.7256l1.9314 17.886h3.8628l1.9314 17.886h1.9314l1.9314 35.772 1.9314 17.886h1.9314l1.9314 17.886h1.9314l1.9314-17.886h5.7942l1.9314-17.886h1.9314l1.9314 17.886h1.9314l1.9314 17.886h48.285l1.9314 35.772 1.9314 17.886h23.177l1.9314-17.886h7.7256l1.9314 17.886h23.177l1.9314 17.886h1.9314l1.9314-17.886h1.9314l1.9314-17.886h1.9314l1.9314-17.886h3.8628l1.9314-17.886 1.9314 17.886 1.9314-35.772 1.9314-17.886 1.9314-35.772 1.9314 35.772h1.9314l1.9314 35.772h1.9314l1.9314-17.886 1.9314 17.886h21.246l1.9314 17.886h59.23l.6438-35.772h9.0132l.6438 17.886h43.135l.6438-17.886h13.52l.6438-17.886h1.9314l.6438 17.886h3.219l.6438 17.886h3.219l.6438-17.886h5.1504l.6438-35.772.6438-17.886h8.3694l.6438 17.886h16.095l.6438-17.886h19.314l.6438 17.886h39.916l.6438-17.886h28.971v0" clip-path="url(#c)" fill="none" stroke="#28f" stroke-linecap="square" stroke-width="1.5"/>
   </g>
   <g id="eo">
    <path d="m46.6 529.45v-236.09" fill="none" stroke="#000" stroke-linecap="square" stroke-width=".8"/>
   </g>
   <g id="ep">
    <path d="m853.2 529.45v-236.09" fill="none" stroke="#000" stroke-linecap="square" stroke-width=".8"/>
   </g>
   <g id="eq">
    <path d="m46.6 529.45h806.6" fill="none" stroke="#000" stroke-linecap="square" stroke-width=".8"/>
   </g>
   <g id="er">
    <path d="m46.6 293.35h806.6" fill="none" stroke="#000" stroke-linecap="square" stroke-width=".8"/>
   </g>
   <g id="es">
    <text transform="rotate(-0 449.9 287.35)" x="449.9" y="287.352732" font-family="'Noto Sans JP'" font-size="12px" text-anchor="middle">サーバー数の推移</text>
   </g>
  </g>
 </g>
 <defs>
  <clipPath id="a">
   <rect x="46.6" y="26.88" width="806.6" height="236.09"/>
  </clipPath>
  <clipPath id="c">
   <rect x="46.6" y="293.35" width="806.6" height="236.09"/>
  </clipPath>
 </defs>
</svg>
