<!DOCTYPE svg  PUBLIC '-//W3C//DTD SVG 1.1//EN'  'http://www.w3.org/Graphics/SVG/1.1/DTD/svg11.dtd'>
<svg version="1.1" viewBox="0 0 864 576" xmlns="http://www.w3.org/2000/svg" xmlns:xlink="http://www.w3.org/1999/xlink">
 <defs>
  <style type="text/css">*{stroke-linejoin: round; stroke-linecap: butt}</style>
 </defs>
 <g id="e">
  <g id="f">
   <path d="m0 576h864v-576h-864z" fill="#fff"/>
  </g>
  <g id="g">
   <g id="h">
    <path d="m46.6 262.97h806.6v-236.09h-806.6z" fill="#fff"/>
   </g>
   <g id="i">
    <g id="j">
     <g id="k">
      <path d="m68.463 262.97v-236.09" clip-path="url(#a)" fill="none" stroke="#b0b0b0" stroke-linecap="square" stroke-opacity=".3" stroke-width=".8"/>
     </g>
     <g id="l">
      <defs>
       <path id="b" d="m0 0v3.5" stroke="#000" stroke-width=".8"/>
      </defs>
      <use x="68.462834" y="262.972732" stroke="#000000" stroke-width=".8" xlink:href="#b"/>
     </g>
    </g>
    <g id="m">
     <g id="n">
      <path d="m161.01 262.97v-236.09" clip-path="url(#a)" fill="none" stroke="#b0b0b0" stroke-linecap="square" stroke-opacity=".3" stroke-width=".8"/>
     </g>
     <g id="o">
      <use x="161.008013" y="262.972732" stroke="#000000" stroke-width=".8" xlink:href="#b"/>
     </g>
    </g>
    <g id="p">
     <g id="q">
      <path d="m253.55 262.97v-236.09" clip-path="url(#a)" fill="none" stroke="#b0b0b0" stroke-linecap="square" stroke-opacity=".3" stroke-width=".8"/>
     </g>
     <g id="r">
      <use x="253.553192" y="262.972732" stroke="#000000" stroke-width=".8" xlink:href="#b"/>
     </g>
    </g>
    <g id="s">
     <g id="t">
      <path d="m346.1 262.97v-236.09" clip-path="url(#a)" fill="none" stroke="#b0b0b0" stroke-linecap="square" stroke-opacity=".3" stroke-width=".8"/>
     </g>
     <g id="u">
      <use x="346.098371" y="262.972732" stroke="#000000" stroke-width=".8" xlink:href="#b"/>
     </g>
    </g>
    <g id="v">
     <g id="w">
      <path d="m438.64 262.97v-236.09" clip-path="url(#a)" fill="none" stroke="#b0b0b0" stroke-linecap="square" stroke-opacity=".3" stroke-width=".8"/>
     </g>
     <g id="x">
      <use x="438.64355" y="262.972732" stroke="#000000" stroke-width=".8" xlink:href="#b"/>
     </g>
    </g>
    <g id="y">
     <g id="z">
      <path d="m531.19 262.97v-236.09" clip-path="url(#a)" fill="none" stroke="#b0b0b0" stroke-linecap="square" stroke-opacity=".3" stroke-width=".8"/>
     </g>
     <g id="aa">
      <use x="531.188729" y="262.972732" stroke="#000000" stroke-width=".8" xlink:href="#b"/>
     </g>
    </g>
    <g id="ab">
     <g id="ac">
      <path d="m623.73 262.97v-236.09" clip-path="url(#a)" fill="none" stroke="#b0b0b0" stroke-linecap="square" stroke-opacity=".3" stroke-width=".8"/>
     </g>
     <g id="ad">
      <use x="623.733908" y="262.972732" stroke="#000000" stroke-width=".8" xlink:href="#b"/>
     </g>
    </g>
    <g id="ae">
     <g id="af">
      <path d="m716.28 262.97v-236.09" clip-path="url(#a)" fill="none" stroke="#b0b0b0" stroke-linecap="square" stroke-opacity=".3" stroke-width=".8"/>
     </g>
     <g id="ag">
      <use x="716.279087" y="262.972732" stroke="#000000" stroke-width=".8" xlink:href="#b"/>
     </g>
    </g>
    <g id="ah">
     <g id="ai">
      <path d="m808.82 262.97v-236.09" clip-path="url(#a)" fill="none" stroke="#b0b0b0" stroke-linecap="square" stroke-opacity=".3" stroke-width=".8"/>
     </g>
     <g id="aj">
      <use x="808.824265" y="262.972732" stroke="#000000" stroke-width=".8" xlink:href="#b"/>
     </g>
    </g>
   </g>
   <g id="ak">
    <g id="al">
     <g id="am">
      <path d="m46.6 248.85h806.6" clip-path="url(#a)" fill="none" stroke="#b0b0b0" stroke-linecap="square" stroke-opacity=".3" stroke-width=".8"/>
     </g>
     <g id="an">
      <defs>
       <path id="d" d="m0 0h-3.5" stroke="#000" stroke-width=".8"/>
      </defs>
      <use x="46.6" y="248.852353" stroke="#000000" stroke-width=".8" xlink:href="#d"/>
     </g>
     <g id="ao">
      <text transform="rotate(-0 39.6 252.84)" x="39.6" y="252.83751" font-family="'Noto Sans JP'" font-size="10px" text-anchor="end">25</text>
     </g>
    </g>
    <g id="ap">
     <g id="aq">
      <path d="m46.6 220.61h806.6" clip-path="url(#a)" fill="none" stroke="#b0b0b0" stroke-linecap="square" stroke-opacity=".3" stroke-width=".8"/>
     </g>
     <g id="ar">
      <use x="46.6" y="220.611596" stroke="#000000" stroke-width=".8" xlink:href="#d"/>
     </g>
     <g id="as">
      <text transform="rotate(-0 39.6 224.6)" x="39.6" y="224.596752" font-family="'Noto Sans JP'" font-size="10px" text-anchor="end">50</text>
     </g>
    </g>
    <g id="at">
     <g id="au">
      <path d="m46.6 192.37h806.6" clip-path="url(#a)" fill="none" stroke="#b0b0b0" stroke-linecap="square" stroke-opacity=".3" stroke-width=".8"/>
     </g>
     <g id="av">
      <use x="46.6" y="192.370838" stroke="#000000" stroke-width=".8" xlink:href="#d"/>
     </g>
     <g id="aw">
      <text transform="rotate(-0 39.6 196.36)" x="39.6" y="196.355995" font-family="'Noto Sans JP'" font-size="10px" text-anchor="end">75</text>
     </g>
    </g>
    <g id="ax">
     <g id="ay">
      <path d="m46.6 164.13h806.6" clip-path="url(#a)" fill="none" stroke="#b0b0b0" stroke-linecap="square" stroke-opacity=".3" stroke-width=".8"/>
     </g>
     <g id="az">
      <use x="46.6" y="164.130081" stroke="#000000" stroke-width=".8" xlink:href="#d"/>
     </g>
     <g id="ba">
      <text transform="rotate(-0 39.6 168.12)" x="39.6" y="168.115237" font-family="'Noto Sans JP'" font-size="10px" text-anchor="end">100</text>
     </g>
    </g>
    <g id="bb">
     <g id="bc">
      <path d="m46.6 135.89h806.6" clip-path="url(#a)" fill="none" stroke="#b0b0b0" stroke-linecap="square" stroke-opacity=".3" stroke-width=".8"/>
     </g>
     <g id="bd">
      <use x="46.6" y="135.889324" stroke="#000000" stroke-width=".8" xlink:href="#d"/>
     </g>
     <g id="be">
      <text transform="rotate(-0 39.6 139.87)" x="39.6" y="139.87448" font-family="'Noto Sans JP'" font-size="10px" text-anchor="end">125</text>
     </g>
    </g>
    <g id="bf">
     <g id="bg">
      <path d="m46.6 107.65h806.6" clip-path="url(#a)" fill="none" stroke="#b0b0b0" stroke-linecap="square" stroke-opacity=".3" stroke-width=".8"/>
     </g>
     <g id="bh">
      <use x="46.6" y="107.648566" stroke="#000000" stroke-width=".8" xlink:href="#d"/>
     </g>
     <g id="bi">
      <text transform="rotate(-0 39.6 111.63)" x="39.6" y="111.633722" font-family="'Noto Sans JP'" font-size="10px" text-anchor="end">150</text>
     </g>
    </g>
    <g id="bj">
     <g id="bk">
      <path d="m46.6 79.408h806.6" clip-path="url(#a)" fill="none" stroke="#b0b0b0" stroke-linecap="square" stroke-opacity=".3" stroke-width=".8"/>
     </g>
     <g id="bl">
      <use x="46.6" y="79.407809" stroke="#000000" stroke-width=".8" xlink:href="#d"/>
     </g>
     <g id="bm">
      <text transform="rotate(-0 39.6 83.393)" x="39.6" y="83.392965" font-family="'Noto Sans JP'" font-size="10px" text-anchor="end">175</text>
     </g>
    </g>
    <g id="bn">
     <g id="bo">
      <path d="m46.6 51.167h806.6" clip-path="url(#a)" fill="none" stroke="#b0b0b0" stroke-linecap="square" stroke-opacity=".3" stroke-width=".8"/>
     </g>
     <g id="bp">
      <use x="46.6" y="51.167051" stroke="#000000" stroke-width=".8" xlink:href="#d"/>
     </g>
     <g id="bq">
      <text transform="rotate(-0 39.6 55.152)" x="39.6" y="55.152208" font-family="'Noto Sans JP'" font-size="10px" text-anchor="end">200</text>
     </g>
    </g>
   </g>
   <g id="br">
    <path d="m83.264 224h4.5266l1.9237 11.296h25.021l1.928-14.685h9.6401l1.928-1.1296 1.928-4.5185h3.856l1.928-27.111 3.856-4.5185h1.928l1.928-31.63 1.928-15.815 1.928-29.37 1.928-15.815h1.928l1.928-22.593h1.928l1.928 3.3889h3.856l1.928 27.111 1.928 13.556h1.928l1.928 23.722h1.928l1.928 30.5h11.568l1.928 32.759h23.136l1.928 33.889h1.928l1.928 7.9074h7.7121l1.928 2.2593h17.352l1.928 6.7778h5.7841l1.928-5.6482h5.7841l1.928-1.1296h11.568l1.928-1.1296h9.6401l1.928-2.2593h13.496l1.928-4.5185 1.928-2.2593h1.928l1.928-5.6482h3.856l1.928-11.296h3.856l1.928-13.556 1.928-9.037h3.856l1.928-22.593h1.928l1.928-31.63 1.928-7.9074 1.928-23.722 1.928-5.6482 1.928-7.9074h1.928l1.928-4.5185 1.928-5.6482h1.928l1.928-3.3889 1.928 23.722 1.928 7.9074h3.856l1.928 37.278h1.928l1.928 14.685 1.928 7.9074h1.928l1.928 14.685h1.928l1.928 9.037 1.928 10.167h3.856l1.928 12.426h1.928l1.928 10.167h1.928l1.928 3.3889h48.201l1.928 16.944h9.6401l1.928-2.2593h13.496l1.928-5.6482h7.7121l1.928-4.5185h23.136l1.928-18.074h1.928l1.928-9.037h1.928l1.928-14.685h1.928l1.928-25.981 1.928-2.2593 1.928-18.074 1.928-10.167 1.928-18.074 1.928-25.981 1.928-19.204 1.928-18.074 1.928-3.3889h1.928l1.928-15.815 1.928 4.5185 1.928 6.7778 1.928 11.296h1.928l1.928 35.019 3.856 33.889h5.7841l1.928 46.315h5.7841l1.928 24.852 1.928 6.7778 1.928 11.296h3.856l1.928 9.037h3.856l3.856 4.5185h41.774l.64267 15.815h1.928l.64268-2.2593h6.4267l.64268-2.2593h.64268l.64268 1.1296h24.422l.64268-6.7778h2.5707l.64267-4.5185h13.496l.64268-10.167h12.211l.64268-9.037h.64268l.64268-1.1296h1.928l.64267-1.1296h3.2134l.64268-14.685h3.2134l.64268-21.463.64268-4.5185h4.4987l.64268-24.852.64268-5.6482.64268-7.9074h.64268l.64268-18.074h1.2853l.64268-20.333h4.4987l.64268-13.556.64268 2.2593h3.2134l.64268 4.5185.64268-3.3889h.64268l.64268 3.3889h1.2853l.64268 15.815h1.2854l.64268 7.9074h.64268l.64268 7.9074h1.2853l.64268 12.426.64268 9.037h1.928l.64268 19.204h4.4987l.64268 18.074h14.139l.64268 42.926h3.2134l.64268 5.6482h12.211l.64268 13.556h23.136l.64268 12.426h30.206v0" clip-path="url(#a)" fill="none" stroke="#28f" stroke-linecap="square" stroke-width="1.5"/>
   </g>
   <g id="bs">
    <path d="m46.6 262.97v-236.09" fill="none" stroke="#000" stroke-linecap="square" stroke-width=".8"/>
   </g>
   <g id="bt">
    <path d="m853.2 262.97v-236.09" fill="none" stroke="#000" stroke-linecap="square" stroke-width=".8"/>
   </g>
   <g id="bu">
    <path d="m46.6 262.97h806.6" fill="none" stroke="#000" stroke-linecap="square" stroke-width=".8"/>
   </g>
   <g id="bv">
    <path d="m46.6 26.88h806.6" fill="none" stroke="#000" stroke-linecap="square" stroke-width=".8"/>
   </g>
   <g id="bw">
    <text transform="rotate(-0 449.9 20.88)" x="449.9" y="20.88" font-family="'Noto Sans JP'" font-size="12px" text-anchor="middle">同時接続数の推移</text>
   </g>
  </g>
  <g id="bx">
   <g id="by">
    <path d="m46.6 529.45h806.6v-236.09h-806.6z" fill="#fff"/>
   </g>
   <g id="bz">
    <g id="ca">
     <g id="cb">
      <path d="m68.463 529.45v-236.09" clip-path="url(#c)" fill="none" stroke="#b0b0b0" stroke-linecap="square" stroke-opacity=".3" stroke-width=".8"/>
     </g>
     <g id="cc">
      <use x="68.462834" y="529.445464" stroke="#000000" stroke-width=".8" xlink:href="#b"/>
     </g>
     <g id="cd">
      <text transform="translate(32.689 563.36) rotate(-30)" font-family="'Noto Sans JP'" font-size="10px">06-30 12</text>
     </g>
    </g>
    <g id="ce">
     <g id="cf">
      <path d="m161.01 529.45v-236.09" clip-path="url(#c)" fill="none" stroke="#b0b0b0" stroke-linecap="square" stroke-opacity=".3" stroke-width=".8"/>
     </g>
     <g id="cg">
      <use x="161.008013" y="529.445464" stroke="#000000" stroke-width=".8" xlink:href="#b"/>
     </g>
     <g id="ch">
      <text transform="translate(125.23 563.36) rotate(-30)" font-family="'Noto Sans JP'" font-size="10px">07-01 00</text>
     </g>
    </g>
    <g id="ci">
     <g id="cj">
      <path d="m253.55 529.45v-236.09" clip-path="url(#c)" fill="none" stroke="#b0b0b0" stroke-linecap="square" stroke-opacity=".3" stroke-width=".8"/>
     </g>
     <g id="ck">
      <use x="253.553192" y="529.445464" stroke="#000000" stroke-width=".8" xlink:href="#b"/>
     </g>
     <g id="cl">
      <text transform="translate(217.78 563.36) rotate(-30)" font-family="'Noto Sans JP'" font-size="10px">07-01 12</text>
     </g>
    </g>
    <g id="cm">
     <g id="cn">
      <path d="m346.1 529.45v-236.09" clip-path="url(#c)" fill="none" stroke="#b0b0b0" stroke-linecap="square" stroke-opacity=".3" stroke-width=".8"/>
     </g>
     <g id="co">
      <use x="346.098371" y="529.445464" stroke="#000000" stroke-width=".8" xlink:href="#b"/>
     </g>
     <g id="cp">
      <text transform="translate(310.32 563.36) rotate(-30)" font-family="'Noto Sans JP'" font-size="10px">07-02 00</text>
     </g>
    </g>
    <g id="cq">
     <g id="cr">
      <path d="m438.64 529.45v-236.09" clip-path="url(#c)" fill="none" stroke="#b0b0b0" stroke-linecap="square" stroke-opacity=".3" stroke-width=".8"/>
     </g>
     <g id="cs">
      <use x="438.64355" y="529.445464" stroke="#000000" stroke-width=".8" xlink:href="#b"/>
     </g>
     <g id="ct">
      <text transform="translate(402.87 563.36) rotate(-30)" font-family="'Noto Sans JP'" font-size="10px">07-02 12</text>
     </g>
    </g>
    <g id="cu">
     <g id="cv">
      <path d="m531.19 529.45v-236.09" clip-path="url(#c)" fill="none" stroke="#b0b0b0" stroke-linecap="square" stroke-opacity=".3" stroke-width=".8"/>
     </g>
     <g id="cw">
      <use x="531.188729" y="529.445464" stroke="#000000" stroke-width=".8" xlink:href="#b"/>
     </g>
     <g id="cx">
      <text transform="translate(495.42 563.36) rotate(-30)" font-family="'Noto Sans JP'" font-size="10px">07-03 00</text>
     </g>
    </g>
    <g id="cy">
     <g id="cz">
      <path d="m623.73 529.45v-236.09" clip-path="url(#c)" fill="none" stroke="#b0b0b0" stroke-linecap="square" stroke-opacity=".3" stroke-width=".8"/>
     </g>
     <g id="da">
      <use x="623.733908" y="529.445464" stroke="#000000" stroke-width=".8" xlink:href="#b"/>
     </g>
     <g id="db">
      <text transform="translate(587.96 563.36) rotate(-30)" font-family="'Noto Sans JP'" font-size="10px">07-03 12</text>
     </g>
    </g>
    <g id="dc">
     <g id="dd">
      <path d="m716.28 529.45v-236.09" clip-path="url(#c)" fill="none" stroke="#b0b0b0" stroke-linecap="square" stroke-opacity=".3" stroke-width=".8"/>
     </g>
     <g id="de">
      <use x="716.279087" y="529.445464" stroke="#000000" stroke-width=".8" xlink:href="#b"/>
     </g>
     <g id="df">
      <text transform="translate(680.51 563.36) rotate(-30)" font-family="'Noto Sans JP'" font-size="10px">07-04 00</text>
     </g>
    </g>
    <g id="dg">
     <g id="dh">
      <path d="m808.82 529.45v-236.09" clip-path="url(#c)" fill="none" stroke="#b0b0b0" stroke-linecap="square" stroke-opacity=".3" stroke-width=".8"/>
     </g>
     <g id="di">
      <use x="808.824265" y="529.445464" stroke="#000000" stroke-width=".8" xlink:href="#b"/>
     </g>
     <g id="dj">
      <text transform="translate(773.05 563.36) rotate(-30)" font-family="'Noto Sans JP'" font-size="10px">07-04 12</text>
     </g>
    </g>
   </g>
   <g id="dk">
    <g id="dl">
     <g id="dm">
      <path d="m46.6 518.71h806.6" clip-path="url(#c)" fill="none" stroke="#b0b0b0" stroke-linecap="square" stroke-opacity=".3" stroke-width=".8"/>
     </g>
     <g id="dn">
      <use x="46.6" y="518.713976" stroke="#000000" stroke-width=".8" xlink:href="#d"/>
     </g>
     <g id="do">
      <text transform="rotate(-0 39.6 522.7)" x="39.6" y="522.699132" font-family="'Noto Sans JP'" font-size="10px" text-anchor="end">47782</text>
     </g>
    </g>
    <g id="dp">
     <g id="dq">
      <path d="m46.6 482.94h806.6" clip-path="url(#c)" fill="none" stroke="#b0b0b0" stroke-linecap="square" stroke-opacity=".3" stroke-width=".8"/>
     </g>
     <g id="dr">
      <use x="46.6" y="482.94235" stroke="#000000" stroke-width=".8" xlink:href="#d"/>
     </g>
     <g id="ds">
      <text transform="rotate(-0 39.6 486.93)" x="39.6" y="486.927506" font-family="'Noto Sans JP'" font-size="10px" text-anchor="end">47784</text>
     </g>
    </g>
    <g id="dt">
     <g id="du">
      <path d="m46.6 447.17h806.6" clip-path="url(#c)" fill="none" stroke="#b0b0b0" stroke-linecap="square" stroke-opacity=".3" stroke-width=".8"/>
     </g>
     <g id="dv">
      <use x="46.6" y="447.170724" stroke="#000000" stroke-width=".8" xlink:href="#d"/>
     </g>
     <g id="dw">
      <text transform="rotate(-0 39.6 451.16)" x="39.6" y="451.15588" font-family="'Noto Sans JP'" font-size="10px" text-anchor="end">47786</text>
     </g>
    </g>
    <g id="dx">
     <g id="dy">
      <path d="m46.6 411.4h806.6" clip-path="url(#c)" fill="none" stroke="#b0b0b0" stroke-linecap="square" stroke-opacity=".3" stroke-width=".8"/>
     </g>
     <g id="dz">
      <use x="46.6" y="411.399098" stroke="#000000" stroke-width=".8" xlink:href="#d"/>
     </g>
     <g id="ea">
      <text transform="rotate(-0 39.6 415.38)" x="39.6" y="415.384254" font-family="'Noto Sans JP'" font-size="10px" text-anchor="end">47788</text>
     </g>
    </g>
    <g id="eb">
     <g id="ec">
      <path d="m46.6 375.63h806.6" clip-path="url(#c)" fill="none" stroke="#b0b0b0" stroke-linecap="square" stroke-opacity=".3" stroke-width=".8"/>
     </g>
     <g id="ed">
      <use x="46.6" y="375.627472" stroke="#000000" stroke-width=".8" xlink:href="#d"/>
     </g>
     <g id="ee">
      <text transform="rotate(-0 39.6 379.61)" x="39.6" y="379.612628" font-family="'Noto Sans JP'" font-size="10px" text-anchor="end">47790</text>
     </g>
    </g>
    <g id="ef">
     <g id="eg">
      <path d="m46.6 339.86h806.6" clip-path="url(#c)" fill="none" stroke="#b0b0b0" stroke-linecap="square" stroke-opacity=".3" stroke-width=".8"/>
     </g>
     <g id="eh">
      <use x="46.6" y="339.855846" stroke="#000000" stroke-width=".8" xlink:href="#d"/>
     </g>
     <g id="ei">
      <text transform="rotate(-0 39.6 343.84)" x="39.6" y="343.841002" font-family="'Noto Sans JP'" font-size="10px" text-anchor="end">47792</text>
     </g>
    </g>
    <g id="ej">
     <g id="ek">
      <path d="m46.6 304.08h806.6" clip-path="url(#c)" fill="none" stroke="#b0b0b0" stroke-linecap="square" stroke-opacity=".3" stroke-width=".8"/>
     </g>
     <g id="el">
      <use x="46.6" y="304.08422" stroke="#000000" stroke-width=".8" xlink:href="#d"/>
     </g>
     <g id="em">
      <text transform="rotate(-0 39.6 308.07)" x="39.6" y="308.069376" font-family="'Noto Sans JP'" font-size="10px" text-anchor="end">47794</text>
     </g>
    </g>
   </g>
   <g id="en">
    <path d="m83.264 518.71h4.5266l1.9237-17.886h25.021l1.928-35.772h9.6401l3.856-35.772h3.856l1.928-17.886h1.928l1.928-17.886h1.928l1.928 17.886h1.928l3.856-35.772h1.928l1.928-53.657h1.928l1.928 35.772h3.856l1.928 53.657 1.928 17.886h19.28l1.928 17.886h23.136l1.928-17.886h30.848l1.928 35.772h13.496l1.928-17.886h11.568l1.928-17.886h9.6401l1.928-17.886h38.56l1.928-17.886h1.928l1.928-35.772h1.928l5.7841-53.657 1.928 17.886 1.928-17.886h7.7121l1.928 17.886h3.856l1.928 17.886h1.928l1.928 35.772 1.928 17.886h1.928l1.928 17.886h1.928l1.928-17.886h5.7841l1.928-17.886h1.928l1.928 17.886h1.928l1.928 17.886h48.201l1.928 35.772 1.928 17.886h23.136l1.928-17.886h7.7121l1.928 17.886h23.136l1.928 17.886h1.928l1.928-17.886h1.928l1.928-17.886h1.928l1.928-17.886h3.856l1.928-17.886 1.928 17.886 1.928-35.772 1.928-17.886 1.928-35.772 1.928 35.772h1.928l1.928 35.772h1.928l1.928-17.886 1.928 17.886h21.208l1.928 17.886h59.126l.64267-35.772h8.9974l.64268 17.886h43.059l.64268-17.886h13.496l.64268-17.886h1.928l.64267 17.886h3.2134l.64268 17.886h3.2134l.64268-17.886h5.1414l.64268-35.772.64268-17.886h8.3548l.64268 17.886h16.067l.64268-17.886h19.28l.64268 17.886h39.846l.64268-17.886h30.206v0" clip-path="url(#c)" fill="none" stroke="#28f" stroke-linecap="square" stroke-width="1.5"/>
   </g>
   <g id="eo">
    <path d="m46.6 529.45v-236.09" fill="none" stroke="#000" stroke-linecap="square" stroke-width=".8"/>
   </g>
   <g id="ep">
    <path d="m853.2 529.45v-236.09" fill="none" stroke="#000" stroke-linecap="square" stroke-width=".8"/>
   </g>
   <g id="eq">
    <path d="m46.6 529.45h806.6" fill="none" stroke="#000" stroke-linecap="square" stroke-width=".8"/>
   </g>
   <g id="er">
    <path d="m46.6 293.35h806.6" fill="none" stroke="#000" stroke-linecap="square" stroke-width=".8"/>
   </g>
   <g id="es">
    <text transform="rotate(-0 449.9 287.35)" x="449.9" y="287.352732" font-family="'Noto Sans JP'" font-size="12px" text-anchor="middle">サーバー数の推移</text>
   </g>
  </g>
 </g>
 <defs>
  <clipPath id="a">
   <rect x="46.6" y="26.88" width="806.6" height="236.09"/>
  </clipPath>
  <clipPath id="c">
   <rect x="46.6" y="293.35" width="806.6" height="236.09"/>
  </clipPath>
 </defs>
</svg>
