<!DOCTYPE svg  PUBLIC '-//W3C//DTD SVG 1.1//EN'  'http://www.w3.org/Graphics/SVG/1.1/DTD/svg11.dtd'>
<svg version="1.1" viewBox="0 0 864 576" xmlns="http://www.w3.org/2000/svg" xmlns:xlink="http://www.w3.org/1999/xlink">
 <defs>
  <style type="text/css">*{stroke-linejoin: round; stroke-linecap: butt}</style>
 </defs>
 <g id="e">
  <g id="f">
   <path d="m0 576h864v-576h-864z" fill="#fff"/>
  </g>
  <g id="g">
   <g id="h">
    <path d="m34.9 262.97h818.3v-236.09h-818.3z" fill="#fff"/>
   </g>
   <g id="i">
    <path d="m113.66 262.97h17.542v-236.09h-17.542z" clip-path="url(#b)" fill="#808080" opacity=".3" stroke="#808080"/>
   </g>
   <g id="j">
    <path d="m326.12 262.97h13.644v-236.09h-13.644z" clip-path="url(#b)" fill="#808080" opacity=".3" stroke="#808080"/>
   </g>
   <g id="k">
    <path d="m353.4 262.97h7.7966v-236.09h-7.7966z" clip-path="url(#b)" fill="#808080" opacity=".3" stroke="#808080"/>
   </g>
   <g id="l">
    <path d="m370.95 262.97h17.542v-236.09h-17.542z" clip-path="url(#b)" fill="#808080" opacity=".3" stroke="#808080"/>
   </g>
   <g id="m">
    <path d="m427.47 262.97h19.492v-236.09h-19.492z" clip-path="url(#b)" fill="#808080" opacity=".3" stroke="#808080"/>
   </g>
   <g id="n">
    <g id="o">
     <g id="p">
      <path d="m57.132 262.97v-236.09" clip-path="url(#b)" fill="none" stroke="#b0b0b0" stroke-linecap="square" stroke-opacity=".3" stroke-width=".8"/>
     </g>
     <g id="q">
      <defs>
       <path id="c" d="m0 0v3.5" stroke="#000" stroke-width=".8"/>
      </defs>
      <use x="57.132419" y="262.972732" stroke="#000000" stroke-width=".8" xlink:href="#c"/>
     </g>
    </g>
    <g id="r">
     <g id="s">
      <path d="m150.69 262.97v-236.09" clip-path="url(#b)" fill="none" stroke="#b0b0b0" stroke-linecap="square" stroke-opacity=".3" stroke-width=".8"/>
     </g>
     <g id="t">
      <use x="150.691997" y="262.972732" stroke="#000000" stroke-width=".8" xlink:href="#c"/>
     </g>
    </g>
    <g id="u">
     <g id="v">
      <path d="m244.25 262.97v-236.09" clip-path="url(#b)" fill="none" stroke="#b0b0b0" stroke-linecap="square" stroke-opacity=".3" stroke-width=".8"/>
     </g>
     <g id="w">
      <use x="244.251574" y="262.972732" stroke="#000000" stroke-width=".8" xlink:href="#c"/>
     </g>
    </g>
    <g id="x">
     <g id="y">
      <path d="m337.81 262.97v-236.09" clip-path="url(#b)" fill="none" stroke="#b0b0b0" stroke-linecap="square" stroke-opacity=".3" stroke-width=".8"/>
     </g>
     <g id="z">
      <use x="337.811151" y="262.972732" stroke="#000000" stroke-width=".8" xlink:href="#c"/>
     </g>
    </g>
    <g id="aa">
     <g id="ab">
      <path d="m431.37 262.97v-236.09" clip-path="url(#b)" fill="none" stroke="#b0b0b0" stroke-linecap="square" stroke-opacity=".3" stroke-width=".8"/>
     </g>
     <g id="ac">
      <use x="431.370728" y="262.972732" stroke="#000000" stroke-width=".8" xlink:href="#c"/>
     </g>
    </g>
    <g id="ad">
     <g id="ae">
      <path d="m524.93 262.97v-236.09" clip-path="url(#b)" fill="none" stroke="#b0b0b0" stroke-linecap="square" stroke-opacity=".3" stroke-width=".8"/>
     </g>
     <g id="af">
      <use x="524.930305" y="262.972732" stroke="#000000" stroke-width=".8" xlink:href="#c"/>
     </g>
    </g>
    <g id="ag">
     <g id="ah">
      <path d="m618.49 262.97v-236.09" clip-path="url(#b)" fill="none" stroke="#b0b0b0" stroke-linecap="square" stroke-opacity=".3" stroke-width=".8"/>
     </g>
     <g id="ai">
      <use x="618.489883" y="262.972732" stroke="#000000" stroke-width=".8" xlink:href="#c"/>
     </g>
    </g>
    <g id="aj">
     <g id="ak">
      <path d="m712.05 262.97v-236.09" clip-path="url(#b)" fill="none" stroke="#b0b0b0" stroke-linecap="square" stroke-opacity=".3" stroke-width=".8"/>
     </g>
     <g id="al">
      <use x="712.04946" y="262.972732" stroke="#000000" stroke-width=".8" xlink:href="#c"/>
     </g>
    </g>
    <g id="am">
     <g id="an">
      <path d="m805.61 262.97v-236.09" clip-path="url(#b)" fill="none" stroke="#b0b0b0" stroke-linecap="square" stroke-opacity=".3" stroke-width=".8"/>
     </g>
     <g id="ao">
      <use x="805.609037" y="262.972732" stroke="#000000" stroke-width=".8" xlink:href="#c"/>
     </g>
    </g>
   </g>
   <g id="ap">
    <g id="aq">
     <g id="ar">
      <path d="m34.9 252.24h818.3" clip-path="url(#b)" fill="none" stroke="#b0b0b0" stroke-linecap="square" stroke-opacity=".3" stroke-width=".8"/>
     </g>
     <g id="as">
      <defs>
       <path id="d" d="m0 0h-3.5" stroke="#000" stroke-width=".8"/>
      </defs>
      <use x="34.9" y="252.241244" stroke="#000000" stroke-width=".8" xlink:href="#d"/>
     </g>
     <g id="at">
      <text transform="rotate(-0 27.9 256.23)" x="27.9" y="256.2264" font-family="'Noto Sans JP'" font-size="10px" text-anchor="end">0</text>
     </g>
    </g>
    <g id="au">
     <g id="av">
      <path d="m34.9 180.7h818.3" clip-path="url(#b)" fill="none" stroke="#b0b0b0" stroke-linecap="square" stroke-opacity=".3" stroke-width=".8"/>
     </g>
     <g id="aw">
      <use x="34.9" y="180.697992" stroke="#000000" stroke-width=".8" xlink:href="#d"/>
     </g>
     <g id="ax">
      <text transform="rotate(-0 27.9 184.68)" x="27.9" y="184.683148" font-family="'Noto Sans JP'" font-size="10px" text-anchor="end">1</text>
     </g>
    </g>
    <g id="ay">
     <g id="az">
      <path d="m34.9 109.15h818.3" clip-path="url(#b)" fill="none" stroke="#b0b0b0" stroke-linecap="square" stroke-opacity=".3" stroke-width=".8"/>
     </g>
     <g id="ba">
      <use x="34.9" y="109.15474" stroke="#000000" stroke-width=".8" xlink:href="#d"/>
     </g>
     <g id="bb">
      <text transform="rotate(-0 27.9 113.14)" x="27.9" y="113.139896" font-family="'Noto Sans JP'" font-size="10px" text-anchor="end">2</text>
     </g>
    </g>
    <g id="bc">
     <g id="bd">
      <path d="m34.9 37.611h818.3" clip-path="url(#b)" fill="none" stroke="#b0b0b0" stroke-linecap="square" stroke-opacity=".3" stroke-width=".8"/>
     </g>
     <g id="be">
      <use x="34.9" y="37.611488" stroke="#000000" stroke-width=".8" xlink:href="#d"/>
     </g>
     <g id="bf">
      <text transform="rotate(-0 27.9 41.597)" x="27.9" y="41.596644" font-family="'Noto Sans JP'" font-size="10px" text-anchor="end">3</text>
     </g>
    </g>
   </g>
   <g id="bg">
    <path d="m72.095 109.15h4.5762l1.9448-71.543h7.8616l1.9535 71.543h25.226m17.542 0h13.644l1.9492-71.543 1.9492 71.543h115l1.9492-71.543 1.9492 71.543h58.475m13.644 0h13.644m7.7966 0h9.7458m17.542 0h38.983m19.492 143.09h196.86l.64972-71.543h.64972l.64972 71.543h18.192l.64972-71.543h5.1978l.64972 71.543h19.492l.64972-71.543.64972 71.543h1.9492l.64972-71.543h12.345l.64972 71.543h55.876l.64972-71.543h1.9492l.64972 71.543h50.028v0" clip-path="url(#b)" fill="none" stroke="#28f" stroke-linecap="square" stroke-width="1.5"/>
   </g>
   <g id="bh">
    <path d="m34.9 262.97v-236.09" fill="none" stroke="#000" stroke-linecap="square" stroke-width=".8"/>
   </g>
   <g id="bi">
    <path d="m853.2 262.97v-236.09" fill="none" stroke="#000" stroke-linecap="square" stroke-width=".8"/>
   </g>
   <g id="bj">
    <path d="m34.9 262.97h818.3" fill="none" stroke="#000" stroke-linecap="square" stroke-width=".8"/>
   </g>
   <g id="bk">
    <path d="m34.9 26.88h818.3" fill="none" stroke="#000" stroke-linecap="square" stroke-width=".8"/>
   </g>
   <g id="bl">
    <text transform="rotate(-0 444.05 20.88)" x="444.05" y="20.88" font-family="'Noto Sans JP'" font-size="12px" text-anchor="middle">同時接続数の推移</text>
   </g>
  </g>
  <g id="bm">
   <g id="bn">
    <path d="m34.9 529.45h818.3v-236.09h-818.3z" fill="#fff"/>
   </g>
   <g id="bo">
    <path d="m113.66 529.45h17.542v-236.09h-17.542z" clip-path="url(#a)" fill="#808080" opacity=".3" stroke="#808080"/>
   </g>
   <g id="bp">
    <path d="m326.12 529.45h13.644v-236.09h-13.644z" clip-path="url(#a)" fill="#808080" opacity=".3" stroke="#808080"/>
   </g>
   <g id="bq">
    <path d="m353.4 529.45h7.7966v-236.09h-7.7966z" clip-path="url(#a)" fill="#808080" opacity=".3" stroke="#808080"/>
   </g>
   <g id="br">
    <path d="m370.95 529.45h17.542v-236.09h-17.542z" clip-path="url(#a)" fill="#808080" opacity=".3" stroke="#808080"/>
   </g>
   <g id="bs">
    <path d="m427.47 529.45h19.492v-236.09h-19.492z" clip-path="url(#a)" fill="#808080" opacity=".3" stroke="#808080"/>
   </g>
   <g id="bt">
    <g id="bu">
     <g id="bv">
      <path d="m57.132 529.45v-236.09" clip-path="url(#a)" fill="none" stroke="#b0b0b0" stroke-linecap="square" stroke-opacity=".3" stroke-width=".8"/>
     </g>
     <g id="bw">
      <use x="57.132419" y="529.445464" stroke="#000000" stroke-width=".8" xlink:href="#c"/>
     </g>
     <g id="bx">
      <text transform="translate(21.359 563.36) rotate(-30)" font-family="'Noto Sans JP'" font-size="10px">06-30 12</text>
     </g>
    </g>
    <g id="by">
     <g id="bz">
      <path d="m150.69 529.45v-236.09" clip-path="url(#a)" fill="none" stroke="#b0b0b0" stroke-linecap="square" stroke-opacity=".3" stroke-width=".8"/>
     </g>
     <g id="ca">
      <use x="150.691997" y="529.445464" stroke="#000000" stroke-width=".8" xlink:href="#c"/>
     </g>
     <g id="cb">
      <text transform="translate(114.92 563.36) rotate(-30)" font-family="'Noto Sans JP'" font-size="10px">07-01 00</text>
     </g>
    </g>
    <g id="cc">
     <g id="cd">
      <path d="m244.25 529.45v-236.09" clip-path="url(#a)" fill="none" stroke="#b0b0b0" stroke-linecap="square" stroke-opacity=".3" stroke-width=".8"/>
     </g>
     <g id="ce">
      <use x="244.251574" y="529.445464" stroke="#000000" stroke-width=".8" xlink:href="#c"/>
     </g>
     <g id="cf">
      <text transform="translate(208.48 563.36) rotate(-30)" font-family="'Noto Sans JP'" font-size="10px">07-01 12</text>
     </g>
    </g>
    <g id="cg">
     <g id="ch">
      <path d="m337.81 529.45v-236.09" clip-path="url(#a)" fill="none" stroke="#b0b0b0" stroke-linecap="square" stroke-opacity=".3" stroke-width=".8"/>
     </g>
     <g id="ci">
      <use x="337.811151" y="529.445464" stroke="#000000" stroke-width=".8" xlink:href="#c"/>
     </g>
     <g id="cj">
      <text transform="translate(302.04 563.36) rotate(-30)" font-family="'Noto Sans JP'" font-size="10px">07-02 00</text>
     </g>
    </g>
    <g id="ck">
     <g id="cl">
      <path d="m431.37 529.45v-236.09" clip-path="url(#a)" fill="none" stroke="#b0b0b0" stroke-linecap="square" stroke-opacity=".3" stroke-width=".8"/>
     </g>
     <g id="cm">
      <use x="431.370728" y="529.445464" stroke="#000000" stroke-width=".8" xlink:href="#c"/>
     </g>
     <g id="cn">
      <text transform="translate(395.6 563.36) rotate(-30)" font-family="'Noto Sans JP'" font-size="10px">07-02 12</text>
     </g>
    </g>
    <g id="co">
     <g id="cp">
      <path d="m524.93 529.45v-236.09" clip-path="url(#a)" fill="none" stroke="#b0b0b0" stroke-linecap="square" stroke-opacity=".3" stroke-width=".8"/>
     </g>
     <g id="cq">
      <use x="524.930305" y="529.445464" stroke="#000000" stroke-width=".8" xlink:href="#c"/>
     </g>
     <g id="cr">
      <text transform="translate(489.16 563.36) rotate(-30)" font-family="'Noto Sans JP'" font-size="10px">07-03 00</text>
     </g>
    </g>
    <g id="cs">
     <g id="ct">
      <path d="m618.49 529.45v-236.09" clip-path="url(#a)" fill="none" stroke="#b0b0b0" stroke-linecap="square" stroke-opacity=".3" stroke-width=".8"/>
     </g>
     <g id="cu">
      <use x="618.489883" y="529.445464" stroke="#000000" stroke-width=".8" xlink:href="#c"/>
     </g>
     <g id="cv">
      <text transform="translate(582.72 563.36) rotate(-30)" font-family="'Noto Sans JP'" font-size="10px">07-03 12</text>
     </g>
    </g>
    <g id="cw">
     <g id="cx">
      <path d="m712.05 529.45v-236.09" clip-path="url(#a)" fill="none" stroke="#b0b0b0" stroke-linecap="square" stroke-opacity=".3" stroke-width=".8"/>
     </g>
     <g id="cy">
      <use x="712.04946" y="529.445464" stroke="#000000" stroke-width=".8" xlink:href="#c"/>
     </g>
     <g id="cz">
      <text transform="translate(676.28 563.36) rotate(-30)" font-family="'Noto Sans JP'" font-size="10px">07-04 00</text>
     </g>
    </g>
    <g id="da">
     <g id="db">
      <path d="m805.61 529.45v-236.09" clip-path="url(#a)" fill="none" stroke="#b0b0b0" stroke-linecap="square" stroke-opacity=".3" stroke-width=".8"/>
     </g>
     <g id="dc">
      <use x="805.609037" y="529.445464" stroke="#000000" stroke-width=".8" xlink:href="#c"/>
     </g>
     <g id="dd">
      <text transform="translate(769.84 563.36) rotate(-30)" font-family="'Noto Sans JP'" font-size="10px">07-04 12</text>
     </g>
    </g>
   </g>
   <g id="de">
    <g id="df">
     <g id="dg">
      <path d="m34.9 518.71h818.3" clip-path="url(#a)" fill="none" stroke="#b0b0b0" stroke-linecap="square" stroke-opacity=".3" stroke-width=".8"/>
     </g>
     <g id="dh">
      <use x="34.9" y="518.713976" stroke="#000000" stroke-width=".8" xlink:href="#d"/>
     </g>
     <g id="di">
      <text transform="rotate(-0 27.9 522.7)" x="27.9" y="522.699132" font-family="'Noto Sans JP'" font-size="10px" text-anchor="end">309</text>
     </g>
    </g>
    <g id="dj">
     <g id="dk">
      <path d="m34.9 447.17h818.3" clip-path="url(#a)" fill="none" stroke="#b0b0b0" stroke-linecap="square" stroke-opacity=".3" stroke-width=".8"/>
     </g>
     <g id="dl">
      <use x="34.9" y="447.170724" stroke="#000000" stroke-width=".8" xlink:href="#d"/>
     </g>
     <g id="dm">
      <text transform="rotate(-0 27.9 451.16)" x="27.9" y="451.15588" font-family="'Noto Sans JP'" font-size="10px" text-anchor="end">310</text>
     </g>
    </g>
    <g id="dn">
     <g id="do">
      <path d="m34.9 375.63h818.3" clip-path="url(#a)" fill="none" stroke="#b0b0b0" stroke-linecap="square" stroke-opacity=".3" stroke-width=".8"/>
     </g>
     <g id="dp">
      <use x="34.9" y="375.627472" stroke="#000000" stroke-width=".8" xlink:href="#d"/>
     </g>
     <g id="dq">
      <text transform="rotate(-0 27.9 379.61)" x="27.9" y="379.612628" font-family="'Noto Sans JP'" font-size="10px" text-anchor="end">311</text>
     </g>
    </g>
    <g id="dr">
     <g id="ds">
      <path d="m34.9 304.08h818.3" clip-path="url(#a)" fill="none" stroke="#b0b0b0" stroke-linecap="square" stroke-opacity=".3" stroke-width=".8"/>
     </g>
     <g id="dt">
      <use x="34.9" y="304.08422" stroke="#000000" stroke-width=".8" xlink:href="#d"/>
     </g>
     <g id="du">
      <text transform="rotate(-0 27.9 308.07)" x="27.9" y="308.069376" font-family="'Noto Sans JP'" font-size="10px" text-anchor="end">312</text>
     </g>
    </g>
   </g>
   <g id="dv">
    <path d="m72.095 447.17h4.5762l1.9448-71.543h35.042m17.542 0h13.644l1.9492-71.543h3.8983l1.9492 71.543h91.61l1.9492 71.543h79.915m13.644 0h13.644m7.7966 0h9.7458m17.542 0h38.983m19.492 0h191.02l.64972 71.543h5.1978l.64972-71.543h1.9492l.64972 71.543h42.232l1.2994-143.09h9.7458l.64972-71.543.64972 71.543h57.175l.64972-71.543h56.526v0" clip-path="url(#a)" fill="none" stroke="#28f" stroke-linecap="square" stroke-width="1.5"/>
   </g>
   <g id="dw">
    <path d="m34.9 529.45v-236.09" fill="none" stroke="#000" stroke-linecap="square" stroke-width=".8"/>
   </g>
   <g id="dx">
    <path d="m853.2 529.45v-236.09" fill="none" stroke="#000" stroke-linecap="square" stroke-width=".8"/>
   </g>
   <g id="dy">
    <path d="m34.9 529.45h818.3" fill="none" stroke="#000" stroke-linecap="square" stroke-width=".8"/>
   </g>
   <g id="dz">
    <path d="m34.9 293.35h818.3" fill="none" stroke="#000" stroke-linecap="square" stroke-width=".8"/>
   </g>
   <g id="ea">
    <text transform="rotate(-0 444.05 287.35)" x="444.05" y="287.352732" font-family="'Noto Sans JP'" font-size="12px" text-anchor="middle">サーバー数の推移</text>
   </g>
  </g>
 </g>
 <defs>
  <clipPath id="b">
   <rect x="34.9" y="26.88" width="818.3" height="236.09"/>
  </clipPath>
  <clipPath id="a">
   <rect x="34.9" y="293.35" width="818.3" height="236.09"/>
  </clipPath>
 </defs>
</svg>
