<!DOCTYPE svg  PUBLIC '-//W3C//DTD SVG 1.1//EN'  'http://www.w3.org/Graphics/SVG/1.1/DTD/svg11.dtd'>
<svg version="1.1" viewBox="0 0 864 576" xmlns="http://www.w3.org/2000/svg" xmlns:xlink="http://www.w3.org/1999/xlink">
 <defs>
  <style type="text/css">*{stroke-linejoin: round; stroke-linecap: butt}</style>
 </defs>
 <g id="e">
  <g id="f">
   <path d="m0 576h864v-576h-864z" fill="#fff"/>
  </g>
  <g id="g">
   <g id="h">
    <path d="m34.9 262.97h818.3v-236.09h-818.3z" fill="#fff"/>
   </g>
   <g id="i">
    <path d="m114.17 262.97h17.76v-236.09h-17.76z" clip-path="url(#b)" fill="#808080" opacity=".3" stroke="#808080"/>
   </g>
   <g id="j">
    <path d="m329.26 262.97h13.813v-236.09h-13.813z" clip-path="url(#b)" fill="#808080" opacity=".3" stroke="#808080"/>
   </g>
   <g id="k">
    <path d="m356.89 262.97h7.8931v-236.09h-7.8931z" clip-path="url(#b)" fill="#808080" opacity=".3" stroke="#808080"/>
   </g>
   <g id="l">
    <path d="m374.65 262.97h17.76v-236.09h-17.76z" clip-path="url(#b)" fill="#808080" opacity=".3" stroke="#808080"/>
   </g>
   <g id="m">
    <path d="m431.87 262.97h19.733v-236.09h-19.733z" clip-path="url(#b)" fill="#808080" opacity=".3" stroke="#808080"/>
   </g>
   <g id="n">
    <g id="o">
     <g id="p">
      <path d="m56.947 262.97v-236.09" clip-path="url(#b)" fill="none" stroke="#b0b0b0" stroke-linecap="square" stroke-opacity=".3" stroke-width=".8"/>
     </g>
     <g id="q">
      <defs>
       <path id="c" d="m0 0v3.5" stroke="#000" stroke-width=".8"/>
      </defs>
      <use x="56.947196" y="262.972732" stroke="#000000" stroke-width=".8" xlink:href="#c"/>
     </g>
    </g>
    <g id="r">
     <g id="s">
      <path d="m151.66 262.97v-236.09" clip-path="url(#b)" fill="none" stroke="#b0b0b0" stroke-linecap="square" stroke-opacity=".3" stroke-width=".8"/>
     </g>
     <g id="t">
      <use x="151.664924" y="262.972732" stroke="#000000" stroke-width=".8" xlink:href="#c"/>
     </g>
    </g>
    <g id="u">
     <g id="v">
      <path d="m246.38 262.97v-236.09" clip-path="url(#b)" fill="none" stroke="#b0b0b0" stroke-linecap="square" stroke-opacity=".3" stroke-width=".8"/>
     </g>
     <g id="w">
      <use x="246.382652" y="262.972732" stroke="#000000" stroke-width=".8" xlink:href="#c"/>
     </g>
    </g>
    <g id="x">
     <g id="y">
      <path d="m341.1 262.97v-236.09" clip-path="url(#b)" fill="none" stroke="#b0b0b0" stroke-linecap="square" stroke-opacity=".3" stroke-width=".8"/>
     </g>
     <g id="z">
      <use x="341.10038" y="262.972732" stroke="#000000" stroke-width=".8" xlink:href="#c"/>
     </g>
    </g>
    <g id="aa">
     <g id="ab">
      <path d="m435.82 262.97v-236.09" clip-path="url(#b)" fill="none" stroke="#b0b0b0" stroke-linecap="square" stroke-opacity=".3" stroke-width=".8"/>
     </g>
     <g id="ac">
      <use x="435.818109" y="262.972732" stroke="#000000" stroke-width=".8" xlink:href="#c"/>
     </g>
    </g>
    <g id="ad">
     <g id="ae">
      <path d="m530.54 262.97v-236.09" clip-path="url(#b)" fill="none" stroke="#b0b0b0" stroke-linecap="square" stroke-opacity=".3" stroke-width=".8"/>
     </g>
     <g id="af">
      <use x="530.535837" y="262.972732" stroke="#000000" stroke-width=".8" xlink:href="#c"/>
     </g>
    </g>
    <g id="ag">
     <g id="ah">
      <path d="m625.25 262.97v-236.09" clip-path="url(#b)" fill="none" stroke="#b0b0b0" stroke-linecap="square" stroke-opacity=".3" stroke-width=".8"/>
     </g>
     <g id="ai">
      <use x="625.253565" y="262.972732" stroke="#000000" stroke-width=".8" xlink:href="#c"/>
     </g>
    </g>
    <g id="aj">
     <g id="ak">
      <path d="m719.97 262.97v-236.09" clip-path="url(#b)" fill="none" stroke="#b0b0b0" stroke-linecap="square" stroke-opacity=".3" stroke-width=".8"/>
     </g>
     <g id="al">
      <use x="719.971293" y="262.972732" stroke="#000000" stroke-width=".8" xlink:href="#c"/>
     </g>
    </g>
    <g id="am">
     <g id="an">
      <path d="m814.69 262.97v-236.09" clip-path="url(#b)" fill="none" stroke="#b0b0b0" stroke-linecap="square" stroke-opacity=".3" stroke-width=".8"/>
     </g>
     <g id="ao">
      <use x="814.689021" y="262.972732" stroke="#000000" stroke-width=".8" xlink:href="#c"/>
     </g>
    </g>
   </g>
   <g id="ap">
    <g id="aq">
     <g id="ar">
      <path d="m34.9 252.24h818.3" clip-path="url(#b)" fill="none" stroke="#b0b0b0" stroke-linecap="square" stroke-opacity=".3" stroke-width=".8"/>
     </g>
     <g id="as">
      <defs>
       <path id="d" d="m0 0h-3.5" stroke="#000" stroke-width=".8"/>
      </defs>
      <use x="34.9" y="252.241244" stroke="#000000" stroke-width=".8" xlink:href="#d"/>
     </g>
     <g id="at">
      <text transform="rotate(-0 27.9 256.23)" x="27.9" y="256.2264" font-family="'Noto Sans JP'" font-size="10px" text-anchor="end">0</text>
     </g>
    </g>
    <g id="au">
     <g id="av">
      <path d="m34.9 180.7h818.3" clip-path="url(#b)" fill="none" stroke="#b0b0b0" stroke-linecap="square" stroke-opacity=".3" stroke-width=".8"/>
     </g>
     <g id="aw">
      <use x="34.9" y="180.697992" stroke="#000000" stroke-width=".8" xlink:href="#d"/>
     </g>
     <g id="ax">
      <text transform="rotate(-0 27.9 184.68)" x="27.9" y="184.683148" font-family="'Noto Sans JP'" font-size="10px" text-anchor="end">1</text>
     </g>
    </g>
    <g id="ay">
     <g id="az">
      <path d="m34.9 109.15h818.3" clip-path="url(#b)" fill="none" stroke="#b0b0b0" stroke-linecap="square" stroke-opacity=".3" stroke-width=".8"/>
     </g>
     <g id="ba">
      <use x="34.9" y="109.15474" stroke="#000000" stroke-width=".8" xlink:href="#d"/>
     </g>
     <g id="bb">
      <text transform="rotate(-0 27.9 113.14)" x="27.9" y="113.139896" font-family="'Noto Sans JP'" font-size="10px" text-anchor="end">2</text>
     </g>
    </g>
    <g id="bc">
     <g id="bd">
      <path d="m34.9 37.611h818.3" clip-path="url(#b)" fill="none" stroke="#b0b0b0" stroke-linecap="square" stroke-opacity=".3" stroke-width=".8"/>
     </g>
     <g id="be">
      <use x="34.9" y="37.611488" stroke="#000000" stroke-width=".8" xlink:href="#d"/>
     </g>
     <g id="bf">
      <text transform="rotate(-0 27.9 41.597)" x="27.9" y="41.596644" font-family="'Noto Sans JP'" font-size="10px" text-anchor="end">3</text>
     </g>
    </g>
   </g>
   <g id="bg">
    <path d="m72.095 109.15h4.6328l1.9689-71.543h7.9589l1.9777 71.543h25.539m17.76 0h13.813l1.9733-71.543 1.9733 71.543h116.42l1.9733-71.543 1.9733 71.543h59.199m13.813 0h13.813m7.8931 0h9.8664m17.76 0h39.466m19.733 143.09h199.3l.65776-71.543h.65776l.65776 71.543h18.417l.65776-71.543h5.2621l.65776 71.543h19.733l.65776-71.543.65776 71.543h1.9733l.65776-71.543h12.497l.65776 71.543h56.568l.65776-71.543h1.9733l.65776 71.543h41.439v0" clip-path="url(#b)" fill="none" stroke="#28f" stroke-linecap="square" stroke-width="1.5"/>
   </g>
   <g id="bh">
    <path d="m34.9 262.97v-236.09" fill="none" stroke="#000" stroke-linecap="square" stroke-width=".8"/>
   </g>
   <g id="bi">
    <path d="m853.2 262.97v-236.09" fill="none" stroke="#000" stroke-linecap="square" stroke-width=".8"/>
   </g>
   <g id="bj">
    <path d="m34.9 262.97h818.3" fill="none" stroke="#000" stroke-linecap="square" stroke-width=".8"/>
   </g>
   <g id="bk">
    <path d="m34.9 26.88h818.3" fill="none" stroke="#000" stroke-linecap="square" stroke-width=".8"/>
   </g>
   <g id="bl">
    <text transform="rotate(-0 444.05 20.88)" x="444.05" y="20.88" font-family="'Noto Sans JP'" font-size="12px" text-anchor="middle">同時接続数の推移</text>
   </g>
  </g>
  <g id="bm">
   <g id="bn">
    <path d="m34.9 529.45h818.3v-236.09h-818.3z" fill="#fff"/>
   </g>
   <g id="bo">
    <path d="m114.17 529.45h17.76v-236.09h-17.76z" clip-path="url(#a)" fill="#808080" opacity=".3" stroke="#808080"/>
   </g>
   <g id="bp">
    <path d="m329.26 529.45h13.813v-236.09h-13.813z" clip-path="url(#a)" fill="#808080" opacity=".3" stroke="#808080"/>
   </g>
   <g id="bq">
    <path d="m356.89 529.45h7.8931v-236.09h-7.8931z" clip-path="url(#a)" fill="#808080" opacity=".3" stroke="#808080"/>
   </g>
   <g id="br">
    <path d="m374.65 529.45h17.76v-236.09h-17.76z" clip-path="url(#a)" fill="#808080" opacity=".3" stroke="#808080"/>
   </g>
   <g id="bs">
    <path d="m431.87 529.45h19.733v-236.09h-19.733z" clip-path="url(#a)" fill="#808080" opacity=".3" stroke="#808080"/>
   </g>
   <g id="bt">
    <g id="bu">
     <g id="bv">
      <path d="m56.947 529.45v-236.09" clip-path="url(#a)" fill="none" stroke="#b0b0b0" stroke-linecap="square" stroke-opacity=".3" stroke-width=".8"/>
     </g>
     <g id="bw">
      <use x="56.947196" y="529.445464" stroke="#000000" stroke-width=".8" xlink:href="#c"/>
     </g>
     <g id="bx">
      <text transform="translate(21.174 563.36) rotate(-30)" font-family="'Noto Sans JP'" font-size="10px">06-30 12</text>
     </g>
    </g>
    <g id="by">
     <g id="bz">
      <path d="m151.66 529.45v-236.09" clip-path="url(#a)" fill="none" stroke="#b0b0b0" stroke-linecap="square" stroke-opacity=".3" stroke-width=".8"/>
     </g>
     <g id="ca">
      <use x="151.664924" y="529.445464" stroke="#000000" stroke-width=".8" xlink:href="#c"/>
     </g>
     <g id="cb">
      <text transform="translate(115.89 563.36) rotate(-30)" font-family="'Noto Sans JP'" font-size="10px">07-01 00</text>
     </g>
    </g>
    <g id="cc">
     <g id="cd">
      <path d="m246.38 529.45v-236.09" clip-path="url(#a)" fill="none" stroke="#b0b0b0" stroke-linecap="square" stroke-opacity=".3" stroke-width=".8"/>
     </g>
     <g id="ce">
      <use x="246.382652" y="529.445464" stroke="#000000" stroke-width=".8" xlink:href="#c"/>
     </g>
     <g id="cf">
      <text transform="translate(210.61 563.36) rotate(-30)" font-family="'Noto Sans JP'" font-size="10px">07-01 12</text>
     </g>
    </g>
    <g id="cg">
     <g id="ch">
      <path d="m341.1 529.45v-236.09" clip-path="url(#a)" fill="none" stroke="#b0b0b0" stroke-linecap="square" stroke-opacity=".3" stroke-width=".8"/>
     </g>
     <g id="ci">
      <use x="341.10038" y="529.445464" stroke="#000000" stroke-width=".8" xlink:href="#c"/>
     </g>
     <g id="cj">
      <text transform="translate(305.33 563.36) rotate(-30)" font-family="'Noto Sans JP'" font-size="10px">07-02 00</text>
     </g>
    </g>
    <g id="ck">
     <g id="cl">
      <path d="m435.82 529.45v-236.09" clip-path="url(#a)" fill="none" stroke="#b0b0b0" stroke-linecap="square" stroke-opacity=".3" stroke-width=".8"/>
     </g>
     <g id="cm">
      <use x="435.818109" y="529.445464" stroke="#000000" stroke-width=".8" xlink:href="#c"/>
     </g>
     <g id="cn">
      <text transform="translate(400.04 563.36) rotate(-30)" font-family="'Noto Sans JP'" font-size="10px">07-02 12</text>
     </g>
    </g>
    <g id="co">
     <g id="cp">
      <path d="m530.54 529.45v-236.09" clip-path="url(#a)" fill="none" stroke="#b0b0b0" stroke-linecap="square" stroke-opacity=".3" stroke-width=".8"/>
     </g>
     <g id="cq">
      <use x="530.535837" y="529.445464" stroke="#000000" stroke-width=".8" xlink:href="#c"/>
     </g>
     <g id="cr">
      <text transform="translate(494.76 563.36) rotate(-30)" font-family="'Noto Sans JP'" font-size="10px">07-03 00</text>
     </g>
    </g>
    <g id="cs">
     <g id="ct">
      <path d="m625.25 529.45v-236.09" clip-path="url(#a)" fill="none" stroke="#b0b0b0" stroke-linecap="square" stroke-opacity=".3" stroke-width=".8"/>
     </g>
     <g id="cu">
      <use x="625.253565" y="529.445464" stroke="#000000" stroke-width=".8" xlink:href="#c"/>
     </g>
     <g id="cv">
      <text transform="translate(589.48 563.36) rotate(-30)" font-family="'Noto Sans JP'" font-size="10px">07-03 12</text>
     </g>
    </g>
    <g id="cw">
     <g id="cx">
      <path d="m719.97 529.45v-236.09" clip-path="url(#a)" fill="none" stroke="#b0b0b0" stroke-linecap="square" stroke-opacity=".3" stroke-width=".8"/>
     </g>
     <g id="cy">
      <use x="719.971293" y="529.445464" stroke="#000000" stroke-width=".8" xlink:href="#c"/>
     </g>
     <g id="cz">
      <text transform="translate(684.2 563.36) rotate(-30)" font-family="'Noto Sans JP'" font-size="10px">07-04 00</text>
     </g>
    </g>
    <g id="da">
     <g id="db">
      <path d="m814.69 529.45v-236.09" clip-path="url(#a)" fill="none" stroke="#b0b0b0" stroke-linecap="square" stroke-opacity=".3" stroke-width=".8"/>
     </g>
     <g id="dc">
      <use x="814.689021" y="529.445464" stroke="#000000" stroke-width=".8" xlink:href="#c"/>
     </g>
     <g id="dd">
      <text transform="translate(778.92 563.36) rotate(-30)" font-family="'Noto Sans JP'" font-size="10px">07-04 12</text>
     </g>
    </g>
   </g>
   <g id="de">
    <g id="df">
     <g id="dg">
      <path d="m34.9 518.71h818.3" clip-path="url(#a)" fill="none" stroke="#b0b0b0" stroke-linecap="square" stroke-opacity=".3" stroke-width=".8"/>
     </g>
     <g id="dh">
      <use x="34.9" y="518.713976" stroke="#000000" stroke-width=".8" xlink:href="#d"/>
     </g>
     <g id="di">
      <text transform="rotate(-0 27.9 522.7)" x="27.9" y="522.699132" font-family="'Noto Sans JP'" font-size="10px" text-anchor="end">309</text>
     </g>
    </g>
    <g id="dj">
     <g id="dk">
      <path d="m34.9 447.17h818.3" clip-path="url(#a)" fill="none" stroke="#b0b0b0" stroke-linecap="square" stroke-opacity=".3" stroke-width=".8"/>
     </g>
     <g id="dl">
      <use x="34.9" y="447.170724" stroke="#000000" stroke-width=".8" xlink:href="#d"/>
     </g>
     <g id="dm">
      <text transform="rotate(-0 27.9 451.16)" x="27.9" y="451.15588" font-family="'Noto Sans JP'" font-size="10px" text-anchor="end">310</text>
     </g>
    </g>
    <g id="dn">
     <g id="do">
      <path d="m34.9 375.63h818.3" clip-path="url(#a)" fill="none" stroke="#b0b0b0" stroke-linecap="square" stroke-opacity=".3" stroke-width=".8"/>
     </g>
     <g id="dp">
      <use x="34.9" y="375.627472" stroke="#000000" stroke-width=".8" xlink:href="#d"/>
     </g>
     <g id="dq">
      <text transform="rotate(-0 27.9 379.61)" x="27.9" y="379.612628" font-family="'Noto Sans JP'" font-size="10px" text-anchor="end">311</text>
     </g>
    </g>
    <g id="dr">
     <g id="ds">
      <path d="m34.9 304.08h818.3" clip-path="url(#a)" fill="none" stroke="#b0b0b0" stroke-linecap="square" stroke-opacity=".3" stroke-width=".8"/>
     </g>
     <g id="dt">
      <use x="34.9" y="304.08422" stroke="#000000" stroke-width=".8" xlink:href="#d"/>
     </g>
     <g id="du">
      <text transform="rotate(-0 27.9 308.07)" x="27.9" y="308.069376" font-family="'Noto Sans JP'" font-size="10px" text-anchor="end">312</text>
     </g>
    </g>
   </g>
   <g id="dv">
    <path d="m72.095 447.17h4.6328l1.9689-71.543h35.475m17.76 0h13.813l1.9733-71.543h3.9466l1.9733 71.543h92.744l1.9733 71.543h80.905m13.813 0h13.813m7.8931 0h9.8664m17.76 0h39.466m19.733 0h193.38l.65776 71.543h5.2621l.65776-71.543h1.9733l.65776 71.543h42.755l1.3155-143.09h9.8664l.65776-71.543.65776 71.543h57.883l.65776-71.543h48.017v0" clip-path="url(#a)" fill="none" stroke="#28f" stroke-linecap="square" stroke-width="1.5"/>
   </g>
   <g id="dw">
    <path d="m34.9 529.45v-236.09" fill="none" stroke="#000" stroke-linecap="square" stroke-width=".8"/>
   </g>
   <g id="dx">
    <path d="m853.2 529.45v-236.09" fill="none" stroke="#000" stroke-linecap="square" stroke-width=".8"/>
   </g>
   <g id="dy">
    <path d="m34.9 529.45h818.3" fill="none" stroke="#000" stroke-linecap="square" stroke-width=".8"/>
   </g>
   <g id="dz">
    <path d="m34.9 293.35h818.3" fill="none" stroke="#000" stroke-linecap="square" stroke-width=".8"/>
   </g>
   <g id="ea">
    <text transform="rotate(-0 444.05 287.35)" x="444.05" y="287.352732" font-family="'Noto Sans JP'" font-size="12px" text-anchor="middle">サーバー数の推移</text>
   </g>
  </g>
 </g>
 <defs>
  <clipPath id="b">
   <rect x="34.9" y="26.88" width="818.3" height="236.09"/>
  </clipPath>
  <clipPath id="a">
   <rect x="34.9" y="293.35" width="818.3" height="236.09"/>
  </clipPath>
 </defs>
</svg>
