<!DOCTYPE svg  PUBLIC '-//W3C//DTD SVG 1.1//EN'  'http://www.w3.org/Graphics/SVG/1.1/DTD/svg11.dtd'>
<svg version="1.1" viewBox="0 0 864 576" xmlns="http://www.w3.org/2000/svg" xmlns:xlink="http://www.w3.org/1999/xlink">
 <defs>
  <style type="text/css">*{stroke-linejoin: round; stroke-linecap: butt}</style>
 </defs>
 <g id="aa">
  <g id="ab">
   <path d="m0 576h864v-576h-864z" fill="#fff"/>
  </g>
  <g id="ac">
   <g id="ad">
    <path d="m52 259.78h801.2v-232.9h-801.2z" fill="#fff"/>
   </g>
   <g id="ae">
    <path d="m417.71 259.78h.32531v-232.9h-.32531z" clip-path="url(#d)" fill="#ddd" stroke="#ddd"/>
   </g>
   <g id="af">
    <path d="m418.2 259.78h.16265v-232.9h-.16265z" clip-path="url(#d)" fill="#ddd" stroke="#ddd"/>
   </g>
   <g id="ag">
    <path d="m719.68 259.78h.81327v-232.9h-.81327z" clip-path="url(#d)" fill="#ddd" stroke="#ddd"/>
   </g>
   <g id="ah">
    <path d="m732.36 259.78h.16265v-232.9h-.16265z" clip-path="url(#d)" fill="#ddd" stroke="#ddd"/>
   </g>
   <g id="ai">
    <g id="aj">
     <g id="ak">
      <path d="m111.52 259.78v-232.9" clip-path="url(#d)" fill="none" stroke="#b0b0b0" stroke-linecap="square" stroke-opacity=".3" stroke-width=".8"/>
     </g>
     <g id="al">
      <defs>
       <path id="f" d="m0 0v3.5" stroke="#000" stroke-width=".8"/>
      </defs>
      <use x="111.515019" y="259.777732" stroke="#000000" stroke-width=".8" xlink:href="#f"/>
     </g>
    </g>
    <g id="am">
     <g id="an">
      <path d="m205.2 259.78v-232.9" clip-path="url(#d)" fill="none" stroke="#b0b0b0" stroke-linecap="square" stroke-opacity=".3" stroke-width=".8"/>
     </g>
     <g id="ao">
      <use x="205.203597" y="259.777732" stroke="#000000" stroke-width=".8" xlink:href="#f"/>
     </g>
    </g>
    <g id="ap">
     <g id="aq">
      <path d="m298.89 259.78v-232.9" clip-path="url(#d)" fill="none" stroke="#b0b0b0" stroke-linecap="square" stroke-opacity=".3" stroke-width=".8"/>
     </g>
     <g id="ar">
      <use x="298.892176" y="259.777732" stroke="#000000" stroke-width=".8" xlink:href="#f"/>
     </g>
    </g>
    <g id="as">
     <g id="at">
      <path d="m369.16 259.78v-232.9" clip-path="url(#d)" fill="none" stroke="#b0b0b0" stroke-linecap="square" stroke-opacity=".3" stroke-width=".8"/>
     </g>
     <g id="au">
      <use x="369.15861" y="259.777732" stroke="#000000" stroke-width=".8" xlink:href="#f"/>
     </g>
    </g>
    <g id="av">
     <g id="aw">
      <path d="m462.85 259.78v-232.9" clip-path="url(#d)" fill="none" stroke="#b0b0b0" stroke-linecap="square" stroke-opacity=".3" stroke-width=".8"/>
     </g>
     <g id="ax">
      <use x="462.847188" y="259.777732" stroke="#000000" stroke-width=".8" xlink:href="#f"/>
     </g>
    </g>
    <g id="ay">
     <g id="az">
      <path d="m556.54 259.78v-232.9" clip-path="url(#d)" fill="none" stroke="#b0b0b0" stroke-linecap="square" stroke-opacity=".3" stroke-width=".8"/>
     </g>
     <g id="ba">
      <use x="556.535767" y="259.777732" stroke="#000000" stroke-width=".8" xlink:href="#f"/>
     </g>
    </g>
    <g id="bb">
     <g id="bc">
      <path d="m650.22 259.78v-232.9" clip-path="url(#d)" fill="none" stroke="#b0b0b0" stroke-linecap="square" stroke-opacity=".3" stroke-width=".8"/>
     </g>
     <g id="bd">
      <use x="650.224345" y="259.777732" stroke="#000000" stroke-width=".8" xlink:href="#f"/>
     </g>
    </g>
    <g id="be">
     <g id="bf">
      <path d="m743.91 259.78v-232.9" clip-path="url(#d)" fill="none" stroke="#b0b0b0" stroke-linecap="square" stroke-opacity=".3" stroke-width=".8"/>
     </g>
     <g id="bg">
      <use x="743.912924" y="259.777732" stroke="#000000" stroke-width=".8" xlink:href="#f"/>
     </g>
    </g>
    <g id="bh">
     <g id="bi">
      <path d="m837.6 259.78v-232.9" clip-path="url(#d)" fill="none" stroke="#b0b0b0" stroke-linecap="square" stroke-opacity=".3" stroke-width=".8"/>
     </g>
     <g id="bj">
      <use x="837.601502" y="259.777732" stroke="#000000" stroke-width=".8" xlink:href="#f"/>
     </g>
    </g>
   </g>
   <g id="bk">
    <g id="bl">
     <g id="bm">
      <path d="m52 246.43h801.2" clip-path="url(#d)" fill="none" stroke="#b0b0b0" stroke-linecap="square" stroke-opacity=".3" stroke-width=".8"/>
     </g>
     <g id="bn">
      <defs>
       <path id="g" d="m0 0h-3.5" stroke="#000" stroke-width=".8"/>
      </defs>
      <use x="52" y="246.425113" stroke="#000000" stroke-width=".8" xlink:href="#g"/>
     </g>
     <g id="bo">
      <!-- 250 -->
      <g transform="translate(27.9 250.41) scale(.1 -.1)">
       <defs>
        <path id="b" transform="scale(.015625)" d="m282 0v429q697 621 1164 1136 468 515 701 956 234 442 234 826 0 256-87 451-86 196-262 301-176 106-445 106-275 0-506-151-230-150-422-368l-416 410q301 333 637 518 336 186 803 186 429 0 749-176t496-493 176-745q0-455-224-919t-615-935q-390-470-889-950 186 20 394 36t374 16h1184v-634h-3046z"/>
        <path id="i" transform="scale(.015625)" d="m1715-90q-365 0-653 90t-506 237q-217 147-383 307l352 480q134-134 294-246t361-183q202-70 452-70 262 0 473 118 212 119 333 346 122 227 122 541 0 460-247 716-246 256-649 256-224 0-384-64t-365-198l-365 237 141 2240h2387v-627h-1747l-109-1204q154 77 307 118 154 42 340 42 397 0 723-160t518-490q192-329 192-847 0-519-224-887t-586-560q-361-192-777-192z"/>
        <path id="a" transform="scale(.015625)" d="m1830-90q-460 0-806 275-346 276-535 823-188 547-188 1366 0 820 188 1357 189 538 535 803 346 266 806 266 461 0 800-269 340-269 528-803 189-534 189-1354 0-819-189-1366-188-547-528-823-339-275-800-275zm0 589q237 0 422 185 186 186 288 599 103 413 103 1091 0 679-103 1082-102 403-288 582-185 180-422 180-236 0-422-180-186-179-292-582-105-403-105-1082 0-678 105-1091 106-413 292-599 186-185 422-185z"/>
       </defs>
       <use xlink:href="#b"/>
       <use transform="translate(57)" xlink:href="#i"/>
       <use transform="translate(114)" xlink:href="#a"/>
      </g>
     </g>
    </g>
    <g id="bp">
     <g id="bq">
      <path d="m52 221.73h801.2" clip-path="url(#d)" fill="none" stroke="#b0b0b0" stroke-linecap="square" stroke-opacity=".3" stroke-width=".8"/>
     </g>
     <g id="br">
      <use x="52" y="221.725485" stroke="#000000" stroke-width=".8" xlink:href="#g"/>
     </g>
     <g id="bs">
      <!-- 500 -->
      <g transform="translate(27.9 225.71) scale(.1 -.1)">
       <use xlink:href="#i"/>
       <use transform="translate(57)" xlink:href="#a"/>
       <use transform="translate(114)" xlink:href="#a"/>
      </g>
     </g>
    </g>
    <g id="bt">
     <g id="bu">
      <path d="m52 197.03h801.2" clip-path="url(#d)" fill="none" stroke="#b0b0b0" stroke-linecap="square" stroke-opacity=".3" stroke-width=".8"/>
     </g>
     <g id="bv">
      <use x="52" y="197.025857" stroke="#000000" stroke-width=".8" xlink:href="#g"/>
     </g>
     <g id="bw">
      <!-- 750 -->
      <g transform="translate(27.9 201.01) scale(.1 -.1)">
       <defs>
        <path id="m" transform="scale(.015625)" d="m1235 0q32 646 109 1187t224 1024 384 941 576 938h-2208v627h3027v-455q-409-512-665-989-256-476-397-969t-205-1053-90-1251h-755z"/>
       </defs>
       <use xlink:href="#m"/>
       <use transform="translate(57)" xlink:href="#i"/>
       <use transform="translate(114)" xlink:href="#a"/>
      </g>
     </g>
    </g>
    <g id="bx">
     <g id="by">
      <path d="m52 172.33h801.2" clip-path="url(#d)" fill="none" stroke="#b0b0b0" stroke-linecap="square" stroke-opacity=".3" stroke-width=".8"/>
     </g>
     <g id="bz">
      <use x="52" y="172.326229" stroke="#000000" stroke-width=".8" xlink:href="#g"/>
     </g>
     <g id="ca">
      <!-- 1000 -->
      <g transform="translate(22.2 176.31) scale(.1 -.1)">
       <defs>
        <path id="e" transform="scale(.015625)" d="m544 0v608h1037v3277h-845v467q333 58 579 147 247 90 451 218h557v-4109h915v-608h-2694z"/>
       </defs>
       <use xlink:href="#e"/>
       <use transform="translate(57)" xlink:href="#a"/>
       <use transform="translate(114)" xlink:href="#a"/>
       <use transform="translate(171)" xlink:href="#a"/>
      </g>
     </g>
    </g>
    <g id="cb">
     <g id="cc">
      <path d="m52 147.63h801.2" clip-path="url(#d)" fill="none" stroke="#b0b0b0" stroke-linecap="square" stroke-opacity=".3" stroke-width=".8"/>
     </g>
     <g id="cd">
      <use x="52" y="147.626601" stroke="#000000" stroke-width=".8" xlink:href="#g"/>
     </g>
     <g id="ce">
      <!-- 1250 -->
      <g transform="translate(22.2 151.61) scale(.1 -.1)">
       <use xlink:href="#e"/>
       <use transform="translate(57)" xlink:href="#b"/>
       <use transform="translate(114)" xlink:href="#i"/>
       <use transform="translate(171)" xlink:href="#a"/>
      </g>
     </g>
    </g>
    <g id="cf">
     <g id="cg">
      <path d="m52 122.93h801.2" clip-path="url(#d)" fill="none" stroke="#b0b0b0" stroke-linecap="square" stroke-opacity=".3" stroke-width=".8"/>
     </g>
     <g id="ch">
      <use x="52" y="122.926973" stroke="#000000" stroke-width=".8" xlink:href="#g"/>
     </g>
     <g id="ci">
      <!-- 1500 -->
      <g transform="translate(22.2 126.91) scale(.1 -.1)">
       <use xlink:href="#e"/>
       <use transform="translate(57)" xlink:href="#i"/>
       <use transform="translate(114)" xlink:href="#a"/>
       <use transform="translate(171)" xlink:href="#a"/>
      </g>
     </g>
    </g>
    <g id="cj">
     <g id="ck">
      <path d="m52 98.227h801.2" clip-path="url(#d)" fill="none" stroke="#b0b0b0" stroke-linecap="square" stroke-opacity=".3" stroke-width=".8"/>
     </g>
     <g id="cl">
      <use x="52" y="98.227345" stroke="#000000" stroke-width=".8" xlink:href="#g"/>
     </g>
     <g id="cm">
      <!-- 1750 -->
      <g transform="translate(22.2 102.21) scale(.1 -.1)">
       <use xlink:href="#e"/>
       <use transform="translate(57)" xlink:href="#m"/>
       <use transform="translate(114)" xlink:href="#i"/>
       <use transform="translate(171)" xlink:href="#a"/>
      </g>
     </g>
    </g>
    <g id="cn">
     <g id="co">
      <path d="m52 73.528h801.2" clip-path="url(#d)" fill="none" stroke="#b0b0b0" stroke-linecap="square" stroke-opacity=".3" stroke-width=".8"/>
     </g>
     <g id="cp">
      <use x="52" y="73.527717" stroke="#000000" stroke-width=".8" xlink:href="#g"/>
     </g>
     <g id="cq">
      <!-- 2000 -->
      <g transform="translate(22.2 77.513) scale(.1 -.1)">
       <use xlink:href="#b"/>
       <use transform="translate(57)" xlink:href="#a"/>
       <use transform="translate(114)" xlink:href="#a"/>
       <use transform="translate(171)" xlink:href="#a"/>
      </g>
     </g>
    </g>
    <g id="cr">
     <g id="cs">
      <path d="m52 48.828h801.2" clip-path="url(#d)" fill="none" stroke="#b0b0b0" stroke-linecap="square" stroke-opacity=".3" stroke-width=".8"/>
     </g>
     <g id="ct">
      <use x="52" y="48.828089" stroke="#000000" stroke-width=".8" xlink:href="#g"/>
     </g>
     <g id="cu">
      <!-- 2250 -->
      <g transform="translate(22.2 52.813) scale(.1 -.1)">
       <use xlink:href="#b"/>
       <use transform="translate(57)" xlink:href="#b"/>
       <use transform="translate(114)" xlink:href="#i"/>
       <use transform="translate(171)" xlink:href="#a"/>
      </g>
     </g>
    </g>
   </g>
   <g id="cv">
    <path d="m88.418 82.222 2.7651 71.234 1.2199 22.427.16265.69159.32531 4.5447.24398 2.6676.16265 2.1736.32531 2.2724.48796 4.8411 1.4639 9.9786h.081327l.24398.98799.16265.39519.081326-.39519.081327.1976.081327-.59279.081327.1976.32531.98799h.16265l.081327-.88919.16265.1976.24398-1.2844.24398-.59279.081326.1976.16265-.59279.16265-.79039.16265.2964.81327-4.5447.081327-.098798.73194-4.9399.16265-1.2844.24398-1.2844.32531-3.1616.16265-.88919.16265-2.2724.081327-.2964.40663-4.0507.081327-.59279.081327-1.7784.081327.1976.40664-2.964.16265-.88919.081327-2.1736.081327.1976.16265-.98798.32531-2.6676.081326.59279.24398-2.6676.32531-2.5688.16265-1.0868.081327-.1976.16265-1.6796h.081327l.48796-2.6676.16265.59279.24398-1.0868.16265-.1976.081326.1976.081327-.1976.16265-.59279.16265.98798.081327-.2964h.081327l.16265.1976.16265-.79039.16265-.98798.16265-.49399.24398.69159.24398 1.2844.081327-.2964.081327-.1976.32531-2.3712.8946-24.107.48796-17.586.65062-22.526.81327-18.475.081327-.1976.16265-2.2724.16265.39519.081327.098799.081327-.88919.081327.59279.081327-.098798.081327-.59279.081327.098798.081326 1.5808.081327-.098798.081327.098798.81327 17.685.24398 5.1375.81327 22.328.40663 9.9786.65062 15.907.24398 4.6435.40663 8.7931.081327.49399.81327 14.029.56929 8.9907.40664 5.2363 1.3012 10.571.081327.098798.73194 4.6435.24398 1.1856.081327-.49399.081327.1976.16265 1.482.081327-.1976.48796 1.482.081326-.098798.081327-.2964.081327.1976.24398-1.7784.081327-.2964.081327-.98798.081327.59279.081326-.1976.081327.098799.081327-.2964.24398-1.7784.081327-.49399.081327.2964.40663-3.6555.081327-.1976.081327-.79039.081327.1976.081327.2964.081327-.2964.081327-.79039.081326.098798.16265-.1976.24398-1.482.24398-.79039h.081326l.081327.1976.081327.59279.24398-1.8772.081327.1976.24398-.88919.081327.098799.081327-1.1856.081327.39519.24398-1.482.32531-3.6555.48796-2.47.081327-.2964.24398-1.6796.081327-.49399.32531-3.3592.24398-1.6796.081327-.098799.56929-3.9519.081326.39519.16265-2.3712h.081327l.16265-1.0868.081327.098798.081327.59279.081327-1.5808.081326.59279.40664-2.6676.24398-1.8772.24398-2.0748.081327-.098799.40664-2.5688.081326.1976.16265-.39519.081327-1.0868.081327.098799.081327-.39519.081327.2964.081327-.49399.16265.39519.16265.69159.16265.49399.081327-.2964.16265.79039.16265-.79039.65062-8.9907.81327-23.119.65062-24.502 1.1386-35.469.16265-2.2724.24398-4.6435.081326.88919.081327-.79039.24398 2.2724.081327-.1976.16265 1.3832.8946 12.053.40663 12.35.16265 2.7664.97592 21.933.32531 8.1015.65062 17.981.16265 2.3712 1.6265 33.394.16265 1.8772.24398 4.3471.24398 2.47.40663 4.1495.081327.39519.16265 1.5808.081327.2964.32531 2.6676.65062 4.7423.40663 1.8772.24398.59279.081327.098799.16265 1.1856.081327-.2964.081327-.098798.32531-1.2844.16265.49399.16265-.2964.081327.098799.16265-.59279.081327.2964.081327-.69159.081327.1976.081327-.1976.16265.79039.081327-.49399.081327.1976.56929-3.0628h.081327l.32531-4.8411.32531-2.47.56929-2.47.081326-1.2844.081327.098799.081327.1976.65062-5.3351.081327.098798.081327-.2964.16265-1.7784h.081327l.16265-1.482.24398-3.3591.16265-1.2844.24398-3.5567.081327.39519.40663-3.9519.081327.098799.081327.39519.24398-2.2724.081326.39519.32531-4.2483.081327.098798.24398-2.7664.32531-3.2604.16265-.39519.32531-3.0628.081326.1976.081327-.69159.16265 1.7784.16265-.49399h.081327l.16265.2964.081326-.69159.16265.59279h.081327l.081327.49399.081327-.39519.081327.39519.081327-.098798.081327.098798.16265-.2964.081327.1976.081327 1.3832.081327-.1976.081327-.69159.081327.098799h.081327l.24398-1.8772.081327-.39519.48796-6.2243.40663-12.251.24398-5.9279 2.0332-59.477.56929-6.2243.081327-.49399.48796-6.0267.16265.59279.16265 3.7543.081327-1.1856.24398 2.2724.081326-.2964.24398 5.4339.65062 13.931.48796 14.82.56929 12.35.32531 7.0147 2.7651 64.812.65062 7.3111.48796 4.0507.24398 1.976.16265.79039.24398 2.1736.40664 2.6676h.081327l.16265.2964.081327.098798.16265 1.0868.24398-.69159.081327-.098798.16265.79039.081327.88919.081327-.2964.16265-.79039.081327.098798.081327-.098798.16265-.79039.081326.2964.081327.1976.081327-.2964.081327.1976.081327-.39519.081327.098798.081327-.098798 1.1386-7.1135.16265-1.1856.65062-2.8652h.081327l.081327.79039.32531-2.6676.081326-.098798.24398-3.3592.16265-.88919.32531-4.7423.081327-.098798.65062-9.9786.24398-2.6676.8946-9.0895.24398-2.5688.40663-3.0628.16265-.98798.24398.59279.081326-.1976.081327-.69159.081327.1976.16265-.49399.16265 1.0868.16265-.2964.24398-2.2724.16265.59279.081327-.2964.16265.59279.081327-.49399.48796 3.2604.081327-.098799.081327.2964.24398 2.1736.081327-.098798.16265-2.0748.16265.88919.081327-.2964.32531-4.3471.8946-22.822.73194-27.071.40664-10.769h.081326l.8946-16.598.24398-1.976.16265 2.0748.16265-1.3832.081326-.39519.24398 2.6676.081327-.39519.16265 1.482.48796 13.535.081327.79039 2.7651 75.087.40664 6.4219.24398 5.2363.32531 5.8291.24398 3.5567.081327-.098798.24398 2.7664.16265 2.5688.081327.098799.081327.49399.24398 3.0628 1.5452 10.868.081327-.79039.16265 1.7784.081327-.2964.081327.1976.081327-.098798.16265.2964.081326.1976.16265.98798.081327-.098798.081327.098798.16265 1.1856.24398.88919.081327-.39519.16265.49399.081327-.59279.16265 1.1856.081327-.098799.16265.1976.081327-.1976.24398 1.1856.081327-.098798.65062-1.976.081327.59279.16265-.88919.16265.1976.24398-2.0748.24398-1.0868h.081327l.081327.1976.081327-.098799.32531-1.7784h.081327l.081327-1.3832.081327.098798.48796-2.7664.081327.79039.081327-.39519.081327.1976.56929-4.9399.32531-5.3351.40663-4.2483.24398-1.976.081327.1976.081326-.2964.16265-1.3832.16265-1.0868.081327.59279.24398-.98798.081326-.098798.16265-1.7784.081327.098798.40664-4.6435.16265-.98798.081327.1976.24398-.88919.16265-1.7784.081327.49399.56929-3.6555h.081327l.16265-1.6796.16265-.098798.16265-.88919.081327-.1976.16265-1.482.40663-2.1736.081327.69159.081327-.098799.24398 1.1856.081327-.098798.32531-4.6435.081327.39519.16265-2.5688.8946-21.933.32531-10.769.24398-8.3979.081327-1.0868.48796-13.535.48796-9.3859.32531-7.0147h.081327l.24398-4.0507.081326-1.482.081327.1976.16265-.88919.081327 1.0868.081327-.1976.081327-.39519.24398 1.482.48796 13.931.32531 7.5087 1.5452 45.546 1.7892 36.951 1.6265 18.772.81327 5.5327.97592 6.4219.32531 1.2844.081327-.1976.16265-.1976.16265.69159.081327-.098799.081327.1976.16265-.79039.081327-.1976.081327.098798.24398.59279.56929-1.7784.081327.39519.081326-.098798.16265.2964.081327-.2964.16265-.98798.32531-1.1856.081327-.098799.40664-3.3591.081327.098798.081327-.1976.16265.49399.16265-1.2844.32531-2.3712.081327-.098799.32531-1.5808.40664-2.964.16265-1.7784.081327-.2964.48796-6.6195h.081327l.24398-3.2604.081327.39519.081327-.1976.24398-2.8652.081327-.1976.16265-1.1856.16265-2.964.65062-4.8411.081327.2964.16265-1.482.16265.79039.48796-5.9279.40663-1.8772.081327.88919.081327-.098798.16265.49399.24398-1.482.081327.79039.081327-.098799.32531-2.3712.081327.1976.081327.49399.24398-1.482.081326.59279.24398-4.0507.16265 1.8772.48796-3.8531.081327.098798.081327-.098798.081327-.2964.081327.098799.48796-8.9907.8946-26.182.40663-9.0895.73194-22.23.65062-11.955.16265-1.976.16265-.2964.081327-1.2844.081327.88919.081327-.39519.16265-.98799.24398 2.7664.081327.1976.16265 1.7784.40663 11.263 1.4639 37.642.32531 10.967.16265 2.964 1.2199 27.664.40664 6.7183.32531 5.8291.32531 3.1616.24398 3.7543.32531 3.7543.32531 1.976.24398 2.2724.16265 1.482.48796 3.4579.48796 4.2483.40663 2.3712.24398.2964.16265.49399.16265.2964.24398 1.976.081327.2964.081327-.098798.16265.2964.081326-.098799.081327.49399.16265-.49399h.081327l.081327.2964.16265-1.1856.16265-.69159.24398.69159.16265-.69159.16265-1.1856.081327.1976.081327-.098799.73194-3.7543.081326.1976.081327.098798.16265-1.7784.081327.1976.081327-.098798.24398-1.1856.081326-.098798.56929-4.0507.16265-1.2844.16265-.98798.16265.1976.16265-1.5808h.081327l.48796-3.2604.40663-3.4579.081327-.39519.16265-1.7784.081327-.1976.73194-7.9039.081327.1976.40663-2.8652.16265-.98798.81327-7.2123.081327.39519.16265-.98798.24398-2.0748h.081327l.24398-1.482.65062-4.7423.081327-.098799.16265-1.2844.081327.098799.16265-.69159.24398-.88919.081327-1.1856.081327.2964.081327-.098798.16265-1.2844.081327.69159.32531-5.0387 1.1386-26.774.32531-11.164.56929-18.673.081327-1.1856.32531-8.7931.48796-7.8051.081327.1976.081327-1.8772.081327.69159.081327-.098799.16265-.49399.32531 1.976.16265 1.6796.16265 1.0868 1.7892 48.016.65062 17.389 1.6265 37.247.32531 4.4459.16265 1.5808.97592 8.5955.16265 1.2844 1.3826 11.362.081327-.49399.48796 2.3712.081327-.1976.081327.2964.081327-.2964.56929 2.964.081327-.1976.16265-.88919.081327-.098799.081327.69159.16265-.98798.081326-.098799.16265.69159.081327-.49399.16265.39519.24398-1.2844.081326-.49399.16265.98798.24398-.98798.16265-.49399.56929-1.3832.16265-1.6796.081327.098798.24398.39519.16265-.2964.16265-1.8772.32531-2.0748.16265-.59279.32531-1.6796.56929-5.6315.081327.1976.32531-3.5567h.081327l.40664-5.0387.16265-1.8772.24398-1.482.081327-.098798.16265-.79039.16265-.69159h.081327l.65062-6.3231.48796-4.3471.081327-.2964.32531-2.964.081326.39519.24398-1.6796.081327-.098798.24398-1.3832.16265-1.0868.081327.2964.081327-.39519.081327.59279.081327-1.0868.081327.79039.24398-.49399.081326.1976.081327-.1976.081327.39519.24398-.88919.081327.1976.16265-2.47 1.2199-25.194 1.4639-45.25.081327-1.6796.16265-6.1255.73194-11.856.081327.2964.24398 1.7784.24398-2.2724.16265 1.3832.40663 6.3231.24398 5.4339.081327.59279 1.7079 51.474.65062 12.646.48796 13.931 1.4639 25.292.56929 6.0267.24398 2.6676h.081327l.081327.39519.32531 3.1616.16265.98799.24398 2.3712h.081327l.32531 2.47.32531 3.2604.081327.098798.24398 1.482.65062 3.4579.081327-.49399.16265.69159.081327.69159.081327-.1976.32531-1.0868.16265.59279.16265-.2964h.081327l.16265-.49399.081327 1.1856.081326-.098799.16265-.88919.16265-.098799.081327-.79039.081327.098799.081327-.1976.32531-2.2724.081327-.098799.16265-.98798.081327.1976.081327-.2964.16265-1.0868.081327.1976.16265-.98798.48796-2.7664.16265-.79039.081327-.2964.16265-1.976.48796-2.8652.56929-5.2363.081326-.1976.81327-8.6943.081327-.2964.081327.098799.16265-1.3832.081327.2964.16265-.49399.081326.098799.97592-7.5087.16265-1.1856.40663-4.1495.32531-3.6555.16265-.49399.081327.39519.16265-1.6796.081327-.1976.24398-2.0748.16265 1.2844.24398-.59279.081327.098799.32531-.88919.16265.59279.081327-.39519.081326-1.0868.081327.39519.32531-3.3591 1.2199-27.466.48796-16.104.56929-20.254.65062-17.981.16265-2.0748.24398-5.4339h.081327l.16265-1.2844.24398-3.0628.24398-2.47.32531 3.2604.16265.49399.081327.098799.24398 3.3591.24398 3.1616.32531 4.1495.40663 12.053.48796 13.733.56929 16.499.16265 3.9519.48796 16.302.8946 19.266.8946 16.104.32531 2.3712.40663 4.7423.56929 7.0147.81327 6.2243.081326-.2964.48796 3.2604.081327-.39519.32531 1.2844.081327.69159.081327-.1976.081327.49399.081327-.59279.16265 1.0868.081326-.49399.081327.49399.16265-.49399.16265.59279.081327-.59279.16265.39519.32531-1.3832.081327.1976.40663-2.3712.081327.1976.16265-1.1856.081327.39519.16265-1.5808.081327.098799.081327.2964.081327-.098798.24398-1.7784.32531-2.2724.081327-.88919.081327.39519.081326-.098798.24398-1.1856.081327.39519.40663-2.6676h.081327l.081327-1.5808.081327.1976.081327-.1976.73194-9.9786.24398-4.4459.081327.2964.081326.69159.32531-4.6435.48796-5.6315.081327.79039.16265-2.8652.65062-6.4219.081327.1976.16265-1.482.16265-2.2724.081327-.1976.081326-1.2844.081327.1976.081327-.098799.081327-.69159.081327.59279.32531-3.1616.081326.1976.081327.59279.081327-.59279.081327.59279.24398-2.0748.24398 2.2724.16265.98799.16265-1.482.24398 1.7784.16265-1.3832.16265 1.3832.081327-.2964.24398 2.47.24398-2.3712h.081326l.24398-2.8652.24398-3.6555.24398-6.2243.081327-.79039.48796-14.425 1.3012-48.905.65062-13.338.24398-2.3712.081327-.98798.16265-3.2604.16265-1.1856.16265-2.47.16265 2.0748.081327-.1976.32531 6.1255 2.0332 41.397.40664 10.769.16265 5.4339.81327 24.601 1.7892 37.049.8946 8.3979.24398 2.3712.24398 1.5808.16265 1.5808.081327-.098799.16265.79039.16265 1.1856.081326-.2964.16265 1.0868.24398 1.7784.16265-.2964.081327.1976.56929 3.1616.16265.2964.081327-.2964.081326.098798.32531.2964.081327-.1976.081327.39519.081327-.098799.16265-1.3832.16265-1.1856.16265-.098798.32531-2.3712h.081326l.081327-.39519.32531-3.5567.081327-.1976.24398-1.976.081327.098798.081327-.69159.081327.098798.081327.2964.24398-3.0628.081327.1976.081327-.1976.081326.2964.24398-1.5808.081327.49399.32531-3.1616.32531-5.4339 1.2199-13.832.16265-1.0868.40664-3.9519.24398-2.47.56929-5.7303.081326.39519.56929-3.5567.081327-.098798.16265-.49399.16265 1.0868.081327.1976.081327-.098798.081327-.3952.24398-2.0748.40663-2.3712.081327.098799.081327.88919.081327-.59279.081327.3952.081326-.1976.081327-1.0868.16265 2.3712.081327-.098798.081327.49399.24398-1.7784.081326.88919.081327-.88919.081327.49399.081327-.2964.56929-8.8919.48796-12.547.32531-7.3111.32531-12.251 1.1386-27.565.16265-.69159.40664-5.9279.16265-1.7784.081327.1976.24398 1.6796h.081327l.16265 3.0628.081326.1976.081327-1.0868.8946 21.242 1.0572 30.628.8946 18.772.32531 9.4847 1.5452 29.837.40663 4.6435.56929 7.3111 1.0572 11.658.24398 2.8652.16265 1.976.081327-.2964.24398 1.2844.24398 1.7784.16265.1976.24398 2.47.16265.69159.081327-.2964.32531 2.6676.081327-.49399.081326-.098799.081327.098799.081327.39519.16265-.49399h.081327l.16265-.49399.16265-.59279.081326.39519.16265-.39519h.081327l.081327.1976.65062-2.6676.081327.1976.081327-.2964.081327.39519.24398-1.2844.24398.2964.65062-3.9519.081327-.098799.24398-2.3712h.16265l.48796-3.8531.081327.098799.65062-6.2243.081327-.2964 1.0572-9.7811.081327-.1976.32531-3.4579.081327-.2964.32531-4.5447.081327.59279.081327-.2964 1.4639-13.634.24398 1.2844.081327-.2964.16265-.88919.081326-1.482.081327.69159.081327-.59279.081327.098799.081327-.098799.081327-.79039.16265.59279.24398-.79039.16265.2964.16265-1.5808.081327-.49399.16265-1.6796.32531-1.5808.56929-13.733 1.3012-41.989.32531-6.5207.73194-10.769.16265-.39519.16265-1.0868.081327.69159.081327-.49399.24398 2.3712.081327.1976.56929 9.4847.81327 26.873 1.0572 27.762.48796 10.176 1.1386 21.538.16265 1.3832.24398 4.3471.16265 1.0868.16265 2.8652.081327.39519.24398 3.5567.081327.2964.24398 3.2604.16265 1.1856.48796 3.8531.8946 7.3111.40663 4.4459.16265 1.976.081327.1976.40663 3.9519.16265.79039h.081327l.081327.88919.16265 4.3471.081327.098799.081326-.098799.16265-.69159.081327.098799.081327-.098799.081327.098799.081327-.098799.16265-.49399.16265.49399.24398-.88919.40663 1.5808.24398-.88919.081327-.098798.24398-1.1856.16265-.2964.16265-.2964.081327.1976.40664-3.0628.081327-.098799.24398-1.1856.081327-.098798.40664-2.6676.081326.49399.24398-1.482.16265-.69159.16265-.98798.56929-6.8171.97592-7.5087.32531-3.1616.32531-2.2724.081327.1976.32531-1.482.56929-7.5087.081327-2.2724.081327.2964h.16265l.24398-2.1736.081327.1976.24398-2.6676.16265-1.976.16265-.2964.081327-.2964.32531-2.3712.081327.88919.40664-2.7664.16265-.49399.081327-.098799.081327-1.0868.081327.69159.48796-5.2363.24398-5.0387.24398-3.7543.40663-10.571.56929-17.586.8946-23.909.24398-7.3111.40663-7.3111.48796-3.5567.081327 1.7784.081326-.2964.65062 6.6195.97592 30.232.40664 11.362 1.3012 32.11.24398 5.5327.73194 12.844.56929 7.3111.40663 4.2483.081327.098798.56929 4.9399.32531 3.2604.24398 1.2844h.16265l.16265 1.8772.40664 5.2363.081327.1976.16265 1.0868.24398 2.3712.081327.2964.16265 1.6796.48796 2.8652.32531 1.6796.081327.098798.40663 2.1736.56929 2.0748.081327-.59279.081327.1976.081327-.49399.24398.69159.081327.2964.16265-.88919h.081327l.081327.1976.16265-.49399.081327.1976.24398-.98798.32531-1.8772.56929-2.2724.081327-.1976.24398-1.1856.081327.098799.32531-2.0748.24398-1.6796.081327-.39519.081327.1976.16265-.79039.081326.2964.081327-.098799.48796-2.964.081327.098798.24398-1.3832.081327.1976.24398-3.1616.40663-3.4579.081327.098798.81327-4.8411.40663-7.1135.081327.1976.24398-3.0628.48796-7.2123.81327-9.5835.081327-.69159.081327.39519.16265-1.0868.081327-.2964.32531-4.0507.081327.39519.081327-.59279.24398 1.3832.40663-3.9519.24398-1.6796.32531-6.4219.16265-3.3591.32531-7.7063.32531-7.9039.56929-15.215.97592-25.589.081327-.49399.32531-7.3111.48796-1.5808.081327.49399.081327-.49399.16265.59279.81327 16.895.56929 15.215.73194 22.131.081327 3.4579m.32531 8.1015.16265 3.6555m.16265 4.4459.56929 11.757.24398 5.8291.40663 6.9159.32531 3.9519.24398 3.8531.32531 3.1616.97592 8.7931.081327.2964.56929 4.6435.16265.79039.40663 3.8531.32531 1.7784.16265.49399.73194 5.7303.24398.79039.081327.69159.081327-.1976.16265.098799.081327-.2964.081326.098799.081327.39519.16265-.88919.24398-.39519.24398.69159.40664-.59279.081327-.1976.16265.39519.16265-.098799.081327.39519.48796-2.5688.24398-.69159.16265-.59279.16265.1976.16265-.49399.081327.39519.16265-1.0868.081327.39519.32531-1.1856h.081327l.24398-.79039.081327.1976.081327-.1976.16265-1.7784.16265-.69159.24398-1.6796h.081327l.16265-1.0868.081327-.1976.081327.098798.73194-5.0387.32531-3.6555.16265-1.1856.65062-6.6195.56929-6.0267.16265-1.7784.081327-.098798.40664-3.7543.24398-1.976.16265-2.2724.65062-7.9039.081327-.39519.32531-3.4579.081327.098799.24398-2.3712h.081327l.081327.59279.32531-6.5207.24398-3.7543.081327-.3952 1.2199-31.517.32531-12.745.081327.1976.48796-10.67.24398-6.7183.16265-1.976.081327.098798.16265-2.6676.081327-.1976.40664-5.9279.16265-.2964.32531 6.3231.24398 6.5207.24398 5.0387.24398 8.0027 2.8464 69.949.97592 13.832.48796 4.1495.32531 4.3471.16265 1.5808.24398 1.8772h.081327l.24398 1.7784.081327.39519.24398 1.6796 1.7079 11.856.48796 1.482.081327-.098798.16265.1976.081327-.098799.081327.39519.081327-.1976.16265.59279.24398-1.482.081327.098798.081327-.1976.081327.59279.32531-.79039.24398.49399.16265.098798.16265-.098798.40663-1.7784.16265-.098799.081327-.098798.24398-1.0868.16265-.39519.24398-1.1856.081327.1976.081327-.1976.24398-1.1856.081327-.098799.24398.1976.081327-.2964.081327.39519.081327-.098799.24398-1.482.65062-5.7303.081327.2964.24398-1.976.24398-1.5808.16265-.49399.24398-2.1736.16265-.2964.081327.1976.40663-2.5688h.081327l.32531-2.5688.24398-3.3591.48796-4.4459.32531-4.9399.081326-.49399.81327-12.251h.081327l.56929-4.5447.081327.88919.16265-1.7784h.081327l.081327.88919.24398-1.8772.40663-4.4459.48796-12.35.32531-10.571.081327-.79039.32531-8.8919.16265-5.0387.32531-12.35.32531-8.1015.48796-18.377.16265-6.1255.24398-5.7303.081327-.39519.16265-4.3471h.081327l.65062-4.1495.16265 1.482.081326 1.482.081327-.39519.40664 4.0507.56929 13.931 1.5452 42.187.24398 5.6315.81327 22.131.32531 7.7063 1.0572 17.389.081327.49399.40663 4.6435.081327.098799.32531 4.2483.16265 1.2844.081327.098798.081327-.098798.73194 4.8411.24398 2.1736.40663 2.5688.16265.1976h.081327l.24398 1.2844.081326-.1976.081327.49399.081327-.1976.32531.49399.24398-.39519.081326.1976.081327-.2964.081327.98799.16265-1.6796.081327.098798.16265.88919.65062-2.7664.16265-.2964 1.4639-10.473.081326.49399.8946-8.4967.48796-6.4219.16265-1.976.24398-3.4579.32531-6.5207.081327-.98798.081326.2964.081327-.49399.16265-2.1736.24398-.59279.24398-2.5688.16265-.1976.16265-1.1856.081327-.39519.16265-1.976.16265-1.2844.16265.1976.081327.2964.40664-1.8772.081326.49399.081327-.098799.16265-.2964.081327-1.0868.081327.69159.24398-1.2844.081327.39519.32531-1.5808.16265 1.0868.16265-.98798.081327.39519.081326-.098798h.081327l.24398 1.8772.24398.79039.24398-3.2604.081327.1976.16265.79039.32531-3.4579.081326.39519.081327-.098798.16265-3.2604.40664-12.646.40663-11.658.48796-20.945.32531-8.1015.081327-1.3832.32531-9.8799.65062-14.326.16265-3.4579.081327-2.6676.081327 1.1856.081327-.79039.16265-3.5567.081327.098798.081327-.39519.16265 1.7784.16265-1.8772.16265.98798.081327.098798.24398 6.0267.32531 5.2363.24398 3.3591.32531 9.4847.24398 5.9279 3.0904 79.632.48796 7.0147.56929 7.9039.32531 4.8411h.081327l.24398 2.47.32531 2.3712.081327.098798.081327.2964.48796 4.5447.081327-.098798.16265 1.1856.16265.39519.16265.59279.32531-.49399.16265.2964.24398-.59279.16265.39519.081327.098799.24398 1.1856.16265-.98798.081326.59279.32531-1.2844.32531-.49399.081327-.1976.081326-.88919.16265 1.0868.081327-.2964.081327-.98798.081327.49399.081327-.1976.16265-.88919.081326-.098799.16265-1.0868.081327-.1976.40664-3.7543.16265-2.5688.16265-.2964.32531-4.3471.081327.88919.081326-.1976.40664-6.2243.081327.2964.081327-.39519.24398-5.4339.081327.2964.16265-2.6676.16265-1.3832.40663-7.3111.24398-1.6796.32531-5.2363.16265-.39519.24398-4.2483.16265.1976.24398-4.5447.081327-.88919.081327 1.0868.48796-4.9399h.081326l.081327-.1976.081327.098799.16265-.79039.24398-1.2844.40663 3.6555.081327-.098799.081327-.79039.081327.098799.081327-.098799.16265-.98798.16265 1.1856.16265.098799.081327.69159.081327-.39519.16265 1.1856.081326-.1976.081327-.79039.081327.59279.16265-.1976.081327-.98798.16265.1976.081327-.39519.16265-1.7784h.081327l.40664-6.9159.40663-12.251.16265-3.4579 1.1386-35.666.24398-3.3591.56929-10.077.081327-.1976.48796-5.1375.16265 2.0748.081327 3.0628.081327-.1976.16265 1.5808.081327.49399.40663 10.67.56929 15.808.48796 13.931 1.3012 42.681.40664 6.8171.40663 6.9159.8946 17.191 1.1386 13.832 1.3826 14.128.16265 13.14.24398 14.326h.081327l.16265.59279.16265.98798.081327-.098798.24398 1.2844h.24398l.081327.1976.081326-.2964.16265.49399.081327-.1976.081327.59279.081327-.1976.081327.098799.081327-.2964.081327.098799.081326-.098799.16265-.98798.081327.1976.16265.49399.24398-2.0748.081326.2964.081327-.098799.16265-1.482h.081327l.32531-1.3832.32531-2.6676.081327-.2964.16265.49399.16265-.39519.081326.1976.40664-1.2844.16265-.098799.48796-2.7664.16265-1.976.081327.39519.32531-1.482.48796-3.2604.24398-2.47.16265-1.8772.24398-2.7664.73194-6.3231.081327.098799.32531-4.3471.081327.1976.081327-.2964.73194-8.6943.24398-2.7664.16265-.88919.16265-2.7664.081327.098798.081327.79039.081327-.098798.081327-.39519.24398-4.2483.081326-.59279.081327.098798.081327-.1976.081327.69159.081327-.098799.24398-1.8772.081327-.098798.081326.39519.24398-2.7664.081327.2964.32531-2.5688.081326-.098799.16265 1.2844.73194-15.314.48796-11.461.081327-.79039.40663-12.35.40663-15.116.24398-5.8291.81327-19.167.081327.098799.24398 1.7784.081326.69159.081327-.39519.081327.098798.081327.79039.081327-.2964.081327.2964.56929 7.0147.73194 21.439.81327 25.49.73194 21.143.48796 12.251.16265 1.976.32531 6.8171.40663 5.6315.081327.3952.81327 9.6823.16265 1.976.32531 3.5567.65062 5.3351.81327 8.1015.081327.39519.24398 2.5688h.081327l.16265.79039.32531 3.2604.081327-.1976.32531 1.6796.16265.39519h.081327l.24398 1.976.081327-.49399.081327.098798.16265.49399.081326-.2964.081327.39519.16265-.2964.16265.39519.16265.1976.16265-.49399.081326-1.0868.081327.39519.081327.098798.081327.39519.16265-.59279.16265-.2964.081327.098798.081326-.1976.16265.59279.081327-.098798h.081327l.16265-.49399.24398-.88919.081327.1976.48796-2.47.081327.49399.40663-1.7784.081327.098799.48796-2.2724.081327.69159.40664-1.7784.081327.2964.081326-.098799.32531-1.8772.16265.1976.48796-3.2604.73194-4.4459.081327.59279.081327-.2964.81327-8.1015.48796-8.2991.48796-5.4339.16265-.098798.081327.59279.24398-3.3592.48796-6.0267.97592-10.176.081327.098799.081327-.1976.16265-1.2844.16265-3.6555 1.5452-45.546.32531-10.077.32531-7.5087.24398-7.1135.081327 11.658.081327-.098799.16265-10.077.32531-2.964.081327.098798.081327.69159.081327-1.2844.081327.098798.73194 9.5835.56929 16.499.65062 18.179.32531 8.2991.48796 13.239.32531 7.0147 1.1386 20.056.24398 2.47.56929 9.4847.48796 4.4459.081327.2964.48796 5.2363 1.2199 11.164.16265.2964.24398 2.7664.32531 1.2844.32531 2.3712.081327.79039.081327-.2964.081327.098799.16265.98798.081327-.1976.081327.2964.24398-.79039.24398.98799.24398-1.1856.16265-.88919.081327-.098799.081327.1976.16265-.39519.081327.1976.081327-.098798.081327.1976.081327-.1976.16265-.59279.16265-.2964.16265.49399.16265-.098799.081327-.098798.24398-1.1856.081327-.59279.16265.59279.73194-2.6676.24398-2.3712.24398-.49399.48796-3.5567.40663-3.9519.24398-1.482.16265-1.482.24398-.39519.81327-6.4219.40664-4.3471.56929-5.8291h.081327l.081327-.2964.32531-2.6676.16265-.88919.24398-2.1736.40663-5.1375.48796-4.8411.081327.39519.081327-.098799.16265-2.2724.081327.98798.24398-2.47.48796-2.1736.73194-9.0895.16265-3.1616.97592-22.921.81327-28.454.081327-.69159.48796-13.634.48796-8.2991.081327-.49399.24398-6.7183.24398-3.7543.16265 1.2844.081327-.1976.081327.2964.81327 30.331.16265 2.3712.56929 19.266.40663 10.67.40664 12.646 1.0572 27.762.081327.88919.24398 5.6315.56929 9.7811.48796 6.4219.081327.2964 1.5452 16.302h.081327l1.0572 9.2871.081326.098798.16265 1.0868.32531 2.47.081327-.1976.16265 1.2844.16265.98798.081327-.59279.24398.88919.16265-.49399.081327.2964.24398-.98798.081327.49399.081327-.39519.081327.39519.081327-.49399.081327.098798.16265.88919.081327.1976.081327.79039.081327-.098798h.081327l.081327.1976.16265-1.0868.081327.098798.081326.1976.24398-.59279.081327.2964.081327-.098799.081327-.88919.081327.098798.081327.1976.24398-.79039.48796-2.1736.081327-.49399.081326.2964.081327-.098799.24398-2.8652.8946-4.6435.16265-.88919.081326-.098799.16265-1.1856.40664-2.47.081327-.098799.48796-3.4579.16265-1.2844.16265-.88919.73194-5.2363.32531-4.5447.081327-.098798.24398-2.47.081327-2.2724.081326.2964.081327-.39519.40664-6.5207.081327.2964.40663-4.4459.081327.79039.081327-.69159.081327.59279.24398-2.0748.081327-.1976.081327.1976.40664-4.3471.081327.59279.081326-.49399.24398-3.1616.081327-.1976.16265-1.7784.32531-9.5835.16265-3.6555.32531-10.077.081327-.98798.65062-20.649.16265-4.5447.81327-26.577.16265-.88919.24398-3.7543.081327-.69159.16265-2.5688.081326.59279.081327-.79039.24398 1.5808.081327-.1976.24398 1.6796.65062 16.104.32531 8.8919.081327.79039.65062 19.661.24398 6.2243.48796 13.832.081327 1.6796.24398 8.1015.24398 3.7543.81327 14.721.16265 1.7784.24398 3.8531.40663 6.5207.65062 6.4219.40664 4.5447.081327.098798.32531 2.2724.16265.98798.40664 5.5327.48796 4.2483.081327-.098799.24398 2.7664.081326.39519.16265 1.3832.16265.98798.16265.79039h.081327l.081327-.2964.24398 1.3832h.081327l.16265 1.1856.24398-.49399.16265.39519h.16265l.081327.1976.16265-.39519h.16265l.16265.59279.081327.098799.16265-.1976.081327.098798.16265.59279.32531-.88919.16265-.1976.081327.1976.16265-.49399.16265-1.0868.081326-.098799.081327-.2964.24398-1.1856.081327.098798.24398-.1976.32531-2.2724.081327-.098798.24398-1.482.16265-.1976.16265-.88919.081327.39519.081327.098799.24398 2.5688.081327.2964.32531 3.6555.081327.2964.24398-.49399.24398-1.7784.16265-.098799.24398-1.7784.081327.1976.16265-.39519.081326.98798.081327-.2964h.081327l.081327-.2964 1.0572-17.389.8946-12.449.32531-4.1495.56929-8.0027.16265-.39519.24398-4.2483.081327.49399.24398-2.0748.081327.098799.081327-.1976.081327-.49399.81327-12.943.40663-11.362.081327-1.0868.8946-36.555 1.1386-33.987.081326-.39519.32531-4.2483.081327.098798.24398-2.5688.65062 3.3592.16265 4.3471.081327-.2964.81327 17.487 1.6265 42.582.24398 6.4219.40663 9.7811.081327.59279.32531 8.0027.24398 6.3231.16265 3.5567.24398 3.6555 2.0332 23.81.40664 2.3712.16265 2.5688.081327-.39519.56929 3.4579.16265.39519.081327-.1976.16265.69159.081327.69159.081327-.49399.24398.49399.16265-.49399.16265.098798.32531-3.3591.081327.69159.73194-4.0507.24398-2.1736.16265-.2964.081327.79039.16265-1.5808.24398-1.2844.16265.39519.16265-1.5808.16265.59279.24398-1.976.081327-.1976.24398-2.8652.40663-2.1736.081327-.2964.081327.2964.081327-.1976.081327.39519.8946-12.943.24398-2.6676.48796-7.8051.48796-4.8411h.081327l.32531-3.5567.081327.39519h.081327l.081327-.79039.16265.98798.081327.2964.16265-1.5808.081326.098799.081327-.098799.16265 1.0868.16265-1.482.24398-2.7664.081326.39519.081327-.098799.16265-1.2844.081327.2964.16265-1.5808h.081327l.081327-.2964.081326.79039.16265-2.1736.081327.49399.16265-1.2844.16265 1.1856.081327.098799.081326-.59279.081327.79039.16265-1.0868.081327.69159.081327-.2964.081327-.79039.16265 1.1856.081326-.1976.16265-1.0868h.16265l.48796-9.1883.81327-28.553.56929-21.439.24398-7.8051.081327-.49399.56929-17.586.081327-.1976.24398-3.8531.081327-.59279.40663-7.0147.16265-.98799.24398-2.2724.16265.59279.081326-.69159.081327.69159.16265 2.964.081327.1976.48796 7.1135 1.7079 52.857.65062 18.08.081327.1976.32531 6.8171.16265 3.9519 1.2199 28.553.16265 2.7664.24398 3.2604 1.6265 18.475.16265 1.5808.24398 1.2844h.081327l.081327.39519.081327-.39519.24398.79039.081327-.39519.24398 1.1856.081327-.1976.081327-.49399.16265.59279.081327-.098799.16265.49399.081327-.49399.16265 1.3832.16265-.39519.081327.1976.16265-.88919.081327-.39519.081327.2964.8946-7.0147.081327.098798.16265-2.2724h.081327l.16265-1.482.081327-.69159.081326.49399.16265-1.976.081327.098798.081327-.49399.16265.2964.081327-.1976.40663-4.8411.24398-1.3832.081327.2964.24398-2.8652 1.2199-16.499.081327-.79039.16265-2.8652.081327-.098798.56929-7.1135.081326 1.0868.24398-2.5688.65062-3.9519.081327.39519.24398-2.0748.16265-.98798.16265.69159h.081327l.16265-.88919.16265.49399.081327-1.2844.081327.098798.081327-.098798.081326-.59279.16265.69159.16265-.49399.73194 5.6315.081327-.098799.16265-.49399.16265 2.0748.081327-.1976.081327-1.3832.16265.1976.56929-7.6075 1.4639-41.1 1.0572-21.637.081327-.49399.081327-1.976.081327.98798.16265-3.1616.081327.69159.081327.39519.081327-.2964.081327-1.5808.081327.2964.16265.59279.48796 8.1015.40663 17.981.73194 19.266.73194 23.514 1.0572 25.589.081327.79039.32531 6.8171.24398 3.5567.73194 11.757.081327.49399.32531 4.7423.73194 7.0147.24398 2.5688.48796 4.3471.16265 1.1856.40664 4.6435.081327.2964.24398 2.964.081327.1976.24398 1.5808.24398 1.976.24398 1.3832.081327.2964.16265-.49399.081327.098799.32531 1.5808.16265-.2964.16265.1976.081327.2964.081327-.2964.24398.39519.081327-.098799.081327.098799.081327-.69159.081327.1976.16265-.2964.081327.098798.16265.1976.16265-.2964.16265.49399.081327-.098798.48796-1.6796.24398.2964.24398-1.1856.16265-.69159.16265.2964.16265-1.1856.081327.2964.081327-.1976.24398-1.976h.081327l.32531-1.482.081327.2964.16265-1.0868.081326.2964.16265-.79039.16265-.98798.081327.2964.32531-2.6676.24398-1.6796.24398-.2964.40663-3.4579.32531-2.0748.24398-2.0748.24398-3.9519.48796-7.4099.081326-.098798.56929-5.6315.40663-6.5207.81327-7.8051.081327.88919.32531-3.2604.16265-1.0868.16265-1.976.24398-3.5567h.081327l.081327.2964.32531-4.3471.32531-7.3111.8946-27.466.56929-17.487.24398-5.8291.32531-8.5955.48796-5.2363.16265-1.3832.16265.59279.24398 6.2243.081326-.2964.32531 6.0267.081327-.49399.16265 2.3712.16265 5.1375.24398 6.2243.24398 5.8291.65062 19.562.56929 12.251 1.3012 29.146.24398 2.6676.32531 5.2363.32531 5.0387.081327.59279.24398 3.3591.16265 1.976.32531 3.6555.16265 1.6796.081327.98798.081327 5.6315.081327-1.0868.081326 4.6435.081327-1.976.24398 2.1736.32531 1.976.56929 4.3471h.081327l.81327 7.0147.8946 4.6435.24398 2.0748.081327-.2964.081327.098798.081327-.098798.081327.39519.16265-.79039.081327.2964.081327-.39519.081327.49399.081327-.098799h.16265l.081327-.49399.081327.098798.081326-.098798.081327.1976.24398-1.5808.081327-.098799.081327.69159.081327-.098799.16265-1.5808.081327.098799.16265-1.482.081327.39519.081327-.098799.24398-.69159.16265.49399.081327-.79039.081327.098799.081327-.39519.081327.2964.16265-1.0868.081327.1976.081327.49399.24398-1.3832.16265-1.482.081327-.1976.56929-3.3591.081327-.39519.24398-2.47.16265.39519.081327-.098798.081327.39519.32531-3.1616.40663-1.5808.16265-1.5808.16265-.098799.24398-1.3832.56929-7.8051.24398-2.47 1.2199-12.449h.081327l.40663-3.8531.32531-3.7543.081327-.59279.16265-2.0748.081327 1.1856.081327-.1976.081327-.39519.081327-1.482.16265-.49399.16265-1.5808.081327-1.482.081327.49399.24398-4.0507.24398-3.9519.32531-7.4099.56929-17.29 1.6265-47.72.081327.59279.16265-3.3591.081327.1976.081327-.69159.16265-2.1736.16265 1.8772m.81327 155.11.16265-25.688.65062-20.352.16265-2.2724.081327-.2964.16265.59279h.081326l.16265-.2964.081327.098799.24398.79039.081327.1976.24398 2.2724.24398 2.8652.81327 9.4847.40663 3.3591.24398 1.7784.40663 2.964.081327-.098798.32531 2.1736.081327.1976.40663 2.964.16265.59279.32531 1.482.65062 3.4579.48796 1.3832.081327-.49399.32531 2.47.081326-.39519.16265 1.0868h.081327l.32531 1.5808.081327-.1976.24398 1.2844.081327.098799.16265.88919.081327.49399.16265-.49399.081327-.1976.16265.69159.24398-.59279.16265-.59279.081327.098798.16265-.88919.16265.2964.081327-.098798.081327-.3952.16265-1.8772.081327-.098799.081327.1976.16265-.59279.16265-.39519.16265-.098798.16265.49399h.081327l.16265-.69159.081327-.098799.16265-.69159.32531-.88919.081326.098798.16265 1.8772m.16265-1.8772.081327.098799.16265-.49399.081327-.098798.16265-1.482.081327.39519.24398-1.3832.081327.098799.32531-1.7784.48796-3.7543.16265-.79039.081326-.098799 1.1386-10.077.8946-12.547.16265-2.47.48796-7.6075.65062-5.2363.081327-1.3832.081327.098798.16265-1.6796.081326.098799.16265-.49399.48796-4.8411.081326.39519.48796-4.0507 1.3012-32.9.48796-17.092.081327-.88919.40664-12.646.81327-21.044.16265-1.7784.081327.1976h.081327l.081327-.49399.081327-1.3832.56929 4.8411.24398 5.2363 1.0572 33.098.48796 18.179 2.1145 48.708.32531 4.6435.32531 3.3591.40664 4.5447.081326.098798.48796 5.0387 1.5452 14.425.16265.79039.24398 1.1856.081327-.1976.081327.2964.16265.98798.65062 2.1736h.081327l.16265.49399h.081326l.16265-.49399.081327.59279.081327-.2964.16265.88919.40663 1.2844.16265-.2964.081327-.1976.081327.098799.16265-.88919.16265-1.2844.081327-.2964.081327.1976.16265-.49399h.16265l.24398-1.1856.081327.49399.24398-.39519.081327.1976.16265-.59279.081327-.1976.16265-1.482.081327.1976.32531-.39519.16265-1.1856.16265-.59279.24398-1.6796.081327.1976.24398-2.8652.24398-1.1856.16265-.79039.24398-2.1736.40663-3.2604.16265-.79039.16265-1.0868.081327-.2964.24398-1.7784.56929-3.9519.24398-1.6796.81327-6.9159.081327-.1976.16265-2.0748.24398-2.47.081327-.2964.24398-4.4459.32531-1.482.24398-1.482.081327-.69159.24398-4.0507.081327.2964.081327-.39519.32531-3.8531.32531-1.976.16265-1.976.8946-20.352 2.1145-58.588.081327-.49399.081327-1.1856.081327.59279.24398-2.6676.081327.59279.16265 2.7664.16265-.59279.16265.88919.32531 4.3471.65062 17.883.65062 19.365.65062 15.215.56929 16.697.40664 8.0027.32531 7.6075.40664 9.4847.32531 4.8411.24398 2.47.32531 3.0628.48796 4.1495.73194 6.1255.16265.59279.32531 3.6555.081327.2964.56929 5.5327h.081327l.32531 2.2724.081327-.098799.081327.2964.16265 1.6796.24398 1.6796.081327-.098798.32531-.098799.16265.49399.16265-.59279.24398.59279.081327-.098799.16265.49399.24398.79039.16265-.2964.16265.39519.081327-.49399.081326.098798h.16265l.16265.1976.32531-1.2844.16265-1.0868.16265.098799.24398-.79039.081327-.1976.16265-.79039.081327-.1976.081327.39519.24398-.49399.24398-1.6796.32531-.88919.081327.2964.16265-.59279.24398-2.0748.16265.1976.24398-.79039.24398-.88919.16265-1.2844.16265-.098799.081327-.1976.24398-1.7784.16265-.98798.081326.098798.081327.1976.32531-1.3832.24398-1.5808.081326-.98798.081327.49399.24398-2.8652.56929-5.0387.40664-6.2243.97592-11.362.16265-2.47.081327-.098799.081327-1.7784.081327.098799.40663-5.0387.081327-.1976.16265.2964.081327.098798.16265-1.976.16265-2.6676.081327-1.6796.081327.2964.081327-.49399.081327.1976.56929-10.67.56929-13.535.32531-12.646 1.4639-52.66.48796-7.3111.081327.49399.24398-3.0628.081327.59279.081327 1.8772.16265-2.964.081326.2964.24398 3.7543.081327-1.482.32531 8.4967.16265 2.0748.97592 27.565.32531 8.1015.48796 13.338.32531 7.2123.16265 4.0507.81327 22.131.32531 5.3351.24398 4.3471.48796 7.2123.32531 5.2363.081327.39519 1.0572 12.053.081327.1976.81327 6.4219.081327.1976.24398 1.5808h.081327l.16265.98798.16265-.59279.24398 1.3832.24398-.098798.16265-.79039h.081327l.16265-.98798.081327.49399.081327-.49399.081327.49399.081327-.1976.24398-1.7784.081327.1976.16265-.98798.081327.39519.16265-1.6796.081327.1976h.081327l.24398-1.976.32531-2.5688.24398-1.8772.16265-.2964.081326.49399.40664-3.3592.081327.1976.081327.88919.081327-.39519.24398-2.2724.081327.098799.081327-.88919.081327.49399.24398-1.482.081326-.1976.081327-.79039.081327.1976.081327-.1976.73194-10.868.16265-1.1856.16265-1.6796.24398-1.7784.24398-3.0628.081327-.3952.24398-3.2604.16265.49399.24398-2.47.081327.1976.32531-1.8772.081326.79039.16265.1976.16265-1.482.081327.1976h.081327l.56929-3.6555.081327.2964.16265-.98798.081327-.79039.16265.88919.16265-1.5808.081327.098798.16265-1.7784.081327.098799.081327-.2964.081327.59279.16265-.69159.081327.1976.081327-.098799.081327-.59279.081327.59279.081327-.59279.16265 1.5808.081326-1.0868.24398 1.3832.081327-.098799.32531-4.5447.081326.49399.56929-11.559.73194-18.179.32531-12.547 1.4639-41.792.32531-4.0507.081327-1.1856.081327.2964.081327.2964.081326-1.8772.081327.39519.081327-.2964.081327-.98798.081327.1976.16265 1.1856.24398 4.2483.081327-1.2844.32531 3.7543.81327 19.76.16265 4.5447 1.0572 31.22v0" clip-path="url(#d)" fill="none" stroke="#28f" stroke-linecap="square" stroke-width="1.5"/>
   </g>
   <g id="cw">
    <path d="m52 259.78v-232.9" fill="none" stroke="#000" stroke-linecap="square" stroke-width=".8"/>
   </g>
   <g id="cx">
    <path d="m853.2 259.78v-232.9" fill="none" stroke="#000" stroke-linecap="square" stroke-width=".8"/>
   </g>
   <g id="cy">
    <path d="m52 259.78h801.2" fill="none" stroke="#000" stroke-linecap="square" stroke-width=".8"/>
   </g>
   <g id="cz">
    <path d="m52 26.88h801.2" fill="none" stroke="#000" stroke-linecap="square" stroke-width=".8"/>
   </g>
   <g id="da">
    <!-- 同時接続数の推移 -->
    <g transform="translate(404.6 20.88) scale(.12 -.12)">
     <defs>
      <path id="w" transform="scale(.015625)" d="m1587 3936h3232v-518h-3232v518zm320-1114h557v-2534h-557v2534zm301 0h2291v-2086h-2291v512h1734v1069h-1734v505zm-1683 2260h5113v-570h-4524v-5056h-589v5626zm4768 0h595v-4896q0-250-67-397t-227-218q-160-77-426-96t-675-19q-13 83-45 192t-77 218q-45 108-89 185 281-13 527-13 247 0 330 0 83 7 118 42 36 35 36 112v4890z"/>
      <path id="u" transform="scale(.015625)" d="m2714 4672h3238v-525h-3238v525zm-244-1235h3712v-538h-3712v538zm20-1184h3635v-531h-3635v531zm1523 3155h595v-2310h-595v2310zm832-2451h589v-2823q0-230-61-364-61-135-227-199-167-70-423-86t-633-16q-20 121-78 285-57 163-121 284 275-6 509-9t310-3q77 6 106 28 29 23 29 93v2810zm-2023-1677 487 282q153-160 313-352t294-381q135-189 206-343l-519-313q-64 153-189 348-124 196-278 394-154 199-314 365zm-2086 3718h1619v-4281h-1619v544h1056v3187h-1056v550zm32-1843h1293v-537h-1293v537zm-320 1843h563v-4832h-563v4832z"/>
      <path id="v" transform="scale(.015625)" d="m3866 5408h614v-870h-614v870zm-1479-653h3597v-518h-3597v518zm-230-1485h4e3v-518h-4e3v518zm825 922 519 102q64-160 121-342 58-182 96-352 39-170 45-304l-544-128q-6 134-42 313-35 180-83 365-48 186-112 346zm1856 109 589-71q-96-275-202-557-105-281-195-486l-518 77q58 147 122 329 64 183 118 372t86 336zm-2643-2106h3943v-518h-3943v518zm1408 685 602-115q-167-371-362-784t-390-797-362-685l-525 179q160 288 346 666t368 784 323 752zm-659-2157 358 403q352-102 733-240 381-137 752-304 371-166 697-336 327-169 558-329l-384-461q-218 160-532 336-313 176-685 345-371 170-755 323-384 154-742 263zm1894 1114 583-71q-122-550-353-944-230-393-604-662t-922-435q-547-167-1296-269-25 128-93 269-67 141-137 230 678 64 1168 192t819 349q330 221 531 550 202 330 304 791zm-4684 217q396 90 953 240 557 151 1120 311l77-544q-525-154-1053-311-528-156-963-284l-134 588zm121 2093h1965v-563h-1965v563zm819 1248h576v-5229q0-236-51-374t-192-208q-141-77-355-99-214-23-541-16-13 115-64 288t-109 294q205-6 381-6t234 0q64 0 92 28 29 29 29 93v5229z"/>
      <path id="t" transform="scale(.015625)" d="m4058 5408h595v-1798h-595v1798zm-1415-563h3443v-499h-3443v499zm231-992h3008v-499h-3008v499zm-224-877h3475v-1203h-531v729h-2432v-729h-512v1203zm1964-877h551v-1881q0-122 22-157 23-35 106-35 25 0 92 0 68 0 135 0t99 0q51 0 83 54t45 224 19 515q90-70 234-131t259-93q-19-429-83-662-64-234-183-326-118-93-316-93-39 0-103 0t-134 0-138 0q-67 0-99 0-237 0-365 64t-176 218q-48 153-48 422v1881zm-1164-6h550v-455q0-243-48-528-48-284-186-579-137-294-409-572-272-279-727-503-70 90-192 208-121 118-230 195 416 205 665 438 250 234 371 474 122 240 164 467 42 228 42 413v442zm-2240 3309 524-192q-121-244-259-503-137-259-275-496t-259-416l-410 173q122 186 246 438 125 253 240 515 116 263 193 481zm716-743 500-230q-224-359-496-756-272-396-548-764-275-368-518-650l-358 205q179 211 377 483 199 272 387 569 189 298 358 592 170 295 298 551zm-1721-665 307 403q166-154 339-340 173-185 320-364t224-327l-326-460q-77 160-218 348-141 189-314 384-172 196-332 356zm1485-832 435 179q128-211 249-458 122-246 215-474 93-227 137-412l-473-211q-32 185-119 422-86 237-201 486-115 250-243 468zm-1530-583q422 26 998 54 576 29 1184 68l7-499q-570-45-1127-84-556-38-992-70l-70 531zm1702-992 436 135q121-276 214-596t118-556l-454-148q-26 237-112 563-86 327-202 602zm-1363 109 499-83q-57-455-163-897-105-441-253-748-51 32-134 73-83 42-170 83-86 42-144 62 148 294 234 697t131 813zm691 627h525v-2861h-525v2861z"/>
      <path id="o" transform="scale(.015625)" d="m224 2022h3187v-499h-3187v499zm51 2247h3111v-487h-3111v487zm1127-1735 563-121q-154-320-333-672t-352-679q-173-326-326-582l-532 173q148 243 324 566t345 669q170 346 311 646zm934-832 563-64q-89-480-262-838t-461-614-701-432-976-298q-25 128-99 269t-157 237q659 102 1085 303 426 202 666 554t342 883zm422 3597 519-211q-147-218-298-436-150-217-278-377l-403 186q121 173 252 413 132 240 208 425zm-1203 109h563v-2957h-563v2957zm-1075-320 448 186q134-192 246-420 112-227 157-393l-467-211q-38 172-147 406t-237 432zm1094-1050 397-236q-160-263-400-529-240-265-519-489-278-224-553-378-51 103-141 237-89 135-179 218 269 109 534 294 266 186 493 416 228 231 368 467zm487-204q83-45 246-145 163-99 352-211t346-211 221-150l-327-423q-83 77-230 198-147 122-317 253-170 132-327 250-156 119-259 189l295 250zm1798 396h2311v-556h-2311v556zm115 1178 615-90q-103-640-263-1235t-384-1101q-224-505-512-889-44 57-134 134t-186 157-166 125q275 339 473 796 199 458 340 995 141 538 217 1108zm1223-1510 614-58q-147-1101-445-1940-297-838-813-1443-515-604-1321-1014-26 71-90 177-64 105-134 208-70 102-128 159 742 346 1212 880 471 535 730 1290 260 755 375 1741zm-1005-135q134-851 387-1597 253-745 659-1305 407-560 1002-874-70-57-154-150-83-93-154-189-70-96-121-179-633 371-1056 988-422 618-688 1434-265 816-425 1783l550 89zm-3309-3065 327 416q377-148 754-330 378-182 701-378 324-195 548-368l-416-435q-211 179-519 378-307 198-666 383-358 186-729 334z"/>
      <path id="s" transform="scale(.015625)" d="m3686 4378q-64-493-163-1041-99-547-265-1084-192-653-432-1104t-522-688-595-237q-320 0-596 221-275 221-448 621-172 400-172 931 0 537 220 1017 221 480 611 851 391 372 909 583 519 211 1121 211 576 0 1040-186 464-185 793-515 330-329 502-771 173-441 173-941 0-672-278-1194-278-521-816-851-538-329-1318-444l-378 601q166 20 307 42t263 48q307 70 585 217 279 148 496 375 218 227 342 534 125 308 125 692t-122 713q-121 330-358 573-236 243-582 380-346 138-781 138-525 0-935-186-409-185-694-489-284-304-432-656-147-352-147-678 0-365 89-605 90-240 224-355 135-115 276-115t288 144 297 457q151 314 298 800 147 461 246 982 100 522 145 1021l684-12z"/>
      <path id="p" transform="scale(.015625)" d="m2995 2925h2893v-519h-2893v519zm0-1280h2893v-519h-2893v519zm-64-1299h3232v-557h-3232v557zm1312 3577h563v-3763h-563v3763zm429 1466 634-141q-154-390-340-794-185-403-339-684l-512 140q103 199 208 458 106 259 195 528 90 269 154 493zm-1472 25 582-147q-153-518-371-1018-217-499-483-931t-573-758q-38 64-109 160-70 96-147 198-77 103-141 160 416 416 733 1034t509 1302zm128-1203h2720v-537h-2720v-4205h-582v4422l313 320h269zm-3174-2157q396 90 953 240 557 151 1120 311l77-544q-525-154-1053-311-528-156-963-284l-134 588zm121 2093h1965v-563h-1965v563zm819 1248h576v-5229q0-236-51-374t-192-208q-141-77-355-99-214-23-541-16-13 115-64 288t-109 294q205-6 381-6t234 0q64 0 92 28 29 29 29 93v5229z"/>
      <path id="n" transform="scale(.015625)" d="m4051 5402 595-109q-281-493-729-941t-1107-806q-39 64-106 144t-141 153q-73 74-137 119 608 288 1011 678t614 762zm-77-557h1511v-493h-1863l352 493zm1293 0h109l109 25 384-179q-192-505-496-905t-695-701q-390-301-845-519-454-217-947-358-44 109-137 253t-176 227q448 109 867 294 419 186 777 445 359 259 631 592t419 730v96zm-1990-954 377 307q167-96 336-218 170-121 320-249 151-128 247-237l-397-332q-90 108-237 236t-317 259q-169 132-329 234zm1107-934 595-109q-307-538-803-1031-496-492-1232-876-38 64-102 144t-138 156q-74 77-138 116 455 217 807 483t604 554q253 288 407 563zm-90-589h1460v-506h-1818l358 506zm1268 0h121l109 26 384-167q-192-614-531-1075t-787-794q-448-332-983-553-534-221-1129-355-45 115-132 269-86 153-176 249 551 96 1043 285 493 189 903 473 410 285 714 669t464 883v90zm-2132-1056 410 339q186-102 384-237 198-134 371-275t282-269l-435-371q-103 128-270 272-166 144-361 288t-381 253zm-2150 3533h589v-5376h-589v5376zm-992-1242h2336v-569h-2336v569zm1024-224 365-160q-96-339-231-707-134-368-291-727-157-358-336-672-179-313-365-537-44 128-134 291t-160 272q173 192 339 457 167 266 323 570 157 304 282 618t208 595zm941 1946 416-467q-314-122-695-221-380-99-784-173-403-74-780-131-20 102-71 236-51 135-102 231 358 58 732 138 375 80 711 179t573 208zm-397-2579q58-45 179-170 122-125 266-266 144-140 259-265t160-183l-352-473q-58 102-157 255-99 154-218 317-118 164-227 311-108 147-185 237l275 237z"/>
     </defs>
     <use xlink:href="#w"/>
     <use transform="translate(100)" xlink:href="#u"/>
     <use transform="translate(200)" xlink:href="#v"/>
     <use transform="translate(300)" xlink:href="#t"/>
     <use transform="translate(400)" xlink:href="#o"/>
     <use transform="translate(500)" xlink:href="#s"/>
     <use transform="translate(600)" xlink:href="#p"/>
     <use transform="translate(700)" xlink:href="#n"/>
    </g>
   </g>
  </g>
  <g id="db">
   <g id="dc">
    <path d="m52 523.06h801.2v-232.9h-801.2z" fill="#fff"/>
   </g>
   <g id="dd">
    <path d="m417.71 523.06h.32531v-232.9h-.32531z" clip-path="url(#c)" fill="#ddd" stroke="#ddd"/>
   </g>
   <g id="de">
    <path d="m418.2 523.06h.16265v-232.9h-.16265z" clip-path="url(#c)" fill="#ddd" stroke="#ddd"/>
   </g>
   <g id="df">
    <path d="m719.68 523.06h.81327v-232.9h-.81327z" clip-path="url(#c)" fill="#ddd" stroke="#ddd"/>
   </g>
   <g id="dg">
    <path d="m732.36 523.06h.16265v-232.9h-.16265z" clip-path="url(#c)" fill="#ddd" stroke="#ddd"/>
   </g>
   <g id="dh">
    <g id="di">
     <g id="dj">
      <path d="m111.52 523.06v-232.9" clip-path="url(#c)" fill="none" stroke="#b0b0b0" stroke-linecap="square" stroke-opacity=".3" stroke-width=".8"/>
     </g>
     <g id="dk">
      <use x="111.515019" y="523.055464" stroke="#000000" stroke-width=".8" xlink:href="#f"/>
     </g>
     <g id="dl">
      <!-- 2026-08-21 -->
      <g transform="translate(64.725 563.33) rotate(-30) scale(.1 -.1)">
       <defs>
        <path id="k" transform="scale(.015625)" d="m1971-90q-339 0-634 144-294 144-518 435-224 292-352 733-128 442-128 1044 0 678 147 1161 148 483 397 784 250 301 570 445t665 144q397 0 688-147 292-147 490-359l-403-448q-128 154-327 253-198 99-409 99-307 0-567-182-259-182-413-605-153-422-153-1145 0-608 115-1002t326-589q212-195 493-195 212 0 375 121 163 122 259 343t96 522q0 300-90 511-89 212-259 320-169 109-419 109-211 0-451-134t-458-461l-25 538q134 192 313 323t374 201q196 71 375 71 397 0 694-163 298-163 467-490 170-326 170-825 0-468-195-817-195-348-512-544-317-195-701-195z"/>
        <path id="h" transform="scale(.015625)" d="m301 1536v544h1689v-544h-1689z"/>
        <path id="l" transform="scale(.015625)" d="m1830-90q-441 0-787 163-345 164-547 448-202 285-202 650 0 314 122 557t314 419 403 291v32q-256 186-442 458-185 272-185 643 0 365 176 640t480 425q304 151 694 151 410 0 704-160t457-439q164-278 164-649 0-237-96-448t-234-381q-137-169-291-278v-32q218-115 397-285 179-169 288-406t109-557q0-346-189-628-189-281-532-448-342-166-803-166zm314 2708q205 198 310 419 106 221 106 464 0 211-83 384t-247 272q-163 99-393 99-288 0-480-183-192-182-192-502 0-256 134-429 135-172 359-294t486-230zm-294-2170q236 0 418 89 183 90 285 253 103 164 103 388 0 211-90 367-89 157-246 272-157 116-368 215t-454 195q-244-173-398-426-153-252-153-553 0-237 118-416 119-179 324-282 205-102 461-102z"/>
       </defs>
       <use xlink:href="#b"/>
       <use transform="translate(57)" xlink:href="#a"/>
       <use transform="translate(114)" xlink:href="#b"/>
       <use transform="translate(171)" xlink:href="#k"/>
       <use transform="translate(228)" xlink:href="#h"/>
       <use transform="translate(263.7)" xlink:href="#a"/>
       <use transform="translate(320.7)" xlink:href="#l"/>
       <use transform="translate(377.7)" xlink:href="#h"/>
       <use transform="translate(413.4)" xlink:href="#b"/>
       <use transform="translate(470.4)" xlink:href="#e"/>
      </g>
     </g>
    </g>
    <g id="dm">
     <g id="dn">
      <path d="m205.2 523.06v-232.9" clip-path="url(#c)" fill="none" stroke="#b0b0b0" stroke-linecap="square" stroke-opacity=".3" stroke-width=".8"/>
     </g>
     <g id="do">
      <use x="205.203597" y="523.055464" stroke="#000000" stroke-width=".8" xlink:href="#f"/>
     </g>
     <g id="dp">
      <!-- 2026-08-25 -->
      <g transform="translate(158.41 563.33) rotate(-30) scale(.1 -.1)">
       <use xlink:href="#b"/>
       <use transform="translate(57)" xlink:href="#a"/>
       <use transform="translate(114)" xlink:href="#b"/>
       <use transform="translate(171)" xlink:href="#k"/>
       <use transform="translate(228)" xlink:href="#h"/>
       <use transform="translate(263.7)" xlink:href="#a"/>
       <use transform="translate(320.7)" xlink:href="#l"/>
       <use transform="translate(377.7)" xlink:href="#h"/>
       <use transform="translate(413.4)" xlink:href="#b"/>
       <use transform="translate(470.4)" xlink:href="#i"/>
      </g>
     </g>
    </g>
    <g id="dq">
     <g id="dr">
      <path d="m298.89 523.06v-232.9" clip-path="url(#c)" fill="none" stroke="#b0b0b0" stroke-linecap="square" stroke-opacity=".3" stroke-width=".8"/>
     </g>
     <g id="ds">
      <use x="298.892176" y="523.055464" stroke="#000000" stroke-width=".8" xlink:href="#f"/>
     </g>
     <g id="dt">
      <!-- 2026-08-29 -->
      <g transform="translate(252.1 563.33) rotate(-30) scale(.1 -.1)">
       <defs>
        <path id="j" transform="scale(.015625)" d="m1562-90q-410 0-708 150-297 151-502 356l403 461q141-160 346-256t422-96q224 0 425 102 202 103 352 333 151 230 237 614 87 384 87 941 0 589-115 970t-323 563-496 182q-205 0-372-118-166-118-262-336t-96-525q0-301 86-512 87-211 259-323 173-112 417-112 224 0 460 141 237 141 448 461l32-544q-134-180-313-314t-371-208-384-74q-391 0-689 166-297 167-467 496-169 330-169 823 0 467 195 816t515 541 698 192q339 0 636-138 298-137 519-419 221-281 349-710t128-1018q0-691-141-1187t-391-807q-249-310-563-461-313-150-652-150z"/>
       </defs>
       <use xlink:href="#b"/>
       <use transform="translate(57)" xlink:href="#a"/>
       <use transform="translate(114)" xlink:href="#b"/>
       <use transform="translate(171)" xlink:href="#k"/>
       <use transform="translate(228)" xlink:href="#h"/>
       <use transform="translate(263.7)" xlink:href="#a"/>
       <use transform="translate(320.7)" xlink:href="#l"/>
       <use transform="translate(377.7)" xlink:href="#h"/>
       <use transform="translate(413.4)" xlink:href="#b"/>
       <use transform="translate(470.4)" xlink:href="#j"/>
      </g>
     </g>
    </g>
    <g id="du">
     <g id="dv">
      <path d="m369.16 523.06v-232.9" clip-path="url(#c)" fill="none" stroke="#b0b0b0" stroke-linecap="square" stroke-opacity=".3" stroke-width=".8"/>
     </g>
     <g id="dw">
      <use x="369.15861" y="523.055464" stroke="#000000" stroke-width=".8" xlink:href="#f"/>
     </g>
     <g id="dx">
      <!-- 2026-09-01 -->
      <g transform="translate(322.37 563.33) rotate(-30) scale(.1 -.1)">
       <use xlink:href="#b"/>
       <use transform="translate(57)" xlink:href="#a"/>
       <use transform="translate(114)" xlink:href="#b"/>
       <use transform="translate(171)" xlink:href="#k"/>
       <use transform="translate(228)" xlink:href="#h"/>
       <use transform="translate(263.7)" xlink:href="#a"/>
       <use transform="translate(320.7)" xlink:href="#j"/>
       <use transform="translate(377.7)" xlink:href="#h"/>
       <use transform="translate(413.4)" xlink:href="#a"/>
       <use transform="translate(470.4)" xlink:href="#e"/>
      </g>
     </g>
    </g>
    <g id="dy">
     <g id="dz">
      <path d="m462.85 523.06v-232.9" clip-path="url(#c)" fill="none" stroke="#b0b0b0" stroke-linecap="square" stroke-opacity=".3" stroke-width=".8"/>
     </g>
     <g id="ea">
      <use x="462.847188" y="523.055464" stroke="#000000" stroke-width=".8" xlink:href="#f"/>
     </g>
     <g id="eb">
      <!-- 2026-09-05 -->
      <g transform="translate(416.06 563.33) rotate(-30) scale(.1 -.1)">
       <use xlink:href="#b"/>
       <use transform="translate(57)" xlink:href="#a"/>
       <use transform="translate(114)" xlink:href="#b"/>
       <use transform="translate(171)" xlink:href="#k"/>
       <use transform="translate(228)" xlink:href="#h"/>
       <use transform="translate(263.7)" xlink:href="#a"/>
       <use transform="translate(320.7)" xlink:href="#j"/>
       <use transform="translate(377.7)" xlink:href="#h"/>
       <use transform="translate(413.4)" xlink:href="#a"/>
       <use transform="translate(470.4)" xlink:href="#i"/>
      </g>
     </g>
    </g>
    <g id="ec">
     <g id="ed">
      <path d="m556.54 523.06v-232.9" clip-path="url(#c)" fill="none" stroke="#b0b0b0" stroke-linecap="square" stroke-opacity=".3" stroke-width=".8"/>
     </g>
     <g id="ee">
      <use x="556.535767" y="523.055464" stroke="#000000" stroke-width=".8" xlink:href="#f"/>
     </g>
     <g id="ef">
      <!-- 2026-09-09 -->
      <g transform="translate(509.75 563.33) rotate(-30) scale(.1 -.1)">
       <use xlink:href="#b"/>
       <use transform="translate(57)" xlink:href="#a"/>
       <use transform="translate(114)" xlink:href="#b"/>
       <use transform="translate(171)" xlink:href="#k"/>
       <use transform="translate(228)" xlink:href="#h"/>
       <use transform="translate(263.7)" xlink:href="#a"/>
       <use transform="translate(320.7)" xlink:href="#j"/>
       <use transform="translate(377.7)" xlink:href="#h"/>
       <use transform="translate(413.4)" xlink:href="#a"/>
       <use transform="translate(470.4)" xlink:href="#j"/>
      </g>
     </g>
    </g>
    <g id="eg">
     <g id="eh">
      <path d="m650.22 523.06v-232.9" clip-path="url(#c)" fill="none" stroke="#b0b0b0" stroke-linecap="square" stroke-opacity=".3" stroke-width=".8"/>
     </g>
     <g id="ei">
      <use x="650.224345" y="523.055464" stroke="#000000" stroke-width=".8" xlink:href="#f"/>
     </g>
     <g id="ej">
      <!-- 2026-09-13 -->
      <g transform="translate(603.43 563.33) rotate(-30) scale(.1 -.1)">
       <defs>
        <path id="q" transform="scale(.015625)" d="m1715-90q-371 0-656 90t-503 240q-217 150-377 323l359 474q211-205 479-359 269-153 634-153 269 0 467 92 199 93 311 266t112 423q0 256-125 451t-429 300q-304 106-835 106v551q467 0 732 105 266 106 384 291 119 186 119 423 0 307-192 489-192 183-531 183-269 0-503-119-233-118-438-316l-384 460q282 256 614 413 333 157 737 157 422 0 748-144 327-144 512-413 186-269 186-659 0-403-221-685-221-281-592-422v-26q269-70 490-227t349-400 128-557q0-422-215-726-214-304-573-468-358-163-787-163z"/>
       </defs>
       <use xlink:href="#b"/>
       <use transform="translate(57)" xlink:href="#a"/>
       <use transform="translate(114)" xlink:href="#b"/>
       <use transform="translate(171)" xlink:href="#k"/>
       <use transform="translate(228)" xlink:href="#h"/>
       <use transform="translate(263.7)" xlink:href="#a"/>
       <use transform="translate(320.7)" xlink:href="#j"/>
       <use transform="translate(377.7)" xlink:href="#h"/>
       <use transform="translate(413.4)" xlink:href="#e"/>
       <use transform="translate(470.4)" xlink:href="#q"/>
      </g>
     </g>
    </g>
    <g id="ek">
     <g id="el">
      <path d="m743.91 523.06v-232.9" clip-path="url(#c)" fill="none" stroke="#b0b0b0" stroke-linecap="square" stroke-opacity=".3" stroke-width=".8"/>
     </g>
     <g id="em">
      <use x="743.912924" y="523.055464" stroke="#000000" stroke-width=".8" xlink:href="#f"/>
     </g>
     <g id="en">
      <!-- 2026-09-17 -->
      <g transform="translate(697.12 563.33) rotate(-30) scale(.1 -.1)">
       <use xlink:href="#b"/>
       <use transform="translate(57)" xlink:href="#a"/>
       <use transform="translate(114)" xlink:href="#b"/>
       <use transform="translate(171)" xlink:href="#k"/>
       <use transform="translate(228)" xlink:href="#h"/>
       <use transform="translate(263.7)" xlink:href="#a"/>
       <use transform="translate(320.7)" xlink:href="#j"/>
       <use transform="translate(377.7)" xlink:href="#h"/>
       <use transform="translate(413.4)" xlink:href="#e"/>
       <use transform="translate(470.4)" xlink:href="#m"/>
      </g>
     </g>
    </g>
    <g id="eo">
     <g id="ep">
      <path d="m837.6 523.06v-232.9" clip-path="url(#c)" fill="none" stroke="#b0b0b0" stroke-linecap="square" stroke-opacity=".3" stroke-width=".8"/>
     </g>
     <g id="eq">
      <use x="837.601502" y="523.055464" stroke="#000000" stroke-width=".8" xlink:href="#f"/>
     </g>
     <g id="er">
      <!-- 2026-09-21 -->
      <g transform="translate(790.81 563.33) rotate(-30) scale(.1 -.1)">
       <use xlink:href="#b"/>
       <use transform="translate(57)" xlink:href="#a"/>
       <use transform="translate(114)" xlink:href="#b"/>
       <use transform="translate(171)" xlink:href="#k"/>
       <use transform="translate(228)" xlink:href="#h"/>
       <use transform="translate(263.7)" xlink:href="#a"/>
       <use transform="translate(320.7)" xlink:href="#j"/>
       <use transform="translate(377.7)" xlink:href="#h"/>
       <use transform="translate(413.4)" xlink:href="#b"/>
       <use transform="translate(470.4)" xlink:href="#e"/>
      </g>
     </g>
    </g>
   </g>
   <g id="es">
    <g id="et">
     <g id="eu">
      <path d="m52 511.18h801.2" clip-path="url(#c)" fill="none" stroke="#b0b0b0" stroke-linecap="square" stroke-opacity=".3" stroke-width=".8"/>
     </g>
     <g id="ev">
      <use x="52" y="511.183911" stroke="#000000" stroke-width=".8" xlink:href="#g"/>
     </g>
     <g id="ew">
      <!-- 117000 -->
      <g transform="translate(10.8 515.17) scale(.1 -.1)">
       <use xlink:href="#e"/>
       <use transform="translate(57)" xlink:href="#e"/>
       <use transform="translate(114)" xlink:href="#m"/>
       <use transform="translate(171)" xlink:href="#a"/>
       <use transform="translate(228)" xlink:href="#a"/>
       <use transform="translate(285)" xlink:href="#a"/>
      </g>
     </g>
    </g>
    <g id="ex">
     <g id="ey">
      <path d="m52 484.41h801.2" clip-path="url(#c)" fill="none" stroke="#b0b0b0" stroke-linecap="square" stroke-opacity=".3" stroke-width=".8"/>
     </g>
     <g id="ez">
      <use x="52" y="484.406977" stroke="#000000" stroke-width=".8" xlink:href="#g"/>
     </g>
     <g id="fa">
      <!-- 118000 -->
      <g transform="translate(10.8 488.39) scale(.1 -.1)">
       <use xlink:href="#e"/>
       <use transform="translate(57)" xlink:href="#e"/>
       <use transform="translate(114)" xlink:href="#l"/>
       <use transform="translate(171)" xlink:href="#a"/>
       <use transform="translate(228)" xlink:href="#a"/>
       <use transform="translate(285)" xlink:href="#a"/>
      </g>
     </g>
    </g>
    <g id="fb">
     <g id="fc">
      <path d="m52 457.63h801.2" clip-path="url(#c)" fill="none" stroke="#b0b0b0" stroke-linecap="square" stroke-opacity=".3" stroke-width=".8"/>
     </g>
     <g id="fd">
      <use x="52" y="457.630044" stroke="#000000" stroke-width=".8" xlink:href="#g"/>
     </g>
     <g id="fe">
      <!-- 119000 -->
      <g transform="translate(10.8 461.62) scale(.1 -.1)">
       <use xlink:href="#e"/>
       <use transform="translate(57)" xlink:href="#e"/>
       <use transform="translate(114)" xlink:href="#j"/>
       <use transform="translate(171)" xlink:href="#a"/>
       <use transform="translate(228)" xlink:href="#a"/>
       <use transform="translate(285)" xlink:href="#a"/>
      </g>
     </g>
    </g>
    <g id="ff">
     <g id="fg">
      <path d="m52 430.85h801.2" clip-path="url(#c)" fill="none" stroke="#b0b0b0" stroke-linecap="square" stroke-opacity=".3" stroke-width=".8"/>
     </g>
     <g id="fh">
      <use x="52" y="430.853111" stroke="#000000" stroke-width=".8" xlink:href="#g"/>
     </g>
     <g id="fi">
      <!-- 120000 -->
      <g transform="translate(10.8 434.84) scale(.1 -.1)">
       <use xlink:href="#e"/>
       <use transform="translate(57)" xlink:href="#b"/>
       <use transform="translate(114)" xlink:href="#a"/>
       <use transform="translate(171)" xlink:href="#a"/>
       <use transform="translate(228)" xlink:href="#a"/>
       <use transform="translate(285)" xlink:href="#a"/>
      </g>
     </g>
    </g>
    <g id="fj">
     <g id="fk">
      <path d="m52 404.08h801.2" clip-path="url(#c)" fill="none" stroke="#b0b0b0" stroke-linecap="square" stroke-opacity=".3" stroke-width=".8"/>
     </g>
     <g id="fl">
      <use x="52" y="404.076178" stroke="#000000" stroke-width=".8" xlink:href="#g"/>
     </g>
     <g id="fm">
      <!-- 121000 -->
      <g transform="translate(10.8 408.06) scale(.1 -.1)">
       <use xlink:href="#e"/>
       <use transform="translate(57)" xlink:href="#b"/>
       <use transform="translate(114)" xlink:href="#e"/>
       <use transform="translate(171)" xlink:href="#a"/>
       <use transform="translate(228)" xlink:href="#a"/>
       <use transform="translate(285)" xlink:href="#a"/>
      </g>
     </g>
    </g>
    <g id="fn">
     <g id="fo">
      <path d="m52 377.3h801.2" clip-path="url(#c)" fill="none" stroke="#b0b0b0" stroke-linecap="square" stroke-opacity=".3" stroke-width=".8"/>
     </g>
     <g id="fp">
      <use x="52" y="377.299245" stroke="#000000" stroke-width=".8" xlink:href="#g"/>
     </g>
     <g id="fq">
      <!-- 122000 -->
      <g transform="translate(10.8 381.28) scale(.1 -.1)">
       <use xlink:href="#e"/>
       <use transform="translate(57)" xlink:href="#b"/>
       <use transform="translate(114)" xlink:href="#b"/>
       <use transform="translate(171)" xlink:href="#a"/>
       <use transform="translate(228)" xlink:href="#a"/>
       <use transform="translate(285)" xlink:href="#a"/>
      </g>
     </g>
    </g>
    <g id="fr">
     <g id="fs">
      <path d="m52 350.52h801.2" clip-path="url(#c)" fill="none" stroke="#b0b0b0" stroke-linecap="square" stroke-opacity=".3" stroke-width=".8"/>
     </g>
     <g id="ft">
      <use x="52" y="350.522311" stroke="#000000" stroke-width=".8" xlink:href="#g"/>
     </g>
     <g id="fu">
      <!-- 123000 -->
      <g transform="translate(10.8 354.51) scale(.1 -.1)">
       <use xlink:href="#e"/>
       <use transform="translate(57)" xlink:href="#b"/>
       <use transform="translate(114)" xlink:href="#q"/>
       <use transform="translate(171)" xlink:href="#a"/>
       <use transform="translate(228)" xlink:href="#a"/>
       <use transform="translate(285)" xlink:href="#a"/>
      </g>
     </g>
    </g>
    <g id="fv">
     <g id="fw">
      <path d="m52 323.75h801.2" clip-path="url(#c)" fill="none" stroke="#b0b0b0" stroke-linecap="square" stroke-opacity=".3" stroke-width=".8"/>
     </g>
     <g id="fx">
      <use x="52" y="323.745378" stroke="#000000" stroke-width=".8" xlink:href="#g"/>
     </g>
     <g id="fy">
      <!-- 124000 -->
      <g transform="translate(10.8 327.73) scale(.1 -.1)">
       <defs>
        <path id="x" transform="scale(.015625)" d="m2170 0v3072q0 192 12 457 13 266 20 458h-26q-90-179-183-365-92-185-195-364l-921-1415h2579v-576h-3328v493l1875 2957h858v-4717h-691z"/>
       </defs>
       <use xlink:href="#e"/>
       <use transform="translate(57)" xlink:href="#b"/>
       <use transform="translate(114)" xlink:href="#x"/>
       <use transform="translate(171)" xlink:href="#a"/>
       <use transform="translate(228)" xlink:href="#a"/>
       <use transform="translate(285)" xlink:href="#a"/>
      </g>
     </g>
    </g>
    <g id="fz">
     <g id="ga">
      <path d="m52 296.97h801.2" clip-path="url(#c)" fill="none" stroke="#b0b0b0" stroke-linecap="square" stroke-opacity=".3" stroke-width=".8"/>
     </g>
     <g id="gb">
      <use x="52" y="296.968445" stroke="#000000" stroke-width=".8" xlink:href="#g"/>
     </g>
     <g id="gc">
      <!-- 125000 -->
      <g transform="translate(10.8 300.95) scale(.1 -.1)">
       <use xlink:href="#e"/>
       <use transform="translate(57)" xlink:href="#b"/>
       <use transform="translate(114)" xlink:href="#i"/>
       <use transform="translate(171)" xlink:href="#a"/>
       <use transform="translate(228)" xlink:href="#a"/>
       <use transform="translate(285)" xlink:href="#a"/>
      </g>
     </g>
    </g>
   </g>
   <g id="gd">
    <path d="m88.418 361.58 1.1386-.10711.48796-.053554.24398-.10711.40664-.026777 4.8796-.10711.24398-.080331 3.985-.10711h.32531l1.6265-.10711.73194-.13388.65062-.10711.24398-.10711h.32531l.65062-.10711.24398-.053554.56929-.080331.65062-.080331.32531-.10711.8946-.10711.24398-.053554.40663.053554.24398-.080331.32531.10711h.24398l.24398-.18744.56929-.32132h.32531l.56929-.29455.16265-.026777.40664-.10711.56929-.26777.24398-.026777.32531-.080331.32531-.10711 1.3012-.32132.24398.026777.40663-.16066 1.3012-.10711.40663-.026777 4.1477-.10711.40664-.053554h.32531l3.0904-.10711.56929-.08033 1.3826-.10711.40663-.053554.32531.10711.65062-.32132.24398-.026776 1.9518-.080331.32531-.13388.56929-.10711.24398-.08033.32531.08033.16265-.10711 2.1958-.10711.24398-.13388.24398-.21422.73194-.26777.16265-.13388.24398-.026777.16265-.10711.24398-.026777.16265-.13388.40663-.08033.40664-.16066h.32531l2.0332-.10711.65062-.10711 4.229-.10711.65062-.10711 2.7651-.053554.24398-.16066 1.1386-.10711.24398.026777 2.4398-.080331.16265-.080331.97592.080331.24398.080331.65062-.10711.24398.026777.32531-.10711.81327-.16066.56929-.10711.56929-.29455.97592-.58909h.32531l.16265-.026777 1.7892-.6962.24398-.13388h.16265l.24398.053554.24398-.080331.16265-.053553 1.3012-.3481h.32531l.40663-.08033.24398-.080331 1.9518-.10711.24398-.053554.32531.10711 2.5211-.10711.48796-.053554 1.6265-.08033.24398-.053554 2.0332-.080331.16265-.053554h.32531l3.1717-.080331 1.2199-.26777.40663.026777.16265-.026777.40664.026777.48796-.053554.24398.026777.40663-.16066.73194-.10711.97592-.24099.16265.080331 2.1958-.64265.16265.053553.32531-.10711.65062-.10711 9.6779-.080331.32531-.10711 1.3012-.10711.24398-.080331 1.4639-.080331.16265-.053554.56929.13388.24398-.053554.32531-.026777h.24398l.32531-.026777.32531.026777.65062-.13388.40663.053554.40664-.026777 1.1386-.18744h.32531l1.7079-.50876.081326.053554.16265-.053554.56929-.10711.73194-.13388.65062-.053554.24398-.13388.97592-.21422.16265-.026777.40663-.026777.73194-.10711.73194-.13388 3.0091-.10711.56929-.080331 3.0904-.10711.32531-.10711.97592-.10711.73194-.13388 1.2199-.10711.8946-.18744 1.9518-.10711.56929-.080331.73194-.10711.16265-.053553h.32531l.24398-.080331.81327.10711h.32531l.24398-.10711.56929-.10711.56929-.18744.32531-.21422 1.3012-.21422 1.5452-.40165.16265-.026777.16265-.13388 1.0572-.10711.40663-.026777 8.0514.10711.32531.026777.16265-.026777.24398.053554.73194-.10711.40663-.026777.48796.053554 5.3676-.10711h.32531l2.2772-.08033.32531-.13388.65062-.080331.16265-.026777h.24398l.81327-.21422.16265.13388 1.3012-.16066.48796-.24099.40664.026777 4.229-.08033.24398-.053554 4.3103-.10711.24398-.053554.40663-.053554.16265.080331 5.4489-.080331.32531-.10711.24398.053553.32531-.10711.32531-.026777h.32531l1.9518-.080331.24398-.053554.16265.026777 1.9518-.53554 2.9278-.08033.16265-.053554.40663.026777 1.2199-.080331.16265-.053554.40664.026777.24398.026777 4.717-.10711.81327-.18744.40663.026776 2.7651-.08033.24398-.053554 2.5211-.080331.32531-.13388 1.3012.080331.24398.10711.32531-.13388.48796.053554 1.3012-.21422.56929-.26777.24398-.26777h.24398l.24398-.080331.8946-.053554.24398-.10711.32531.026776.40663-.16066.24398-.080331.16265-.10711 1.4639.10711.40663.026777 3.985-.10711.40663-.026777 7.6447-.026777.24398-.16066.73194-.10711.81327-.21422.24398.053553 1.7079-.45521 1.0572-.10711.73194-.13388h.24398l.56929-.10711h.24398l.40664-.16066.24398-.18744.81327-.42843 1.3012-.32132.8946-.080331.16265-.08033 1.3826-.37488.73194-.080331 5.4489-.10711.81327-.18744.40663.053554.40664-.026777 1.3012-.10711h.32531l3.5784-.10711 1.1386-.26777 2.1145-.10711.65062-.10711h.24398l.56929-.26777.48796.053554 3.1717-.93719.16265.026777.16265-.16066 4.7983.10711.24398.053554 4.229-.10711.48796-.053554 1.6265.10711h.24398l.48796-.053554 1.2199-.10711.40664-.026776h.24398l.73194-.16066.16265-.053554h.24398.32531l.56929-.10711h.32531l.40664.026777.24398-.13388.48796-.080331.16265.053554.40663-.053554h.32531l.48796-.10711.24398-.080331.65062-.10711.32531-.13388 1.4639-.32132.24398-.10711h.24398l.16265.080331.40663-.10711.24398.026777.40663.026777.24398.026777 3.5784.10711.48796.053553 7.1568-.10711.65062-.10711 3.985-.080331.24398-.13388.40664-.026776 2.1145-.10711.32531-.10711.48796-.080331.48796-.16066.24398.026777 1.4639-.10711.24398-.080331.16265.080331.32531-.080331.24398-.053554 1.7892-.10711.48796-.053553 11.467-.10711.73194-.13388 5.1236-.10711.40664-.026776 2.0332-.026777.16265-.10711.56929-.080331.97592-.10711.73194-.26777m.32531 0h.16265m.16265.026777.40663.026777 2.3585.080331.24398.053554 4.0663-.10711h.32531l1.0572-.10711.48796-.053554 4.0663-.10711.8946-.18744.24398-.053554.16265-.080331 1.1386-.10711.65062-.10711.48796-.053554.16265-.053554h.24398l.8946-.21422.48796.08033 1.3826-.37488.40664.053554 2.5211-.10711.24398-.080331 1.3826-.10711.40664-.026777 2.9278.10711.40663.026777 2.9278.10711.40664.026777.48796-.053553.40664.026776 3.0091-.10711.48796-.053554.16265.026777.32531-.026777.24398-.026777 1.8705-.10711.81327-.16066 1.3012-.053554.24398-.10711.24398-.026777.32531-.10711 1.4639-.53554.40663-.37488.65062-.10711.24398-.053554.32531-.18744.24398-.026776.56929-.18744.16265.053554.24398-.053554.65062-.10711h.32531l7.4007-.10711.40663-.026777.40663.053553.56929-.08033.32531.026777.65062-.10711.8946-.10711.40664-.053554.24398-.026777.73194-.13388 1.8705-.080331.16265-.10711.48796-.10711.40663-.18744.32531.026777.24398-.053554.73194-.10711.48796-.053554.24398.080331.65062-.10711.40663-.026777.56929-.08033.16265-.026777h.24398l.40663-.21422.24398-.16066.16265.026777 1.3012-.48198.16265-.13388.56929-.10711.65062-.10711 1.6265-.080331.24398-.10711h.24398l.48796-.053554 3.3344-.080331.24398-.053553 2.6838-.10711.56929-.080331 2.9278-.10711 1.3012-.32132.73194-.10711.24398-.08033h.32531l.56929-.080331 2.2772-.080331.24398-.080331.16265.080331.24398-.10711.65062-.10711.48796.053553.73194.026777.16265-.21422 1.3826-.53554.32531-.29455 1.1386-.080331.32531-.10711.24398.026777 1.3826-.10711.56929-.080331 6.7501-.10711.73194-.13388 4.6356-.10711.40664-.053554.24398-.026777 1.5452-.080331.40664-.16066.65062-.10711.24398-.026777.24398-.16066.40664-.21422h.32531l.40664-.080331.24398-.080331.40663.10711.16265.026777.24398-.10711.32531-.10711.40663.026777.24398-.10711.40664-.16066.24398-.24099.56929-.080331.16265-.026777 1.9518-.10711h.32531l.40664.026777 7.5634.10711.40663.026777 1.3826-.10711.40664-.026777.24398.053554 3.4157-.10711.48796-.053554h.32531l.24398-.053554.40664.026777.81327-.053554.16265-.16066 2.5211-.080331.16265-.16066.32531.026777.56929-.10711.16265.08033 1.3826-.10711.48796-.053554.16265.053554.32531-.21422 1.6265-.10711.65062-.10711 9.3526.10711.48796.053553.65062-.10711 2.2772-.10711h.32531l.73194-.10711.48796-.080331.40664.053554.32531-.026777.24398-.026777 1.3012-.10711.73194-.13388.56929-.10711.40664-.16066 1.3826-.3481 3.0904-.10711.24398-.080331h.24398l.48796-.053554 11.711-.10711.16265-.08033.16265.026777.73194-.16066.16265.053554h.24398.32531l.16265-.053554h.24398l.24398.053554.16265-.053554.48796-.053554 1.3012-.10711 1.4639-.40165h.16265l.24398-.053554.16265-.08033.24398-.053554.48796-.053554.40664.026777 16.021-.10711.65062-.10711 1.1386-.10711.56929-.080331.40663-.10711.73194-.080331h.24398l.24398-.026777.40663-.16066 1.4639-.37488.16265.026777.16265-.080331.32531-.10711 1.3012-.080331.24398-.16066 1.0572-.10711.16265-.053554.8946-.080331.24398-.053553h.32531l4.0663-.10711h.32531l.48796.053554 1.0572-.080331.24398-.053554 5.2049-.10711 1.4639-.37488 1.7079-.10711.40664-.18744.40663.080331.73194-.16066.65062-.10711.24398.026777.32531-.18744.32531-.10711.24398-.053554.24398.10711.40664-.29455.65062-.21422 1.7079-.45521 2.9278-.10711.40663-.026777 3.741-.10711h.32531l2.0332-.13388.8946-.10711.40663-.053554h.16265l.40664-.080331.32531-.13388 1.0572-.24099 1.6265-.10711.40663-.053554h.24398l.32531-.026777h.32531l2.6025-.10711h.16265l.40664.053553.8946-.18744h.32531l.48796-.21422.24398-.16066.24398-.080331.56929-.29455h.24398l.32531-.10711 1.2199-.32132.73194-.080331 2.3585-.10711.40664-.026777 4.1477-.10711.32531-.026777.48796.053554 5.5302.08033.24398.080331.40664-.026777h.081327l.16265.10711.40663-.026777.24398.053554.24398-.10711.32531-.10711h.32531l.24398-.08033.24398.053553 2.0332-.13388.56929-.29455.65062-.10711 1.4639-.37488.32531-.10711 1.2199-.29455 2.3585-.10711.48796-.053554 7.0754-.10711.40664-.026777 6.1808-.10711.81327-.18744.24398-.026777.97592-.053554.24398-.10711.81327-.16066.40664-.10711.24398-.053554.32531.026777.48796-.40165.40664.053554.32531-.10711m.81327 204.92.081327-205.19.081327.053554.48796-.10711.40664-.026777.40663-.08033.24398-.053554 2.7651-.080331.24398-.080331h7.1568m.16265 0 .32531-.10711 1.7892-.10711.65062-.10711.40664.080331.32531-.10711 1.6265-.10711.56929-.080331 1.3012-.10711.73194-.13388.40663.053554.40664-.21422.16265.026777.16265-.10711.16265.08033.32531-.10711 1.3826-.40165.16265.053554.65062-.16066.16265.080331.32531-.10711.56929-.080331.73194-.10711.16265-.080331.16265.026777.16265.21422 2.0332-.10711.40663-.026777 3.2531-.10711.40663-.026777 2.0332-.10711.24398.026777 3.5784-.10711.40663-.053554.40663.053554h.32531l2.1145-.10711.8946-.18744 1.0572-.10711.40663-.16066 1.1386-.10711.56929-.26777.8946-.053554.24398-.16066.81327-.10711.81327-.16066 2.1145-.080331.16265-.080331 2.9278-.10711h.24398l.40663.026777 6.5062.10711.40664.026777 3.0091-.10711.16265-.026777.24398.026777.24398-.08033 1.3826.053553.16265.13388 1.1386-.080331.16265-.026777.8946-.053554.32531-.18744 1.7079-.45521.40664.026777.40663-.026777 1.9518-.10711h.32531l3.3344.10711.40663.026777 4.473-.10711.40664-.026777 3.0091-.08033h.16265l1.0572-.080331.48796-.21422.48796-.053554.16265.10711.73194-.10711.32531-.026776.40663.026776.48796-.053553.24398-.13388.32531-.053554.16265-.080331.16265-.053554 1.1386-.29455h.24398l1.0572-.24099 1.2199-.10711.32531-.10711.48796-.080331.32531.10711.48796.053554.40664-.16066.24398.026777h.32531v0" clip-path="url(#c)" fill="none" stroke="#28f" stroke-linecap="square" stroke-width="1.5"/>
   </g>
   <g id="ge">
    <path d="m52 523.06v-232.9" fill="none" stroke="#000" stroke-linecap="square" stroke-width=".8"/>
   </g>
   <g id="gf">
    <path d="m853.2 523.06v-232.9" fill="none" stroke="#000" stroke-linecap="square" stroke-width=".8"/>
   </g>
   <g id="gg">
    <path d="m52 523.06h801.2" fill="none" stroke="#000" stroke-linecap="square" stroke-width=".8"/>
   </g>
   <g id="gh">
    <path d="m52 290.16h801.2" fill="none" stroke="#000" stroke-linecap="square" stroke-width=".8"/>
   </g>
   <g id="gi">
    <!-- サーバー数の推移 -->
    <g transform="translate(404.6 284.16) scale(.12 -.12)">
     <defs>
      <path id="z" transform="scale(.015625)" d="m4685 2893q0-621-84-1111-83-489-288-877-204-387-569-691t-928-560l-544 512q448 167 781 371 333 205 550 503 218 298 323 739 106 442 106 1075v1620q0 192-10 339-9 147-22 217h723q-6-70-22-217t-16-339v-1581zm-2304 2086q-7-64-23-199-16-134-16-313v-2317q0-128 6-256 7-128 13-224 7-96 13-140h-710q6 44 12 140 7 96 13 221 7 125 7 259v2317q0 122-10 256-9 135-28 256h723zm-1978-1197q45-12 144-22t237-20q138-9 285-9h4217q237 0 394 13t246 26v-679q-76 7-240 13-163 6-393 6h-4224q-147 0-282-3-134-3-234-10-99-6-150-12v697z"/>
      <path id="r" transform="scale(.015625)" d="m621 2854q109-6 265-16 157-9 339-16 183-6 349-6 128 0 352 0t509 0 598 0q314 0 624 0 311 0 586 0t486 0q212 0 327 0 230 0 416 16t301 22v-793q-109 6-308 19-198 13-409 13-109 0-324 0-214 0-489 0t-586 0q-310 0-624 0-313 0-598 0t-509 0-352 0q-262 0-525-10-262-9-428-22v793z"/>
      <path id="y" transform="scale(.015625)" d="m4941 5037q83-109 176-269t182-320q90-160 154-288l-416-179q-96 192-240 448t-272 435l416 173zm723 275q83-122 182-282 100-160 196-317 96-156 153-271l-416-186q-102 205-246 454-144 250-279 429l410 173zm-4339-3360q102 262 201 556 100 295 183 612t144 630q61 314 93 602l723-147q-19-83-45-183-26-99-48-195t-42-166q-32-154-86-394t-131-512-164-551q-86-278-182-514-115-301-269-618-153-317-326-618-173-300-346-550l-697 294q301 397 563 874t429 880zm3155 198q-96 250-215 531-118 282-243 567-124 285-246 534-122 250-224 429l659 218q96-179 221-429t253-535q128-284 249-566 122-281 218-525 90-230 195-518 106-288 211-592 106-304 195-589 90-285 154-515l-729-237q-84 352-199 736t-240 768-259 723z"/>
     </defs>
     <use xlink:href="#z"/>
     <use transform="translate(100)" xlink:href="#r"/>
     <use transform="translate(200)" xlink:href="#y"/>
     <use transform="translate(300)" xlink:href="#r"/>
     <use transform="translate(400)" xlink:href="#o"/>
     <use transform="translate(500)" xlink:href="#s"/>
     <use transform="translate(600)" xlink:href="#p"/>
     <use transform="translate(700)" xlink:href="#n"/>
    </g>
   </g>
  </g>
 </g>
 <defs>
  <clipPath id="d">
   <rect x="52" y="26.88" width="801.2" height="232.9"/>
  </clipPath>
  <clipPath id="c">
   <rect x="52" y="290.16" width="801.2" height="232.9"/>
  </clipPath>
 </defs>
</svg>
