<!DOCTYPE svg  PUBLIC '-//W3C//DTD SVG 1.1//EN'  'http://www.w3.org/Graphics/SVG/1.1/DTD/svg11.dtd'>
<svg version="1.1" viewBox="0 0 864 576" xmlns="http://www.w3.org/2000/svg" xmlns:xlink="http://www.w3.org/1999/xlink">
 <defs>
  <style type="text/css">*{stroke-linejoin: round; stroke-linecap: butt}</style>
 </defs>
 <g id="aa">
  <g id="ab">
   <path d="m0 576h864v-576h-864z" fill="#fff"/>
  </g>
  <g id="ac">
   <g id="ad">
    <path d="m52.09 259.76h801.11v-232.88h-801.11z" fill="#fff"/>
   </g>
   <g id="ae">
    <path d="m248.59 259.76h.32538v-232.88h-.32538z" clip-path="url(#c)" fill="#ddd" stroke="#ddd"/>
   </g>
   <g id="af">
    <path d="m249.08 259.76h.16269v-232.88h-.16269z" clip-path="url(#c)" fill="#ddd" stroke="#ddd"/>
   </g>
   <g id="ag">
    <path d="m347.51 259.76h.16269v-232.88h-.16269z" clip-path="url(#c)" fill="#ddd" stroke="#ddd"/>
   </g>
   <g id="ah">
    <path d="m385.98 259.76h.16269v-232.88h-.16269z" clip-path="url(#c)" fill="#ddd" stroke="#ddd"/>
   </g>
   <g id="ai">
    <g id="aj">
     <g id="ak">
      <path d="m129.75 259.76v-232.88" clip-path="url(#c)" fill="none" stroke="#b0b0b0" stroke-linecap="square" stroke-opacity=".3" stroke-width=".8"/>
     </g>
     <g id="al">
      <defs>
       <path id="e" d="m0 0v3.5" stroke="#000" stroke-width=".8"/>
      </defs>
      <use x="129.746008" y="259.755232" stroke="#000000" stroke-width=".8" xlink:href="#e"/>
     </g>
    </g>
    <g id="am">
     <g id="an">
      <path d="m200.03 259.76v-232.88" clip-path="url(#c)" fill="none" stroke="#b0b0b0" stroke-linecap="square" stroke-opacity=".3" stroke-width=".8"/>
     </g>
     <g id="ao">
      <use x="200.028091" y="259.755232" stroke="#000000" stroke-width=".8" xlink:href="#e"/>
     </g>
    </g>
    <g id="ap">
     <g id="aq">
      <path d="m293.74 259.76v-232.88" clip-path="url(#c)" fill="none" stroke="#b0b0b0" stroke-linecap="square" stroke-opacity=".3" stroke-width=".8"/>
     </g>
     <g id="ar">
      <use x="293.737535" y="259.755232" stroke="#000000" stroke-width=".8" xlink:href="#e"/>
     </g>
    </g>
    <g id="as">
     <g id="at">
      <path d="m387.45 259.76v-232.88" clip-path="url(#c)" fill="none" stroke="#b0b0b0" stroke-linecap="square" stroke-opacity=".3" stroke-width=".8"/>
     </g>
     <g id="au">
      <use x="387.44698" y="259.755232" stroke="#000000" stroke-width=".8" xlink:href="#e"/>
     </g>
    </g>
    <g id="av">
     <g id="aw">
      <path d="m481.16 259.76v-232.88" clip-path="url(#c)" fill="none" stroke="#b0b0b0" stroke-linecap="square" stroke-opacity=".3" stroke-width=".8"/>
     </g>
     <g id="ax">
      <use x="481.156424" y="259.755232" stroke="#000000" stroke-width=".8" xlink:href="#e"/>
     </g>
    </g>
    <g id="ay">
     <g id="az">
      <path d="m574.87 259.76v-232.88" clip-path="url(#c)" fill="none" stroke="#b0b0b0" stroke-linecap="square" stroke-opacity=".3" stroke-width=".8"/>
     </g>
     <g id="ba">
      <use x="574.865868" y="259.755232" stroke="#000000" stroke-width=".8" xlink:href="#e"/>
     </g>
    </g>
    <g id="bb">
     <g id="bc">
      <path d="m668.58 259.76v-232.88" clip-path="url(#c)" fill="none" stroke="#b0b0b0" stroke-linecap="square" stroke-opacity=".3" stroke-width=".8"/>
     </g>
     <g id="bd">
      <use x="668.575312" y="259.755232" stroke="#000000" stroke-width=".8" xlink:href="#e"/>
     </g>
    </g>
    <g id="be">
     <g id="bf">
      <path d="m762.28 259.76v-232.88" clip-path="url(#c)" fill="none" stroke="#b0b0b0" stroke-linecap="square" stroke-opacity=".3" stroke-width=".8"/>
     </g>
     <g id="bg">
      <use x="762.284757" y="259.755232" stroke="#000000" stroke-width=".8" xlink:href="#e"/>
     </g>
    </g>
   </g>
   <g id="bh">
    <g id="bi">
     <g id="bj">
      <path d="m52.09 245.68h801.11" clip-path="url(#c)" fill="none" stroke="#b0b0b0" stroke-linecap="square" stroke-opacity=".3" stroke-width=".8"/>
     </g>
     <g id="bk">
      <defs>
       <path id="g" d="m0 0h-3.5" stroke="#000" stroke-width=".8"/>
      </defs>
      <use x="52.09" y="245.680355" stroke="#000000" stroke-width=".8" xlink:href="#g"/>
     </g>
     <g id="bl">
      <!-- 400 -->
      <g transform="translate(27.99 249.67) scale(.1 -.1)">
       <defs>
        <path id="m" transform="scale(.015625)" d="m2170 0v3072q0 192 12 457 13 266 20 458h-26q-90-179-183-365-92-185-195-364l-921-1415h2579v-576h-3328v493l1875 2957h858v-4717h-691z"/>
        <path id="a" transform="scale(.015625)" d="m1830-90q-460 0-806 275-346 276-535 823-188 547-188 1366 0 820 188 1357 189 538 535 803 346 266 806 266 461 0 800-269 340-269 528-803 189-534 189-1354 0-819-189-1366-188-547-528-823-339-275-800-275zm0 589q237 0 422 185 186 186 288 599 103 413 103 1091 0 679-103 1082-102 403-288 582-185 180-422 180-236 0-422-180-186-179-292-582-105-403-105-1082 0-678 105-1091 106-413 292-599 186-185 422-185z"/>
       </defs>
       <use xlink:href="#m"/>
       <use transform="translate(57)" xlink:href="#a"/>
       <use transform="translate(114)" xlink:href="#a"/>
      </g>
     </g>
    </g>
    <g id="bm">
     <g id="bn">
      <path d="m52.09 218.31h801.11" clip-path="url(#c)" fill="none" stroke="#b0b0b0" stroke-linecap="square" stroke-opacity=".3" stroke-width=".8"/>
     </g>
     <g id="bo">
      <use x="52.09" y="218.310639" stroke="#000000" stroke-width=".8" xlink:href="#g"/>
     </g>
     <g id="bp">
      <!-- 800 -->
      <g transform="translate(27.99 222.3) scale(.1 -.1)">
       <defs>
        <path id="l" transform="scale(.015625)" d="m1830-90q-441 0-787 163-345 164-547 448-202 285-202 650 0 314 122 557t314 419 403 291v32q-256 186-442 458-185 272-185 643 0 365 176 640t480 425q304 151 694 151 410 0 704-160t457-439q164-278 164-649 0-237-96-448t-234-381q-137-169-291-278v-32q218-115 397-285 179-169 288-406t109-557q0-346-189-628-189-281-532-448-342-166-803-166zm314 2708q205 198 310 419 106 221 106 464 0 211-83 384t-247 272q-163 99-393 99-288 0-480-183-192-182-192-502 0-256 134-429 135-172 359-294t486-230zm-294-2170q236 0 418 89 183 90 285 253 103 164 103 388 0 211-90 367-89 157-246 272-157 116-368 215t-454 195q-244-173-398-426-153-252-153-553 0-237 118-416 119-179 324-282 205-102 461-102z"/>
       </defs>
       <use xlink:href="#l"/>
       <use transform="translate(57)" xlink:href="#a"/>
       <use transform="translate(114)" xlink:href="#a"/>
      </g>
     </g>
    </g>
    <g id="bq">
     <g id="br">
      <path d="m52.09 190.94h801.11" clip-path="url(#c)" fill="none" stroke="#b0b0b0" stroke-linecap="square" stroke-opacity=".3" stroke-width=".8"/>
     </g>
     <g id="bs">
      <use x="52.09" y="190.940923" stroke="#000000" stroke-width=".8" xlink:href="#g"/>
     </g>
     <g id="bt">
      <!-- 1200 -->
      <g transform="translate(22.29 194.93) scale(.1 -.1)">
       <defs>
        <path id="h" transform="scale(.015625)" d="m544 0v608h1037v3277h-845v467q333 58 579 147 247 90 451 218h557v-4109h915v-608h-2694z"/>
        <path id="b" transform="scale(.015625)" d="m282 0v429q697 621 1164 1136 468 515 701 956 234 442 234 826 0 256-87 451-86 196-262 301-176 106-445 106-275 0-506-151-230-150-422-368l-416 410q301 333 637 518 336 186 803 186 429 0 749-176t496-493 176-745q0-455-224-919t-615-935q-390-470-889-950 186 20 394 36t374 16h1184v-634h-3046z"/>
       </defs>
       <use xlink:href="#h"/>
       <use transform="translate(57)" xlink:href="#b"/>
       <use transform="translate(114)" xlink:href="#a"/>
       <use transform="translate(171)" xlink:href="#a"/>
      </g>
     </g>
    </g>
    <g id="bu">
     <g id="bv">
      <path d="m52.09 163.57h801.11" clip-path="url(#c)" fill="none" stroke="#b0b0b0" stroke-linecap="square" stroke-opacity=".3" stroke-width=".8"/>
     </g>
     <g id="bw">
      <use x="52.09" y="163.571206" stroke="#000000" stroke-width=".8" xlink:href="#g"/>
     </g>
     <g id="bx">
      <!-- 1600 -->
      <g transform="translate(22.29 167.56) scale(.1 -.1)">
       <defs>
        <path id="j" transform="scale(.015625)" d="m1971-90q-339 0-634 144-294 144-518 435-224 292-352 733-128 442-128 1044 0 678 147 1161 148 483 397 784 250 301 570 445t665 144q397 0 688-147 292-147 490-359l-403-448q-128 154-327 253-198 99-409 99-307 0-567-182-259-182-413-605-153-422-153-1145 0-608 115-1002t326-589q212-195 493-195 212 0 375 121 163 122 259 343t96 522q0 300-90 511-89 212-259 320-169 109-419 109-211 0-451-134t-458-461l-25 538q134 192 313 323t374 201q196 71 375 71 397 0 694-163 298-163 467-490 170-326 170-825 0-468-195-817-195-348-512-544-317-195-701-195z"/>
       </defs>
       <use xlink:href="#h"/>
       <use transform="translate(57)" xlink:href="#j"/>
       <use transform="translate(114)" xlink:href="#a"/>
       <use transform="translate(171)" xlink:href="#a"/>
      </g>
     </g>
    </g>
    <g id="by">
     <g id="bz">
      <path d="m52.09 136.2h801.11" clip-path="url(#c)" fill="none" stroke="#b0b0b0" stroke-linecap="square" stroke-opacity=".3" stroke-width=".8"/>
     </g>
     <g id="ca">
      <use x="52.09" y="136.20149" stroke="#000000" stroke-width=".8" xlink:href="#g"/>
     </g>
     <g id="cb">
      <!-- 2000 -->
      <g transform="translate(22.29 140.19) scale(.1 -.1)">
       <use xlink:href="#b"/>
       <use transform="translate(57)" xlink:href="#a"/>
       <use transform="translate(114)" xlink:href="#a"/>
       <use transform="translate(171)" xlink:href="#a"/>
      </g>
     </g>
    </g>
    <g id="cc">
     <g id="cd">
      <path d="m52.09 108.83h801.11" clip-path="url(#c)" fill="none" stroke="#b0b0b0" stroke-linecap="square" stroke-opacity=".3" stroke-width=".8"/>
     </g>
     <g id="ce">
      <use x="52.09" y="108.831773" stroke="#000000" stroke-width=".8" xlink:href="#g"/>
     </g>
     <g id="cf">
      <!-- 2400 -->
      <g transform="translate(22.29 112.82) scale(.1 -.1)">
       <use xlink:href="#b"/>
       <use transform="translate(57)" xlink:href="#m"/>
       <use transform="translate(114)" xlink:href="#a"/>
       <use transform="translate(171)" xlink:href="#a"/>
      </g>
     </g>
    </g>
    <g id="cg">
     <g id="ch">
      <path d="m52.09 81.462h801.11" clip-path="url(#c)" fill="none" stroke="#b0b0b0" stroke-linecap="square" stroke-opacity=".3" stroke-width=".8"/>
     </g>
     <g id="ci">
      <use x="52.09" y="81.462057" stroke="#000000" stroke-width=".8" xlink:href="#g"/>
     </g>
     <g id="cj">
      <!-- 2800 -->
      <g transform="translate(22.29 85.447) scale(.1 -.1)">
       <use xlink:href="#b"/>
       <use transform="translate(57)" xlink:href="#l"/>
       <use transform="translate(114)" xlink:href="#a"/>
       <use transform="translate(171)" xlink:href="#a"/>
      </g>
     </g>
    </g>
    <g id="ck">
     <g id="cl">
      <path d="m52.09 54.092h801.11" clip-path="url(#c)" fill="none" stroke="#b0b0b0" stroke-linecap="square" stroke-opacity=".3" stroke-width=".8"/>
     </g>
     <g id="cm">
      <use x="52.09" y="54.092341" stroke="#000000" stroke-width=".8" xlink:href="#g"/>
     </g>
     <g id="cn">
      <!-- 3200 -->
      <g transform="translate(22.29 58.077) scale(.1 -.1)">
       <defs>
        <path id="n" transform="scale(.015625)" d="m1715-90q-371 0-656 90t-503 240q-217 150-377 323l359 474q211-205 479-359 269-153 634-153 269 0 467 92 199 93 311 266t112 423q0 256-125 451t-429 300q-304 106-835 106v551q467 0 732 105 266 106 384 291 119 186 119 423 0 307-192 489-192 183-531 183-269 0-503-119-233-118-438-316l-384 460q282 256 614 413 333 157 737 157 422 0 748-144 327-144 512-413 186-269 186-659 0-403-221-685-221-281-592-422v-26q269-70 490-227t349-400 128-557q0-422-215-726-214-304-573-468-358-163-787-163z"/>
       </defs>
       <use xlink:href="#n"/>
       <use transform="translate(57)" xlink:href="#b"/>
       <use transform="translate(114)" xlink:href="#a"/>
       <use transform="translate(171)" xlink:href="#a"/>
      </g>
     </g>
    </g>
   </g>
   <g id="co">
    <path d="m88.504 178.69.081345.41055.40672 4.037.16269.82109.40672 3.6949.16269.68424.16269 1.3685.7321 2.258.081345-.2737.081345.41054.081345-.34212.16269.61582.16269.13685.16269-.20527.081345.13685.24404-.41055.081345.13685.081345-.5474.16269.47897.40672-2.1896.16269-1.0264.081345.34212.24404-1.0948h.081345l.48807-1.6422.32538-.68424.32538-1.4369.081345-.068425.65076-3.1475.081345-.54739.16269-1.7106.081345-.41054.24404-2.1896.16269-1.0948.24404-2.3264.56942-5.4055.081345-.13685.081345-.41055.48807-5.8161.48807-1.7106.32538-2.8054 1.2202-8.6215.16269-1.6422.24404-1.7106.48807-6.0898.081345-.47897.16269-2.1212.081345-.13685.16269-1.1632.081345.13685.081345.61582.081345-.2737.081345-.88952.16269.68424.081345-1.1632.081345.13685.081345.20527.081345-.5474.081345.5474.081345-.41055.081346.41055.081345-.2737.81345-9.7847.32538-7.8004.32538-7.1161.81345-23.47.48807-13.343.081345 1.0948.65076-11.564.24404-3.6265.081345.68424.081345-.61582.24404 1.9159.081345.13685.32538 5.8845.48807 12.18.32538 7.0477.081345.68424 2.115 48.992.24404 4.2423.40672 8.7583 1.2202 18.885.081345.41054.65076 7.7319.16269.68424.24404 1.2316.48807 5.4055.40672 3.9002.32538 2.1212h.081345l.32538 2.4633.081345.13685.24404 1.3001.081345 1.0948.081345-.2737.24404 1.4369h.081345l.081345.13685.24404-.34212.24404.68424.24404-.2737.16269-.88952h.081345l.32538-.61582.16269-1.3001h.081345l.48807-3.2844.081345.068424.081345-.20527.24404-1.3685.24404-.5474.081345.13685.16269-.47897.081345.13685.24404-1.3001.24404-1.9159.16269-.95794.081345-.13685.16269-1.7106.081345.2737.24404-.82109.40672-3.9002.16269-.68424.16269-1.6422h.081345l.40672-3.5581.081345.13685.16269-.88952 1.1388-10.674.24404-1.7106.40672-3.5581.24404-2.258.16269-.2737.81345-6.9109.16269 1.6422.24404-1.7106.081345-.20527.16269-1.1632.081345-.13685.24404-1.5738.081345-.13685.081345.47897.081345-.82109.081345.68424.16269-.75267.081345.95794.16269-1.1632.48807-6.295.16269-2.6685.7321-20.459.24404-7.4582 1.2202-39.207.32538-5.4055.16269.47897.081345.88952.081345-.20527.24404-2.1896.081345 1.0264.081345-.2737.081345.20527.16269-.61582.081345.20527.081345-.13685.16269 1.3685.081345-.75267.32538 3.4212.24404 3.2159.081345-.54739.081345.068424.081345.34212.8948 22.512.32538 6.5003 1.5456 35.512.32538 5.6108 1.5456 25.728 1.2202 12.453.16269 1.1632.24404 2.1896.081345.068425.24404 1.3685.081345.20527.16269 1.0264.081345-.068425.16269.20527.16269.88952.16269-.95794.16269.61582.40672.34212.24404-1.3685.081345.34212.081345.41054.16269-.47897.081345.068425.16269-.61582.081345.20527.081345.13685.7321-5.5424.24404-2.0527.081345-.20527.32538-2.9422.081345-.13685.32538-2.0527.24404.5474.081345-.20527.24404-1.5053.081345-.13685.16269-2.258.24404-2.3948.16269-1.4369.32538-4.995.081345-.34212.8948-11.085.24404-3.8318.32538-2.4633.48807-3.9686.081345-.068425.24404-1.7106.081345.13685.16269-.068425.65076-4.3107.16269-.47897.16269-.75267.16269.95794.081345-.2737.16269-1.0948.16269 1.0948.16269-.41055.081345.47897.081345-.41055.16269 1.0264.081345-.2737.081345.75267.16269-.61582.48807 2.5317.081345 1.1632.081345-.2737.24404-.54739.081345-1.0948.081345.47897.40672-4.995 1.3015-42.149.24404-6.774.16269-2.737.97614-20.185.65076-6.9109.56942 3.0791.081345.34212.24404 3.9002.081345.34212.16269-.54739.081345.82109.081345-.47897.16269 2.1212 2.603 66.166.7321 17.106.16269 2.737.48807 7.9372.32538 4.6529.081345.34212.81345 11.29.8948 7.5267.16269 1.0948.40672 2.8054.081345-.13685.32538 1.7106.16269.20527.16269.47897.24404-.41055h.081345l.081345.75267.16269-.88952.16269.13685.081345.2737.081345-.5474.081345.47897.16269-.95794.081345.34212.081345-.34212.32538-2.3948.081345.068424.48807-2.6685.16269-.82109.48807-4.8581.081345.13685.40672-1.2316.16269-.82109.16269.88952.56942-3.0107 1.0575-13.411.24404-3.4896.32538-5.0634.40673-6.295.081345-.2737.40672-3.5581.081345-.13685.32538-2.9422.081345-.47897.24404-2.4633.7321-4.3792.081345-.13685.16269-.61582.081345-.068425.16269-1.6422.081345-.068424.081345-.41055.16269 1.0948.081345-.82109.081345.88952.081345-.95794.081345.47897.16269 2.1896.081345-.41055.16269 1.1632.081345.13685.081345-.88952.16269.68424.081345 1.3685.081345-.2737.16269 1.3001.081345-.2737.081345.41054.40672-3.5581 1.3015-29.149.40672-13.616.56942-12.043.081345-.13685.24404-4.4476.16269-1.6422.081345-.2737.24404-2.4633.081345.54739.16269-.95794.081345 1.4369.081345-.41054.24404.95794 1.1388 27.233.081345.61582 1.8709 47.692.40672 8.8267.40672 8.2109.81345 12.111 2.115 22.648.081345.068424.32538 2.6685.081345.20527.16269 1.2316.081345-.20527.8948 4.8581.16269.068424.081345-.20527.081345.41055.16269-.20527.081345.13685.081345-.068425.081345.75267.24404-.61582.24404-.068424.081345-.2737.081345.20527.081345-.068424.16269-.47897.081345.068424.16269-.68424.24404-1.7106h.081345l.32538-2.258.16269.2737.081345-.20527.32538-.95794.081345-.13685.32538-1.779.081345.20527.16269-.61582.24404-1.9159.48807-2.0527.081345-.068424.24404-1.4369.56942-4.6529.24404-2.6685.48807-3.2844.48807-4.4476.081345-.41054.081345.20527.32538-3.8318.081345-.068424.56942-5.6792.081345-.13685.16269-.47897.081345-.13685.7321-6.6372.16269-.47897 1.3015-8.2793.081345-.068424.081345.41055.65076-4.2423.32538-5.0634.16269-3.0107.24404-7.5267.16269-3.2844.32538-9.6478.081345-.75267.16269-6.774.40672-13.343.8948-17.927.081345.068425.081345 1.1632.081345-.34212.081345-.88952.081345 1.0948.24404-3.0791.081345.13685.081345-.068424.081345 1.0948.16269-1.9159.40672 6.7056.81345 18.885.48807 13.137.24404 5.4739 1.5456 33.117.16269 2.4633 1.1388 18.475.16269 1.7106.8948 9.9899.40672 3.3528.16269 1.0948.32538 2.9422.081345.068424.32538 2.1212 1.4642 9.1004.081345-.13685.16269 6.6372h.16269l.40672 1.0264.16269-.61582.16269-.2737.16269.47897h.081345l.081345-.20527.081345.13685.24404-.68424h.081345l.16269-.75267.081345.20527.81345-2.1212.32538-1.7106h.081345l.97614-7.7319.081345-.068424.40672-2.6001.40672-2.6685.24404-.88952.081345.20527.7321-5.8845.56942-4.1055.32538-3.7633.081345.61582.16269-.88952.40672-4.1739.081345-.2737.32538-4.3107.24404-1.7106.40672-5.1318.40672-4.3792.16269-1.0264.081345.068424.16269 1.0264.32538-1.8475.081345.068425.081345.47897.081345-.068425.32538-3.7633.081345.068425.081345-.13685.48807-7.253 1.1388-26.822.40672-14.711.16269-3.6949.56942-15.395.16269-2.6685h.081345l.48807-6.7056.081345.88952.081345-1.5738.32538 1.9159.16269.34212.081345 1.4369.081345-.13685.24404 2.737.32538 8.0741.081345 1.2316 1.1388 38.181 1.5456 34.075.81345 12.727.16269 2.1896.32538 3.6949.40672 4.4476 1.4642 10.4.081345.34212.40672 4.2423.081345.20527.32538 3.3528.081345-.068424.56942 3.1475.24404.068425.40672 1.5738.081345-.34212.081345.068424.24404.41055.081345-.2737.24404.54739h.081345l.16269-.34212.16269-.2737.48807-1.9159.081345-.20527.081345.20527.24404-.88952.24404-.20527.32538-1.2316.081345.20527.081345-.068424.16269-.068424.16269-.75267.24404-.068425.7321-4.7213.16269.068424.32538-1.3001.24404-2.5317.081345.068424.24404-.95794h.081345l.16269-.54739.24404-2.737.081345-.13685.16269-1.0264.48807-4.2423.24404-2.6685.24404-2.0527.32538-2.1896.32538-3.6949.081345-.34212.40672-4.9265.40672-2.6685.16269-1.9843.24404-1.8475.16269-1.6422.40672-2.1212.081345.47897.081345-1.5738.081345.41054.081345-.2737.24404-1.9159.24404-.61582.16269-2.6001.081345.95794.24404-3.7633.24404-4.2423.32538-7.4582.32538-8.7583.32538-8.4846 1.0575-31.886.56942-11.016.081345.54739.16269-1.0948.16269.61582.081345-.068424.081345.20527.081345-.13685.081345-1.0264.16269 1.3001.16269.75267.48807 10.332.32538 10.811 1.3829 33.87m.32538 9.5794.16269 4.1739m.16269 4.516.65076 12.18.24404 5.1318.8948 12.727.081345.13685.24404 2.3264 1.1388 11.358.65076 4.5844.16269.47897.081345-.068424.32538 1.6422.16269 2.0527.081345-.068425.8948 2.8738.081345-.20527.24404.82109.081345.41055.16269-.47897.16269.68424.24404.61582.081345-.068425.24404-.54739.081345-.13685.081345.47897.40672-1.6422h.081345l.40672-1.2316.081345.13685.24404-1.3685.56942-1.7106.40672-1.3001.16269.34212.24404-.75267.16269-1.0264.081345.13685.32538-2.258.8948-6.0898.081345.13685.081345.068424.081345-.54739.081345.068424.081345-.20527.7321-5.9529.16269-2.3264.081345-.068424.16269-1.3685.16269-1.5053.40672-4.8581.081345-.20527.24404-2.4633.24404-1.7106.16269-1.5738.32538-4.1739.32538-2.9422.081345-.34212.24404-3.4212.40672-3.6265.16269-1.9843.081345-.20527.16269-1.9843.16269 1.3001.16269-.41054.081345-.068425.65076-7.4582.48807-12.18.65076-22.58.081345-.75267.7321-18.543.16269-2.3948.32538-9.1004.16269-2.258.16269 1.1632.081345-.068424.081345-1.6422.081345.41055.24404-1.9159.081345.68424.16269-.068424.16269 3.2844.32538 7.8688.16269 1.1632.081345.75267.16269 5.2002.081345.34212.24404 9.1004.32538 9.6478.081345.61582 1.2202 27.438.16269 2.8738 1.1388 21.827.7321 11.29 1.0575 11.495.81345 6.0898.24404 1.9159.24404.88952.48807 3.4896.081345-.34212.16269.82109.65076 3.4212.081345-.34212.16269.47897.32538 1.7106.081345.34212.081345-.068424.081345-.13685.081345-.47897.081345.34212.081345-.13685.16269-.54739.081345.20527.16269.47897.32538-1.6422.16269.2737.081345-.41055.16269 1.0264.081345-.068424.32538-1.4369.081345.20527.081345-.068425h.081345l.081345-.61582.081345.13685.16269-.54739.081345.13685.16269-.68424.24404-1.3685.16269.47897.8948-5.7476.081345.068425.24404-1.3001.24404-.61582.24404-2.1896.48807-2.1212.24404-2.1896.24404-1.0264.081345-.13685.081345.13685.24404-1.3685.081345.2737.81345-6.5687.32538-3.5581.081345-.068424.32538-3.6949.081345-.61582.24404-3.6949.081345-.2737.24404-4.3792.24404-3.0791.081345.54739.081345-.2737.48807-3.6949h.081345l.24404-1.4369.56942-5.9529.24404-3.3528 1.2202-31.338 1.3829-46.186.081345-.47897.081345.68424.16269-2.6001.081345.068424.081345 1.6422.16269-1.5738.65076-4.995.081345.41055.081345-.68424.16269 1.3685.32538 7.1846.16269 3.2159.24404 3.2159.081345.2737 3.4165 80.672 1.8709 25.454.081345.20527.16269 1.0264.16269 1.1632.24404 1.7106.8948 5.3371.24404.54739.081345.20527.081345-.2737.16269.34212.24404-.47897.081345.068424.081345.13685.16269-.47897.081345.068425.081345-.20527.32538-1.9843.081345-.2737.081345.2737.16269-.2737.081345.5474.081345-.34212.16269-1.3685.24404-.68424.081345.20527.16269-1.3685.081345.068425.081345-.13685.16269-1.0948.081345-.13685.40672-2.1896.081345.54739.32538-3.2159.16269-.88952.16269-.34212.32538-2.6685.40672-2.8054.7321-9.3741.081345-.47897.65076-10.879.24404-1.8475.40672-4.6529.24404-2.258.32538-2.737.081345.41054.16269-1.0948.97614-5.7476.24404-1.9159.081345-.47897.24404 2.1896.081345-.13685.081345-.068424.081345 1.1632.081345-.47897.081345.068425.081345-.068425.24404 1.1632.16269.068425.16269.61582.081345-.13685.081345.068424.081345.61582.16269-.95794.081345.82109.48807-3.7633.24404-2.6001.16269-1.2316.40672-10.264.32538-9.9899.81345-32.707.24404-3.1475.081345-1.2316.16269-5.2687.97614-17.996.081345-.068424.24404-1.8475.081345.34212.16269 1.0264.081345.068424.24404 2.6685.40672 9.3057.16269.88952.081345.20527.16269 2.0527.081345.82109.56942 13.274.16269 3.0791 1.6269 42.286.56942 13.411 1.1388 23.606 1.6269 17.859.081345.41055.32538 3.0791.56942 3.1475.16269.95794.081345-.20527.081345.068424.081345.47897.16269-.54739.081345.068424h.16269l.16269.2737.16269.34212.24404-1.3685.24404.54739.081345-.2737.081345.13685.16269-.82109.16269-.47897.32538-2.3264.081345-.13685.081345.13685.56942-4.995.081345-.2737.40672-3.7633.081345.13685.7321-5.4055.081345.13685.40672-3.9686.32538-4.516.081345-.54739.32538-5.2002.24404-2.737.65076-11.495.081345.13685.24404-3.7633.16269-1.3685.32538-4.6529.16269-1.9843.081345.20527.32538-2.258.40672-4.2423.081345-.20527.56942-3.2159.081345.34212.16269-.68424.24404 2.1212.081345.2737.65076 5.0634.16269 1.2316.081345.88952.081345-.68424.081345.068424h.081345l.081345-.13685.081345.068425.16269.47897.081345-.5474.16269.5474.40672-5.5424.40672-8.6215.16269-3.1475.56942-16.217.32538-13.343.7321-18.132.16269 2.737.24404-3.4896.16269-.82109.24404-3.9002.081345.61582.081345-.47897.081345 1.779.081345-.54739.081345.13685.081345-.41054.40672 5.1318.24404 4.1055.24404 10.606.24404 4.8581.8948 26.822 2.2777 47.555 1.1388 15.806.40672 4.6529.32538 3.9002.8948 6.8424.081345.34212.081345-.20527.16269 1.3685.16269 26.07m.16269 19.911.56942 2.1212.32538 1.3001.081345.13685.24404 1.0264.081345.20527.24404-.41055.081345.47897.081345-.13685.16269-1.0948.081345.34212.24404.5474.081345-.2737.081345.13685.081345-.34212.081345.13685.16269-.2737.32538-.20527.081345.41055.24404-.82109.081345.20527.65076-3.5581.081345.13685.081345-.068424.40672-1.5053.081345.068424.16269-.68424.24404-1.5053.081345.41055.16269-1.4369.081345-.13685.56942-4.7897.081345-.068424.56942-5.2002h.081345l.081345-.13685.24404-2.3264.081345.068424.48807-3.9002.97614-10.606.081345-.13685.24404-1.3001.40672-4.516.081345-.41054.16269-1.3001.081345-.2737.32538-4.5844.081345.47897.16269-.13685.081345-.2737.32538-3.0107.081345.2737.081345-.2737.24404-2.9422.081345.13685.24404.75267.081345.75267.081345-.068424.16269-1.4369.16269-1.9159.24404-4.2423.56942-10.264.8948-25.18.32538-8.8267.32538-12.59.65076-9.2373.16269-.61582.24404 1.2316.081345-.20527.081345.068425.32538 4.3792.16269.68424.081345.20527.081345.61582 3.0911 72.94.32538 4.9265.32538 3.0107.24404 3.9002.65076 9.3741 1.3829 13.069.081345.20527.24404 2.0527.081345.13685.56942 4.6529.24404 1.1632.24404 2.4633.081345-.068424.16269.2737.081345.20527.081345-.13685.16269.95794.16269.88952.081345.068424.24404 1.4369.16269.47897.081345.41055.081345-.2737.24404.61582.32538-1.0948.081345.20527.16269-.34212.16269-.2737.16269-.20527.16269.2737.16269-.61582.40672-1.7106.16269-.88952.081345.2737.081345-.47897.081345.20527.24404-.68424.16269-1.0948.16269.068425.16269-.75267.16269.34212.32538-1.0948.16269-.068424.16269-.68424.081345.068424.32538-2.3948.081345.41055.56942-4.2423.32538-1.0264.48807-2.3948.16269-.88952.40672-1.9843.32538-2.0527.081345.068425.081345-.41055.16269-1.8475.16269-.68424.24404-2.8054.24404-1.5738.48807-2.8054.24404-3.2844.32538-1.7106.16269-1.8475.081345-.34212.7321-7.9372.16269.13685.081345.47897.56942-7.3214 2.7657-71.709.16269 13.48m.16269-2.4633.32538-4.9265.16269.54739.16269-1.7106.56942 4.9265.7321 18.817.56942 13.001.97614 24.906.081345.47897.32538 6.5687 1.0575 17.653 1.3015 16.148.32538 2.8054.56942 4.5844.24404 2.5317.48807 2.737.24404.5474.24404 1.7106.081345.068424.24404 2.3264.081345-.34212.16269 1.3001.081345-.61582.081345.34212.16269.88952.24404.2737.16269.75267.32538-.41054.081345.068424.081345-.88952.16269 1.1632.081345-.2737.081345.41055.24404-1.0264.16269-.2737.16269-.82109.081345.13685.081345-.068424.081345.47897.081345-.20527.081345-.75267.081345.20527.81345-3.9686.081345.20527.48807-2.3948.16269.61582.65076-3.2844.24404-.47897.7321-5.6792 1.7896-14.232.32538-3.4212.40672-5.3371.081345.068424.081345-.13685.24404-1.4369.24404-3.8318.081345.068424.32538-2.6685.16269-1.4369.081345-.13685.081345-.88952.081345.20527.081345-.2737.24404-3.0107.24404-1.3685.081345-.2737.081345.41055.16269-2.3264.081345-.068425.081345.95794.081345-.2737.16269-.47897.40672-6.1582.081345-.20527.24404-3.9002 1.6269-49.813.24404-3.9686.32538-9.7162.16269-4.4476.081345-.13685.32538-3.9686.16269-2.3948.081345-1.9843.081345.68424.56942 5.4055.081345 1.779.32538 16.832 1.4642 41.123.8948 19.98.24404 5.5424.081345.75267.48807 9.8531.40672 6.2266.081345.20527.48807 7.3898.081345.13685 1.8709 17.79.081345.41055.24404 1.9843 1.2202 7.5951.16269.88952.081345-.13685.081345-.41055.24404 1.0264.081345-.34212.16269.41055h.081345l.081345-.20527.081345.54739.081345-.20527.16269-.82109.081345.13685.16269-.20527.081345-.068425.081345.2737.081345-.34212.081345.13685.081345-.068425.16269.2737.16269-.68424.24404.20527h.081345l.081345-.13685.081345.34212.16269-.61582h.081345l.081345-.20527.081345.068424h.081345l.081345-.54739.081345.13685.40672-1.6422.40672-2.1212.16269-1.0264.16269-.13685.081345.068425.081345-.34212.081345.068425.081345-.13685.081345.34212.16269-.34212.24404-1.3685.56942-4.2423.24404-2.5317.081345-.20527.32538-3.4896.16269-.41055.24404-2.258.40672-2.5317.081345-.13685.8948-10.058.56942-5.4055.081345-.41055.40672-4.516.24404-1.1632.24404-1.6422.24404-1.779.081345-.068425.081345-.88952.081345.13685.65076-4.4476.32538-4.516.24404-2.0527.24404-5.2687 1.4642-45.639.081345-.68424.81345-17.927.081345.068424.081345-1.3001.081345.2737.081345.068424.24404-1.1632.081345.13685.16269 1.2316.16269 2.3948.081345.068424.16269 2.5317.081345.2737.16269 3.2159.40672 12.932.16269 3.8318.7321 20.254.48807 10.332 1.0575 24.222 1.2202 20.596.24404 2.8054.40672 4.516.48807 4.7897.24404 1.1632.7321 6.9109.24404 1.5053.40672 2.8738.24404 2.1212.32538 1.3001h.081345l.081345-.13685.32538 1.3001.32538 1.779.16269.13685.16269-.47897.081345.47897.081345-.13685.081345.13685.081345-.20527.16269.68424.081345-.20527.081345.13685.16269-.61582.081345-.54739.081345.20527.081345.13685.081345-.20527.16269-.61582.081345.20527.081345-.20527.24404.20527.16269-1.0264.24404.34212.16269-.68424.16269-.41055.081345.13685.40672-2.1212.24404 1.0264.81345-3.7633.81345 8.2793.081345-1.0264.16269.75267.081345-.068424.65076-5.9529.32538-.82109.16269-.34212.081345-.61582.24404-5.1318.24404-2.1212 1.7082-20.322.32538-2.9422.081345.2737.40672-3.3528.24404-3.0107.081345-.20527.081345-1.0264.081346.34212.24404-2.8738.97614-15.669.65076-21.896.32538-11.358.32538-9.032.40672-12.727.16269-4.8581.32538-10.811.24404-3.1475.16269-.41055.16269-2.6685.081345-.95794.081345.5474.32538-3.0791.081345.13685.081345.47897.16269-1.0264.40672 8.2793.081345.20527.40672 7.253.16269 2.8738.40672 10.674 3.2538 71.982.24404 2.6001.8948 12.043.40672 3.7633.32538 2.0527h.081345l.32538 2.1212.081345.068424.40672 2.6001.24404.68424.24404 1.3685.32538 1.2316.081345-.47897.16269.61582.081345-.13685.081345.13685.16269-.82109.081345.2737.081345-.41055.24404.47897.16269-.88952.081345-.068425 1.5456-9.9899.081345.54739.24404-.75267.081345-.068424.081345-.2737.16269-1.3685.081345-.5474.081345 1.0948.32538-1.6422.081345.41055.40672-4.4476.081345-.20527.7321-9.511.40672-6.9109.32538-4.1055.40672-4.4476.081345-.2737.32538-2.6001.081345.13685.32538-2.0527.32538-2.1896.081345-.13685.32538-1.6422.081345-.20527.16269-1.3685h.081345l.081345-.41055.081345.068424.081345-.068424.24404.34212.081345-.13685.16269.82109.48807-2.1212.081345.34212.16269 1.3685.081345-.068425.081345-.95794.081345.068425.24404 2.3264.081345-.5474.16269-.41054.24404.75267.16269-1.4369.56942-11.358.56942-17.38 1.2202-43.313.7321-15.053.40672-5.5424.081345 1.9159.081345-.068425.32538-3.4896.081345-.068425.081345.47897.081345-1.0264.32538 1.9843 1.3829 28.533 2.1963 57.75.48807 13.685.48807 9.8531 1.0575 16.148.8948 9.511.081345.34212.40672 3.6949.16269.88952.24404 2.5317.16269.47897.24404 2.1896.16269.88952.081345-.13685.16269.13685.081345-.068424.081345.20527.40672-1.3685.16269-1.0948.081345.75267.081345-.13685.24404-1.7106.081345.34212.16269-.61582.081345-.34212.32538-3.2844.081345.068425.40672-3.8318.16269-2.737.081345.068424.081345-.068424.32538-1.6422.081345.068424.16269-1.2316.081345.13685.81345-3.9002.97614-15.259.32538-3.6949 1.4642-19.296.081345.20527.081345-.2737.24404-4.4476.081345-.68424.16269-2.5317.081345.068424.081345-.75267.16269.5474.16269-1.779.32538-3.0791.16269-1.1632.081345.75267.081345-.20527.081345-.068424.081345.13685.16269-.34212.081345.88952.16269-.20527.48807 3.2844.081345.20527.32538 2.9422.081345-.41054.081345.34212.16269 1.0264.081345-.47897.081345 1.0948.48807-3.6949.81345-15.19.65076-22.991.40672-11.564.32538-6.0213.56942-8.6215.081345.61582.081345-.47897.081345.13685.081345-.068425.081345-1.3001.32538 6.7056.081345-.41054.40672 6.0213.16269 3.9686.32538 12.316.16269 2.6001.8948 27.233.16269 4.1739.40672 9.511 1.3015 27.575 1.0575 15.19.16269.61582.24404 3.3528.40672 3.6949.7321 5.6108.32538 2.3948.081345.2737.48807 4.2423.081345.34212.24404 2.3948.32538 2.0527.32538 1.7106.16269.68424.65076 1.8475.16269.34212.081345-.068424.081345.34212.16269-.68424.32538-.95794.16269-.75267.24404.88952.081345-.13685.24404-1.1632.081345-.068424.7321-2.4633.081345.13685.32538-2.3264.081345-.068424.081345.20527.16269-1.0948.081345.068425.16269-.2737.24404.20527.081345.41055.32538-1.9159.081345.61582.081345-.068424 1.2202-6.4319.40672-3.3528.48807-3.2844.24404-2.3264.24404-1.4369 1.3015-14.506.081345-.2737.24404-3.0791.081345.20527.16269-1.3685.081345.068424.40672-5.8161.081345-.34212.081345.54739.40672-2.5317.16269-1.2316.16269.2737.16269-1.4369.7321-10.606 1.8709-53.371.081345-.61582.56942-8.4846.081345.13685.081345-1.3001.081345.41055.081345-.82109.081345.068424.16269 1.4369.081345-.20527.081345-.13685.24404 3.0107.24404 1.8475.081345-.13685 2.1963 59.734.16269 3.2844.40672 7.8688.32538 5.4739.32538 6.0898.32538 4.1055.56942 9.4426.32538 4.2423.32538 3.4212.16269 1.3685.081345 1.1632.24404 10.264.081345-.54739.24404 2.1896.081345.068424.48807 2.6001.48807 1.5738.081345-.068424.40672 2.8054.16269.61582.16269.95794.56942 2.4633.16269.47897.081345-.068424.081345-.82109.16269.54739.32538 1.2316.081345-.13685.16269-.20527.081345.20527.16269-.61582.32538-.88952.081345.2737.16269-.68424.081345.47897.16269-.68424.16269.20527.65076-1.9843.16269-.2737.32538-.68424.81345-3.7633h.081345l.081346-.47897.081345.20527.081345-.47897.16269.2737.081345-.41054.32538-3.0107.40672-2.4633.081345-.34212.24404-1.9843.32538-1.9843.081345.41055.081345-.2737.32538-2.6001.081345-.068425.97614-8.4162.081345.20527.081345-.41054.48807-5.9529.16269-.75267.32538-4.1739.081345-.34212.24404-2.9422.16269-.75267.40672-4.5844.081345.2737.16269-.82109.32538-3.2844.24404-.75267.40672-4.4476 1.1388-28.191.81345-24.222.24404-6.8424.65076-13.069.16269-1.3001.081345.75267.081345-.2737.081345-.13685.24404-2.1212.081345.34212.16269 23.47.65076 122.34.24404-22.785.48807-18.338.24404-4.516.16269-.61582.16269-1.3685.081345.2737.16269-.2737.081345-.75267.40672 1.9843.081345.20527.7321 5.8161.081345.13685.24404 2.6685.16269 1.8475 1.2202 12.316.24404 1.1632.16269.82109.081345-.068424.16269.20527.24404 2.1212.081345.34212.32538 2.5317.48807 2.0527.16269.20527h.081345l.65076 3.8318.081345-.13685.32538.41055.081345.61582.081345-.13685.24404.95794.081345-.20527.24404 1.1632.16269-.54739.16269-.34212h.081345l.081345-.47897.081345.5474.40672-1.3685.16269.34212.32538-2.0527.24404-.068425.16269.20527.24404-.82109.081345.34212.32538-1.9159.081346.068424.16269.47897.081345-.13685.081345-.5474.081345.13685.24404-.88952.081345-.82109.081345 1.0264.081345-1.6422.081345 1.779.081345-1.6422.081345.068424.24404-1.5053.40672-2.1896.16269-1.1632.40672-2.6001.16269-.41055.081345.068425.16269-1.2316.081345.13685.081345-.20527.16269-1.6422.24404-2.1212.56942-4.1055.24404-3.2159.24404-1.5738.081345.068425.081345-.20527 1.9523-19.159.081345.41055.32538-4.2423.56942-5.2687.081345.75267.40672-6.0898.32538-3.3528.24404-4.8581 1.0575-34.075.48807-16.353.32538-8.3478.40672-9.3741.081345-.2737.16269-1.0948.081345.41055.16269-.75267.081345.47897.24404 3.2844.081345.47897.32538 5.1318.32538 3.9002.24404 6.8424.40672 10.811.24404 6.1582.8948 24.427.8948 20.459.56942 10.606.40672 6.9109.7321 9.7162.24404 2.3264.32538 3.8318.65076 5.9529 1.1388 9.6478.081345.068424.97614 5.2002.16269-.47897.32538 1.5053.081345-.068425.16269.68424.16269-.82109.081345.47897.16269-.47897.16269.41055.081345-.20527h.081345l.32538-1.779.081345.2737.24404-.82109h.081345l.081345.13685.081345-.068424.081345-.13685.081345-.47897.081345.068425.24404-.75267.16269.54739h.081345l.24404-.47897.16269-.88952.16269.068424.081345-.13685.48807-2.5317.24404-1.2316.081345.20527.081345-.34212.16269-1.0264.081345.2737.81345-3.6949.40672-2.258.081345.13685.48807-2.0527.081345.2737.24404-1.7106 1.1388-13.069 1.5456-14.506.081345.068424.081345-.34212.24404-1.9843.081345.2737.081345-.88952.081345.2737.48807-3.7633.081345-.068424.81345-10.537.16269-4.3792.40672-12.795.24404-7.1161.24404-7.5267.7321-23.538.32538-8.553.081345.61582.24404-2.6685.081345-.20527.65076-5.9529.24404 2.6001h.081345l.48807 7.8688.32538 11.427.97614 28.328.16269 3.9686.32538 9.7162.7321 17.585.40672 6.2266.32538 10.332.40672 9.1689 1.1388 11.632.081345.13685.24404 1.3001.24404.95794.24404 1.8475.32538 2.9422.56942 3.9002.48807 3.7633.081345-.20527.081345.47897.081345-.068424.081345-.34212.081345.20527.081345.68424.081345-.068424.081345-.20527.081345 1.1632.081345-.13685.081345.82109.081345-.34212.40673 1.0264.081345-.2737.24404.95794.081345-.13685.16269.82109.16269-.75267.16269.20527.40672-.75267.32538-1.6422h.081345l.081345-.13685.081345.068425h.081345l.081345.13685.40672-1.9159h.081345l.16269-.41055.081345.20527.48807-2.1896.081345.068424.56942-2.6685.40672-3.2844.24404-1.0948.081345-.54739.081345.068424h.081345l.40672-3.5581.081345.13685.081345-.068425.32538-1.2316.40672-2.258.081345-.2737.081345-.75267.081345.068424.081345-.41054.16269-1.5738.081345-.068424.48807-4.7213.56942-5.8161.081345-.13685.24404-3.1475.081345-.20527.16269-1.0948.24404-5.3371.081345-.34212.56942-5.0634.081345-.068425.24404-1.4369.16269-1.2316.081345.54739 1.1388-12.316 1.7082-48.923.40672-12.658.48807-10.674.081345-.068425.32538-7.3898.16269.41055.081345 1.4369.081345-.13685.081345-.2737.081345-1.3685.16269.2737.24404-.82109.24404 1.6422.16269 3.2844.081345.47897.65076 10.606.40672 11.29.97614 24.085.32538 8.2793.56942 14.848.97614 18.064.48807 6.4319.56942 7.5951 1.1388 11.495.32538 1.7106.40672 2.1896.48807 2.0527.24404.88952.32538 1.2316.081345.068424.081345-.13685.081345.5474.081345-.61582.081345.20527.16269.20527.8948-3.2844.081345-.47897.081345.20527.16269-1.0264.48807-3.3528.16269-.95794.16269-1.0264.16269-.34212.081345-.068424.65076-2.3948.16269-.34212.16269-1.2316.16269-.68424.56942-5.6108 1.4642-17.79.081345.068425.081345.2737.24404-1.9159.081345-.95794.081345.068424.081345-.068424.97614-8.1425.081345.13685.16269-.47897.24404-2.5317.081345.54739.24404-1.1632.16269.95794.081345-.20527.24404-2.6685.081345.61582.16269-.61582.40672 4.1739.16269-.95794.081345.68424.081345-.95794.081345.068424.081345-.34212.24404 1.3685.16269-.2737.7321-8.0056.81345-17.311.24404-8.553.32538-11.701 1.3015-33.459.40672-5.7476.081345-.13685.081345.82109.081345-.47897.16269 1.7106.081345-1.3685.081345 1.1632.081345-.13685.081345-.2737.081345.068424.24404 3.0107.24404 4.3792.081345.13685.081345.61582.32538 5.6108.16269 1.6422.7321 20.254.081345.88952.7321 19.159.081345 1.0264.81345 22.238 1.6269 29.354.40672 5.1318.40672 4.3792.40672 3.3528.16269 1.2316.56942 4.4476.081345-.20527.40672 1.6422.24404 1.1632.081345.068424.081345.47897.16269-.34212.32538 1.0264.081345-.13685.16269.20527.081345-.13685.081345-.75267.16269.68424.16269-.13685.32538-1.9159.081345.61582.32538-1.3001.32538-1.0948.24404-.41054.24404-1.9843.32538-1.8475.24404-1.9159.081345-.2737.24404-2.6001.081345.068424.32538-2.5317.16269 1.3001.16269-.75267 1.7082-24.838.081345.34212.16269-1.2316.16269-2.1212.081345.13685.24404-1.3685.081345.41055.081345-.47897.081345.47897.081345-.13685.40672-2.4633.081345.2737h.081345l.32538-1.0264.081345-1.2316.081345.13685.16269-1.1632.081345-.068424.081345.41054.16269-1.8475.32538-1.0948.081345.2737.081345-.068424.081345 1.0264.16269-.61582.081345.61582.16269-1.3685.081345.34212.081345-.20527.16269-1.3001.24404 1.3685.24404-1.4369.081345.47897.32538-2.737.56942-5.6792.24404-7.1161.97614-38.386.24404-9.3741 1.0575-24.838.40672-3.9002.081345-.2737.16269-5.1318.081345-.2737.16269-1.5738.081345 1.0264.081345-1.1632.081345.13685.081345.068424.16269 2.5317.16269 2.258.24404 7.4582.16269.75267.32538 6.1582.081345 2.6001.081345-1.3685.081345.2737 1.6269 46.529.56942 14.164.97614 24.496.24404 2.737.7321 12.043.65076 7.8004.32538 4.1055.48807 4.3107.16269.2737.32538 2.1212.56942 3.2159.081345-.068424.24404.88952.081345.61582.081345-.068424.081345-.20527.16269.47897.081345-.13685.081345-.61582.24404 1.2316.081345-.068424.081345.20527.081345-.13685.081345.13685.24404-1.6422.081345-.068425.081345.5474.081345-.068425.7321-4.7897.081345-.2737.40672-4.6529.081345-.34212.24404-1.9843.48807-3.4212.081345.068424.081345-1.0264.081345.34212.081345-.41055.32538-2.737.40672-4.3792.65076-9.6478.081345-.068424.40672-6.6372.40672-5.4739.56942-8.2109.40672-5.4739.24404-2.6685.24404-3.8318.24404-.41054.24404-1.9159.16269-.068424.16269-.47897.081345.34212.081345-1.0264.081345.34212.24404-1.0264.16269.61582.081345-.2737.081345.2737.081345-.2737.081345.20527.24404 3.5581.081345-.13685.081345.34212.16269 1.5053.081345.2737.16269-.20527.081345.41055.081345-.068424.081345.068424.16269 1.0948.081345.13685.081345.41055.40672-2.8738.56942-12.522.081345-.5474 1.0575-29.286.81345-19.775.32538-7.7319.081345.41054.16269-1.9159.32538 3.2159.16269-1.3685.32538 2.5317.081345-.13685.7321 11.632.56942 13.48 2.2777 54.876.56942 12.727.32538 7.8688 1.8709 26.685.32538 2.8054.16269.34212.16269 1.0948.081345 1.1632.081345-.068425.24404 1.2316.16269.20527.32538.95794.081345-.47897.081345.47897.081345-.13685h.081345l.16269.13685.081345-.068424.16269-.41055h.081345l.24404-.41054.16269.75267.16269-.61582.081345.13685.40672-1.3001.16269-.82109.24404-1.9159.081345.13685.16269-.54739.8948-7.4582.32538-.68424h.081345l.16269-1.1632.16269.13685.081345-.068424.32538-3.0791.16269-1.7106.081345-.34212 1.4642-16.49.081345-.34212.56942-6.0898.24404-1.9159.40672-4.9265.32538-2.3948.16269-.47897.16269-1.9159.081345-.34212.081345.61582.24404-2.0527.081345.88952.16269-.68424.16269.47897.081345-.2737.081345.34212.081345-1.0264.16269.82109.081345-.068425.16269-.47897.081345-.068424.081345.34212.081345.95794.081345-.2737.081345-.34212.081345.068424.24404 1.1632.081345.13685.16269.41054.081345.13685.16269-.61582.081345-.82109.081345.68424.48807-4.995.7321-17.996.24404-7.253.32538-10.606.65076-18.885.16269-5.3371.81345-19.09.24404-2.8738.081345.61582.081345-.34212.081345.54739.081345-.75267.24404 1.2316.16269 1.8475.081345-.34212.48807 10.4.16269 1.1632.16269 2.4633.48807 9.1689.081345.41055.7321 16.49.48807 15.327.32538 14.095.32538 12.727.32538 7.0477.40672 8.1425.32538 5.4055.32538 11.769 1.3015 17.517 1.3015 9.1689.24404.34212.40672 1.9159.16269-.54739.16269.54739.16269-.13685.081345.2737.32538-.82109h.081345l.40672-1.5738.16269.34212.24404-1.8475.16269.2737.16269-.13685.40672-2.8738.081345-.13685.16269-1.9159.24404-3.2159.40672-3.9002.081345.13685.081345-.20527.32538-2.5317.40672-4.9265.081345-.61582.081345.068424.081345-.068424.32538-4.7213.40672-6.9109.16269-1.3001.16269-1.6422.40672-7.1846.081345-.82109.16269-3.0791.40672-3.0791.24404-3.0791.081345.068424.081345-.13685.081345.47897.24404-.75267.16269.41055.24404-2.9422.081345-.2737.081345.5474.081345-.2737.081345-.88952.081345.54739.16269-1.0264.16269.47897.16269-.2737.081345-.13685.081345.41055.24404-1.3001.16269 1.2316.24404-1.3001.081345.41055.081345-.13685.081345-.75267.081345.20527.40672 1.5053h.081345l.081345.88952.081345-.20527.65076-3.7633.65076-9.511 1.4642-40.849.16269-5.6108.081345-.47897.56942-11.837.40672-5.0634.16269.68424.24404 2.9422.081345-.068424.16269.47897.56942 9.9215 1.0575 34.281.40672 9.7847.40672 12.043.24404 7.4582.7321 15.669 2.0336 31.065.16269.88952.081345.2737.32538 2.737.16269.95794 1.4642 11.632.081345.068424.56942 3.7633.16269.68424.081345-.20527.16269 1.0264.081345.20527.081345-.2737.40672 1.7106.081345.13685.24404-.68424.56942 1.4369.081345-.13685.40672-1.9843.081345-.13685.48807-2.258.081345-.068424.081345-.2737.081345.34212.48807-2.4633.081345.20527.081345-.13685.56942-3.0107.081345-.068424.081345-.47897.081345.068425.081345-.068425.40672-2.8738.24404-.75267.40672-3.4212.48807-2.9422.32538-2.258.081345.068425.24404-1.5053.081345.2737h.081345l.48807-4.3792 1.7896-18.817.24404-2.6001.16269-1.9159.16269-1.2316.081345.34212.32538-1.8475.16269-2.9422.32538-2.8054.081345.068424.081345-.068424.65076-10.4.16269-2.8054 2.2777-64.524.16269-.95794.16269-2.737.081345-.13685.081345.13685.16269-.41055.081345.5474.24404 2.9422.081345-.068424.081345.13685.48807 6.774 1.1388 33.802.40672 13.069 1.3829 32.091.40672 7.4582.081345.61582.24404 3.2844.32538 4.2423.40672 6.0898 1.0575 11.222.16269.95794.24404 2.1212.24404 2.3948.40672 2.8738.56942 3.6265.24404 1.7106.40672 2.5317.081345-.068424.24404 1.5053.081345-.13685.081345-.5474.24404 1.3001.081345-.068424.24404 1.2316.16269-.34212.32538-.34212.081345-.41055.081345.068424.40672 1.1632.24404-.2737.081345-.34212.081345-1.0264.081345.20527.32538-1.5053.081345.34212.081345-.68424.081345.13685.65076-2.737h.081345l.081345-.2737.24404-2.0527.081345.2737.40672-1.6422.081345-.20527.16269-.82109h.081345l.16269-1.779.081345.20527.16269-.88952.081345.13685.40672-1.9159.40672-3.6949h.16269l.32538-1.5738.32538-4.037.16269-1.3685.16269-.13685.081345-.68424.24404-2.9422.32538-3.7633.24404-3.0107.48807-3.8318.081345-.20527.8948-7.6635h.081345l.24404-1.9843.16269-1.6422.65076-3.5581.40672-5.2687.40672-5.8845.56942-15.601.24404-7.8004 1.2202-44.681.24404-4.7897.40672-11.495.081345-.5474.081345.5474.32538-4.037.081345 1.1632.081345-.2737.081345-1.2316.16269.75267.081345-.2737.081345.068424.16269 1.0264.16269 3.9686.081345.2737.16269 3.3528.24404 3.1475.081345 1.1632.40672 12.864 2.4404 62.813.40672 9.1689.24404 5.5424.65076 9.4426 1.7082 17.653.081345.13685.16269 1.3001.16269 1.4369.32538 1.6422.081345.68424.081345-.068424.32538 1.4369.32538 1.8475.32538-.61582.16269-.13685.081345-.34212.081345.34212.24404-.75267.081345.68424.40672-1.5738.081345.13685.56942-4.1739.081345-.13685.7321-5.4739.081345.2737.48807-4.5844.081345.20527.32538-2.737.32538-3.4896.081345.13685.81345-9.5794.24404-3.7633.16269-1.7106.32538-5.2687.081345-.47897 1.0575-16.011.081345-.068425.16269-1.5738.16269-1.9843.081345.20527.081345-.068424.16269-1.0948.081345.2737.16269-.068424.32538-2.8738.16269.68424.081345-1.0264.081345.68424.081345-.41055.081345.2737.32538-1.8475.16269.13685.32538 3.2159.081345-.20527h.081345l.081345-.13685.081345 1.5053.081345-.13685.081346.5474.081345-.5474.081345.34212.081345-.13685.16269.068424.24404-1.6422.081345.13685.24404-2.3264.40672-6.8424.56942-16.764.32538-11.153.24404-11.427 1.4642-38.865.081345.2737.081345.75267.16269-3.0107.081345.61582.081345-.20527.081345-.41055.081345-1.0264.081345.82109.081345-1.0264.16269 3.0107.081345-.41055.16269-1.9843.081345.68424.16269 3.6949.081345-.75267.16269.95794.40672 7.5267.081345-.13685.16269 3.0107 1.0575 30.449 1.9523 53.029 1.2202 23.333.40672 6.2266.081345.47897.24404 2.737 1.0575 9.3741h.081345l.32538 2.1896.16269-.2737v0" clip-path="url(#c)" fill="none" stroke="#28f" stroke-linecap="square" stroke-width="1.5"/>
   </g>
   <g id="cp">
    <path d="m52.09 259.76v-232.88" fill="none" stroke="#000" stroke-linecap="square" stroke-width=".8"/>
   </g>
   <g id="cq">
    <path d="m853.2 259.76v-232.88" fill="none" stroke="#000" stroke-linecap="square" stroke-width=".8"/>
   </g>
   <g id="cr">
    <path d="m52.09 259.76h801.11" fill="none" stroke="#000" stroke-linecap="square" stroke-width=".8"/>
   </g>
   <g id="cs">
    <path d="m52.09 26.88h801.11" fill="none" stroke="#000" stroke-linecap="square" stroke-width=".8"/>
   </g>
   <g id="ct">
    <!-- 同時接続数の推移 -->
    <g transform="translate(404.64 20.88) scale(.12 -.12)">
     <defs>
      <path id="x" transform="scale(.015625)" d="m1587 3936h3232v-518h-3232v518zm320-1114h557v-2534h-557v2534zm301 0h2291v-2086h-2291v512h1734v1069h-1734v505zm-1683 2260h5113v-570h-4524v-5056h-589v5626zm4768 0h595v-4896q0-250-67-397t-227-218q-160-77-426-96t-675-19q-13 83-45 192t-77 218q-45 108-89 185 281-13 527-13 247 0 330 0 83 7 118 42 36 35 36 112v4890z"/>
      <path id="v" transform="scale(.015625)" d="m2714 4672h3238v-525h-3238v525zm-244-1235h3712v-538h-3712v538zm20-1184h3635v-531h-3635v531zm1523 3155h595v-2310h-595v2310zm832-2451h589v-2823q0-230-61-364-61-135-227-199-167-70-423-86t-633-16q-20 121-78 285-57 163-121 284 275-6 509-9t310-3q77 6 106 28 29 23 29 93v2810zm-2023-1677 487 282q153-160 313-352t294-381q135-189 206-343l-519-313q-64 153-189 348-124 196-278 394-154 199-314 365zm-2086 3718h1619v-4281h-1619v544h1056v3187h-1056v550zm32-1843h1293v-537h-1293v537zm-320 1843h563v-4832h-563v4832z"/>
      <path id="w" transform="scale(.015625)" d="m3866 5408h614v-870h-614v870zm-1479-653h3597v-518h-3597v518zm-230-1485h4e3v-518h-4e3v518zm825 922 519 102q64-160 121-342 58-182 96-352 39-170 45-304l-544-128q-6 134-42 313-35 180-83 365-48 186-112 346zm1856 109 589-71q-96-275-202-557-105-281-195-486l-518 77q58 147 122 329 64 183 118 372t86 336zm-2643-2106h3943v-518h-3943v518zm1408 685 602-115q-167-371-362-784t-390-797-362-685l-525 179q160 288 346 666t368 784 323 752zm-659-2157 358 403q352-102 733-240 381-137 752-304 371-166 697-336 327-169 558-329l-384-461q-218 160-532 336-313 176-685 345-371 170-755 323-384 154-742 263zm1894 1114 583-71q-122-550-353-944-230-393-604-662t-922-435q-547-167-1296-269-25 128-93 269-67 141-137 230 678 64 1168 192t819 349q330 221 531 550 202 330 304 791zm-4684 217q396 90 953 240 557 151 1120 311l77-544q-525-154-1053-311-528-156-963-284l-134 588zm121 2093h1965v-563h-1965v563zm819 1248h576v-5229q0-236-51-374t-192-208q-141-77-355-99-214-23-541-16-13 115-64 288t-109 294q205-6 381-6t234 0q64 0 92 28 29 29 29 93v5229z"/>
      <path id="u" transform="scale(.015625)" d="m4058 5408h595v-1798h-595v1798zm-1415-563h3443v-499h-3443v499zm231-992h3008v-499h-3008v499zm-224-877h3475v-1203h-531v729h-2432v-729h-512v1203zm1964-877h551v-1881q0-122 22-157 23-35 106-35 25 0 92 0 68 0 135 0t99 0q51 0 83 54t45 224 19 515q90-70 234-131t259-93q-19-429-83-662-64-234-183-326-118-93-316-93-39 0-103 0t-134 0-138 0q-67 0-99 0-237 0-365 64t-176 218q-48 153-48 422v1881zm-1164-6h550v-455q0-243-48-528-48-284-186-579-137-294-409-572-272-279-727-503-70 90-192 208-121 118-230 195 416 205 665 438 250 234 371 474 122 240 164 467 42 228 42 413v442zm-2240 3309 524-192q-121-244-259-503-137-259-275-496t-259-416l-410 173q122 186 246 438 125 253 240 515 116 263 193 481zm716-743 500-230q-224-359-496-756-272-396-548-764-275-368-518-650l-358 205q179 211 377 483 199 272 387 569 189 298 358 592 170 295 298 551zm-1721-665 307 403q166-154 339-340 173-185 320-364t224-327l-326-460q-77 160-218 348-141 189-314 384-172 196-332 356zm1485-832 435 179q128-211 249-458 122-246 215-474 93-227 137-412l-473-211q-32 185-119 422-86 237-201 486-115 250-243 468zm-1530-583q422 26 998 54 576 29 1184 68l7-499q-570-45-1127-84-556-38-992-70l-70 531zm1702-992 436 135q121-276 214-596t118-556l-454-148q-26 237-112 563-86 327-202 602zm-1363 109 499-83q-57-455-163-897-105-441-253-748-51 32-134 73-83 42-170 83-86 42-144 62 148 294 234 697t131 813zm691 627h525v-2861h-525v2861z"/>
      <path id="p" transform="scale(.015625)" d="m224 2022h3187v-499h-3187v499zm51 2247h3111v-487h-3111v487zm1127-1735 563-121q-154-320-333-672t-352-679q-173-326-326-582l-532 173q148 243 324 566t345 669q170 346 311 646zm934-832 563-64q-89-480-262-838t-461-614-701-432-976-298q-25 128-99 269t-157 237q659 102 1085 303 426 202 666 554t342 883zm422 3597 519-211q-147-218-298-436-150-217-278-377l-403 186q121 173 252 413 132 240 208 425zm-1203 109h563v-2957h-563v2957zm-1075-320 448 186q134-192 246-420 112-227 157-393l-467-211q-38 172-147 406t-237 432zm1094-1050 397-236q-160-263-400-529-240-265-519-489-278-224-553-378-51 103-141 237-89 135-179 218 269 109 534 294 266 186 493 416 228 231 368 467zm487-204q83-45 246-145 163-99 352-211t346-211 221-150l-327-423q-83 77-230 198-147 122-317 253-170 132-327 250-156 119-259 189l295 250zm1798 396h2311v-556h-2311v556zm115 1178 615-90q-103-640-263-1235t-384-1101q-224-505-512-889-44 57-134 134t-186 157-166 125q275 339 473 796 199 458 340 995 141 538 217 1108zm1223-1510 614-58q-147-1101-445-1940-297-838-813-1443-515-604-1321-1014-26 71-90 177-64 105-134 208-70 102-128 159 742 346 1212 880 471 535 730 1290 260 755 375 1741zm-1005-135q134-851 387-1597 253-745 659-1305 407-560 1002-874-70-57-154-150-83-93-154-189-70-96-121-179-633 371-1056 988-422 618-688 1434-265 816-425 1783l550 89zm-3309-3065 327 416q377-148 754-330 378-182 701-378 324-195 548-368l-416-435q-211 179-519 378-307 198-666 383-358 186-729 334z"/>
      <path id="t" transform="scale(.015625)" d="m3686 4378q-64-493-163-1041-99-547-265-1084-192-653-432-1104t-522-688-595-237q-320 0-596 221-275 221-448 621-172 400-172 931 0 537 220 1017 221 480 611 851 391 372 909 583 519 211 1121 211 576 0 1040-186 464-185 793-515 330-329 502-771 173-441 173-941 0-672-278-1194-278-521-816-851-538-329-1318-444l-378 601q166 20 307 42t263 48q307 70 585 217 279 148 496 375 218 227 342 534 125 308 125 692t-122 713q-121 330-358 573-236 243-582 380-346 138-781 138-525 0-935-186-409-185-694-489-284-304-432-656-147-352-147-678 0-365 89-605 90-240 224-355 135-115 276-115t288 144 297 457q151 314 298 800 147 461 246 982 100 522 145 1021l684-12z"/>
      <path id="q" transform="scale(.015625)" d="m2995 2925h2893v-519h-2893v519zm0-1280h2893v-519h-2893v519zm-64-1299h3232v-557h-3232v557zm1312 3577h563v-3763h-563v3763zm429 1466 634-141q-154-390-340-794-185-403-339-684l-512 140q103 199 208 458 106 259 195 528 90 269 154 493zm-1472 25 582-147q-153-518-371-1018-217-499-483-931t-573-758q-38 64-109 160-70 96-147 198-77 103-141 160 416 416 733 1034t509 1302zm128-1203h2720v-537h-2720v-4205h-582v4422l313 320h269zm-3174-2157q396 90 953 240 557 151 1120 311l77-544q-525-154-1053-311-528-156-963-284l-134 588zm121 2093h1965v-563h-1965v563zm819 1248h576v-5229q0-236-51-374t-192-208q-141-77-355-99-214-23-541-16-13 115-64 288t-109 294q205-6 381-6t234 0q64 0 92 28 29 29 29 93v5229z"/>
      <path id="o" transform="scale(.015625)" d="m4051 5402 595-109q-281-493-729-941t-1107-806q-39 64-106 144t-141 153q-73 74-137 119 608 288 1011 678t614 762zm-77-557h1511v-493h-1863l352 493zm1293 0h109l109 25 384-179q-192-505-496-905t-695-701q-390-301-845-519-454-217-947-358-44 109-137 253t-176 227q448 109 867 294 419 186 777 445 359 259 631 592t419 730v96zm-1990-954 377 307q167-96 336-218 170-121 320-249 151-128 247-237l-397-332q-90 108-237 236t-317 259q-169 132-329 234zm1107-934 595-109q-307-538-803-1031-496-492-1232-876-38 64-102 144t-138 156q-74 77-138 116 455 217 807 483t604 554q253 288 407 563zm-90-589h1460v-506h-1818l358 506zm1268 0h121l109 26 384-167q-192-614-531-1075t-787-794q-448-332-983-553-534-221-1129-355-45 115-132 269-86 153-176 249 551 96 1043 285 493 189 903 473 410 285 714 669t464 883v90zm-2132-1056 410 339q186-102 384-237 198-134 371-275t282-269l-435-371q-103 128-270 272-166 144-361 288t-381 253zm-2150 3533h589v-5376h-589v5376zm-992-1242h2336v-569h-2336v569zm1024-224 365-160q-96-339-231-707-134-368-291-727-157-358-336-672-179-313-365-537-44 128-134 291t-160 272q173 192 339 457 167 266 323 570 157 304 282 618t208 595zm941 1946 416-467q-314-122-695-221-380-99-784-173-403-74-780-131-20 102-71 236-51 135-102 231 358 58 732 138 375 80 711 179t573 208zm-397-2579q58-45 179-170 122-125 266-266 144-140 259-265t160-183l-352-473q-58 102-157 255-99 154-218 317-118 164-227 311-108 147-185 237l275 237z"/>
     </defs>
     <use xlink:href="#x"/>
     <use transform="translate(100)" xlink:href="#v"/>
     <use transform="translate(200)" xlink:href="#w"/>
     <use transform="translate(300)" xlink:href="#u"/>
     <use transform="translate(400)" xlink:href="#p"/>
     <use transform="translate(500)" xlink:href="#t"/>
     <use transform="translate(600)" xlink:href="#q"/>
     <use transform="translate(700)" xlink:href="#o"/>
    </g>
   </g>
  </g>
  <g id="cu">
   <g id="cv">
    <path d="m52.09 523.01h801.11v-232.88h-801.11z" fill="#fff"/>
   </g>
   <g id="cw">
    <path d="m248.59 523.01h.32538v-232.88h-.32538z" clip-path="url(#d)" fill="#ddd" stroke="#ddd"/>
   </g>
   <g id="cx">
    <path d="m249.08 523.01h.16269v-232.88h-.16269z" clip-path="url(#d)" fill="#ddd" stroke="#ddd"/>
   </g>
   <g id="cy">
    <path d="m347.51 523.01h.16269v-232.88h-.16269z" clip-path="url(#d)" fill="#ddd" stroke="#ddd"/>
   </g>
   <g id="cz">
    <path d="m385.98 523.01h.16269v-232.88h-.16269z" clip-path="url(#d)" fill="#ddd" stroke="#ddd"/>
   </g>
   <g id="da">
    <g id="db">
     <g id="dc">
      <path d="m129.75 523.01v-232.88" clip-path="url(#d)" fill="none" stroke="#b0b0b0" stroke-linecap="square" stroke-opacity=".3" stroke-width=".8"/>
     </g>
     <g id="dd">
      <use x="129.746008" y="523.010464" stroke="#000000" stroke-width=".8" xlink:href="#e"/>
     </g>
     <g id="de">
      <!-- 2026-08-29 -->
      <g transform="translate(82.956 563.28) rotate(-30) scale(.1 -.1)">
       <defs>
        <path id="f" transform="scale(.015625)" d="m301 1536v544h1689v-544h-1689z"/>
        <path id="i" transform="scale(.015625)" d="m1562-90q-410 0-708 150-297 151-502 356l403 461q141-160 346-256t422-96q224 0 425 102 202 103 352 333 151 230 237 614 87 384 87 941 0 589-115 970t-323 563-496 182q-205 0-372-118-166-118-262-336t-96-525q0-301 86-512 87-211 259-323 173-112 417-112 224 0 460 141 237 141 448 461l32-544q-134-180-313-314t-371-208-384-74q-391 0-689 166-297 167-467 496-169 330-169 823 0 467 195 816t515 541 698 192q339 0 636-138 298-137 519-419 221-281 349-710t128-1018q0-691-141-1187t-391-807q-249-310-563-461-313-150-652-150z"/>
       </defs>
       <use xlink:href="#b"/>
       <use transform="translate(57)" xlink:href="#a"/>
       <use transform="translate(114)" xlink:href="#b"/>
       <use transform="translate(171)" xlink:href="#j"/>
       <use transform="translate(228)" xlink:href="#f"/>
       <use transform="translate(263.7)" xlink:href="#a"/>
       <use transform="translate(320.7)" xlink:href="#l"/>
       <use transform="translate(377.7)" xlink:href="#f"/>
       <use transform="translate(413.4)" xlink:href="#b"/>
       <use transform="translate(470.4)" xlink:href="#i"/>
      </g>
     </g>
    </g>
    <g id="df">
     <g id="dg">
      <path d="m200.03 523.01v-232.88" clip-path="url(#d)" fill="none" stroke="#b0b0b0" stroke-linecap="square" stroke-opacity=".3" stroke-width=".8"/>
     </g>
     <g id="dh">
      <use x="200.028091" y="523.010464" stroke="#000000" stroke-width=".8" xlink:href="#e"/>
     </g>
     <g id="di">
      <!-- 2026-09-01 -->
      <g transform="translate(153.24 563.28) rotate(-30) scale(.1 -.1)">
       <use xlink:href="#b"/>
       <use transform="translate(57)" xlink:href="#a"/>
       <use transform="translate(114)" xlink:href="#b"/>
       <use transform="translate(171)" xlink:href="#j"/>
       <use transform="translate(228)" xlink:href="#f"/>
       <use transform="translate(263.7)" xlink:href="#a"/>
       <use transform="translate(320.7)" xlink:href="#i"/>
       <use transform="translate(377.7)" xlink:href="#f"/>
       <use transform="translate(413.4)" xlink:href="#a"/>
       <use transform="translate(470.4)" xlink:href="#h"/>
      </g>
     </g>
    </g>
    <g id="dj">
     <g id="dk">
      <path d="m293.74 523.01v-232.88" clip-path="url(#d)" fill="none" stroke="#b0b0b0" stroke-linecap="square" stroke-opacity=".3" stroke-width=".8"/>
     </g>
     <g id="dl">
      <use x="293.737535" y="523.010464" stroke="#000000" stroke-width=".8" xlink:href="#e"/>
     </g>
     <g id="dm">
      <!-- 2026-09-05 -->
      <g transform="translate(246.95 563.28) rotate(-30) scale(.1 -.1)">
       <defs>
        <path id="k" transform="scale(.015625)" d="m1715-90q-365 0-653 90t-506 237q-217 147-383 307l352 480q134-134 294-246t361-183q202-70 452-70 262 0 473 118 212 119 333 346 122 227 122 541 0 460-247 716-246 256-649 256-224 0-384-64t-365-198l-365 237 141 2240h2387v-627h-1747l-109-1204q154 77 307 118 154 42 340 42 397 0 723-160t518-490q192-329 192-847 0-519-224-887t-586-560q-361-192-777-192z"/>
       </defs>
       <use xlink:href="#b"/>
       <use transform="translate(57)" xlink:href="#a"/>
       <use transform="translate(114)" xlink:href="#b"/>
       <use transform="translate(171)" xlink:href="#j"/>
       <use transform="translate(228)" xlink:href="#f"/>
       <use transform="translate(263.7)" xlink:href="#a"/>
       <use transform="translate(320.7)" xlink:href="#i"/>
       <use transform="translate(377.7)" xlink:href="#f"/>
       <use transform="translate(413.4)" xlink:href="#a"/>
       <use transform="translate(470.4)" xlink:href="#k"/>
      </g>
     </g>
    </g>
    <g id="dn">
     <g id="do">
      <path d="m387.45 523.01v-232.88" clip-path="url(#d)" fill="none" stroke="#b0b0b0" stroke-linecap="square" stroke-opacity=".3" stroke-width=".8"/>
     </g>
     <g id="dp">
      <use x="387.44698" y="523.010464" stroke="#000000" stroke-width=".8" xlink:href="#e"/>
     </g>
     <g id="dq">
      <!-- 2026-09-09 -->
      <g transform="translate(340.66 563.28) rotate(-30) scale(.1 -.1)">
       <use xlink:href="#b"/>
       <use transform="translate(57)" xlink:href="#a"/>
       <use transform="translate(114)" xlink:href="#b"/>
       <use transform="translate(171)" xlink:href="#j"/>
       <use transform="translate(228)" xlink:href="#f"/>
       <use transform="translate(263.7)" xlink:href="#a"/>
       <use transform="translate(320.7)" xlink:href="#i"/>
       <use transform="translate(377.7)" xlink:href="#f"/>
       <use transform="translate(413.4)" xlink:href="#a"/>
       <use transform="translate(470.4)" xlink:href="#i"/>
      </g>
     </g>
    </g>
    <g id="dr">
     <g id="ds">
      <path d="m481.16 523.01v-232.88" clip-path="url(#d)" fill="none" stroke="#b0b0b0" stroke-linecap="square" stroke-opacity=".3" stroke-width=".8"/>
     </g>
     <g id="dt">
      <use x="481.156424" y="523.010464" stroke="#000000" stroke-width=".8" xlink:href="#e"/>
     </g>
     <g id="du">
      <!-- 2026-09-13 -->
      <g transform="translate(434.37 563.28) rotate(-30) scale(.1 -.1)">
       <use xlink:href="#b"/>
       <use transform="translate(57)" xlink:href="#a"/>
       <use transform="translate(114)" xlink:href="#b"/>
       <use transform="translate(171)" xlink:href="#j"/>
       <use transform="translate(228)" xlink:href="#f"/>
       <use transform="translate(263.7)" xlink:href="#a"/>
       <use transform="translate(320.7)" xlink:href="#i"/>
       <use transform="translate(377.7)" xlink:href="#f"/>
       <use transform="translate(413.4)" xlink:href="#h"/>
       <use transform="translate(470.4)" xlink:href="#n"/>
      </g>
     </g>
    </g>
    <g id="dv">
     <g id="dw">
      <path d="m574.87 523.01v-232.88" clip-path="url(#d)" fill="none" stroke="#b0b0b0" stroke-linecap="square" stroke-opacity=".3" stroke-width=".8"/>
     </g>
     <g id="dx">
      <use x="574.865868" y="523.010464" stroke="#000000" stroke-width=".8" xlink:href="#e"/>
     </g>
     <g id="dy">
      <!-- 2026-09-17 -->
      <g transform="translate(528.08 563.28) rotate(-30) scale(.1 -.1)">
       <defs>
        <path id="r" transform="scale(.015625)" d="m1235 0q32 646 109 1187t224 1024 384 941 576 938h-2208v627h3027v-455q-409-512-665-989-256-476-397-969t-205-1053-90-1251h-755z"/>
       </defs>
       <use xlink:href="#b"/>
       <use transform="translate(57)" xlink:href="#a"/>
       <use transform="translate(114)" xlink:href="#b"/>
       <use transform="translate(171)" xlink:href="#j"/>
       <use transform="translate(228)" xlink:href="#f"/>
       <use transform="translate(263.7)" xlink:href="#a"/>
       <use transform="translate(320.7)" xlink:href="#i"/>
       <use transform="translate(377.7)" xlink:href="#f"/>
       <use transform="translate(413.4)" xlink:href="#h"/>
       <use transform="translate(470.4)" xlink:href="#r"/>
      </g>
     </g>
    </g>
    <g id="dz">
     <g id="ea">
      <path d="m668.58 523.01v-232.88" clip-path="url(#d)" fill="none" stroke="#b0b0b0" stroke-linecap="square" stroke-opacity=".3" stroke-width=".8"/>
     </g>
     <g id="eb">
      <use x="668.575312" y="523.010464" stroke="#000000" stroke-width=".8" xlink:href="#e"/>
     </g>
     <g id="ec">
      <!-- 2026-09-21 -->
      <g transform="translate(621.79 563.28) rotate(-30) scale(.1 -.1)">
       <use xlink:href="#b"/>
       <use transform="translate(57)" xlink:href="#a"/>
       <use transform="translate(114)" xlink:href="#b"/>
       <use transform="translate(171)" xlink:href="#j"/>
       <use transform="translate(228)" xlink:href="#f"/>
       <use transform="translate(263.7)" xlink:href="#a"/>
       <use transform="translate(320.7)" xlink:href="#i"/>
       <use transform="translate(377.7)" xlink:href="#f"/>
       <use transform="translate(413.4)" xlink:href="#b"/>
       <use transform="translate(470.4)" xlink:href="#h"/>
      </g>
     </g>
    </g>
    <g id="ed">
     <g id="ee">
      <path d="m762.28 523.01v-232.88" clip-path="url(#d)" fill="none" stroke="#b0b0b0" stroke-linecap="square" stroke-opacity=".3" stroke-width=".8"/>
     </g>
     <g id="ef">
      <use x="762.284757" y="523.010464" stroke="#000000" stroke-width=".8" xlink:href="#e"/>
     </g>
     <g id="eg">
      <!-- 2026-09-25 -->
      <g transform="translate(715.5 563.28) rotate(-30) scale(.1 -.1)">
       <use xlink:href="#b"/>
       <use transform="translate(57)" xlink:href="#a"/>
       <use transform="translate(114)" xlink:href="#b"/>
       <use transform="translate(171)" xlink:href="#j"/>
       <use transform="translate(228)" xlink:href="#f"/>
       <use transform="translate(263.7)" xlink:href="#a"/>
       <use transform="translate(320.7)" xlink:href="#i"/>
       <use transform="translate(377.7)" xlink:href="#f"/>
       <use transform="translate(413.4)" xlink:href="#b"/>
       <use transform="translate(470.4)" xlink:href="#k"/>
      </g>
     </g>
    </g>
   </g>
   <g id="eh">
    <g id="ei">
     <g id="ej">
      <path d="m52.09 495.78h801.11" clip-path="url(#d)" fill="none" stroke="#b0b0b0" stroke-linecap="square" stroke-opacity=".3" stroke-width=".8"/>
     </g>
     <g id="ek">
      <use x="52.09" y="495.783173" stroke="#000000" stroke-width=".8" xlink:href="#g"/>
     </g>
     <g id="el">
      <!-- 204000 -->
      <g transform="translate(10.89 499.77) scale(.1 -.1)">
       <use xlink:href="#b"/>
       <use transform="translate(57)" xlink:href="#a"/>
       <use transform="translate(114)" xlink:href="#m"/>
       <use transform="translate(171)" xlink:href="#a"/>
       <use transform="translate(228)" xlink:href="#a"/>
       <use transform="translate(285)" xlink:href="#a"/>
      </g>
     </g>
    </g>
    <g id="em">
     <g id="en">
      <path d="m52.09 465.38h801.11" clip-path="url(#d)" fill="none" stroke="#b0b0b0" stroke-linecap="square" stroke-opacity=".3" stroke-width=".8"/>
     </g>
     <g id="eo">
      <use x="52.09" y="465.377472" stroke="#000000" stroke-width=".8" xlink:href="#g"/>
     </g>
     <g id="ep">
      <!-- 205500 -->
      <g transform="translate(10.89 469.36) scale(.1 -.1)">
       <use xlink:href="#b"/>
       <use transform="translate(57)" xlink:href="#a"/>
       <use transform="translate(114)" xlink:href="#k"/>
       <use transform="translate(171)" xlink:href="#k"/>
       <use transform="translate(228)" xlink:href="#a"/>
       <use transform="translate(285)" xlink:href="#a"/>
      </g>
     </g>
    </g>
    <g id="eq">
     <g id="er">
      <path d="m52.09 434.97h801.11" clip-path="url(#d)" fill="none" stroke="#b0b0b0" stroke-linecap="square" stroke-opacity=".3" stroke-width=".8"/>
     </g>
     <g id="es">
      <use x="52.09" y="434.971772" stroke="#000000" stroke-width=".8" xlink:href="#g"/>
     </g>
     <g id="et">
      <!-- 207000 -->
      <g transform="translate(10.89 438.96) scale(.1 -.1)">
       <use xlink:href="#b"/>
       <use transform="translate(57)" xlink:href="#a"/>
       <use transform="translate(114)" xlink:href="#r"/>
       <use transform="translate(171)" xlink:href="#a"/>
       <use transform="translate(228)" xlink:href="#a"/>
       <use transform="translate(285)" xlink:href="#a"/>
      </g>
     </g>
    </g>
    <g id="eu">
     <g id="ev">
      <path d="m52.09 404.57h801.11" clip-path="url(#d)" fill="none" stroke="#b0b0b0" stroke-linecap="square" stroke-opacity=".3" stroke-width=".8"/>
     </g>
     <g id="ew">
      <use x="52.09" y="404.566072" stroke="#000000" stroke-width=".8" xlink:href="#g"/>
     </g>
     <g id="ex">
      <!-- 208500 -->
      <g transform="translate(10.89 408.55) scale(.1 -.1)">
       <use xlink:href="#b"/>
       <use transform="translate(57)" xlink:href="#a"/>
       <use transform="translate(114)" xlink:href="#l"/>
       <use transform="translate(171)" xlink:href="#k"/>
       <use transform="translate(228)" xlink:href="#a"/>
       <use transform="translate(285)" xlink:href="#a"/>
      </g>
     </g>
    </g>
    <g id="ey">
     <g id="ez">
      <path d="m52.09 374.16h801.11" clip-path="url(#d)" fill="none" stroke="#b0b0b0" stroke-linecap="square" stroke-opacity=".3" stroke-width=".8"/>
     </g>
     <g id="fa">
      <use x="52.09" y="374.160371" stroke="#000000" stroke-width=".8" xlink:href="#g"/>
     </g>
     <g id="fb">
      <!-- 210000 -->
      <g transform="translate(10.89 378.15) scale(.1 -.1)">
       <use xlink:href="#b"/>
       <use transform="translate(57)" xlink:href="#h"/>
       <use transform="translate(114)" xlink:href="#a"/>
       <use transform="translate(171)" xlink:href="#a"/>
       <use transform="translate(228)" xlink:href="#a"/>
       <use transform="translate(285)" xlink:href="#a"/>
      </g>
     </g>
    </g>
    <g id="fc">
     <g id="fd">
      <path d="m52.09 343.75h801.11" clip-path="url(#d)" fill="none" stroke="#b0b0b0" stroke-linecap="square" stroke-opacity=".3" stroke-width=".8"/>
     </g>
     <g id="fe">
      <use x="52.09" y="343.754671" stroke="#000000" stroke-width=".8" xlink:href="#g"/>
     </g>
     <g id="ff">
      <!-- 211500 -->
      <g transform="translate(10.89 347.74) scale(.1 -.1)">
       <use xlink:href="#b"/>
       <use transform="translate(57)" xlink:href="#h"/>
       <use transform="translate(114)" xlink:href="#h"/>
       <use transform="translate(171)" xlink:href="#k"/>
       <use transform="translate(228)" xlink:href="#a"/>
       <use transform="translate(285)" xlink:href="#a"/>
      </g>
     </g>
    </g>
    <g id="fg">
     <g id="fh">
      <path d="m52.09 313.35h801.11" clip-path="url(#d)" fill="none" stroke="#b0b0b0" stroke-linecap="square" stroke-opacity=".3" stroke-width=".8"/>
     </g>
     <g id="fi">
      <use x="52.09" y="313.348971" stroke="#000000" stroke-width=".8" xlink:href="#g"/>
     </g>
     <g id="fj">
      <!-- 213000 -->
      <g transform="translate(10.89 317.33) scale(.1 -.1)">
       <use xlink:href="#b"/>
       <use transform="translate(57)" xlink:href="#h"/>
       <use transform="translate(114)" xlink:href="#n"/>
       <use transform="translate(171)" xlink:href="#a"/>
       <use transform="translate(228)" xlink:href="#a"/>
       <use transform="translate(285)" xlink:href="#a"/>
      </g>
     </g>
    </g>
   </g>
   <g id="fk">
    <path d="m88.504 414.56 1.5456-.10135.65076-.060812 2.603-.10135.7321-.081082 1.0575-.081082.24404-.040541h.24404l.32538-.040541.40672-.081082.32538-.040541 1.3015-.22298 1.4642-.060811.24404-.12162.16269-.02027.56942-.18244h.40672l1.2202-.24324.16269.02027.48807-.14189h.40672l.40672-.18243h.16269l.48807-.28379.40672-.060811.40672-.18243.081345.060811.32538-.32433.16269.02027.24404-.060811.56942-.060812.24404.081082.8948-.10135.16269-.040541 1.3015-.081082.56942-.18243.81345-.060812.24404-.081081 1.3829-.060812.24404-.060811 3.4978-.10135.56942-.040541 1.1388-.10135.24404.040541.7321-.10135.40672-.020271.48807.020271.48807-.020271 1.3829-.10135 1.3015-.42568.8948-.22298.24404-.12162 1.1388-.18243 1.0575-.081082.65076-.22298.32538-.10135 1.1388-.72974.56942-.40541.16269-.24325.24404-.10135.40672-.081082.16269-.020271.24404-.02027 2.1963-.46622.24404-.040541.48807-.10135.81345-.12162.32538.02027.32538-.081081.48807.02027.16269.040541h.40672l.32538-.040541 1.3829-.24325 2.8471-.10135 1.3015-.22298.32538-.020271 1.9523-.081081.56942-.18244.16269-.060811.24404-.12162.40672-.10135.65076-.22298h.40673l.97614-.060812.16269-.040541.81345-.060811.16269-.060811h.16269l.40672-.12162.16269-.040541.32538-.10135.24404-.18244.81345-.26352.24404-.12162.40672-.18243.65076-.38514.32538-.060811.40672-.32433.24404-.081082.24404-.18244.24404-.22298.56942-.40541.16269-.060811.16269-.020271.8948-.32433.56942-.040541 1.0575-.10135.97614-.16216h.16269l.32538-.040541.56942-.040541 1.6269-.10135.65076-.060811 1.7896-.10135.65076-.060812.48807.020271.7321-.10135h.16269l.24404.040541.65076-.060811.7321-.081082.32538-.040541.40672-.040541h.24404l.40672-.10135h.16269l.16269.02027.48807-.12162 1.1388-.36487.16269-.081082.7321-.10135 1.9523-.48649.16269.12162 1.3829-.56757.32538-.18243.56942-.16216.32538-.16216.8948-.56757.24404-.020271.24404-.14189.24404-.02027.32538-.040541.48807-.36487 1.2202-.48649 2.115-.060811.24404-.060812.7321-.10135h.40672l3.6605-.081082.16269-.040541.40672.020271.56942-.040541 3.3351-.10135.40672-.12162.48807.020271.48807-.12162 2.115-.081082.32538-.040541h.16269l.81345-.28379.24404-.10135.24404-.2027.24404-.020271 1.7896-.3446.081345.020271.32538-.28379h.16269l.32538-.18243.32538-.2027.16269-.02027.40672-.081082.97614-.40541.16269-.040541.65076-.22298.48807-.10135.24404-.10135 1.2202-.060811.24404-.081082.32538-.020271.24404.020271.48807-.020271 4.6367.060812.16269.060811.16269.020271 2.6844-.10135.24404.040541.48807.020271.7321-.081082.7321-.10135.40672-.040541.16269.14189.40672-.10135.32538-.040541 1.3829-.26352h.24404l.32538-.040541.24404.081082.40672-.12162.40672.02027.56942-.18243.24404.060811h.24404l.7321-.26352.32538-.081082.56942-.3446.40672-.081082.32538-.081081h.24404l1.8709-.56757.40672-.10135.24404-.040541.65076-.10135.40672-.10135.40672.081081 5.1247-.10135.81345-.10135.24404-.020271.32538-.040541.56942-.040541.48807.020271 1.2202-.10135.56942-.040541 1.1388-.10135.48807-.040541h.16269l.48807-.24324.56942-.040541 2.2777-.10135.24404-.081081.40672-.10135.32538-.02027 3.4165-.95271.16269-.12162.16269-.040541.48807-.24324h.16269l.24404-.14189.48807-.16216.24404-.14189.56942-.24324.56942-.18244.48807-.10135.081345-.02027m.32538-.18244.16269-.02027m.16269.02027 1.0575-.10135.40672-.02027.56942.040541 2.7657.10135.8948.12162.65076-.060812 2.359-.10135.16269-.040541 2.1963-.10135 1.0575-.2027.16269.020271.16269-.060812.24404-.02027.48807-.020271.56942-.060811.32538-.12162.56942.060811 2.1963-.44595.32538-.081082.81345-.28379.16269.040541h.32538l.81345-.30406.40672-.2027.40672.10135.56942-.22298h.24404l.56942-.040541.24404.020271.24404-.16216.40672-.2027.24404-.02027h.24404l.24404-.040541 1.3829-.10135.32538-.060812.56942.060812.48807-.020271 1.3015.060812.16269.02027.65076-.10135.48807-.040541.65076.060811 2.359.081082h.24404l.81345-.10135 6.3449-.10135 1.7082-.3446.16269-.040541.56942-.2027.24404-.10135.32538-.10135.32538-.24325.40672-.10135.16269.040541h.16269l.24404-.10135.16269-.040541.16269-.081082 1.1388-.46622.24404-.081082.16269-.10135 1.1388-.18243 7.077-.081082.32538-.060811h.32538l.40672-.10135.7321-.10135.65076-.2027.56942-.040541.24404.020271.24404-.10135.32538-.060811.40672-.10135 3.3351-.72974.48807-.081082h.16269l.16269.060811.32538-.040541.24404-.02027.24404-.18243.7321-.081082h.16269l.24404.10135 1.3015-.42568.40672-.18243.48807-.02027.24404-.060812.24404-.12162.8948-.3446.16269.081082.24404-.081082.32538-.18244.48807-.24324 1.0575-.36487.56942-.16216.7321-.081082.32538-.060812.73211-.060811.16269-.10135.56942.060811 1.2202-.2027 2.5217.10135.48807.02027 1.7896-.10135 1.0575-.16216.32538-.10135.81345-.14189h.24404l.24404.02027.24404-.081082.32538-.02027.40672-.10135.32538-.12162.8948-.060812.24404-.081082 1.3015-.42568.97614-.38514.32538-.10135 1.4642-.62838.48807-.10135.16269-.10135.81345-.6892.16269.16216 2.603-1.1757 1.4642-.42568.32538-.2027.8948-.081081.32538-.040541 1.0575-.10135.8948-.12162 1.3015-.060811m.16269-.02027 1.7082-.10135.56942-.040541.7321.081082.97614-.10135.56942-.040541.48807.02027 1.0575-.10135h.40672l.56942-.10135.32538-.060812.40672-.060811.24404-.14189 2.1963-.46622.24404-.040541 2.2777-.64866.56942-.30406.40672-.081082.16269-.040541h.40672l.24404-.081082.24404-.18243.16269.020271.16269-.16216h.16269l.24404-.10135.81345-.30406.48807-.24325.24404-.10135.56942-.32433.40672-.10135.24404-.020271.40672-.081081.24404-.020271.97614-.10135.32538-.060812 3.4978-.10135.56942-.040541 3.2538-.10135.32538-.040541 1.1388-.10135 2.2777-.48649.32538.060812 3.7419-.040541.16269-.040541 1.4642-.62838.24404.020271.56942-.10135.16269-.081081.16269-.020271.16269.020271m.16269-.020271.40672-.081082.56942-.2027.16269-.040541.32538-.14189.56942-.22298.16269-.02027.81345-.28379.81345-.12162h.40672l1.6269-.10135.7321-.081082 7.9718-.10135.56942-.060812.24404.081082.65076-.081082.48807-.12162.24404.02027.24404-.081082.8948-.16216h.16269l.24404-.081082 2.603-.081082 1.6269-.77028h.16269l.24404-.060811.24404-.081082.56942-.24325.32538-.18243.56942.10135.40672-.28379.16269.02027.32538-.081082h.24404l.24404-.040541 1.0575-.16216 10.656-.10135.48807-.040541.40672.081082.65076-.081082.40672.020271 1.1388-.18243.40672-.081082.24404-.12162.40672-.10135.65076-.081082.24404-.060812.32538-.04054.16269.04054.24404-.02027.24404.040541.81345-.30406.24404.02027.7321-.44595.32538-.02027.97614-.10135.24404-.12162.16269.02027.40672-.10135.40672-.18244.16269-.081081.48807.04054 2.1963-.46622.48807.02027 1.1388-.081082.32538-.040541 3.3351-.10135 1.0575-.16216 2.2777-.10135.56942-.060811.7321.10135.16269-.020271.16269.060812 1.4642-.28379h.32538l1.7896-.3446.56942-.10135.24404-.02027.16269.040541.40672-.22298.56942-.10135.40672-.12162.24404-.02027.81345-.26352.32538-.30406.32538-.10135 1.1388-.46622.32538-.020271 1.1388-.46622 1.1388.081082.16269.060812.24404.040541.40672-.10135 1.2202-.2027.40672.02027.65076-.060811.97614-.081082.32538-.081082h.40672l2.8471-.10135.7321-.10135h.16269l.24404-.10135.97614-.060811.24404-.14189.32538-.02027 1.9523-.38514 1.4642-.060811.24404-.081082 1.3015-.26352.32538.060811 1.6269-.50676 1.0575-.40541 1.3015-.40541.40672-.3446.7321-.26352.40672-.2027.56942.060811.24404-.14189.48807-.3446.16269.040541.65076-.081082.40672-.10135.48807-.16216.32538-.12162.32538-.081081.32538-.060812.32538-.10135.56942-.18243.48807.02027.48807-.02027 4.0672-.10135.40672-.10135 2.603-.10135.8948-.12162.48807-.081082 2.2777-.46622.24404-.10135.40672-.060812.40672-.18243.24404-.02027.81345-.14189.7321.02027.16269-.02027h.16269l.32538-.020271.24404-.02027.24404-.18244.8948-.060811.16269-.10135.16269.060811.24404-.28379 1.4642-.42568.24404-.2027.40672-.10135.97614-.40541.32538.081082.8948-.32433.81345-.081082.40672-.10135.24404-.040541.48807-.020271 3.9859-.10135.48807-.020271 3.4165-.10135.32538-.060811 1.7082-.081082.24404-.060812.97614-.10135.8948-.3446 1.1388-.10135.7321-.081082.81345-.081082.32538-.040541.40672-.10135.65076-.26352.16269.02027.48807-.28379.16269-.060812.16269-.060811.32538-.18243.081345.040541.24404-.22298.48807.040541.40672-.18243 1.0575-.10135h.32538l.16269-.040541.32538-.060812.7321-.10135.24404.020271h.40672l1.2202-.2027 13.341-.10135.56942-.16216 1.4642-.26352.97614-.081082.16269-.060811h.24404l.32538-.12162.40672-.2027 1.4642-.64866.081345.081082.24404-.16216.24404-.2027.65076 167.47.16269-167.94.40672-.18243 1.5456-.66893.32538-.02027.32538-.12162.32538-.040541.97614-.14189.24404-.040541.48807-.020271.7321-.10135h.32538l.56942.040541 1.6269-.060811.24404-.12162h.24404l.32538-.060812h.32538l.56942-.040541.32538.060812 3.5792.10135.24404-.040541 1.7896-.060811.16269-.081082 1.3015-.060811.16269-.040541.48807.02027.24404-.081082.16269-.060811 1.3829-.44595.32538-.18244.32538-.12162.32538-.10135.16269.040541.48807-.10135.81345-.26352.24404-.22298.40672-.18244.48807-.02027 1.3015-.10135.56942-.18244.32538-.081081.56942-.16216.7321-.10135h.40672l6.9143-.081081.32538-.040541.16269.060811.48807-.040541.32538-.02027.7321-.081082 1.4642-.10135.48807-.14189.16269.020271.16269-.060812 2.115-.060811.16269-.040541.81345-.10135.81345-.12162h.24404l.7321-.081082 1.0575-.40541.65076-.22298.24404-.2027.8948-.30406.16269-.10135.32538.060812.24404-.081082.16269.060811.32538-.10135 1.4642-.26352.24404-.040541.56942-.040541.65076-.16216h.16269l.16269.020271.56942.040541 2.9284-.10135.32538.020271 1.3015-.10135.48807-.040541.32538-.020271.48807-.040541.48807.020271 1.7896-.10135.40672-.10135.24404-.040541.65076-.060811.48807.02027 1.3015-.081082.16269-.10135.16269.081082.48807-.10135 1.7082-.32433.24404.040541 1.5456-.28379.081345.040541.16269-.10135h.32538l2.115-.95271.32538.040541.32538-.14189h.081345l.16269-.18243.24404-.081082.32538-.12162.24404-.16216.56942-.22298.32538.040541 8.0532-.10135.24404.02027.56942.040541.7321-.30406h.24404l.56942.040541.81345-.10135.32538-.060812.24404-.040541.56942-.060811.32538-.020271.97614-.10135.081345-.040541.32538.040541.48807-.040541.40672.10135 5.0434-1.3176.16269-.10135.24404-.020271.16269-.12162h.16269l.48807-.40541.16269.040541.32538-.16216.65076-.16216.32538-.10135 1.2202-.48649.32538-.081082.32538-.040541.8948-.10135.48807-.020271 2.8471-.10135.40672-.02027.48807.02027 3.0911-.081082.24404-.02027.65076-.10135.32538-.04054.8948-.10135 1.1388-.18243.24404-.02027.7321-.081082 1.0575-.10135.65076-.081082h.24404l.81345-.2027.8948-.16216.16269.060811.16269-.081081.40672-.060812.24404-.2027.7321-.28379.16269-.14189h.16269l.40672-.18243.24404-.12162.97614-.58784.40672-.36487.32538-.14189.32538-.26352.32538-.12162.16269-.12162.16269.040541.32538-.32433.24404-.081082 1.9523-.42568h.16269l.40673-.020271h.24404l.7321-.060811.16269-.081082 2.6844-.081082.32538-.040541h.40672l2.115-.10135.81345-.12162h.32538l3.7419-.99325.16269-.14189.40672.02027 1.3015-.52703 1.1388-.18243.32538-.10135.24404-.12162.8948-.3446h.16269l.40672-.28379.16269.040541h.16269l.24404-.14189.48807-.10135.48807-.24325.8948-.28379.16269-.10135.16269-.040541.40672-.060811.56942-.32433.7321-.14189.24404.081082.40673-.081082.40672-.10135.40672-.020271.40672.081082.56942-.040541 1.6269-.10135h.40672l1.3015-.10135.32538-.060812 1.4642-.10135.65076-.22298.32538.060811 1.3829-.26352.32538-.02027.81345-.10135.32538-.10135.97614-.16216h.24404l5.5315-1.277.48807-.10135.32538-.16216.56942-.14189 2.603-1.1757.16269-.12162.73211-.48649.16269-.060811.48807-.10135.24404-.020271.32538-.10135.97614-.14189.32538.040541.40672-.081081h.24404l.16269-.081082h.32538l.40672-.081082 1.1388-.10135.48807-.04054.48807.02027 1.3829-.060811.24404-.060812.65076-.060811.8948-.10135.32538-.04054 1.1388-.10135 2.4404-.5473.081345.060811.32538-.24325.7321-.10135.97614-.18243.56942.18243 2.4404-.060811.16269-.020271 1.0575-.36487.24404-.18243h.24404l.16269-.18244.081345.020271.16269-.22298.32538-.16216.081345.02027.16269-.12162.8948-.3446.65076-.081082h.24404l.40672-.10135.56942-.16216.24404.040541 1.9523-.10135.81345-.10135 6.6703-.10135.48807-.020271.65076-.081082.32538-.12162.48807-.10135.65076-.12162.16269.040541h.40672.40672l1.1388-.18243h.32538l.40672-.2027 2.1963-.62838.32538-.12162.24404-.10135.56942-.18243.16269-.10135.32538-.10135 1.9523-.91217.16269-.040541.16269-.10135.40672-.2027.16269.040541.24404-.10135.48807-.14189.16269.020271.32538-.14189 1.5456-.30406.16269.081081 1.3829-.10135.32538-.040541.48807.020271 4.2299-.081082.40672-.081082.24404.040541h.32538l.32538.040541 3.1725-.060812.24404-.081081.65076-.060812.16269-.02027.24404.040541.24404-.040541.7321-.081082.16269.02027.8948-.36487.40672.02027.65076-.060811.40672.081082.32538-.081082.32538-.040541.73211-.28379 1.9523-.85136.48807-.2027.24404-.081082.24404-.040541.48807-.12162.16269-.081082.24404-.040541.32538-.24325.7321-.24324 2.0336-.10135.32538-.060811.32538.02027.32538-.081082.48807.020271 1.4642.10135.65076.081082.24404-.02027h.40672l2.6844-.10135.40672-.02027.65076.060811.40672-.081082.16269-.060811.65076-.060811.32538-.081082.81345-.28379.24404-.02027 1.7082-.3446h.40672l.40672-.081082.56942-.10135.24404-.12162 1.9523-.56757.40672-.18244.7321-.26352.16269-.12162.32538-.10135.24404-.18243 1.7896-1.2162.24404-.12162.24404-.10135 3.0098-.66892.56942.060811 1.2202-.2027 2.8471.081082v0" clip-path="url(#d)" fill="none" stroke="#28f" stroke-linecap="square" stroke-width="1.5"/>
   </g>
   <g id="fl">
    <path d="m52.09 523.01v-232.88" fill="none" stroke="#000" stroke-linecap="square" stroke-width=".8"/>
   </g>
   <g id="fm">
    <path d="m853.2 523.01v-232.88" fill="none" stroke="#000" stroke-linecap="square" stroke-width=".8"/>
   </g>
   <g id="fn">
    <path d="m52.09 523.01h801.11" fill="none" stroke="#000" stroke-linecap="square" stroke-width=".8"/>
   </g>
   <g id="fo">
    <path d="m52.09 290.14h801.11" fill="none" stroke="#000" stroke-linecap="square" stroke-width=".8"/>
   </g>
   <g id="fp">
    <!-- サーバー数の推移 -->
    <g transform="translate(404.64 284.14) scale(.12 -.12)">
     <defs>
      <path id="z" transform="scale(.015625)" d="m4685 2893q0-621-84-1111-83-489-288-877-204-387-569-691t-928-560l-544 512q448 167 781 371 333 205 550 503 218 298 323 739 106 442 106 1075v1620q0 192-10 339-9 147-22 217h723q-6-70-22-217t-16-339v-1581zm-2304 2086q-7-64-23-199-16-134-16-313v-2317q0-128 6-256 7-128 13-224 7-96 13-140h-710q6 44 12 140 7 96 13 221 7 125 7 259v2317q0 122-10 256-9 135-28 256h723zm-1978-1197q45-12 144-22t237-20q138-9 285-9h4217q237 0 394 13t246 26v-679q-76 7-240 13-163 6-393 6h-4224q-147 0-282-3-134-3-234-10-99-6-150-12v697z"/>
      <path id="s" transform="scale(.015625)" d="m621 2854q109-6 265-16 157-9 339-16 183-6 349-6 128 0 352 0t509 0 598 0q314 0 624 0 311 0 586 0t486 0q212 0 327 0 230 0 416 16t301 22v-793q-109 6-308 19-198 13-409 13-109 0-324 0-214 0-489 0t-586 0q-310 0-624 0-313 0-598 0t-509 0-352 0q-262 0-525-10-262-9-428-22v793z"/>
      <path id="y" transform="scale(.015625)" d="m4941 5037q83-109 176-269t182-320q90-160 154-288l-416-179q-96 192-240 448t-272 435l416 173zm723 275q83-122 182-282 100-160 196-317 96-156 153-271l-416-186q-102 205-246 454-144 250-279 429l410 173zm-4339-3360q102 262 201 556 100 295 183 612t144 630q61 314 93 602l723-147q-19-83-45-183-26-99-48-195t-42-166q-32-154-86-394t-131-512-164-551q-86-278-182-514-115-301-269-618-153-317-326-618-173-300-346-550l-697 294q301 397 563 874t429 880zm3155 198q-96 250-215 531-118 282-243 567-124 285-246 534-122 250-224 429l659 218q96-179 221-429t253-535q128-284 249-566 122-281 218-525 90-230 195-518 106-288 211-592 106-304 195-589 90-285 154-515l-729-237q-84 352-199 736t-240 768-259 723z"/>
     </defs>
     <use xlink:href="#z"/>
     <use transform="translate(100)" xlink:href="#s"/>
     <use transform="translate(200)" xlink:href="#y"/>
     <use transform="translate(300)" xlink:href="#s"/>
     <use transform="translate(400)" xlink:href="#p"/>
     <use transform="translate(500)" xlink:href="#t"/>
     <use transform="translate(600)" xlink:href="#q"/>
     <use transform="translate(700)" xlink:href="#o"/>
    </g>
   </g>
  </g>
 </g>
 <defs>
  <clipPath id="c">
   <rect x="52.09" y="26.88" width="801.11" height="232.88"/>
  </clipPath>
  <clipPath id="d">
   <rect x="52.09" y="290.14" width="801.11" height="232.88"/>
  </clipPath>
 </defs>
</svg>
