<!DOCTYPE svg  PUBLIC '-//W3C//DTD SVG 1.1//EN'  'http://www.w3.org/Graphics/SVG/1.1/DTD/svg11.dtd'>
<svg version="1.1" viewBox="0 0 864 576" xmlns="http://www.w3.org/2000/svg" xmlns:xlink="http://www.w3.org/1999/xlink">
 <defs>
  <style type="text/css">*{stroke-linejoin: round; stroke-linecap: butt}</style>
 </defs>
 <g id="aa">
  <g id="ab">
   <path d="m0 576h864v-576h-864z" fill="#fff"/>
  </g>
  <g id="ac">
   <g id="ad">
    <path d="m52 259.78h801.2v-232.9h-801.2z" fill="#fff"/>
   </g>
   <g id="ae">
    <path d="m132.77 259.78h.79676v-232.9h-.79676z" clip-path="url(#d)" fill="#808080" opacity=".3" stroke="#808080"/>
   </g>
   <g id="af">
    <path d="m426.11 259.78h.53117v-232.9h-.53117z" clip-path="url(#d)" fill="#808080" opacity=".3" stroke="#808080"/>
   </g>
   <g id="ag">
    <path d="m742.15 259.78h1.0623v-232.9h-1.0623z" clip-path="url(#d)" fill="#808080" opacity=".3" stroke="#808080"/>
   </g>
   <g id="ah">
    <g id="ai">
     <g id="aj">
      <path d="m104.48 259.78v-232.9" clip-path="url(#d)" fill="none" stroke="#b0b0b0" stroke-linecap="square" stroke-opacity=".3" stroke-width=".8"/>
     </g>
     <g id="ak">
      <defs>
       <path id="e" d="m0 0v3.5" stroke="#000" stroke-width=".8"/>
      </defs>
      <use x="104.482107" y="259.777732" stroke="#000000" stroke-width=".8" xlink:href="#e"/>
     </g>
    </g>
    <g id="al">
     <g id="am">
      <path d="m180.97 259.78v-232.9" clip-path="url(#d)" fill="none" stroke="#b0b0b0" stroke-linecap="square" stroke-opacity=".3" stroke-width=".8"/>
     </g>
     <g id="an">
      <use x="180.970667" y="259.777732" stroke="#000000" stroke-width=".8" xlink:href="#e"/>
     </g>
    </g>
    <g id="ao">
     <g id="ap">
      <path d="m257.46 259.78v-232.9" clip-path="url(#d)" fill="none" stroke="#b0b0b0" stroke-linecap="square" stroke-opacity=".3" stroke-width=".8"/>
     </g>
     <g id="aq">
      <use x="257.459226" y="259.777732" stroke="#000000" stroke-width=".8" xlink:href="#e"/>
     </g>
    </g>
    <g id="ar">
     <g id="as">
      <path d="m333.95 259.78v-232.9" clip-path="url(#d)" fill="none" stroke="#b0b0b0" stroke-linecap="square" stroke-opacity=".3" stroke-width=".8"/>
     </g>
     <g id="at">
      <use x="333.947786" y="259.777732" stroke="#000000" stroke-width=".8" xlink:href="#e"/>
     </g>
    </g>
    <g id="au">
     <g id="av">
      <path d="m410.44 259.78v-232.9" clip-path="url(#d)" fill="none" stroke="#b0b0b0" stroke-linecap="square" stroke-opacity=".3" stroke-width=".8"/>
     </g>
     <g id="aw">
      <use x="410.436346" y="259.777732" stroke="#000000" stroke-width=".8" xlink:href="#e"/>
     </g>
    </g>
    <g id="ax">
     <g id="ay">
      <path d="m486.92 259.78v-232.9" clip-path="url(#d)" fill="none" stroke="#b0b0b0" stroke-linecap="square" stroke-opacity=".3" stroke-width=".8"/>
     </g>
     <g id="az">
      <use x="486.924905" y="259.777732" stroke="#000000" stroke-width=".8" xlink:href="#e"/>
     </g>
    </g>
    <g id="ba">
     <g id="bb">
      <path d="m563.41 259.78v-232.9" clip-path="url(#d)" fill="none" stroke="#b0b0b0" stroke-linecap="square" stroke-opacity=".3" stroke-width=".8"/>
     </g>
     <g id="bc">
      <use x="563.413465" y="259.777732" stroke="#000000" stroke-width=".8" xlink:href="#e"/>
     </g>
    </g>
    <g id="bd">
     <g id="be">
      <path d="m639.9 259.78v-232.9" clip-path="url(#d)" fill="none" stroke="#b0b0b0" stroke-linecap="square" stroke-opacity=".3" stroke-width=".8"/>
     </g>
     <g id="bf">
      <use x="639.902024" y="259.777732" stroke="#000000" stroke-width=".8" xlink:href="#e"/>
     </g>
    </g>
    <g id="bg">
     <g id="bh">
      <path d="m716.39 259.78v-232.9" clip-path="url(#d)" fill="none" stroke="#b0b0b0" stroke-linecap="square" stroke-opacity=".3" stroke-width=".8"/>
     </g>
     <g id="bi">
      <use x="716.390584" y="259.777732" stroke="#000000" stroke-width=".8" xlink:href="#e"/>
     </g>
    </g>
    <g id="bj">
     <g id="bk">
      <path d="m792.88 259.78v-232.9" clip-path="url(#d)" fill="none" stroke="#b0b0b0" stroke-linecap="square" stroke-opacity=".3" stroke-width=".8"/>
     </g>
     <g id="bl">
      <use x="792.879143" y="259.777732" stroke="#000000" stroke-width=".8" xlink:href="#e"/>
     </g>
    </g>
   </g>
   <g id="bm">
    <g id="bn">
     <g id="bo">
      <path d="m52 246.93h801.2" clip-path="url(#d)" fill="none" stroke="#b0b0b0" stroke-linecap="square" stroke-opacity=".3" stroke-width=".8"/>
     </g>
     <g id="bp">
      <defs>
       <path id="h" d="m0 0h-3.5" stroke="#000" stroke-width=".8"/>
      </defs>
      <use x="52" y="246.926099" stroke="#000000" stroke-width=".8" xlink:href="#h"/>
     </g>
     <g id="bq">
      <!-- 300 -->
      <g transform="translate(27.9 250.91) scale(.1 -.1)">
       <defs>
        <path id="o" transform="scale(.015625)" d="m1715-90q-371 0-656 90t-503 240q-217 150-377 323l359 474q211-205 479-359 269-153 634-153 269 0 467 92 199 93 311 266t112 423q0 256-125 451t-429 300q-304 106-835 106v551q467 0 732 105 266 106 384 291 119 186 119 423 0 307-192 489-192 183-531 183-269 0-503-119-233-118-438-316l-384 460q282 256 614 413 333 157 737 157 422 0 748-144 327-144 512-413 186-269 186-659 0-403-221-685-221-281-592-422v-26q269-70 490-227t349-400 128-557q0-422-215-726-214-304-573-468-358-163-787-163z"/>
        <path id="a" transform="scale(.015625)" d="m1830-90q-460 0-806 275-346 276-535 823-188 547-188 1366 0 820 188 1357 189 538 535 803 346 266 806 266 461 0 800-269 340-269 528-803 189-534 189-1354 0-819-189-1366-188-547-528-823-339-275-800-275zm0 589q237 0 422 185 186 186 288 599 103 413 103 1091 0 679-103 1082-102 403-288 582-185 180-422 180-236 0-422-180-186-179-292-582-105-403-105-1082 0-678 105-1091 106-413 292-599 186-185 422-185z"/>
       </defs>
       <use xlink:href="#o"/>
       <use transform="translate(57)" xlink:href="#a"/>
       <use transform="translate(114)" xlink:href="#a"/>
      </g>
     </g>
    </g>
    <g id="br">
     <g id="bs">
      <path d="m52 220.79h801.2" clip-path="url(#d)" fill="none" stroke="#b0b0b0" stroke-linecap="square" stroke-opacity=".3" stroke-width=".8"/>
     </g>
     <g id="bt">
      <use x="52" y="220.787184" stroke="#000000" stroke-width=".8" xlink:href="#h"/>
     </g>
     <g id="bu">
      <!-- 600 -->
      <g transform="translate(27.9 224.77) scale(.1 -.1)">
       <defs>
        <path id="k" transform="scale(.015625)" d="m1971-90q-339 0-634 144-294 144-518 435-224 292-352 733-128 442-128 1044 0 678 147 1161 148 483 397 784 250 301 570 445t665 144q397 0 688-147 292-147 490-359l-403-448q-128 154-327 253-198 99-409 99-307 0-567-182-259-182-413-605-153-422-153-1145 0-608 115-1002t326-589q212-195 493-195 212 0 375 121 163 122 259 343t96 522q0 300-90 511-89 212-259 320-169 109-419 109-211 0-451-134t-458-461l-25 538q134 192 313 323t374 201q196 71 375 71 397 0 694-163 298-163 467-490 170-326 170-825 0-468-195-817-195-348-512-544-317-195-701-195z"/>
       </defs>
       <use xlink:href="#k"/>
       <use transform="translate(57)" xlink:href="#a"/>
       <use transform="translate(114)" xlink:href="#a"/>
      </g>
     </g>
    </g>
    <g id="bv">
     <g id="bw">
      <path d="m52 194.65h801.2" clip-path="url(#d)" fill="none" stroke="#b0b0b0" stroke-linecap="square" stroke-opacity=".3" stroke-width=".8"/>
     </g>
     <g id="bx">
      <use x="52" y="194.648269" stroke="#000000" stroke-width=".8" xlink:href="#h"/>
     </g>
     <g id="by">
      <!-- 900 -->
      <g transform="translate(27.9 198.63) scale(.1 -.1)">
       <defs>
        <path id="m" transform="scale(.015625)" d="m1562-90q-410 0-708 150-297 151-502 356l403 461q141-160 346-256t422-96q224 0 425 102 202 103 352 333 151 230 237 614 87 384 87 941 0 589-115 970t-323 563-496 182q-205 0-372-118-166-118-262-336t-96-525q0-301 86-512 87-211 259-323 173-112 417-112 224 0 460 141 237 141 448 461l32-544q-134-180-313-314t-371-208-384-74q-391 0-689 166-297 167-467 496-169 330-169 823 0 467 195 816t515 541 698 192q339 0 636-138 298-137 519-419 221-281 349-710t128-1018q0-691-141-1187t-391-807q-249-310-563-461-313-150-652-150z"/>
       </defs>
       <use xlink:href="#m"/>
       <use transform="translate(57)" xlink:href="#a"/>
       <use transform="translate(114)" xlink:href="#a"/>
      </g>
     </g>
    </g>
    <g id="bz">
     <g id="ca">
      <path d="m52 168.51h801.2" clip-path="url(#d)" fill="none" stroke="#b0b0b0" stroke-linecap="square" stroke-opacity=".3" stroke-width=".8"/>
     </g>
     <g id="cb">
      <use x="52" y="168.509354" stroke="#000000" stroke-width=".8" xlink:href="#h"/>
     </g>
     <g id="cc">
      <!-- 1200 -->
      <g transform="translate(22.2 172.49) scale(.1 -.1)">
       <defs>
        <path id="f" transform="scale(.015625)" d="m544 0v608h1037v3277h-845v467q333 58 579 147 247 90 451 218h557v-4109h915v-608h-2694z"/>
        <path id="b" transform="scale(.015625)" d="m282 0v429q697 621 1164 1136 468 515 701 956 234 442 234 826 0 256-87 451-86 196-262 301-176 106-445 106-275 0-506-151-230-150-422-368l-416 410q301 333 637 518 336 186 803 186 429 0 749-176t496-493 176-745q0-455-224-919t-615-935q-390-470-889-950 186 20 394 36t374 16h1184v-634h-3046z"/>
       </defs>
       <use xlink:href="#f"/>
       <use transform="translate(57)" xlink:href="#b"/>
       <use transform="translate(114)" xlink:href="#a"/>
       <use transform="translate(171)" xlink:href="#a"/>
      </g>
     </g>
    </g>
    <g id="cd">
     <g id="ce">
      <path d="m52 142.37h801.2" clip-path="url(#d)" fill="none" stroke="#b0b0b0" stroke-linecap="square" stroke-opacity=".3" stroke-width=".8"/>
     </g>
     <g id="cf">
      <use x="52" y="142.370439" stroke="#000000" stroke-width=".8" xlink:href="#h"/>
     </g>
     <g id="cg">
      <!-- 1500 -->
      <g transform="translate(22.2 146.36) scale(.1 -.1)">
       <defs>
        <path id="j" transform="scale(.015625)" d="m1715-90q-365 0-653 90t-506 237q-217 147-383 307l352 480q134-134 294-246t361-183q202-70 452-70 262 0 473 118 212 119 333 346 122 227 122 541 0 460-247 716-246 256-649 256-224 0-384-64t-365-198l-365 237 141 2240h2387v-627h-1747l-109-1204q154 77 307 118 154 42 340 42 397 0 723-160t518-490q192-329 192-847 0-519-224-887t-586-560q-361-192-777-192z"/>
       </defs>
       <use xlink:href="#f"/>
       <use transform="translate(57)" xlink:href="#j"/>
       <use transform="translate(114)" xlink:href="#a"/>
       <use transform="translate(171)" xlink:href="#a"/>
      </g>
     </g>
    </g>
    <g id="ch">
     <g id="ci">
      <path d="m52 116.23h801.2" clip-path="url(#d)" fill="none" stroke="#b0b0b0" stroke-linecap="square" stroke-opacity=".3" stroke-width=".8"/>
     </g>
     <g id="cj">
      <use x="52" y="116.231524" stroke="#000000" stroke-width=".8" xlink:href="#h"/>
     </g>
     <g id="ck">
      <!-- 1800 -->
      <g transform="translate(22.2 120.22) scale(.1 -.1)">
       <defs>
        <path id="l" transform="scale(.015625)" d="m1830-90q-441 0-787 163-345 164-547 448-202 285-202 650 0 314 122 557t314 419 403 291v32q-256 186-442 458-185 272-185 643 0 365 176 640t480 425q304 151 694 151 410 0 704-160t457-439q164-278 164-649 0-237-96-448t-234-381q-137-169-291-278v-32q218-115 397-285 179-169 288-406t109-557q0-346-189-628-189-281-532-448-342-166-803-166zm314 2708q205 198 310 419 106 221 106 464 0 211-83 384t-247 272q-163 99-393 99-288 0-480-183-192-182-192-502 0-256 134-429 135-172 359-294t486-230zm-294-2170q236 0 418 89 183 90 285 253 103 164 103 388 0 211-90 367-89 157-246 272-157 116-368 215t-454 195q-244-173-398-426-153-252-153-553 0-237 118-416 119-179 324-282 205-102 461-102z"/>
       </defs>
       <use xlink:href="#f"/>
       <use transform="translate(57)" xlink:href="#l"/>
       <use transform="translate(114)" xlink:href="#a"/>
       <use transform="translate(171)" xlink:href="#a"/>
      </g>
     </g>
    </g>
    <g id="cl">
     <g id="cm">
      <path d="m52 90.093h801.2" clip-path="url(#d)" fill="none" stroke="#b0b0b0" stroke-linecap="square" stroke-opacity=".3" stroke-width=".8"/>
     </g>
     <g id="cn">
      <use x="52" y="90.092609" stroke="#000000" stroke-width=".8" xlink:href="#h"/>
     </g>
     <g id="co">
      <!-- 2100 -->
      <g transform="translate(22.2 94.078) scale(.1 -.1)">
       <use xlink:href="#b"/>
       <use transform="translate(57)" xlink:href="#f"/>
       <use transform="translate(114)" xlink:href="#a"/>
       <use transform="translate(171)" xlink:href="#a"/>
      </g>
     </g>
    </g>
    <g id="cp">
     <g id="cq">
      <path d="m52 63.954h801.2" clip-path="url(#d)" fill="none" stroke="#b0b0b0" stroke-linecap="square" stroke-opacity=".3" stroke-width=".8"/>
     </g>
     <g id="cr">
      <use x="52" y="63.953694" stroke="#000000" stroke-width=".8" xlink:href="#h"/>
     </g>
     <g id="cs">
      <!-- 2400 -->
      <g transform="translate(22.2 67.939) scale(.1 -.1)">
       <defs>
        <path id="n" transform="scale(.015625)" d="m2170 0v3072q0 192 12 457 13 266 20 458h-26q-90-179-183-365-92-185-195-364l-921-1415h2579v-576h-3328v493l1875 2957h858v-4717h-691z"/>
       </defs>
       <use xlink:href="#b"/>
       <use transform="translate(57)" xlink:href="#n"/>
       <use transform="translate(114)" xlink:href="#a"/>
       <use transform="translate(171)" xlink:href="#a"/>
      </g>
     </g>
    </g>
    <g id="ct">
     <g id="cu">
      <path d="m52 37.815h801.2" clip-path="url(#d)" fill="none" stroke="#b0b0b0" stroke-linecap="square" stroke-opacity=".3" stroke-width=".8"/>
     </g>
     <g id="cv">
      <use x="52" y="37.814779" stroke="#000000" stroke-width=".8" xlink:href="#h"/>
     </g>
     <g id="cw">
      <!-- 2700 -->
      <g transform="translate(22.2 41.8) scale(.1 -.1)">
       <defs>
        <path id="i" transform="scale(.015625)" d="m1235 0q32 646 109 1187t224 1024 384 941 576 938h-2208v627h3027v-455q-409-512-665-989-256-476-397-969t-205-1053-90-1251h-755z"/>
       </defs>
       <use xlink:href="#b"/>
       <use transform="translate(57)" xlink:href="#i"/>
       <use transform="translate(114)" xlink:href="#a"/>
       <use transform="translate(171)" xlink:href="#a"/>
      </g>
     </g>
    </g>
   </g>
   <g id="cx">
    <path d="m88.418 222.44.075692.17426.066839-.34852.27621.34852.14076-.08713.3758-.8713.7972-3.2238.81048-5.1407.39661-1.3069.39926-.17426.37536-1.6555.39838-1.2198.39838-2.0911.39838-2.7882.39838-.60991 1.1951-8.8872 1.5935-10.281.39838-1.3941.39838-.78417.39838-2.004.39838-5.3149 1.5935-35.375.79676-21.173 1.5935-48.793.39838-5.3149.39838-2.3525.39838-.78417.39838 2.6139.39838 1.5683 1.9919 43.565.79676 21.608.79676 19.778 1.1951 23.874 1.1951 17.339 1.1951 14.464.39838 2.701.39838 3.9208.39838 2.7882.39838 3.6594.39838 1.9169.39838 3.2238 1.1951 6.5347.39838 2.4396.39838 1.5683.39838 3.4852.39838 1.1327.39838 1.7426.79676 1.6555.39838 1.1327.39838.26139.39838 1.3069.39838.52278.79676.26139.79676-.43565 1.1951-2.8753.39838-.26139.39838-.95843.39838-.43565.79676-3.3981.79676-3.9208.39838.26139.39838-.17426.39838-2.7882.39838-1.5683.39838-.78417.79676-2.7882.39838-3.1367.39838-1.7426.39838-.60991 1.1951-4.2694.39838-3.9208.39838-2.4396.39838-3.6594.79676-5.2278.39838-2.6139.39838-1.3941m.79676 19.517.39838-12.285.39838-2.3525.39838-1.3941 1.1951-13.418.39838-6.012.79676-18.21.79676-22.654.39838-16.293 1.1951-31.105.79676-14.725.39838-3.7466.39838.43565.39838-1.2198.39838 1.7426.79676 8.8001.79676 21.173.39838 6.9704 1.1951 28.404.79676 14.725.79676 16.555.79676 12.111.79676 10.891 1.9919 21.608 2.3903 12.808.79676 5.7506.79676 3.1367.39838.43565.39838.8713.39838 1.3069.39838.60991 1.1951 4.5307.39838-.43565.39838.34852h.39838l.39838.52278.39838-1.3069.39838.17426.39838-.34852.39838-.52278.39838-.26139.39838-.60991.39838.08713.39838-.52278.39838-2.0911.39838-1.4812.39838-.8713 1.5935-6.2733.39838-1.0456.39838-2.2654.39838-1.2198.39838-2.701.39838-1.0456.39838-3.2238.39838-1.6555.39838-3.3109.39838-.95843.79676-2.701.39838-2.2654.39838-1.3941.79676-6.012.39838-1.8297.39838-.43565.39838-3.1367.39838-1.1327.39838-2.3525 1.1951-4.5307 1.1951-18.733 1.1951-27.62.39838-13.766 1.5935-36.856.79676-12.111.79676-4.4436.39838 1.0456.39838 3.7466.79676 17.6 1.1951 28.23.79676 19.43 1.1951 21.521.79676 11.763 1.5935 23.961 1.1951 13.418 1.5935 12.547 2.7886 14.115.39838 1.1327.39838.69704.39838 1.1327.39838.60991h.39838l.53117.26139.53117.8713.13279-.08713.26558-.52278.53117.52278.13279.08713.26558-.60991.13279-.52278.13279.17426.26558-.95843h.13279l.13279.17426.13279-.17426.13279.087129.13279-.43565.13279.34852.39838-1.2198.13279.17426.13279-.08713.13279-.43565.13279.08713.26559-.78417.13279-.17426.26558-.8713.13279-.08713.26558-.52278.13279-.08713.26558-1.3941.13279.08713.26558-.43565.13279.08713.53117-1.2198.39838-2.701h.13279l.53117-2.3525.39838-1.5683h.13279l1.0623-4.3565.13279-1.0456.13279-.087129.92955-5.5763.39838-1.2198.26558-.69704.13279.17426.26558-2.0911.13279-.34852.26558-1.3941.13279-.34852.39838-3.0495.39838-.8713.26559-1.7426.13279-.087129.13279.17426.13279-.08713.39838-1.9169.26559-.95843.13279-1.6555.13279.26139 1.1951-7.406h.13279l.13279-.17426.26558-1.2198.13279.69704.13279-1.0456.13279.26139 1.1951-10.281.92955-17.774 1.8591-52.888.13279-1.7426.92955-23.874.39838-4.1822.13279-3.2238.13279-.52278.13279.43565.53117-2.8753.13279-.34852.13279-1.0456.13279-.087129.26558.8713 1.1951 22.915.26558 4.7921.13279.78417.53117 12.547.39838 9.5843 1.0623 20.737.13279 1.8297.53117 11.327 1.8591 31.192.39838 3.5723 1.8591 17.426 1.4607 8.8872.26559 1.2198.39838 3.0495.26559 1.9169.26558 2.1782.39838 2.1782.26558 1.2198.13279 1.6555.26558.43565.53117 2.9624.26558.69704.13279.17426.13279.60991.13279-.26139 1.0623 3.8337.39838.52278.13279-.08713.13279.43565.26558.08713.13279.26139.26558-.17426.13279.43565.13279-.34852.39838.34852.26558-.60991.13279-.43565.26559.17426.26558-.43565.53117-1.5683.26558-.69704.26558.26139.26558-.26139.53117-.95843.26558.43565.26558-1.2198.53117-3.2238.26558-1.3941.26559-.26139.26558-.95843.53117-.34852.53117-2.0911.26558-.08713.53117-3.3109.26558-.26139.26558-.78417h.26559l.26558-1.1327.26558-2.1782.79676-3.2238.53117-2.9624.26558-2.2654.26558-.52278.53117-2.0911.53117-3.7466.26558.087129.53117-1.4812.53117-4.008.79676-5.8377.26559-1.1327.26558-1.7426h.26558l.53117-3.1367.26558-.69704 1.3279-5.7506.79676-11.24.79676-17.426 2.1247-66.219.53117-11.763.53117-9.9328.53117-7.7545.79676-5.5763h.26558l.26558 1.1327.26559 1.7426.79676 7.406.79676 16.206.26559-3.1367.53117 14.376.53117 10.63 1.5935 34.068 1.3279 28.143 1.8591 30.408.79676 7.5803.79676 6.0991.26559 2.8753.53117 2.9624.26558 2.5268.26559 1.1327.53117 3.8337.26559.8713.26558-.17426.26558.087129.26558.43565.79676 2.9624.26558-1.1327.26559-.43565.26558.60991.26558-.26139.26559.69704.26558-.34852.53117.26139.53117-2.2654.53117.087129.26558-1.5683.26558-.8713.26558-1.3941.26559.34852.26558-1.3069.26558-.60991 1.5935-6.5347.53117-3.6594.53117-2.1782.53117-5.0535.53117-6.012.26558-.8713 1.3279-11.153.26558-1.3941.53117-3.5723.26558-.43565.26558-2.4396.53117-2.4396.26558-1.7426.26558-.60991.26558.34852.26559-.69704.26558-1.6555.26558-.78417.53117-2.1782.26558-.34852.26558.26139.26559-.26139.26558.69704.26558 2.2654.26558-.08713.26559.17426.26558-.34852.26558-.60991.26559.69704.26558-.08713.26558-.26139.26558-1.3941h.53117l.26558-2.8753 1.0623-17.339.79676-20.737.26558-12.198 1.0623-25.703.79676-20.388.53117-9.9328.26558-7.1446.26559-3.3109.26558-.60991.53117-4.0951.26559-.34852.26558.52278.26558 1.4812.26558.52278.26559 3.5723.53117 2.9624.53117 7.0575.53117 12.634.53117 7.0575.53117 11.065.53117 15.248 2.9214 59.248.53117 9.2358 1.3279 19.43.26558 3.0495.79676 5.5763 1.0623 9.41.26558 1.5683.26559 3.0495 1.0623 4.8793.53117 1.6555.26559 2.004.26558-.087129.26558.52278.53117 1.3941.26558.26139.26558.52278.53117-.34852.53117-1.0456.26559-1.3069.53117.087129.26559-1.1327.26558-1.6555.53117-1.1327.26559.17426.26558-2.004.26558-1.0456.26558-1.9169.26559-.34852.26558-2.6139.26558-1.0456.26559-.34852.79676-3.0495.26559-3.3109.53117-9.1486.26559-2.4396 1.0623-13.941.79676-5.9248.79676-2.6139.26559-1.3941.26558-3.0495.79676-5.1407.53117-3.7466.26559-.43565.26558-1.2198h.26558l.26558-1.2198.26559.78417.26558-1.7426.26558.34852.26558.78417.26559 1.2198.79676 1.7426.26558-.26139.26558 2.6139.79676 2.6139.26558.17426.26558 1.1327.26559-.43565.26558-1.2198 1.0623-14.464.79676-18.994.53117-13.069 1.5935-33.893 1.0623-10.368.26559 1.9169.26558.78417.26558.26139.26558 1.1327.53117 5.402.79676 20.388.26558 4.3565 1.0623 26.139.26558 2.9624.26559 6.7961.26558 3.6594.79676 18.036 1.0623 18.297.53117 9.0615.26559 3.5723.26558 1.2198.79676 10.456 1.0623 7.5803.26558 1.4812 1.0623 9.8457.26559 1.3941.53117 1.4812.26558 2.6139.26559 1.2198.53117 3.1367 2.1247 7.5803.26559-.17426.26558.69704.26558.26139.26559.52278.26558.08713.26558-.08713.26558-.43565.26559-.08713.26558.43565.26558-.60991.26559-.08713.26558-.26139.26558.17426.26558.43565h.26559l.53117-.8713.26558.43565.26559-.78417.26558-.08713.26558-1.0456.26559.17426.26558-.08713.26558-1.5683.26558-.69704.26559-1.3941.53117-1.0456.53117-1.6555.53117-4.2694.26559-.34852.79676-3.6594.26559-.52278.79676-3.1367.26558-.78417.26558-.087129.53117-2.2654.26558-.52278.26558-1.2198.26558-1.8297.53117-1.9169.26558-2.8753.79676-2.6139.26558-.34852.26559-1.0456.26558-.08713 1.8591-11.065.26558-.78417.26558-.17426.79676-4.9664.53117-6.3605.26558-4.008.79676-15.248.53117-10.107 1.5935-42.258.53117-9.9328.26558-7.406.53117-6.2733.53117-5.6634.79676-2.4396.26558 1.3941.26558 2.004.53117 8.2773.53117 12.982.79676 16.468.79676 21.608 1.3279 25.442.53117 7.5803.53117 8.4516 2.1247 24.832.79676 5.4892 1.0623 6.709.53117 2.701.26559.69704 2.6559 12.721h.26559l.26558.43565.26558 1.4812.26559-.26139.26558.95843.26558.08713.26558 1.3941.53117.34852.53117.52278.26559.17426.79676-.52278.26558-.78417.26558-.26139.26558-.69704.53117.34852.26558-.17426.26559.26139.53117.08713.26558-.08713.26559.60991.26558-.34852.79676-3.8337.53117-1.2198.53117-1.6555.26558-1.2198.26558-.43565.79676-2.7882.26558-2.6139.79676-3.8337.26559-1.3941.53117-1.6555.79676-4.0951.26558-1.5683.26559-.26139h.26558l.26558-.69704.26558-1.2198.26559-1.8297.26558-.95843.53117-2.7882.26559-2.004.26558-.69704.53117-2.701.26558.17426.53117-3.3981.26559-1.4812.53117-4.008h.26558l.53117-2.6139.26558-2.0911.26559-.60991.26558-2.0911.53117-11.763.53117-10.368.26558-6.2733 1.3279-42.345.53117-11.588.26558-8.6258.53117-6.6219.53117-5.8377.26558-2.7882.26558-.17426.53117-1.3069.26558 1.2198.26558 2.5268.79676 13.854.26558 3.5723 2.3903 52.539 1.3279 26.139 1.5935 21.173.53117 6.7961.26559 1.8297.79676 7.0575.26558 1.3941 1.0623 8.3645.26558 1.1327.79676 5.2278 1.0623 3.6594.26558 1.7426.79676 2.3525.53117.95843 1.0623 3.8337.26558.34852.26558.69704.26559-.26139.26558.17426.79676-1.0456m.53117 2.4396.26559 1.3941.26558-.08713.26558.26139.53117-1.5683.26558-.08713.26558-.52278.26559.17426.26558-.8713.26558.087129.53117-2.5268.26558-.78417h.26558l.26558-.8713.26559-2.0911.26558-.26139.26558-.95843.26559-1.4812.26558-.34852 1.0623-4.8793.53117-2.9624.26558-1.0456.26558.17426.26558-1.1327.26559-2.6139.79676-4.4436.53117-4.008.26558-2.1782.53117-2.2654.53117-2.5268.26559-.34852.26558-.69704.26558-1.1327.26559.087129.53117-2.7882.26558.08713.53117-5.3149.53117-4.0951.53117.17426.26558-2.4396.26559-1.3069.26558-3.3981.26558-1.6555.26558-2.5268 1.3279-22.305.26558-5.7506.79676-23.961 1.5935-42.084 1.0623-15.858.26558-.52278.53117.78417.26559 1.8297.53117 5.8377.53117 12.547 1.0623 23.612.79676 21.957.26558 5.3149.26558 2.9624 2.6559 47.311 1.0623 9.2358 2.3903 18.907.26558.69704.79676 4.8793.26558.60991 1.0623 6.3605.79676 2.8753 1.3279 3.3109.79676 3.3981.53117.60991.26558-.43565.26558-.78417.26559-.34852.26558.52278.26558-.8713.26558.087129.26559.69704.26558-.52278.26558.43565.79676-1.4812.79676-2.5268.26558-.52278.53117-2.1782.26558-.69704.53117-2.7882.26558.26139.26558-1.5683.26558-.52278.79676-3.1367.26558-.52278.53117-2.004.26558-2.0911.26559-.43565 1.0623-5.1407.26558-.78417.26558-1.3941.26559-.78417.53117-2.7882.53117-2.004.53117-2.3525.53117-2.0911.26558-2.4396.26558-.34852.26559-1.2198.26558-2.701.79676-3.6594.26558-.43565.26558-.17426.26559-1.1327.53117-6.2733.79676-8.5387.79676-16.99 1.5935-33.196.79676-20.04.26558-5.1407.79676-22.305.53117-9.9328.26558-2.7882.26558-.34852.26559-5.1407.26558-2.1782.26558-.08713.53117 2.3525.26558 5.0535.53117 15.248.53117 11.414 1.5935 41.561.53117 11.588 1.0623 19.691 1.3279 21.521 2.1247 22.915.53117 3.2238.53117 3.5723.53117 3.4852 2.1247 12.198.26558-.08713.53117 2.4396.53117 1.4812.26559.34852.26558 1.0456.26558-.17426 1.3279 2.7882.26558-.17426.26558.52278.79676-.17426.53117-.78417.53117-.34852.26558-1.2198.26559-.17426h.26558l.26558-.43565.26558.52278.26559.08713.26558-.52278.53117-2.4396.53117-2.7882 1.8591-7.4932h.26558l.53117-1.7426.26558-1.6555.26558-.43565.53117-3.8337.26558.087129.26558-.69704.26559-.34852.26558-1.3069.26558-.08713 1.0623-8.4516.53117-2.3525.26558-.43565.53117-2.4396.26558-.34852.26558-.95843.26559-2.7882 1.0623-5.3149.26558-1.3069.26558-.08713.26559-.26139.53117-2.7882.26558-2.004 1.0623-13.244 1.3279-27.62.53117-17.426 2.1247-58.028.26558-5.3149.53117-5.4892.26559-3.8337.26558-.69704.26558-2.7882.26559 2.5268.26558-.17426.79676 9.4971.26558 1.6555.79676 15.161.53117 10.543 2.3903 56.286 1.0623 19.604.53117 7.1446.53117 8.4516.79676 10.891.26558 2.7882.26558 4.0951 1.0623 8.9744.26558 1.4812.26558 3.7466.26558.60991.26559 2.4396.26558 1.3069.26558 2.0911.26558.78417.26559 2.0911.26558.69704.79676 3.3981.53117.78417.26559-.087129.53117.087129.26558-.26139.26559.17426.26558-.17426.26558-.43565.53117-1.3941.26558-.26139 1.0623-3.7466.26559-.087129.53117-2.7882.53117-3.6594.26558-1.2198.26558.43565.26558-.17426.79676-3.9208.26559.26139.26558-1.6555.26558-.34852.26558-1.2198.53117-8.9744 1.0623-9.8457.26558-1.3069.26559-2.5268.26558-3.7466.53117-2.7882.53117-4.1822.53117-3.8337.26558-3.1367.53117-2.0911.26559-.52278.26558-.8713.26558-.43565h.26558l.26559-.26139.26558.69704.26558.26139.26559.52278.53117-.08713.26558.08713.26559 1.3941.26558 2.1782.26558-.78417.26559 1.1327.26558 2.0911.26558-2.5268.26558.17426.26559-.52278.26558-1.7426.26558-3.3109.53117-2.3525.26558-2.9624.26558-6.4476.26559-2.7882 1.0623-24.745.26558-10.978 1.0623-24.222.79676-23.089 1.0623-23.002.79676-6.9704.26558-.43565.26558-.78417 1.0623 9.1486.79676 12.808.79676 17.165.26558 4.008.26559 7.5803.26558 3.4852 1.3279 31.367.79676 15.073 2.1247 40.69.79676 10.63 1.8591 17.949 1.0623 6.3605.26559 2.2654.26558 1.1327.79676 5.2278.26558.34852.26558.78417.26558 1.4812.26559.17426.26558-.17426.26558.08713.26559-.26139.26558.26139.53117-.95843.26559-.52278 1.0623-3.7466.26558-.60991.53117-2.3525.53117-2.1782.53117-2.6139.26558-.34852.26558.26139.26559-2.3525.26558-.08713.26558-1.4812.53117-5.6634.26558-.17426.79676-7.3189.53117-2.5268.26559-1.7426.79676-8.3645.26559-4.0951.26558-1.1327.53117-4.4436.26559-.60991.53117-5.2278.53117-2.9624.26558-1.3941.53117-3.7466.26558-.43565.26558.43565.53117-2.1782.26558-.08713.79676-1.7426.26558-1.1327.26558.8713.53117 3.1367.26558 2.4396.26559-.17426h.26558l.53117 4.008.26559-2.6139.26558.26139 1.3279-15.161.26559-3.7466.53117-10.891.79676-24.571 1.3279-29.624.79676-11.85.53117-3.3109.26558.60991.26558.087129.26559-.95843.26558-.17426.26558 3.2238.26558 4.8793.26559 9.3229.53117 11.588 1.8591 45.307.53117 10.02.79676 17.165 1.5935 26.662 1.0623 12.198 1.0623 9.8457 1.0623 6.012 1.0623 5.7506.53117 3.3981.79676 4.2694.79676 4.008.26558 1.9169.26558.95843.26559.43565.26558 1.3941.53117 1.1327.26558.17426 1.3279 3.1367.26558-.26139.26559-.08713.26558-.34852.26558.26139.79676-.17426.53117-1.1327.53117-.69704.79676-.17426.26558-.52278.26559-.78417.26558-.34852.53117-2.6139.26559.087129.26558-.43565.26558-.8713.79676-4.4436.26558-1.3941 1.0623-2.9624.53117-3.4852.26558-1.5683.26559-.08713.53117-2.9624.26558-.52278.26559-2.4396.53117-2.4396 1.0623-4.7921.26559-.34852.26558-2.701.26558-.78417.26558-.26139.53117-5.2278.26558-.8713.26559-1.5683.53117-1.3069.26558-1.4812.26559-2.5268.53117-2.8753.26558-.43565.79676-7.8417 2.3903-54.456 1.3279-33.196 1.0623-13.854.53117-2.701.26558.78417.26558.43565.79676 10.456 2.3903 55.589 2.9214 49.315.26558 2.004 1.5935 17.252.53117 3.8337.79676 4.0951.79676 5.9248.26558.69704.53117 2.5268 1.0623 4.4436.26558 1.6555.79676 2.5268.26558.26139.53117 1.7426.26558.08713.53117 1.7426.26558.34852.79676 2.4396.53117.08713.53117-.78417.26558.17426.26558-.34852.26559-.78417.26558-.26139.26558-.52278.26558-.95843.26559.34852.53117-.60991.26559-1.8297.26558.17426.26558-.8713.26558.087129.26559-1.5683.26558-.69704.26558-.34852.26558-1.3069.26559-.52278.53117-2.5268.26559-2.3525.79676-2.8753.26559-1.9169.26558-.69704.79676-4.3565.53117-1.8297.26559-.60991.26558-1.7426.26558.17426.26558-1.2198.26559-.69704h.26558l1.0623-7.2318.26558-.52278.26559-1.7426.79676-2.5268.26559-1.0456h.26558l.79676-6.012.26558-.34852 1.3279-8.1902 1.0623-12.285.79676-16.555.79676-22.131.79676-21.957.26558-3.3109.79676-18.21.26558-3.2238.26559-5.5763.26558-2.004.26558-3.3109.26559-.26139.26558-1.2198.26558-.34852.79676 7.5803.53117 12.808 1.0623 18.994 1.0623 23.264.26558 5.1407.53117 12.982.53117 10.107.79676 11.501.53117 11.24.79676 10.02 1.0623 9.4971 1.3279 12.111.26558.8713 1.0623 5.6634.53117 2.8753.26558 1.1327.53117 1.1327.53117 2.004.26558.69704.26559 1.9169.26558.69704.26558-.43565.53117.95843.26558.17426.26558.8713.26559 1.6555.26558-.17426.26558.26139.53117.69704.26558.17426h.26558l.53117.34852.53117-1.3941.26559.95843.26558-.17426.53117-1.2198.26559-.087129.53117-.8713.26559.69704.79676-1.3941.26559-2.004.26558-.8713.53117-.8713 2.1247-9.9328.26558-.95843.79676-5.5763.26558-.69704 1.0623-6.7961.26558-1.1327.26559-.43565.26558-.95843.53117-3.0495.53117-5.1407.26558-.69704 1.0623-7.0575.26558-2.9624.26558-.69704.53117-2.701.26558 1.2198.26558-.95843.26558-.26139.26559-.78417.26558.08713.26558-.52278.26559-1.3941.53117-9.5843 1.0623-17.774.53117-16.032.26558-10.281.26558-5.402 1.0623-29.363.79676-15.77.53117-6.709h.26558l.26558-.17426.26559-1.6555.53117 2.4396.26558 1.7426.26559 3.5723.79676 19.169 1.0623 25.268.79676 20.04 1.8591 33.806.26559 3.0495.26558 6.0991 1.5935 19.43 1.3279 9.5843 1.3279 8.4516 1.5935 8.4516.26558.60991.26559 1.9169 1.3279 4.4436.26558 1.6555 1.0623 3.1367.26559 1.2198.26558-.26139.26558.34852.26559-.087129.26558-.26139.26558-.8713.26558 1.0456.26559-.78417.53117-.52278.26558-.95843.26559-.17426h.26558l.26558-.26139.26559-.78417.26558-2.004.26558-.34852h.26558l.26559-.26139.26558-1.0456.26558-1.6555.26558-.43565.26559-1.0456h.26558l.26558-.8713.79676 3.8337.26558-.34852.26559 1.3069.26558-.17426.26558-2.2654.26559.8713.53117-.95843.53117.43565.26558-1.9169.26558.34852.26558.8713.26559.17426.26558-.08713.26558-1.0456.26559.17426m1.0623-2.7882.26558-1.6555.26558-3.3109.26558-1.7426 1.8591-17.862 1.0623-5.1407 1.0623-12.372 1.3279-25.616 1.3279-41.299 1.0623-29.798.53117-9.6714.53117-7.3189.26558-1.5683.26558 1.1327h.26558l.26559.43565.53117 2.7882.53117 12.895.26558 6.5347.26558 1.9169.26559 7.5803.26558 2.6139.26558 5.0535.79676 19.517 2.3903 45.22 1.8591 24.832 2.1247 19.081.26558.60991 1.3279 7.9288 1.3279 5.402.26558.52278.53117 2.7882.53117 2.5268.79676 1.6555.53117 1.4812.53117.08713.26558-.34852.26559.52278.26558-1.0456.26558-.08713.26558.17426.26559-.087129.26558-.95843.26558.34852.53117-1.3941.26558-.60991.26558-1.0456.79676-1.7426.53117-2.004.26558-1.3941.26558-2.0911.26559-.17426.53117-1.6555.53117-2.701.26558.087129.53117-2.701.79676-1.7426.79676-4.705.53117-1.4812.53117-2.7882 1.3279-7.7545.53117-1.2198.26558-.087129.26559-1.8297.26558-.08713.26558-2.2654.26559-.08713 1.3279-5.6634.26558-1.2198h.26558l.26559-.60991.26558-1.3941.26558-3.0495.79676-3.1367.26558-4.5307.26559-2.3525 1.5935-35.2 1.0623-30.67.26559-5.2278 1.0623-32.412 1.0623-14.202.53117-1.7426.26559-.69704.26558-.34852.26558-1.0456.53117 5.3149.26558.34852.26558 4.6179.79676 25.79.79676 14.551 3.187 56.024 1.0623 15.335.26558 3.3981.53117 8.3645 2.1247 20.388.79676 4.008.26559.52278.26558 1.1327.26558.08713.79676 2.9624.26558.95843.26559.52278.79676 3.6594.53117-1.0456.53117.17426.26558-.60991h.53117l.26559-.95843h.26558l.26558.26139.26558-.52278.26559-1.3941.53117-1.4812 1.3279-5.0535.26558-.34852.53117-2.0911.26559-.52278.26558-2.0911.26558-.52278.26559-1.4812.79676-6.5347 1.0623-9.1486.53117-4.1822.26558-1.0456.26559-2.701.26558-.52278.26558-2.004v0" clip-path="url(#d)" fill="none" stroke="#28f" stroke-linecap="square" stroke-width="1.5"/>
   </g>
   <g id="cy">
    <path d="m52 259.78v-232.9" fill="none" stroke="#000" stroke-linecap="square" stroke-width=".8"/>
   </g>
   <g id="cz">
    <path d="m853.2 259.78v-232.9" fill="none" stroke="#000" stroke-linecap="square" stroke-width=".8"/>
   </g>
   <g id="da">
    <path d="m52 259.78h801.2" fill="none" stroke="#000" stroke-linecap="square" stroke-width=".8"/>
   </g>
   <g id="db">
    <path d="m52 26.88h801.2" fill="none" stroke="#000" stroke-linecap="square" stroke-width=".8"/>
   </g>
   <g id="dc">
    <!-- 同時接続数の推移 -->
    <g transform="translate(404.6 20.88) scale(.12 -.12)">
     <defs>
      <path id="x" transform="scale(.015625)" d="m1587 3936h3232v-518h-3232v518zm320-1114h557v-2534h-557v2534zm301 0h2291v-2086h-2291v512h1734v1069h-1734v505zm-1683 2260h5113v-570h-4524v-5056h-589v5626zm4768 0h595v-4896q0-250-67-397t-227-218q-160-77-426-96t-675-19q-13 83-45 192t-77 218q-45 108-89 185 281-13 527-13 247 0 330 0 83 7 118 42 36 35 36 112v4890z"/>
      <path id="v" transform="scale(.015625)" d="m2714 4672h3238v-525h-3238v525zm-244-1235h3712v-538h-3712v538zm20-1184h3635v-531h-3635v531zm1523 3155h595v-2310h-595v2310zm832-2451h589v-2823q0-230-61-364-61-135-227-199-167-70-423-86t-633-16q-20 121-78 285-57 163-121 284 275-6 509-9t310-3q77 6 106 28 29 23 29 93v2810zm-2023-1677 487 282q153-160 313-352t294-381q135-189 206-343l-519-313q-64 153-189 348-124 196-278 394-154 199-314 365zm-2086 3718h1619v-4281h-1619v544h1056v3187h-1056v550zm32-1843h1293v-537h-1293v537zm-320 1843h563v-4832h-563v4832z"/>
      <path id="w" transform="scale(.015625)" d="m3866 5408h614v-870h-614v870zm-1479-653h3597v-518h-3597v518zm-230-1485h4e3v-518h-4e3v518zm825 922 519 102q64-160 121-342 58-182 96-352 39-170 45-304l-544-128q-6 134-42 313-35 180-83 365-48 186-112 346zm1856 109 589-71q-96-275-202-557-105-281-195-486l-518 77q58 147 122 329 64 183 118 372t86 336zm-2643-2106h3943v-518h-3943v518zm1408 685 602-115q-167-371-362-784t-390-797-362-685l-525 179q160 288 346 666t368 784 323 752zm-659-2157 358 403q352-102 733-240 381-137 752-304 371-166 697-336 327-169 558-329l-384-461q-218 160-532 336-313 176-685 345-371 170-755 323-384 154-742 263zm1894 1114 583-71q-122-550-353-944-230-393-604-662t-922-435q-547-167-1296-269-25 128-93 269-67 141-137 230 678 64 1168 192t819 349q330 221 531 550 202 330 304 791zm-4684 217q396 90 953 240 557 151 1120 311l77-544q-525-154-1053-311-528-156-963-284l-134 588zm121 2093h1965v-563h-1965v563zm819 1248h576v-5229q0-236-51-374t-192-208q-141-77-355-99-214-23-541-16-13 115-64 288t-109 294q205-6 381-6t234 0q64 0 92 28 29 29 29 93v5229z"/>
      <path id="u" transform="scale(.015625)" d="m4058 5408h595v-1798h-595v1798zm-1415-563h3443v-499h-3443v499zm231-992h3008v-499h-3008v499zm-224-877h3475v-1203h-531v729h-2432v-729h-512v1203zm1964-877h551v-1881q0-122 22-157 23-35 106-35 25 0 92 0 68 0 135 0t99 0q51 0 83 54t45 224 19 515q90-70 234-131t259-93q-19-429-83-662-64-234-183-326-118-93-316-93-39 0-103 0t-134 0-138 0q-67 0-99 0-237 0-365 64t-176 218q-48 153-48 422v1881zm-1164-6h550v-455q0-243-48-528-48-284-186-579-137-294-409-572-272-279-727-503-70 90-192 208-121 118-230 195 416 205 665 438 250 234 371 474 122 240 164 467 42 228 42 413v442zm-2240 3309 524-192q-121-244-259-503-137-259-275-496t-259-416l-410 173q122 186 246 438 125 253 240 515 116 263 193 481zm716-743 500-230q-224-359-496-756-272-396-548-764-275-368-518-650l-358 205q179 211 377 483 199 272 387 569 189 298 358 592 170 295 298 551zm-1721-665 307 403q166-154 339-340 173-185 320-364t224-327l-326-460q-77 160-218 348-141 189-314 384-172 196-332 356zm1485-832 435 179q128-211 249-458 122-246 215-474 93-227 137-412l-473-211q-32 185-119 422-86 237-201 486-115 250-243 468zm-1530-583q422 26 998 54 576 29 1184 68l7-499q-570-45-1127-84-556-38-992-70l-70 531zm1702-992 436 135q121-276 214-596t118-556l-454-148q-26 237-112 563-86 327-202 602zm-1363 109 499-83q-57-455-163-897-105-441-253-748-51 32-134 73-83 42-170 83-86 42-144 62 148 294 234 697t131 813zm691 627h525v-2861h-525v2861z"/>
      <path id="q" transform="scale(.015625)" d="m224 2022h3187v-499h-3187v499zm51 2247h3111v-487h-3111v487zm1127-1735 563-121q-154-320-333-672t-352-679q-173-326-326-582l-532 173q148 243 324 566t345 669q170 346 311 646zm934-832 563-64q-89-480-262-838t-461-614-701-432-976-298q-25 128-99 269t-157 237q659 102 1085 303 426 202 666 554t342 883zm422 3597 519-211q-147-218-298-436-150-217-278-377l-403 186q121 173 252 413 132 240 208 425zm-1203 109h563v-2957h-563v2957zm-1075-320 448 186q134-192 246-420 112-227 157-393l-467-211q-38 172-147 406t-237 432zm1094-1050 397-236q-160-263-400-529-240-265-519-489-278-224-553-378-51 103-141 237-89 135-179 218 269 109 534 294 266 186 493 416 228 231 368 467zm487-204q83-45 246-145 163-99 352-211t346-211 221-150l-327-423q-83 77-230 198-147 122-317 253-170 132-327 250-156 119-259 189l295 250zm1798 396h2311v-556h-2311v556zm115 1178 615-90q-103-640-263-1235t-384-1101q-224-505-512-889-44 57-134 134t-186 157-166 125q275 339 473 796 199 458 340 995 141 538 217 1108zm1223-1510 614-58q-147-1101-445-1940-297-838-813-1443-515-604-1321-1014-26 71-90 177-64 105-134 208-70 102-128 159 742 346 1212 880 471 535 730 1290 260 755 375 1741zm-1005-135q134-851 387-1597 253-745 659-1305 407-560 1002-874-70-57-154-150-83-93-154-189-70-96-121-179-633 371-1056 988-422 618-688 1434-265 816-425 1783l550 89zm-3309-3065 327 416q377-148 754-330 378-182 701-378 324-195 548-368l-416-435q-211 179-519 378-307 198-666 383-358 186-729 334z"/>
      <path id="t" transform="scale(.015625)" d="m3686 4378q-64-493-163-1041-99-547-265-1084-192-653-432-1104t-522-688-595-237q-320 0-596 221-275 221-448 621-172 400-172 931 0 537 220 1017 221 480 611 851 391 372 909 583 519 211 1121 211 576 0 1040-186 464-185 793-515 330-329 502-771 173-441 173-941 0-672-278-1194-278-521-816-851-538-329-1318-444l-378 601q166 20 307 42t263 48q307 70 585 217 279 148 496 375 218 227 342 534 125 308 125 692t-122 713q-121 330-358 573-236 243-582 380-346 138-781 138-525 0-935-186-409-185-694-489-284-304-432-656-147-352-147-678 0-365 89-605 90-240 224-355 135-115 276-115t288 144 297 457q151 314 298 800 147 461 246 982 100 522 145 1021l684-12z"/>
      <path id="r" transform="scale(.015625)" d="m2995 2925h2893v-519h-2893v519zm0-1280h2893v-519h-2893v519zm-64-1299h3232v-557h-3232v557zm1312 3577h563v-3763h-563v3763zm429 1466 634-141q-154-390-340-794-185-403-339-684l-512 140q103 199 208 458 106 259 195 528 90 269 154 493zm-1472 25 582-147q-153-518-371-1018-217-499-483-931t-573-758q-38 64-109 160-70 96-147 198-77 103-141 160 416 416 733 1034t509 1302zm128-1203h2720v-537h-2720v-4205h-582v4422l313 320h269zm-3174-2157q396 90 953 240 557 151 1120 311l77-544q-525-154-1053-311-528-156-963-284l-134 588zm121 2093h1965v-563h-1965v563zm819 1248h576v-5229q0-236-51-374t-192-208q-141-77-355-99-214-23-541-16-13 115-64 288t-109 294q205-6 381-6t234 0q64 0 92 28 29 29 29 93v5229z"/>
      <path id="p" transform="scale(.015625)" d="m4051 5402 595-109q-281-493-729-941t-1107-806q-39 64-106 144t-141 153q-73 74-137 119 608 288 1011 678t614 762zm-77-557h1511v-493h-1863l352 493zm1293 0h109l109 25 384-179q-192-505-496-905t-695-701q-390-301-845-519-454-217-947-358-44 109-137 253t-176 227q448 109 867 294 419 186 777 445 359 259 631 592t419 730v96zm-1990-954 377 307q167-96 336-218 170-121 320-249 151-128 247-237l-397-332q-90 108-237 236t-317 259q-169 132-329 234zm1107-934 595-109q-307-538-803-1031-496-492-1232-876-38 64-102 144t-138 156q-74 77-138 116 455 217 807 483t604 554q253 288 407 563zm-90-589h1460v-506h-1818l358 506zm1268 0h121l109 26 384-167q-192-614-531-1075t-787-794q-448-332-983-553-534-221-1129-355-45 115-132 269-86 153-176 249 551 96 1043 285 493 189 903 473 410 285 714 669t464 883v90zm-2132-1056 410 339q186-102 384-237 198-134 371-275t282-269l-435-371q-103 128-270 272-166 144-361 288t-381 253zm-2150 3533h589v-5376h-589v5376zm-992-1242h2336v-569h-2336v569zm1024-224 365-160q-96-339-231-707-134-368-291-727-157-358-336-672-179-313-365-537-44 128-134 291t-160 272q173 192 339 457 167 266 323 570 157 304 282 618t208 595zm941 1946 416-467q-314-122-695-221-380-99-784-173-403-74-780-131-20 102-71 236-51 135-102 231 358 58 732 138 375 80 711 179t573 208zm-397-2579q58-45 179-170 122-125 266-266 144-140 259-265t160-183l-352-473q-58 102-157 255-99 154-218 317-118 164-227 311-108 147-185 237l275 237z"/>
     </defs>
     <use xlink:href="#x"/>
     <use transform="translate(100)" xlink:href="#v"/>
     <use transform="translate(200)" xlink:href="#w"/>
     <use transform="translate(300)" xlink:href="#u"/>
     <use transform="translate(400)" xlink:href="#q"/>
     <use transform="translate(500)" xlink:href="#t"/>
     <use transform="translate(600)" xlink:href="#r"/>
     <use transform="translate(700)" xlink:href="#p"/>
    </g>
   </g>
  </g>
  <g id="dd">
   <g id="de">
    <path d="m52 523.06h801.2v-232.9h-801.2z" fill="#fff"/>
   </g>
   <g id="df">
    <path d="m132.77 523.06h.79676v-232.9h-.79676z" clip-path="url(#c)" fill="#808080" opacity=".3" stroke="#808080"/>
   </g>
   <g id="dg">
    <path d="m426.11 523.06h.53117v-232.9h-.53117z" clip-path="url(#c)" fill="#808080" opacity=".3" stroke="#808080"/>
   </g>
   <g id="dh">
    <path d="m742.15 523.06h1.0623v-232.9h-1.0623z" clip-path="url(#c)" fill="#808080" opacity=".3" stroke="#808080"/>
   </g>
   <g id="di">
    <g id="dj">
     <g id="dk">
      <path d="m104.48 523.06v-232.9" clip-path="url(#c)" fill="none" stroke="#b0b0b0" stroke-linecap="square" stroke-opacity=".3" stroke-width=".8"/>
     </g>
     <g id="dl">
      <use x="104.482107" y="523.055464" stroke="#000000" stroke-width=".8" xlink:href="#e"/>
     </g>
     <g id="dm">
      <!-- 2025-07-01 -->
      <g transform="translate(57.693 563.33) rotate(-30) scale(.1 -.1)">
       <defs>
        <path id="g" transform="scale(.015625)" d="m301 1536v544h1689v-544h-1689z"/>
       </defs>
       <use xlink:href="#b"/>
       <use transform="translate(57)" xlink:href="#a"/>
       <use transform="translate(114)" xlink:href="#b"/>
       <use transform="translate(171)" xlink:href="#j"/>
       <use transform="translate(228)" xlink:href="#g"/>
       <use transform="translate(263.7)" xlink:href="#a"/>
       <use transform="translate(320.7)" xlink:href="#i"/>
       <use transform="translate(377.7)" xlink:href="#g"/>
       <use transform="translate(413.4)" xlink:href="#a"/>
       <use transform="translate(470.4)" xlink:href="#f"/>
      </g>
     </g>
    </g>
    <g id="dn">
     <g id="do">
      <path d="m180.97 523.06v-232.9" clip-path="url(#c)" fill="none" stroke="#b0b0b0" stroke-linecap="square" stroke-opacity=".3" stroke-width=".8"/>
     </g>
     <g id="dp">
      <use x="180.970667" y="523.055464" stroke="#000000" stroke-width=".8" xlink:href="#e"/>
     </g>
     <g id="dq">
      <!-- 2025-07-03 -->
      <g transform="translate(134.18 563.33) rotate(-30) scale(.1 -.1)">
       <use xlink:href="#b"/>
       <use transform="translate(57)" xlink:href="#a"/>
       <use transform="translate(114)" xlink:href="#b"/>
       <use transform="translate(171)" xlink:href="#j"/>
       <use transform="translate(228)" xlink:href="#g"/>
       <use transform="translate(263.7)" xlink:href="#a"/>
       <use transform="translate(320.7)" xlink:href="#i"/>
       <use transform="translate(377.7)" xlink:href="#g"/>
       <use transform="translate(413.4)" xlink:href="#a"/>
       <use transform="translate(470.4)" xlink:href="#o"/>
      </g>
     </g>
    </g>
    <g id="dr">
     <g id="ds">
      <path d="m257.46 523.06v-232.9" clip-path="url(#c)" fill="none" stroke="#b0b0b0" stroke-linecap="square" stroke-opacity=".3" stroke-width=".8"/>
     </g>
     <g id="dt">
      <use x="257.459226" y="523.055464" stroke="#000000" stroke-width=".8" xlink:href="#e"/>
     </g>
     <g id="du">
      <!-- 2025-07-05 -->
      <g transform="translate(210.67 563.33) rotate(-30) scale(.1 -.1)">
       <use xlink:href="#b"/>
       <use transform="translate(57)" xlink:href="#a"/>
       <use transform="translate(114)" xlink:href="#b"/>
       <use transform="translate(171)" xlink:href="#j"/>
       <use transform="translate(228)" xlink:href="#g"/>
       <use transform="translate(263.7)" xlink:href="#a"/>
       <use transform="translate(320.7)" xlink:href="#i"/>
       <use transform="translate(377.7)" xlink:href="#g"/>
       <use transform="translate(413.4)" xlink:href="#a"/>
       <use transform="translate(470.4)" xlink:href="#j"/>
      </g>
     </g>
    </g>
    <g id="dv">
     <g id="dw">
      <path d="m333.95 523.06v-232.9" clip-path="url(#c)" fill="none" stroke="#b0b0b0" stroke-linecap="square" stroke-opacity=".3" stroke-width=".8"/>
     </g>
     <g id="dx">
      <use x="333.947786" y="523.055464" stroke="#000000" stroke-width=".8" xlink:href="#e"/>
     </g>
     <g id="dy">
      <!-- 2025-07-07 -->
      <g transform="translate(287.16 563.33) rotate(-30) scale(.1 -.1)">
       <use xlink:href="#b"/>
       <use transform="translate(57)" xlink:href="#a"/>
       <use transform="translate(114)" xlink:href="#b"/>
       <use transform="translate(171)" xlink:href="#j"/>
       <use transform="translate(228)" xlink:href="#g"/>
       <use transform="translate(263.7)" xlink:href="#a"/>
       <use transform="translate(320.7)" xlink:href="#i"/>
       <use transform="translate(377.7)" xlink:href="#g"/>
       <use transform="translate(413.4)" xlink:href="#a"/>
       <use transform="translate(470.4)" xlink:href="#i"/>
      </g>
     </g>
    </g>
    <g id="dz">
     <g id="ea">
      <path d="m410.44 523.06v-232.9" clip-path="url(#c)" fill="none" stroke="#b0b0b0" stroke-linecap="square" stroke-opacity=".3" stroke-width=".8"/>
     </g>
     <g id="eb">
      <use x="410.436346" y="523.055464" stroke="#000000" stroke-width=".8" xlink:href="#e"/>
     </g>
     <g id="ec">
      <!-- 2025-07-09 -->
      <g transform="translate(363.65 563.33) rotate(-30) scale(.1 -.1)">
       <use xlink:href="#b"/>
       <use transform="translate(57)" xlink:href="#a"/>
       <use transform="translate(114)" xlink:href="#b"/>
       <use transform="translate(171)" xlink:href="#j"/>
       <use transform="translate(228)" xlink:href="#g"/>
       <use transform="translate(263.7)" xlink:href="#a"/>
       <use transform="translate(320.7)" xlink:href="#i"/>
       <use transform="translate(377.7)" xlink:href="#g"/>
       <use transform="translate(413.4)" xlink:href="#a"/>
       <use transform="translate(470.4)" xlink:href="#m"/>
      </g>
     </g>
    </g>
    <g id="ed">
     <g id="ee">
      <path d="m486.92 523.06v-232.9" clip-path="url(#c)" fill="none" stroke="#b0b0b0" stroke-linecap="square" stroke-opacity=".3" stroke-width=".8"/>
     </g>
     <g id="ef">
      <use x="486.924905" y="523.055464" stroke="#000000" stroke-width=".8" xlink:href="#e"/>
     </g>
     <g id="eg">
      <!-- 2025-07-11 -->
      <g transform="translate(440.14 563.33) rotate(-30) scale(.1 -.1)">
       <use xlink:href="#b"/>
       <use transform="translate(57)" xlink:href="#a"/>
       <use transform="translate(114)" xlink:href="#b"/>
       <use transform="translate(171)" xlink:href="#j"/>
       <use transform="translate(228)" xlink:href="#g"/>
       <use transform="translate(263.7)" xlink:href="#a"/>
       <use transform="translate(320.7)" xlink:href="#i"/>
       <use transform="translate(377.7)" xlink:href="#g"/>
       <use transform="translate(413.4)" xlink:href="#f"/>
       <use transform="translate(470.4)" xlink:href="#f"/>
      </g>
     </g>
    </g>
    <g id="eh">
     <g id="ei">
      <path d="m563.41 523.06v-232.9" clip-path="url(#c)" fill="none" stroke="#b0b0b0" stroke-linecap="square" stroke-opacity=".3" stroke-width=".8"/>
     </g>
     <g id="ej">
      <use x="563.413465" y="523.055464" stroke="#000000" stroke-width=".8" xlink:href="#e"/>
     </g>
     <g id="ek">
      <!-- 2025-07-13 -->
      <g transform="translate(516.62 563.33) rotate(-30) scale(.1 -.1)">
       <use xlink:href="#b"/>
       <use transform="translate(57)" xlink:href="#a"/>
       <use transform="translate(114)" xlink:href="#b"/>
       <use transform="translate(171)" xlink:href="#j"/>
       <use transform="translate(228)" xlink:href="#g"/>
       <use transform="translate(263.7)" xlink:href="#a"/>
       <use transform="translate(320.7)" xlink:href="#i"/>
       <use transform="translate(377.7)" xlink:href="#g"/>
       <use transform="translate(413.4)" xlink:href="#f"/>
       <use transform="translate(470.4)" xlink:href="#o"/>
      </g>
     </g>
    </g>
    <g id="el">
     <g id="em">
      <path d="m639.9 523.06v-232.9" clip-path="url(#c)" fill="none" stroke="#b0b0b0" stroke-linecap="square" stroke-opacity=".3" stroke-width=".8"/>
     </g>
     <g id="en">
      <use x="639.902024" y="523.055464" stroke="#000000" stroke-width=".8" xlink:href="#e"/>
     </g>
     <g id="eo">
      <!-- 2025-07-15 -->
      <g transform="translate(593.11 563.33) rotate(-30) scale(.1 -.1)">
       <use xlink:href="#b"/>
       <use transform="translate(57)" xlink:href="#a"/>
       <use transform="translate(114)" xlink:href="#b"/>
       <use transform="translate(171)" xlink:href="#j"/>
       <use transform="translate(228)" xlink:href="#g"/>
       <use transform="translate(263.7)" xlink:href="#a"/>
       <use transform="translate(320.7)" xlink:href="#i"/>
       <use transform="translate(377.7)" xlink:href="#g"/>
       <use transform="translate(413.4)" xlink:href="#f"/>
       <use transform="translate(470.4)" xlink:href="#j"/>
      </g>
     </g>
    </g>
    <g id="ep">
     <g id="eq">
      <path d="m716.39 523.06v-232.9" clip-path="url(#c)" fill="none" stroke="#b0b0b0" stroke-linecap="square" stroke-opacity=".3" stroke-width=".8"/>
     </g>
     <g id="er">
      <use x="716.390584" y="523.055464" stroke="#000000" stroke-width=".8" xlink:href="#e"/>
     </g>
     <g id="es">
      <!-- 2025-07-17 -->
      <g transform="translate(669.6 563.33) rotate(-30) scale(.1 -.1)">
       <use xlink:href="#b"/>
       <use transform="translate(57)" xlink:href="#a"/>
       <use transform="translate(114)" xlink:href="#b"/>
       <use transform="translate(171)" xlink:href="#j"/>
       <use transform="translate(228)" xlink:href="#g"/>
       <use transform="translate(263.7)" xlink:href="#a"/>
       <use transform="translate(320.7)" xlink:href="#i"/>
       <use transform="translate(377.7)" xlink:href="#g"/>
       <use transform="translate(413.4)" xlink:href="#f"/>
       <use transform="translate(470.4)" xlink:href="#i"/>
      </g>
     </g>
    </g>
    <g id="et">
     <g id="eu">
      <path d="m792.88 523.06v-232.9" clip-path="url(#c)" fill="none" stroke="#b0b0b0" stroke-linecap="square" stroke-opacity=".3" stroke-width=".8"/>
     </g>
     <g id="ev">
      <use x="792.879143" y="523.055464" stroke="#000000" stroke-width=".8" xlink:href="#e"/>
     </g>
     <g id="ew">
      <!-- 2025-07-19 -->
      <g transform="translate(746.09 563.33) rotate(-30) scale(.1 -.1)">
       <use xlink:href="#b"/>
       <use transform="translate(57)" xlink:href="#a"/>
       <use transform="translate(114)" xlink:href="#b"/>
       <use transform="translate(171)" xlink:href="#j"/>
       <use transform="translate(228)" xlink:href="#g"/>
       <use transform="translate(263.7)" xlink:href="#a"/>
       <use transform="translate(320.7)" xlink:href="#i"/>
       <use transform="translate(377.7)" xlink:href="#g"/>
       <use transform="translate(413.4)" xlink:href="#f"/>
       <use transform="translate(470.4)" xlink:href="#m"/>
      </g>
     </g>
    </g>
   </g>
   <g id="ex">
    <g id="ey">
     <g id="ez">
      <path d="m52 506.21h801.2" clip-path="url(#c)" fill="none" stroke="#b0b0b0" stroke-linecap="square" stroke-opacity=".3" stroke-width=".8"/>
     </g>
     <g id="fa">
      <use x="52" y="506.210991" stroke="#000000" stroke-width=".8" xlink:href="#h"/>
     </g>
     <g id="fb">
      <!-- 104800 -->
      <g transform="translate(10.8 510.2) scale(.1 -.1)">
       <use xlink:href="#f"/>
       <use transform="translate(57)" xlink:href="#a"/>
       <use transform="translate(114)" xlink:href="#n"/>
       <use transform="translate(171)" xlink:href="#l"/>
       <use transform="translate(228)" xlink:href="#a"/>
       <use transform="translate(285)" xlink:href="#a"/>
      </g>
     </g>
    </g>
    <g id="fc">
     <g id="fd">
      <path d="m52 479.86h801.2" clip-path="url(#c)" fill="none" stroke="#b0b0b0" stroke-linecap="square" stroke-opacity=".3" stroke-width=".8"/>
     </g>
     <g id="fe">
      <use x="52" y="479.860622" stroke="#000000" stroke-width=".8" xlink:href="#h"/>
     </g>
     <g id="ff">
      <!-- 105200 -->
      <g transform="translate(10.8 483.85) scale(.1 -.1)">
       <use xlink:href="#f"/>
       <use transform="translate(57)" xlink:href="#a"/>
       <use transform="translate(114)" xlink:href="#j"/>
       <use transform="translate(171)" xlink:href="#b"/>
       <use transform="translate(228)" xlink:href="#a"/>
       <use transform="translate(285)" xlink:href="#a"/>
      </g>
     </g>
    </g>
    <g id="fg">
     <g id="fh">
      <path d="m52 453.51h801.2" clip-path="url(#c)" fill="none" stroke="#b0b0b0" stroke-linecap="square" stroke-opacity=".3" stroke-width=".8"/>
     </g>
     <g id="fi">
      <use x="52" y="453.510254" stroke="#000000" stroke-width=".8" xlink:href="#h"/>
     </g>
     <g id="fj">
      <!-- 105600 -->
      <g transform="translate(10.8 457.5) scale(.1 -.1)">
       <use xlink:href="#f"/>
       <use transform="translate(57)" xlink:href="#a"/>
       <use transform="translate(114)" xlink:href="#j"/>
       <use transform="translate(171)" xlink:href="#k"/>
       <use transform="translate(228)" xlink:href="#a"/>
       <use transform="translate(285)" xlink:href="#a"/>
      </g>
     </g>
    </g>
    <g id="fk">
     <g id="fl">
      <path d="m52 427.16h801.2" clip-path="url(#c)" fill="none" stroke="#b0b0b0" stroke-linecap="square" stroke-opacity=".3" stroke-width=".8"/>
     </g>
     <g id="fm">
      <use x="52" y="427.159885" stroke="#000000" stroke-width=".8" xlink:href="#h"/>
     </g>
     <g id="fn">
      <!-- 106000 -->
      <g transform="translate(10.8 431.15) scale(.1 -.1)">
       <use xlink:href="#f"/>
       <use transform="translate(57)" xlink:href="#a"/>
       <use transform="translate(114)" xlink:href="#k"/>
       <use transform="translate(171)" xlink:href="#a"/>
       <use transform="translate(228)" xlink:href="#a"/>
       <use transform="translate(285)" xlink:href="#a"/>
      </g>
     </g>
    </g>
    <g id="fo">
     <g id="fp">
      <path d="m52 400.81h801.2" clip-path="url(#c)" fill="none" stroke="#b0b0b0" stroke-linecap="square" stroke-opacity=".3" stroke-width=".8"/>
     </g>
     <g id="fq">
      <use x="52" y="400.809517" stroke="#000000" stroke-width=".8" xlink:href="#h"/>
     </g>
     <g id="fr">
      <!-- 106400 -->
      <g transform="translate(10.8 404.79) scale(.1 -.1)">
       <use xlink:href="#f"/>
       <use transform="translate(57)" xlink:href="#a"/>
       <use transform="translate(114)" xlink:href="#k"/>
       <use transform="translate(171)" xlink:href="#n"/>
       <use transform="translate(228)" xlink:href="#a"/>
       <use transform="translate(285)" xlink:href="#a"/>
      </g>
     </g>
    </g>
    <g id="fs">
     <g id="ft">
      <path d="m52 374.46h801.2" clip-path="url(#c)" fill="none" stroke="#b0b0b0" stroke-linecap="square" stroke-opacity=".3" stroke-width=".8"/>
     </g>
     <g id="fu">
      <use x="52" y="374.459148" stroke="#000000" stroke-width=".8" xlink:href="#h"/>
     </g>
     <g id="fv">
      <!-- 106800 -->
      <g transform="translate(10.8 378.44) scale(.1 -.1)">
       <use xlink:href="#f"/>
       <use transform="translate(57)" xlink:href="#a"/>
       <use transform="translate(114)" xlink:href="#k"/>
       <use transform="translate(171)" xlink:href="#l"/>
       <use transform="translate(228)" xlink:href="#a"/>
       <use transform="translate(285)" xlink:href="#a"/>
      </g>
     </g>
    </g>
    <g id="fw">
     <g id="fx">
      <path d="m52 348.11h801.2" clip-path="url(#c)" fill="none" stroke="#b0b0b0" stroke-linecap="square" stroke-opacity=".3" stroke-width=".8"/>
     </g>
     <g id="fy">
      <use x="52" y="348.10878" stroke="#000000" stroke-width=".8" xlink:href="#h"/>
     </g>
     <g id="fz">
      <!-- 107200 -->
      <g transform="translate(10.8 352.09) scale(.1 -.1)">
       <use xlink:href="#f"/>
       <use transform="translate(57)" xlink:href="#a"/>
       <use transform="translate(114)" xlink:href="#i"/>
       <use transform="translate(171)" xlink:href="#b"/>
       <use transform="translate(228)" xlink:href="#a"/>
       <use transform="translate(285)" xlink:href="#a"/>
      </g>
     </g>
    </g>
    <g id="ga">
     <g id="gb">
      <path d="m52 321.76h801.2" clip-path="url(#c)" fill="none" stroke="#b0b0b0" stroke-linecap="square" stroke-opacity=".3" stroke-width=".8"/>
     </g>
     <g id="gc">
      <use x="52" y="321.758411" stroke="#000000" stroke-width=".8" xlink:href="#h"/>
     </g>
     <g id="gd">
      <!-- 107600 -->
      <g transform="translate(10.8 325.74) scale(.1 -.1)">
       <use xlink:href="#f"/>
       <use transform="translate(57)" xlink:href="#a"/>
       <use transform="translate(114)" xlink:href="#i"/>
       <use transform="translate(171)" xlink:href="#k"/>
       <use transform="translate(228)" xlink:href="#a"/>
       <use transform="translate(285)" xlink:href="#a"/>
      </g>
     </g>
    </g>
    <g id="ge">
     <g id="gf">
      <path d="m52 295.41h801.2" clip-path="url(#c)" fill="none" stroke="#b0b0b0" stroke-linecap="square" stroke-opacity=".3" stroke-width=".8"/>
     </g>
     <g id="gg">
      <use x="52" y="295.408043" stroke="#000000" stroke-width=".8" xlink:href="#h"/>
     </g>
     <g id="gh">
      <!-- 108000 -->
      <g transform="translate(10.8 299.39) scale(.1 -.1)">
       <use xlink:href="#f"/>
       <use transform="translate(57)" xlink:href="#a"/>
       <use transform="translate(114)" xlink:href="#l"/>
       <use transform="translate(171)" xlink:href="#a"/>
       <use transform="translate(228)" xlink:href="#a"/>
       <use transform="translate(285)" xlink:href="#a"/>
      </g>
     </g>
    </g>
   </g>
   <g id="gi">
    <path d="m88.418 512.47h.14253l.79277-.2635 1.1947-.46113.41298-.2635 1.1712-.19763.79676.13175.39838-.19763.39838-.32938h.39838l.79676-.85639.79676-.13175.79676-.59288 1.1951.13175.39838-.065876.79676-.65876.39838-.65876.79676-.59288h.39838l.79676-.59288.39838-.39526 1.1951-2.3715 1.1951-.92226.39838-.19763.39838.065876.39838-.32938h1.1951l.39838-.2635h.39838l.79676-.52701 1.9919-.39526.39838.13175.39838-.065876.39838.065876 1.9919-.2635 1.5935-.065876 1.1951-.13175 5.1789-.065876.79676-.065876h.39838l.39838-.13175h.79676l1.1951-.59288.79676-.065876 1.1951-.39526h.39838l.79676-.39526 1.1951-.2635 1.9919-.72464.79676-.32938.79676-.19763m.79676-.39526.39838-.2635.39838-.59288.39838-.32938 1.1951-.2635.79676-.2635.79676-.52701.39838-.85639.39838-.2635.79676-1.3834h.39838l.79676-.92226.39838-.19763.39838-.46113 1.5935-1.054.39838.065876 1.5935-.92226.79676-.065876 1.1951-.19763.39838.13175h.39838l.79676-.46113.79676-.13175.39838.065876.39838-.13175.39838.065876 1.9919-.2635.79676.065876.79676-.065876.79676.065876h2.3903l.79676-.19763.79676.19763.39838.065876 1.1951-.32938h.39838l.39838-.13175h.39838l.39838-.2635.79676-.19763.39838-.32938 1.5935.065875.39838.065876.39838-.065876.39838-.19763 1.1951-.13175.39838.13175 1.1951-.13175h.39838l1.1951-.72464.39838-.065876.39838-.2635.39838.065876.79676-.13175.39838.065876.79676-.39526h.79676l.39838-.46113 1.9919-1.1858 1.1951-.65876.39838-.65876.39838-.065876.39838-.2635.39838-.72464 1.1951-1.1199.39838-.13175.39838.19763.39838-.13175.39838-.32938 1.5935-.46113.39838-.065876.39838.065876.39838-.19763.79676.065876h1.9919l.39838-.13175.79676.13175 1.1951-.13175 2.7886-.065876.39838.19763h.39838l1.7263-.46113.26559.065876h.13279l.26559-.13175h2.6559l.26559.13175.66396-.065876.26558-.065875h.26558l.13279-.13175.26558.13175.26559-.065876h.26558l.26558-.13175.53117.13175.26558-.065876 1.1951-.065876.26558-.19763.13279-.13175.53117.2635.66396-.2635.26559.065876.53117-.19763.92955.065876.26558.13175.79676-.65876h.13279l.53117-.46113h1.4607l.26558-.13175.66396-.065876 1.3279-.59288h.39838l.39838-.19763.13279-.19763.13279.13175.13279-.065876.13279.13175.39838-.39526.39838-.065876.39838-.19763.13279.065876.79676-.72464.26559-.065876.26558-.13175.26558-.65876.92955-.92226.13279.13175.26559-.13175.26558-.19763.13279.13175.26559-.065876.26558-.46113h.26558l.13279-.39526.13279.065875.66396-.2635h.13279l.26559-.32938.26558-.19763.53117-.065876.26558-.19763.39838-.065876.26558-.065876h.39838l.39838-.2635.53117-.19763.92955-.065876.26558-.065875 1.7263-.065876.26559-.065876 2.9214-.065876.26558-.065876 2.1247-.065876.66396-.2635 3.187-.065876 1.0623-.2635.26558-.19763 1.8591.065876.26558.13175 1.0623-.19763 1.3279-.065876.53117-.32938.79676-.065876.53117-.2635h.26558l.53117-.19763h.26558l.79676-.65876.26558-.13175.79676-.065876.26558-.2635 1.5935-.39526.26558.065876.26558-.13175.53117-.065876.79676-.19763.26558.065876 1.0623-.72464.26558-.065876.53117-.65876.26558-.19763h.26558l1.0623-.65876 1.3279-.32938 1.0623-1.1199.26558-.39526h.26559l.79676-.79051h.26559l1.0623-.79051.26558.065876 1.3279-1.3175h.26559l.26558-.39526 1.0623-.19763h1.8591l.26558-.13175h.26559l.26558-.13175 1.0623-.13175.79676-.065876 2.1247-.46113 2.6559.065876.53117.065876.79676-.065876.26558-.19763.79676.13175.26559-.065876.53117.065876h1.3279l.79676-.32938h1.0623l.53117-.2635h.79676l.26558-.13175.79676-.065876.26558-.065876.26558.065876.26559-.13175.26558.065876.79676-.19763.26558-.19763.26558.065876.79676-.92226.53117.19763.26558-.19763h.53117l.53117-.2635.79676-.065876.53117-.59288h.26559l.53117-.19763.26559.065876.26558-.2635.26558-.065876.26558.065876.26559-.065876.26558.13175.26558-.13175.26559.065876.26558-.065876.79676-.59288h.26558l.26558-.13175.79676-1.1858.79676-.46113.26558-.52701.26558-.065876.79676-.79051.26559.065876.79676-.52701.53117-1.054.53117-.065876.53117-.59288 1.0623-.32938.79676-.46113 1.0623-.32938.53117-.59288.53117-.065876 1.0623-.19763.26559-.32938 1.8591-.065876.53117-.19763.79676-.065876.79676-.19763.26558.065876.53117-.065876.79676.065876.53117.065876.53117-.2635 1.0623.065876.26558.19763h2.3903l.53117-.32938h.26558l.53117-.19763 1.0623.065876.53117.065876.26559-.13175h.26558l.26558-.2635h.26558l.53117-.2635.53117-.065876.53117-.32938.53117-.065876.79676-.72464h.26559l.26558-.13175h.53117l.53117.19763h.26558l.53117-.19763.26558-.32938 1.3279-.39526.26558-.13175.79676-.065876.26558-.13175.79676.13175.79676-.065876.53117-.19763.53117-.13175 1.5935-1.054.26559.065876.26558-.19763h.53117l.26558-.32938.53117-.2635.53117-.52701.79676.065876.53117-.39526.26559.065876.53117-.39526.26558-.39526.26559.13175.26558-.2635.26558-.065876.26558.19763.26559-.2635.53117.13175 1.0623-.65876.53117.065876.26558-.19763h.26559l.26558.13175.26558-.065876.26558-.32938.26559.065876.79676-.19763.26559.065876.26558-.065876.53117.065876 1.8591.065876.26558.19763 1.8591-.065876.53117-.065875 1.3279.065875.26558.13175.26558-.13175h1.0623l.26559-.13175.79676.065876.53117.065875 2.3903-.065875.53117-.065876 1.0623.065876.53117-.2635.79676-.13175.26559.13175.53117-.2635 1.0623.13175.53117-.2635h.53117l.53117-.19763 2.9214-.065876.53117-.19763.53117-.2635 1.3279-.065876.53117-.2635.79676-.59288h.26558l.26559-.13175.53117.065876 1.0623-.79051.26558.13175.26559-.13175.26558-.39526.79676-.46113.26558-.19763h.26558l.53117-.79051.79676-.59288.26558-.39526h.26558l.53117-.59288.26558.13175.53117-.065876.26558-.39526.26558.065876.53117-.39526 1.3279-.85639 1.0623-.46113 1.0623-.065876.79676-.32938 1.5935.065876.53117.065876 1.8591.065876.53117.065876 1.0623-.13175.26558-.065876.26559.065876.53117-.065876h2.6559l.26558-.13175.79676-.065876.53117-.065876 1.0623-.065875.26558-.065876.79676.2635.53117-.19763 1.3279-.065876.79676-.13175.53117-.065876.26558-.13175 1.5935.065876.79676-.39526h.26558l.53117-.32938h.26558l.26558-.13175.53117-.39526.26558.065876.79676-.19763.53117.13175.53117-.065875.26558.065875 1.5935-.79051.53117-.065876.79676-.19763.53117-.2635h.26558l.26558-.39526.26559-.13175.26558.065876.26558-.2635.26559-.065876.79676-1.5151.26559-.2635h.26558l.26558-.13175.53117-.46113.26558-.13175.26558-.46113 2.1247-1.7128.26558-.2635.26558-.46113 1.0623-.32938.26558.13175.26559-.065876.79676-.52701h.26558l.26558-.13175.26558.065875 1.8591-.39526.79676-.065876.53117-.13175.53117.065876 1.5935-.065876.26558-.065876.26558.065876.53117-.065876.53117.065876 1.5935-.065876.26558-.065876.53117.065876 1.0623-.065876 1.5935-.32938m.53117.19763.26559-.13175h.26558l.26558-.13175h2.9214l.53117-.2635.79676-.065876.26558-.065876.26558.065876.53117-.32938.26558.065876.53117-.065876.26558.065876.26558-.13175.53117.13175.26558-.13175.79676-.065876.53117-.2635.53117.2635.53117-.32938.79676-.2635.79676-.32938.26558-.32938.26559-.13175h.26558l.26558-.19763h.53117l.53117-.46113.53117.2635.26558-.2635.26558-.46113.53117-.2635h.26558l1.0623-.59288.53117-.46113.53117-.13175.26559-.46113.26558-.19763.26558-.59288.79676-.65876h.26558l.53117-.52701.79676-.2635.26558-.13175.53117-.39526.26558-.065876.26558-.2635.53117.065876.26558-.19763.53117.13175.26559-.2635h.53117l.26559-.19763.79676-.065876 1.0623-.13175.26558-.065876.26558.065876 1.0623-.52701 1.3279-.065876.26558-.065876.79676.13175 1.3279-.065876.26558-.065876.53117.13175.79676-.13175.26558.065876.26558-.065876.79676.13175h.53117l.26558-.2635 2.1247-.065875.79676-.13175.79676.13175 1.0623-.065876.26558-.19763.79676-.065876.79676-.32938 1.0623-.19763.53117-.065876 1.3279-.2635.79676-.065876.26558-.13175h.26558l.26559-.2635h.26558l.53117-.65876.53117-.32938.53117-.2635.79676-.19763.26559-.32938.26558-.13175h.26558l.79676-.32938h.26558l.26559-.2635.53117-.065875.53117-.65876.53117-.32938.53117-.39526 3.187-2.2398.53117-.98814.53117-.39526.53117-.065876.26558-.46113h.26558l.53117-.2635.26558-.2635h.26558l.53117-.2635.26558-.39526.26558-.065876.53117-.32938.53117.065876.26558-.32938.53117-.19763 1.3279-.065876.26558.2635.53117.065876h.26558l.53117-.2635.53117-.065876 1.5935-.065876.53117-.065876.26558-.2635.79676-.065876.53117-.065876 5.3117-.065876.53117-.13175.26558.065875 1.5935-.46113.26558-.13175h.26558l.26559-.13175h.26558l.26558-.13175.79676.13175.53117-.065876h.53117l.53117-.19763.26558-.32938 1.0623-.46113h.53117l.53117-.2635.26558.065876.53117-.19763.26558.13175.26559-.13175.53117-.065876.53117-.39526.53117-.2635h.26559l.53117-.19763.26558.13175.53117-.19763.26558-.32938 1.3279-.59288.26558.065876.79676-.32938.26558.065876.26558-.19763h.26558l3.7182-2.8327.53117-.92226.53117-.72464.53117-.065876 1.3279-1.1858.26559-.13175.26558-.2635.26558-.065876 1.3279-.85639.26558-.065876.53117-.32938 1.5935-.32938.26558.065876.53117-.065876.79676.13175 1.3279-.065876.53117-.065876 1.3279-.065876.53117-.065876.53117.065876.79676.065876.79676.13175.26558-.13175.53117.065876 1.0623.19763.26558-.13175.26558.13175.53117-.065876.26558-.2635 1.0623-.2635.53117.13175 1.0623-.39526h.26558l.26558-.13175.53117-.065876 1.5935-.32938.26558.065876.26558-.13175h.26559l.79676-.65876h.26559l1.3279-.59288 1.3279-.32938.26559-.32938.53117.065876.79676-.65876.26558-.19763.26559.065876.26558-.065876.26558-.2635.53117.46113.53117.19763 1.3279-.32938.26558-.32938.26558-.065876.53117-.46113h.26558l.53117-.2635.26558.065876.26558-.32938.26558-.13175.53117-.52701.26558-.46113.53117-.46113.26558-.46113.26558-.13175.53117-.65876h.26558l.53117-.59288.26558.065876.53117-.39526.26558-.65876.26558-.065876.26558-.46113.26559-.065876.26558-.2635.26558-.52701.53117-.32938.53117-.065876.53117-.59288.53117-.065875.53117-.39526.26558-.39526.26558-.065875 1.5935-1.1199.79676.065876.53117.19763.53117-.2635.79676.13175 1.5935-.065876 1.0623-.19763 1.8591-.065876.79676-.13175 1.8591-.065876 1.0623-.19763h.79676l.53117-.2635.26558.065876.26558-.065876.26559.065876.26558-.065876.53117.065876.53117-.065876.53117.065876.79676-.39526.53117-.065876.26558-.19763h.26559l.53117-.32938.53117-.19763.26558-.13175.53117.065876 1.3279-.32938.26558-.2635.53117-.13175.26558.065876.26558.2635.26559.065876.26558-.13175.26558.065876.79676-.59288.26558.13175.26558-.065876.53117-.39526.53117.065876h.26558l.26558-.2635.26558.065876.79676-.46113h.26559l.53117-.19763.26558.065876.26559-.065876.26558.065876 1.0623-.92226.79676-.72464.26558-.2635.26558-.065876.26559-.52701.26558.065876.26558-.39526.26558-.065876.26559-.39526.53117-.2635.53117-.59288h.26558l.26558-.46113.26559-.065876.53117-.52701.26559.13175 1.0623-.46113.53117.19763.53117-.19763 1.5935-.32938 1.0623-.065876 1.3279-.2635 1.0623-.13175 1.3279-.065876 1.5935-.32938h1.8591l.26558.13175h.53117l.53117.13175.26559-.13175h.53117l.26558-.13175.26559.065876 1.0623-.2635.53117.065876h.26559l.26558-.19763 2.3903-.065876.79676-.39526 1.3279-.065876.53117-.19763.26558.13175.53117-.2635h.53117l.26558-.13175.79676.065876.53117.19763.53117-.065876.26558-.13175.53117.065876.26558-.13175.26558.065876 1.0623-.32938.53117-.39526.26558.19763.79676-.46113h.53117l.26559-.19763h.26558l.26558-.39526.26559.19763h.26558l.26558-.65876.79676-.46113 1.0623-.92226.26558-.52701.26559.13175.26558-.13175h.26558l1.0623-1.1199.26559.065876.53117-.46113.26558-.46113.26559.13175.79676-.46113.26559-.065876.26558-.32938.53117.065876.26558-.13175.26558-.2635.26558-.065876.26559-.32938.26558-.13175.26558.065876 1.8591-.85639 1.3279-.065876.79676-.13175h.79676l.26558-.13175 1.5935-.065876 1.0623-.2635.53117.065876h.26558l.26558-.13175 1.0623.065876.79676.13175 1.0623-.19763 1.0623-.13175 1.3279-.065876 1.0623-.19763.79676.065876 1.0623.19763h.26558l1.3279-.92226h2.3903l.26558-.13175.26559.065875.53117-.13175.26558.065876.53117-.19763 1.0623-.19763.26558-.32938.53117-.19763.26558.065876.26558.19763h.26559l1.3279-.85639.26558.13175.79676-.46113.26559-.19763h.26558l1.0623-1.054.53117-.13175.79676-.92226.26559-.32938.79676-.46113.53117-.65876.26558-.13175.26558-.52701.53117-.2635.53117-.19763.26558.13175.26558-.2635.53117-.19763.26558-.19763.26558.13175.26559-.2635h.26558l.26558-.13175.79676-.85639 1.3279.065875.26559-.19763 1.0623-.065876.79676-.13175.79676.13175 2.1247-.065876.79676-.13175h3.4526l.26558-.2635 1.3279-.065876 1.3279-.2635 1.8591-.065876.53117-.19763.26559.065876 1.0623-.13175 1.3279-.39526.26559-.13175.26558-.32938.53117-.19763.79676-.39526.26558.065876.26559-.19763.26558.13175h.26558l.26559-.19763h.53117l.53117-.32938.26558.065876.26558-.13175.26558.13175 1.0623-.46113.26558.065876 1.8591-.52701.26558.13175.53117-.13175.53117-.2635h.79676l1.3279-.59288.26559-.065876.53117-.59288.26559-.32938.53117-.19763.26558-.13175.26559-.32938.26558.065876.26558-.065876 1.3279-1.054.26558-.52701 1.0623-.46113.26558-.39526.26558-.13175.26559-.52701 1.3279-.98814h.26558l.26559.19763.53117-.19763.26559-.19763h.26558l.26558.13175 1.0623-.32938.79676-.39526.26558.065876 1.0623-.19763 1.8591-.065875.53117-.065876 3.187.065876.26558.13175 1.0623-.13175 2.6559.065875 1.5935.19763.79676-.2635.53117-.19763 1.0623-.19763.53117.13175.26558-.065876.26559.13175.26558-.065876.26558-.19763.26558.19763h.79676l.26559-.19763.26558.065876.53117-.32938.26559.13175.26558-.2635.26558.19763 1.3279-.065876m1.0623 0 .79676-.13175.53117-.32938.26558-.32938.53117-.065876h.26558l.53117-.39526.53117.13175.53117-.32938.26558.13175.26558-.32938.26559.19763.26558-.065876.79676-.98814.26558-.065876.26558-.2635.26559.065876.26558-.13175.26558-.59288 1.3279-1.4493.26559-.39526.26558-.065876.79676-.65876.26558-.19763.26558-.39526h.26559l.26558-.59288.53117-.59288h.53117l.26558-.13175.26559-.2635.26558.065876.26558-.065876.53117-.32938h.26558l1.0623-.65876.79676-.32938.26558.065876 1.3279-.2635.53117-.065876 1.0623-.19763.53117.13175 1.0623-.19763.26558.13175 2.3903.065876.26558.13175 1.3279-.065876.79676-.13175.53117.13175.53117-.065876.26559.065876.79676-.2635.26559-.13175.53117-.065876.26558-.19763.53117-.065876.26558-.065876.53117.065876h.79676l.53117-.2635 1.0623-.065876.79676-.32938h.26558l.53117-.2635 1.3279-.39526.53117.19763.53117-.19763.53117.2635.79676-.32938.53117-.13175.26559-.19763 1.0623.065876.79676-.52701h.26558l.53117-.52701h.53117l.26558-.2635h.26559l.26558-.19763.26558.13175.26558-.19763.26559-.39526.53117-.19763.53117-.52701 1.8591-1.7786.26558-.065876.26558-.85639.53117-.72464.26558-.52701 1.0623-.52701 1.0623-.98814.79676-.32938.26558.065876.79676-.32938.26559-.52701 1.0623-.52701.26558-.46113.53117-.2635h.26559l.26558-.13175.26558.13175.26559-.13175.53117.065876h.26558l.53117-.2635 2.9214-.065876.53117-.065876.79676.065876.26559.13175h5.0461l.26558-.13175h.79676l.79676-.39526h.26558l.26558-.19763.53117-.065876.53117-.19763.53117-.065876.26558.065876.53117-.2635h.26558l.26558-.19763.26559.065876.79676-.32938.26558-.065876.26558-.2635.53117.065876.26558-.19763.26558.065875v0" clip-path="url(#c)" fill="none" stroke="#28f" stroke-linecap="square" stroke-width="1.5"/>
   </g>
   <g id="gj">
    <path d="m52 523.06v-232.9" fill="none" stroke="#000" stroke-linecap="square" stroke-width=".8"/>
   </g>
   <g id="gk">
    <path d="m853.2 523.06v-232.9" fill="none" stroke="#000" stroke-linecap="square" stroke-width=".8"/>
   </g>
   <g id="gl">
    <path d="m52 523.06h801.2" fill="none" stroke="#000" stroke-linecap="square" stroke-width=".8"/>
   </g>
   <g id="gm">
    <path d="m52 290.16h801.2" fill="none" stroke="#000" stroke-linecap="square" stroke-width=".8"/>
   </g>
   <g id="gn">
    <!-- サーバー数の推移 -->
    <g transform="translate(404.6 284.16) scale(.12 -.12)">
     <defs>
      <path id="z" transform="scale(.015625)" d="m4685 2893q0-621-84-1111-83-489-288-877-204-387-569-691t-928-560l-544 512q448 167 781 371 333 205 550 503 218 298 323 739 106 442 106 1075v1620q0 192-10 339-9 147-22 217h723q-6-70-22-217t-16-339v-1581zm-2304 2086q-7-64-23-199-16-134-16-313v-2317q0-128 6-256 7-128 13-224 7-96 13-140h-710q6 44 12 140 7 96 13 221 7 125 7 259v2317q0 122-10 256-9 135-28 256h723zm-1978-1197q45-12 144-22t237-20q138-9 285-9h4217q237 0 394 13t246 26v-679q-76 7-240 13-163 6-393 6h-4224q-147 0-282-3-134-3-234-10-99-6-150-12v697z"/>
      <path id="s" transform="scale(.015625)" d="m621 2854q109-6 265-16 157-9 339-16 183-6 349-6 128 0 352 0t509 0 598 0q314 0 624 0 311 0 586 0t486 0q212 0 327 0 230 0 416 16t301 22v-793q-109 6-308 19-198 13-409 13-109 0-324 0-214 0-489 0t-586 0q-310 0-624 0-313 0-598 0t-509 0-352 0q-262 0-525-10-262-9-428-22v793z"/>
      <path id="y" transform="scale(.015625)" d="m4941 5037q83-109 176-269t182-320q90-160 154-288l-416-179q-96 192-240 448t-272 435l416 173zm723 275q83-122 182-282 100-160 196-317 96-156 153-271l-416-186q-102 205-246 454-144 250-279 429l410 173zm-4339-3360q102 262 201 556 100 295 183 612t144 630q61 314 93 602l723-147q-19-83-45-183-26-99-48-195t-42-166q-32-154-86-394t-131-512-164-551q-86-278-182-514-115-301-269-618-153-317-326-618-173-300-346-550l-697 294q301 397 563 874t429 880zm3155 198q-96 250-215 531-118 282-243 567-124 285-246 534-122 250-224 429l659 218q96-179 221-429t253-535q128-284 249-566 122-281 218-525 90-230 195-518 106-288 211-592 106-304 195-589 90-285 154-515l-729-237q-84 352-199 736t-240 768-259 723z"/>
     </defs>
     <use xlink:href="#z"/>
     <use transform="translate(100)" xlink:href="#s"/>
     <use transform="translate(200)" xlink:href="#y"/>
     <use transform="translate(300)" xlink:href="#s"/>
     <use transform="translate(400)" xlink:href="#q"/>
     <use transform="translate(500)" xlink:href="#t"/>
     <use transform="translate(600)" xlink:href="#r"/>
     <use transform="translate(700)" xlink:href="#p"/>
    </g>
   </g>
  </g>
 </g>
 <defs>
  <clipPath id="d">
   <rect x="52" y="26.88" width="801.2" height="232.9"/>
  </clipPath>
  <clipPath id="c">
   <rect x="52" y="290.16" width="801.2" height="232.9"/>
  </clipPath>
 </defs>
</svg>
