<!DOCTYPE svg  PUBLIC '-//W3C//DTD SVG 1.1//EN'  'http://www.w3.org/Graphics/SVG/1.1/DTD/svg11.dtd'>
<svg version="1.1" viewBox="0 0 864 576" xmlns="http://www.w3.org/2000/svg" xmlns:xlink="http://www.w3.org/1999/xlink">
 <defs>
  <style type="text/css">*{stroke-linejoin: round; stroke-linecap: butt}</style>
 </defs>
 <g id="aa">
  <g id="ab">
   <path d="m0 576h864v-576h-864z" fill="#fff"/>
  </g>
  <g id="ac">
   <g id="ad">
    <path d="m52.09 259.78h801.11v-232.9h-801.11z" fill="#fff"/>
   </g>
   <g id="ae">
    <path d="m163.88 259.78h1.3541v-232.9h-1.3541z" clip-path="url(#b)" fill="#808080" opacity=".3" stroke="#808080"/>
   </g>
   <g id="af">
    <path d="m662.42 259.78h.90274v-232.9h-.90274z" clip-path="url(#b)" fill="#808080" opacity=".3" stroke="#808080"/>
   </g>
   <g id="ag">
    <g id="ah">
     <g id="ai">
      <path d="m115.81 259.78v-232.9" clip-path="url(#b)" fill="none" stroke="#b0b0b0" stroke-linecap="square" stroke-opacity=".3" stroke-width=".8"/>
     </g>
     <g id="aj">
      <defs>
       <path id="h" d="m0 0v3.5" stroke="#000" stroke-width=".8"/>
      </defs>
      <use x="115.805321" y="259.777732" stroke="#000000" stroke-width=".8" xlink:href="#h"/>
     </g>
    </g>
    <g id="ak">
     <g id="al">
      <path d="m245.8 259.78v-232.9" clip-path="url(#b)" fill="none" stroke="#b0b0b0" stroke-linecap="square" stroke-opacity=".3" stroke-width=".8"/>
     </g>
     <g id="am">
      <use x="245.800434" y="259.777732" stroke="#000000" stroke-width=".8" xlink:href="#h"/>
     </g>
    </g>
    <g id="an">
     <g id="ao">
      <path d="m375.8 259.78v-232.9" clip-path="url(#b)" fill="none" stroke="#b0b0b0" stroke-linecap="square" stroke-opacity=".3" stroke-width=".8"/>
     </g>
     <g id="ap">
      <use x="375.795546" y="259.777732" stroke="#000000" stroke-width=".8" xlink:href="#h"/>
     </g>
    </g>
    <g id="aq">
     <g id="ar">
      <path d="m505.79 259.78v-232.9" clip-path="url(#b)" fill="none" stroke="#b0b0b0" stroke-linecap="square" stroke-opacity=".3" stroke-width=".8"/>
     </g>
     <g id="as">
      <use x="505.790658" y="259.777732" stroke="#000000" stroke-width=".8" xlink:href="#h"/>
     </g>
    </g>
    <g id="at">
     <g id="au">
      <path d="m635.79 259.78v-232.9" clip-path="url(#b)" fill="none" stroke="#b0b0b0" stroke-linecap="square" stroke-opacity=".3" stroke-width=".8"/>
     </g>
     <g id="av">
      <use x="635.78577" y="259.777732" stroke="#000000" stroke-width=".8" xlink:href="#h"/>
     </g>
    </g>
    <g id="aw">
     <g id="ax">
      <path d="m765.78 259.78v-232.9" clip-path="url(#b)" fill="none" stroke="#b0b0b0" stroke-linecap="square" stroke-opacity=".3" stroke-width=".8"/>
     </g>
     <g id="ay">
      <use x="765.780882" y="259.777732" stroke="#000000" stroke-width=".8" xlink:href="#h"/>
     </g>
    </g>
   </g>
   <g id="az">
    <g id="ba">
     <g id="bb">
      <path d="m52.09 246.84h801.11" clip-path="url(#b)" fill="none" stroke="#b0b0b0" stroke-linecap="square" stroke-opacity=".3" stroke-width=".8"/>
     </g>
     <g id="bc">
      <defs>
       <path id="f" d="m0 0h-3.5" stroke="#000" stroke-width=".8"/>
      </defs>
      <use x="52.09" y="246.842984" stroke="#000000" stroke-width=".8" xlink:href="#f"/>
     </g>
     <g id="bd">
      <!-- 300 -->
      <g transform="translate(27.99 250.83) scale(.1 -.1)">
       <defs>
        <path id="q" transform="scale(.015625)" d="m1715-90q-371 0-656 90t-503 240q-217 150-377 323l359 474q211-205 479-359 269-153 634-153 269 0 467 92 199 93 311 266t112 423q0 256-125 451t-429 300q-304 106-835 106v551q467 0 732 105 266 106 384 291 119 186 119 423 0 307-192 489-192 183-531 183-269 0-503-119-233-118-438-316l-384 460q282 256 614 413 333 157 737 157 422 0 748-144 327-144 512-413 186-269 186-659 0-403-221-685-221-281-592-422v-26q269-70 490-227t349-400 128-557q0-422-215-726-214-304-573-468-358-163-787-163z"/>
        <path id="a" transform="scale(.015625)" d="m1830-90q-460 0-806 275-346 276-535 823-188 547-188 1366 0 820 188 1357 189 538 535 803 346 266 806 266 461 0 800-269 340-269 528-803 189-534 189-1354 0-819-189-1366-188-547-528-823-339-275-800-275zm0 589q237 0 422 185 186 186 288 599 103 413 103 1091 0 679-103 1082-102 403-288 582-185 180-422 180-236 0-422-180-186-179-292-582-105-403-105-1082 0-678 105-1091 106-413 292-599 186-185 422-185z"/>
       </defs>
       <use xlink:href="#q"/>
       <use transform="translate(57)" xlink:href="#a"/>
       <use transform="translate(114)" xlink:href="#a"/>
      </g>
     </g>
    </g>
    <g id="be">
     <g id="bf">
      <path d="m52.09 219.75h801.11" clip-path="url(#b)" fill="none" stroke="#b0b0b0" stroke-linecap="square" stroke-opacity=".3" stroke-width=".8"/>
     </g>
     <g id="bg">
      <use x="52.09" y="219.745047" stroke="#000000" stroke-width=".8" xlink:href="#f"/>
     </g>
     <g id="bh">
      <!-- 600 -->
      <g transform="translate(27.99 223.73) scale(.1 -.1)">
       <defs>
        <path id="k" transform="scale(.015625)" d="m1971-90q-339 0-634 144-294 144-518 435-224 292-352 733-128 442-128 1044 0 678 147 1161 148 483 397 784 250 301 570 445t665 144q397 0 688-147 292-147 490-359l-403-448q-128 154-327 253-198 99-409 99-307 0-567-182-259-182-413-605-153-422-153-1145 0-608 115-1002t326-589q212-195 493-195 212 0 375 121 163 122 259 343t96 522q0 300-90 511-89 212-259 320-169 109-419 109-211 0-451-134t-458-461l-25 538q134 192 313 323t374 201q196 71 375 71 397 0 694-163 298-163 467-490 170-326 170-825 0-468-195-817-195-348-512-544-317-195-701-195z"/>
       </defs>
       <use xlink:href="#k"/>
       <use transform="translate(57)" xlink:href="#a"/>
       <use transform="translate(114)" xlink:href="#a"/>
      </g>
     </g>
    </g>
    <g id="bi">
     <g id="bj">
      <path d="m52.09 192.65h801.11" clip-path="url(#b)" fill="none" stroke="#b0b0b0" stroke-linecap="square" stroke-opacity=".3" stroke-width=".8"/>
     </g>
     <g id="bk">
      <use x="52.09" y="192.64711" stroke="#000000" stroke-width=".8" xlink:href="#f"/>
     </g>
     <g id="bl">
      <!-- 900 -->
      <g transform="translate(27.99 196.63) scale(.1 -.1)">
       <defs>
        <path id="o" transform="scale(.015625)" d="m1562-90q-410 0-708 150-297 151-502 356l403 461q141-160 346-256t422-96q224 0 425 102 202 103 352 333 151 230 237 614 87 384 87 941 0 589-115 970t-323 563-496 182q-205 0-372-118-166-118-262-336t-96-525q0-301 86-512 87-211 259-323 173-112 417-112 224 0 460 141 237 141 448 461l32-544q-134-180-313-314t-371-208-384-74q-391 0-689 166-297 167-467 496-169 330-169 823 0 467 195 816t515 541 698 192q339 0 636-138 298-137 519-419 221-281 349-710t128-1018q0-691-141-1187t-391-807q-249-310-563-461-313-150-652-150z"/>
       </defs>
       <use xlink:href="#o"/>
       <use transform="translate(57)" xlink:href="#a"/>
       <use transform="translate(114)" xlink:href="#a"/>
      </g>
     </g>
    </g>
    <g id="bm">
     <g id="bn">
      <path d="m52.09 165.55h801.11" clip-path="url(#b)" fill="none" stroke="#b0b0b0" stroke-linecap="square" stroke-opacity=".3" stroke-width=".8"/>
     </g>
     <g id="bo">
      <use x="52.09" y="165.549174" stroke="#000000" stroke-width=".8" xlink:href="#f"/>
     </g>
     <g id="bp">
      <!-- 1200 -->
      <g transform="translate(22.29 169.53) scale(.1 -.1)">
       <defs>
        <path id="g" transform="scale(.015625)" d="m544 0v608h1037v3277h-845v467q333 58 579 147 247 90 451 218h557v-4109h915v-608h-2694z"/>
        <path id="d" transform="scale(.015625)" d="m282 0v429q697 621 1164 1136 468 515 701 956 234 442 234 826 0 256-87 451-86 196-262 301-176 106-445 106-275 0-506-151-230-150-422-368l-416 410q301 333 637 518 336 186 803 186 429 0 749-176t496-493 176-745q0-455-224-919t-615-935q-390-470-889-950 186 20 394 36t374 16h1184v-634h-3046z"/>
       </defs>
       <use xlink:href="#g"/>
       <use transform="translate(57)" xlink:href="#d"/>
       <use transform="translate(114)" xlink:href="#a"/>
       <use transform="translate(171)" xlink:href="#a"/>
      </g>
     </g>
    </g>
    <g id="bq">
     <g id="br">
      <path d="m52.09 138.45h801.11" clip-path="url(#b)" fill="none" stroke="#b0b0b0" stroke-linecap="square" stroke-opacity=".3" stroke-width=".8"/>
     </g>
     <g id="bs">
      <use x="52.09" y="138.451237" stroke="#000000" stroke-width=".8" xlink:href="#f"/>
     </g>
     <g id="bt">
      <!-- 1500 -->
      <g transform="translate(22.29 142.44) scale(.1 -.1)">
       <defs>
        <path id="c" transform="scale(.015625)" d="m1715-90q-365 0-653 90t-506 237q-217 147-383 307l352 480q134-134 294-246t361-183q202-70 452-70 262 0 473 118 212 119 333 346 122 227 122 541 0 460-247 716-246 256-649 256-224 0-384-64t-365-198l-365 237 141 2240h2387v-627h-1747l-109-1204q154 77 307 118 154 42 340 42 397 0 723-160t518-490q192-329 192-847 0-519-224-887t-586-560q-361-192-777-192z"/>
       </defs>
       <use xlink:href="#g"/>
       <use transform="translate(57)" xlink:href="#c"/>
       <use transform="translate(114)" xlink:href="#a"/>
       <use transform="translate(171)" xlink:href="#a"/>
      </g>
     </g>
    </g>
    <g id="bu">
     <g id="bv">
      <path d="m52.09 111.35h801.11" clip-path="url(#b)" fill="none" stroke="#b0b0b0" stroke-linecap="square" stroke-opacity=".3" stroke-width=".8"/>
     </g>
     <g id="bw">
      <use x="52.09" y="111.353301" stroke="#000000" stroke-width=".8" xlink:href="#f"/>
     </g>
     <g id="bx">
      <!-- 1800 -->
      <g transform="translate(22.29 115.34) scale(.1 -.1)">
       <defs>
        <path id="x" transform="scale(.015625)" d="m1830-90q-441 0-787 163-345 164-547 448-202 285-202 650 0 314 122 557t314 419 403 291v32q-256 186-442 458-185 272-185 643 0 365 176 640t480 425q304 151 694 151 410 0 704-160t457-439q164-278 164-649 0-237-96-448t-234-381q-137-169-291-278v-32q218-115 397-285 179-169 288-406t109-557q0-346-189-628-189-281-532-448-342-166-803-166zm314 2708q205 198 310 419 106 221 106 464 0 211-83 384t-247 272q-163 99-393 99-288 0-480-183-192-182-192-502 0-256 134-429 135-172 359-294t486-230zm-294-2170q236 0 418 89 183 90 285 253 103 164 103 388 0 211-90 367-89 157-246 272-157 116-368 215t-454 195q-244-173-398-426-153-252-153-553 0-237 118-416 119-179 324-282 205-102 461-102z"/>
       </defs>
       <use xlink:href="#g"/>
       <use transform="translate(57)" xlink:href="#x"/>
       <use transform="translate(114)" xlink:href="#a"/>
       <use transform="translate(171)" xlink:href="#a"/>
      </g>
     </g>
    </g>
    <g id="by">
     <g id="bz">
      <path d="m52.09 84.255h801.11" clip-path="url(#b)" fill="none" stroke="#b0b0b0" stroke-linecap="square" stroke-opacity=".3" stroke-width=".8"/>
     </g>
     <g id="ca">
      <use x="52.09" y="84.255364" stroke="#000000" stroke-width=".8" xlink:href="#f"/>
     </g>
     <g id="cb">
      <!-- 2100 -->
      <g transform="translate(22.29 88.241) scale(.1 -.1)">
       <use xlink:href="#d"/>
       <use transform="translate(57)" xlink:href="#g"/>
       <use transform="translate(114)" xlink:href="#a"/>
       <use transform="translate(171)" xlink:href="#a"/>
      </g>
     </g>
    </g>
    <g id="cc">
     <g id="cd">
      <path d="m52.09 57.157h801.11" clip-path="url(#b)" fill="none" stroke="#b0b0b0" stroke-linecap="square" stroke-opacity=".3" stroke-width=".8"/>
     </g>
     <g id="ce">
      <use x="52.09" y="57.157428" stroke="#000000" stroke-width=".8" xlink:href="#f"/>
     </g>
     <g id="cf">
      <!-- 2400 -->
      <g transform="translate(22.29 61.143) scale(.1 -.1)">
       <defs>
        <path id="p" transform="scale(.015625)" d="m2170 0v3072q0 192 12 457 13 266 20 458h-26q-90-179-183-365-92-185-195-364l-921-1415h2579v-576h-3328v493l1875 2957h858v-4717h-691z"/>
       </defs>
       <use xlink:href="#d"/>
       <use transform="translate(57)" xlink:href="#p"/>
       <use transform="translate(114)" xlink:href="#a"/>
       <use transform="translate(171)" xlink:href="#a"/>
      </g>
     </g>
    </g>
    <g id="cg">
     <g id="ch">
      <path d="m52.09 30.059h801.11" clip-path="url(#b)" fill="none" stroke="#b0b0b0" stroke-linecap="square" stroke-opacity=".3" stroke-width=".8"/>
     </g>
     <g id="ci">
      <use x="52.09" y="30.059491" stroke="#000000" stroke-width=".8" xlink:href="#f"/>
     </g>
     <g id="cj">
      <!-- 2700 -->
      <g transform="translate(22.29 34.045) scale(.1 -.1)">
       <defs>
        <path id="j" transform="scale(.015625)" d="m1235 0q32 646 109 1187t224 1024 384 941 576 938h-2208v627h3027v-455q-409-512-665-989-256-476-397-969t-205-1053-90-1251h-755z"/>
       </defs>
       <use xlink:href="#d"/>
       <use transform="translate(57)" xlink:href="#j"/>
       <use transform="translate(114)" xlink:href="#a"/>
       <use transform="translate(171)" xlink:href="#a"/>
      </g>
     </g>
    </g>
   </g>
   <g id="ck">
    <path d="m88.504 221.46.12864.18065.1136-.36131.46943.36131.23923-.090327.63869-.90326 1.3549-3.3421 1.3774-5.3293.67405-1.3549.67856-.18065.63794-1.7162.67706-1.2646.67706-2.1678.67706-2.8904.67706-.63229.67706-3.3421.67706-2.4388.67706-3.4324.67706-2.7098.67706-3.4324 1.3541-4.5163.67706-1.4452.67706-.81294.67706-2.0775.67706-5.5099 2.0312-25.201 2.7082-45.434.67706-8.852 1.3541-29.717.67706-5.5099.67706-2.4388.67706-.81294.67706 2.7098.67706 1.6259 2.0312 25.833.67706 8.1294 2.7082 44.983 2.0312 26.556 1.3541 13.91 1.3541 11.381.67706 4.8776.67706 5.6906.67706 4.426.67706 2.8001.67706 4.0647.67706 2.8904.67706 3.7937.67706 1.9872.67706 3.3421 2.0312 6.7745.67706 2.5291.67706 1.6259.67706 3.6131.67706 1.1742.67706 1.8065 1.3541 1.7162.67706 1.1742.67706.27098.67706 1.3549.67706.54196 1.3541.27098 1.3541-.45163 2.0312-2.9808.67706-.27098.67706-.99359.67706-.45163 1.3541-3.5227 1.3541-4.0647.67706.27098.67706-.18065.67706-2.8904.67706-1.6259.67706-.81294 1.3541-2.8904.67706-3.2518.67706-1.8065.67706-.63228 2.0312-4.426.67706-4.0647.67706-2.5291.67706-3.7937.67706-2.4388 1.3541-5.6906.67706-1.4452m1.3541 20.233.67706-12.736.67706-2.4388.67706-1.4452 2.0312-13.91.67706-6.2325.67706-8.6713 1.3541-20.956.67706-12.736.67706-16.891 1.3541-21.227.67706-11.02 1.3541-15.265.67706-3.884.67706.45163.67706-1.2646.67706 1.8065 1.3541 9.123 1.3541 21.949.67706 7.2261 1.3541 21.588 4.0623 45.976 1.3541 13.007 3.3853 23.937.67706 3.6131.67706 2.1678.67706 2.6195 1.3541 3.3421 1.3541 5.1486 1.3541 5.9615 1.3541 3.2518.67706.45163.67706.90326.67706 1.3549.67706.63228 2.0312 4.697.67706-.45163.67706.36131h.67706l.67706.54196.67706-1.3549.67706.18065.67706-.3613.67706-.54196.67706-.27098.67706-.63229.67706.090327.67706-.54196.67706-2.1678.67706-1.5356.67706-.90326.67706-1.7162.67706-2.1678.67706-.99359.67706-1.6259.67706-1.0839.67706-2.3485.67706-1.2646.67706-2.8001.67706-1.0839.67706-3.3421.67706-1.7162.67706-3.4324.67706-.99359 1.3541-2.8001.67706-2.3485.67706-1.4452.67706-3.4324.67706-2.8001.67706-1.8969.67706-.45163.67706-3.2518.67706-1.1742.67706-2.4388.67706-1.4452.67706-1.8065.67706-1.4452 2.0312-19.42 2.0312-28.633.67706-14.272.67706-9.4843.67706-11.652 1.3541-17.072 1.3541-12.555 1.3541-4.6066.67706 1.0839.67706 3.884.67706 8.31 4.0623 59.344 2.0312 22.311.67706 5.4196 1.3541 13.188.67706 5.8712.67706 7.2261 2.0312 15.175.67706 4.0647.67706 3.2518.67706 3.884.67706 2.3485.67706 3.5227 2.0312 6.2325.67706 2.8904.67706 1.8969.67706 2.2582 1.3541 2.5291.67706.72261.67706 1.1742.67706.63228h.67706l.90274.27098.22569.27098.22569.45163.22569.18065.45137-.090326.45137-.54196.45137.45163.22569-.090326.45137.27098.45137-.63228.22569-.54196.22569.18065.22568-.81294.22569-.18065h.22569l.22569.18065.22569-.18065.22569.090327.22569-.45163.22569.36131.67706-1.2646.22569.18065.22569-.090327.22569-.45163.22569.090326.45137-.81294.22569-.18065.45137-.90326.22569-.090327.45137-.54196.22569-.090327.22568-.54196.22569-.90326.22569.090326.45137-.45163.22569.090327.67706-.81294.22569-.45163.67706-2.8001h.22569l.90274-2.4388.22569-.90326.22569-.18065.22569-.54196h.22569l.45137-1.1742.22568-.090327.67706-2.4388.22569-.27098.22569-.54196.22569-1.0839.22569-.090326 1.3541-5.0583.45137-1.2646.22569-.18065.45137-.81294.22569-.45163.22569.18065.45137-2.1678.22569-.36131.22569-1.0839.45137-.72261.22569-1.4452.22569-.63229.22569-1.0839.67706-.90326.22569-1.2646.22569-.54196.22569-.090326.22569.18065.22569-.090327.45137-1.4452.67706-1.5356.22569-1.7162.22569.27098 1.1284-4.8776.22569-1.0839.22569-.45163.22569-1.1742.67706-.27098.22569-.45163.22569-.81294.22569.72261.22569-1.0839.22569.27098 1.3541-7.3164.22569-.18065.22569-1.1742 1.1284-10.568 1.8055-29.446.22569-8.1294.67706-9.394.45137-5.7809 1.1284-17.614.22569-2.6195.45137-9.9359.67706-8.31.22569-1.1742.90274-7.0455.22569.45163.67706-2.8001.22569-.18065.22569-.36131.22569-1.0839.22569-.090327.45137.90326.45137 3.9744.22569 1.8065 1.5798 21.498.45137 2.2582.67706 9.4843 1.5798 23.395.22569 2.6195.22569 1.0839 3.1596 35.86.67706 6.9551.67706 7.1358.90274 6.5035 1.1284 5.9615.45137 3.884.22569 1.0839.45137 2.8904.22569.54196 1.1284 5.6906.90274 4.3357.22569.27098.45137 1.2646 1.3541 5.1486.22569 1.1742.45137 1.2646.90274 4.5163.67706 1.7162.22569.81294.22569 1.7162.45137.45163.67706 2.4388.45137 1.1742.45137.36131.22569.63228.22569-.27098.22569.36131.45137 1.1742.22569.090327.67706 2.0775.45137.45163.22569.090327.22569.27098.22569-.090326.22569.45163.45137.090326.22569.27098.45137-.18065.22569.45163.22569-.36131.67706.36131.45137-.63228.22569-.45163.45137.18065.45137-.45163.67706-1.2646.67706-1.0839.45137.27098.45137-.27098.90274-.99359.45137.45163.45137-1.2646.90274-3.3421.45137-1.4452.45137-.27098.45137-.99359.90274-.36131.90274-2.1678.45137-.090326.45137-1.9872.45137-1.4452.45137-.27098.45137-.81294h.45137l.45137-1.1742.45137-2.2582.90274-2.1678.90274-2.6195.45137-1.6259.45137-2.3485.45137-.54196.90274-2.1678.45137-2.3485.45137-1.5356.45137.090327.45137-.90326.45137-.63228.45137-2.4388 1.3541-5.1486.45137-2.6195.45137-1.1742.45137-1.8065h.45137l.90274-3.2518.45137-.72261.90274-2.0775.45137-.99359.45137-1.9872.45137-.90326.45137-3.7937.45137-5.0583.45137-2.8001.90274-12.104.45137-5.9615 2.7082-51.757 1.3541-23.937 1.8055-20.052.45137-3.4324.45137-2.0775.45137-2.6195.45137-1.0839h.45137l.45137 1.1742.45137 1.8065.90274 5.6002.45137 2.0775 1.3541 16.801.45137-3.2518.90274 14.904.45137 4.7873 2.7082 36.131 1.8055 22.762.90274 11.833 3.1596 31.524.90274 5.7809.90274 4.0647.45137 1.6259.90274 5.6906.90274 3.0711.45137 2.6195.45137 1.1742.90274 3.9744.45137.90326.45137-.18065.45137.090326.45137.45163.45137 1.0839.45137.63228.45137 1.3549.45137-1.1742.45137-.45163.45137.63228.45137-.27098.45137.72261.45137-.3613.90274.27098.45137-1.3549.45137-.99359.90274.090327.45137-1.6259.45137-.90326.45137-1.4452.45137.3613.45137-1.3549.45137-.63229 1.8055-4.697.45137-.81294.45137-1.2646.45137-2.3485.45137-1.4452.45137-.99359.45137-1.2646.90274-5.2389.45137-3.884.45137-2.3485.45137-.90326 1.8055-9.7553 1.8055-6.9551.45137-.45163.45137-2.5291.45137-1.0839.90274-3.2518.45137-.63228.45137.36131.45137-.72261.45137-1.7162.45137-.81294.45137-1.3549.45137-.90326.45137-.36131.45137.27098.45137-.27098.45137.72261.45137 2.3485.45137-.090327.45137.18065.45137-.3613.45137-.63229.45137.72261.45137-.090326.45137-.27098.45137-1.4452h.90274l.45137-2.9808 1.8055-17.975.90274-12.375.45137-9.123.45137-12.646 1.3541-20.233 1.3541-20.323.45137-7.2261.90274-10.297.45137-7.4068.45137-3.4324.45137-.63228.45137-1.8065.45137-2.4388.45137-.3613.45137.54196.45137 1.5356.45137.54196.45137 3.7034.90274 3.0711.90274 7.3164.45137 8.0391.45137 5.0583.90274 7.3164.90274 11.471.90274 15.807 3.1596 40.918.45137 3.7937 2.2569 26.285 1.8055 17.433 1.3541 7.5874.45137 1.6259.90274 5.1486.45137 2.8904 1.3541 5.7809.45137 3.1614 1.3541 3.884.90274 2.2582.45137.63228.45137 2.0775.45137-.090326.45137.54196.90274 1.4452.45137.27098.45137.54196.90274-.36131.45137-.45163.45137-.63228.45137-1.3549.90274.090326.45137-1.1742.45137-1.7162.90274-1.1742.45137.18065.45137-2.0775.45137-1.0839.45137-1.9872.45137-.36131.45137-2.7098.45137-1.0839.45137-.36131.45137-.99359.45137-1.3549.45137-.81294.45137-3.4324.90274-9.4843.45137-2.5291 1.3541-11.11.45137-3.3421.45137-1.9872.45137-2.7098.45137-1.4452.90274-1.5355.90274-2.6195.45137-3.1614.45137-1.6259.45137-2.2582.45137-1.4452.90274-3.884.45137-.45163.45137-1.2646h.45137l.45137-1.2646.45137.81294.45137-1.8065.45137.36131.45137.81294.45137 1.2646.90274 1.1742.45137.63229.45137-.27098.45137 2.7098.90274 1.6259.45137 1.0839.45137.18065.45137 1.1742.45137-.45163.45137-1.2646 1.3541-10.207.45137-4.7873 1.3541-19.691.45137-8.31.90274-11.291.45137-6.4132.45137-4.7873.45137-8.1294.90274-9.7553.45137-2.8904.45137-2.0775.45137-4.426.45137-1.3549.45137 1.9872.45137.81294.45137.27098.45137 1.1742.45137 3.4324.45137 2.1678.45137 7.8584.45137 5.8712.45137 7.4068.45137 4.5163 1.8055 27.098.45137 3.0711.45137 7.0455.45137 3.7937 1.3541 18.698 1.3541 13.097.90274 11.2.90274 7.7681.45137 1.2646.45137 3.884.45137 2.8904.45137 4.0647 1.8055 7.8584.45137 1.5356 1.3541 8.0391.45137 2.1678.45137 1.4452.90274 1.5355.45137 2.7098.45137 1.2646.45137 1.8969.45137 1.3549.90274 2.1678.90274 1.8969.45137.72261.90274 2.1678.45137.90326.45137-.18065.45137.72261.45137.27098.45137.54196.45137.090327.45137-.090327.45137-.45163.45137-.090326.45137.45163.45137-.63228.45137-.090327.45137-.27098.45137.18065.45137.45163h.45137l.90274-.90326.45137.45163.45137-.81294.45137-.090327.45137-1.0839.45137.18065.45137-.090327.45137-1.6259.45137-.72261.45137-1.4452.90274-1.0839.90274-1.7162.90274-4.426.45137-.36131 1.3541-3.7937.45137-.54196 1.3541-3.2518.45137-.81294.45137-.090327.90274-2.3485.45137-.54196.45137-1.2646.45137-1.8969.90274-1.9872.45137-2.9808 1.3541-2.7098.45137-.36131.45137-1.0839.45137-.090327 1.3541-4.968.45137-2.3485 1.3541-4.155.45137-.81294.45137-.18065.45137-1.7162.45137-2.2582.45137-1.1742.45137-2.8904.90274-7.8584.90274-10.568 1.3541-15.717 2.7082-43.808.90274-10.297.45137-7.6777.90274-6.5035.90274-5.8712 1.3541-2.5291.45137 1.4452.45137 2.0775.90274 8.581.45137 8.4907.90274 10.026.45137 6.8648.45137 5.1486.90274 16.62 1.3541 16.801.45137 4.155.90274 11.2.90274 7.8584.45137 5.0583 2.2569 18.065 1.8055 11.381.90274 3.884.90274 3.7034.45137 2.4388.45137 1.6259.45137.99359.90274 2.8001.45137.72261 1.3541 3.884.45137 1.8969 1.8055 5.3293.45137.81294.45137 1.2646h.45137l.45137.45163.45137 1.5355.45137-.27098.45137.99359.45137.090326.45137 1.4452.90274.36131.45137.3613.90274.36131 1.3541-.54196.45137-.81294.45137-.27098.45137-.72261.90274.36131.45137-.18065.45137.27098.90274.090326.45137-.090326.45137.63228.45137-.36131.45137-1.3549.45137-1.8065.45137-.81294.45137-.54196.90274-1.4452.45137-.99359.45137-1.2646.45137-.45163 1.3541-2.8904.45137-2.7098.90274-2.9808.45137-.99359.45137-1.4452.90274-1.7162.90274-2.8001.90274-3.0711.45137-.27098h.45137l.45137-.72261.45137-1.2646.45137-1.8969.45137-.99359.90274-2.8904.45137-2.0775.45137-.72261.90274-2.8001.45137.18065.45137-2.1678.90274-2.8904.90274-4.155h.45137l.45137-1.1742.45137-1.5355.45137-2.1678.45137-.63228.45137-2.1678.90274-12.194.45137-4.697.90274-12.555 1.8055-35.95.45137-7.9487.45137-5.2389.45137-6.7745.45137-8.9423.45137-4.155 1.3541-8.7617.45137-2.8904.45137-.18065.45137-.81294.45137-.54196.45137 1.2646.45137 2.6195.90274 11.291.90274 6.7745.45137 6.3229.45137 4.697.45137 5.8712.90274 14.814 1.3541 19.42.45137 3.3421 2.2569 27.098 1.8055 14.272 1.3541 11.471.45137 3.2518.45137 1.8969.90274 5.6002 1.3541 5.5099 1.3541 6.3229.45137 1.1742 1.3541 5.4196.45137.90326.45137 1.2646.45137.36131.45137 1.2646.45137 1.8065.45137.81294.45137 1.0839 1.3541 1.5356.45137 1.0839.45137.63229.45137 1.4452.45137.81294.45137.36131.45137.72261.45137-.27098.45137.18065.45137-.36131.45137-.18065.45137-.54196m.90274 2.5291.45137 1.4452.45137-.090327.45137.27098.90274-1.6259.45137-.090326.45137-.54196.45137.18065.45137-.90326.45137.090327.90274-2.6195.45137-.81294h.45137l.45137-.90326.45137-2.1678.45137-.27098.45137-.99359.45137-1.5356.45137-.36131.45137-1.1742.45137-.72261.90274-3.1614.90274-3.0711.45137-1.0839.45137.18065.45137-1.1742.45137-2.7098.45137-1.3549.90274-3.2518.45137-2.6195.45137-1.5356.45137-2.2582.45137-.99359 1.3541-3.9744.45137-.36131.45137-.72261.45137-1.1742.45137.090327.45137-1.7162.45137-1.1742.45137.090326.45137-2.3485.90274-5.6906.45137-1.7162.90274.18065.45137-2.5291.45137-1.3549.45137-3.5227.45137-1.7162.45137-2.6195.45137-4.3357.45137-5.4196.45137-2.9808.90274-10.388.45137-5.9615.90274-16.801 2.7082-46.518.90274-9.3036.45137-4.5163.45137-2.3485.45137-5.4196.45137-.54196.90274.81294.45137 1.8969.90274 6.0519.45137 5.4196.90274 13.639.45137 6.8648.90274 11.562.90274 16.981.90274 11.291.45137 3.0711 4.0623 44.802.45137 4.2453.45137 2.6195.45137 1.8969.90274 5.0583.45137 2.2582.45137 3.1614.45137 1.9872.45137 2.5291 1.3541 5.6906.45137 2.3485.45137 1.6259.45137.72261.45137 1.6259.45137 2.1678.45137 1.2646.45137.63228 1.3541 5.1486.90274 2.5291.45137 1.1742 1.8055 2.7098.45137.45163.45137.99359.90274 2.8001.45137.72261.90274.63228.45137-.45163.45137-.81294.45137-.3613.45137.54196.45137-.90326.45137.090326.45137.72261.45137-.54196.45137.45163.90274-.99359.45137-.54196 1.3541-2.6195.45137-.54196.90274-2.2582.45137-.72261.90274-2.8904.45137.27098.45137-1.6259.45137-.54196.45137-.90326.90274-2.3485.45137-.54196.90274-2.0775.45137-2.1678.45137-.45163.45137-1.3549.90274-3.1614.90274-1.6259.45137-1.4452.45137-.81294.90274-2.8904.45137-.90326 2.2569-5.7809.45137-2.5291.45137-.36131.45137-1.2646.45137-2.8001.45137-1.4452.45137-.90326.45137-1.4452.45137-.45163.45137-.18065.45137-1.1742.45137-2.7098.90274-6.9551.90274-5.6906.90274-12.555 2.2569-26.195 1.3541-21.136.45137-4.697.45137-8.2197.45137-5.3293.90274-16.71.90274-11.652.45137-5.0583.45137-2.8904.45137-.36131.45137-5.3293.45137-2.2582.45137-.090327.90274 2.4388.45137 5.2389.45137 9.5746 2.2569 32.337.45137 10.297 1.3541 18.517.45137 7.0455 3.611 38.569 1.3541 12.194.45137 2.8001 1.8055 13.82 1.3541 6.1422.45137 1.2646.45137 1.6259.90274 4.155.90274 3.0711.90274 3.5227.90274 2.6195.45137 1.8969.45137.99359.45137 2.0775.45137-.090327.90274 2.5291.90274 1.5356.45137.3613.45137 1.0839.45137-.18065.90274 1.0839.90274 1.2646.45137.54196.45137-.18065.45137.54196 1.3541-.18065.90274-.81294.90274-.36131.45137-1.2646.45137-.18065h.45137l.45137-.45163.45137.54196.45137.090326.45137-.54196.90274-2.5291.45137-1.7162 2.7082-6.8648.45137-.63228.45137-1.4452h.45137l.90274-1.8065.45137-1.7162.45137-.45163.90274-3.9744.45137.090326.45137-.72261.45137-.36131.45137-1.3549.45137-.090326.45137-2.3485.45137-1.6259.90274-4.7873.45137-1.5355.45137-.90326.45137-.45163.90274-2.5291.45137-.36131.45137-.99359.45137-2.8904 1.3541-4.2453.90274-2.6195.45137-.090326v0" clip-path="url(#b)" fill="none" stroke="#28f" stroke-linecap="square" stroke-width="1.5"/>
   </g>
   <g id="cl">
    <path d="m52.09 259.78v-232.9" fill="none" stroke="#000" stroke-linecap="square" stroke-width=".8"/>
   </g>
   <g id="cm">
    <path d="m853.2 259.78v-232.9" fill="none" stroke="#000" stroke-linecap="square" stroke-width=".8"/>
   </g>
   <g id="cn">
    <path d="m52.09 259.78h801.11" fill="none" stroke="#000" stroke-linecap="square" stroke-width=".8"/>
   </g>
   <g id="co">
    <path d="m52.09 26.88h801.11" fill="none" stroke="#000" stroke-linecap="square" stroke-width=".8"/>
   </g>
   <g id="cp">
    <!-- 同時接続数の推移 -->
    <g transform="translate(404.64 20.88) scale(.12 -.12)">
     <defs>
      <path id="w" transform="scale(.015625)" d="m1587 3936h3232v-518h-3232v518zm320-1114h557v-2534h-557v2534zm301 0h2291v-2086h-2291v512h1734v1069h-1734v505zm-1683 2260h5113v-570h-4524v-5056h-589v5626zm4768 0h595v-4896q0-250-67-397t-227-218q-160-77-426-96t-675-19q-13 83-45 192t-77 218q-45 108-89 185 281-13 527-13 247 0 330 0 83 7 118 42 36 35 36 112v4890z"/>
      <path id="u" transform="scale(.015625)" d="m2714 4672h3238v-525h-3238v525zm-244-1235h3712v-538h-3712v538zm20-1184h3635v-531h-3635v531zm1523 3155h595v-2310h-595v2310zm832-2451h589v-2823q0-230-61-364-61-135-227-199-167-70-423-86t-633-16q-20 121-78 285-57 163-121 284 275-6 509-9t310-3q77 6 106 28 29 23 29 93v2810zm-2023-1677 487 282q153-160 313-352t294-381q135-189 206-343l-519-313q-64 153-189 348-124 196-278 394-154 199-314 365zm-2086 3718h1619v-4281h-1619v544h1056v3187h-1056v550zm32-1843h1293v-537h-1293v537zm-320 1843h563v-4832h-563v4832z"/>
      <path id="v" transform="scale(.015625)" d="m3866 5408h614v-870h-614v870zm-1479-653h3597v-518h-3597v518zm-230-1485h4e3v-518h-4e3v518zm825 922 519 102q64-160 121-342 58-182 96-352 39-170 45-304l-544-128q-6 134-42 313-35 180-83 365-48 186-112 346zm1856 109 589-71q-96-275-202-557-105-281-195-486l-518 77q58 147 122 329 64 183 118 372t86 336zm-2643-2106h3943v-518h-3943v518zm1408 685 602-115q-167-371-362-784t-390-797-362-685l-525 179q160 288 346 666t368 784 323 752zm-659-2157 358 403q352-102 733-240 381-137 752-304 371-166 697-336 327-169 558-329l-384-461q-218 160-532 336-313 176-685 345-371 170-755 323-384 154-742 263zm1894 1114 583-71q-122-550-353-944-230-393-604-662t-922-435q-547-167-1296-269-25 128-93 269-67 141-137 230 678 64 1168 192t819 349q330 221 531 550 202 330 304 791zm-4684 217q396 90 953 240 557 151 1120 311l77-544q-525-154-1053-311-528-156-963-284l-134 588zm121 2093h1965v-563h-1965v563zm819 1248h576v-5229q0-236-51-374t-192-208q-141-77-355-99-214-23-541-16-13 115-64 288t-109 294q205-6 381-6t234 0q64 0 92 28 29 29 29 93v5229z"/>
      <path id="t" transform="scale(.015625)" d="m4058 5408h595v-1798h-595v1798zm-1415-563h3443v-499h-3443v499zm231-992h3008v-499h-3008v499zm-224-877h3475v-1203h-531v729h-2432v-729h-512v1203zm1964-877h551v-1881q0-122 22-157 23-35 106-35 25 0 92 0 68 0 135 0t99 0q51 0 83 54t45 224 19 515q90-70 234-131t259-93q-19-429-83-662-64-234-183-326-118-93-316-93-39 0-103 0t-134 0-138 0q-67 0-99 0-237 0-365 64t-176 218q-48 153-48 422v1881zm-1164-6h550v-455q0-243-48-528-48-284-186-579-137-294-409-572-272-279-727-503-70 90-192 208-121 118-230 195 416 205 665 438 250 234 371 474 122 240 164 467 42 228 42 413v442zm-2240 3309 524-192q-121-244-259-503-137-259-275-496t-259-416l-410 173q122 186 246 438 125 253 240 515 116 263 193 481zm716-743 500-230q-224-359-496-756-272-396-548-764-275-368-518-650l-358 205q179 211 377 483 199 272 387 569 189 298 358 592 170 295 298 551zm-1721-665 307 403q166-154 339-340 173-185 320-364t224-327l-326-460q-77 160-218 348-141 189-314 384-172 196-332 356zm1485-832 435 179q128-211 249-458 122-246 215-474 93-227 137-412l-473-211q-32 185-119 422-86 237-201 486-115 250-243 468zm-1530-583q422 26 998 54 576 29 1184 68l7-499q-570-45-1127-84-556-38-992-70l-70 531zm1702-992 436 135q121-276 214-596t118-556l-454-148q-26 237-112 563-86 327-202 602zm-1363 109 499-83q-57-455-163-897-105-441-253-748-51 32-134 73-83 42-170 83-86 42-144 62 148 294 234 697t131 813zm691 627h525v-2861h-525v2861z"/>
      <path id="m" transform="scale(.015625)" d="m224 2022h3187v-499h-3187v499zm51 2247h3111v-487h-3111v487zm1127-1735 563-121q-154-320-333-672t-352-679q-173-326-326-582l-532 173q148 243 324 566t345 669q170 346 311 646zm934-832 563-64q-89-480-262-838t-461-614-701-432-976-298q-25 128-99 269t-157 237q659 102 1085 303 426 202 666 554t342 883zm422 3597 519-211q-147-218-298-436-150-217-278-377l-403 186q121 173 252 413 132 240 208 425zm-1203 109h563v-2957h-563v2957zm-1075-320 448 186q134-192 246-420 112-227 157-393l-467-211q-38 172-147 406t-237 432zm1094-1050 397-236q-160-263-400-529-240-265-519-489-278-224-553-378-51 103-141 237-89 135-179 218 269 109 534 294 266 186 493 416 228 231 368 467zm487-204q83-45 246-145 163-99 352-211t346-211 221-150l-327-423q-83 77-230 198-147 122-317 253-170 132-327 250-156 119-259 189l295 250zm1798 396h2311v-556h-2311v556zm115 1178 615-90q-103-640-263-1235t-384-1101q-224-505-512-889-44 57-134 134t-186 157-166 125q275 339 473 796 199 458 340 995 141 538 217 1108zm1223-1510 614-58q-147-1101-445-1940-297-838-813-1443-515-604-1321-1014-26 71-90 177-64 105-134 208-70 102-128 159 742 346 1212 880 471 535 730 1290 260 755 375 1741zm-1005-135q134-851 387-1597 253-745 659-1305 407-560 1002-874-70-57-154-150-83-93-154-189-70-96-121-179-633 371-1056 988-422 618-688 1434-265 816-425 1783l550 89zm-3309-3065 327 416q377-148 754-330 378-182 701-378 324-195 548-368l-416-435q-211 179-519 378-307 198-666 383-358 186-729 334z"/>
      <path id="s" transform="scale(.015625)" d="m3686 4378q-64-493-163-1041-99-547-265-1084-192-653-432-1104t-522-688-595-237q-320 0-596 221-275 221-448 621-172 400-172 931 0 537 220 1017 221 480 611 851 391 372 909 583 519 211 1121 211 576 0 1040-186 464-185 793-515 330-329 502-771 173-441 173-941 0-672-278-1194-278-521-816-851-538-329-1318-444l-378 601q166 20 307 42t263 48q307 70 585 217 279 148 496 375 218 227 342 534 125 308 125 692t-122 713q-121 330-358 573-236 243-582 380-346 138-781 138-525 0-935-186-409-185-694-489-284-304-432-656-147-352-147-678 0-365 89-605 90-240 224-355 135-115 276-115t288 144 297 457q151 314 298 800 147 461 246 982 100 522 145 1021l684-12z"/>
      <path id="n" transform="scale(.015625)" d="m2995 2925h2893v-519h-2893v519zm0-1280h2893v-519h-2893v519zm-64-1299h3232v-557h-3232v557zm1312 3577h563v-3763h-563v3763zm429 1466 634-141q-154-390-340-794-185-403-339-684l-512 140q103 199 208 458 106 259 195 528 90 269 154 493zm-1472 25 582-147q-153-518-371-1018-217-499-483-931t-573-758q-38 64-109 160-70 96-147 198-77 103-141 160 416 416 733 1034t509 1302zm128-1203h2720v-537h-2720v-4205h-582v4422l313 320h269zm-3174-2157q396 90 953 240 557 151 1120 311l77-544q-525-154-1053-311-528-156-963-284l-134 588zm121 2093h1965v-563h-1965v563zm819 1248h576v-5229q0-236-51-374t-192-208q-141-77-355-99-214-23-541-16-13 115-64 288t-109 294q205-6 381-6t234 0q64 0 92 28 29 29 29 93v5229z"/>
      <path id="l" transform="scale(.015625)" d="m4051 5402 595-109q-281-493-729-941t-1107-806q-39 64-106 144t-141 153q-73 74-137 119 608 288 1011 678t614 762zm-77-557h1511v-493h-1863l352 493zm1293 0h109l109 25 384-179q-192-505-496-905t-695-701q-390-301-845-519-454-217-947-358-44 109-137 253t-176 227q448 109 867 294 419 186 777 445 359 259 631 592t419 730v96zm-1990-954 377 307q167-96 336-218 170-121 320-249 151-128 247-237l-397-332q-90 108-237 236t-317 259q-169 132-329 234zm1107-934 595-109q-307-538-803-1031-496-492-1232-876-38 64-102 144t-138 156q-74 77-138 116 455 217 807 483t604 554q253 288 407 563zm-90-589h1460v-506h-1818l358 506zm1268 0h121l109 26 384-167q-192-614-531-1075t-787-794q-448-332-983-553-534-221-1129-355-45 115-132 269-86 153-176 249 551 96 1043 285 493 189 903 473 410 285 714 669t464 883v90zm-2132-1056 410 339q186-102 384-237 198-134 371-275t282-269l-435-371q-103 128-270 272-166 144-361 288t-381 253zm-2150 3533h589v-5376h-589v5376zm-992-1242h2336v-569h-2336v569zm1024-224 365-160q-96-339-231-707-134-368-291-727-157-358-336-672-179-313-365-537-44 128-134 291t-160 272q173 192 339 457 167 266 323 570 157 304 282 618t208 595zm941 1946 416-467q-314-122-695-221-380-99-784-173-403-74-780-131-20 102-71 236-51 135-102 231 358 58 732 138 375 80 711 179t573 208zm-397-2579q58-45 179-170 122-125 266-266 144-140 259-265t160-183l-352-473q-58 102-157 255-99 154-218 317-118 164-227 311-108 147-185 237l275 237z"/>
     </defs>
     <use xlink:href="#w"/>
     <use transform="translate(100)" xlink:href="#u"/>
     <use transform="translate(200)" xlink:href="#v"/>
     <use transform="translate(300)" xlink:href="#t"/>
     <use transform="translate(400)" xlink:href="#m"/>
     <use transform="translate(500)" xlink:href="#s"/>
     <use transform="translate(600)" xlink:href="#n"/>
     <use transform="translate(700)" xlink:href="#l"/>
    </g>
   </g>
  </g>
  <g id="cq">
   <g id="cr">
    <path d="m52.09 523.06h801.11v-232.9h-801.11z" fill="#fff"/>
   </g>
   <g id="cs">
    <path d="m163.88 523.06h1.3541v-232.9h-1.3541z" clip-path="url(#e)" fill="#808080" opacity=".3" stroke="#808080"/>
   </g>
   <g id="ct">
    <path d="m662.42 523.06h.90274v-232.9h-.90274z" clip-path="url(#e)" fill="#808080" opacity=".3" stroke="#808080"/>
   </g>
   <g id="cu">
    <g id="cv">
     <g id="cw">
      <path d="m115.81 523.06v-232.9" clip-path="url(#e)" fill="none" stroke="#b0b0b0" stroke-linecap="square" stroke-opacity=".3" stroke-width=".8"/>
     </g>
     <g id="cx">
      <use x="115.805321" y="523.055464" stroke="#000000" stroke-width=".8" xlink:href="#h"/>
     </g>
     <g id="cy">
      <!-- 2025-07-01 -->
      <g transform="translate(69.016 563.33) rotate(-30) scale(.1 -.1)">
       <defs>
        <path id="i" transform="scale(.015625)" d="m301 1536v544h1689v-544h-1689z"/>
       </defs>
       <use xlink:href="#d"/>
       <use transform="translate(57)" xlink:href="#a"/>
       <use transform="translate(114)" xlink:href="#d"/>
       <use transform="translate(171)" xlink:href="#c"/>
       <use transform="translate(228)" xlink:href="#i"/>
       <use transform="translate(263.7)" xlink:href="#a"/>
       <use transform="translate(320.7)" xlink:href="#j"/>
       <use transform="translate(377.7)" xlink:href="#i"/>
       <use transform="translate(413.4)" xlink:href="#a"/>
       <use transform="translate(470.4)" xlink:href="#g"/>
      </g>
     </g>
    </g>
    <g id="cz">
     <g id="da">
      <path d="m245.8 523.06v-232.9" clip-path="url(#e)" fill="none" stroke="#b0b0b0" stroke-linecap="square" stroke-opacity=".3" stroke-width=".8"/>
     </g>
     <g id="db">
      <use x="245.800434" y="523.055464" stroke="#000000" stroke-width=".8" xlink:href="#h"/>
     </g>
     <g id="dc">
      <!-- 2025-07-03 -->
      <g transform="translate(199.01 563.33) rotate(-30) scale(.1 -.1)">
       <use xlink:href="#d"/>
       <use transform="translate(57)" xlink:href="#a"/>
       <use transform="translate(114)" xlink:href="#d"/>
       <use transform="translate(171)" xlink:href="#c"/>
       <use transform="translate(228)" xlink:href="#i"/>
       <use transform="translate(263.7)" xlink:href="#a"/>
       <use transform="translate(320.7)" xlink:href="#j"/>
       <use transform="translate(377.7)" xlink:href="#i"/>
       <use transform="translate(413.4)" xlink:href="#a"/>
       <use transform="translate(470.4)" xlink:href="#q"/>
      </g>
     </g>
    </g>
    <g id="dd">
     <g id="de">
      <path d="m375.8 523.06v-232.9" clip-path="url(#e)" fill="none" stroke="#b0b0b0" stroke-linecap="square" stroke-opacity=".3" stroke-width=".8"/>
     </g>
     <g id="df">
      <use x="375.795546" y="523.055464" stroke="#000000" stroke-width=".8" xlink:href="#h"/>
     </g>
     <g id="dg">
      <!-- 2025-07-05 -->
      <g transform="translate(329.01 563.33) rotate(-30) scale(.1 -.1)">
       <use xlink:href="#d"/>
       <use transform="translate(57)" xlink:href="#a"/>
       <use transform="translate(114)" xlink:href="#d"/>
       <use transform="translate(171)" xlink:href="#c"/>
       <use transform="translate(228)" xlink:href="#i"/>
       <use transform="translate(263.7)" xlink:href="#a"/>
       <use transform="translate(320.7)" xlink:href="#j"/>
       <use transform="translate(377.7)" xlink:href="#i"/>
       <use transform="translate(413.4)" xlink:href="#a"/>
       <use transform="translate(470.4)" xlink:href="#c"/>
      </g>
     </g>
    </g>
    <g id="dh">
     <g id="di">
      <path d="m505.79 523.06v-232.9" clip-path="url(#e)" fill="none" stroke="#b0b0b0" stroke-linecap="square" stroke-opacity=".3" stroke-width=".8"/>
     </g>
     <g id="dj">
      <use x="505.790658" y="523.055464" stroke="#000000" stroke-width=".8" xlink:href="#h"/>
     </g>
     <g id="dk">
      <!-- 2025-07-07 -->
      <g transform="translate(459 563.33) rotate(-30) scale(.1 -.1)">
       <use xlink:href="#d"/>
       <use transform="translate(57)" xlink:href="#a"/>
       <use transform="translate(114)" xlink:href="#d"/>
       <use transform="translate(171)" xlink:href="#c"/>
       <use transform="translate(228)" xlink:href="#i"/>
       <use transform="translate(263.7)" xlink:href="#a"/>
       <use transform="translate(320.7)" xlink:href="#j"/>
       <use transform="translate(377.7)" xlink:href="#i"/>
       <use transform="translate(413.4)" xlink:href="#a"/>
       <use transform="translate(470.4)" xlink:href="#j"/>
      </g>
     </g>
    </g>
    <g id="dl">
     <g id="dm">
      <path d="m635.79 523.06v-232.9" clip-path="url(#e)" fill="none" stroke="#b0b0b0" stroke-linecap="square" stroke-opacity=".3" stroke-width=".8"/>
     </g>
     <g id="dn">
      <use x="635.78577" y="523.055464" stroke="#000000" stroke-width=".8" xlink:href="#h"/>
     </g>
     <g id="do">
      <!-- 2025-07-09 -->
      <g transform="translate(589 563.33) rotate(-30) scale(.1 -.1)">
       <use xlink:href="#d"/>
       <use transform="translate(57)" xlink:href="#a"/>
       <use transform="translate(114)" xlink:href="#d"/>
       <use transform="translate(171)" xlink:href="#c"/>
       <use transform="translate(228)" xlink:href="#i"/>
       <use transform="translate(263.7)" xlink:href="#a"/>
       <use transform="translate(320.7)" xlink:href="#j"/>
       <use transform="translate(377.7)" xlink:href="#i"/>
       <use transform="translate(413.4)" xlink:href="#a"/>
       <use transform="translate(470.4)" xlink:href="#o"/>
      </g>
     </g>
    </g>
    <g id="dp">
     <g id="dq">
      <path d="m765.78 523.06v-232.9" clip-path="url(#e)" fill="none" stroke="#b0b0b0" stroke-linecap="square" stroke-opacity=".3" stroke-width=".8"/>
     </g>
     <g id="dr">
      <use x="765.780882" y="523.055464" stroke="#000000" stroke-width=".8" xlink:href="#h"/>
     </g>
     <g id="ds">
      <!-- 2025-07-11 -->
      <g transform="translate(718.99 563.33) rotate(-30) scale(.1 -.1)">
       <use xlink:href="#d"/>
       <use transform="translate(57)" xlink:href="#a"/>
       <use transform="translate(114)" xlink:href="#d"/>
       <use transform="translate(171)" xlink:href="#c"/>
       <use transform="translate(228)" xlink:href="#i"/>
       <use transform="translate(263.7)" xlink:href="#a"/>
       <use transform="translate(320.7)" xlink:href="#j"/>
       <use transform="translate(377.7)" xlink:href="#i"/>
       <use transform="translate(413.4)" xlink:href="#g"/>
       <use transform="translate(470.4)" xlink:href="#g"/>
      </g>
     </g>
    </g>
   </g>
   <g id="dt">
    <g id="du">
     <g id="dv">
      <path d="m52.09 507.29h801.11" clip-path="url(#e)" fill="none" stroke="#b0b0b0" stroke-linecap="square" stroke-opacity=".3" stroke-width=".8"/>
     </g>
     <g id="dw">
      <use x="52.09" y="507.291141" stroke="#000000" stroke-width=".8" xlink:href="#f"/>
     </g>
     <g id="dx">
      <!-- 104750 -->
      <g transform="translate(10.89 511.28) scale(.1 -.1)">
       <use xlink:href="#g"/>
       <use transform="translate(57)" xlink:href="#a"/>
       <use transform="translate(114)" xlink:href="#p"/>
       <use transform="translate(171)" xlink:href="#j"/>
       <use transform="translate(228)" xlink:href="#c"/>
       <use transform="translate(285)" xlink:href="#a"/>
      </g>
     </g>
    </g>
    <g id="dy">
     <g id="dz">
      <path d="m52.09 478.52h801.11" clip-path="url(#e)" fill="none" stroke="#b0b0b0" stroke-linecap="square" stroke-opacity=".3" stroke-width=".8"/>
     </g>
     <g id="ea">
      <use x="52.09" y="478.524129" stroke="#000000" stroke-width=".8" xlink:href="#f"/>
     </g>
     <g id="eb">
      <!-- 105000 -->
      <g transform="translate(10.89 482.51) scale(.1 -.1)">
       <use xlink:href="#g"/>
       <use transform="translate(57)" xlink:href="#a"/>
       <use transform="translate(114)" xlink:href="#c"/>
       <use transform="translate(171)" xlink:href="#a"/>
       <use transform="translate(228)" xlink:href="#a"/>
       <use transform="translate(285)" xlink:href="#a"/>
      </g>
     </g>
    </g>
    <g id="ec">
     <g id="ed">
      <path d="m52.09 449.76h801.11" clip-path="url(#e)" fill="none" stroke="#b0b0b0" stroke-linecap="square" stroke-opacity=".3" stroke-width=".8"/>
     </g>
     <g id="ee">
      <use x="52.09" y="449.757116" stroke="#000000" stroke-width=".8" xlink:href="#f"/>
     </g>
     <g id="ef">
      <!-- 105250 -->
      <g transform="translate(10.89 453.74) scale(.1 -.1)">
       <use xlink:href="#g"/>
       <use transform="translate(57)" xlink:href="#a"/>
       <use transform="translate(114)" xlink:href="#c"/>
       <use transform="translate(171)" xlink:href="#d"/>
       <use transform="translate(228)" xlink:href="#c"/>
       <use transform="translate(285)" xlink:href="#a"/>
      </g>
     </g>
    </g>
    <g id="eg">
     <g id="eh">
      <path d="m52.09 420.99h801.11" clip-path="url(#e)" fill="none" stroke="#b0b0b0" stroke-linecap="square" stroke-opacity=".3" stroke-width=".8"/>
     </g>
     <g id="ei">
      <use x="52.09" y="420.990104" stroke="#000000" stroke-width=".8" xlink:href="#f"/>
     </g>
     <g id="ej">
      <!-- 105500 -->
      <g transform="translate(10.89 424.98) scale(.1 -.1)">
       <use xlink:href="#g"/>
       <use transform="translate(57)" xlink:href="#a"/>
       <use transform="translate(114)" xlink:href="#c"/>
       <use transform="translate(171)" xlink:href="#c"/>
       <use transform="translate(228)" xlink:href="#a"/>
       <use transform="translate(285)" xlink:href="#a"/>
      </g>
     </g>
    </g>
    <g id="ek">
     <g id="el">
      <path d="m52.09 392.22h801.11" clip-path="url(#e)" fill="none" stroke="#b0b0b0" stroke-linecap="square" stroke-opacity=".3" stroke-width=".8"/>
     </g>
     <g id="em">
      <use x="52.09" y="392.223092" stroke="#000000" stroke-width=".8" xlink:href="#f"/>
     </g>
     <g id="en">
      <!-- 105750 -->
      <g transform="translate(10.89 396.21) scale(.1 -.1)">
       <use xlink:href="#g"/>
       <use transform="translate(57)" xlink:href="#a"/>
       <use transform="translate(114)" xlink:href="#c"/>
       <use transform="translate(171)" xlink:href="#j"/>
       <use transform="translate(228)" xlink:href="#c"/>
       <use transform="translate(285)" xlink:href="#a"/>
      </g>
     </g>
    </g>
    <g id="eo">
     <g id="ep">
      <path d="m52.09 363.46h801.11" clip-path="url(#e)" fill="none" stroke="#b0b0b0" stroke-linecap="square" stroke-opacity=".3" stroke-width=".8"/>
     </g>
     <g id="eq">
      <use x="52.09" y="363.456079" stroke="#000000" stroke-width=".8" xlink:href="#f"/>
     </g>
     <g id="er">
      <!-- 106000 -->
      <g transform="translate(10.89 367.44) scale(.1 -.1)">
       <use xlink:href="#g"/>
       <use transform="translate(57)" xlink:href="#a"/>
       <use transform="translate(114)" xlink:href="#k"/>
       <use transform="translate(171)" xlink:href="#a"/>
       <use transform="translate(228)" xlink:href="#a"/>
       <use transform="translate(285)" xlink:href="#a"/>
      </g>
     </g>
    </g>
    <g id="es">
     <g id="et">
      <path d="m52.09 334.69h801.11" clip-path="url(#e)" fill="none" stroke="#b0b0b0" stroke-linecap="square" stroke-opacity=".3" stroke-width=".8"/>
     </g>
     <g id="eu">
      <use x="52.09" y="334.689067" stroke="#000000" stroke-width=".8" xlink:href="#f"/>
     </g>
     <g id="ev">
      <!-- 106250 -->
      <g transform="translate(10.89 338.67) scale(.1 -.1)">
       <use xlink:href="#g"/>
       <use transform="translate(57)" xlink:href="#a"/>
       <use transform="translate(114)" xlink:href="#k"/>
       <use transform="translate(171)" xlink:href="#d"/>
       <use transform="translate(228)" xlink:href="#c"/>
       <use transform="translate(285)" xlink:href="#a"/>
      </g>
     </g>
    </g>
    <g id="ew">
     <g id="ex">
      <path d="m52.09 305.92h801.11" clip-path="url(#e)" fill="none" stroke="#b0b0b0" stroke-linecap="square" stroke-opacity=".3" stroke-width=".8"/>
     </g>
     <g id="ey">
      <use x="52.09" y="305.922055" stroke="#000000" stroke-width=".8" xlink:href="#f"/>
     </g>
     <g id="ez">
      <!-- 106500 -->
      <g transform="translate(10.89 309.91) scale(.1 -.1)">
       <use xlink:href="#g"/>
       <use transform="translate(57)" xlink:href="#a"/>
       <use transform="translate(114)" xlink:href="#k"/>
       <use transform="translate(171)" xlink:href="#c"/>
       <use transform="translate(228)" xlink:href="#a"/>
       <use transform="translate(285)" xlink:href="#a"/>
      </g>
     </g>
    </g>
   </g>
   <g id="fa">
    <path d="m88.504 512.47h.24224l.46943-.23014.23923-.23014h.63869l2.0304-.80548.70188-.46027 1.9906-.3452 1.3541.23014.67706-.3452.67706-.57534h.67706l1.3541-1.4959 1.3541-.23014 1.3541-1.0356.67706.11507h.67706l.67706.11507.67706-.11507.67706-.46027.67706-.69041.67706-1.1507 1.3541-1.0356h.67706l1.3541-1.0356.67706-.69041.67706-1.3808.67706-1.726.67706-1.0356 2.0312-1.611.67706-.3452.67706.11507.67706-.57534h.67706l.67706-.11507.67706.11507.67706-.46027h.67706l.67706-.57534.67706-.3452 1.3541-.23014 1.3541-.3452.67706-.11507.67706.23014.67706-.11507.67706.11507 2.7082-.46027h2.0312l.67706-.11507h.67706l1.3541-.23014h1.3541l.67706-.11507h.67706l.67706.11507h.67706l.67706-.11507h.67706l.67706.11507.67706-.11507h.67706l.67706.23014.67706-.23014h.67706l.67706-.11507h1.3541l.67706-.23014h1.3541l.67706-.46027 2.0312-.57534.67706-.11507 2.0312-.69041h.67706l1.3541-.69041.67706-.11507 2.0312-.57534.67706-.11507 1.3541-.57534 2.0312-.92054.67706-.11507.67706-.23014m1.3541-.69041.67706-.46027.67706-1.0356.67706-.57534.67706-.11507 3.3853-1.2657.67706-.46027.67706-1.4959.67706-.46027 1.3541-2.4164h.67706l.67706-.92054.67706-.69041.67706-.3452.67706-.80548 2.7082-1.8411.67706.11507 2.0312-1.3808.67706-.23014h.67706l2.7082-.46027.67706.23014h.67706l1.3541-.80548 1.3541-.23014.67706.11507.67706-.23014.67706.11507 1.3541-.23014.67706-.23014h1.3541l.67706.11507h.67706l.67706-.11507h.67706l.67706.11507h1.3541l.67706-.11507h1.3541l.67706.11507h.67706l1.3541-.3452 1.3541.3452.67706.11507 2.0312-.57534h.67706l.67706-.23014h.67706l.67706-.46027.67706-.11507.67706-.23014.67706-.57534h.67706l.67706.11507h1.3541l.67706.11507.67706-.11507.67706-.3452.67706-.11507h.67706l.67706-.11507.67706.23014 1.3541-.23014h1.3541l2.0312-1.2657.67706-.11507.67706-.46027.67706.11507 1.3541-.23014.67706.11507.67706-.46027.67706-.23014h1.3541l.67706-.80548 1.3541-.80548.67706-.80548 2.0312-.80548 1.3541-.80548.67706-1.1507.67706-.11507.67706-.46027.67706-1.2657 2.0312-1.9562.67706-.23014.67706.3452.67706-.23014.67706-.57534 2.7082-.80548.67706-.11507.67706.11507.67706-.3452.67706.11507h4.0623l.67706-.23014 1.3541.23014 1.3541-.23014h1.3541l.67706-.11507 1.3541.23014h.67706l1.3541-.23014.67706.3452h.67706l2.7082-.80548h.22569l.45137.11507h.22569l.22569-.23014h.45137l.22569-.11507.67706.23014h1.1284l.22569-.23014h1.8055l.90274.3452.45137-.11507h.45137l.45137-.11507h.45137l.22569-.23014.22568.23014h.22569l.45137-.11507h.45137l.22569-.23014h.45137l.67706.23014.45137-.11507h.45137l.22569-.11507.22569.11507.45137-.11507h.67706l.45137-.3452.22569-.23014.22569.23014h.22569l.45137.23014 1.1284-.46027.45137.11507.90274-.3452h.45137l.22569.11507.45137-.11507h.22569l.67706.3452.45137-.46027h.22569l.45137-.57534.90274-.57534.45137-.3452h.22569l.22569-.11507.45137.11507h.22569l.45137.11507h.22569l.45137-.23014.22569.11507.22569-.23014h.45137l.22569.11507.90274-.3452h.22569l2.0312-.92054h.45137l.22569-.23014h.22569l.22569-.11507.22569-.3452.22569.23014.22568-.11507.22569.23014.22569-.3452 1.8055-.80548.22569.11507.22569-.23014h.22569l.67706-1.0356h.45137l.67706-.3452.45137-1.1507 1.5798-1.611.22569.23014.45137-.23014.22569-.3452h.22569l.22569.23014.45137-.11507.22569-.57534.22569-.23014h.45137l.22569-.69041.22569.11507 1.1284-.46027h.22569l.22569-.46027 1.1284-.57534.22569.11507 1.5798-.69041h.90274l.45137-.46027h.22569l.90274-.3452h.45137l.45137-.11507.45137.11507.67706-.23014h.67706l.45137-.11507h1.1284l.22569.11507.67706-.23014h3.1596l.45137-.11507h1.5798l.45137-.11507h2.0312l.45137.11507h.67706l1.5798-.69041h2.0312l.22569-.11507.45137.11507h.67706l.22569-.11507.45137.11507h.67706l.45137-.11507h.22569l.45137-.11507.90274-.3452h.45137l.45137-.3452h.45137l.45137.11507.45137-.11507.45137.11507h.45137l.45137-.11507.45137.11507.45137.23014.90274-.23014h.45137l.45137-.11507h1.3541l.45137-.11507h.45137l.90274-.57534h.90274l.45137-.11507.90274-.46027h.45137l.90274-.3452h.45137l.90274-1.0356.45137-.11507.45137-.23014h.90274l.45137-.11507.45137-.46027.45137-.11507.45137-.23014.45137.11507.90274-.23014.45137-.23014.45137.11507.45137-.23014h.45137l.90274-.23014.45137-.23014h.45137l.45137.11507.45137-.3452.45137-.11507.90274-.80548.45137-.11507.45137-.69041.90274-.80548h.45137l1.8055-1.1507.90274-.23014h.45137l.45137-.11507.45137-.23014 1.8055-1.9562.45137-.69041h.45137l1.3541-1.3808h.45137l.45137-.3452.45137-.57534.90274-.46027.45137.11507.90274-1.0356.45137-.57534.90274-.69041h.45137l.45137-.69041.45137-.11507h.45137l.45137-.23014h1.8055l.45137.11507h.45137l.45137-.11507h.45137l.45137-.23014h.45137l.45137-.23014h.45137l.90274-.23014h1.3541l.90274-.23014h.45137l.90274-.23014.45137-.23014h.45137l.45137-.23014h1.8055l.45137-.11507h.45137l.45137.11507h1.3541l.90274.23014h1.3541l.45137-.11507.45137-.3452.90274.23014h.45137l.45137-.11507.45137.11507h.90274l.45137.11507.45137-.11507.45137.11507.45137-.11507 1.3541-.57534h.90274l.45137.11507.45137-.11507.90274-.46027h.45137l.45137.11507.45137-.11507.45137-.23014h.45137l.45137.11507.90274-.3452.45137.11507.45137-.23014.45137.11507 1.3541-.3452.45137-.3452.45137.11507.90274-1.0356.45137-.57534.45137.11507.45137.23014.45137-.3452h.90274l.90274-.46027h.90274l.45137-.11507.90274-1.0356h.45137l.90274-.3452.45137.11507.45137-.46027.45137-.11507.45137.11507.45137-.11507.45137.23014.45137-.23014.45137.11507.45137-.11507 1.3541-1.0356h.45137l.45137-.23014.90274-1.4959.45137-.57534 1.3541-.80548.45137-.92054.45137-.11507 1.3541-1.3808.45137.11507 1.3541-.92054.45137-.80548.45137-1.0356.45137-.11507h.45137l.90274-1.0356.45137-.11507h.45137l.45137-.3452.45137-.11507.45137-.3452.45137-.11507.45137-.3452.90274-.23014.90274-.3452.90274-1.0356h.45137l.90274-.23014h.45137l.90274-.23014.45137-.57534h1.8055l.45137-.11507.45137.11507.45137-.11507.90274-.3452h.45137l.45137-.11507h.45137l.45137-.11507.45137-.23014h.45137l.45137.11507.45137-.11507h.90274l.45137.11507h.45137l.45137.11507h.45137l.90274-.46027h.45137l.45137.11507h.90274l.45137.3452h1.3541l.45137-.11507.45137.11507h.45137l.45137.11507h.45137l.45137-.11507.90274-.57534h.45137l.90274-.3452h.45137l.45137-.11507.45137.23014h.45137l.45137.11507h.45137l.45137-.23014h.45137l.45137-.46027h.45137l.45137-.3452.45137-.11507h.45137l.45137-.11507.90274-.57534h.45137l.45137-.11507.45137-.46027.45137-.69041.45137-.11507h.45137l.45137-.23014h.90274l.90274.3452h.45137l.90274-.3452.45137-.57534.45137-.11507.90274-.3452.90274-.23014.45137-.23014h.90274l.45137-.11507.45137-.23014.90274.23014h1.3541l.45137-.11507.90274-.3452.90274-.23014 2.2569-1.726.45137-.11507.45137.11507.45137-.3452h.90274l.45137-.57534.90274-.46027.45137-.57534.45137-.3452h.45137l.45137-.11507.45137.23014.45137-.46027.45137-.23014.45137.11507.90274-.69041.45137-.69041.45137.23014.45137-.46027.45137-.11507.45137.3452.45137-.46027.90274.23014.90274-.69041.45137-.11507.45137-.3452h.45137l.45137.11507.45137-.3452h.45137l.45137.23014.45137-.11507.45137-.57534.45137.11507 1.3541-.3452.45137.11507.45137-.11507.45137.11507h2.2569l.45137-.11507.90274.23014.45137.3452h.45137l.45137.11507.90274-.23014h1.3541l.45137-.11507h.90274l.45137.11507h.45137l.45137-.11507.45137.11507.45137.23014.45137-.23014h.45137l.45137-.11507h.45137l.45137.11507.45137-.23014h.45137l.45137.11507h.45137l.45137.11507h2.7082l.45137-.11507h1.3541l.45137-.11507h.90274l.45137.11507h.90274l.45137-.3452 1.3541-.3452h.45137l.45137.23014.45137-.3452.45137-.11507h.45137l.90274.23014h.45137l.45137-.3452.45137-.11507h.90274l.90274-.3452h.90274l.45137.11507.45137-.11507.45137.11507h1.8055l.45137-.23014h.45137l.45137-.11507 1.3541-.69041h.90274l.45137-.11507h.90274l.90274-.46027.45137-.46027 1.8055-.80548.45137.11507h.45137l1.8055-1.3808.45137.23014.45137-.23014.45137-.69041 1.3541-.80548.45137-.3452h.45137l.45137-.80548.45137-.57534 1.3541-1.0356.45137-.69041h.45137l.90274-1.0356.45137.23014.45137-.11507h.45137l.45137-.69041.45137.11507.45137-.46027 1.3541-.69041.45137-.69041h.45137l.90274-.57534 1.3541-.57534h1.3541l.45137-.11507 1.3541-.57534h1.8055l.45137.11507h.45137l.45137.11507h1.3541l.45137-.11507h.90274l1.3541.3452h.45137l.45137-.11507h.90274l.90274-.23014.45137.11507.45137-.11507h.90274l.45137.11507.45137-.11507h.90274l.45137-.11507h.90274l.45137.11507h.45137l.45137-.23014h.90274l.90274-.23014h1.8055l.90274-.23014.45137.11507.90274.3452.90274-.3452h.45137l.45137-.11507h1.3541l.45137-.11507h.45137l.45137-.11507h.45137l.45137-.11507.45137-.23014h.45137l.45137.11507h.45137l.45137-.11507h.45137l.45137.11507.45137-.3452.45137-.11507.45137-.23014h.45137l.90274-.57534h.45137l.45137-.23014.45137-.46027.45137-.23014.45137.11507.45137-.11507.45137-.23014h.45137l.90274.23014.45137-.11507h.45137l.45137.11507 2.7082-1.3808h.45137l.90274-.23014h.45137l1.3541-.69041h.45137l.45137-.69041.45137-.23014.45137.11507.45137-.46027.45137-.11507.45137-.92054.45137-.57534.45137-1.1507.45137-.46027h.45137l.45137-.23014.90274-.80548.45137-.23014.45137-.80548 2.7082-2.0712.45137-.57534.90274-.80548.45137-.80548.45137-.11507.45137-.23014h.45137l.45137-.23014.45137.23014.45137-.11507.45137-.3452.45137-.11507.45137-.46027h.45137l.45137-.23014.45137.11507.45137-.11507h.45137l.45137-.3452h.45137l.45137-.11507h.45137l.45137-.11507h.90274l1.3541-.3452.45137.11507h1.3541l.45137.11507h.45137l.45137-.23014h.45137l.45137-.11507.45137.11507.45137-.11507h.45137l.45137.11507h1.3541l.45137-.11507h1.3541l.45137-.11507.45137.11507h1.3541l.45137-.11507h.45137l.45137-.11507h.45137l.45137-.11507.45137-.23014h.45137l.45137-.11507m.90274.3452.45137-.23014h.45137l.45137-.23014h.45137l.45137.11507h.45137l.45137-.11507h1.3541l.45137-.11507h.45137l.45137.11507h.45137l.45137-.3452.45137-.11507h.90274l.90274-.23014.45137.11507.90274-.57534.45137.11507.45137-.11507h.45137l.45137.11507.45137-.23014.90274.23014.45137-.23014h.90274l.45137-.11507.90274-.46027.90274.46027.90274-.57534.90274-.23014 1.8055-.80548.45137-.57534.45137-.23014h.45137l.45137-.3452h.90274l.90274-.80548.90274.46027.45137-.46027.45137-.80548.90274-.46027h.45137l1.8055-1.0356.90274-.80548.90274-.23014.45137-.80548.45137-.3452.45137-1.0356.45137-.46027.45137-.23014.45137-.46027h.45137l.90274-.92054.45137-.11507 2.7082-1.3808.45137-.46027h.45137l.45137.11507.45137-.3452.90274.23014.45137-.46027h.90274l.45137-.3452h.45137l.45137-.11507h.45137l.45137-.11507h.90274l.90274-.23014.45137.11507 1.8055-.92054h.45137l.45137-.11507h1.3541l.45137-.11507.90274.23014h2.2569l.90274-.23014.90274.23014.45137-.11507h.45137l.45137-.11507.45137.11507.45137-.11507.45137.11507h.45137l.45137.11507h.90274l.45137-.46027h2.7082l.45137-.11507h.45137l.90274-.23014h.45137l.90274.23014h.90274l.45137-.11507.45137.11507.45137-.11507.45137-.3452h.45137l.45137-.11507h.45137l1.3541-.57534.90274-.23014.45137-.23014.45137.11507h.45137l1.3541-.3452h.45137l.90274-.23014h.90274l.45137-.11507.45137-.23014h.45137l.45137-.46027h.45137l.90274-1.1507.90274-.57534.45137-.3452.90274-.23014h.45137l.45137-.23014.45137-.57534.45137-.23014h.45137l1.3541-.57534h.45137l.45137-.46027h.45137l.45137-.11507.90274-1.1507.90274-.57534.45137-.46027.90274-.57534.45137-.46027.45137-.23014.45137-.46027.45137-.11507.45137-.46027.45137-.11507.45137-.46027.45137-.23014.45137-.69041.45137-.46027.45137.11507.90274-1.726.45137-.46027.45137-.23014h.45137l.45137-.11507.45137-.80548h.45137l.90274-.46027.45137-.46027h.45137l.90274-.46027.45137-.69041.45137-.11507.90274-.57534h.45137l.45137.11507.45137-.57534.90274-.3452h.45137l.45137.11507.45137-.11507h.45137l.45137-.11507.45137.46027.45137.11507h.90274l.45137-.3452.90274-.23014h.90274l.45137-.11507.45137.11507h.90274l.90274-.23014h.45137l.45137-.46027h.90274l.90274-.23014h1.8055l.45137-.11507h.90274l.45137.23014h1.3541l.45137-.11507h3.611l1.3541-.3452.45137.11507.90274-.23014.45137-.23014h.45137l1.3541-.57534h.45137l.45137-.23014h.45137l.45137-.23014.45137.11507h.45137l.45137.11507.45137-.11507h1.3541l.90274-.3452.45137-.57534 1.8055-.80548h.90274l.90274-.46027.45137.11507.90274-.3452.45137.23014.45137-.23014h.45137l.45137-.11507.45137-.46027 1.3541-.69041h.45137l.90274-.3452.45137.23014.90274-.3452.45137-.57534 1.8055-.92054v0" clip-path="url(#e)" fill="none" stroke="#28f" stroke-linecap="square" stroke-width="1.5"/>
   </g>
   <g id="fb">
    <path d="m52.09 523.06v-232.9" fill="none" stroke="#000" stroke-linecap="square" stroke-width=".8"/>
   </g>
   <g id="fc">
    <path d="m853.2 523.06v-232.9" fill="none" stroke="#000" stroke-linecap="square" stroke-width=".8"/>
   </g>
   <g id="fd">
    <path d="m52.09 523.06h801.11" fill="none" stroke="#000" stroke-linecap="square" stroke-width=".8"/>
   </g>
   <g id="fe">
    <path d="m52.09 290.16h801.11" fill="none" stroke="#000" stroke-linecap="square" stroke-width=".8"/>
   </g>
   <g id="ff">
    <!-- サーバー数の推移 -->
    <g transform="translate(404.64 284.16) scale(.12 -.12)">
     <defs>
      <path id="z" transform="scale(.015625)" d="m4685 2893q0-621-84-1111-83-489-288-877-204-387-569-691t-928-560l-544 512q448 167 781 371 333 205 550 503 218 298 323 739 106 442 106 1075v1620q0 192-10 339-9 147-22 217h723q-6-70-22-217t-16-339v-1581zm-2304 2086q-7-64-23-199-16-134-16-313v-2317q0-128 6-256 7-128 13-224 7-96 13-140h-710q6 44 12 140 7 96 13 221 7 125 7 259v2317q0 122-10 256-9 135-28 256h723zm-1978-1197q45-12 144-22t237-20q138-9 285-9h4217q237 0 394 13t246 26v-679q-76 7-240 13-163 6-393 6h-4224q-147 0-282-3-134-3-234-10-99-6-150-12v697z"/>
      <path id="r" transform="scale(.015625)" d="m621 2854q109-6 265-16 157-9 339-16 183-6 349-6 128 0 352 0t509 0 598 0q314 0 624 0 311 0 586 0t486 0q212 0 327 0 230 0 416 16t301 22v-793q-109 6-308 19-198 13-409 13-109 0-324 0-214 0-489 0t-586 0q-310 0-624 0-313 0-598 0t-509 0-352 0q-262 0-525-10-262-9-428-22v793z"/>
      <path id="y" transform="scale(.015625)" d="m4941 5037q83-109 176-269t182-320q90-160 154-288l-416-179q-96 192-240 448t-272 435l416 173zm723 275q83-122 182-282 100-160 196-317 96-156 153-271l-416-186q-102 205-246 454-144 250-279 429l410 173zm-4339-3360q102 262 201 556 100 295 183 612t144 630q61 314 93 602l723-147q-19-83-45-183-26-99-48-195t-42-166q-32-154-86-394t-131-512-164-551q-86-278-182-514-115-301-269-618-153-317-326-618-173-300-346-550l-697 294q301 397 563 874t429 880zm3155 198q-96 250-215 531-118 282-243 567-124 285-246 534-122 250-224 429l659 218q96-179 221-429t253-535q128-284 249-566 122-281 218-525 90-230 195-518 106-288 211-592 106-304 195-589 90-285 154-515l-729-237q-84 352-199 736t-240 768-259 723z"/>
     </defs>
     <use xlink:href="#z"/>
     <use transform="translate(100)" xlink:href="#r"/>
     <use transform="translate(200)" xlink:href="#y"/>
     <use transform="translate(300)" xlink:href="#r"/>
     <use transform="translate(400)" xlink:href="#m"/>
     <use transform="translate(500)" xlink:href="#s"/>
     <use transform="translate(600)" xlink:href="#n"/>
     <use transform="translate(700)" xlink:href="#l"/>
    </g>
   </g>
  </g>
 </g>
 <defs>
  <clipPath id="b">
   <rect x="52.09" y="26.88" width="801.11" height="232.9"/>
  </clipPath>
  <clipPath id="e">
   <rect x="52.09" y="290.16" width="801.11" height="232.9"/>
  </clipPath>
 </defs>
</svg>
