<!DOCTYPE svg  PUBLIC '-//W3C//DTD SVG 1.1//EN'  'http://www.w3.org/Graphics/SVG/1.1/DTD/svg11.dtd'>
<svg version="1.1" viewBox="0 0 864 576" xmlns="http://www.w3.org/2000/svg" xmlns:xlink="http://www.w3.org/1999/xlink">
 <defs>
  <style type="text/css">*{stroke-linejoin: round; stroke-linecap: butt}</style>
 </defs>
 <g id="aa">
  <g id="ab">
   <path d="m0 576h864v-576h-864z" fill="#fff"/>
  </g>
  <g id="ac">
   <g id="ad">
    <path d="m52 259.78h801.2v-232.9h-801.2z" fill="#fff"/>
   </g>
   <g id="ae">
    <path d="m141.26 259.78h.94943v-232.9h-.94943z" clip-path="url(#d)" fill="#808080" opacity=".3" stroke="#808080"/>
   </g>
   <g id="af">
    <path d="m490.81 259.78h.63295v-232.9h-.63295z" clip-path="url(#d)" fill="#808080" opacity=".3" stroke="#808080"/>
   </g>
   <g id="ag">
    <g id="ah">
     <g id="ai">
      <path d="m107.56 259.78v-232.9" clip-path="url(#d)" fill="none" stroke="#b0b0b0" stroke-linecap="square" stroke-opacity=".3" stroke-width=".8"/>
     </g>
     <g id="aj">
      <defs>
       <path id="g" d="m0 0v3.5" stroke="#000" stroke-width=".8"/>
      </defs>
      <use x="107.560203" y="259.777732" stroke="#000000" stroke-width=".8" xlink:href="#g"/>
     </g>
    </g>
    <g id="ak">
     <g id="al">
      <path d="m198.71 259.78v-232.9" clip-path="url(#d)" fill="none" stroke="#b0b0b0" stroke-linecap="square" stroke-opacity=".3" stroke-width=".8"/>
     </g>
     <g id="am">
      <use x="198.70515" y="259.777732" stroke="#000000" stroke-width=".8" xlink:href="#g"/>
     </g>
    </g>
    <g id="an">
     <g id="ao">
      <path d="m289.85 259.78v-232.9" clip-path="url(#d)" fill="none" stroke="#b0b0b0" stroke-linecap="square" stroke-opacity=".3" stroke-width=".8"/>
     </g>
     <g id="ap">
      <use x="289.850096" y="259.777732" stroke="#000000" stroke-width=".8" xlink:href="#g"/>
     </g>
    </g>
    <g id="aq">
     <g id="ar">
      <path d="m381 259.78v-232.9" clip-path="url(#d)" fill="none" stroke="#b0b0b0" stroke-linecap="square" stroke-opacity=".3" stroke-width=".8"/>
     </g>
     <g id="as">
      <use x="380.995043" y="259.777732" stroke="#000000" stroke-width=".8" xlink:href="#g"/>
     </g>
    </g>
    <g id="at">
     <g id="au">
      <path d="m472.14 259.78v-232.9" clip-path="url(#d)" fill="none" stroke="#b0b0b0" stroke-linecap="square" stroke-opacity=".3" stroke-width=".8"/>
     </g>
     <g id="av">
      <use x="472.139989" y="259.777732" stroke="#000000" stroke-width=".8" xlink:href="#g"/>
     </g>
    </g>
    <g id="aw">
     <g id="ax">
      <path d="m563.28 259.78v-232.9" clip-path="url(#d)" fill="none" stroke="#b0b0b0" stroke-linecap="square" stroke-opacity=".3" stroke-width=".8"/>
     </g>
     <g id="ay">
      <use x="563.284936" y="259.777732" stroke="#000000" stroke-width=".8" xlink:href="#g"/>
     </g>
    </g>
    <g id="az">
     <g id="ba">
      <path d="m654.43 259.78v-232.9" clip-path="url(#d)" fill="none" stroke="#b0b0b0" stroke-linecap="square" stroke-opacity=".3" stroke-width=".8"/>
     </g>
     <g id="bb">
      <use x="654.429882" y="259.777732" stroke="#000000" stroke-width=".8" xlink:href="#g"/>
     </g>
    </g>
    <g id="bc">
     <g id="bd">
      <path d="m745.57 259.78v-232.9" clip-path="url(#d)" fill="none" stroke="#b0b0b0" stroke-linecap="square" stroke-opacity=".3" stroke-width=".8"/>
     </g>
     <g id="be">
      <use x="745.574829" y="259.777732" stroke="#000000" stroke-width=".8" xlink:href="#g"/>
     </g>
    </g>
    <g id="bf">
     <g id="bg">
      <path d="m836.72 259.78v-232.9" clip-path="url(#d)" fill="none" stroke="#b0b0b0" stroke-linecap="square" stroke-opacity=".3" stroke-width=".8"/>
     </g>
     <g id="bh">
      <use x="836.719775" y="259.777732" stroke="#000000" stroke-width=".8" xlink:href="#g"/>
     </g>
    </g>
   </g>
   <g id="bi">
    <g id="bj">
     <g id="bk">
      <path d="m52 246.93h801.2" clip-path="url(#d)" fill="none" stroke="#b0b0b0" stroke-linecap="square" stroke-opacity=".3" stroke-width=".8"/>
     </g>
     <g id="bl">
      <defs>
       <path id="f" d="m0 0h-3.5" stroke="#000" stroke-width=".8"/>
      </defs>
      <use x="52" y="246.926099" stroke="#000000" stroke-width=".8" xlink:href="#f"/>
     </g>
     <g id="bm">
      <!-- 300 -->
      <g transform="translate(27.9 250.91) scale(.1 -.1)">
       <defs>
        <path id="l" transform="scale(.015625)" d="m1715-90q-371 0-656 90t-503 240q-217 150-377 323l359 474q211-205 479-359 269-153 634-153 269 0 467 92 199 93 311 266t112 423q0 256-125 451t-429 300q-304 106-835 106v551q467 0 732 105 266 106 384 291 119 186 119 423 0 307-192 489-192 183-531 183-269 0-503-119-233-118-438-316l-384 460q282 256 614 413 333 157 737 157 422 0 748-144 327-144 512-413 186-269 186-659 0-403-221-685-221-281-592-422v-26q269-70 490-227t349-400 128-557q0-422-215-726-214-304-573-468-358-163-787-163z"/>
        <path id="a" transform="scale(.015625)" d="m1830-90q-460 0-806 275-346 276-535 823-188 547-188 1366 0 820 188 1357 189 538 535 803 346 266 806 266 461 0 800-269 340-269 528-803 189-534 189-1354 0-819-189-1366-188-547-528-823-339-275-800-275zm0 589q237 0 422 185 186 186 288 599 103 413 103 1091 0 679-103 1082-102 403-288 582-185 180-422 180-236 0-422-180-186-179-292-582-105-403-105-1082 0-678 105-1091 106-413 292-599 186-185 422-185z"/>
       </defs>
       <use xlink:href="#l"/>
       <use transform="translate(57)" xlink:href="#a"/>
       <use transform="translate(114)" xlink:href="#a"/>
      </g>
     </g>
    </g>
    <g id="bn">
     <g id="bo">
      <path d="m52 220.79h801.2" clip-path="url(#d)" fill="none" stroke="#b0b0b0" stroke-linecap="square" stroke-opacity=".3" stroke-width=".8"/>
     </g>
     <g id="bp">
      <use x="52" y="220.787184" stroke="#000000" stroke-width=".8" xlink:href="#f"/>
     </g>
     <g id="bq">
      <!-- 600 -->
      <g transform="translate(27.9 224.77) scale(.1 -.1)">
       <defs>
        <path id="k" transform="scale(.015625)" d="m1971-90q-339 0-634 144-294 144-518 435-224 292-352 733-128 442-128 1044 0 678 147 1161 148 483 397 784 250 301 570 445t665 144q397 0 688-147 292-147 490-359l-403-448q-128 154-327 253-198 99-409 99-307 0-567-182-259-182-413-605-153-422-153-1145 0-608 115-1002t326-589q212-195 493-195 212 0 375 121 163 122 259 343t96 522q0 300-90 511-89 212-259 320-169 109-419 109-211 0-451-134t-458-461l-25 538q134 192 313 323t374 201q196 71 375 71 397 0 694-163 298-163 467-490 170-326 170-825 0-468-195-817-195-348-512-544-317-195-701-195z"/>
       </defs>
       <use xlink:href="#k"/>
       <use transform="translate(57)" xlink:href="#a"/>
       <use transform="translate(114)" xlink:href="#a"/>
      </g>
     </g>
    </g>
    <g id="br">
     <g id="bs">
      <path d="m52 194.65h801.2" clip-path="url(#d)" fill="none" stroke="#b0b0b0" stroke-linecap="square" stroke-opacity=".3" stroke-width=".8"/>
     </g>
     <g id="bt">
      <use x="52" y="194.648269" stroke="#000000" stroke-width=".8" xlink:href="#f"/>
     </g>
     <g id="bu">
      <!-- 900 -->
      <g transform="translate(27.9 198.63) scale(.1 -.1)">
       <defs>
        <path id="m" transform="scale(.015625)" d="m1562-90q-410 0-708 150-297 151-502 356l403 461q141-160 346-256t422-96q224 0 425 102 202 103 352 333 151 230 237 614 87 384 87 941 0 589-115 970t-323 563-496 182q-205 0-372-118-166-118-262-336t-96-525q0-301 86-512 87-211 259-323 173-112 417-112 224 0 460 141 237 141 448 461l32-544q-134-180-313-314t-371-208-384-74q-391 0-689 166-297 167-467 496-169 330-169 823 0 467 195 816t515 541 698 192q339 0 636-138 298-137 519-419 221-281 349-710t128-1018q0-691-141-1187t-391-807q-249-310-563-461-313-150-652-150z"/>
       </defs>
       <use xlink:href="#m"/>
       <use transform="translate(57)" xlink:href="#a"/>
       <use transform="translate(114)" xlink:href="#a"/>
      </g>
     </g>
    </g>
    <g id="bv">
     <g id="bw">
      <path d="m52 168.51h801.2" clip-path="url(#d)" fill="none" stroke="#b0b0b0" stroke-linecap="square" stroke-opacity=".3" stroke-width=".8"/>
     </g>
     <g id="bx">
      <use x="52" y="168.509354" stroke="#000000" stroke-width=".8" xlink:href="#f"/>
     </g>
     <g id="by">
      <!-- 1200 -->
      <g transform="translate(22.2 172.49) scale(.1 -.1)">
       <defs>
        <path id="e" transform="scale(.015625)" d="m544 0v608h1037v3277h-845v467q333 58 579 147 247 90 451 218h557v-4109h915v-608h-2694z"/>
        <path id="b" transform="scale(.015625)" d="m282 0v429q697 621 1164 1136 468 515 701 956 234 442 234 826 0 256-87 451-86 196-262 301-176 106-445 106-275 0-506-151-230-150-422-368l-416 410q301 333 637 518 336 186 803 186 429 0 749-176t496-493 176-745q0-455-224-919t-615-935q-390-470-889-950 186 20 394 36t374 16h1184v-634h-3046z"/>
       </defs>
       <use xlink:href="#e"/>
       <use transform="translate(57)" xlink:href="#b"/>
       <use transform="translate(114)" xlink:href="#a"/>
       <use transform="translate(171)" xlink:href="#a"/>
      </g>
     </g>
    </g>
    <g id="bz">
     <g id="ca">
      <path d="m52 142.37h801.2" clip-path="url(#d)" fill="none" stroke="#b0b0b0" stroke-linecap="square" stroke-opacity=".3" stroke-width=".8"/>
     </g>
     <g id="cb">
      <use x="52" y="142.370439" stroke="#000000" stroke-width=".8" xlink:href="#f"/>
     </g>
     <g id="cc">
      <!-- 1500 -->
      <g transform="translate(22.2 146.36) scale(.1 -.1)">
       <defs>
        <path id="i" transform="scale(.015625)" d="m1715-90q-365 0-653 90t-506 237q-217 147-383 307l352 480q134-134 294-246t361-183q202-70 452-70 262 0 473 118 212 119 333 346 122 227 122 541 0 460-247 716-246 256-649 256-224 0-384-64t-365-198l-365 237 141 2240h2387v-627h-1747l-109-1204q154 77 307 118 154 42 340 42 397 0 723-160t518-490q192-329 192-847 0-519-224-887t-586-560q-361-192-777-192z"/>
       </defs>
       <use xlink:href="#e"/>
       <use transform="translate(57)" xlink:href="#i"/>
       <use transform="translate(114)" xlink:href="#a"/>
       <use transform="translate(171)" xlink:href="#a"/>
      </g>
     </g>
    </g>
    <g id="cd">
     <g id="ce">
      <path d="m52 116.23h801.2" clip-path="url(#d)" fill="none" stroke="#b0b0b0" stroke-linecap="square" stroke-opacity=".3" stroke-width=".8"/>
     </g>
     <g id="cf">
      <use x="52" y="116.231524" stroke="#000000" stroke-width=".8" xlink:href="#f"/>
     </g>
     <g id="cg">
      <!-- 1800 -->
      <g transform="translate(22.2 120.22) scale(.1 -.1)">
       <defs>
        <path id="r" transform="scale(.015625)" d="m1830-90q-441 0-787 163-345 164-547 448-202 285-202 650 0 314 122 557t314 419 403 291v32q-256 186-442 458-185 272-185 643 0 365 176 640t480 425q304 151 694 151 410 0 704-160t457-439q164-278 164-649 0-237-96-448t-234-381q-137-169-291-278v-32q218-115 397-285 179-169 288-406t109-557q0-346-189-628-189-281-532-448-342-166-803-166zm314 2708q205 198 310 419 106 221 106 464 0 211-83 384t-247 272q-163 99-393 99-288 0-480-183-192-182-192-502 0-256 134-429 135-172 359-294t486-230zm-294-2170q236 0 418 89 183 90 285 253 103 164 103 388 0 211-90 367-89 157-246 272-157 116-368 215t-454 195q-244-173-398-426-153-252-153-553 0-237 118-416 119-179 324-282 205-102 461-102z"/>
       </defs>
       <use xlink:href="#e"/>
       <use transform="translate(57)" xlink:href="#r"/>
       <use transform="translate(114)" xlink:href="#a"/>
       <use transform="translate(171)" xlink:href="#a"/>
      </g>
     </g>
    </g>
    <g id="ch">
     <g id="ci">
      <path d="m52 90.093h801.2" clip-path="url(#d)" fill="none" stroke="#b0b0b0" stroke-linecap="square" stroke-opacity=".3" stroke-width=".8"/>
     </g>
     <g id="cj">
      <use x="52" y="90.092609" stroke="#000000" stroke-width=".8" xlink:href="#f"/>
     </g>
     <g id="ck">
      <!-- 2100 -->
      <g transform="translate(22.2 94.078) scale(.1 -.1)">
       <use xlink:href="#b"/>
       <use transform="translate(57)" xlink:href="#e"/>
       <use transform="translate(114)" xlink:href="#a"/>
       <use transform="translate(171)" xlink:href="#a"/>
      </g>
     </g>
    </g>
    <g id="cl">
     <g id="cm">
      <path d="m52 63.954h801.2" clip-path="url(#d)" fill="none" stroke="#b0b0b0" stroke-linecap="square" stroke-opacity=".3" stroke-width=".8"/>
     </g>
     <g id="cn">
      <use x="52" y="63.953694" stroke="#000000" stroke-width=".8" xlink:href="#f"/>
     </g>
     <g id="co">
      <!-- 2400 -->
      <g transform="translate(22.2 67.939) scale(.1 -.1)">
       <defs>
        <path id="n" transform="scale(.015625)" d="m2170 0v3072q0 192 12 457 13 266 20 458h-26q-90-179-183-365-92-185-195-364l-921-1415h2579v-576h-3328v493l1875 2957h858v-4717h-691z"/>
       </defs>
       <use xlink:href="#b"/>
       <use transform="translate(57)" xlink:href="#n"/>
       <use transform="translate(114)" xlink:href="#a"/>
       <use transform="translate(171)" xlink:href="#a"/>
      </g>
     </g>
    </g>
    <g id="cp">
     <g id="cq">
      <path d="m52 37.815h801.2" clip-path="url(#d)" fill="none" stroke="#b0b0b0" stroke-linecap="square" stroke-opacity=".3" stroke-width=".8"/>
     </g>
     <g id="cr">
      <use x="52" y="37.814779" stroke="#000000" stroke-width=".8" xlink:href="#f"/>
     </g>
     <g id="cs">
      <!-- 2700 -->
      <g transform="translate(22.2 41.8) scale(.1 -.1)">
       <defs>
        <path id="j" transform="scale(.015625)" d="m1235 0q32 646 109 1187t224 1024 384 941 576 938h-2208v627h3027v-455q-409-512-665-989-256-476-397-969t-205-1053-90-1251h-755z"/>
       </defs>
       <use xlink:href="#b"/>
       <use transform="translate(57)" xlink:href="#j"/>
       <use transform="translate(114)" xlink:href="#a"/>
       <use transform="translate(171)" xlink:href="#a"/>
      </g>
     </g>
    </g>
   </g>
   <g id="ct">
    <path d="m88.418 222.44.090195.17426.079647-.34852.32913.34852.16773-.08713.44781-.8713.94995-3.2238.96578-5.1407.4726-1.3069.47577-.17426.44729-1.6555.47471-1.2198.47471-2.0911.47471-2.7882.47471-.60991.47471-3.2238.47471-2.3525 1.4241-9.2357.94943-4.3565.47471-1.3941.47471-.78417.47471-2.004.47471-5.3149 1.4241-24.309 1.8989-43.826.47471-8.5387.94943-28.666.47471-5.3149.47471-2.3525.47471-.78417.47471 2.6139.47471 1.5683 2.3736 43.565.47471 12.46 2.8483 52.801.94943 12.198 1.8989 19.604.47471 2.701.47471 3.9208.47471 2.7882.47471 3.6594.47471 1.9169.47471 3.2238 1.4241 6.5347.47471 2.4396.47471 1.5683.47471 3.4852.47471 1.1327.47471 1.7426.94943 1.6555.47471 1.1327.47471.26139.47471 1.3069.47471.52278.94943.26139.94943-.43565 1.4241-2.8753.47471-.26139.47471-.95843.47471-.43565.94943-3.3981.94943-3.9208.47471.26139.47471-.17426.47471-2.7882.47471-1.5683.47471-.78417.94943-2.7882.47471-3.1367.47471-1.7426.47471-.60991 1.4241-4.2694.47471-3.9208.47471-2.4396.47471-3.6594 1.4241-7.8417.47471-1.3941m.94943 19.517.47471-12.285.47471-2.3525.47471-1.3941 1.4241-13.418.47471-6.012.94943-18.21.94943-22.654.47471-16.293 1.4241-31.105.94943-14.725.47471-3.7466.47471.43565.47471-1.2198.47471 1.7426.94943 8.8001.94943 21.173.47471 6.9704 1.4241 28.404.94943 14.725.94943 16.555.94943 12.111.94943 10.891 1.4241 13.592.94943 8.0159 1.4241 6.1862.47471 1.6555.94943 4.9664.94943 5.7506.94943 3.1367.47471.43565.47471.8713.47471 1.3069.47471.60991 1.4241 4.5307.47471-.43565.47471.34852h.47471l.47471.52278.47471-1.3069.47471.17426.47471-.34852.47471-.52278.47471-.26139.47471-.60991.47471.08713.47471-.52278.47471-2.0911.47471-1.4812.47471-.8713.47471-1.6555.47471-2.0911.47471-.95843.47471-1.5683.47471-1.0456.47471-2.2654.47471-1.2198.47471-2.701.47471-1.0456.47471-3.2238.47471-1.6555.47471-3.3109.47471-.95843.94943-2.701.47471-2.2654.47471-1.3941.94943-6.012.47471-1.8297.47471-.43565.47471-3.1367.47471-1.1327.47471-2.3525.47471-1.3941.94943-3.1367 1.4241-18.733 1.4241-27.62.47471-13.766 1.8989-36.856.94943-12.111.94943-4.4436.47471 1.0456.47471 3.7466.94943 17.6 1.4241 28.23.94943 19.43 1.4241 21.521.47471 5.2278 1.8989 25.355 1.4241 14.638.94943 7.0575.47471 3.7466.47471 2.2654.47471 3.3981 2.8483 12.808.94943 2.4396.47471.69704.47471 1.1327.47471.60991h.47471l.63295.26139.63295.8713.15824-.08713.31648-.52278.31648.43565.15824-.08713.31648.26139.31648-.60991.15824-.52278.15824.17426.15824-.78417.15824-.17426h.15824l.15824.17426.15824-.17426.15824.087129.15824-.43565.15824.34852.47471-1.2198.15824.17426.15824-.08713.15824-.43565.15824.08713.31648-.78417.15824-.17426.31648-.8713.15824-.08713.31648-.52278.15824-.08713.31648-1.3941.15824.08713.31648-.43565.15824.08713.63295-1.2198.47471-2.701h.15824l.63295-2.3525.15824-.8713.15824-.17426.15824-.52278h.15824l.79119-2.8753.31648-.95843.15824-.52278.15824-1.0456.15824-.087129 1.1077-5.5763.47471-1.2198.31648-.69704.15824.17426.31648-2.0911.15824-.34852.31648-1.3941.15824-.34852.31648-2.004.15824-1.0456.47471-.8713.31648-1.7426.15824-.087129.15824.17426.15824-.08713.31648-1.3941.47471-1.4812.15824-1.6555.15824.26139 1.4241-7.406h.15824l.15824-.17426.15824-.43565.15824-.78417.15824.69704.15824-1.0456.15824.26139 1.4241-10.281 1.1077-17.774.79119-18.907.31648-11.153.31648-5.7506.31648-5.5763 1.5824-34.852.47471-5.2278.15824-1.2198.15824-3.2238.15824-.52278.15824.43565.63295-2.8753.15824-.34852.15824-1.0456.15824-.087129.31648.8713 1.2659 20.214.47471 7.4932.15824.78417.63295 12.547.47471 9.5843.94943 15.683.47471 6.8832.63295 11.327 2.0571 29.101.31648 3.0495.47471 3.9208.31648 1.6555.94943 9.3229.15824.52278.94943 6.6219.31648 1.7426.15824 1.3069.15824.26139.31648 1.2198.94943 4.9664.31648 1.6555.15824.69704.63295 4.3565.63295 2.4396.15824 1.6555.31648.43565.63295 2.9624.31648.69704.15824.17426.15824.60991.15824-.26139.31648.95843.15824.52278.15824.08713.47471 2.004.31648.43565.15824.08713.15824.26139.15824-.08713.15824.43565.31648.08713.15824.26139.31648-.17426.15824.43565.15824-.34852.47471.34852.31648-.60991.15824-.43565.31648.17426.31648-.43565.63295-1.5683.31648-.69704.31648.26139.31648-.26139.63295-.95843.31648.43565.31648-1.2198.63295-3.2238.31648-1.3941.31648-.26139.31648-.95843.63295-.34852.63295-2.0911.31648-.08713.63295-3.3109.31648-.26139.31648-.78417h.31648l.31648-1.1327.31648-2.1782.94943-3.2238.63295-2.9624.31648-2.2654.31648-.52278.63295-2.0911.63295-3.7466.31648.087129.63295-1.4812.63295-4.008.94943-5.8377.31648-1.1327.31648-1.7426h.31648l.63295-3.1367.31648-.69704.63295-2.004.31648-.95843.31648-1.9169.31648-.8713.94943-11.24.94943-17.426 2.5318-66.219.63295-11.763.31648-4.1822.63295-10.194.31648-3.3109.94943-5.5763h.31648l.31648 1.1327.31648 1.7426.94943 7.406.94943 16.206.31648-3.1367.63295 14.376.63295 10.63 1.5824 28.84 1.2659 21.957.63295 11.414 2.2153 30.408.94943 7.5803.94943 6.0991.31648 2.8753.63295 2.9624.31648 2.5268.31648 1.1327.63295 3.8337.31648.8713.31648-.17426.31648.087129.31648.43565.31648 1.0456.31648.60991.31648 1.3069.31648-1.1327.31648-.43565.31648.60991.31648-.26139.31648.69704.31648-.34852.63295.26139.63295-2.2654.63295.087129.31648-1.5683.31648-.8713.31648-1.3941.31648.34852.31648-1.3069.31648-.60991 1.8989-6.5347.31648-2.2654.63295-2.3525.31648-1.2198.63295-5.0535.31648-3.7466.31648-2.2654.31648-.8713 1.5824-11.153.31648-1.3941.31648-2.1782.31648-1.3941.31648-.43565.31648-2.4396.63295-2.4396.31648-1.7426.31648-.60991.31648.34852.31648-.69704.31648-1.6555.31648-.78417.63295-2.1782.31648-.34852.31648.26139.31648-.26139.31648.69704.31648 2.2654.31648-.08713.31648.17426.31648-.34852.31648-.60991.31648.69704.31648-.08713.31648-.26139.31648-1.3941h.63295l.31648-2.8753 1.2659-17.339.63295-11.937.31648-8.8001.31648-12.198 1.2659-25.703.94943-20.388.63295-9.9328.31648-7.1446.31648-3.3109.31648-.60991.63295-4.0951.31648-.34852.31648.52278.31648 1.4812.31648.52278.31648 3.5723.63295 2.9624.63295 7.0575.31648 7.7545.63295 8.1031.63295 8.9744.31648 5.9248.63295 15.248 2.8483 48.27 1.2659 20.214 1.2659 16.816.94943 7.3189.31648 1.5683 2.2153 16.38 1.2659 4.8793.31648 1.0456.31648.60991.31648 2.004.31648-.087129.31648.52278.63295 1.3941.31648.26139.31648.52278.63295-.34852.63295-1.0456.31648-1.3069.63295.087129.31648-1.1327.31648-1.6555.63295-1.1327.31648.17426.31648-2.004.31648-1.0456.31648-1.9169.31648-.34852.31648-2.6139.31648-1.0456.31648-.34852.94943-3.0495.31648-3.3109.63295-9.1486.31648-2.4396.94943-10.717.31648-3.2238.31648-1.9169.31648-2.6139.31648-1.3941.94943-2.6139.31648-1.3941.31648-3.0495.31648-1.5683.31648-2.1782.63295-3.2238.31648-1.9169.31648-.43565.31648-1.2198h.31648l.31648-1.2198.31648.78417.31648-1.7426.31648.34852.31648.78417.31648 1.2198.94943 1.7426.31648-.26139.31648 2.6139.94943 2.6139.31648.17426.31648 1.1327.31648-.43565.31648-1.2198 1.2659-14.464.94943-18.994.31648-8.0159.63295-10.891 1.2659-23.351.31648-4.705 1.2659-10.368.31648 1.9169.31648.78417.31648.26139.31648 1.1327.31648 3.3109.31648 2.0911.94943 20.388.31648 4.3565 1.2659 26.139.31648 2.9624.31648 6.7961.31648 3.6594.94943 18.036.94943 12.634.63295 10.804.63295 7.4932.31648 1.2198.94943 10.456 1.2659 7.5803.31648 1.4812.94943 7.7545.63295 3.4852.63295 1.4812.31648 2.6139.31648 1.2198.63295 3.1367 2.5318 7.5803.31648-.17426.31648.69704.31648.26139.31648.52278.31648.08713.31648-.08713.31648-.43565.31648-.08713.31648.43565.31648-.60991.31648-.08713.31648-.26139.31648.17426.31648.43565h.31648l.63295-.8713.31648.43565.31648-.78417.31648-.08713.31648-1.0456.31648.17426.31648-.08713.31648-1.5683.31648-.69704.31648-1.3941.63295-1.0456.63295-1.6555.63295-4.2694.31648-.34852.94943-3.6594.31648-.52278.94943-3.1367.31648-.78417.31648-.087129.63295-2.2654.31648-.52278.31648-1.2198.31648-1.8297.63295-1.9169.31648-2.8753.94943-2.6139.31648-.34852.31648-1.0456.31648-.08713 2.2153-11.065.31648-.78417.31648-.17426.94943-4.9664.63295-6.3605.31648-4.008.94943-15.248.63295-10.107 1.8989-42.258.63295-9.9328.31648-7.406.63295-6.2733.63295-5.6634.94943-2.4396.31648 1.3941.31648 2.004.63295 8.2773.31648 8.1902.63295 9.6714 1.8989 38.686 1.2659 19.953.63295 7.5803.63295 8.4516 2.5318 24.832.63295 3.7466.63295 3.5723.63295 3.9208.31648.95843.63295 2.701.31648.69704 3.1648 12.721h.31648l.31648.43565.31648 1.4812.31648-.26139.31648.95843.31648.08713.31648 1.3941.63295.34852.31648.34852.63295.34852.94943-.52278.31648-.78417.31648-.26139.31648-.69704.63295.34852.31648-.17426.31648.26139.63295.08713.31648-.08713.31648.60991.31648-.34852.94943-3.8337.63295-1.2198.63295-1.6555.31648-1.2198.31648-.43565.94943-2.7882.31648-2.6139.63295-2.8753.31648-.95843.31648-1.3941.63295-1.6555.94943-4.0951.31648-1.5683.31648-.26139h.31648l.31648-.69704.31648-1.2198.31648-1.8297.31648-.95843.63295-2.7882.31648-2.004.31648-.69704.63295-2.701.31648.17426.31648-2.0911.63295-2.7882.63295-4.008h.31648l.63295-2.6139.31648-2.0911.31648-.60991.31648-2.0911.63295-11.763.63295-10.368.31648-6.2733 1.2659-34.678.63295-12.721.94943-19.169 1.2659-11.24.31648-.17426.63295-1.3069.31648 1.2198.31648 2.5268.94943 13.854.31648 3.5723 2.5318 49.315.31648 3.2238 1.5824 26.139 1.5824 17.687.94943 10.281.31648 1.8297.63295 5.402.94943 5.3149.94943 6.0991.31648 1.1327.94943 5.2278.31648.8713.31648 1.2198.31648.34852.31648 1.2198.31648 1.7426.94943 2.3525.63295.95843.31648 1.0456.31648.60991.31648 1.3941.31648.78417.31648.34852.31648.69704.31648-.26139.31648.17426.31648-.34852.31648-.17426.31648-.52278m.63295 2.4396.31648 1.3941.31648-.08713.31648.26139.63295-1.5683.31648-.08713.31648-.52278.31648.17426.31648-.8713.31648.087129.63295-2.5268.31648-.78417h.31648l.31648-.8713.31648-2.0911.31648-.26139.31648-.95843.31648-1.4812.31648-.34852.31648-1.1327.31648-.69704.94943-4.6179.63295-2.4396.31648.17426.31648-1.1327.31648-2.6139.63295-2.9624.31648-1.4812.31648-2.5268.31648-1.4812.31648-2.1782.63295-2.2654.63295-2.5268.31648-.34852.31648-.69704.31648-1.1327.31648.087129.63295-2.7882.31648.08713.63295-5.3149.63295-4.0951.63295.17426.31648-2.4396.31648-1.3069.31648-3.3981.31648-1.6555.31648-2.5268 1.5824-22.305.31648-5.7506.94943-23.961 1.8989-42.084 1.2659-15.858.31648-.52278.63295.78417.31648 1.8297.63295 5.8377.31648 5.2278.94943 19.778.63295 11.153.63295 16.38.63295 10.891.31648 2.9624 3.1648 47.311 1.2659 9.2358.31648 2.1782.31648 3.0495 2.2153 13.679.31648.69704.94943 4.8793.31648.60991 1.2659 6.3605.94943 2.8753.31648.60991.31648.8713.63295.8713.63295 2.2654.31648 1.3941.31648.69704.63295.60991.31648-.43565.31648-.78417.31648-.34852.31648.52278.31648-.8713.31648.087129.31648.69704.31648-.52278.31648.43565.94943-1.4812.94943-2.5268.31648-.52278.63295-2.1782.31648-.69704.63295-2.7882.31648.26139.31648-1.5683.31648-.52278.31648-.8713.63295-2.2654.31648-.52278.63295-2.004.31648-2.0911.31648-.43565 1.2659-5.1407.31648-.78417.31648-1.3941.31648-.78417.63295-2.7882.63295-2.004.63295-2.3525.63295-2.0911.31648-2.4396.31648-.34852.31648-1.2198.31648-2.701.31648-1.3941.31648-.8713.31648-1.3941.31648-.43565.31648-.17426.31648-1.1327.31648-2.6139.63295-6.709.63295-5.4892.63295-12.111 1.5824-25.268.94943-20.388.31648-4.5307.31648-7.9288.31648-5.1407.63295-16.119.63295-11.24.31648-4.8793.31648-2.7882.31648-.34852.31648-5.1407.31648-2.1782.31648-.08713.63295 2.3525.31648 5.0535.63295 15.248.31648 4.7921.94943 20.388.31648 9.9328.94943 17.862.63295 11.588.63295 10.281.31648 3.8337.63295 10.02 1.5824 20.04.63295 6.1862 1.5824 13.766.31648 2.004.63295 2.7882.94943 5.4892 2.5318 12.198.31648-.08713.63295 2.4396.63295 1.4812.31648.34852.31648 1.0456.31648-.17426 1.5824 2.7882.31648-.17426.31648.52278.94943-.17426.63295-.78417.63295-.34852.31648-1.2198.31648-.17426h.31648l.31648-.43565.31648.52278.31648.08713.31648-.52278.63295-2.4396.63295-2.7882 2.2153-7.4932h.31648l.63295-1.7426.31648-1.6555.31648-.43565.63295-3.8337.31648.087129.31648-.69704.31648-.34852.31648-1.3069.31648-.08713 1.2659-8.4516.31648-1.4812.31648-.8713.31648-.43565.63295-2.4396.31648-.34852.31648-.95843.31648-2.7882.94943-4.0951.63295-2.5268.31648-.08713.31648-.26139.63295-2.7882.31648-2.004 1.2659-13.244 1.5824-27.62.63295-17.426 2.5318-58.028.31648-5.3149.63295-5.4892.31648-3.8337.31648-.69704.31648-2.7882.31648 2.5268.31648-.17426.94943 9.4971.31648 1.6555.63295 9.1486 4.7471 88.262 2.2153 28.143.63295 5.3149.31648 4.0951 1.2659 8.9744.31648 1.4812.31648 3.7466.31648.60991.31648 2.4396.31648 1.3069.31648 2.0911.31648.78417.31648 2.0911.31648.69704.63295 2.5268.31648.8713.63295.78417.31648-.087129.63295.087129.31648-.26139.31648.17426.31648-.17426.31648-.43565.31648-.8713.31648-.52278.31648-.26139.63295-2.004.31648-.26139.31648-1.4812.31648-.087129.63295-2.7882.63295-3.6594.31648-1.2198.31648.43565.31648-.17426.94943-3.9208.31648.26139.31648-1.6555.31648-.34852.31648-1.2198.63295-8.9744.94943-7.9288.94943-5.7506.31648-3.7466.63295-2.7882.63295-4.1822.63295-3.8337.31648-3.1367.63295-2.0911.31648-.52278.31648-.8713.31648-.43565h.31648l.31648-.26139.31648.69704.31648.26139.31648.52278.63295-.08713.31648.08713.31648 1.3941.31648 2.1782.31648-.78417.31648 1.1327.31648 2.0911.31648-2.5268.31648.17426.31648-.52278.31648-1.7426.31648-3.3109.31648-1.4812.31648-.8713.31648-2.9624.31648-6.4476.31648-2.7882 1.2659-24.745.31648-10.978.63295-11.24 1.5824-36.072 1.2659-23.002.94943-6.9704.31648-.43565.31648-.78417 1.2659 9.1486.31648 3.7466 2.8483 47.921 1.2659 24.745.63295 9.5843 2.5318 42.694 1.5824 16.816 1.8989 15.248 1.2659 6.3605.31648 2.2654.31648 1.1327.94943 5.2278.31648.34852.31648.78417.31648 1.4812.31648.17426.31648-.17426.31648.08713.31648-.26139.31648.26139.31648-.60991.31648-.34852.31648-.52278 1.2659-3.7466.31648-.60991.63295-2.3525.63295-2.1782.63295-2.6139.31648-.34852.31648.26139.31648-2.3525.31648-.08713.31648-1.4812.31648-2.3525.31648-3.3109.31648-.17426.94943-7.3189.63295-2.5268.31648-1.7426.94943-8.3645.31648-4.0951.31648-1.1327.63295-4.4436.31648-.60991.63295-5.2278.63295-2.9624.31648-1.3941.63295-3.7466.31648-.43565.31648.43565.63295-2.1782.31648-.08713.94943-1.7426.31648-1.1327.31648.8713.63295 3.1367.31648 2.4396.31648-.17426h.31648l.63295 4.008.31648-2.6139.31648.26139 1.5824-15.161.31648-3.7466.63295-10.891.94943-24.571 1.5824-29.624.94943-11.85.63295-3.3109.31648.60991.31648.087129.31648-.95843.31648-.17426.31648 3.2238.31648 4.8793.31648 9.3229.63295 11.588 1.5824 34.59.31648 3.6594.63295 11.763 1.8989 30.408 1.5824 22.131.63295 6.6219.63295 4.8793.31648 2.8753.31648 1.6555.31648 2.6139.94943 4.9664.63295 2.4396.63295 2.701 1.5824 8.2773.63295 2.2654.94943 4.705.31648.95843.31648.43565.31648 1.3941.63295 1.1327.31648.17426 1.5824 3.1367.31648-.26139.31648-.08713.31648-.34852.31648.26139.94943-.17426.63295-1.1327.63295-.69704.94943-.17426.31648-.52278.31648-.78417.31648-.34852.63295-2.6139.31648.087129.31648-.43565.31648-.8713.63295-2.6139.63295-3.2238 1.2659-2.9624.31648-2.1782.63295-2.8753.31648-.08713.63295-2.9624.31648-.52278.31648-2.4396.63295-2.4396 1.2659-4.7921.31648-.34852.31648-2.701.31648-.78417.31648-.26139.63295-5.2278.31648-.8713.31648-1.5683.63295-1.3069.31648-1.4812.31648-2.5268.63295-2.8753.31648-.43565.94943-7.8417 1.5824-27.969.31648-4.9664 2.5318-54.717 1.2659-13.854.31648-1.6555.31648-1.0456.31648.78417.31648.43565.94943 10.456 2.8483 55.589 3.4812 49.315.31648 2.004 1.8989 17.252.63295 3.8337.94943 4.0951.94943 5.9248.31648.69704.63295 2.5268 1.2659 4.4436.31648 1.6555.94943 2.5268.31648.26139.63295 1.7426.31648.08713.63295 1.7426.31648.34852.94943 2.4396.63295.08713.63295-.78417.31648.17426.31648-.34852.31648-.78417.31648-.26139.31648-.52278.31648-.95843.31648.34852.63295-.60991.31648-1.8297.31648.17426.31648-.8713.31648.087129.31648-1.5683.31648-.69704.31648-.34852.31648-1.3069.31648-.52278.63295-2.5268.31648-2.3525.31648-1.0456.31648-1.4812.31648-.34852.31648-1.9169.31648-.69704.94943-4.3565.31648-1.1327.63295-1.3069.31648-1.7426.31648.17426.31648-1.2198.31648-.69704h.31648l1.2659-7.2318.31648-.52278.31648-1.7426.94943-2.5268.31648-1.0456h.31648l.94943-6.012.31648-.34852 1.5824-8.1902.63295-5.1407.31648-4.5307.31648-2.6139.94943-16.555.94943-22.131.94943-21.957.31648-3.3109.31648-6.012.31648-8.4516 1.5824-17.862.31648-.26139.31648-1.2198.31648-.34852.94943 7.5803.63295 12.808.63295 9.6714 2.2153 37.727.63295 12.982.63295 10.107.94943 11.501.63295 11.24.63295 7.3189 1.2659 10.194.63295 4.4436 1.2659 9.6714.31648.8713.31648 1.3069.31648.78417 1.2659 6.4476.31648 1.1327.63295 1.1327.63295 2.004.31648.69704.31648 1.9169.31648.69704.31648-.43565.63295.95843.31648.17426.31648.8713.31648 1.6555.31648-.17426.31648.26139.63295.69704.31648.17426h.31648l.63295.34852.31648-.8713.31648-.52278.31648.95843.31648-.17426.63295-1.2198.31648-.087129.31648-.34852.31648-.52278.31648.69704.94943-1.3941.31648-2.004.31648-.8713.31648-.34852.31648-.52278.94943-3.8337v0" clip-path="url(#d)" fill="none" stroke="#28f" stroke-linecap="square" stroke-width="1.5"/>
   </g>
   <g id="cu">
    <path d="m52 259.78v-232.9" fill="none" stroke="#000" stroke-linecap="square" stroke-width=".8"/>
   </g>
   <g id="cv">
    <path d="m853.2 259.78v-232.9" fill="none" stroke="#000" stroke-linecap="square" stroke-width=".8"/>
   </g>
   <g id="cw">
    <path d="m52 259.78h801.2" fill="none" stroke="#000" stroke-linecap="square" stroke-width=".8"/>
   </g>
   <g id="cx">
    <path d="m52 26.88h801.2" fill="none" stroke="#000" stroke-linecap="square" stroke-width=".8"/>
   </g>
   <g id="cy">
    <!-- 同時接続数の推移 -->
    <g transform="translate(404.6 20.88) scale(.12 -.12)">
     <defs>
      <path id="x" transform="scale(.015625)" d="m1587 3936h3232v-518h-3232v518zm320-1114h557v-2534h-557v2534zm301 0h2291v-2086h-2291v512h1734v1069h-1734v505zm-1683 2260h5113v-570h-4524v-5056h-589v5626zm4768 0h595v-4896q0-250-67-397t-227-218q-160-77-426-96t-675-19q-13 83-45 192t-77 218q-45 108-89 185 281-13 527-13 247 0 330 0 83 7 118 42 36 35 36 112v4890z"/>
      <path id="v" transform="scale(.015625)" d="m2714 4672h3238v-525h-3238v525zm-244-1235h3712v-538h-3712v538zm20-1184h3635v-531h-3635v531zm1523 3155h595v-2310h-595v2310zm832-2451h589v-2823q0-230-61-364-61-135-227-199-167-70-423-86t-633-16q-20 121-78 285-57 163-121 284 275-6 509-9t310-3q77 6 106 28 29 23 29 93v2810zm-2023-1677 487 282q153-160 313-352t294-381q135-189 206-343l-519-313q-64 153-189 348-124 196-278 394-154 199-314 365zm-2086 3718h1619v-4281h-1619v544h1056v3187h-1056v550zm32-1843h1293v-537h-1293v537zm-320 1843h563v-4832h-563v4832z"/>
      <path id="w" transform="scale(.015625)" d="m3866 5408h614v-870h-614v870zm-1479-653h3597v-518h-3597v518zm-230-1485h4e3v-518h-4e3v518zm825 922 519 102q64-160 121-342 58-182 96-352 39-170 45-304l-544-128q-6 134-42 313-35 180-83 365-48 186-112 346zm1856 109 589-71q-96-275-202-557-105-281-195-486l-518 77q58 147 122 329 64 183 118 372t86 336zm-2643-2106h3943v-518h-3943v518zm1408 685 602-115q-167-371-362-784t-390-797-362-685l-525 179q160 288 346 666t368 784 323 752zm-659-2157 358 403q352-102 733-240 381-137 752-304 371-166 697-336 327-169 558-329l-384-461q-218 160-532 336-313 176-685 345-371 170-755 323-384 154-742 263zm1894 1114 583-71q-122-550-353-944-230-393-604-662t-922-435q-547-167-1296-269-25 128-93 269-67 141-137 230 678 64 1168 192t819 349q330 221 531 550 202 330 304 791zm-4684 217q396 90 953 240 557 151 1120 311l77-544q-525-154-1053-311-528-156-963-284l-134 588zm121 2093h1965v-563h-1965v563zm819 1248h576v-5229q0-236-51-374t-192-208q-141-77-355-99-214-23-541-16-13 115-64 288t-109 294q205-6 381-6t234 0q64 0 92 28 29 29 29 93v5229z"/>
      <path id="u" transform="scale(.015625)" d="m4058 5408h595v-1798h-595v1798zm-1415-563h3443v-499h-3443v499zm231-992h3008v-499h-3008v499zm-224-877h3475v-1203h-531v729h-2432v-729h-512v1203zm1964-877h551v-1881q0-122 22-157 23-35 106-35 25 0 92 0 68 0 135 0t99 0q51 0 83 54t45 224 19 515q90-70 234-131t259-93q-19-429-83-662-64-234-183-326-118-93-316-93-39 0-103 0t-134 0-138 0q-67 0-99 0-237 0-365 64t-176 218q-48 153-48 422v1881zm-1164-6h550v-455q0-243-48-528-48-284-186-579-137-294-409-572-272-279-727-503-70 90-192 208-121 118-230 195 416 205 665 438 250 234 371 474 122 240 164 467 42 228 42 413v442zm-2240 3309 524-192q-121-244-259-503-137-259-275-496t-259-416l-410 173q122 186 246 438 125 253 240 515 116 263 193 481zm716-743 500-230q-224-359-496-756-272-396-548-764-275-368-518-650l-358 205q179 211 377 483 199 272 387 569 189 298 358 592 170 295 298 551zm-1721-665 307 403q166-154 339-340 173-185 320-364t224-327l-326-460q-77 160-218 348-141 189-314 384-172 196-332 356zm1485-832 435 179q128-211 249-458 122-246 215-474 93-227 137-412l-473-211q-32 185-119 422-86 237-201 486-115 250-243 468zm-1530-583q422 26 998 54 576 29 1184 68l7-499q-570-45-1127-84-556-38-992-70l-70 531zm1702-992 436 135q121-276 214-596t118-556l-454-148q-26 237-112 563-86 327-202 602zm-1363 109 499-83q-57-455-163-897-105-441-253-748-51 32-134 73-83 42-170 83-86 42-144 62 148 294 234 697t131 813zm691 627h525v-2861h-525v2861z"/>
      <path id="p" transform="scale(.015625)" d="m224 2022h3187v-499h-3187v499zm51 2247h3111v-487h-3111v487zm1127-1735 563-121q-154-320-333-672t-352-679q-173-326-326-582l-532 173q148 243 324 566t345 669q170 346 311 646zm934-832 563-64q-89-480-262-838t-461-614-701-432-976-298q-25 128-99 269t-157 237q659 102 1085 303 426 202 666 554t342 883zm422 3597 519-211q-147-218-298-436-150-217-278-377l-403 186q121 173 252 413 132 240 208 425zm-1203 109h563v-2957h-563v2957zm-1075-320 448 186q134-192 246-420 112-227 157-393l-467-211q-38 172-147 406t-237 432zm1094-1050 397-236q-160-263-400-529-240-265-519-489-278-224-553-378-51 103-141 237-89 135-179 218 269 109 534 294 266 186 493 416 228 231 368 467zm487-204q83-45 246-145 163-99 352-211t346-211 221-150l-327-423q-83 77-230 198-147 122-317 253-170 132-327 250-156 119-259 189l295 250zm1798 396h2311v-556h-2311v556zm115 1178 615-90q-103-640-263-1235t-384-1101q-224-505-512-889-44 57-134 134t-186 157-166 125q275 339 473 796 199 458 340 995 141 538 217 1108zm1223-1510 614-58q-147-1101-445-1940-297-838-813-1443-515-604-1321-1014-26 71-90 177-64 105-134 208-70 102-128 159 742 346 1212 880 471 535 730 1290 260 755 375 1741zm-1005-135q134-851 387-1597 253-745 659-1305 407-560 1002-874-70-57-154-150-83-93-154-189-70-96-121-179-633 371-1056 988-422 618-688 1434-265 816-425 1783l550 89zm-3309-3065 327 416q377-148 754-330 378-182 701-378 324-195 548-368l-416-435q-211 179-519 378-307 198-666 383-358 186-729 334z"/>
      <path id="t" transform="scale(.015625)" d="m3686 4378q-64-493-163-1041-99-547-265-1084-192-653-432-1104t-522-688-595-237q-320 0-596 221-275 221-448 621-172 400-172 931 0 537 220 1017 221 480 611 851 391 372 909 583 519 211 1121 211 576 0 1040-186 464-185 793-515 330-329 502-771 173-441 173-941 0-672-278-1194-278-521-816-851-538-329-1318-444l-378 601q166 20 307 42t263 48q307 70 585 217 279 148 496 375 218 227 342 534 125 308 125 692t-122 713q-121 330-358 573-236 243-582 380-346 138-781 138-525 0-935-186-409-185-694-489-284-304-432-656-147-352-147-678 0-365 89-605 90-240 224-355 135-115 276-115t288 144 297 457q151 314 298 800 147 461 246 982 100 522 145 1021l684-12z"/>
      <path id="q" transform="scale(.015625)" d="m2995 2925h2893v-519h-2893v519zm0-1280h2893v-519h-2893v519zm-64-1299h3232v-557h-3232v557zm1312 3577h563v-3763h-563v3763zm429 1466 634-141q-154-390-340-794-185-403-339-684l-512 140q103 199 208 458 106 259 195 528 90 269 154 493zm-1472 25 582-147q-153-518-371-1018-217-499-483-931t-573-758q-38 64-109 160-70 96-147 198-77 103-141 160 416 416 733 1034t509 1302zm128-1203h2720v-537h-2720v-4205h-582v4422l313 320h269zm-3174-2157q396 90 953 240 557 151 1120 311l77-544q-525-154-1053-311-528-156-963-284l-134 588zm121 2093h1965v-563h-1965v563zm819 1248h576v-5229q0-236-51-374t-192-208q-141-77-355-99-214-23-541-16-13 115-64 288t-109 294q205-6 381-6t234 0q64 0 92 28 29 29 29 93v5229z"/>
      <path id="o" transform="scale(.015625)" d="m4051 5402 595-109q-281-493-729-941t-1107-806q-39 64-106 144t-141 153q-73 74-137 119 608 288 1011 678t614 762zm-77-557h1511v-493h-1863l352 493zm1293 0h109l109 25 384-179q-192-505-496-905t-695-701q-390-301-845-519-454-217-947-358-44 109-137 253t-176 227q448 109 867 294 419 186 777 445 359 259 631 592t419 730v96zm-1990-954 377 307q167-96 336-218 170-121 320-249 151-128 247-237l-397-332q-90 108-237 236t-317 259q-169 132-329 234zm1107-934 595-109q-307-538-803-1031-496-492-1232-876-38 64-102 144t-138 156q-74 77-138 116 455 217 807 483t604 554q253 288 407 563zm-90-589h1460v-506h-1818l358 506zm1268 0h121l109 26 384-167q-192-614-531-1075t-787-794q-448-332-983-553-534-221-1129-355-45 115-132 269-86 153-176 249 551 96 1043 285 493 189 903 473 410 285 714 669t464 883v90zm-2132-1056 410 339q186-102 384-237 198-134 371-275t282-269l-435-371q-103 128-270 272-166 144-361 288t-381 253zm-2150 3533h589v-5376h-589v5376zm-992-1242h2336v-569h-2336v569zm1024-224 365-160q-96-339-231-707-134-368-291-727-157-358-336-672-179-313-365-537-44 128-134 291t-160 272q173 192 339 457 167 266 323 570 157 304 282 618t208 595zm941 1946 416-467q-314-122-695-221-380-99-784-173-403-74-780-131-20 102-71 236-51 135-102 231 358 58 732 138 375 80 711 179t573 208zm-397-2579q58-45 179-170 122-125 266-266 144-140 259-265t160-183l-352-473q-58 102-157 255-99 154-218 317-118 164-227 311-108 147-185 237l275 237z"/>
     </defs>
     <use xlink:href="#x"/>
     <use transform="translate(100)" xlink:href="#v"/>
     <use transform="translate(200)" xlink:href="#w"/>
     <use transform="translate(300)" xlink:href="#u"/>
     <use transform="translate(400)" xlink:href="#p"/>
     <use transform="translate(500)" xlink:href="#t"/>
     <use transform="translate(600)" xlink:href="#q"/>
     <use transform="translate(700)" xlink:href="#o"/>
    </g>
   </g>
  </g>
  <g id="cz">
   <g id="da">
    <path d="m52 523.06h801.2v-232.9h-801.2z" fill="#fff"/>
   </g>
   <g id="db">
    <path d="m141.26 523.06h.94943v-232.9h-.94943z" clip-path="url(#c)" fill="#808080" opacity=".3" stroke="#808080"/>
   </g>
   <g id="dc">
    <path d="m490.81 523.06h.63295v-232.9h-.63295z" clip-path="url(#c)" fill="#808080" opacity=".3" stroke="#808080"/>
   </g>
   <g id="dd">
    <g id="de">
     <g id="df">
      <path d="m107.56 523.06v-232.9" clip-path="url(#c)" fill="none" stroke="#b0b0b0" stroke-linecap="square" stroke-opacity=".3" stroke-width=".8"/>
     </g>
     <g id="dg">
      <use x="107.560203" y="523.055464" stroke="#000000" stroke-width=".8" xlink:href="#g"/>
     </g>
     <g id="dh">
      <!-- 2025-07-01 -->
      <g transform="translate(60.771 563.33) rotate(-30) scale(.1 -.1)">
       <defs>
        <path id="h" transform="scale(.015625)" d="m301 1536v544h1689v-544h-1689z"/>
       </defs>
       <use xlink:href="#b"/>
       <use transform="translate(57)" xlink:href="#a"/>
       <use transform="translate(114)" xlink:href="#b"/>
       <use transform="translate(171)" xlink:href="#i"/>
       <use transform="translate(228)" xlink:href="#h"/>
       <use transform="translate(263.7)" xlink:href="#a"/>
       <use transform="translate(320.7)" xlink:href="#j"/>
       <use transform="translate(377.7)" xlink:href="#h"/>
       <use transform="translate(413.4)" xlink:href="#a"/>
       <use transform="translate(470.4)" xlink:href="#e"/>
      </g>
     </g>
    </g>
    <g id="di">
     <g id="dj">
      <path d="m198.71 523.06v-232.9" clip-path="url(#c)" fill="none" stroke="#b0b0b0" stroke-linecap="square" stroke-opacity=".3" stroke-width=".8"/>
     </g>
     <g id="dk">
      <use x="198.70515" y="523.055464" stroke="#000000" stroke-width=".8" xlink:href="#g"/>
     </g>
     <g id="dl">
      <!-- 2025-07-03 -->
      <g transform="translate(151.92 563.33) rotate(-30) scale(.1 -.1)">
       <use xlink:href="#b"/>
       <use transform="translate(57)" xlink:href="#a"/>
       <use transform="translate(114)" xlink:href="#b"/>
       <use transform="translate(171)" xlink:href="#i"/>
       <use transform="translate(228)" xlink:href="#h"/>
       <use transform="translate(263.7)" xlink:href="#a"/>
       <use transform="translate(320.7)" xlink:href="#j"/>
       <use transform="translate(377.7)" xlink:href="#h"/>
       <use transform="translate(413.4)" xlink:href="#a"/>
       <use transform="translate(470.4)" xlink:href="#l"/>
      </g>
     </g>
    </g>
    <g id="dm">
     <g id="dn">
      <path d="m289.85 523.06v-232.9" clip-path="url(#c)" fill="none" stroke="#b0b0b0" stroke-linecap="square" stroke-opacity=".3" stroke-width=".8"/>
     </g>
     <g id="do">
      <use x="289.850096" y="523.055464" stroke="#000000" stroke-width=".8" xlink:href="#g"/>
     </g>
     <g id="dp">
      <!-- 2025-07-05 -->
      <g transform="translate(243.06 563.33) rotate(-30) scale(.1 -.1)">
       <use xlink:href="#b"/>
       <use transform="translate(57)" xlink:href="#a"/>
       <use transform="translate(114)" xlink:href="#b"/>
       <use transform="translate(171)" xlink:href="#i"/>
       <use transform="translate(228)" xlink:href="#h"/>
       <use transform="translate(263.7)" xlink:href="#a"/>
       <use transform="translate(320.7)" xlink:href="#j"/>
       <use transform="translate(377.7)" xlink:href="#h"/>
       <use transform="translate(413.4)" xlink:href="#a"/>
       <use transform="translate(470.4)" xlink:href="#i"/>
      </g>
     </g>
    </g>
    <g id="dq">
     <g id="dr">
      <path d="m381 523.06v-232.9" clip-path="url(#c)" fill="none" stroke="#b0b0b0" stroke-linecap="square" stroke-opacity=".3" stroke-width=".8"/>
     </g>
     <g id="ds">
      <use x="380.995043" y="523.055464" stroke="#000000" stroke-width=".8" xlink:href="#g"/>
     </g>
     <g id="dt">
      <!-- 2025-07-07 -->
      <g transform="translate(334.21 563.33) rotate(-30) scale(.1 -.1)">
       <use xlink:href="#b"/>
       <use transform="translate(57)" xlink:href="#a"/>
       <use transform="translate(114)" xlink:href="#b"/>
       <use transform="translate(171)" xlink:href="#i"/>
       <use transform="translate(228)" xlink:href="#h"/>
       <use transform="translate(263.7)" xlink:href="#a"/>
       <use transform="translate(320.7)" xlink:href="#j"/>
       <use transform="translate(377.7)" xlink:href="#h"/>
       <use transform="translate(413.4)" xlink:href="#a"/>
       <use transform="translate(470.4)" xlink:href="#j"/>
      </g>
     </g>
    </g>
    <g id="du">
     <g id="dv">
      <path d="m472.14 523.06v-232.9" clip-path="url(#c)" fill="none" stroke="#b0b0b0" stroke-linecap="square" stroke-opacity=".3" stroke-width=".8"/>
     </g>
     <g id="dw">
      <use x="472.139989" y="523.055464" stroke="#000000" stroke-width=".8" xlink:href="#g"/>
     </g>
     <g id="dx">
      <!-- 2025-07-09 -->
      <g transform="translate(425.35 563.33) rotate(-30) scale(.1 -.1)">
       <use xlink:href="#b"/>
       <use transform="translate(57)" xlink:href="#a"/>
       <use transform="translate(114)" xlink:href="#b"/>
       <use transform="translate(171)" xlink:href="#i"/>
       <use transform="translate(228)" xlink:href="#h"/>
       <use transform="translate(263.7)" xlink:href="#a"/>
       <use transform="translate(320.7)" xlink:href="#j"/>
       <use transform="translate(377.7)" xlink:href="#h"/>
       <use transform="translate(413.4)" xlink:href="#a"/>
       <use transform="translate(470.4)" xlink:href="#m"/>
      </g>
     </g>
    </g>
    <g id="dy">
     <g id="dz">
      <path d="m563.28 523.06v-232.9" clip-path="url(#c)" fill="none" stroke="#b0b0b0" stroke-linecap="square" stroke-opacity=".3" stroke-width=".8"/>
     </g>
     <g id="ea">
      <use x="563.284936" y="523.055464" stroke="#000000" stroke-width=".8" xlink:href="#g"/>
     </g>
     <g id="eb">
      <!-- 2025-07-11 -->
      <g transform="translate(516.5 563.33) rotate(-30) scale(.1 -.1)">
       <use xlink:href="#b"/>
       <use transform="translate(57)" xlink:href="#a"/>
       <use transform="translate(114)" xlink:href="#b"/>
       <use transform="translate(171)" xlink:href="#i"/>
       <use transform="translate(228)" xlink:href="#h"/>
       <use transform="translate(263.7)" xlink:href="#a"/>
       <use transform="translate(320.7)" xlink:href="#j"/>
       <use transform="translate(377.7)" xlink:href="#h"/>
       <use transform="translate(413.4)" xlink:href="#e"/>
       <use transform="translate(470.4)" xlink:href="#e"/>
      </g>
     </g>
    </g>
    <g id="ec">
     <g id="ed">
      <path d="m654.43 523.06v-232.9" clip-path="url(#c)" fill="none" stroke="#b0b0b0" stroke-linecap="square" stroke-opacity=".3" stroke-width=".8"/>
     </g>
     <g id="ee">
      <use x="654.429882" y="523.055464" stroke="#000000" stroke-width=".8" xlink:href="#g"/>
     </g>
     <g id="ef">
      <!-- 2025-07-13 -->
      <g transform="translate(607.64 563.33) rotate(-30) scale(.1 -.1)">
       <use xlink:href="#b"/>
       <use transform="translate(57)" xlink:href="#a"/>
       <use transform="translate(114)" xlink:href="#b"/>
       <use transform="translate(171)" xlink:href="#i"/>
       <use transform="translate(228)" xlink:href="#h"/>
       <use transform="translate(263.7)" xlink:href="#a"/>
       <use transform="translate(320.7)" xlink:href="#j"/>
       <use transform="translate(377.7)" xlink:href="#h"/>
       <use transform="translate(413.4)" xlink:href="#e"/>
       <use transform="translate(470.4)" xlink:href="#l"/>
      </g>
     </g>
    </g>
    <g id="eg">
     <g id="eh">
      <path d="m745.57 523.06v-232.9" clip-path="url(#c)" fill="none" stroke="#b0b0b0" stroke-linecap="square" stroke-opacity=".3" stroke-width=".8"/>
     </g>
     <g id="ei">
      <use x="745.574829" y="523.055464" stroke="#000000" stroke-width=".8" xlink:href="#g"/>
     </g>
     <g id="ej">
      <!-- 2025-07-15 -->
      <g transform="translate(698.79 563.33) rotate(-30) scale(.1 -.1)">
       <use xlink:href="#b"/>
       <use transform="translate(57)" xlink:href="#a"/>
       <use transform="translate(114)" xlink:href="#b"/>
       <use transform="translate(171)" xlink:href="#i"/>
       <use transform="translate(228)" xlink:href="#h"/>
       <use transform="translate(263.7)" xlink:href="#a"/>
       <use transform="translate(320.7)" xlink:href="#j"/>
       <use transform="translate(377.7)" xlink:href="#h"/>
       <use transform="translate(413.4)" xlink:href="#e"/>
       <use transform="translate(470.4)" xlink:href="#i"/>
      </g>
     </g>
    </g>
    <g id="ek">
     <g id="el">
      <path d="m836.72 523.06v-232.9" clip-path="url(#c)" fill="none" stroke="#b0b0b0" stroke-linecap="square" stroke-opacity=".3" stroke-width=".8"/>
     </g>
     <g id="em">
      <use x="836.719775" y="523.055464" stroke="#000000" stroke-width=".8" xlink:href="#g"/>
     </g>
     <g id="en">
      <!-- 2025-07-17 -->
      <g transform="translate(789.93 563.33) rotate(-30) scale(.1 -.1)">
       <use xlink:href="#b"/>
       <use transform="translate(57)" xlink:href="#a"/>
       <use transform="translate(114)" xlink:href="#b"/>
       <use transform="translate(171)" xlink:href="#i"/>
       <use transform="translate(228)" xlink:href="#h"/>
       <use transform="translate(263.7)" xlink:href="#a"/>
       <use transform="translate(320.7)" xlink:href="#j"/>
       <use transform="translate(377.7)" xlink:href="#h"/>
       <use transform="translate(413.4)" xlink:href="#e"/>
       <use transform="translate(470.4)" xlink:href="#j"/>
      </g>
     </g>
    </g>
   </g>
   <g id="eo">
    <g id="ep">
     <g id="eq">
      <path d="m52 512.86h801.2" clip-path="url(#c)" fill="none" stroke="#b0b0b0" stroke-linecap="square" stroke-opacity=".3" stroke-width=".8"/>
     </g>
     <g id="er">
      <use x="52" y="512.864361" stroke="#000000" stroke-width=".8" xlink:href="#f"/>
     </g>
     <g id="es">
      <!-- 104700 -->
      <g transform="translate(10.8 516.85) scale(.1 -.1)">
       <use xlink:href="#e"/>
       <use transform="translate(57)" xlink:href="#a"/>
       <use transform="translate(114)" xlink:href="#n"/>
       <use transform="translate(171)" xlink:href="#j"/>
       <use transform="translate(228)" xlink:href="#a"/>
       <use transform="translate(285)" xlink:href="#a"/>
      </g>
     </g>
    </g>
    <g id="et">
     <g id="eu">
      <path d="m52 489.15h801.2" clip-path="url(#c)" fill="none" stroke="#b0b0b0" stroke-linecap="square" stroke-opacity=".3" stroke-width=".8"/>
     </g>
     <g id="ev">
      <use x="52" y="489.15493" stroke="#000000" stroke-width=".8" xlink:href="#f"/>
     </g>
     <g id="ew">
      <!-- 105000 -->
      <g transform="translate(10.8 493.14) scale(.1 -.1)">
       <use xlink:href="#e"/>
       <use transform="translate(57)" xlink:href="#a"/>
       <use transform="translate(114)" xlink:href="#i"/>
       <use transform="translate(171)" xlink:href="#a"/>
       <use transform="translate(228)" xlink:href="#a"/>
       <use transform="translate(285)" xlink:href="#a"/>
      </g>
     </g>
    </g>
    <g id="ex">
     <g id="ey">
      <path d="m52 465.45h801.2" clip-path="url(#c)" fill="none" stroke="#b0b0b0" stroke-linecap="square" stroke-opacity=".3" stroke-width=".8"/>
     </g>
     <g id="ez">
      <use x="52" y="465.4455" stroke="#000000" stroke-width=".8" xlink:href="#f"/>
     </g>
     <g id="fa">
      <!-- 105300 -->
      <g transform="translate(10.8 469.43) scale(.1 -.1)">
       <use xlink:href="#e"/>
       <use transform="translate(57)" xlink:href="#a"/>
       <use transform="translate(114)" xlink:href="#i"/>
       <use transform="translate(171)" xlink:href="#l"/>
       <use transform="translate(228)" xlink:href="#a"/>
       <use transform="translate(285)" xlink:href="#a"/>
      </g>
     </g>
    </g>
    <g id="fb">
     <g id="fc">
      <path d="m52 441.74h801.2" clip-path="url(#c)" fill="none" stroke="#b0b0b0" stroke-linecap="square" stroke-opacity=".3" stroke-width=".8"/>
     </g>
     <g id="fd">
      <use x="52" y="441.73607" stroke="#000000" stroke-width=".8" xlink:href="#f"/>
     </g>
     <g id="fe">
      <!-- 105600 -->
      <g transform="translate(10.8 445.72) scale(.1 -.1)">
       <use xlink:href="#e"/>
       <use transform="translate(57)" xlink:href="#a"/>
       <use transform="translate(114)" xlink:href="#i"/>
       <use transform="translate(171)" xlink:href="#k"/>
       <use transform="translate(228)" xlink:href="#a"/>
       <use transform="translate(285)" xlink:href="#a"/>
      </g>
     </g>
    </g>
    <g id="ff">
     <g id="fg">
      <path d="m52 418.03h801.2" clip-path="url(#c)" fill="none" stroke="#b0b0b0" stroke-linecap="square" stroke-opacity=".3" stroke-width=".8"/>
     </g>
     <g id="fh">
      <use x="52" y="418.02664" stroke="#000000" stroke-width=".8" xlink:href="#f"/>
     </g>
     <g id="fi">
      <!-- 105900 -->
      <g transform="translate(10.8 422.01) scale(.1 -.1)">
       <use xlink:href="#e"/>
       <use transform="translate(57)" xlink:href="#a"/>
       <use transform="translate(114)" xlink:href="#i"/>
       <use transform="translate(171)" xlink:href="#m"/>
       <use transform="translate(228)" xlink:href="#a"/>
       <use transform="translate(285)" xlink:href="#a"/>
      </g>
     </g>
    </g>
    <g id="fj">
     <g id="fk">
      <path d="m52 394.32h801.2" clip-path="url(#c)" fill="none" stroke="#b0b0b0" stroke-linecap="square" stroke-opacity=".3" stroke-width=".8"/>
     </g>
     <g id="fl">
      <use x="52" y="394.31721" stroke="#000000" stroke-width=".8" xlink:href="#f"/>
     </g>
     <g id="fm">
      <!-- 106200 -->
      <g transform="translate(10.8 398.3) scale(.1 -.1)">
       <use xlink:href="#e"/>
       <use transform="translate(57)" xlink:href="#a"/>
       <use transform="translate(114)" xlink:href="#k"/>
       <use transform="translate(171)" xlink:href="#b"/>
       <use transform="translate(228)" xlink:href="#a"/>
       <use transform="translate(285)" xlink:href="#a"/>
      </g>
     </g>
    </g>
    <g id="fn">
     <g id="fo">
      <path d="m52 370.61h801.2" clip-path="url(#c)" fill="none" stroke="#b0b0b0" stroke-linecap="square" stroke-opacity=".3" stroke-width=".8"/>
     </g>
     <g id="fp">
      <use x="52" y="370.60778" stroke="#000000" stroke-width=".8" xlink:href="#f"/>
     </g>
     <g id="fq">
      <!-- 106500 -->
      <g transform="translate(10.8 374.59) scale(.1 -.1)">
       <use xlink:href="#e"/>
       <use transform="translate(57)" xlink:href="#a"/>
       <use transform="translate(114)" xlink:href="#k"/>
       <use transform="translate(171)" xlink:href="#i"/>
       <use transform="translate(228)" xlink:href="#a"/>
       <use transform="translate(285)" xlink:href="#a"/>
      </g>
     </g>
    </g>
    <g id="fr">
     <g id="fs">
      <path d="m52 346.9h801.2" clip-path="url(#c)" fill="none" stroke="#b0b0b0" stroke-linecap="square" stroke-opacity=".3" stroke-width=".8"/>
     </g>
     <g id="ft">
      <use x="52" y="346.89835" stroke="#000000" stroke-width=".8" xlink:href="#f"/>
     </g>
     <g id="fu">
      <!-- 106800 -->
      <g transform="translate(10.8 350.88) scale(.1 -.1)">
       <use xlink:href="#e"/>
       <use transform="translate(57)" xlink:href="#a"/>
       <use transform="translate(114)" xlink:href="#k"/>
       <use transform="translate(171)" xlink:href="#r"/>
       <use transform="translate(228)" xlink:href="#a"/>
       <use transform="translate(285)" xlink:href="#a"/>
      </g>
     </g>
    </g>
    <g id="fv">
     <g id="fw">
      <path d="m52 323.19h801.2" clip-path="url(#c)" fill="none" stroke="#b0b0b0" stroke-linecap="square" stroke-opacity=".3" stroke-width=".8"/>
     </g>
     <g id="fx">
      <use x="52" y="323.18892" stroke="#000000" stroke-width=".8" xlink:href="#f"/>
     </g>
     <g id="fy">
      <!-- 107100 -->
      <g transform="translate(10.8 327.17) scale(.1 -.1)">
       <use xlink:href="#e"/>
       <use transform="translate(57)" xlink:href="#a"/>
       <use transform="translate(114)" xlink:href="#j"/>
       <use transform="translate(171)" xlink:href="#e"/>
       <use transform="translate(228)" xlink:href="#a"/>
       <use transform="translate(285)" xlink:href="#a"/>
      </g>
     </g>
    </g>
    <g id="fz">
     <g id="ga">
      <path d="m52 299.48h801.2" clip-path="url(#c)" fill="none" stroke="#b0b0b0" stroke-linecap="square" stroke-opacity=".3" stroke-width=".8"/>
     </g>
     <g id="gb">
      <use x="52" y="299.47949" stroke="#000000" stroke-width=".8" xlink:href="#f"/>
     </g>
     <g id="gc">
      <!-- 107400 -->
      <g transform="translate(10.8 303.46) scale(.1 -.1)">
       <use xlink:href="#e"/>
       <use transform="translate(57)" xlink:href="#a"/>
       <use transform="translate(114)" xlink:href="#j"/>
       <use transform="translate(171)" xlink:href="#n"/>
       <use transform="translate(228)" xlink:href="#a"/>
       <use transform="translate(285)" xlink:href="#a"/>
      </g>
     </g>
    </g>
   </g>
   <g id="gd">
    <path d="m88.418 512.47h.16984l.49687-.31612h.44781l1.4236-.55322.49212-.31613 1.3957-.23709.94943.15806.47471-.23709.47471-.39516h.47471l.94943-1.0274.94943-.15806.94943-.71128 1.4241.15806.47471-.079031.47471-.31613.47471-.47419.47471-.79032.94943-.71128h.47471l.94943-.71128.47471-.47419 1.4241-2.8451 1.4241-1.1064.47471-.23709.47471.079031.47471-.39516h1.4241l.47471-.31613h.47471l.47471-.39516.47471-.23709 2.3736-.47419.47471.15806.47471-.079031.47471.079031 2.3736-.31612 1.8989-.079032 1.4241-.15806 6.1713-.079031.94943-.079032h.47471l.47471-.15806h.94943l.47471-.31612 1.4241-.39516.94943-.2371.94943-.31612h.47471l.94943-.47419 1.4241-.31613 2.3736-.86935.94943-.39516.94943-.23709m.94943-.47419.47471-.31612.47471-.71128.47471-.39516 1.4241-.31613.94943-.31613.94943-.63225.47471-1.0274.47471-.31613.94943-1.6597h.47471l.94943-1.1064.47471-.23709.47471-.55322 1.8989-1.2645.47471.079031 1.4241-.94838.47471-.15806.94943-.079031 1.4241-.2371.47471.15806h.47471l.94943-.55322.94943-.15806.47471.079032.47471-.15806.47471.079031 2.3736-.31612.94943.079031.94943-.079031.94943.079031h2.8483l.94943-.23709.94943.23709.47471.079032 1.4241-.39516h.47471l.47471-.15806h.47471l.47471-.31612.94943-.2371.47471-.39516 1.8989.079032.47471.079031.47471-.079031.47471-.2371 1.4241-.15806.47471.15806 1.4241-.15806h.47471l1.4241-.86935.47471-.079032.47471-.31612.47471.079031.94943-.15806.47471.079032.47471-.31613.47471-.15806h.94943l.47471-.55322.94943-.55322.47471-.55322 1.4241-.55322.94943-.55322.47471-.79032.47471-.079031.47471-.31613.47471-.86934 1.4241-1.3435.47471-.15806.47471.2371.47471-.15806.47471-.39516 1.8989-.55322.47471-.079032.47471.079032.47471-.2371.94943.079032h2.3736l.47471-.15806.94943.15806 1.4241-.15806 3.323-.079032.47471.2371h.47471l1.8989-.55322 1.1077-.079032.15824-.079031.47471.15806h.79119l.15824-.15806 1.4241.079031.15824.15806.94943-.079031.31648-.079032h.31648l.15824-.15806.15824.15806.79119-.079031.15824-.15806.47471.079031.31648.079032.31648-.079032 1.4241-.079031.31648-.23709.15824-.15806.15824.15806.31648.079031.15824.079031.79119-.31612.31648.079031.63295-.23709 1.1077.079031.15824.15806h.15824l.31648-.31613h.15824l.31648-.39516.63295-.39516.31648-.23709h1.7406l.15824-.15806.94943-.079032 1.5824-.71128h.47471l.15824-.15806.31648-.079032.15824-.23709.15824.15806.15824-.079032.15824.15806.47471-.47419.47471-.079032.15824-.15806h.47471l.15824-.15806h.15824l.47471-.71128.47471-.079032.31648-.15806.31648-.79031 1.1077-1.1064.15824.15806.31648-.15806.15824-.23709h.15824l.15824.15806.31648-.079031.31648-.55322h.31648l.15824-.47419.15824.079032.79119-.31613h.15824l.31648-.39516.31648-.23709.63295-.079032.31648-.23709.47471-.079032.31648-.079031h.47471l.31648-.31613.31648-.079031.47471-.15806 1.1077-.079031.31648-.079032 2.0571-.079031.31648-.079032 3.4812-.079031.31648-.079032 2.5318-.079031.79119-.31613 3.7977-.079031 1.2659-.31613.31648-.23709 2.2153.079031.31648.15806 1.2659-.23709 1.5824-.079032.63295-.39516.94943-.079031.63295-.31613h.31648l.63295-.23709h.31648l.63295-.71128 1.5824-.31613.31648-.31613 1.8989-.47419.31648.079031.31648-.15806.63295-.079031.94943-.23709.31648.079031.31648-.23709.31648-.079032.63295-.55322.31648-.079031.63295-.79032.31648-.23709h.31648l1.2659-.79031 1.5824-.39516 1.2659-1.3435.31648-.47419h.31648l.94943-.94838h.31648l.31648-.23709.31648-.39516.63295-.31613.31648.079032.63295-.71128.63295-.63225.31648-.23709h.31648l.31648-.47419 1.2659-.23709h2.2153l.31648-.15806h.31648l.31648-.15806 1.2659-.15806.94943-.079031 2.5318-.55322 3.1648.079031.63295.079032.94943-.079032.31648-.23709.94943.15806.31648-.079031.63295.079031h1.5824l.94943-.39516h1.2659l.63295-.31613h.94943l.31648-.15806.94943-.079031.31648-.079032.31648.079032.31648-.15806.31648.079031.94943-.23709.31648-.23709.31648.079031.63295-.71128.31648-.39516.63295.23709.31648-.23709h.63295l.63295-.31613.94943-.079031.63295-.71128h.31648l.63295-.23709.31648.079031.31648-.31613.31648-.079031.31648.079031.31648-.079031.31648.15806.31648-.15806.31648.079031.31648-.079031.94943-.71128h.31648l.31648-.15806.63295-1.0274.31648-.39516.94943-.55322.31648-.63225.31648-.079031.94943-.94838.31648.079032.94943-.63225.63295-1.2645.63295-.079031.63295-.71128 1.2659-.39516.31648-.23709.31648-.079032.31648-.23709 1.2659-.39516.63295-.71128.63295-.079032 1.2659-.23709.31648-.39516 2.2153-.079032.63295-.23709.94943-.079031.94943-.2371.31648.079032.63295-.079032.94943.079032.63295.079031.63295-.31613 1.2659.079032.31648.23709h2.8483l.63295-.39516h.31648l.63295-.23709 1.2659.079031.63295.079032.31648-.15806h.31648l.31648-.31613h.31648l.31648-.23709 1.2659-.39516.31648-.15806.63295-.079032.31648-.31612.31648-.47419 1.2659-.23709h.31648l.63295.23709h.31648l.63295-.23709.31648-.39516 1.5824-.47419.31648-.15806.94943-.079031.31648-.15806.94943.15806.94943-.079032.63295-.23709.63295-.15806 1.5824-1.1855.31648-.079031.31648.079031.31648-.23709h.63295l.31648-.39516.63295-.31613.63295-.63225.94943.079031.31648-.31613.31648-.15806.31648.079031.63295-.47419.31648-.47419.31648.15806.31648-.31613.31648-.079031.31648.23709.31648-.31613.63295.15806.63295-.47419.31648-.079031.31648-.23709.63295.079031.31648-.23709h.31648l.31648.15806.31648-.079032.31648-.39516.31648.079031.94943-.23709.31648.079032.31648-.079032.63295.079032 2.2153.079031.31648.23709 2.2153-.079031.63295-.079032 1.5824.079032.31648.15806.31648-.15806h1.2659l.31648-.15806.94943.079031.63295.079032 2.8483-.079032.63295-.079031 1.2659.079031.31648-.23709 1.2659-.23709.31648.15806.31648-.2371.63295-.079031.94943.15806.31648-.23709.63295-.079032h.31648l.63295-.23709 3.4812-.079032.63295-.23709.63295-.31613 1.5824-.079031.63295-.31613.31648-.31613 1.2659-.55322.63295.079032 1.2659-.94838.31648.15806.31648-.15806.31648-.47419.94943-.55322.31648-.23709h.31648l.63295-.94838.94943-.71128.31648-.47419h.31648l.63295-.71128.31648.15806.63295-.079031.31648-.47419.31648.079031.31648-.31612.94943-.47419.31648-.47419h.31648l.63295-.39516.94943-.39516 1.2659-.079031.94943-.39516 1.8989.079032.63295.079031 2.2153.079032.63295.079031 1.2659-.15806.31648-.079031.31648.079031.63295-.079031h3.1648l.31648-.15806.94943-.079031.63295-.079032 1.2659-.079031.31648-.079032.94943.31613.63295-.23709 1.5824-.079032.94943-.15806.63295-.079031.31648-.15806 1.8989.079032.31648-.2371.94943-.23709.63295-.39516h.31648l.31648-.15806.31648-.31613.31648-.15806.31648.079032.94943-.2371.63295.15806.63295-.079031.31648.079031 1.8989-.94838.63295-.079031.94943-.2371.31648-.23709.63295-.079031.31648-.47419.31648-.15806.31648.079032.31648-.31613.31648-.079032.94943-1.8177.31648-.31612h.31648l.31648-.15806.63295-.55322.31648-.15806.31648-.55322 1.8989-1.4226.94943-.94838.31648-.55322 1.2659-.39516.31648.15806.31648-.079032.31648-.23709.31648-.079032.31648-.31612h.31648l.31648-.15806.31648.079031 2.2153-.47419.94943-.079032.63295-.15806.63295.079032 1.8989-.079032.31648-.079031.31648.079031.63295-.079031.63295.079031 1.8989-.079031.31648-.079032.63295.079032 1.2659-.079032 1.8989-.39516m.63295.2371.31648-.15806h.31648l.31648-.15806h3.4812l.31648-.23709 1.2659-.15806.31648-.079032.31648.079032.63295-.39516.31648.079031.63295-.079031.31648.079031.31648-.15806.63295.15806.31648-.15806.94943-.079031.63295-.31613.63295.31613.63295-.39516.94943-.31612.94943-.39516.31648-.39516.31648-.15806h.31648l.31648-.2371h.63295l.63295-.55322.63295.31613.31648-.31613.31648-.55322.63295-.31613h.31648l1.2659-.71128.63295-.55322.63295-.15806.31648-.55322.31648-.2371.31648-.71128.31648-.31612.31648-.15806.31648-.31613h.31648l.63295-.63225.94943-.31613.31648-.15806.31648-.31613 1.2659-.55322.31648.079032.31648-.2371.63295.15806.31648-.31613h.63295l.31648-.23709.94943-.079031 1.2659-.15806.31648-.079032.31648.079032 1.2659-.63225 1.5824-.079031.31648-.079031.94943.15806 1.5824-.079031.31648-.079031.63295.15806.94943-.15806.31648.079031.31648-.079031.94943.15806h.63295l.31648-.31612 2.5318-.079032.94943-.15806.94943.15806 1.2659-.079031.31648-.23709.94943-.079032.94943-.39516 1.2659-.23709.63295-.079032 1.5824-.31613.94943-.079031.31648-.15806h.31648l.31648-.31613h.31648l.63295-.79031.63295-.39516.31648-.23709 1.2659-.31613.31648-.39516.31648-.15806h.31648l.94943-.39516h.31648l.31648-.31613.63295-.079032.63295-.79031.63295-.39516.31648-.31613.63295-.39516.31648-.31613.31648-.15806.31648-.31612.31648-.079032.31648-.31612.31648-.079032.31648-.31613.31648-.15806.63295-.79032.31648.079032.63295-1.1855.31648-.31613.31648-.15806.63295-.079032.31648-.55322h.31648l.63295-.31613.31648-.31612h.31648l.63295-.31613.31648-.47419.31648-.079031.63295-.39516.63295.079031.31648-.39516.63295-.23709 1.5824-.079032.31648.31613.63295.079031h.31648l.31648-.23709.94943-.15806 1.8989-.079031.63295-.079032.31648-.31612.94943-.079032.63295-.079031 6.3295-.079032.63295-.15806.31648.079032 1.8989-.55322.31648-.15806h.31648l.31648-.15806h.31648l.31648-.15806.94943.15806.63295-.079031h.63295l.63295-.2371.31648-.39516 1.2659-.55322h.63295l.63295-.31613.31648.079032.63295-.23709.31648.15806.31648-.15806.63295-.079032.31648-.31613.94943-.47419h.31648l.63295-.2371.31648.15806.63295-.23709.31648-.39516 1.5824-.71128.31648.079031.94943-.39516.31648.079032.31648-.2371h.31648l1.2659-.86934.31648-.15806 1.5824-1.5016h.31648l.31648-.31612.31648-.079032 1.5824-2.45.63295-.079032.31648-.31612.31648-.15806.31648-.55322.31648-.31613.63295-.23709.31648-.31613.31648-.079031.63295-.55322.31648-.31613.94943-.23709.63295-.39516 1.8989-.39516.31648.079032.63295-.079032.94943.15806 1.5824-.079031.63295-.079032 1.5824-.079031.63295-.079032.63295.079032.94943.079031.94943.15806.31648-.15806.63295.079032 1.2659.23709.31648-.15806.31648.15806.63295-.079032.31648-.31612 1.2659-.31613.63295.15806 1.2659-.47419h.31648l.31648-.15806.63295-.079031 1.8989-.39516.31648.079031.31648-.15806h.31648l.31648-.31612.31648-.15806.31648-.31613h.31648l1.5824-.71128 1.5824-.39516.31648-.39516.63295.079031.63295-.63225.63295-.39516.31648.079031.31648-.079031.31648-.31613.63295.55322.63295.23709 1.5824-.39516.31648-.39516.31648-.079032.63295-.55322h.31648l.63295-.31612.31648.079031.31648-.39516.31648-.15806.63295-.63225.31648-.55322.63295-.55322.31648-.55322.31648-.15806.63295-.79032h.31648l.63295-.71128.31648.079032.63295-.47419.31648-.79031.31648-.079032.31648-.55322.31648-.079031.31648-.31613.31648-.63225.63295-.39516.63295-.079032.63295-.71128.63295-.079031.63295-.47419.31648-.47419.31648-.079032.31648-.23709.31648-.079032.94943-.94838.63295-.079031 1.2659.31613.31648-.2371.31648-.079031.94943.15806 1.8989-.079032 1.2659-.23709 2.2153-.079032.94943-.15806 2.2153-.079032 1.2659-.23709h.94943l.63295-.31613.31648.079032.31648-.079032.31648.079032.31648-.079032.63295.079032.63295-.079032.63295.079032.31648-.2371 1.2659-.31612.31648-.2371h.31648l.63295-.39516.63295-.23709.31648-.15806.63295.079031 1.5824-.39516.31648-.31613.63295-.15806.31648.079031.31648.31613.31648.079031.31648-.15806.31648.079032.94943-.71128.31648.15806.31648-.079032.63295-.47419.63295.079031h.31648l.31648-.31613.31648.079032.63295-.55322h.63295l.63295-.2371.31648.079032.31648-.079032.31648.079032.94943-.86935.94943-.63225.63295-.79032.31648-.079031.31648-.63225.31648.079032.31648-.47419.31648-.079031.31648-.47419.63295-.31613.63295-.71128h.31648l.31648-.55322.31648-.079032.63295-.63225.31648.15806 1.2659-.55322.63295.2371.63295-.2371 1.8989-.39516 1.2659-.079031 1.5824-.31613 1.2659-.15806 1.5824-.079031 1.8989-.39516h2.2153l.31648.15806h.63295l.63295.15806.31648-.15806h.63295l.31648-.15806.31648.079031 1.2659-.31613.63295.079032h.31648l.31648-.2371 2.8483-.079031.94943-.47419 1.5824-.079031.63295-.23709.31648.15806.31648-.2371.63295-.079031h.31648l.31648-.15806.94943.079031.63295.2371.63295-.079032.31648-.15806.63295.079032.31648-.15806.31648.079031 1.2659-.39516.31648-.31612.31648-.15806.31648.23709.31648-.23709.31648-.079032.31648-.23709h.63295l.31648-.23709h.31648l.31648-.47419.31648.23709h.31648l.31648-.79031.94943-.55322.63295-.39516.31648-.15806.63295-1.1855.31648.15806.31648-.15806h.31648l1.2659-1.3435.31648.079031.63295-.55322.31648-.55322.31648.15806.31648-.23709.31648-.079031.31648-.2371.31648-.079031.31648-.39516.63295.079031.31648-.15806.31648-.31613.31648-.079031.31648-.39516.31648-.15806.31648.079031 2.2153-1.0274 1.5824-.079032.94943-.15806h.94943l.31648-.15806 1.8989-.079032 1.2659-.31613.63295.079032h.31648l.31648-.15806 1.2659.079031.94943.15806 1.2659-.23709 1.2659-.15806 1.5824-.079031 1.2659-.2371.94943.079032 1.2659.23709h.31648l.31648-.23709.31648-.079032.94943-.79031h2.8483l.31648-.15806.31648.079032.63295-.15806.31648.079031.63295-.23709 1.2659-.23709.31648-.39516.63295-.23709.31648.079032.31648.23709h.31648l.31648-.23709.31648-.39516.31648-.079031.31648-.23709.31648-.079032.31648.15806.94943-.55322.31648-.23709h.31648l.63295-.55322.31648-.2371.31648-.47419.63295-.15806.31648-.31613.31648-.15806.63295-1.0274.94943-.55322.63295-.79032.31648-.15806.31648-.63225.31648-.23709.94943-.31613.31648.15806.31648-.31613.63295-.23709.31648-.2371.31648.15806.31648-.31612h.31648l.31648-.15806.31648-.31613.31648-.47419.31648-.23709 1.5824.079032.31648-.2371 1.2659-.079031.94943-.15806.94943.15806 2.5318-.079032.94943-.15806h4.1142l.31648-.31613 1.5824-.079032 1.5824-.31612 2.2153-.079032.63295-.23709.31648.079031 1.2659-.15806 1.5824-.47419.31648-.15806.31648-.39516.63295-.23709v0" clip-path="url(#c)" fill="none" stroke="#28f" stroke-linecap="square" stroke-width="1.5"/>
   </g>
   <g id="ge">
    <path d="m52 523.06v-232.9" fill="none" stroke="#000" stroke-linecap="square" stroke-width=".8"/>
   </g>
   <g id="gf">
    <path d="m853.2 523.06v-232.9" fill="none" stroke="#000" stroke-linecap="square" stroke-width=".8"/>
   </g>
   <g id="gg">
    <path d="m52 523.06h801.2" fill="none" stroke="#000" stroke-linecap="square" stroke-width=".8"/>
   </g>
   <g id="gh">
    <path d="m52 290.16h801.2" fill="none" stroke="#000" stroke-linecap="square" stroke-width=".8"/>
   </g>
   <g id="gi">
    <!-- サーバー数の推移 -->
    <g transform="translate(404.6 284.16) scale(.12 -.12)">
     <defs>
      <path id="z" transform="scale(.015625)" d="m4685 2893q0-621-84-1111-83-489-288-877-204-387-569-691t-928-560l-544 512q448 167 781 371 333 205 550 503 218 298 323 739 106 442 106 1075v1620q0 192-10 339-9 147-22 217h723q-6-70-22-217t-16-339v-1581zm-2304 2086q-7-64-23-199-16-134-16-313v-2317q0-128 6-256 7-128 13-224 7-96 13-140h-710q6 44 12 140 7 96 13 221 7 125 7 259v2317q0 122-10 256-9 135-28 256h723zm-1978-1197q45-12 144-22t237-20q138-9 285-9h4217q237 0 394 13t246 26v-679q-76 7-240 13-163 6-393 6h-4224q-147 0-282-3-134-3-234-10-99-6-150-12v697z"/>
      <path id="s" transform="scale(.015625)" d="m621 2854q109-6 265-16 157-9 339-16 183-6 349-6 128 0 352 0t509 0 598 0q314 0 624 0 311 0 586 0t486 0q212 0 327 0 230 0 416 16t301 22v-793q-109 6-308 19-198 13-409 13-109 0-324 0-214 0-489 0t-586 0q-310 0-624 0-313 0-598 0t-509 0-352 0q-262 0-525-10-262-9-428-22v793z"/>
      <path id="y" transform="scale(.015625)" d="m4941 5037q83-109 176-269t182-320q90-160 154-288l-416-179q-96 192-240 448t-272 435l416 173zm723 275q83-122 182-282 100-160 196-317 96-156 153-271l-416-186q-102 205-246 454-144 250-279 429l410 173zm-4339-3360q102 262 201 556 100 295 183 612t144 630q61 314 93 602l723-147q-19-83-45-183-26-99-48-195t-42-166q-32-154-86-394t-131-512-164-551q-86-278-182-514-115-301-269-618-153-317-326-618-173-300-346-550l-697 294q301 397 563 874t429 880zm3155 198q-96 250-215 531-118 282-243 567-124 285-246 534-122 250-224 429l659 218q96-179 221-429t253-535q128-284 249-566 122-281 218-525 90-230 195-518 106-288 211-592 106-304 195-589 90-285 154-515l-729-237q-84 352-199 736t-240 768-259 723z"/>
     </defs>
     <use xlink:href="#z"/>
     <use transform="translate(100)" xlink:href="#s"/>
     <use transform="translate(200)" xlink:href="#y"/>
     <use transform="translate(300)" xlink:href="#s"/>
     <use transform="translate(400)" xlink:href="#p"/>
     <use transform="translate(500)" xlink:href="#t"/>
     <use transform="translate(600)" xlink:href="#q"/>
     <use transform="translate(700)" xlink:href="#o"/>
    </g>
   </g>
  </g>
 </g>
 <defs>
  <clipPath id="d">
   <rect x="52" y="26.88" width="801.2" height="232.9"/>
  </clipPath>
  <clipPath id="c">
   <rect x="52" y="290.16" width="801.2" height="232.9"/>
  </clipPath>
 </defs>
</svg>
