<!DOCTYPE svg  PUBLIC '-//W3C//DTD SVG 1.1//EN'  'http://www.w3.org/Graphics/SVG/1.1/DTD/svg11.dtd'>
<svg version="1.1" viewBox="0 0 864 576" xmlns="http://www.w3.org/2000/svg" xmlns:xlink="http://www.w3.org/1999/xlink">
 <defs>
  <style type="text/css">*{stroke-linejoin: round; stroke-linecap: butt}</style>
 </defs>
 <g id="aa">
  <g id="ab">
   <path d="m0 576h864v-576h-864z" fill="#fff"/>
  </g>
  <g id="ac">
   <g id="ad">
    <path d="m52 259.78h801.2v-232.9h-801.2z" fill="#fff"/>
   </g>
   <g id="ae">
    <path d="m131.8 259.78h.77942v-232.9h-.77942z" clip-path="url(#b)" fill="#808080" opacity=".3" stroke="#808080"/>
   </g>
   <g id="af">
    <path d="m418.76 259.78h.51961v-232.9h-.51961z" clip-path="url(#b)" fill="#808080" opacity=".3" stroke="#808080"/>
   </g>
   <g id="ag">
    <path d="m727.93 259.78h1.0392v-232.9h-1.0392z" clip-path="url(#b)" fill="#808080" opacity=".3" stroke="#808080"/>
   </g>
   <g id="ah">
    <g id="ai">
     <g id="aj">
      <path d="m104.13 259.78v-232.9" clip-path="url(#b)" fill="none" stroke="#b0b0b0" stroke-linecap="square" stroke-opacity=".3" stroke-width=".8"/>
     </g>
     <g id="ak">
      <defs>
       <path id="g" d="m0 0v3.5" stroke="#000" stroke-width=".8"/>
      </defs>
      <use x="104.132578" y="259.777732" stroke="#000000" stroke-width=".8" xlink:href="#g"/>
     </g>
    </g>
    <g id="al">
     <g id="am">
      <path d="m253.78 259.78v-232.9" clip-path="url(#b)" fill="none" stroke="#b0b0b0" stroke-linecap="square" stroke-opacity=".3" stroke-width=".8"/>
     </g>
     <g id="an">
      <use x="253.781124" y="259.777732" stroke="#000000" stroke-width=".8" xlink:href="#g"/>
     </g>
    </g>
    <g id="ao">
     <g id="ap">
      <path d="m403.43 259.78v-232.9" clip-path="url(#b)" fill="none" stroke="#b0b0b0" stroke-linecap="square" stroke-opacity=".3" stroke-width=".8"/>
     </g>
     <g id="aq">
      <use x="403.429671" y="259.777732" stroke="#000000" stroke-width=".8" xlink:href="#g"/>
     </g>
    </g>
    <g id="ar">
     <g id="as">
      <path d="m553.08 259.78v-232.9" clip-path="url(#b)" fill="none" stroke="#b0b0b0" stroke-linecap="square" stroke-opacity=".3" stroke-width=".8"/>
     </g>
     <g id="at">
      <use x="553.078217" y="259.777732" stroke="#000000" stroke-width=".8" xlink:href="#g"/>
     </g>
    </g>
    <g id="au">
     <g id="av">
      <path d="m702.73 259.78v-232.9" clip-path="url(#b)" fill="none" stroke="#b0b0b0" stroke-linecap="square" stroke-opacity=".3" stroke-width=".8"/>
     </g>
     <g id="aw">
      <use x="702.726763" y="259.777732" stroke="#000000" stroke-width=".8" xlink:href="#g"/>
     </g>
    </g>
    <g id="ax">
     <g id="ay">
      <path d="m852.38 259.78v-232.9" clip-path="url(#b)" fill="none" stroke="#b0b0b0" stroke-linecap="square" stroke-opacity=".3" stroke-width=".8"/>
     </g>
     <g id="az">
      <use x="852.375309" y="259.777732" stroke="#000000" stroke-width=".8" xlink:href="#g"/>
     </g>
    </g>
   </g>
   <g id="ba">
    <g id="bb">
     <g id="bc">
      <path d="m52 246.93h801.2" clip-path="url(#b)" fill="none" stroke="#b0b0b0" stroke-linecap="square" stroke-opacity=".3" stroke-width=".8"/>
     </g>
     <g id="bd">
      <defs>
       <path id="e" d="m0 0h-3.5" stroke="#000" stroke-width=".8"/>
      </defs>
      <use x="52" y="246.926099" stroke="#000000" stroke-width=".8" xlink:href="#e"/>
     </g>
     <g id="be">
      <!-- 300 -->
      <g transform="translate(27.9 250.91) scale(.1 -.1)">
       <defs>
        <path id="r" transform="scale(.015625)" d="m1715-90q-371 0-656 90t-503 240q-217 150-377 323l359 474q211-205 479-359 269-153 634-153 269 0 467 92 199 93 311 266t112 423q0 256-125 451t-429 300q-304 106-835 106v551q467 0 732 105 266 106 384 291 119 186 119 423 0 307-192 489-192 183-531 183-269 0-503-119-233-118-438-316l-384 460q282 256 614 413 333 157 737 157 422 0 748-144 327-144 512-413 186-269 186-659 0-403-221-685-221-281-592-422v-26q269-70 490-227t349-400 128-557q0-422-215-726-214-304-573-468-358-163-787-163z"/>
        <path id="a" transform="scale(.015625)" d="m1830-90q-460 0-806 275-346 276-535 823-188 547-188 1366 0 820 188 1357 189 538 535 803 346 266 806 266 461 0 800-269 340-269 528-803 189-534 189-1354 0-819-189-1366-188-547-528-823-339-275-800-275zm0 589q237 0 422 185 186 186 288 599 103 413 103 1091 0 679-103 1082-102 403-288 582-185 180-422 180-236 0-422-180-186-179-292-582-105-403-105-1082 0-678 105-1091 106-413 292-599 186-185 422-185z"/>
       </defs>
       <use xlink:href="#r"/>
       <use transform="translate(57)" xlink:href="#a"/>
       <use transform="translate(114)" xlink:href="#a"/>
      </g>
     </g>
    </g>
    <g id="bf">
     <g id="bg">
      <path d="m52 220.79h801.2" clip-path="url(#b)" fill="none" stroke="#b0b0b0" stroke-linecap="square" stroke-opacity=".3" stroke-width=".8"/>
     </g>
     <g id="bh">
      <use x="52" y="220.787184" stroke="#000000" stroke-width=".8" xlink:href="#e"/>
     </g>
     <g id="bi">
      <!-- 600 -->
      <g transform="translate(27.9 224.77) scale(.1 -.1)">
       <defs>
        <path id="k" transform="scale(.015625)" d="m1971-90q-339 0-634 144-294 144-518 435-224 292-352 733-128 442-128 1044 0 678 147 1161 148 483 397 784 250 301 570 445t665 144q397 0 688-147 292-147 490-359l-403-448q-128 154-327 253-198 99-409 99-307 0-567-182-259-182-413-605-153-422-153-1145 0-608 115-1002t326-589q212-195 493-195 212 0 375 121 163 122 259 343t96 522q0 300-90 511-89 212-259 320-169 109-419 109-211 0-451-134t-458-461l-25 538q134 192 313 323t374 201q196 71 375 71 397 0 694-163 298-163 467-490 170-326 170-825 0-468-195-817-195-348-512-544-317-195-701-195z"/>
       </defs>
       <use xlink:href="#k"/>
       <use transform="translate(57)" xlink:href="#a"/>
       <use transform="translate(114)" xlink:href="#a"/>
      </g>
     </g>
    </g>
    <g id="bj">
     <g id="bk">
      <path d="m52 194.65h801.2" clip-path="url(#b)" fill="none" stroke="#b0b0b0" stroke-linecap="square" stroke-opacity=".3" stroke-width=".8"/>
     </g>
     <g id="bl">
      <use x="52" y="194.648269" stroke="#000000" stroke-width=".8" xlink:href="#e"/>
     </g>
     <g id="bm">
      <!-- 900 -->
      <g transform="translate(27.9 198.63) scale(.1 -.1)">
       <defs>
        <path id="q" transform="scale(.015625)" d="m1562-90q-410 0-708 150-297 151-502 356l403 461q141-160 346-256t422-96q224 0 425 102 202 103 352 333 151 230 237 614 87 384 87 941 0 589-115 970t-323 563-496 182q-205 0-372-118-166-118-262-336t-96-525q0-301 86-512 87-211 259-323 173-112 417-112 224 0 460 141 237 141 448 461l32-544q-134-180-313-314t-371-208-384-74q-391 0-689 166-297 167-467 496-169 330-169 823 0 467 195 816t515 541 698 192q339 0 636-138 298-137 519-419 221-281 349-710t128-1018q0-691-141-1187t-391-807q-249-310-563-461-313-150-652-150z"/>
       </defs>
       <use xlink:href="#q"/>
       <use transform="translate(57)" xlink:href="#a"/>
       <use transform="translate(114)" xlink:href="#a"/>
      </g>
     </g>
    </g>
    <g id="bn">
     <g id="bo">
      <path d="m52 168.51h801.2" clip-path="url(#b)" fill="none" stroke="#b0b0b0" stroke-linecap="square" stroke-opacity=".3" stroke-width=".8"/>
     </g>
     <g id="bp">
      <use x="52" y="168.509354" stroke="#000000" stroke-width=".8" xlink:href="#e"/>
     </g>
     <g id="bq">
      <!-- 1200 -->
      <g transform="translate(22.2 172.49) scale(.1 -.1)">
       <defs>
        <path id="f" transform="scale(.015625)" d="m544 0v608h1037v3277h-845v467q333 58 579 147 247 90 451 218h557v-4109h915v-608h-2694z"/>
        <path id="d" transform="scale(.015625)" d="m282 0v429q697 621 1164 1136 468 515 701 956 234 442 234 826 0 256-87 451-86 196-262 301-176 106-445 106-275 0-506-151-230-150-422-368l-416 410q301 333 637 518 336 186 803 186 429 0 749-176t496-493 176-745q0-455-224-919t-615-935q-390-470-889-950 186 20 394 36t374 16h1184v-634h-3046z"/>
       </defs>
       <use xlink:href="#f"/>
       <use transform="translate(57)" xlink:href="#d"/>
       <use transform="translate(114)" xlink:href="#a"/>
       <use transform="translate(171)" xlink:href="#a"/>
      </g>
     </g>
    </g>
    <g id="br">
     <g id="bs">
      <path d="m52 142.37h801.2" clip-path="url(#b)" fill="none" stroke="#b0b0b0" stroke-linecap="square" stroke-opacity=".3" stroke-width=".8"/>
     </g>
     <g id="bt">
      <use x="52" y="142.370439" stroke="#000000" stroke-width=".8" xlink:href="#e"/>
     </g>
     <g id="bu">
      <!-- 1500 -->
      <g transform="translate(22.2 146.36) scale(.1 -.1)">
       <defs>
        <path id="j" transform="scale(.015625)" d="m1715-90q-365 0-653 90t-506 237q-217 147-383 307l352 480q134-134 294-246t361-183q202-70 452-70 262 0 473 118 212 119 333 346 122 227 122 541 0 460-247 716-246 256-649 256-224 0-384-64t-365-198l-365 237 141 2240h2387v-627h-1747l-109-1204q154 77 307 118 154 42 340 42 397 0 723-160t518-490q192-329 192-847 0-519-224-887t-586-560q-361-192-777-192z"/>
       </defs>
       <use xlink:href="#f"/>
       <use transform="translate(57)" xlink:href="#j"/>
       <use transform="translate(114)" xlink:href="#a"/>
       <use transform="translate(171)" xlink:href="#a"/>
      </g>
     </g>
    </g>
    <g id="bv">
     <g id="bw">
      <path d="m52 116.23h801.2" clip-path="url(#b)" fill="none" stroke="#b0b0b0" stroke-linecap="square" stroke-opacity=".3" stroke-width=".8"/>
     </g>
     <g id="bx">
      <use x="52" y="116.231524" stroke="#000000" stroke-width=".8" xlink:href="#e"/>
     </g>
     <g id="by">
      <!-- 1800 -->
      <g transform="translate(22.2 120.22) scale(.1 -.1)">
       <defs>
        <path id="l" transform="scale(.015625)" d="m1830-90q-441 0-787 163-345 164-547 448-202 285-202 650 0 314 122 557t314 419 403 291v32q-256 186-442 458-185 272-185 643 0 365 176 640t480 425q304 151 694 151 410 0 704-160t457-439q164-278 164-649 0-237-96-448t-234-381q-137-169-291-278v-32q218-115 397-285 179-169 288-406t109-557q0-346-189-628-189-281-532-448-342-166-803-166zm314 2708q205 198 310 419 106 221 106 464 0 211-83 384t-247 272q-163 99-393 99-288 0-480-183-192-182-192-502 0-256 134-429 135-172 359-294t486-230zm-294-2170q236 0 418 89 183 90 285 253 103 164 103 388 0 211-90 367-89 157-246 272-157 116-368 215t-454 195q-244-173-398-426-153-252-153-553 0-237 118-416 119-179 324-282 205-102 461-102z"/>
       </defs>
       <use xlink:href="#f"/>
       <use transform="translate(57)" xlink:href="#l"/>
       <use transform="translate(114)" xlink:href="#a"/>
       <use transform="translate(171)" xlink:href="#a"/>
      </g>
     </g>
    </g>
    <g id="bz">
     <g id="ca">
      <path d="m52 90.093h801.2" clip-path="url(#b)" fill="none" stroke="#b0b0b0" stroke-linecap="square" stroke-opacity=".3" stroke-width=".8"/>
     </g>
     <g id="cb">
      <use x="52" y="90.092609" stroke="#000000" stroke-width=".8" xlink:href="#e"/>
     </g>
     <g id="cc">
      <!-- 2100 -->
      <g transform="translate(22.2 94.078) scale(.1 -.1)">
       <use xlink:href="#d"/>
       <use transform="translate(57)" xlink:href="#f"/>
       <use transform="translate(114)" xlink:href="#a"/>
       <use transform="translate(171)" xlink:href="#a"/>
      </g>
     </g>
    </g>
    <g id="cd">
     <g id="ce">
      <path d="m52 63.954h801.2" clip-path="url(#b)" fill="none" stroke="#b0b0b0" stroke-linecap="square" stroke-opacity=".3" stroke-width=".8"/>
     </g>
     <g id="cf">
      <use x="52" y="63.953694" stroke="#000000" stroke-width=".8" xlink:href="#e"/>
     </g>
     <g id="cg">
      <!-- 2400 -->
      <g transform="translate(22.2 67.939) scale(.1 -.1)">
       <defs>
        <path id="m" transform="scale(.015625)" d="m2170 0v3072q0 192 12 457 13 266 20 458h-26q-90-179-183-365-92-185-195-364l-921-1415h2579v-576h-3328v493l1875 2957h858v-4717h-691z"/>
       </defs>
       <use xlink:href="#d"/>
       <use transform="translate(57)" xlink:href="#m"/>
       <use transform="translate(114)" xlink:href="#a"/>
       <use transform="translate(171)" xlink:href="#a"/>
      </g>
     </g>
    </g>
    <g id="ch">
     <g id="ci">
      <path d="m52 37.815h801.2" clip-path="url(#b)" fill="none" stroke="#b0b0b0" stroke-linecap="square" stroke-opacity=".3" stroke-width=".8"/>
     </g>
     <g id="cj">
      <use x="52" y="37.814779" stroke="#000000" stroke-width=".8" xlink:href="#e"/>
     </g>
     <g id="ck">
      <!-- 2700 -->
      <g transform="translate(22.2 41.8) scale(.1 -.1)">
       <defs>
        <path id="i" transform="scale(.015625)" d="m1235 0q32 646 109 1187t224 1024 384 941 576 938h-2208v627h3027v-455q-409-512-665-989-256-476-397-969t-205-1053-90-1251h-755z"/>
       </defs>
       <use xlink:href="#d"/>
       <use transform="translate(57)" xlink:href="#i"/>
       <use transform="translate(114)" xlink:href="#a"/>
       <use transform="translate(171)" xlink:href="#a"/>
      </g>
     </g>
    </g>
   </g>
   <g id="cl">
    <path d="m88.418 222.44.074045.17426.065384-.34852.2702.34852.1377-.08713.36763-.8713.77985-3.2238.79284-5.1407.38798-1.3069.39058-.17426.36719-1.6555.38971-1.2198.38971-2.0911.38971-2.7882.38971-.60991 1.1691-8.8872 1.5588-10.281.38971-1.3941.38971-.78417.38971-2.004.38971-5.3149 1.5588-35.375.77942-21.173 1.5588-48.793.38971-5.3149.38971-2.3525.38971-.78417.38971 2.6139.38971 1.5683 1.9485 43.565.77942 21.608.77942 19.778 1.1691 23.874 1.1691 17.339 1.1691 14.464.38971 2.701.38971 3.9208.38971 2.7882.38971 3.6594.38971 1.9169.38971 3.2238 1.1691 6.5347.38971 2.4396.38971 1.5683.38971 3.4852.38971 1.1327.38971 1.7426.77942 1.6555.38971 1.1327.38971.26139.38971 1.3069.38971.52278.77942.26139.77942-.43565 1.1691-2.8753.38971-.26139.38971-.95843.38971-.43565.77942-3.3981.77942-3.9208.38971.26139.38971-.17426.38971-2.7882.38971-1.5683.38971-.78417.77942-2.7882.38971-3.1367.38971-1.7426.38971-.60991 1.1691-4.2694.38971-3.9208.38971-2.4396.38971-3.6594.77942-5.2278.38971-2.6139.38971-1.3941m.77942 19.517.38971-12.285.38971-2.3525.38971-1.3941 1.1691-13.418.38971-6.012.77942-18.21.77942-22.654.38971-16.293 1.1691-31.105.77942-14.725.38971-3.7466.38971.43565.38971-1.2198.38971 1.7426.77942 8.8001.77942 21.173.38971 6.9704 1.1691 28.404.77942 14.725.77942 16.555 2.3383 32.064 1.1691 12.547 2.3383 12.808.77942 5.7506.77942 3.1367.38971.43565.38971.8713.38971 1.3069.38971.60991 1.1691 4.5307.38971-.43565.38971.34852h.38971l.38971.52278.38971-1.3069.38971.17426.38971-.34852.38971-.52278.38971-.26139.38971-.60991.38971.08713.38971-.52278.38971-2.0911.38971-1.4812.38971-.8713 1.5588-6.2733.38971-1.0456.38971-2.2654.38971-1.2198.38971-2.701.38971-1.0456.38971-3.2238.38971-1.6555.38971-3.3109.38971-.95843.77942-2.701.38971-2.2654.38971-1.3941.77942-6.012.38971-1.8297.38971-.43565.38971-3.1367.38971-1.1327.38971-2.3525 1.1691-4.5307 1.1691-18.733 1.1691-27.62.38971-13.766 1.5588-36.856.77942-12.111.77942-4.4436.38971 1.0456.38971 3.7466.77942 17.6 1.1691 28.23.77942 19.43 1.1691 21.521.77942 11.763 1.5588 23.961 1.1691 13.418 1.5588 12.547 2.728 14.115.38971 1.1327.38971.69704.38971 1.1327.38971.60991h.38971l.51961.26139.51961.8713.1299-.08713.25981-.52278.51961.52278.1299.08713.25981-.60991.1299-.52278.1299.17426.25981-.95843h.1299l.1299.17426.1299-.17426.1299.087129.1299-.43565.1299.34852.38971-1.2198.1299.17426.1299-.08713.1299-.43565.1299.08713.25981-.78417.1299-.17426.25981-.8713.1299-.08713.25981-.52278.1299-.08713.25981-1.3941.1299.08713.25981-.43565.1299.08713.51961-1.2198.38971-2.701h.1299l.51961-2.3525.38971-1.5683h.1299l1.0392-4.3565.1299-1.0456.1299-.087129.90932-5.5763.38971-1.2198.25981-.69704.1299.17426.25981-2.0911.1299-.34852.25981-1.3941.1299-.34852.38971-3.0495.38971-.8713.25981-1.7426.1299-.087129.1299.17426.1299-.08713.38971-1.9169.25981-.95843.1299-1.6555.1299.26139 1.1691-7.406h.1299l.1299-.17426.25981-1.2198.1299.69704.1299-1.0456.1299.26139 1.1691-10.281.90932-17.774 1.8186-52.888.1299-1.7426.90932-23.874.38971-4.1822.25981-3.7466.1299.43565.51961-2.8753.1299-.34852.1299-1.0456.1299-.087129.25981.8713 1.1691 22.915.25981 4.7921.1299.78417.51961 12.547.38971 9.5843 1.0392 20.737.25981 5.2278 2.0785 37.03.38971 4.6179.64952 5.7506.51961 6.4476 1.0392 8.2773.25981 1.7426.25981 1.5683.38971 2.004.51961 2.7882.38971 3.0495.25981 1.9169.25981 2.1782.38971 2.1782.25981 1.2198.1299 1.6555.25981.43565.51961 2.9624.25981.69704.1299.17426.1299.60991.1299-.26139.25981.95843.77942 2.8753.38971.52278.1299-.08713.1299.43565.25981.08713.1299.26139.25981-.17426.1299.43565.1299-.34852.38971.34852.25981-.60991.1299-.43565.25981.17426.25981-.43565.51961-1.5683.25981-.69704.25981.26139.25981-.26139.51961-.95843.25981.43565.25981-1.2198.51961-3.2238.25981-1.3941.25981-.26139.25981-.95843.51961-.34852.51961-2.0911.25981-.08713.51961-3.3109.25981-.26139.25981-.78417h.25981l.25981-1.1327.25981-2.1782.77942-3.2238.51961-2.9624.25981-2.2654.25981-.52278.51961-2.0911.51961-3.7466.25981.087129.51961-1.4812.51961-4.008.77942-5.8377.25981-1.1327.25981-1.7426h.25981l.51961-3.1367.25981-.69704 1.299-5.7506.77942-11.24.77942-17.426 2.0785-66.219.51961-11.763.51961-9.9328.51961-7.7545.77942-5.5763h.25981l.25981 1.1327.25981 1.7426.77942 7.406.77942 16.206.25981-3.1367.51961 14.376.51961 10.63 1.5588 34.068 1.299 28.143 1.8186 30.408.77942 7.5803.77942 6.0991.25981 2.8753.51961 2.9624.25981 2.5268.25981 1.1327.51961 3.8337.25981.8713.25981-.17426.25981.087129.25981.43565.77942 2.9624.25981-1.1327.25981-.43565.25981.60991.25981-.26139.25981.69704.25981-.34852.51961.26139.51961-2.2654.51961.087129.25981-1.5683.25981-.8713.25981-1.3941.25981.34852.25981-1.3069.25981-.60991 1.5588-6.5347.51961-3.6594.51961-2.1782.51961-5.0535.51961-6.012.25981-.8713 1.299-11.153.25981-1.3941.51961-3.5723.25981-.43565.25981-2.4396.51961-2.4396.25981-1.7426.25981-.60991.25981.34852.25981-.69704.25981-1.6555.25981-.78417.51961-2.1782.25981-.34852.25981.26139.25981-.26139.25981.69704.25981 2.2654.25981-.08713.25981.17426.25981-.34852.25981-.60991.25981.69704.25981-.08713.25981-.26139.25981-1.3941h.51961l.25981-2.8753 1.0392-17.339.77942-20.737.25981-12.198 1.0392-25.703.77942-20.388.51961-9.9328.25981-7.1446.25981-3.3109.25981-.60991.51961-4.0951.25981-.34852.25981.52278.25981 1.4812.25981.52278.25981 3.5723.51961 2.9624.51961 7.0575.51961 12.634.51961 7.0575.51961 11.065.51961 15.248 2.8579 59.248.51961 9.2358 1.299 19.43.25981 3.0495.77942 5.5763 1.0392 9.41.25981 1.5683.25981 3.0495 1.0392 4.8793.51961 1.6555.25981 2.004.25981-.087129.25981.52278.51961 1.3941.25981.26139.25981.52278.51961-.34852.51961-1.0456.25981-1.3069.51961.087129.25981-1.1327.25981-1.6555.51961-1.1327.25981.17426.25981-2.004.25981-1.0456.25981-1.9169.25981-.34852.25981-2.6139.25981-1.0456.25981-.34852.77942-3.0495.25981-3.3109.51961-9.1486.25981-2.4396 1.0392-13.941.77942-5.9248.77942-2.6139.25981-1.3941.25981-3.0495.77942-5.1407.51961-3.7466.25981-.43565.25981-1.2198h.25981l.25981-1.2198.25981.78417.25981-1.7426.25981.34852.25981.78417.25981 1.2198.77942 1.7426.25981-.26139.25981 2.6139 1.299 3.9208.25981-.43565.25981-1.2198 1.0392-14.464.77942-18.994.51961-13.069 1.5588-33.893 1.0392-10.368.25981 1.9169.25981.78417.25981.26139.25981 1.1327.51961 5.402.77942 20.388.25981 4.3565 1.0392 26.139.25981 2.9624.25981 6.7961.25981 3.6594.77942 18.036 1.0392 18.297.51961 9.0615.25981 3.5723.25981 1.2198.77942 10.456 1.0392 7.5803.25981 1.4812 1.0392 9.8457.25981 1.3941.51961 1.4812.25981 2.6139.25981 1.2198.51961 3.1367 2.0785 7.5803.25981-.17426.25981.69704.25981.26139.25981.52278.25981.08713.25981-.08713.25981-.43565.25981-.08713.25981.43565.25981-.60991.25981-.08713.25981-.26139.25981.17426.25981.43565h.25981l.51961-.8713.25981.43565.25981-.78417.25981-.08713.25981-1.0456.25981.17426.25981-.08713.25981-1.5683.25981-.69704.25981-1.3941.51961-1.0456.51961-1.6555.51961-4.2694.25981-.34852.77942-3.6594.25981-.52278.77942-3.1367.25981-.78417.25981-.087129.51961-2.2654.25981-.52278.25981-1.2198.25981-1.8297.51961-1.9169.25981-2.8753.77942-2.6139.25981-.34852.25981-1.0456.25981-.08713 1.8186-11.065.25981-.78417.25981-.17426.77942-4.9664.51961-6.3605.25981-4.008.77942-15.248.51961-10.107 1.5588-42.258.51961-9.9328.25981-7.406.51961-6.2733.51961-5.6634.77942-2.4396.25981 1.3941.25981 2.004.51961 8.2773.51961 12.982.77942 16.468.77942 21.608 1.299 25.442.51961 7.5803.51961 8.4516 2.0785 24.832.77942 5.4892 1.0392 6.709.51961 2.701.25981.69704 2.5981 12.721h.25981l.25981.43565.25981 1.4812.25981-.26139.25981.95843.25981.08713.25981 1.3941.51961.34852.51961.52278.25981.17426.77942-.52278.25981-.78417.25981-.26139.25981-.69704.51961.34852.25981-.17426.25981.26139.51961.08713.25981-.08713.25981.60991.25981-.34852.77942-3.8337.51961-1.2198.51961-1.6555.25981-1.2198.25981-.43565.77942-2.7882.25981-2.6139.77942-3.8337.25981-1.3941.51961-1.6555.77942-4.0951.25981-1.5683.25981-.26139h.25981l.25981-.69704.25981-1.2198.25981-1.8297.25981-.95843.51961-2.7882.25981-2.004.25981-.69704.51961-2.701.25981.17426.51961-3.3981.25981-1.4812.51961-4.008h.25981l.51961-2.6139.25981-2.0911.25981-.60991.25981-2.0911.51961-11.763.51961-10.368.25981-6.2733 1.299-42.345.51961-11.588.25981-8.6258.51961-6.6219.51961-5.8377.25981-2.7882.25981-.17426.51961-1.3069.25981 1.2198.25981 2.5268.77942 13.854.25981 3.5723 2.3383 52.539 1.299 26.139 1.5588 21.173.51961 6.7961.25981 1.8297.77942 7.0575.25981 1.3941 1.0392 8.3645.25981 1.1327.77942 5.2278 1.0392 3.6594.25981 1.7426 1.0392 2.7882.25981.52278 1.0392 3.8337.25981.34852.25981.69704.25981-.26139.25981.17426.77942-1.0456m.51961 2.4396.25981 1.3941.25981-.08713.25981.26139.51961-1.5683.25981-.08713.25981-.52278.25981.17426.25981-.8713.25981.087129.51961-2.5268.25981-.78417h.25981l.25981-.8713.25981-2.0911.25981-.26139.25981-.95843.25981-1.4812.25981-.34852 1.0392-4.8793.51961-2.9624.25981-1.0456.25981.17426.25981-1.1327.25981-2.6139.77942-4.4436.51961-4.008.25981-2.1782.51961-2.2654.51961-2.5268.25981-.34852.25981-.69704.25981-1.1327.25981.087129.51961-2.7882.25981.08713 1.0392-9.41.51961.17426.25981-2.4396.25981-1.3069.25981-3.3981.25981-1.6555.25981-2.5268 1.299-22.305.25981-5.7506.77942-23.961 1.5588-42.084 1.0392-15.858.25981-.52278.51961.78417.25981 1.8297.51961 5.8377.51961 12.547 1.0392 23.612.77942 21.957.25981 5.3149.25981 2.9624 2.5981 47.311 1.0392 9.2358 2.3383 18.907.25981.69704.77942 4.8793.25981.60991 1.0392 6.3605.77942 2.8753 1.299 3.3109.77942 3.3981.51961.60991.25981-.43565.25981-.78417.25981-.34852.25981.52278.25981-.8713.25981.087129.25981.69704.25981-.52278.25981.43565.77942-1.4812.77942-2.5268.25981-.52278.51961-2.1782.25981-.69704.51961-2.7882.25981.26139.25981-1.5683.25981-.52278.51961-2.0911.25981-1.0456.25981-.52278.51961-2.004.25981-2.0911.25981-.43565 1.0392-5.1407.25981-.78417.25981-1.3941.25981-.78417.51961-2.7882.51961-2.004.51961-2.3525.51961-2.0911.25981-2.4396.25981-.34852.25981-1.2198.25981-2.701.77942-3.6594.25981-.43565.25981-.17426.25981-1.1327.51961-6.2733.77942-8.5387.77942-16.99 1.5588-33.196.77942-20.04.25981-5.1407.77942-22.305.51961-9.9328.25981-2.7882.25981-.34852.25981-5.1407.25981-2.1782.25981-.08713.51961 2.3525.25981 5.0535.51961 15.248.51961 11.414 1.5588 41.561.51961 11.588 1.0392 19.691 1.299 21.521 2.0785 22.915.51961 3.2238.51961 3.5723.51961 3.4852 2.0785 12.198.25981-.08713.51961 2.4396.51961 1.4812.25981.34852.25981 1.0456.25981-.17426 1.299 2.7882.25981-.17426.25981.52278.77942-.17426.51961-.78417.51961-.34852.25981-1.2198.25981-.17426h.25981l.25981-.43565.25981.52278.25981.08713.25981-.52278.51961-2.4396.51961-2.7882 1.8186-7.4932h.25981l.51961-1.7426.25981-1.6555.25981-.43565.51961-3.8337.25981.087129.25981-.69704.25981-.34852.25981-1.3069.25981-.08713 1.0392-8.4516.51961-2.3525.25981-.43565.51961-2.4396.25981-.34852.25981-.95843.25981-2.7882 1.0392-5.3149.25981-1.3069.25981-.08713.25981-.26139.51961-2.7882.25981-2.004 1.0392-13.244 1.299-27.62.51961-17.426 2.0785-58.028.25981-5.3149.51961-5.4892.25981-3.8337.25981-.69704.25981-2.7882.25981 2.5268.25981-.17426.77942 9.4971.25981 1.6555.77942 15.161.51961 10.543 2.3383 56.286 1.0392 19.604.51961 7.1446.51961 8.4516.77942 10.891.25981 2.7882.51961 6.4476 1.299 11.85.25981.60991.25981 2.4396.25981 1.3069.25981 2.0911.25981.78417.25981 2.0911.25981.69704.77942 3.3981.51961.78417.25981-.087129.51961.087129.25981-.26139.25981.17426.25981-.17426.25981-.43565.51961-1.3941.25981-.26139 1.0392-3.7466.25981-.087129.51961-2.7882.51961-3.6594.25981-1.2198.25981.43565.25981-.17426.77942-3.9208.25981.26139.25981-1.6555.25981-.34852.25981-1.2198.51961-8.9744 1.0392-9.8457.25981-1.3069.25981-2.5268.25981-3.7466.51961-2.7882.51961-4.1822.51961-3.8337.25981-3.1367.51961-2.0911.25981-.52278.25981-.8713.25981-.43565h.25981l.25981-.26139.25981.69704.25981.26139.25981.52278.51961-.08713.25981.08713.25981 1.3941.25981 2.1782.25981-.78417.25981 1.1327.25981 2.0911.25981-2.5268.25981.17426.25981-.52278.25981-1.7426.25981-3.3109.51961-2.3525.25981-2.9624.25981-6.4476.25981-2.7882 1.0392-24.745.25981-10.978 1.0392-24.222.77942-23.089 1.0392-23.002.77942-6.9704.25981-.43565.25981-.78417 1.0392 9.1486.77942 12.808 1.299 28.753.25981 3.4852 1.299 31.367.77942 15.073 2.0785 40.69.77942 10.63 1.8186 17.949 1.0392 6.3605.25981 2.2654.25981 1.1327.77942 5.2278.25981.34852.25981.78417.25981 1.4812.25981.17426.25981-.17426.25981.08713.25981-.26139.25981.26139.51961-.95843.25981-.52278 1.0392-3.7466.25981-.60991.51961-2.3525.51961-2.1782.51961-2.6139.25981-.34852.25981.26139.25981-2.3525.25981-.08713.25981-1.4812.51961-5.6634.25981-.17426.77942-7.3189.51961-2.5268.25981-1.7426.77942-8.3645.25981-4.0951.25981-1.1327.51961-4.4436.25981-.60991.51961-5.2278.51961-2.9624.25981-1.3941.51961-3.7466.25981-.43565.25981.43565.51961-2.1782.25981-.08713.77942-1.7426.25981-1.1327.25981.8713.51961 3.1367.25981 2.4396.25981-.17426h.25981l.51961 4.008.25981-2.6139.25981.26139 1.299-15.161.25981-3.7466.51961-10.891.77942-24.571 1.299-29.624.77942-11.85.51961-3.3109.25981.60991.25981.087129.25981-.95843.25981-.17426.25981 3.2238.25981 4.8793.25981 9.3229.51961 11.588 1.8186 45.307.51961 10.02.77942 17.165 1.5588 26.662 1.0392 12.198 1.0392 9.8457 1.0392 6.012 1.0392 5.7506.51961 3.3981.77942 4.2694.77942 4.008.25981 1.9169.25981.95843.25981.43565.25981 1.3941.51961 1.1327.25981.17426 1.299 3.1367.25981-.26139.25981-.08713.25981-.34852.25981.26139.77942-.17426.51961-1.1327.51961-.69704.77942-.17426.25981-.52278.25981-.78417.25981-.34852.51961-2.6139.25981.087129.25981-.43565.25981-.8713.77942-4.4436.25981-1.3941 1.0392-2.9624.51961-3.4852.25981-1.5683.25981-.08713.51961-2.9624.25981-.52278.25981-2.4396.51961-2.4396 1.0392-4.7921.25981-.34852.25981-2.701.25981-.78417.25981-.26139.51961-5.2278.25981-.8713.25981-1.5683.51961-1.3069.25981-1.4812.25981-2.5268.51961-2.8753.25981-.43565.77942-7.8417 2.3383-54.456 1.299-33.196 1.0392-13.854.51961-2.701.51961 1.2198.77942 10.456 2.3383 55.589 2.8579 49.315.25981 2.004 1.5588 17.252.51961 3.8337.77942 4.0951.77942 5.9248.25981.69704.51961 2.5268 1.0392 4.4436.25981 1.6555.77942 2.5268.25981.26139.51961 1.7426.25981.08713.51961 1.7426.25981.34852.77942 2.4396.51961.08713.51961-.78417.25981.17426.25981-.34852.25981-.78417.25981-.26139.25981-.52278.25981-.95843.25981.34852.51961-.60991.25981-1.8297.25981.17426.25981-.8713.25981.087129.25981-1.5683.25981-.69704.25981-.34852.25981-1.3069.25981-.52278.51961-2.5268.25981-2.3525.77942-2.8753.25981-1.9169.25981-.69704.77942-4.3565.51961-1.8297.25981-.60991.25981-1.7426.25981.17426.51961-1.9169h.25981l1.0392-7.2318.25981-.52278.25981-1.7426.77942-2.5268.25981-1.0456h.25981l.77942-6.012.25981-.34852 1.299-8.1902 1.0392-12.285.77942-16.555.77942-22.131.77942-21.957.25981-3.3109.77942-18.21.25981-3.2238.25981-5.5763.25981-2.004.25981-3.3109.25981-.26139.25981-1.2198.25981-.34852.77942 7.5803.51961 12.808 1.0392 18.994 1.0392 23.264.25981 5.1407.51961 12.982.51961 10.107.77942 11.501.51961 11.24.77942 10.02 1.0392 9.4971 1.299 12.111.25981.8713 1.0392 5.6634.51961 2.8753.25981 1.1327.51961 1.1327.51961 2.004.25981.69704.25981 1.9169.25981.69704.25981-.43565.51961.95843.25981.17426.25981.8713.25981 1.6555.25981-.17426.25981.26139.51961.69704.25981.17426h.25981l.51961.34852.51961-1.3941.25981.95843.25981-.17426.51961-1.2198.25981-.087129.51961-.8713.25981.69704.77942-1.3941.25981-2.004.25981-.8713.51961-.8713 2.0785-9.9328.25981-.95843.77942-5.5763.25981-.69704 1.0392-6.7961.25981-1.1327.25981-.43565.25981-.95843.51961-3.0495.77942-5.8377 1.0392-7.0575.25981-2.9624.25981-.69704.51961-2.701.25981 1.2198.25981-.95843.25981-.26139.25981-.78417.25981.08713.25981-.52278.25981-1.3941.51961-9.5843 1.0392-17.774.51961-16.032.25981-10.281.25981-5.402 1.0392-29.363.77942-15.77.51961-6.709h.25981l.25981-.17426.25981-1.6555.77942 4.1822.25981 3.5723.77942 19.169 1.0392 25.268.77942 20.04 1.8186 33.806.25981 3.0495.25981 6.0991 1.5588 19.43 1.299 9.5843 1.299 8.4516 1.5588 8.4516.25981.60991.25981 1.9169 1.299 4.4436.25981 1.6555 1.0392 3.1367.25981 1.2198.25981-.26139.25981.34852.25981-.087129.25981-.26139.25981-.8713.25981 1.0456.25981-.78417.51961-.52278.25981-.95843.25981-.17426h.25981l.25981-.26139.25981-.78417.25981-2.004.25981-.34852h.25981l.25981-.26139.25981-1.0456.25981-1.6555.25981-.43565.25981-1.0456h.25981l.25981-.8713.77942 3.8337.25981-.34852.25981 1.3069.25981-.17426.25981-2.2654.25981.8713.51961-.95843.51961.43565.25981-1.9169.25981.34852.25981.8713.25981.17426.25981-.08713.25981-1.0456.25981.17426m1.0392-2.7882.25981-1.6555.25981-3.3109.25981-1.7426 1.8186-17.862 1.0392-5.1407 1.0392-12.372 1.299-25.616 1.299-41.299 1.0392-29.798.51961-9.6714.51961-7.3189.25981-1.5683.25981 1.1327h.25981l.25981.43565.51961 2.7882.51961 12.895.25981 6.5347.25981 1.9169.25981 7.5803.25981 2.6139.25981 5.0535.77942 19.517 2.3383 45.22 1.8186 24.832 2.0785 19.081.25981.60991 1.299 7.9288 1.299 5.402.25981.52278.51961 2.7882.51961 2.5268.77942 1.6555.51961 1.4812.51961.08713.25981-.34852.25981.52278.25981-1.0456.25981-.08713.25981.17426.25981-.087129.25981-.95843.25981.34852.51961-1.3941.25981-.60991.25981-1.0456.77942-1.7426.51961-2.004.25981-1.3941.25981-2.0911.25981-.17426.51961-1.6555.51961-2.701.25981.087129.51961-2.701.77942-1.7426.77942-4.705.51961-1.4812.51961-2.7882 1.299-7.7545.51961-1.2198.25981-.087129.25981-1.8297.25981-.08713.25981-2.2654.25981-.08713 1.299-5.6634.25981-1.2198h.25981l.25981-.60991.25981-1.3941.25981-3.0495.77942-3.1367.25981-4.5307.25981-2.3525 1.5588-35.2 1.0392-30.67.25981-5.2278 1.0392-32.412 1.0392-14.202.51961-1.7426.25981-.69704.25981-.34852.25981-1.0456.51961 5.3149.25981.34852.25981 4.6179.77942 25.79 1.0392 19.343 2.5981 48.096.77942 10.02.51961 8.4516.25981 3.3981.51961 8.3645 2.0785 20.388.77942 4.008.25981.52278.25981 1.1327.25981.08713.77942 2.9624.25981.95843.25981.52278.77942 3.6594.51961-1.0456.51961.17426.25981-.60991h.51961l.25981-.95843h.25981l.25981.26139.25981-.52278.25981-1.3941.51961-1.4812 1.299-5.0535.25981-.34852.51961-2.0911.25981-.52278.25981-2.0911.25981-.52278.25981-1.4812.77942-6.5347 1.0392-9.1486.51961-4.1822.25981-1.0456.25981-2.701.25981-.52278.25981-2.004.25981-.52278.25981-1.2198.25981-.60991.51961-4.008.25981.08713.25981-1.3941.25981-.69704.77942-4.4436.25981-.26139.25981-.95843.25981-.08713.51961-.52278.25981 1.0456.25981-.26139.25981-1.5683.25981-.52278.25981.69704.51961 2.701.51961.26139.25981-.60991.25981 2.0911.51961-4.5307.25981-3.2238.51961-9.9328.25981-3.0495.51961-12.285 1.5588-45.046.77942-19.169.51961-6.5347.51961-8.5387.51961-2.1782.25981-.43565.25981-3.3981.25981-.43565.25981.43565.51961 1.9169.25981 2.9624 1.0392 20.214v0" clip-path="url(#b)" fill="none" stroke="#28f" stroke-linecap="square" stroke-width="1.5"/>
   </g>
   <g id="cm">
    <path d="m52 259.78v-232.9" fill="none" stroke="#000" stroke-linecap="square" stroke-width=".8"/>
   </g>
   <g id="cn">
    <path d="m853.2 259.78v-232.9" fill="none" stroke="#000" stroke-linecap="square" stroke-width=".8"/>
   </g>
   <g id="co">
    <path d="m52 259.78h801.2" fill="none" stroke="#000" stroke-linecap="square" stroke-width=".8"/>
   </g>
   <g id="cp">
    <path d="m52 26.88h801.2" fill="none" stroke="#000" stroke-linecap="square" stroke-width=".8"/>
   </g>
   <g id="cq">
    <!-- 同時接続数の推移 -->
    <g transform="translate(404.6 20.88) scale(.12 -.12)">
     <defs>
      <path id="x" transform="scale(.015625)" d="m1587 3936h3232v-518h-3232v518zm320-1114h557v-2534h-557v2534zm301 0h2291v-2086h-2291v512h1734v1069h-1734v505zm-1683 2260h5113v-570h-4524v-5056h-589v5626zm4768 0h595v-4896q0-250-67-397t-227-218q-160-77-426-96t-675-19q-13 83-45 192t-77 218q-45 108-89 185 281-13 527-13 247 0 330 0 83 7 118 42 36 35 36 112v4890z"/>
      <path id="v" transform="scale(.015625)" d="m2714 4672h3238v-525h-3238v525zm-244-1235h3712v-538h-3712v538zm20-1184h3635v-531h-3635v531zm1523 3155h595v-2310h-595v2310zm832-2451h589v-2823q0-230-61-364-61-135-227-199-167-70-423-86t-633-16q-20 121-78 285-57 163-121 284 275-6 509-9t310-3q77 6 106 28 29 23 29 93v2810zm-2023-1677 487 282q153-160 313-352t294-381q135-189 206-343l-519-313q-64 153-189 348-124 196-278 394-154 199-314 365zm-2086 3718h1619v-4281h-1619v544h1056v3187h-1056v550zm32-1843h1293v-537h-1293v537zm-320 1843h563v-4832h-563v4832z"/>
      <path id="w" transform="scale(.015625)" d="m3866 5408h614v-870h-614v870zm-1479-653h3597v-518h-3597v518zm-230-1485h4e3v-518h-4e3v518zm825 922 519 102q64-160 121-342 58-182 96-352 39-170 45-304l-544-128q-6 134-42 313-35 180-83 365-48 186-112 346zm1856 109 589-71q-96-275-202-557-105-281-195-486l-518 77q58 147 122 329 64 183 118 372t86 336zm-2643-2106h3943v-518h-3943v518zm1408 685 602-115q-167-371-362-784t-390-797-362-685l-525 179q160 288 346 666t368 784 323 752zm-659-2157 358 403q352-102 733-240 381-137 752-304 371-166 697-336 327-169 558-329l-384-461q-218 160-532 336-313 176-685 345-371 170-755 323-384 154-742 263zm1894 1114 583-71q-122-550-353-944-230-393-604-662t-922-435q-547-167-1296-269-25 128-93 269-67 141-137 230 678 64 1168 192t819 349q330 221 531 550 202 330 304 791zm-4684 217q396 90 953 240 557 151 1120 311l77-544q-525-154-1053-311-528-156-963-284l-134 588zm121 2093h1965v-563h-1965v563zm819 1248h576v-5229q0-236-51-374t-192-208q-141-77-355-99-214-23-541-16-13 115-64 288t-109 294q205-6 381-6t234 0q64 0 92 28 29 29 29 93v5229z"/>
      <path id="u" transform="scale(.015625)" d="m4058 5408h595v-1798h-595v1798zm-1415-563h3443v-499h-3443v499zm231-992h3008v-499h-3008v499zm-224-877h3475v-1203h-531v729h-2432v-729h-512v1203zm1964-877h551v-1881q0-122 22-157 23-35 106-35 25 0 92 0 68 0 135 0t99 0q51 0 83 54t45 224 19 515q90-70 234-131t259-93q-19-429-83-662-64-234-183-326-118-93-316-93-39 0-103 0t-134 0-138 0q-67 0-99 0-237 0-365 64t-176 218q-48 153-48 422v1881zm-1164-6h550v-455q0-243-48-528-48-284-186-579-137-294-409-572-272-279-727-503-70 90-192 208-121 118-230 195 416 205 665 438 250 234 371 474 122 240 164 467 42 228 42 413v442zm-2240 3309 524-192q-121-244-259-503-137-259-275-496t-259-416l-410 173q122 186 246 438 125 253 240 515 116 263 193 481zm716-743 500-230q-224-359-496-756-272-396-548-764-275-368-518-650l-358 205q179 211 377 483 199 272 387 569 189 298 358 592 170 295 298 551zm-1721-665 307 403q166-154 339-340 173-185 320-364t224-327l-326-460q-77 160-218 348-141 189-314 384-172 196-332 356zm1485-832 435 179q128-211 249-458 122-246 215-474 93-227 137-412l-473-211q-32 185-119 422-86 237-201 486-115 250-243 468zm-1530-583q422 26 998 54 576 29 1184 68l7-499q-570-45-1127-84-556-38-992-70l-70 531zm1702-992 436 135q121-276 214-596t118-556l-454-148q-26 237-112 563-86 327-202 602zm-1363 109 499-83q-57-455-163-897-105-441-253-748-51 32-134 73-83 42-170 83-86 42-144 62 148 294 234 697t131 813zm691 627h525v-2861h-525v2861z"/>
      <path id="o" transform="scale(.015625)" d="m224 2022h3187v-499h-3187v499zm51 2247h3111v-487h-3111v487zm1127-1735 563-121q-154-320-333-672t-352-679q-173-326-326-582l-532 173q148 243 324 566t345 669q170 346 311 646zm934-832 563-64q-89-480-262-838t-461-614-701-432-976-298q-25 128-99 269t-157 237q659 102 1085 303 426 202 666 554t342 883zm422 3597 519-211q-147-218-298-436-150-217-278-377l-403 186q121 173 252 413 132 240 208 425zm-1203 109h563v-2957h-563v2957zm-1075-320 448 186q134-192 246-420 112-227 157-393l-467-211q-38 172-147 406t-237 432zm1094-1050 397-236q-160-263-400-529-240-265-519-489-278-224-553-378-51 103-141 237-89 135-179 218 269 109 534 294 266 186 493 416 228 231 368 467zm487-204q83-45 246-145 163-99 352-211t346-211 221-150l-327-423q-83 77-230 198-147 122-317 253-170 132-327 250-156 119-259 189l295 250zm1798 396h2311v-556h-2311v556zm115 1178 615-90q-103-640-263-1235t-384-1101q-224-505-512-889-44 57-134 134t-186 157-166 125q275 339 473 796 199 458 340 995 141 538 217 1108zm1223-1510 614-58q-147-1101-445-1940-297-838-813-1443-515-604-1321-1014-26 71-90 177-64 105-134 208-70 102-128 159 742 346 1212 880 471 535 730 1290 260 755 375 1741zm-1005-135q134-851 387-1597 253-745 659-1305 407-560 1002-874-70-57-154-150-83-93-154-189-70-96-121-179-633 371-1056 988-422 618-688 1434-265 816-425 1783l550 89zm-3309-3065 327 416q377-148 754-330 378-182 701-378 324-195 548-368l-416-435q-211 179-519 378-307 198-666 383-358 186-729 334z"/>
      <path id="t" transform="scale(.015625)" d="m3686 4378q-64-493-163-1041-99-547-265-1084-192-653-432-1104t-522-688-595-237q-320 0-596 221-275 221-448 621-172 400-172 931 0 537 220 1017 221 480 611 851 391 372 909 583 519 211 1121 211 576 0 1040-186 464-185 793-515 330-329 502-771 173-441 173-941 0-672-278-1194-278-521-816-851-538-329-1318-444l-378 601q166 20 307 42t263 48q307 70 585 217 279 148 496 375 218 227 342 534 125 308 125 692t-122 713q-121 330-358 573-236 243-582 380-346 138-781 138-525 0-935-186-409-185-694-489-284-304-432-656-147-352-147-678 0-365 89-605 90-240 224-355 135-115 276-115t288 144 297 457q151 314 298 800 147 461 246 982 100 522 145 1021l684-12z"/>
      <path id="p" transform="scale(.015625)" d="m2995 2925h2893v-519h-2893v519zm0-1280h2893v-519h-2893v519zm-64-1299h3232v-557h-3232v557zm1312 3577h563v-3763h-563v3763zm429 1466 634-141q-154-390-340-794-185-403-339-684l-512 140q103 199 208 458 106 259 195 528 90 269 154 493zm-1472 25 582-147q-153-518-371-1018-217-499-483-931t-573-758q-38 64-109 160-70 96-147 198-77 103-141 160 416 416 733 1034t509 1302zm128-1203h2720v-537h-2720v-4205h-582v4422l313 320h269zm-3174-2157q396 90 953 240 557 151 1120 311l77-544q-525-154-1053-311-528-156-963-284l-134 588zm121 2093h1965v-563h-1965v563zm819 1248h576v-5229q0-236-51-374t-192-208q-141-77-355-99-214-23-541-16-13 115-64 288t-109 294q205-6 381-6t234 0q64 0 92 28 29 29 29 93v5229z"/>
      <path id="n" transform="scale(.015625)" d="m4051 5402 595-109q-281-493-729-941t-1107-806q-39 64-106 144t-141 153q-73 74-137 119 608 288 1011 678t614 762zm-77-557h1511v-493h-1863l352 493zm1293 0h109l109 25 384-179q-192-505-496-905t-695-701q-390-301-845-519-454-217-947-358-44 109-137 253t-176 227q448 109 867 294 419 186 777 445 359 259 631 592t419 730v96zm-1990-954 377 307q167-96 336-218 170-121 320-249 151-128 247-237l-397-332q-90 108-237 236t-317 259q-169 132-329 234zm1107-934 595-109q-307-538-803-1031-496-492-1232-876-38 64-102 144t-138 156q-74 77-138 116 455 217 807 483t604 554q253 288 407 563zm-90-589h1460v-506h-1818l358 506zm1268 0h121l109 26 384-167q-192-614-531-1075t-787-794q-448-332-983-553-534-221-1129-355-45 115-132 269-86 153-176 249 551 96 1043 285 493 189 903 473 410 285 714 669t464 883v90zm-2132-1056 410 339q186-102 384-237 198-134 371-275t282-269l-435-371q-103 128-270 272-166 144-361 288t-381 253zm-2150 3533h589v-5376h-589v5376zm-992-1242h2336v-569h-2336v569zm1024-224 365-160q-96-339-231-707-134-368-291-727-157-358-336-672-179-313-365-537-44 128-134 291t-160 272q173 192 339 457 167 266 323 570 157 304 282 618t208 595zm941 1946 416-467q-314-122-695-221-380-99-784-173-403-74-780-131-20 102-71 236-51 135-102 231 358 58 732 138 375 80 711 179t573 208zm-397-2579q58-45 179-170 122-125 266-266 144-140 259-265t160-183l-352-473q-58 102-157 255-99 154-218 317-118 164-227 311-108 147-185 237l275 237z"/>
     </defs>
     <use xlink:href="#x"/>
     <use transform="translate(100)" xlink:href="#v"/>
     <use transform="translate(200)" xlink:href="#w"/>
     <use transform="translate(300)" xlink:href="#u"/>
     <use transform="translate(400)" xlink:href="#o"/>
     <use transform="translate(500)" xlink:href="#t"/>
     <use transform="translate(600)" xlink:href="#p"/>
     <use transform="translate(700)" xlink:href="#n"/>
    </g>
   </g>
  </g>
  <g id="cr">
   <g id="cs">
    <path d="m52 523.06h801.2v-232.9h-801.2z" fill="#fff"/>
   </g>
   <g id="ct">
    <path d="m131.8 523.06h.77942v-232.9h-.77942z" clip-path="url(#c)" fill="#808080" opacity=".3" stroke="#808080"/>
   </g>
   <g id="cu">
    <path d="m418.76 523.06h.51961v-232.9h-.51961z" clip-path="url(#c)" fill="#808080" opacity=".3" stroke="#808080"/>
   </g>
   <g id="cv">
    <path d="m727.93 523.06h1.0392v-232.9h-1.0392z" clip-path="url(#c)" fill="#808080" opacity=".3" stroke="#808080"/>
   </g>
   <g id="cw">
    <g id="cx">
     <g id="cy">
      <path d="m104.13 523.06v-232.9" clip-path="url(#c)" fill="none" stroke="#b0b0b0" stroke-linecap="square" stroke-opacity=".3" stroke-width=".8"/>
     </g>
     <g id="cz">
      <use x="104.132578" y="523.055464" stroke="#000000" stroke-width=".8" xlink:href="#g"/>
     </g>
     <g id="da">
      <!-- 2025-07-01 -->
      <g transform="translate(57.343 563.33) rotate(-30) scale(.1 -.1)">
       <defs>
        <path id="h" transform="scale(.015625)" d="m301 1536v544h1689v-544h-1689z"/>
       </defs>
       <use xlink:href="#d"/>
       <use transform="translate(57)" xlink:href="#a"/>
       <use transform="translate(114)" xlink:href="#d"/>
       <use transform="translate(171)" xlink:href="#j"/>
       <use transform="translate(228)" xlink:href="#h"/>
       <use transform="translate(263.7)" xlink:href="#a"/>
       <use transform="translate(320.7)" xlink:href="#i"/>
       <use transform="translate(377.7)" xlink:href="#h"/>
       <use transform="translate(413.4)" xlink:href="#a"/>
       <use transform="translate(470.4)" xlink:href="#f"/>
      </g>
     </g>
    </g>
    <g id="db">
     <g id="dc">
      <path d="m253.78 523.06v-232.9" clip-path="url(#c)" fill="none" stroke="#b0b0b0" stroke-linecap="square" stroke-opacity=".3" stroke-width=".8"/>
     </g>
     <g id="dd">
      <use x="253.781124" y="523.055464" stroke="#000000" stroke-width=".8" xlink:href="#g"/>
     </g>
     <g id="de">
      <!-- 2025-07-05 -->
      <g transform="translate(206.99 563.33) rotate(-30) scale(.1 -.1)">
       <use xlink:href="#d"/>
       <use transform="translate(57)" xlink:href="#a"/>
       <use transform="translate(114)" xlink:href="#d"/>
       <use transform="translate(171)" xlink:href="#j"/>
       <use transform="translate(228)" xlink:href="#h"/>
       <use transform="translate(263.7)" xlink:href="#a"/>
       <use transform="translate(320.7)" xlink:href="#i"/>
       <use transform="translate(377.7)" xlink:href="#h"/>
       <use transform="translate(413.4)" xlink:href="#a"/>
       <use transform="translate(470.4)" xlink:href="#j"/>
      </g>
     </g>
    </g>
    <g id="df">
     <g id="dg">
      <path d="m403.43 523.06v-232.9" clip-path="url(#c)" fill="none" stroke="#b0b0b0" stroke-linecap="square" stroke-opacity=".3" stroke-width=".8"/>
     </g>
     <g id="dh">
      <use x="403.429671" y="523.055464" stroke="#000000" stroke-width=".8" xlink:href="#g"/>
     </g>
     <g id="di">
      <!-- 2025-07-09 -->
      <g transform="translate(356.64 563.33) rotate(-30) scale(.1 -.1)">
       <use xlink:href="#d"/>
       <use transform="translate(57)" xlink:href="#a"/>
       <use transform="translate(114)" xlink:href="#d"/>
       <use transform="translate(171)" xlink:href="#j"/>
       <use transform="translate(228)" xlink:href="#h"/>
       <use transform="translate(263.7)" xlink:href="#a"/>
       <use transform="translate(320.7)" xlink:href="#i"/>
       <use transform="translate(377.7)" xlink:href="#h"/>
       <use transform="translate(413.4)" xlink:href="#a"/>
       <use transform="translate(470.4)" xlink:href="#q"/>
      </g>
     </g>
    </g>
    <g id="dj">
     <g id="dk">
      <path d="m553.08 523.06v-232.9" clip-path="url(#c)" fill="none" stroke="#b0b0b0" stroke-linecap="square" stroke-opacity=".3" stroke-width=".8"/>
     </g>
     <g id="dl">
      <use x="553.078217" y="523.055464" stroke="#000000" stroke-width=".8" xlink:href="#g"/>
     </g>
     <g id="dm">
      <!-- 2025-07-13 -->
      <g transform="translate(506.29 563.33) rotate(-30) scale(.1 -.1)">
       <use xlink:href="#d"/>
       <use transform="translate(57)" xlink:href="#a"/>
       <use transform="translate(114)" xlink:href="#d"/>
       <use transform="translate(171)" xlink:href="#j"/>
       <use transform="translate(228)" xlink:href="#h"/>
       <use transform="translate(263.7)" xlink:href="#a"/>
       <use transform="translate(320.7)" xlink:href="#i"/>
       <use transform="translate(377.7)" xlink:href="#h"/>
       <use transform="translate(413.4)" xlink:href="#f"/>
       <use transform="translate(470.4)" xlink:href="#r"/>
      </g>
     </g>
    </g>
    <g id="dn">
     <g id="do">
      <path d="m702.73 523.06v-232.9" clip-path="url(#c)" fill="none" stroke="#b0b0b0" stroke-linecap="square" stroke-opacity=".3" stroke-width=".8"/>
     </g>
     <g id="dp">
      <use x="702.726763" y="523.055464" stroke="#000000" stroke-width=".8" xlink:href="#g"/>
     </g>
     <g id="dq">
      <!-- 2025-07-17 -->
      <g transform="translate(655.94 563.33) rotate(-30) scale(.1 -.1)">
       <use xlink:href="#d"/>
       <use transform="translate(57)" xlink:href="#a"/>
       <use transform="translate(114)" xlink:href="#d"/>
       <use transform="translate(171)" xlink:href="#j"/>
       <use transform="translate(228)" xlink:href="#h"/>
       <use transform="translate(263.7)" xlink:href="#a"/>
       <use transform="translate(320.7)" xlink:href="#i"/>
       <use transform="translate(377.7)" xlink:href="#h"/>
       <use transform="translate(413.4)" xlink:href="#f"/>
       <use transform="translate(470.4)" xlink:href="#i"/>
      </g>
     </g>
    </g>
    <g id="dr">
     <g id="ds">
      <path d="m852.38 523.06v-232.9" clip-path="url(#c)" fill="none" stroke="#b0b0b0" stroke-linecap="square" stroke-opacity=".3" stroke-width=".8"/>
     </g>
     <g id="dt">
      <use x="852.375309" y="523.055464" stroke="#000000" stroke-width=".8" xlink:href="#g"/>
     </g>
     <g id="du">
      <!-- 2025-07-21 -->
      <g transform="translate(805.59 563.33) rotate(-30) scale(.1 -.1)">
       <use xlink:href="#d"/>
       <use transform="translate(57)" xlink:href="#a"/>
       <use transform="translate(114)" xlink:href="#d"/>
       <use transform="translate(171)" xlink:href="#j"/>
       <use transform="translate(228)" xlink:href="#h"/>
       <use transform="translate(263.7)" xlink:href="#a"/>
       <use transform="translate(320.7)" xlink:href="#i"/>
       <use transform="translate(377.7)" xlink:href="#h"/>
       <use transform="translate(413.4)" xlink:href="#d"/>
       <use transform="translate(470.4)" xlink:href="#f"/>
      </g>
     </g>
    </g>
   </g>
   <g id="dv">
    <g id="dw">
     <g id="dx">
      <path d="m52 506.45h801.2" clip-path="url(#c)" fill="none" stroke="#b0b0b0" stroke-linecap="square" stroke-opacity=".3" stroke-width=".8"/>
     </g>
     <g id="dy">
      <use x="52" y="506.454283" stroke="#000000" stroke-width=".8" xlink:href="#e"/>
     </g>
     <g id="dz">
      <!-- 104800 -->
      <g transform="translate(10.8 510.44) scale(.1 -.1)">
       <use xlink:href="#f"/>
       <use transform="translate(57)" xlink:href="#a"/>
       <use transform="translate(114)" xlink:href="#m"/>
       <use transform="translate(171)" xlink:href="#l"/>
       <use transform="translate(228)" xlink:href="#a"/>
       <use transform="translate(285)" xlink:href="#a"/>
      </g>
     </g>
    </g>
    <g id="ea">
     <g id="eb">
      <path d="m52 481.13h801.2" clip-path="url(#c)" fill="none" stroke="#b0b0b0" stroke-linecap="square" stroke-opacity=".3" stroke-width=".8"/>
     </g>
     <g id="ec">
      <use x="52" y="481.1283" stroke="#000000" stroke-width=".8" xlink:href="#e"/>
     </g>
     <g id="ed">
      <!-- 105200 -->
      <g transform="translate(10.8 485.11) scale(.1 -.1)">
       <use xlink:href="#f"/>
       <use transform="translate(57)" xlink:href="#a"/>
       <use transform="translate(114)" xlink:href="#j"/>
       <use transform="translate(171)" xlink:href="#d"/>
       <use transform="translate(228)" xlink:href="#a"/>
       <use transform="translate(285)" xlink:href="#a"/>
      </g>
     </g>
    </g>
    <g id="ee">
     <g id="ef">
      <path d="m52 455.8h801.2" clip-path="url(#c)" fill="none" stroke="#b0b0b0" stroke-linecap="square" stroke-opacity=".3" stroke-width=".8"/>
     </g>
     <g id="eg">
      <use x="52" y="455.802318" stroke="#000000" stroke-width=".8" xlink:href="#e"/>
     </g>
     <g id="eh">
      <!-- 105600 -->
      <g transform="translate(10.8 459.79) scale(.1 -.1)">
       <use xlink:href="#f"/>
       <use transform="translate(57)" xlink:href="#a"/>
       <use transform="translate(114)" xlink:href="#j"/>
       <use transform="translate(171)" xlink:href="#k"/>
       <use transform="translate(228)" xlink:href="#a"/>
       <use transform="translate(285)" xlink:href="#a"/>
      </g>
     </g>
    </g>
    <g id="ei">
     <g id="ej">
      <path d="m52 430.48h801.2" clip-path="url(#c)" fill="none" stroke="#b0b0b0" stroke-linecap="square" stroke-opacity=".3" stroke-width=".8"/>
     </g>
     <g id="ek">
      <use x="52" y="430.476336" stroke="#000000" stroke-width=".8" xlink:href="#e"/>
     </g>
     <g id="el">
      <!-- 106000 -->
      <g transform="translate(10.8 434.46) scale(.1 -.1)">
       <use xlink:href="#f"/>
       <use transform="translate(57)" xlink:href="#a"/>
       <use transform="translate(114)" xlink:href="#k"/>
       <use transform="translate(171)" xlink:href="#a"/>
       <use transform="translate(228)" xlink:href="#a"/>
       <use transform="translate(285)" xlink:href="#a"/>
      </g>
     </g>
    </g>
    <g id="em">
     <g id="en">
      <path d="m52 405.15h801.2" clip-path="url(#c)" fill="none" stroke="#b0b0b0" stroke-linecap="square" stroke-opacity=".3" stroke-width=".8"/>
     </g>
     <g id="eo">
      <use x="52" y="405.150354" stroke="#000000" stroke-width=".8" xlink:href="#e"/>
     </g>
     <g id="ep">
      <!-- 106400 -->
      <g transform="translate(10.8 409.14) scale(.1 -.1)">
       <use xlink:href="#f"/>
       <use transform="translate(57)" xlink:href="#a"/>
       <use transform="translate(114)" xlink:href="#k"/>
       <use transform="translate(171)" xlink:href="#m"/>
       <use transform="translate(228)" xlink:href="#a"/>
       <use transform="translate(285)" xlink:href="#a"/>
      </g>
     </g>
    </g>
    <g id="eq">
     <g id="er">
      <path d="m52 379.82h801.2" clip-path="url(#c)" fill="none" stroke="#b0b0b0" stroke-linecap="square" stroke-opacity=".3" stroke-width=".8"/>
     </g>
     <g id="es">
      <use x="52" y="379.824372" stroke="#000000" stroke-width=".8" xlink:href="#e"/>
     </g>
     <g id="et">
      <!-- 106800 -->
      <g transform="translate(10.8 383.81) scale(.1 -.1)">
       <use xlink:href="#f"/>
       <use transform="translate(57)" xlink:href="#a"/>
       <use transform="translate(114)" xlink:href="#k"/>
       <use transform="translate(171)" xlink:href="#l"/>
       <use transform="translate(228)" xlink:href="#a"/>
       <use transform="translate(285)" xlink:href="#a"/>
      </g>
     </g>
    </g>
    <g id="eu">
     <g id="ev">
      <path d="m52 354.5h801.2" clip-path="url(#c)" fill="none" stroke="#b0b0b0" stroke-linecap="square" stroke-opacity=".3" stroke-width=".8"/>
     </g>
     <g id="ew">
      <use x="52" y="354.49839" stroke="#000000" stroke-width=".8" xlink:href="#e"/>
     </g>
     <g id="ex">
      <!-- 107200 -->
      <g transform="translate(10.8 358.48) scale(.1 -.1)">
       <use xlink:href="#f"/>
       <use transform="translate(57)" xlink:href="#a"/>
       <use transform="translate(114)" xlink:href="#i"/>
       <use transform="translate(171)" xlink:href="#d"/>
       <use transform="translate(228)" xlink:href="#a"/>
       <use transform="translate(285)" xlink:href="#a"/>
      </g>
     </g>
    </g>
    <g id="ey">
     <g id="ez">
      <path d="m52 329.17h801.2" clip-path="url(#c)" fill="none" stroke="#b0b0b0" stroke-linecap="square" stroke-opacity=".3" stroke-width=".8"/>
     </g>
     <g id="fa">
      <use x="52" y="329.172407" stroke="#000000" stroke-width=".8" xlink:href="#e"/>
     </g>
     <g id="fb">
      <!-- 107600 -->
      <g transform="translate(10.8 333.16) scale(.1 -.1)">
       <use xlink:href="#f"/>
       <use transform="translate(57)" xlink:href="#a"/>
       <use transform="translate(114)" xlink:href="#i"/>
       <use transform="translate(171)" xlink:href="#k"/>
       <use transform="translate(228)" xlink:href="#a"/>
       <use transform="translate(285)" xlink:href="#a"/>
      </g>
     </g>
    </g>
    <g id="fc">
     <g id="fd">
      <path d="m52 303.85h801.2" clip-path="url(#c)" fill="none" stroke="#b0b0b0" stroke-linecap="square" stroke-opacity=".3" stroke-width=".8"/>
     </g>
     <g id="fe">
      <use x="52" y="303.846425" stroke="#000000" stroke-width=".8" xlink:href="#e"/>
     </g>
     <g id="ff">
      <!-- 108000 -->
      <g transform="translate(10.8 307.83) scale(.1 -.1)">
       <use xlink:href="#f"/>
       <use transform="translate(57)" xlink:href="#a"/>
       <use transform="translate(114)" xlink:href="#l"/>
       <use transform="translate(171)" xlink:href="#a"/>
       <use transform="translate(228)" xlink:href="#a"/>
       <use transform="translate(285)" xlink:href="#a"/>
      </g>
     </g>
    </g>
   </g>
   <g id="fg">
    <path d="m88.418 512.47h.13943l.77552-.25326 1.1687-.4432.404-.25326 1.1457-.18994.77942.12663.38971-.18994.38971-.31658h.38971l.77942-.82309.77942-.12663.77942-.56983 1.1691.12663.38971-.063315.77942-.63315.38971-.63315.77942-.56983h.38971l.77942-.56984.38971-.37989 1.1691-2.2793 1.1691-.88641.38971-.18994.38971.063315.38971-.31658h1.1691l.38971-.25326h.38971l.77942-.50652 1.9485-.37989.38971.12663.38971-.063315.38971.063315 1.9485-.25326 1.5588-.063315 1.1691-.12663 5.0662-.063315.77942-.063315h.38971l.38971-.12663h.77942l1.1691-.56983.77942-.063315 1.1691-.37989h.38971l.77942-.37989 1.1691-.25326 1.9485-.69646.77942-.31658.77942-.18994m.77942-.37989.38971-.25326.38971-.56984.38971-.31658 1.1691-.25326.77942-.25326.77942-.50652.38971-.82309.38971-.25326.77942-1.3296h.38971l.77942-.88641.38971-.18994.38971-.4432 1.5588-1.013.38971.063315 1.5588-.88641.77942-.063315 1.1691-.18994.38971.12663h.38971l.77942-.4432.77942-.12663.38971.063314.38971-.12663.38971.063315 1.9485-.25326.77942.063315.77942-.063315.77942.063315h2.3383l.77942-.18994.77942.18994.38971.063315 1.1691-.31658h.38971l.38971-.12663h.38971l.38971-.25326.77942-.18994.38971-.31658 1.5588.063315.38971.063315.38971-.063315.38971-.18994 1.1691-.12663.38971.12663 1.1691-.12663h.38971l1.1691-.69646.38971-.063315.38971-.25326.38971.063315.77942-.12663.38971.063315.77942-.37989h.77942l.38971-.4432 1.9485-1.1397 1.1691-.63315.38971-.63315.38971-.063315.38971-.25326.38971-.69646 1.1691-1.0764.38971-.12663.38971.18994.38971-.12663.38971-.31658 1.5588-.4432.38971-.063315.38971.063315.38971-.18994.77942.063315h1.9485l.38971-.12663.77942.12663 1.1691-.12663 2.728-.063315.38971.18994h.38971l1.6887-.4432.25981.063315h.1299l.25981-.12663h2.5981l.25981.12663.64952-.063315.25981-.063315h.25981l.1299-.12663.25981.12663.25981-.063315h.25981l.25981-.12663.51961.12663.25981-.063315 1.1691-.063315.25981-.18994.1299-.12663.51961.25326.64952-.25326.25981.063315.51961-.18994.90932.063315.25981.12663.77942-.63315h.1299l.51961-.4432h1.4289l.25981-.12663.64952-.063315 1.299-.56983h.38971l.38971-.18994.1299-.18994.1299.12663.1299-.063315.1299.12663.38971-.37989.38971-.063315.38971-.18994.1299.063315.77942-.69646.25981-.063315.25981-.12663.25981-.63315.90932-.88641.1299.12663.25981-.12663.25981-.18994.1299.12663.25981-.063315.25981-.4432h.25981l.1299-.37989.1299.063315.64952-.25326h.1299l.25981-.31658.25981-.18994.51961-.063315.25981-.18994.38971-.063315.25981-.063315h.38971l.38971-.25326.51961-.18994.90932-.063315.25981-.063315 1.6887-.063315.25981-.063315 2.8579-.063315.25981-.063315 2.0785-.063315.64952-.25326 3.1177-.063315 1.0392-.25326.25981-.18994 1.8186.063315.25981.12663 1.0392-.18994 1.299-.063315.51961-.31658.77942-.063315.51961-.25326h.25981l.51961-.18994h.25981l.77942-.63315.25981-.12663.77942-.063315.25981-.25326 1.5588-.37989.25981.063315.25981-.12663.51961-.063315.77942-.18994.25981.063315 1.0392-.69646.25981-.063315.51961-.63315.25981-.18994h.25981l1.0392-.63315 1.299-.31658 1.0392-1.0764.25981-.37989h.25981l.77942-.75978h.25981l1.0392-.75978.25981.063315 1.299-1.2663h.25981l.25981-.37989 1.0392-.18994h1.8186l.25981-.12663h.25981l.25981-.12663 1.0392-.12663.77942-.063315 2.0785-.4432 2.5981.063315.51961.063315.77942-.063315.25981-.18994.77942.12663.25981-.063315.51961.063315h1.299l.77942-.31658h1.0392l.51961-.25326h.77942l.25981-.12663.77942-.063315.25981-.063315.25981.063315.25981-.12663.25981.063315.77942-.18994.25981-.18994.25981.063315.77942-.88641.51961.18994.25981-.18994h.51961l.51961-.25326.77942-.063315.51961-.56984h.25981l.51961-.18994.25981.063315.25981-.25326.25981-.063315.25981.063315.25981-.063315.25981.12663.25981-.12663.25981.063315.25981-.063315.77942-.56983h.25981l.25981-.12663.77942-1.1397.77942-.4432.25981-.50652.25981-.063314.77942-.75978.25981.063315.77942-.50652.51961-1.013.51961-.063315.51961-.56983 1.0392-.31658.77942-.4432 1.0392-.31658.51961-.56983.51961-.063315 1.0392-.18994.25981-.31658 1.8186-.063315.51961-.18994.77942-.063315.77942-.18994.25981.063315.51961-.063315.77942.063315.51961.063315.51961-.25326 1.0392.063314.25981.18994h2.3383l.51961-.31657h.25981l.51961-.18994 1.0392.063315.51961.063315.25981-.12663h.25981l.25981-.25326h.25981l.51961-.25326.51961-.063315.51961-.31658.51961-.063315.77942-.69646h.25981l.25981-.12663h.51961l.51961.18994h.25981l.51961-.18994.25981-.31658 1.299-.37989.25981-.12663.77942-.063315.25981-.12663.77942.12663.77942-.063315.51961-.18994.51961-.12663 1.5588-1.013.25981.063315.25981-.18994h.51961l.25981-.31658.51961-.25326.51961-.50652.77942.063315.51961-.37989.25981.063315.51961-.37989.25981-.37989.25981.12663.25981-.25326.25981-.063315.25981.18994.25981-.25326.51961.12663 1.0392-.63315.51961.063315.25981-.18994h.25981l.25981.12663.25981-.063315.25981-.31658.25981.063315.77942-.18994.25981.063315.25981-.063315.51961.063315 1.8186.063315.25981.18994 1.8186-.063315.51961-.063315 1.299.063315.25981.12663.25981-.12663h1.0392l.25981-.12663.77942.063315.51961.063315 2.3383-.063315.51961-.063315 1.0392.063315.51961-.25326.77942-.12663.25981.12663.51961-.25326 1.0392.12663.51961-.25326h.51961l.51961-.18994 2.8579-.063315.51961-.18994.51961-.25326 1.299-.063315.51961-.25326.77942-.56984h.25981l.25981-.12663.51961.063314 1.0392-.75978.25981.12663.25981-.12663.25981-.37989.77942-.4432.25981-.18994h.25981l.51961-.75978.77942-.56983.25981-.37989h.25981l.51961-.56984.25981.12663.51961-.063315.25981-.37989.25981.063315.51961-.37989 1.299-.8231 1.0392-.4432 1.0392-.063315.77942-.31658 1.5588.063315.51961.063315 1.8186.063315.51961.063315 1.0392-.12663.25981-.063315.25981.063315.51961-.063315h2.5981l.25981-.12663.77942-.063315.51961-.063315 1.0392-.063315.25981-.063315.77942.25326.51961-.18994 1.299-.063315.77942-.12663.51961-.063315.25981-.12663 1.5588.063315.77942-.37989h.25981l.51961-.31658h.25981l.25981-.12663.51961-.37989.25981.063315.77942-.18994.51961.12663.51961-.063315.25981.063315 1.5588-.75978.51961-.063315.77942-.18994.51961-.25326h.25981l.25981-.37989.25981-.12663.25981.063315.25981-.25326.25981-.063315.77942-1.4562.25981-.25326h.25981l.25981-.12663.51961-.4432.25981-.12663.25981-.4432 2.0785-1.6462.25981-.25326.25981-.4432 1.0392-.31658.25981.12663.25981-.063315.77942-.50652h.25981l.25981-.12663.25981.063315 1.8186-.37989.77942-.063315.51961-.12663.51961.063315 1.5588-.063315.25981-.063315.25981.063315.51961-.063315.51961.063315 1.5588-.063315.25981-.063315.51961.063315 1.0392-.063315 1.5588-.31657m.51961.18994.25981-.12663h.25981l.25981-.12663h2.8579l.51961-.25326.77942-.063315.25981-.063315.25981.063315.51961-.31658.25981.063315.51961-.063315.25981.063315.25981-.12663.51961.12663.25981-.12663.77942-.063315.51961-.25326.51961.25326.51961-.31658.77942-.25326.77942-.31658.25981-.31658.25981-.12663h.25981l.25981-.18994h.51961l.51961-.4432.51961.25326.25981-.25326.25981-.4432.51961-.25326h.25981l1.0392-.56984.51961-.4432.51961-.12663.25981-.4432.25981-.18994.25981-.56983.77942-.63315h.25981l.51961-.50652.77942-.25326.25981-.12663.51961-.37989.25981-.063315.25981-.25326.51961.063315.25981-.18994.51961.12663.25981-.25326h.51961l.25981-.18994.77942-.063315 1.0392-.12663.25981-.063315.25981.063315 1.0392-.50652 1.299-.063315.25981-.063315.77942.12663 1.299-.063315.25981-.063315.51961.12663.77942-.12663.25981.063315.25981-.063315.77942.12663h.51961l.25981-.25326 2.0785-.063315.77942-.12663.77942.12663 1.0392-.063315.25981-.18994.77942-.063315.77942-.31657 1.0392-.18994.51961-.063315 1.299-.25326.77942-.063315.25981-.12663h.25981l.25981-.25326h.25981l.51961-.63315.51961-.31658.51961-.25326.77942-.18994.25981-.31657.25981-.12663h.25981l.77942-.31658h.25981l.25981-.25326.51961-.063315.51961-.63315.51961-.31658.51961-.37989 3.1177-2.1527.51961-.94972.51961-.37989.51961-.063314.25981-.4432h.25981l.51961-.25326.25981-.25326h.25981l.51961-.25326.25981-.37989.25981-.063315.51961-.31658.51961.063315.25981-.31658.51961-.18994 1.299-.063315.25981.25326.51961.063315h.25981l.51961-.25326.51961-.063315 1.5588-.063315.51961-.063315.25981-.25326.77942-.063315.51961-.063315 5.1961-.063315.51961-.12663.25981.063315 1.5588-.4432.25981-.12663h.25981l.25981-.12663h.25981l.25981-.12663.77942.12663.51961-.063315h.51961l.51961-.18994.25981-.31657 1.0392-.4432h.51961l.51961-.25326.25981.063315.51961-.18994.25981.12663.25981-.12663.51961-.063315.51961-.37989.51961-.25326h.25981l.51961-.18994.25981.12663.51961-.18994.25981-.31658 1.299-.56984.25981.063315.77942-.31657.25981.063315.25981-.18994h.25981l3.6373-2.7225.51961-.88641.51961-.69646.51961-.063315 1.299-1.1397.25981-.12663.25981-.25326.25981-.063315 1.299-.82309.25981-.063315.51961-.31658 1.5588-.31658.25981.063315.51961-.063315.77942.12663 1.299-.063315.51961-.063315 1.299-.063315.51961-.063315.51961.063315.77942.063315.77942.12663.25981-.12663.51961.063315 1.0392.18994.25981-.12663.25981.12663.51961-.063315.25981-.25326 1.0392-.25326.51961.12663 1.0392-.37989h.25981l.25981-.12663.51961-.063315 1.5588-.31658.25981.063315.25981-.12663h.25981l.77942-.63315h.25981l1.299-.56983 1.299-.31658.25981-.31658.51961.063315.77942-.63315.25981-.18994.25981.063315.25981-.063315.25981-.25326.51961.4432.51961.18994 1.299-.31657.25981-.31658.25981-.063315.51961-.4432h.25981l.51961-.25326.25981.063315.25981-.31657.25981-.12663.51961-.50652.25981-.4432.51961-.4432.25981-.4432.25981-.12663.51961-.63315h.25981l.51961-.56983.25981.063315.51961-.37989.25981-.63315.25981-.063315.25981-.4432.25981-.063315.25981-.25326.25981-.50652.51961-.31657.51961-.063315.51961-.56984.51961-.063315.51961-.37989.25981-.37989.25981-.063315 1.5588-1.0764.77942.063314.51961.18994.51961-.25326.77942.12663 1.5588-.063315 1.0392-.18994 1.8186-.063315.77942-.12663 1.8186-.063315 1.0392-.18994h.77942l.51961-.25326.25981.063315.25981-.063315.25981.063315.25981-.063315.51961.063315.51961-.063315.51961.063315.77942-.37989.51961-.063315.25981-.18994h.25981l.51961-.31657.51961-.18994.25981-.12663.51961.063315 1.299-.31658.25981-.25326.51961-.12663.25981.063315.25981.25326.25981.063315.25981-.12663.25981.063315.77942-.56983.25981.12663.25981-.063314.51961-.37989.51961.063315h.25981l.25981-.25326.25981.063315.77942-.4432h.25981l.51961-.18994.25981.063315.25981-.063315.25981.063315 1.0392-.88641.77942-.69646.25981-.25326.25981-.063315.25981-.50652.25981.063315.25981-.37989.25981-.063315.25981-.37989.51961-.25326.51961-.56984h.25981l.25981-.4432.25981-.063315.51961-.50652.25981.12663 1.0392-.4432.51961.18994.51961-.18994 1.5588-.31658 1.0392-.063315 1.299-.25326 1.0392-.12663 1.299-.063315 1.5588-.31658h1.8186l.25981.12663h.51961l.51961.12663.25981-.12663h.51961l.25981-.12663.25981.063315 1.0392-.25326.51961.063315h.25981l.25981-.18994 2.3383-.063315.77942-.37989 1.299-.063315.51961-.18994.25981.12663.51961-.25326h.51961l.25981-.12663.77942.063315.51961.18994.51961-.063315.25981-.12663.51961.063315.25981-.12663.25981.063315 1.0392-.31658.51961-.37989.25981.18994.77942-.4432h.51961l.25981-.18994h.25981l.25981-.37989.25981.18994h.25981l.25981-.63315.77942-.4432 1.0392-.88641.25981-.50652.25981.12663.25981-.12663h.25981l1.0392-1.0764.25981.063315.51961-.4432.25981-.4432.25981.12663.77942-.4432.25981-.063315.25981-.31658.51961.063315.25981-.12663.25981-.25326.25981-.063315.25981-.31657.25981-.12663.25981.063315 1.8186-.8231 1.299-.063315.77942-.12663h.77942l.25981-.12663 1.5588-.063315 1.0392-.25326.51961.063315h.25981l.25981-.12663 1.0392.063315.77942.12663 1.0392-.18994 1.0392-.12663 1.299-.063315 1.0392-.18994.77942.063315 1.0392.18994h.25981l1.299-.88641h2.3383l.25981-.12663.25981.063315.51961-.12663.25981.063315.51961-.18994 1.0392-.18994.25981-.31658.51961-.18994.25981.063315.25981.18994h.25981l1.299-.82309.25981.12663.77942-.4432.25981-.18994h.25981l1.0392-1.013.51961-.12663.77942-.88641.25981-.31657.77942-.4432.51961-.63315.25981-.12663.25981-.50652.51961-.25326.51961-.18994.25981.12663.25981-.25326.51961-.18994.25981-.18994.25981.12663.25981-.25326h.25981l.25981-.12663.77942-.8231 1.299.063315.25981-.18994 1.0392-.063315.77942-.12663.77942.12663 2.0785-.063315.77942-.12663h3.3775l.25981-.25326 1.299-.063315 1.299-.25326 1.8186-.063315.51961-.18994.25981.063315 1.0392-.12663 1.299-.37989.25981-.12663.25981-.31657.51961-.18994.77942-.37989.25981.063315.25981-.18994.25981.12663h.25981l.25981-.18994h.51961l.51961-.31658.25981.063315.25981-.12663.25981.12663 1.0392-.4432.25981.063315 1.8186-.50652.25981.12663.51961-.12663.51961-.25326h.77942l1.299-.56983.25981-.063315.51961-.56984.25981-.31658.51961-.18994.25981-.12663.25981-.31658.25981.063315.25981-.063315 1.299-1.013.25981-.50652 1.0392-.4432.25981-.37989.25981-.12663.25981-.50652 1.299-.94972h.25981l.25981.18994.51961-.18994.25981-.18994h.25981l.25981.12663 1.0392-.31658.77942-.37989.25981.063315 1.0392-.18994 1.8186-.063315.51961-.063315 3.1177.063315.25981.12663 1.0392-.12663 2.5981.063315 1.5588.18994.77942-.25326.51961-.18994 1.0392-.18994.51961.12663.25981-.063315.25981.12663.25981-.063315.25981-.18994.25981.18994h.77942l.25981-.18994.25981.063315.51961-.31657.25981.12663.25981-.25326.25981.18994 1.299-.063315m1.0392 0 .77942-.12663.51961-.31658.25981-.31658.51961-.063315h.25981l.51961-.37989.51961.12663.51961-.31657.25981.12663.25981-.31658.25981.18994.25981-.063315.77942-.94972.25981-.063315.25981-.25326.25981.063315.25981-.12663.25981-.56984 1.299-1.3929.25981-.37989.25981-.063315.77942-.63315.25981-.18994.25981-.37989h.25981l.25981-.56983.51961-.56984h.51961l.25981-.12663.25981-.25326.25981.063315.25981-.063315.51961-.31658h.25981l1.0392-.63315.77942-.31658.25981.063315 1.299-.25326.51961-.063315 1.0392-.18994.51961.12663 1.0392-.18994.25981.12663 2.3383.063315.25981.12663 1.299-.063315.77942-.12663.51961.12663.51961-.063315.25981.063315.77942-.25326.25981-.12663.51961-.063315.25981-.18994.51961-.063315.25981-.063315.51961.063315h.77942l.51961-.25326 1.0392-.063315.77942-.31658h.25981l.51961-.25326 1.299-.37989.51961.18994.51961-.18994.51961.25326.77942-.31658.51961-.12663.25981-.18994 1.0392.063315.77942-.50652h.25981l.51961-.50652h.51961l.25981-.25326h.25981l.25981-.18994.25981.12663.25981-.18994.25981-.37989.51961-.18994.51961-.50652 1.8186-1.7095.25981-.063315.25981-.82309.51961-.69646.25981-.50652 1.0392-.50652 1.0392-.94972.77942-.31657.25981.063315.77942-.31658.25981-.50652 1.0392-.50652.25981-.4432.51961-.25326h.25981l.25981-.12663.25981.12663.25981-.12663.51961.063315h.25981l.51961-.25326 2.8579-.063315.51961-.063315.77942.063315.25981.12663h4.9363l.25981-.12663h.77942l.77942-.37989h.25981l.25981-.18994.51961-.063315.51961-.18994.51961-.063315.25981.063315.51961-.25326h.25981l.25981-.18994.25981.063315.77942-.31658.25981-.063315.25981-.25326.51961.063315.25981-.18994.25981.063315.25981-.18994.25981.063315.25981-.18994.77942-.063315.25981.18994.77942-.18994.25981-.18994.25981.063315 1.0392-.56984.25981-.18994.25981.18994.25981-.12663h.51961l.25981-.18994h.51961l.25981-.12663h.25981l.25981-.25326.25981.063315 1.0392-.4432h.77942l.25981-.12663h.25981l1.299-1.013.77942-1.4562.77942-.88641.51961-.18994 1.0392-.88641 1.5588-1.2663.25981-.31657v0" clip-path="url(#c)" fill="none" stroke="#28f" stroke-linecap="square" stroke-width="1.5"/>
   </g>
   <g id="fh">
    <path d="m52 523.06v-232.9" fill="none" stroke="#000" stroke-linecap="square" stroke-width=".8"/>
   </g>
   <g id="fi">
    <path d="m853.2 523.06v-232.9" fill="none" stroke="#000" stroke-linecap="square" stroke-width=".8"/>
   </g>
   <g id="fj">
    <path d="m52 523.06h801.2" fill="none" stroke="#000" stroke-linecap="square" stroke-width=".8"/>
   </g>
   <g id="fk">
    <path d="m52 290.16h801.2" fill="none" stroke="#000" stroke-linecap="square" stroke-width=".8"/>
   </g>
   <g id="fl">
    <!-- サーバー数の推移 -->
    <g transform="translate(404.6 284.16) scale(.12 -.12)">
     <defs>
      <path id="z" transform="scale(.015625)" d="m4685 2893q0-621-84-1111-83-489-288-877-204-387-569-691t-928-560l-544 512q448 167 781 371 333 205 550 503 218 298 323 739 106 442 106 1075v1620q0 192-10 339-9 147-22 217h723q-6-70-22-217t-16-339v-1581zm-2304 2086q-7-64-23-199-16-134-16-313v-2317q0-128 6-256 7-128 13-224 7-96 13-140h-710q6 44 12 140 7 96 13 221 7 125 7 259v2317q0 122-10 256-9 135-28 256h723zm-1978-1197q45-12 144-22t237-20q138-9 285-9h4217q237 0 394 13t246 26v-679q-76 7-240 13-163 6-393 6h-4224q-147 0-282-3-134-3-234-10-99-6-150-12v697z"/>
      <path id="s" transform="scale(.015625)" d="m621 2854q109-6 265-16 157-9 339-16 183-6 349-6 128 0 352 0t509 0 598 0q314 0 624 0 311 0 586 0t486 0q212 0 327 0 230 0 416 16t301 22v-793q-109 6-308 19-198 13-409 13-109 0-324 0-214 0-489 0t-586 0q-310 0-624 0-313 0-598 0t-509 0-352 0q-262 0-525-10-262-9-428-22v793z"/>
      <path id="y" transform="scale(.015625)" d="m4941 5037q83-109 176-269t182-320q90-160 154-288l-416-179q-96 192-240 448t-272 435l416 173zm723 275q83-122 182-282 100-160 196-317 96-156 153-271l-416-186q-102 205-246 454-144 250-279 429l410 173zm-4339-3360q102 262 201 556 100 295 183 612t144 630q61 314 93 602l723-147q-19-83-45-183-26-99-48-195t-42-166q-32-154-86-394t-131-512-164-551q-86-278-182-514-115-301-269-618-153-317-326-618-173-300-346-550l-697 294q301 397 563 874t429 880zm3155 198q-96 250-215 531-118 282-243 567-124 285-246 534-122 250-224 429l659 218q96-179 221-429t253-535q128-284 249-566 122-281 218-525 90-230 195-518 106-288 211-592 106-304 195-589 90-285 154-515l-729-237q-84 352-199 736t-240 768-259 723z"/>
     </defs>
     <use xlink:href="#z"/>
     <use transform="translate(100)" xlink:href="#s"/>
     <use transform="translate(200)" xlink:href="#y"/>
     <use transform="translate(300)" xlink:href="#s"/>
     <use transform="translate(400)" xlink:href="#o"/>
     <use transform="translate(500)" xlink:href="#t"/>
     <use transform="translate(600)" xlink:href="#p"/>
     <use transform="translate(700)" xlink:href="#n"/>
    </g>
   </g>
  </g>
 </g>
 <defs>
  <clipPath id="b">
   <rect x="52" y="26.88" width="801.2" height="232.9"/>
  </clipPath>
  <clipPath id="c">
   <rect x="52" y="290.16" width="801.2" height="232.9"/>
  </clipPath>
 </defs>
</svg>
