<!DOCTYPE svg  PUBLIC '-//W3C//DTD SVG 1.1//EN'  'http://www.w3.org/Graphics/SVG/1.1/DTD/svg11.dtd'>
<svg version="1.1" viewBox="0 0 864 576" xmlns="http://www.w3.org/2000/svg" xmlns:xlink="http://www.w3.org/1999/xlink">
 <defs>
  <style type="text/css">*{stroke-linejoin: round; stroke-linecap: butt}</style>
 </defs>
 <g id="aa">
  <g id="ab">
   <path d="m0 576h864v-576h-864z" fill="#fff"/>
  </g>
  <g id="ac">
   <g id="ad">
    <path d="m52 259.78h801.2v-232.9h-801.2z" fill="#fff"/>
   </g>
   <g id="ae">
    <path d="m134.62 259.78h.83005v-232.9h-.83005z" clip-path="url(#c)" fill="#808080" opacity=".3" stroke="#808080"/>
   </g>
   <g id="af">
    <path d="m440.22 259.78h.55337v-232.9h-.55337z" clip-path="url(#c)" fill="#808080" opacity=".3" stroke="#808080"/>
   </g>
   <g id="ag">
    <path d="m769.47 259.78h1.1067v-232.9h-1.1067z" clip-path="url(#c)" fill="#808080" opacity=".3" stroke="#808080"/>
   </g>
   <g id="ah">
    <g id="ai">
     <g id="aj">
      <path d="m105.15 259.78v-232.9" clip-path="url(#c)" fill="none" stroke="#b0b0b0" stroke-linecap="square" stroke-opacity=".3" stroke-width=".8"/>
     </g>
     <g id="ak">
      <defs>
       <path id="e" d="m0 0v3.5" stroke="#000" stroke-width=".8"/>
      </defs>
      <use x="105.153348" y="259.777732" stroke="#000000" stroke-width=".8" xlink:href="#e"/>
     </g>
    </g>
    <g id="al">
     <g id="am">
      <path d="m184.84 259.78v-232.9" clip-path="url(#c)" fill="none" stroke="#b0b0b0" stroke-linecap="square" stroke-opacity=".3" stroke-width=".8"/>
     </g>
     <g id="an">
      <use x="184.838029" y="259.777732" stroke="#000000" stroke-width=".8" xlink:href="#e"/>
     </g>
    </g>
    <g id="ao">
     <g id="ap">
      <path d="m264.52 259.78v-232.9" clip-path="url(#c)" fill="none" stroke="#b0b0b0" stroke-linecap="square" stroke-opacity=".3" stroke-width=".8"/>
     </g>
     <g id="aq">
      <use x="264.52271" y="259.777732" stroke="#000000" stroke-width=".8" xlink:href="#e"/>
     </g>
    </g>
    <g id="ar">
     <g id="as">
      <path d="m344.21 259.78v-232.9" clip-path="url(#c)" fill="none" stroke="#b0b0b0" stroke-linecap="square" stroke-opacity=".3" stroke-width=".8"/>
     </g>
     <g id="at">
      <use x="344.207391" y="259.777732" stroke="#000000" stroke-width=".8" xlink:href="#e"/>
     </g>
    </g>
    <g id="au">
     <g id="av">
      <path d="m423.89 259.78v-232.9" clip-path="url(#c)" fill="none" stroke="#b0b0b0" stroke-linecap="square" stroke-opacity=".3" stroke-width=".8"/>
     </g>
     <g id="aw">
      <use x="423.892072" y="259.777732" stroke="#000000" stroke-width=".8" xlink:href="#e"/>
     </g>
    </g>
    <g id="ax">
     <g id="ay">
      <path d="m503.58 259.78v-232.9" clip-path="url(#c)" fill="none" stroke="#b0b0b0" stroke-linecap="square" stroke-opacity=".3" stroke-width=".8"/>
     </g>
     <g id="az">
      <use x="503.576753" y="259.777732" stroke="#000000" stroke-width=".8" xlink:href="#e"/>
     </g>
    </g>
    <g id="ba">
     <g id="bb">
      <path d="m583.26 259.78v-232.9" clip-path="url(#c)" fill="none" stroke="#b0b0b0" stroke-linecap="square" stroke-opacity=".3" stroke-width=".8"/>
     </g>
     <g id="bc">
      <use x="583.261434" y="259.777732" stroke="#000000" stroke-width=".8" xlink:href="#e"/>
     </g>
    </g>
    <g id="bd">
     <g id="be">
      <path d="m662.95 259.78v-232.9" clip-path="url(#c)" fill="none" stroke="#b0b0b0" stroke-linecap="square" stroke-opacity=".3" stroke-width=".8"/>
     </g>
     <g id="bf">
      <use x="662.946115" y="259.777732" stroke="#000000" stroke-width=".8" xlink:href="#e"/>
     </g>
    </g>
    <g id="bg">
     <g id="bh">
      <path d="m742.63 259.78v-232.9" clip-path="url(#c)" fill="none" stroke="#b0b0b0" stroke-linecap="square" stroke-opacity=".3" stroke-width=".8"/>
     </g>
     <g id="bi">
      <use x="742.630796" y="259.777732" stroke="#000000" stroke-width=".8" xlink:href="#e"/>
     </g>
    </g>
    <g id="bj">
     <g id="bk">
      <path d="m822.32 259.78v-232.9" clip-path="url(#c)" fill="none" stroke="#b0b0b0" stroke-linecap="square" stroke-opacity=".3" stroke-width=".8"/>
     </g>
     <g id="bl">
      <use x="822.315477" y="259.777732" stroke="#000000" stroke-width=".8" xlink:href="#e"/>
     </g>
    </g>
   </g>
   <g id="bm">
    <g id="bn">
     <g id="bo">
      <path d="m52 246.93h801.2" clip-path="url(#c)" fill="none" stroke="#b0b0b0" stroke-linecap="square" stroke-opacity=".3" stroke-width=".8"/>
     </g>
     <g id="bp">
      <defs>
       <path id="h" d="m0 0h-3.5" stroke="#000" stroke-width=".8"/>
      </defs>
      <use x="52" y="246.926099" stroke="#000000" stroke-width=".8" xlink:href="#h"/>
     </g>
     <g id="bq">
      <!-- 300 -->
      <g transform="translate(27.9 250.91) scale(.1 -.1)">
       <defs>
        <path id="o" transform="scale(.015625)" d="m1715-90q-371 0-656 90t-503 240q-217 150-377 323l359 474q211-205 479-359 269-153 634-153 269 0 467 92 199 93 311 266t112 423q0 256-125 451t-429 300q-304 106-835 106v551q467 0 732 105 266 106 384 291 119 186 119 423 0 307-192 489-192 183-531 183-269 0-503-119-233-118-438-316l-384 460q282 256 614 413 333 157 737 157 422 0 748-144 327-144 512-413 186-269 186-659 0-403-221-685-221-281-592-422v-26q269-70 490-227t349-400 128-557q0-422-215-726-214-304-573-468-358-163-787-163z"/>
        <path id="a" transform="scale(.015625)" d="m1830-90q-460 0-806 275-346 276-535 823-188 547-188 1366 0 820 188 1357 189 538 535 803 346 266 806 266 461 0 800-269 340-269 528-803 189-534 189-1354 0-819-189-1366-188-547-528-823-339-275-800-275zm0 589q237 0 422 185 186 186 288 599 103 413 103 1091 0 679-103 1082-102 403-288 582-185 180-422 180-236 0-422-180-186-179-292-582-105-403-105-1082 0-678 105-1091 106-413 292-599 186-185 422-185z"/>
       </defs>
       <use xlink:href="#o"/>
       <use transform="translate(57)" xlink:href="#a"/>
       <use transform="translate(114)" xlink:href="#a"/>
      </g>
     </g>
    </g>
    <g id="br">
     <g id="bs">
      <path d="m52 220.79h801.2" clip-path="url(#c)" fill="none" stroke="#b0b0b0" stroke-linecap="square" stroke-opacity=".3" stroke-width=".8"/>
     </g>
     <g id="bt">
      <use x="52" y="220.787184" stroke="#000000" stroke-width=".8" xlink:href="#h"/>
     </g>
     <g id="bu">
      <!-- 600 -->
      <g transform="translate(27.9 224.77) scale(.1 -.1)">
       <defs>
        <path id="k" transform="scale(.015625)" d="m1971-90q-339 0-634 144-294 144-518 435-224 292-352 733-128 442-128 1044 0 678 147 1161 148 483 397 784 250 301 570 445t665 144q397 0 688-147 292-147 490-359l-403-448q-128 154-327 253-198 99-409 99-307 0-567-182-259-182-413-605-153-422-153-1145 0-608 115-1002t326-589q212-195 493-195 212 0 375 121 163 122 259 343t96 522q0 300-90 511-89 212-259 320-169 109-419 109-211 0-451-134t-458-461l-25 538q134 192 313 323t374 201q196 71 375 71 397 0 694-163 298-163 467-490 170-326 170-825 0-468-195-817-195-348-512-544-317-195-701-195z"/>
       </defs>
       <use xlink:href="#k"/>
       <use transform="translate(57)" xlink:href="#a"/>
       <use transform="translate(114)" xlink:href="#a"/>
      </g>
     </g>
    </g>
    <g id="bv">
     <g id="bw">
      <path d="m52 194.65h801.2" clip-path="url(#c)" fill="none" stroke="#b0b0b0" stroke-linecap="square" stroke-opacity=".3" stroke-width=".8"/>
     </g>
     <g id="bx">
      <use x="52" y="194.648269" stroke="#000000" stroke-width=".8" xlink:href="#h"/>
     </g>
     <g id="by">
      <!-- 900 -->
      <g transform="translate(27.9 198.63) scale(.1 -.1)">
       <defs>
        <path id="l" transform="scale(.015625)" d="m1562-90q-410 0-708 150-297 151-502 356l403 461q141-160 346-256t422-96q224 0 425 102 202 103 352 333 151 230 237 614 87 384 87 941 0 589-115 970t-323 563-496 182q-205 0-372-118-166-118-262-336t-96-525q0-301 86-512 87-211 259-323 173-112 417-112 224 0 460 141 237 141 448 461l32-544q-134-180-313-314t-371-208-384-74q-391 0-689 166-297 167-467 496-169 330-169 823 0 467 195 816t515 541 698 192q339 0 636-138 298-137 519-419 221-281 349-710t128-1018q0-691-141-1187t-391-807q-249-310-563-461-313-150-652-150z"/>
       </defs>
       <use xlink:href="#l"/>
       <use transform="translate(57)" xlink:href="#a"/>
       <use transform="translate(114)" xlink:href="#a"/>
      </g>
     </g>
    </g>
    <g id="bz">
     <g id="ca">
      <path d="m52 168.51h801.2" clip-path="url(#c)" fill="none" stroke="#b0b0b0" stroke-linecap="square" stroke-opacity=".3" stroke-width=".8"/>
     </g>
     <g id="cb">
      <use x="52" y="168.509354" stroke="#000000" stroke-width=".8" xlink:href="#h"/>
     </g>
     <g id="cc">
      <!-- 1200 -->
      <g transform="translate(22.2 172.49) scale(.1 -.1)">
       <defs>
        <path id="g" transform="scale(.015625)" d="m544 0v608h1037v3277h-845v467q333 58 579 147 247 90 451 218h557v-4109h915v-608h-2694z"/>
        <path id="b" transform="scale(.015625)" d="m282 0v429q697 621 1164 1136 468 515 701 956 234 442 234 826 0 256-87 451-86 196-262 301-176 106-445 106-275 0-506-151-230-150-422-368l-416 410q301 333 637 518 336 186 803 186 429 0 749-176t496-493 176-745q0-455-224-919t-615-935q-390-470-889-950 186 20 394 36t374 16h1184v-634h-3046z"/>
       </defs>
       <use xlink:href="#g"/>
       <use transform="translate(57)" xlink:href="#b"/>
       <use transform="translate(114)" xlink:href="#a"/>
       <use transform="translate(171)" xlink:href="#a"/>
      </g>
     </g>
    </g>
    <g id="cd">
     <g id="ce">
      <path d="m52 142.37h801.2" clip-path="url(#c)" fill="none" stroke="#b0b0b0" stroke-linecap="square" stroke-opacity=".3" stroke-width=".8"/>
     </g>
     <g id="cf">
      <use x="52" y="142.370439" stroke="#000000" stroke-width=".8" xlink:href="#h"/>
     </g>
     <g id="cg">
      <!-- 1500 -->
      <g transform="translate(22.2 146.36) scale(.1 -.1)">
       <defs>
        <path id="j" transform="scale(.015625)" d="m1715-90q-365 0-653 90t-506 237q-217 147-383 307l352 480q134-134 294-246t361-183q202-70 452-70 262 0 473 118 212 119 333 346 122 227 122 541 0 460-247 716-246 256-649 256-224 0-384-64t-365-198l-365 237 141 2240h2387v-627h-1747l-109-1204q154 77 307 118 154 42 340 42 397 0 723-160t518-490q192-329 192-847 0-519-224-887t-586-560q-361-192-777-192z"/>
       </defs>
       <use xlink:href="#g"/>
       <use transform="translate(57)" xlink:href="#j"/>
       <use transform="translate(114)" xlink:href="#a"/>
       <use transform="translate(171)" xlink:href="#a"/>
      </g>
     </g>
    </g>
    <g id="ch">
     <g id="ci">
      <path d="m52 116.23h801.2" clip-path="url(#c)" fill="none" stroke="#b0b0b0" stroke-linecap="square" stroke-opacity=".3" stroke-width=".8"/>
     </g>
     <g id="cj">
      <use x="52" y="116.231524" stroke="#000000" stroke-width=".8" xlink:href="#h"/>
     </g>
     <g id="ck">
      <!-- 1800 -->
      <g transform="translate(22.2 120.22) scale(.1 -.1)">
       <defs>
        <path id="m" transform="scale(.015625)" d="m1830-90q-441 0-787 163-345 164-547 448-202 285-202 650 0 314 122 557t314 419 403 291v32q-256 186-442 458-185 272-185 643 0 365 176 640t480 425q304 151 694 151 410 0 704-160t457-439q164-278 164-649 0-237-96-448t-234-381q-137-169-291-278v-32q218-115 397-285 179-169 288-406t109-557q0-346-189-628-189-281-532-448-342-166-803-166zm314 2708q205 198 310 419 106 221 106 464 0 211-83 384t-247 272q-163 99-393 99-288 0-480-183-192-182-192-502 0-256 134-429 135-172 359-294t486-230zm-294-2170q236 0 418 89 183 90 285 253 103 164 103 388 0 211-90 367-89 157-246 272-157 116-368 215t-454 195q-244-173-398-426-153-252-153-553 0-237 118-416 119-179 324-282 205-102 461-102z"/>
       </defs>
       <use xlink:href="#g"/>
       <use transform="translate(57)" xlink:href="#m"/>
       <use transform="translate(114)" xlink:href="#a"/>
       <use transform="translate(171)" xlink:href="#a"/>
      </g>
     </g>
    </g>
    <g id="cl">
     <g id="cm">
      <path d="m52 90.093h801.2" clip-path="url(#c)" fill="none" stroke="#b0b0b0" stroke-linecap="square" stroke-opacity=".3" stroke-width=".8"/>
     </g>
     <g id="cn">
      <use x="52" y="90.092609" stroke="#000000" stroke-width=".8" xlink:href="#h"/>
     </g>
     <g id="co">
      <!-- 2100 -->
      <g transform="translate(22.2 94.078) scale(.1 -.1)">
       <use xlink:href="#b"/>
       <use transform="translate(57)" xlink:href="#g"/>
       <use transform="translate(114)" xlink:href="#a"/>
       <use transform="translate(171)" xlink:href="#a"/>
      </g>
     </g>
    </g>
    <g id="cp">
     <g id="cq">
      <path d="m52 63.954h801.2" clip-path="url(#c)" fill="none" stroke="#b0b0b0" stroke-linecap="square" stroke-opacity=".3" stroke-width=".8"/>
     </g>
     <g id="cr">
      <use x="52" y="63.953694" stroke="#000000" stroke-width=".8" xlink:href="#h"/>
     </g>
     <g id="cs">
      <!-- 2400 -->
      <g transform="translate(22.2 67.939) scale(.1 -.1)">
       <defs>
        <path id="n" transform="scale(.015625)" d="m2170 0v3072q0 192 12 457 13 266 20 458h-26q-90-179-183-365-92-185-195-364l-921-1415h2579v-576h-3328v493l1875 2957h858v-4717h-691z"/>
       </defs>
       <use xlink:href="#b"/>
       <use transform="translate(57)" xlink:href="#n"/>
       <use transform="translate(114)" xlink:href="#a"/>
       <use transform="translate(171)" xlink:href="#a"/>
      </g>
     </g>
    </g>
    <g id="ct">
     <g id="cu">
      <path d="m52 37.815h801.2" clip-path="url(#c)" fill="none" stroke="#b0b0b0" stroke-linecap="square" stroke-opacity=".3" stroke-width=".8"/>
     </g>
     <g id="cv">
      <use x="52" y="37.814779" stroke="#000000" stroke-width=".8" xlink:href="#h"/>
     </g>
     <g id="cw">
      <!-- 2700 -->
      <g transform="translate(22.2 41.8) scale(.1 -.1)">
       <defs>
        <path id="i" transform="scale(.015625)" d="m1235 0q32 646 109 1187t224 1024 384 941 576 938h-2208v627h3027v-455q-409-512-665-989-256-476-397-969t-205-1053-90-1251h-755z"/>
       </defs>
       <use xlink:href="#b"/>
       <use transform="translate(57)" xlink:href="#i"/>
       <use transform="translate(114)" xlink:href="#a"/>
       <use transform="translate(171)" xlink:href="#a"/>
      </g>
     </g>
    </g>
   </g>
   <g id="cx">
    <path d="m88.418 222.44.078854.17426.069632-.34852.28775.34852.14664-.08713.39151-.8713.83051-3.2238.84434-5.1407.41318-1.3069.41595-.17426.39104-1.6555.41502-1.2198.41502-2.0911.41502-2.7882.41502-.60991.41502-3.2238.41502-2.3525 1.2451-9.2357.83005-4.3565.41502-1.3941.41502-.78417.41502-2.004.41502-5.3149 1.2451-24.309 2.4901-65.783.41502-15.248.41502-5.3149.41502-2.3525.41502-.78417.41502 2.6139.41502 1.5683 2.0751 43.565.83005 21.608.83005 19.778 1.2451 23.874.83005 12.198 1.6601 19.604.41502 2.701.41502 3.9208.41502 2.7882.41502 3.6594.41502 1.9169.41502 3.2238 1.2451 6.5347.41502 2.4396.41502 1.5683.41502 3.4852.41502 1.1327.41502 1.7426.83005 1.6555.41502 1.1327.41502.26139.41502 1.3069.41502.52278.83005.26139.83005-.43565 1.2451-2.8753.41502-.26139.41502-.95843.41502-.43565.83005-3.3981.83005-3.9208.41502.26139.41502-.17426.41502-2.7882.41502-1.5683.41502-.78417.83005-2.7882.41502-3.1367.41502-1.7426.41502-.60991 1.2451-4.2694.41502-3.9208.41502-2.4396.41502-3.6594.83005-5.2278.41502-2.6139.41502-1.3941m.83005 19.517.41502-12.285.41502-2.3525.41502-1.3941 1.2451-13.418.41502-6.012.83005-18.21.83005-22.654.41502-16.293 1.2451-31.105.83005-14.725.41502-3.7466.41502.43565.41502-1.2198.41502 1.7426.83005 8.8001.83005 21.173.41502 6.9704 1.2451 28.404.83005 14.725.83005 16.555.83005 12.111.83005 10.891 2.0751 21.608 2.4901 12.808.83005 5.7506.83005 3.1367.41502.43565.41502.8713.41502 1.3069.41502.60991 1.2451 4.5307.41502-.43565.41502.34852h.41502l.41502.52278.41502-1.3069.41502.17426.41502-.34852.41502-.52278.41502-.26139.41502-.60991.41502.08713.41502-.52278.41502-2.0911.41502-1.4812.41502-.8713 1.6601-6.2733.41502-1.0456.41502-2.2654.41502-1.2198.41502-2.701.41502-1.0456.41502-3.2238.41502-1.6555.41502-3.3109.41502-.95843.83005-2.701.41502-2.2654.41502-1.3941.83005-6.012.41502-1.8297.41502-.43565.41502-3.1367.41502-1.1327.41502-2.3525 1.2451-4.5307 1.2451-18.733 1.2451-27.62.41502-13.766 1.6601-36.856.83005-12.111.83005-4.4436.41502 1.0456.41502 3.7466.83005 17.6 1.2451 28.23.83005 19.43 1.2451 21.521.83005 11.763 1.6601 23.961 1.2451 13.418 1.6601 12.547 2.9052 14.115.41502 1.1327.41502.69704.41502 1.1327.41502.60991h.41502l.55337.26139.55337.8713.13834-.08713.27668-.52278.55337.52278.13834.08713.27668-.60991.13834-.52278.13834.17426.27668-.95843h.13834l.13834.17426.13834-.17426.13834.087129.13834-.43565.13834.34852.41502-1.2198.13834.17426.13834-.08713.13834-.43565.13834.08713.27668-.78417.13834-.17426.27668-.8713.13834-.08713.27668-.52278.13834-.08713.27668-1.3941.13834.08713.27668-.43565.13834.08713.55337-1.2198.41502-2.701h.13834l.55337-2.3525.41502-1.5683h.13834l.69171-2.8753.27668-.95843.13834-.52278.13834-1.0456.13834-.087129.96839-5.5763.41502-1.2198.27668-.69704.13834.17426.27668-2.0911.13834-.34852.27668-1.3941.13834-.34852.27668-2.004.27668-1.3069.13834-.17426.13834-.43565.27668-1.7426.13834-.087129.13834.17426.13834-.08713.41502-1.9169.27668-.95843.13834-1.6555.13834.26139 1.2451-7.406h.13834l.13834-.17426.27668-1.2198.13834.69704.13834-1.0456.13834.26139 1.2451-10.281.96839-17.774.69171-18.907.27668-11.153.41502-8.1031.96839-22.741.27668-9.5843.41502-8.0159.41502-4.1822.13834-3.2238.13834-.52278.13834.43565.55336-2.8753.13834-.34852.13834-1.0456.13834-.087129.27668.8713 1.2451 22.915.27668 4.7921.13834.78417.55337 12.547.41502 9.5843.83005 15.683.41502 6.8832.55336 11.327 1.9368 31.192.41502 3.5723 1.9368 17.426 1.5218 8.8872.27668 1.2198.27668 2.5268.27668 1.2198.55336 4.3565.55337 2.4396.13834 1.6555.27668.43565.55336 2.9624.27668.69704.13834.17426.13834.60991.13834-.26139.27668.95843.13834.52278.13834.08713.55336 2.2654.41502.52278.13834-.08713.13834.43565.27668.08713.13834.26139.27668-.17426.13834.43565.13834-.34852.41502.34852.27668-.60991.13834-.43565.27668.17426.27668-.43565.55336-1.5683.27668-.69704.27668.26139.27668-.26139.55337-.95843.27668.43565.27668-1.2198.55337-3.2238.27668-1.3941.27668-.26139.27668-.95843.55337-.34852.55337-2.0911.27668-.08713.55337-3.3109.27668-.26139.27668-.78417h.27668l.27668-1.1327.27668-2.1782.83005-3.2238.55337-2.9624.27668-2.2654.27668-.52278.55337-2.0911.55337-3.7466.27668.087129.55336-1.4812.55337-4.008.83005-5.8377.27668-1.1327.27668-1.7426h.27668l.55337-3.1367.27668-.69704 1.3834-5.7506.83005-11.24.83005-17.426 2.2135-66.219.55337-11.763.55337-9.9328.55336-7.7545.83005-5.5763h.27668l.27668 1.1327.27668 1.7426.83005 7.406.83005 16.206.27668-3.1367.55337 14.376.55337 10.63 1.3834 28.84 3.0435 55.937.55337 7.8417.83005 7.5803.83005 6.0991.27668 2.8753.55337 2.9624.27668 2.5268.27668 1.1327.55337 3.8337.27668.8713.27668-.17426.27668.087129.27668.43565.27668 1.0456.27668.60991.27668 1.3069.27668-1.1327.27668-.43565.27668.60991.27668-.26139.27668.69704.27668-.34852.55336.26139.55337-2.2654.55337.087129.27668-1.5683.27668-.8713.27668-1.3941.27668.34852.27668-1.3069.27668-.60991 1.6601-6.5347.55337-3.6594.55337-2.1782.55337-5.0535.55337-6.012.27668-.8713 1.3834-11.153.27668-1.3941.55337-3.5723.27668-.43565.27668-2.4396.55336-2.4396.27668-1.7426.27668-.60991.27668.34852.27668-.69704.27668-1.6555.27668-.78417.55337-2.1782.27668-.34852.27668.26139.27668-.26139.27668.69704.27668 2.2654.27668-.08713.27668.17426.27668-.34852.27668-.60991.27668.69704.27668-.08713.27668-.26139.27668-1.3941h.55337l.27668-2.8753 1.1067-17.339.83005-20.737.27668-12.198 1.1067-25.703.83005-20.388.55337-9.9328.27668-7.1446.27668-3.3109.27668-.60991.55337-4.0951.27668-.34852.27668.52278.27668 1.4812.27668.52278.27668 3.5723.55337 2.9624.55337 7.0575.55337 12.634.55337 7.0575.55337 11.065.55336 15.248 3.0435 59.248.55336 9.2358 1.3834 19.43.27668 3.0495.83005 5.5763 1.1067 9.41.27668 1.5683.27668 3.0495 1.1067 4.8793.27668 1.0456.27668.60991.27668 2.004.27668-.087129.27668.52278.55337 1.3941.27668.26139.27668.52278.55337-.34852.55337-1.0456.27668-1.3069.55337.087129.27668-1.1327.27668-1.6555.55337-1.1327.27668.17426.27668-2.004.27668-1.0456.27668-1.9169.27668-.34852.27668-2.6139.27668-1.0456.27668-.34852.83005-3.0495.27668-3.3109.55337-9.1486.27668-2.4396 1.1067-13.941.83005-5.9248.83005-2.6139.27668-1.3941.27668-3.0495.83005-5.1407.55337-3.7466.27668-.43565.27668-1.2198h.27668l.27668-1.2198.27668.78417.27668-1.7426.27668.34852.27668.78417.27668 1.2198.83005 1.7426.27668-.26139.27668 2.6139.83005 2.6139.27668.17426.27668 1.1327.27668-.43565.27668-1.2198 1.1067-14.464.83005-18.994.55337-13.069 1.6601-33.893 1.1067-10.368.27668 1.9169.27668.78417.27668.26139.27668 1.1327.55337 5.402.83005 20.388.27668 4.3565 1.1067 26.139.27668 2.9624.27668 6.7961.27668 3.6594.83005 18.036 1.1067 18.297.55336 9.0615.27668 3.5723.27668 1.2198.83005 10.456 1.1067 7.5803.27668 1.4812 1.1067 9.8457.27668 1.3941.55337 1.4812.27668 2.6139.27668 1.2198.55337 3.1367 2.2135 7.5803.27668-.17426.27668.69704.27668.26139.27668.52278.27668.08713.27668-.08713.27668-.43565.27668-.08713.27668.43565.27668-.60991.27668-.08713.27668-.26139.27668.17426.27668.43565h.27668l.55337-.8713.27668.43565.27668-.78417.27668-.08713.27668-1.0456.27668.17426.27668-.08713.27668-1.5683.27668-.69704.27668-1.3941.55337-1.0456.55337-1.6555.55337-4.2694.27668-.34852.83005-3.6594.27668-.52278.83005-3.1367.27668-.78417.27668-.087129.55337-2.2654.27668-.52278.27668-1.2198.27668-1.8297.55337-1.9169.27668-2.8753.83005-2.6139.27668-.34852.27668-1.0456.27668-.08713 1.9368-11.065.27668-.78417.27668-.17426.83005-4.9664.55336-6.3605.27668-4.008.83005-15.248.55337-10.107 1.6601-42.258.55336-9.9328.27668-7.406.55337-6.2733.55337-5.6634.83005-2.4396.27668 1.3941.27668 2.004.55336 8.2773.27668 8.1902.83005 16.293.27668 4.9664.83005 21.608 1.3834 25.442.55337 7.5803.55337 8.4516 2.2135 24.832.83005 5.4892 1.1067 6.709.55337 2.701.27668.69704 2.7668 12.721h.27668l.27668.43565.27668 1.4812.27668-.26139.27668.95843.27668.08713.27668 1.3941.55337.34852.55337.52278.27668.17426.83005-.52278.27668-.78417.27668-.26139.27668-.69704.55337.34852.27668-.17426.27668.26139.55337.08713.27668-.08713.27668.60991.27668-.34852.83005-3.8337.55337-1.2198.55337-1.6555.27668-1.2198.27668-.43565.83005-2.7882.27668-2.6139.55336-2.8753.27668-.95843.27668-1.3941.55337-1.6555.83005-4.0951.27668-1.5683.27668-.26139h.27668l.27668-.69704.27668-1.2198.27668-1.8297.27668-.95843.55337-2.7882.27668-2.004.27668-.69704.55337-2.701.27668.17426.55337-3.3981.27668-1.4812.55336-4.008h.27668l.55337-2.6139.27668-2.0911.27668-.60991.27668-2.0911.55337-11.763.55337-10.368.27668-6.2733 1.3834-42.345.55337-11.588.27668-8.6258.55337-6.6219.55337-5.8377.27668-2.7882.27668-.17426.55337-1.3069.27668 1.2198.27668 2.5268.83005 13.854.27668 3.5723 2.4901 52.539 1.3834 26.139 1.6601 21.173.55337 6.7961.27668 1.8297.83005 7.0575.27668 1.3941 1.1067 8.3645.27668 1.1327.83005 5.2278 1.1067 3.6594.27668 1.7426.83005 2.3525.55337.95843.27668 1.0456.27668.60991.27668 1.3941.27668.78417.27668.34852.27668.69704.27668-.26139.27668.17426.83005-1.0456m.55337 2.4396.27668 1.3941.27668-.08713.27668.26139.55337-1.5683.27668-.08713.27668-.52278.27668.17426.27668-.8713.27668.087129.55337-2.5268.27668-.78417h.27668l.27668-.8713.27668-2.0911.27668-.26139.27668-.95843.27668-1.4812.27668-.34852 1.1067-4.8793.55337-2.9624.27668-1.0456.27668.17426.27668-1.1327.27668-2.6139.83005-4.4436.27668-2.5268.27668-1.4812.27668-2.1782.55337-2.2654.55337-2.5268.27668-.34852.27668-.69704.27668-1.1327.27668.087129.55336-2.7882.27668.08713.55337-5.3149.55337-4.0951.55337.17426.27668-2.4396.27668-1.3069.27668-3.3981.27668-1.6555.27668-2.5268 1.3834-22.305.27668-5.7506.83005-23.961 1.6601-42.084 1.1067-15.858.27668-.52278.55337.78417.27668 1.8297.55336 5.8377.55337 12.547 1.1067 23.612.83005 21.957.27668 5.3149.27668 2.9624 2.7668 47.311 1.1067 9.2358 2.4901 18.907.27668.69704.83005 4.8793.27668.60991 1.1067 6.3605.83005 2.8753 1.3834 3.3109.83005 3.3981.55337.60991.27668-.43565.27668-.78417.27668-.34852.27668.52278.27668-.8713.27668.087129.27668.69704.27668-.52278.27668.43565.83005-1.4812.83005-2.5268.27668-.52278.55336-2.1782.27668-.69704.55337-2.7882.27668.26139.27668-1.5683.27668-.52278.83005-3.1367.27668-.52278.55337-2.004.27668-2.0911.27668-.43565 1.1067-5.1407.27668-.78417.27668-1.3941.27668-.78417.55337-2.7882.55336-2.004.55337-2.3525.55337-2.0911.27668-2.4396.27668-.34852.27668-1.2198.27668-2.701.83005-3.6594.27668-.43565.27668-.17426.27668-1.1327.55337-6.2733.83005-8.5387.83005-16.99 1.6601-33.196.27668-7.5803.27668-4.5307 1.1067-29.188.83005-16.119.27668-2.7882.27668-.34852.27668-5.1407.27668-2.1782.27668-.08713.55337 2.3525.27668 5.0535.55337 15.248.55337 11.414 1.6601 41.561.55337 11.588 1.1067 19.691 1.3834 21.521 1.3834 15.858.55337 5.2278 1.9368 12.111 2.2135 12.198.27668-.08713.55337 2.4396.55337 1.4812.27668.34852.27668 1.0456.27668-.17426 1.3834 2.7882.27668-.17426.27668.52278.83005-.17426.55337-.78417.55337-.34852.27668-1.2198.27668-.17426h.27668l.27668-.43565.27668.52278.27668.08713.27668-.52278.55337-2.4396.55337-2.7882 1.9368-7.4932h.27668l.55337-1.7426.27668-1.6555.27668-.43565.55337-3.8337.27668.087129.27668-.69704.27668-.34852.27668-1.3069.27668-.08713 1.1067-8.4516.27668-1.4812.27668-.8713.27668-.43565.55337-2.4396.27668-.34852.27668-.95843.27668-2.7882.83005-4.0951.55337-2.5268.27668-.08713.27668-.26139.55337-2.7882.27668-2.004 1.1067-13.244 1.3834-27.62.55337-17.426 2.2135-58.028.27668-5.3149.55337-5.4892.27668-3.8337.27668-.69704.27668-2.7882.27668 2.5268.27668-.17426.83005 9.4971.27668 1.6555.55337 9.1486 4.1502 88.262 1.9368 28.143.55337 5.3149.27668 4.0951 1.1067 8.9744.27668 1.4812.27668 3.7466.27668.60991.27668 2.4396.27668 1.3069.27668 2.0911.27668.78417.27668 2.0911.27668.69704.83005 3.3981.55336.78417.27668-.087129.55337.087129.27668-.26139.27668.17426.27668-.17426.27668-.43565.55337-1.3941.27668-.26139 1.1067-3.7466.27668-.087129.55337-2.7882.55337-3.6594.27668-1.2198.27668.43565.27668-.17426.83005-3.9208.27668.26139.27668-1.6555.27668-.34852.27668-1.2198.55337-8.9744 1.1067-9.8457.27668-1.3069.27668-2.5268.27668-3.7466.55337-2.7882.55337-4.1822.55337-3.8337.27668-3.1367.55337-2.0911.27668-.52278.27668-.8713.27668-.43565h.27668l.27668-.26139.27668.69704.27668.26139.27668.52278.55337-.08713.27668.08713.27668 1.3941.27668 2.1782.27668-.78417.27668 1.1327.27668 2.0911.27668-2.5268.27668.17426.27668-.52278.27668-1.7426.27668-3.3109.27668-1.4812.27668-.8713.27668-2.9624.27668-6.4476.27668-2.7882 1.1067-24.745.27668-10.978.55337-11.24 1.6601-42.084.83005-16.99.83005-6.9704.27668-.43565.27668-.78417 1.1067 9.1486.55336 8.9744.27668 3.8337.83005 17.165.27668 4.008.27668 7.5803.27668 3.4852 1.3834 31.367.83005 15.073 2.2135 40.69.55336 7.6674 1.3834 13.854 1.3834 10.107.55336 3.3109.27668 2.2654.27668 1.1327.83005 5.2278.27668.34852.27668.78417.27668 1.4812.27668.17426.27668-.17426.27668.08713.27668-.26139.27668.26139.55337-.95843.27668-.52278 1.1067-3.7466.27668-.60991.55337-2.3525.55336-2.1782.55337-2.6139.27668-.34852.27668.26139.27668-2.3525.27668-.08713.27668-1.4812.27668-2.3525.27668-3.3109.27668-.17426.83005-7.3189.55337-2.5268.27668-1.7426.83005-8.3645.27668-4.0951.27668-1.1327.55337-4.4436.27668-.60991.55336-5.2278.55337-2.9624.27668-1.3941.55337-3.7466.27668-.43565.27668.43565.55337-2.1782.27668-.08713.83005-1.7426.27668-1.1327.27668.8713.55337 3.1367.27668 2.4396.27668-.17426h.27668l.55337 4.008.27668-2.6139.27668.26139 1.3834-15.161.27668-3.7466.55337-10.891.83005-24.571 1.3834-29.624.83005-11.85.55337-3.3109.27668.60991.27668.087129.27668-.95843.27668-.17426.27668 3.2238.27668 4.8793.27668 9.3229.55337 11.588 1.9368 45.307.55337 10.02.83005 17.165 1.6601 26.662.83005 10.02.55337 4.8793.27668 2.8753.27668 1.6555.55337 4.2694 4.7036 24.658.27668.43565.27668 1.3941.55337 1.1327.27668.17426 1.3834 3.1367.27668-.26139.27668-.08713.27668-.34852.27668.26139.83005-.17426.55337-1.1327.55337-.69704.83005-.17426.27668-.52278.27668-.78417.27668-.34852.55337-2.6139.27668.087129.27668-.43565.27668-.8713.83005-4.4436.27668-1.3941 1.1067-2.9624.55337-3.4852.27668-1.5683.27668-.08713.55337-2.9624.27668-.52278.27668-2.4396.55336-2.4396 1.1067-4.7921.27668-.34852.27668-2.701.27668-.78417.27668-.26139.55337-5.2278.27668-.8713.27668-1.5683.55336-1.3069.27668-1.4812.27668-2.5268.55337-2.8753.27668-.43565.83005-7.8417 2.4901-54.456 1.3834-33.196 1.1067-13.854.55337-2.701.27668.78417.27668.43565.83005 10.456 2.4901 55.589 3.0435 49.315.27668 2.004 1.6601 17.252.55336 3.8337.83005 4.0951.83005 5.9248.27668.69704.55337 2.5268 1.1067 4.4436.27668 1.6555.83005 2.5268.27668.26139.55337 1.7426.27668.08713.55337 1.7426.27668.34852.83005 2.4396.55337.08713.55337-.78417.27668.17426.27668-.34852.27668-.78417.27668-.26139.27668-.52278.27668-.95843.27668.34852.55337-.60991.27668-1.8297.27668.17426.27668-.8713.27668.087129.27668-1.5683.27668-.69704.27668-.34852.27668-1.3069.27668-.52278.55337-2.5268.27668-2.3525.27668-1.0456.27668-1.4812.27668-.34852.27668-1.9169.27668-.69704.83005-4.3565.55336-1.8297.27668-.60991.27668-1.7426.27668.17426.27668-1.2198.27668-.69704h.27668l1.1067-7.2318.27668-.52278.27668-1.7426.83005-2.5268.27668-1.0456h.27668l.83005-6.012.27668-.34852 1.3834-8.1902 1.1067-12.285.83005-16.555.83005-22.131.83005-21.957.27668-3.3109.27668-6.012.27668-8.4516 1.3834-17.862.27668-.26139.27668-1.2198.27668-.34852.83005 7.5803.55337 12.808 1.1067 18.994 1.1067 23.264.27668 5.1407.55337 12.982.55337 10.107.83005 11.501.55337 11.24.83005 10.02 1.1067 9.4971 1.3834 12.111.27668.8713 1.1067 5.6634.55337 2.8753.27668 1.1327.55337 1.1327.55337 2.004.27668.69704.27668 1.9169.27668.69704.27668-.43565.55337.95843.27668.17426.27668.8713.27668 1.6555.27668-.17426.27668.26139.55337.69704.27668.17426h.27668l.55337.34852.55337-1.3941.27668.95843.27668-.17426.55337-1.2198.27668-.087129.55337-.8713.27668.69704.83005-1.3941.27668-2.004.27668-.8713.55337-.8713 2.2135-9.9328.27668-.95843.83005-5.5763.27668-.69704 1.1067-6.7961.27668-1.1327.27668-.43565.27668-.95843.55337-3.0495.55337-5.1407.27668-.69704 1.1067-7.0575.27668-2.9624.27668-.69704.55337-2.701.27668 1.2198.27668-.95843.27668-.26139.27668-.78417.27668.08713.27668-.52278.27668-1.3941.55337-9.5843 1.1067-17.774.55337-16.032.27668-10.281.27668-5.402 1.1067-29.363.83005-15.77.55337-6.709h.27668l.27668-.17426.27668-1.6555.55337 2.4396.27668 1.7426.27668 3.5723.83005 19.169 1.1067 25.268.83005 20.04 1.9368 33.806.27668 3.0495.27668 6.0991 1.6601 19.43 1.1067 8.0159 3.3202 18.472.27668.60991.27668 1.9169 1.3834 4.4436.27668 1.6555 1.1067 3.1367.27668 1.2198.27668-.26139.27668.34852.27668-.087129.27668-.26139.27668-.8713.27668 1.0456.27668-.78417.55337-.52278.27668-.95843.27668-.17426h.27668l.27668-.26139.27668-.78417.27668-2.004.27668-.34852h.27668l.27668-.26139.27668-1.0456.27668-1.6555.27668-.43565.27668-1.0456h.27668l.27668-.8713.83005 3.8337.27668-.34852.27668 1.3069.27668-.17426.27668-2.2654.27668.8713.55337-.95843.55336.43565.27668-1.9169.27668.34852.27668.8713.27668.17426.27668-.08713.27668-1.0456.27668.17426m1.1067-2.7882.27668-1.6555.27668-3.3109.27668-1.7426 1.9368-17.862 1.1067-5.1407 1.1067-12.372 1.3834-25.616 1.3834-41.299 1.1067-29.798.55337-9.6714.55337-7.3189.27668-1.5683.27668 1.1327h.27668l.27668.43565.55337 2.7882.55337 12.895.27668 6.5347.27668 1.9169.27668 7.5803.27668 2.6139.27668 5.0535.83005 19.517 2.4901 45.22 1.9368 24.832 2.2135 19.081.27668.60991 1.3834 7.9288 1.3834 5.402.27668.52278.55336 2.7882.55337 2.5268.83005 1.6555.55337 1.4812.55337.08713.27668-.34852.27668.52278.27668-1.0456.27668-.08713.27668.17426.27668-.087129.27668-.95843.27668.34852.55337-1.3941.27668-.60991.27668-1.0456.83005-1.7426.55337-2.004.27668-1.3941.27668-2.0911.27668-.17426.55337-1.6555.55337-2.701.27668.087129.55336-2.701.83005-1.7426.83005-4.705.55337-1.4812.55337-2.7882 1.3834-7.7545.55337-1.2198.27668-.087129.27668-1.8297.27668-.08713.27668-2.2654.27668-.08713 1.1067-4.5307.55337-2.3525h.27668l.27668-.60991.27668-1.3941.27668-3.0495.83005-3.1367.27668-4.5307.27668-2.3525 1.1067-22.131v0" clip-path="url(#c)" fill="none" stroke="#28f" stroke-linecap="square" stroke-width="1.5"/>
   </g>
   <g id="cy">
    <path d="m52 259.78v-232.9" fill="none" stroke="#000" stroke-linecap="square" stroke-width=".8"/>
   </g>
   <g id="cz">
    <path d="m853.2 259.78v-232.9" fill="none" stroke="#000" stroke-linecap="square" stroke-width=".8"/>
   </g>
   <g id="da">
    <path d="m52 259.78h801.2" fill="none" stroke="#000" stroke-linecap="square" stroke-width=".8"/>
   </g>
   <g id="db">
    <path d="m52 26.88h801.2" fill="none" stroke="#000" stroke-linecap="square" stroke-width=".8"/>
   </g>
   <g id="dc">
    <!-- 同時接続数の推移 -->
    <g transform="translate(404.6 20.88) scale(.12 -.12)">
     <defs>
      <path id="x" transform="scale(.015625)" d="m1587 3936h3232v-518h-3232v518zm320-1114h557v-2534h-557v2534zm301 0h2291v-2086h-2291v512h1734v1069h-1734v505zm-1683 2260h5113v-570h-4524v-5056h-589v5626zm4768 0h595v-4896q0-250-67-397t-227-218q-160-77-426-96t-675-19q-13 83-45 192t-77 218q-45 108-89 185 281-13 527-13 247 0 330 0 83 7 118 42 36 35 36 112v4890z"/>
      <path id="v" transform="scale(.015625)" d="m2714 4672h3238v-525h-3238v525zm-244-1235h3712v-538h-3712v538zm20-1184h3635v-531h-3635v531zm1523 3155h595v-2310h-595v2310zm832-2451h589v-2823q0-230-61-364-61-135-227-199-167-70-423-86t-633-16q-20 121-78 285-57 163-121 284 275-6 509-9t310-3q77 6 106 28 29 23 29 93v2810zm-2023-1677 487 282q153-160 313-352t294-381q135-189 206-343l-519-313q-64 153-189 348-124 196-278 394-154 199-314 365zm-2086 3718h1619v-4281h-1619v544h1056v3187h-1056v550zm32-1843h1293v-537h-1293v537zm-320 1843h563v-4832h-563v4832z"/>
      <path id="w" transform="scale(.015625)" d="m3866 5408h614v-870h-614v870zm-1479-653h3597v-518h-3597v518zm-230-1485h4e3v-518h-4e3v518zm825 922 519 102q64-160 121-342 58-182 96-352 39-170 45-304l-544-128q-6 134-42 313-35 180-83 365-48 186-112 346zm1856 109 589-71q-96-275-202-557-105-281-195-486l-518 77q58 147 122 329 64 183 118 372t86 336zm-2643-2106h3943v-518h-3943v518zm1408 685 602-115q-167-371-362-784t-390-797-362-685l-525 179q160 288 346 666t368 784 323 752zm-659-2157 358 403q352-102 733-240 381-137 752-304 371-166 697-336 327-169 558-329l-384-461q-218 160-532 336-313 176-685 345-371 170-755 323-384 154-742 263zm1894 1114 583-71q-122-550-353-944-230-393-604-662t-922-435q-547-167-1296-269-25 128-93 269-67 141-137 230 678 64 1168 192t819 349q330 221 531 550 202 330 304 791zm-4684 217q396 90 953 240 557 151 1120 311l77-544q-525-154-1053-311-528-156-963-284l-134 588zm121 2093h1965v-563h-1965v563zm819 1248h576v-5229q0-236-51-374t-192-208q-141-77-355-99-214-23-541-16-13 115-64 288t-109 294q205-6 381-6t234 0q64 0 92 28 29 29 29 93v5229z"/>
      <path id="u" transform="scale(.015625)" d="m4058 5408h595v-1798h-595v1798zm-1415-563h3443v-499h-3443v499zm231-992h3008v-499h-3008v499zm-224-877h3475v-1203h-531v729h-2432v-729h-512v1203zm1964-877h551v-1881q0-122 22-157 23-35 106-35 25 0 92 0 68 0 135 0t99 0q51 0 83 54t45 224 19 515q90-70 234-131t259-93q-19-429-83-662-64-234-183-326-118-93-316-93-39 0-103 0t-134 0-138 0q-67 0-99 0-237 0-365 64t-176 218q-48 153-48 422v1881zm-1164-6h550v-455q0-243-48-528-48-284-186-579-137-294-409-572-272-279-727-503-70 90-192 208-121 118-230 195 416 205 665 438 250 234 371 474 122 240 164 467 42 228 42 413v442zm-2240 3309 524-192q-121-244-259-503-137-259-275-496t-259-416l-410 173q122 186 246 438 125 253 240 515 116 263 193 481zm716-743 500-230q-224-359-496-756-272-396-548-764-275-368-518-650l-358 205q179 211 377 483 199 272 387 569 189 298 358 592 170 295 298 551zm-1721-665 307 403q166-154 339-340 173-185 320-364t224-327l-326-460q-77 160-218 348-141 189-314 384-172 196-332 356zm1485-832 435 179q128-211 249-458 122-246 215-474 93-227 137-412l-473-211q-32 185-119 422-86 237-201 486-115 250-243 468zm-1530-583q422 26 998 54 576 29 1184 68l7-499q-570-45-1127-84-556-38-992-70l-70 531zm1702-992 436 135q121-276 214-596t118-556l-454-148q-26 237-112 563-86 327-202 602zm-1363 109 499-83q-57-455-163-897-105-441-253-748-51 32-134 73-83 42-170 83-86 42-144 62 148 294 234 697t131 813zm691 627h525v-2861h-525v2861z"/>
      <path id="q" transform="scale(.015625)" d="m224 2022h3187v-499h-3187v499zm51 2247h3111v-487h-3111v487zm1127-1735 563-121q-154-320-333-672t-352-679q-173-326-326-582l-532 173q148 243 324 566t345 669q170 346 311 646zm934-832 563-64q-89-480-262-838t-461-614-701-432-976-298q-25 128-99 269t-157 237q659 102 1085 303 426 202 666 554t342 883zm422 3597 519-211q-147-218-298-436-150-217-278-377l-403 186q121 173 252 413 132 240 208 425zm-1203 109h563v-2957h-563v2957zm-1075-320 448 186q134-192 246-420 112-227 157-393l-467-211q-38 172-147 406t-237 432zm1094-1050 397-236q-160-263-400-529-240-265-519-489-278-224-553-378-51 103-141 237-89 135-179 218 269 109 534 294 266 186 493 416 228 231 368 467zm487-204q83-45 246-145 163-99 352-211t346-211 221-150l-327-423q-83 77-230 198-147 122-317 253-170 132-327 250-156 119-259 189l295 250zm1798 396h2311v-556h-2311v556zm115 1178 615-90q-103-640-263-1235t-384-1101q-224-505-512-889-44 57-134 134t-186 157-166 125q275 339 473 796 199 458 340 995 141 538 217 1108zm1223-1510 614-58q-147-1101-445-1940-297-838-813-1443-515-604-1321-1014-26 71-90 177-64 105-134 208-70 102-128 159 742 346 1212 880 471 535 730 1290 260 755 375 1741zm-1005-135q134-851 387-1597 253-745 659-1305 407-560 1002-874-70-57-154-150-83-93-154-189-70-96-121-179-633 371-1056 988-422 618-688 1434-265 816-425 1783l550 89zm-3309-3065 327 416q377-148 754-330 378-182 701-378 324-195 548-368l-416-435q-211 179-519 378-307 198-666 383-358 186-729 334z"/>
      <path id="t" transform="scale(.015625)" d="m3686 4378q-64-493-163-1041-99-547-265-1084-192-653-432-1104t-522-688-595-237q-320 0-596 221-275 221-448 621-172 400-172 931 0 537 220 1017 221 480 611 851 391 372 909 583 519 211 1121 211 576 0 1040-186 464-185 793-515 330-329 502-771 173-441 173-941 0-672-278-1194-278-521-816-851-538-329-1318-444l-378 601q166 20 307 42t263 48q307 70 585 217 279 148 496 375 218 227 342 534 125 308 125 692t-122 713q-121 330-358 573-236 243-582 380-346 138-781 138-525 0-935-186-409-185-694-489-284-304-432-656-147-352-147-678 0-365 89-605 90-240 224-355 135-115 276-115t288 144 297 457q151 314 298 800 147 461 246 982 100 522 145 1021l684-12z"/>
      <path id="r" transform="scale(.015625)" d="m2995 2925h2893v-519h-2893v519zm0-1280h2893v-519h-2893v519zm-64-1299h3232v-557h-3232v557zm1312 3577h563v-3763h-563v3763zm429 1466 634-141q-154-390-340-794-185-403-339-684l-512 140q103 199 208 458 106 259 195 528 90 269 154 493zm-1472 25 582-147q-153-518-371-1018-217-499-483-931t-573-758q-38 64-109 160-70 96-147 198-77 103-141 160 416 416 733 1034t509 1302zm128-1203h2720v-537h-2720v-4205h-582v4422l313 320h269zm-3174-2157q396 90 953 240 557 151 1120 311l77-544q-525-154-1053-311-528-156-963-284l-134 588zm121 2093h1965v-563h-1965v563zm819 1248h576v-5229q0-236-51-374t-192-208q-141-77-355-99-214-23-541-16-13 115-64 288t-109 294q205-6 381-6t234 0q64 0 92 28 29 29 29 93v5229z"/>
      <path id="p" transform="scale(.015625)" d="m4051 5402 595-109q-281-493-729-941t-1107-806q-39 64-106 144t-141 153q-73 74-137 119 608 288 1011 678t614 762zm-77-557h1511v-493h-1863l352 493zm1293 0h109l109 25 384-179q-192-505-496-905t-695-701q-390-301-845-519-454-217-947-358-44 109-137 253t-176 227q448 109 867 294 419 186 777 445 359 259 631 592t419 730v96zm-1990-954 377 307q167-96 336-218 170-121 320-249 151-128 247-237l-397-332q-90 108-237 236t-317 259q-169 132-329 234zm1107-934 595-109q-307-538-803-1031-496-492-1232-876-38 64-102 144t-138 156q-74 77-138 116 455 217 807 483t604 554q253 288 407 563zm-90-589h1460v-506h-1818l358 506zm1268 0h121l109 26 384-167q-192-614-531-1075t-787-794q-448-332-983-553-534-221-1129-355-45 115-132 269-86 153-176 249 551 96 1043 285 493 189 903 473 410 285 714 669t464 883v90zm-2132-1056 410 339q186-102 384-237 198-134 371-275t282-269l-435-371q-103 128-270 272-166 144-361 288t-381 253zm-2150 3533h589v-5376h-589v5376zm-992-1242h2336v-569h-2336v569zm1024-224 365-160q-96-339-231-707-134-368-291-727-157-358-336-672-179-313-365-537-44 128-134 291t-160 272q173 192 339 457 167 266 323 570 157 304 282 618t208 595zm941 1946 416-467q-314-122-695-221-380-99-784-173-403-74-780-131-20 102-71 236-51 135-102 231 358 58 732 138 375 80 711 179t573 208zm-397-2579q58-45 179-170 122-125 266-266 144-140 259-265t160-183l-352-473q-58 102-157 255-99 154-218 317-118 164-227 311-108 147-185 237l275 237z"/>
     </defs>
     <use xlink:href="#x"/>
     <use transform="translate(100)" xlink:href="#v"/>
     <use transform="translate(200)" xlink:href="#w"/>
     <use transform="translate(300)" xlink:href="#u"/>
     <use transform="translate(400)" xlink:href="#q"/>
     <use transform="translate(500)" xlink:href="#t"/>
     <use transform="translate(600)" xlink:href="#r"/>
     <use transform="translate(700)" xlink:href="#p"/>
    </g>
   </g>
  </g>
  <g id="dd">
   <g id="de">
    <path d="m52 523.06h801.2v-232.9h-801.2z" fill="#fff"/>
   </g>
   <g id="df">
    <path d="m134.62 523.06h.83005v-232.9h-.83005z" clip-path="url(#d)" fill="#808080" opacity=".3" stroke="#808080"/>
   </g>
   <g id="dg">
    <path d="m440.22 523.06h.55337v-232.9h-.55337z" clip-path="url(#d)" fill="#808080" opacity=".3" stroke="#808080"/>
   </g>
   <g id="dh">
    <path d="m769.47 523.06h1.1067v-232.9h-1.1067z" clip-path="url(#d)" fill="#808080" opacity=".3" stroke="#808080"/>
   </g>
   <g id="di">
    <g id="dj">
     <g id="dk">
      <path d="m105.15 523.06v-232.9" clip-path="url(#d)" fill="none" stroke="#b0b0b0" stroke-linecap="square" stroke-opacity=".3" stroke-width=".8"/>
     </g>
     <g id="dl">
      <use x="105.153348" y="523.055464" stroke="#000000" stroke-width=".8" xlink:href="#e"/>
     </g>
     <g id="dm">
      <!-- 2025-07-01 -->
      <g transform="translate(58.364 563.33) rotate(-30) scale(.1 -.1)">
       <defs>
        <path id="f" transform="scale(.015625)" d="m301 1536v544h1689v-544h-1689z"/>
       </defs>
       <use xlink:href="#b"/>
       <use transform="translate(57)" xlink:href="#a"/>
       <use transform="translate(114)" xlink:href="#b"/>
       <use transform="translate(171)" xlink:href="#j"/>
       <use transform="translate(228)" xlink:href="#f"/>
       <use transform="translate(263.7)" xlink:href="#a"/>
       <use transform="translate(320.7)" xlink:href="#i"/>
       <use transform="translate(377.7)" xlink:href="#f"/>
       <use transform="translate(413.4)" xlink:href="#a"/>
       <use transform="translate(470.4)" xlink:href="#g"/>
      </g>
     </g>
    </g>
    <g id="dn">
     <g id="do">
      <path d="m184.84 523.06v-232.9" clip-path="url(#d)" fill="none" stroke="#b0b0b0" stroke-linecap="square" stroke-opacity=".3" stroke-width=".8"/>
     </g>
     <g id="dp">
      <use x="184.838029" y="523.055464" stroke="#000000" stroke-width=".8" xlink:href="#e"/>
     </g>
     <g id="dq">
      <!-- 2025-07-03 -->
      <g transform="translate(138.05 563.33) rotate(-30) scale(.1 -.1)">
       <use xlink:href="#b"/>
       <use transform="translate(57)" xlink:href="#a"/>
       <use transform="translate(114)" xlink:href="#b"/>
       <use transform="translate(171)" xlink:href="#j"/>
       <use transform="translate(228)" xlink:href="#f"/>
       <use transform="translate(263.7)" xlink:href="#a"/>
       <use transform="translate(320.7)" xlink:href="#i"/>
       <use transform="translate(377.7)" xlink:href="#f"/>
       <use transform="translate(413.4)" xlink:href="#a"/>
       <use transform="translate(470.4)" xlink:href="#o"/>
      </g>
     </g>
    </g>
    <g id="dr">
     <g id="ds">
      <path d="m264.52 523.06v-232.9" clip-path="url(#d)" fill="none" stroke="#b0b0b0" stroke-linecap="square" stroke-opacity=".3" stroke-width=".8"/>
     </g>
     <g id="dt">
      <use x="264.52271" y="523.055464" stroke="#000000" stroke-width=".8" xlink:href="#e"/>
     </g>
     <g id="du">
      <!-- 2025-07-05 -->
      <g transform="translate(217.73 563.33) rotate(-30) scale(.1 -.1)">
       <use xlink:href="#b"/>
       <use transform="translate(57)" xlink:href="#a"/>
       <use transform="translate(114)" xlink:href="#b"/>
       <use transform="translate(171)" xlink:href="#j"/>
       <use transform="translate(228)" xlink:href="#f"/>
       <use transform="translate(263.7)" xlink:href="#a"/>
       <use transform="translate(320.7)" xlink:href="#i"/>
       <use transform="translate(377.7)" xlink:href="#f"/>
       <use transform="translate(413.4)" xlink:href="#a"/>
       <use transform="translate(470.4)" xlink:href="#j"/>
      </g>
     </g>
    </g>
    <g id="dv">
     <g id="dw">
      <path d="m344.21 523.06v-232.9" clip-path="url(#d)" fill="none" stroke="#b0b0b0" stroke-linecap="square" stroke-opacity=".3" stroke-width=".8"/>
     </g>
     <g id="dx">
      <use x="344.207391" y="523.055464" stroke="#000000" stroke-width=".8" xlink:href="#e"/>
     </g>
     <g id="dy">
      <!-- 2025-07-07 -->
      <g transform="translate(297.42 563.33) rotate(-30) scale(.1 -.1)">
       <use xlink:href="#b"/>
       <use transform="translate(57)" xlink:href="#a"/>
       <use transform="translate(114)" xlink:href="#b"/>
       <use transform="translate(171)" xlink:href="#j"/>
       <use transform="translate(228)" xlink:href="#f"/>
       <use transform="translate(263.7)" xlink:href="#a"/>
       <use transform="translate(320.7)" xlink:href="#i"/>
       <use transform="translate(377.7)" xlink:href="#f"/>
       <use transform="translate(413.4)" xlink:href="#a"/>
       <use transform="translate(470.4)" xlink:href="#i"/>
      </g>
     </g>
    </g>
    <g id="dz">
     <g id="ea">
      <path d="m423.89 523.06v-232.9" clip-path="url(#d)" fill="none" stroke="#b0b0b0" stroke-linecap="square" stroke-opacity=".3" stroke-width=".8"/>
     </g>
     <g id="eb">
      <use x="423.892072" y="523.055464" stroke="#000000" stroke-width=".8" xlink:href="#e"/>
     </g>
     <g id="ec">
      <!-- 2025-07-09 -->
      <g transform="translate(377.1 563.33) rotate(-30) scale(.1 -.1)">
       <use xlink:href="#b"/>
       <use transform="translate(57)" xlink:href="#a"/>
       <use transform="translate(114)" xlink:href="#b"/>
       <use transform="translate(171)" xlink:href="#j"/>
       <use transform="translate(228)" xlink:href="#f"/>
       <use transform="translate(263.7)" xlink:href="#a"/>
       <use transform="translate(320.7)" xlink:href="#i"/>
       <use transform="translate(377.7)" xlink:href="#f"/>
       <use transform="translate(413.4)" xlink:href="#a"/>
       <use transform="translate(470.4)" xlink:href="#l"/>
      </g>
     </g>
    </g>
    <g id="ed">
     <g id="ee">
      <path d="m503.58 523.06v-232.9" clip-path="url(#d)" fill="none" stroke="#b0b0b0" stroke-linecap="square" stroke-opacity=".3" stroke-width=".8"/>
     </g>
     <g id="ef">
      <use x="503.576753" y="523.055464" stroke="#000000" stroke-width=".8" xlink:href="#e"/>
     </g>
     <g id="eg">
      <!-- 2025-07-11 -->
      <g transform="translate(456.79 563.33) rotate(-30) scale(.1 -.1)">
       <use xlink:href="#b"/>
       <use transform="translate(57)" xlink:href="#a"/>
       <use transform="translate(114)" xlink:href="#b"/>
       <use transform="translate(171)" xlink:href="#j"/>
       <use transform="translate(228)" xlink:href="#f"/>
       <use transform="translate(263.7)" xlink:href="#a"/>
       <use transform="translate(320.7)" xlink:href="#i"/>
       <use transform="translate(377.7)" xlink:href="#f"/>
       <use transform="translate(413.4)" xlink:href="#g"/>
       <use transform="translate(470.4)" xlink:href="#g"/>
      </g>
     </g>
    </g>
    <g id="eh">
     <g id="ei">
      <path d="m583.26 523.06v-232.9" clip-path="url(#d)" fill="none" stroke="#b0b0b0" stroke-linecap="square" stroke-opacity=".3" stroke-width=".8"/>
     </g>
     <g id="ej">
      <use x="583.261434" y="523.055464" stroke="#000000" stroke-width=".8" xlink:href="#e"/>
     </g>
     <g id="ek">
      <!-- 2025-07-13 -->
      <g transform="translate(536.47 563.33) rotate(-30) scale(.1 -.1)">
       <use xlink:href="#b"/>
       <use transform="translate(57)" xlink:href="#a"/>
       <use transform="translate(114)" xlink:href="#b"/>
       <use transform="translate(171)" xlink:href="#j"/>
       <use transform="translate(228)" xlink:href="#f"/>
       <use transform="translate(263.7)" xlink:href="#a"/>
       <use transform="translate(320.7)" xlink:href="#i"/>
       <use transform="translate(377.7)" xlink:href="#f"/>
       <use transform="translate(413.4)" xlink:href="#g"/>
       <use transform="translate(470.4)" xlink:href="#o"/>
      </g>
     </g>
    </g>
    <g id="el">
     <g id="em">
      <path d="m662.95 523.06v-232.9" clip-path="url(#d)" fill="none" stroke="#b0b0b0" stroke-linecap="square" stroke-opacity=".3" stroke-width=".8"/>
     </g>
     <g id="en">
      <use x="662.946115" y="523.055464" stroke="#000000" stroke-width=".8" xlink:href="#e"/>
     </g>
     <g id="eo">
      <!-- 2025-07-15 -->
      <g transform="translate(616.16 563.33) rotate(-30) scale(.1 -.1)">
       <use xlink:href="#b"/>
       <use transform="translate(57)" xlink:href="#a"/>
       <use transform="translate(114)" xlink:href="#b"/>
       <use transform="translate(171)" xlink:href="#j"/>
       <use transform="translate(228)" xlink:href="#f"/>
       <use transform="translate(263.7)" xlink:href="#a"/>
       <use transform="translate(320.7)" xlink:href="#i"/>
       <use transform="translate(377.7)" xlink:href="#f"/>
       <use transform="translate(413.4)" xlink:href="#g"/>
       <use transform="translate(470.4)" xlink:href="#j"/>
      </g>
     </g>
    </g>
    <g id="ep">
     <g id="eq">
      <path d="m742.63 523.06v-232.9" clip-path="url(#d)" fill="none" stroke="#b0b0b0" stroke-linecap="square" stroke-opacity=".3" stroke-width=".8"/>
     </g>
     <g id="er">
      <use x="742.630796" y="523.055464" stroke="#000000" stroke-width=".8" xlink:href="#e"/>
     </g>
     <g id="es">
      <!-- 2025-07-17 -->
      <g transform="translate(695.84 563.33) rotate(-30) scale(.1 -.1)">
       <use xlink:href="#b"/>
       <use transform="translate(57)" xlink:href="#a"/>
       <use transform="translate(114)" xlink:href="#b"/>
       <use transform="translate(171)" xlink:href="#j"/>
       <use transform="translate(228)" xlink:href="#f"/>
       <use transform="translate(263.7)" xlink:href="#a"/>
       <use transform="translate(320.7)" xlink:href="#i"/>
       <use transform="translate(377.7)" xlink:href="#f"/>
       <use transform="translate(413.4)" xlink:href="#g"/>
       <use transform="translate(470.4)" xlink:href="#i"/>
      </g>
     </g>
    </g>
    <g id="et">
     <g id="eu">
      <path d="m822.32 523.06v-232.9" clip-path="url(#d)" fill="none" stroke="#b0b0b0" stroke-linecap="square" stroke-opacity=".3" stroke-width=".8"/>
     </g>
     <g id="ev">
      <use x="822.315477" y="523.055464" stroke="#000000" stroke-width=".8" xlink:href="#e"/>
     </g>
     <g id="ew">
      <!-- 2025-07-19 -->
      <g transform="translate(775.53 563.33) rotate(-30) scale(.1 -.1)">
       <use xlink:href="#b"/>
       <use transform="translate(57)" xlink:href="#a"/>
       <use transform="translate(114)" xlink:href="#b"/>
       <use transform="translate(171)" xlink:href="#j"/>
       <use transform="translate(228)" xlink:href="#f"/>
       <use transform="translate(263.7)" xlink:href="#a"/>
       <use transform="translate(320.7)" xlink:href="#i"/>
       <use transform="translate(377.7)" xlink:href="#f"/>
       <use transform="translate(413.4)" xlink:href="#g"/>
       <use transform="translate(470.4)" xlink:href="#l"/>
      </g>
     </g>
    </g>
   </g>
   <g id="ex">
    <g id="ey">
     <g id="ez">
      <path d="m52 505.89h801.2" clip-path="url(#d)" fill="none" stroke="#b0b0b0" stroke-linecap="square" stroke-opacity=".3" stroke-width=".8"/>
     </g>
     <g id="fa">
      <use x="52" y="505.891736" stroke="#000000" stroke-width=".8" xlink:href="#h"/>
     </g>
     <g id="fb">
      <!-- 104800 -->
      <g transform="translate(10.8 509.88) scale(.1 -.1)">
       <use xlink:href="#g"/>
       <use transform="translate(57)" xlink:href="#a"/>
       <use transform="translate(114)" xlink:href="#n"/>
       <use transform="translate(171)" xlink:href="#m"/>
       <use transform="translate(228)" xlink:href="#a"/>
       <use transform="translate(285)" xlink:href="#a"/>
      </g>
     </g>
    </g>
    <g id="fc">
     <g id="fd">
      <path d="m52 478.2h801.2" clip-path="url(#d)" fill="none" stroke="#b0b0b0" stroke-linecap="square" stroke-opacity=".3" stroke-width=".8"/>
     </g>
     <g id="fe">
      <use x="52" y="478.197137" stroke="#000000" stroke-width=".8" xlink:href="#h"/>
     </g>
     <g id="ff">
      <!-- 105200 -->
      <g transform="translate(10.8 482.18) scale(.1 -.1)">
       <use xlink:href="#g"/>
       <use transform="translate(57)" xlink:href="#a"/>
       <use transform="translate(114)" xlink:href="#j"/>
       <use transform="translate(171)" xlink:href="#b"/>
       <use transform="translate(228)" xlink:href="#a"/>
       <use transform="translate(285)" xlink:href="#a"/>
      </g>
     </g>
    </g>
    <g id="fg">
     <g id="fh">
      <path d="m52 450.5h801.2" clip-path="url(#d)" fill="none" stroke="#b0b0b0" stroke-linecap="square" stroke-opacity=".3" stroke-width=".8"/>
     </g>
     <g id="fi">
      <use x="52" y="450.502538" stroke="#000000" stroke-width=".8" xlink:href="#h"/>
     </g>
     <g id="fj">
      <!-- 105600 -->
      <g transform="translate(10.8 454.49) scale(.1 -.1)">
       <use xlink:href="#g"/>
       <use transform="translate(57)" xlink:href="#a"/>
       <use transform="translate(114)" xlink:href="#j"/>
       <use transform="translate(171)" xlink:href="#k"/>
       <use transform="translate(228)" xlink:href="#a"/>
       <use transform="translate(285)" xlink:href="#a"/>
      </g>
     </g>
    </g>
    <g id="fk">
     <g id="fl">
      <path d="m52 422.81h801.2" clip-path="url(#d)" fill="none" stroke="#b0b0b0" stroke-linecap="square" stroke-opacity=".3" stroke-width=".8"/>
     </g>
     <g id="fm">
      <use x="52" y="422.807938" stroke="#000000" stroke-width=".8" xlink:href="#h"/>
     </g>
     <g id="fn">
      <!-- 106000 -->
      <g transform="translate(10.8 426.79) scale(.1 -.1)">
       <use xlink:href="#g"/>
       <use transform="translate(57)" xlink:href="#a"/>
       <use transform="translate(114)" xlink:href="#k"/>
       <use transform="translate(171)" xlink:href="#a"/>
       <use transform="translate(228)" xlink:href="#a"/>
       <use transform="translate(285)" xlink:href="#a"/>
      </g>
     </g>
    </g>
    <g id="fo">
     <g id="fp">
      <path d="m52 395.11h801.2" clip-path="url(#d)" fill="none" stroke="#b0b0b0" stroke-linecap="square" stroke-opacity=".3" stroke-width=".8"/>
     </g>
     <g id="fq">
      <use x="52" y="395.113339" stroke="#000000" stroke-width=".8" xlink:href="#h"/>
     </g>
     <g id="fr">
      <!-- 106400 -->
      <g transform="translate(10.8 399.1) scale(.1 -.1)">
       <use xlink:href="#g"/>
       <use transform="translate(57)" xlink:href="#a"/>
       <use transform="translate(114)" xlink:href="#k"/>
       <use transform="translate(171)" xlink:href="#n"/>
       <use transform="translate(228)" xlink:href="#a"/>
       <use transform="translate(285)" xlink:href="#a"/>
      </g>
     </g>
    </g>
    <g id="fs">
     <g id="ft">
      <path d="m52 367.42h801.2" clip-path="url(#d)" fill="none" stroke="#b0b0b0" stroke-linecap="square" stroke-opacity=".3" stroke-width=".8"/>
     </g>
     <g id="fu">
      <use x="52" y="367.41874" stroke="#000000" stroke-width=".8" xlink:href="#h"/>
     </g>
     <g id="fv">
      <!-- 106800 -->
      <g transform="translate(10.8 371.4) scale(.1 -.1)">
       <use xlink:href="#g"/>
       <use transform="translate(57)" xlink:href="#a"/>
       <use transform="translate(114)" xlink:href="#k"/>
       <use transform="translate(171)" xlink:href="#m"/>
       <use transform="translate(228)" xlink:href="#a"/>
       <use transform="translate(285)" xlink:href="#a"/>
      </g>
     </g>
    </g>
    <g id="fw">
     <g id="fx">
      <path d="m52 339.72h801.2" clip-path="url(#d)" fill="none" stroke="#b0b0b0" stroke-linecap="square" stroke-opacity=".3" stroke-width=".8"/>
     </g>
     <g id="fy">
      <use x="52" y="339.724141" stroke="#000000" stroke-width=".8" xlink:href="#h"/>
     </g>
     <g id="fz">
      <!-- 107200 -->
      <g transform="translate(10.8 343.71) scale(.1 -.1)">
       <use xlink:href="#g"/>
       <use transform="translate(57)" xlink:href="#a"/>
       <use transform="translate(114)" xlink:href="#i"/>
       <use transform="translate(171)" xlink:href="#b"/>
       <use transform="translate(228)" xlink:href="#a"/>
       <use transform="translate(285)" xlink:href="#a"/>
      </g>
     </g>
    </g>
    <g id="ga">
     <g id="gb">
      <path d="m52 312.03h801.2" clip-path="url(#d)" fill="none" stroke="#b0b0b0" stroke-linecap="square" stroke-opacity=".3" stroke-width=".8"/>
     </g>
     <g id="gc">
      <use x="52" y="312.029542" stroke="#000000" stroke-width=".8" xlink:href="#h"/>
     </g>
     <g id="gd">
      <!-- 107600 -->
      <g transform="translate(10.8 316.01) scale(.1 -.1)">
       <use xlink:href="#g"/>
       <use transform="translate(57)" xlink:href="#a"/>
       <use transform="translate(114)" xlink:href="#i"/>
       <use transform="translate(171)" xlink:href="#k"/>
       <use transform="translate(228)" xlink:href="#a"/>
       <use transform="translate(285)" xlink:href="#a"/>
      </g>
     </g>
    </g>
   </g>
   <g id="ge">
    <path d="m88.418 512.47h.14849l.8259-.27695 1.2446-.48466.43024-.27695 1.2202-.20771.83005.13847.41502-.20771.41502-.34618h.41502l.83005-.90007.83005-.13847.83005-.62313 1.2451.13847.41502-.069236.41502-.27695.41502-.41542.41502-.69236.83005-.62313h.41502l.83005-.62313.41502-.41542 1.2451-2.4925 1.2451-.96931.41502-.20771.41502.069236.41502-.34618h1.2451l.41502-.27695h.41502l.83005-.55389 2.0751-.41542.41502.13847.41502-.069237.41502.069237 2.0751-.27695 1.6601-.069237 1.2451-.13847 5.3953-.069236.83005-.069237h.41502l.41502-.13847h.83005l.41502-.27695 1.2451-.34618.83005-.20771.83005-.27695h.41502l.83005-.41542 1.2451-.27695 2.0751-.7616.83005-.34618.83005-.20771m.83005-.41542.41502-.27695.41502-.62313.41502-.34618 1.2451-.27695.83005-.27695.83005-.55389.41502-.90008.41502-.27695.83005-1.454h.41502l.83005-.96931.41502-.20771.41502-.48466 1.6601-1.1078.41502.069237 1.2451-.83084.41502-.13847.83005-.069237 1.2451-.20771.41502.13847h.41502l.83005-.48466.83005-.13847.41502.069237.41502-.13847.41502.069236 2.0751-.27695.83005.069237.83005-.069237.83005.069237h2.4901l.83005-.20771.83005.20771.41502.069236 1.2451-.34618h.41502l.41502-.13847h.41502l.41502-.27695.83005-.20771.41502-.34618 1.6601.069236.41502.069237.41502-.069237.41502-.20771 1.2451-.13847.41502.13847 1.2451-.13847h.41502l1.2451-.7616.41502-.069236.41502-.27695.41502.069236.83005-.13847.41502.069237.41502-.27695.41502-.13847h.83005l.41502-.48466.83005-.48466.41502-.48466 1.2451-.48466.83005-.48466.41502-.69236.41502-.069236.41502-.27695.41502-.7616 1.2451-1.177.41502-.13847.41502.20771.41502-.13847.41502-.34618 1.6601-.48466.41502-.069236.41502.069236.41502-.20771.83005.069236h2.0751l.41502-.13847.83005.13847 1.2451-.13847 2.9052-.069236.41502.20771h.41502l1.7984-.48466.27668.069236h.13834l.27668-.13847h2.7668l.27668.13847.69171-.069236.27668-.069237h.27668l.13834-.13847.27668.13847.27668-.069236h.27668l.27668-.13847.55337.13847.27668-.069237 1.2451-.069236.27668-.20771.13834-.13847.55337.27695.69171-.27695.27668.069237.55337-.20771.96839.069237.27668.13847.83005-.69236h.13834l.55336-.48466h1.5218l.27668-.13847.69171-.069236 1.3834-.62313h.41502l.41502-.20771.13834-.20771.13834.13847.13834-.069236.13834.13847.27668-.27695.27668-.13847.27668-.069237.41502-.20771.13834.069237.83005-.7616.27668-.069236.27668-.13847.27668-.69236.96839-.96931.13834.13847.27668-.13847.13834-.20771h.13834l.13834.13847.27668-.069236.27668-.48466h.27668l.13834-.41542.13834.069237.69171-.27695h.13834l.27668-.34618.27668-.20771.55337-.069237.27668-.20771.41502-.069237.27668-.069236h.41502l.41502-.27695.55337-.20771.96839-.069236.27668-.069237 1.7984-.069236.27668-.069237 3.0435-.069236.27668-.069237 2.2135-.069236.69171-.27695 3.3202-.069237 1.1067-.27695.27668-.20771 1.9368.069236.27668.13847 1.1067-.20771 1.3834-.069237.55337-.34618.83005-.069237.55337-.27695h.27668l.55337-.20771h.27668l.83005-.69236.27668-.13847.83005-.069237.27668-.27695 1.6601-.41542.27668.069237.27668-.13847.55337-.069237.83005-.20771.27668.069236 1.1067-.7616.27668-.069237.55337-.69236.27668-.20771h.27668l1.1067-.69236 1.3834-.34618 1.1067-1.177.27668-.41542h.27668l.83005-.83084h.27668l1.1067-.83084.27668.069236 1.3834-1.3847h.27668l.27668-.41542 1.1067-.20771h1.9368l.27668-.13847h.27668l.27668-.13847 1.1067-.13847.83005-.069236 2.2135-.48466 2.7668.069237.55337.069236.83005-.069236.27668-.20771.83005.13847.27668-.069236.55337.069236h1.3834l.83005-.34618h1.1067l.55337-.27695h.83005l.27668-.13847.83005-.069237.27668-.069236.27668.069236.27668-.13847.27668.069237.83005-.20771.27668-.20771.27668.069236.83005-.96931.55337.20771.27668-.20771h.55337l.55337-.27695.83005-.069236.55336-.62313h.27668l.55337-.20771.27668.069236.27668-.27695.27668-.069236.27668.069236.27668-.069236.27668.13847.27668-.13847.27668.069236.27668-.069236.83005-.62313h.27668l.27668-.13847.83005-1.2463.83005-.48466.27668-.55389.27668-.069237.83005-.83084.27668.069237.83005-.55389.55337-1.1078.55336-.069237.55337-.62313 1.1067-.34618.83005-.48466 1.1067-.34618.55337-.62313.55337-.069237 1.1067-.20771.27668-.34618 1.9368-.069236.55337-.20771.83005-.069236.83005-.20771.27668.069237.55337-.069237.83005.069237.55337.069236.55337-.27695 1.1067.069237.27668.20771h2.4901l.55336-.34618h.27668l.55337-.20771 1.1067.069237.55337.069236.27668-.13847h.27668l.27668-.27695h.27668l.55337-.27695.55337-.069236.55337-.34618.55337-.069236.83005-.7616h.27668l.27668-.13847h.55337l.55337.20771h.27668l.55337-.20771.27668-.34618 1.3834-.41542.27668-.13847.83005-.069236.27668-.13847.83005.13847.83005-.069237.55337-.20771.55337-.13847 1.6601-1.1078.27668.069236.27668-.20771h.55337l.27668-.34618.55337-.27695.55337-.55389.83005.069237.55336-.41542.27668.069236.55337-.41542.27668-.41542.27668.13847.27668-.27695.27668-.069236.27668.20771.27668-.27695.55337.13847 1.1067-.69236.55337.069237.27668-.20771h.27668l.27668.13847.27668-.069236.27668-.34618.27668.069237.83005-.20771.27668.069237.27668-.069237.55337.069237 1.9368.069236.27668.20771 1.9368-.069237.55337-.069236 1.3834.069236.27668.13847.27668-.13847h1.1067l.27668-.13847.83005.069237.55336.069236 2.4901-.069236.55336-.069237 1.1067.069237.55337-.27695.83005-.13847.27668.13847.55337-.27695 1.1067.13847.55337-.27695h.55337l.55337-.20771 3.0435-.069236.55337-.20771.55337-.27695 1.3834-.069236.55337-.27695.83005-.62313h.27668l.27668-.13847.55336.069237 1.1067-.83084.27668.13847.27668-.13847.27668-.41542.83005-.48466.27668-.20771h.27668l.55337-.83084.83005-.62313.27668-.41542h.27668l.55337-.62313.27668.13847.55336-.069237.27668-.41542.27668.069237.55337-.41542 1.3834-.90008 1.1067-.48466 1.1067-.069237.83005-.34618 1.6601.069236.55337.069237 1.9368.069236.55337.069237 1.1067-.13847.27668-.069237.27668.069237.55337-.069237h2.7668l.27668-.13847.83005-.069236.55337-.069237 1.1067-.069236.27668-.069237.83005.27695.55337-.20771 1.3834-.069237.83005-.13847.55337-.069236.27668-.13847 1.6601.069236.83005-.41542h.27668l.55337-.34618h.27668l.27668-.13847.55337-.41542.27668.069236.83005-.20771.55337.13847.55337-.069237.27668.069237 1.6601-.83084.55337-.069236.83005-.20771.55337-.27695h.27668l.27668-.41542.27668-.13847.27668.069237.27668-.27695.27668-.069237.83005-1.5924.27668-.27695h.27668l.27668-.13847.55337-.48466.27668-.13847.27668-.48466 2.2135-1.8001.27668-.27695.27668-.48466 1.1067-.34618.27668.13847.27668-.069237.83005-.55389h.27668l.27668-.13847.27668.069237 1.9368-.41542.83005-.069237.55337-.13847.55337.069237 1.6601-.069237.27668-.069236.27668.069236.55337-.069236.55337.069236 1.6601-.069236.27668-.069237.55337.069237 1.1067-.069237 1.6601-.34618m.55337.20771.27668-.13847h.27668l.27668-.13847h3.0435l.55337-.27695.83005-.069236.27668-.069237.27668.069237.55337-.34618.27668.069237.55337-.069237.27668.069237.27668-.13847.55337.13847.27668-.13847.83005-.069237.55337-.27695.55337.27695.55337-.34618.83005-.27695.83005-.34618.27668-.34618.27668-.13847h.27668l.27668-.20771h.55337l.55337-.48466.55337.27695.27668-.27695.27668-.48466.55337-.27695h.27668l1.1067-.62313.55337-.48466.55337-.13847.27668-.48466.27668-.20771.27668-.62313.83005-.69236h.27668l.55337-.55389.83005-.27695.27668-.13847.55337-.41542.27668-.069236.27668-.27695.55337.069236.27668-.20771.55337.13847.27668-.27695h.55337l.27668-.20771.83005-.069236 1.1067-.13847.27668-.069237.27668.069237 1.1067-.55389 1.3834-.069237.27668-.069236.83005.13847 1.3834-.069237.27668-.069236.55337.13847.83005-.13847.27668.069236.27668-.069236.83005.13847h.55337l.27668-.27695 2.2135-.069237.83005-.13847.83005.13847 1.1067-.069236.27668-.20771.83005-.069236.83005-.34618 1.1067-.20771.55337-.069237 1.3834-.27695.83005-.069236.27668-.13847h.27668l.27668-.27695h.27668l.55337-.69236.55336-.34618.55337-.27695.83005-.20771.27668-.34618.27668-.13847h.27668l.83005-.34618h.27668l.27668-.27695.55337-.069237.55337-.69236.55337-.34618.55337-.41542 3.3202-2.354.55337-1.0385.55336-.41542.55337-.069236.27668-.48466h.27668l.55337-.27695.27668-.27695h.27668l.55337-.27695.27668-.41542.27668-.069236.55337-.34618.55337.069237.27668-.34618.55337-.20771 1.3834-.069237.27668.27695.55337.069237h.27668l.55337-.27695.55337-.069237 1.6601-.069236.55337-.069237.27668-.27695.83005-.069236.55337-.069237 5.5337-.069236.55337-.13847.27668.069236 1.6601-.48466.27668-.13847h.27668l.27668-.13847h.27668l.27668-.13847.83005.13847.55337-.069237h.55336l.55337-.20771.27668-.34618 1.1067-.48466h.55337l.55337-.27695.27668.069237.55337-.20771.27668.13847.27668-.13847.55337-.069236.55337-.41542.55337-.27695h.27668l.55336-.20771.27668.13847.55337-.20771.27668-.34618 1.3834-.62313.27668.069236.83005-.34618.27668.069236.27668-.20771h.27668l3.8736-2.9772.55337-.96931.55337-.7616.55337-.069237 1.3834-1.2463.27668-.13847.27668-.27695.27668-.069236 1.3834-.90008.27668-.069236.55337-.34618 1.6601-.34618.27668.069236.55337-.069236.83005.13847 1.3834-.069237.55337-.069236 1.3834-.069237.55337-.069236.55337.069236.83005.069237.83005.13847.27668-.13847.55337.069236 1.1067.20771.27668-.13847.27668.13847.55337-.069237.27668-.27695 1.1067-.27695.55337.13847 1.1067-.41542h.27668l.27668-.13847.55336-.069236 1.6601-.34618.27668.069237.27668-.13847h.27668l.83005-.69236h.27668l1.3834-.62313 1.3834-.34618.27668-.34618.55336.069237.83005-.69236.27668-.20771.27668.069237.27668-.069237.27668-.27695.55337.48466.55337.20771 1.3834-.34618.27668-.34618.27668-.069236.55337-.48466h.27668l.55337-.27695.27668.069237.27668-.34618.27668-.13847.55337-.55389.27668-.48466.55337-.48466.27668-.48466.27668-.13847.55337-.69236h.27668l.55336-.62313.27668.069236.55337-.41542.27668-.69236.27668-.069236.27668-.48466.27668-.069236.27668-.27695.27668-.55389.55336-.34618.55337-.069236.55337-.62313.55337-.069236.55337-.41542.27668-.41542.27668-.069237 1.6601-1.177.83005.069236.55337.20771.55337-.27695.83005.13847 1.6601-.069237 1.1067-.20771 1.9368-.069237.83005-.13847 1.9368-.069236 1.1067-.20771h.83005l.55337-.27695.27668.069237.27668-.069237.27668.069237.27668-.069237.55337.069237.55337-.069237.55337.069237.83005-.41542.55337-.069237.27668-.20771h.27668l.55337-.34618.55337-.20771.27668-.13847.55337.069236 1.3834-.34618.27668-.27695.55337-.13847.27668.069236.27668.27695.27668.069237.27668-.13847.27668.069236.83005-.62313.27668.13847.27668-.069237.55337-.41542.55337.069237h.27668l.27668-.27695.27668.069236.83005-.48466h.27668l.55337-.20771.27668.069237.27668-.069237.27668.069237 1.1067-.96931.83005-.7616.27668-.27695.27668-.069236.27668-.55389.27668.069236.27668-.41542.27668-.069236.27668-.41542.55337-.27695.55336-.62313h.27668l.27668-.48466.27668-.069236.55337-.55389.27668.13847 1.1067-.48466.55336.20771.55337-.20771 1.6601-.34618 1.1067-.069237 1.3834-.27695 1.1067-.13847 1.3834-.069236 1.6601-.34618h1.9368l.27668.13847h.55337l.55337.13847.27668-.13847h.55337l.27668-.13847.27668.069237 1.1067-.27695.55337.069236h.27668l.27668-.20771 2.4901-.069237.83005-.41542 1.3834-.069236.55336-.20771.27668.13847.55337-.27695h.55337l.27668-.13847.83005.069237.55336.20771.55337-.069236.27668-.13847.55337.069236.27668-.13847.27668.069237 1.1067-.34618.55336-.41542.27668.20771.83005-.48466h.55337l.27668-.20771h.27668l.27668-.41542.27668.20771h.27668l.27668-.69236.83005-.48466 1.1067-.96931.27668-.55389.27668.13847.27668-.13847h.27668l1.1067-1.177.27668.069237.55337-.48466.27668-.48466.27668.13847.83005-.48466.27668-.069236.27668-.34618.55337.069237.27668-.13847.27668-.27695.27668-.069237.27668-.34618.27668-.13847.27668.069236 1.9368-.90007 1.3834-.069237.83005-.13847h.83005l.27668-.13847 1.6601-.069236 1.1067-.27695.55336.069236h.27668l.27668-.13847 1.1067.069237.83005.13847 1.1067-.20771 1.1067-.13847 1.3834-.069236 1.1067-.20771.83005.069237 1.1067.20771h.27668l1.3834-.96931h2.4901l.27668-.13847.27668.069237.55337-.13847.27668.069236.55337-.20771 1.1067-.20771.27668-.34618.55336-.20771.27668.069237.27668.20771h.27668l1.3834-.90007.27668.13847.83005-.48466.27668-.20771h.27668l1.1067-1.1078.55337-.13847.83005-.96931.27668-.34618.83005-.48466.55337-.69236.27668-.13847.27668-.55389.55337-.27695.55337-.20771.27668.13847.27668-.27695.55337-.20771.27668-.20771.27668.13847.27668-.27695h.27668l.27668-.13847.83005-.90008 1.3834.069237.27668-.20771 1.1067-.069236.83005-.13847.83005.13847 2.2135-.069237.83005-.13847h3.5969l.27668-.27695 1.3834-.069236 1.3834-.27695 1.9368-.069237.55337-.20771.27668.069236 1.1067-.13847 1.3834-.41542.27668-.13847.27668-.34618.55337-.20771.83005-.41542.27668.069237.27668-.20771.27668.13847h.27668l.27668-.20771h.55337l.55337-.34618.27668.069237.27668-.13847.27668.13847 1.1067-.48466.27668.069237 1.9368-.55389.27668.13847.55337-.13847.55337-.27695h.83005l1.3834-.62313.27668-.069236.27668-.41542 1.6601-1.2463.27668.069236.27668-.069236 1.3834-1.1078.27668-.55389 1.1067-.48466.27668-.41542.27668-.13847.27668-.55389 1.3834-1.0385h.27668l.27668.20771.55337-.20771.27668-.20771h.27668l.27668.13847 1.1067-.34618.83005-.41542.27668.069237 1.1067-.20771 1.9368-.069236.55337-.069237 3.3202.069237.27668.13847 1.1067-.13847 2.7668.069236 1.6601.20771.83005-.27695.55337-.20771 1.1067-.20771.55336.13847.27668-.069237.27668.13847.27668-.069236.27668-.20771.27668.20771h.83005l.27668-.20771.27668.069237.55337-.34618.27668.13847.27668-.27695.27668.20771 1.3834-.069237m1.1067 0 .83005-.13847.55337-.34618.27668-.34618.55337-.069236h.27668l.55337-.41542.55337.13847.55336-.34618.27668.13847.27668-.34618.27668.20771.27668-.069236.83005-1.0385.27668-.069236.27668-.27695.27668.069236.27668-.13847.27668-.62313 1.3834-1.5232.27668-.41542.27668-.069237.83005-.69236.27668-.20771.27668-.41542h.27668l.27668-.62313.55337-.62313h.55337l.27668-.13847.27668-.27695.27668.069236.27668-.069236.55336-.34618h.27668l1.1067-.69236.83005-.34618.27668.069236 1.3834-.27695.55337-.069236 1.1067-.20771.55337.13847 1.1067-.20771.27668.13847 2.4901.069236.27668.13847 1.3834-.069236.83005-.13847.55337.13847.55337-.069237.27668.069237.83005-.27695.27668-.13847.55337-.069237.27668-.20771.55337-.069237.27668-.069236.55337.069236h.83005l.55337-.27695 1.1067-.069236.83005-.34618h.27668l.55337-.27695 1.3834-.41542.55337.20771.55337-.20771.55336.27695.83005-.34618.55337-.13847.27668-.20771 1.1067.069237.83005-.55389h.27668l.55337-.55389h.55337l.27668-.27695h.27668l.27668-.20771.27668.13847.27668-.20771.27668-.41542.55336-.20771.55337-.55389v0" clip-path="url(#d)" fill="none" stroke="#28f" stroke-linecap="square" stroke-width="1.5"/>
   </g>
   <g id="gf">
    <path d="m52 523.06v-232.9" fill="none" stroke="#000" stroke-linecap="square" stroke-width=".8"/>
   </g>
   <g id="gg">
    <path d="m853.2 523.06v-232.9" fill="none" stroke="#000" stroke-linecap="square" stroke-width=".8"/>
   </g>
   <g id="gh">
    <path d="m52 523.06h801.2" fill="none" stroke="#000" stroke-linecap="square" stroke-width=".8"/>
   </g>
   <g id="gi">
    <path d="m52 290.16h801.2" fill="none" stroke="#000" stroke-linecap="square" stroke-width=".8"/>
   </g>
   <g id="gj">
    <!-- サーバー数の推移 -->
    <g transform="translate(404.6 284.16) scale(.12 -.12)">
     <defs>
      <path id="z" transform="scale(.015625)" d="m4685 2893q0-621-84-1111-83-489-288-877-204-387-569-691t-928-560l-544 512q448 167 781 371 333 205 550 503 218 298 323 739 106 442 106 1075v1620q0 192-10 339-9 147-22 217h723q-6-70-22-217t-16-339v-1581zm-2304 2086q-7-64-23-199-16-134-16-313v-2317q0-128 6-256 7-128 13-224 7-96 13-140h-710q6 44 12 140 7 96 13 221 7 125 7 259v2317q0 122-10 256-9 135-28 256h723zm-1978-1197q45-12 144-22t237-20q138-9 285-9h4217q237 0 394 13t246 26v-679q-76 7-240 13-163 6-393 6h-4224q-147 0-282-3-134-3-234-10-99-6-150-12v697z"/>
      <path id="s" transform="scale(.015625)" d="m621 2854q109-6 265-16 157-9 339-16 183-6 349-6 128 0 352 0t509 0 598 0q314 0 624 0 311 0 586 0t486 0q212 0 327 0 230 0 416 16t301 22v-793q-109 6-308 19-198 13-409 13-109 0-324 0-214 0-489 0t-586 0q-310 0-624 0-313 0-598 0t-509 0-352 0q-262 0-525-10-262-9-428-22v793z"/>
      <path id="y" transform="scale(.015625)" d="m4941 5037q83-109 176-269t182-320q90-160 154-288l-416-179q-96 192-240 448t-272 435l416 173zm723 275q83-122 182-282 100-160 196-317 96-156 153-271l-416-186q-102 205-246 454-144 250-279 429l410 173zm-4339-3360q102 262 201 556 100 295 183 612t144 630q61 314 93 602l723-147q-19-83-45-183-26-99-48-195t-42-166q-32-154-86-394t-131-512-164-551q-86-278-182-514-115-301-269-618-153-317-326-618-173-300-346-550l-697 294q301 397 563 874t429 880zm3155 198q-96 250-215 531-118 282-243 567-124 285-246 534-122 250-224 429l659 218q96-179 221-429t253-535q128-284 249-566 122-281 218-525 90-230 195-518 106-288 211-592 106-304 195-589 90-285 154-515l-729-237q-84 352-199 736t-240 768-259 723z"/>
     </defs>
     <use xlink:href="#z"/>
     <use transform="translate(100)" xlink:href="#s"/>
     <use transform="translate(200)" xlink:href="#y"/>
     <use transform="translate(300)" xlink:href="#s"/>
     <use transform="translate(400)" xlink:href="#q"/>
     <use transform="translate(500)" xlink:href="#t"/>
     <use transform="translate(600)" xlink:href="#r"/>
     <use transform="translate(700)" xlink:href="#p"/>
    </g>
   </g>
  </g>
 </g>
 <defs>
  <clipPath id="c">
   <rect x="52" y="26.88" width="801.2" height="232.9"/>
  </clipPath>
  <clipPath id="d">
   <rect x="52" y="290.16" width="801.2" height="232.9"/>
  </clipPath>
 </defs>
</svg>
