<!DOCTYPE svg  PUBLIC '-//W3C//DTD SVG 1.1//EN'  'http://www.w3.org/Graphics/SVG/1.1/DTD/svg11.dtd'>
<svg version="1.1" viewBox="0 0 864 576" xmlns="http://www.w3.org/2000/svg" xmlns:xlink="http://www.w3.org/1999/xlink">
 <defs>
  <style type="text/css">*{stroke-linejoin: round; stroke-linecap: butt}</style>
 </defs>
 <g id="aa">
  <g id="ab">
   <path d="m0 576h864v-576h-864z" fill="#fff"/>
  </g>
  <g id="ac">
   <g id="ad">
    <path d="m52 259.78h801.2v-232.9h-801.2z" fill="#fff"/>
   </g>
   <g id="ae">
    <path d="m138.54 259.78h.90052v-232.9h-.90052z" clip-path="url(#c)" fill="#808080" opacity=".3" stroke="#808080"/>
   </g>
   <g id="af">
    <path d="m470.08 259.78h.60034v-232.9h-.60034z" clip-path="url(#c)" fill="#808080" opacity=".3" stroke="#808080"/>
   </g>
   <g id="ag">
    <g id="ah">
     <g id="ai">
      <path d="m106.57 259.78v-232.9" clip-path="url(#c)" fill="none" stroke="#b0b0b0" stroke-linecap="square" stroke-opacity=".3" stroke-width=".8"/>
     </g>
     <g id="aj">
      <defs>
       <path id="e" d="m0 0v3.5" stroke="#000" stroke-width=".8"/>
      </defs>
      <use x="106.574105" y="259.777732" stroke="#000000" stroke-width=".8" xlink:href="#e"/>
     </g>
    </g>
    <g id="ak">
     <g id="al">
      <path d="m193.02 259.78v-232.9" clip-path="url(#c)" fill="none" stroke="#b0b0b0" stroke-linecap="square" stroke-opacity=".3" stroke-width=".8"/>
     </g>
     <g id="am">
      <use x="193.023733" y="259.777732" stroke="#000000" stroke-width=".8" xlink:href="#e"/>
     </g>
    </g>
    <g id="an">
     <g id="ao">
      <path d="m279.47 259.78v-232.9" clip-path="url(#c)" fill="none" stroke="#b0b0b0" stroke-linecap="square" stroke-opacity=".3" stroke-width=".8"/>
     </g>
     <g id="ap">
      <use x="279.473362" y="259.777732" stroke="#000000" stroke-width=".8" xlink:href="#e"/>
     </g>
    </g>
    <g id="aq">
     <g id="ar">
      <path d="m365.92 259.78v-232.9" clip-path="url(#c)" fill="none" stroke="#b0b0b0" stroke-linecap="square" stroke-opacity=".3" stroke-width=".8"/>
     </g>
     <g id="as">
      <use x="365.922991" y="259.777732" stroke="#000000" stroke-width=".8" xlink:href="#e"/>
     </g>
    </g>
    <g id="at">
     <g id="au">
      <path d="m452.37 259.78v-232.9" clip-path="url(#c)" fill="none" stroke="#b0b0b0" stroke-linecap="square" stroke-opacity=".3" stroke-width=".8"/>
     </g>
     <g id="av">
      <use x="452.372619" y="259.777732" stroke="#000000" stroke-width=".8" xlink:href="#e"/>
     </g>
    </g>
    <g id="aw">
     <g id="ax">
      <path d="m538.82 259.78v-232.9" clip-path="url(#c)" fill="none" stroke="#b0b0b0" stroke-linecap="square" stroke-opacity=".3" stroke-width=".8"/>
     </g>
     <g id="ay">
      <use x="538.822248" y="259.777732" stroke="#000000" stroke-width=".8" xlink:href="#e"/>
     </g>
    </g>
    <g id="az">
     <g id="ba">
      <path d="m625.27 259.78v-232.9" clip-path="url(#c)" fill="none" stroke="#b0b0b0" stroke-linecap="square" stroke-opacity=".3" stroke-width=".8"/>
     </g>
     <g id="bb">
      <use x="625.271877" y="259.777732" stroke="#000000" stroke-width=".8" xlink:href="#e"/>
     </g>
    </g>
    <g id="bc">
     <g id="bd">
      <path d="m711.72 259.78v-232.9" clip-path="url(#c)" fill="none" stroke="#b0b0b0" stroke-linecap="square" stroke-opacity=".3" stroke-width=".8"/>
     </g>
     <g id="be">
      <use x="711.721506" y="259.777732" stroke="#000000" stroke-width=".8" xlink:href="#e"/>
     </g>
    </g>
    <g id="bf">
     <g id="bg">
      <path d="m798.17 259.78v-232.9" clip-path="url(#c)" fill="none" stroke="#b0b0b0" stroke-linecap="square" stroke-opacity=".3" stroke-width=".8"/>
     </g>
     <g id="bh">
      <use x="798.171134" y="259.777732" stroke="#000000" stroke-width=".8" xlink:href="#e"/>
     </g>
    </g>
   </g>
   <g id="bi">
    <g id="bj">
     <g id="bk">
      <path d="m52 246.93h801.2" clip-path="url(#c)" fill="none" stroke="#b0b0b0" stroke-linecap="square" stroke-opacity=".3" stroke-width=".8"/>
     </g>
     <g id="bl">
      <defs>
       <path id="h" d="m0 0h-3.5" stroke="#000" stroke-width=".8"/>
      </defs>
      <use x="52" y="246.926099" stroke="#000000" stroke-width=".8" xlink:href="#h"/>
     </g>
     <g id="bm">
      <!-- 300 -->
      <g transform="translate(27.9 250.91) scale(.1 -.1)">
       <defs>
        <path id="n" transform="scale(.015625)" d="m1715-90q-371 0-656 90t-503 240q-217 150-377 323l359 474q211-205 479-359 269-153 634-153 269 0 467 92 199 93 311 266t112 423q0 256-125 451t-429 300q-304 106-835 106v551q467 0 732 105 266 106 384 291 119 186 119 423 0 307-192 489-192 183-531 183-269 0-503-119-233-118-438-316l-384 460q282 256 614 413 333 157 737 157 422 0 748-144 327-144 512-413 186-269 186-659 0-403-221-685-221-281-592-422v-26q269-70 490-227t349-400 128-557q0-422-215-726-214-304-573-468-358-163-787-163z"/>
        <path id="a" transform="scale(.015625)" d="m1830-90q-460 0-806 275-346 276-535 823-188 547-188 1366 0 820 188 1357 189 538 535 803 346 266 806 266 461 0 800-269 340-269 528-803 189-534 189-1354 0-819-189-1366-188-547-528-823-339-275-800-275zm0 589q237 0 422 185 186 186 288 599 103 413 103 1091 0 679-103 1082-102 403-288 582-185 180-422 180-236 0-422-180-186-179-292-582-105-403-105-1082 0-678 105-1091 106-413 292-599 186-185 422-185z"/>
       </defs>
       <use xlink:href="#n"/>
       <use transform="translate(57)" xlink:href="#a"/>
       <use transform="translate(114)" xlink:href="#a"/>
      </g>
     </g>
    </g>
    <g id="bn">
     <g id="bo">
      <path d="m52 220.79h801.2" clip-path="url(#c)" fill="none" stroke="#b0b0b0" stroke-linecap="square" stroke-opacity=".3" stroke-width=".8"/>
     </g>
     <g id="bp">
      <use x="52" y="220.787184" stroke="#000000" stroke-width=".8" xlink:href="#h"/>
     </g>
     <g id="bq">
      <!-- 600 -->
      <g transform="translate(27.9 224.77) scale(.1 -.1)">
       <defs>
        <path id="k" transform="scale(.015625)" d="m1971-90q-339 0-634 144-294 144-518 435-224 292-352 733-128 442-128 1044 0 678 147 1161 148 483 397 784 250 301 570 445t665 144q397 0 688-147 292-147 490-359l-403-448q-128 154-327 253-198 99-409 99-307 0-567-182-259-182-413-605-153-422-153-1145 0-608 115-1002t326-589q212-195 493-195 212 0 375 121 163 122 259 343t96 522q0 300-90 511-89 212-259 320-169 109-419 109-211 0-451-134t-458-461l-25 538q134 192 313 323t374 201q196 71 375 71 397 0 694-163 298-163 467-490 170-326 170-825 0-468-195-817-195-348-512-544-317-195-701-195z"/>
       </defs>
       <use xlink:href="#k"/>
       <use transform="translate(57)" xlink:href="#a"/>
       <use transform="translate(114)" xlink:href="#a"/>
      </g>
     </g>
    </g>
    <g id="br">
     <g id="bs">
      <path d="m52 194.65h801.2" clip-path="url(#c)" fill="none" stroke="#b0b0b0" stroke-linecap="square" stroke-opacity=".3" stroke-width=".8"/>
     </g>
     <g id="bt">
      <use x="52" y="194.648269" stroke="#000000" stroke-width=".8" xlink:href="#h"/>
     </g>
     <g id="bu">
      <!-- 900 -->
      <g transform="translate(27.9 198.63) scale(.1 -.1)">
       <defs>
        <path id="r" transform="scale(.015625)" d="m1562-90q-410 0-708 150-297 151-502 356l403 461q141-160 346-256t422-96q224 0 425 102 202 103 352 333 151 230 237 614 87 384 87 941 0 589-115 970t-323 563-496 182q-205 0-372-118-166-118-262-336t-96-525q0-301 86-512 87-211 259-323 173-112 417-112 224 0 460 141 237 141 448 461l32-544q-134-180-313-314t-371-208-384-74q-391 0-689 166-297 167-467 496-169 330-169 823 0 467 195 816t515 541 698 192q339 0 636-138 298-137 519-419 221-281 349-710t128-1018q0-691-141-1187t-391-807q-249-310-563-461-313-150-652-150z"/>
       </defs>
       <use xlink:href="#r"/>
       <use transform="translate(57)" xlink:href="#a"/>
       <use transform="translate(114)" xlink:href="#a"/>
      </g>
     </g>
    </g>
    <g id="bv">
     <g id="bw">
      <path d="m52 168.51h801.2" clip-path="url(#c)" fill="none" stroke="#b0b0b0" stroke-linecap="square" stroke-opacity=".3" stroke-width=".8"/>
     </g>
     <g id="bx">
      <use x="52" y="168.509354" stroke="#000000" stroke-width=".8" xlink:href="#h"/>
     </g>
     <g id="by">
      <!-- 1200 -->
      <g transform="translate(22.2 172.49) scale(.1 -.1)">
       <defs>
        <path id="f" transform="scale(.015625)" d="m544 0v608h1037v3277h-845v467q333 58 579 147 247 90 451 218h557v-4109h915v-608h-2694z"/>
        <path id="b" transform="scale(.015625)" d="m282 0v429q697 621 1164 1136 468 515 701 956 234 442 234 826 0 256-87 451-86 196-262 301-176 106-445 106-275 0-506-151-230-150-422-368l-416 410q301 333 637 518 336 186 803 186 429 0 749-176t496-493 176-745q0-455-224-919t-615-935q-390-470-889-950 186 20 394 36t374 16h1184v-634h-3046z"/>
       </defs>
       <use xlink:href="#f"/>
       <use transform="translate(57)" xlink:href="#b"/>
       <use transform="translate(114)" xlink:href="#a"/>
       <use transform="translate(171)" xlink:href="#a"/>
      </g>
     </g>
    </g>
    <g id="bz">
     <g id="ca">
      <path d="m52 142.37h801.2" clip-path="url(#c)" fill="none" stroke="#b0b0b0" stroke-linecap="square" stroke-opacity=".3" stroke-width=".8"/>
     </g>
     <g id="cb">
      <use x="52" y="142.370439" stroke="#000000" stroke-width=".8" xlink:href="#h"/>
     </g>
     <g id="cc">
      <!-- 1500 -->
      <g transform="translate(22.2 146.36) scale(.1 -.1)">
       <defs>
        <path id="j" transform="scale(.015625)" d="m1715-90q-365 0-653 90t-506 237q-217 147-383 307l352 480q134-134 294-246t361-183q202-70 452-70 262 0 473 118 212 119 333 346 122 227 122 541 0 460-247 716-246 256-649 256-224 0-384-64t-365-198l-365 237 141 2240h2387v-627h-1747l-109-1204q154 77 307 118 154 42 340 42 397 0 723-160t518-490q192-329 192-847 0-519-224-887t-586-560q-361-192-777-192z"/>
       </defs>
       <use xlink:href="#f"/>
       <use transform="translate(57)" xlink:href="#j"/>
       <use transform="translate(114)" xlink:href="#a"/>
       <use transform="translate(171)" xlink:href="#a"/>
      </g>
     </g>
    </g>
    <g id="cd">
     <g id="ce">
      <path d="m52 116.23h801.2" clip-path="url(#c)" fill="none" stroke="#b0b0b0" stroke-linecap="square" stroke-opacity=".3" stroke-width=".8"/>
     </g>
     <g id="cf">
      <use x="52" y="116.231524" stroke="#000000" stroke-width=".8" xlink:href="#h"/>
     </g>
     <g id="cg">
      <!-- 1800 -->
      <g transform="translate(22.2 120.22) scale(.1 -.1)">
       <defs>
        <path id="l" transform="scale(.015625)" d="m1830-90q-441 0-787 163-345 164-547 448-202 285-202 650 0 314 122 557t314 419 403 291v32q-256 186-442 458-185 272-185 643 0 365 176 640t480 425q304 151 694 151 410 0 704-160t457-439q164-278 164-649 0-237-96-448t-234-381q-137-169-291-278v-32q218-115 397-285 179-169 288-406t109-557q0-346-189-628-189-281-532-448-342-166-803-166zm314 2708q205 198 310 419 106 221 106 464 0 211-83 384t-247 272q-163 99-393 99-288 0-480-183-192-182-192-502 0-256 134-429 135-172 359-294t486-230zm-294-2170q236 0 418 89 183 90 285 253 103 164 103 388 0 211-90 367-89 157-246 272-157 116-368 215t-454 195q-244-173-398-426-153-252-153-553 0-237 118-416 119-179 324-282 205-102 461-102z"/>
       </defs>
       <use xlink:href="#f"/>
       <use transform="translate(57)" xlink:href="#l"/>
       <use transform="translate(114)" xlink:href="#a"/>
       <use transform="translate(171)" xlink:href="#a"/>
      </g>
     </g>
    </g>
    <g id="ch">
     <g id="ci">
      <path d="m52 90.093h801.2" clip-path="url(#c)" fill="none" stroke="#b0b0b0" stroke-linecap="square" stroke-opacity=".3" stroke-width=".8"/>
     </g>
     <g id="cj">
      <use x="52" y="90.092609" stroke="#000000" stroke-width=".8" xlink:href="#h"/>
     </g>
     <g id="ck">
      <!-- 2100 -->
      <g transform="translate(22.2 94.078) scale(.1 -.1)">
       <use xlink:href="#b"/>
       <use transform="translate(57)" xlink:href="#f"/>
       <use transform="translate(114)" xlink:href="#a"/>
       <use transform="translate(171)" xlink:href="#a"/>
      </g>
     </g>
    </g>
    <g id="cl">
     <g id="cm">
      <path d="m52 63.954h801.2" clip-path="url(#c)" fill="none" stroke="#b0b0b0" stroke-linecap="square" stroke-opacity=".3" stroke-width=".8"/>
     </g>
     <g id="cn">
      <use x="52" y="63.953694" stroke="#000000" stroke-width=".8" xlink:href="#h"/>
     </g>
     <g id="co">
      <!-- 2400 -->
      <g transform="translate(22.2 67.939) scale(.1 -.1)">
       <defs>
        <path id="m" transform="scale(.015625)" d="m2170 0v3072q0 192 12 457 13 266 20 458h-26q-90-179-183-365-92-185-195-364l-921-1415h2579v-576h-3328v493l1875 2957h858v-4717h-691z"/>
       </defs>
       <use xlink:href="#b"/>
       <use transform="translate(57)" xlink:href="#m"/>
       <use transform="translate(114)" xlink:href="#a"/>
       <use transform="translate(171)" xlink:href="#a"/>
      </g>
     </g>
    </g>
    <g id="cp">
     <g id="cq">
      <path d="m52 37.815h801.2" clip-path="url(#c)" fill="none" stroke="#b0b0b0" stroke-linecap="square" stroke-opacity=".3" stroke-width=".8"/>
     </g>
     <g id="cr">
      <use x="52" y="37.814779" stroke="#000000" stroke-width=".8" xlink:href="#h"/>
     </g>
     <g id="cs">
      <!-- 2700 -->
      <g transform="translate(22.2 41.8) scale(.1 -.1)">
       <defs>
        <path id="i" transform="scale(.015625)" d="m1235 0q32 646 109 1187t224 1024 384 941 576 938h-2208v627h3027v-455q-409-512-665-989-256-476-397-969t-205-1053-90-1251h-755z"/>
       </defs>
       <use xlink:href="#b"/>
       <use transform="translate(57)" xlink:href="#i"/>
       <use transform="translate(114)" xlink:href="#a"/>
       <use transform="translate(171)" xlink:href="#a"/>
      </g>
     </g>
    </g>
   </g>
   <g id="ct">
    <path d="m88.418 222.44.085549.17426.075543-.34852.31218.34852.15909-.08713.42474-.8713.90102-3.2238.91603-5.1407.44826-1.3069.45126-.17426.42424-1.6555.45026-1.2198.45026-2.0911.45026-2.7882.45026-.60991.45026-3.2238.45026-2.3525 1.3508-9.2357.90052-4.3565.45026-1.3941.45026-.78417.45026-2.004.45026-5.3149 1.3508-24.309 1.801-43.826.45026-8.5387.90052-28.666.45026-5.3149.45026-2.3525.45026-.78417.45026 2.6139.45026 1.5683 2.2513 43.565.45026 12.46 2.7016 52.801.90052 12.198 1.801 19.604.45026 2.701.45026 3.9208.45026 2.7882.45026 3.6594.45026 1.9169.45026 3.2238 1.3508 6.5347.45026 2.4396.45026 1.5683.45026 3.4852.45026 1.1327.45026 1.7426.90052 1.6555.45026 1.1327.45026.26139.45026 1.3069.45026.52278.90052.26139.90052-.43565 1.3508-2.8753.45026-.26139.45026-.95843.45026-.43565.90052-3.3981.90052-3.9208.45026.26139.45026-.17426.45026-2.7882.45026-1.5683.45026-.78417.90052-2.7882.45026-3.1367.45026-1.7426.45026-.60991 1.3508-4.2694.45026-3.9208.45026-2.4396.45026-3.6594 1.3508-7.8417.45026-1.3941m.90052 19.517.45026-12.285.45026-2.3525.45026-1.3941 1.3508-13.418.45026-6.012.90052-18.21.90052-22.654.45026-16.293 1.3508-31.105.90052-14.725.45026-3.7466.45026.43565.45026-1.2198.45026 1.7426.90052 8.8001.90052 21.173.45026 6.9704 1.3508 28.404.90052 14.725.90052 16.555.90052 12.111.90052 10.891 2.2513 21.608 2.7016 12.808.90052 5.7506.90052 3.1367.45026.43565.45026.8713.45026 1.3069.45026.60991 1.3508 4.5307.45026-.43565.45026.34852h.45026l.45026.52278.45026-1.3069.45026.17426.45026-.34852.45026-.52278.45026-.26139.45026-.60991.45026.08713.45026-.52278.45026-2.0911.45026-1.4812.45026-.8713.45026-1.6555.45026-2.0911.45026-.95843.45026-1.5683.45026-1.0456.45026-2.2654.45026-1.2198.45026-2.701.45026-1.0456.45026-3.2238.45026-1.6555.45026-3.3109.45026-.95843.90052-2.701.45026-2.2654.45026-1.3941.90052-6.012.45026-1.8297.45026-.43565.45026-3.1367.45026-1.1327.45026-2.3525 1.3508-4.5307 1.3508-18.733 1.3508-27.62.45026-13.766 1.801-36.856.90052-12.111.90052-4.4436.45026 1.0456.45026 3.7466.90052 17.6 1.3508 28.23.90052 19.43 1.3508 21.521.45026 5.2278 1.801 25.355 1.3508 14.638 1.3508 10.804.45026 2.2654.45026 3.3981 3.1518 14.115.45026 1.1327.45026.69704.45026 1.1327.45026.60991h.45026l.60034.26139.60034.8713.15009-.08713.30017-.52278.30017.43565.15009-.08713.30017.26139.30017-.60991.15009-.52278.15009.17426.15009-.78417.15009-.17426h.15009l.15009.17426.15009-.17426.15009.087129.15009-.43565.15009.34852.45026-1.2198.15009.17426.15009-.08713.15009-.43565.15009.08713.30017-.78417.15009-.17426.30017-.8713.15009-.08713.30017-.52278.15009-.08713.30017-1.3941.15009.08713.30017-.43565.15009.08713.60034-1.2198.45026-2.701h.15009l.60034-2.3525.15009-.8713.15009-.17426.15009-.52278h.15009l.75043-2.8753.30017-.95843.15009-.52278.15009-1.0456.15009-.087129 1.0506-5.5763.45026-1.2198.30017-.69704.15009.17426.30017-2.0911.15009-.34852.30017-1.3941.15009-.34852.30017-2.004.15009-1.0456.45026-.8713.30017-1.7426.15009-.087129.15009.17426.15009-.08713.30017-1.3941.45026-1.4812.15009-1.6555.15009.26139 1.3508-7.406h.15009l.15009-.17426.15009-.43565.15009-.78417.15009.69704.15009-1.0456.15009.26139 1.3508-10.281 1.0506-17.774.75043-18.907.30017-11.153.45026-8.1031 1.0506-22.741.30017-9.5843.45026-8.0159.45026-4.1822.15009-3.2238.15009-.52278.15009.43565.60034-2.8753.15009-.34852.15009-1.0456.15009-.087129.30017.8713 1.3508 22.915.30017 4.7921.15009.78417.60034 12.547.45026 9.5843.90052 15.683.45026 6.8832.60034 11.327 2.1012 31.192.45026 3.5723 2.1012 17.426.60034 3.7466.15009 1.3069.15009.26139.30017 1.2198 1.2007 6.6219.30017 1.9169.15009.78417.30017 2.3525.60034 2.4396.15009 1.6555.30017.43565.60034 2.9624.30017.69704.15009.17426.15009.60991.15009-.26139.30017.95843.15009.52278.15009.08713.60034 2.2654.45026.52278.15009-.08713.15009.43565.30017.08713.15009.26139.30017-.17426.15009.43565.15009-.34852.45026.34852.30017-.60991.15009-.43565.30017.17426.30017-.43565.60034-1.5683.30017-.69704.30017.26139.30017-.26139.60034-.95843.30017.43565.30017-1.2198.60034-3.2238.30017-1.3941.30017-.26139.30017-.95843.60034-.34852.60034-2.0911.30017-.08713.60034-3.3109.30017-.26139.30017-.78417h.30017l.30017-1.1327.30017-2.1782.90052-3.2238.60034-2.9624.30017-2.2654.30017-.52278.60034-2.0911.60034-3.7466.30017.087129.60034-1.4812.60034-4.008.90052-5.8377.30017-1.1327.30017-1.7426h.30017l.60034-3.1367.30017-.69704.60034-2.004.30017-.95843.30017-1.9169.30017-.8713.90052-11.24.90052-17.426 2.4014-66.219.60034-11.763.30017-4.1822.60034-10.194.30017-3.3109.90052-5.5763h.30017l.30017 1.1327.30017 1.7426.90052 7.406.90052 16.206.30017-3.1367.60034 14.376.60034 10.63 1.5009 28.84 1.2007 21.957.60034 11.414 2.1012 30.408.90052 7.5803.90052 6.0991.30017 2.8753.60034 2.9624.30017 2.5268.30017 1.1327.60034 3.8337.30017.8713.30017-.17426.30017.087129.30017.43565.30017 1.0456.30017.60991.30017 1.3069.30017-1.1327.30017-.43565.30017.60991.30017-.26139.30017.69704.30017-.34852.60034.26139.60034-2.2654.60034.087129.30017-1.5683.30017-.8713.30017-1.3941.30017.34852.30017-1.3069.30017-.60991 1.801-6.5347.30017-2.2654.60034-2.3525.30017-1.2198.60034-5.0535.30017-3.7466.30017-2.2654.30017-.8713 1.5009-11.153.30017-1.3941.60034-3.5723.30017-.43565.30017-2.4396.60034-2.4396.30017-1.7426.30017-.60991.30017.34852.30017-.69704.30017-1.6555.30017-.78417.60034-2.1782.30017-.34852.30017.26139.30017-.26139.30017.69704.30017 2.2654.30017-.08713.30017.17426.30017-.34852.30017-.60991.30017.69704.30017-.08713.30017-.26139.30017-1.3941h.60034l.30017-2.8753 1.2007-17.339.90052-20.737.30017-12.198 1.2007-25.703.90052-20.388.60034-9.9328.30017-7.1446.30017-3.3109.30017-.60991.60034-4.0951.30017-.34852.30017.52278.30017 1.4812.30017.52278.30017 3.5723.60034 2.9624.60034 7.0575.30017 7.7545.60034 8.1031.60034 8.9744.60034 14.028.60034 12.721 3.3019 58.9 1.801 23.438.30017 3.0495.90052 5.5763.90052 7.3189 1.2007 8.0159 1.2007 4.6179.30017.60991.30017 2.004.30017-.087129.30017.52278.60034 1.3941.30017.26139.30017.52278.60034-.34852.60034-1.0456.30017-1.3069.60034.087129.30017-1.1327.30017-1.6555.60034-1.1327.30017.17426.30017-2.004.30017-1.0456.30017-1.9169.30017-.34852.30017-2.6139.30017-1.0456.30017-.34852.90052-3.0495.30017-3.3109.60034-9.1486.30017-2.4396 1.2007-13.941.90052-5.9248.90052-2.6139.30017-1.3941.30017-3.0495.30017-1.5683.60034-3.5723.60034-3.7466.30017-.43565.30017-1.2198h.30017l.30017-1.2198.30017.78417.30017-1.7426.30017.34852.30017.78417.30017 1.2198.90052 1.7426.30017-.26139.30017 2.6139.90052 2.6139.30017.17426.30017 1.1327.30017-.43565.30017-1.2198 1.2007-14.464.90052-18.994.60034-13.069 1.801-33.893 1.2007-10.368.30017 1.9169.30017.78417.30017.26139.30017 1.1327.60034 5.402.90052 20.388.30017 4.3565 1.2007 26.139.30017 2.9624.30017 6.7961.30017 3.6594.90052 18.036.90052 12.634.60034 10.804.60034 7.4932.30017 1.2198.90052 10.456 1.2007 7.5803.30017 1.4812 1.2007 9.8457.30017 1.3941.60034 1.4812.30017 2.6139.30017 1.2198.60034 3.1367 2.4014 7.5803.30017-.17426.30017.69704.30017.26139.30017.52278.30017.08713.30017-.08713.30017-.43565.30017-.08713.30017.43565.30017-.60991.30017-.08713.30017-.26139.30017.17426.30017.43565h.30017l.60034-.8713.30017.43565.30017-.78417.30017-.08713.30017-1.0456.30017.17426.30017-.08713.30017-1.5683.30017-.69704.30017-1.3941.60034-1.0456.60034-1.6555.60034-4.2694.30017-.34852.90052-3.6594.30017-.52278.90052-3.1367.30017-.78417.30017-.087129.60034-2.2654.30017-.52278.30017-1.2198.30017-1.8297.60034-1.9169.30017-2.8753.90052-2.6139.30017-.34852.30017-1.0456.30017-.08713 2.1012-11.065.30017-.78417.30017-.17426.90052-4.9664.60034-6.3605.30017-4.008.90052-15.248.60034-10.107 1.801-42.258.60034-9.9328.30017-7.406.60034-6.2733.60034-5.6634.90052-2.4396.30017 1.3941.30017 2.004.60034 8.2773.30017 8.1902.60034 9.6714 1.801 38.686 1.2007 19.953.60034 7.5803.60034 8.4516 2.4014 24.832.60034 3.7466.60034 3.5723.60034 3.9208.30017.95843.60034 2.701.30017.69704 3.0017 12.721h.30017l.30017.43565.30017 1.4812.30017-.26139.30017.95843.30017.08713.30017 1.3941.60034.34852.30017.34852.60034.34852.90052-.52278.30017-.78417.30017-.26139.30017-.69704.60034.34852.30017-.17426.30017.26139.60034.08713.30017-.08713.30017.60991.30017-.34852.90052-3.8337.60034-1.2198.60034-1.6555.30017-1.2198.30017-.43565.90052-2.7882.30017-2.6139.60034-2.8753.30017-.95843.30017-1.3941.60034-1.6555.90052-4.0951.30017-1.5683.30017-.26139h.30017l.30017-.69704.30017-1.2198.30017-1.8297.30017-.95843.60034-2.7882.30017-2.004.30017-.69704.60034-2.701.30017.17426.30017-2.0911.60034-2.7882.60034-4.008h.30017l.60034-2.6139.30017-2.0911.30017-.60991.30017-2.0911.60034-11.763.60034-10.368.30017-6.2733 1.2007-34.678.60034-12.721.90052-19.169 1.2007-11.24.30017-.17426.60034-1.3069.30017 1.2198.30017 2.5268.90052 13.854.30017 3.5723 2.4014 49.315.30017 3.2238 1.5009 26.139 1.5009 17.687.90052 10.281.30017 1.8297.60034 5.402.90052 5.3149.90052 6.0991.30017 1.1327.90052 5.2278.30017.8713.30017 1.2198.30017.34852.30017 1.2198.30017 1.7426.90052 2.3525.60034.95843.30017 1.0456.30017.60991.30017 1.3941.30017.78417.30017.34852.30017.69704.30017-.26139.30017.17426.30017-.34852.30017-.17426.30017-.52278m.60034 2.4396.30017 1.3941.30017-.08713.30017.26139.60034-1.5683.30017-.08713.30017-.52278.30017.17426.30017-.8713.30017.087129.60034-2.5268.30017-.78417h.30017l.30017-.8713.30017-2.0911.30017-.26139.30017-.95843.30017-1.4812.30017-.34852.30017-1.1327.30017-.69704.90052-4.6179.60034-2.4396.30017.17426.30017-1.1327.30017-2.6139.60034-2.9624.30017-1.4812.30017-2.5268.30017-1.4812.30017-2.1782.60034-2.2654.60034-2.5268.30017-.34852.30017-.69704.30017-1.1327.30017.087129.60034-2.7882.30017.08713.60034-5.3149.60034-4.0951.60034.17426.30017-2.4396.30017-1.3069.30017-3.3981.30017-1.6555.30017-2.5268 1.5009-22.305.30017-5.7506.90052-23.961 1.801-42.084 1.2007-15.858.30017-.52278.60034.78417.30017 1.8297.60034 5.8377.30017 5.2278.90052 19.778.60034 11.153.60034 16.38.60034 10.891.30017 2.9624 3.0017 47.311 1.2007 9.2358.30017 2.1782.60034 4.9664.60034 4.1822 1.2007 7.5803.30017.69704.90052 4.8793.30017.60991 1.2007 6.3605.90052 2.8753.30017.60991.30017.8713.60034.8713.60034 2.2654.30017 1.3941.30017.69704.60034.60991.30017-.43565.30017-.78417.30017-.34852.30017.52278.30017-.8713.30017.087129.30017.69704.30017-.52278.30017.43565.90052-1.4812.90052-2.5268.30017-.52278.60034-2.1782.30017-.69704.60034-2.7882.30017.26139.30017-1.5683.30017-.52278.30017-.8713.60034-2.2654.30017-.52278.60034-2.004.30017-2.0911.30017-.43565 1.2007-5.1407.30017-.78417.30017-1.3941.30017-.78417.60034-2.7882.60034-2.004.60034-2.3525.60034-2.0911.30017-2.4396.30017-.34852.30017-1.2198.30017-2.701.90052-3.6594.30017-.43565.30017-.17426.30017-1.1327.30017-2.6139.60034-6.709.60034-5.4892.90052-16.99 1.801-33.196.30017-7.5803.30017-4.5307 1.2007-29.188.60034-11.24.30017-4.8793.30017-2.7882.30017-.34852.30017-5.1407.30017-2.1782.30017-.08713.60034 2.3525.30017 5.0535.60034 15.248.30017 4.7921.90052 20.388.30017 9.9328.90052 17.862.60034 11.588.60034 10.281.30017 3.8337.60034 10.02 1.5009 20.04.60034 6.1862 1.5009 13.766.30017 2.004.60034 2.7882.90052 5.4892 2.4014 12.198.30017-.08713.60034 2.4396.60034 1.4812.30017.34852.30017 1.0456.30017-.17426 1.5009 2.7882.30017-.17426.30017.52278.90052-.17426.60034-.78417.60034-.34852.30017-1.2198.30017-.17426h.30017l.30017-.43565.30017.52278.30017.08713.30017-.52278.60034-2.4396.60034-2.7882 2.1012-7.4932h.30017l.60034-1.7426.30017-1.6555.30017-.43565.60034-3.8337.30017.087129.30017-.69704.30017-.34852.30017-1.3069.30017-.08713 1.2007-8.4516.30017-1.4812.30017-.8713.30017-.43565.60034-2.4396.30017-.34852.30017-.95843.30017-2.7882.90052-4.0951.60034-2.5268.30017-.08713.30017-.26139.60034-2.7882.30017-2.004 1.2007-13.244 1.5009-27.62.60034-17.426 2.4014-58.028.30017-5.3149.60034-5.4892.30017-3.8337.30017-.69704.30017-2.7882.30017 2.5268.30017-.17426.90052 9.4971.30017 1.6555.60034 9.1486 4.5026 88.262 2.1012 28.143.60034 5.3149.30017 4.0951 1.2007 8.9744.30017 1.4812.30017 3.7466.30017.60991.30017 2.4396.30017 1.3069.30017 2.0911.30017.78417.30017 2.0911.30017.69704.60034 2.5268.30017.8713.60034.78417.30017-.087129.60034.087129.30017-.26139.30017.17426.30017-.17426.30017-.43565.30017-.8713.30017-.52278.30017-.26139.60034-2.004.30017-.26139.30017-1.4812.30017-.087129.60034-2.7882.60034-3.6594.30017-1.2198.30017.43565.30017-.17426.90052-3.9208.30017.26139.30017-1.6555.30017-.34852.30017-1.2198.60034-8.9744 1.2007-9.8457.30017-1.3069.30017-2.5268.30017-3.7466.60034-2.7882.60034-4.1822.60034-3.8337.30017-3.1367.60034-2.0911.30017-.52278.30017-.8713.30017-.43565h.30017l.30017-.26139.30017.69704.30017.26139.30017.52278.60034-.08713.30017.08713.30017 1.3941.30017 2.1782.30017-.78417.30017 1.1327.30017 2.0911.30017-2.5268.30017.17426.30017-.52278.30017-1.7426.30017-3.3109.30017-1.4812.30017-.8713.30017-2.9624.30017-6.4476.30017-2.7882 1.2007-24.745.30017-10.978.60034-11.24 1.5009-36.072 1.2007-23.002.90052-6.9704.30017-.43565.30017-.78417 1.2007 9.1486.30017 3.7466 2.7016 47.921 1.2007 24.745.60034 9.5843 2.4014 42.694 1.5009 16.816 1.801 15.248 1.2007 6.3605.30017 2.2654.30017 1.1327.90052 5.2278.30017.34852.30017.78417.30017 1.4812.30017.17426.30017-.17426.30017.08713.30017-.26139.30017.26139.30017-.60991.30017-.34852.30017-.52278 1.2007-3.7466.30017-.60991.60034-2.3525.60034-2.1782.60034-2.6139.30017-.34852.30017.26139.30017-2.3525.30017-.08713.30017-1.4812.30017-2.3525.30017-3.3109.30017-.17426.90052-7.3189.60034-2.5268.30017-1.7426.90052-8.3645.30017-4.0951.30017-1.1327.60034-4.4436.30017-.60991.60034-5.2278.60034-2.9624.30017-1.3941.60034-3.7466.30017-.43565.30017.43565.60034-2.1782.30017-.08713.90052-1.7426.30017-1.1327.30017.8713.60034 3.1367.30017 2.4396.30017-.17426h.30017l.60034 4.008.30017-2.6139.30017.26139 1.5009-15.161.30017-3.7466.60034-10.891.90052-24.571 1.5009-29.624.90052-11.85.60034-3.3109.30017.60991.30017.087129.30017-.95843.30017-.17426.30017 3.2238.30017 4.8793.30017 9.3229.60034 11.588 1.5009 34.59.30017 3.6594.60034 11.763 1.801 30.408 1.5009 22.131.60034 6.6219.60034 4.8793.30017 2.8753.30017 1.6555.60034 4.2694 5.1029 24.658.30017.43565.30017 1.3941.60034 1.1327.30017.17426 1.5009 3.1367.30017-.26139.30017-.08713.30017-.34852.30017.26139.90052-.17426.60034-1.1327.60034-.69704.90052-.17426.30017-.52278.30017-.78417.30017-.34852.60034-2.6139.30017.087129.30017-.43565.30017-.8713.60034-2.6139.60034-3.2238 1.2007-2.9624.30017-2.1782.60034-2.8753.30017-.08713.60034-2.9624.30017-.52278.30017-2.4396.60034-2.4396 1.2007-4.7921.30017-.34852.30017-2.701.30017-.78417.30017-.26139.60034-5.2278.30017-.8713.30017-1.5683.60034-1.3069.30017-1.4812.30017-2.5268.60034-2.8753.30017-.43565.90052-7.8417 2.7016-54.456 1.5009-33.196 1.2007-13.854.60034-2.701.30017.78417.30017.43565.90052 10.456 2.7016 55.589 3.3019 49.315.30017 2.004 1.801 17.252.60034 3.8337.90052 4.0951.90052 5.9248.30017.69704.60034 2.5268 1.2007 4.4436.30017 1.6555.90052 2.5268.30017.26139.60034 1.7426.30017.08713.60034 1.7426.30017.34852.90052 2.4396.60034.08713.60034-.78417.30017.17426.30017-.34852.30017-.78417.30017-.26139.30017-.52278.30017-.95843.30017.34852.60034-.60991.30017-1.8297.30017.17426.30017-.8713.30017.087129.30017-1.5683.30017-.69704.30017-.34852.30017-1.3069.30017-.52278.60034-2.5268.30017-2.3525.30017-1.0456.30017-1.4812.30017-.34852.30017-1.9169.30017-.69704.90052-4.3565.30017-1.1327.60034-1.3069.30017-1.7426.30017.17426.30017-1.2198.30017-.69704h.30017l1.2007-7.2318.30017-.52278.30017-1.7426.90052-2.5268.30017-1.0456h.30017l.90052-6.012.30017-.34852 1.5009-8.1902 1.2007-12.285.90052-16.555.90052-22.131.90052-21.957.30017-3.3109.30017-6.012.30017-8.4516 1.5009-17.862.30017-.26139.30017-1.2198.30017-.34852.90052 7.5803.60034 12.808.60034 9.6714 2.1012 37.727.60034 12.982.60034 10.107.90052 11.501.60034 11.24.60034 7.3189 1.2007 10.194.60034 4.4436 1.2007 9.6714.30017.8713.30017 1.3069.30017.78417 1.2007 6.4476.30017 1.1327.60034 1.1327.60034 2.004.30017.69704.30017 1.9169.30017.69704.30017-.43565.60034.95843.30017.17426.30017.8713.30017 1.6555.30017-.17426.30017.26139.60034.69704.30017.17426h.30017l.60034.34852.30017-.8713.30017-.52278.30017.95843.30017-.17426.60034-1.2198.30017-.087129.30017-.34852.30017-.52278.30017.69704.90052-1.3941.30017-2.004.30017-.8713.30017-.34852.30017-.52278.90052-3.8337.30017-1.9169.60034-2.1782.30017-1.3941.30017-.60991.30017-.95843.90052-5.5763.30017-.69704.60034-3.8337.30017-2.0911 1.2007-3.3981.60034-3.0495.60034-5.1407.30017-.69704 1.2007-7.0575.30017-2.9624.30017-.69704.60034-2.701.30017 1.2198.30017-.95843.30017-.26139.30017-.78417.30017.08713.30017-.52278.30017-1.3941.60034-9.5843 1.2007-17.774.60034-16.032.30017-10.281.30017-5.402 1.2007-29.363.90052-15.77.60034-6.709h.30017l.30017-.17426.30017-1.6555.60034 2.4396.30017 1.7426.30017 3.5723.90052 19.169 1.2007 25.268.90052 20.04 2.1012 33.806.30017 3.0495.30017 6.0991 1.801 19.43 1.2007 8.0159 1.2007 6.3605.60034 3.6594 1.801 8.4516.30017.60991.30017 1.9169.60034 1.7426.60034 2.0911.30017.60991.30017 1.6555 1.2007 3.1367.30017 1.2198.30017-.26139.30017.34852.30017-.087129.30017-.26139.30017-.8713.30017 1.0456.30017-.78417.30017-.26139v0" clip-path="url(#c)" fill="none" stroke="#28f" stroke-linecap="square" stroke-width="1.5"/>
   </g>
   <g id="cu">
    <path d="m52 259.78v-232.9" fill="none" stroke="#000" stroke-linecap="square" stroke-width=".8"/>
   </g>
   <g id="cv">
    <path d="m853.2 259.78v-232.9" fill="none" stroke="#000" stroke-linecap="square" stroke-width=".8"/>
   </g>
   <g id="cw">
    <path d="m52 259.78h801.2" fill="none" stroke="#000" stroke-linecap="square" stroke-width=".8"/>
   </g>
   <g id="cx">
    <path d="m52 26.88h801.2" fill="none" stroke="#000" stroke-linecap="square" stroke-width=".8"/>
   </g>
   <g id="cy">
    <!-- 同時接続数の推移 -->
    <g transform="translate(404.6 20.88) scale(.12 -.12)">
     <defs>
      <path id="x" transform="scale(.015625)" d="m1587 3936h3232v-518h-3232v518zm320-1114h557v-2534h-557v2534zm301 0h2291v-2086h-2291v512h1734v1069h-1734v505zm-1683 2260h5113v-570h-4524v-5056h-589v5626zm4768 0h595v-4896q0-250-67-397t-227-218q-160-77-426-96t-675-19q-13 83-45 192t-77 218q-45 108-89 185 281-13 527-13 247 0 330 0 83 7 118 42 36 35 36 112v4890z"/>
      <path id="v" transform="scale(.015625)" d="m2714 4672h3238v-525h-3238v525zm-244-1235h3712v-538h-3712v538zm20-1184h3635v-531h-3635v531zm1523 3155h595v-2310h-595v2310zm832-2451h589v-2823q0-230-61-364-61-135-227-199-167-70-423-86t-633-16q-20 121-78 285-57 163-121 284 275-6 509-9t310-3q77 6 106 28 29 23 29 93v2810zm-2023-1677 487 282q153-160 313-352t294-381q135-189 206-343l-519-313q-64 153-189 348-124 196-278 394-154 199-314 365zm-2086 3718h1619v-4281h-1619v544h1056v3187h-1056v550zm32-1843h1293v-537h-1293v537zm-320 1843h563v-4832h-563v4832z"/>
      <path id="w" transform="scale(.015625)" d="m3866 5408h614v-870h-614v870zm-1479-653h3597v-518h-3597v518zm-230-1485h4e3v-518h-4e3v518zm825 922 519 102q64-160 121-342 58-182 96-352 39-170 45-304l-544-128q-6 134-42 313-35 180-83 365-48 186-112 346zm1856 109 589-71q-96-275-202-557-105-281-195-486l-518 77q58 147 122 329 64 183 118 372t86 336zm-2643-2106h3943v-518h-3943v518zm1408 685 602-115q-167-371-362-784t-390-797-362-685l-525 179q160 288 346 666t368 784 323 752zm-659-2157 358 403q352-102 733-240 381-137 752-304 371-166 697-336 327-169 558-329l-384-461q-218 160-532 336-313 176-685 345-371 170-755 323-384 154-742 263zm1894 1114 583-71q-122-550-353-944-230-393-604-662t-922-435q-547-167-1296-269-25 128-93 269-67 141-137 230 678 64 1168 192t819 349q330 221 531 550 202 330 304 791zm-4684 217q396 90 953 240 557 151 1120 311l77-544q-525-154-1053-311-528-156-963-284l-134 588zm121 2093h1965v-563h-1965v563zm819 1248h576v-5229q0-236-51-374t-192-208q-141-77-355-99-214-23-541-16-13 115-64 288t-109 294q205-6 381-6t234 0q64 0 92 28 29 29 29 93v5229z"/>
      <path id="u" transform="scale(.015625)" d="m4058 5408h595v-1798h-595v1798zm-1415-563h3443v-499h-3443v499zm231-992h3008v-499h-3008v499zm-224-877h3475v-1203h-531v729h-2432v-729h-512v1203zm1964-877h551v-1881q0-122 22-157 23-35 106-35 25 0 92 0 68 0 135 0t99 0q51 0 83 54t45 224 19 515q90-70 234-131t259-93q-19-429-83-662-64-234-183-326-118-93-316-93-39 0-103 0t-134 0-138 0q-67 0-99 0-237 0-365 64t-176 218q-48 153-48 422v1881zm-1164-6h550v-455q0-243-48-528-48-284-186-579-137-294-409-572-272-279-727-503-70 90-192 208-121 118-230 195 416 205 665 438 250 234 371 474 122 240 164 467 42 228 42 413v442zm-2240 3309 524-192q-121-244-259-503-137-259-275-496t-259-416l-410 173q122 186 246 438 125 253 240 515 116 263 193 481zm716-743 500-230q-224-359-496-756-272-396-548-764-275-368-518-650l-358 205q179 211 377 483 199 272 387 569 189 298 358 592 170 295 298 551zm-1721-665 307 403q166-154 339-340 173-185 320-364t224-327l-326-460q-77 160-218 348-141 189-314 384-172 196-332 356zm1485-832 435 179q128-211 249-458 122-246 215-474 93-227 137-412l-473-211q-32 185-119 422-86 237-201 486-115 250-243 468zm-1530-583q422 26 998 54 576 29 1184 68l7-499q-570-45-1127-84-556-38-992-70l-70 531zm1702-992 436 135q121-276 214-596t118-556l-454-148q-26 237-112 563-86 327-202 602zm-1363 109 499-83q-57-455-163-897-105-441-253-748-51 32-134 73-83 42-170 83-86 42-144 62 148 294 234 697t131 813zm691 627h525v-2861h-525v2861z"/>
      <path id="p" transform="scale(.015625)" d="m224 2022h3187v-499h-3187v499zm51 2247h3111v-487h-3111v487zm1127-1735 563-121q-154-320-333-672t-352-679q-173-326-326-582l-532 173q148 243 324 566t345 669q170 346 311 646zm934-832 563-64q-89-480-262-838t-461-614-701-432-976-298q-25 128-99 269t-157 237q659 102 1085 303 426 202 666 554t342 883zm422 3597 519-211q-147-218-298-436-150-217-278-377l-403 186q121 173 252 413 132 240 208 425zm-1203 109h563v-2957h-563v2957zm-1075-320 448 186q134-192 246-420 112-227 157-393l-467-211q-38 172-147 406t-237 432zm1094-1050 397-236q-160-263-400-529-240-265-519-489-278-224-553-378-51 103-141 237-89 135-179 218 269 109 534 294 266 186 493 416 228 231 368 467zm487-204q83-45 246-145 163-99 352-211t346-211 221-150l-327-423q-83 77-230 198-147 122-317 253-170 132-327 250-156 119-259 189l295 250zm1798 396h2311v-556h-2311v556zm115 1178 615-90q-103-640-263-1235t-384-1101q-224-505-512-889-44 57-134 134t-186 157-166 125q275 339 473 796 199 458 340 995 141 538 217 1108zm1223-1510 614-58q-147-1101-445-1940-297-838-813-1443-515-604-1321-1014-26 71-90 177-64 105-134 208-70 102-128 159 742 346 1212 880 471 535 730 1290 260 755 375 1741zm-1005-135q134-851 387-1597 253-745 659-1305 407-560 1002-874-70-57-154-150-83-93-154-189-70-96-121-179-633 371-1056 988-422 618-688 1434-265 816-425 1783l550 89zm-3309-3065 327 416q377-148 754-330 378-182 701-378 324-195 548-368l-416-435q-211 179-519 378-307 198-666 383-358 186-729 334z"/>
      <path id="t" transform="scale(.015625)" d="m3686 4378q-64-493-163-1041-99-547-265-1084-192-653-432-1104t-522-688-595-237q-320 0-596 221-275 221-448 621-172 400-172 931 0 537 220 1017 221 480 611 851 391 372 909 583 519 211 1121 211 576 0 1040-186 464-185 793-515 330-329 502-771 173-441 173-941 0-672-278-1194-278-521-816-851-538-329-1318-444l-378 601q166 20 307 42t263 48q307 70 585 217 279 148 496 375 218 227 342 534 125 308 125 692t-122 713q-121 330-358 573-236 243-582 380-346 138-781 138-525 0-935-186-409-185-694-489-284-304-432-656-147-352-147-678 0-365 89-605 90-240 224-355 135-115 276-115t288 144 297 457q151 314 298 800 147 461 246 982 100 522 145 1021l684-12z"/>
      <path id="q" transform="scale(.015625)" d="m2995 2925h2893v-519h-2893v519zm0-1280h2893v-519h-2893v519zm-64-1299h3232v-557h-3232v557zm1312 3577h563v-3763h-563v3763zm429 1466 634-141q-154-390-340-794-185-403-339-684l-512 140q103 199 208 458 106 259 195 528 90 269 154 493zm-1472 25 582-147q-153-518-371-1018-217-499-483-931t-573-758q-38 64-109 160-70 96-147 198-77 103-141 160 416 416 733 1034t509 1302zm128-1203h2720v-537h-2720v-4205h-582v4422l313 320h269zm-3174-2157q396 90 953 240 557 151 1120 311l77-544q-525-154-1053-311-528-156-963-284l-134 588zm121 2093h1965v-563h-1965v563zm819 1248h576v-5229q0-236-51-374t-192-208q-141-77-355-99-214-23-541-16-13 115-64 288t-109 294q205-6 381-6t234 0q64 0 92 28 29 29 29 93v5229z"/>
      <path id="o" transform="scale(.015625)" d="m4051 5402 595-109q-281-493-729-941t-1107-806q-39 64-106 144t-141 153q-73 74-137 119 608 288 1011 678t614 762zm-77-557h1511v-493h-1863l352 493zm1293 0h109l109 25 384-179q-192-505-496-905t-695-701q-390-301-845-519-454-217-947-358-44 109-137 253t-176 227q448 109 867 294 419 186 777 445 359 259 631 592t419 730v96zm-1990-954 377 307q167-96 336-218 170-121 320-249 151-128 247-237l-397-332q-90 108-237 236t-317 259q-169 132-329 234zm1107-934 595-109q-307-538-803-1031-496-492-1232-876-38 64-102 144t-138 156q-74 77-138 116 455 217 807 483t604 554q253 288 407 563zm-90-589h1460v-506h-1818l358 506zm1268 0h121l109 26 384-167q-192-614-531-1075t-787-794q-448-332-983-553-534-221-1129-355-45 115-132 269-86 153-176 249 551 96 1043 285 493 189 903 473 410 285 714 669t464 883v90zm-2132-1056 410 339q186-102 384-237 198-134 371-275t282-269l-435-371q-103 128-270 272-166 144-361 288t-381 253zm-2150 3533h589v-5376h-589v5376zm-992-1242h2336v-569h-2336v569zm1024-224 365-160q-96-339-231-707-134-368-291-727-157-358-336-672-179-313-365-537-44 128-134 291t-160 272q173 192 339 457 167 266 323 570 157 304 282 618t208 595zm941 1946 416-467q-314-122-695-221-380-99-784-173-403-74-780-131-20 102-71 236-51 135-102 231 358 58 732 138 375 80 711 179t573 208zm-397-2579q58-45 179-170 122-125 266-266 144-140 259-265t160-183l-352-473q-58 102-157 255-99 154-218 317-118 164-227 311-108 147-185 237l275 237z"/>
     </defs>
     <use xlink:href="#x"/>
     <use transform="translate(100)" xlink:href="#v"/>
     <use transform="translate(200)" xlink:href="#w"/>
     <use transform="translate(300)" xlink:href="#u"/>
     <use transform="translate(400)" xlink:href="#p"/>
     <use transform="translate(500)" xlink:href="#t"/>
     <use transform="translate(600)" xlink:href="#q"/>
     <use transform="translate(700)" xlink:href="#o"/>
    </g>
   </g>
  </g>
  <g id="cz">
   <g id="da">
    <path d="m52 523.06h801.2v-232.9h-801.2z" fill="#fff"/>
   </g>
   <g id="db">
    <path d="m138.54 523.06h.90052v-232.9h-.90052z" clip-path="url(#d)" fill="#808080" opacity=".3" stroke="#808080"/>
   </g>
   <g id="dc">
    <path d="m470.08 523.06h.60034v-232.9h-.60034z" clip-path="url(#d)" fill="#808080" opacity=".3" stroke="#808080"/>
   </g>
   <g id="dd">
    <g id="de">
     <g id="df">
      <path d="m106.57 523.06v-232.9" clip-path="url(#d)" fill="none" stroke="#b0b0b0" stroke-linecap="square" stroke-opacity=".3" stroke-width=".8"/>
     </g>
     <g id="dg">
      <use x="106.574105" y="523.055464" stroke="#000000" stroke-width=".8" xlink:href="#e"/>
     </g>
     <g id="dh">
      <!-- 2025-07-01 -->
      <g transform="translate(59.785 563.33) rotate(-30) scale(.1 -.1)">
       <defs>
        <path id="g" transform="scale(.015625)" d="m301 1536v544h1689v-544h-1689z"/>
       </defs>
       <use xlink:href="#b"/>
       <use transform="translate(57)" xlink:href="#a"/>
       <use transform="translate(114)" xlink:href="#b"/>
       <use transform="translate(171)" xlink:href="#j"/>
       <use transform="translate(228)" xlink:href="#g"/>
       <use transform="translate(263.7)" xlink:href="#a"/>
       <use transform="translate(320.7)" xlink:href="#i"/>
       <use transform="translate(377.7)" xlink:href="#g"/>
       <use transform="translate(413.4)" xlink:href="#a"/>
       <use transform="translate(470.4)" xlink:href="#f"/>
      </g>
     </g>
    </g>
    <g id="di">
     <g id="dj">
      <path d="m193.02 523.06v-232.9" clip-path="url(#d)" fill="none" stroke="#b0b0b0" stroke-linecap="square" stroke-opacity=".3" stroke-width=".8"/>
     </g>
     <g id="dk">
      <use x="193.023733" y="523.055464" stroke="#000000" stroke-width=".8" xlink:href="#e"/>
     </g>
     <g id="dl">
      <!-- 2025-07-03 -->
      <g transform="translate(146.23 563.33) rotate(-30) scale(.1 -.1)">
       <use xlink:href="#b"/>
       <use transform="translate(57)" xlink:href="#a"/>
       <use transform="translate(114)" xlink:href="#b"/>
       <use transform="translate(171)" xlink:href="#j"/>
       <use transform="translate(228)" xlink:href="#g"/>
       <use transform="translate(263.7)" xlink:href="#a"/>
       <use transform="translate(320.7)" xlink:href="#i"/>
       <use transform="translate(377.7)" xlink:href="#g"/>
       <use transform="translate(413.4)" xlink:href="#a"/>
       <use transform="translate(470.4)" xlink:href="#n"/>
      </g>
     </g>
    </g>
    <g id="dm">
     <g id="dn">
      <path d="m279.47 523.06v-232.9" clip-path="url(#d)" fill="none" stroke="#b0b0b0" stroke-linecap="square" stroke-opacity=".3" stroke-width=".8"/>
     </g>
     <g id="do">
      <use x="279.473362" y="523.055464" stroke="#000000" stroke-width=".8" xlink:href="#e"/>
     </g>
     <g id="dp">
      <!-- 2025-07-05 -->
      <g transform="translate(232.68 563.33) rotate(-30) scale(.1 -.1)">
       <use xlink:href="#b"/>
       <use transform="translate(57)" xlink:href="#a"/>
       <use transform="translate(114)" xlink:href="#b"/>
       <use transform="translate(171)" xlink:href="#j"/>
       <use transform="translate(228)" xlink:href="#g"/>
       <use transform="translate(263.7)" xlink:href="#a"/>
       <use transform="translate(320.7)" xlink:href="#i"/>
       <use transform="translate(377.7)" xlink:href="#g"/>
       <use transform="translate(413.4)" xlink:href="#a"/>
       <use transform="translate(470.4)" xlink:href="#j"/>
      </g>
     </g>
    </g>
    <g id="dq">
     <g id="dr">
      <path d="m365.92 523.06v-232.9" clip-path="url(#d)" fill="none" stroke="#b0b0b0" stroke-linecap="square" stroke-opacity=".3" stroke-width=".8"/>
     </g>
     <g id="ds">
      <use x="365.922991" y="523.055464" stroke="#000000" stroke-width=".8" xlink:href="#e"/>
     </g>
     <g id="dt">
      <!-- 2025-07-07 -->
      <g transform="translate(319.13 563.33) rotate(-30) scale(.1 -.1)">
       <use xlink:href="#b"/>
       <use transform="translate(57)" xlink:href="#a"/>
       <use transform="translate(114)" xlink:href="#b"/>
       <use transform="translate(171)" xlink:href="#j"/>
       <use transform="translate(228)" xlink:href="#g"/>
       <use transform="translate(263.7)" xlink:href="#a"/>
       <use transform="translate(320.7)" xlink:href="#i"/>
       <use transform="translate(377.7)" xlink:href="#g"/>
       <use transform="translate(413.4)" xlink:href="#a"/>
       <use transform="translate(470.4)" xlink:href="#i"/>
      </g>
     </g>
    </g>
    <g id="du">
     <g id="dv">
      <path d="m452.37 523.06v-232.9" clip-path="url(#d)" fill="none" stroke="#b0b0b0" stroke-linecap="square" stroke-opacity=".3" stroke-width=".8"/>
     </g>
     <g id="dw">
      <use x="452.372619" y="523.055464" stroke="#000000" stroke-width=".8" xlink:href="#e"/>
     </g>
     <g id="dx">
      <!-- 2025-07-09 -->
      <g transform="translate(405.58 563.33) rotate(-30) scale(.1 -.1)">
       <use xlink:href="#b"/>
       <use transform="translate(57)" xlink:href="#a"/>
       <use transform="translate(114)" xlink:href="#b"/>
       <use transform="translate(171)" xlink:href="#j"/>
       <use transform="translate(228)" xlink:href="#g"/>
       <use transform="translate(263.7)" xlink:href="#a"/>
       <use transform="translate(320.7)" xlink:href="#i"/>
       <use transform="translate(377.7)" xlink:href="#g"/>
       <use transform="translate(413.4)" xlink:href="#a"/>
       <use transform="translate(470.4)" xlink:href="#r"/>
      </g>
     </g>
    </g>
    <g id="dy">
     <g id="dz">
      <path d="m538.82 523.06v-232.9" clip-path="url(#d)" fill="none" stroke="#b0b0b0" stroke-linecap="square" stroke-opacity=".3" stroke-width=".8"/>
     </g>
     <g id="ea">
      <use x="538.822248" y="523.055464" stroke="#000000" stroke-width=".8" xlink:href="#e"/>
     </g>
     <g id="eb">
      <!-- 2025-07-11 -->
      <g transform="translate(492.03 563.33) rotate(-30) scale(.1 -.1)">
       <use xlink:href="#b"/>
       <use transform="translate(57)" xlink:href="#a"/>
       <use transform="translate(114)" xlink:href="#b"/>
       <use transform="translate(171)" xlink:href="#j"/>
       <use transform="translate(228)" xlink:href="#g"/>
       <use transform="translate(263.7)" xlink:href="#a"/>
       <use transform="translate(320.7)" xlink:href="#i"/>
       <use transform="translate(377.7)" xlink:href="#g"/>
       <use transform="translate(413.4)" xlink:href="#f"/>
       <use transform="translate(470.4)" xlink:href="#f"/>
      </g>
     </g>
    </g>
    <g id="ec">
     <g id="ed">
      <path d="m625.27 523.06v-232.9" clip-path="url(#d)" fill="none" stroke="#b0b0b0" stroke-linecap="square" stroke-opacity=".3" stroke-width=".8"/>
     </g>
     <g id="ee">
      <use x="625.271877" y="523.055464" stroke="#000000" stroke-width=".8" xlink:href="#e"/>
     </g>
     <g id="ef">
      <!-- 2025-07-13 -->
      <g transform="translate(578.48 563.33) rotate(-30) scale(.1 -.1)">
       <use xlink:href="#b"/>
       <use transform="translate(57)" xlink:href="#a"/>
       <use transform="translate(114)" xlink:href="#b"/>
       <use transform="translate(171)" xlink:href="#j"/>
       <use transform="translate(228)" xlink:href="#g"/>
       <use transform="translate(263.7)" xlink:href="#a"/>
       <use transform="translate(320.7)" xlink:href="#i"/>
       <use transform="translate(377.7)" xlink:href="#g"/>
       <use transform="translate(413.4)" xlink:href="#f"/>
       <use transform="translate(470.4)" xlink:href="#n"/>
      </g>
     </g>
    </g>
    <g id="eg">
     <g id="eh">
      <path d="m711.72 523.06v-232.9" clip-path="url(#d)" fill="none" stroke="#b0b0b0" stroke-linecap="square" stroke-opacity=".3" stroke-width=".8"/>
     </g>
     <g id="ei">
      <use x="711.721506" y="523.055464" stroke="#000000" stroke-width=".8" xlink:href="#e"/>
     </g>
     <g id="ej">
      <!-- 2025-07-15 -->
      <g transform="translate(664.93 563.33) rotate(-30) scale(.1 -.1)">
       <use xlink:href="#b"/>
       <use transform="translate(57)" xlink:href="#a"/>
       <use transform="translate(114)" xlink:href="#b"/>
       <use transform="translate(171)" xlink:href="#j"/>
       <use transform="translate(228)" xlink:href="#g"/>
       <use transform="translate(263.7)" xlink:href="#a"/>
       <use transform="translate(320.7)" xlink:href="#i"/>
       <use transform="translate(377.7)" xlink:href="#g"/>
       <use transform="translate(413.4)" xlink:href="#f"/>
       <use transform="translate(470.4)" xlink:href="#j"/>
      </g>
     </g>
    </g>
    <g id="ek">
     <g id="el">
      <path d="m798.17 523.06v-232.9" clip-path="url(#d)" fill="none" stroke="#b0b0b0" stroke-linecap="square" stroke-opacity=".3" stroke-width=".8"/>
     </g>
     <g id="em">
      <use x="798.171134" y="523.055464" stroke="#000000" stroke-width=".8" xlink:href="#e"/>
     </g>
     <g id="en">
      <!-- 2025-07-17 -->
      <g transform="translate(751.38 563.33) rotate(-30) scale(.1 -.1)">
       <use xlink:href="#b"/>
       <use transform="translate(57)" xlink:href="#a"/>
       <use transform="translate(114)" xlink:href="#b"/>
       <use transform="translate(171)" xlink:href="#j"/>
       <use transform="translate(228)" xlink:href="#g"/>
       <use transform="translate(263.7)" xlink:href="#a"/>
       <use transform="translate(320.7)" xlink:href="#i"/>
       <use transform="translate(377.7)" xlink:href="#g"/>
       <use transform="translate(413.4)" xlink:href="#f"/>
       <use transform="translate(470.4)" xlink:href="#i"/>
      </g>
     </g>
    </g>
   </g>
   <g id="eo">
    <g id="ep">
     <g id="eq">
      <path d="m52 505.34h801.2" clip-path="url(#d)" fill="none" stroke="#b0b0b0" stroke-linecap="square" stroke-opacity=".3" stroke-width=".8"/>
     </g>
     <g id="er">
      <use x="52" y="505.344196" stroke="#000000" stroke-width=".8" xlink:href="#h"/>
     </g>
     <g id="es">
      <!-- 104800 -->
      <g transform="translate(10.8 509.33) scale(.1 -.1)">
       <use xlink:href="#f"/>
       <use transform="translate(57)" xlink:href="#a"/>
       <use transform="translate(114)" xlink:href="#m"/>
       <use transform="translate(171)" xlink:href="#l"/>
       <use transform="translate(228)" xlink:href="#a"/>
       <use transform="translate(285)" xlink:href="#a"/>
      </g>
     </g>
    </g>
    <g id="et">
     <g id="eu">
      <path d="m52 475.34h801.2" clip-path="url(#d)" fill="none" stroke="#b0b0b0" stroke-linecap="square" stroke-opacity=".3" stroke-width=".8"/>
     </g>
     <g id="ev">
      <use x="52" y="475.344166" stroke="#000000" stroke-width=".8" xlink:href="#h"/>
     </g>
     <g id="ew">
      <!-- 105200 -->
      <g transform="translate(10.8 479.33) scale(.1 -.1)">
       <use xlink:href="#f"/>
       <use transform="translate(57)" xlink:href="#a"/>
       <use transform="translate(114)" xlink:href="#j"/>
       <use transform="translate(171)" xlink:href="#b"/>
       <use transform="translate(228)" xlink:href="#a"/>
       <use transform="translate(285)" xlink:href="#a"/>
      </g>
     </g>
    </g>
    <g id="ex">
     <g id="ey">
      <path d="m52 445.34h801.2" clip-path="url(#d)" fill="none" stroke="#b0b0b0" stroke-linecap="square" stroke-opacity=".3" stroke-width=".8"/>
     </g>
     <g id="ez">
      <use x="52" y="445.344137" stroke="#000000" stroke-width=".8" xlink:href="#h"/>
     </g>
     <g id="fa">
      <!-- 105600 -->
      <g transform="translate(10.8 449.33) scale(.1 -.1)">
       <use xlink:href="#f"/>
       <use transform="translate(57)" xlink:href="#a"/>
       <use transform="translate(114)" xlink:href="#j"/>
       <use transform="translate(171)" xlink:href="#k"/>
       <use transform="translate(228)" xlink:href="#a"/>
       <use transform="translate(285)" xlink:href="#a"/>
      </g>
     </g>
    </g>
    <g id="fb">
     <g id="fc">
      <path d="m52 415.34h801.2" clip-path="url(#d)" fill="none" stroke="#b0b0b0" stroke-linecap="square" stroke-opacity=".3" stroke-width=".8"/>
     </g>
     <g id="fd">
      <use x="52" y="415.344107" stroke="#000000" stroke-width=".8" xlink:href="#h"/>
     </g>
     <g id="fe">
      <!-- 106000 -->
      <g transform="translate(10.8 419.33) scale(.1 -.1)">
       <use xlink:href="#f"/>
       <use transform="translate(57)" xlink:href="#a"/>
       <use transform="translate(114)" xlink:href="#k"/>
       <use transform="translate(171)" xlink:href="#a"/>
       <use transform="translate(228)" xlink:href="#a"/>
       <use transform="translate(285)" xlink:href="#a"/>
      </g>
     </g>
    </g>
    <g id="ff">
     <g id="fg">
      <path d="m52 385.34h801.2" clip-path="url(#d)" fill="none" stroke="#b0b0b0" stroke-linecap="square" stroke-opacity=".3" stroke-width=".8"/>
     </g>
     <g id="fh">
      <use x="52" y="385.344077" stroke="#000000" stroke-width=".8" xlink:href="#h"/>
     </g>
     <g id="fi">
      <!-- 106400 -->
      <g transform="translate(10.8 389.33) scale(.1 -.1)">
       <use xlink:href="#f"/>
       <use transform="translate(57)" xlink:href="#a"/>
       <use transform="translate(114)" xlink:href="#k"/>
       <use transform="translate(171)" xlink:href="#m"/>
       <use transform="translate(228)" xlink:href="#a"/>
       <use transform="translate(285)" xlink:href="#a"/>
      </g>
     </g>
    </g>
    <g id="fj">
     <g id="fk">
      <path d="m52 355.34h801.2" clip-path="url(#d)" fill="none" stroke="#b0b0b0" stroke-linecap="square" stroke-opacity=".3" stroke-width=".8"/>
     </g>
     <g id="fl">
      <use x="52" y="355.344047" stroke="#000000" stroke-width=".8" xlink:href="#h"/>
     </g>
     <g id="fm">
      <!-- 106800 -->
      <g transform="translate(10.8 359.33) scale(.1 -.1)">
       <use xlink:href="#f"/>
       <use transform="translate(57)" xlink:href="#a"/>
       <use transform="translate(114)" xlink:href="#k"/>
       <use transform="translate(171)" xlink:href="#l"/>
       <use transform="translate(228)" xlink:href="#a"/>
       <use transform="translate(285)" xlink:href="#a"/>
      </g>
     </g>
    </g>
    <g id="fn">
     <g id="fo">
      <path d="m52 325.34h801.2" clip-path="url(#d)" fill="none" stroke="#b0b0b0" stroke-linecap="square" stroke-opacity=".3" stroke-width=".8"/>
     </g>
     <g id="fp">
      <use x="52" y="325.344017" stroke="#000000" stroke-width=".8" xlink:href="#h"/>
     </g>
     <g id="fq">
      <!-- 107200 -->
      <g transform="translate(10.8 329.33) scale(.1 -.1)">
       <use xlink:href="#f"/>
       <use transform="translate(57)" xlink:href="#a"/>
       <use transform="translate(114)" xlink:href="#i"/>
       <use transform="translate(171)" xlink:href="#b"/>
       <use transform="translate(228)" xlink:href="#a"/>
       <use transform="translate(285)" xlink:href="#a"/>
      </g>
     </g>
    </g>
    <g id="fr">
     <g id="fs">
      <path d="m52 295.34h801.2" clip-path="url(#d)" fill="none" stroke="#b0b0b0" stroke-linecap="square" stroke-opacity=".3" stroke-width=".8"/>
     </g>
     <g id="ft">
      <use x="52" y="295.343987" stroke="#000000" stroke-width=".8" xlink:href="#h"/>
     </g>
     <g id="fu">
      <!-- 107600 -->
      <g transform="translate(10.8 299.33) scale(.1 -.1)">
       <use xlink:href="#f"/>
       <use transform="translate(57)" xlink:href="#a"/>
       <use transform="translate(114)" xlink:href="#i"/>
       <use transform="translate(171)" xlink:href="#k"/>
       <use transform="translate(228)" xlink:href="#a"/>
       <use transform="translate(285)" xlink:href="#a"/>
      </g>
     </g>
    </g>
   </g>
   <g id="fv">
    <path d="m88.418 512.47h.16109l.47127-.3h.42474l1.3503-.525.46677-.3 1.3238-.225.90052.15.45026-.225.45026-.375h.45026l.90052-.975.90052-.15.90052-.675 1.3508.15.45026-.075.45026-.3.45026-.45.45026-.75.90052-.675h.45026l.90052-.675.45026-.45 1.3508-2.7 1.3508-1.05.45026-.225.45026.075.45026-.375h1.3508l.45026-.3h.45026l.45026-.375.45026-.225 2.2513-.45.45026.15.45026-.075.45026.075 2.2513-.3 1.801-.075 1.3508-.15 5.8534-.075.90052-.075001h.45026l.45026-.15h.90052l.45026-.3 1.3508-.375.90052-.225.90052-.3h.45026l.90052-.45 1.3508-.3 2.2513-.825.90052-.375.90052-.225m.90052-.45.45026-.3.45026-.675.45026-.375 1.3508-.3.90052-.3.90052-.6.45026-.975.45026-.3.90052-1.575h.45026l.90052-1.05.45026-.225.45026-.525 1.801-1.2.45026.075 1.3508-.9.45026-.15.90052-.075 1.3508-.225.45026.15h.45026l.90052-.525.90052-.15.45026.075.45026-.15.45026.075 2.2513-.3.90052.075.90052-.075.90052.075h2.7016l.90052-.225.90052.225.45026.075 1.3508-.375h.45026l.45026-.15h.45026l.45026-.3.90052-.225.45026-.375 1.801.075.45026.075.45026-.075.45026-.225 1.3508-.15.45026.15 1.3508-.15h.45026l1.3508-.825.45026-.075.45026-.3.45026.075.90052-.15.45026.075.45026-.3.45026-.15h.90052l.45026-.525.90052-.525.45026-.525 1.3508-.525.90052-.525.45026-.75.45026-.075.45026-.3.45026-.825 1.3508-1.275.45026-.15.45026.225.45026-.15.45026-.375 1.801-.525.45026-.075.45026.075.45026-.225.90052.075h2.2513l.45026-.15.90052.15 1.3508-.15 3.1518-.075.45026.225h.45026l1.801-.525 1.0506-.075.15009-.075.45026.15h.75043l.30017-.15 1.2007.075.30017.15.75043-.075.30017-.075h.30017l.15009-.15.30017.15.30017-.075h.30017l.30017-.15.60034.15.30017-.075 1.3508-.075.30017-.225.15009-.15.60034.3.75043-.3.30017.075.60034-.225 1.0506.075.30017.15.90052-.75h.15009l.60034-.525h1.6509l.30017-.15.75043-.075 1.5009-.675h.45026l.45026-.225.15009-.225.15009.15.15009-.075.15009.15.30017-.3.30017-.15.30017-.075.45026-.225.15009.075.90052-.825.30017-.075.30017-.15.30017-.75 1.0506-1.05.15009.15.30017-.15.15009-.225h.15009l.15009.15.30017-.075.30017-.525h.30017l.15009-.45.15009.075.75043-.3h.15009l.30017-.375.30017-.225.60034-.075.30017-.225.45026-.075.30017-.075001h.45026l.45026-.3.60034-.225 1.0506-.075.30017-.075 1.9511-.075.30017-.075 3.3019-.075.30017-.075 2.4014-.075001.75043-.3 3.6021-.075 1.2007-.3.30017-.225 2.1012.075.30017.15 1.2007-.225 1.5009-.075001.60034-.375.90052-.075.60034-.3h.30017l.60034-.225h.30017l.90052-.75.30017-.15.90052-.075.30017-.3 1.801-.45.30017.075.30017-.15.60034-.075.90052-.225.30017.075.30017-.225.30017-.075.60034-.525.30017-.075.60034-.75.30017-.225h.30017l1.2007-.75 1.5009-.375 1.2007-1.275.30017-.45h.30017l.90052-.9h.30017l.30017-.225.30017-.375.60034-.3.30017.075 1.5009-1.5h.30017l.30017-.45 1.2007-.225h2.1012l.30017-.15h.30017l.30017-.15 1.2007-.15.90052-.075 2.4014-.525 3.0017.075.60034.075.90052-.075.30017-.225.90052.15.30017-.075.60034.075h1.5009l.90052-.375h1.2007l.60034-.3h.90052l.30017-.15.90052-.075.30017-.075.30017.075.30017-.15.30017.075.90052-.225.30017-.225.30017.075.90052-1.05.60034.225.30017-.225h.60034l.60034-.3.90052-.075.60034-.675h.30017l.60034-.225.30017.075.30017-.3.30017-.075.30017.075.30017-.075.30017.15.30017-.15.30017.075.30017-.075.90052-.675h.30017l.30017-.15.60034-.975.30017-.375.90052-.525.30017-.6.30017-.075.90052-.9.30017.075.90052-.6.60034-1.2.60034-.075.60034-.675 1.2007-.375.30017-.225.30017-.075001.30017-.225 1.2007-.375.60034-.675.60034-.075 1.2007-.225.30017-.375 2.1012-.075001.60034-.225.90052-.075.90052-.225.30017.075.60034-.075.90052.075.60034.075.60034-.3 1.2007.075.30017.225h2.7016l.60034-.375h.30017l.60034-.225 1.2007.075001.60034.075.30017-.15h.30017l.30017-.3h.30017l.30017-.225 1.2007-.375.30017-.15.60034-.075.90052-.825h.30017l.30017-.15h.60034l.60034.225h.30017l.60034-.225.30017-.375 1.5009-.45.30017-.15.90052-.075.30017-.15.90052.15.90052-.075.60034-.225.60034-.15 1.5009-1.125.30017-.075.30017.075.30017-.225h.60034l.30017-.375.60034-.3.60034-.6.90052.075.60034-.45.30017.075.60034-.45.30017-.45.30017.15.30017-.3.30017-.075.30017.225.30017-.3.60034.15.60034-.45.30017-.075.30017-.225.60034.075.30017-.225h.30017l.30017.15.30017-.075.30017-.375.30017.075.90052-.225.30017.075.30017-.075.60034.075 2.1012.075.30017.225 2.1012-.075.60034-.075 1.5009.075.30017.15.30017-.15h1.2007l.30017-.15.90052.075.60034.075 2.7016-.075.60034-.075 1.2007.075.30017-.225 1.2007-.225.30017.15.30017-.225.60034-.075.90052.15.30017-.225.60034-.075h.30017l.60034-.225 3.3019-.075.60034-.225.60034-.3 1.5009-.075.60034-.3.90052-.675h.30017l.30017-.15.60034.075 1.2007-.9.30017.15.30017-.15.30017-.45.90052-.525.30017-.225h.30017l.60034-.9.90052-.675.30017-.45h.30017l.60034-.675.30017.15.60034-.075001.30017-.45.30017.075.90052-.675.30017-.075.30017-.45h.30017l.60034-.375.90052-.375 1.2007-.075.90052-.375 1.801.075.60034.075 2.1012.075.60034.075 1.2007-.15.30017-.075.30017.075.60034-.075h3.0017l.30017-.15.90052-.075.60034-.075001 1.2007-.075.30017-.075.90052.3.60034-.225 1.5009-.075.90052-.15.60034-.075.30017-.15 1.801.075.30017-.225.90052-.225.60034-.375h.30017l.30017-.15.60034-.45.30017.075.90052-.225.60034.15.60034-.075.30017.075 1.801-.9.60034-.075.90052-.225.30017-.225.60034-.075.30017-.45.30017-.15.30017.075001.30017-.3.30017-.075.90052-1.725.30017-.3h.30017l.30017-.15.60034-.525.30017-.15.30017-.525 1.801-1.35.90052-.9.30017-.525 1.2007-.375.30017.15.30017-.075.30017-.225.30017-.075001.30017-.3h.30017l.30017-.15.30017.075 2.1012-.45.90052-.075.60034-.15.60034.075 1.801-.075.30017-.075.30017.075.60034-.075.60034.075 1.801-.075.30017-.075.60034.075 1.2007-.075 1.801-.375m.60034.225.30017-.15h.30017l.30017-.15h3.3019l.30017-.225 1.2007-.15.30017-.075.30017.075.60034-.375.30017.075.60034-.075.30017.075.30017-.15.60034.15.30017-.15.90052-.075.60034-.3.60034.3.60034-.375.90052-.3.90052-.375.30017-.375.30017-.15h.30017l.30017-.225h.60034l.60034-.525.60034.3.30017-.3.30017-.525.60034-.3h.30017l1.2007-.675.60034-.525.60034-.15.30017-.525.30017-.225.30017-.675.90052-.75h.30017l.60034-.6.90052-.3.30017-.15.60034-.45.30017-.075.30017-.3.60034.075.30017-.225.60034.15.30017-.3h.60034l.30017-.225.90052-.075 1.2007-.15.30017-.075.30017.075 1.2007-.6 1.5009-.075.30017-.075.90052.15 1.5009-.075.30017-.075.60034.15.90052-.15.30017.075.30017-.075.90052.15h.60034l.30017-.3 2.4014-.075.90052-.15.90052.15 1.2007-.075.30017-.225.90052-.075.90052-.375 1.2007-.225.60034-.075 1.5009-.3.90052-.075.30017-.15h.30017l.30017-.3h.30017l.60034-.75.60034-.375.30017-.225 1.2007-.3.30017-.375.30017-.15h.30017l.90052-.375h.30017l.30017-.3.60034-.075.60034-.75.60034-.375 2.4014-1.8.30017-.075 1.2007-1.2.30017.075.60034-1.125.60034-.45.60034-.075.30017-.525h.30017l.60034-.3.30017-.3h.30017l.60034-.3.30017-.45.30017-.075.60034-.375.60034.075.30017-.375.60034-.225 1.5009-.075.30017.3.60034.075h.30017l.30017-.225.90052-.15 1.801-.075.60034-.075.30017-.3.90052-.075.60034-.075 6.0034-.075.60034-.15.30017.075 1.801-.525.30017-.15h.30017l.30017-.15h.30017l.30017-.15.90052.15.60034-.075h.60034l.60034-.225.30017-.375 1.2007-.525h.60034l.60034-.3.30017.075.60034-.225.30017.15.30017-.15.60034-.075.60034-.45.60034-.3h.30017l.60034-.225.30017.15.60034-.225.30017-.375 1.5009-.675.30017.075.90052-.375.30017.075.30017-.225h.30017l1.2007-.825.30017-.15 1.5009-1.425h.30017l.30017-.3.30017-.075 1.5009-2.325.60034-.075 1.5009-1.35.30017-.15.30017-.3.30017-.075.60034-.525.30017-.3.90052-.225.60034-.375 1.801-.375.30017.075.60034-.075.90052.15 1.5009-.075.60034-.075 1.5009-.075.60034-.075001.60034.075001.90052.075.90052.15.30017-.15.60034.075 1.2007.225.30017-.15.30017.15.60034-.075.30017-.3 1.2007-.3.60034.15 1.2007-.45h.30017l.30017-.15.60034-.075 1.801-.375.30017.075.30017-.15h.30017l.90052-.75h.30017l1.5009-.675 1.5009-.375.30017-.375.60034.075.90052-.75.30017-.225.30017.075.30017-.075.30017-.3.60034.525.60034.225 1.5009-.375.30017-.375.30017-.075.60034-.525h.30017l.60034-.3.30017.075.30017-.375.30017-.15.60034-.6.30017-.525.60034-.525.30017-.525.30017-.15.60034-.75h.30017l.60034-.675.30017.075.60034-.45.30017-.75.30017-.075.30017-.525.30017-.075.30017-.3.30017-.6.60034-.375.60034-.075.60034-.675.60034-.075.60034-.45.30017-.45.30017-.075.30017-.225.30017-.075.90052-.9.60034-.075 1.2007.3.30017-.225.30017-.075.90052.15 1.801-.075 1.2007-.225 2.1012-.075001.90052-.15 2.1012-.075 1.2007-.225h.90052l.60034-.3.30017.075.30017-.075.30017.075.30017-.075.60034.075.60034-.075.60034.075.30017-.225 1.2007-.3.30017-.225h.30017l.60034-.375.60034-.225.30017-.15.60034.075 1.5009-.375.30017-.3.60034-.15.30017.075.30017.3.30017.075.30017-.15.30017.075.90052-.675.30017.15.30017-.075.60034-.45.60034.075h.30017l.30017-.3.30017.075.60034-.525h.60034l.60034-.225.30017.075.30017-.075.30017.075 1.2007-1.05.60034-.375.60034-.75.30017-.075.30017-.6.30017.075.30017-.45.30017-.075.30017-.45.60034-.3.60034-.675h.30017l.30017-.525.30017-.075.60034-.6.30017.15 1.2007-.525.60034.225.60034-.225 1.801-.375 1.2007-.075 1.5009-.3 1.2007-.15 1.5009-.075 1.801-.375h2.1012l.30017.15h.60034l.60034.15.30017-.15h.60034l.30017-.15.30017.075001 1.2007-.3.60034.075h.30017l.30017-.225 2.7016-.075.90052-.45 1.5009-.075001.60034-.225.30017.15.30017-.225.60034-.075h.30017l.30017-.15.90052.075.60034.225.60034-.075.30017-.15.60034.075.30017-.15.30017.075 1.2007-.375.60034-.45.30017.225.30017-.225.30017-.075.30017-.225h.60034l.30017-.225h.30017l.30017-.45.30017.225h.30017l.30017-.75.90052-.525.60034-.375.30017-.15.60034-1.125.30017.15.30017-.15h.30017l1.2007-1.275.30017.075.60034-.525.30017-.525.30017.15.30017-.225.30017-.075.30017-.225.30017-.075.30017-.375.60034.075001.30017-.15.30017-.3.30017-.075.30017-.375.30017-.15.30017.075 2.1012-.975 1.5009-.075.90052-.15h.90052l.30017-.15 1.801-.075 1.2007-.3.60034.075h.30017l.30017-.15 1.2007.075.90052.15 1.2007-.225 1.2007-.15 1.5009-.075 1.2007-.225.90052.075 1.2007.225h.30017l.30017-.225.30017-.075.90052-.75h2.7016l.30017-.15.30017.075001.60034-.15.30017.075.60034-.225 1.2007-.225.30017-.375.60034-.225.30017.075.30017.225h.30017l.30017-.225.30017-.375.30017-.075.30017-.225.30017-.075.30017.15.90052-.525.30017-.225h.30017l1.2007-1.2.60034-.15.90052-1.05.30017-.375.90052-.525.60034-.75.30017-.15.30017-.6.30017-.225.90052-.3.30017.15.30017-.3.60034-.225.30017-.225.30017.15.30017-.3h.30017l.30017-.15.90052-.975 1.5009.075.30017-.225 1.2007-.075.90052-.15.90052.15 2.4014-.075.90052-.15h3.9022l.30017-.3 1.5009-.075 1.5009-.3 2.1012-.075.60034-.225.30017.075 1.2007-.15 1.5009-.45.30017-.15.30017-.375.60034-.225.30017-.225 1.2007-.375.30017.15h.30017l.30017-.225h.60034l.60034-.375.30017.075.30017-.15.30017.15 1.2007-.525.30017.075 2.1012-.6.30017.15.60034-.15.30017-.225.60034-.075.30017.075.60034-.225 1.2007-.525.30017-.075.30017-.45.30017-.225.30017-.375.60034-.225.30017-.15.30017-.375.30017.075.30017-.075.60034-.375.30017-.45.60034-.375.30017-.6 1.2007-.525.30017-.45.30017-.15.30017-.6.90052-.675.30017-.375.60034-.075.30017.225.60034-.225.30017-.225h.30017l.30017.15 1.2007-.375.90052-.45.30017.075 1.2007-.225 2.1012-.075.60034-.075 3.6021.075.30017.15 1.2007-.15 3.0017.075.60034.075v0" clip-path="url(#d)" fill="none" stroke="#28f" stroke-linecap="square" stroke-width="1.5"/>
   </g>
   <g id="fw">
    <path d="m52 523.06v-232.9" fill="none" stroke="#000" stroke-linecap="square" stroke-width=".8"/>
   </g>
   <g id="fx">
    <path d="m853.2 523.06v-232.9" fill="none" stroke="#000" stroke-linecap="square" stroke-width=".8"/>
   </g>
   <g id="fy">
    <path d="m52 523.06h801.2" fill="none" stroke="#000" stroke-linecap="square" stroke-width=".8"/>
   </g>
   <g id="fz">
    <path d="m52 290.16h801.2" fill="none" stroke="#000" stroke-linecap="square" stroke-width=".8"/>
   </g>
   <g id="ga">
    <!-- サーバー数の推移 -->
    <g transform="translate(404.6 284.16) scale(.12 -.12)">
     <defs>
      <path id="z" transform="scale(.015625)" d="m4685 2893q0-621-84-1111-83-489-288-877-204-387-569-691t-928-560l-544 512q448 167 781 371 333 205 550 503 218 298 323 739 106 442 106 1075v1620q0 192-10 339-9 147-22 217h723q-6-70-22-217t-16-339v-1581zm-2304 2086q-7-64-23-199-16-134-16-313v-2317q0-128 6-256 7-128 13-224 7-96 13-140h-710q6 44 12 140 7 96 13 221 7 125 7 259v2317q0 122-10 256-9 135-28 256h723zm-1978-1197q45-12 144-22t237-20q138-9 285-9h4217q237 0 394 13t246 26v-679q-76 7-240 13-163 6-393 6h-4224q-147 0-282-3-134-3-234-10-99-6-150-12v697z"/>
      <path id="s" transform="scale(.015625)" d="m621 2854q109-6 265-16 157-9 339-16 183-6 349-6 128 0 352 0t509 0 598 0q314 0 624 0 311 0 586 0t486 0q212 0 327 0 230 0 416 16t301 22v-793q-109 6-308 19-198 13-409 13-109 0-324 0-214 0-489 0t-586 0q-310 0-624 0-313 0-598 0t-509 0-352 0q-262 0-525-10-262-9-428-22v793z"/>
      <path id="y" transform="scale(.015625)" d="m4941 5037q83-109 176-269t182-320q90-160 154-288l-416-179q-96 192-240 448t-272 435l416 173zm723 275q83-122 182-282 100-160 196-317 96-156 153-271l-416-186q-102 205-246 454-144 250-279 429l410 173zm-4339-3360q102 262 201 556 100 295 183 612t144 630q61 314 93 602l723-147q-19-83-45-183-26-99-48-195t-42-166q-32-154-86-394t-131-512-164-551q-86-278-182-514-115-301-269-618-153-317-326-618-173-300-346-550l-697 294q301 397 563 874t429 880zm3155 198q-96 250-215 531-118 282-243 567-124 285-246 534-122 250-224 429l659 218q96-179 221-429t253-535q128-284 249-566 122-281 218-525 90-230 195-518 106-288 211-592 106-304 195-589 90-285 154-515l-729-237q-84 352-199 736t-240 768-259 723z"/>
     </defs>
     <use xlink:href="#z"/>
     <use transform="translate(100)" xlink:href="#s"/>
     <use transform="translate(200)" xlink:href="#y"/>
     <use transform="translate(300)" xlink:href="#s"/>
     <use transform="translate(400)" xlink:href="#p"/>
     <use transform="translate(500)" xlink:href="#t"/>
     <use transform="translate(600)" xlink:href="#q"/>
     <use transform="translate(700)" xlink:href="#o"/>
    </g>
   </g>
  </g>
 </g>
 <defs>
  <clipPath id="c">
   <rect x="52" y="26.88" width="801.2" height="232.9"/>
  </clipPath>
  <clipPath id="d">
   <rect x="52" y="290.16" width="801.2" height="232.9"/>
  </clipPath>
 </defs>
</svg>
