<!DOCTYPE svg  PUBLIC '-//W3C//DTD SVG 1.1//EN'  'http://www.w3.org/Graphics/SVG/1.1/DTD/svg11.dtd'>
<svg version="1.1" viewBox="0 0 864 576" xmlns="http://www.w3.org/2000/svg" xmlns:xlink="http://www.w3.org/1999/xlink">
 <defs>
  <style type="text/css">*{stroke-linejoin: round; stroke-linecap: butt}</style>
 </defs>
 <g id="aa">
  <g id="ab">
   <path d="m0 576h864v-576h-864z" fill="#fff"/>
  </g>
  <g id="ac">
   <g id="ad">
    <path d="m52 259.78h801.2v-232.9h-801.2z" fill="#fff"/>
   </g>
   <g id="ae">
    <path d="m140.95 259.78h.94369v-232.9h-.94369z" clip-path="url(#d)" fill="#808080" opacity=".3" stroke="#808080"/>
   </g>
   <g id="af">
    <path d="m488.38 259.78h.62912v-232.9h-.62912z" clip-path="url(#d)" fill="#808080" opacity=".3" stroke="#808080"/>
   </g>
   <g id="ag">
    <g id="ah">
     <g id="ai">
      <path d="m107.44 259.78v-232.9" clip-path="url(#d)" fill="none" stroke="#b0b0b0" stroke-linecap="square" stroke-opacity=".3" stroke-width=".8"/>
     </g>
     <g id="aj">
      <defs>
       <path id="g" d="m0 0v3.5" stroke="#000" stroke-width=".8"/>
      </defs>
      <use x="107.444466" y="259.777732" stroke="#000000" stroke-width=".8" xlink:href="#g"/>
     </g>
    </g>
    <g id="ak">
     <g id="al">
      <path d="m198.04 259.78v-232.9" clip-path="url(#d)" fill="none" stroke="#b0b0b0" stroke-linecap="square" stroke-opacity=".3" stroke-width=".8"/>
     </g>
     <g id="am">
      <use x="198.038327" y="259.777732" stroke="#000000" stroke-width=".8" xlink:href="#g"/>
     </g>
    </g>
    <g id="an">
     <g id="ao">
      <path d="m288.63 259.78v-232.9" clip-path="url(#d)" fill="none" stroke="#b0b0b0" stroke-linecap="square" stroke-opacity=".3" stroke-width=".8"/>
     </g>
     <g id="ap">
      <use x="288.632188" y="259.777732" stroke="#000000" stroke-width=".8" xlink:href="#g"/>
     </g>
    </g>
    <g id="aq">
     <g id="ar">
      <path d="m379.23 259.78v-232.9" clip-path="url(#d)" fill="none" stroke="#b0b0b0" stroke-linecap="square" stroke-opacity=".3" stroke-width=".8"/>
     </g>
     <g id="as">
      <use x="379.22605" y="259.777732" stroke="#000000" stroke-width=".8" xlink:href="#g"/>
     </g>
    </g>
    <g id="at">
     <g id="au">
      <path d="m469.82 259.78v-232.9" clip-path="url(#d)" fill="none" stroke="#b0b0b0" stroke-linecap="square" stroke-opacity=".3" stroke-width=".8"/>
     </g>
     <g id="av">
      <use x="469.819911" y="259.777732" stroke="#000000" stroke-width=".8" xlink:href="#g"/>
     </g>
    </g>
    <g id="aw">
     <g id="ax">
      <path d="m560.41 259.78v-232.9" clip-path="url(#d)" fill="none" stroke="#b0b0b0" stroke-linecap="square" stroke-opacity=".3" stroke-width=".8"/>
     </g>
     <g id="ay">
      <use x="560.413773" y="259.777732" stroke="#000000" stroke-width=".8" xlink:href="#g"/>
     </g>
    </g>
    <g id="az">
     <g id="ba">
      <path d="m651.01 259.78v-232.9" clip-path="url(#d)" fill="none" stroke="#b0b0b0" stroke-linecap="square" stroke-opacity=".3" stroke-width=".8"/>
     </g>
     <g id="bb">
      <use x="651.007634" y="259.777732" stroke="#000000" stroke-width=".8" xlink:href="#g"/>
     </g>
    </g>
    <g id="bc">
     <g id="bd">
      <path d="m741.6 259.78v-232.9" clip-path="url(#d)" fill="none" stroke="#b0b0b0" stroke-linecap="square" stroke-opacity=".3" stroke-width=".8"/>
     </g>
     <g id="be">
      <use x="741.601496" y="259.777732" stroke="#000000" stroke-width=".8" xlink:href="#g"/>
     </g>
    </g>
    <g id="bf">
     <g id="bg">
      <path d="m832.2 259.78v-232.9" clip-path="url(#d)" fill="none" stroke="#b0b0b0" stroke-linecap="square" stroke-opacity=".3" stroke-width=".8"/>
     </g>
     <g id="bh">
      <use x="832.195357" y="259.777732" stroke="#000000" stroke-width=".8" xlink:href="#g"/>
     </g>
    </g>
   </g>
   <g id="bi">
    <g id="bj">
     <g id="bk">
      <path d="m52 246.93h801.2" clip-path="url(#d)" fill="none" stroke="#b0b0b0" stroke-linecap="square" stroke-opacity=".3" stroke-width=".8"/>
     </g>
     <g id="bl">
      <defs>
       <path id="f" d="m0 0h-3.5" stroke="#000" stroke-width=".8"/>
      </defs>
      <use x="52" y="246.926099" stroke="#000000" stroke-width=".8" xlink:href="#f"/>
     </g>
     <g id="bm">
      <!-- 300 -->
      <g transform="translate(27.9 250.91) scale(.1 -.1)">
       <defs>
        <path id="l" transform="scale(.015625)" d="m1715-90q-371 0-656 90t-503 240q-217 150-377 323l359 474q211-205 479-359 269-153 634-153 269 0 467 92 199 93 311 266t112 423q0 256-125 451t-429 300q-304 106-835 106v551q467 0 732 105 266 106 384 291 119 186 119 423 0 307-192 489-192 183-531 183-269 0-503-119-233-118-438-316l-384 460q282 256 614 413 333 157 737 157 422 0 748-144 327-144 512-413 186-269 186-659 0-403-221-685-221-281-592-422v-26q269-70 490-227t349-400 128-557q0-422-215-726-214-304-573-468-358-163-787-163z"/>
        <path id="a" transform="scale(.015625)" d="m1830-90q-460 0-806 275-346 276-535 823-188 547-188 1366 0 820 188 1357 189 538 535 803 346 266 806 266 461 0 800-269 340-269 528-803 189-534 189-1354 0-819-189-1366-188-547-528-823-339-275-800-275zm0 589q237 0 422 185 186 186 288 599 103 413 103 1091 0 679-103 1082-102 403-288 582-185 180-422 180-236 0-422-180-186-179-292-582-105-403-105-1082 0-678 105-1091 106-413 292-599 186-185 422-185z"/>
       </defs>
       <use xlink:href="#l"/>
       <use transform="translate(57)" xlink:href="#a"/>
       <use transform="translate(114)" xlink:href="#a"/>
      </g>
     </g>
    </g>
    <g id="bn">
     <g id="bo">
      <path d="m52 220.79h801.2" clip-path="url(#d)" fill="none" stroke="#b0b0b0" stroke-linecap="square" stroke-opacity=".3" stroke-width=".8"/>
     </g>
     <g id="bp">
      <use x="52" y="220.787184" stroke="#000000" stroke-width=".8" xlink:href="#f"/>
     </g>
     <g id="bq">
      <!-- 600 -->
      <g transform="translate(27.9 224.77) scale(.1 -.1)">
       <defs>
        <path id="k" transform="scale(.015625)" d="m1971-90q-339 0-634 144-294 144-518 435-224 292-352 733-128 442-128 1044 0 678 147 1161 148 483 397 784 250 301 570 445t665 144q397 0 688-147 292-147 490-359l-403-448q-128 154-327 253-198 99-409 99-307 0-567-182-259-182-413-605-153-422-153-1145 0-608 115-1002t326-589q212-195 493-195 212 0 375 121 163 122 259 343t96 522q0 300-90 511-89 212-259 320-169 109-419 109-211 0-451-134t-458-461l-25 538q134 192 313 323t374 201q196 71 375 71 397 0 694-163 298-163 467-490 170-326 170-825 0-468-195-817-195-348-512-544-317-195-701-195z"/>
       </defs>
       <use xlink:href="#k"/>
       <use transform="translate(57)" xlink:href="#a"/>
       <use transform="translate(114)" xlink:href="#a"/>
      </g>
     </g>
    </g>
    <g id="br">
     <g id="bs">
      <path d="m52 194.65h801.2" clip-path="url(#d)" fill="none" stroke="#b0b0b0" stroke-linecap="square" stroke-opacity=".3" stroke-width=".8"/>
     </g>
     <g id="bt">
      <use x="52" y="194.648269" stroke="#000000" stroke-width=".8" xlink:href="#f"/>
     </g>
     <g id="bu">
      <!-- 900 -->
      <g transform="translate(27.9 198.63) scale(.1 -.1)">
       <defs>
        <path id="m" transform="scale(.015625)" d="m1562-90q-410 0-708 150-297 151-502 356l403 461q141-160 346-256t422-96q224 0 425 102 202 103 352 333 151 230 237 614 87 384 87 941 0 589-115 970t-323 563-496 182q-205 0-372-118-166-118-262-336t-96-525q0-301 86-512 87-211 259-323 173-112 417-112 224 0 460 141 237 141 448 461l32-544q-134-180-313-314t-371-208-384-74q-391 0-689 166-297 167-467 496-169 330-169 823 0 467 195 816t515 541 698 192q339 0 636-138 298-137 519-419 221-281 349-710t128-1018q0-691-141-1187t-391-807q-249-310-563-461-313-150-652-150z"/>
       </defs>
       <use xlink:href="#m"/>
       <use transform="translate(57)" xlink:href="#a"/>
       <use transform="translate(114)" xlink:href="#a"/>
      </g>
     </g>
    </g>
    <g id="bv">
     <g id="bw">
      <path d="m52 168.51h801.2" clip-path="url(#d)" fill="none" stroke="#b0b0b0" stroke-linecap="square" stroke-opacity=".3" stroke-width=".8"/>
     </g>
     <g id="bx">
      <use x="52" y="168.509354" stroke="#000000" stroke-width=".8" xlink:href="#f"/>
     </g>
     <g id="by">
      <!-- 1200 -->
      <g transform="translate(22.2 172.49) scale(.1 -.1)">
       <defs>
        <path id="e" transform="scale(.015625)" d="m544 0v608h1037v3277h-845v467q333 58 579 147 247 90 451 218h557v-4109h915v-608h-2694z"/>
        <path id="b" transform="scale(.015625)" d="m282 0v429q697 621 1164 1136 468 515 701 956 234 442 234 826 0 256-87 451-86 196-262 301-176 106-445 106-275 0-506-151-230-150-422-368l-416 410q301 333 637 518 336 186 803 186 429 0 749-176t496-493 176-745q0-455-224-919t-615-935q-390-470-889-950 186 20 394 36t374 16h1184v-634h-3046z"/>
       </defs>
       <use xlink:href="#e"/>
       <use transform="translate(57)" xlink:href="#b"/>
       <use transform="translate(114)" xlink:href="#a"/>
       <use transform="translate(171)" xlink:href="#a"/>
      </g>
     </g>
    </g>
    <g id="bz">
     <g id="ca">
      <path d="m52 142.37h801.2" clip-path="url(#d)" fill="none" stroke="#b0b0b0" stroke-linecap="square" stroke-opacity=".3" stroke-width=".8"/>
     </g>
     <g id="cb">
      <use x="52" y="142.370439" stroke="#000000" stroke-width=".8" xlink:href="#f"/>
     </g>
     <g id="cc">
      <!-- 1500 -->
      <g transform="translate(22.2 146.36) scale(.1 -.1)">
       <defs>
        <path id="i" transform="scale(.015625)" d="m1715-90q-365 0-653 90t-506 237q-217 147-383 307l352 480q134-134 294-246t361-183q202-70 452-70 262 0 473 118 212 119 333 346 122 227 122 541 0 460-247 716-246 256-649 256-224 0-384-64t-365-198l-365 237 141 2240h2387v-627h-1747l-109-1204q154 77 307 118 154 42 340 42 397 0 723-160t518-490q192-329 192-847 0-519-224-887t-586-560q-361-192-777-192z"/>
       </defs>
       <use xlink:href="#e"/>
       <use transform="translate(57)" xlink:href="#i"/>
       <use transform="translate(114)" xlink:href="#a"/>
       <use transform="translate(171)" xlink:href="#a"/>
      </g>
     </g>
    </g>
    <g id="cd">
     <g id="ce">
      <path d="m52 116.23h801.2" clip-path="url(#d)" fill="none" stroke="#b0b0b0" stroke-linecap="square" stroke-opacity=".3" stroke-width=".8"/>
     </g>
     <g id="cf">
      <use x="52" y="116.231524" stroke="#000000" stroke-width=".8" xlink:href="#f"/>
     </g>
     <g id="cg">
      <!-- 1800 -->
      <g transform="translate(22.2 120.22) scale(.1 -.1)">
       <defs>
        <path id="r" transform="scale(.015625)" d="m1830-90q-441 0-787 163-345 164-547 448-202 285-202 650 0 314 122 557t314 419 403 291v32q-256 186-442 458-185 272-185 643 0 365 176 640t480 425q304 151 694 151 410 0 704-160t457-439q164-278 164-649 0-237-96-448t-234-381q-137-169-291-278v-32q218-115 397-285 179-169 288-406t109-557q0-346-189-628-189-281-532-448-342-166-803-166zm314 2708q205 198 310 419 106 221 106 464 0 211-83 384t-247 272q-163 99-393 99-288 0-480-183-192-182-192-502 0-256 134-429 135-172 359-294t486-230zm-294-2170q236 0 418 89 183 90 285 253 103 164 103 388 0 211-90 367-89 157-246 272-157 116-368 215t-454 195q-244-173-398-426-153-252-153-553 0-237 118-416 119-179 324-282 205-102 461-102z"/>
       </defs>
       <use xlink:href="#e"/>
       <use transform="translate(57)" xlink:href="#r"/>
       <use transform="translate(114)" xlink:href="#a"/>
       <use transform="translate(171)" xlink:href="#a"/>
      </g>
     </g>
    </g>
    <g id="ch">
     <g id="ci">
      <path d="m52 90.093h801.2" clip-path="url(#d)" fill="none" stroke="#b0b0b0" stroke-linecap="square" stroke-opacity=".3" stroke-width=".8"/>
     </g>
     <g id="cj">
      <use x="52" y="90.092609" stroke="#000000" stroke-width=".8" xlink:href="#f"/>
     </g>
     <g id="ck">
      <!-- 2100 -->
      <g transform="translate(22.2 94.078) scale(.1 -.1)">
       <use xlink:href="#b"/>
       <use transform="translate(57)" xlink:href="#e"/>
       <use transform="translate(114)" xlink:href="#a"/>
       <use transform="translate(171)" xlink:href="#a"/>
      </g>
     </g>
    </g>
    <g id="cl">
     <g id="cm">
      <path d="m52 63.954h801.2" clip-path="url(#d)" fill="none" stroke="#b0b0b0" stroke-linecap="square" stroke-opacity=".3" stroke-width=".8"/>
     </g>
     <g id="cn">
      <use x="52" y="63.953694" stroke="#000000" stroke-width=".8" xlink:href="#f"/>
     </g>
     <g id="co">
      <!-- 2400 -->
      <g transform="translate(22.2 67.939) scale(.1 -.1)">
       <defs>
        <path id="n" transform="scale(.015625)" d="m2170 0v3072q0 192 12 457 13 266 20 458h-26q-90-179-183-365-92-185-195-364l-921-1415h2579v-576h-3328v493l1875 2957h858v-4717h-691z"/>
       </defs>
       <use xlink:href="#b"/>
       <use transform="translate(57)" xlink:href="#n"/>
       <use transform="translate(114)" xlink:href="#a"/>
       <use transform="translate(171)" xlink:href="#a"/>
      </g>
     </g>
    </g>
    <g id="cp">
     <g id="cq">
      <path d="m52 37.815h801.2" clip-path="url(#d)" fill="none" stroke="#b0b0b0" stroke-linecap="square" stroke-opacity=".3" stroke-width=".8"/>
     </g>
     <g id="cr">
      <use x="52" y="37.814779" stroke="#000000" stroke-width=".8" xlink:href="#f"/>
     </g>
     <g id="cs">
      <!-- 2700 -->
      <g transform="translate(22.2 41.8) scale(.1 -.1)">
       <defs>
        <path id="j" transform="scale(.015625)" d="m1235 0q32 646 109 1187t224 1024 384 941 576 938h-2208v627h3027v-455q-409-512-665-989-256-476-397-969t-205-1053-90-1251h-755z"/>
       </defs>
       <use xlink:href="#b"/>
       <use transform="translate(57)" xlink:href="#j"/>
       <use transform="translate(114)" xlink:href="#a"/>
       <use transform="translate(171)" xlink:href="#a"/>
      </g>
     </g>
    </g>
   </g>
   <g id="ct">
    <path d="m88.418 222.44.08965.17426.079165-.34852.32714.34852.16672-.08713.4451-.8713.94421-3.2238.95994-5.1407.46975-1.3069.47289-.17426.44458-1.6555.47184-1.2198.47184-2.0911.47184-2.7882.47184-.60991.47184-3.2238.47184-2.3525 1.4155-9.2357.94369-4.3565.47184-1.3941.47184-.78417.47184-2.004.47184-5.3149 1.4155-24.309 1.8874-43.826.47184-8.5387.94369-28.666.47184-5.3149.47184-2.3525.47184-.78417.47184 2.6139.47184 1.5683 2.3592 43.565.47184 12.46 2.8311 52.801.94369 12.198 1.8874 19.604.47184 2.701.47184 3.9208.47184 2.7882.47184 3.6594.47184 1.9169.47184 3.2238 1.4155 6.5347.47184 2.4396.47184 1.5683.47184 3.4852.47184 1.1327.47184 1.7426.94369 1.6555.47184 1.1327.47184.26139.47184 1.3069.47184.52278.94369.26139.94369-.43565 1.4155-2.8753.47184-.26139.47184-.95843.47184-.43565.94369-3.3981.94369-3.9208.47184.26139.47184-.17426.47184-2.7882.47184-1.5683.47184-.78417.94369-2.7882.47184-3.1367.47184-1.7426.47184-.60991 1.4155-4.2694.47184-3.9208.47184-2.4396.47184-3.6594.94369-5.2278.47184-2.6139.47184-1.3941m.94369 19.517.47184-12.285.47184-2.3525.47184-1.3941 1.4155-13.418.47184-6.012.94369-18.21.94369-22.654.47184-16.293 1.4155-31.105.94369-14.725.47184-3.7466.47184.43565.47184-1.2198.47184 1.7426.94369 8.8001.94369 21.173.47184 6.9704 1.4155 28.404.94369 14.725.94369 16.555.94369 12.111.94369 10.891 1.4155 13.592.94369 8.0159 1.4155 6.1862.47184 1.6555.94369 4.9664.94369 5.7506.94369 3.1367.47184.43565.47184.8713.47184 1.3069.47184.60991 1.4155 4.5307.47184-.43565.47184.34852h.47184l.47184.52278.47184-1.3069.47184.17426.47184-.34852.47184-.52278.47184-.26139.47184-.60991.47184.08713.47184-.52278.47184-2.0911.47184-1.4812.47184-.8713.47184-1.6555.47184-2.0911.47184-.95843.47184-1.5683.47184-1.0456.47184-2.2654.47184-1.2198.47184-2.701.47184-1.0456.47184-3.2238.47184-1.6555.47184-3.3109.47184-.95843.94369-2.701.47184-2.2654.47184-1.3941.94369-6.012.47184-1.8297.47184-.43565.47184-3.1367.47184-1.1327.47184-2.3525.47184-1.3941.94369-3.1367 1.4155-18.733 1.4155-27.62.47184-13.766 1.8874-36.856.94369-12.111.94369-4.4436.47184 1.0456.47184 3.7466.94369 17.6 1.4155 28.23.94369 19.43 1.4155 21.521.47184 5.2278 1.8874 25.355 1.4155 14.638.94369 7.0575.47184 3.7466.47184 2.2654.47184 3.3981 2.8311 12.808.94369 2.4396.47184.69704.47184 1.1327.47184.60991h.47184l.62912.26139.62912.8713.15728-.08713.31456-.52278.31456.43565.15728-.08713.31456.26139.31456-.60991.15728-.52278.15728.17426.15728-.78417.15728-.17426h.15728l.15728.17426.15728-.17426.15728.087129.15728-.43565.15728.34852.47184-1.2198.15728.17426.15728-.08713.15728-.43565.15728.08713.31456-.78417.15728-.17426.31456-.8713.15728-.08713.31456-.52278.15728-.08713.31456-1.3941.15728.08713.31456-.43565.15728.08713.62912-1.2198.47184-2.701h.15728l.62912-2.3525.15728-.8713.15728-.17426.15728-.52278h.15728l.7864-2.8753.31456-.95843.15728-.52278.15728-1.0456.15728-.087129 1.101-5.5763.47184-1.2198.31456-.69704.15728.17426.31456-2.0911.15728-.34852.31456-1.3941.15728-.34852.31456-2.004.15728-1.0456.47184-.8713.31456-1.7426.15728-.087129.15728.17426.15728-.08713.31456-1.3941.47184-1.4812.15728-1.6555.15728.26139 1.4155-7.406h.15728l.15728-.17426.15728-.43565.15728-.78417.15728.69704.15728-1.0456.15728.26139 1.4155-10.281 1.101-17.774.7864-18.907.31456-11.153.31456-5.7506.31456-5.5763 1.5728-34.852.47184-5.2278.15728-1.2198.15728-3.2238.15728-.52278.15728.43565.62912-2.8753.15728-.34852.15728-1.0456.15728-.087129.31456.8713 1.2582 20.214.47184 7.4932.15728.78417.62912 12.547.47184 9.5843.94369 15.683.47184 6.8832.62912 11.327 2.0447 29.101.31456 3.0495.47184 3.9208.31456 1.6555.94369 9.3229.15728.52278.94369 6.6219.31456 1.7426.15728 1.3069.15728.26139.31456 1.2198 1.2582 6.6219.15728.69704.62912 4.3565.62912 2.4396.15728 1.6555.31456.43565.62912 2.9624.31456.69704.15728.17426.15728.60991.15728-.26139.31456.95843.15728.52278.15728.08713.47184 2.004.31456.43565.15728.08713.15728.26139.15728-.08713.15728.43565.31456.08713.15728.26139.31456-.17426.15728.43565.15728-.34852.47184.34852.31456-.60991.15728-.43565.31456.17426.31456-.43565.62912-1.5683.31456-.69704.31456.26139.31456-.26139.62912-.95843.31456.43565.31456-1.2198.62912-3.2238.31456-1.3941.31456-.26139.31456-.95843.62912-.34852.62912-2.0911.31456-.08713.62912-3.3109.31456-.26139.31456-.78417h.31456l.31456-1.1327.31456-2.1782.94369-3.2238.62912-2.9624.31456-2.2654.31456-.52278.62912-2.0911.62912-3.7466.31456.087129.62912-1.4812.62912-4.008.94369-5.8377.31456-1.1327.31456-1.7426h.31456l.62912-3.1367.31456-.69704.62912-2.004.31456-.95843.31456-1.9169.31456-.8713.94369-11.24.94369-17.426 2.5165-66.219.62912-11.763.31456-4.1822.62912-10.194.31456-3.3109.94369-5.5763h.31456l.31456 1.1327.31456 1.7426.94369 7.406.94369 16.206.31456-3.1367.62912 14.376.62912 10.63 1.5728 28.84 1.2582 21.957.62912 11.414 2.2019 30.408.94369 7.5803.94369 6.0991.31456 2.8753.62912 2.9624.31456 2.5268.31456 1.1327.62912 3.8337.31456.8713.31456-.17426.31456.087129.31456.43565.31456 1.0456.31456.60991.31456 1.3069.31456-1.1327.31456-.43565.31456.60991.31456-.26139.31456.69704.31456-.34852.62912.26139.62912-2.2654.62912.087129.31456-1.5683.31456-.8713.31456-1.3941.31456.34852.31456-1.3069.31456-.60991 1.8874-6.5347.31456-2.2654.62912-2.3525.31456-1.2198.62912-5.0535.31456-3.7466.31456-2.2654.31456-.8713 1.5728-11.153.31456-1.3941.31456-2.1782.31456-1.3941.31456-.43565.31456-2.4396.62912-2.4396.31456-1.7426.31456-.60991.31456.34852.31456-.69704.31456-1.6555.31456-.78417.62912-2.1782.31456-.34852.31456.26139.31456-.26139.31456.69704.31456 2.2654.31456-.08713.31456.17426.31456-.34852.31456-.60991.31456.69704.31456-.08713.31456-.26139.31456-1.3941h.62912l.31456-2.8753 1.2582-17.339.94369-20.737.31456-12.198 1.2582-25.703.94369-20.388.62912-9.9328.31456-7.1446.31456-3.3109.31456-.60991.62912-4.0951.31456-.34852.31456.52278.31456 1.4812.31456.52278.31456 3.5723.62912 2.9624.62912 7.0575.31456 7.7545.62912 8.1031.62912 8.9744.31456 5.9248.62912 15.248 2.8311 48.27 1.2582 20.214 1.5728 19.43.31456 3.0495.62912 3.2238 2.2019 16.38 1.2582 4.8793.31456 1.0456.31456.60991.31456 2.004.31456-.087129.31456.52278.62912 1.3941.31456.26139.31456.52278.62912-.34852.62912-1.0456.31456-1.3069.62912.087129.31456-1.1327.31456-1.6555.62912-1.1327.31456.17426.31456-2.004.31456-1.0456.31456-1.9169.31456-.34852.31456-2.6139.31456-1.0456.31456-.34852.94369-3.0495.31456-3.3109.62912-9.1486.31456-2.4396.94369-10.717.31456-3.2238.31456-1.9169.31456-2.6139.31456-1.3941.94369-2.6139.31456-1.3941.31456-3.0495.31456-1.5683.31456-2.1782.62912-3.2238.31456-1.9169.31456-.43565.31456-1.2198h.31456l.31456-1.2198.31456.78417.31456-1.7426.31456.34852.31456.78417.31456 1.2198.94369 1.7426.31456-.26139.31456 2.6139.94369 2.6139.31456.17426.31456 1.1327.31456-.43565.31456-1.2198 1.2582-14.464.94369-18.994.31456-8.0159.62912-10.891 1.2582-23.351.31456-4.705 1.2582-10.368.31456 1.9169.31456.78417.31456.26139.31456 1.1327.31456 3.3109.31456 2.0911.94369 20.388.31456 4.3565 1.2582 26.139.31456 2.9624.31456 6.7961.31456 3.6594.94369 18.036.94369 12.634.62912 10.804.62912 7.4932.31456 1.2198.94369 10.456 1.2582 7.5803.31456 1.4812 1.2582 9.8457.31456 1.3941.62912 1.4812.31456 2.6139.31456 1.2198.62912 3.1367 2.5165 7.5803.31456-.17426.31456.69704.31456.26139.31456.52278.31456.08713.31456-.08713.31456-.43565.31456-.08713.31456.43565.31456-.60991.31456-.08713.31456-.26139.31456.17426.31456.43565h.31456l.62912-.8713.31456.43565.31456-.78417.31456-.08713.31456-1.0456.31456.17426.31456-.08713.31456-1.5683.31456-.69704.31456-1.3941.62912-1.0456.62912-1.6555.62912-4.2694.31456-.34852.94369-3.6594.31456-.52278.94369-3.1367.31456-.78417.31456-.087129.62912-2.2654.31456-.52278.31456-1.2198.31456-1.8297.62912-1.9169.31456-2.8753.94369-2.6139.31456-.34852.31456-1.0456.31456-.08713 2.2019-11.065.31456-.78417.31456-.17426.94369-4.9664.62912-6.3605.31456-4.008.94369-15.248.62912-10.107 1.8874-42.258.62912-9.9328.31456-7.406.62912-6.2733.62912-5.6634.94369-2.4396.31456 1.3941.31456 2.004.62912 8.2773.31456 8.1902.62912 9.6714 1.8874 38.686 1.2582 19.953.62912 7.5803.62912 8.4516 2.5165 24.832.62912 3.7466.62912 3.5723.62912 3.9208.31456.95843.62912 2.701.31456.69704 3.1456 12.721h.31456l.31456.43565.31456 1.4812.31456-.26139.31456.95843.31456.08713.31456 1.3941.62912.34852.31456.34852.62912.34852.94369-.52278.31456-.78417.31456-.26139.31456-.69704.62912.34852.31456-.17426.31456.26139.62912.08713.31456-.08713.31456.60991.31456-.34852.94369-3.8337.62912-1.2198.62912-1.6555.31456-1.2198.31456-.43565.94369-2.7882.31456-2.6139.62912-2.8753.31456-.95843.31456-1.3941.62912-1.6555.94369-4.0951.31456-1.5683.31456-.26139h.31456l.31456-.69704.31456-1.2198.31456-1.8297.31456-.95843.62912-2.7882.31456-2.004.31456-.69704.62912-2.701.31456.17426.31456-2.0911.62912-2.7882.62912-4.008h.31456l.62912-2.6139.31456-2.0911.31456-.60991.31456-2.0911.62912-11.763.62912-10.368.31456-6.2733 1.2582-34.678.62912-12.721.94369-19.169 1.2582-11.24.31456-.17426.62912-1.3069.31456 1.2198.31456 2.5268.94369 13.854.31456 3.5723 2.5165 49.315.31456 3.2238 1.5728 26.139 1.5728 17.687.94369 10.281.31456 1.8297.62912 5.402.94369 5.3149.94369 6.0991.31456 1.1327.94369 5.2278.31456.8713.31456 1.2198.31456.34852.31456 1.2198.31456 1.7426.94369 2.3525.62912.95843.31456 1.0456.31456.60991.31456 1.3941.31456.78417.31456.34852.31456.69704.31456-.26139.31456.17426.31456-.34852.31456-.17426.31456-.52278m.62912 2.4396.31456 1.3941.31456-.08713.31456.26139.62912-1.5683.31456-.08713.31456-.52278.31456.17426.31456-.8713.31456.087129.62912-2.5268.31456-.78417h.31456l.31456-.8713.31456-2.0911.31456-.26139.31456-.95843.31456-1.4812.31456-.34852.31456-1.1327.31456-.69704.94369-4.6179.62912-2.4396.31456.17426.31456-1.1327.31456-2.6139.94369-4.4436.31456-2.5268.31456-1.4812.31456-2.1782.62912-2.2654.62912-2.5268.31456-.34852.31456-.69704.31456-1.1327.31456.087129.62912-2.7882.31456.08713.62912-5.3149.62912-4.0951.62912.17426.31456-2.4396.31456-1.3069.31456-3.3981.31456-1.6555.31456-2.5268 1.5728-22.305.31456-5.7506.94369-23.961 1.8874-42.084 1.2582-15.858.31456-.52278.62912.78417.31456 1.8297.62912 5.8377.31456 5.2278.94369 19.778.62912 11.153.62912 16.38.62912 10.891.31456 2.9624 3.1456 47.311 1.2582 9.2358.31456 2.1782.31456 3.0495 2.2019 13.679.31456.69704.94369 4.8793.31456.60991 1.2582 6.3605.94369 2.8753.31456.60991.31456.8713.62912.8713.62912 2.2654.31456 1.3941.31456.69704.62912.60991.31456-.43565.31456-.78417.31456-.34852.31456.52278.31456-.8713.31456.087129.31456.69704.31456-.52278.31456.43565.94369-1.4812.94369-2.5268.31456-.52278.62912-2.1782.31456-.69704.62912-2.7882.31456.26139.31456-1.5683.31456-.52278.31456-.8713.62912-2.2654.31456-.52278.62912-2.004.31456-2.0911.31456-.43565 1.2582-5.1407.31456-.78417.31456-1.3941.31456-.78417.62912-2.7882.62912-2.004.62912-2.3525.62912-2.0911.31456-2.4396.31456-.34852.31456-1.2198.31456-2.701.31456-1.3941.31456-.8713.31456-1.3941.31456-.43565.31456-.17426.31456-1.1327.31456-2.6139.62912-6.709.62912-5.4892.62912-12.111 1.5728-25.268.94369-20.388.31456-4.5307 1.2582-29.188.62912-11.24.31456-4.8793.31456-2.7882.31456-.34852.31456-5.1407.31456-2.1782.31456-.08713.62912 2.3525.31456 5.0535.62912 15.248.31456 4.7921.94369 20.388.31456 9.9328.94369 17.862.62912 11.588.62912 10.281.31456 3.8337.62912 10.02 1.5728 20.04.62912 6.1862 1.5728 13.766.31456 2.004.62912 2.7882.94369 5.4892 2.5165 12.198.31456-.08713.62912 2.4396.62912 1.4812.31456.34852.31456 1.0456.31456-.17426 1.5728 2.7882.31456-.17426.31456.52278.94369-.17426.62912-.78417.62912-.34852.31456-1.2198.31456-.17426h.31456l.31456-.43565.31456.52278.31456.08713.31456-.52278.62912-2.4396.62912-2.7882 2.2019-7.4932h.31456l.62912-1.7426.31456-1.6555.31456-.43565.62912-3.8337.31456.087129.31456-.69704.31456-.34852.31456-1.3069.31456-.08713 1.2582-8.4516.31456-1.4812.31456-.8713.31456-.43565.62912-2.4396.31456-.34852.31456-.95843.31456-2.7882.94369-4.0951.62912-2.5268.31456-.08713.31456-.26139.62912-2.7882.31456-2.004 1.2582-13.244 1.5728-27.62.62912-17.426 2.5165-58.028.31456-5.3149.62912-5.4892.31456-3.8337.31456-.69704.31456-2.7882.31456 2.5268.31456-.17426.94369 9.4971.31456 1.6555.62912 9.1486 4.7184 88.262 2.2019 28.143.62912 5.3149.31456 4.0951 1.2582 8.9744.31456 1.4812.31456 3.7466.31456.60991.31456 2.4396.31456 1.3069.31456 2.0911.31456.78417.31456 2.0911.31456.69704.62912 2.5268.31456.8713.62912.78417.31456-.087129.62912.087129.31456-.26139.31456.17426.31456-.17426.31456-.43565.31456-.8713.31456-.52278.31456-.26139.62912-2.004.31456-.26139.31456-1.4812.31456-.087129.62912-2.7882.62912-3.6594.31456-1.2198.31456.43565.31456-.17426.94369-3.9208.31456.26139.31456-1.6555.31456-.34852.31456-1.2198.62912-8.9744 1.2582-9.8457.31456-1.3069.31456-2.5268.31456-3.7466.62912-2.7882.62912-4.1822.62912-3.8337.31456-3.1367.62912-2.0911.31456-.52278.31456-.8713.31456-.43565h.31456l.31456-.26139.31456.69704.31456.26139.31456.52278.62912-.08713.31456.08713.31456 1.3941.31456 2.1782.31456-.78417.31456 1.1327.31456 2.0911.31456-2.5268.31456.17426.31456-.52278.31456-1.7426.31456-3.3109.31456-1.4812.31456-.8713.31456-2.9624.31456-6.4476.31456-2.7882 1.2582-24.745.31456-10.978.62912-11.24 1.5728-36.072 1.2582-23.002.94369-6.9704.31456-.43565.31456-.78417 1.2582 9.1486.31456 3.7466 2.8311 47.921 1.2582 24.745.62912 9.5843 2.5165 42.694 1.5728 16.816 1.8874 15.248 1.2582 6.3605.31456 2.2654.31456 1.1327.94369 5.2278.31456.34852.31456.78417.31456 1.4812.31456.17426.31456-.17426.31456.08713.31456-.26139.31456.26139.31456-.60991.31456-.34852.31456-.52278 1.2582-3.7466.31456-.60991.62912-2.3525.62912-2.1782.62912-2.6139.31456-.34852.31456.26139.31456-2.3525.31456-.08713.31456-1.4812.31456-2.3525.31456-3.3109.31456-.17426.94369-7.3189.62912-2.5268.31456-1.7426.94369-8.3645.31456-4.0951.31456-1.1327.62912-4.4436.31456-.60991.62912-5.2278.62912-2.9624.31456-1.3941.62912-3.7466.31456-.43565.31456.43565.62912-2.1782.31456-.08713.94369-1.7426.31456-1.1327.31456.8713.62912 3.1367.31456 2.4396.31456-.17426h.31456l.62912 4.008.31456-2.6139.31456.26139 1.5728-15.161.31456-3.7466.62912-10.891.94369-24.571 1.5728-29.624.94369-11.85.62912-3.3109.31456.60991.31456.087129.31456-.95843.31456-.17426.31456 3.2238.31456 4.8793.31456 9.3229.62912 11.588 1.5728 34.59.31456 3.6594.62912 11.763 1.8874 30.408 1.5728 22.131.62912 6.6219.62912 4.8793.31456 2.8753.31456 1.6555.31456 2.6139.94369 4.9664.62912 2.4396.62912 2.701 1.5728 8.2773.62912 2.2654.94369 4.705.31456.95843.31456.43565.31456 1.3941.62912 1.1327.31456.17426 1.5728 3.1367.31456-.26139.31456-.08713.31456-.34852.31456.26139.94369-.17426.62912-1.1327.62912-.69704.94369-.17426.31456-.52278.31456-.78417.31456-.34852.62912-2.6139.31456.087129.31456-.43565.31456-.8713.62912-2.6139.62912-3.2238 1.2582-2.9624.31456-2.1782.62912-2.8753.31456-.08713.62912-2.9624.31456-.52278.31456-2.4396.62912-2.4396 1.2582-4.7921.31456-.34852.31456-2.701.31456-.78417.31456-.26139.62912-5.2278.31456-.8713.31456-1.5683.62912-1.3069.31456-1.4812.31456-2.5268.62912-2.8753.31456-.43565.94369-7.8417 1.5728-27.969.31456-4.9664 2.5165-54.717 1.2582-13.854.31456-1.6555.31456-1.0456.31456.78417.31456.43565.94369 10.456 2.8311 55.589 3.4602 49.315.31456 2.004 1.8874 17.252.62912 3.8337.94369 4.0951.94369 5.9248.31456.69704.62912 2.5268 1.2582 4.4436.31456 1.6555.94369 2.5268.31456.26139.62912 1.7426.31456.08713.62912 1.7426.31456.34852.94369 2.4396.62912.08713.62912-.78417.31456.17426.31456-.34852.31456-.78417.31456-.26139.31456-.52278.31456-.95843.31456.34852.62912-.60991.31456-1.8297.31456.17426.31456-.8713.31456.087129.31456-1.5683.31456-.69704.31456-.34852.31456-1.3069.31456-.52278.62912-2.5268.31456-2.3525.31456-1.0456.31456-1.4812.31456-.34852.31456-1.9169.31456-.69704.94369-4.3565.31456-1.1327.62912-1.3069.31456-1.7426.31456.17426.31456-1.2198.31456-.69704h.31456l1.2582-7.2318.31456-.52278.31456-1.7426.94369-2.5268.31456-1.0456h.31456l.94369-6.012.31456-.34852 1.5728-8.1902.62912-5.1407.31456-4.5307.31456-2.6139.94369-16.555.94369-22.131.94369-21.957.31456-3.3109.31456-6.012.31456-8.4516 1.5728-17.862.31456-.26139.31456-1.2198.31456-.34852.94369 7.5803.62912 12.808.62912 9.6714 2.2019 37.727.62912 12.982.62912 10.107.94369 11.501.62912 11.24.62912 7.3189 1.2582 10.194.62912 4.4436 1.2582 9.6714.31456.8713.31456 1.3069.31456.78417 1.2582 6.4476.31456 1.1327.62912 1.1327.62912 2.004.31456.69704.31456 1.9169.31456.69704.31456-.43565.62912.95843.31456.17426.31456.8713.31456 1.6555.31456-.17426.31456.26139.62912.69704.31456.17426h.31456l.62912.34852.31456-.8713.31456-.52278.31456.95843.31456-.17426.62912-1.2198.31456-.087129.31456-.34852.31456-.52278.31456.69704.94369-1.3941.31456-2.004.31456-.8713.31456-.34852.31456-.52278.94369-3.8337.31456-1.9169.62912-2.1782.31456-1.3941.31456-.60991.31456-.95843.94369-5.5763.31456-.69704.62912-3.8337.31456-2.0911.31456-.8713v0" clip-path="url(#d)" fill="none" stroke="#28f" stroke-linecap="square" stroke-width="1.5"/>
   </g>
   <g id="cu">
    <path d="m52 259.78v-232.9" fill="none" stroke="#000" stroke-linecap="square" stroke-width=".8"/>
   </g>
   <g id="cv">
    <path d="m853.2 259.78v-232.9" fill="none" stroke="#000" stroke-linecap="square" stroke-width=".8"/>
   </g>
   <g id="cw">
    <path d="m52 259.78h801.2" fill="none" stroke="#000" stroke-linecap="square" stroke-width=".8"/>
   </g>
   <g id="cx">
    <path d="m52 26.88h801.2" fill="none" stroke="#000" stroke-linecap="square" stroke-width=".8"/>
   </g>
   <g id="cy">
    <!-- 同時接続数の推移 -->
    <g transform="translate(404.6 20.88) scale(.12 -.12)">
     <defs>
      <path id="x" transform="scale(.015625)" d="m1587 3936h3232v-518h-3232v518zm320-1114h557v-2534h-557v2534zm301 0h2291v-2086h-2291v512h1734v1069h-1734v505zm-1683 2260h5113v-570h-4524v-5056h-589v5626zm4768 0h595v-4896q0-250-67-397t-227-218q-160-77-426-96t-675-19q-13 83-45 192t-77 218q-45 108-89 185 281-13 527-13 247 0 330 0 83 7 118 42 36 35 36 112v4890z"/>
      <path id="v" transform="scale(.015625)" d="m2714 4672h3238v-525h-3238v525zm-244-1235h3712v-538h-3712v538zm20-1184h3635v-531h-3635v531zm1523 3155h595v-2310h-595v2310zm832-2451h589v-2823q0-230-61-364-61-135-227-199-167-70-423-86t-633-16q-20 121-78 285-57 163-121 284 275-6 509-9t310-3q77 6 106 28 29 23 29 93v2810zm-2023-1677 487 282q153-160 313-352t294-381q135-189 206-343l-519-313q-64 153-189 348-124 196-278 394-154 199-314 365zm-2086 3718h1619v-4281h-1619v544h1056v3187h-1056v550zm32-1843h1293v-537h-1293v537zm-320 1843h563v-4832h-563v4832z"/>
      <path id="w" transform="scale(.015625)" d="m3866 5408h614v-870h-614v870zm-1479-653h3597v-518h-3597v518zm-230-1485h4e3v-518h-4e3v518zm825 922 519 102q64-160 121-342 58-182 96-352 39-170 45-304l-544-128q-6 134-42 313-35 180-83 365-48 186-112 346zm1856 109 589-71q-96-275-202-557-105-281-195-486l-518 77q58 147 122 329 64 183 118 372t86 336zm-2643-2106h3943v-518h-3943v518zm1408 685 602-115q-167-371-362-784t-390-797-362-685l-525 179q160 288 346 666t368 784 323 752zm-659-2157 358 403q352-102 733-240 381-137 752-304 371-166 697-336 327-169 558-329l-384-461q-218 160-532 336-313 176-685 345-371 170-755 323-384 154-742 263zm1894 1114 583-71q-122-550-353-944-230-393-604-662t-922-435q-547-167-1296-269-25 128-93 269-67 141-137 230 678 64 1168 192t819 349q330 221 531 550 202 330 304 791zm-4684 217q396 90 953 240 557 151 1120 311l77-544q-525-154-1053-311-528-156-963-284l-134 588zm121 2093h1965v-563h-1965v563zm819 1248h576v-5229q0-236-51-374t-192-208q-141-77-355-99-214-23-541-16-13 115-64 288t-109 294q205-6 381-6t234 0q64 0 92 28 29 29 29 93v5229z"/>
      <path id="u" transform="scale(.015625)" d="m4058 5408h595v-1798h-595v1798zm-1415-563h3443v-499h-3443v499zm231-992h3008v-499h-3008v499zm-224-877h3475v-1203h-531v729h-2432v-729h-512v1203zm1964-877h551v-1881q0-122 22-157 23-35 106-35 25 0 92 0 68 0 135 0t99 0q51 0 83 54t45 224 19 515q90-70 234-131t259-93q-19-429-83-662-64-234-183-326-118-93-316-93-39 0-103 0t-134 0-138 0q-67 0-99 0-237 0-365 64t-176 218q-48 153-48 422v1881zm-1164-6h550v-455q0-243-48-528-48-284-186-579-137-294-409-572-272-279-727-503-70 90-192 208-121 118-230 195 416 205 665 438 250 234 371 474 122 240 164 467 42 228 42 413v442zm-2240 3309 524-192q-121-244-259-503-137-259-275-496t-259-416l-410 173q122 186 246 438 125 253 240 515 116 263 193 481zm716-743 500-230q-224-359-496-756-272-396-548-764-275-368-518-650l-358 205q179 211 377 483 199 272 387 569 189 298 358 592 170 295 298 551zm-1721-665 307 403q166-154 339-340 173-185 320-364t224-327l-326-460q-77 160-218 348-141 189-314 384-172 196-332 356zm1485-832 435 179q128-211 249-458 122-246 215-474 93-227 137-412l-473-211q-32 185-119 422-86 237-201 486-115 250-243 468zm-1530-583q422 26 998 54 576 29 1184 68l7-499q-570-45-1127-84-556-38-992-70l-70 531zm1702-992 436 135q121-276 214-596t118-556l-454-148q-26 237-112 563-86 327-202 602zm-1363 109 499-83q-57-455-163-897-105-441-253-748-51 32-134 73-83 42-170 83-86 42-144 62 148 294 234 697t131 813zm691 627h525v-2861h-525v2861z"/>
      <path id="p" transform="scale(.015625)" d="m224 2022h3187v-499h-3187v499zm51 2247h3111v-487h-3111v487zm1127-1735 563-121q-154-320-333-672t-352-679q-173-326-326-582l-532 173q148 243 324 566t345 669q170 346 311 646zm934-832 563-64q-89-480-262-838t-461-614-701-432-976-298q-25 128-99 269t-157 237q659 102 1085 303 426 202 666 554t342 883zm422 3597 519-211q-147-218-298-436-150-217-278-377l-403 186q121 173 252 413 132 240 208 425zm-1203 109h563v-2957h-563v2957zm-1075-320 448 186q134-192 246-420 112-227 157-393l-467-211q-38 172-147 406t-237 432zm1094-1050 397-236q-160-263-400-529-240-265-519-489-278-224-553-378-51 103-141 237-89 135-179 218 269 109 534 294 266 186 493 416 228 231 368 467zm487-204q83-45 246-145 163-99 352-211t346-211 221-150l-327-423q-83 77-230 198-147 122-317 253-170 132-327 250-156 119-259 189l295 250zm1798 396h2311v-556h-2311v556zm115 1178 615-90q-103-640-263-1235t-384-1101q-224-505-512-889-44 57-134 134t-186 157-166 125q275 339 473 796 199 458 340 995 141 538 217 1108zm1223-1510 614-58q-147-1101-445-1940-297-838-813-1443-515-604-1321-1014-26 71-90 177-64 105-134 208-70 102-128 159 742 346 1212 880 471 535 730 1290 260 755 375 1741zm-1005-135q134-851 387-1597 253-745 659-1305 407-560 1002-874-70-57-154-150-83-93-154-189-70-96-121-179-633 371-1056 988-422 618-688 1434-265 816-425 1783l550 89zm-3309-3065 327 416q377-148 754-330 378-182 701-378 324-195 548-368l-416-435q-211 179-519 378-307 198-666 383-358 186-729 334z"/>
      <path id="t" transform="scale(.015625)" d="m3686 4378q-64-493-163-1041-99-547-265-1084-192-653-432-1104t-522-688-595-237q-320 0-596 221-275 221-448 621-172 400-172 931 0 537 220 1017 221 480 611 851 391 372 909 583 519 211 1121 211 576 0 1040-186 464-185 793-515 330-329 502-771 173-441 173-941 0-672-278-1194-278-521-816-851-538-329-1318-444l-378 601q166 20 307 42t263 48q307 70 585 217 279 148 496 375 218 227 342 534 125 308 125 692t-122 713q-121 330-358 573-236 243-582 380-346 138-781 138-525 0-935-186-409-185-694-489-284-304-432-656-147-352-147-678 0-365 89-605 90-240 224-355 135-115 276-115t288 144 297 457q151 314 298 800 147 461 246 982 100 522 145 1021l684-12z"/>
      <path id="q" transform="scale(.015625)" d="m2995 2925h2893v-519h-2893v519zm0-1280h2893v-519h-2893v519zm-64-1299h3232v-557h-3232v557zm1312 3577h563v-3763h-563v3763zm429 1466 634-141q-154-390-340-794-185-403-339-684l-512 140q103 199 208 458 106 259 195 528 90 269 154 493zm-1472 25 582-147q-153-518-371-1018-217-499-483-931t-573-758q-38 64-109 160-70 96-147 198-77 103-141 160 416 416 733 1034t509 1302zm128-1203h2720v-537h-2720v-4205h-582v4422l313 320h269zm-3174-2157q396 90 953 240 557 151 1120 311l77-544q-525-154-1053-311-528-156-963-284l-134 588zm121 2093h1965v-563h-1965v563zm819 1248h576v-5229q0-236-51-374t-192-208q-141-77-355-99-214-23-541-16-13 115-64 288t-109 294q205-6 381-6t234 0q64 0 92 28 29 29 29 93v5229z"/>
      <path id="o" transform="scale(.015625)" d="m4051 5402 595-109q-281-493-729-941t-1107-806q-39 64-106 144t-141 153q-73 74-137 119 608 288 1011 678t614 762zm-77-557h1511v-493h-1863l352 493zm1293 0h109l109 25 384-179q-192-505-496-905t-695-701q-390-301-845-519-454-217-947-358-44 109-137 253t-176 227q448 109 867 294 419 186 777 445 359 259 631 592t419 730v96zm-1990-954 377 307q167-96 336-218 170-121 320-249 151-128 247-237l-397-332q-90 108-237 236t-317 259q-169 132-329 234zm1107-934 595-109q-307-538-803-1031-496-492-1232-876-38 64-102 144t-138 156q-74 77-138 116 455 217 807 483t604 554q253 288 407 563zm-90-589h1460v-506h-1818l358 506zm1268 0h121l109 26 384-167q-192-614-531-1075t-787-794q-448-332-983-553-534-221-1129-355-45 115-132 269-86 153-176 249 551 96 1043 285 493 189 903 473 410 285 714 669t464 883v90zm-2132-1056 410 339q186-102 384-237 198-134 371-275t282-269l-435-371q-103 128-270 272-166 144-361 288t-381 253zm-2150 3533h589v-5376h-589v5376zm-992-1242h2336v-569h-2336v569zm1024-224 365-160q-96-339-231-707-134-368-291-727-157-358-336-672-179-313-365-537-44 128-134 291t-160 272q173 192 339 457 167 266 323 570 157 304 282 618t208 595zm941 1946 416-467q-314-122-695-221-380-99-784-173-403-74-780-131-20 102-71 236-51 135-102 231 358 58 732 138 375 80 711 179t573 208zm-397-2579q58-45 179-170 122-125 266-266 144-140 259-265t160-183l-352-473q-58 102-157 255-99 154-218 317-118 164-227 311-108 147-185 237l275 237z"/>
     </defs>
     <use xlink:href="#x"/>
     <use transform="translate(100)" xlink:href="#v"/>
     <use transform="translate(200)" xlink:href="#w"/>
     <use transform="translate(300)" xlink:href="#u"/>
     <use transform="translate(400)" xlink:href="#p"/>
     <use transform="translate(500)" xlink:href="#t"/>
     <use transform="translate(600)" xlink:href="#q"/>
     <use transform="translate(700)" xlink:href="#o"/>
    </g>
   </g>
  </g>
  <g id="cz">
   <g id="da">
    <path d="m52 523.06h801.2v-232.9h-801.2z" fill="#fff"/>
   </g>
   <g id="db">
    <path d="m140.95 523.06h.94369v-232.9h-.94369z" clip-path="url(#c)" fill="#808080" opacity=".3" stroke="#808080"/>
   </g>
   <g id="dc">
    <path d="m488.38 523.06h.62912v-232.9h-.62912z" clip-path="url(#c)" fill="#808080" opacity=".3" stroke="#808080"/>
   </g>
   <g id="dd">
    <g id="de">
     <g id="df">
      <path d="m107.44 523.06v-232.9" clip-path="url(#c)" fill="none" stroke="#b0b0b0" stroke-linecap="square" stroke-opacity=".3" stroke-width=".8"/>
     </g>
     <g id="dg">
      <use x="107.444466" y="523.055464" stroke="#000000" stroke-width=".8" xlink:href="#g"/>
     </g>
     <g id="dh">
      <!-- 2025-07-01 -->
      <g transform="translate(60.655 563.33) rotate(-30) scale(.1 -.1)">
       <defs>
        <path id="h" transform="scale(.015625)" d="m301 1536v544h1689v-544h-1689z"/>
       </defs>
       <use xlink:href="#b"/>
       <use transform="translate(57)" xlink:href="#a"/>
       <use transform="translate(114)" xlink:href="#b"/>
       <use transform="translate(171)" xlink:href="#i"/>
       <use transform="translate(228)" xlink:href="#h"/>
       <use transform="translate(263.7)" xlink:href="#a"/>
       <use transform="translate(320.7)" xlink:href="#j"/>
       <use transform="translate(377.7)" xlink:href="#h"/>
       <use transform="translate(413.4)" xlink:href="#a"/>
       <use transform="translate(470.4)" xlink:href="#e"/>
      </g>
     </g>
    </g>
    <g id="di">
     <g id="dj">
      <path d="m198.04 523.06v-232.9" clip-path="url(#c)" fill="none" stroke="#b0b0b0" stroke-linecap="square" stroke-opacity=".3" stroke-width=".8"/>
     </g>
     <g id="dk">
      <use x="198.038327" y="523.055464" stroke="#000000" stroke-width=".8" xlink:href="#g"/>
     </g>
     <g id="dl">
      <!-- 2025-07-03 -->
      <g transform="translate(151.25 563.33) rotate(-30) scale(.1 -.1)">
       <use xlink:href="#b"/>
       <use transform="translate(57)" xlink:href="#a"/>
       <use transform="translate(114)" xlink:href="#b"/>
       <use transform="translate(171)" xlink:href="#i"/>
       <use transform="translate(228)" xlink:href="#h"/>
       <use transform="translate(263.7)" xlink:href="#a"/>
       <use transform="translate(320.7)" xlink:href="#j"/>
       <use transform="translate(377.7)" xlink:href="#h"/>
       <use transform="translate(413.4)" xlink:href="#a"/>
       <use transform="translate(470.4)" xlink:href="#l"/>
      </g>
     </g>
    </g>
    <g id="dm">
     <g id="dn">
      <path d="m288.63 523.06v-232.9" clip-path="url(#c)" fill="none" stroke="#b0b0b0" stroke-linecap="square" stroke-opacity=".3" stroke-width=".8"/>
     </g>
     <g id="do">
      <use x="288.632188" y="523.055464" stroke="#000000" stroke-width=".8" xlink:href="#g"/>
     </g>
     <g id="dp">
      <!-- 2025-07-05 -->
      <g transform="translate(241.84 563.33) rotate(-30) scale(.1 -.1)">
       <use xlink:href="#b"/>
       <use transform="translate(57)" xlink:href="#a"/>
       <use transform="translate(114)" xlink:href="#b"/>
       <use transform="translate(171)" xlink:href="#i"/>
       <use transform="translate(228)" xlink:href="#h"/>
       <use transform="translate(263.7)" xlink:href="#a"/>
       <use transform="translate(320.7)" xlink:href="#j"/>
       <use transform="translate(377.7)" xlink:href="#h"/>
       <use transform="translate(413.4)" xlink:href="#a"/>
       <use transform="translate(470.4)" xlink:href="#i"/>
      </g>
     </g>
    </g>
    <g id="dq">
     <g id="dr">
      <path d="m379.23 523.06v-232.9" clip-path="url(#c)" fill="none" stroke="#b0b0b0" stroke-linecap="square" stroke-opacity=".3" stroke-width=".8"/>
     </g>
     <g id="ds">
      <use x="379.22605" y="523.055464" stroke="#000000" stroke-width=".8" xlink:href="#g"/>
     </g>
     <g id="dt">
      <!-- 2025-07-07 -->
      <g transform="translate(332.44 563.33) rotate(-30) scale(.1 -.1)">
       <use xlink:href="#b"/>
       <use transform="translate(57)" xlink:href="#a"/>
       <use transform="translate(114)" xlink:href="#b"/>
       <use transform="translate(171)" xlink:href="#i"/>
       <use transform="translate(228)" xlink:href="#h"/>
       <use transform="translate(263.7)" xlink:href="#a"/>
       <use transform="translate(320.7)" xlink:href="#j"/>
       <use transform="translate(377.7)" xlink:href="#h"/>
       <use transform="translate(413.4)" xlink:href="#a"/>
       <use transform="translate(470.4)" xlink:href="#j"/>
      </g>
     </g>
    </g>
    <g id="du">
     <g id="dv">
      <path d="m469.82 523.06v-232.9" clip-path="url(#c)" fill="none" stroke="#b0b0b0" stroke-linecap="square" stroke-opacity=".3" stroke-width=".8"/>
     </g>
     <g id="dw">
      <use x="469.819911" y="523.055464" stroke="#000000" stroke-width=".8" xlink:href="#g"/>
     </g>
     <g id="dx">
      <!-- 2025-07-09 -->
      <g transform="translate(423.03 563.33) rotate(-30) scale(.1 -.1)">
       <use xlink:href="#b"/>
       <use transform="translate(57)" xlink:href="#a"/>
       <use transform="translate(114)" xlink:href="#b"/>
       <use transform="translate(171)" xlink:href="#i"/>
       <use transform="translate(228)" xlink:href="#h"/>
       <use transform="translate(263.7)" xlink:href="#a"/>
       <use transform="translate(320.7)" xlink:href="#j"/>
       <use transform="translate(377.7)" xlink:href="#h"/>
       <use transform="translate(413.4)" xlink:href="#a"/>
       <use transform="translate(470.4)" xlink:href="#m"/>
      </g>
     </g>
    </g>
    <g id="dy">
     <g id="dz">
      <path d="m560.41 523.06v-232.9" clip-path="url(#c)" fill="none" stroke="#b0b0b0" stroke-linecap="square" stroke-opacity=".3" stroke-width=".8"/>
     </g>
     <g id="ea">
      <use x="560.413773" y="523.055464" stroke="#000000" stroke-width=".8" xlink:href="#g"/>
     </g>
     <g id="eb">
      <!-- 2025-07-11 -->
      <g transform="translate(513.62 563.33) rotate(-30) scale(.1 -.1)">
       <use xlink:href="#b"/>
       <use transform="translate(57)" xlink:href="#a"/>
       <use transform="translate(114)" xlink:href="#b"/>
       <use transform="translate(171)" xlink:href="#i"/>
       <use transform="translate(228)" xlink:href="#h"/>
       <use transform="translate(263.7)" xlink:href="#a"/>
       <use transform="translate(320.7)" xlink:href="#j"/>
       <use transform="translate(377.7)" xlink:href="#h"/>
       <use transform="translate(413.4)" xlink:href="#e"/>
       <use transform="translate(470.4)" xlink:href="#e"/>
      </g>
     </g>
    </g>
    <g id="ec">
     <g id="ed">
      <path d="m651.01 523.06v-232.9" clip-path="url(#c)" fill="none" stroke="#b0b0b0" stroke-linecap="square" stroke-opacity=".3" stroke-width=".8"/>
     </g>
     <g id="ee">
      <use x="651.007634" y="523.055464" stroke="#000000" stroke-width=".8" xlink:href="#g"/>
     </g>
     <g id="ef">
      <!-- 2025-07-13 -->
      <g transform="translate(604.22 563.33) rotate(-30) scale(.1 -.1)">
       <use xlink:href="#b"/>
       <use transform="translate(57)" xlink:href="#a"/>
       <use transform="translate(114)" xlink:href="#b"/>
       <use transform="translate(171)" xlink:href="#i"/>
       <use transform="translate(228)" xlink:href="#h"/>
       <use transform="translate(263.7)" xlink:href="#a"/>
       <use transform="translate(320.7)" xlink:href="#j"/>
       <use transform="translate(377.7)" xlink:href="#h"/>
       <use transform="translate(413.4)" xlink:href="#e"/>
       <use transform="translate(470.4)" xlink:href="#l"/>
      </g>
     </g>
    </g>
    <g id="eg">
     <g id="eh">
      <path d="m741.6 523.06v-232.9" clip-path="url(#c)" fill="none" stroke="#b0b0b0" stroke-linecap="square" stroke-opacity=".3" stroke-width=".8"/>
     </g>
     <g id="ei">
      <use x="741.601496" y="523.055464" stroke="#000000" stroke-width=".8" xlink:href="#g"/>
     </g>
     <g id="ej">
      <!-- 2025-07-15 -->
      <g transform="translate(694.81 563.33) rotate(-30) scale(.1 -.1)">
       <use xlink:href="#b"/>
       <use transform="translate(57)" xlink:href="#a"/>
       <use transform="translate(114)" xlink:href="#b"/>
       <use transform="translate(171)" xlink:href="#i"/>
       <use transform="translate(228)" xlink:href="#h"/>
       <use transform="translate(263.7)" xlink:href="#a"/>
       <use transform="translate(320.7)" xlink:href="#j"/>
       <use transform="translate(377.7)" xlink:href="#h"/>
       <use transform="translate(413.4)" xlink:href="#e"/>
       <use transform="translate(470.4)" xlink:href="#i"/>
      </g>
     </g>
    </g>
    <g id="ek">
     <g id="el">
      <path d="m832.2 523.06v-232.9" clip-path="url(#c)" fill="none" stroke="#b0b0b0" stroke-linecap="square" stroke-opacity=".3" stroke-width=".8"/>
     </g>
     <g id="em">
      <use x="832.195357" y="523.055464" stroke="#000000" stroke-width=".8" xlink:href="#g"/>
     </g>
     <g id="en">
      <!-- 2025-07-17 -->
      <g transform="translate(785.41 563.33) rotate(-30) scale(.1 -.1)">
       <use xlink:href="#b"/>
       <use transform="translate(57)" xlink:href="#a"/>
       <use transform="translate(114)" xlink:href="#b"/>
       <use transform="translate(171)" xlink:href="#i"/>
       <use transform="translate(228)" xlink:href="#h"/>
       <use transform="translate(263.7)" xlink:href="#a"/>
       <use transform="translate(320.7)" xlink:href="#j"/>
       <use transform="translate(377.7)" xlink:href="#h"/>
       <use transform="translate(413.4)" xlink:href="#e"/>
       <use transform="translate(470.4)" xlink:href="#j"/>
      </g>
     </g>
    </g>
   </g>
   <g id="eo">
    <g id="ep">
     <g id="eq">
      <path d="m52 512.86h801.2" clip-path="url(#c)" fill="none" stroke="#b0b0b0" stroke-linecap="square" stroke-opacity=".3" stroke-width=".8"/>
     </g>
     <g id="er">
      <use x="52" y="512.86216" stroke="#000000" stroke-width=".8" xlink:href="#f"/>
     </g>
     <g id="es">
      <!-- 104700 -->
      <g transform="translate(10.8 516.85) scale(.1 -.1)">
       <use xlink:href="#e"/>
       <use transform="translate(57)" xlink:href="#a"/>
       <use transform="translate(114)" xlink:href="#n"/>
       <use transform="translate(171)" xlink:href="#j"/>
       <use transform="translate(228)" xlink:href="#a"/>
       <use transform="translate(285)" xlink:href="#a"/>
      </g>
     </g>
    </g>
    <g id="et">
     <g id="eu">
      <path d="m52 489.28h801.2" clip-path="url(#c)" fill="none" stroke="#b0b0b0" stroke-linecap="square" stroke-opacity=".3" stroke-width=".8"/>
     </g>
     <g id="ev">
      <use x="52" y="489.284743" stroke="#000000" stroke-width=".8" xlink:href="#f"/>
     </g>
     <g id="ew">
      <!-- 105000 -->
      <g transform="translate(10.8 493.27) scale(.1 -.1)">
       <use xlink:href="#e"/>
       <use transform="translate(57)" xlink:href="#a"/>
       <use transform="translate(114)" xlink:href="#i"/>
       <use transform="translate(171)" xlink:href="#a"/>
       <use transform="translate(228)" xlink:href="#a"/>
       <use transform="translate(285)" xlink:href="#a"/>
      </g>
     </g>
    </g>
    <g id="ex">
     <g id="ey">
      <path d="m52 465.71h801.2" clip-path="url(#c)" fill="none" stroke="#b0b0b0" stroke-linecap="square" stroke-opacity=".3" stroke-width=".8"/>
     </g>
     <g id="ez">
      <use x="52" y="465.707325" stroke="#000000" stroke-width=".8" xlink:href="#f"/>
     </g>
     <g id="fa">
      <!-- 105300 -->
      <g transform="translate(10.8 469.69) scale(.1 -.1)">
       <use xlink:href="#e"/>
       <use transform="translate(57)" xlink:href="#a"/>
       <use transform="translate(114)" xlink:href="#i"/>
       <use transform="translate(171)" xlink:href="#l"/>
       <use transform="translate(228)" xlink:href="#a"/>
       <use transform="translate(285)" xlink:href="#a"/>
      </g>
     </g>
    </g>
    <g id="fb">
     <g id="fc">
      <path d="m52 442.13h801.2" clip-path="url(#c)" fill="none" stroke="#b0b0b0" stroke-linecap="square" stroke-opacity=".3" stroke-width=".8"/>
     </g>
     <g id="fd">
      <use x="52" y="442.129907" stroke="#000000" stroke-width=".8" xlink:href="#f"/>
     </g>
     <g id="fe">
      <!-- 105600 -->
      <g transform="translate(10.8 446.12) scale(.1 -.1)">
       <use xlink:href="#e"/>
       <use transform="translate(57)" xlink:href="#a"/>
       <use transform="translate(114)" xlink:href="#i"/>
       <use transform="translate(171)" xlink:href="#k"/>
       <use transform="translate(228)" xlink:href="#a"/>
       <use transform="translate(285)" xlink:href="#a"/>
      </g>
     </g>
    </g>
    <g id="ff">
     <g id="fg">
      <path d="m52 418.55h801.2" clip-path="url(#c)" fill="none" stroke="#b0b0b0" stroke-linecap="square" stroke-opacity=".3" stroke-width=".8"/>
     </g>
     <g id="fh">
      <use x="52" y="418.55249" stroke="#000000" stroke-width=".8" xlink:href="#f"/>
     </g>
     <g id="fi">
      <!-- 105900 -->
      <g transform="translate(10.8 422.54) scale(.1 -.1)">
       <use xlink:href="#e"/>
       <use transform="translate(57)" xlink:href="#a"/>
       <use transform="translate(114)" xlink:href="#i"/>
       <use transform="translate(171)" xlink:href="#m"/>
       <use transform="translate(228)" xlink:href="#a"/>
       <use transform="translate(285)" xlink:href="#a"/>
      </g>
     </g>
    </g>
    <g id="fj">
     <g id="fk">
      <path d="m52 394.98h801.2" clip-path="url(#c)" fill="none" stroke="#b0b0b0" stroke-linecap="square" stroke-opacity=".3" stroke-width=".8"/>
     </g>
     <g id="fl">
      <use x="52" y="394.975072" stroke="#000000" stroke-width=".8" xlink:href="#f"/>
     </g>
     <g id="fm">
      <!-- 106200 -->
      <g transform="translate(10.8 398.96) scale(.1 -.1)">
       <use xlink:href="#e"/>
       <use transform="translate(57)" xlink:href="#a"/>
       <use transform="translate(114)" xlink:href="#k"/>
       <use transform="translate(171)" xlink:href="#b"/>
       <use transform="translate(228)" xlink:href="#a"/>
       <use transform="translate(285)" xlink:href="#a"/>
      </g>
     </g>
    </g>
    <g id="fn">
     <g id="fo">
      <path d="m52 371.4h801.2" clip-path="url(#c)" fill="none" stroke="#b0b0b0" stroke-linecap="square" stroke-opacity=".3" stroke-width=".8"/>
     </g>
     <g id="fp">
      <use x="52" y="371.397654" stroke="#000000" stroke-width=".8" xlink:href="#f"/>
     </g>
     <g id="fq">
      <!-- 106500 -->
      <g transform="translate(10.8 375.38) scale(.1 -.1)">
       <use xlink:href="#e"/>
       <use transform="translate(57)" xlink:href="#a"/>
       <use transform="translate(114)" xlink:href="#k"/>
       <use transform="translate(171)" xlink:href="#i"/>
       <use transform="translate(228)" xlink:href="#a"/>
       <use transform="translate(285)" xlink:href="#a"/>
      </g>
     </g>
    </g>
    <g id="fr">
     <g id="fs">
      <path d="m52 347.82h801.2" clip-path="url(#c)" fill="none" stroke="#b0b0b0" stroke-linecap="square" stroke-opacity=".3" stroke-width=".8"/>
     </g>
     <g id="ft">
      <use x="52" y="347.820237" stroke="#000000" stroke-width=".8" xlink:href="#f"/>
     </g>
     <g id="fu">
      <!-- 106800 -->
      <g transform="translate(10.8 351.81) scale(.1 -.1)">
       <use xlink:href="#e"/>
       <use transform="translate(57)" xlink:href="#a"/>
       <use transform="translate(114)" xlink:href="#k"/>
       <use transform="translate(171)" xlink:href="#r"/>
       <use transform="translate(228)" xlink:href="#a"/>
       <use transform="translate(285)" xlink:href="#a"/>
      </g>
     </g>
    </g>
    <g id="fv">
     <g id="fw">
      <path d="m52 324.24h801.2" clip-path="url(#c)" fill="none" stroke="#b0b0b0" stroke-linecap="square" stroke-opacity=".3" stroke-width=".8"/>
     </g>
     <g id="fx">
      <use x="52" y="324.242819" stroke="#000000" stroke-width=".8" xlink:href="#f"/>
     </g>
     <g id="fy">
      <!-- 107100 -->
      <g transform="translate(10.8 328.23) scale(.1 -.1)">
       <use xlink:href="#e"/>
       <use transform="translate(57)" xlink:href="#a"/>
       <use transform="translate(114)" xlink:href="#j"/>
       <use transform="translate(171)" xlink:href="#e"/>
       <use transform="translate(228)" xlink:href="#a"/>
       <use transform="translate(285)" xlink:href="#a"/>
      </g>
     </g>
    </g>
    <g id="fz">
     <g id="ga">
      <path d="m52 300.67h801.2" clip-path="url(#c)" fill="none" stroke="#b0b0b0" stroke-linecap="square" stroke-opacity=".3" stroke-width=".8"/>
     </g>
     <g id="gb">
      <use x="52" y="300.665401" stroke="#000000" stroke-width=".8" xlink:href="#f"/>
     </g>
     <g id="gc">
      <!-- 107400 -->
      <g transform="translate(10.8 304.65) scale(.1 -.1)">
       <use xlink:href="#e"/>
       <use transform="translate(57)" xlink:href="#a"/>
       <use transform="translate(114)" xlink:href="#j"/>
       <use transform="translate(171)" xlink:href="#n"/>
       <use transform="translate(228)" xlink:href="#a"/>
       <use transform="translate(285)" xlink:href="#a"/>
      </g>
     </g>
    </g>
   </g>
   <g id="gd">
    <path d="m88.418 512.47h.16882l.49386-.31436h.4451l1.415-.55014.48914-.31436 1.3872-.23578.94369.15718.47184-.23577.47184-.39296h.47184l.94369-1.0217.94369-.15718.94369-.70732 1.4155.15718.47184-.078591.47184-.31437.47184-.47155.47184-.78591.94369-.70732h.47184l.94369-.70732.47184-.47155 1.4155-2.8293 1.4155-1.1003.47184-.23577.47184.078591.47184-.39296h1.4155l.47184-.31436h.47184l.47184-.39296.47184-.23577 2.3592-.47155.47184.15718.47184-.078591.47184.078591 2.3592-.31437 1.8874-.078591 1.4155-.15718 6.134-.078591.94369-.078591h.47184l.47184-.15718h.94369l.47184-.31437 1.4155-.39296.94369-.23577.94369-.31437h.47184l.94369-.47155 1.4155-.31436 2.3592-.86451.94369-.39296.94369-.23577m.94369-.47155.47184-.31437.47184-.70732.47184-.39296 1.4155-.31437.94369-.31436.94369-.62873.47184-1.0217.47184-.31436.94369-1.6504h.47184l.94369-1.1003.47184-.23577.47184-.55014 1.8874-1.2575.47184.078591 1.4155-.9431.47184-.15718.94369-.078592 1.4155-.23577.47184.15718h.47184l.94369-.55014.94369-.15718.47184.078592.47184-.15718.47184.078591 2.3592-.31436.94369.078591.94369-.078591.94369.078591h2.8311l.94369-.23577.94369.23577.47184.078592 1.4155-.39296h.47184l.47184-.15718h.47184l.47184-.31437.94369-.23577.47184-.39296 1.8874.078592.47184.078591.47184-.078591.47184-.23578 1.4155-.15718.47184.15718 1.4155-.15718h.47184l1.4155-.86451.47184-.078591.47184-.31437.47184.078592.94369-.15718.47184.078591.47184-.31436.47184-.15718h.94369l.47184-.55014.94369-.55014.47184-.55014 1.4155-.55014.94369-.55014.47184-.78591.47184-.078591.47184-.31437.47184-.8645 1.4155-1.3361.47184-.15718.47184.23577.47184-.15718.47184-.39296 1.8874-.55014.47184-.078591.47184.078591.47184-.23577.94369.078591h2.3592l.47184-.15718.94369.15718 1.4155-.15718 3.3029-.078592.47184.23577h.47184l1.8874-.55014 1.101-.078592.15728-.078591.47184.15718h.7864l.15728-.15718 1.4155.078591.15728.15718.94369-.078591.31456-.078592h.31456l.15728-.15718.15728.15718.7864-.078591.15728-.15718.47184.078592.31456.078591.31456-.078591 1.4155-.078592.31456-.23577.15728-.15718.15728.15718.31456.078591.15728.078592.7864-.31437.31456.078592.62912-.23578 1.101.078592.15728.15718h.15728l.31456-.31437h.15728l.31456-.39296.62912-.39296.31456-.23577h1.7301l.15728-.15718.94369-.078591 1.5728-.70732h.47184l.15728-.15718.31456-.078591.15728-.23577.15728.15718.15728-.078592.15728.15718.31456-.31437.15728-.15718.47184-.078592.15728-.15718h.47184l.15728-.15718h.15728l.47184-.70732.47184-.078591.31456-.15718.31456-.78591 1.101-1.1003.15728.15718.31456-.15718.15728-.23578h.15728l.15728.15718.31456-.078591.31456-.55014h.31456l.15728-.47155.15728.078591.7864-.31436h.15728l.31456-.39296.31456-.23578.62912-.078591.31456-.23577.47184-.078592.31456-.078591h.47184l.31456-.31437.31456-.078591.47184-.15718 1.101-.078591.31456-.078592 2.0447-.078591.31456-.078591 3.4602-.078592.31456-.078591 2.5165-.078591.7864-.31437 3.7747-.078591 1.2582-.31437.31456-.23577 2.2019.078591.31456.15718 1.2582-.23577 1.5728-.078592.62912-.39296.94369-.078591.62912-.31436h.31456l.62912-.23578h.31456l.62912-.70732 1.5728-.31437.31456-.31436 1.8874-.47155.31456.078592.31456-.15718.62912-.078591.94369-.23578.31456.078592.31456-.23577.31456-.078592.62912-.55014.31456-.078591.62912-.78591.31456-.23577h.31456l1.2582-.78591 1.5728-.39296 1.2582-1.3361.31456-.47155h.31456l.94369-.9431h.31456l.31456-.23577.31456-.39296.62912-.31436.31456.078591.62912-.70732.62912-.62873.31456-.23577h.31456l.31456-.47155 1.2582-.23577h2.2019l.31456-.15718h.31456l.31456-.15718 1.2582-.15718.94369-.078591 2.5165-.55014 3.1456.078592.62912.078591.94369-.078591.31456-.23578.94369.15718.31456-.078591.62912.078591h1.5728l.94369-.39296h1.2582l.62912-.31436h.94369l.31456-.15718.94369-.078592.31456-.078591.31456.078591.31456-.15718.31456.078591.94369-.23577.31456-.23577.31456.078591.62912-.70732.31456-.39296.62912.23577.31456-.23577h.62912l.62912-.31437.94369-.078591.62912-.70732h.31456l.62912-.23577.31456.078591.31456-.31436.31456-.078592.31456.078592.31456-.078592.31456.15718.31456-.15718.31456.078592.31456-.078592.94369-.70732h.31456l.31456-.15718.62912-1.0217.31456-.39296.94369-.55014.31456-.62873.31456-.078591.94369-.9431.31456.078591.94369-.62873.62912-1.2575.62912-.078591.62912-.70732 1.2582-.39296.31456-.23577.31456-.078592.31456-.23577 1.2582-.39296.62912-.70732.62912-.078592 1.2582-.23577.31456-.39296 2.2019-.078591.62912-.23577.94369-.078592.94369-.23577.31456.078592.62912-.078592.94369.078592.62912.078591.62912-.31437 1.2582.078592.31456.23577h2.8311l.62912-.39296h.31456l.62912-.23577 1.2582.078591.62912.078592.31456-.15718h.31456l.31456-.31437h.31456l.31456-.23577 1.2582-.39296.31456-.15718.62912-.078591.31456-.31437.31456-.47155 1.2582-.23577h.31456l.62912.23577h.31456l.62912-.23577.31456-.39296 1.5728-.47155.31456-.15718.94369-.078592.31456-.15718.94369.15718.94369-.078591.62912-.23577.62912-.15718 1.5728-1.1789.31456-.078591.31456.078591.31456-.23577h.62912l.31456-.39296.62912-.31437.62912-.62873.94369.078592.31456-.31437.31456-.15718.31456.078592.62912-.47155.31456-.47155.31456.15718.31456-.31437.31456-.078591.31456.23577.31456-.31437.62912.15718.62912-.47155.31456-.078592.31456-.23577.62912.078592.31456-.23578h.31456l.31456.15718.31456-.078591.31456-.39296.31456.078591.94369-.23577.31456.078592.31456-.078592.62912.078592 2.2019.078591.31456.23577 2.2019-.078591.62912-.078592 1.5728.078592.31456.15718.31456-.15718h1.2582l.31456-.15718.94369.078591.62912.078592 2.8311-.078592.62912-.078591 1.2582.078591.31456-.23577 1.2582-.23577.31456.15718.31456-.23577.62912-.078592.94369.15718.31456-.23577.62912-.078592h.31456l.62912-.23577 3.4602-.078591.62912-.23577.62912-.31437 1.5728-.078591.62912-.31437.31456-.31436 1.2582-.55014.62912.078591 1.2582-.9431.31456.15718.31456-.15718.31456-.47155.94369-.55014.31456-.23577h.31456l.62912-.9431.94369-.70732.31456-.47155h.31456l.62912-.70732.31456.15718.62912-.078592.31456-.47155.31456.078591.31456-.31436.94369-.47155.31456-.47155h.31456l.62912-.39296.94369-.39296 1.2582-.078591.94369-.39296 1.8874.078591.62912.078592 2.2019.078591.62912.078592 1.2582-.15718.31456-.078592.31456.078592.62912-.078592h3.1456l.31456-.15718.94369-.078592.62912-.078591 1.2582-.078592.31456-.078591.94369.31437.62912-.23578 1.5728-.078591.94369-.15718.62912-.078591.31456-.15718 1.8874.078591.31456-.23577.94369-.23577.62912-.39296h.31456l.31456-.15718.31456-.31436.31456-.15718.31456.078591.94369-.23577.62912.15718.62912-.078591.31456.078591 1.8874-.9431.62912-.078591.94369-.23577.31456-.23577.62912-.078592.31456-.47155.31456-.15718.31456.078591.31456-.31436.31456-.078592.94369-1.8076.31456-.31436h.31456l.31456-.15718.62912-.55014.31456-.15718.31456-.55014 1.8874-1.4146.94369-.9431.31456-.55014 1.2582-.39296.31456.15718.31456-.078591.31456-.23578.31456-.078591.31456-.31436h.31456l.31456-.15718.31456.078591 2.2019-.47155.94369-.078592.62912-.15718.62912.078591 1.8874-.078591.31456-.078592.31456.078592.62912-.078592.62912.078592 1.8874-.078592.31456-.078591.62912.078591 1.2582-.078591 1.8874-.39296m.62912.23577.31456-.15718h.31456l.31456-.15718h3.4602l.31456-.23577 1.2582-.15718.31456-.078592.31456.078592.62912-.39296.31456.078591.62912-.078591.31456.078591.31456-.15718.62912.15718.31456-.15718.94369-.078591.62912-.31437.62912.31437.62912-.39296.94369-.31437.94369-.39296.31456-.39296.31456-.15718h.31456l.31456-.23578h.62912l.62912-.55014.62912.31436.31456-.31436.31456-.55014.62912-.31437h.31456l1.2582-.70732.62912-.55014.62912-.15718.31456-.55014.31456-.23577.31456-.70732.31456-.31437.31456-.15718.31456-.31436h.31456l.62912-.62873.94369-.31437.31456-.15718.31456-.31436 1.2582-.55014.31456.078591.31456-.23577.62912.15718.31456-.31437h.62912l.31456-.23577.94369-.078591 1.2582-.15718.31456-.078591.31456.078591 1.2582-.62873 1.5728-.078591.31456-.078592.94369.15718 1.5728-.078591.31456-.078592.62912.15718.94369-.15718.31456.078592.31456-.078592.94369.15718h.62912l.31456-.31437 2.5165-.078591.94369-.15718.94369.15718 1.2582-.078591.31456-.23578.94369-.078591.94369-.39296 1.2582-.23577.62912-.078591 1.5728-.31437.94369-.078591.31456-.15718h.31456l.31456-.31437h.31456l.62912-.78591.62912-.39296.31456-.23577 1.2582-.31436.31456-.39296.31456-.15718h.31456l.94369-.39296h.31456l.31456-.31437.62912-.078591.62912-.78591.62912-.39296.31456-.31437.62912-.39296.31456-.31436.31456-.15718.31456-.31436.31456-.078592.31456-.31436.31456-.078592.31456-.31436.31456-.15718.62912-.78591.31456.078591.62912-1.1789.31456-.31436.31456-.15718.62912-.078591.31456-.55014h.31456l.62912-.31437.31456-.31436h.31456l.62912-.31437.31456-.47155.31456-.078592.62912-.39296.62912.078591.31456-.39296.62912-.23577 1.5728-.078592.31456.31437.62912.078591h.31456l.31456-.23577.94369-.15718 1.8874-.078591.62912-.078591.31456-.31437.94369-.078591.62912-.078592 6.2912-.078591.62912-.15718.31456.078591 1.8874-.55014.31456-.15718h.31456l.31456-.15718h.31456l.31456-.15718.94369.15718.62912-.078591h.62912l.62912-.23577.31456-.39296 1.2582-.55014h.62912l.62912-.31437.31456.078592.62912-.23577.31456.15718.31456-.15718.62912-.078592.31456-.31436.94369-.47155h.31456l.62912-.23577.31456.15718.62912-.23577.31456-.39296 1.5728-.70732.31456.078592.94369-.39296.31456.078591.31456-.23577h.31456l1.2582-.86451.31456-.15718 1.5728-1.4932h.31456l.31456-.31436.31456-.078592 1.5728-2.4363.62912-.078591.31456-.31437.31456-.15718.31456-.55014.31456-.31437.62912-.23577.31456-.31437.31456-.078591.62912-.55014.31456-.31436.94369-.23578.62912-.39296 1.8874-.39296.31456.078591.62912-.078591.94369.15718 1.5728-.078591.62912-.078591 1.5728-.078592.62912-.078591.62912.078591.94369.078592.94369.15718.31456-.15718.62912.078591 1.2582.23577.31456-.15718.31456.15718.62912-.078591.31456-.31437 1.2582-.31436.62912.15718 1.2582-.47155h.31456l.31456-.15718.62912-.078591 1.8874-.39296.31456.078591.31456-.15718h.31456l.31456-.31436.31456-.15718.31456-.31436h.31456l1.5728-.70732 1.5728-.39296.31456-.39296.62912.078591.62912-.62873.62912-.39296.31456.078592.31456-.078592.31456-.31436.62912.55014.62912.23577 1.5728-.39296.31456-.39296.31456-.078592.62912-.55014h.31456l.62912-.31437.31456.078591.31456-.39296.31456-.15718.62912-.62873.31456-.55014.62912-.55014.31456-.55014.31456-.15718.62912-.78591h.31456l.62912-.70732.31456.078592.62912-.47155.31456-.78591.31456-.078591.31456-.55014.31456-.078591.31456-.31437.31456-.62873.62912-.39296.62912-.078591.62912-.70732.62912-.078591.62912-.47155.31456-.47155.31456-.078591.31456-.23578.31456-.078591.94369-.9431.62912-.078591 1.2582.31437.31456-.23578.31456-.078591.94369.15718 1.8874-.078592 1.2582-.23577 2.2019-.078591.94369-.15718 2.2019-.078591 1.2582-.23578h.94369l.62912-.31436.31456.078591.31456-.078591.31456.078591.31456-.078591.62912.078591.62912-.078591.62912.078591.31456-.23577 1.2582-.31437.31456-.23577h.31456l.62912-.39296.62912-.23577.31456-.15718.62912.078592 1.5728-.39296.31456-.31437.62912-.15718.31456.078592.31456.31436.31456.078592.31456-.15718.31456.078591.94369-.70732.31456.15718.31456-.078592.62912-.47155.62912.078591h.31456l.31456-.31436.31456.078591.62912-.55014h.62912l.62912-.23577.31456.078592.31456-.078592.31456.078592.94369-.86451.94369-.62873.62912-.78591.31456-.078591.31456-.62873.31456.078591.31456-.47155.31456-.078592.31456-.47155.62912-.31437.62912-.70732h.31456l.31456-.55014.31456-.078591.62912-.62873.31456.15718 1.2582-.55014.62912.23577.62912-.23577 1.8874-.39296 1.2582-.078592 1.5728-.31436 1.2582-.15718 1.5728-.078591 1.8874-.39296h2.2019l.31456.15718h.62912l.62912.15718.31456-.15718h.62912l.31456-.15718.31456.078591 1.2582-.31437.62912.078592h.31456l.31456-.23577 2.8311-.078592.94369-.47155 1.5728-.078591.62912-.23578.31456.15718.31456-.23577.62912-.078591h.31456l.31456-.15718.94369.078591.62912.23577.62912-.078591.31456-.15718.62912.078592.31456-.15718.31456.078591 1.2582-.39296.31456-.31436.31456-.15718.31456.23577.31456-.23577.31456-.078592.31456-.23577h.62912l.31456-.23577h.31456l.31456-.47155.31456.23577h.31456l.31456-.78591.94369-.55014.62912-.39296.31456-.15718.62912-1.1789.31456.15718.31456-.15718h.31456l1.2582-1.3361.31456.078591.62912-.55014.31456-.55014.31456.15718.31456-.23578.31456-.078591.31456-.23577.31456-.078592.31456-.39296.62912.078591.31456-.15718.31456-.31436.31456-.078592.31456-.39296.31456-.15718.31456.078592 2.2019-1.0217 1.5728-.078592.94369-.15718h.94369l.31456-.15718 1.8874-.078592 1.2582-.31436.62912.078591h.31456l.31456-.15718 1.2582.078592.94369.15718 1.2582-.23578 1.2582-.15718 1.5728-.078592 1.2582-.23577.94369.078591 1.2582.23578h.31456l.31456-.23578.31456-.078591.94369-.78591h2.8311l.31456-.15718.31456.078592.62912-.15718.31456.078591.62912-.23577 1.2582-.23577.31456-.39296.62912-.23577.31456.078591.31456.23577h.31456l.31456-.23577.31456-.39296.31456-.078591.31456-.23577.31456-.078592.31456.15718.94369-.55014.31456-.23577h.31456l.62912-.55014.31456-.23577.31456-.47155.62912-.15718.31456-.31436.31456-.15718.62912-1.0217.94369-.55014.62912-.78591.31456-.15718.31456-.62873.31456-.23577.94369-.31437.31456.15718.31456-.31436.62912-.23578.31456-.23577.31456.15718.31456-.31437h.31456l.31456-.15718.31456-.31437.31456-.47155.31456-.23577 1.5728.078591.31456-.23577 1.2582-.078592.94369-.15718.94369.15718 2.5165-.078591.94369-.15718h4.0893l.31456-.31436 1.5728-.078592 1.5728-.31436 2.2019-.078592.62912-.23577.31456.078591 1.2582-.15718 1.5728-.47155.31456-.15718.31456-.39296.62912-.23578.31456-.23577 1.2582-.39296.31456.15718h.31456l.31456-.23577h.62912l.62912-.39296.31456.078591.31456-.15718v0" clip-path="url(#c)" fill="none" stroke="#28f" stroke-linecap="square" stroke-width="1.5"/>
   </g>
   <g id="ge">
    <path d="m52 523.06v-232.9" fill="none" stroke="#000" stroke-linecap="square" stroke-width=".8"/>
   </g>
   <g id="gf">
    <path d="m853.2 523.06v-232.9" fill="none" stroke="#000" stroke-linecap="square" stroke-width=".8"/>
   </g>
   <g id="gg">
    <path d="m52 523.06h801.2" fill="none" stroke="#000" stroke-linecap="square" stroke-width=".8"/>
   </g>
   <g id="gh">
    <path d="m52 290.16h801.2" fill="none" stroke="#000" stroke-linecap="square" stroke-width=".8"/>
   </g>
   <g id="gi">
    <!-- サーバー数の推移 -->
    <g transform="translate(404.6 284.16) scale(.12 -.12)">
     <defs>
      <path id="z" transform="scale(.015625)" d="m4685 2893q0-621-84-1111-83-489-288-877-204-387-569-691t-928-560l-544 512q448 167 781 371 333 205 550 503 218 298 323 739 106 442 106 1075v1620q0 192-10 339-9 147-22 217h723q-6-70-22-217t-16-339v-1581zm-2304 2086q-7-64-23-199-16-134-16-313v-2317q0-128 6-256 7-128 13-224 7-96 13-140h-710q6 44 12 140 7 96 13 221 7 125 7 259v2317q0 122-10 256-9 135-28 256h723zm-1978-1197q45-12 144-22t237-20q138-9 285-9h4217q237 0 394 13t246 26v-679q-76 7-240 13-163 6-393 6h-4224q-147 0-282-3-134-3-234-10-99-6-150-12v697z"/>
      <path id="s" transform="scale(.015625)" d="m621 2854q109-6 265-16 157-9 339-16 183-6 349-6 128 0 352 0t509 0 598 0q314 0 624 0 311 0 586 0t486 0q212 0 327 0 230 0 416 16t301 22v-793q-109 6-308 19-198 13-409 13-109 0-324 0-214 0-489 0t-586 0q-310 0-624 0-313 0-598 0t-509 0-352 0q-262 0-525-10-262-9-428-22v793z"/>
      <path id="y" transform="scale(.015625)" d="m4941 5037q83-109 176-269t182-320q90-160 154-288l-416-179q-96 192-240 448t-272 435l416 173zm723 275q83-122 182-282 100-160 196-317 96-156 153-271l-416-186q-102 205-246 454-144 250-279 429l410 173zm-4339-3360q102 262 201 556 100 295 183 612t144 630q61 314 93 602l723-147q-19-83-45-183-26-99-48-195t-42-166q-32-154-86-394t-131-512-164-551q-86-278-182-514-115-301-269-618-153-317-326-618-173-300-346-550l-697 294q301 397 563 874t429 880zm3155 198q-96 250-215 531-118 282-243 567-124 285-246 534-122 250-224 429l659 218q96-179 221-429t253-535q128-284 249-566 122-281 218-525 90-230 195-518 106-288 211-592 106-304 195-589 90-285 154-515l-729-237q-84 352-199 736t-240 768-259 723z"/>
     </defs>
     <use xlink:href="#z"/>
     <use transform="translate(100)" xlink:href="#s"/>
     <use transform="translate(200)" xlink:href="#y"/>
     <use transform="translate(300)" xlink:href="#s"/>
     <use transform="translate(400)" xlink:href="#p"/>
     <use transform="translate(500)" xlink:href="#t"/>
     <use transform="translate(600)" xlink:href="#q"/>
     <use transform="translate(700)" xlink:href="#o"/>
    </g>
   </g>
  </g>
 </g>
 <defs>
  <clipPath id="d">
   <rect x="52" y="26.88" width="801.2" height="232.9"/>
  </clipPath>
  <clipPath id="c">
   <rect x="52" y="290.16" width="801.2" height="232.9"/>
  </clipPath>
 </defs>
</svg>
