<!DOCTYPE svg  PUBLIC '-//W3C//DTD SVG 1.1//EN'  'http://www.w3.org/Graphics/SVG/1.1/DTD/svg11.dtd'>
<svg version="1.1" viewBox="0 0 864 576" xmlns="http://www.w3.org/2000/svg" xmlns:xlink="http://www.w3.org/1999/xlink">
 <defs>
  <style type="text/css">*{stroke-linejoin: round; stroke-linecap: butt}</style>
 </defs>
 <g id="aa">
  <g id="ab">
   <path d="m0 576h864v-576h-864z" fill="#fff"/>
  </g>
  <g id="ac">
   <g id="ad">
    <path d="m52 259.78h801.2v-232.9h-801.2z" fill="#fff"/>
   </g>
   <g id="ae">
    <path d="m136.09 259.78h.8564v-232.9h-.8564z" clip-path="url(#c)" fill="#808080" opacity=".3" stroke="#808080"/>
   </g>
   <g id="af">
    <path d="m451.38 259.78h.57093v-232.9h-.57093z" clip-path="url(#c)" fill="#808080" opacity=".3" stroke="#808080"/>
   </g>
   <g id="ag">
    <path d="m791.09 259.78h1.1419v-232.9h-1.1419z" clip-path="url(#c)" fill="#808080" opacity=".3" stroke="#808080"/>
   </g>
   <g id="ah">
    <g id="ai">
     <g id="aj">
      <path d="m105.68 259.78v-232.9" clip-path="url(#c)" fill="none" stroke="#b0b0b0" stroke-linecap="square" stroke-opacity=".3" stroke-width=".8"/>
     </g>
     <g id="ak">
      <defs>
       <path id="e" d="m0 0v3.5" stroke="#000" stroke-width=".8"/>
      </defs>
      <use x="105.684626" y="259.777732" stroke="#000000" stroke-width=".8" xlink:href="#e"/>
     </g>
    </g>
    <g id="al">
     <g id="am">
      <path d="m187.9 259.78v-232.9" clip-path="url(#c)" fill="none" stroke="#b0b0b0" stroke-linecap="square" stroke-opacity=".3" stroke-width=".8"/>
     </g>
     <g id="an">
      <use x="187.898995" y="259.777732" stroke="#000000" stroke-width=".8" xlink:href="#e"/>
     </g>
    </g>
    <g id="ao">
     <g id="ap">
      <path d="m270.11 259.78v-232.9" clip-path="url(#c)" fill="none" stroke="#b0b0b0" stroke-linecap="square" stroke-opacity=".3" stroke-width=".8"/>
     </g>
     <g id="aq">
      <use x="270.113363" y="259.777732" stroke="#000000" stroke-width=".8" xlink:href="#e"/>
     </g>
    </g>
    <g id="ar">
     <g id="as">
      <path d="m352.33 259.78v-232.9" clip-path="url(#c)" fill="none" stroke="#b0b0b0" stroke-linecap="square" stroke-opacity=".3" stroke-width=".8"/>
     </g>
     <g id="at">
      <use x="352.327731" y="259.777732" stroke="#000000" stroke-width=".8" xlink:href="#e"/>
     </g>
    </g>
    <g id="au">
     <g id="av">
      <path d="m434.54 259.78v-232.9" clip-path="url(#c)" fill="none" stroke="#b0b0b0" stroke-linecap="square" stroke-opacity=".3" stroke-width=".8"/>
     </g>
     <g id="aw">
      <use x="434.542099" y="259.777732" stroke="#000000" stroke-width=".8" xlink:href="#e"/>
     </g>
    </g>
    <g id="ax">
     <g id="ay">
      <path d="m516.76 259.78v-232.9" clip-path="url(#c)" fill="none" stroke="#b0b0b0" stroke-linecap="square" stroke-opacity=".3" stroke-width=".8"/>
     </g>
     <g id="az">
      <use x="516.756468" y="259.777732" stroke="#000000" stroke-width=".8" xlink:href="#e"/>
     </g>
    </g>
    <g id="ba">
     <g id="bb">
      <path d="m598.97 259.78v-232.9" clip-path="url(#c)" fill="none" stroke="#b0b0b0" stroke-linecap="square" stroke-opacity=".3" stroke-width=".8"/>
     </g>
     <g id="bc">
      <use x="598.970836" y="259.777732" stroke="#000000" stroke-width=".8" xlink:href="#e"/>
     </g>
    </g>
    <g id="bd">
     <g id="be">
      <path d="m681.19 259.78v-232.9" clip-path="url(#c)" fill="none" stroke="#b0b0b0" stroke-linecap="square" stroke-opacity=".3" stroke-width=".8"/>
     </g>
     <g id="bf">
      <use x="681.185204" y="259.777732" stroke="#000000" stroke-width=".8" xlink:href="#e"/>
     </g>
    </g>
    <g id="bg">
     <g id="bh">
      <path d="m763.4 259.78v-232.9" clip-path="url(#c)" fill="none" stroke="#b0b0b0" stroke-linecap="square" stroke-opacity=".3" stroke-width=".8"/>
     </g>
     <g id="bi">
      <use x="763.399572" y="259.777732" stroke="#000000" stroke-width=".8" xlink:href="#e"/>
     </g>
    </g>
    <g id="bj">
     <g id="bk">
      <path d="m845.61 259.78v-232.9" clip-path="url(#c)" fill="none" stroke="#b0b0b0" stroke-linecap="square" stroke-opacity=".3" stroke-width=".8"/>
     </g>
     <g id="bl">
      <use x="845.61394" y="259.777732" stroke="#000000" stroke-width=".8" xlink:href="#e"/>
     </g>
    </g>
   </g>
   <g id="bm">
    <g id="bn">
     <g id="bo">
      <path d="m52 246.93h801.2" clip-path="url(#c)" fill="none" stroke="#b0b0b0" stroke-linecap="square" stroke-opacity=".3" stroke-width=".8"/>
     </g>
     <g id="bp">
      <defs>
       <path id="h" d="m0 0h-3.5" stroke="#000" stroke-width=".8"/>
      </defs>
      <use x="52" y="246.926099" stroke="#000000" stroke-width=".8" xlink:href="#h"/>
     </g>
     <g id="bq">
      <!-- 300 -->
      <g transform="translate(27.9 250.91) scale(.1 -.1)">
       <defs>
        <path id="o" transform="scale(.015625)" d="m1715-90q-371 0-656 90t-503 240q-217 150-377 323l359 474q211-205 479-359 269-153 634-153 269 0 467 92 199 93 311 266t112 423q0 256-125 451t-429 300q-304 106-835 106v551q467 0 732 105 266 106 384 291 119 186 119 423 0 307-192 489-192 183-531 183-269 0-503-119-233-118-438-316l-384 460q282 256 614 413 333 157 737 157 422 0 748-144 327-144 512-413 186-269 186-659 0-403-221-685-221-281-592-422v-26q269-70 490-227t349-400 128-557q0-422-215-726-214-304-573-468-358-163-787-163z"/>
        <path id="a" transform="scale(.015625)" d="m1830-90q-460 0-806 275-346 276-535 823-188 547-188 1366 0 820 188 1357 189 538 535 803 346 266 806 266 461 0 800-269 340-269 528-803 189-534 189-1354 0-819-189-1366-188-547-528-823-339-275-800-275zm0 589q237 0 422 185 186 186 288 599 103 413 103 1091 0 679-103 1082-102 403-288 582-185 180-422 180-236 0-422-180-186-179-292-582-105-403-105-1082 0-678 105-1091 106-413 292-599 186-185 422-185z"/>
       </defs>
       <use xlink:href="#o"/>
       <use transform="translate(57)" xlink:href="#a"/>
       <use transform="translate(114)" xlink:href="#a"/>
      </g>
     </g>
    </g>
    <g id="br">
     <g id="bs">
      <path d="m52 220.79h801.2" clip-path="url(#c)" fill="none" stroke="#b0b0b0" stroke-linecap="square" stroke-opacity=".3" stroke-width=".8"/>
     </g>
     <g id="bt">
      <use x="52" y="220.787184" stroke="#000000" stroke-width=".8" xlink:href="#h"/>
     </g>
     <g id="bu">
      <!-- 600 -->
      <g transform="translate(27.9 224.77) scale(.1 -.1)">
       <defs>
        <path id="k" transform="scale(.015625)" d="m1971-90q-339 0-634 144-294 144-518 435-224 292-352 733-128 442-128 1044 0 678 147 1161 148 483 397 784 250 301 570 445t665 144q397 0 688-147 292-147 490-359l-403-448q-128 154-327 253-198 99-409 99-307 0-567-182-259-182-413-605-153-422-153-1145 0-608 115-1002t326-589q212-195 493-195 212 0 375 121 163 122 259 343t96 522q0 300-90 511-89 212-259 320-169 109-419 109-211 0-451-134t-458-461l-25 538q134 192 313 323t374 201q196 71 375 71 397 0 694-163 298-163 467-490 170-326 170-825 0-468-195-817-195-348-512-544-317-195-701-195z"/>
       </defs>
       <use xlink:href="#k"/>
       <use transform="translate(57)" xlink:href="#a"/>
       <use transform="translate(114)" xlink:href="#a"/>
      </g>
     </g>
    </g>
    <g id="bv">
     <g id="bw">
      <path d="m52 194.65h801.2" clip-path="url(#c)" fill="none" stroke="#b0b0b0" stroke-linecap="square" stroke-opacity=".3" stroke-width=".8"/>
     </g>
     <g id="bx">
      <use x="52" y="194.648269" stroke="#000000" stroke-width=".8" xlink:href="#h"/>
     </g>
     <g id="by">
      <!-- 900 -->
      <g transform="translate(27.9 198.63) scale(.1 -.1)">
       <defs>
        <path id="l" transform="scale(.015625)" d="m1562-90q-410 0-708 150-297 151-502 356l403 461q141-160 346-256t422-96q224 0 425 102 202 103 352 333 151 230 237 614 87 384 87 941 0 589-115 970t-323 563-496 182q-205 0-372-118-166-118-262-336t-96-525q0-301 86-512 87-211 259-323 173-112 417-112 224 0 460 141 237 141 448 461l32-544q-134-180-313-314t-371-208-384-74q-391 0-689 166-297 167-467 496-169 330-169 823 0 467 195 816t515 541 698 192q339 0 636-138 298-137 519-419 221-281 349-710t128-1018q0-691-141-1187t-391-807q-249-310-563-461-313-150-652-150z"/>
       </defs>
       <use xlink:href="#l"/>
       <use transform="translate(57)" xlink:href="#a"/>
       <use transform="translate(114)" xlink:href="#a"/>
      </g>
     </g>
    </g>
    <g id="bz">
     <g id="ca">
      <path d="m52 168.51h801.2" clip-path="url(#c)" fill="none" stroke="#b0b0b0" stroke-linecap="square" stroke-opacity=".3" stroke-width=".8"/>
     </g>
     <g id="cb">
      <use x="52" y="168.509354" stroke="#000000" stroke-width=".8" xlink:href="#h"/>
     </g>
     <g id="cc">
      <!-- 1200 -->
      <g transform="translate(22.2 172.49) scale(.1 -.1)">
       <defs>
        <path id="g" transform="scale(.015625)" d="m544 0v608h1037v3277h-845v467q333 58 579 147 247 90 451 218h557v-4109h915v-608h-2694z"/>
        <path id="b" transform="scale(.015625)" d="m282 0v429q697 621 1164 1136 468 515 701 956 234 442 234 826 0 256-87 451-86 196-262 301-176 106-445 106-275 0-506-151-230-150-422-368l-416 410q301 333 637 518 336 186 803 186 429 0 749-176t496-493 176-745q0-455-224-919t-615-935q-390-470-889-950 186 20 394 36t374 16h1184v-634h-3046z"/>
       </defs>
       <use xlink:href="#g"/>
       <use transform="translate(57)" xlink:href="#b"/>
       <use transform="translate(114)" xlink:href="#a"/>
       <use transform="translate(171)" xlink:href="#a"/>
      </g>
     </g>
    </g>
    <g id="cd">
     <g id="ce">
      <path d="m52 142.37h801.2" clip-path="url(#c)" fill="none" stroke="#b0b0b0" stroke-linecap="square" stroke-opacity=".3" stroke-width=".8"/>
     </g>
     <g id="cf">
      <use x="52" y="142.370439" stroke="#000000" stroke-width=".8" xlink:href="#h"/>
     </g>
     <g id="cg">
      <!-- 1500 -->
      <g transform="translate(22.2 146.36) scale(.1 -.1)">
       <defs>
        <path id="j" transform="scale(.015625)" d="m1715-90q-365 0-653 90t-506 237q-217 147-383 307l352 480q134-134 294-246t361-183q202-70 452-70 262 0 473 118 212 119 333 346 122 227 122 541 0 460-247 716-246 256-649 256-224 0-384-64t-365-198l-365 237 141 2240h2387v-627h-1747l-109-1204q154 77 307 118 154 42 340 42 397 0 723-160t518-490q192-329 192-847 0-519-224-887t-586-560q-361-192-777-192z"/>
       </defs>
       <use xlink:href="#g"/>
       <use transform="translate(57)" xlink:href="#j"/>
       <use transform="translate(114)" xlink:href="#a"/>
       <use transform="translate(171)" xlink:href="#a"/>
      </g>
     </g>
    </g>
    <g id="ch">
     <g id="ci">
      <path d="m52 116.23h801.2" clip-path="url(#c)" fill="none" stroke="#b0b0b0" stroke-linecap="square" stroke-opacity=".3" stroke-width=".8"/>
     </g>
     <g id="cj">
      <use x="52" y="116.231524" stroke="#000000" stroke-width=".8" xlink:href="#h"/>
     </g>
     <g id="ck">
      <!-- 1800 -->
      <g transform="translate(22.2 120.22) scale(.1 -.1)">
       <defs>
        <path id="m" transform="scale(.015625)" d="m1830-90q-441 0-787 163-345 164-547 448-202 285-202 650 0 314 122 557t314 419 403 291v32q-256 186-442 458-185 272-185 643 0 365 176 640t480 425q304 151 694 151 410 0 704-160t457-439q164-278 164-649 0-237-96-448t-234-381q-137-169-291-278v-32q218-115 397-285 179-169 288-406t109-557q0-346-189-628-189-281-532-448-342-166-803-166zm314 2708q205 198 310 419 106 221 106 464 0 211-83 384t-247 272q-163 99-393 99-288 0-480-183-192-182-192-502 0-256 134-429 135-172 359-294t486-230zm-294-2170q236 0 418 89 183 90 285 253 103 164 103 388 0 211-90 367-89 157-246 272-157 116-368 215t-454 195q-244-173-398-426-153-252-153-553 0-237 118-416 119-179 324-282 205-102 461-102z"/>
       </defs>
       <use xlink:href="#g"/>
       <use transform="translate(57)" xlink:href="#m"/>
       <use transform="translate(114)" xlink:href="#a"/>
       <use transform="translate(171)" xlink:href="#a"/>
      </g>
     </g>
    </g>
    <g id="cl">
     <g id="cm">
      <path d="m52 90.093h801.2" clip-path="url(#c)" fill="none" stroke="#b0b0b0" stroke-linecap="square" stroke-opacity=".3" stroke-width=".8"/>
     </g>
     <g id="cn">
      <use x="52" y="90.092609" stroke="#000000" stroke-width=".8" xlink:href="#h"/>
     </g>
     <g id="co">
      <!-- 2100 -->
      <g transform="translate(22.2 94.078) scale(.1 -.1)">
       <use xlink:href="#b"/>
       <use transform="translate(57)" xlink:href="#g"/>
       <use transform="translate(114)" xlink:href="#a"/>
       <use transform="translate(171)" xlink:href="#a"/>
      </g>
     </g>
    </g>
    <g id="cp">
     <g id="cq">
      <path d="m52 63.954h801.2" clip-path="url(#c)" fill="none" stroke="#b0b0b0" stroke-linecap="square" stroke-opacity=".3" stroke-width=".8"/>
     </g>
     <g id="cr">
      <use x="52" y="63.953694" stroke="#000000" stroke-width=".8" xlink:href="#h"/>
     </g>
     <g id="cs">
      <!-- 2400 -->
      <g transform="translate(22.2 67.939) scale(.1 -.1)">
       <defs>
        <path id="n" transform="scale(.015625)" d="m2170 0v3072q0 192 12 457 13 266 20 458h-26q-90-179-183-365-92-185-195-364l-921-1415h2579v-576h-3328v493l1875 2957h858v-4717h-691z"/>
       </defs>
       <use xlink:href="#b"/>
       <use transform="translate(57)" xlink:href="#n"/>
       <use transform="translate(114)" xlink:href="#a"/>
       <use transform="translate(171)" xlink:href="#a"/>
      </g>
     </g>
    </g>
    <g id="ct">
     <g id="cu">
      <path d="m52 37.815h801.2" clip-path="url(#c)" fill="none" stroke="#b0b0b0" stroke-linecap="square" stroke-opacity=".3" stroke-width=".8"/>
     </g>
     <g id="cv">
      <use x="52" y="37.814779" stroke="#000000" stroke-width=".8" xlink:href="#h"/>
     </g>
     <g id="cw">
      <!-- 2700 -->
      <g transform="translate(22.2 41.8) scale(.1 -.1)">
       <defs>
        <path id="i" transform="scale(.015625)" d="m1235 0q32 646 109 1187t224 1024 384 941 576 938h-2208v627h3027v-455q-409-512-665-989-256-476-397-969t-205-1053-90-1251h-755z"/>
       </defs>
       <use xlink:href="#b"/>
       <use transform="translate(57)" xlink:href="#i"/>
       <use transform="translate(114)" xlink:href="#a"/>
       <use transform="translate(171)" xlink:href="#a"/>
      </g>
     </g>
    </g>
   </g>
   <g id="cx">
    <path d="m88.418 222.44.081358.17426.071842-.34852.29688.34852.1513-.08713.40394-.8713.85688-3.2238.87115-5.1407.4263-1.3069.42915-.17426.40346-1.6555.4282-1.2198.4282-2.0911.4282-2.7882.4282-.60991.4282-3.2238.4282-2.3525 1.2846-9.2357.8564-4.3565.4282-1.3941.4282-.78417.4282-2.004.4282-5.3149 1.2846-24.309 1.7128-43.826.4282-8.5387.8564-28.666.4282-5.3149.4282-2.3525.4282-.78417.4282 2.6139.4282 1.5683 2.141 43.565.4282 12.46 2.5692 52.801.8564 12.198 1.7128 19.604.4282 2.701.4282 3.9208.4282 2.7882.4282 3.6594.4282 1.9169.4282 3.2238 1.2846 6.5347.4282 2.4396.4282 1.5683.4282 3.4852.4282 1.1327.4282 1.7426.8564 1.6555.4282 1.1327.4282.26139.4282 1.3069.4282.52278.8564.26139.8564-.43565 1.2846-2.8753.4282-.26139.4282-.95843.4282-.43565.8564-3.3981.8564-3.9208.4282.26139.4282-.17426.4282-2.7882.4282-1.5683.4282-.78417.8564-2.7882.4282-3.1367.4282-1.7426.4282-.60991 1.2846-4.2694.4282-3.9208.4282-2.4396.4282-3.6594 1.2846-7.8417.4282-1.3941m.8564 19.517.4282-12.285.4282-2.3525.4282-1.3941 1.2846-13.418.4282-6.012.8564-18.21.8564-22.654.4282-16.293 1.2846-31.105.8564-14.725.4282-3.7466.4282.43565.4282-1.2198.4282 1.7426.8564 8.8001.8564 21.173.4282 6.9704 1.2846 28.404.8564 14.725.8564 16.555.8564 12.111.8564 10.891 2.141 21.608 2.5692 12.808.8564 5.7506.8564 3.1367.4282.43565.4282.8713.4282 1.3069.4282.60991 1.2846 4.5307.4282-.43565.4282.34852h.4282l.4282.52278.4282-1.3069.4282.17426.4282-.34852.4282-.52278.4282-.26139.4282-.60991.4282.08713.4282-.52278.4282-2.0911.4282-1.4812.4282-.8713 1.7128-6.2733.4282-1.0456.4282-2.2654.4282-1.2198.4282-2.701.4282-1.0456.4282-3.2238.4282-1.6555.4282-3.3109.4282-.95843.8564-2.701.4282-2.2654.4282-1.3941.8564-6.012.4282-1.8297.4282-.43565.4282-3.1367.4282-1.1327.4282-2.3525 1.2846-4.5307 1.2846-18.733 1.2846-27.62.4282-13.766 1.7128-36.856.8564-12.111.8564-4.4436.4282 1.0456.4282 3.7466.8564 17.6 1.2846 28.23.8564 19.43 1.2846 21.521.8564 11.763 1.7128 23.961 1.2846 13.418 1.7128 12.547 2.9974 14.115.4282 1.1327.4282.69704.4282 1.1327.4282.60991h.4282l.57093.26139.57093.8713.14273-.08713.28547-.52278.57093.52278.14273.08713.28547-.60991.14273-.52278.14273.17426.28547-.95843h.14273l.14273.17426.14273-.17426.14273.087129.14273-.43565.14273.34852.4282-1.2198.14273.17426.14273-.08713.14273-.43565.14273.08713.28547-.78417.14273-.17426.28547-.8713.14273-.08713.28547-.52278.14273-.08713.28547-1.3941.14273.08713.28547-.43565.14273.08713.57093-1.2198.4282-2.701h.14273l.57093-2.3525.14273-.8713.14273-.17426.14273-.52278h.14273l.71367-2.8753.28547-.95843.14273-.52278.14273-1.0456.14273-.087129.99913-5.5763.4282-1.2198.28547-.69704.14273.17426.28547-2.0911.14273-.34852.28547-1.3941.14273-.34852.28547-2.004.28547-1.3069.14273-.17426.14273-.43565.28547-1.7426.14273-.087129.14273.17426.14273-.08713.28547-1.3941.4282-1.4812.14273-1.6555.14273.26139 1.2846-7.406h.14273l.14273-.17426.28547-1.2198.14273.69704.14273-1.0456.14273.26139 1.2846-10.281.99913-17.774.71367-18.907.28547-11.153.4282-8.1031.99913-22.741.28547-9.5843.4282-8.0159.4282-4.1822.14273-3.2238.14273-.52278.14273.43565.57093-2.8753.14273-.34852.14273-1.0456.14273-.087129.28547.8713 1.2846 22.915.28547 4.7921.14273.78417.57093 12.547.4282 9.5843.8564 15.683.4282 6.8832.57093 11.327 1.9983 31.192.4282 3.5723 1.9983 17.426.57093 3.7466.14273 1.3069.14273.26139.28547 1.2198 1.2846 7.3189.57093 4.3565.57093 2.4396.14273 1.6555.28547.43565.57093 2.9624.28547.69704.14273.17426.14273.60991.14273-.26139.28547.95843.14273.52278.14273.08713.57093 2.2654.4282.52278.14273-.08713.14273.43565.28547.08713.14273.26139.28547-.17426.14273.43565.14273-.34852.4282.34852.28547-.60991.14273-.43565.28547.17426.28547-.43565.57093-1.5683.28547-.69704.28547.26139.28547-.26139.57093-.95843.28547.43565.28547-1.2198.57093-3.2238.28547-1.3941.28547-.26139.28547-.95843.57093-.34852.57093-2.0911.28547-.08713.57093-3.3109.28547-.26139.28547-.78417h.28547l.28547-1.1327.28547-2.1782.8564-3.2238.57093-2.9624.28547-2.2654.28547-.52278.57093-2.0911.57093-3.7466.28547.087129.57093-1.4812.57093-4.008.8564-5.8377.28547-1.1327.28547-1.7426h.28547l.57093-3.1367.28547-.69704 1.4273-5.7506.8564-11.24.8564-17.426 2.2837-66.219.57093-11.763.57093-9.9328.57093-7.7545.8564-5.5763h.28547l.28547 1.1327.28547 1.7426.8564 7.406.8564 16.206.28547-3.1367.57093 14.376.57093 10.63 1.4273 28.84 1.1419 21.957.57093 11.414 1.9983 30.408.8564 7.5803.8564 6.0991.28547 2.8753.57093 2.9624.28547 2.5268.28547 1.1327.57093 3.8337.28547.8713.28547-.17426.28547.087129.28547.43565.28547 1.0456.28547.60991.28547 1.3069.28547-1.1327.28547-.43565.28547.60991.28547-.26139.28547.69704.28547-.34852.57093.26139.57093-2.2654.57093.087129.28547-1.5683.28547-.8713.28547-1.3941.28547.34852.28547-1.3069.28547-.60991 1.7128-6.5347.57093-3.6594.57093-2.1782.57093-5.0535.28547-3.7466.28547-2.2654.28547-.8713 1.4273-11.153.28547-1.3941.57093-3.5723.28547-.43565.28547-2.4396.57093-2.4396.28547-1.7426.28547-.60991.28547.34852.28547-.69704.28547-1.6555.28547-.78417.57093-2.1782.28547-.34852.28547.26139.28547-.26139.28547.69704.28547 2.2654.28547-.08713.28547.17426.28547-.34852.28547-.60991.28547.69704.28547-.08713.28547-.26139.28547-1.3941h.57093l.28547-2.8753 1.1419-17.339.8564-20.737.28547-12.198 1.1419-25.703.8564-20.388.57093-9.9328.28547-7.1446.28547-3.3109.28547-.60991.57093-4.0951.28547-.34852.28547.52278.28547 1.4812.28547.52278.28547 3.5723.57093 2.9624.57093 7.0575.57093 12.634.57093 7.0575.57093 11.065.57093 15.248 2.5692 48.27 1.1419 20.214 1.4273 19.43.28547 3.0495.8564 5.5763.8564 7.3189 1.1419 8.0159 1.1419 4.6179.28547.60991.28547 2.004.28547-.087129.28547.52278.57093 1.3941.28547.26139.28547.52278.57093-.34852.57093-1.0456.28547-1.3069.57093.087129.28547-1.1327.28547-1.6555.57093-1.1327.28547.17426.28547-2.004.28547-1.0456.28547-1.9169.28547-.34852.28547-2.6139.28547-1.0456.28547-.34852.8564-3.0495.28547-3.3109.57093-9.1486.28547-2.4396 1.1419-13.941.8564-5.9248.8564-2.6139.28547-1.3941.28547-3.0495.8564-5.1407.57093-3.7466.28547-.43565.28547-1.2198h.28547l.28547-1.2198.28547.78417.28547-1.7426.28547.34852.28547.78417.28547 1.2198.8564 1.7426.28547-.26139.28547 2.6139.8564 2.6139.28547.17426.28547 1.1327.28547-.43565.28547-1.2198 1.1419-14.464.8564-18.994.57093-13.069 1.7128-33.893 1.1419-10.368.28547 1.9169.28547.78417.28547.26139.28547 1.1327.57093 5.402.8564 20.388.28547 4.3565 1.1419 26.139.28547 2.9624.28547 6.7961.28547 3.6594.8564 18.036 1.1419 18.297.57093 9.0615.28547 3.5723.28547 1.2198.8564 10.456 1.1419 7.5803.28547 1.4812 1.1419 9.8457.28547 1.3941.57093 1.4812.28547 2.6139.28547 1.2198.57093 3.1367 2.2837 7.5803.28547-.17426.28547.69704.28547.26139.28547.52278.28547.08713.28547-.08713.28547-.43565.28547-.08713.28547.43565.28547-.60991.28547-.08713.28547-.26139.28547.17426.28547.43565h.28547l.57093-.8713.28547.43565.28547-.78417.28547-.08713.28547-1.0456.28547.17426.28547-.08713.28547-1.5683.28547-.69704.28547-1.3941.57093-1.0456.57093-1.6555.57093-4.2694.28547-.34852.8564-3.6594.28547-.52278.8564-3.1367.28547-.78417.28547-.087129.57093-2.2654.28547-.52278.28547-1.2198.28547-1.8297.57093-1.9169.28547-2.8753.8564-2.6139.28547-.34852.28547-1.0456.28547-.08713 1.9983-11.065.28547-.78417.28547-.17426.8564-4.9664.57093-6.3605.28547-4.008.8564-15.248.57093-10.107 1.7128-42.258.57093-9.9328.28547-7.406.57093-6.2733.57093-5.6634.8564-2.4396.28547 1.3941.28547 2.004.57093 8.2773.28547 8.1902.57093 9.6714 1.9983 43.826.28547 4.008.57093 10.804.57093 7.5803.57093 8.4516 2.2837 24.832.8564 5.4892 1.1419 6.709.57093 2.701.28547.69704 2.8547 12.721h.28547l.28547.43565.28547 1.4812.28547-.26139.28547.95843.28547.08713.28547 1.3941.57093.34852.57093.52278.28547.17426.8564-.52278.28547-.78417.28547-.26139.28547-.69704.57093.34852.28547-.17426.28547.26139.57093.08713.28547-.08713.28547.60991.28547-.34852.8564-3.8337.57093-1.2198.57093-1.6555.28547-1.2198.28547-.43565.8564-2.7882.28547-2.6139.57093-2.8753.28547-.95843.28547-1.3941.57093-1.6555.8564-4.0951.28547-1.5683.28547-.26139h.28547l.28547-.69704.28547-1.2198.28547-1.8297.28547-.95843.57093-2.7882.28547-2.004.28547-.69704.57093-2.701.28547.17426.57093-3.3981.28547-1.4812.57093-4.008h.28547l.57093-2.6139.28547-2.0911.28547-.60991.28547-2.0911.57093-11.763.57093-10.368.28547-6.2733 1.4273-42.345.57093-11.588.28547-8.6258.57093-6.6219.28547-2.4396.57093-6.1862.28547-.17426.57093-1.3069.28547 1.2198.28547 2.5268.8564 13.854.28547 3.5723 2.5692 52.539 1.4273 26.139 1.4273 17.687.8564 10.281.28547 1.8297.8564 7.0575.28547 1.3941 1.1419 8.3645.28547 1.1327.8564 5.2278 1.1419 3.6594.28547 1.7426.8564 2.3525.57093.95843.28547 1.0456.28547.60991.28547 1.3941.28547.78417.28547.34852.28547.69704.28547-.26139.28547.17426.8564-1.0456m.57093 2.4396.28547 1.3941.28547-.08713.28547.26139.57093-1.5683.28547-.08713.28547-.52278.28547.17426.28547-.8713.28547.087129.57093-2.5268.28547-.78417h.28547l.28547-.8713.28547-2.0911.28547-.26139.28547-.95843.28547-1.4812.28547-.34852 1.1419-4.8793.57093-2.9624.28547-1.0456.28547.17426.28547-1.1327.28547-2.6139.57093-2.9624.28547-1.4812.28547-2.5268.28547-1.4812.28547-2.1782.57093-2.2654.57093-2.5268.28547-.34852.28547-.69704.28547-1.1327.28547.087129.57093-2.7882.28547.08713.57093-5.3149.57093-4.0951.57093.17426.28547-2.4396.28547-1.3069.28547-3.3981.28547-1.6555.28547-2.5268 1.4273-22.305.28547-5.7506.8564-23.961 1.7128-42.084 1.1419-15.858.28547-.52278.57093.78417.28547 1.8297.57093 5.8377.28547 5.2278.8564 19.778.57093 11.153.8564 21.957.28547 5.3149.28547 2.9624 2.8547 47.311 1.1419 9.2358.28547 2.1782.57093 4.9664.57093 4.1822 1.1419 7.5803.28547.69704.8564 4.8793.28547.60991 1.1419 6.3605.8564 2.8753 1.4273 3.3109.57093 2.701.28547.69704.57093.60991.28547-.43565.28547-.78417.28547-.34852.28547.52278.28547-.8713.28547.087129.28547.69704.28547-.52278.28547.43565.8564-1.4812.8564-2.5268.28547-.52278.57093-2.1782.28547-.69704.57093-2.7882.28547.26139.28547-1.5683.28547-.52278.57093-2.0911.28547-1.0456.28547-.52278.57093-2.004.28547-2.0911.28547-.43565 1.1419-5.1407.28547-.78417.28547-1.3941.28547-.78417.57093-2.7882.57093-2.004.57093-2.3525.57093-2.0911.28547-2.4396.28547-.34852.28547-1.2198.28547-2.701.8564-3.6594.28547-.43565.28547-.17426.28547-1.1327.28547-2.6139.57093-6.709.57093-5.4892.8564-16.99 1.7128-33.196.28547-7.5803.28547-4.5307 1.1419-29.188.57093-11.24.28547-4.8793.28547-2.7882.28547-.34852.28547-5.1407.28547-2.1782.28547-.08713.57093 2.3525.28547 5.0535.57093 15.248.57093 11.414 1.7128 41.561.57093 11.588 1.1419 19.691 1.4273 21.521 1.4273 15.858.57093 5.2278 1.9983 12.111 2.2837 12.198.28547-.08713.57093 2.4396.57093 1.4812.28547.34852.28547 1.0456.28547-.17426 1.4273 2.7882.28547-.17426.28547.52278.8564-.17426.57093-.78417.57093-.34852.28547-1.2198.28547-.17426h.28547l.28547-.43565.28547.52278.28547.08713.28547-.52278.57093-2.4396.57093-2.7882 1.9983-7.4932h.28547l.57093-1.7426.28547-1.6555.28547-.43565.57093-3.8337.28547.087129.28547-.69704.28547-.34852.28547-1.3069.28547-.08713 1.1419-8.4516.28547-1.4812.28547-.8713.28547-.43565.57093-2.4396.28547-.34852.28547-.95843.28547-2.7882.8564-4.0951.57093-2.5268.28547-.08713.28547-.26139.57093-2.7882.28547-2.004 1.1419-13.244 1.4273-27.62.57093-17.426 2.2837-58.028.28547-5.3149.57093-5.4892.28547-3.8337.28547-.69704.28547-2.7882.28547 2.5268.28547-.17426.8564 9.4971.28547 1.6555.57093 9.1486 4.282 88.262 1.9983 28.143.57093 5.3149.28547 4.0951 1.1419 8.9744.28547 1.4812.28547 3.7466.28547.60991.28547 2.4396.28547 1.3069.28547 2.0911.28547.78417.28547 2.0911.28547.69704.57093 2.5268.28547.8713.57093.78417.28547-.087129.57093.087129.28547-.26139.28547.17426.28547-.17426.28547-.43565.57093-1.3941.28547-.26139 1.1419-3.7466.28547-.087129.57093-2.7882.57093-3.6594.28547-1.2198.28547.43565.28547-.17426.8564-3.9208.28547.26139.28547-1.6555.28547-.34852.28547-1.2198.57093-8.9744 1.1419-9.8457.28547-1.3069.28547-2.5268.28547-3.7466.57093-2.7882.57093-4.1822.57093-3.8337.28547-3.1367.57093-2.0911.28547-.52278.28547-.8713.28547-.43565h.28547l.28547-.26139.28547.69704.28547.26139.28547.52278.57093-.08713.28547.08713.28547 1.3941.28547 2.1782.28547-.78417.28547 1.1327.28547 2.0911.28547-2.5268.28547.17426.28547-.52278.28547-1.7426.28547-3.3109.28547-1.4812.28547-.8713.28547-2.9624.28547-6.4476.28547-2.7882 1.1419-24.745.28547-10.978.57093-11.24 1.7128-42.084.8564-16.99.8564-6.9704.28547-.43565.28547-.78417 1.1419 9.1486.28547 3.7466 2.5692 47.921 1.1419 24.745.57093 9.5843 2.2837 42.694 1.4273 16.816 1.9983 16.729.8564 4.8793.28547 2.2654.28547 1.1327.8564 5.2278.28547.34852.28547.78417.28547 1.4812.28547.17426.28547-.17426.28547.08713.28547-.26139.28547.26139.57093-.95843.28547-.52278 1.1419-3.7466.28547-.60991.57093-2.3525.57093-2.1782.57093-2.6139.28547-.34852.28547.26139.28547-2.3525.28547-.08713.28547-1.4812.28547-2.3525.28547-3.3109.28547-.17426.8564-7.3189.57093-2.5268.28547-1.7426.8564-8.3645.28547-4.0951.28547-1.1327.57093-4.4436.28547-.60991.57093-5.2278.57093-2.9624.28547-1.3941.57093-3.7466.28547-.43565.28547.43565.57093-2.1782.28547-.08713.8564-1.7426.28547-1.1327.28547.8713.57093 3.1367.28547 2.4396.28547-.17426h.28547l.57093 4.008.28547-2.6139.28547.26139 1.4273-15.161.28547-3.7466.57093-10.891.8564-24.571 1.4273-29.624.8564-11.85.57093-3.3109.28547.60991.28547.087129.28547-.95843.28547-.17426.28547 3.2238.28547 4.8793.28547 9.3229.57093 11.588 1.9983 45.307.57093 10.02.8564 17.165 1.7128 26.662.8564 10.02.57093 4.8793.28547 2.8753.28547 1.6555.57093 4.2694 4.8529 24.658.28547.43565.28547 1.3941.57093 1.1327.28547.17426 1.4273 3.1367.28547-.26139.28547-.08713.28547-.34852.28547.26139.8564-.17426.57093-1.1327.57093-.69704.8564-.17426.28547-.52278.28547-.78417.28547-.34852.57093-2.6139.28547.087129.28547-.43565.28547-.8713.57093-2.6139.57093-3.2238 1.1419-2.9624.28547-2.1782.57093-2.8753.28547-.08713.57093-2.9624.28547-.52278.28547-2.4396.57093-2.4396 1.1419-4.7921.28547-.34852.28547-2.701.28547-.78417.28547-.26139.57093-5.2278.28547-.8713.28547-1.5683.57093-1.3069.28547-1.4812.28547-2.5268.57093-2.8753.28547-.43565.8564-7.8417 2.5692-54.456 1.4273-33.196 1.1419-13.854.57093-2.701.28547.78417.28547.43565.8564 10.456 2.5692 55.589 3.1401 49.315.28547 2.004 1.7128 17.252.57093 3.8337.8564 4.0951.8564 5.9248.28547.69704.57093 2.5268 1.1419 4.4436.28547 1.6555.8564 2.5268.28547.26139.57093 1.7426.28547.08713.57093 1.7426.28547.34852.8564 2.4396.57093.08713.57093-.78417.28547.17426.28547-.34852.28547-.78417.28547-.26139.28547-.52278.28547-.95843.28547.34852.57093-.60991.28547-1.8297.28547.17426.28547-.8713.28547.087129.28547-1.5683.28547-.69704.28547-.34852.28547-1.3069.28547-.52278.57093-2.5268.28547-2.3525.28547-1.0456.28547-1.4812.28547-.34852.28547-1.9169.28547-.69704.8564-4.3565.57093-1.8297.28547-.60991.28547-1.7426.28547.17426.28547-1.2198.28547-.69704h.28547l1.1419-7.2318.28547-.52278.28547-1.7426.8564-2.5268.28547-1.0456h.28547l.8564-6.012.28547-.34852 1.4273-8.1902 1.1419-12.285.8564-16.555.8564-22.131.8564-21.957.28547-3.3109.28547-6.012.28547-8.4516 1.4273-17.862.28547-.26139.28547-1.2198.28547-.34852.8564 7.5803.57093 12.808.57093 9.6714 1.9983 37.727.57093 12.982.57093 10.107.8564 11.501.57093 11.24.8564 10.02 1.1419 9.4971 1.4273 12.111.28547.8713.28547 1.3069.28547.78417 1.1419 6.4476.28547 1.1327.57093 1.1327.57093 2.004.28547.69704.28547 1.9169.28547.69704.28547-.43565.57093.95843.28547.17426.28547.8713.28547 1.6555.28547-.17426.28547.26139.57093.69704.28547.17426h.28547l.57093.34852.57093-1.3941.28547.95843.28547-.17426.57093-1.2198.28547-.087129.57093-.8713.28547.69704.8564-1.3941.28547-2.004.28547-.8713.57093-.8713.8564-3.8337.28547-1.9169.57093-2.1782.28547-1.3941.28547-.60991.28547-.95843.8564-5.5763.28547-.69704.57093-3.8337.28547-2.0911 1.1419-3.3981.57093-3.0495.57093-5.1407.28547-.69704 1.1419-7.0575.28547-2.9624.28547-.69704.57093-2.701.28547 1.2198.28547-.95843.28547-.26139.28547-.78417.28547.08713.28547-.52278.28547-1.3941.57093-9.5843 1.1419-17.774.57093-16.032.28547-10.281.28547-5.402 1.1419-29.363.8564-15.77.57093-6.709h.28547l.28547-.17426.28547-1.6555.57093 2.4396.28547 1.7426.28547 3.5723.8564 19.169 1.1419 25.268.8564 20.04 1.9983 33.806.28547 3.0495.28547 6.0991 1.7128 19.43 1.1419 8.0159 3.4256 18.472.28547.60991.28547 1.9169 1.4273 4.4436.28547 1.6555 1.1419 3.1367.28547 1.2198.28547-.26139.28547.34852.28547-.087129.28547-.26139.28547-.8713.28547 1.0456.28547-.78417.57093-.52278.28547-.95843.28547-.17426h.28547l.28547-.26139.28547-.78417.28547-2.004.28547-.34852h.28547l.28547-.26139.28547-1.0456.28547-1.6555.28547-.43565.28547-1.0456h.28547l.28547-.8713.28547 1.3069.28547 1.8297.28547.69704.28547-.34852.28547 1.3069.28547-.17426.28547-2.2654.28547.8713.57093-.95843.57093.43565.28547-1.9169.28547.34852.28547.8713.28547.17426.28547-.08713.28547-1.0456.28547.17426m1.1419-2.7882.28547-1.6555.28547-3.3109.28547-1.7426 1.9983-17.862 1.1419-5.1407 1.1419-12.372 1.4273-25.616 1.4273-41.299 1.1419-29.798.57093-9.6714.57093-7.3189.28547-1.5683.28547 1.1327h.28547l.28547.43565.57093 2.7882.57093 12.895.28547 6.5347.28547 1.9169.28547 7.5803.28547 2.6139.28547 5.0535.8564 19.517 2.5692 45.22 1.9983 24.832 2.2837 19.081.28547.60991 1.4273 7.9288 1.1419 4.3565v0" clip-path="url(#c)" fill="none" stroke="#28f" stroke-linecap="square" stroke-width="1.5"/>
   </g>
   <g id="cy">
    <path d="m52 259.78v-232.9" fill="none" stroke="#000" stroke-linecap="square" stroke-width=".8"/>
   </g>
   <g id="cz">
    <path d="m853.2 259.78v-232.9" fill="none" stroke="#000" stroke-linecap="square" stroke-width=".8"/>
   </g>
   <g id="da">
    <path d="m52 259.78h801.2" fill="none" stroke="#000" stroke-linecap="square" stroke-width=".8"/>
   </g>
   <g id="db">
    <path d="m52 26.88h801.2" fill="none" stroke="#000" stroke-linecap="square" stroke-width=".8"/>
   </g>
   <g id="dc">
    <!-- 同時接続数の推移 -->
    <g transform="translate(404.6 20.88) scale(.12 -.12)">
     <defs>
      <path id="x" transform="scale(.015625)" d="m1587 3936h3232v-518h-3232v518zm320-1114h557v-2534h-557v2534zm301 0h2291v-2086h-2291v512h1734v1069h-1734v505zm-1683 2260h5113v-570h-4524v-5056h-589v5626zm4768 0h595v-4896q0-250-67-397t-227-218q-160-77-426-96t-675-19q-13 83-45 192t-77 218q-45 108-89 185 281-13 527-13 247 0 330 0 83 7 118 42 36 35 36 112v4890z"/>
      <path id="v" transform="scale(.015625)" d="m2714 4672h3238v-525h-3238v525zm-244-1235h3712v-538h-3712v538zm20-1184h3635v-531h-3635v531zm1523 3155h595v-2310h-595v2310zm832-2451h589v-2823q0-230-61-364-61-135-227-199-167-70-423-86t-633-16q-20 121-78 285-57 163-121 284 275-6 509-9t310-3q77 6 106 28 29 23 29 93v2810zm-2023-1677 487 282q153-160 313-352t294-381q135-189 206-343l-519-313q-64 153-189 348-124 196-278 394-154 199-314 365zm-2086 3718h1619v-4281h-1619v544h1056v3187h-1056v550zm32-1843h1293v-537h-1293v537zm-320 1843h563v-4832h-563v4832z"/>
      <path id="w" transform="scale(.015625)" d="m3866 5408h614v-870h-614v870zm-1479-653h3597v-518h-3597v518zm-230-1485h4e3v-518h-4e3v518zm825 922 519 102q64-160 121-342 58-182 96-352 39-170 45-304l-544-128q-6 134-42 313-35 180-83 365-48 186-112 346zm1856 109 589-71q-96-275-202-557-105-281-195-486l-518 77q58 147 122 329 64 183 118 372t86 336zm-2643-2106h3943v-518h-3943v518zm1408 685 602-115q-167-371-362-784t-390-797-362-685l-525 179q160 288 346 666t368 784 323 752zm-659-2157 358 403q352-102 733-240 381-137 752-304 371-166 697-336 327-169 558-329l-384-461q-218 160-532 336-313 176-685 345-371 170-755 323-384 154-742 263zm1894 1114 583-71q-122-550-353-944-230-393-604-662t-922-435q-547-167-1296-269-25 128-93 269-67 141-137 230 678 64 1168 192t819 349q330 221 531 550 202 330 304 791zm-4684 217q396 90 953 240 557 151 1120 311l77-544q-525-154-1053-311-528-156-963-284l-134 588zm121 2093h1965v-563h-1965v563zm819 1248h576v-5229q0-236-51-374t-192-208q-141-77-355-99-214-23-541-16-13 115-64 288t-109 294q205-6 381-6t234 0q64 0 92 28 29 29 29 93v5229z"/>
      <path id="u" transform="scale(.015625)" d="m4058 5408h595v-1798h-595v1798zm-1415-563h3443v-499h-3443v499zm231-992h3008v-499h-3008v499zm-224-877h3475v-1203h-531v729h-2432v-729h-512v1203zm1964-877h551v-1881q0-122 22-157 23-35 106-35 25 0 92 0 68 0 135 0t99 0q51 0 83 54t45 224 19 515q90-70 234-131t259-93q-19-429-83-662-64-234-183-326-118-93-316-93-39 0-103 0t-134 0-138 0q-67 0-99 0-237 0-365 64t-176 218q-48 153-48 422v1881zm-1164-6h550v-455q0-243-48-528-48-284-186-579-137-294-409-572-272-279-727-503-70 90-192 208-121 118-230 195 416 205 665 438 250 234 371 474 122 240 164 467 42 228 42 413v442zm-2240 3309 524-192q-121-244-259-503-137-259-275-496t-259-416l-410 173q122 186 246 438 125 253 240 515 116 263 193 481zm716-743 500-230q-224-359-496-756-272-396-548-764-275-368-518-650l-358 205q179 211 377 483 199 272 387 569 189 298 358 592 170 295 298 551zm-1721-665 307 403q166-154 339-340 173-185 320-364t224-327l-326-460q-77 160-218 348-141 189-314 384-172 196-332 356zm1485-832 435 179q128-211 249-458 122-246 215-474 93-227 137-412l-473-211q-32 185-119 422-86 237-201 486-115 250-243 468zm-1530-583q422 26 998 54 576 29 1184 68l7-499q-570-45-1127-84-556-38-992-70l-70 531zm1702-992 436 135q121-276 214-596t118-556l-454-148q-26 237-112 563-86 327-202 602zm-1363 109 499-83q-57-455-163-897-105-441-253-748-51 32-134 73-83 42-170 83-86 42-144 62 148 294 234 697t131 813zm691 627h525v-2861h-525v2861z"/>
      <path id="q" transform="scale(.015625)" d="m224 2022h3187v-499h-3187v499zm51 2247h3111v-487h-3111v487zm1127-1735 563-121q-154-320-333-672t-352-679q-173-326-326-582l-532 173q148 243 324 566t345 669q170 346 311 646zm934-832 563-64q-89-480-262-838t-461-614-701-432-976-298q-25 128-99 269t-157 237q659 102 1085 303 426 202 666 554t342 883zm422 3597 519-211q-147-218-298-436-150-217-278-377l-403 186q121 173 252 413 132 240 208 425zm-1203 109h563v-2957h-563v2957zm-1075-320 448 186q134-192 246-420 112-227 157-393l-467-211q-38 172-147 406t-237 432zm1094-1050 397-236q-160-263-400-529-240-265-519-489-278-224-553-378-51 103-141 237-89 135-179 218 269 109 534 294 266 186 493 416 228 231 368 467zm487-204q83-45 246-145 163-99 352-211t346-211 221-150l-327-423q-83 77-230 198-147 122-317 253-170 132-327 250-156 119-259 189l295 250zm1798 396h2311v-556h-2311v556zm115 1178 615-90q-103-640-263-1235t-384-1101q-224-505-512-889-44 57-134 134t-186 157-166 125q275 339 473 796 199 458 340 995 141 538 217 1108zm1223-1510 614-58q-147-1101-445-1940-297-838-813-1443-515-604-1321-1014-26 71-90 177-64 105-134 208-70 102-128 159 742 346 1212 880 471 535 730 1290 260 755 375 1741zm-1005-135q134-851 387-1597 253-745 659-1305 407-560 1002-874-70-57-154-150-83-93-154-189-70-96-121-179-633 371-1056 988-422 618-688 1434-265 816-425 1783l550 89zm-3309-3065 327 416q377-148 754-330 378-182 701-378 324-195 548-368l-416-435q-211 179-519 378-307 198-666 383-358 186-729 334z"/>
      <path id="t" transform="scale(.015625)" d="m3686 4378q-64-493-163-1041-99-547-265-1084-192-653-432-1104t-522-688-595-237q-320 0-596 221-275 221-448 621-172 400-172 931 0 537 220 1017 221 480 611 851 391 372 909 583 519 211 1121 211 576 0 1040-186 464-185 793-515 330-329 502-771 173-441 173-941 0-672-278-1194-278-521-816-851-538-329-1318-444l-378 601q166 20 307 42t263 48q307 70 585 217 279 148 496 375 218 227 342 534 125 308 125 692t-122 713q-121 330-358 573-236 243-582 380-346 138-781 138-525 0-935-186-409-185-694-489-284-304-432-656-147-352-147-678 0-365 89-605 90-240 224-355 135-115 276-115t288 144 297 457q151 314 298 800 147 461 246 982 100 522 145 1021l684-12z"/>
      <path id="r" transform="scale(.015625)" d="m2995 2925h2893v-519h-2893v519zm0-1280h2893v-519h-2893v519zm-64-1299h3232v-557h-3232v557zm1312 3577h563v-3763h-563v3763zm429 1466 634-141q-154-390-340-794-185-403-339-684l-512 140q103 199 208 458 106 259 195 528 90 269 154 493zm-1472 25 582-147q-153-518-371-1018-217-499-483-931t-573-758q-38 64-109 160-70 96-147 198-77 103-141 160 416 416 733 1034t509 1302zm128-1203h2720v-537h-2720v-4205h-582v4422l313 320h269zm-3174-2157q396 90 953 240 557 151 1120 311l77-544q-525-154-1053-311-528-156-963-284l-134 588zm121 2093h1965v-563h-1965v563zm819 1248h576v-5229q0-236-51-374t-192-208q-141-77-355-99-214-23-541-16-13 115-64 288t-109 294q205-6 381-6t234 0q64 0 92 28 29 29 29 93v5229z"/>
      <path id="p" transform="scale(.015625)" d="m4051 5402 595-109q-281-493-729-941t-1107-806q-39 64-106 144t-141 153q-73 74-137 119 608 288 1011 678t614 762zm-77-557h1511v-493h-1863l352 493zm1293 0h109l109 25 384-179q-192-505-496-905t-695-701q-390-301-845-519-454-217-947-358-44 109-137 253t-176 227q448 109 867 294 419 186 777 445 359 259 631 592t419 730v96zm-1990-954 377 307q167-96 336-218 170-121 320-249 151-128 247-237l-397-332q-90 108-237 236t-317 259q-169 132-329 234zm1107-934 595-109q-307-538-803-1031-496-492-1232-876-38 64-102 144t-138 156q-74 77-138 116 455 217 807 483t604 554q253 288 407 563zm-90-589h1460v-506h-1818l358 506zm1268 0h121l109 26 384-167q-192-614-531-1075t-787-794q-448-332-983-553-534-221-1129-355-45 115-132 269-86 153-176 249 551 96 1043 285 493 189 903 473 410 285 714 669t464 883v90zm-2132-1056 410 339q186-102 384-237 198-134 371-275t282-269l-435-371q-103 128-270 272-166 144-361 288t-381 253zm-2150 3533h589v-5376h-589v5376zm-992-1242h2336v-569h-2336v569zm1024-224 365-160q-96-339-231-707-134-368-291-727-157-358-336-672-179-313-365-537-44 128-134 291t-160 272q173 192 339 457 167 266 323 570 157 304 282 618t208 595zm941 1946 416-467q-314-122-695-221-380-99-784-173-403-74-780-131-20 102-71 236-51 135-102 231 358 58 732 138 375 80 711 179t573 208zm-397-2579q58-45 179-170 122-125 266-266 144-140 259-265t160-183l-352-473q-58 102-157 255-99 154-218 317-118 164-227 311-108 147-185 237l275 237z"/>
     </defs>
     <use xlink:href="#x"/>
     <use transform="translate(100)" xlink:href="#v"/>
     <use transform="translate(200)" xlink:href="#w"/>
     <use transform="translate(300)" xlink:href="#u"/>
     <use transform="translate(400)" xlink:href="#q"/>
     <use transform="translate(500)" xlink:href="#t"/>
     <use transform="translate(600)" xlink:href="#r"/>
     <use transform="translate(700)" xlink:href="#p"/>
    </g>
   </g>
  </g>
  <g id="dd">
   <g id="de">
    <path d="m52 523.06h801.2v-232.9h-801.2z" fill="#fff"/>
   </g>
   <g id="df">
    <path d="m136.09 523.06h.8564v-232.9h-.8564z" clip-path="url(#d)" fill="#808080" opacity=".3" stroke="#808080"/>
   </g>
   <g id="dg">
    <path d="m451.38 523.06h.57093v-232.9h-.57093z" clip-path="url(#d)" fill="#808080" opacity=".3" stroke="#808080"/>
   </g>
   <g id="dh">
    <path d="m791.09 523.06h1.1419v-232.9h-1.1419z" clip-path="url(#d)" fill="#808080" opacity=".3" stroke="#808080"/>
   </g>
   <g id="di">
    <g id="dj">
     <g id="dk">
      <path d="m105.68 523.06v-232.9" clip-path="url(#d)" fill="none" stroke="#b0b0b0" stroke-linecap="square" stroke-opacity=".3" stroke-width=".8"/>
     </g>
     <g id="dl">
      <use x="105.684626" y="523.055464" stroke="#000000" stroke-width=".8" xlink:href="#e"/>
     </g>
     <g id="dm">
      <!-- 2025-07-01 -->
      <g transform="translate(58.895 563.33) rotate(-30) scale(.1 -.1)">
       <defs>
        <path id="f" transform="scale(.015625)" d="m301 1536v544h1689v-544h-1689z"/>
       </defs>
       <use xlink:href="#b"/>
       <use transform="translate(57)" xlink:href="#a"/>
       <use transform="translate(114)" xlink:href="#b"/>
       <use transform="translate(171)" xlink:href="#j"/>
       <use transform="translate(228)" xlink:href="#f"/>
       <use transform="translate(263.7)" xlink:href="#a"/>
       <use transform="translate(320.7)" xlink:href="#i"/>
       <use transform="translate(377.7)" xlink:href="#f"/>
       <use transform="translate(413.4)" xlink:href="#a"/>
       <use transform="translate(470.4)" xlink:href="#g"/>
      </g>
     </g>
    </g>
    <g id="dn">
     <g id="do">
      <path d="m187.9 523.06v-232.9" clip-path="url(#d)" fill="none" stroke="#b0b0b0" stroke-linecap="square" stroke-opacity=".3" stroke-width=".8"/>
     </g>
     <g id="dp">
      <use x="187.898995" y="523.055464" stroke="#000000" stroke-width=".8" xlink:href="#e"/>
     </g>
     <g id="dq">
      <!-- 2025-07-03 -->
      <g transform="translate(141.11 563.33) rotate(-30) scale(.1 -.1)">
       <use xlink:href="#b"/>
       <use transform="translate(57)" xlink:href="#a"/>
       <use transform="translate(114)" xlink:href="#b"/>
       <use transform="translate(171)" xlink:href="#j"/>
       <use transform="translate(228)" xlink:href="#f"/>
       <use transform="translate(263.7)" xlink:href="#a"/>
       <use transform="translate(320.7)" xlink:href="#i"/>
       <use transform="translate(377.7)" xlink:href="#f"/>
       <use transform="translate(413.4)" xlink:href="#a"/>
       <use transform="translate(470.4)" xlink:href="#o"/>
      </g>
     </g>
    </g>
    <g id="dr">
     <g id="ds">
      <path d="m270.11 523.06v-232.9" clip-path="url(#d)" fill="none" stroke="#b0b0b0" stroke-linecap="square" stroke-opacity=".3" stroke-width=".8"/>
     </g>
     <g id="dt">
      <use x="270.113363" y="523.055464" stroke="#000000" stroke-width=".8" xlink:href="#e"/>
     </g>
     <g id="du">
      <!-- 2025-07-05 -->
      <g transform="translate(223.32 563.33) rotate(-30) scale(.1 -.1)">
       <use xlink:href="#b"/>
       <use transform="translate(57)" xlink:href="#a"/>
       <use transform="translate(114)" xlink:href="#b"/>
       <use transform="translate(171)" xlink:href="#j"/>
       <use transform="translate(228)" xlink:href="#f"/>
       <use transform="translate(263.7)" xlink:href="#a"/>
       <use transform="translate(320.7)" xlink:href="#i"/>
       <use transform="translate(377.7)" xlink:href="#f"/>
       <use transform="translate(413.4)" xlink:href="#a"/>
       <use transform="translate(470.4)" xlink:href="#j"/>
      </g>
     </g>
    </g>
    <g id="dv">
     <g id="dw">
      <path d="m352.33 523.06v-232.9" clip-path="url(#d)" fill="none" stroke="#b0b0b0" stroke-linecap="square" stroke-opacity=".3" stroke-width=".8"/>
     </g>
     <g id="dx">
      <use x="352.327731" y="523.055464" stroke="#000000" stroke-width=".8" xlink:href="#e"/>
     </g>
     <g id="dy">
      <!-- 2025-07-07 -->
      <g transform="translate(305.54 563.33) rotate(-30) scale(.1 -.1)">
       <use xlink:href="#b"/>
       <use transform="translate(57)" xlink:href="#a"/>
       <use transform="translate(114)" xlink:href="#b"/>
       <use transform="translate(171)" xlink:href="#j"/>
       <use transform="translate(228)" xlink:href="#f"/>
       <use transform="translate(263.7)" xlink:href="#a"/>
       <use transform="translate(320.7)" xlink:href="#i"/>
       <use transform="translate(377.7)" xlink:href="#f"/>
       <use transform="translate(413.4)" xlink:href="#a"/>
       <use transform="translate(470.4)" xlink:href="#i"/>
      </g>
     </g>
    </g>
    <g id="dz">
     <g id="ea">
      <path d="m434.54 523.06v-232.9" clip-path="url(#d)" fill="none" stroke="#b0b0b0" stroke-linecap="square" stroke-opacity=".3" stroke-width=".8"/>
     </g>
     <g id="eb">
      <use x="434.542099" y="523.055464" stroke="#000000" stroke-width=".8" xlink:href="#e"/>
     </g>
     <g id="ec">
      <!-- 2025-07-09 -->
      <g transform="translate(387.75 563.33) rotate(-30) scale(.1 -.1)">
       <use xlink:href="#b"/>
       <use transform="translate(57)" xlink:href="#a"/>
       <use transform="translate(114)" xlink:href="#b"/>
       <use transform="translate(171)" xlink:href="#j"/>
       <use transform="translate(228)" xlink:href="#f"/>
       <use transform="translate(263.7)" xlink:href="#a"/>
       <use transform="translate(320.7)" xlink:href="#i"/>
       <use transform="translate(377.7)" xlink:href="#f"/>
       <use transform="translate(413.4)" xlink:href="#a"/>
       <use transform="translate(470.4)" xlink:href="#l"/>
      </g>
     </g>
    </g>
    <g id="ed">
     <g id="ee">
      <path d="m516.76 523.06v-232.9" clip-path="url(#d)" fill="none" stroke="#b0b0b0" stroke-linecap="square" stroke-opacity=".3" stroke-width=".8"/>
     </g>
     <g id="ef">
      <use x="516.756468" y="523.055464" stroke="#000000" stroke-width=".8" xlink:href="#e"/>
     </g>
     <g id="eg">
      <!-- 2025-07-11 -->
      <g transform="translate(469.97 563.33) rotate(-30) scale(.1 -.1)">
       <use xlink:href="#b"/>
       <use transform="translate(57)" xlink:href="#a"/>
       <use transform="translate(114)" xlink:href="#b"/>
       <use transform="translate(171)" xlink:href="#j"/>
       <use transform="translate(228)" xlink:href="#f"/>
       <use transform="translate(263.7)" xlink:href="#a"/>
       <use transform="translate(320.7)" xlink:href="#i"/>
       <use transform="translate(377.7)" xlink:href="#f"/>
       <use transform="translate(413.4)" xlink:href="#g"/>
       <use transform="translate(470.4)" xlink:href="#g"/>
      </g>
     </g>
    </g>
    <g id="eh">
     <g id="ei">
      <path d="m598.97 523.06v-232.9" clip-path="url(#d)" fill="none" stroke="#b0b0b0" stroke-linecap="square" stroke-opacity=".3" stroke-width=".8"/>
     </g>
     <g id="ej">
      <use x="598.970836" y="523.055464" stroke="#000000" stroke-width=".8" xlink:href="#e"/>
     </g>
     <g id="ek">
      <!-- 2025-07-13 -->
      <g transform="translate(552.18 563.33) rotate(-30) scale(.1 -.1)">
       <use xlink:href="#b"/>
       <use transform="translate(57)" xlink:href="#a"/>
       <use transform="translate(114)" xlink:href="#b"/>
       <use transform="translate(171)" xlink:href="#j"/>
       <use transform="translate(228)" xlink:href="#f"/>
       <use transform="translate(263.7)" xlink:href="#a"/>
       <use transform="translate(320.7)" xlink:href="#i"/>
       <use transform="translate(377.7)" xlink:href="#f"/>
       <use transform="translate(413.4)" xlink:href="#g"/>
       <use transform="translate(470.4)" xlink:href="#o"/>
      </g>
     </g>
    </g>
    <g id="el">
     <g id="em">
      <path d="m681.19 523.06v-232.9" clip-path="url(#d)" fill="none" stroke="#b0b0b0" stroke-linecap="square" stroke-opacity=".3" stroke-width=".8"/>
     </g>
     <g id="en">
      <use x="681.185204" y="523.055464" stroke="#000000" stroke-width=".8" xlink:href="#e"/>
     </g>
     <g id="eo">
      <!-- 2025-07-15 -->
      <g transform="translate(634.4 563.33) rotate(-30) scale(.1 -.1)">
       <use xlink:href="#b"/>
       <use transform="translate(57)" xlink:href="#a"/>
       <use transform="translate(114)" xlink:href="#b"/>
       <use transform="translate(171)" xlink:href="#j"/>
       <use transform="translate(228)" xlink:href="#f"/>
       <use transform="translate(263.7)" xlink:href="#a"/>
       <use transform="translate(320.7)" xlink:href="#i"/>
       <use transform="translate(377.7)" xlink:href="#f"/>
       <use transform="translate(413.4)" xlink:href="#g"/>
       <use transform="translate(470.4)" xlink:href="#j"/>
      </g>
     </g>
    </g>
    <g id="ep">
     <g id="eq">
      <path d="m763.4 523.06v-232.9" clip-path="url(#d)" fill="none" stroke="#b0b0b0" stroke-linecap="square" stroke-opacity=".3" stroke-width=".8"/>
     </g>
     <g id="er">
      <use x="763.399572" y="523.055464" stroke="#000000" stroke-width=".8" xlink:href="#e"/>
     </g>
     <g id="es">
      <!-- 2025-07-17 -->
      <g transform="translate(716.61 563.33) rotate(-30) scale(.1 -.1)">
       <use xlink:href="#b"/>
       <use transform="translate(57)" xlink:href="#a"/>
       <use transform="translate(114)" xlink:href="#b"/>
       <use transform="translate(171)" xlink:href="#j"/>
       <use transform="translate(228)" xlink:href="#f"/>
       <use transform="translate(263.7)" xlink:href="#a"/>
       <use transform="translate(320.7)" xlink:href="#i"/>
       <use transform="translate(377.7)" xlink:href="#f"/>
       <use transform="translate(413.4)" xlink:href="#g"/>
       <use transform="translate(470.4)" xlink:href="#i"/>
      </g>
     </g>
    </g>
    <g id="et">
     <g id="eu">
      <path d="m845.61 523.06v-232.9" clip-path="url(#d)" fill="none" stroke="#b0b0b0" stroke-linecap="square" stroke-opacity=".3" stroke-width=".8"/>
     </g>
     <g id="ev">
      <use x="845.61394" y="523.055464" stroke="#000000" stroke-width=".8" xlink:href="#e"/>
     </g>
     <g id="ew">
      <!-- 2025-07-19 -->
      <g transform="translate(798.82 563.33) rotate(-30) scale(.1 -.1)">
       <use xlink:href="#b"/>
       <use transform="translate(57)" xlink:href="#a"/>
       <use transform="translate(114)" xlink:href="#b"/>
       <use transform="translate(171)" xlink:href="#j"/>
       <use transform="translate(228)" xlink:href="#f"/>
       <use transform="translate(263.7)" xlink:href="#a"/>
       <use transform="translate(320.7)" xlink:href="#i"/>
       <use transform="translate(377.7)" xlink:href="#f"/>
       <use transform="translate(413.4)" xlink:href="#g"/>
       <use transform="translate(470.4)" xlink:href="#l"/>
      </g>
     </g>
    </g>
   </g>
   <g id="ex">
    <g id="ey">
     <g id="ez">
      <path d="m52 505.73h801.2" clip-path="url(#d)" fill="none" stroke="#b0b0b0" stroke-linecap="square" stroke-opacity=".3" stroke-width=".8"/>
     </g>
     <g id="fa">
      <use x="52" y="505.73088" stroke="#000000" stroke-width=".8" xlink:href="#h"/>
     </g>
     <g id="fb">
      <!-- 104800 -->
      <g transform="translate(10.8 509.72) scale(.1 -.1)">
       <use xlink:href="#g"/>
       <use transform="translate(57)" xlink:href="#a"/>
       <use transform="translate(114)" xlink:href="#n"/>
       <use transform="translate(171)" xlink:href="#m"/>
       <use transform="translate(228)" xlink:href="#a"/>
       <use transform="translate(285)" xlink:href="#a"/>
      </g>
     </g>
    </g>
    <g id="fc">
     <g id="fd">
      <path d="m52 477.36h801.2" clip-path="url(#d)" fill="none" stroke="#b0b0b0" stroke-linecap="square" stroke-opacity=".3" stroke-width=".8"/>
     </g>
     <g id="fe">
      <use x="52" y="477.358993" stroke="#000000" stroke-width=".8" xlink:href="#h"/>
     </g>
     <g id="ff">
      <!-- 105200 -->
      <g transform="translate(10.8 481.34) scale(.1 -.1)">
       <use xlink:href="#g"/>
       <use transform="translate(57)" xlink:href="#a"/>
       <use transform="translate(114)" xlink:href="#j"/>
       <use transform="translate(171)" xlink:href="#b"/>
       <use transform="translate(228)" xlink:href="#a"/>
       <use transform="translate(285)" xlink:href="#a"/>
      </g>
     </g>
    </g>
    <g id="fg">
     <g id="fh">
      <path d="m52 448.99h801.2" clip-path="url(#d)" fill="none" stroke="#b0b0b0" stroke-linecap="square" stroke-opacity=".3" stroke-width=".8"/>
     </g>
     <g id="fi">
      <use x="52" y="448.987105" stroke="#000000" stroke-width=".8" xlink:href="#h"/>
     </g>
     <g id="fj">
      <!-- 105600 -->
      <g transform="translate(10.8 452.97) scale(.1 -.1)">
       <use xlink:href="#g"/>
       <use transform="translate(57)" xlink:href="#a"/>
       <use transform="translate(114)" xlink:href="#j"/>
       <use transform="translate(171)" xlink:href="#k"/>
       <use transform="translate(228)" xlink:href="#a"/>
       <use transform="translate(285)" xlink:href="#a"/>
      </g>
     </g>
    </g>
    <g id="fk">
     <g id="fl">
      <path d="m52 420.62h801.2" clip-path="url(#d)" fill="none" stroke="#b0b0b0" stroke-linecap="square" stroke-opacity=".3" stroke-width=".8"/>
     </g>
     <g id="fm">
      <use x="52" y="420.615217" stroke="#000000" stroke-width=".8" xlink:href="#h"/>
     </g>
     <g id="fn">
      <!-- 106000 -->
      <g transform="translate(10.8 424.6) scale(.1 -.1)">
       <use xlink:href="#g"/>
       <use transform="translate(57)" xlink:href="#a"/>
       <use transform="translate(114)" xlink:href="#k"/>
       <use transform="translate(171)" xlink:href="#a"/>
       <use transform="translate(228)" xlink:href="#a"/>
       <use transform="translate(285)" xlink:href="#a"/>
      </g>
     </g>
    </g>
    <g id="fo">
     <g id="fp">
      <path d="m52 392.24h801.2" clip-path="url(#d)" fill="none" stroke="#b0b0b0" stroke-linecap="square" stroke-opacity=".3" stroke-width=".8"/>
     </g>
     <g id="fq">
      <use x="52" y="392.24333" stroke="#000000" stroke-width=".8" xlink:href="#h"/>
     </g>
     <g id="fr">
      <!-- 106400 -->
      <g transform="translate(10.8 396.23) scale(.1 -.1)">
       <use xlink:href="#g"/>
       <use transform="translate(57)" xlink:href="#a"/>
       <use transform="translate(114)" xlink:href="#k"/>
       <use transform="translate(171)" xlink:href="#n"/>
       <use transform="translate(228)" xlink:href="#a"/>
       <use transform="translate(285)" xlink:href="#a"/>
      </g>
     </g>
    </g>
    <g id="fs">
     <g id="ft">
      <path d="m52 363.87h801.2" clip-path="url(#d)" fill="none" stroke="#b0b0b0" stroke-linecap="square" stroke-opacity=".3" stroke-width=".8"/>
     </g>
     <g id="fu">
      <use x="52" y="363.871442" stroke="#000000" stroke-width=".8" xlink:href="#h"/>
     </g>
     <g id="fv">
      <!-- 106800 -->
      <g transform="translate(10.8 367.86) scale(.1 -.1)">
       <use xlink:href="#g"/>
       <use transform="translate(57)" xlink:href="#a"/>
       <use transform="translate(114)" xlink:href="#k"/>
       <use transform="translate(171)" xlink:href="#m"/>
       <use transform="translate(228)" xlink:href="#a"/>
       <use transform="translate(285)" xlink:href="#a"/>
      </g>
     </g>
    </g>
    <g id="fw">
     <g id="fx">
      <path d="m52 335.5h801.2" clip-path="url(#d)" fill="none" stroke="#b0b0b0" stroke-linecap="square" stroke-opacity=".3" stroke-width=".8"/>
     </g>
     <g id="fy">
      <use x="52" y="335.499555" stroke="#000000" stroke-width=".8" xlink:href="#h"/>
     </g>
     <g id="fz">
      <!-- 107200 -->
      <g transform="translate(10.8 339.48) scale(.1 -.1)">
       <use xlink:href="#g"/>
       <use transform="translate(57)" xlink:href="#a"/>
       <use transform="translate(114)" xlink:href="#i"/>
       <use transform="translate(171)" xlink:href="#b"/>
       <use transform="translate(228)" xlink:href="#a"/>
       <use transform="translate(285)" xlink:href="#a"/>
      </g>
     </g>
    </g>
    <g id="ga">
     <g id="gb">
      <path d="m52 307.13h801.2" clip-path="url(#d)" fill="none" stroke="#b0b0b0" stroke-linecap="square" stroke-opacity=".3" stroke-width=".8"/>
     </g>
     <g id="gc">
      <use x="52" y="307.127667" stroke="#000000" stroke-width=".8" xlink:href="#h"/>
     </g>
     <g id="gd">
      <!-- 107600 -->
      <g transform="translate(10.8 311.11) scale(.1 -.1)">
       <use xlink:href="#g"/>
       <use transform="translate(57)" xlink:href="#a"/>
       <use transform="translate(114)" xlink:href="#i"/>
       <use transform="translate(171)" xlink:href="#k"/>
       <use transform="translate(228)" xlink:href="#a"/>
       <use transform="translate(285)" xlink:href="#a"/>
      </g>
     </g>
    </g>
   </g>
   <g id="ge">
    <path d="m88.418 512.47h.1532l.44818-.28372h.40394l1.2841-.49651.4439-.28372 1.2589-.21279.8564.14186.4282-.21279.4282-.35465h.4282l.8564-.92209.8564-.14186.8564-.63837 1.2846.14186.4282-.070929.4282-.28372.4282-.42558.4282-.7093.8564-.63837h.4282l.8564-.63837.4282-.42558 1.2846-2.5535 1.2846-.99302.4282-.21279.4282.07093.4282-.35465h1.2846l.4282-.28372h.4282l.8564-.56744 2.141-.42558.4282.14186.4282-.070929.4282.070929 2.141-.28372 1.7128-.07093 1.2846-.14186 5.5666-.070929.8564-.07093h.4282l.4282-.14186h.8564l.4282-.28372 1.2846-.35465.8564-.21279.8564-.28372h.4282l.8564-.42558 1.2846-.28372 2.141-.78023.8564-.35465.8564-.21279m.8564-.42558.4282-.28372.4282-.63837.4282-.35465 1.2846-.28372.8564-.28372.8564-.56744.4282-.92209.4282-.28372.8564-1.4895h.4282l.8564-.99302.4282-.21279.4282-.49651 1.7128-1.1349.4282.07093 1.2846-.85116.4282-.14186.8564-.07093 1.2846-.21279.4282.14186h.4282l.8564-.49651.8564-.14186.4282.07093.4282-.14186.4282.07093 2.141-.28372.8564.07093.8564-.07093.8564.07093h2.5692l.8564-.21279.8564.21279.4282.07093 1.2846-.35465h.4282l.4282-.14186h.4282l.4282-.28372.8564-.21279.4282-.35465 1.7128.07093.4282.070929.4282-.070929.4282-.21279 1.2846-.14186.4282.14186 1.2846-.14186h.4282l1.2846-.78023.4282-.070929.4282-.28372.4282.070929.8564-.14186.4282.07093.4282-.28372.4282-.14186h.8564l.4282-.49651.8564-.49651.4282-.49651 1.2846-.49651.8564-.49651.4282-.7093.4282-.07093.4282-.28372.4282-.78023 1.2846-1.2058.4282-.14186.4282.21279.4282-.14186.4282-.35465 1.7128-.49651.4282-.07093.4282.07093.4282-.21279.8564.07093h2.141l.4282-.14186.8564.14186 1.2846-.14186 2.9974-.07093.4282.21279h.4282l1.7128-.49651.99913-.070929.14273-.07093.4282.14186h.71367l.28547-.14186 1.1419.07093.28547.14186.71367-.07093.28547-.070929h.28547l.14273-.14186.28547.14186.28547-.07093h.28547l.28547-.14186.57093.14186.28547-.07093 1.2846-.070929.28547-.21279.14273-.14186.57093.28372.71367-.28372.28547.07093.57093-.21279.99913.070929.28547.14186.8564-.7093h.14273l.57093-.49651h1.5701l.28547-.14186.71367-.07093 1.4273-.63837h.4282l.28547-.14186.14273-.070929.14273-.21279.14273.14186.14273-.07093.14273.14186.28547-.28372.28547-.14186.28547-.070929.28547-.14186.14273-.070929.14273.070929.8564-.78023.28547-.070929.28547-.14186.28547-.7093.99913-.99302.14273.14186.28547-.14186.14273-.21279h.14273l.14273.14186.28547-.07093.28547-.49651h.28547l.14273-.42558.14273.07093.71367-.28372h.14273l.28547-.35465.28547-.21279.57093-.070929.28547-.21279.4282-.070929.28547-.07093h.4282l.4282-.28372.57093-.21279.99913-.07093.28547-.07093 1.8555-.070929.28547-.07093 3.1401-.07093.28547-.070929 2.2837-.07093.71367-.28372 3.4256-.07093 1.1419-.28372.28547-.21279 1.9983.07093.28547.14186 1.1419-.21279 1.4273-.070929.57093-.35465.8564-.07093.57093-.28372h.28547l.57093-.21279h.28547l.8564-.7093.28547-.14186.8564-.07093.28547-.28372 1.7128-.42558.28547.070929.28547-.14186.57093-.07093.8564-.21279.28547.07093.28547-.21279.28547-.07093.57093-.49651.28547-.07093.57093-.7093.28547-.21279h.28547l1.1419-.7093 1.4273-.35465 1.1419-1.2058.28547-.42558h.28547l.8564-.85116h.28547l.28547-.21279.28547-.35465.57093-.28372.28547.07093 1.4273-1.4186h.28547l.28547-.42558 1.1419-.21279h1.9983l.28547-.14186h.28547l.28547-.14186 1.1419-.14186.8564-.07093 2.2837-.49651 2.8547.07093.57093.070929.8564-.070929.28547-.21279.8564.14186.28547-.07093.57093.07093h1.4273l.8564-.35465h1.1419l.57093-.28372h.8564l.28547-.14186.8564-.07093.28547-.070929.28547.070929.28547-.14186.28547.07093.8564-.21279.28547-.21279.28547.07093.8564-.99302.57093.21279.28547-.21279h.57093l.57093-.28372.8564-.07093.57093-.63837h.28547l.57093-.21279.28547.07093.28547-.28372.28547-.07093.28547.07093.28547-.07093.28547.14186.28547-.14186.28547.07093.28547-.07093.8564-.63837h.28547l.28547-.14186.8564-1.2767.8564-.49651.28547-.56744.28547-.070929.8564-.85116.28547.07093.8564-.56744.57093-1.1349.57093-.070929.57093-.63837 1.1419-.35465.28547-.21279.28547-.070929.28547-.21279 1.1419-.35465.57093-.63837.57093-.07093 1.1419-.21279.28547-.35465 1.9983-.07093.57093-.21279.8564-.07093.8564-.21279.28547.07093.57093-.07093.8564.07093.57093.07093.57093-.28372 1.1419.07093.28547.21279h2.5692l.57093-.35465h.28547l.57093-.21279 1.1419.07093.57093.070929.28547-.14186h.28547l.28547-.28372h.28547l.28547-.21279 1.1419-.35465.28547-.14186.57093-.07093.8564-.78023h.28547l.28547-.14186h.57093l.57093.21279h.28547l.57093-.21279.28547-.35465 1.4273-.42558.28547-.14186.8564-.07093.28547-.14186.8564.14186.8564-.07093.57093-.21279.57093-.14186 1.4273-1.0639.28547-.07093.28547.07093.28547-.21279h.57093l.28547-.35465.57093-.28372.57093-.56744.8564.07093.57093-.42558.28547.070929.57093-.42558.28547-.42558.28547.14186.28547-.28372.28547-.070929.28547.21279.28547-.28372.57093.14186.57093-.42558.28547-.07093.28547-.21279.57093.07093.28547-.21279h.28547l.28547.14186.28547-.07093.28547-.35465.28547.07093.8564-.21279.28547.07093.28547-.07093.57093.07093 1.9983.07093.28547.21279 1.9983-.07093.57093-.070929 1.4273.070929.28547.14186.28547-.14186h1.1419l.28547-.14186.8564.07093.57093.070929 2.5692-.070929.57093-.07093 1.1419.07093.28547-.21279 1.1419-.21279.28547.14186.28547-.21279.57093-.07093.8564.14186.28547-.21279.57093-.07093h.28547l.57093-.21279 3.1401-.070929.57093-.21279.57093-.28372 1.4273-.07093.57093-.28372.8564-.63837h.28547l.28547-.14186.57093.07093 1.1419-.85116.28547.14186.28547-.14186.28547-.42558.8564-.49651.28547-.21279h.28547l.57093-.85116.8564-.63837.28547-.42558h.28547l.57093-.63837.28547.14186.57093-.07093.28547-.42558.28547.07093.8564-.63837.28547-.070929.28547-.42558h.28547l.57093-.35465.8564-.35465 1.1419-.07093.8564-.35465 1.7128.07093.57093.070929 1.9983.07093.57093.07093 1.1419-.14186.28547-.070929.28547.070929.57093-.070929h2.8547l.28547-.14186.8564-.07093.57093-.070929 1.1419-.07093.28547-.07093.8564.28372.57093-.21279 1.4273-.07093.8564-.14186.57093-.07093.28547-.14186 1.7128.070929.28547-.21279.8564-.21279.57093-.35465h.28547l.28547-.14186.57093-.42558.28547.070929.8564-.21279.57093.14186.57093-.07093.28547.07093 1.7128-.85116.57093-.07093.8564-.21279.28547-.21279.57093-.07093.28547-.42558.28547-.14186.28547.070929.28547-.28372.28547-.070929.8564-1.6314.28547-.28372h.28547l.28547-.14186.57093-.49651.28547-.14186.28547-.49651 1.7128-1.2767.8564-.85116.28547-.49651 1.1419-.35465.28547.14186.28547-.07093.28547-.21279.28547-.07093.28547-.28372h.28547l.28547-.14186.28547.070929 1.9983-.42558.8564-.07093.57093-.14186.57093.07093 1.7128-.07093.28547-.07093.28547.07093.57093-.07093.57093.07093 1.7128-.07093.28547-.070929.57093.070929 1.1419-.070929 1.7128-.35465m.57093.21279.28547-.14186h.28547l.28547-.14186h3.1401l.28547-.21279 1.1419-.14186.28547-.07093.28547.07093.57093-.35465.28547.07093.57093-.07093.28547.07093.28547-.14186.57093.14186.28547-.14186.8564-.070929.57093-.28372.57093.28372.57093-.35465.8564-.28372.8564-.35465.28547-.35465.28547-.14186h.28547l.28547-.21279h.57093l.57093-.49651.57093.28372.28547-.28372.28547-.49651.57093-.28372h.28547l1.1419-.63837.57093-.49651.57093-.14186.28547-.49651.28547-.21279.28547-.63837.8564-.7093h.28547l.57093-.56744.8564-.28372.28547-.14186.57093-.42558.28547-.07093.28547-.28372.57093.070929.28547-.21279.57093.14186.28547-.28372h.57093l.28547-.21279.8564-.07093 1.1419-.14186.28547-.070929.28547.070929 1.1419-.56744 1.4273-.07093.28547-.07093.8564.14186 1.4273-.07093.28547-.07093.57093.14186.8564-.14186.28547.07093.28547-.07093.8564.14186h.57093l.28547-.28372 2.2837-.07093.8564-.14186.8564.14186 1.1419-.07093.28547-.21279.8564-.07093.8564-.35465 1.1419-.21279.57093-.07093 1.4273-.28372.8564-.07093.28547-.14186h.28547l.28547-.28372h.28547l.57093-.7093.57093-.35465.28547-.21279 1.1419-.28372.28547-.35465.28547-.14186h.28547l.8564-.35465h.28547l.28547-.28372.57093-.07093.57093-.7093.57093-.35465 2.2837-1.7023.28547-.07093 1.1419-1.1349.28547.07093.57093-1.0639.57093-.42558.57093-.070929.28547-.49651h.28547l.57093-.28372.28547-.28372h.28547l.57093-.28372.28547-.42558.28547-.07093.57093-.35465.57093.07093.28547-.35465.57093-.21279 1.4273-.070929.28547.28372.57093.070929h.28547l.28547-.21279.8564-.14186 1.7128-.07093.57093-.07093.28547-.28372.8564-.070929.57093-.07093 5.7093-.07093.57093-.14186.28547.070929 1.7128-.49651.28547-.14186h.28547l.28547-.14186h.28547l.28547-.14186.8564.14186.57093-.07093h.57093l.57093-.21279.28547-.35465 1.1419-.49651h.57093l.57093-.28372.28547.07093.57093-.21279.28547.14186.28547-.14186.57093-.07093.57093-.42558.57093-.28372h.28547l.57093-.21279.28547.14186.57093-.21279.28547-.35465 1.4273-.63837.28547.07093.8564-.35465.28547.07093.28547-.21279h.28547l1.1419-.78023.28547-.14186 1.4273-1.3477h.28547l.28547-.28372.28547-.07093 1.4273-2.1988.57093-.07093 1.4273-1.2767.28547-.14186.28547-.28372.28547-.07093.57093-.49651.28547-.28372.8564-.21279.57093-.35465 1.7128-.35465.28547.070929.57093-.070929.8564.14186 1.4273-.07093.57093-.070929 1.4273-.07093.57093-.07093.57093.07093.8564.07093.8564.14186.28547-.14186.57093.070929 1.1419.21279.28547-.14186.28547.14186.57093-.07093.28547-.28372 1.1419-.28372.57093.14186 1.1419-.42558h.28547l.28547-.14186.57093-.07093 1.7128-.35465.28547.070929.28547-.14186h.28547l.8564-.7093h.28547l1.4273-.63837 1.4273-.35465.28547-.35465.57093.07093.8564-.7093.28547-.21279.28547.07093.28547-.07093.28547-.28372.57093.49651.57093.21279 1.4273-.35465.28547-.35465.28547-.070929.57093-.49651h.28547l.57093-.28372.28547.07093.28547-.35465.28547-.14186.57093-.56744.28547-.49651.57093-.49651.28547-.49651.28547-.14186.57093-.7093h.28547l.57093-.63837.28547.070929.57093-.42558.28547-.7093.28547-.07093.28547-.49651.28547-.07093.28547-.28372.28547-.56744.57093-.35465.57093-.07093.57093-.63837.57093-.07093.57093-.42558.28547-.42558.28547-.07093.28547-.21279.28547-.07093.8564-.85116.57093-.070929 1.1419.28372.28547-.21279.28547-.070929.8564.14186 1.7128-.07093 1.1419-.21279 1.9983-.07093.8564-.14186 1.9983-.07093 1.1419-.21279h.8564l.57093-.28372.28547.07093.28547-.07093.28547.07093.28547-.07093.57093.07093.57093-.07093.57093.07093.28547-.21279 1.1419-.28372.28547-.21279h.28547l.57093-.35465.57093-.21279.28547-.14186.57093.070929 1.4273-.35465.28547-.28372.57093-.14186.28547.07093.28547.28372.28547.07093.28547-.14186.28547.07093.8564-.63837.28547.14186.28547-.07093.57093-.42558.57093.07093h.28547l.28547-.28372.28547.07093.57093-.49651h.57093l.57093-.21279.28547.07093.28547-.07093.28547.07093 1.1419-.99302.57093-.35465.57093-.7093.28547-.070929.28547-.56744.28547.070929.28547-.42558.28547-.07093.28547-.42558.57093-.28372.57093-.63837h.28547l.28547-.49651.28547-.07093.57093-.56744.28547.14186 1.1419-.49651.57093.21279.57093-.21279 1.7128-.35465 1.1419-.07093 1.4273-.28372 1.1419-.14186 1.4273-.07093 1.7128-.35465h1.9983l.28547.14186h.57093l.57093.14186.28547-.14186h.57093l.28547-.14186.28547.070929 1.1419-.28372.57093.070929h.28547l.28547-.21279 2.5692-.07093.8564-.42558 1.4273-.07093.57093-.21279.28547.14186.28547-.21279.57093-.07093h.28547l.28547-.14186.8564.07093.57093.21279.57093-.070929.28547-.14186.57093.07093.28547-.14186.28547.07093 1.1419-.35465.57093-.42558.28547.21279.28547-.21279.28547-.07093.28547-.21279h.57093l.28547-.21279h.28547l.28547-.42558.28547.21279h.28547l.28547-.7093.8564-.49651.57093-.35465.28547-.14186.57093-1.0639.28547.14186.28547-.14186h.28547l1.1419-1.2058.28547.070929.57093-.49651.28547-.49651.28547.14186.28547-.21279.28547-.07093.28547-.21279.28547-.07093.28547-.35465.57093.07093.28547-.14186.28547-.28372.28547-.07093.28547-.35465.28547-.14186.28547.07093 1.9983-.92209 1.4273-.07093.8564-.14186h.8564l.28547-.14186 1.7128-.07093 1.1419-.28372.57093.07093h.28547l.28547-.14186 1.1419.070929.8564.14186 1.1419-.21279 1.1419-.14186 1.4273-.07093 1.1419-.21279.8564.07093 1.1419.21279h.28547l.28547-.21279.28547-.07093.8564-.7093h2.5692l.28547-.14186.28547.070929.57093-.14186.28547.07093.57093-.21279 1.1419-.21279.28547-.35465.57093-.21279.28547.070929.28547.21279h.28547l.28547-.21279.28547-.35465.28547-.07093.28547-.21279.28547-.07093.28547.14186.8564-.49651.28547-.21279h.28547l1.1419-1.1349.57093-.14186.8564-.99302.28547-.35465.8564-.49651.57093-.7093.28547-.14186.28547-.56744.28547-.21279.8564-.28372.28547.14186.28547-.28372.57093-.21279.28547-.21279.28547.14186.28547-.28372h.28547l.28547-.14186.8564-.92209 1.4273.07093.28547-.21279 1.1419-.07093.8564-.14186.8564.14186 2.2837-.07093.8564-.14186h3.7111l.28547-.28372 1.4273-.07093 1.4273-.28372 1.9983-.07093.57093-.21279.28547.070929 1.1419-.14186 1.4273-.42558.28547-.14186.28547-.35465.57093-.21279.28547-.21279 1.1419-.35465.28547.14186h.28547l.28547-.21279h.57093l.57093-.35465.28547.07093.28547-.14186.28547.14186 1.1419-.49651.28547.07093 1.9983-.56744.28547.14186.57093-.14186.28547-.21279.57093-.07093.28547.07093.57093-.21279 1.1419-.49651.28547-.07093.28547-.42558.28547-.21279.28547-.35465.57093-.21279.28547-.14186.28547-.35465.28547.070929.28547-.070929.57093-.35465.28547-.42558.57093-.35465.28547-.56744 1.1419-.49651.28547-.42558.28547-.14186.28547-.56744.8564-.63837.28547-.35465.57093-.07093.28547.21279.57093-.21279.28547-.21279h.28547l.28547.14186 1.1419-.35465.8564-.42558.28547.070929 1.1419-.21279 1.9983-.07093.57093-.070929 3.4256.070929.28547.14186 1.1419-.14186 2.8547.07093 1.7128.21279.8564-.28372.57093-.21279 1.1419-.21279.57093.14186.28547-.07093.28547.14186.28547-.070929.28547-.21279.28547.21279h.8564l.28547-.21279.28547.07093.57093-.35465.28547.14186.28547-.28372.28547.21279 1.4273-.07093m1.1419 0 .8564-.14186.57093-.35465.28547-.35465.57093-.07093h.28547l.57093-.42558.57093.14186.57093-.35465.28547.14186.28547-.35465.28547.21279.28547-.07093.8564-1.0639.28547-.07093.28547-.28372.28547.070929.28547-.14186.28547-.63837 1.4273-1.5605.28547-.42558.28547-.070929.8564-.7093.28547-.21279.28547-.42558h.28547l.28547-.63837.57093-.63837h.57093l.28547-.14186.28547-.28372.28547.070929.28547-.070929.57093-.35465h.28547l.57093-.35465.8564-.49651.28547-.21279 1.4273-.070929.28547-.14186.8564-.07093 1.1419-.21279.57093.14186 1.1419-.21279.28547.14186 2.2837.07093v0" clip-path="url(#d)" fill="none" stroke="#28f" stroke-linecap="square" stroke-width="1.5"/>
   </g>
   <g id="gf">
    <path d="m52 523.06v-232.9" fill="none" stroke="#000" stroke-linecap="square" stroke-width=".8"/>
   </g>
   <g id="gg">
    <path d="m853.2 523.06v-232.9" fill="none" stroke="#000" stroke-linecap="square" stroke-width=".8"/>
   </g>
   <g id="gh">
    <path d="m52 523.06h801.2" fill="none" stroke="#000" stroke-linecap="square" stroke-width=".8"/>
   </g>
   <g id="gi">
    <path d="m52 290.16h801.2" fill="none" stroke="#000" stroke-linecap="square" stroke-width=".8"/>
   </g>
   <g id="gj">
    <!-- サーバー数の推移 -->
    <g transform="translate(404.6 284.16) scale(.12 -.12)">
     <defs>
      <path id="z" transform="scale(.015625)" d="m4685 2893q0-621-84-1111-83-489-288-877-204-387-569-691t-928-560l-544 512q448 167 781 371 333 205 550 503 218 298 323 739 106 442 106 1075v1620q0 192-10 339-9 147-22 217h723q-6-70-22-217t-16-339v-1581zm-2304 2086q-7-64-23-199-16-134-16-313v-2317q0-128 6-256 7-128 13-224 7-96 13-140h-710q6 44 12 140 7 96 13 221 7 125 7 259v2317q0 122-10 256-9 135-28 256h723zm-1978-1197q45-12 144-22t237-20q138-9 285-9h4217q237 0 394 13t246 26v-679q-76 7-240 13-163 6-393 6h-4224q-147 0-282-3-134-3-234-10-99-6-150-12v697z"/>
      <path id="s" transform="scale(.015625)" d="m621 2854q109-6 265-16 157-9 339-16 183-6 349-6 128 0 352 0t509 0 598 0q314 0 624 0 311 0 586 0t486 0q212 0 327 0 230 0 416 16t301 22v-793q-109 6-308 19-198 13-409 13-109 0-324 0-214 0-489 0t-586 0q-310 0-624 0-313 0-598 0t-509 0-352 0q-262 0-525-10-262-9-428-22v793z"/>
      <path id="y" transform="scale(.015625)" d="m4941 5037q83-109 176-269t182-320q90-160 154-288l-416-179q-96 192-240 448t-272 435l416 173zm723 275q83-122 182-282 100-160 196-317 96-156 153-271l-416-186q-102 205-246 454-144 250-279 429l410 173zm-4339-3360q102 262 201 556 100 295 183 612t144 630q61 314 93 602l723-147q-19-83-45-183-26-99-48-195t-42-166q-32-154-86-394t-131-512-164-551q-86-278-182-514-115-301-269-618-153-317-326-618-173-300-346-550l-697 294q301 397 563 874t429 880zm3155 198q-96 250-215 531-118 282-243 567-124 285-246 534-122 250-224 429l659 218q96-179 221-429t253-535q128-284 249-566 122-281 218-525 90-230 195-518 106-288 211-592 106-304 195-589 90-285 154-515l-729-237q-84 352-199 736t-240 768-259 723z"/>
     </defs>
     <use xlink:href="#z"/>
     <use transform="translate(100)" xlink:href="#s"/>
     <use transform="translate(200)" xlink:href="#y"/>
     <use transform="translate(300)" xlink:href="#s"/>
     <use transform="translate(400)" xlink:href="#q"/>
     <use transform="translate(500)" xlink:href="#t"/>
     <use transform="translate(600)" xlink:href="#r"/>
     <use transform="translate(700)" xlink:href="#p"/>
    </g>
   </g>
  </g>
 </g>
 <defs>
  <clipPath id="c">
   <rect x="52" y="26.88" width="801.2" height="232.9"/>
  </clipPath>
  <clipPath id="d">
   <rect x="52" y="290.16" width="801.2" height="232.9"/>
  </clipPath>
 </defs>
</svg>
