<!DOCTYPE svg  PUBLIC '-//W3C//DTD SVG 1.1//EN'  'http://www.w3.org/Graphics/SVG/1.1/DTD/svg11.dtd'>
<svg version="1.1" viewBox="0 0 864 576" xmlns="http://www.w3.org/2000/svg" xmlns:xlink="http://www.w3.org/1999/xlink">
 <defs>
  <style type="text/css">*{stroke-linejoin: round; stroke-linecap: butt}</style>
 </defs>
 <g id="aa">
  <g id="ab">
   <path d="m0 576h864v-576h-864z" fill="#fff"/>
  </g>
  <g id="ac">
   <g id="ad">
    <path d="m52 259.78h801.2v-232.9h-801.2z" fill="#fff"/>
   </g>
   <g id="ae">
    <path d="m136.62 259.78h.8659v-232.9h-.8659z" clip-path="url(#c)" fill="#808080" opacity=".3" stroke="#808080"/>
   </g>
   <g id="af">
    <path d="m455.41 259.78h.57727v-232.9h-.57727z" clip-path="url(#c)" fill="#808080" opacity=".3" stroke="#808080"/>
   </g>
   <g id="ag">
    <path d="m798.89 259.78h1.1545v-232.9h-1.1545z" clip-path="url(#c)" fill="#808080" opacity=".3" stroke="#808080"/>
   </g>
   <g id="ah">
    <g id="ai">
     <g id="aj">
      <path d="m105.88 259.78v-232.9" clip-path="url(#c)" fill="none" stroke="#b0b0b0" stroke-linecap="square" stroke-opacity=".3" stroke-width=".8"/>
     </g>
     <g id="ak">
      <defs>
       <path id="e" d="m0 0v3.5" stroke="#000" stroke-width=".8"/>
      </defs>
      <use x="105.876211" y="259.777732" stroke="#000000" stroke-width=".8" xlink:href="#e"/>
     </g>
    </g>
    <g id="al">
     <g id="am">
      <path d="m189 259.78v-232.9" clip-path="url(#c)" fill="none" stroke="#b0b0b0" stroke-linecap="square" stroke-opacity=".3" stroke-width=".8"/>
     </g>
     <g id="an">
      <use x="189.002811" y="259.777732" stroke="#000000" stroke-width=".8" xlink:href="#e"/>
     </g>
    </g>
    <g id="ao">
     <g id="ap">
      <path d="m272.13 259.78v-232.9" clip-path="url(#c)" fill="none" stroke="#b0b0b0" stroke-linecap="square" stroke-opacity=".3" stroke-width=".8"/>
     </g>
     <g id="aq">
      <use x="272.12941" y="259.777732" stroke="#000000" stroke-width=".8" xlink:href="#e"/>
     </g>
    </g>
    <g id="ar">
     <g id="as">
      <path d="m355.26 259.78v-232.9" clip-path="url(#c)" fill="none" stroke="#b0b0b0" stroke-linecap="square" stroke-opacity=".3" stroke-width=".8"/>
     </g>
     <g id="at">
      <use x="355.25601" y="259.777732" stroke="#000000" stroke-width=".8" xlink:href="#e"/>
     </g>
    </g>
    <g id="au">
     <g id="av">
      <path d="m438.38 259.78v-232.9" clip-path="url(#c)" fill="none" stroke="#b0b0b0" stroke-linecap="square" stroke-opacity=".3" stroke-width=".8"/>
     </g>
     <g id="aw">
      <use x="438.382609" y="259.777732" stroke="#000000" stroke-width=".8" xlink:href="#e"/>
     </g>
    </g>
    <g id="ax">
     <g id="ay">
      <path d="m521.51 259.78v-232.9" clip-path="url(#c)" fill="none" stroke="#b0b0b0" stroke-linecap="square" stroke-opacity=".3" stroke-width=".8"/>
     </g>
     <g id="az">
      <use x="521.509209" y="259.777732" stroke="#000000" stroke-width=".8" xlink:href="#e"/>
     </g>
    </g>
    <g id="ba">
     <g id="bb">
      <path d="m604.64 259.78v-232.9" clip-path="url(#c)" fill="none" stroke="#b0b0b0" stroke-linecap="square" stroke-opacity=".3" stroke-width=".8"/>
     </g>
     <g id="bc">
      <use x="604.635809" y="259.777732" stroke="#000000" stroke-width=".8" xlink:href="#e"/>
     </g>
    </g>
    <g id="bd">
     <g id="be">
      <path d="m687.76 259.78v-232.9" clip-path="url(#c)" fill="none" stroke="#b0b0b0" stroke-linecap="square" stroke-opacity=".3" stroke-width=".8"/>
     </g>
     <g id="bf">
      <use x="687.762408" y="259.777732" stroke="#000000" stroke-width=".8" xlink:href="#e"/>
     </g>
    </g>
    <g id="bg">
     <g id="bh">
      <path d="m770.89 259.78v-232.9" clip-path="url(#c)" fill="none" stroke="#b0b0b0" stroke-linecap="square" stroke-opacity=".3" stroke-width=".8"/>
     </g>
     <g id="bi">
      <use x="770.889008" y="259.777732" stroke="#000000" stroke-width=".8" xlink:href="#e"/>
     </g>
    </g>
   </g>
   <g id="bj">
    <g id="bk">
     <g id="bl">
      <path d="m52 246.93h801.2" clip-path="url(#c)" fill="none" stroke="#b0b0b0" stroke-linecap="square" stroke-opacity=".3" stroke-width=".8"/>
     </g>
     <g id="bm">
      <defs>
       <path id="h" d="m0 0h-3.5" stroke="#000" stroke-width=".8"/>
      </defs>
      <use x="52" y="246.926099" stroke="#000000" stroke-width=".8" xlink:href="#h"/>
     </g>
     <g id="bn">
      <!-- 300 -->
      <g transform="translate(27.9 250.91) scale(.1 -.1)">
       <defs>
        <path id="n" transform="scale(.015625)" d="m1715-90q-371 0-656 90t-503 240q-217 150-377 323l359 474q211-205 479-359 269-153 634-153 269 0 467 92 199 93 311 266t112 423q0 256-125 451t-429 300q-304 106-835 106v551q467 0 732 105 266 106 384 291 119 186 119 423 0 307-192 489-192 183-531 183-269 0-503-119-233-118-438-316l-384 460q282 256 614 413 333 157 737 157 422 0 748-144 327-144 512-413 186-269 186-659 0-403-221-685-221-281-592-422v-26q269-70 490-227t349-400 128-557q0-422-215-726-214-304-573-468-358-163-787-163z"/>
        <path id="a" transform="scale(.015625)" d="m1830-90q-460 0-806 275-346 276-535 823-188 547-188 1366 0 820 188 1357 189 538 535 803 346 266 806 266 461 0 800-269 340-269 528-803 189-534 189-1354 0-819-189-1366-188-547-528-823-339-275-800-275zm0 589q237 0 422 185 186 186 288 599 103 413 103 1091 0 679-103 1082-102 403-288 582-185 180-422 180-236 0-422-180-186-179-292-582-105-403-105-1082 0-678 105-1091 106-413 292-599 186-185 422-185z"/>
       </defs>
       <use xlink:href="#n"/>
       <use transform="translate(57)" xlink:href="#a"/>
       <use transform="translate(114)" xlink:href="#a"/>
      </g>
     </g>
    </g>
    <g id="bo">
     <g id="bp">
      <path d="m52 220.79h801.2" clip-path="url(#c)" fill="none" stroke="#b0b0b0" stroke-linecap="square" stroke-opacity=".3" stroke-width=".8"/>
     </g>
     <g id="bq">
      <use x="52" y="220.787184" stroke="#000000" stroke-width=".8" xlink:href="#h"/>
     </g>
     <g id="br">
      <!-- 600 -->
      <g transform="translate(27.9 224.77) scale(.1 -.1)">
       <defs>
        <path id="k" transform="scale(.015625)" d="m1971-90q-339 0-634 144-294 144-518 435-224 292-352 733-128 442-128 1044 0 678 147 1161 148 483 397 784 250 301 570 445t665 144q397 0 688-147 292-147 490-359l-403-448q-128 154-327 253-198 99-409 99-307 0-567-182-259-182-413-605-153-422-153-1145 0-608 115-1002t326-589q212-195 493-195 212 0 375 121 163 122 259 343t96 522q0 300-90 511-89 212-259 320-169 109-419 109-211 0-451-134t-458-461l-25 538q134 192 313 323t374 201q196 71 375 71 397 0 694-163 298-163 467-490 170-326 170-825 0-468-195-817-195-348-512-544-317-195-701-195z"/>
       </defs>
       <use xlink:href="#k"/>
       <use transform="translate(57)" xlink:href="#a"/>
       <use transform="translate(114)" xlink:href="#a"/>
      </g>
     </g>
    </g>
    <g id="bs">
     <g id="bt">
      <path d="m52 194.65h801.2" clip-path="url(#c)" fill="none" stroke="#b0b0b0" stroke-linecap="square" stroke-opacity=".3" stroke-width=".8"/>
     </g>
     <g id="bu">
      <use x="52" y="194.648269" stroke="#000000" stroke-width=".8" xlink:href="#h"/>
     </g>
     <g id="bv">
      <!-- 900 -->
      <g transform="translate(27.9 198.63) scale(.1 -.1)">
       <defs>
        <path id="r" transform="scale(.015625)" d="m1562-90q-410 0-708 150-297 151-502 356l403 461q141-160 346-256t422-96q224 0 425 102 202 103 352 333 151 230 237 614 87 384 87 941 0 589-115 970t-323 563-496 182q-205 0-372-118-166-118-262-336t-96-525q0-301 86-512 87-211 259-323 173-112 417-112 224 0 460 141 237 141 448 461l32-544q-134-180-313-314t-371-208-384-74q-391 0-689 166-297 167-467 496-169 330-169 823 0 467 195 816t515 541 698 192q339 0 636-138 298-137 519-419 221-281 349-710t128-1018q0-691-141-1187t-391-807q-249-310-563-461-313-150-652-150z"/>
       </defs>
       <use xlink:href="#r"/>
       <use transform="translate(57)" xlink:href="#a"/>
       <use transform="translate(114)" xlink:href="#a"/>
      </g>
     </g>
    </g>
    <g id="bw">
     <g id="bx">
      <path d="m52 168.51h801.2" clip-path="url(#c)" fill="none" stroke="#b0b0b0" stroke-linecap="square" stroke-opacity=".3" stroke-width=".8"/>
     </g>
     <g id="by">
      <use x="52" y="168.509354" stroke="#000000" stroke-width=".8" xlink:href="#h"/>
     </g>
     <g id="bz">
      <!-- 1200 -->
      <g transform="translate(22.2 172.49) scale(.1 -.1)">
       <defs>
        <path id="f" transform="scale(.015625)" d="m544 0v608h1037v3277h-845v467q333 58 579 147 247 90 451 218h557v-4109h915v-608h-2694z"/>
        <path id="b" transform="scale(.015625)" d="m282 0v429q697 621 1164 1136 468 515 701 956 234 442 234 826 0 256-87 451-86 196-262 301-176 106-445 106-275 0-506-151-230-150-422-368l-416 410q301 333 637 518 336 186 803 186 429 0 749-176t496-493 176-745q0-455-224-919t-615-935q-390-470-889-950 186 20 394 36t374 16h1184v-634h-3046z"/>
       </defs>
       <use xlink:href="#f"/>
       <use transform="translate(57)" xlink:href="#b"/>
       <use transform="translate(114)" xlink:href="#a"/>
       <use transform="translate(171)" xlink:href="#a"/>
      </g>
     </g>
    </g>
    <g id="ca">
     <g id="cb">
      <path d="m52 142.37h801.2" clip-path="url(#c)" fill="none" stroke="#b0b0b0" stroke-linecap="square" stroke-opacity=".3" stroke-width=".8"/>
     </g>
     <g id="cc">
      <use x="52" y="142.370439" stroke="#000000" stroke-width=".8" xlink:href="#h"/>
     </g>
     <g id="cd">
      <!-- 1500 -->
      <g transform="translate(22.2 146.36) scale(.1 -.1)">
       <defs>
        <path id="j" transform="scale(.015625)" d="m1715-90q-365 0-653 90t-506 237q-217 147-383 307l352 480q134-134 294-246t361-183q202-70 452-70 262 0 473 118 212 119 333 346 122 227 122 541 0 460-247 716-246 256-649 256-224 0-384-64t-365-198l-365 237 141 2240h2387v-627h-1747l-109-1204q154 77 307 118 154 42 340 42 397 0 723-160t518-490q192-329 192-847 0-519-224-887t-586-560q-361-192-777-192z"/>
       </defs>
       <use xlink:href="#f"/>
       <use transform="translate(57)" xlink:href="#j"/>
       <use transform="translate(114)" xlink:href="#a"/>
       <use transform="translate(171)" xlink:href="#a"/>
      </g>
     </g>
    </g>
    <g id="ce">
     <g id="cf">
      <path d="m52 116.23h801.2" clip-path="url(#c)" fill="none" stroke="#b0b0b0" stroke-linecap="square" stroke-opacity=".3" stroke-width=".8"/>
     </g>
     <g id="cg">
      <use x="52" y="116.231524" stroke="#000000" stroke-width=".8" xlink:href="#h"/>
     </g>
     <g id="ch">
      <!-- 1800 -->
      <g transform="translate(22.2 120.22) scale(.1 -.1)">
       <defs>
        <path id="l" transform="scale(.015625)" d="m1830-90q-441 0-787 163-345 164-547 448-202 285-202 650 0 314 122 557t314 419 403 291v32q-256 186-442 458-185 272-185 643 0 365 176 640t480 425q304 151 694 151 410 0 704-160t457-439q164-278 164-649 0-237-96-448t-234-381q-137-169-291-278v-32q218-115 397-285 179-169 288-406t109-557q0-346-189-628-189-281-532-448-342-166-803-166zm314 2708q205 198 310 419 106 221 106 464 0 211-83 384t-247 272q-163 99-393 99-288 0-480-183-192-182-192-502 0-256 134-429 135-172 359-294t486-230zm-294-2170q236 0 418 89 183 90 285 253 103 164 103 388 0 211-90 367-89 157-246 272-157 116-368 215t-454 195q-244-173-398-426-153-252-153-553 0-237 118-416 119-179 324-282 205-102 461-102z"/>
       </defs>
       <use xlink:href="#f"/>
       <use transform="translate(57)" xlink:href="#l"/>
       <use transform="translate(114)" xlink:href="#a"/>
       <use transform="translate(171)" xlink:href="#a"/>
      </g>
     </g>
    </g>
    <g id="ci">
     <g id="cj">
      <path d="m52 90.093h801.2" clip-path="url(#c)" fill="none" stroke="#b0b0b0" stroke-linecap="square" stroke-opacity=".3" stroke-width=".8"/>
     </g>
     <g id="ck">
      <use x="52" y="90.092609" stroke="#000000" stroke-width=".8" xlink:href="#h"/>
     </g>
     <g id="cl">
      <!-- 2100 -->
      <g transform="translate(22.2 94.078) scale(.1 -.1)">
       <use xlink:href="#b"/>
       <use transform="translate(57)" xlink:href="#f"/>
       <use transform="translate(114)" xlink:href="#a"/>
       <use transform="translate(171)" xlink:href="#a"/>
      </g>
     </g>
    </g>
    <g id="cm">
     <g id="cn">
      <path d="m52 63.954h801.2" clip-path="url(#c)" fill="none" stroke="#b0b0b0" stroke-linecap="square" stroke-opacity=".3" stroke-width=".8"/>
     </g>
     <g id="co">
      <use x="52" y="63.953694" stroke="#000000" stroke-width=".8" xlink:href="#h"/>
     </g>
     <g id="cp">
      <!-- 2400 -->
      <g transform="translate(22.2 67.939) scale(.1 -.1)">
       <defs>
        <path id="m" transform="scale(.015625)" d="m2170 0v3072q0 192 12 457 13 266 20 458h-26q-90-179-183-365-92-185-195-364l-921-1415h2579v-576h-3328v493l1875 2957h858v-4717h-691z"/>
       </defs>
       <use xlink:href="#b"/>
       <use transform="translate(57)" xlink:href="#m"/>
       <use transform="translate(114)" xlink:href="#a"/>
       <use transform="translate(171)" xlink:href="#a"/>
      </g>
     </g>
    </g>
    <g id="cq">
     <g id="cr">
      <path d="m52 37.815h801.2" clip-path="url(#c)" fill="none" stroke="#b0b0b0" stroke-linecap="square" stroke-opacity=".3" stroke-width=".8"/>
     </g>
     <g id="cs">
      <use x="52" y="37.814779" stroke="#000000" stroke-width=".8" xlink:href="#h"/>
     </g>
     <g id="ct">
      <!-- 2700 -->
      <g transform="translate(22.2 41.8) scale(.1 -.1)">
       <defs>
        <path id="i" transform="scale(.015625)" d="m1235 0q32 646 109 1187t224 1024 384 941 576 938h-2208v627h3027v-455q-409-512-665-989-256-476-397-969t-205-1053-90-1251h-755z"/>
       </defs>
       <use xlink:href="#b"/>
       <use transform="translate(57)" xlink:href="#i"/>
       <use transform="translate(114)" xlink:href="#a"/>
       <use transform="translate(171)" xlink:href="#a"/>
      </g>
     </g>
    </g>
   </g>
   <g id="cu">
    <path d="m88.418 222.44.082261.17426.072639-.34852.30018.34852.15298-.08713.40842-.8713.86638-3.2238.88082-5.1407.43103-1.3069.43391-.17426.40794-1.6555.43295-1.2198.43295-2.0911.43295-2.7882.43295-.60991.43295-3.2238.43295-2.3525 1.2989-9.2357.8659-4.3565.43295-1.3941.43295-.78417.43295-2.004.43295-5.3149 1.2989-24.309 1.7318-43.826.43295-8.5387.8659-28.666.43295-5.3149.43295-2.3525.43295-.78417.43295 2.6139.43295 1.5683 2.1648 43.565.43295 12.46 2.5977 52.801.8659 12.198 1.7318 19.604.43295 2.701.43295 3.9208.43295 2.7882.43295 3.6594.43295 1.9169.43295 3.2238 1.2989 6.5347.43295 2.4396.43295 1.5683.43295 3.4852.43295 1.1327.43295 1.7426.8659 1.6555.43295 1.1327.43295.26139.43295 1.3069.43295.52278.8659.26139.8659-.43565 1.2989-2.8753.43295-.26139.43295-.95843.43295-.43565.8659-3.3981.8659-3.9208.43295.26139.43295-.17426.43295-2.7882.43295-1.5683.43295-.78417.8659-2.7882.43295-3.1367.43295-1.7426.43295-.60991 1.2989-4.2694.43295-3.9208.43295-2.4396.43295-3.6594 1.2989-7.8417.43295-1.3941m.8659 19.517.43295-12.285.43295-2.3525.43295-1.3941 1.2989-13.418.43295-6.012.8659-18.21.8659-22.654.43295-16.293 1.2989-31.105.8659-14.725.43295-3.7466.43295.43565.43295-1.2198.43295 1.7426.8659 8.8001.8659 21.173.43295 6.9704 1.2989 28.404.8659 14.725.8659 16.555.8659 12.111.8659 10.891 2.1648 21.608 2.5977 12.808.8659 5.7506.8659 3.1367.43295.43565.43295.8713.43295 1.3069.43295.60991 1.2989 4.5307.43295-.43565.43295.34852h.43295l.43295.52278.43295-1.3069.43295.17426.43295-.34852.43295-.52278.43295-.26139.43295-.60991.43295.08713.43295-.52278.43295-2.0911.43295-1.4812.43295-.8713 1.7318-6.2733.43295-1.0456.43295-2.2654.43295-1.2198.43295-2.701.43295-1.0456.43295-3.2238.43295-1.6555.43295-3.3109.43295-.95843.8659-2.701.43295-2.2654.43295-1.3941.8659-6.012.43295-1.8297.43295-.43565.43295-3.1367.43295-1.1327.43295-2.3525 1.2989-4.5307 1.2989-18.733 1.2989-27.62.43295-13.766 1.7318-36.856.8659-12.111.8659-4.4436.43295 1.0456.43295 3.7466.8659 17.6 1.2989 28.23.8659 19.43 1.2989 21.521.8659 11.763 1.7318 23.961 1.2989 13.418 1.7318 12.547 3.0307 14.115.43295 1.1327.43295.69704.43295 1.1327.43295.60991h.43295l.57727.26139.57727.8713.14432-.08713.28863-.52278.28863.43565.14432-.08713.28863.26139.28863-.60991.14432-.52278.14432.17426.28863-.95843h.14432l.14432.17426.14432-.17426.14432.087129.14432-.43565.14432.34852.43295-1.2198.14432.17426.14432-.08713.14432-.43565.14432.08713.28863-.78417.14432-.17426.28863-.8713.14432-.08713.28863-.52278.14432-.08713.28864-1.3941.14432.08713.28863-.43565.14432.08713.57727-1.2198.43295-2.701h.14432l.57727-2.3525.14432-.8713.14432-.17426.14432-.52278h.14432l.72158-2.8753.28863-.95843.14432-.52278.14432-1.0456.14432-.087129 1.0102-5.5763.43295-1.2198.28863-.69704.14432.17426.28863-2.0911.14432-.34852.28863-1.3941.14432-.34852.28863-2.004.28863-1.3069.14432-.17426.14432-.43565.28863-1.7426.14432-.087129.14432.17426.14432-.08713.28863-1.3941.43295-1.4812.14432-1.6555.14432.26139 1.2989-7.406h.14432l.14432-.17426.28863-1.2198.14432.69704.14432-1.0456.14432.26139 1.2989-10.281 1.0102-17.774.72158-18.907.28863-11.153.43295-8.1031 1.0102-22.741.28863-9.5843.43295-8.0159.43295-4.1822.14432-3.2238.14432-.52278.14432.43565.57727-2.8753.14432-.34852.14432-1.0456.14432-.087129.28863.8713 1.2989 22.915.28863 4.7921.14432.78417.57727 12.547.43295 9.5843.8659 15.683.43295 6.8832.57727 11.327 2.0204 31.192.43295 3.5723 2.0204 17.426.57727 3.7466.14432 1.3069.14432.26139.28863 1.2198 1.2989 7.3189.57727 4.3565.57727 2.4396.14432 1.6555.28864.43565.57727 2.9624.28863.69704.14432.17426.14432.60991.14432-.26139.28863.95843.14432.52278.14432.08713.57727 2.2654.43295.52278.14432-.08713.14432.43565.28863.08713.14432.26139.28863-.17426.14432.43565.14432-.34852.43295.34852.28863-.60991.14432-.43565.28863.17426.28863-.43565.57727-1.5683.28863-.69704.28863.26139.28863-.26139.57727-.95843.28863.43565.28863-1.2198.57727-3.2238.28863-1.3941.28863-.26139.28863-.95843.57727-.34852.57727-2.0911.28863-.08713.57727-3.3109.28863-.26139.28863-.78417h.28863l.28863-1.1327.28863-2.1782.8659-3.2238.57727-2.9624.28863-2.2654.28863-.52278.57727-2.0911.57727-3.7466.28863.087129.57727-1.4812.57727-4.008.8659-5.8377.28863-1.1327.28863-1.7426h.28863l.57727-3.1367.28863-.69704 1.4432-5.7506.8659-11.24.8659-17.426 2.3091-66.219.57727-11.763.57727-9.9328.57727-7.7545.8659-5.5763h.28863l.28863 1.1327.28863 1.7426.8659 7.406.8659 16.206.28863-3.1367.57727 14.376.57727 10.63 1.4432 28.84 1.1545 21.957.57727 11.414 2.0204 30.408.8659 7.5803.8659 6.0991.28863 2.8753.57727 2.9624.28863 2.5268.28863 1.1327.57727 3.8337.28863.8713.28863-.17426.28863.087129.28863.43565.28863 1.0456.28863.60991.28864 1.3069.28863-1.1327.28863-.43565.28863.60991.28863-.26139.28863.69704.28863-.34852.57727.26139.57727-2.2654.57727.087129.28863-1.5683.28863-.8713.28863-1.3941.28863.34852.28863-1.3069.28863-.60991 1.7318-6.5347.57727-3.6594.57727-2.1782.57727-5.0535.28863-3.7466.28863-2.2654.28863-.8713 1.4432-11.153.28863-1.3941.57727-3.5723.28863-.43565.28863-2.4396.57727-2.4396.28863-1.7426.28863-.60991.28863.34852.28863-.69704.28863-1.6555.28863-.78417.57727-2.1782.28863-.34852.28863.26139.28863-.26139.28863.69704.28863 2.2654.28863-.08713.28863.17426.28863-.34852.28863-.60991.28863.69704.28863-.08713.28863-.26139.28863-1.3941h.57727l.28863-2.8753 1.1545-17.339.8659-20.737.28863-12.198 1.1545-25.703.8659-20.388.57727-9.9328.28863-7.1446.28863-3.3109.28863-.60991.57727-4.0951.28863-.34852.28863.52278.28863 1.4812.28863.52278.28863 3.5723.57727 2.9624.57727 7.0575.57727 12.634.57727 7.0575.57727 11.065.57727 15.248 2.5977 48.27 1.1545 20.214 1.4432 19.43.28863 3.0495.8659 5.5763.8659 7.3189 1.1545 8.0159 1.1545 4.6179.28863.60991.28863 2.004.28863-.087129.28863.52278.57727 1.3941.28863.26139.28863.52278.57727-.34852.57727-1.0456.28863-1.3069.57727.087129.28863-1.1327.28863-1.6555.57727-1.1327.28863.17426.28863-2.004.28863-1.0456.28863-1.9169.28863-.34852.28863-2.6139.28863-1.0456.28863-.34852.8659-3.0495.28863-3.3109.57727-9.1486.28863-2.4396 1.1545-13.941.8659-5.9248.8659-2.6139.28863-1.3941.28863-3.0495.8659-5.1407.57727-3.7466.28863-.43565.28863-1.2198h.28863l.28863-1.2198.28863.78417.28863-1.7426.28863.34852.28863.78417.28863 1.2198.8659 1.7426.28863-.26139.28863 2.6139.8659 2.6139.28863.17426.28863 1.1327.28863-.43565.28863-1.2198 1.1545-14.464.8659-18.994.57727-13.069 1.7318-33.893 1.1545-10.368.28863 1.9169.28863.78417.28863.26139.28863 1.1327.57727 5.402.8659 20.388.28863 4.3565 1.1545 26.139.28863 2.9624.28863 6.7961.28863 3.6594.8659 18.036 1.1545 18.297.57727 9.0615.28863 3.5723.28863 1.2198.8659 10.456 1.1545 7.5803.28863 1.4812 1.1545 9.8457.28863 1.3941.57727 1.4812.28863 2.6139.28863 1.2198.57727 3.1367 2.3091 7.5803.28863-.17426.28863.69704.28863.26139.28863.52278.28863.08713.28863-.08713.28863-.43565.28863-.08713.28863.43565.28863-.60991.28863-.08713.28863-.26139.28863.17426.28863.43565h.28864l.57727-.8713.28863.43565.28863-.78417.28863-.08713.28863-1.0456.28863.17426.28863-.08713.28863-1.5683.28863-.69704.28863-1.3941.57727-1.0456.57727-1.6555.57727-4.2694.28863-.34852.8659-3.6594.28863-.52278.8659-3.1367.28863-.78417.28863-.087129.57727-2.2654.28863-.52278.28863-1.2198.28863-1.8297.57727-1.9169.28863-2.8753.8659-2.6139.28863-.34852.28863-1.0456.28863-.08713 2.0204-11.065.28863-.78417.28863-.17426.8659-4.9664.57727-6.3605.28863-4.008.8659-15.248.57727-10.107 1.7318-42.258.57727-9.9328.28863-7.406.57727-6.2733.57727-5.6634.8659-2.4396.28863 1.3941.28863 2.004.57727 8.2773.28863 8.1902.57727 9.6714 2.0204 43.826.28863 4.008.57727 10.804.57727 7.5803.57727 8.4516 2.3091 24.832.8659 5.4892 1.1545 6.709.57727 2.701.28863.69704 2.8863 12.721h.28863l.28863.43565.28863 1.4812.28863-.26139.28863.95843.28863.08713.28863 1.3941.57727.34852.28863.34852.57727.34852.8659-.52278.28863-.78417.28863-.26139.28863-.69704.57727.34852.28863-.17426.28863.26139.57727.08713.28864-.08713.28863.60991.28863-.34852.8659-3.8337.57727-1.2198.57727-1.6555.28863-1.2198.28863-.43565.8659-2.7882.28863-2.6139.57727-2.8753.28863-.95843.28863-1.3941.57727-1.6555.8659-4.0951.28863-1.5683.28863-.26139h.28863l.28863-.69704.28863-1.2198.28863-1.8297.28863-.95843.57727-2.7882.28863-2.004.28863-.69704.57727-2.701.28864.17426.57727-3.3981.28863-1.4812.57727-4.008h.28863l.57727-2.6139.28863-2.0911.28863-.60991.28863-2.0911.57727-11.763.57727-10.368.28863-6.2733 1.4432-42.345.57727-11.588.28863-8.6258.57727-6.6219.28863-2.4396.57727-6.1862.28863-.17426.57727-1.3069.28863 1.2198.28863 2.5268.8659 13.854.28864 3.5723 2.3091 49.315.28863 3.2238 1.4432 26.139 1.4432 17.687.8659 10.281.28863 1.8297.8659 7.0575.28863 1.3941 1.1545 8.3645.28863 1.1327.8659 5.2278 1.1545 3.6594.28863 1.7426.8659 2.3525.57727.95843.28863 1.0456.28863.60991.28863 1.3941.28863.78417.28863.34852.28863.69704.28863-.26139.28863.17426.28863-.34852.28863-.17426.28863-.52278m.57727 2.4396.28863 1.3941.28863-.08713.28863.26139.57727-1.5683.28863-.08713.28863-.52278.28863.17426.28863-.8713.28863.087129.57727-2.5268.28863-.78417h.28863l.28863-.8713.28863-2.0911.28864-.26139.28863-.95843.28863-1.4812.28863-.34852 1.1545-4.8793.57727-2.9624.28863-1.0456.28863.17426.28863-1.1327.28863-2.6139.8659-4.4436.28863-2.5268.28863-1.4812.28863-2.1782.57727-2.2654.57727-2.5268.28863-.34852.28863-.69704.28863-1.1327.28863.087129.57727-2.7882.28863.08713.57727-5.3149.57727-4.0951.57727.17426.28863-2.4396.28864-1.3069.28863-3.3981.28863-1.6555.28863-2.5268 1.4432-22.305.28863-5.7506.8659-23.961 1.7318-42.084 1.1545-15.858.28863-.52278.57727.78417.28863 1.8297.57727 5.8377.28863 5.2278.8659 19.778.57727 11.153.8659 21.957.28864 5.3149.28863 2.9624 2.8863 47.311 1.1545 9.2358.28863 2.1782.57727 4.9664.57727 4.1822 1.1545 7.5803.28863.69704.8659 4.8793.28863.60991 1.1545 6.3605.8659 2.8753.28864.60991.28863.8713.57727.8713.57727 2.2654.28863 1.3941.28863.69704.57727.60991.28863-.43565.28863-.78417.28863-.34852.28863.52278.28863-.8713.28863.087129.28863.69704.28863-.52278.28863.43565.8659-1.4812.8659-2.5268.28863-.52278.57727-2.1782.28863-.69704.57727-2.7882.28863.26139.28863-1.5683.28863-.52278.8659-3.1367.28863-.52278.57727-2.004.28863-2.0911.28863-.43565 1.1545-5.1407.28863-.78417.28863-1.3941.28863-.78417.57727-2.7882.57727-2.004.57727-2.3525.57727-2.0911.28863-2.4396.28863-.34852.28863-1.2198.28863-2.701.8659-3.6594.28863-.43565.28863-.17426.28863-1.1327.28863-2.6139.57727-6.709.57727-5.4892.8659-16.99 1.7318-33.196.28863-7.5803.28863-4.5307 1.1545-29.188.57727-11.24.28863-4.8793.28863-2.7882.28863-.34852.28863-5.1407.28863-2.1782.28863-.08713.57727 2.3525.28863 5.0535.57727 15.248.57727 11.414 1.4432 35.462 1.1545 23.089 1.4432 22.915 1.1545 15.858.8659 9.1486.57727 6.8832.8659 5.9248.57727 2.7882.8659 5.4892 2.3091 12.198.28863-.08713.57727 2.4396.57727 1.4812.28863.34852.28863 1.0456.28863-.17426 1.4432 2.7882.28863-.17426.28863.52278.8659-.17426.57727-.78417.57727-.34852.28863-1.2198.28863-.17426h.28863l.28863-.43565.28863.52278.28863.08713.28863-.52278.57727-2.4396.57727-2.7882 2.0204-7.4932h.28863l.57727-1.7426.28863-1.6555.28863-.43565.57727-3.8337.28863.087129.28864-.69704.28863-.34852.28863-1.3069.28863-.08713 1.1545-8.4516.28863-1.4812.28863-.8713.28863-.43565.57727-2.4396.28863-.34852.28863-.95843.28863-2.7882.8659-4.0951.57727-2.5268.28863-.08713.28863-.26139.57727-2.7882.28863-2.004 1.1545-13.244 1.4432-27.62.57727-17.426 2.3091-58.028.28863-5.3149.57727-5.4892.28863-3.8337.28863-.69704.28863-2.7882.28863 2.5268.28863-.17426.8659 9.4971.28863 1.6555.57727 9.1486 4.3295 88.262 2.0204 28.143.57727 5.3149.28863 4.0951 1.1545 8.9744.28863 1.4812.28863 3.7466.28863.60991.28863 2.4396.28863 1.3069.28863 2.0911.28863.78417.28863 2.0911.28863.69704.57727 2.5268.28863.8713.57727.78417.28863-.087129.57727.087129.28863-.26139.28863.17426.28863-.17426.28863-.43565.57727-1.3941.28863-.26139 1.1545-3.7466.28863-.087129.57727-2.7882.57727-3.6594.28863-1.2198.28863.43565.28863-.17426.8659-3.9208.28863.26139.28863-1.6555.28863-.34852.28863-1.2198.57727-8.9744 1.1545-9.8457.28863-1.3069.28863-2.5268.28863-3.7466.57727-2.7882.57727-4.1822.57727-3.8337.28863-3.1367.57727-2.0911.28863-.52278.28863-.8713.28864-.43565h.28863l.28863-.26139.28863.69704.28863.26139.28863.52278.57727-.08713.28863.08713.28863 1.3941.28863 2.1782.28863-.78417.28863 1.1327.28863 2.0911.28863-2.5268.28863.17426.28863-.52278.28863-1.7426.28863-3.3109.28863-1.4812.28863-.8713.28863-2.9624.28863-6.4476.28863-2.7882 1.1545-24.745.28863-10.978.57727-11.24 1.7318-42.084.8659-16.99.8659-6.9704.28863-.43565.28863-.78417 1.1545 9.1486.28863 3.7466 2.5977 47.921 1.1545 24.745.57727 9.5843 2.3091 42.694 1.4432 16.816 2.0204 16.729.8659 4.8793.28863 2.2654.28863 1.1327.8659 5.2278.28863.34852.28863.78417.28863 1.4812.28863.17426.28863-.17426.28863.08713.28863-.26139.28863.26139.28863-.60991.28863-.34852.28863-.52278 1.1545-3.7466.28863-.60991.57727-2.3525.57727-2.1782.57727-2.6139.28863-.34852.28863.26139.28863-2.3525.28863-.08713.28863-1.4812.28863-2.3525.28863-3.3109.28863-.17426.8659-7.3189.57727-2.5268.28863-1.7426.8659-8.3645.28863-4.0951.28863-1.1327.57727-4.4436.28863-.60991.57727-5.2278.57727-2.9624.28863-1.3941.57727-3.7466.28863-.43565.28863.43565.57727-2.1782.28863-.08713.8659-1.7426.28863-1.1327.28863.8713.57727 3.1367.28863 2.4396.28863-.17426h.28863l.57727 4.008.28863-2.6139.28863.26139 1.4432-15.161.28863-3.7466.57727-10.891.8659-24.571 1.4432-29.624.8659-11.85.57727-3.3109.28863.60991.28863.087129.28863-.95843.28863-.17426.28863 3.2238.28864 4.8793.28863 9.3229.57727 11.588 2.0204 45.307.57727 10.02.8659 17.165.8659 12.547 1.4432 21.173 1.1545 10.717.28863 1.6555.57727 4.2694 4.9068 24.658.28863.43565.28863 1.3941.57727 1.1327.28863.17426 1.4432 3.1367.28863-.26139.28863-.08713.28863-.34852.28863.26139.8659-.17426.57727-1.1327.57727-.69704.8659-.17426.28863-.52278.28863-.78417.28863-.34852.57727-2.6139.28863.087129.28863-.43565.28863-.8713.57727-2.6139.57727-3.2238 1.1545-2.9624.28863-2.1782.57727-2.8753.28863-.08713.57727-2.9624.28863-.52278.28863-2.4396.57727-2.4396 1.1545-4.7921.28863-.34852.28863-2.701.28863-.78417.28863-.26139.57727-5.2278.28863-.8713.28863-1.5683.57727-1.3069.28863-1.4812.28864-2.5268.57727-2.8753.28863-.43565.8659-7.8417 2.5977-54.456 1.4432-33.196 1.1545-13.854.57727-2.701.28863.78417.28863.43565.8659 10.456 2.5977 55.589 3.175 49.315.28863 2.004 1.7318 17.252.57727 3.8337.8659 4.0951.8659 5.9248.28863.69704.57727 2.5268 1.1545 4.4436.28863 1.6555.8659 2.5268.28863.26139.57727 1.7426.28863.08713.57727 1.7426.28863.34852.8659 2.4396.57727.08713.57727-.78417.28863.17426.28863-.34852.28863-.78417.28863-.26139.28863-.52278.28863-.95843.28863.34852.57727-.60991.28863-1.8297.28863.17426.28863-.8713.28863.087129.28863-1.5683.28863-.69704.28863-.34852.28863-1.3069.28863-.52278.57727-2.5268.28863-2.3525.28864-1.0456.28863-1.4812.28863-.34852.28863-1.9169.28863-.69704.8659-4.3565.57727-1.8297.28863-.60991.28863-1.7426.28863.17426.28863-1.2198.28863-.69704h.28863l1.1545-7.2318.28863-.52278.28863-1.7426.8659-2.5268.28863-1.0456h.28863l.8659-6.012.28863-.34852 1.4432-8.1902 1.1545-12.285.8659-16.555.8659-22.131.8659-21.957.28863-3.3109.28863-6.012.28863-8.4516 1.4432-17.862.28863-.26139.28863-1.2198.28863-.34852.8659 7.5803.57727 12.808.57727 9.6714 2.0204 37.727.57727 12.982.57727 10.107.8659 11.501.57727 11.24.57727 7.3189 1.1545 10.194.57727 4.4436 1.1545 9.6714.28863.8713.28863 1.3069.28863.78417 1.1545 6.4476.28863 1.1327.57727 1.1327.57727 2.004.28863.69704.28863 1.9169.28863.69704.28863-.43565.57727.95843.28864.17426.28863.8713.28863 1.6555.28863-.17426.28863.26139.57727.69704.28863.17426h.28863l.57727.34852.57727-1.3941.28863.95843.28863-.17426.57727-1.2198.28863-.087129.28863-.34852.28863-.52278.28863.69704.8659-1.3941.28863-2.004.28863-.8713.28863-.34852.28863-.52278.8659-3.8337.28863-1.9169.57727-2.1782.28863-1.3941.28863-.60991.28863-.95843.8659-5.5763.28863-.69704.57727-3.8337.28863-2.0911 1.1545-3.3981.57727-3.0495.57727-5.1407.28863-.69704 1.1545-7.0575.28863-2.9624.28863-.69704.57727-2.701.28863 1.2198.28863-.95843.28863-.26139.28863-.78417.28863.08713.28863-.52278.28863-1.3941.57727-9.5843 1.1545-17.774.57727-16.032.28864-10.281.28863-5.402 1.1545-29.363.8659-15.77.57727-6.709h.28863l.28863-.17426.28863-1.6555.57727 2.4396.28863 1.7426.28863 3.5723.8659 19.169 1.1545 25.268.8659 20.04 2.0204 33.806.28863 3.0495.28863 6.0991 1.7318 19.43 1.1545 8.0159 3.4636 18.472.28863.60991.28863 1.9169 1.4432 4.4436.28863 1.6555 1.1545 3.1367.28863 1.2198.28863-.26139.28863.34852.28863-.087129.28864-.26139.28863-.8713.28863 1.0456.28863-.78417.57727-.52278.28863-.95843.28863-.17426h.28863l.28863-.26139.28863-.78417.28863-2.004.28863-.34852h.28863l.28863-.26139.28863-1.0456.28863-1.6555.28863-.43565.28863-1.0456h.28863l.28863-.8713.28863 1.3069.28863 1.8297.28863.69704.28863-.34852.28863 1.3069.28863-.17426.28863-2.2654.28863.8713.57727-.95843.57727.43565.28863-1.9169.28863.34852.28863.8713.28863.17426.28863-.08713.28864-1.0456.28863.17426m1.1545-2.7882.28863-1.6555.28863-3.3109.28863-1.7426 2.0204-17.862 1.1545-5.1407 1.1545-12.372 1.4432-25.616 1.4432-41.299 1.1545-29.798.57727-9.6714.57727-7.3189.28863-1.5683.28863 1.1327h.28863l.28863.43565.57727 2.7882.57727 12.895.28863 6.5347.28863 1.9169.28863 7.5803.28863 2.6139.28863 5.0535.8659 19.517 1.7318 30.321v0" clip-path="url(#c)" fill="none" stroke="#28f" stroke-linecap="square" stroke-width="1.5"/>
   </g>
   <g id="cv">
    <path d="m52 259.78v-232.9" fill="none" stroke="#000" stroke-linecap="square" stroke-width=".8"/>
   </g>
   <g id="cw">
    <path d="m853.2 259.78v-232.9" fill="none" stroke="#000" stroke-linecap="square" stroke-width=".8"/>
   </g>
   <g id="cx">
    <path d="m52 259.78h801.2" fill="none" stroke="#000" stroke-linecap="square" stroke-width=".8"/>
   </g>
   <g id="cy">
    <path d="m52 26.88h801.2" fill="none" stroke="#000" stroke-linecap="square" stroke-width=".8"/>
   </g>
   <g id="cz">
    <!-- 同時接続数の推移 -->
    <g transform="translate(404.6 20.88) scale(.12 -.12)">
     <defs>
      <path id="x" transform="scale(.015625)" d="m1587 3936h3232v-518h-3232v518zm320-1114h557v-2534h-557v2534zm301 0h2291v-2086h-2291v512h1734v1069h-1734v505zm-1683 2260h5113v-570h-4524v-5056h-589v5626zm4768 0h595v-4896q0-250-67-397t-227-218q-160-77-426-96t-675-19q-13 83-45 192t-77 218q-45 108-89 185 281-13 527-13 247 0 330 0 83 7 118 42 36 35 36 112v4890z"/>
      <path id="v" transform="scale(.015625)" d="m2714 4672h3238v-525h-3238v525zm-244-1235h3712v-538h-3712v538zm20-1184h3635v-531h-3635v531zm1523 3155h595v-2310h-595v2310zm832-2451h589v-2823q0-230-61-364-61-135-227-199-167-70-423-86t-633-16q-20 121-78 285-57 163-121 284 275-6 509-9t310-3q77 6 106 28 29 23 29 93v2810zm-2023-1677 487 282q153-160 313-352t294-381q135-189 206-343l-519-313q-64 153-189 348-124 196-278 394-154 199-314 365zm-2086 3718h1619v-4281h-1619v544h1056v3187h-1056v550zm32-1843h1293v-537h-1293v537zm-320 1843h563v-4832h-563v4832z"/>
      <path id="w" transform="scale(.015625)" d="m3866 5408h614v-870h-614v870zm-1479-653h3597v-518h-3597v518zm-230-1485h4e3v-518h-4e3v518zm825 922 519 102q64-160 121-342 58-182 96-352 39-170 45-304l-544-128q-6 134-42 313-35 180-83 365-48 186-112 346zm1856 109 589-71q-96-275-202-557-105-281-195-486l-518 77q58 147 122 329 64 183 118 372t86 336zm-2643-2106h3943v-518h-3943v518zm1408 685 602-115q-167-371-362-784t-390-797-362-685l-525 179q160 288 346 666t368 784 323 752zm-659-2157 358 403q352-102 733-240 381-137 752-304 371-166 697-336 327-169 558-329l-384-461q-218 160-532 336-313 176-685 345-371 170-755 323-384 154-742 263zm1894 1114 583-71q-122-550-353-944-230-393-604-662t-922-435q-547-167-1296-269-25 128-93 269-67 141-137 230 678 64 1168 192t819 349q330 221 531 550 202 330 304 791zm-4684 217q396 90 953 240 557 151 1120 311l77-544q-525-154-1053-311-528-156-963-284l-134 588zm121 2093h1965v-563h-1965v563zm819 1248h576v-5229q0-236-51-374t-192-208q-141-77-355-99-214-23-541-16-13 115-64 288t-109 294q205-6 381-6t234 0q64 0 92 28 29 29 29 93v5229z"/>
      <path id="u" transform="scale(.015625)" d="m4058 5408h595v-1798h-595v1798zm-1415-563h3443v-499h-3443v499zm231-992h3008v-499h-3008v499zm-224-877h3475v-1203h-531v729h-2432v-729h-512v1203zm1964-877h551v-1881q0-122 22-157 23-35 106-35 25 0 92 0 68 0 135 0t99 0q51 0 83 54t45 224 19 515q90-70 234-131t259-93q-19-429-83-662-64-234-183-326-118-93-316-93-39 0-103 0t-134 0-138 0q-67 0-99 0-237 0-365 64t-176 218q-48 153-48 422v1881zm-1164-6h550v-455q0-243-48-528-48-284-186-579-137-294-409-572-272-279-727-503-70 90-192 208-121 118-230 195 416 205 665 438 250 234 371 474 122 240 164 467 42 228 42 413v442zm-2240 3309 524-192q-121-244-259-503-137-259-275-496t-259-416l-410 173q122 186 246 438 125 253 240 515 116 263 193 481zm716-743 500-230q-224-359-496-756-272-396-548-764-275-368-518-650l-358 205q179 211 377 483 199 272 387 569 189 298 358 592 170 295 298 551zm-1721-665 307 403q166-154 339-340 173-185 320-364t224-327l-326-460q-77 160-218 348-141 189-314 384-172 196-332 356zm1485-832 435 179q128-211 249-458 122-246 215-474 93-227 137-412l-473-211q-32 185-119 422-86 237-201 486-115 250-243 468zm-1530-583q422 26 998 54 576 29 1184 68l7-499q-570-45-1127-84-556-38-992-70l-70 531zm1702-992 436 135q121-276 214-596t118-556l-454-148q-26 237-112 563-86 327-202 602zm-1363 109 499-83q-57-455-163-897-105-441-253-748-51 32-134 73-83 42-170 83-86 42-144 62 148 294 234 697t131 813zm691 627h525v-2861h-525v2861z"/>
      <path id="p" transform="scale(.015625)" d="m224 2022h3187v-499h-3187v499zm51 2247h3111v-487h-3111v487zm1127-1735 563-121q-154-320-333-672t-352-679q-173-326-326-582l-532 173q148 243 324 566t345 669q170 346 311 646zm934-832 563-64q-89-480-262-838t-461-614-701-432-976-298q-25 128-99 269t-157 237q659 102 1085 303 426 202 666 554t342 883zm422 3597 519-211q-147-218-298-436-150-217-278-377l-403 186q121 173 252 413 132 240 208 425zm-1203 109h563v-2957h-563v2957zm-1075-320 448 186q134-192 246-420 112-227 157-393l-467-211q-38 172-147 406t-237 432zm1094-1050 397-236q-160-263-400-529-240-265-519-489-278-224-553-378-51 103-141 237-89 135-179 218 269 109 534 294 266 186 493 416 228 231 368 467zm487-204q83-45 246-145 163-99 352-211t346-211 221-150l-327-423q-83 77-230 198-147 122-317 253-170 132-327 250-156 119-259 189l295 250zm1798 396h2311v-556h-2311v556zm115 1178 615-90q-103-640-263-1235t-384-1101q-224-505-512-889-44 57-134 134t-186 157-166 125q275 339 473 796 199 458 340 995 141 538 217 1108zm1223-1510 614-58q-147-1101-445-1940-297-838-813-1443-515-604-1321-1014-26 71-90 177-64 105-134 208-70 102-128 159 742 346 1212 880 471 535 730 1290 260 755 375 1741zm-1005-135q134-851 387-1597 253-745 659-1305 407-560 1002-874-70-57-154-150-83-93-154-189-70-96-121-179-633 371-1056 988-422 618-688 1434-265 816-425 1783l550 89zm-3309-3065 327 416q377-148 754-330 378-182 701-378 324-195 548-368l-416-435q-211 179-519 378-307 198-666 383-358 186-729 334z"/>
      <path id="t" transform="scale(.015625)" d="m3686 4378q-64-493-163-1041-99-547-265-1084-192-653-432-1104t-522-688-595-237q-320 0-596 221-275 221-448 621-172 400-172 931 0 537 220 1017 221 480 611 851 391 372 909 583 519 211 1121 211 576 0 1040-186 464-185 793-515 330-329 502-771 173-441 173-941 0-672-278-1194-278-521-816-851-538-329-1318-444l-378 601q166 20 307 42t263 48q307 70 585 217 279 148 496 375 218 227 342 534 125 308 125 692t-122 713q-121 330-358 573-236 243-582 380-346 138-781 138-525 0-935-186-409-185-694-489-284-304-432-656-147-352-147-678 0-365 89-605 90-240 224-355 135-115 276-115t288 144 297 457q151 314 298 800 147 461 246 982 100 522 145 1021l684-12z"/>
      <path id="q" transform="scale(.015625)" d="m2995 2925h2893v-519h-2893v519zm0-1280h2893v-519h-2893v519zm-64-1299h3232v-557h-3232v557zm1312 3577h563v-3763h-563v3763zm429 1466 634-141q-154-390-340-794-185-403-339-684l-512 140q103 199 208 458 106 259 195 528 90 269 154 493zm-1472 25 582-147q-153-518-371-1018-217-499-483-931t-573-758q-38 64-109 160-70 96-147 198-77 103-141 160 416 416 733 1034t509 1302zm128-1203h2720v-537h-2720v-4205h-582v4422l313 320h269zm-3174-2157q396 90 953 240 557 151 1120 311l77-544q-525-154-1053-311-528-156-963-284l-134 588zm121 2093h1965v-563h-1965v563zm819 1248h576v-5229q0-236-51-374t-192-208q-141-77-355-99-214-23-541-16-13 115-64 288t-109 294q205-6 381-6t234 0q64 0 92 28 29 29 29 93v5229z"/>
      <path id="o" transform="scale(.015625)" d="m4051 5402 595-109q-281-493-729-941t-1107-806q-39 64-106 144t-141 153q-73 74-137 119 608 288 1011 678t614 762zm-77-557h1511v-493h-1863l352 493zm1293 0h109l109 25 384-179q-192-505-496-905t-695-701q-390-301-845-519-454-217-947-358-44 109-137 253t-176 227q448 109 867 294 419 186 777 445 359 259 631 592t419 730v96zm-1990-954 377 307q167-96 336-218 170-121 320-249 151-128 247-237l-397-332q-90 108-237 236t-317 259q-169 132-329 234zm1107-934 595-109q-307-538-803-1031-496-492-1232-876-38 64-102 144t-138 156q-74 77-138 116 455 217 807 483t604 554q253 288 407 563zm-90-589h1460v-506h-1818l358 506zm1268 0h121l109 26 384-167q-192-614-531-1075t-787-794q-448-332-983-553-534-221-1129-355-45 115-132 269-86 153-176 249 551 96 1043 285 493 189 903 473 410 285 714 669t464 883v90zm-2132-1056 410 339q186-102 384-237 198-134 371-275t282-269l-435-371q-103 128-270 272-166 144-361 288t-381 253zm-2150 3533h589v-5376h-589v5376zm-992-1242h2336v-569h-2336v569zm1024-224 365-160q-96-339-231-707-134-368-291-727-157-358-336-672-179-313-365-537-44 128-134 291t-160 272q173 192 339 457 167 266 323 570 157 304 282 618t208 595zm941 1946 416-467q-314-122-695-221-380-99-784-173-403-74-780-131-20 102-71 236-51 135-102 231 358 58 732 138 375 80 711 179t573 208zm-397-2579q58-45 179-170 122-125 266-266 144-140 259-265t160-183l-352-473q-58 102-157 255-99 154-218 317-118 164-227 311-108 147-185 237l275 237z"/>
     </defs>
     <use xlink:href="#x"/>
     <use transform="translate(100)" xlink:href="#v"/>
     <use transform="translate(200)" xlink:href="#w"/>
     <use transform="translate(300)" xlink:href="#u"/>
     <use transform="translate(400)" xlink:href="#p"/>
     <use transform="translate(500)" xlink:href="#t"/>
     <use transform="translate(600)" xlink:href="#q"/>
     <use transform="translate(700)" xlink:href="#o"/>
    </g>
   </g>
  </g>
  <g id="da">
   <g id="db">
    <path d="m52 523.06h801.2v-232.9h-801.2z" fill="#fff"/>
   </g>
   <g id="dc">
    <path d="m136.62 523.06h.8659v-232.9h-.8659z" clip-path="url(#d)" fill="#808080" opacity=".3" stroke="#808080"/>
   </g>
   <g id="dd">
    <path d="m455.41 523.06h.57727v-232.9h-.57727z" clip-path="url(#d)" fill="#808080" opacity=".3" stroke="#808080"/>
   </g>
   <g id="de">
    <path d="m798.89 523.06h1.1545v-232.9h-1.1545z" clip-path="url(#d)" fill="#808080" opacity=".3" stroke="#808080"/>
   </g>
   <g id="df">
    <g id="dg">
     <g id="dh">
      <path d="m105.88 523.06v-232.9" clip-path="url(#d)" fill="none" stroke="#b0b0b0" stroke-linecap="square" stroke-opacity=".3" stroke-width=".8"/>
     </g>
     <g id="di">
      <use x="105.876211" y="523.055464" stroke="#000000" stroke-width=".8" xlink:href="#e"/>
     </g>
     <g id="dj">
      <!-- 2025-07-01 -->
      <g transform="translate(59.087 563.33) rotate(-30) scale(.1 -.1)">
       <defs>
        <path id="g" transform="scale(.015625)" d="m301 1536v544h1689v-544h-1689z"/>
       </defs>
       <use xlink:href="#b"/>
       <use transform="translate(57)" xlink:href="#a"/>
       <use transform="translate(114)" xlink:href="#b"/>
       <use transform="translate(171)" xlink:href="#j"/>
       <use transform="translate(228)" xlink:href="#g"/>
       <use transform="translate(263.7)" xlink:href="#a"/>
       <use transform="translate(320.7)" xlink:href="#i"/>
       <use transform="translate(377.7)" xlink:href="#g"/>
       <use transform="translate(413.4)" xlink:href="#a"/>
       <use transform="translate(470.4)" xlink:href="#f"/>
      </g>
     </g>
    </g>
    <g id="dk">
     <g id="dl">
      <path d="m189 523.06v-232.9" clip-path="url(#d)" fill="none" stroke="#b0b0b0" stroke-linecap="square" stroke-opacity=".3" stroke-width=".8"/>
     </g>
     <g id="dm">
      <use x="189.002811" y="523.055464" stroke="#000000" stroke-width=".8" xlink:href="#e"/>
     </g>
     <g id="dn">
      <!-- 2025-07-03 -->
      <g transform="translate(142.21 563.33) rotate(-30) scale(.1 -.1)">
       <use xlink:href="#b"/>
       <use transform="translate(57)" xlink:href="#a"/>
       <use transform="translate(114)" xlink:href="#b"/>
       <use transform="translate(171)" xlink:href="#j"/>
       <use transform="translate(228)" xlink:href="#g"/>
       <use transform="translate(263.7)" xlink:href="#a"/>
       <use transform="translate(320.7)" xlink:href="#i"/>
       <use transform="translate(377.7)" xlink:href="#g"/>
       <use transform="translate(413.4)" xlink:href="#a"/>
       <use transform="translate(470.4)" xlink:href="#n"/>
      </g>
     </g>
    </g>
    <g id="do">
     <g id="dp">
      <path d="m272.13 523.06v-232.9" clip-path="url(#d)" fill="none" stroke="#b0b0b0" stroke-linecap="square" stroke-opacity=".3" stroke-width=".8"/>
     </g>
     <g id="dq">
      <use x="272.12941" y="523.055464" stroke="#000000" stroke-width=".8" xlink:href="#e"/>
     </g>
     <g id="dr">
      <!-- 2025-07-05 -->
      <g transform="translate(225.34 563.33) rotate(-30) scale(.1 -.1)">
       <use xlink:href="#b"/>
       <use transform="translate(57)" xlink:href="#a"/>
       <use transform="translate(114)" xlink:href="#b"/>
       <use transform="translate(171)" xlink:href="#j"/>
       <use transform="translate(228)" xlink:href="#g"/>
       <use transform="translate(263.7)" xlink:href="#a"/>
       <use transform="translate(320.7)" xlink:href="#i"/>
       <use transform="translate(377.7)" xlink:href="#g"/>
       <use transform="translate(413.4)" xlink:href="#a"/>
       <use transform="translate(470.4)" xlink:href="#j"/>
      </g>
     </g>
    </g>
    <g id="ds">
     <g id="dt">
      <path d="m355.26 523.06v-232.9" clip-path="url(#d)" fill="none" stroke="#b0b0b0" stroke-linecap="square" stroke-opacity=".3" stroke-width=".8"/>
     </g>
     <g id="du">
      <use x="355.25601" y="523.055464" stroke="#000000" stroke-width=".8" xlink:href="#e"/>
     </g>
     <g id="dv">
      <!-- 2025-07-07 -->
      <g transform="translate(308.47 563.33) rotate(-30) scale(.1 -.1)">
       <use xlink:href="#b"/>
       <use transform="translate(57)" xlink:href="#a"/>
       <use transform="translate(114)" xlink:href="#b"/>
       <use transform="translate(171)" xlink:href="#j"/>
       <use transform="translate(228)" xlink:href="#g"/>
       <use transform="translate(263.7)" xlink:href="#a"/>
       <use transform="translate(320.7)" xlink:href="#i"/>
       <use transform="translate(377.7)" xlink:href="#g"/>
       <use transform="translate(413.4)" xlink:href="#a"/>
       <use transform="translate(470.4)" xlink:href="#i"/>
      </g>
     </g>
    </g>
    <g id="dw">
     <g id="dx">
      <path d="m438.38 523.06v-232.9" clip-path="url(#d)" fill="none" stroke="#b0b0b0" stroke-linecap="square" stroke-opacity=".3" stroke-width=".8"/>
     </g>
     <g id="dy">
      <use x="438.382609" y="523.055464" stroke="#000000" stroke-width=".8" xlink:href="#e"/>
     </g>
     <g id="dz">
      <!-- 2025-07-09 -->
      <g transform="translate(391.59 563.33) rotate(-30) scale(.1 -.1)">
       <use xlink:href="#b"/>
       <use transform="translate(57)" xlink:href="#a"/>
       <use transform="translate(114)" xlink:href="#b"/>
       <use transform="translate(171)" xlink:href="#j"/>
       <use transform="translate(228)" xlink:href="#g"/>
       <use transform="translate(263.7)" xlink:href="#a"/>
       <use transform="translate(320.7)" xlink:href="#i"/>
       <use transform="translate(377.7)" xlink:href="#g"/>
       <use transform="translate(413.4)" xlink:href="#a"/>
       <use transform="translate(470.4)" xlink:href="#r"/>
      </g>
     </g>
    </g>
    <g id="ea">
     <g id="eb">
      <path d="m521.51 523.06v-232.9" clip-path="url(#d)" fill="none" stroke="#b0b0b0" stroke-linecap="square" stroke-opacity=".3" stroke-width=".8"/>
     </g>
     <g id="ec">
      <use x="521.509209" y="523.055464" stroke="#000000" stroke-width=".8" xlink:href="#e"/>
     </g>
     <g id="ed">
      <!-- 2025-07-11 -->
      <g transform="translate(474.72 563.33) rotate(-30) scale(.1 -.1)">
       <use xlink:href="#b"/>
       <use transform="translate(57)" xlink:href="#a"/>
       <use transform="translate(114)" xlink:href="#b"/>
       <use transform="translate(171)" xlink:href="#j"/>
       <use transform="translate(228)" xlink:href="#g"/>
       <use transform="translate(263.7)" xlink:href="#a"/>
       <use transform="translate(320.7)" xlink:href="#i"/>
       <use transform="translate(377.7)" xlink:href="#g"/>
       <use transform="translate(413.4)" xlink:href="#f"/>
       <use transform="translate(470.4)" xlink:href="#f"/>
      </g>
     </g>
    </g>
    <g id="ee">
     <g id="ef">
      <path d="m604.64 523.06v-232.9" clip-path="url(#d)" fill="none" stroke="#b0b0b0" stroke-linecap="square" stroke-opacity=".3" stroke-width=".8"/>
     </g>
     <g id="eg">
      <use x="604.635809" y="523.055464" stroke="#000000" stroke-width=".8" xlink:href="#e"/>
     </g>
     <g id="eh">
      <!-- 2025-07-13 -->
      <g transform="translate(557.85 563.33) rotate(-30) scale(.1 -.1)">
       <use xlink:href="#b"/>
       <use transform="translate(57)" xlink:href="#a"/>
       <use transform="translate(114)" xlink:href="#b"/>
       <use transform="translate(171)" xlink:href="#j"/>
       <use transform="translate(228)" xlink:href="#g"/>
       <use transform="translate(263.7)" xlink:href="#a"/>
       <use transform="translate(320.7)" xlink:href="#i"/>
       <use transform="translate(377.7)" xlink:href="#g"/>
       <use transform="translate(413.4)" xlink:href="#f"/>
       <use transform="translate(470.4)" xlink:href="#n"/>
      </g>
     </g>
    </g>
    <g id="ei">
     <g id="ej">
      <path d="m687.76 523.06v-232.9" clip-path="url(#d)" fill="none" stroke="#b0b0b0" stroke-linecap="square" stroke-opacity=".3" stroke-width=".8"/>
     </g>
     <g id="ek">
      <use x="687.762408" y="523.055464" stroke="#000000" stroke-width=".8" xlink:href="#e"/>
     </g>
     <g id="el">
      <!-- 2025-07-15 -->
      <g transform="translate(640.97 563.33) rotate(-30) scale(.1 -.1)">
       <use xlink:href="#b"/>
       <use transform="translate(57)" xlink:href="#a"/>
       <use transform="translate(114)" xlink:href="#b"/>
       <use transform="translate(171)" xlink:href="#j"/>
       <use transform="translate(228)" xlink:href="#g"/>
       <use transform="translate(263.7)" xlink:href="#a"/>
       <use transform="translate(320.7)" xlink:href="#i"/>
       <use transform="translate(377.7)" xlink:href="#g"/>
       <use transform="translate(413.4)" xlink:href="#f"/>
       <use transform="translate(470.4)" xlink:href="#j"/>
      </g>
     </g>
    </g>
    <g id="em">
     <g id="en">
      <path d="m770.89 523.06v-232.9" clip-path="url(#d)" fill="none" stroke="#b0b0b0" stroke-linecap="square" stroke-opacity=".3" stroke-width=".8"/>
     </g>
     <g id="eo">
      <use x="770.889008" y="523.055464" stroke="#000000" stroke-width=".8" xlink:href="#e"/>
     </g>
     <g id="ep">
      <!-- 2025-07-17 -->
      <g transform="translate(724.1 563.33) rotate(-30) scale(.1 -.1)">
       <use xlink:href="#b"/>
       <use transform="translate(57)" xlink:href="#a"/>
       <use transform="translate(114)" xlink:href="#b"/>
       <use transform="translate(171)" xlink:href="#j"/>
       <use transform="translate(228)" xlink:href="#g"/>
       <use transform="translate(263.7)" xlink:href="#a"/>
       <use transform="translate(320.7)" xlink:href="#i"/>
       <use transform="translate(377.7)" xlink:href="#g"/>
       <use transform="translate(413.4)" xlink:href="#f"/>
       <use transform="translate(470.4)" xlink:href="#i"/>
      </g>
     </g>
    </g>
   </g>
   <g id="eq">
    <g id="er">
     <g id="es">
      <path d="m52 505.71h801.2" clip-path="url(#d)" fill="none" stroke="#b0b0b0" stroke-linecap="square" stroke-opacity=".3" stroke-width=".8"/>
     </g>
     <g id="et">
      <use x="52" y="505.712772" stroke="#000000" stroke-width=".8" xlink:href="#h"/>
     </g>
     <g id="eu">
      <!-- 104800 -->
      <g transform="translate(10.8 509.7) scale(.1 -.1)">
       <use xlink:href="#f"/>
       <use transform="translate(57)" xlink:href="#a"/>
       <use transform="translate(114)" xlink:href="#m"/>
       <use transform="translate(171)" xlink:href="#l"/>
       <use transform="translate(228)" xlink:href="#a"/>
       <use transform="translate(285)" xlink:href="#a"/>
      </g>
     </g>
    </g>
    <g id="ev">
     <g id="ew">
      <path d="m52 477.26h801.2" clip-path="url(#d)" fill="none" stroke="#b0b0b0" stroke-linecap="square" stroke-opacity=".3" stroke-width=".8"/>
     </g>
     <g id="ex">
      <use x="52" y="477.264642" stroke="#000000" stroke-width=".8" xlink:href="#h"/>
     </g>
     <g id="ey">
      <!-- 105200 -->
      <g transform="translate(10.8 481.25) scale(.1 -.1)">
       <use xlink:href="#f"/>
       <use transform="translate(57)" xlink:href="#a"/>
       <use transform="translate(114)" xlink:href="#j"/>
       <use transform="translate(171)" xlink:href="#b"/>
       <use transform="translate(228)" xlink:href="#a"/>
       <use transform="translate(285)" xlink:href="#a"/>
      </g>
     </g>
    </g>
    <g id="ez">
     <g id="fa">
      <path d="m52 448.82h801.2" clip-path="url(#d)" fill="none" stroke="#b0b0b0" stroke-linecap="square" stroke-opacity=".3" stroke-width=".8"/>
     </g>
     <g id="fb">
      <use x="52" y="448.816512" stroke="#000000" stroke-width=".8" xlink:href="#h"/>
     </g>
     <g id="fc">
      <!-- 105600 -->
      <g transform="translate(10.8 452.8) scale(.1 -.1)">
       <use xlink:href="#f"/>
       <use transform="translate(57)" xlink:href="#a"/>
       <use transform="translate(114)" xlink:href="#j"/>
       <use transform="translate(171)" xlink:href="#k"/>
       <use transform="translate(228)" xlink:href="#a"/>
       <use transform="translate(285)" xlink:href="#a"/>
      </g>
     </g>
    </g>
    <g id="fd">
     <g id="fe">
      <path d="m52 420.37h801.2" clip-path="url(#d)" fill="none" stroke="#b0b0b0" stroke-linecap="square" stroke-opacity=".3" stroke-width=".8"/>
     </g>
     <g id="ff">
      <use x="52" y="420.368381" stroke="#000000" stroke-width=".8" xlink:href="#h"/>
     </g>
     <g id="fg">
      <!-- 106000 -->
      <g transform="translate(10.8 424.35) scale(.1 -.1)">
       <use xlink:href="#f"/>
       <use transform="translate(57)" xlink:href="#a"/>
       <use transform="translate(114)" xlink:href="#k"/>
       <use transform="translate(171)" xlink:href="#a"/>
       <use transform="translate(228)" xlink:href="#a"/>
       <use transform="translate(285)" xlink:href="#a"/>
      </g>
     </g>
    </g>
    <g id="fh">
     <g id="fi">
      <path d="m52 391.92h801.2" clip-path="url(#d)" fill="none" stroke="#b0b0b0" stroke-linecap="square" stroke-opacity=".3" stroke-width=".8"/>
     </g>
     <g id="fj">
      <use x="52" y="391.920251" stroke="#000000" stroke-width=".8" xlink:href="#h"/>
     </g>
     <g id="fk">
      <!-- 106400 -->
      <g transform="translate(10.8 395.91) scale(.1 -.1)">
       <use xlink:href="#f"/>
       <use transform="translate(57)" xlink:href="#a"/>
       <use transform="translate(114)" xlink:href="#k"/>
       <use transform="translate(171)" xlink:href="#m"/>
       <use transform="translate(228)" xlink:href="#a"/>
       <use transform="translate(285)" xlink:href="#a"/>
      </g>
     </g>
    </g>
    <g id="fl">
     <g id="fm">
      <path d="m52 363.47h801.2" clip-path="url(#d)" fill="none" stroke="#b0b0b0" stroke-linecap="square" stroke-opacity=".3" stroke-width=".8"/>
     </g>
     <g id="fn">
      <use x="52" y="363.47212" stroke="#000000" stroke-width=".8" xlink:href="#h"/>
     </g>
     <g id="fo">
      <!-- 106800 -->
      <g transform="translate(10.8 367.46) scale(.1 -.1)">
       <use xlink:href="#f"/>
       <use transform="translate(57)" xlink:href="#a"/>
       <use transform="translate(114)" xlink:href="#k"/>
       <use transform="translate(171)" xlink:href="#l"/>
       <use transform="translate(228)" xlink:href="#a"/>
       <use transform="translate(285)" xlink:href="#a"/>
      </g>
     </g>
    </g>
    <g id="fp">
     <g id="fq">
      <path d="m52 335.02h801.2" clip-path="url(#d)" fill="none" stroke="#b0b0b0" stroke-linecap="square" stroke-opacity=".3" stroke-width=".8"/>
     </g>
     <g id="fr">
      <use x="52" y="335.02399" stroke="#000000" stroke-width=".8" xlink:href="#h"/>
     </g>
     <g id="fs">
      <!-- 107200 -->
      <g transform="translate(10.8 339.01) scale(.1 -.1)">
       <use xlink:href="#f"/>
       <use transform="translate(57)" xlink:href="#a"/>
       <use transform="translate(114)" xlink:href="#i"/>
       <use transform="translate(171)" xlink:href="#b"/>
       <use transform="translate(228)" xlink:href="#a"/>
       <use transform="translate(285)" xlink:href="#a"/>
      </g>
     </g>
    </g>
    <g id="ft">
     <g id="fu">
      <path d="m52 306.58h801.2" clip-path="url(#d)" fill="none" stroke="#b0b0b0" stroke-linecap="square" stroke-opacity=".3" stroke-width=".8"/>
     </g>
     <g id="fv">
      <use x="52" y="306.575859" stroke="#000000" stroke-width=".8" xlink:href="#h"/>
     </g>
     <g id="fw">
      <!-- 107600 -->
      <g transform="translate(10.8 310.56) scale(.1 -.1)">
       <use xlink:href="#f"/>
       <use transform="translate(57)" xlink:href="#a"/>
       <use transform="translate(114)" xlink:href="#i"/>
       <use transform="translate(171)" xlink:href="#k"/>
       <use transform="translate(228)" xlink:href="#a"/>
       <use transform="translate(285)" xlink:href="#a"/>
      </g>
     </g>
    </g>
   </g>
   <g id="fx">
    <path d="m88.418 512.47h.1549l.45316-.28448h.40842l1.2984-.49784.44883-.28448 1.2729-.21336.8659.14224.43295-.21336.43295-.3556h.43295l.8659-.92456.8659-.14224.8659-.64008 1.2989.14224.43295-.07112.43295-.28448.43295-.42672.43295-.7112.8659-.64008h.43295l.8659-.64008.43295-.42672 1.2989-2.5603 1.2989-.99568.43295-.21336.43295.071121.43295-.3556h1.2989l.43295-.28448h.43295l.8659-.56896 2.1648-.42672.43295.14224.43295-.07112.43295.07112 2.1648-.28448 1.7318-.071121 1.2989-.14224 5.6284-.071121.8659-.07112h.43295l.43295-.14224h.8659l.43295-.28448 1.2989-.3556.8659-.21336.8659-.28448h.43295l.8659-.42672 1.2989-.28448 2.1648-.78232.8659-.3556.8659-.21336m.8659-.42672.43295-.28448.43295-.64008.43295-.3556 1.2989-.28448.8659-.28448.8659-.56896.43295-.92456.43295-.28448.8659-1.4935h.43295l.8659-.99568.43295-.21336.43295-.49784 1.7318-1.1379.43295.07112 1.2989-.85344.43295-.14224.8659-.07112 1.2989-.21336.43295.14224h.43295l.8659-.49784.8659-.14224.43295.071121.43295-.14224.43295.07112 2.1648-.28448.8659.07112.8659-.07112.8659.07112h2.5977l.8659-.21336.8659.21336.43295.071121 1.2989-.3556h.43295l.43295-.14224h.43295l.43295-.28448.8659-.21336.43295-.3556 1.7318.071121.43295.07112.43295-.07112.43295-.21336 1.2989-.14224.43295.14224 1.2989-.14224h.43295l1.2989-.78232.43295-.071121.43295-.28448.43295.07112.8659-.14224.43295.07112.43295-.28448.43295-.14224h.8659l.43295-.49784.8659-.49784.43295-.49784 1.2989-.49784.8659-.49784.43295-.7112.43295-.07112.43295-.28448.43295-.78232 1.2989-1.209.43295-.14224.43295.21336.43295-.14224.43295-.3556 1.7318-.49784.43295-.07112.43295.07112.43295-.21336.8659.071121h2.1648l.43295-.14224.8659.14224 1.2989-.14224 3.0307-.07112.43295.21336h.43295l1.7318-.49784 1.0102-.07112.14432-.07112.43295.14224h.72158l.28863-.14224 1.1545.07112.28863.14224.72158-.071121.28863-.07112h.28863l.14432-.14224.28864.14224.28863-.07112h.28863l.28863-.14224.57727.14224.28863-.071121 1.2989-.07112.28863-.21336.14432-.14224.57727.28448.72158-.28448.28863.071121.57727-.21336 1.0102.07112.28863.14224.8659-.7112h.14432l.57727-.49784h1.5875l.28863-.14224.72159-.071121 1.4432-.64008h.43295l.43295-.21336.14432-.21336.14432.14224.14432-.07112.14432.14224.28863-.28448.28863-.14224.28863-.07112.43295-.21336.14432.07112.8659-.78232.28863-.071121.28863-.14224.28863-.7112 1.0102-.99568.14432.14224.28863-.14224.14432-.21336h.14432l.14432.14224.28863-.071121.28863-.49784h.28863l.14432-.42672.14432.07112.72158-.28448h.14432l.28863-.3556.28863-.21336.57727-.071121.28863-.21336.43295-.07112.28863-.07112h.43295l.43295-.28448.57727-.21336 1.0102-.07112.28863-.07112 1.8761-.071121.28863-.07112 3.175-.07112.28863-.071121 2.3091-.07112.72158-.28448 3.4636-.071121 1.1545-.28448.28863-.21336 2.0204.07112.28863.14224 1.1545-.21336 1.4432-.07112.57727-.3556.8659-.07112.57727-.28448h.28863l.57727-.21336h.28863l.8659-.7112.28863-.14224.8659-.071121.28863-.28448 1.7318-.42672.28863.07112.28863-.14224.57727-.071121.8659-.21336.28863.071121.28863-.21336.28864-.071121.57727-.49784.28863-.07112.57727-.7112.28863-.21336h.28863l1.1545-.7112 1.4432-.3556 1.1545-1.209.28863-.42672h.28863l.8659-.85344h.28863l.28863-.21336.28863-.3556.57727-.28448.28863.071121 1.4432-1.4224h.28863l.28864-.42672 1.1545-.21336h2.0204l.28863-.14224h.28863l.28863-.14224 1.1545-.14224.8659-.07112 2.3091-.49784 2.8863.07112.57727.07112.8659-.07112.28863-.21336.8659.14224.28863-.071121.57727.071121h1.4432l.8659-.3556h1.1545l.57727-.28448h.8659l.28863-.14224.8659-.07112.28863-.071121.28863.071121.28864-.14224.28863.07112.8659-.21336.28863-.21336.28863.071121.8659-.99568.57727.21336.28863-.21336h.57727l.57727-.28448.8659-.07112.57727-.64008h.28863l.57727-.21336.28863.07112.28863-.28448.28863-.071121.28863.071121.28863-.071121.28863.14224.28863-.14224.28863.071121.28863-.071121.8659-.64008h.28863l.28864-.14224.8659-1.2802.8659-.49784.28863-.56896.28863-.07112.8659-.85344.28863.07112.8659-.56896.57727-1.1379.57727-.07112.57727-.64008 1.1545-.3556.28863-.21336.28863-.07112.28863-.21336 1.1545-.3556.57727-.64008.57727-.071121 1.1545-.21336.28863-.3556 2.0204-.071121.57727-.21336.8659-.07112.8659-.21336.28863.07112.57727-.07112.8659.07112.57727.071121.57727-.28448 1.1545.071121.28863.21336h2.5977l.57727-.3556h.28863l.57727-.21336 1.1545.07112.57727.071121.28863-.14224h.28863l.28863-.28448h.28863l.28863-.21336 1.1545-.3556.28863-.14224.57727-.07112.8659-.78232h.28863l.28863-.14224h.57727l.57727.21336h.28864l.57727-.21336.28863-.3556 1.4432-.42672.28863-.14224.8659-.071121.28863-.14224.8659.14224.8659-.07112.57727-.21336.57727-.14224 1.4432-1.0668.28863-.07112.28863.07112.28863-.21336h.57727l.28863-.3556.57727-.28448.57727-.56896.8659.07112.57727-.42672.28863.071121.57727-.42672.28863-.42672.28863.14224.28863-.28448.28863-.07112.28863.21336.28863-.28448.57727.14224.57727-.42672.28863-.07112.28863-.21336.57727.07112.28863-.21336h.28863l.28863.14224.28863-.07112.28863-.3556.28863.07112.8659-.21336.28863.071121.28863-.071121.57727.071121 2.0204.07112.28863.21336 2.0204-.07112.57727-.071121 1.4432.071121.28863.14224.28863-.14224h1.1545l.28863-.14224.8659.07112.57727.071121 2.5977-.071121.57727-.07112 1.1545.07112.28863-.21336 1.1545-.21336.28863.14224.28863-.21336.57727-.07112.8659.14224.28863-.21336.57727-.07112h.28863l.57727-.21336 3.175-.07112.57727-.21336.57727-.28448 1.4432-.07112.57727-.28448.8659-.64008h.28863l.28863-.14224.57727.07112 1.1545-.85344.28863.14224.28863-.14224.28863-.42672.8659-.49784.28863-.21336h.28863l.57727-.85344.8659-.64008.28863-.42672h.28863l.57727-.64008.28863.14224.57727-.07112.28863-.42672.28863.07112.8659-.64008.28863-.07112.28863-.42672h.28863l.57727-.3556.8659-.3556 1.1545-.071121.8659-.3556 1.7318.07112.57727.071121 2.0204.07112.57727.07112 1.1545-.14224.28863-.071121.28863.071121.57727-.071121h2.8863l.28863-.14224.8659-.071121.57727-.07112 1.1545-.07112.28863-.071121.8659.28448.57727-.21336 1.4432-.071121.8659-.14224.57727-.071121.28863-.14224 1.7318.07112.28863-.21336.8659-.21336.57727-.3556h.28863l.28863-.14224.57727-.42672.28863.07112.8659-.21336.57727.14224.57727-.071121.28863.071121 1.7318-.85344.57727-.071121.8659-.21336.28863-.21336.57727-.071121.28863-.42672.28863-.14224.28863.07112.28863-.28448.28863-.071121.8659-1.6358.28863-.28448h.28863l.28863-.14224.57727-.49784.28863-.14224.28863-.49784 1.7318-1.2802.8659-.85344.28863-.49784 1.1545-.3556.28863.14224.28863-.071121.28863-.21336.28863-.07112.28863-.28448h.28863l.28863-.14224.28863.07112 2.0204-.42672.8659-.07112.57727-.14224.57727.071121 1.7318-.071121.28863-.07112.28863.07112.57727-.07112.57727.07112 1.7318-.07112.28863-.07112.57727.07112 1.1545-.07112 1.7318-.3556m.57727.21336.28863-.14224h.28863l.28863-.14224h3.175l.28863-.21336 1.1545-.14224.28863-.07112.28863.07112.57727-.3556.28863.07112.57727-.07112.28863.07112.28863-.14224.57727.14224.28863-.14224.8659-.07112.57727-.28448.57727.28448.57727-.3556.8659-.28448.8659-.3556.28863-.3556.28863-.14224h.28863l.28863-.21336h.57727l.57727-.49784.57727.28448.28863-.28448.28863-.49784.57727-.28448h.28863l1.1545-.64008.57727-.49784.57727-.14224.28863-.49784.28863-.21336.28863-.64008.8659-.7112h.28863l.57727-.56896.8659-.28448.28863-.14224.57727-.42672.28863-.07112.28863-.28448.57727.07112.28863-.21336.57727.14224.28863-.28448h.57727l.28863-.21336.8659-.07112 1.1545-.14224.28863-.07112.28863.07112 1.1545-.56896 1.4432-.071121.28863-.07112.8659.14224 1.4432-.071121.28863-.07112.57727.14224.8659-.14224.28863.07112.28864-.07112.8659.14224h.57727l.28863-.28448 2.3091-.07112.8659-.14224.8659.14224 1.1545-.07112.28863-.21336.8659-.07112.8659-.3556 1.1545-.21336.57727-.07112 1.4432-.28448.8659-.07112.28863-.14224h.28863l.28863-.28448h.28863l.57727-.7112.57727-.3556.28863-.21336 1.1545-.28448.28863-.3556.28863-.14224h.28863l.8659-.3556h.28863l.28863-.28448.57727-.071121.57727-.7112.57727-.3556 2.3091-1.7069.28863-.071121 1.1545-1.1379.28863.07112.57727-1.0668.57727-.42672.57727-.071121.28863-.49784h.28863l.57727-.28448.28863-.28448h.28863l.57727-.28448.28863-.42672.28863-.07112.57727-.3556.57727.07112.28863-.3556.57727-.21336 1.4432-.071121.28863.28448.57727.07112h.28863l.28863-.21336.8659-.14224 1.7318-.07112.57727-.07112.28863-.28448.8659-.071121.57727-.07112 5.7727-.07112.57727-.14224.28863.07112 1.7318-.49784.28863-.14224h.28863l.28863-.14224h.28863l.28863-.14224.8659.14224.57727-.071121h.57727l.57727-.21336.28863-.3556 1.1545-.49784h.57727l.57727-.28448.28864.07112.57727-.21336.28863.14224.28863-.14224.57727-.07112.57727-.42672.57727-.28448h.28863l.57727-.21336.28863.14224.57727-.21336.28863-.3556 1.4432-.64008.28863.07112.8659-.3556.28863.07112.28863-.21336h.28863l1.1545-.78232.28863-.14224 1.4432-1.3513h.28863l.28863-.28448.28863-.07112 1.4432-2.2047.57727-.07112 1.4432-1.2802.28863-.14224.28863-.28448.28863-.071121.57727-.49784.28863-.28448.8659-.21336.57727-.3556 1.7318-.3556.28863.07112.57727-.07112.8659.14224 1.4432-.07112.57727-.07112 1.4432-.071121.57727-.07112.57727.07112.8659.071121.8659.14224.28863-.14224.57727.07112 1.1545.21336.28863-.14224.28863.14224.57727-.07112.28863-.28448 1.1545-.28448.57727.14224 1.1545-.42672h.28863l.28863-.14224.57727-.07112 1.7318-.3556.28863.07112.28863-.14224h.28863l.8659-.7112h.28863l1.4432-.64008 1.4432-.3556.28863-.3556.57727.071121.8659-.7112.28863-.21336.28863.071121.28863-.071121.28863-.28448.57727.49784.57727.21336 1.4432-.3556.28863-.3556.28863-.07112.57727-.49784h.28863l.57727-.28448.28863.07112.28863-.3556.28863-.14224.57727-.56896.28863-.49784.57727-.49784.28863-.49784.28863-.14224.57727-.7112h.28863l.57727-.64008.28863.07112.57727-.42672.28863-.7112.28863-.07112.28863-.49784.28863-.07112.28863-.28448.28863-.56896.57727-.3556.57727-.07112.57727-.64008.57727-.07112.57727-.42672.28863-.42672.28863-.07112.28863-.21336.28863-.071121.8659-.85344.57727-.07112 1.1545.28448.28863-.21336.28863-.07112.8659.14224 1.7318-.071121 1.1545-.21336 2.0204-.07112.8659-.14224 2.0204-.07112 1.1545-.21336h.8659l.57727-.28448.28863.07112.28864-.07112.28863.07112.28863-.07112.57727.07112.57727-.07112.57727.07112.28863-.21336 1.1545-.28448.28863-.21336h.28863l.57727-.3556.57727-.21336.28863-.14224.57727.07112 1.4432-.3556.28863-.28448.57727-.14224.28863.071121.28863.28448.28863.07112.28863-.14224.28863.07112.8659-.64008.28863.14224.28863-.071121.57727-.42672.57727.071121h.28863l.28863-.28448.28863.071121.57727-.49784h.57727l.57727-.21336.28863.07112.28863-.07112.28863.07112 1.1545-.99568.57727-.3556.57727-.7112.28863-.07112.28863-.56896.28863.071121.28863-.42672.28863-.07112.28863-.42672.57727-.28448.57727-.64008h.28863l.28864-.49784.28863-.07112.57727-.56896.28863.14224 1.1545-.49784.57727.21336.57727-.21336 1.7318-.3556 1.1545-.07112 1.4432-.28448 1.1545-.14224 1.4432-.071121 1.7318-.3556h2.0204l.28863.14224h.57727l.57727.14224.28863-.14224h.57727l.28863-.14224.28863.07112 1.1545-.28448.57727.07112h.28863l.28863-.21336 2.5977-.07112.8659-.42672 1.4432-.071121.57727-.21336.28863.14224.28863-.21336.57727-.07112h.28863l.28863-.14224.8659.07112.57727.21336.57727-.07112.28863-.14224.57727.071121.28863-.14224.28863.07112 1.1545-.3556.57727-.42672.28863.21336.28863-.21336.28864-.071121.28863-.21336h.57727l.28863-.21336h.28863l.28863-.42672.28863.21336h.28863l.28863-.7112.8659-.49784.57727-.3556.28863-.14224.57727-1.0668.28863.14224.28863-.14224h.28863l1.1545-1.209.28863.071121.57727-.49784.28863-.49784.28863.14224.28863-.21336.28863-.071121.28863-.21336.28863-.07112.28863-.3556.57727.071121.28863-.14224.28864-.28448.28863-.07112.28863-.3556.28863-.14224.28863.071121 2.0204-.92456 1.4432-.07112.8659-.14224h.8659l.28863-.14224 1.7318-.071121 1.1545-.28448.57727.07112h.28863l.28864-.14224 1.1545.07112.8659.14224 1.1545-.21336 1.1545-.14224 1.4432-.07112 1.1545-.21336.8659.07112 1.1545.21336h.28863l.28863-.21336.28863-.07112.8659-.7112h2.5977l.28863-.14224.28863.07112.57727-.14224.28863.07112.57727-.21336 1.1545-.21336.28863-.3556.57727-.21336.28863.071121.28863.21336h.28863l.28863-.21336.28863-.3556.28863-.07112.28863-.21336.28863-.071121.28863.14224.8659-.49784.28863-.21336h.28863l1.1545-1.1379.57727-.14224.8659-.99568.28863-.3556.8659-.49784.57727-.7112.28863-.14224.28863-.56896.28863-.21336.8659-.28448.28863.14224.28863-.28448.57727-.21336.28863-.21336.28863.14224.28863-.28448h.28863l.28863-.14224.8659-.92456 1.4432.071121.28863-.21336 1.1545-.071121.8659-.14224.8659.14224 2.3091-.07112.8659-.14224h3.7522l.28863-.28448 1.4432-.07112 1.4432-.28448 2.0204-.071121.57727-.21336.28863.071121 1.1545-.14224 1.4432-.42672.28863-.14224.28863-.3556.57727-.21336.28863-.21336 1.1545-.3556.28863.14224h.28863l.28864-.21336h.57727l.57727-.3556.28863.07112.28863-.14224.28863.14224 1.1545-.49784.28863.07112 2.0204-.56896.28863.14224.57727-.14224.28863-.21336.57727-.07112.28863.07112.57727-.21336 1.1545-.49784.28863-.071121.28863-.42672.28863-.21336.28863-.3556.57727-.21336.28863-.14224.28863-.3556.28863.071121.28863-.071121.57727-.3556.28863-.42672.57727-.3556.28863-.56896 1.1545-.49784.28863-.42672.28863-.14224.28863-.56896.8659-.64008.28863-.3556.57727-.071121.28863.21336.57727-.21336.28863-.21336h.28863l.28863.14224 1.1545-.3556.8659-.42672.28863.071121 1.1545-.21336 2.0204-.071121.57727-.07112 3.4636.07112.28863.14224 1.1545-.14224 2.8863.071121 1.7318.21336.8659-.28448.57727-.21336 1.1545-.21336.57727.14224.28863-.07112.28863.14224.28863-.07112.28863-.21336.28863.21336h.8659l.28863-.21336.28863.07112.57727-.3556.28863.14224.28863-.28448.28863.21336 1.4432-.07112m1.1545 0 .8659-.14224.57727-.3556.28863-.3556.57727-.07112h.28863l.57727-.42672.57727.14224.57727-.3556.28863.14224.28863-.3556.28863.21336.28863-.071121.8659-1.0668.28863-.07112.28863-.28448.28863.07112.28863-.14224.28863-.64008 1.4432-1.5646.28864-.42672.28863-.07112.8659-.7112.28863-.21336.28863-.42672h.28863l.28863-.64008.57727-.64008h.57727l.28863-.14224.28863-.28448.28863.07112.28863-.07112.57727-.3556h.28863l.57727-.3556.8659-.49784.28863-.21336v0" clip-path="url(#d)" fill="none" stroke="#28f" stroke-linecap="square" stroke-width="1.5"/>
   </g>
   <g id="fy">
    <path d="m52 523.06v-232.9" fill="none" stroke="#000" stroke-linecap="square" stroke-width=".8"/>
   </g>
   <g id="fz">
    <path d="m853.2 523.06v-232.9" fill="none" stroke="#000" stroke-linecap="square" stroke-width=".8"/>
   </g>
   <g id="ga">
    <path d="m52 523.06h801.2" fill="none" stroke="#000" stroke-linecap="square" stroke-width=".8"/>
   </g>
   <g id="gb">
    <path d="m52 290.16h801.2" fill="none" stroke="#000" stroke-linecap="square" stroke-width=".8"/>
   </g>
   <g id="gc">
    <!-- サーバー数の推移 -->
    <g transform="translate(404.6 284.16) scale(.12 -.12)">
     <defs>
      <path id="z" transform="scale(.015625)" d="m4685 2893q0-621-84-1111-83-489-288-877-204-387-569-691t-928-560l-544 512q448 167 781 371 333 205 550 503 218 298 323 739 106 442 106 1075v1620q0 192-10 339-9 147-22 217h723q-6-70-22-217t-16-339v-1581zm-2304 2086q-7-64-23-199-16-134-16-313v-2317q0-128 6-256 7-128 13-224 7-96 13-140h-710q6 44 12 140 7 96 13 221 7 125 7 259v2317q0 122-10 256-9 135-28 256h723zm-1978-1197q45-12 144-22t237-20q138-9 285-9h4217q237 0 394 13t246 26v-679q-76 7-240 13-163 6-393 6h-4224q-147 0-282-3-134-3-234-10-99-6-150-12v697z"/>
      <path id="s" transform="scale(.015625)" d="m621 2854q109-6 265-16 157-9 339-16 183-6 349-6 128 0 352 0t509 0 598 0q314 0 624 0 311 0 586 0t486 0q212 0 327 0 230 0 416 16t301 22v-793q-109 6-308 19-198 13-409 13-109 0-324 0-214 0-489 0t-586 0q-310 0-624 0-313 0-598 0t-509 0-352 0q-262 0-525-10-262-9-428-22v793z"/>
      <path id="y" transform="scale(.015625)" d="m4941 5037q83-109 176-269t182-320q90-160 154-288l-416-179q-96 192-240 448t-272 435l416 173zm723 275q83-122 182-282 100-160 196-317 96-156 153-271l-416-186q-102 205-246 454-144 250-279 429l410 173zm-4339-3360q102 262 201 556 100 295 183 612t144 630q61 314 93 602l723-147q-19-83-45-183-26-99-48-195t-42-166q-32-154-86-394t-131-512-164-551q-86-278-182-514-115-301-269-618-153-317-326-618-173-300-346-550l-697 294q301 397 563 874t429 880zm3155 198q-96 250-215 531-118 282-243 567-124 285-246 534-122 250-224 429l659 218q96-179 221-429t253-535q128-284 249-566 122-281 218-525 90-230 195-518 106-288 211-592 106-304 195-589 90-285 154-515l-729-237q-84 352-199 736t-240 768-259 723z"/>
     </defs>
     <use xlink:href="#z"/>
     <use transform="translate(100)" xlink:href="#s"/>
     <use transform="translate(200)" xlink:href="#y"/>
     <use transform="translate(300)" xlink:href="#s"/>
     <use transform="translate(400)" xlink:href="#p"/>
     <use transform="translate(500)" xlink:href="#t"/>
     <use transform="translate(600)" xlink:href="#q"/>
     <use transform="translate(700)" xlink:href="#o"/>
    </g>
   </g>
  </g>
 </g>
 <defs>
  <clipPath id="c">
   <rect x="52" y="26.88" width="801.2" height="232.9"/>
  </clipPath>
  <clipPath id="d">
   <rect x="52" y="290.16" width="801.2" height="232.9"/>
  </clipPath>
 </defs>
</svg>
