<!DOCTYPE svg  PUBLIC '-//W3C//DTD SVG 1.1//EN'  'http://www.w3.org/Graphics/SVG/1.1/DTD/svg11.dtd'>
<svg version="1.1" viewBox="0 0 864 576" xmlns="http://www.w3.org/2000/svg" xmlns:xlink="http://www.w3.org/1999/xlink">
 <defs>
  <style type="text/css">*{stroke-linejoin: round; stroke-linecap: butt}</style>
 </defs>
 <g id="aa">
  <g id="ab">
   <path d="m0 576h864v-576h-864z" fill="#fff"/>
  </g>
  <g id="ac">
   <g id="ad">
    <path d="m52 259.78h801.2v-232.9h-801.2z" fill="#fff"/>
   </g>
   <g id="ae">
    <path d="m134.12 259.78h.821v-232.9h-.821z" clip-path="url(#d)" fill="#808080" opacity=".3" stroke="#808080"/>
   </g>
   <g id="af">
    <path d="m436.38 259.78h.54734v-232.9h-.54734z" clip-path="url(#d)" fill="#808080" opacity=".3" stroke="#808080"/>
   </g>
   <g id="ag">
    <path d="m762.05 259.78h1.0947v-232.9h-1.0947z" clip-path="url(#d)" fill="#808080" opacity=".3" stroke="#808080"/>
   </g>
   <g id="ah">
    <g id="ai">
     <g id="aj">
      <path d="m104.97 259.78v-232.9" clip-path="url(#d)" fill="none" stroke="#b0b0b0" stroke-linecap="square" stroke-opacity=".3" stroke-width=".8"/>
     </g>
     <g id="ak">
      <defs>
       <path id="e" d="m0 0v3.5" stroke="#000" stroke-width=".8"/>
      </defs>
      <use x="104.970999" y="259.777732" stroke="#000000" stroke-width=".8" xlink:href="#e"/>
     </g>
    </g>
    <g id="al">
     <g id="am">
      <path d="m183.79 259.78v-232.9" clip-path="url(#d)" fill="none" stroke="#b0b0b0" stroke-linecap="square" stroke-opacity=".3" stroke-width=".8"/>
     </g>
     <g id="an">
      <use x="183.787422" y="259.777732" stroke="#000000" stroke-width=".8" xlink:href="#e"/>
     </g>
    </g>
    <g id="ao">
     <g id="ap">
      <path d="m262.6 259.78v-232.9" clip-path="url(#d)" fill="none" stroke="#b0b0b0" stroke-linecap="square" stroke-opacity=".3" stroke-width=".8"/>
     </g>
     <g id="aq">
      <use x="262.603845" y="259.777732" stroke="#000000" stroke-width=".8" xlink:href="#e"/>
     </g>
    </g>
    <g id="ar">
     <g id="as">
      <path d="m341.42 259.78v-232.9" clip-path="url(#d)" fill="none" stroke="#b0b0b0" stroke-linecap="square" stroke-opacity=".3" stroke-width=".8"/>
     </g>
     <g id="at">
      <use x="341.420268" y="259.777732" stroke="#000000" stroke-width=".8" xlink:href="#e"/>
     </g>
    </g>
    <g id="au">
     <g id="av">
      <path d="m420.24 259.78v-232.9" clip-path="url(#d)" fill="none" stroke="#b0b0b0" stroke-linecap="square" stroke-opacity=".3" stroke-width=".8"/>
     </g>
     <g id="aw">
      <use x="420.236691" y="259.777732" stroke="#000000" stroke-width=".8" xlink:href="#e"/>
     </g>
    </g>
    <g id="ax">
     <g id="ay">
      <path d="m499.05 259.78v-232.9" clip-path="url(#d)" fill="none" stroke="#b0b0b0" stroke-linecap="square" stroke-opacity=".3" stroke-width=".8"/>
     </g>
     <g id="az">
      <use x="499.053113" y="259.777732" stroke="#000000" stroke-width=".8" xlink:href="#e"/>
     </g>
    </g>
    <g id="ba">
     <g id="bb">
      <path d="m577.87 259.78v-232.9" clip-path="url(#d)" fill="none" stroke="#b0b0b0" stroke-linecap="square" stroke-opacity=".3" stroke-width=".8"/>
     </g>
     <g id="bc">
      <use x="577.869536" y="259.777732" stroke="#000000" stroke-width=".8" xlink:href="#e"/>
     </g>
    </g>
    <g id="bd">
     <g id="be">
      <path d="m656.69 259.78v-232.9" clip-path="url(#d)" fill="none" stroke="#b0b0b0" stroke-linecap="square" stroke-opacity=".3" stroke-width=".8"/>
     </g>
     <g id="bf">
      <use x="656.685959" y="259.777732" stroke="#000000" stroke-width=".8" xlink:href="#e"/>
     </g>
    </g>
    <g id="bg">
     <g id="bh">
      <path d="m735.5 259.78v-232.9" clip-path="url(#d)" fill="none" stroke="#b0b0b0" stroke-linecap="square" stroke-opacity=".3" stroke-width=".8"/>
     </g>
     <g id="bi">
      <use x="735.502382" y="259.777732" stroke="#000000" stroke-width=".8" xlink:href="#e"/>
     </g>
    </g>
    <g id="bj">
     <g id="bk">
      <path d="m814.32 259.78v-232.9" clip-path="url(#d)" fill="none" stroke="#b0b0b0" stroke-linecap="square" stroke-opacity=".3" stroke-width=".8"/>
     </g>
     <g id="bl">
      <use x="814.318805" y="259.777732" stroke="#000000" stroke-width=".8" xlink:href="#e"/>
     </g>
    </g>
   </g>
   <g id="bm">
    <g id="bn">
     <g id="bo">
      <path d="m52 246.93h801.2" clip-path="url(#d)" fill="none" stroke="#b0b0b0" stroke-linecap="square" stroke-opacity=".3" stroke-width=".8"/>
     </g>
     <g id="bp">
      <defs>
       <path id="h" d="m0 0h-3.5" stroke="#000" stroke-width=".8"/>
      </defs>
      <use x="52" y="246.926099" stroke="#000000" stroke-width=".8" xlink:href="#h"/>
     </g>
     <g id="bq">
      <!-- 300 -->
      <g transform="translate(27.9 250.91) scale(.1 -.1)">
       <defs>
        <path id="o" transform="scale(.015625)" d="m1715-90q-371 0-656 90t-503 240q-217 150-377 323l359 474q211-205 479-359 269-153 634-153 269 0 467 92 199 93 311 266t112 423q0 256-125 451t-429 300q-304 106-835 106v551q467 0 732 105 266 106 384 291 119 186 119 423 0 307-192 489-192 183-531 183-269 0-503-119-233-118-438-316l-384 460q282 256 614 413 333 157 737 157 422 0 748-144 327-144 512-413 186-269 186-659 0-403-221-685-221-281-592-422v-26q269-70 490-227t349-400 128-557q0-422-215-726-214-304-573-468-358-163-787-163z"/>
        <path id="a" transform="scale(.015625)" d="m1830-90q-460 0-806 275-346 276-535 823-188 547-188 1366 0 820 188 1357 189 538 535 803 346 266 806 266 461 0 800-269 340-269 528-803 189-534 189-1354 0-819-189-1366-188-547-528-823-339-275-800-275zm0 589q237 0 422 185 186 186 288 599 103 413 103 1091 0 679-103 1082-102 403-288 582-185 180-422 180-236 0-422-180-186-179-292-582-105-403-105-1082 0-678 105-1091 106-413 292-599 186-185 422-185z"/>
       </defs>
       <use xlink:href="#o"/>
       <use transform="translate(57)" xlink:href="#a"/>
       <use transform="translate(114)" xlink:href="#a"/>
      </g>
     </g>
    </g>
    <g id="br">
     <g id="bs">
      <path d="m52 220.79h801.2" clip-path="url(#d)" fill="none" stroke="#b0b0b0" stroke-linecap="square" stroke-opacity=".3" stroke-width=".8"/>
     </g>
     <g id="bt">
      <use x="52" y="220.787184" stroke="#000000" stroke-width=".8" xlink:href="#h"/>
     </g>
     <g id="bu">
      <!-- 600 -->
      <g transform="translate(27.9 224.77) scale(.1 -.1)">
       <defs>
        <path id="k" transform="scale(.015625)" d="m1971-90q-339 0-634 144-294 144-518 435-224 292-352 733-128 442-128 1044 0 678 147 1161 148 483 397 784 250 301 570 445t665 144q397 0 688-147 292-147 490-359l-403-448q-128 154-327 253-198 99-409 99-307 0-567-182-259-182-413-605-153-422-153-1145 0-608 115-1002t326-589q212-195 493-195 212 0 375 121 163 122 259 343t96 522q0 300-90 511-89 212-259 320-169 109-419 109-211 0-451-134t-458-461l-25 538q134 192 313 323t374 201q196 71 375 71 397 0 694-163 298-163 467-490 170-326 170-825 0-468-195-817-195-348-512-544-317-195-701-195z"/>
       </defs>
       <use xlink:href="#k"/>
       <use transform="translate(57)" xlink:href="#a"/>
       <use transform="translate(114)" xlink:href="#a"/>
      </g>
     </g>
    </g>
    <g id="bv">
     <g id="bw">
      <path d="m52 194.65h801.2" clip-path="url(#d)" fill="none" stroke="#b0b0b0" stroke-linecap="square" stroke-opacity=".3" stroke-width=".8"/>
     </g>
     <g id="bx">
      <use x="52" y="194.648269" stroke="#000000" stroke-width=".8" xlink:href="#h"/>
     </g>
     <g id="by">
      <!-- 900 -->
      <g transform="translate(27.9 198.63) scale(.1 -.1)">
       <defs>
        <path id="m" transform="scale(.015625)" d="m1562-90q-410 0-708 150-297 151-502 356l403 461q141-160 346-256t422-96q224 0 425 102 202 103 352 333 151 230 237 614 87 384 87 941 0 589-115 970t-323 563-496 182q-205 0-372-118-166-118-262-336t-96-525q0-301 86-512 87-211 259-323 173-112 417-112 224 0 460 141 237 141 448 461l32-544q-134-180-313-314t-371-208-384-74q-391 0-689 166-297 167-467 496-169 330-169 823 0 467 195 816t515 541 698 192q339 0 636-138 298-137 519-419 221-281 349-710t128-1018q0-691-141-1187t-391-807q-249-310-563-461-313-150-652-150z"/>
       </defs>
       <use xlink:href="#m"/>
       <use transform="translate(57)" xlink:href="#a"/>
       <use transform="translate(114)" xlink:href="#a"/>
      </g>
     </g>
    </g>
    <g id="bz">
     <g id="ca">
      <path d="m52 168.51h801.2" clip-path="url(#d)" fill="none" stroke="#b0b0b0" stroke-linecap="square" stroke-opacity=".3" stroke-width=".8"/>
     </g>
     <g id="cb">
      <use x="52" y="168.509354" stroke="#000000" stroke-width=".8" xlink:href="#h"/>
     </g>
     <g id="cc">
      <!-- 1200 -->
      <g transform="translate(22.2 172.49) scale(.1 -.1)">
       <defs>
        <path id="f" transform="scale(.015625)" d="m544 0v608h1037v3277h-845v467q333 58 579 147 247 90 451 218h557v-4109h915v-608h-2694z"/>
        <path id="b" transform="scale(.015625)" d="m282 0v429q697 621 1164 1136 468 515 701 956 234 442 234 826 0 256-87 451-86 196-262 301-176 106-445 106-275 0-506-151-230-150-422-368l-416 410q301 333 637 518 336 186 803 186 429 0 749-176t496-493 176-745q0-455-224-919t-615-935q-390-470-889-950 186 20 394 36t374 16h1184v-634h-3046z"/>
       </defs>
       <use xlink:href="#f"/>
       <use transform="translate(57)" xlink:href="#b"/>
       <use transform="translate(114)" xlink:href="#a"/>
       <use transform="translate(171)" xlink:href="#a"/>
      </g>
     </g>
    </g>
    <g id="cd">
     <g id="ce">
      <path d="m52 142.37h801.2" clip-path="url(#d)" fill="none" stroke="#b0b0b0" stroke-linecap="square" stroke-opacity=".3" stroke-width=".8"/>
     </g>
     <g id="cf">
      <use x="52" y="142.370439" stroke="#000000" stroke-width=".8" xlink:href="#h"/>
     </g>
     <g id="cg">
      <!-- 1500 -->
      <g transform="translate(22.2 146.36) scale(.1 -.1)">
       <defs>
        <path id="j" transform="scale(.015625)" d="m1715-90q-365 0-653 90t-506 237q-217 147-383 307l352 480q134-134 294-246t361-183q202-70 452-70 262 0 473 118 212 119 333 346 122 227 122 541 0 460-247 716-246 256-649 256-224 0-384-64t-365-198l-365 237 141 2240h2387v-627h-1747l-109-1204q154 77 307 118 154 42 340 42 397 0 723-160t518-490q192-329 192-847 0-519-224-887t-586-560q-361-192-777-192z"/>
       </defs>
       <use xlink:href="#f"/>
       <use transform="translate(57)" xlink:href="#j"/>
       <use transform="translate(114)" xlink:href="#a"/>
       <use transform="translate(171)" xlink:href="#a"/>
      </g>
     </g>
    </g>
    <g id="ch">
     <g id="ci">
      <path d="m52 116.23h801.2" clip-path="url(#d)" fill="none" stroke="#b0b0b0" stroke-linecap="square" stroke-opacity=".3" stroke-width=".8"/>
     </g>
     <g id="cj">
      <use x="52" y="116.231524" stroke="#000000" stroke-width=".8" xlink:href="#h"/>
     </g>
     <g id="ck">
      <!-- 1800 -->
      <g transform="translate(22.2 120.22) scale(.1 -.1)">
       <defs>
        <path id="l" transform="scale(.015625)" d="m1830-90q-441 0-787 163-345 164-547 448-202 285-202 650 0 314 122 557t314 419 403 291v32q-256 186-442 458-185 272-185 643 0 365 176 640t480 425q304 151 694 151 410 0 704-160t457-439q164-278 164-649 0-237-96-448t-234-381q-137-169-291-278v-32q218-115 397-285 179-169 288-406t109-557q0-346-189-628-189-281-532-448-342-166-803-166zm314 2708q205 198 310 419 106 221 106 464 0 211-83 384t-247 272q-163 99-393 99-288 0-480-183-192-182-192-502 0-256 134-429 135-172 359-294t486-230zm-294-2170q236 0 418 89 183 90 285 253 103 164 103 388 0 211-90 367-89 157-246 272-157 116-368 215t-454 195q-244-173-398-426-153-252-153-553 0-237 118-416 119-179 324-282 205-102 461-102z"/>
       </defs>
       <use xlink:href="#f"/>
       <use transform="translate(57)" xlink:href="#l"/>
       <use transform="translate(114)" xlink:href="#a"/>
       <use transform="translate(171)" xlink:href="#a"/>
      </g>
     </g>
    </g>
    <g id="cl">
     <g id="cm">
      <path d="m52 90.093h801.2" clip-path="url(#d)" fill="none" stroke="#b0b0b0" stroke-linecap="square" stroke-opacity=".3" stroke-width=".8"/>
     </g>
     <g id="cn">
      <use x="52" y="90.092609" stroke="#000000" stroke-width=".8" xlink:href="#h"/>
     </g>
     <g id="co">
      <!-- 2100 -->
      <g transform="translate(22.2 94.078) scale(.1 -.1)">
       <use xlink:href="#b"/>
       <use transform="translate(57)" xlink:href="#f"/>
       <use transform="translate(114)" xlink:href="#a"/>
       <use transform="translate(171)" xlink:href="#a"/>
      </g>
     </g>
    </g>
    <g id="cp">
     <g id="cq">
      <path d="m52 63.954h801.2" clip-path="url(#d)" fill="none" stroke="#b0b0b0" stroke-linecap="square" stroke-opacity=".3" stroke-width=".8"/>
     </g>
     <g id="cr">
      <use x="52" y="63.953694" stroke="#000000" stroke-width=".8" xlink:href="#h"/>
     </g>
     <g id="cs">
      <!-- 2400 -->
      <g transform="translate(22.2 67.939) scale(.1 -.1)">
       <defs>
        <path id="n" transform="scale(.015625)" d="m2170 0v3072q0 192 12 457 13 266 20 458h-26q-90-179-183-365-92-185-195-364l-921-1415h2579v-576h-3328v493l1875 2957h858v-4717h-691z"/>
       </defs>
       <use xlink:href="#b"/>
       <use transform="translate(57)" xlink:href="#n"/>
       <use transform="translate(114)" xlink:href="#a"/>
       <use transform="translate(171)" xlink:href="#a"/>
      </g>
     </g>
    </g>
    <g id="ct">
     <g id="cu">
      <path d="m52 37.815h801.2" clip-path="url(#d)" fill="none" stroke="#b0b0b0" stroke-linecap="square" stroke-opacity=".3" stroke-width=".8"/>
     </g>
     <g id="cv">
      <use x="52" y="37.814779" stroke="#000000" stroke-width=".8" xlink:href="#h"/>
     </g>
     <g id="cw">
      <!-- 2700 -->
      <g transform="translate(22.2 41.8) scale(.1 -.1)">
       <defs>
        <path id="i" transform="scale(.015625)" d="m1235 0q32 646 109 1187t224 1024 384 941 576 938h-2208v627h3027v-455q-409-512-665-989-256-476-397-969t-205-1053-90-1251h-755z"/>
       </defs>
       <use xlink:href="#b"/>
       <use transform="translate(57)" xlink:href="#i"/>
       <use transform="translate(114)" xlink:href="#a"/>
       <use transform="translate(171)" xlink:href="#a"/>
      </g>
     </g>
    </g>
   </g>
   <g id="cx">
    <path d="m88.418 222.44.077995.17426.068873-.34852.28462.34852.14504-.08713.38724-.8713.82146-3.2238.83514-5.1407.40868-1.3069.41141-.17426.38678-1.6555.4105-1.2198.4105-2.0911.4105-2.7882.4105-.60991 1.2315-8.8872 1.642-10.281.4105-1.3941.4105-.78417.4105-2.004.4105-5.3149 1.2315-24.309 2.463-65.783.4105-15.248.4105-5.3149.4105-2.3525.4105-.78417.4105 2.6139.4105 1.5683 2.0525 43.565.821 21.608.821 19.778 1.2315 23.874.821 12.198 1.642 19.604.4105 2.701.4105 3.9208.4105 2.7882.4105 3.6594.4105 1.9169.4105 3.2238 1.2315 6.5347.4105 2.4396.4105 1.5683.4105 3.4852.4105 1.1327.4105 1.7426.821 1.6555.4105 1.1327.4105.26139.4105 1.3069.4105.52278.821.26139.821-.43565 1.2315-2.8753.4105-.26139.4105-.95843.4105-.43565.821-3.3981.821-3.9208.4105.26139.4105-.17426.4105-2.7882.4105-1.5683.4105-.78417.821-2.7882.4105-3.1367.4105-1.7426.4105-.60991 1.2315-4.2694.4105-3.9208.4105-2.4396.4105-3.6594 1.2315-7.8417.4105-1.3941m.821 19.517.4105-12.285.4105-2.3525.4105-1.3941 1.2315-13.418.4105-6.012.821-18.21.821-22.654.4105-16.293 1.2315-31.105.821-14.725.4105-3.7466.4105.43565.4105-1.2198.4105 1.7426.821 8.8001.821 21.173.4105 6.9704 1.2315 28.404.821 14.725.821 16.555.821 12.111.821 10.891 2.0525 21.608 2.463 12.808.821 5.7506.821 3.1367.4105.43565.4105.8713.4105 1.3069.4105.60991 1.2315 4.5307.4105-.43565.4105.34852h.4105l.4105.52278.4105-1.3069.4105.17426.4105-.34852.4105-.52278.4105-.26139.4105-.60991.4105.08713.4105-.52278.4105-2.0911.4105-1.4812.4105-.8713 1.642-6.2733.4105-1.0456.4105-2.2654.4105-1.2198.4105-2.701.4105-1.0456.4105-3.2238.4105-1.6555.4105-3.3109.4105-.95843.821-2.701.4105-2.2654.4105-1.3941.821-6.012.4105-1.8297.4105-.43565.4105-3.1367.4105-1.1327.4105-2.3525 1.2315-4.5307 1.2315-18.733 1.2315-27.62.4105-13.766 1.642-36.856.821-12.111.821-4.4436.4105 1.0456.4105 3.7466.821 17.6 1.2315 28.23.821 19.43 1.2315 21.521.821 11.763 1.642 23.961 1.2315 13.418 1.642 12.547 2.8735 14.115.4105 1.1327.4105.69704.4105 1.1327.4105.60991h.4105l.54734.26139.54734.8713.13683-.08713.27367-.52278.54734.52278.13683.08713.27367-.60991.13683-.52278.13683.17426.27367-.95843h.13683l.13683.17426.13683-.17426.13683.087129.13684-.43565.13683.34852.4105-1.2198.13683.17426.13683-.08713.13683-.43565.13683.08713.27367-.78417.13683-.17426.27367-.8713.13684-.08713.27367-.52278.13683-.08713.27367-1.3941.13683.08713.27367-.43565.13683.08713.54734-1.2198.4105-2.701h.13683l.54734-2.3525.4105-1.5683h.13683l1.0947-4.3565.13683-1.0456.13683-.087129.95784-5.5763.4105-1.2198.27367-.69704.13683.17426.27367-2.0911.13683-.34852.27367-1.3941.13683-.34852.4105-3.0495.4105-.8713.27367-1.7426.13683-.087129.13683.17426.13683-.08713.4105-1.9169.27367-.95843.13683-1.6555.13683.26139 1.2315-7.406h.13683l.13683-.17426.27367-1.2198.13683.69704.13683-1.0456.13683.26139 1.2315-10.281.95784-17.774.68417-18.907.27367-11.153.4105-8.1031.95784-22.741.27367-9.5843.4105-8.0159.4105-4.1822.13683-3.2238.13683-.52278.13683.43565.54734-2.8753.13683-.34852.13683-1.0456.13683-.087129.27367.8713 1.2315 22.915.27367 4.7921.13683.78417.54734 12.547.4105 9.5843.821 15.683.4105 6.8832.54734 11.327 1.9157 31.192.4105 3.5723 1.9157 17.426 1.5052 8.8872.27367 1.2198.4105 3.0495.27367 1.9169.27367 2.1782.4105 2.1782.27367 1.2198.13683 1.6555.27367.43565.54734 2.9624.27367.69704.13683.17426.13683.60991.13683-.26139 1.0947 3.8337.4105.52278.13683-.08713.13683.43565.27367.08713.13683.26139.27367-.17426.13683.43565.13683-.34852.4105.34852.27367-.60991.13684-.43565.27367.17426.27367-.43565.54734-1.5683.27367-.69704.27367.26139.27367-.26139.54734-.95843.27367.43565.27367-1.2198.54734-3.2238.27367-1.3941.27367-.26139.27367-.95843.54734-.34852.54734-2.0911.27367-.08713.54734-3.3109.27367-.26139.27367-.78417h.27367l.27367-1.1327.27367-2.1782.821-3.2238.54734-2.9624.27367-2.2654.27367-.52278.54734-2.0911.54734-3.7466.27367.087129.54734-1.4812.54734-4.008.821-5.8377.27367-1.1327.27367-1.7426h.27367l.54734-3.1367.27367-.69704 1.3683-5.7506.821-11.24.821-17.426 2.1893-66.219.54734-11.763.54734-9.9328.54734-7.7545.821-5.5763h.27367l.27367 1.1327.27367 1.7426.821 7.406.821 16.206.27367-3.1367.54734 14.376.54734 10.63 1.3683 28.84 3.0104 55.937.54734 7.8417.821 7.5803.821 6.0991.27367 2.8753.54734 2.9624.27367 2.5268.27367 1.1327.54734 3.8337.27367.8713.27367-.17426.27367.087129.27367.43565.821 2.9624.27367-1.1327.27367-.43565.27367.60991.27367-.26139.27367.69704.27367-.34852.54734.26139.54734-2.2654.54734.087129.27367-1.5683.27367-.8713.27367-1.3941.27367.34852.27367-1.3069.27367-.60991 1.642-6.5347.54734-3.6594.54734-2.1782.54734-5.0535.54734-6.012.27367-.8713 1.3683-11.153.27367-1.3941.54734-3.5723.27367-.43565.27367-2.4396.54734-2.4396.27367-1.7426.27367-.60991.27367.34852.27367-.69704.27367-1.6555.27367-.78417.54734-2.1782.27367-.34852.27367.26139.27367-.26139.27367.69704.27367 2.2654.27367-.08713.27367.17426.27367-.34852.27367-.60991.27367.69704.27367-.08713.27367-.26139.27367-1.3941h.54734l.27367-2.8753 1.0947-17.339.821-20.737.27367-12.198 1.0947-25.703.821-20.388.54734-9.9328.27367-7.1446.27367-3.3109.27367-.60991.54734-4.0951.27367-.34852.27367.52278.27367 1.4812.27367.52278.27367 3.5723.54734 2.9624.54734 7.0575.54734 12.634.54734 7.0575.54734 11.065.54734 15.248 3.0104 59.248.54734 9.2358 1.3683 19.43.27367 3.0495.821 5.5763 1.0947 9.41.27367 1.5683.27367 3.0495 1.0947 4.8793.54734 1.6555.27367 2.004.27367-.087129.27367.52278.54734 1.3941.27367.26139.27367.52278.54734-.34852.54734-1.0456.27367-1.3069.54734.087129.27367-1.1327.27367-1.6555.54734-1.1327.27367.17426.27367-2.004.27367-1.0456.27367-1.9169.27367-.34852.27367-2.6139.27367-1.0456.27367-.34852.821-3.0495.27367-3.3109.54734-9.1486.27367-2.4396 1.0947-13.941.821-5.9248.821-2.6139.27367-1.3941.27367-3.0495.821-5.1407.54734-3.7466.27367-.43565.27367-1.2198h.27367l.27367-1.2198.27367.78417.27367-1.7426.27367.34852.27367.78417.27367 1.2198.821 1.7426.27367-.26139.27367 2.6139.821 2.6139.27367.17426.27367 1.1327.27367-.43565.27367-1.2198 1.0947-14.464.821-18.994.54734-13.069 1.642-33.893 1.0947-10.368.27367 1.9169.27367.78417.27367.26139.27367 1.1327.54734 5.402.821 20.388.27367 4.3565 1.0947 26.139.27367 2.9624.27367 6.7961.27367 3.6594.821 18.036 1.0947 18.297.54734 9.0615.27367 3.5723.27367 1.2198.821 10.456 1.0947 7.5803.27367 1.4812 1.0947 9.8457.27367 1.3941.54734 1.4812.27367 2.6139.27367 1.2198.54734 3.1367 2.1893 7.5803.27367-.17426.27367.69704.27367.26139.27367.52278.27367.08713.27367-.08713.27367-.43565.27367-.08713.27367.43565.27367-.60991.27367-.08713.27367-.26139.27367.17426.27367.43565h.27367l.54734-.8713.27367.43565.27367-.78417.27367-.08713.27367-1.0456.27367.17426.27367-.08713.27367-1.5683.27367-.69704.27367-1.3941.54734-1.0456.54734-1.6555.54734-4.2694.27367-.34852.821-3.6594.27367-.52278.821-3.1367.27367-.78417.27367-.087129.54734-2.2654.27367-.52278.27367-1.2198.27367-1.8297.54734-1.9169.27367-2.8753.821-2.6139.27367-.34852.27367-1.0456.27367-.08713 1.9157-11.065.27367-.78417.27367-.17426.821-4.9664.54734-6.3605.27367-4.008.821-15.248.54734-10.107 1.642-42.258.54734-9.9328.27367-7.406.54734-6.2733.54734-5.6634.821-2.4396.27367 1.3941.27367 2.004.54734 8.2773.27367 8.1902.821 16.293.27367 4.9664.821 21.608 1.3683 25.442.54734 7.5803.54734 8.4516 2.1893 24.832.821 5.4892 1.0947 6.709.54734 2.701.27367.69704 2.7367 12.721h.27367l.27367.43565.27367 1.4812.27367-.26139.27367.95843.27367.08713.27367 1.3941.54734.34852.54734.52278.27367.17426.821-.52278.27367-.78417.27367-.26139.27367-.69704.54734.34852.27367-.17426.27367.26139.54734.08713.27367-.08713.27367.60991.27367-.34852.821-3.8337.54734-1.2198.54734-1.6555.27367-1.2198.27367-.43565.821-2.7882.27367-2.6139.821-3.8337.27367-1.3941.54734-1.6555.821-4.0951.27367-1.5683.27367-.26139h.27367l.27367-.69704.27367-1.2198.27367-1.8297.27367-.95843.54734-2.7882.27367-2.004.27367-.69704.54734-2.701.27367.17426.54734-3.3981.27367-1.4812.54734-4.008h.27367l.54734-2.6139.27367-2.0911.27367-.60991.27367-2.0911.54734-11.763.54734-10.368.27367-6.2733 1.3683-42.345.54734-11.588.27367-8.6258.54734-6.6219.54734-5.8377.27367-2.7882.27367-.17426.54734-1.3069.27367 1.2198.27367 2.5268.821 13.854.27367 3.5723 2.463 52.539 1.3683 26.139 1.642 21.173.54734 6.7961.27367 1.8297.821 7.0575.27367 1.3941 1.0947 8.3645.27367 1.1327.821 5.2278 1.0947 3.6594.27367 1.7426.821 2.3525.54734.95843 1.0947 3.8337.27367.34852.27367.69704.27367-.26139.27367.17426.821-1.0456m.54734 2.4396.27367 1.3941.27367-.08713.27367.26139.54734-1.5683.27367-.08713.27367-.52278.27367.17426.27367-.8713.27367.087129.54734-2.5268.27367-.78417h.27367l.27367-.8713.27367-2.0911.27367-.26139.27367-.95843.27367-1.4812.27367-.34852 1.0947-4.8793.54734-2.9624.27367-1.0456.27367.17426.27367-1.1327.27367-2.6139.821-4.4436.27367-2.5268.27367-1.4812.27367-2.1782.54734-2.2654.54734-2.5268.27367-.34852.27367-.69704.27367-1.1327.27367.087129.54734-2.7882.27367.08713.54734-5.3149.54734-4.0951.54734.17426.27367-2.4396.27367-1.3069.27367-3.3981.27367-1.6555.27367-2.5268 1.3683-22.305.27367-5.7506.821-23.961 1.642-42.084 1.0947-15.858.27367-.52278.54734.78417.27367 1.8297.54734 5.8377.54734 12.547 1.0947 23.612.821 21.957.27367 5.3149.27367 2.9624 2.7367 47.311 1.0947 9.2358 2.463 18.907.27367.69704.821 4.8793.27367.60991 1.0947 6.3605.821 2.8753 1.3683 3.3109.821 3.3981.54734.60991.27367-.43565.27367-.78417.27367-.34852.27367.52278.27367-.8713.27367.087129.27367.69704.27367-.52278.27367.43565.821-1.4812.821-2.5268.27367-.52278.54734-2.1782.27367-.69704.54734-2.7882.27367.26139.27367-1.5683.27367-.52278.821-3.1367.27367-.52278.54734-2.004.27367-2.0911.27367-.43565 1.0947-5.1407.27367-.78417.27367-1.3941.27367-.78417.54734-2.7882.54734-2.004.54734-2.3525.54734-2.0911.27367-2.4396.27367-.34852.27367-1.2198.27367-2.701.821-3.6594.27367-.43565.27367-.17426.27367-1.1327.54734-6.2733.821-8.5387.821-16.99 1.642-33.196.821-20.04.27367-5.1407.54734-16.119.821-16.119.27367-2.7882.27367-.34852.27367-5.1407.27367-2.1782.27367-.08713.54734 2.3525.27367 5.0535.54734 15.248.54734 11.414 1.642 41.561.54734 11.588 1.0947 19.691 1.3683 21.521 1.3683 15.858.54734 5.2278 1.9157 12.111 2.1893 12.198.27367-.08713.54734 2.4396.54734 1.4812.27367.34852.27367 1.0456.27367-.17426 1.3683 2.7882.27367-.17426.27367.52278.821-.17426.54734-.78417.54734-.34852.27367-1.2198.27367-.17426h.27367l.27367-.43565.27367.52278.27367.08713.27367-.52278.54734-2.4396.54734-2.7882 1.9157-7.4932h.27367l.54734-1.7426.27367-1.6555.27367-.43565.54734-3.8337.27367.087129.27367-.69704.27367-.34852.27367-1.3069.27367-.08713 1.0947-8.4516.54734-2.3525.27367-.43565.54734-2.4396.27367-.34852.27367-.95843.27367-2.7882 1.0947-5.3149.27367-1.3069.27367-.08713.27367-.26139.54734-2.7882.27367-2.004 1.0947-13.244 1.3683-27.62.54734-17.426 2.1893-58.028.27367-5.3149.54734-5.4892.27367-3.8337.27367-.69704.27367-2.7882.27367 2.5268.27367-.17426.821 9.4971.27367 1.6555.54734 9.1486 4.105 88.262 1.9157 28.143.54734 5.3149.27367 4.0951 1.0947 8.9744.27367 1.4812.27367 3.7466.27367.60991.27367 2.4396.27367 1.3069.27367 2.0911.27367.78417.27367 2.0911.27367.69704.821 3.3981.54734.78417.27367-.087129.54734.087129.27367-.26139.27367.17426.27367-.17426.27367-.43565.54734-1.3941.27367-.26139 1.0947-3.7466.27367-.087129.54734-2.7882.54734-3.6594.27367-1.2198.27367.43565.27367-.17426.821-3.9208.27367.26139.27367-1.6555.27367-.34852.27367-1.2198.54734-8.9744 1.0947-9.8457.27367-1.3069.27367-2.5268.27367-3.7466.54734-2.7882.54734-4.1822.54734-3.8337.27367-3.1367.54734-2.0911.27367-.52278.27367-.8713.27367-.43565h.27367l.27367-.26139.27367.69704.27367.26139.27367.52278.54734-.08713.27367.08713.27367 1.3941.27367 2.1782.27367-.78417.27367 1.1327.27367 2.0911.27367-2.5268.27367.17426.27367-.52278.27367-1.7426.27367-3.3109.54734-2.3525.27367-2.9624.27367-6.4476.27367-2.7882 1.0947-24.745.27367-10.978.54734-11.24 1.642-42.084.821-16.99.821-6.9704.27367-.43565.27367-.78417 1.0947 9.1486.54734 8.9744.27367 3.8337.821 17.165.27367 4.008.27367 7.5803.27367 3.4852 1.3683 31.367.821 15.073 2.1893 40.69.821 10.63 1.9157 17.949 1.0947 6.3605.27367 2.2654.27367 1.1327.821 5.2278.27367.34852.27367.78417.27367 1.4812.27367.17426.27367-.17426.27367.08713.27367-.26139.27367.26139.54734-.95843.27367-.52278 1.0947-3.7466.27367-.60991.54734-2.3525.54734-2.1782.54734-2.6139.27367-.34852.27367.26139.27367-2.3525.27367-.08713.27367-1.4812.54734-5.6634.27367-.17426.821-7.3189.54734-2.5268.27367-1.7426.821-8.3645.27367-4.0951.27367-1.1327.54734-4.4436.27367-.60991.54734-5.2278.54734-2.9624.27367-1.3941.54734-3.7466.27367-.43565.27367.43565.54734-2.1782.27367-.08713.821-1.7426.27367-1.1327.27367.8713.54734 3.1367.27367 2.4396.27367-.17426h.27367l.54734 4.008.27367-2.6139.27367.26139 1.3683-15.161.27367-3.7466.54734-10.891.821-24.571 1.3683-29.624.821-11.85.54734-3.3109.27367.60991.27367.087129.27367-.95843.27367-.17426.27367 3.2238.27367 4.8793.27367 9.3229.54734 11.588 1.9157 45.307.54734 10.02.821 17.165 1.642 26.662.821 10.02.54734 4.8793.27367 2.8753.27367 1.6555.54734 4.2694 4.6524 24.658.27367.43565.27367 1.3941.54734 1.1327.27367.17426 1.3683 3.1367.27367-.26139.27367-.08713.27367-.34852.27367.26139.821-.17426.54734-1.1327.54734-.69704.821-.17426.27367-.52278.27367-.78417.27367-.34852.54734-2.6139.27367.087129.27367-.43565.27367-.8713.821-4.4436.27367-1.3941 1.0947-2.9624.54734-3.4852.27367-1.5683.27367-.08713.54734-2.9624.27367-.52278.27367-2.4396.54734-2.4396 1.0947-4.7921.27367-.34852.27367-2.701.27367-.78417.27367-.26139.54734-5.2278.27367-.8713.27367-1.5683.54734-1.3069.27367-1.4812.27367-2.5268.54734-2.8753.27367-.43565.821-7.8417 2.463-54.456 1.3683-33.196 1.0947-13.854.54734-2.701.27367.78417.27367.43565.821 10.456 2.463 55.589 3.0104 49.315.27367 2.004 1.642 17.252.54734 3.8337.821 4.0951.821 5.9248.27367.69704.54734 2.5268 1.0947 4.4436.27367 1.6555.821 2.5268.27367.26139.54734 1.7426.27367.08713.54734 1.7426.27367.34852.821 2.4396.54734.08713.54734-.78417.27367.17426.27367-.34852.27367-.78417.27367-.26139.27367-.52278.27367-.95843.27367.34852.54734-.60991.27367-1.8297.27367.17426.27367-.8713.27367.087129.27367-1.5683.27367-.69704.27367-.34852.27367-1.3069.27367-.52278.54734-2.5268.27367-2.3525.821-2.8753.27367-1.9169.27367-.69704.821-4.3565.54734-1.8297.27367-.60991.27367-1.7426.27367.17426.27367-1.2198.27367-.69704h.27367l1.0947-7.2318.27367-.52278.27367-1.7426.821-2.5268.27367-1.0456h.27367l.821-6.012.27367-.34852 1.3683-8.1902 1.0947-12.285.821-16.555.821-22.131.821-21.957.27367-3.3109.821-18.21.27367-3.2238.27367-5.5763.27367-2.004.27367-3.3109.27367-.26139.27367-1.2198.27367-.34852.821 7.5803.54734 12.808 1.0947 18.994 1.0947 23.264.27367 5.1407.54734 12.982.54734 10.107.821 11.501.54734 11.24.821 10.02 1.0947 9.4971 1.3683 12.111.27367.8713 1.0947 5.6634.54734 2.8753.27367 1.1327.54734 1.1327.54734 2.004.27367.69704.27367 1.9169.27367.69704.27367-.43565.54734.95843.27367.17426.27367.8713.27367 1.6555.27367-.17426.27367.26139.54734.69704.27367.17426h.27367l.54734.34852.54734-1.3941.27367.95843.27367-.17426.54734-1.2198.27367-.087129.54734-.8713.27367.69704.821-1.3941.27367-2.004.27367-.8713.54734-.8713 2.1893-9.9328.27367-.95843.821-5.5763.27367-.69704 1.0947-6.7961.27367-1.1327.27367-.43565.27367-.95843.54734-3.0495.54734-5.1407.27367-.69704 1.0947-7.0575.27367-2.9624.27367-.69704.54734-2.701.27367 1.2198.27367-.95843.27367-.26139.27367-.78417.27367.08713.27367-.52278.27367-1.3941.54734-9.5843 1.0947-17.774.54734-16.032.27367-10.281.27367-5.402 1.0947-29.363.821-15.77.54734-6.709h.27367l.27367-.17426.27367-1.6555.54734 2.4396.27367 1.7426.27367 3.5723.821 19.169 1.0947 25.268.821 20.04 1.9157 33.806.27367 3.0495.27367 6.0991 1.642 19.43 1.0947 8.0159 3.284 18.472.27367.60991.27367 1.9169 1.3683 4.4436.27367 1.6555 1.0947 3.1367.27367 1.2198.27367-.26139.27367.34852.27367-.087129.27367-.26139.27367-.8713.27367 1.0456.27367-.78417.54734-.52278.27367-.95843.27367-.17426h.27367l.27367-.26139.27367-.78417.27367-2.004.27367-.34852h.27367l.27367-.26139.27367-1.0456.27367-1.6555.27367-.43565.27367-1.0456h.27367l.27367-.8713.821 3.8337.27367-.34852.27367 1.3069.27367-.17426.27367-2.2654.27367.8713.54734-.95843.54734.43565.27367-1.9169.27367.34852.27367.8713.27367.17426.27367-.08713.27367-1.0456.27367.17426m1.0947-2.7882.27367-1.6555.27367-3.3109.27367-1.7426 1.9157-17.862 1.0947-5.1407 1.0947-12.372 1.3683-25.616 1.3683-41.299 1.0947-29.798.54734-9.6714.54734-7.3189.27367-1.5683.27367 1.1327h.27367l.27367.43565.54734 2.7882.54734 12.895.27367 6.5347.27367 1.9169.27367 7.5803.27367 2.6139.27367 5.0535.821 19.517 2.463 45.22 1.9157 24.832 2.1893 19.081.27367.60991 1.3683 7.9288 1.3683 5.402.27367.52278.54734 2.7882.54734 2.5268.821 1.6555.54734 1.4812.54734.08713.27367-.34852.27367.52278.27367-1.0456.27367-.08713.27367.17426.27367-.087129.27367-.95843.27367.34852.54734-1.3941.27367-.60991.27367-1.0456.821-1.7426.54734-2.004.27367-1.3941.27367-2.0911.27367-.17426.54734-1.6555.54734-2.701.27367.087129.54734-2.701.821-1.7426.821-4.705.54734-1.4812.54734-2.7882 1.3683-7.7545.54734-1.2198.27367-.087129.27367-1.8297.27367-.08713.27367-2.2654.27367-.08713 1.3683-5.6634.27367-1.2198h.27367l.27367-.60991.27367-1.3941.27367-3.0495.821-3.1367.27367-4.5307.27367-2.3525 1.642-35.2 1.0947-30.67.27367-5.2278 1.0947-32.412 1.0947-14.202.54734-1.7426.27367-.69704.27367-.34852.27367-1.0456.54734 5.3149.27367.34852.27367 4.6179.821 25.79.54734 9.8457v0" clip-path="url(#d)" fill="none" stroke="#28f" stroke-linecap="square" stroke-width="1.5"/>
   </g>
   <g id="cy">
    <path d="m52 259.78v-232.9" fill="none" stroke="#000" stroke-linecap="square" stroke-width=".8"/>
   </g>
   <g id="cz">
    <path d="m853.2 259.78v-232.9" fill="none" stroke="#000" stroke-linecap="square" stroke-width=".8"/>
   </g>
   <g id="da">
    <path d="m52 259.78h801.2" fill="none" stroke="#000" stroke-linecap="square" stroke-width=".8"/>
   </g>
   <g id="db">
    <path d="m52 26.88h801.2" fill="none" stroke="#000" stroke-linecap="square" stroke-width=".8"/>
   </g>
   <g id="dc">
    <!-- 同時接続数の推移 -->
    <g transform="translate(404.6 20.88) scale(.12 -.12)">
     <defs>
      <path id="x" transform="scale(.015625)" d="m1587 3936h3232v-518h-3232v518zm320-1114h557v-2534h-557v2534zm301 0h2291v-2086h-2291v512h1734v1069h-1734v505zm-1683 2260h5113v-570h-4524v-5056h-589v5626zm4768 0h595v-4896q0-250-67-397t-227-218q-160-77-426-96t-675-19q-13 83-45 192t-77 218q-45 108-89 185 281-13 527-13 247 0 330 0 83 7 118 42 36 35 36 112v4890z"/>
      <path id="v" transform="scale(.015625)" d="m2714 4672h3238v-525h-3238v525zm-244-1235h3712v-538h-3712v538zm20-1184h3635v-531h-3635v531zm1523 3155h595v-2310h-595v2310zm832-2451h589v-2823q0-230-61-364-61-135-227-199-167-70-423-86t-633-16q-20 121-78 285-57 163-121 284 275-6 509-9t310-3q77 6 106 28 29 23 29 93v2810zm-2023-1677 487 282q153-160 313-352t294-381q135-189 206-343l-519-313q-64 153-189 348-124 196-278 394-154 199-314 365zm-2086 3718h1619v-4281h-1619v544h1056v3187h-1056v550zm32-1843h1293v-537h-1293v537zm-320 1843h563v-4832h-563v4832z"/>
      <path id="w" transform="scale(.015625)" d="m3866 5408h614v-870h-614v870zm-1479-653h3597v-518h-3597v518zm-230-1485h4e3v-518h-4e3v518zm825 922 519 102q64-160 121-342 58-182 96-352 39-170 45-304l-544-128q-6 134-42 313-35 180-83 365-48 186-112 346zm1856 109 589-71q-96-275-202-557-105-281-195-486l-518 77q58 147 122 329 64 183 118 372t86 336zm-2643-2106h3943v-518h-3943v518zm1408 685 602-115q-167-371-362-784t-390-797-362-685l-525 179q160 288 346 666t368 784 323 752zm-659-2157 358 403q352-102 733-240 381-137 752-304 371-166 697-336 327-169 558-329l-384-461q-218 160-532 336-313 176-685 345-371 170-755 323-384 154-742 263zm1894 1114 583-71q-122-550-353-944-230-393-604-662t-922-435q-547-167-1296-269-25 128-93 269-67 141-137 230 678 64 1168 192t819 349q330 221 531 550 202 330 304 791zm-4684 217q396 90 953 240 557 151 1120 311l77-544q-525-154-1053-311-528-156-963-284l-134 588zm121 2093h1965v-563h-1965v563zm819 1248h576v-5229q0-236-51-374t-192-208q-141-77-355-99-214-23-541-16-13 115-64 288t-109 294q205-6 381-6t234 0q64 0 92 28 29 29 29 93v5229z"/>
      <path id="u" transform="scale(.015625)" d="m4058 5408h595v-1798h-595v1798zm-1415-563h3443v-499h-3443v499zm231-992h3008v-499h-3008v499zm-224-877h3475v-1203h-531v729h-2432v-729h-512v1203zm1964-877h551v-1881q0-122 22-157 23-35 106-35 25 0 92 0 68 0 135 0t99 0q51 0 83 54t45 224 19 515q90-70 234-131t259-93q-19-429-83-662-64-234-183-326-118-93-316-93-39 0-103 0t-134 0-138 0q-67 0-99 0-237 0-365 64t-176 218q-48 153-48 422v1881zm-1164-6h550v-455q0-243-48-528-48-284-186-579-137-294-409-572-272-279-727-503-70 90-192 208-121 118-230 195 416 205 665 438 250 234 371 474 122 240 164 467 42 228 42 413v442zm-2240 3309 524-192q-121-244-259-503-137-259-275-496t-259-416l-410 173q122 186 246 438 125 253 240 515 116 263 193 481zm716-743 500-230q-224-359-496-756-272-396-548-764-275-368-518-650l-358 205q179 211 377 483 199 272 387 569 189 298 358 592 170 295 298 551zm-1721-665 307 403q166-154 339-340 173-185 320-364t224-327l-326-460q-77 160-218 348-141 189-314 384-172 196-332 356zm1485-832 435 179q128-211 249-458 122-246 215-474 93-227 137-412l-473-211q-32 185-119 422-86 237-201 486-115 250-243 468zm-1530-583q422 26 998 54 576 29 1184 68l7-499q-570-45-1127-84-556-38-992-70l-70 531zm1702-992 436 135q121-276 214-596t118-556l-454-148q-26 237-112 563-86 327-202 602zm-1363 109 499-83q-57-455-163-897-105-441-253-748-51 32-134 73-83 42-170 83-86 42-144 62 148 294 234 697t131 813zm691 627h525v-2861h-525v2861z"/>
      <path id="q" transform="scale(.015625)" d="m224 2022h3187v-499h-3187v499zm51 2247h3111v-487h-3111v487zm1127-1735 563-121q-154-320-333-672t-352-679q-173-326-326-582l-532 173q148 243 324 566t345 669q170 346 311 646zm934-832 563-64q-89-480-262-838t-461-614-701-432-976-298q-25 128-99 269t-157 237q659 102 1085 303 426 202 666 554t342 883zm422 3597 519-211q-147-218-298-436-150-217-278-377l-403 186q121 173 252 413 132 240 208 425zm-1203 109h563v-2957h-563v2957zm-1075-320 448 186q134-192 246-420 112-227 157-393l-467-211q-38 172-147 406t-237 432zm1094-1050 397-236q-160-263-400-529-240-265-519-489-278-224-553-378-51 103-141 237-89 135-179 218 269 109 534 294 266 186 493 416 228 231 368 467zm487-204q83-45 246-145 163-99 352-211t346-211 221-150l-327-423q-83 77-230 198-147 122-317 253-170 132-327 250-156 119-259 189l295 250zm1798 396h2311v-556h-2311v556zm115 1178 615-90q-103-640-263-1235t-384-1101q-224-505-512-889-44 57-134 134t-186 157-166 125q275 339 473 796 199 458 340 995 141 538 217 1108zm1223-1510 614-58q-147-1101-445-1940-297-838-813-1443-515-604-1321-1014-26 71-90 177-64 105-134 208-70 102-128 159 742 346 1212 880 471 535 730 1290 260 755 375 1741zm-1005-135q134-851 387-1597 253-745 659-1305 407-560 1002-874-70-57-154-150-83-93-154-189-70-96-121-179-633 371-1056 988-422 618-688 1434-265 816-425 1783l550 89zm-3309-3065 327 416q377-148 754-330 378-182 701-378 324-195 548-368l-416-435q-211 179-519 378-307 198-666 383-358 186-729 334z"/>
      <path id="t" transform="scale(.015625)" d="m3686 4378q-64-493-163-1041-99-547-265-1084-192-653-432-1104t-522-688-595-237q-320 0-596 221-275 221-448 621-172 400-172 931 0 537 220 1017 221 480 611 851 391 372 909 583 519 211 1121 211 576 0 1040-186 464-185 793-515 330-329 502-771 173-441 173-941 0-672-278-1194-278-521-816-851-538-329-1318-444l-378 601q166 20 307 42t263 48q307 70 585 217 279 148 496 375 218 227 342 534 125 308 125 692t-122 713q-121 330-358 573-236 243-582 380-346 138-781 138-525 0-935-186-409-185-694-489-284-304-432-656-147-352-147-678 0-365 89-605 90-240 224-355 135-115 276-115t288 144 297 457q151 314 298 800 147 461 246 982 100 522 145 1021l684-12z"/>
      <path id="r" transform="scale(.015625)" d="m2995 2925h2893v-519h-2893v519zm0-1280h2893v-519h-2893v519zm-64-1299h3232v-557h-3232v557zm1312 3577h563v-3763h-563v3763zm429 1466 634-141q-154-390-340-794-185-403-339-684l-512 140q103 199 208 458 106 259 195 528 90 269 154 493zm-1472 25 582-147q-153-518-371-1018-217-499-483-931t-573-758q-38 64-109 160-70 96-147 198-77 103-141 160 416 416 733 1034t509 1302zm128-1203h2720v-537h-2720v-4205h-582v4422l313 320h269zm-3174-2157q396 90 953 240 557 151 1120 311l77-544q-525-154-1053-311-528-156-963-284l-134 588zm121 2093h1965v-563h-1965v563zm819 1248h576v-5229q0-236-51-374t-192-208q-141-77-355-99-214-23-541-16-13 115-64 288t-109 294q205-6 381-6t234 0q64 0 92 28 29 29 29 93v5229z"/>
      <path id="p" transform="scale(.015625)" d="m4051 5402 595-109q-281-493-729-941t-1107-806q-39 64-106 144t-141 153q-73 74-137 119 608 288 1011 678t614 762zm-77-557h1511v-493h-1863l352 493zm1293 0h109l109 25 384-179q-192-505-496-905t-695-701q-390-301-845-519-454-217-947-358-44 109-137 253t-176 227q448 109 867 294 419 186 777 445 359 259 631 592t419 730v96zm-1990-954 377 307q167-96 336-218 170-121 320-249 151-128 247-237l-397-332q-90 108-237 236t-317 259q-169 132-329 234zm1107-934 595-109q-307-538-803-1031-496-492-1232-876-38 64-102 144t-138 156q-74 77-138 116 455 217 807 483t604 554q253 288 407 563zm-90-589h1460v-506h-1818l358 506zm1268 0h121l109 26 384-167q-192-614-531-1075t-787-794q-448-332-983-553-534-221-1129-355-45 115-132 269-86 153-176 249 551 96 1043 285 493 189 903 473 410 285 714 669t464 883v90zm-2132-1056 410 339q186-102 384-237 198-134 371-275t282-269l-435-371q-103 128-270 272-166 144-361 288t-381 253zm-2150 3533h589v-5376h-589v5376zm-992-1242h2336v-569h-2336v569zm1024-224 365-160q-96-339-231-707-134-368-291-727-157-358-336-672-179-313-365-537-44 128-134 291t-160 272q173 192 339 457 167 266 323 570 157 304 282 618t208 595zm941 1946 416-467q-314-122-695-221-380-99-784-173-403-74-780-131-20 102-71 236-51 135-102 231 358 58 732 138 375 80 711 179t573 208zm-397-2579q58-45 179-170 122-125 266-266 144-140 259-265t160-183l-352-473q-58 102-157 255-99 154-218 317-118 164-227 311-108 147-185 237l275 237z"/>
     </defs>
     <use xlink:href="#x"/>
     <use transform="translate(100)" xlink:href="#v"/>
     <use transform="translate(200)" xlink:href="#w"/>
     <use transform="translate(300)" xlink:href="#u"/>
     <use transform="translate(400)" xlink:href="#q"/>
     <use transform="translate(500)" xlink:href="#t"/>
     <use transform="translate(600)" xlink:href="#r"/>
     <use transform="translate(700)" xlink:href="#p"/>
    </g>
   </g>
  </g>
  <g id="dd">
   <g id="de">
    <path d="m52 523.06h801.2v-232.9h-801.2z" fill="#fff"/>
   </g>
   <g id="df">
    <path d="m134.12 523.06h.821v-232.9h-.821z" clip-path="url(#c)" fill="#808080" opacity=".3" stroke="#808080"/>
   </g>
   <g id="dg">
    <path d="m436.38 523.06h.54734v-232.9h-.54734z" clip-path="url(#c)" fill="#808080" opacity=".3" stroke="#808080"/>
   </g>
   <g id="dh">
    <path d="m762.05 523.06h1.0947v-232.9h-1.0947z" clip-path="url(#c)" fill="#808080" opacity=".3" stroke="#808080"/>
   </g>
   <g id="di">
    <g id="dj">
     <g id="dk">
      <path d="m104.97 523.06v-232.9" clip-path="url(#c)" fill="none" stroke="#b0b0b0" stroke-linecap="square" stroke-opacity=".3" stroke-width=".8"/>
     </g>
     <g id="dl">
      <use x="104.970999" y="523.055464" stroke="#000000" stroke-width=".8" xlink:href="#e"/>
     </g>
     <g id="dm">
      <!-- 2025-07-01 -->
      <g transform="translate(58.181 563.33) rotate(-30) scale(.1 -.1)">
       <defs>
        <path id="g" transform="scale(.015625)" d="m301 1536v544h1689v-544h-1689z"/>
       </defs>
       <use xlink:href="#b"/>
       <use transform="translate(57)" xlink:href="#a"/>
       <use transform="translate(114)" xlink:href="#b"/>
       <use transform="translate(171)" xlink:href="#j"/>
       <use transform="translate(228)" xlink:href="#g"/>
       <use transform="translate(263.7)" xlink:href="#a"/>
       <use transform="translate(320.7)" xlink:href="#i"/>
       <use transform="translate(377.7)" xlink:href="#g"/>
       <use transform="translate(413.4)" xlink:href="#a"/>
       <use transform="translate(470.4)" xlink:href="#f"/>
      </g>
     </g>
    </g>
    <g id="dn">
     <g id="do">
      <path d="m183.79 523.06v-232.9" clip-path="url(#c)" fill="none" stroke="#b0b0b0" stroke-linecap="square" stroke-opacity=".3" stroke-width=".8"/>
     </g>
     <g id="dp">
      <use x="183.787422" y="523.055464" stroke="#000000" stroke-width=".8" xlink:href="#e"/>
     </g>
     <g id="dq">
      <!-- 2025-07-03 -->
      <g transform="translate(137 563.33) rotate(-30) scale(.1 -.1)">
       <use xlink:href="#b"/>
       <use transform="translate(57)" xlink:href="#a"/>
       <use transform="translate(114)" xlink:href="#b"/>
       <use transform="translate(171)" xlink:href="#j"/>
       <use transform="translate(228)" xlink:href="#g"/>
       <use transform="translate(263.7)" xlink:href="#a"/>
       <use transform="translate(320.7)" xlink:href="#i"/>
       <use transform="translate(377.7)" xlink:href="#g"/>
       <use transform="translate(413.4)" xlink:href="#a"/>
       <use transform="translate(470.4)" xlink:href="#o"/>
      </g>
     </g>
    </g>
    <g id="dr">
     <g id="ds">
      <path d="m262.6 523.06v-232.9" clip-path="url(#c)" fill="none" stroke="#b0b0b0" stroke-linecap="square" stroke-opacity=".3" stroke-width=".8"/>
     </g>
     <g id="dt">
      <use x="262.603845" y="523.055464" stroke="#000000" stroke-width=".8" xlink:href="#e"/>
     </g>
     <g id="du">
      <!-- 2025-07-05 -->
      <g transform="translate(215.81 563.33) rotate(-30) scale(.1 -.1)">
       <use xlink:href="#b"/>
       <use transform="translate(57)" xlink:href="#a"/>
       <use transform="translate(114)" xlink:href="#b"/>
       <use transform="translate(171)" xlink:href="#j"/>
       <use transform="translate(228)" xlink:href="#g"/>
       <use transform="translate(263.7)" xlink:href="#a"/>
       <use transform="translate(320.7)" xlink:href="#i"/>
       <use transform="translate(377.7)" xlink:href="#g"/>
       <use transform="translate(413.4)" xlink:href="#a"/>
       <use transform="translate(470.4)" xlink:href="#j"/>
      </g>
     </g>
    </g>
    <g id="dv">
     <g id="dw">
      <path d="m341.42 523.06v-232.9" clip-path="url(#c)" fill="none" stroke="#b0b0b0" stroke-linecap="square" stroke-opacity=".3" stroke-width=".8"/>
     </g>
     <g id="dx">
      <use x="341.420268" y="523.055464" stroke="#000000" stroke-width=".8" xlink:href="#e"/>
     </g>
     <g id="dy">
      <!-- 2025-07-07 -->
      <g transform="translate(294.63 563.33) rotate(-30) scale(.1 -.1)">
       <use xlink:href="#b"/>
       <use transform="translate(57)" xlink:href="#a"/>
       <use transform="translate(114)" xlink:href="#b"/>
       <use transform="translate(171)" xlink:href="#j"/>
       <use transform="translate(228)" xlink:href="#g"/>
       <use transform="translate(263.7)" xlink:href="#a"/>
       <use transform="translate(320.7)" xlink:href="#i"/>
       <use transform="translate(377.7)" xlink:href="#g"/>
       <use transform="translate(413.4)" xlink:href="#a"/>
       <use transform="translate(470.4)" xlink:href="#i"/>
      </g>
     </g>
    </g>
    <g id="dz">
     <g id="ea">
      <path d="m420.24 523.06v-232.9" clip-path="url(#c)" fill="none" stroke="#b0b0b0" stroke-linecap="square" stroke-opacity=".3" stroke-width=".8"/>
     </g>
     <g id="eb">
      <use x="420.236691" y="523.055464" stroke="#000000" stroke-width=".8" xlink:href="#e"/>
     </g>
     <g id="ec">
      <!-- 2025-07-09 -->
      <g transform="translate(373.45 563.33) rotate(-30) scale(.1 -.1)">
       <use xlink:href="#b"/>
       <use transform="translate(57)" xlink:href="#a"/>
       <use transform="translate(114)" xlink:href="#b"/>
       <use transform="translate(171)" xlink:href="#j"/>
       <use transform="translate(228)" xlink:href="#g"/>
       <use transform="translate(263.7)" xlink:href="#a"/>
       <use transform="translate(320.7)" xlink:href="#i"/>
       <use transform="translate(377.7)" xlink:href="#g"/>
       <use transform="translate(413.4)" xlink:href="#a"/>
       <use transform="translate(470.4)" xlink:href="#m"/>
      </g>
     </g>
    </g>
    <g id="ed">
     <g id="ee">
      <path d="m499.05 523.06v-232.9" clip-path="url(#c)" fill="none" stroke="#b0b0b0" stroke-linecap="square" stroke-opacity=".3" stroke-width=".8"/>
     </g>
     <g id="ef">
      <use x="499.053113" y="523.055464" stroke="#000000" stroke-width=".8" xlink:href="#e"/>
     </g>
     <g id="eg">
      <!-- 2025-07-11 -->
      <g transform="translate(452.26 563.33) rotate(-30) scale(.1 -.1)">
       <use xlink:href="#b"/>
       <use transform="translate(57)" xlink:href="#a"/>
       <use transform="translate(114)" xlink:href="#b"/>
       <use transform="translate(171)" xlink:href="#j"/>
       <use transform="translate(228)" xlink:href="#g"/>
       <use transform="translate(263.7)" xlink:href="#a"/>
       <use transform="translate(320.7)" xlink:href="#i"/>
       <use transform="translate(377.7)" xlink:href="#g"/>
       <use transform="translate(413.4)" xlink:href="#f"/>
       <use transform="translate(470.4)" xlink:href="#f"/>
      </g>
     </g>
    </g>
    <g id="eh">
     <g id="ei">
      <path d="m577.87 523.06v-232.9" clip-path="url(#c)" fill="none" stroke="#b0b0b0" stroke-linecap="square" stroke-opacity=".3" stroke-width=".8"/>
     </g>
     <g id="ej">
      <use x="577.869536" y="523.055464" stroke="#000000" stroke-width=".8" xlink:href="#e"/>
     </g>
     <g id="ek">
      <!-- 2025-07-13 -->
      <g transform="translate(531.08 563.33) rotate(-30) scale(.1 -.1)">
       <use xlink:href="#b"/>
       <use transform="translate(57)" xlink:href="#a"/>
       <use transform="translate(114)" xlink:href="#b"/>
       <use transform="translate(171)" xlink:href="#j"/>
       <use transform="translate(228)" xlink:href="#g"/>
       <use transform="translate(263.7)" xlink:href="#a"/>
       <use transform="translate(320.7)" xlink:href="#i"/>
       <use transform="translate(377.7)" xlink:href="#g"/>
       <use transform="translate(413.4)" xlink:href="#f"/>
       <use transform="translate(470.4)" xlink:href="#o"/>
      </g>
     </g>
    </g>
    <g id="el">
     <g id="em">
      <path d="m656.69 523.06v-232.9" clip-path="url(#c)" fill="none" stroke="#b0b0b0" stroke-linecap="square" stroke-opacity=".3" stroke-width=".8"/>
     </g>
     <g id="en">
      <use x="656.685959" y="523.055464" stroke="#000000" stroke-width=".8" xlink:href="#e"/>
     </g>
     <g id="eo">
      <!-- 2025-07-15 -->
      <g transform="translate(609.9 563.33) rotate(-30) scale(.1 -.1)">
       <use xlink:href="#b"/>
       <use transform="translate(57)" xlink:href="#a"/>
       <use transform="translate(114)" xlink:href="#b"/>
       <use transform="translate(171)" xlink:href="#j"/>
       <use transform="translate(228)" xlink:href="#g"/>
       <use transform="translate(263.7)" xlink:href="#a"/>
       <use transform="translate(320.7)" xlink:href="#i"/>
       <use transform="translate(377.7)" xlink:href="#g"/>
       <use transform="translate(413.4)" xlink:href="#f"/>
       <use transform="translate(470.4)" xlink:href="#j"/>
      </g>
     </g>
    </g>
    <g id="ep">
     <g id="eq">
      <path d="m735.5 523.06v-232.9" clip-path="url(#c)" fill="none" stroke="#b0b0b0" stroke-linecap="square" stroke-opacity=".3" stroke-width=".8"/>
     </g>
     <g id="er">
      <use x="735.502382" y="523.055464" stroke="#000000" stroke-width=".8" xlink:href="#e"/>
     </g>
     <g id="es">
      <!-- 2025-07-17 -->
      <g transform="translate(688.71 563.33) rotate(-30) scale(.1 -.1)">
       <use xlink:href="#b"/>
       <use transform="translate(57)" xlink:href="#a"/>
       <use transform="translate(114)" xlink:href="#b"/>
       <use transform="translate(171)" xlink:href="#j"/>
       <use transform="translate(228)" xlink:href="#g"/>
       <use transform="translate(263.7)" xlink:href="#a"/>
       <use transform="translate(320.7)" xlink:href="#i"/>
       <use transform="translate(377.7)" xlink:href="#g"/>
       <use transform="translate(413.4)" xlink:href="#f"/>
       <use transform="translate(470.4)" xlink:href="#i"/>
      </g>
     </g>
    </g>
    <g id="et">
     <g id="eu">
      <path d="m814.32 523.06v-232.9" clip-path="url(#c)" fill="none" stroke="#b0b0b0" stroke-linecap="square" stroke-opacity=".3" stroke-width=".8"/>
     </g>
     <g id="ev">
      <use x="814.318805" y="523.055464" stroke="#000000" stroke-width=".8" xlink:href="#e"/>
     </g>
     <g id="ew">
      <!-- 2025-07-19 -->
      <g transform="translate(767.53 563.33) rotate(-30) scale(.1 -.1)">
       <use xlink:href="#b"/>
       <use transform="translate(57)" xlink:href="#a"/>
       <use transform="translate(114)" xlink:href="#b"/>
       <use transform="translate(171)" xlink:href="#j"/>
       <use transform="translate(228)" xlink:href="#g"/>
       <use transform="translate(263.7)" xlink:href="#a"/>
       <use transform="translate(320.7)" xlink:href="#i"/>
       <use transform="translate(377.7)" xlink:href="#g"/>
       <use transform="translate(413.4)" xlink:href="#f"/>
       <use transform="translate(470.4)" xlink:href="#m"/>
      </g>
     </g>
    </g>
   </g>
   <g id="ex">
    <g id="ey">
     <g id="ez">
      <path d="m52 506.1h801.2" clip-path="url(#c)" fill="none" stroke="#b0b0b0" stroke-linecap="square" stroke-opacity=".3" stroke-width=".8"/>
     </g>
     <g id="fa">
      <use x="52" y="506.104047" stroke="#000000" stroke-width=".8" xlink:href="#h"/>
     </g>
     <g id="fb">
      <!-- 104800 -->
      <g transform="translate(10.8 510.09) scale(.1 -.1)">
       <use xlink:href="#f"/>
       <use transform="translate(57)" xlink:href="#a"/>
       <use transform="translate(114)" xlink:href="#n"/>
       <use transform="translate(171)" xlink:href="#l"/>
       <use transform="translate(228)" xlink:href="#a"/>
       <use transform="translate(285)" xlink:href="#a"/>
      </g>
     </g>
    </g>
    <g id="fc">
     <g id="fd">
      <path d="m52 479.3h801.2" clip-path="url(#c)" fill="none" stroke="#b0b0b0" stroke-linecap="square" stroke-opacity=".3" stroke-width=".8"/>
     </g>
     <g id="fe">
      <use x="52" y="479.303387" stroke="#000000" stroke-width=".8" xlink:href="#h"/>
     </g>
     <g id="ff">
      <!-- 105200 -->
      <g transform="translate(10.8 483.29) scale(.1 -.1)">
       <use xlink:href="#f"/>
       <use transform="translate(57)" xlink:href="#a"/>
       <use transform="translate(114)" xlink:href="#j"/>
       <use transform="translate(171)" xlink:href="#b"/>
       <use transform="translate(228)" xlink:href="#a"/>
       <use transform="translate(285)" xlink:href="#a"/>
      </g>
     </g>
    </g>
    <g id="fg">
     <g id="fh">
      <path d="m52 452.5h801.2" clip-path="url(#c)" fill="none" stroke="#b0b0b0" stroke-linecap="square" stroke-opacity=".3" stroke-width=".8"/>
     </g>
     <g id="fi">
      <use x="52" y="452.502728" stroke="#000000" stroke-width=".8" xlink:href="#h"/>
     </g>
     <g id="fj">
      <!-- 105600 -->
      <g transform="translate(10.8 456.49) scale(.1 -.1)">
       <use xlink:href="#f"/>
       <use transform="translate(57)" xlink:href="#a"/>
       <use transform="translate(114)" xlink:href="#j"/>
       <use transform="translate(171)" xlink:href="#k"/>
       <use transform="translate(228)" xlink:href="#a"/>
       <use transform="translate(285)" xlink:href="#a"/>
      </g>
     </g>
    </g>
    <g id="fk">
     <g id="fl">
      <path d="m52 425.7h801.2" clip-path="url(#c)" fill="none" stroke="#b0b0b0" stroke-linecap="square" stroke-opacity=".3" stroke-width=".8"/>
     </g>
     <g id="fm">
      <use x="52" y="425.702068" stroke="#000000" stroke-width=".8" xlink:href="#h"/>
     </g>
     <g id="fn">
      <!-- 106000 -->
      <g transform="translate(10.8 429.69) scale(.1 -.1)">
       <use xlink:href="#f"/>
       <use transform="translate(57)" xlink:href="#a"/>
       <use transform="translate(114)" xlink:href="#k"/>
       <use transform="translate(171)" xlink:href="#a"/>
       <use transform="translate(228)" xlink:href="#a"/>
       <use transform="translate(285)" xlink:href="#a"/>
      </g>
     </g>
    </g>
    <g id="fo">
     <g id="fp">
      <path d="m52 398.9h801.2" clip-path="url(#c)" fill="none" stroke="#b0b0b0" stroke-linecap="square" stroke-opacity=".3" stroke-width=".8"/>
     </g>
     <g id="fq">
      <use x="52" y="398.901408" stroke="#000000" stroke-width=".8" xlink:href="#h"/>
     </g>
     <g id="fr">
      <!-- 106400 -->
      <g transform="translate(10.8 402.89) scale(.1 -.1)">
       <use xlink:href="#f"/>
       <use transform="translate(57)" xlink:href="#a"/>
       <use transform="translate(114)" xlink:href="#k"/>
       <use transform="translate(171)" xlink:href="#n"/>
       <use transform="translate(228)" xlink:href="#a"/>
       <use transform="translate(285)" xlink:href="#a"/>
      </g>
     </g>
    </g>
    <g id="fs">
     <g id="ft">
      <path d="m52 372.1h801.2" clip-path="url(#c)" fill="none" stroke="#b0b0b0" stroke-linecap="square" stroke-opacity=".3" stroke-width=".8"/>
     </g>
     <g id="fu">
      <use x="52" y="372.100749" stroke="#000000" stroke-width=".8" xlink:href="#h"/>
     </g>
     <g id="fv">
      <!-- 106800 -->
      <g transform="translate(10.8 376.09) scale(.1 -.1)">
       <use xlink:href="#f"/>
       <use transform="translate(57)" xlink:href="#a"/>
       <use transform="translate(114)" xlink:href="#k"/>
       <use transform="translate(171)" xlink:href="#l"/>
       <use transform="translate(228)" xlink:href="#a"/>
       <use transform="translate(285)" xlink:href="#a"/>
      </g>
     </g>
    </g>
    <g id="fw">
     <g id="fx">
      <path d="m52 345.3h801.2" clip-path="url(#c)" fill="none" stroke="#b0b0b0" stroke-linecap="square" stroke-opacity=".3" stroke-width=".8"/>
     </g>
     <g id="fy">
      <use x="52" y="345.300089" stroke="#000000" stroke-width=".8" xlink:href="#h"/>
     </g>
     <g id="fz">
      <!-- 107200 -->
      <g transform="translate(10.8 349.29) scale(.1 -.1)">
       <use xlink:href="#f"/>
       <use transform="translate(57)" xlink:href="#a"/>
       <use transform="translate(114)" xlink:href="#i"/>
       <use transform="translate(171)" xlink:href="#b"/>
       <use transform="translate(228)" xlink:href="#a"/>
       <use transform="translate(285)" xlink:href="#a"/>
      </g>
     </g>
    </g>
    <g id="ga">
     <g id="gb">
      <path d="m52 318.5h801.2" clip-path="url(#c)" fill="none" stroke="#b0b0b0" stroke-linecap="square" stroke-opacity=".3" stroke-width=".8"/>
     </g>
     <g id="gc">
      <use x="52" y="318.499429" stroke="#000000" stroke-width=".8" xlink:href="#h"/>
     </g>
     <g id="gd">
      <!-- 107600 -->
      <g transform="translate(10.8 322.48) scale(.1 -.1)">
       <use xlink:href="#f"/>
       <use transform="translate(57)" xlink:href="#a"/>
       <use transform="translate(114)" xlink:href="#i"/>
       <use transform="translate(171)" xlink:href="#k"/>
       <use transform="translate(228)" xlink:href="#a"/>
       <use transform="translate(285)" xlink:href="#a"/>
      </g>
     </g>
    </g>
    <g id="ge">
     <g id="gf">
      <path d="m52 291.7h801.2" clip-path="url(#c)" fill="none" stroke="#b0b0b0" stroke-linecap="square" stroke-opacity=".3" stroke-width=".8"/>
     </g>
     <g id="gg">
      <use x="52" y="291.69877" stroke="#000000" stroke-width=".8" xlink:href="#h"/>
     </g>
     <g id="gh">
      <!-- 108000 -->
      <g transform="translate(10.8 295.68) scale(.1 -.1)">
       <use xlink:href="#f"/>
       <use transform="translate(57)" xlink:href="#a"/>
       <use transform="translate(114)" xlink:href="#l"/>
       <use transform="translate(171)" xlink:href="#a"/>
       <use transform="translate(228)" xlink:href="#a"/>
       <use transform="translate(285)" xlink:href="#a"/>
      </g>
     </g>
    </g>
   </g>
   <g id="gi">
    <path d="m88.418 512.47h.14687l.8169-.26801 1.231-.46901.42555-.26801 1.2069-.201.821.134.4105-.201.4105-.33501h.4105l.821-.87102.821-.134.821-.60302 1.2315.134.4105-.067002.4105-.26801.4105-.40201.4105-.67002.821-.60302h.4105l.821-.60302.4105-.40201 1.2315-2.4121 1.2315-.93802.4105-.201.4105.067002.4105-.33501h1.2315l.4105-.26801h.4105l.821-.53601 2.0525-.40201.4105.134.4105-.067002.4105.067002 2.0525-.26801 1.642-.067001 1.2315-.134 5.3365-.067001.821-.067002h.4105l.4105-.134h.821l.4105-.26801 1.2315-.33501.821-.201.821-.26801h.4105l.821-.40201 1.2315-.26801 2.0525-.73702.821-.33501.821-.201m.821-.40201.4105-.26801.4105-.60302.4105-.33501 1.2315-.26801.821-.26801.821-.53601.4105-.87102.4105-.26801.821-1.407h.4105l.821-.93802.4105-.201.4105-.46901 1.642-1.072.4105.067002 1.2315-.80402.4105-.134.821-.067002 1.2315-.201.4105.134h.4105l.821-.46901.821-.134.4105.067002.4105-.134.4105.067001 2.0525-.26801.821.067001.821-.067001.821.067001h2.463l.821-.201.821.201.4105.067002 1.2315-.33501h.4105l.4105-.134h.4105l.4105-.26801.821-.201.4105-.33501 1.642.067001.4105.067002.4105-.067002.4105-.201 1.2315-.134.4105.134 1.2315-.134h.4105l1.2315-.73702.4105-.067002.4105-.26801.4105.067001.821-.134.4105.067002.4105-.26801.4105-.134h.821l.4105-.46901.821-.46901.4105-.46901 1.2315-.46901.821-.46901.4105-.67002.4105-.067002.4105-.26801.4105-.73702 1.2315-1.139.4105-.134.4105.201.4105-.134.4105-.33501 1.642-.46901.4105-.067002.4105.067002.4105-.201.821.067002h2.0525l.4105-.134.821.134 1.2315-.134 2.8735-.067001.4105.201h.4105l1.7788-.46901.27367.067002h.13683l.27367-.134h2.7367l.27367.134.68417-.067002.27367-.067002h.27367l.13683-.134.27367.134.27367-.067001h.27367l.27367-.134.54734.134.27367-.067002 1.2315-.067002.27367-.201.13683-.134.27367.134.27367.134.68417-.26801.27367.067002.54734-.201.95784.067002.27367.134.821-.67002h.13684l.54734-.46901h1.5052l.27367-.134.68417-.067002 1.3683-.60302h.4105l.4105-.201.13683-.201.13683.134.13683-.067001.13683.134.27367-.26801.27367-.134.27367-.067001.27367-.134.13683-.067001.13683.067001.821-.73702.27367-.067002.27367-.134.27367-.67002.95784-.93802.13683.134.27367-.134.13683-.201h.13683l.13683.134.27367-.067002.27367-.46901h.27367l.13683-.40201.13683.067001.68417-.26801h.13683l.27367-.33501.27367-.201.54734-.067002.27367-.201.4105-.067002.27367-.067001h.4105l.4105-.26801.54734-.201.95784-.067001.27367-.067002 1.7788-.067002.27367-.067001 3.0103-.067002.27367-.067002 2.1893-.067001.68417-.26801 3.284-.067002 1.0947-.26801.27367-.201 1.9157.067002.27367.134 1.0947-.201 1.3683-.067002.54734-.33501.821-.067002.54734-.26801h.27367l.54734-.201h.27367l.821-.67002.27367-.134.821-.067002.27367-.26801 1.642-.40201.27367.067002.27367-.134.54734-.067001.821-.201.27367.067001 1.0947-.73702.27367-.067001.54734-.67002.27367-.201h.27367l1.0947-.67002 1.3683-.33501 1.0947-1.139.27367-.40201h.27367l.821-.80402h.27367l1.0947-.80402.27367.067002 1.3683-1.34h.27367l.27367-.40201 1.0947-.201h1.9157l.27367-.134h.27367l.27367-.134 1.0947-.134.821-.067002 2.1893-.46901 2.7367.067001.54734.067002.821-.067002.27367-.201.821.134.27367-.067002.54734.067002h1.3683l.821-.33501h1.0947l.54734-.26801h.821l.27367-.134.821-.067001.27367-.067002.27367.067002.27367-.134.27367.067001.821-.201.27367-.201.27367.067002.821-.93802.54734.201.27367-.201h.54734l.54734-.26801.821-.067001.54734-.60302h.27367l.54734-.201.27367.067001.27367-.26801.27367-.067002.27367.067002.27367-.067002.27367.134.27367-.134.27367.067002.27367-.067002.821-.60302h.27367l.27367-.134.821-1.206.821-.46901.27367-.53601.27367-.067002.821-.80402.27367.067002.821-.53601.54734-1.072.54734-.067001.54734-.60302 1.0947-.33501.821-.46901 1.0947-.33501.54734-.60302.54734-.067002 1.0947-.201.27367-.33501 1.9157-.067002.54734-.201.821-.067001.821-.201.27367.067002.54734-.067002.821.067002.54734.067001.54734-.26801 1.0947.067001.27367.201h2.463l.54734-.33501h.27367l.54734-.201 1.0947.067002.54734.067001.27367-.134h.27367l.27367-.26801h.27367l.54734-.26801.54734-.067002.54734-.33501.54734-.067002.821-.73702h.27367l.27367-.134h.54734l.54734.201h.27367l.54734-.201.27367-.33501 1.3683-.40201.27367-.134.821-.067001.27367-.134.821.134.821-.067002.54734-.201.54734-.134 1.642-1.072.27367.067002.27367-.201h.54734l.27367-.33501.54734-.26801.54734-.53601.821.067002.54734-.40201.27367.067002.54734-.40201.27367-.40201.27367.134.27367-.26801.27367-.067001.27367.201.27367-.26801.54734.134 1.0947-.67002.54734.067002.27367-.201h.27367l.27367.134.27367-.067002.27367-.33501.27367.067002.821-.201.27367.067001.27367-.067001.54734.067001 1.9157.067002.27367.201 1.9157-.067002.54734-.067001 1.3683.067001.27367.134.27367-.134h1.0947l.27367-.134.821.067002.54734.067001 2.463-.067001.54734-.067002 1.0947.067002.54734-.26801.821-.134.27367.134.54734-.26801 1.0947.134.54734-.26801h.54734l.54734-.201 3.0103-.067001.54734-.201.54734-.26801 1.3683-.067002.54734-.26801.821-.60302h.27367l.27367-.134.54734.067001 1.0947-.80402.27367.134.27367-.134.27367-.40201.821-.46901.27367-.201h.27367l.54734-.80402.821-.60301.27367-.40201h.27367l.54734-.60302.27367.134.54734-.067002.27367-.40201.27367.067001.54734-.40201 1.3683-.87102 1.0947-.46901 1.0947-.067001.821-.33501 1.642.067002.54734.067002 1.9157.067001.54734.067002 1.0947-.134.27367-.067002.27367.067002.54734-.067002h2.7367l.27367-.134.821-.067002.54734-.067002 1.0947-.067001.27367-.067002.821.26801.54734-.201 1.3683-.067002.821-.134.54734-.067002.27367-.134 1.642.067002.821-.40201h.27367l.54734-.33501h.27367l.27367-.134.54734-.40201.27367.067002.821-.201.54734.134.54734-.067001.27367.067001 1.642-.80402.54734-.067001.821-.201.54734-.26801h.27367l.27367-.40201.27367-.134.27367.067002.27367-.26801.27367-.067002.821-1.541.27367-.26801h.27367l.27367-.134.54734-.46901.27367-.134.27367-.46901 2.1893-1.742.27367-.26801.27367-.46901 1.0947-.33501.27367.134.27367-.067001.821-.53601h.27367l.27367-.134.27367.067002 1.9157-.40201.821-.067002.54734-.134.54734.067002 1.642-.067002.27367-.067002.27367.067002.54734-.067002.54734.067002 1.642-.067002.27367-.067001.54734.067001 1.0947-.067001 1.642-.33501m.54734.201.27367-.134h.27367l.27367-.134h3.0104l.54734-.26801.821-.067001.27367-.067002.27367.067002.54734-.33501.27367.067002.54734-.067002.27367.067002.27367-.134.54734.134.27367-.134.821-.067002.54734-.26801.54734.26801.54734-.33501.821-.26801.821-.33501.27367-.33501.27367-.134h.27367l.27367-.201h.54734l.54734-.46901.54734.26801.27367-.26801.27367-.46901.54734-.26801h.27367l1.0947-.60302.54734-.46901.54734-.134.27367-.46901.27367-.201.27367-.60302.821-.67002h.27367l.54734-.53601.821-.26801.27367-.134.54734-.40201.27367-.067001.27367-.26801.54734.067002.27367-.201.54734.134.27367-.26801h.54734l.27367-.201.821-.067001 1.0947-.134.27367-.067002.27367.067002 1.0947-.53601 1.3683-.067001.27367-.067002.821.134 1.3683-.067001.27367-.067002.54734.134.821-.134.27367.067002.27367-.067002.821.134h.54734l.27367-.26801 2.1893-.067002.821-.134.821.134 1.0947-.067002.27367-.201.821-.067002.821-.33501 1.0947-.201.54734-.067002 1.3683-.26801.821-.067001.27367-.134h.27367l.27367-.26801h.27367l.54734-.67002.54734-.33501.54734-.26801.821-.201.27367-.33501.27367-.134h.27367l.821-.33501h.27367l.27367-.26801.54734-.067001.54734-.67002.54734-.33501.54734-.40201 3.284-2.2781.54734-1.005.54734-.40201.54734-.067001.27367-.46901h.27367l.54734-.26801.27367-.26801h.27367l.54734-.26801.27367-.40201.27367-.067001.54734-.33501.54734.067002.27367-.33501.54734-.201 1.3683-.067002.27367.26801.54734.067002h.27367l.54734-.26801.54734-.067002 1.642-.067001.54734-.067002.27367-.26801.821-.067001.54734-.067002 5.4734-.067002.54734-.134.27367.067002 1.642-.46901.27367-.134h.27367l.27367-.134h.27367l.27367-.134.821.134.54734-.067002h.54734l.54734-.201.27367-.33501 1.0947-.46901h.54734l.54734-.26801.27367.067001.54734-.201.27367.134.27367-.134.54734-.067001.54734-.40201.54734-.26801h.27367l.54734-.201.27367.134.54734-.201.27367-.33501 1.3683-.60301.27367.067001.821-.33501.27367.067002.27367-.201h.27367l3.8314-2.8811.54734-.93802.54734-.73702.54734-.067002 1.3683-1.206.27367-.134.27367-.26801.27367-.067001 1.3683-.87102.27367-.067001.54734-.33501 1.642-.33501.27367.067002.54734-.067002.821.134 1.3683-.067001.54734-.067002 1.3683-.067002.54734-.067001.54734.067001.821.067002.821.134.27367-.134.54734.067002 1.0947.201.27367-.134.27367.134.54734-.067002.27367-.26801 1.0947-.26801.54734.134 1.0947-.40201h.27367l.27367-.134.54734-.067002 1.642-.33501.27367.067002.27367-.134h.27367l.821-.67002h.27367l1.3683-.60302 1.3683-.33501.27367-.33501.54734.067001.821-.67002.27367-.201.27367.067001.27367-.067001.27367-.26801.54734.46901.54734.201 1.3683-.33501.27367-.33501.27367-.067001.54734-.46901h.27367l.54734-.26801.27367.067002.27367-.33501.27367-.134.54734-.53601.27367-.46901.54734-.46901.27367-.46901.27367-.134.54734-.67002h.27367l.54734-.60302.27367.067002.54734-.40201.27367-.67002.27367-.067001.27367-.46901.27367-.067002.27367-.26801.27367-.53601.54734-.33501.54734-.067001.54734-.60302.54734-.067002.54734-.40201.27367-.40201.27367-.067002 1.642-1.139.821.067001.54734.201.54734-.26801.821.134 1.642-.067002 1.0947-.201 1.9157-.067002.821-.134 1.9157-.067002 1.0947-.201h.821l.54734-.26801.27367.067002.27367-.067002.27367.067002.27367-.067002.54734.067002.54734-.067002.54734.067002.821-.40201.54734-.067001.27367-.201h.27367l.54734-.33501.54734-.201.27367-.134.54734.067002 1.3683-.33501.27367-.26801.54734-.134.27367.067001.27367.26801.27367.067001.27367-.134.27367.067002.821-.60302.27367.134.27367-.067001.54734-.40201.54734.067001h.27367l.27367-.26801.27367.067001.821-.46901h.27367l.54734-.201.27367.067002.27367-.067002.27367.067002 1.0947-.93802.821-.73702.27367-.26801.27367-.067002.27367-.53601.27367.067002.27367-.40201.27367-.067002.27367-.40201.54734-.26801.54734-.60302h.27367l.27367-.46901.27367-.067001.54734-.53601.27367.134 1.0947-.46901.54734.201.54734-.201 1.642-.33501 1.0947-.067002 1.3683-.26801 1.0947-.134 1.3683-.067001 1.642-.33501h1.9157l.27367.134h.54734l.54734.134.27367-.134h.54734l.27367-.134.27367.067002 1.0947-.26801.54734.067002h.27367l.27367-.201 2.463-.067001.821-.40201 1.3683-.067002.54734-.201.27367.134.54734-.26801h.54734l.27367-.134.821.067002.54734.201.54734-.067002.27367-.134.54734.067002.27367-.134.27367.067002 1.0947-.33501.54734-.40201.27367.201.821-.46901h.54734l.27367-.201h.27367l.27367-.40201.27367.201h.27367l.27367-.67002.821-.46901 1.0947-.93802.27367-.53601.27367.134.27367-.134h.27367l1.0947-1.139.27367.067002.54734-.46901.27367-.46901.27367.134.821-.46901.27367-.067001.27367-.33501.54734.067001.27367-.134.27367-.26801.27367-.067001.27367-.33501.27367-.134.27367.067002 1.9157-.87102 1.3683-.067001.821-.134h.821l.27367-.134 1.642-.067002 1.0947-.26801.54734.067001h.27367l.27367-.134 1.0947.067002.821.134 1.0947-.201 1.0947-.134 1.3683-.067002 1.0947-.201.821.067002 1.0947.201h.27367l1.3683-.93802h2.463l.27367-.134.27367.067002.54734-.134.27367.067001.54734-.201 1.0947-.201.27367-.33501.54734-.201.27367.067002.27367.201h.27367l1.3683-.87102.27367.134.821-.46901.27367-.201h.27367l1.0947-1.072.54734-.134.821-.93802.27367-.33501.821-.46901.54734-.67002.27367-.134.27367-.53601.54734-.26801.54734-.201.27367.134.27367-.26801.54734-.201.27367-.201.27367.134.27367-.26801h.27367l.27367-.134.821-.87102 1.3683.067002.27367-.201 1.0947-.067002.821-.134.821.134 2.1893-.067002.821-.134h3.5577l.27367-.26801 1.3683-.067002 1.3683-.26801 1.9157-.067001.54734-.201.27367.067001 1.0947-.134 1.3683-.40201.27367-.134.27367-.33501.54734-.201.821-.40201.27367.067001.27367-.201.27367.134h.27367l.27367-.201h.54734l.54734-.33501.27367.067001.27367-.134.27367.134 1.0947-.46901.27367.067001 1.9157-.53601.27367.134.54734-.134.54734-.26801h.821l1.3683-.60302.27367-.067002.27367-.40201 1.642-1.206.27367.067002.27367-.067002 1.3683-1.072.27367-.53601 1.0947-.46901.27367-.40201.27367-.134.27367-.53601 1.3683-1.005h.27367l.27367.201.54734-.201.27367-.201h.27367l.27367.134 1.0947-.33501.821-.40201.27367.067002 1.0947-.201 1.9157-.067001.54734-.067002 3.284.067002.27367.134 1.0947-.134 2.7367.067001 1.642.201.821-.26801.54734-.201 1.0947-.201.54734.134.27367-.067002.27367.134.27367-.067002.27367-.201.27367.201h.821l.27367-.201.27367.067002.54734-.33501.27367.134.27367-.26801.27367.201 1.3683-.067002m1.0947 0 .821-.134.54734-.33501.27367-.33501.54734-.067002h.27367l.54734-.40201.54734.134.54734-.33501.27367.134.27367-.33501.27367.201.27367-.067002.821-1.005.27367-.067002.27367-.26801.27367.067002.27367-.134.27367-.60302 1.3683-1.474.27367-.40201.27367-.067002.821-.67002.27367-.201.27367-.40201h.27367l.27367-.60302.54734-.60302h.54734l.27367-.134.27367-.26801.27367.067002.27367-.067002.54734-.33501h.27367l1.0947-.67002.821-.33501.27367.067002 1.3683-.26801.54734-.067001 1.0947-.201.54734.134 1.0947-.201.27367.134 2.463.067002.27367.134 1.3683-.067001.821-.134.54734.134.54734-.067002.27367.067002.821-.26801.27367-.134.54734-.067002.27367-.201.54734-.067001.27367-.067002.54734.067002h.821l.54734-.26801 1.0947-.067002.821-.33501h.27367l.54734-.26801 1.3683-.40201.54734.201.54734-.201.54734.26801.821-.33501.54734-.134.27367-.201 1.0947.067001.821-.53601h.27367l.54734-.53601h.54734l.27367-.26801h.27367l.27367-.201.27367.134.27367-.201.27367-.40201.54734-.201.54734-.53601 1.9157-1.809.27367-.067001.27367-.87102.54734-.73702.27367-.53601 1.0947-.53601 1.0947-1.005.821-.33501.27367.067001.821-.33501.27367-.53601.27367-.134v0" clip-path="url(#c)" fill="none" stroke="#28f" stroke-linecap="square" stroke-width="1.5"/>
   </g>
   <g id="gj">
    <path d="m52 523.06v-232.9" fill="none" stroke="#000" stroke-linecap="square" stroke-width=".8"/>
   </g>
   <g id="gk">
    <path d="m853.2 523.06v-232.9" fill="none" stroke="#000" stroke-linecap="square" stroke-width=".8"/>
   </g>
   <g id="gl">
    <path d="m52 523.06h801.2" fill="none" stroke="#000" stroke-linecap="square" stroke-width=".8"/>
   </g>
   <g id="gm">
    <path d="m52 290.16h801.2" fill="none" stroke="#000" stroke-linecap="square" stroke-width=".8"/>
   </g>
   <g id="gn">
    <!-- サーバー数の推移 -->
    <g transform="translate(404.6 284.16) scale(.12 -.12)">
     <defs>
      <path id="z" transform="scale(.015625)" d="m4685 2893q0-621-84-1111-83-489-288-877-204-387-569-691t-928-560l-544 512q448 167 781 371 333 205 550 503 218 298 323 739 106 442 106 1075v1620q0 192-10 339-9 147-22 217h723q-6-70-22-217t-16-339v-1581zm-2304 2086q-7-64-23-199-16-134-16-313v-2317q0-128 6-256 7-128 13-224 7-96 13-140h-710q6 44 12 140 7 96 13 221 7 125 7 259v2317q0 122-10 256-9 135-28 256h723zm-1978-1197q45-12 144-22t237-20q138-9 285-9h4217q237 0 394 13t246 26v-679q-76 7-240 13-163 6-393 6h-4224q-147 0-282-3-134-3-234-10-99-6-150-12v697z"/>
      <path id="s" transform="scale(.015625)" d="m621 2854q109-6 265-16 157-9 339-16 183-6 349-6 128 0 352 0t509 0 598 0q314 0 624 0 311 0 586 0t486 0q212 0 327 0 230 0 416 16t301 22v-793q-109 6-308 19-198 13-409 13-109 0-324 0-214 0-489 0t-586 0q-310 0-624 0-313 0-598 0t-509 0-352 0q-262 0-525-10-262-9-428-22v793z"/>
      <path id="y" transform="scale(.015625)" d="m4941 5037q83-109 176-269t182-320q90-160 154-288l-416-179q-96 192-240 448t-272 435l416 173zm723 275q83-122 182-282 100-160 196-317 96-156 153-271l-416-186q-102 205-246 454-144 250-279 429l410 173zm-4339-3360q102 262 201 556 100 295 183 612t144 630q61 314 93 602l723-147q-19-83-45-183-26-99-48-195t-42-166q-32-154-86-394t-131-512-164-551q-86-278-182-514-115-301-269-618-153-317-326-618-173-300-346-550l-697 294q301 397 563 874t429 880zm3155 198q-96 250-215 531-118 282-243 567-124 285-246 534-122 250-224 429l659 218q96-179 221-429t253-535q128-284 249-566 122-281 218-525 90-230 195-518 106-288 211-592 106-304 195-589 90-285 154-515l-729-237q-84 352-199 736t-240 768-259 723z"/>
     </defs>
     <use xlink:href="#z"/>
     <use transform="translate(100)" xlink:href="#s"/>
     <use transform="translate(200)" xlink:href="#y"/>
     <use transform="translate(300)" xlink:href="#s"/>
     <use transform="translate(400)" xlink:href="#q"/>
     <use transform="translate(500)" xlink:href="#t"/>
     <use transform="translate(600)" xlink:href="#r"/>
     <use transform="translate(700)" xlink:href="#p"/>
    </g>
   </g>
  </g>
 </g>
 <defs>
  <clipPath id="d">
   <rect x="52" y="26.88" width="801.2" height="232.9"/>
  </clipPath>
  <clipPath id="c">
   <rect x="52" y="290.16" width="801.2" height="232.9"/>
  </clipPath>
 </defs>
</svg>
