<!DOCTYPE svg  PUBLIC '-//W3C//DTD SVG 1.1//EN'  'http://www.w3.org/Graphics/SVG/1.1/DTD/svg11.dtd'>
<svg version="1.1" viewBox="0 0 864 576" xmlns="http://www.w3.org/2000/svg" xmlns:xlink="http://www.w3.org/1999/xlink">
 <defs>
  <style type="text/css">*{stroke-linejoin: round; stroke-linecap: butt}</style>
 </defs>
 <g id="e">
  <g id="f">
   <path d="m0 576h864v-576h-864z" fill="#fff"/>
  </g>
  <g id="g">
   <g id="h">
    <path d="m52.09 262.97h801.11v-236.09h-801.11z" fill="#fff"/>
   </g>
   <g id="i">
    <path d="m301.68 262.97h3.8298v-236.09h-3.8298z" clip-path="url(#a)" fill="#808080" opacity=".3" stroke="#808080"/>
   </g>
   <g id="j">
    <g id="k">
     <g id="l">
      <path d="m73.804 262.97v-236.09" clip-path="url(#a)" fill="none" stroke="#b0b0b0" stroke-linecap="square" stroke-opacity=".3" stroke-width=".8"/>
     </g>
     <g id="m">
      <defs>
       <path id="d" d="m0 0v3.5" stroke="#000" stroke-width=".8"/>
      </defs>
      <use x="73.804028" y="262.972732" stroke="#000000" stroke-width=".8" xlink:href="#d"/>
     </g>
    </g>
    <g id="n">
     <g id="o">
      <path d="m165.72 262.97v-236.09" clip-path="url(#a)" fill="none" stroke="#b0b0b0" stroke-linecap="square" stroke-opacity=".3" stroke-width=".8"/>
     </g>
     <g id="p">
      <use x="165.719313" y="262.972732" stroke="#000000" stroke-width=".8" xlink:href="#d"/>
     </g>
    </g>
    <g id="q">
     <g id="r">
      <path d="m257.63 262.97v-236.09" clip-path="url(#a)" fill="none" stroke="#b0b0b0" stroke-linecap="square" stroke-opacity=".3" stroke-width=".8"/>
     </g>
     <g id="s">
      <use x="257.634597" y="262.972732" stroke="#000000" stroke-width=".8" xlink:href="#d"/>
     </g>
    </g>
    <g id="t">
     <g id="u">
      <path d="m349.55 262.97v-236.09" clip-path="url(#a)" fill="none" stroke="#b0b0b0" stroke-linecap="square" stroke-opacity=".3" stroke-width=".8"/>
     </g>
     <g id="v">
      <use x="349.549881" y="262.972732" stroke="#000000" stroke-width=".8" xlink:href="#d"/>
     </g>
    </g>
    <g id="w">
     <g id="x">
      <path d="m441.47 262.97v-236.09" clip-path="url(#a)" fill="none" stroke="#b0b0b0" stroke-linecap="square" stroke-opacity=".3" stroke-width=".8"/>
     </g>
     <g id="y">
      <use x="441.465165" y="262.972732" stroke="#000000" stroke-width=".8" xlink:href="#d"/>
     </g>
    </g>
    <g id="z">
     <g id="aa">
      <path d="m533.38 262.97v-236.09" clip-path="url(#a)" fill="none" stroke="#b0b0b0" stroke-linecap="square" stroke-opacity=".3" stroke-width=".8"/>
     </g>
     <g id="ab">
      <use x="533.380449" y="262.972732" stroke="#000000" stroke-width=".8" xlink:href="#d"/>
     </g>
    </g>
    <g id="ac">
     <g id="ad">
      <path d="m625.3 262.97v-236.09" clip-path="url(#a)" fill="none" stroke="#b0b0b0" stroke-linecap="square" stroke-opacity=".3" stroke-width=".8"/>
     </g>
     <g id="ae">
      <use x="625.295734" y="262.972732" stroke="#000000" stroke-width=".8" xlink:href="#d"/>
     </g>
    </g>
    <g id="af">
     <g id="ag">
      <path d="m717.21 262.97v-236.09" clip-path="url(#a)" fill="none" stroke="#b0b0b0" stroke-linecap="square" stroke-opacity=".3" stroke-width=".8"/>
     </g>
     <g id="ah">
      <use x="717.211018" y="262.972732" stroke="#000000" stroke-width=".8" xlink:href="#d"/>
     </g>
    </g>
    <g id="ai">
     <g id="aj">
      <path d="m809.13 262.97v-236.09" clip-path="url(#a)" fill="none" stroke="#b0b0b0" stroke-linecap="square" stroke-opacity=".3" stroke-width=".8"/>
     </g>
     <g id="ak">
      <use x="809.126302" y="262.972732" stroke="#000000" stroke-width=".8" xlink:href="#d"/>
     </g>
    </g>
   </g>
   <g id="al">
    <g id="am">
     <g id="an">
      <path d="m52.09 256.25h801.11" clip-path="url(#a)" fill="none" stroke="#b0b0b0" stroke-linecap="square" stroke-opacity=".3" stroke-width=".8"/>
     </g>
     <g id="ao">
      <defs>
       <path id="c" d="m0 0h-3.5" stroke="#000" stroke-width=".8"/>
      </defs>
      <use x="52.09" y="256.245531" stroke="#000000" stroke-width=".8" xlink:href="#c"/>
     </g>
     <g id="ap">
      <text transform="rotate(-0 45.09 260.23)" x="45.09" y="260.230687" font-family="'Noto Sans JP'" font-size="10px" text-anchor="end">250</text>
     </g>
    </g>
    <g id="aq">
     <g id="ar">
      <path d="m52.09 231.22h801.11" clip-path="url(#a)" fill="none" stroke="#b0b0b0" stroke-linecap="square" stroke-opacity=".3" stroke-width=".8"/>
     </g>
     <g id="as">
      <use x="52.09" y="231.21874" stroke="#000000" stroke-width=".8" xlink:href="#c"/>
     </g>
     <g id="at">
      <text transform="rotate(-0 45.09 235.2)" x="45.09" y="235.203896" font-family="'Noto Sans JP'" font-size="10px" text-anchor="end">500</text>
     </g>
    </g>
    <g id="au">
     <g id="av">
      <path d="m52.09 206.19h801.11" clip-path="url(#a)" fill="none" stroke="#b0b0b0" stroke-linecap="square" stroke-opacity=".3" stroke-width=".8"/>
     </g>
     <g id="aw">
      <use x="52.09" y="206.191949" stroke="#000000" stroke-width=".8" xlink:href="#c"/>
     </g>
     <g id="ax">
      <text transform="rotate(-0 45.09 210.18)" x="45.09" y="210.177106" font-family="'Noto Sans JP'" font-size="10px" text-anchor="end">750</text>
     </g>
    </g>
    <g id="ay">
     <g id="az">
      <path d="m52.09 181.17h801.11" clip-path="url(#a)" fill="none" stroke="#b0b0b0" stroke-linecap="square" stroke-opacity=".3" stroke-width=".8"/>
     </g>
     <g id="ba">
      <use x="52.09" y="181.165159" stroke="#000000" stroke-width=".8" xlink:href="#c"/>
     </g>
     <g id="bb">
      <text transform="rotate(-0 45.09 185.15)" x="45.09" y="185.150315" font-family="'Noto Sans JP'" font-size="10px" text-anchor="end">1000</text>
     </g>
    </g>
    <g id="bc">
     <g id="bd">
      <path d="m52.09 156.14h801.11" clip-path="url(#a)" fill="none" stroke="#b0b0b0" stroke-linecap="square" stroke-opacity=".3" stroke-width=".8"/>
     </g>
     <g id="be">
      <use x="52.09" y="156.138368" stroke="#000000" stroke-width=".8" xlink:href="#c"/>
     </g>
     <g id="bf">
      <text transform="rotate(-0 45.09 160.12)" x="45.09" y="160.123524" font-family="'Noto Sans JP'" font-size="10px" text-anchor="end">1250</text>
     </g>
    </g>
    <g id="bg">
     <g id="bh">
      <path d="m52.09 131.11h801.11" clip-path="url(#a)" fill="none" stroke="#b0b0b0" stroke-linecap="square" stroke-opacity=".3" stroke-width=".8"/>
     </g>
     <g id="bi">
      <use x="52.09" y="131.111578" stroke="#000000" stroke-width=".8" xlink:href="#c"/>
     </g>
     <g id="bj">
      <text transform="rotate(-0 45.09 135.1)" x="45.09" y="135.096734" font-family="'Noto Sans JP'" font-size="10px" text-anchor="end">1500</text>
     </g>
    </g>
    <g id="bk">
     <g id="bl">
      <path d="m52.09 106.08h801.11" clip-path="url(#a)" fill="none" stroke="#b0b0b0" stroke-linecap="square" stroke-opacity=".3" stroke-width=".8"/>
     </g>
     <g id="bm">
      <use x="52.09" y="106.084787" stroke="#000000" stroke-width=".8" xlink:href="#c"/>
     </g>
     <g id="bn">
      <text transform="rotate(-0 45.09 110.07)" x="45.09" y="110.069943" font-family="'Noto Sans JP'" font-size="10px" text-anchor="end">1750</text>
     </g>
    </g>
    <g id="bo">
     <g id="bp">
      <path d="m52.09 81.058h801.11" clip-path="url(#a)" fill="none" stroke="#b0b0b0" stroke-linecap="square" stroke-opacity=".3" stroke-width=".8"/>
     </g>
     <g id="bq">
      <use x="52.09" y="81.057996" stroke="#000000" stroke-width=".8" xlink:href="#c"/>
     </g>
     <g id="br">
      <text transform="rotate(-0 45.09 85.043)" x="45.09" y="85.043153" font-family="'Noto Sans JP'" font-size="10px" text-anchor="end">2000</text>
     </g>
    </g>
    <g id="bs">
     <g id="bt">
      <path d="m52.09 56.031h801.11" clip-path="url(#a)" fill="none" stroke="#b0b0b0" stroke-linecap="square" stroke-opacity=".3" stroke-width=".8"/>
     </g>
     <g id="bu">
      <use x="52.09" y="56.031206" stroke="#000000" stroke-width=".8" xlink:href="#c"/>
     </g>
     <g id="bv">
      <text transform="rotate(-0 45.09 60.016)" x="45.09" y="60.016362" font-family="'Noto Sans JP'" font-size="10px" text-anchor="end">2250</text>
     </g>
    </g>
    <g id="bw">
     <g id="bx">
      <path d="m52.09 31.004h801.11" clip-path="url(#a)" fill="none" stroke="#b0b0b0" stroke-linecap="square" stroke-opacity=".3" stroke-width=".8"/>
     </g>
     <g id="by">
      <use x="52.09" y="31.004415" stroke="#000000" stroke-width=".8" xlink:href="#c"/>
     </g>
     <g id="bz">
      <text transform="rotate(-0 45.09 34.99)" x="45.09" y="34.989571" font-family="'Noto Sans JP'" font-size="10px" text-anchor="end">2500</text>
     </g>
    </g>
   </g>
   <g id="ca">
    <path d="m88.504 223.11.36383.20021.32128-.40043 1.3277.40043.6766-.10011 1.8064-1.0011 1.9106-1.7018 1.9213-2.0021 1.9106-3.1033 1.9851-2.803 1.9064-1.5016 1.9192-.20021 1.8043-1.902 1.9149-1.4015 1.9149-2.4026 1.9149-3.2034 1.9149-.70075 1.9149-3.704 1.9149-2.7029 1.9149-3.8041 1.9149-3.0032 1.9149-3.8041 1.9149-2.6028 1.9149-2.4026 1.9149-1.6017 1.9149-.90096 1.9149-2.3025 1.9149-6.1065 3.8298-19.321 1.9149-8.6092 1.9149-12.714 1.9149-13.915 1.9149-10.411 1.9149-13.314 1.9149-9.8105 1.9149-15.417 1.9149-17.519 1.9149-6.1065 1.9149-2.7029 1.9149-.90096 1.9149 3.0032 1.9149 1.8019 3.8298 20.222 1.9149 8.409 1.9149 9.0096 1.9149 12.413 1.9149 14.315 1.9149 10.511 1.9149 12.614 3.8298 20.021 1.9149 9.4101 1.9149 8.1087 1.9149 7.3078 1.9149 6.7072 1.9149 5.9063 1.9149 5.4058 1.9149 6.3068 1.9149 4.9053 1.9149 3.1033 1.9149 4.5048 1.9149 3.2034 1.9149 4.2045 1.9149 2.2024 1.9149 3.704 1.9149 2.4026 1.9149 2.0021 1.9149 3.1033 1.9149 2.803 1.9149 1.8019 1.9149 4.0043 1.9149 1.3014 1.9149 2.0021 3.8298 1.902 1.9149 1.3014 1.9149.30032 1.9149 1.5016 1.9149.60064 3.8298.30032 3.8298-.50054 5.7447-3.3035 1.9149-.30032 1.9149-1.1012 1.9149-.50054 1.9149-1.8019 3.8298-4.3046 1.9149-2.3025 1.9149.30032 1.9149-.20021 1.9149-3.2034 1.9149-1.8019 1.9149-.90096 1.9149-1.5016 1.9149-1.7018 1.9149-3.6039 1.9149-2.0021 1.9149-.70075 1.9149-1.7018 1.9149-1.4015 1.9149-1.8019 1.9149-4.5048 1.9149-2.803 1.9149-4.2045 1.9149-2.7029 1.9149-3.3035 1.9149-3.0032 1.9149-1.6017m3.8298 22.424 1.9149-14.115 1.9149-2.7029 1.9149-1.6017 3.8298-10.011 1.9149-5.4058 1.9149-6.9074 1.9149-9.6103 3.8298-23.225 1.9149-14.115 1.9149-18.72 1.9149-12.614 1.9149-10.912 1.9149-12.213 1.9149-9.1098 1.9149-7.8084 1.9149-4.3046 1.9149.50054 1.9149-1.4015 1.9149 2.0021 1.9149 5.4058 1.9149 4.705 1.9149 13.214 1.9149 11.112 1.9149 8.0086 1.9149 11.612 1.9149 12.313 1.9149 8.7093 1.9149 7.9085 1.9149 9.0096 1.9149 10.311 1.9149 8.7093 1.9149 6.3068 1.9149 7.6081 1.9149 6.8073 1.9149 5.7061 1.9149 4.9053 3.8298 10.711 1.9149 5.2056 1.9149 4.0043 1.9149 2.4026 1.9149 2.9031 3.8298 3.704 1.9149 2.7029 1.9149 3.0032 1.9149 3.5038 1.9149 3.1033 3.8298 3.6039 1.9149.50054 1.9149 1.0011 1.9149 1.5016 1.9149.70075 1.9149 1.8019 1.9149 1.6017 1.9149 1.8019 1.9149-.50054 1.9149.40043h1.9149l1.9149.60064 1.9149-1.5016 1.9149.20021 1.9149-.40043 1.9149-.60064 1.9149-.30032 1.9149-.70075 1.9149.10011 1.9149-.60064 1.9149-2.4026 1.9149-1.7018 1.9149-1.0011 1.9149-1.902 1.9149-2.4026 1.9149-1.1012 1.9149-1.8019 1.9149-1.2013 1.9149-2.6028 1.9149-1.4015 1.9149-3.1033 1.9149-1.2013 1.9149-3.704 1.9149-1.902 1.9149-3.8041 1.9149-1.1012 1.9149-1.7018 1.9149-1.4015 1.9149-2.6028 1.9149-1.6017 1.9149-3.8041 1.9149-3.1033 1.9149-2.1023 1.9149-.50054 1.9149-3.6039 1.9149-1.3014 1.9149-2.7029 1.9149-1.6017 1.9149-2.0021 1.9149-1.6017 1.9149-7.0075 1.9149-6.2066 1.9149-8.3089 3.8298-20.222 1.9149-11.512 1.9149-15.817 1.9149-10.511 1.9149-12.914 3.8298-18.92 1.9149-7.2077 1.9149-6.7072 1.9149-2.7029 1.9149-2.4026 1.9149 1.2013 1.9149 4.3046 1.9149 9.2099 1.9149 11.012 1.9149 10.311 1.9149 12.413 1.9149 9.7104 1.9149 12.013 1.9149 10.311 1.9149 8.5091 1.9149 9.5102 1.9149 6.7072 1.9149 6.0064 3.8298 14.616 1.9149 6.507 1.9149 8.0086 1.9149 5.9063 3.8298 10.912 1.9149 4.5048 1.9149 3.6039 1.9149 4.3046 1.9149 2.6028 1.9149 3.9042 1.9149 2.4026 3.8298 4.5048 1.9149 3.2034 1.9149 2.1023 1.9149 2.5027 1.9149 1.5016 1.9149 1.3014 1.9149.80086 1.9149 1.3014 1.9149.70075h1.9149l2.5532.30032.6383.30032.6383.50054.6383.20022 1.2766-.10011 1.2766-.60064 1.2766.50054.6383-.10011 1.2766.30032 1.2766-.70075.6383-.60064.6383.20021.6383-.90096.6383-.20022h.6383l.6383.20022.6383-.20022.6383.10011.6383-.50054.6383.40043 1.2766-.80086.6383-.60064.6383.20021.6383-.10011.6383-.50054.6383.10011.6383-.60064 1.2766-.50054.6383-.60064.6383-.40043.6383-.10011.6383-.40043 1.2766-.30032.6383-.60064.6383-1.0011.6383.10011 1.2766-.50054.6383.10011.6383-.40043 1.2766-.50054.6383-.50054 1.2766-2.3025.6383-.80086h.6383l.6383-.60064.6383-.90096.6383-.30032 1.2766-1.902.6383-.20021.6383-.60064h.6383l1.2766-1.3014.6383-.10011 1.2766-1.902.6383-.80086.6383-.30032.6383-.60064.6383-1.2013.6383-.10011.6383-1.0011.6383-.50054 1.9149-3.5038.6383-.60064.6383-.80086.6383-.60064.6383-.20021.6383-.60064.6383-.30032.6383-.50054.6383.20021.6383-1.5016.6383-.90096.6383-.40043.6383-1.2013 1.2766-.80086.6383-1.6017.6383-.70075.6383-1.2013 1.9149-1.0011.6383-1.4015.6383-.60064.6383-.10011.6383.20021.6383-.10011.6383-1.0011 2.5532-2.3025.6383-1.902.6383.30032 1.9149-3.3035.6383-.80086 1.2766-2.5027.6383-.50054.6383-1.3014 1.9149-.30032.6383-.50054.6383-.90096.6383.80086.6383-1.2013.6383.30032.6383-1.3014.6383-.80086 2.5532-6.0064.6383-.20021.6383-1.3014.6383-2.2024.6383-2.803.6383-2.3025.6383-1.5016.6383-2.9031 1.2766-7.7083.6383-3.2034.6383-4.5048 1.2766-7.6081 1.2766-9.6103.6383-9.0096 1.2766-7.9085 1.2766-5.2056 1.2766-7.9085 1.2766-9.0096.6383-2.0021.6383-4.3046.6383-2.9031.6383-7.0075 1.2766-7.6081 1.2766-5.606.6383-1.3014.6383-2.1022.6383-1.4015.6383-3.704.6383-.60064.6383.50054.6383-1.0011.6383-1.3014.6383-.80086.6383-.20022.6383-.40043.6383-1.2013.6383-.10011 1.2766 1.0011.6383 2.7029 1.2766 3.704 2.5532 13.915 1.2766 6.0064.6383 3.9042.6383 1.6017.6383.90096 1.2766 6.2066 2.5532 16.918.6383 2.3025.6383 3.3035 1.2766 7.7083.6383 2.9031.6383 1.2013 1.9149 8.7093.6383 2.1023.6383 3.9042.6383 2.803.6383 3.5038 3.8298 16.518 1.9149 6.9074 1.2766 6.0064.6383 2.2024.6383 2.7029.6383 1.902.6383 2.4026.6383 1.1012.6383 1.8019.6383 1.2013.6383 1.5016 1.2766 1.902 1.9149 6.3068.6383 1.2013.6383 1.902.6383 1.3014.6383.60064.6383 1.4015.6383 1.0011.6383 1.7018 1.9149 3.5038.6383.90096.6383 1.1012.6383 1.5016.6383.30032.6383.60064 1.9149 2.5027.6383 1.0011.6383.50054.6383.90096.6383 1.6017.6383 1.3014.6383.60064.6383.80086.6383 1.4015.6383.90096.6383 1.6017.6383 1.1012.6383.60064.6383.80086.6383.50054.6383.90096.6383 1.902 1.2766.50054 1.2766 2.0021 1.9149 2.0021 1.2766.40043.6383.70075.6383-.30032.6383.40043 1.2766 1.3014.6383.10011.6383.80086.6383 1.0011.6383.50054 1.2766.50054.6383.10011.6383.30032.6383-.10011.6383.50054 1.2766.10011.6383.30032 1.2766-.20022.6383.50054.6383-.40043 1.9149.40043 1.2766-.70075.6383-.50054 1.2766.20022 1.2766-.50054 1.2766-1.1012 1.2766-.70075 1.2766-.80086 1.2766.30032 1.2766-.30032 2.5532-1.1012 1.2766.50054 1.2766-1.4015 1.2766-2.1022 2.5532-3.2034 1.2766-.30032 1.2766-1.1012 1.2766-.20021v0" clip-path="url(#a)" fill="none" stroke="#28f" stroke-linecap="square" stroke-width="1.5"/>
   </g>
   <g id="cb">
    <path d="m52.09 262.97v-236.09" fill="none" stroke="#000" stroke-linecap="square" stroke-width=".8"/>
   </g>
   <g id="cc">
    <path d="m853.2 262.97v-236.09" fill="none" stroke="#000" stroke-linecap="square" stroke-width=".8"/>
   </g>
   <g id="cd">
    <path d="m52.09 262.97h801.11" fill="none" stroke="#000" stroke-linecap="square" stroke-width=".8"/>
   </g>
   <g id="ce">
    <path d="m52.09 26.88h801.11" fill="none" stroke="#000" stroke-linecap="square" stroke-width=".8"/>
   </g>
   <g id="cf">
    <text transform="rotate(-0 452.64 20.88)" x="452.645" y="20.88" font-family="'Noto Sans JP'" font-size="12px" text-anchor="middle">同時接続数の推移</text>
   </g>
  </g>
  <g id="cg">
   <g id="ch">
    <path d="m52.09 529.45h801.11v-236.09h-801.11z" fill="#fff"/>
   </g>
   <g id="ci">
    <path d="m301.68 529.45h3.8298v-236.09h-3.8298z" clip-path="url(#b)" fill="#808080" opacity=".3" stroke="#808080"/>
   </g>
   <g id="cj">
    <g id="ck">
     <g id="cl">
      <path d="m73.804 529.45v-236.09" clip-path="url(#b)" fill="none" stroke="#b0b0b0" stroke-linecap="square" stroke-opacity=".3" stroke-width=".8"/>
     </g>
     <g id="cm">
      <use x="73.804028" y="529.445464" stroke="#000000" stroke-width=".8" xlink:href="#d"/>
     </g>
     <g id="cn">
      <text transform="translate(38.031 563.36) rotate(-30)" font-family="'Noto Sans JP'" font-size="10px">06-30 12</text>
     </g>
    </g>
    <g id="co">
     <g id="cp">
      <path d="m165.72 529.45v-236.09" clip-path="url(#b)" fill="none" stroke="#b0b0b0" stroke-linecap="square" stroke-opacity=".3" stroke-width=".8"/>
     </g>
     <g id="cq">
      <use x="165.719313" y="529.445464" stroke="#000000" stroke-width=".8" xlink:href="#d"/>
     </g>
     <g id="cr">
      <text transform="translate(129.95 563.36) rotate(-30)" font-family="'Noto Sans JP'" font-size="10px">07-01 00</text>
     </g>
    </g>
    <g id="cs">
     <g id="ct">
      <path d="m257.63 529.45v-236.09" clip-path="url(#b)" fill="none" stroke="#b0b0b0" stroke-linecap="square" stroke-opacity=".3" stroke-width=".8"/>
     </g>
     <g id="cu">
      <use x="257.634597" y="529.445464" stroke="#000000" stroke-width=".8" xlink:href="#d"/>
     </g>
     <g id="cv">
      <text transform="translate(221.86 563.36) rotate(-30)" font-family="'Noto Sans JP'" font-size="10px">07-01 12</text>
     </g>
    </g>
    <g id="cw">
     <g id="cx">
      <path d="m349.55 529.45v-236.09" clip-path="url(#b)" fill="none" stroke="#b0b0b0" stroke-linecap="square" stroke-opacity=".3" stroke-width=".8"/>
     </g>
     <g id="cy">
      <use x="349.549881" y="529.445464" stroke="#000000" stroke-width=".8" xlink:href="#d"/>
     </g>
     <g id="cz">
      <text transform="translate(313.78 563.36) rotate(-30)" font-family="'Noto Sans JP'" font-size="10px">07-02 00</text>
     </g>
    </g>
    <g id="da">
     <g id="db">
      <path d="m441.47 529.45v-236.09" clip-path="url(#b)" fill="none" stroke="#b0b0b0" stroke-linecap="square" stroke-opacity=".3" stroke-width=".8"/>
     </g>
     <g id="dc">
      <use x="441.465165" y="529.445464" stroke="#000000" stroke-width=".8" xlink:href="#d"/>
     </g>
     <g id="dd">
      <text transform="translate(405.69 563.36) rotate(-30)" font-family="'Noto Sans JP'" font-size="10px">07-02 12</text>
     </g>
    </g>
    <g id="de">
     <g id="df">
      <path d="m533.38 529.45v-236.09" clip-path="url(#b)" fill="none" stroke="#b0b0b0" stroke-linecap="square" stroke-opacity=".3" stroke-width=".8"/>
     </g>
     <g id="dg">
      <use x="533.380449" y="529.445464" stroke="#000000" stroke-width=".8" xlink:href="#d"/>
     </g>
     <g id="dh">
      <text transform="translate(497.61 563.36) rotate(-30)" font-family="'Noto Sans JP'" font-size="10px">07-03 00</text>
     </g>
    </g>
    <g id="di">
     <g id="dj">
      <path d="m625.3 529.45v-236.09" clip-path="url(#b)" fill="none" stroke="#b0b0b0" stroke-linecap="square" stroke-opacity=".3" stroke-width=".8"/>
     </g>
     <g id="dk">
      <use x="625.295734" y="529.445464" stroke="#000000" stroke-width=".8" xlink:href="#d"/>
     </g>
     <g id="dl">
      <text transform="translate(589.52 563.36) rotate(-30)" font-family="'Noto Sans JP'" font-size="10px">07-03 12</text>
     </g>
    </g>
    <g id="dm">
     <g id="dn">
      <path d="m717.21 529.45v-236.09" clip-path="url(#b)" fill="none" stroke="#b0b0b0" stroke-linecap="square" stroke-opacity=".3" stroke-width=".8"/>
     </g>
     <g id="do">
      <use x="717.211018" y="529.445464" stroke="#000000" stroke-width=".8" xlink:href="#d"/>
     </g>
     <g id="dp">
      <text transform="translate(681.44 563.36) rotate(-30)" font-family="'Noto Sans JP'" font-size="10px">07-04 00</text>
     </g>
    </g>
    <g id="dq">
     <g id="dr">
      <path d="m809.13 529.45v-236.09" clip-path="url(#b)" fill="none" stroke="#b0b0b0" stroke-linecap="square" stroke-opacity=".3" stroke-width=".8"/>
     </g>
     <g id="ds">
      <use x="809.126302" y="529.445464" stroke="#000000" stroke-width=".8" xlink:href="#d"/>
     </g>
     <g id="dt">
      <text transform="translate(773.35 563.36) rotate(-30)" font-family="'Noto Sans JP'" font-size="10px">07-04 12</text>
     </g>
    </g>
   </g>
   <g id="du">
    <g id="dv">
     <g id="dw">
      <path d="m52.09 513.79h801.11" clip-path="url(#b)" fill="none" stroke="#b0b0b0" stroke-linecap="square" stroke-opacity=".3" stroke-width=".8"/>
     </g>
     <g id="dx">
      <use x="52.09" y="513.791275" stroke="#000000" stroke-width=".8" xlink:href="#c"/>
     </g>
     <g id="dy">
      <text transform="rotate(-0 45.09 517.78)" x="45.09" y="517.776432" font-family="'Noto Sans JP'" font-size="10px" text-anchor="end">104720</text>
     </g>
    </g>
    <g id="dz">
     <g id="ea">
      <path d="m52.09 487.54h801.11" clip-path="url(#b)" fill="none" stroke="#b0b0b0" stroke-linecap="square" stroke-opacity=".3" stroke-width=".8"/>
     </g>
     <g id="eb">
      <use x="52.09" y="487.536871" stroke="#000000" stroke-width=".8" xlink:href="#c"/>
     </g>
     <g id="ec">
      <text transform="rotate(-0 45.09 491.52)" x="45.09" y="491.522027" font-family="'Noto Sans JP'" font-size="10px" text-anchor="end">104800</text>
     </g>
    </g>
    <g id="ed">
     <g id="ee">
      <path d="m52.09 461.28h801.11" clip-path="url(#b)" fill="none" stroke="#b0b0b0" stroke-linecap="square" stroke-opacity=".3" stroke-width=".8"/>
     </g>
     <g id="ef">
      <use x="52.09" y="461.282466" stroke="#000000" stroke-width=".8" xlink:href="#c"/>
     </g>
     <g id="eg">
      <text transform="rotate(-0 45.09 465.27)" x="45.09" y="465.267623" font-family="'Noto Sans JP'" font-size="10px" text-anchor="end">104880</text>
     </g>
    </g>
    <g id="eh">
     <g id="ei">
      <path d="m52.09 435.03h801.11" clip-path="url(#b)" fill="none" stroke="#b0b0b0" stroke-linecap="square" stroke-opacity=".3" stroke-width=".8"/>
     </g>
     <g id="ej">
      <use x="52.09" y="435.028062" stroke="#000000" stroke-width=".8" xlink:href="#c"/>
     </g>
     <g id="ek">
      <text transform="rotate(-0 45.09 439.01)" x="45.09" y="439.013218" font-family="'Noto Sans JP'" font-size="10px" text-anchor="end">104960</text>
     </g>
    </g>
    <g id="el">
     <g id="em">
      <path d="m52.09 408.77h801.11" clip-path="url(#b)" fill="none" stroke="#b0b0b0" stroke-linecap="square" stroke-opacity=".3" stroke-width=".8"/>
     </g>
     <g id="en">
      <use x="52.09" y="408.773658" stroke="#000000" stroke-width=".8" xlink:href="#c"/>
     </g>
     <g id="eo">
      <text transform="rotate(-0 45.09 412.76)" x="45.09" y="412.758814" font-family="'Noto Sans JP'" font-size="10px" text-anchor="end">105040</text>
     </g>
    </g>
    <g id="ep">
     <g id="eq">
      <path d="m52.09 382.52h801.11" clip-path="url(#b)" fill="none" stroke="#b0b0b0" stroke-linecap="square" stroke-opacity=".3" stroke-width=".8"/>
     </g>
     <g id="er">
      <use x="52.09" y="382.519253" stroke="#000000" stroke-width=".8" xlink:href="#c"/>
     </g>
     <g id="es">
      <text transform="rotate(-0 45.09 386.5)" x="45.09" y="386.504409" font-family="'Noto Sans JP'" font-size="10px" text-anchor="end">105120</text>
     </g>
    </g>
    <g id="et">
     <g id="eu">
      <path d="m52.09 356.26h801.11" clip-path="url(#b)" fill="none" stroke="#b0b0b0" stroke-linecap="square" stroke-opacity=".3" stroke-width=".8"/>
     </g>
     <g id="ev">
      <use x="52.09" y="356.264849" stroke="#000000" stroke-width=".8" xlink:href="#c"/>
     </g>
     <g id="ew">
      <text transform="rotate(-0 45.09 360.25)" x="45.09" y="360.250005" font-family="'Noto Sans JP'" font-size="10px" text-anchor="end">105200</text>
     </g>
    </g>
    <g id="ex">
     <g id="ey">
      <path d="m52.09 330.01h801.11" clip-path="url(#b)" fill="none" stroke="#b0b0b0" stroke-linecap="square" stroke-opacity=".3" stroke-width=".8"/>
     </g>
     <g id="ez">
      <use x="52.09" y="330.010444" stroke="#000000" stroke-width=".8" xlink:href="#c"/>
     </g>
     <g id="fa">
      <text transform="rotate(-0 45.09 334)" x="45.09" y="333.9956" font-family="'Noto Sans JP'" font-size="10px" text-anchor="end">105280</text>
     </g>
    </g>
    <g id="fb">
     <g id="fc">
      <path d="m52.09 303.76h801.11" clip-path="url(#b)" fill="none" stroke="#b0b0b0" stroke-linecap="square" stroke-opacity=".3" stroke-width=".8"/>
     </g>
     <g id="fd">
      <use x="52.09" y="303.75604" stroke="#000000" stroke-width=".8" xlink:href="#c"/>
     </g>
     <g id="fe">
      <text transform="rotate(-0 45.09 307.74)" x="45.09" y="307.741196" font-family="'Noto Sans JP'" font-size="10px" text-anchor="end">105360</text>
     </g>
    </g>
   </g>
   <g id="ff">
    <path d="m88.504 518.71h.68511l1.3277-.65636.6766-.65636h1.8064l1.9106-.65636 1.9213-.32818 3.8958-2.6254 5.6298-.98454 3.8298.65636 1.9149-.98454 1.9149-1.6409h1.9149l1.9149-1.9691 1.9149-2.2973 3.8298-.65636 1.9149-1.3127 1.9149-1.6409 1.9149.32818h1.9149l1.9149.32818 1.9149-.32818 1.9149-1.3127 1.9149-1.9691 1.9149-3.2818 1.9149-1.6409 1.9149-1.3127h1.9149l1.9149-1.3127 1.9149-1.6409 1.9149-1.9691 1.9149-3.9382 1.9149-4.9227 1.9149-2.9536 1.9149-1.6409 1.9149-1.9691 3.8298-1.9691 1.9149.32818 1.9149-1.6409h1.9149l1.9149-.32818 1.9149.32818 1.9149-1.3127h1.9149l1.9149-1.6409 1.9149-.98454 3.8298-.65636 1.9149-.65636 3.8298-.65636 1.9149.65636 1.9149-.32818 1.9149.32818 7.6596-1.3127h5.7447l1.9149-.32818h1.9149l3.8298-.65636h3.8298l1.9149-.32818h1.9149l1.9149.32818h1.9149l1.9149-.32818h1.9149l1.9149.32818 1.9149-.32818h1.9149l1.9149.65636 1.9149-.65636h1.9149l1.9149-.32818h3.8298l1.9149-.65636h3.8298l1.9149-1.3127 1.9149-.65636 1.9149-.98454h1.9149l1.9149-.32818 5.7447-1.9691h1.9149l3.8298-1.9691 1.9149-.32818 1.9149-.65636 1.9149-.32818 1.9149-.65636 1.9149-.32818 1.9149-.65636 5.7447-2.9536 1.9149-.65636 1.9149-.32818 1.9149-.65636m3.8298-1.9691 1.9149-1.3127 1.9149-2.9536 1.9149-1.6409 1.9149-.32818 1.9149-.65636 1.9149-.32818 3.8298-1.3127 3.8298-2.6254 1.9149-4.2663 1.9149-1.3127 1.9149-3.2818 1.9149-3.61h1.9149l1.9149-2.6254 1.9149-1.9691 1.9149-.98454 1.9149-2.2973 1.9149-1.3127 1.9149-.98454 1.9149-1.6409 1.9149-1.3127 1.9149.32818 1.9149-1.3127 1.9149-.98454 1.9149-1.6409 1.9149-.65636h1.9149l7.6596-1.3127 1.9149.65636h1.9149l1.9149-1.3127 1.9149-.98454 3.8298-.65636 1.9149.32818 1.9149-.65636 1.9149.32818 3.8298-.65636 1.9149-.65636h3.8298l1.9149.32818h1.9149l1.9149-.32818h1.9149l1.9149.32818h3.8298l1.9149-.32818h3.8298l1.9149.32818h1.9149l1.9149-.65636 1.9149-.32818 1.9149.65636 3.8298.65636 1.9149-.65636 1.9149-.32818 1.9149-.65636h1.9149l1.9149-.65636h1.9149l1.9149-1.3127 1.9149-.32818 1.9149-.65636 1.9149-1.6409h1.9149l1.9149.32818h3.8298l1.9149.32818 1.9149-.32818 1.9149-.98454 1.9149-.32818h1.9149l1.9149-.32818 1.9149.65636 3.8298-.65636h3.8298l3.8298-2.6254 1.9149-.98454 1.9149-.32818 1.9149-1.3127 1.9149.32818 3.8298-.65636 1.9149.32818 1.9149-1.3127 1.9149-.65636h3.8298l1.9149-2.2973 1.9149-1.3127 1.9149-.98454 1.9149-2.2973 3.8298-1.3127 1.9149-.98454 1.9149-1.3127 1.9149-.98454 1.9149-3.2818 1.9149-.32818 1.9149-1.3127 1.9149-3.61 1.9149-1.9691 1.9149-2.2973 1.9149-1.3127 1.9149-.65636 1.9149.98454 1.9149-.65636 1.9149-1.6409 1.9149-.65636 1.9149-.98454 1.9149-.65636h1.9149l1.9149-.32818 1.9149.32818 1.9149-.98454 1.9149.32818h11.489l1.9149-.65636 3.8298.65636 3.8298-.65636h3.8298l1.9149-.32818 3.8298.65636h1.9149l3.8298-.65636 1.9149.98454h1.9149l1.9149-.65636 1.9149-.98454 2.5532-.65636h1.9149l.6383.32818h1.2766l.6383-.65636h1.2766l.6383-.32818 1.2766.65636h3.8298l.6383-.65636h5.1064l.6383.32818.6383.65636h1.2766l.6383-.32818h1.9149l.6383-.32818h1.9149l.6383-.65636.6383.65636h.6383l.6383-.32818h1.9149l.6383-.65636h1.2766l1.2766.65636h.6383l.6383-.32818h1.9149l.6383-.32818.6383.32818.6383-.32818h2.5532l.6383-.32818 1.2766-1.3127.6383.65636h.6383l1.2766.65636 1.9149-.98454.6383-.65636 1.2766.65636h.6383l.6383-.32818h.6383l1.2766-.65636h1.2766l.6383.32818.6383-.32818h1.2766l.6383.32818.6383.65636h.6383l1.2766-1.3127h.6383l.6383-.98454.6383-.65636.6383-.32818h.6383l1.9149-1.9691.6383-.32818h.6383l.6383-.32818.6383.32818h1.2766l.6383.32818h1.2766l1.2766-.65636.6383.32818.6383-.65636h1.2766l.6383.32818 1.2766-.65636h.6383l.6383-.32818h.6383l1.2766-.65636.6383-.65636h.6383l1.2766-.65636.6383-.65636h2.5532l.6383-.65636h.6383l.6383-.32818.6383-.98454.6383.65636.6383-.32818.6383.65636.6383-.98454.6383-.32818.6383-.65636h1.2766l.6383-.32818.6383-.65636h.6383l.6383-.32818.6383.32818.6383-.65636h.6383l1.9149-2.9536h1.2766l1.9149-.98454.6383-1.9691.6383-1.3127.6383-.65636.6383-.98454.6383-.32818 2.5532-2.6254.6383.65636 1.2766-.65636.6383-.98454h.6383l.6383.65636.6383-.32818h.6383l.6383-1.6409.6383-.65636h1.2766l.6383-1.9691.6383.32818 2.5532-1.3127h1.2766l.6383-1.3127.6383-.32818.6383-.65636.6383-.32818h.6383l.6383-.32818.6383.32818.6383-.32818.6383-.65636.6383-.32818h.6383l.6383-.32818h.6383l.6383-.32818h2.5532l1.2766-1.3127h.6383l1.9149-.98454h1.9149l.6383-.32818h.6383l.6383.32818h.6383l1.2766-.65636h2.5532l.6383-.32818h3.8298l.6383.32818.6383-.32818h.6383l.6383-.32818h8.9362l.6383-.32818h5.1064l.6383-.32818h6.383l.6383.32818h2.5532l1.9149-.98454h.6383l.6383-.65636.6383-.32818h6.383l.6383-.32818.6383.32818h2.5532l.6383-.32818.6383.32818h2.5532l.6383-.32818h1.2766l1.2766-.32818 1.2766-.65636h.6383l.6383-.32818h1.2766l1.2766-.98454h1.2766l1.2766.32818 1.2766-.32818 1.2766.32818h1.2766l1.2766-.32818 1.2766.32818 1.2766.65636 2.5532-.65636h1.2766v0" clip-path="url(#b)" fill="none" stroke="#28f" stroke-linecap="square" stroke-width="1.5"/>
   </g>
   <g id="fg">
    <path d="m52.09 529.45v-236.09" fill="none" stroke="#000" stroke-linecap="square" stroke-width=".8"/>
   </g>
   <g id="fh">
    <path d="m853.2 529.45v-236.09" fill="none" stroke="#000" stroke-linecap="square" stroke-width=".8"/>
   </g>
   <g id="fi">
    <path d="m52.09 529.45h801.11" fill="none" stroke="#000" stroke-linecap="square" stroke-width=".8"/>
   </g>
   <g id="fj">
    <path d="m52.09 293.35h801.11" fill="none" stroke="#000" stroke-linecap="square" stroke-width=".8"/>
   </g>
   <g id="fk">
    <text transform="rotate(-0 452.64 287.35)" x="452.645" y="287.352732" font-family="'Noto Sans JP'" font-size="12px" text-anchor="middle">サーバー数の推移</text>
   </g>
  </g>
 </g>
 <defs>
  <clipPath id="a">
   <rect x="52.09" y="26.88" width="801.11" height="236.09"/>
  </clipPath>
  <clipPath id="b">
   <rect x="52.09" y="293.35" width="801.11" height="236.09"/>
  </clipPath>
 </defs>
</svg>
