<!DOCTYPE svg  PUBLIC '-//W3C//DTD SVG 1.1//EN'  'http://www.w3.org/Graphics/SVG/1.1/DTD/svg11.dtd'>
<svg version="1.1" viewBox="0 0 864 576" xmlns="http://www.w3.org/2000/svg" xmlns:xlink="http://www.w3.org/1999/xlink">
 <defs>
  <style type="text/css">*{stroke-linejoin: round; stroke-linecap: butt}</style>
 </defs>
 <g id="aa">
  <g id="ab">
   <path d="m0 576h864v-576h-864z" fill="#fff"/>
  </g>
  <g id="ac">
   <g id="ad">
    <path d="m52 259.78h801.2v-232.9h-801.2z" fill="#fff"/>
   </g>
   <g id="ae">
    <path d="m137.22 259.78h.87667v-232.9h-.87667z" clip-path="url(#c)" fill="#808080" opacity=".3" stroke="#808080"/>
   </g>
   <g id="af">
    <path d="m459.98 259.78h.58445v-232.9h-.58445z" clip-path="url(#c)" fill="#808080" opacity=".3" stroke="#808080"/>
   </g>
   <g id="ag">
    <path d="m807.72 259.78h1.1689v-232.9h-1.1689z" clip-path="url(#c)" fill="#808080" opacity=".3" stroke="#808080"/>
   </g>
   <g id="ah">
    <g id="ai">
     <g id="aj">
      <path d="m106.09 259.78v-232.9" clip-path="url(#c)" fill="none" stroke="#b0b0b0" stroke-linecap="square" stroke-opacity=".3" stroke-width=".8"/>
     </g>
     <g id="ak">
      <defs>
       <path id="e" d="m0 0v3.5" stroke="#000" stroke-width=".8"/>
      </defs>
      <use x="106.093343" y="259.777732" stroke="#000000" stroke-width=".8" xlink:href="#e"/>
     </g>
    </g>
    <g id="al">
     <g id="am">
      <path d="m190.25 259.78v-232.9" clip-path="url(#c)" fill="none" stroke="#b0b0b0" stroke-linecap="square" stroke-opacity=".3" stroke-width=".8"/>
     </g>
     <g id="an">
      <use x="190.25382" y="259.777732" stroke="#000000" stroke-width=".8" xlink:href="#e"/>
     </g>
    </g>
    <g id="ao">
     <g id="ap">
      <path d="m274.41 259.78v-232.9" clip-path="url(#c)" fill="none" stroke="#b0b0b0" stroke-linecap="square" stroke-opacity=".3" stroke-width=".8"/>
     </g>
     <g id="aq">
      <use x="274.414298" y="259.777732" stroke="#000000" stroke-width=".8" xlink:href="#e"/>
     </g>
    </g>
    <g id="ar">
     <g id="as">
      <path d="m358.57 259.78v-232.9" clip-path="url(#c)" fill="none" stroke="#b0b0b0" stroke-linecap="square" stroke-opacity=".3" stroke-width=".8"/>
     </g>
     <g id="at">
      <use x="358.574775" y="259.777732" stroke="#000000" stroke-width=".8" xlink:href="#e"/>
     </g>
    </g>
    <g id="au">
     <g id="av">
      <path d="m442.74 259.78v-232.9" clip-path="url(#c)" fill="none" stroke="#b0b0b0" stroke-linecap="square" stroke-opacity=".3" stroke-width=".8"/>
     </g>
     <g id="aw">
      <use x="442.735252" y="259.777732" stroke="#000000" stroke-width=".8" xlink:href="#e"/>
     </g>
    </g>
    <g id="ax">
     <g id="ay">
      <path d="m526.9 259.78v-232.9" clip-path="url(#c)" fill="none" stroke="#b0b0b0" stroke-linecap="square" stroke-opacity=".3" stroke-width=".8"/>
     </g>
     <g id="az">
      <use x="526.89573" y="259.777732" stroke="#000000" stroke-width=".8" xlink:href="#e"/>
     </g>
    </g>
    <g id="ba">
     <g id="bb">
      <path d="m611.06 259.78v-232.9" clip-path="url(#c)" fill="none" stroke="#b0b0b0" stroke-linecap="square" stroke-opacity=".3" stroke-width=".8"/>
     </g>
     <g id="bc">
      <use x="611.056207" y="259.777732" stroke="#000000" stroke-width=".8" xlink:href="#e"/>
     </g>
    </g>
    <g id="bd">
     <g id="be">
      <path d="m695.22 259.78v-232.9" clip-path="url(#c)" fill="none" stroke="#b0b0b0" stroke-linecap="square" stroke-opacity=".3" stroke-width=".8"/>
     </g>
     <g id="bf">
      <use x="695.216684" y="259.777732" stroke="#000000" stroke-width=".8" xlink:href="#e"/>
     </g>
    </g>
    <g id="bg">
     <g id="bh">
      <path d="m779.38 259.78v-232.9" clip-path="url(#c)" fill="none" stroke="#b0b0b0" stroke-linecap="square" stroke-opacity=".3" stroke-width=".8"/>
     </g>
     <g id="bi">
      <use x="779.377162" y="259.777732" stroke="#000000" stroke-width=".8" xlink:href="#e"/>
     </g>
    </g>
   </g>
   <g id="bj">
    <g id="bk">
     <g id="bl">
      <path d="m52 246.93h801.2" clip-path="url(#c)" fill="none" stroke="#b0b0b0" stroke-linecap="square" stroke-opacity=".3" stroke-width=".8"/>
     </g>
     <g id="bm">
      <defs>
       <path id="h" d="m0 0h-3.5" stroke="#000" stroke-width=".8"/>
      </defs>
      <use x="52" y="246.926099" stroke="#000000" stroke-width=".8" xlink:href="#h"/>
     </g>
     <g id="bn">
      <!-- 300 -->
      <g transform="translate(27.9 250.91) scale(.1 -.1)">
       <defs>
        <path id="n" transform="scale(.015625)" d="m1715-90q-371 0-656 90t-503 240q-217 150-377 323l359 474q211-205 479-359 269-153 634-153 269 0 467 92 199 93 311 266t112 423q0 256-125 451t-429 300q-304 106-835 106v551q467 0 732 105 266 106 384 291 119 186 119 423 0 307-192 489-192 183-531 183-269 0-503-119-233-118-438-316l-384 460q282 256 614 413 333 157 737 157 422 0 748-144 327-144 512-413 186-269 186-659 0-403-221-685-221-281-592-422v-26q269-70 490-227t349-400 128-557q0-422-215-726-214-304-573-468-358-163-787-163z"/>
        <path id="a" transform="scale(.015625)" d="m1830-90q-460 0-806 275-346 276-535 823-188 547-188 1366 0 820 188 1357 189 538 535 803 346 266 806 266 461 0 800-269 340-269 528-803 189-534 189-1354 0-819-189-1366-188-547-528-823-339-275-800-275zm0 589q237 0 422 185 186 186 288 599 103 413 103 1091 0 679-103 1082-102 403-288 582-185 180-422 180-236 0-422-180-186-179-292-582-105-403-105-1082 0-678 105-1091 106-413 292-599 186-185 422-185z"/>
       </defs>
       <use xlink:href="#n"/>
       <use transform="translate(57)" xlink:href="#a"/>
       <use transform="translate(114)" xlink:href="#a"/>
      </g>
     </g>
    </g>
    <g id="bo">
     <g id="bp">
      <path d="m52 220.79h801.2" clip-path="url(#c)" fill="none" stroke="#b0b0b0" stroke-linecap="square" stroke-opacity=".3" stroke-width=".8"/>
     </g>
     <g id="bq">
      <use x="52" y="220.787184" stroke="#000000" stroke-width=".8" xlink:href="#h"/>
     </g>
     <g id="br">
      <!-- 600 -->
      <g transform="translate(27.9 224.77) scale(.1 -.1)">
       <defs>
        <path id="k" transform="scale(.015625)" d="m1971-90q-339 0-634 144-294 144-518 435-224 292-352 733-128 442-128 1044 0 678 147 1161 148 483 397 784 250 301 570 445t665 144q397 0 688-147 292-147 490-359l-403-448q-128 154-327 253-198 99-409 99-307 0-567-182-259-182-413-605-153-422-153-1145 0-608 115-1002t326-589q212-195 493-195 212 0 375 121 163 122 259 343t96 522q0 300-90 511-89 212-259 320-169 109-419 109-211 0-451-134t-458-461l-25 538q134 192 313 323t374 201q196 71 375 71 397 0 694-163 298-163 467-490 170-326 170-825 0-468-195-817-195-348-512-544-317-195-701-195z"/>
       </defs>
       <use xlink:href="#k"/>
       <use transform="translate(57)" xlink:href="#a"/>
       <use transform="translate(114)" xlink:href="#a"/>
      </g>
     </g>
    </g>
    <g id="bs">
     <g id="bt">
      <path d="m52 194.65h801.2" clip-path="url(#c)" fill="none" stroke="#b0b0b0" stroke-linecap="square" stroke-opacity=".3" stroke-width=".8"/>
     </g>
     <g id="bu">
      <use x="52" y="194.648269" stroke="#000000" stroke-width=".8" xlink:href="#h"/>
     </g>
     <g id="bv">
      <!-- 900 -->
      <g transform="translate(27.9 198.63) scale(.1 -.1)">
       <defs>
        <path id="r" transform="scale(.015625)" d="m1562-90q-410 0-708 150-297 151-502 356l403 461q141-160 346-256t422-96q224 0 425 102 202 103 352 333 151 230 237 614 87 384 87 941 0 589-115 970t-323 563-496 182q-205 0-372-118-166-118-262-336t-96-525q0-301 86-512 87-211 259-323 173-112 417-112 224 0 460 141 237 141 448 461l32-544q-134-180-313-314t-371-208-384-74q-391 0-689 166-297 167-467 496-169 330-169 823 0 467 195 816t515 541 698 192q339 0 636-138 298-137 519-419 221-281 349-710t128-1018q0-691-141-1187t-391-807q-249-310-563-461-313-150-652-150z"/>
       </defs>
       <use xlink:href="#r"/>
       <use transform="translate(57)" xlink:href="#a"/>
       <use transform="translate(114)" xlink:href="#a"/>
      </g>
     </g>
    </g>
    <g id="bw">
     <g id="bx">
      <path d="m52 168.51h801.2" clip-path="url(#c)" fill="none" stroke="#b0b0b0" stroke-linecap="square" stroke-opacity=".3" stroke-width=".8"/>
     </g>
     <g id="by">
      <use x="52" y="168.509354" stroke="#000000" stroke-width=".8" xlink:href="#h"/>
     </g>
     <g id="bz">
      <!-- 1200 -->
      <g transform="translate(22.2 172.49) scale(.1 -.1)">
       <defs>
        <path id="f" transform="scale(.015625)" d="m544 0v608h1037v3277h-845v467q333 58 579 147 247 90 451 218h557v-4109h915v-608h-2694z"/>
        <path id="b" transform="scale(.015625)" d="m282 0v429q697 621 1164 1136 468 515 701 956 234 442 234 826 0 256-87 451-86 196-262 301-176 106-445 106-275 0-506-151-230-150-422-368l-416 410q301 333 637 518 336 186 803 186 429 0 749-176t496-493 176-745q0-455-224-919t-615-935q-390-470-889-950 186 20 394 36t374 16h1184v-634h-3046z"/>
       </defs>
       <use xlink:href="#f"/>
       <use transform="translate(57)" xlink:href="#b"/>
       <use transform="translate(114)" xlink:href="#a"/>
       <use transform="translate(171)" xlink:href="#a"/>
      </g>
     </g>
    </g>
    <g id="ca">
     <g id="cb">
      <path d="m52 142.37h801.2" clip-path="url(#c)" fill="none" stroke="#b0b0b0" stroke-linecap="square" stroke-opacity=".3" stroke-width=".8"/>
     </g>
     <g id="cc">
      <use x="52" y="142.370439" stroke="#000000" stroke-width=".8" xlink:href="#h"/>
     </g>
     <g id="cd">
      <!-- 1500 -->
      <g transform="translate(22.2 146.36) scale(.1 -.1)">
       <defs>
        <path id="j" transform="scale(.015625)" d="m1715-90q-365 0-653 90t-506 237q-217 147-383 307l352 480q134-134 294-246t361-183q202-70 452-70 262 0 473 118 212 119 333 346 122 227 122 541 0 460-247 716-246 256-649 256-224 0-384-64t-365-198l-365 237 141 2240h2387v-627h-1747l-109-1204q154 77 307 118 154 42 340 42 397 0 723-160t518-490q192-329 192-847 0-519-224-887t-586-560q-361-192-777-192z"/>
       </defs>
       <use xlink:href="#f"/>
       <use transform="translate(57)" xlink:href="#j"/>
       <use transform="translate(114)" xlink:href="#a"/>
       <use transform="translate(171)" xlink:href="#a"/>
      </g>
     </g>
    </g>
    <g id="ce">
     <g id="cf">
      <path d="m52 116.23h801.2" clip-path="url(#c)" fill="none" stroke="#b0b0b0" stroke-linecap="square" stroke-opacity=".3" stroke-width=".8"/>
     </g>
     <g id="cg">
      <use x="52" y="116.231524" stroke="#000000" stroke-width=".8" xlink:href="#h"/>
     </g>
     <g id="ch">
      <!-- 1800 -->
      <g transform="translate(22.2 120.22) scale(.1 -.1)">
       <defs>
        <path id="l" transform="scale(.015625)" d="m1830-90q-441 0-787 163-345 164-547 448-202 285-202 650 0 314 122 557t314 419 403 291v32q-256 186-442 458-185 272-185 643 0 365 176 640t480 425q304 151 694 151 410 0 704-160t457-439q164-278 164-649 0-237-96-448t-234-381q-137-169-291-278v-32q218-115 397-285 179-169 288-406t109-557q0-346-189-628-189-281-532-448-342-166-803-166zm314 2708q205 198 310 419 106 221 106 464 0 211-83 384t-247 272q-163 99-393 99-288 0-480-183-192-182-192-502 0-256 134-429 135-172 359-294t486-230zm-294-2170q236 0 418 89 183 90 285 253 103 164 103 388 0 211-90 367-89 157-246 272-157 116-368 215t-454 195q-244-173-398-426-153-252-153-553 0-237 118-416 119-179 324-282 205-102 461-102z"/>
       </defs>
       <use xlink:href="#f"/>
       <use transform="translate(57)" xlink:href="#l"/>
       <use transform="translate(114)" xlink:href="#a"/>
       <use transform="translate(171)" xlink:href="#a"/>
      </g>
     </g>
    </g>
    <g id="ci">
     <g id="cj">
      <path d="m52 90.093h801.2" clip-path="url(#c)" fill="none" stroke="#b0b0b0" stroke-linecap="square" stroke-opacity=".3" stroke-width=".8"/>
     </g>
     <g id="ck">
      <use x="52" y="90.092609" stroke="#000000" stroke-width=".8" xlink:href="#h"/>
     </g>
     <g id="cl">
      <!-- 2100 -->
      <g transform="translate(22.2 94.078) scale(.1 -.1)">
       <use xlink:href="#b"/>
       <use transform="translate(57)" xlink:href="#f"/>
       <use transform="translate(114)" xlink:href="#a"/>
       <use transform="translate(171)" xlink:href="#a"/>
      </g>
     </g>
    </g>
    <g id="cm">
     <g id="cn">
      <path d="m52 63.954h801.2" clip-path="url(#c)" fill="none" stroke="#b0b0b0" stroke-linecap="square" stroke-opacity=".3" stroke-width=".8"/>
     </g>
     <g id="co">
      <use x="52" y="63.953694" stroke="#000000" stroke-width=".8" xlink:href="#h"/>
     </g>
     <g id="cp">
      <!-- 2400 -->
      <g transform="translate(22.2 67.939) scale(.1 -.1)">
       <defs>
        <path id="m" transform="scale(.015625)" d="m2170 0v3072q0 192 12 457 13 266 20 458h-26q-90-179-183-365-92-185-195-364l-921-1415h2579v-576h-3328v493l1875 2957h858v-4717h-691z"/>
       </defs>
       <use xlink:href="#b"/>
       <use transform="translate(57)" xlink:href="#m"/>
       <use transform="translate(114)" xlink:href="#a"/>
       <use transform="translate(171)" xlink:href="#a"/>
      </g>
     </g>
    </g>
    <g id="cq">
     <g id="cr">
      <path d="m52 37.815h801.2" clip-path="url(#c)" fill="none" stroke="#b0b0b0" stroke-linecap="square" stroke-opacity=".3" stroke-width=".8"/>
     </g>
     <g id="cs">
      <use x="52" y="37.814779" stroke="#000000" stroke-width=".8" xlink:href="#h"/>
     </g>
     <g id="ct">
      <!-- 2700 -->
      <g transform="translate(22.2 41.8) scale(.1 -.1)">
       <defs>
        <path id="i" transform="scale(.015625)" d="m1235 0q32 646 109 1187t224 1024 384 941 576 938h-2208v627h3027v-455q-409-512-665-989-256-476-397-969t-205-1053-90-1251h-755z"/>
       </defs>
       <use xlink:href="#b"/>
       <use transform="translate(57)" xlink:href="#i"/>
       <use transform="translate(114)" xlink:href="#a"/>
       <use transform="translate(171)" xlink:href="#a"/>
      </g>
     </g>
    </g>
   </g>
   <g id="cu">
    <path d="m88.418 222.44.083284.17426.073543-.34852.30391.34852.15488-.08713.4135-.8713.87716-3.2238.89177-5.1407.43639-1.3069.43931-.17426.41301-1.6555.43834-1.2198.43834-2.0911.43834-2.7882.43834-.60991.43834-3.2238.43834-2.3525 1.315-9.2357.87667-4.3565.43834-1.3941.43834-.78417.43834-2.004.43834-5.3149 1.315-24.309 1.7533-43.826.43834-8.5387.87667-28.666.43834-5.3149.43834-2.3525.43834-.78417.43834 2.6139.43834 1.5683 2.1917 43.565.43834 12.46 2.63 52.801.87667 12.198 1.7533 19.604.43834 2.701.43834 3.9208.43834 2.7882.43834 3.6594.43834 1.9169.43834 3.2238 1.315 6.5347.43834 2.4396.43834 1.5683.43834 3.4852.43834 1.1327.43834 1.7426.87667 1.6555.43834 1.1327.43834.26139.43834 1.3069.43834.52278.87667.26139.87667-.43565 1.315-2.8753.43834-.26139.43834-.95843.43834-.43565.87667-3.3981.87667-3.9208.43834.26139.43834-.17426.43834-2.7882.43834-1.5683.43834-.78417.87667-2.7882.43834-3.1367.43834-1.7426.43834-.60991 1.315-4.2694.43834-3.9208.43834-2.4396.43834-3.6594 1.315-7.8417.43834-1.3941m.87667 19.517.43834-12.285.43834-2.3525.43834-1.3941 1.315-13.418.43834-6.012.87667-18.21.87667-22.654.43834-16.293 1.315-31.105.87667-14.725.43834-3.7466.43834.43565.43834-1.2198.43834 1.7426.87667 8.8001.87667 21.173.43834 6.9704 1.315 28.404.87667 14.725.87667 16.555.87667 12.111.87667 10.891 2.1917 21.608 2.63 12.808.87667 5.7506.87667 3.1367.43834.43565.43834.8713.43834 1.3069.43834.60991 1.315 4.5307.43834-.43565.43834.34852h.43834l.43834.52278.43834-1.3069.43834.17426.43834-.34852.43834-.52278.43834-.26139.43834-.60991.43834.08713.43834-.52278.43834-2.0911.43834-1.4812.43834-.8713.43834-1.6555.43834-2.0911.43834-.95843.43834-1.5683.43834-1.0456.43834-2.2654.43834-1.2198.43834-2.701.43834-1.0456.43834-3.2238.43834-1.6555.43834-3.3109.43834-.95843.87667-2.701.43834-2.2654.43834-1.3941.87667-6.012.43834-1.8297.43834-.43565.43834-3.1367.43834-1.1327.43834-2.3525 1.315-4.5307 1.315-18.733 1.315-27.62.43834-13.766 1.7533-36.856.87667-12.111.87667-4.4436.43834 1.0456.43834 3.7466.87667 17.6 1.315 28.23.87667 19.43 1.315 21.521.87667 11.763 1.7533 23.961 1.315 13.418 1.7533 12.547 3.0684 14.115.43834 1.1327.43834.69704.43834 1.1327.43834.60991h.43834l.58445.26139.58445.8713.14611-.08713.29222-.52278.29222.43565.14611-.08713.29222.26139.29222-.60991.14611-.52278.14611.17426.14611-.78417.14611-.17426h.14611l.14611.17426.14611-.17426.14611.087129.14611-.43565.14611.34852.43834-1.2198.14611.17426.14611-.08713.14611-.43565.14611.08713.29222-.78417.14611-.17426.29222-.8713.14611-.08713.29222-.52278.14611-.08713.29222-1.3941.14611.08713.29222-.43565.14611.08713.58445-1.2198.43834-2.701h.14611l.58445-2.3525.14611-.8713.14611-.17426.14611-.52278h.14611l.73056-2.8753.29222-.95843.14611-.52278.14611-1.0456.14611-.087129 1.0228-5.5763.43834-1.2198.29222-.69704.14611.17426.29222-2.0911.14611-.34852.29222-1.3941.14611-.34852.29222-2.004.29222-1.3069.14611-.17426.14611-.43565.29222-1.7426.14611-.087129.14611.17426.14611-.08713.29222-1.3941.43834-1.4812.14611-1.6555.14611.26139 1.315-7.406h.14611l.14611-.17426.29222-1.2198.14611.69704.14611-1.0456.14611.26139 1.315-10.281 1.0228-17.774.73056-18.907.29222-11.153.43834-8.1031 1.0228-22.741.29222-9.5843.43834-8.0159.43834-4.1822.14611-3.2238.14611-.52278.14611.43565.58445-2.8753.14611-.34852.14611-1.0456.14611-.087129.29222.8713 1.315 22.915.29222 4.7921.14611.78417.58445 12.547.43834 9.5843.87667 15.683.43834 6.8832.58445 11.327 2.0456 31.192.43834 3.5723 2.0456 17.426.58445 3.7466.14611 1.3069.14611.26139.29222 1.2198 1.1689 6.6219.29222 1.9169.14611.78417.29222 2.3525.58445 2.4396.14611 1.6555.29222.43565.58445 2.9624.29222.69704.14611.17426.14611.60991.14611-.26139.29222.95843.14611.52278.14611.08713.58445 2.2654.43834.52278.14611-.08713.14611.43565.29222.08713.14611.26139.29222-.17426.14611.43565.14611-.34852.43834.34852.29222-.60991.14611-.43565.29222.17426.29222-.43565.58445-1.5683.29222-.69704.29222.26139.29222-.26139.58445-.95843.29222.43565.29222-1.2198.58445-3.2238.29222-1.3941.29222-.26139.29222-.95843.58445-.34852.58445-2.0911.29222-.08713.58445-3.3109.29222-.26139.29222-.78417h.29222l.29222-1.1327.29222-2.1782.87667-3.2238.58445-2.9624.29222-2.2654.29222-.52278.58445-2.0911.58445-3.7466.29222.087129.58445-1.4812.58445-4.008.87667-5.8377.29222-1.1327.29222-1.7426h.29222l.58445-3.1367.29222-.69704 1.4611-5.7506.87667-11.24.87667-17.426 2.3378-66.219.58445-11.763.58445-9.9328.58445-7.7545.87667-5.5763h.29222l.29222 1.1327.29222 1.7426.87667 7.406.87667 16.206.29222-3.1367.58445 14.376.58445 10.63 1.4611 28.84 1.1689 21.957.58445 11.414 2.0456 30.408.87667 7.5803.87667 6.0991.29222 2.8753.58445 2.9624.29222 2.5268.29222 1.1327.58445 3.8337.29222.8713.29222-.17426.29222.087129.29222.43565.29222 1.0456.29222.60991.29222 1.3069.29222-1.1327.29222-.43565.29222.60991.29222-.26139.29222.69704.29222-.34852.58445.26139.58445-2.2654.58445.087129.29222-1.5683.29222-.8713.29222-1.3941.29222.34852.29222-1.3069.29222-.60991 1.7533-6.5347.29222-2.2654.58445-2.3525.29222-1.2198.58445-5.0535.29222-3.7466.29222-2.2654.29222-.8713 1.4611-11.153.29222-1.3941.58445-3.5723.29222-.43565.29222-2.4396.58445-2.4396.29222-1.7426.29222-.60991.29222.34852.29222-.69704.29222-1.6555.29222-.78417.58445-2.1782.29222-.34852.29222.26139.29222-.26139.29222.69704.29222 2.2654.29222-.08713.29222.17426.29222-.34852.29222-.60991.29222.69704.29222-.08713.29222-.26139.29222-1.3941h.58445l.29222-2.8753 1.1689-17.339.87667-20.737.29222-12.198 1.1689-25.703.87667-20.388.58445-9.9328.29222-7.1446.29222-3.3109.29222-.60991.58445-4.0951.29222-.34852.29222.52278.29222 1.4812.29222.52278.29222 3.5723.58445 2.9624.58445 7.0575.58445 12.634.58445 7.0575.58445 11.065.58445 15.248 2.63 48.27 1.1689 20.214 1.4611 19.43.29222 3.0495.87667 5.5763.87667 7.3189 1.1689 8.0159 1.1689 4.6179.29222.60991.29222 2.004.29222-.087129.29222.52278.58445 1.3941.29222.26139.29222.52278.58445-.34852.58445-1.0456.29222-1.3069.58445.087129.29222-1.1327.29222-1.6555.58445-1.1327.29222.17426.29222-2.004.29222-1.0456.29222-1.9169.29222-.34852.29222-2.6139.29222-1.0456.29222-.34852.87667-3.0495.29222-3.3109.58445-9.1486.29222-2.4396 1.1689-13.941.87667-5.9248.87667-2.6139.29222-1.3941.29222-3.0495.29222-1.5683.58445-3.5723.58445-3.7466.29222-.43565.29222-1.2198h.29222l.29222-1.2198.29222.78417.29222-1.7426.29222.34852.29222.78417.29222 1.2198.87667 1.7426.29222-.26139.29222 2.6139.87667 2.6139.29222.17426.29222 1.1327.29222-.43565.29222-1.2198 1.1689-14.464.87667-18.994.58445-13.069 1.7533-33.893 1.1689-10.368.29222 1.9169.29222.78417.29222.26139.29222 1.1327.58445 5.402.87667 20.388.29222 4.3565 1.1689 26.139.29222 2.9624.29222 6.7961.29222 3.6594.87667 18.036 1.1689 18.297.58445 9.0615.29222 3.5723.29222 1.2198.87667 10.456 1.1689 7.5803.29222 1.4812 1.1689 9.8457.29222 1.3941.58445 1.4812.29222 2.6139.29222 1.2198.58445 3.1367 2.3378 7.5803.29222-.17426.29222.69704.29222.26139.29222.52278.29222.08713.29222-.08713.29222-.43565.29222-.08713.29222.43565.29222-.60991.29222-.08713.29222-.26139.29222.17426.29222.43565h.29222l.58445-.8713.29222.43565.29222-.78417.29222-.08713.29222-1.0456.29222.17426.29222-.08713.29222-1.5683.29222-.69704.29222-1.3941.58445-1.0456.58445-1.6555.58445-4.2694.29222-.34852.87667-3.6594.29222-.52278.87667-3.1367.29222-.78417.29222-.087129.58445-2.2654.29222-.52278.29222-1.2198.29222-1.8297.58445-1.9169.29222-2.8753.87667-2.6139.29222-.34852.29222-1.0456.29222-.08713 2.0456-11.065.29222-.78417.29222-.17426.87667-4.9664.58445-6.3605.29222-4.008.87667-15.248.58445-10.107 1.7533-42.258.58445-9.9328.29222-7.406.58445-6.2733.58445-5.6634.87667-2.4396.29222 1.3941.29222 2.004.58445 8.2773.29222 8.1902.58445 9.6714 1.7533 38.686 1.1689 19.953.58445 7.5803.58445 8.4516 2.3378 24.832.87667 5.4892 1.1689 6.709.58445 2.701.29222.69704 2.9222 12.721h.29222l.29222.43565.29222 1.4812.29222-.26139.29222.95843.29222.08713.29222 1.3941.58445.34852.29222.34852.58445.34852.87667-.52278.29222-.78417.29222-.26139.29222-.69704.58445.34852.29222-.17426.29222.26139.58445.08713.29222-.08713.29222.60991.29222-.34852.87667-3.8337.58445-1.2198.58445-1.6555.29222-1.2198.29222-.43565.87667-2.7882.29222-2.6139.58445-2.8753.29222-.95843.29222-1.3941.58445-1.6555.87667-4.0951.29222-1.5683.29222-.26139h.29222l.29222-.69704.29222-1.2198.29222-1.8297.29222-.95843.58445-2.7882.29222-2.004.29222-.69704.58445-2.701.29222.17426.58445-3.3981.29222-1.4812.58445-4.008h.29222l.58445-2.6139.29222-2.0911.29222-.60991.29222-2.0911.58445-11.763.58445-10.368.29222-6.2733 1.4611-42.345.58445-11.588.29222-8.6258.58445-6.6219.29222-2.4396.58445-6.1862.29222-.17426.58445-1.3069.29222 1.2198.29222 2.5268.87667 13.854.29222 3.5723 2.3378 49.315.29222 3.2238 1.4611 26.139 1.4611 17.687.87667 10.281.29222 1.8297.58445 5.402.87667 5.3149.87667 6.0991.29222 1.1327.87667 5.2278 1.1689 3.6594.29222 1.7426.87667 2.3525.58445.95843.29222 1.0456.29222.60991.29222 1.3941.29222.78417.29222.34852.29222.69704.29222-.26139.29222.17426.29222-.34852.29222-.17426.29222-.52278m.58445 2.4396.29222 1.3941.29222-.08713.29222.26139.58445-1.5683.29222-.08713.29222-.52278.29222.17426.29222-.8713.29222.087129.58445-2.5268.29222-.78417h.29222l.29222-.8713.29222-2.0911.29222-.26139.29222-.95843.29222-1.4812.29222-.34852 1.1689-4.8793.58445-2.9624.29222-1.0456.29222.17426.29222-1.1327.29222-2.6139.87667-4.4436.29222-2.5268.29222-1.4812.29222-2.1782.58445-2.2654.58445-2.5268.29222-.34852.29222-.69704.29222-1.1327.29222.087129.58445-2.7882.29222.08713.58445-5.3149.58445-4.0951.58445.17426.29222-2.4396.29222-1.3069.29222-3.3981.29222-1.6555.29222-2.5268 1.4611-22.305.29222-5.7506.87667-23.961 1.7533-42.084 1.1689-15.858.29222-.52278.58445.78417.29222 1.8297.58445 5.8377.29222 5.2278.87667 19.778.58445 11.153.87667 21.957.29222 5.3149.29222 2.9624 2.9222 47.311 1.1689 9.2358.29222 2.1782.58445 4.9664.58445 4.1822 1.1689 7.5803.29222.69704.87667 4.8793.29222.60991 1.1689 6.3605.87667 2.8753.29222.60991.29222.8713.58445.8713.58445 2.2654.29222 1.3941.29222.69704.58445.60991.29222-.43565.29222-.78417.29222-.34852.29222.52278.29222-.8713.29222.087129.29222.69704.29222-.52278.29222.43565.87667-1.4812.87667-2.5268.29222-.52278.58445-2.1782.29222-.69704.58445-2.7882.29222.26139.29222-1.5683.29222-.52278.87667-3.1367.29222-.52278.58445-2.004.29222-2.0911.29222-.43565 1.1689-5.1407.29222-.78417.29222-1.3941.29222-.78417.58445-2.7882.58445-2.004.58445-2.3525.58445-2.0911.29222-2.4396.29222-.34852.29222-1.2198.29222-2.701.87667-3.6594.29222-.43565.29222-.17426.29222-1.1327.29222-2.6139.58445-6.709.58445-5.4892.87667-16.99 1.7533-33.196.29222-7.5803.29222-4.5307 1.1689-29.188.58445-11.24.29222-4.8793.29222-2.7882.29222-.34852.29222-5.1407.29222-2.1782.29222-.08713.58445 2.3525.29222 5.0535.58445 15.248.29222 4.7921.87667 20.388.29222 9.9328.87667 17.862.58445 11.588.58445 10.281.29222 3.8337.58445 10.02 1.4611 20.04.58445 6.1862 1.4611 13.766.29222 2.004.58445 2.7882.87667 5.4892 2.3378 12.198.29222-.08713.58445 2.4396.58445 1.4812.29222.34852.29222 1.0456.29222-.17426 1.4611 2.7882.29222-.17426.29222.52278.87667-.17426.58445-.78417.58445-.34852.29222-1.2198.29222-.17426h.29222l.29222-.43565.29222.52278.29222.08713.29222-.52278.58445-2.4396.58445-2.7882 2.0456-7.4932h.29222l.58445-1.7426.29222-1.6555.29222-.43565.58445-3.8337.29222.087129.29222-.69704.29222-.34852.29222-1.3069.29222-.08713 1.1689-8.4516.29222-1.4812.29222-.8713.29222-.43565.58445-2.4396.29222-.34852.29222-.95843.29222-2.7882.87667-4.0951.58445-2.5268.29222-.08713.29222-.26139.58445-2.7882.29222-2.004 1.1689-13.244 1.4611-27.62.58445-17.426 2.3378-58.028.29222-5.3149.58445-5.4892.29222-3.8337.29222-.69704.29222-2.7882.29222 2.5268.29222-.17426.87667 9.4971.29222 1.6555.58445 9.1486 4.3834 88.262 2.0456 28.143.58445 5.3149.29222 4.0951 1.1689 8.9744.29222 1.4812.29222 3.7466.29222.60991.29222 2.4396.29222 1.3069.29222 2.0911.29222.78417.29222 2.0911.29222.69704.58445 2.5268.29222.8713.58445.78417.29222-.087129.58445.087129.29222-.26139.29222.17426.29222-.17426.29222-.43565.58445-1.3941.29222-.26139 1.1689-3.7466.29222-.087129.58445-2.7882.58445-3.6594.29222-1.2198.29222.43565.29222-.17426.87667-3.9208.29222.26139.29222-1.6555.29222-.34852.29222-1.2198.58445-8.9744 1.1689-9.8457.29222-1.3069.29222-2.5268.29222-3.7466.58445-2.7882.58445-4.1822.58445-3.8337.29222-3.1367.58445-2.0911.29222-.52278.29222-.8713.29222-.43565h.29222l.29222-.26139.29222.69704.29222.26139.29222.52278.58445-.08713.29222.08713.29222 1.3941.29222 2.1782.29222-.78417.29222 1.1327.29222 2.0911.29222-2.5268.29222.17426.29222-.52278.29222-1.7426.29222-3.3109.29222-1.4812.29222-.8713.29222-2.9624.29222-6.4476.29222-2.7882 1.1689-24.745.29222-10.978.58445-11.24 1.4611-36.072 1.1689-23.002.87667-6.9704.29222-.43565.29222-.78417 1.1689 9.1486.29222 3.7466 2.63 47.921 1.1689 24.745.58445 9.5843 2.3378 42.694 1.4611 16.816 2.0456 16.729.87667 4.8793.29222 2.2654.29222 1.1327.87667 5.2278.29222.34852.29222.78417.29222 1.4812.29222.17426.29222-.17426.29222.08713.29222-.26139.29222.26139.29222-.60991.29222-.34852.29222-.52278 1.1689-3.7466.29222-.60991.58445-2.3525.58445-2.1782.58445-2.6139.29222-.34852.29222.26139.29222-2.3525.29222-.08713.29222-1.4812.29222-2.3525.29222-3.3109.29222-.17426.87667-7.3189.58445-2.5268.29222-1.7426.87667-8.3645.29222-4.0951.29222-1.1327.58445-4.4436.29222-.60991.58445-5.2278.58445-2.9624.29222-1.3941.58445-3.7466.29222-.43565.29222.43565.58445-2.1782.29222-.08713.87667-1.7426.29222-1.1327.29222.8713.58445 3.1367.29222 2.4396.29222-.17426h.29222l.58445 4.008.29222-2.6139.29222.26139 1.4611-15.161.29222-3.7466.58445-10.891.87667-24.571 1.4611-29.624.87667-11.85.58445-3.3109.29222.60991.29222.087129.29222-.95843.29222-.17426.29222 3.2238.29222 4.8793.29222 9.3229.58445 11.588 2.0456 45.307.58445 10.02.87667 17.165.87667 12.547 1.4611 21.173.87667 7.8417.29222 2.8753.29222 1.6555.58445 4.2694 4.9678 24.658.29222.43565.29222 1.3941.58445 1.1327.29222.17426 1.4611 3.1367.29222-.26139.29222-.08713.29222-.34852.29222.26139.87667-.17426.58445-1.1327.58445-.69704.87667-.17426.29222-.52278.29222-.78417.29222-.34852.58445-2.6139.29222.087129.29222-.43565.29222-.8713.58445-2.6139.58445-3.2238 1.1689-2.9624.29222-2.1782.58445-2.8753.29222-.08713.58445-2.9624.29222-.52278.29222-2.4396.58445-2.4396 1.1689-4.7921.29222-.34852.29222-2.701.29222-.78417.29222-.26139.58445-5.2278.29222-.8713.29222-1.5683.58445-1.3069.29222-1.4812.29222-2.5268.58445-2.8753.29222-.43565.87667-7.8417 2.63-54.456 1.4611-33.196 1.1689-13.854.58445-2.701.29222.78417.29222.43565.87667 10.456 2.63 55.589 3.2145 49.315.29222 2.004 1.7533 17.252.58445 3.8337.87667 4.0951.87667 5.9248.29222.69704.58445 2.5268 1.1689 4.4436.29222 1.6555.87667 2.5268.29222.26139.58445 1.7426.29222.08713.58445 1.7426.29222.34852.87667 2.4396.58445.08713.58445-.78417.29222.17426.29222-.34852.29222-.78417.29222-.26139.29222-.52278.29222-.95843.29222.34852.58445-.60991.29222-1.8297.29222.17426.29222-.8713.29222.087129.29222-1.5683.29222-.69704.29222-.34852.29222-1.3069.29222-.52278.58445-2.5268.29222-2.3525.29222-1.0456.29222-1.4812.29222-.34852.29222-1.9169.29222-.69704.87667-4.3565.58445-1.8297.29222-.60991.29222-1.7426.29222.17426.29222-1.2198.29222-.69704h.29222l1.1689-7.2318.29222-.52278.29222-1.7426.87667-2.5268.29222-1.0456h.29222l.87667-6.012.29222-.34852 1.4611-8.1902 1.1689-12.285.87667-16.555.87667-22.131.87667-21.957.29222-3.3109.29222-6.012.29222-8.4516 1.4611-17.862.29222-.26139.29222-1.2198.29222-.34852.87667 7.5803.58445 12.808.58445 9.6714 2.0456 37.727.58445 12.982.58445 10.107.87667 11.501.58445 11.24.58445 7.3189 1.1689 10.194.58445 4.4436 1.1689 9.6714.29222.8713.29222 1.3069.29222.78417 1.1689 6.4476.29222 1.1327.58445 1.1327.58445 2.004.29222.69704.29222 1.9169.29222.69704.29222-.43565.58445.95843.29222.17426.29222.8713.29222 1.6555.29222-.17426.29222.26139.58445.69704.29222.17426h.29222l.58445.34852.58445-1.3941.29222.95843.29222-.17426.58445-1.2198.29222-.087129.29222-.34852.29222-.52278.29222.69704.87667-1.3941.29222-2.004.29222-.8713.29222-.34852.29222-.52278.87667-3.8337.29222-1.9169.58445-2.1782.29222-1.3941.29222-.60991.29222-.95843.87667-5.5763.29222-.69704.58445-3.8337.29222-2.0911 1.1689-3.3981.58445-3.0495.58445-5.1407.29222-.69704 1.1689-7.0575.29222-2.9624.29222-.69704.58445-2.701.29222 1.2198.29222-.95843.29222-.26139.29222-.78417.29222.08713.29222-.52278.29222-1.3941.58445-9.5843 1.1689-17.774.58445-16.032.29222-10.281.29222-5.402 1.1689-29.363.87667-15.77.58445-6.709h.29222l.29222-.17426.29222-1.6555.58445 2.4396.29222 1.7426.29222 3.5723.87667 19.169 1.1689 25.268.87667 20.04 2.0456 33.806.29222 3.0495.29222 6.0991 1.7533 19.43 1.1689 8.0159 1.1689 6.3605.58445 3.6594 1.7533 8.4516.29222.60991.29222 1.9169 1.4611 4.4436.29222 1.6555 1.1689 3.1367.29222 1.2198.29222-.26139.29222.34852.29222-.087129.29222-.26139.29222-.8713.29222 1.0456.29222-.78417.58445-.52278.29222-.95843.29222-.17426h.29222l.29222-.26139.29222-.78417.29222-2.004.29222-.34852h.29222l.29222-.26139.29222-1.0456.29222-1.6555.29222-.43565.29222-1.0456h.29222l.29222-.8713.29222 1.3069.29222 1.8297.29222.69704.29222-.34852.29222 1.3069.29222-.17426.29222-2.2654.29222.8713.58445-.95843.58445.43565.29222-1.9169.29222.34852.29222.8713.29222.17426.29222-.08713.29222-1.0456.29222.17426m1.1689-2.7882.29222-1.6555.29222-3.3109.29222-1.7426 2.0456-17.862 1.1689-5.1407 1.1689-12.372 1.4611-25.616 1.1689-34.59v0" clip-path="url(#c)" fill="none" stroke="#28f" stroke-linecap="square" stroke-width="1.5"/>
   </g>
   <g id="cv">
    <path d="m52 259.78v-232.9" fill="none" stroke="#000" stroke-linecap="square" stroke-width=".8"/>
   </g>
   <g id="cw">
    <path d="m853.2 259.78v-232.9" fill="none" stroke="#000" stroke-linecap="square" stroke-width=".8"/>
   </g>
   <g id="cx">
    <path d="m52 259.78h801.2" fill="none" stroke="#000" stroke-linecap="square" stroke-width=".8"/>
   </g>
   <g id="cy">
    <path d="m52 26.88h801.2" fill="none" stroke="#000" stroke-linecap="square" stroke-width=".8"/>
   </g>
   <g id="cz">
    <!-- 同時接続数の推移 -->
    <g transform="translate(404.6 20.88) scale(.12 -.12)">
     <defs>
      <path id="x" transform="scale(.015625)" d="m1587 3936h3232v-518h-3232v518zm320-1114h557v-2534h-557v2534zm301 0h2291v-2086h-2291v512h1734v1069h-1734v505zm-1683 2260h5113v-570h-4524v-5056h-589v5626zm4768 0h595v-4896q0-250-67-397t-227-218q-160-77-426-96t-675-19q-13 83-45 192t-77 218q-45 108-89 185 281-13 527-13 247 0 330 0 83 7 118 42 36 35 36 112v4890z"/>
      <path id="v" transform="scale(.015625)" d="m2714 4672h3238v-525h-3238v525zm-244-1235h3712v-538h-3712v538zm20-1184h3635v-531h-3635v531zm1523 3155h595v-2310h-595v2310zm832-2451h589v-2823q0-230-61-364-61-135-227-199-167-70-423-86t-633-16q-20 121-78 285-57 163-121 284 275-6 509-9t310-3q77 6 106 28 29 23 29 93v2810zm-2023-1677 487 282q153-160 313-352t294-381q135-189 206-343l-519-313q-64 153-189 348-124 196-278 394-154 199-314 365zm-2086 3718h1619v-4281h-1619v544h1056v3187h-1056v550zm32-1843h1293v-537h-1293v537zm-320 1843h563v-4832h-563v4832z"/>
      <path id="w" transform="scale(.015625)" d="m3866 5408h614v-870h-614v870zm-1479-653h3597v-518h-3597v518zm-230-1485h4e3v-518h-4e3v518zm825 922 519 102q64-160 121-342 58-182 96-352 39-170 45-304l-544-128q-6 134-42 313-35 180-83 365-48 186-112 346zm1856 109 589-71q-96-275-202-557-105-281-195-486l-518 77q58 147 122 329 64 183 118 372t86 336zm-2643-2106h3943v-518h-3943v518zm1408 685 602-115q-167-371-362-784t-390-797-362-685l-525 179q160 288 346 666t368 784 323 752zm-659-2157 358 403q352-102 733-240 381-137 752-304 371-166 697-336 327-169 558-329l-384-461q-218 160-532 336-313 176-685 345-371 170-755 323-384 154-742 263zm1894 1114 583-71q-122-550-353-944-230-393-604-662t-922-435q-547-167-1296-269-25 128-93 269-67 141-137 230 678 64 1168 192t819 349q330 221 531 550 202 330 304 791zm-4684 217q396 90 953 240 557 151 1120 311l77-544q-525-154-1053-311-528-156-963-284l-134 588zm121 2093h1965v-563h-1965v563zm819 1248h576v-5229q0-236-51-374t-192-208q-141-77-355-99-214-23-541-16-13 115-64 288t-109 294q205-6 381-6t234 0q64 0 92 28 29 29 29 93v5229z"/>
      <path id="u" transform="scale(.015625)" d="m4058 5408h595v-1798h-595v1798zm-1415-563h3443v-499h-3443v499zm231-992h3008v-499h-3008v499zm-224-877h3475v-1203h-531v729h-2432v-729h-512v1203zm1964-877h551v-1881q0-122 22-157 23-35 106-35 25 0 92 0 68 0 135 0t99 0q51 0 83 54t45 224 19 515q90-70 234-131t259-93q-19-429-83-662-64-234-183-326-118-93-316-93-39 0-103 0t-134 0-138 0q-67 0-99 0-237 0-365 64t-176 218q-48 153-48 422v1881zm-1164-6h550v-455q0-243-48-528-48-284-186-579-137-294-409-572-272-279-727-503-70 90-192 208-121 118-230 195 416 205 665 438 250 234 371 474 122 240 164 467 42 228 42 413v442zm-2240 3309 524-192q-121-244-259-503-137-259-275-496t-259-416l-410 173q122 186 246 438 125 253 240 515 116 263 193 481zm716-743 500-230q-224-359-496-756-272-396-548-764-275-368-518-650l-358 205q179 211 377 483 199 272 387 569 189 298 358 592 170 295 298 551zm-1721-665 307 403q166-154 339-340 173-185 320-364t224-327l-326-460q-77 160-218 348-141 189-314 384-172 196-332 356zm1485-832 435 179q128-211 249-458 122-246 215-474 93-227 137-412l-473-211q-32 185-119 422-86 237-201 486-115 250-243 468zm-1530-583q422 26 998 54 576 29 1184 68l7-499q-570-45-1127-84-556-38-992-70l-70 531zm1702-992 436 135q121-276 214-596t118-556l-454-148q-26 237-112 563-86 327-202 602zm-1363 109 499-83q-57-455-163-897-105-441-253-748-51 32-134 73-83 42-170 83-86 42-144 62 148 294 234 697t131 813zm691 627h525v-2861h-525v2861z"/>
      <path id="p" transform="scale(.015625)" d="m224 2022h3187v-499h-3187v499zm51 2247h3111v-487h-3111v487zm1127-1735 563-121q-154-320-333-672t-352-679q-173-326-326-582l-532 173q148 243 324 566t345 669q170 346 311 646zm934-832 563-64q-89-480-262-838t-461-614-701-432-976-298q-25 128-99 269t-157 237q659 102 1085 303 426 202 666 554t342 883zm422 3597 519-211q-147-218-298-436-150-217-278-377l-403 186q121 173 252 413 132 240 208 425zm-1203 109h563v-2957h-563v2957zm-1075-320 448 186q134-192 246-420 112-227 157-393l-467-211q-38 172-147 406t-237 432zm1094-1050 397-236q-160-263-400-529-240-265-519-489-278-224-553-378-51 103-141 237-89 135-179 218 269 109 534 294 266 186 493 416 228 231 368 467zm487-204q83-45 246-145 163-99 352-211t346-211 221-150l-327-423q-83 77-230 198-147 122-317 253-170 132-327 250-156 119-259 189l295 250zm1798 396h2311v-556h-2311v556zm115 1178 615-90q-103-640-263-1235t-384-1101q-224-505-512-889-44 57-134 134t-186 157-166 125q275 339 473 796 199 458 340 995 141 538 217 1108zm1223-1510 614-58q-147-1101-445-1940-297-838-813-1443-515-604-1321-1014-26 71-90 177-64 105-134 208-70 102-128 159 742 346 1212 880 471 535 730 1290 260 755 375 1741zm-1005-135q134-851 387-1597 253-745 659-1305 407-560 1002-874-70-57-154-150-83-93-154-189-70-96-121-179-633 371-1056 988-422 618-688 1434-265 816-425 1783l550 89zm-3309-3065 327 416q377-148 754-330 378-182 701-378 324-195 548-368l-416-435q-211 179-519 378-307 198-666 383-358 186-729 334z"/>
      <path id="t" transform="scale(.015625)" d="m3686 4378q-64-493-163-1041-99-547-265-1084-192-653-432-1104t-522-688-595-237q-320 0-596 221-275 221-448 621-172 400-172 931 0 537 220 1017 221 480 611 851 391 372 909 583 519 211 1121 211 576 0 1040-186 464-185 793-515 330-329 502-771 173-441 173-941 0-672-278-1194-278-521-816-851-538-329-1318-444l-378 601q166 20 307 42t263 48q307 70 585 217 279 148 496 375 218 227 342 534 125 308 125 692t-122 713q-121 330-358 573-236 243-582 380-346 138-781 138-525 0-935-186-409-185-694-489-284-304-432-656-147-352-147-678 0-365 89-605 90-240 224-355 135-115 276-115t288 144 297 457q151 314 298 800 147 461 246 982 100 522 145 1021l684-12z"/>
      <path id="q" transform="scale(.015625)" d="m2995 2925h2893v-519h-2893v519zm0-1280h2893v-519h-2893v519zm-64-1299h3232v-557h-3232v557zm1312 3577h563v-3763h-563v3763zm429 1466 634-141q-154-390-340-794-185-403-339-684l-512 140q103 199 208 458 106 259 195 528 90 269 154 493zm-1472 25 582-147q-153-518-371-1018-217-499-483-931t-573-758q-38 64-109 160-70 96-147 198-77 103-141 160 416 416 733 1034t509 1302zm128-1203h2720v-537h-2720v-4205h-582v4422l313 320h269zm-3174-2157q396 90 953 240 557 151 1120 311l77-544q-525-154-1053-311-528-156-963-284l-134 588zm121 2093h1965v-563h-1965v563zm819 1248h576v-5229q0-236-51-374t-192-208q-141-77-355-99-214-23-541-16-13 115-64 288t-109 294q205-6 381-6t234 0q64 0 92 28 29 29 29 93v5229z"/>
      <path id="o" transform="scale(.015625)" d="m4051 5402 595-109q-281-493-729-941t-1107-806q-39 64-106 144t-141 153q-73 74-137 119 608 288 1011 678t614 762zm-77-557h1511v-493h-1863l352 493zm1293 0h109l109 25 384-179q-192-505-496-905t-695-701q-390-301-845-519-454-217-947-358-44 109-137 253t-176 227q448 109 867 294 419 186 777 445 359 259 631 592t419 730v96zm-1990-954 377 307q167-96 336-218 170-121 320-249 151-128 247-237l-397-332q-90 108-237 236t-317 259q-169 132-329 234zm1107-934 595-109q-307-538-803-1031-496-492-1232-876-38 64-102 144t-138 156q-74 77-138 116 455 217 807 483t604 554q253 288 407 563zm-90-589h1460v-506h-1818l358 506zm1268 0h121l109 26 384-167q-192-614-531-1075t-787-794q-448-332-983-553-534-221-1129-355-45 115-132 269-86 153-176 249 551 96 1043 285 493 189 903 473 410 285 714 669t464 883v90zm-2132-1056 410 339q186-102 384-237 198-134 371-275t282-269l-435-371q-103 128-270 272-166 144-361 288t-381 253zm-2150 3533h589v-5376h-589v5376zm-992-1242h2336v-569h-2336v569zm1024-224 365-160q-96-339-231-707-134-368-291-727-157-358-336-672-179-313-365-537-44 128-134 291t-160 272q173 192 339 457 167 266 323 570 157 304 282 618t208 595zm941 1946 416-467q-314-122-695-221-380-99-784-173-403-74-780-131-20 102-71 236-51 135-102 231 358 58 732 138 375 80 711 179t573 208zm-397-2579q58-45 179-170 122-125 266-266 144-140 259-265t160-183l-352-473q-58 102-157 255-99 154-218 317-118 164-227 311-108 147-185 237l275 237z"/>
     </defs>
     <use xlink:href="#x"/>
     <use transform="translate(100)" xlink:href="#v"/>
     <use transform="translate(200)" xlink:href="#w"/>
     <use transform="translate(300)" xlink:href="#u"/>
     <use transform="translate(400)" xlink:href="#p"/>
     <use transform="translate(500)" xlink:href="#t"/>
     <use transform="translate(600)" xlink:href="#q"/>
     <use transform="translate(700)" xlink:href="#o"/>
    </g>
   </g>
  </g>
  <g id="da">
   <g id="db">
    <path d="m52 523.06h801.2v-232.9h-801.2z" fill="#fff"/>
   </g>
   <g id="dc">
    <path d="m137.22 523.06h.87667v-232.9h-.87667z" clip-path="url(#d)" fill="#808080" opacity=".3" stroke="#808080"/>
   </g>
   <g id="dd">
    <path d="m459.98 523.06h.58445v-232.9h-.58445z" clip-path="url(#d)" fill="#808080" opacity=".3" stroke="#808080"/>
   </g>
   <g id="de">
    <path d="m807.72 523.06h1.1689v-232.9h-1.1689z" clip-path="url(#d)" fill="#808080" opacity=".3" stroke="#808080"/>
   </g>
   <g id="df">
    <g id="dg">
     <g id="dh">
      <path d="m106.09 523.06v-232.9" clip-path="url(#d)" fill="none" stroke="#b0b0b0" stroke-linecap="square" stroke-opacity=".3" stroke-width=".8"/>
     </g>
     <g id="di">
      <use x="106.093343" y="523.055464" stroke="#000000" stroke-width=".8" xlink:href="#e"/>
     </g>
     <g id="dj">
      <!-- 2025-07-01 -->
      <g transform="translate(59.304 563.33) rotate(-30) scale(.1 -.1)">
       <defs>
        <path id="g" transform="scale(.015625)" d="m301 1536v544h1689v-544h-1689z"/>
       </defs>
       <use xlink:href="#b"/>
       <use transform="translate(57)" xlink:href="#a"/>
       <use transform="translate(114)" xlink:href="#b"/>
       <use transform="translate(171)" xlink:href="#j"/>
       <use transform="translate(228)" xlink:href="#g"/>
       <use transform="translate(263.7)" xlink:href="#a"/>
       <use transform="translate(320.7)" xlink:href="#i"/>
       <use transform="translate(377.7)" xlink:href="#g"/>
       <use transform="translate(413.4)" xlink:href="#a"/>
       <use transform="translate(470.4)" xlink:href="#f"/>
      </g>
     </g>
    </g>
    <g id="dk">
     <g id="dl">
      <path d="m190.25 523.06v-232.9" clip-path="url(#d)" fill="none" stroke="#b0b0b0" stroke-linecap="square" stroke-opacity=".3" stroke-width=".8"/>
     </g>
     <g id="dm">
      <use x="190.25382" y="523.055464" stroke="#000000" stroke-width=".8" xlink:href="#e"/>
     </g>
     <g id="dn">
      <!-- 2025-07-03 -->
      <g transform="translate(143.46 563.33) rotate(-30) scale(.1 -.1)">
       <use xlink:href="#b"/>
       <use transform="translate(57)" xlink:href="#a"/>
       <use transform="translate(114)" xlink:href="#b"/>
       <use transform="translate(171)" xlink:href="#j"/>
       <use transform="translate(228)" xlink:href="#g"/>
       <use transform="translate(263.7)" xlink:href="#a"/>
       <use transform="translate(320.7)" xlink:href="#i"/>
       <use transform="translate(377.7)" xlink:href="#g"/>
       <use transform="translate(413.4)" xlink:href="#a"/>
       <use transform="translate(470.4)" xlink:href="#n"/>
      </g>
     </g>
    </g>
    <g id="do">
     <g id="dp">
      <path d="m274.41 523.06v-232.9" clip-path="url(#d)" fill="none" stroke="#b0b0b0" stroke-linecap="square" stroke-opacity=".3" stroke-width=".8"/>
     </g>
     <g id="dq">
      <use x="274.414298" y="523.055464" stroke="#000000" stroke-width=".8" xlink:href="#e"/>
     </g>
     <g id="dr">
      <!-- 2025-07-05 -->
      <g transform="translate(227.62 563.33) rotate(-30) scale(.1 -.1)">
       <use xlink:href="#b"/>
       <use transform="translate(57)" xlink:href="#a"/>
       <use transform="translate(114)" xlink:href="#b"/>
       <use transform="translate(171)" xlink:href="#j"/>
       <use transform="translate(228)" xlink:href="#g"/>
       <use transform="translate(263.7)" xlink:href="#a"/>
       <use transform="translate(320.7)" xlink:href="#i"/>
       <use transform="translate(377.7)" xlink:href="#g"/>
       <use transform="translate(413.4)" xlink:href="#a"/>
       <use transform="translate(470.4)" xlink:href="#j"/>
      </g>
     </g>
    </g>
    <g id="ds">
     <g id="dt">
      <path d="m358.57 523.06v-232.9" clip-path="url(#d)" fill="none" stroke="#b0b0b0" stroke-linecap="square" stroke-opacity=".3" stroke-width=".8"/>
     </g>
     <g id="du">
      <use x="358.574775" y="523.055464" stroke="#000000" stroke-width=".8" xlink:href="#e"/>
     </g>
     <g id="dv">
      <!-- 2025-07-07 -->
      <g transform="translate(311.79 563.33) rotate(-30) scale(.1 -.1)">
       <use xlink:href="#b"/>
       <use transform="translate(57)" xlink:href="#a"/>
       <use transform="translate(114)" xlink:href="#b"/>
       <use transform="translate(171)" xlink:href="#j"/>
       <use transform="translate(228)" xlink:href="#g"/>
       <use transform="translate(263.7)" xlink:href="#a"/>
       <use transform="translate(320.7)" xlink:href="#i"/>
       <use transform="translate(377.7)" xlink:href="#g"/>
       <use transform="translate(413.4)" xlink:href="#a"/>
       <use transform="translate(470.4)" xlink:href="#i"/>
      </g>
     </g>
    </g>
    <g id="dw">
     <g id="dx">
      <path d="m442.74 523.06v-232.9" clip-path="url(#d)" fill="none" stroke="#b0b0b0" stroke-linecap="square" stroke-opacity=".3" stroke-width=".8"/>
     </g>
     <g id="dy">
      <use x="442.735252" y="523.055464" stroke="#000000" stroke-width=".8" xlink:href="#e"/>
     </g>
     <g id="dz">
      <!-- 2025-07-09 -->
      <g transform="translate(395.95 563.33) rotate(-30) scale(.1 -.1)">
       <use xlink:href="#b"/>
       <use transform="translate(57)" xlink:href="#a"/>
       <use transform="translate(114)" xlink:href="#b"/>
       <use transform="translate(171)" xlink:href="#j"/>
       <use transform="translate(228)" xlink:href="#g"/>
       <use transform="translate(263.7)" xlink:href="#a"/>
       <use transform="translate(320.7)" xlink:href="#i"/>
       <use transform="translate(377.7)" xlink:href="#g"/>
       <use transform="translate(413.4)" xlink:href="#a"/>
       <use transform="translate(470.4)" xlink:href="#r"/>
      </g>
     </g>
    </g>
    <g id="ea">
     <g id="eb">
      <path d="m526.9 523.06v-232.9" clip-path="url(#d)" fill="none" stroke="#b0b0b0" stroke-linecap="square" stroke-opacity=".3" stroke-width=".8"/>
     </g>
     <g id="ec">
      <use x="526.89573" y="523.055464" stroke="#000000" stroke-width=".8" xlink:href="#e"/>
     </g>
     <g id="ed">
      <!-- 2025-07-11 -->
      <g transform="translate(480.11 563.33) rotate(-30) scale(.1 -.1)">
       <use xlink:href="#b"/>
       <use transform="translate(57)" xlink:href="#a"/>
       <use transform="translate(114)" xlink:href="#b"/>
       <use transform="translate(171)" xlink:href="#j"/>
       <use transform="translate(228)" xlink:href="#g"/>
       <use transform="translate(263.7)" xlink:href="#a"/>
       <use transform="translate(320.7)" xlink:href="#i"/>
       <use transform="translate(377.7)" xlink:href="#g"/>
       <use transform="translate(413.4)" xlink:href="#f"/>
       <use transform="translate(470.4)" xlink:href="#f"/>
      </g>
     </g>
    </g>
    <g id="ee">
     <g id="ef">
      <path d="m611.06 523.06v-232.9" clip-path="url(#d)" fill="none" stroke="#b0b0b0" stroke-linecap="square" stroke-opacity=".3" stroke-width=".8"/>
     </g>
     <g id="eg">
      <use x="611.056207" y="523.055464" stroke="#000000" stroke-width=".8" xlink:href="#e"/>
     </g>
     <g id="eh">
      <!-- 2025-07-13 -->
      <g transform="translate(564.27 563.33) rotate(-30) scale(.1 -.1)">
       <use xlink:href="#b"/>
       <use transform="translate(57)" xlink:href="#a"/>
       <use transform="translate(114)" xlink:href="#b"/>
       <use transform="translate(171)" xlink:href="#j"/>
       <use transform="translate(228)" xlink:href="#g"/>
       <use transform="translate(263.7)" xlink:href="#a"/>
       <use transform="translate(320.7)" xlink:href="#i"/>
       <use transform="translate(377.7)" xlink:href="#g"/>
       <use transform="translate(413.4)" xlink:href="#f"/>
       <use transform="translate(470.4)" xlink:href="#n"/>
      </g>
     </g>
    </g>
    <g id="ei">
     <g id="ej">
      <path d="m695.22 523.06v-232.9" clip-path="url(#d)" fill="none" stroke="#b0b0b0" stroke-linecap="square" stroke-opacity=".3" stroke-width=".8"/>
     </g>
     <g id="ek">
      <use x="695.216684" y="523.055464" stroke="#000000" stroke-width=".8" xlink:href="#e"/>
     </g>
     <g id="el">
      <!-- 2025-07-15 -->
      <g transform="translate(648.43 563.33) rotate(-30) scale(.1 -.1)">
       <use xlink:href="#b"/>
       <use transform="translate(57)" xlink:href="#a"/>
       <use transform="translate(114)" xlink:href="#b"/>
       <use transform="translate(171)" xlink:href="#j"/>
       <use transform="translate(228)" xlink:href="#g"/>
       <use transform="translate(263.7)" xlink:href="#a"/>
       <use transform="translate(320.7)" xlink:href="#i"/>
       <use transform="translate(377.7)" xlink:href="#g"/>
       <use transform="translate(413.4)" xlink:href="#f"/>
       <use transform="translate(470.4)" xlink:href="#j"/>
      </g>
     </g>
    </g>
    <g id="em">
     <g id="en">
      <path d="m779.38 523.06v-232.9" clip-path="url(#d)" fill="none" stroke="#b0b0b0" stroke-linecap="square" stroke-opacity=".3" stroke-width=".8"/>
     </g>
     <g id="eo">
      <use x="779.377162" y="523.055464" stroke="#000000" stroke-width=".8" xlink:href="#e"/>
     </g>
     <g id="ep">
      <!-- 2025-07-17 -->
      <g transform="translate(732.59 563.33) rotate(-30) scale(.1 -.1)">
       <use xlink:href="#b"/>
       <use transform="translate(57)" xlink:href="#a"/>
       <use transform="translate(114)" xlink:href="#b"/>
       <use transform="translate(171)" xlink:href="#j"/>
       <use transform="translate(228)" xlink:href="#g"/>
       <use transform="translate(263.7)" xlink:href="#a"/>
       <use transform="translate(320.7)" xlink:href="#i"/>
       <use transform="translate(377.7)" xlink:href="#g"/>
       <use transform="translate(413.4)" xlink:href="#f"/>
       <use transform="translate(470.4)" xlink:href="#i"/>
      </g>
     </g>
    </g>
   </g>
   <g id="eq">
    <g id="er">
     <g id="es">
      <path d="m52 505.5h801.2" clip-path="url(#d)" fill="none" stroke="#b0b0b0" stroke-linecap="square" stroke-opacity=".3" stroke-width=".8"/>
     </g>
     <g id="et">
      <use x="52" y="505.497316" stroke="#000000" stroke-width=".8" xlink:href="#h"/>
     </g>
     <g id="eu">
      <!-- 104800 -->
      <g transform="translate(10.8 509.48) scale(.1 -.1)">
       <use xlink:href="#f"/>
       <use transform="translate(57)" xlink:href="#a"/>
       <use transform="translate(114)" xlink:href="#m"/>
       <use transform="translate(171)" xlink:href="#l"/>
       <use transform="translate(228)" xlink:href="#a"/>
       <use transform="translate(285)" xlink:href="#a"/>
      </g>
     </g>
    </g>
    <g id="ev">
     <g id="ew">
      <path d="m52 476.14h801.2" clip-path="url(#d)" fill="none" stroke="#b0b0b0" stroke-linecap="square" stroke-opacity=".3" stroke-width=".8"/>
     </g>
     <g id="ex">
      <use x="52" y="476.142001" stroke="#000000" stroke-width=".8" xlink:href="#h"/>
     </g>
     <g id="ey">
      <!-- 105200 -->
      <g transform="translate(10.8 480.13) scale(.1 -.1)">
       <use xlink:href="#f"/>
       <use transform="translate(57)" xlink:href="#a"/>
       <use transform="translate(114)" xlink:href="#j"/>
       <use transform="translate(171)" xlink:href="#b"/>
       <use transform="translate(228)" xlink:href="#a"/>
       <use transform="translate(285)" xlink:href="#a"/>
      </g>
     </g>
    </g>
    <g id="ez">
     <g id="fa">
      <path d="m52 446.79h801.2" clip-path="url(#d)" fill="none" stroke="#b0b0b0" stroke-linecap="square" stroke-opacity=".3" stroke-width=".8"/>
     </g>
     <g id="fb">
      <use x="52" y="446.786686" stroke="#000000" stroke-width=".8" xlink:href="#h"/>
     </g>
     <g id="fc">
      <!-- 105600 -->
      <g transform="translate(10.8 450.77) scale(.1 -.1)">
       <use xlink:href="#f"/>
       <use transform="translate(57)" xlink:href="#a"/>
       <use transform="translate(114)" xlink:href="#j"/>
       <use transform="translate(171)" xlink:href="#k"/>
       <use transform="translate(228)" xlink:href="#a"/>
       <use transform="translate(285)" xlink:href="#a"/>
      </g>
     </g>
    </g>
    <g id="fd">
     <g id="fe">
      <path d="m52 417.43h801.2" clip-path="url(#d)" fill="none" stroke="#b0b0b0" stroke-linecap="square" stroke-opacity=".3" stroke-width=".8"/>
     </g>
     <g id="ff">
      <use x="52" y="417.43137" stroke="#000000" stroke-width=".8" xlink:href="#h"/>
     </g>
     <g id="fg">
      <!-- 106000 -->
      <g transform="translate(10.8 421.42) scale(.1 -.1)">
       <use xlink:href="#f"/>
       <use transform="translate(57)" xlink:href="#a"/>
       <use transform="translate(114)" xlink:href="#k"/>
       <use transform="translate(171)" xlink:href="#a"/>
       <use transform="translate(228)" xlink:href="#a"/>
       <use transform="translate(285)" xlink:href="#a"/>
      </g>
     </g>
    </g>
    <g id="fh">
     <g id="fi">
      <path d="m52 388.08h801.2" clip-path="url(#d)" fill="none" stroke="#b0b0b0" stroke-linecap="square" stroke-opacity=".3" stroke-width=".8"/>
     </g>
     <g id="fj">
      <use x="52" y="388.076055" stroke="#000000" stroke-width=".8" xlink:href="#h"/>
     </g>
     <g id="fk">
      <!-- 106400 -->
      <g transform="translate(10.8 392.06) scale(.1 -.1)">
       <use xlink:href="#f"/>
       <use transform="translate(57)" xlink:href="#a"/>
       <use transform="translate(114)" xlink:href="#k"/>
       <use transform="translate(171)" xlink:href="#m"/>
       <use transform="translate(228)" xlink:href="#a"/>
       <use transform="translate(285)" xlink:href="#a"/>
      </g>
     </g>
    </g>
    <g id="fl">
     <g id="fm">
      <path d="m52 358.72h801.2" clip-path="url(#d)" fill="none" stroke="#b0b0b0" stroke-linecap="square" stroke-opacity=".3" stroke-width=".8"/>
     </g>
     <g id="fn">
      <use x="52" y="358.72074" stroke="#000000" stroke-width=".8" xlink:href="#h"/>
     </g>
     <g id="fo">
      <!-- 106800 -->
      <g transform="translate(10.8 362.71) scale(.1 -.1)">
       <use xlink:href="#f"/>
       <use transform="translate(57)" xlink:href="#a"/>
       <use transform="translate(114)" xlink:href="#k"/>
       <use transform="translate(171)" xlink:href="#l"/>
       <use transform="translate(228)" xlink:href="#a"/>
       <use transform="translate(285)" xlink:href="#a"/>
      </g>
     </g>
    </g>
    <g id="fp">
     <g id="fq">
      <path d="m52 329.37h801.2" clip-path="url(#d)" fill="none" stroke="#b0b0b0" stroke-linecap="square" stroke-opacity=".3" stroke-width=".8"/>
     </g>
     <g id="fr">
      <use x="52" y="329.365425" stroke="#000000" stroke-width=".8" xlink:href="#h"/>
     </g>
     <g id="fs">
      <!-- 107200 -->
      <g transform="translate(10.8 333.35) scale(.1 -.1)">
       <use xlink:href="#f"/>
       <use transform="translate(57)" xlink:href="#a"/>
       <use transform="translate(114)" xlink:href="#i"/>
       <use transform="translate(171)" xlink:href="#b"/>
       <use transform="translate(228)" xlink:href="#a"/>
       <use transform="translate(285)" xlink:href="#a"/>
      </g>
     </g>
    </g>
    <g id="ft">
     <g id="fu">
      <path d="m52 300.01h801.2" clip-path="url(#d)" fill="none" stroke="#b0b0b0" stroke-linecap="square" stroke-opacity=".3" stroke-width=".8"/>
     </g>
     <g id="fv">
      <use x="52" y="300.01011" stroke="#000000" stroke-width=".8" xlink:href="#h"/>
     </g>
     <g id="fw">
      <!-- 107600 -->
      <g transform="translate(10.8 304) scale(.1 -.1)">
       <use xlink:href="#f"/>
       <use transform="translate(57)" xlink:href="#a"/>
       <use transform="translate(114)" xlink:href="#i"/>
       <use transform="translate(171)" xlink:href="#k"/>
       <use transform="translate(228)" xlink:href="#a"/>
       <use transform="translate(285)" xlink:href="#a"/>
      </g>
     </g>
    </g>
   </g>
   <g id="fx">
    <path d="m88.418 512.47h.15683l.45879-.29355h.4135l1.3145-.51372.45441-.29355 1.2887-.22016.87667.14678.43834-.22016.43834-.36694h.43834l.87667-.95405.87667-.14678.87667-.66049 1.315.14678.43834-.073388.43834-.29355.43834-.44033.43834-.73388.87667-.6605h.43834l.87667-.66049.43834-.44033 1.315-2.642 1.315-1.0274.43834-.22016.43834.073388.43834-.36694h1.315l.43834-.29355h.43834l.43834-.36694.43834-.22016 2.1917-.44033.43834.14678.43834-.073388.43834.073388 2.1917-.29355 1.7533-.073388 1.315-.14678 5.6984-.073388.87667-.073388h.43834l.43834-.14678h.87667l.43834-.29355 1.315-.36694.87667-.22016.87667-.29355h.43834l.87667-.44033 1.315-.29355 2.1917-.80727.87667-.36694.87667-.22016m.87667-.44033.43834-.29355.43834-.66049.43834-.36694 1.315-.29355.87667-.29355.87667-.58711.43834-.95405.43834-.29355.87667-1.5412h.43834l.87667-1.0274.43834-.22016.43834-.51372 1.7533-1.1742.43834.073388 1.315-.88066.43834-.14678.87667-.073388 1.315-.22016.43834.14678h.43834l.87667-.51372.87667-.14678.43834.073388.43834-.14678.43834.073388 2.1917-.29355.87667.073388.87667-.073388.87667.073388h2.63l.87667-.22016.87667.22016.43834.073389 1.315-.36694h.43834l.43834-.14678h.43834l.43834-.29355.87667-.22016.43834-.36694 1.7533.073388.43834.073389.43834-.073389.43834-.22016 1.315-.14678.43834.14678 1.315-.14678h.43834l1.315-.80727.43834-.073389.43834-.29355.43834.073389.87667-.14678.43834.073388.43834-.29355.43834-.14678h.87667l.43834-.51372.87667-.51372.43834-.51372 1.315-.51372.87667-.51372.43834-.73388.43834-.073389.43834-.29355.43834-.80727 1.315-1.2476.43834-.14678.43834.22016.43834-.14678.43834-.36694 1.7533-.51372.43834-.073388.43834.073388.43834-.22016.87667.073388h2.1917l.43834-.14678.87667.14678 1.315-.14678 3.0684-.073388.43834.22016h.43834l1.7533-.51372 1.0228-.073388.14611-.073389.43834.14678h.73056l.29222-.14678 1.1689.073389.29222.14678.73056-.073388.29222-.073388h.29222l.14611-.14678.29222.14678.29222-.073389h.29222l.29222-.14678.58445.14678.29222-.073388 1.315-.073388.29222-.22016.14611-.14678.58445.29355.73056-.29355.29222.073388.58445-.22016 1.0228.073388.29222.14678.87667-.73388h.14611l.58445-.51372h1.6072l.29222-.14678.73056-.073388 1.4611-.6605h.43834l.43834-.22016.14611-.22016.14611.14678.14611-.073388.14611.14678.29222-.29355.29222-.14678.29222-.073389.43834-.22016.14611.073389.87667-.80727.29222-.073389.29222-.14678.29222-.73388 1.0228-1.0274.14611.14678.29222-.14678.14611-.22016h.14611l.14611.14678.29222-.073388.29222-.51372h.29222l.14611-.44033.14611.073389.73056-.29355h.14611l.29222-.36694.29222-.22016.58445-.073388.29222-.22016.43834-.073388.29222-.073388h.43834l.43834-.29355.58445-.22016 1.0228-.073389.29222-.073388 1.8995-.073388.29222-.073389 3.2145-.073388.29222-.073388 2.3378-.073389.73056-.29355 3.5067-.073388 1.1689-.29355.29222-.22016 2.0456.073388.29222.14678 1.1689-.22016 1.4611-.073388.58445-.36694.87667-.073388.58445-.29355h.29222l.58445-.22016h.29222l.87667-.73388.29222-.14678.87667-.073389.29222-.29355 1.7533-.44033.29222.073389.29222-.14678.58445-.073388.87667-.22016.29222.073388.29222-.22016.29222-.073388.58445-.51372.29222-.073388.58445-.73388.29222-.22016h.29222l1.1689-.73388 1.4611-.36694 1.1689-1.2476.29222-.44033h.29222l.87667-.88066h.29222l.29222-.22016.29222-.36694.58445-.29355.29222.073388 1.4611-1.4678h.29222l.29222-.44033 1.1689-.22016h2.0456l.29222-.14678h.29222l.29222-.14678 1.1689-.14678.87667-.073388 2.3378-.51372 2.9222.073388.58445.073389.87667-.073389.29222-.22016.87667.14678.29222-.073388.58445.073388h1.4611l.87667-.36694h1.1689l.58445-.29355h.87667l.29222-.14678.87667-.073388.29222-.073389.29222.073389.29222-.14678.29222.073388.87667-.22016.29222-.22016.29222.073388.87667-1.0274.58445.22016.29222-.22016h.58445l.58445-.29355.87667-.073389.58445-.66049h.29222l.58445-.22016.29222.073388.29222-.29355.29222-.073388.29222.073388.29222-.073388.29222.14678.29222-.14678.29222.073388.29222-.073388.87667-.6605h.29222l.29222-.14678.87667-1.321.87667-.51372.29222-.58711.29222-.073388.87667-.88066.29222.073389.87667-.58711.58445-1.1742.58445-.073389.58445-.66049 1.1689-.36694.29222-.22016.29222-.073389.29222-.22016 1.1689-.36694.58445-.6605.58445-.073388 1.1689-.22016.29222-.36694 2.0456-.073388.58445-.22016.87667-.073389.87667-.22016.29222.073388.58445-.073388.87667.073388.58445.073388.58445-.29355 1.1689.073388.29222.22016h2.63l.58445-.36694h.29222l.58445-.22016 1.1689.073388.58445.073388.29222-.14678h.29222l.29222-.29355h.29222l.29222-.22016 1.1689-.36694.29222-.14678.58445-.073389.87667-.80727h.29222l.29222-.14678h.58445l.58445.22016h.29222l.58445-.22016.29222-.36694 1.4611-.44033.29222-.14678.87667-.073388.29222-.14678.87667.14678.87667-.073389.58445-.22016.58445-.14678 1.4611-1.1008.29222-.073389.29222.073389.29222-.22016h.58445l.29222-.36694.58445-.29355.58445-.58711.87667.073388.58445-.44033.29222.073389.58445-.44033.29222-.44033.29222.14678.29222-.29355.29222-.073389.29222.22016.29222-.29355.58445.14678.58445-.44033.29222-.073388.29222-.22016.58445.073388.29222-.22016h.29222l.29222.14678.29222-.073388.29222-.36694.29222.073388.87667-.22016.29222.073388.29222-.073388.58445.073388 2.0456.073388.29222.22016 2.0456-.073388.58445-.073389 1.4611.073389.29222.14678.29222-.14678h1.1689l.29222-.14678.87667.073388.58445.073389 2.63-.073389.58445-.073388 1.1689.073388.29222-.22016 1.1689-.22016.29222.14678.29222-.22016.58445-.073388.87667.14678.29222-.22016.58445-.073389h.29222l.58445-.22016 3.2145-.073389.58445-.22016.58445-.29355 1.4611-.073388.58445-.29355.87667-.6605h.29222l.29222-.14678.58445.073388 1.1689-.88066.29222.14678.29222-.14678.29222-.44033.87667-.51372.29222-.22016h.29222l.58445-.88066.87667-.66049.29222-.44033h.29222l.58445-.66049.29222.14678.58445-.073388.29222-.44033.29222.073388.87667-.66049.29222-.073388.29222-.44033h.29222l.58445-.36694.87667-.36694 1.1689-.073388.87667-.36694 1.7533.073388.58445.073389 2.0456.073388.58445.073388 1.1689-.14678.29222-.073389.29222.073389.58445-.073389h2.9222l.29222-.14678.87667-.073388.58445-.073389 1.1689-.073388.29222-.073388.87667.29355.58445-.22016 1.4611-.073388.87667-.14678.58445-.073388.29222-.14678 1.7533.073389.29222-.22016.87667-.22016.58445-.36694h.29222l.29222-.14678.58445-.44033.29222.073388.87667-.22016.58445.14678.58445-.073388.29222.073388 1.7533-.88066.58445-.073389.87667-.22016.29222-.22016.58445-.073389.29222-.44033.29222-.14678.29222.073388.29222-.29355.29222-.073388.87667-1.6879.29222-.29355h.29222l.29222-.14678.58445-.51372.29222-.14678.29222-.51372 1.7533-1.321.87667-.88066.29222-.51372 1.1689-.36694.29222.14678.29222-.073388.29222-.22016.29222-.073388.29222-.29355h.29222l.29222-.14678.29222.073389 2.0456-.44033.87667-.073388.58445-.14678.58445.073388 1.7533-.073388.29222-.073388.29222.073388.58445-.073388.58445.073388 1.7533-.073388.29222-.073389.58445.073389 1.1689-.073389 1.7533-.36694m.58445.22016.29222-.14678h.29222l.29222-.14678h3.2145l.29222-.22016 1.1689-.14678.29222-.073388.29222.073388.58445-.36694.29222.073388.58445-.073388.29222.073388.29222-.14678.58445.14678.29222-.14678.87667-.073388.58445-.29355.58445.29355.58445-.36694.87667-.29355.87667-.36694.29222-.36694.29222-.14678h.29222l.29222-.22016h.58445l.58445-.51372.58445.29355.29222-.29355.29222-.51372.58445-.29355h.29222l1.1689-.66049.58445-.51372.58445-.14678.29222-.51372.29222-.22016.29222-.6605.87667-.73388h.29222l.58445-.58711.87667-.29355.29222-.14678.58445-.44033.29222-.073388.29222-.29355.58445.073389.29222-.22016.58445.14678.29222-.29355h.58445l.29222-.22016.87667-.073388 1.1689-.14678.29222-.073388.29222.073388 1.1689-.58711 1.4611-.073388.29222-.073388.87667.14678 1.4611-.073388.29222-.073388.58445.14678.87667-.14678.29222.073388.29222-.073388.87667.14678h.58445l.29222-.29355 2.3378-.073388.87667-.14678.87667.14678 1.1689-.073389.29222-.22016.87667-.073389.87667-.36694 1.1689-.22016.58445-.073388 1.4611-.29355.87667-.073389.29222-.14678h.29222l.29222-.29355h.29222l.58445-.73388.58445-.36694.29222-.22016 1.1689-.29355.29222-.36694.29222-.14678h.29222l.87667-.36694h.29222l.29222-.29355.58445-.073389.58445-.73388.58445-.36694 2.3378-1.7613.29222-.073388 1.1689-1.1742.29222.073388.58445-1.1008.58445-.44033.58445-.073388.29222-.51372h.29222l.58445-.29355.29222-.29355h.29222l.58445-.29355.29222-.44033.29222-.073388.58445-.36694.58445.073389.29222-.36694.58445-.22016 1.4611-.073388.29222.29355.58445.073388h.29222l.29222-.22016.87667-.14678 1.7533-.073388.58445-.073389.29222-.29355.87667-.073388.58445-.073388 5.8445-.073389.58445-.14678.29222.073388 1.7533-.51372.29222-.14678h.29222l.29222-.14678h.29222l.29222-.14678.87667.14678.58445-.073388h.58445l.58445-.22016.29222-.36694 1.1689-.51372h.58445l.58445-.29355.29222.073388.58445-.22016.29222.14678.29222-.14678.58445-.073389.58445-.44033.58445-.29355h.29222l.58445-.22016.29222.14678.58445-.22016.29222-.36694 1.4611-.6605.29222.073388.87667-.36694.29222.073388.29222-.22016h.29222l1.1689-.80727.29222-.14678 1.4611-1.3944h.29222l.29222-.29355.29222-.073388 1.4611-2.275.58445-.073388 1.4611-1.321.29222-.14678.29222-.29355.29222-.073389.58445-.51372.29222-.29355.87667-.22016.58445-.36694 1.7533-.36694.29222.073389.58445-.073389.87667.14678 1.4611-.073388.58445-.073389 1.4611-.073388.58445-.073388.58445.073388.87667.073388.87667.14678.29222-.14678.58445.073389 1.1689.22016.29222-.14678.29222.14678.58445-.073389.29222-.29355 1.1689-.29355.58445.14678 1.1689-.44033h.29222l.29222-.14678.58445-.073388 1.7533-.36694.29222.073388.29222-.14678h.29222l.87667-.73388h.29222l1.4611-.66049 1.4611-.36694.29222-.36694.58445.073388.87667-.73388.29222-.22016.29222.073389.29222-.073389.29222-.29355.58445.51372.58445.22016 1.4611-.36694.29222-.36694.29222-.073388.58445-.51372h.29222l.58445-.29355.29222.073388.29222-.36694.29222-.14678.58445-.58711.29222-.51372.58445-.51372.29222-.51372.29222-.14678.58445-.73388h.29222l.58445-.66049.29222.073388.58445-.44033.29222-.73388.29222-.073388.29222-.51372.29222-.073388.29222-.29355.29222-.58711.58445-.36694.58445-.073388.58445-.6605.58445-.073388.58445-.44033.29222-.44033.29222-.073388.29222-.22016.29222-.073388.87667-.88066.58445-.073388 1.1689.29355.29222-.22016.29222-.073388.87667.14678 1.7533-.073389 1.1689-.22016 2.0456-.073389.87667-.14678 2.0456-.073389 1.1689-.22016h.87667l.58445-.29355.29222.073389.29222-.073389.29222.073389.29222-.073389.58445.073389.58445-.073389.58445.073389.29222-.22016 1.1689-.29355.29222-.22016h.29222l.58445-.36694.58445-.22016.29222-.14678.58445.073388 1.4611-.36694.29222-.29355.58445-.14678.29222.073388.29222.29355.29222.073389.29222-.14678.29222.073388.87667-.66049.29222.14678.29222-.073388.58445-.44033.58445.073389h.29222l.29222-.29355.29222.073388.58445-.51372h.58445l.58445-.22016.29222.073388.29222-.073388.29222.073388 1.1689-1.0274.58445-.36694.58445-.73388.29222-.073388.29222-.58711.29222.073389.29222-.44033.29222-.073388.29222-.44033.58445-.29355.58445-.6605h.29222l.29222-.51372.29222-.073388.58445-.58711.29222.14678 1.1689-.51372.58445.22016.58445-.22016 1.7533-.36694 1.1689-.073389 1.4611-.29355 1.1689-.14678 1.4611-.073389 1.7533-.36694h2.0456l.29222.14678h.58445l.58445.14678.29222-.14678h.58445l.29222-.14678.29222.073388 1.1689-.29355.58445.073388h.29222l.29222-.22016 2.63-.073388.87667-.44033 1.4611-.073388.58445-.22016.29222.14678.29222-.22016.58445-.073388h.29222l.29222-.14678.87667.073388.58445.22016.58445-.073388.29222-.14678.58445.073389.29222-.14678.29222.073388 1.1689-.36694.58445-.44033.29222.22016.29222-.22016.29222-.073388.29222-.22016h.58445l.29222-.22016h.29222l.29222-.44033.29222.22016h.29222l.29222-.73388.87667-.51372.58445-.36694.29222-.14678.58445-1.1008.29222.14678.29222-.14678h.29222l1.1689-1.2476.29222.073389.58445-.51372.29222-.51372.29222.14678.29222-.22016.29222-.073388.29222-.22016.29222-.073388.29222-.36694.58445.073389.29222-.14678.29222-.29355.29222-.073388.29222-.36694.29222-.14678.29222.073388 2.0456-.95405 1.4611-.073388.87667-.14678h.87667l.29222-.14678 1.7533-.073389 1.1689-.29355.58445.073389h.29222l.29222-.14678 1.1689.073388.87667.14678 1.1689-.22016 1.1689-.14678 1.4611-.073388 1.1689-.22016.87667.073389 1.1689.22016h.29222l.29222-.22016.29222-.073389.87667-.73388h2.63l.29222-.14678.29222.073388.58445-.14678.29222.073389.58445-.22016 1.1689-.22016.29222-.36694.58445-.22016.29222.073388.29222.22016h.29222l.29222-.22016.29222-.36694.29222-.073389.29222-.22016.29222-.073388.29222.14678.87667-.51372.29222-.22016h.29222l1.1689-1.1742.58445-.14678.87667-1.0274.29222-.36694.87667-.51372.58445-.73388.29222-.14678.29222-.58711.29222-.22016.87667-.29355.29222.14678.29222-.29355.58445-.22016.29222-.22016.29222.14678.29222-.29355h.29222l.29222-.14678.87667-.95405 1.4611.073388.29222-.22016 1.1689-.073389.87667-.14678.87667.14678 2.3378-.073388.87667-.14678h3.7989l.29222-.29355 1.4611-.073388 1.4611-.29355 2.0456-.073388.58445-.22016.29222.073388 1.1689-.14678 1.4611-.44033.29222-.14678.29222-.36694.58445-.22016.29222-.22016 1.1689-.36694.29222.14678h.29222l.29222-.22016h.58445l.58445-.36694.29222.073388.29222-.14678.29222.14678 1.1689-.51372.29222.073388 2.0456-.58711.29222.14678.58445-.14678.29222-.22016.58445-.073388.29222.073388.58445-.22016 1.1689-.51372.29222-.073388.29222-.44033.29222-.22016.29222-.36694.58445-.22016.29222-.14678.29222-.36694.29222.073388.29222-.073388.58445-.36694.29222-.44033.58445-.36694.29222-.58711 1.1689-.51372.29222-.44033.29222-.14678.29222-.58711.87667-.6605.29222-.36694.58445-.073389.29222.22016.58445-.22016.29222-.22016h.29222l.29222.14678 1.1689-.36694.87667-.44033.29222.073388 1.1689-.22016 2.0456-.073388.58445-.073388 3.5067.073388.29222.14678 1.1689-.14678 2.9222.073388 1.7533.22016.87667-.29355.58445-.22016 1.1689-.22016.58445.14678.29222-.073388.29222.14678.29222-.073388.29222-.22016.29222.22016h.87667l.29222-.22016.29222.073388.58445-.36694.29222.14678.29222-.29355.29222.22016 1.4611-.073388m1.1689 0 .87667-.14678.58445-.36694.29222-.36694.58445-.073388h.29222l.58445-.44033.58445.14678.58445-.36694.29222.14678.29222-.36694.29222.22016.29222-.073388.87667-1.1008.29222-.073388.29222-.29355.29222.073389.29222-.14678.29222-.66049v0" clip-path="url(#d)" fill="none" stroke="#28f" stroke-linecap="square" stroke-width="1.5"/>
   </g>
   <g id="fy">
    <path d="m52 523.06v-232.9" fill="none" stroke="#000" stroke-linecap="square" stroke-width=".8"/>
   </g>
   <g id="fz">
    <path d="m853.2 523.06v-232.9" fill="none" stroke="#000" stroke-linecap="square" stroke-width=".8"/>
   </g>
   <g id="ga">
    <path d="m52 523.06h801.2" fill="none" stroke="#000" stroke-linecap="square" stroke-width=".8"/>
   </g>
   <g id="gb">
    <path d="m52 290.16h801.2" fill="none" stroke="#000" stroke-linecap="square" stroke-width=".8"/>
   </g>
   <g id="gc">
    <!-- サーバー数の推移 -->
    <g transform="translate(404.6 284.16) scale(.12 -.12)">
     <defs>
      <path id="z" transform="scale(.015625)" d="m4685 2893q0-621-84-1111-83-489-288-877-204-387-569-691t-928-560l-544 512q448 167 781 371 333 205 550 503 218 298 323 739 106 442 106 1075v1620q0 192-10 339-9 147-22 217h723q-6-70-22-217t-16-339v-1581zm-2304 2086q-7-64-23-199-16-134-16-313v-2317q0-128 6-256 7-128 13-224 7-96 13-140h-710q6 44 12 140 7 96 13 221 7 125 7 259v2317q0 122-10 256-9 135-28 256h723zm-1978-1197q45-12 144-22t237-20q138-9 285-9h4217q237 0 394 13t246 26v-679q-76 7-240 13-163 6-393 6h-4224q-147 0-282-3-134-3-234-10-99-6-150-12v697z"/>
      <path id="s" transform="scale(.015625)" d="m621 2854q109-6 265-16 157-9 339-16 183-6 349-6 128 0 352 0t509 0 598 0q314 0 624 0 311 0 586 0t486 0q212 0 327 0 230 0 416 16t301 22v-793q-109 6-308 19-198 13-409 13-109 0-324 0-214 0-489 0t-586 0q-310 0-624 0-313 0-598 0t-509 0-352 0q-262 0-525-10-262-9-428-22v793z"/>
      <path id="y" transform="scale(.015625)" d="m4941 5037q83-109 176-269t182-320q90-160 154-288l-416-179q-96 192-240 448t-272 435l416 173zm723 275q83-122 182-282 100-160 196-317 96-156 153-271l-416-186q-102 205-246 454-144 250-279 429l410 173zm-4339-3360q102 262 201 556 100 295 183 612t144 630q61 314 93 602l723-147q-19-83-45-183-26-99-48-195t-42-166q-32-154-86-394t-131-512-164-551q-86-278-182-514-115-301-269-618-153-317-326-618-173-300-346-550l-697 294q301 397 563 874t429 880zm3155 198q-96 250-215 531-118 282-243 567-124 285-246 534-122 250-224 429l659 218q96-179 221-429t253-535q128-284 249-566 122-281 218-525 90-230 195-518 106-288 211-592 106-304 195-589 90-285 154-515l-729-237q-84 352-199 736t-240 768-259 723z"/>
     </defs>
     <use xlink:href="#z"/>
     <use transform="translate(100)" xlink:href="#s"/>
     <use transform="translate(200)" xlink:href="#y"/>
     <use transform="translate(300)" xlink:href="#s"/>
     <use transform="translate(400)" xlink:href="#p"/>
     <use transform="translate(500)" xlink:href="#t"/>
     <use transform="translate(600)" xlink:href="#q"/>
     <use transform="translate(700)" xlink:href="#o"/>
    </g>
   </g>
  </g>
 </g>
 <defs>
  <clipPath id="c">
   <rect x="52" y="26.88" width="801.2" height="232.9"/>
  </clipPath>
  <clipPath id="d">
   <rect x="52" y="290.16" width="801.2" height="232.9"/>
  </clipPath>
 </defs>
</svg>
