<?xml version="1.0" encoding="utf-8" standalone="no"?>
<!DOCTYPE svg PUBLIC "-//W3C//DTD SVG 1.1//EN"
  "http://www.w3.org/Graphics/SVG/1.1/DTD/svg11.dtd">
<svg xmlns:xlink="http://www.w3.org/1999/xlink" width="864pt" height="576pt" viewBox="0 0 864 576" xmlns="http://www.w3.org/2000/svg" version="1.1">
 <metadata>
  <rdf:RDF xmlns:dc="http://purl.org/dc/elements/1.1/" xmlns:cc="http://creativecommons.org/ns#" xmlns:rdf="http://www.w3.org/1999/02/22-rdf-syntax-ns#">
   <cc:Work>
    <dc:type rdf:resource="http://purl.org/dc/dcmitype/StillImage"/>
    <dc:date>2025-07-04T01:30:17.523581</dc:date>
    <dc:format>image/svg+xml</dc:format>
    <dc:creator>
     <cc:Agent>
      <dc:title>Matplotlib v3.10.3, https://matplotlib.org/</dc:title>
     </cc:Agent>
    </dc:creator>
   </cc:Work>
  </rdf:RDF>
 </metadata>
 <defs>
  <style type="text/css">*{stroke-linejoin: round; stroke-linecap: butt}</style>
 </defs>
 <g id="figure_1">
  <g id="patch_1">
   <path d="M 0 576 
L 864 576 
L 864 0 
L 0 0 
z
" style="fill: #ffffff"/>
  </g>
  <g id="axes_1">
   <g id="patch_2">
    <path d="M 52.09 262.972732 
L 853.2 262.972732 
L 853.2 26.88 
L 52.09 26.88 
z
" style="fill: #ffffff"/>
   </g>
   <g id="patch_3">
    <path d="M 307.433746 262.972732 
L 311.366967 262.972732 
L 311.366967 26.88 
L 307.433746 26.88 
z
" clip-path="url(#pb4207ca374)" style="fill: #808080; opacity: 0.3; stroke: #808080; stroke-linejoin: miter"/>
   </g>
   <g id="matplotlib.axis_1">
    <g id="xtick_1">
     <g id="line2d_1">
      <path d="M 73.407076 262.972732 
L 73.407076 26.88 
" clip-path="url(#pb4207ca374)" style="fill: none; stroke: #b0b0b0; stroke-opacity: 0.3; stroke-width: 0.8; stroke-linecap: square"/>
     </g>
     <g id="line2d_2">
      <defs>
       <path id="m5562383d88" d="M 0 0 
L 0 3.5 
" style="stroke: #000000; stroke-width: 0.8"/>
      </defs>
      <g>
       <use xlink:href="#m5562383d88" x="73.407076" y="262.972732" style="stroke: #000000; stroke-width: 0.8"/>
      </g>
     </g>
    </g>
    <g id="xtick_2">
     <g id="line2d_3">
      <path d="M 167.804388 262.972732 
L 167.804388 26.88 
" clip-path="url(#pb4207ca374)" style="fill: none; stroke: #b0b0b0; stroke-opacity: 0.3; stroke-width: 0.8; stroke-linecap: square"/>
     </g>
     <g id="line2d_4">
      <g>
       <use xlink:href="#m5562383d88" x="167.804388" y="262.972732" style="stroke: #000000; stroke-width: 0.8"/>
      </g>
     </g>
    </g>
    <g id="xtick_3">
     <g id="line2d_5">
      <path d="M 262.201701 262.972732 
L 262.201701 26.88 
" clip-path="url(#pb4207ca374)" style="fill: none; stroke: #b0b0b0; stroke-opacity: 0.3; stroke-width: 0.8; stroke-linecap: square"/>
     </g>
     <g id="line2d_6">
      <g>
       <use xlink:href="#m5562383d88" x="262.201701" y="262.972732" style="stroke: #000000; stroke-width: 0.8"/>
      </g>
     </g>
    </g>
    <g id="xtick_4">
     <g id="line2d_7">
      <path d="M 356.599013 262.972732 
L 356.599013 26.88 
" clip-path="url(#pb4207ca374)" style="fill: none; stroke: #b0b0b0; stroke-opacity: 0.3; stroke-width: 0.8; stroke-linecap: square"/>
     </g>
     <g id="line2d_8">
      <g>
       <use xlink:href="#m5562383d88" x="356.599013" y="262.972732" style="stroke: #000000; stroke-width: 0.8"/>
      </g>
     </g>
    </g>
    <g id="xtick_5">
     <g id="line2d_9">
      <path d="M 450.996325 262.972732 
L 450.996325 26.88 
" clip-path="url(#pb4207ca374)" style="fill: none; stroke: #b0b0b0; stroke-opacity: 0.3; stroke-width: 0.8; stroke-linecap: square"/>
     </g>
     <g id="line2d_10">
      <g>
       <use xlink:href="#m5562383d88" x="450.996325" y="262.972732" style="stroke: #000000; stroke-width: 0.8"/>
      </g>
     </g>
    </g>
    <g id="xtick_6">
     <g id="line2d_11">
      <path d="M 545.393637 262.972732 
L 545.393637 26.88 
" clip-path="url(#pb4207ca374)" style="fill: none; stroke: #b0b0b0; stroke-opacity: 0.3; stroke-width: 0.8; stroke-linecap: square"/>
     </g>
     <g id="line2d_12">
      <g>
       <use xlink:href="#m5562383d88" x="545.393637" y="262.972732" style="stroke: #000000; stroke-width: 0.8"/>
      </g>
     </g>
    </g>
    <g id="xtick_7">
     <g id="line2d_13">
      <path d="M 639.790949 262.972732 
L 639.790949 26.88 
" clip-path="url(#pb4207ca374)" style="fill: none; stroke: #b0b0b0; stroke-opacity: 0.3; stroke-width: 0.8; stroke-linecap: square"/>
     </g>
     <g id="line2d_14">
      <g>
       <use xlink:href="#m5562383d88" x="639.790949" y="262.972732" style="stroke: #000000; stroke-width: 0.8"/>
      </g>
     </g>
    </g>
    <g id="xtick_8">
     <g id="line2d_15">
      <path d="M 734.188261 262.972732 
L 734.188261 26.88 
" clip-path="url(#pb4207ca374)" style="fill: none; stroke: #b0b0b0; stroke-opacity: 0.3; stroke-width: 0.8; stroke-linecap: square"/>
     </g>
     <g id="line2d_16">
      <g>
       <use xlink:href="#m5562383d88" x="734.188261" y="262.972732" style="stroke: #000000; stroke-width: 0.8"/>
      </g>
     </g>
    </g>
    <g id="xtick_9">
     <g id="line2d_17">
      <path d="M 828.585573 262.972732 
L 828.585573 26.88 
" clip-path="url(#pb4207ca374)" style="fill: none; stroke: #b0b0b0; stroke-opacity: 0.3; stroke-width: 0.8; stroke-linecap: square"/>
     </g>
     <g id="line2d_18">
      <g>
       <use xlink:href="#m5562383d88" x="828.585573" y="262.972732" style="stroke: #000000; stroke-width: 0.8"/>
      </g>
     </g>
    </g>
   </g>
   <g id="matplotlib.axis_2">
    <g id="ytick_1">
     <g id="line2d_19">
      <path d="M 52.09 256.245531 
L 853.2 256.245531 
" clip-path="url(#pb4207ca374)" style="fill: none; stroke: #b0b0b0; stroke-opacity: 0.3; stroke-width: 0.8; stroke-linecap: square"/>
     </g>
     <g id="line2d_20">
      <defs>
       <path id="m8159449654" d="M 0 0 
L -3.5 0 
" style="stroke: #000000; stroke-width: 0.8"/>
      </defs>
      <g>
       <use xlink:href="#m8159449654" x="52.09" y="256.245531" style="stroke: #000000; stroke-width: 0.8"/>
      </g>
     </g>
     <g id="text_1">
      <text style="font-size: 10px; font-family: 'Noto Sans JP'; text-anchor: end" x="45.09" y="260.230687" transform="rotate(-0 45.09 260.230687)">250</text>
     </g>
    </g>
    <g id="ytick_2">
     <g id="line2d_21">
      <path d="M 52.09 231.21874 
L 853.2 231.21874 
" clip-path="url(#pb4207ca374)" style="fill: none; stroke: #b0b0b0; stroke-opacity: 0.3; stroke-width: 0.8; stroke-linecap: square"/>
     </g>
     <g id="line2d_22">
      <g>
       <use xlink:href="#m8159449654" x="52.09" y="231.21874" style="stroke: #000000; stroke-width: 0.8"/>
      </g>
     </g>
     <g id="text_2">
      <text style="font-size: 10px; font-family: 'Noto Sans JP'; text-anchor: end" x="45.09" y="235.203896" transform="rotate(-0 45.09 235.203896)">500</text>
     </g>
    </g>
    <g id="ytick_3">
     <g id="line2d_23">
      <path d="M 52.09 206.191949 
L 853.2 206.191949 
" clip-path="url(#pb4207ca374)" style="fill: none; stroke: #b0b0b0; stroke-opacity: 0.3; stroke-width: 0.8; stroke-linecap: square"/>
     </g>
     <g id="line2d_24">
      <g>
       <use xlink:href="#m8159449654" x="52.09" y="206.191949" style="stroke: #000000; stroke-width: 0.8"/>
      </g>
     </g>
     <g id="text_3">
      <text style="font-size: 10px; font-family: 'Noto Sans JP'; text-anchor: end" x="45.09" y="210.177106" transform="rotate(-0 45.09 210.177106)">750</text>
     </g>
    </g>
    <g id="ytick_4">
     <g id="line2d_25">
      <path d="M 52.09 181.165159 
L 853.2 181.165159 
" clip-path="url(#pb4207ca374)" style="fill: none; stroke: #b0b0b0; stroke-opacity: 0.3; stroke-width: 0.8; stroke-linecap: square"/>
     </g>
     <g id="line2d_26">
      <g>
       <use xlink:href="#m8159449654" x="52.09" y="181.165159" style="stroke: #000000; stroke-width: 0.8"/>
      </g>
     </g>
     <g id="text_4">
      <text style="font-size: 10px; font-family: 'Noto Sans JP'; text-anchor: end" x="45.09" y="185.150315" transform="rotate(-0 45.09 185.150315)">1000</text>
     </g>
    </g>
    <g id="ytick_5">
     <g id="line2d_27">
      <path d="M 52.09 156.138368 
L 853.2 156.138368 
" clip-path="url(#pb4207ca374)" style="fill: none; stroke: #b0b0b0; stroke-opacity: 0.3; stroke-width: 0.8; stroke-linecap: square"/>
     </g>
     <g id="line2d_28">
      <g>
       <use xlink:href="#m8159449654" x="52.09" y="156.138368" style="stroke: #000000; stroke-width: 0.8"/>
      </g>
     </g>
     <g id="text_5">
      <text style="font-size: 10px; font-family: 'Noto Sans JP'; text-anchor: end" x="45.09" y="160.123524" transform="rotate(-0 45.09 160.123524)">1250</text>
     </g>
    </g>
    <g id="ytick_6">
     <g id="line2d_29">
      <path d="M 52.09 131.111578 
L 853.2 131.111578 
" clip-path="url(#pb4207ca374)" style="fill: none; stroke: #b0b0b0; stroke-opacity: 0.3; stroke-width: 0.8; stroke-linecap: square"/>
     </g>
     <g id="line2d_30">
      <g>
       <use xlink:href="#m8159449654" x="52.09" y="131.111578" style="stroke: #000000; stroke-width: 0.8"/>
      </g>
     </g>
     <g id="text_6">
      <text style="font-size: 10px; font-family: 'Noto Sans JP'; text-anchor: end" x="45.09" y="135.096734" transform="rotate(-0 45.09 135.096734)">1500</text>
     </g>
    </g>
    <g id="ytick_7">
     <g id="line2d_31">
      <path d="M 52.09 106.084787 
L 853.2 106.084787 
" clip-path="url(#pb4207ca374)" style="fill: none; stroke: #b0b0b0; stroke-opacity: 0.3; stroke-width: 0.8; stroke-linecap: square"/>
     </g>
     <g id="line2d_32">
      <g>
       <use xlink:href="#m8159449654" x="52.09" y="106.084787" style="stroke: #000000; stroke-width: 0.8"/>
      </g>
     </g>
     <g id="text_7">
      <text style="font-size: 10px; font-family: 'Noto Sans JP'; text-anchor: end" x="45.09" y="110.069943" transform="rotate(-0 45.09 110.069943)">1750</text>
     </g>
    </g>
    <g id="ytick_8">
     <g id="line2d_33">
      <path d="M 52.09 81.057996 
L 853.2 81.057996 
" clip-path="url(#pb4207ca374)" style="fill: none; stroke: #b0b0b0; stroke-opacity: 0.3; stroke-width: 0.8; stroke-linecap: square"/>
     </g>
     <g id="line2d_34">
      <g>
       <use xlink:href="#m8159449654" x="52.09" y="81.057996" style="stroke: #000000; stroke-width: 0.8"/>
      </g>
     </g>
     <g id="text_8">
      <text style="font-size: 10px; font-family: 'Noto Sans JP'; text-anchor: end" x="45.09" y="85.043153" transform="rotate(-0 45.09 85.043153)">2000</text>
     </g>
    </g>
    <g id="ytick_9">
     <g id="line2d_35">
      <path d="M 52.09 56.031206 
L 853.2 56.031206 
" clip-path="url(#pb4207ca374)" style="fill: none; stroke: #b0b0b0; stroke-opacity: 0.3; stroke-width: 0.8; stroke-linecap: square"/>
     </g>
     <g id="line2d_36">
      <g>
       <use xlink:href="#m8159449654" x="52.09" y="56.031206" style="stroke: #000000; stroke-width: 0.8"/>
      </g>
     </g>
     <g id="text_9">
      <text style="font-size: 10px; font-family: 'Noto Sans JP'; text-anchor: end" x="45.09" y="60.016362" transform="rotate(-0 45.09 60.016362)">2250</text>
     </g>
    </g>
    <g id="ytick_10">
     <g id="line2d_37">
      <path d="M 52.09 31.004415 
L 853.2 31.004415 
" clip-path="url(#pb4207ca374)" style="fill: none; stroke: #b0b0b0; stroke-opacity: 0.3; stroke-width: 0.8; stroke-linecap: square"/>
     </g>
     <g id="line2d_38">
      <g>
       <use xlink:href="#m8159449654" x="52.09" y="31.004415" style="stroke: #000000; stroke-width: 0.8"/>
      </g>
     </g>
     <g id="text_10">
      <text style="font-size: 10px; font-family: 'Noto Sans JP'; text-anchor: end" x="45.09" y="34.989571" transform="rotate(-0 45.09 34.989571)">2500</text>
     </g>
    </g>
   </g>
   <g id="line2d_39">
    <path d="M 88.504091 223.11006 
L 88.877747 223.310274 
L 89.207701 222.909846 
L 90.571217 223.310274 
L 91.266086 223.210167 
L 93.121256 222.209095 
L 95.083496 220.507274 
L 97.056662 218.50513 
L 99.018903 215.401808 
L 101.057622 212.598808 
L 103.015493 211.0972 
L 104.986473 210.896986 
L 106.839458 208.99495 
L 108.806068 207.59345 
L 110.772679 205.190878 
L 112.73929 201.987449 
L 114.7059 201.286698 
L 116.672511 197.582733 
L 118.639122 194.87984 
L 120.605732 191.075768 
L 122.572343 188.072553 
L 124.538954 184.268481 
L 126.505564 181.665695 
L 128.472175 179.263123 
L 130.438786 177.661408 
L 132.405396 176.760444 
L 134.372007 174.457979 
L 136.338618 168.351442 
L 140.271839 149.03076 
L 142.23845 140.421544 
L 144.20506 127.707934 
L 146.171671 113.793038 
L 148.138282 103.381894 
L 150.104892 90.067641 
L 152.071503 80.257139 
L 154.038114 64.840636 
L 156.004724 47.321883 
L 157.971335 41.215346 
L 159.937946 38.512452 
L 161.904556 37.611488 
L 163.871167 40.614703 
L 165.837778 42.416632 
L 169.770999 62.638278 
L 171.73761 71.04728 
L 173.70422 80.056925 
L 175.670831 92.470213 
L 177.637442 106.785537 
L 179.604052 117.296789 
L 181.570663 129.910292 
L 185.503884 149.931724 
L 187.470495 159.341797 
L 189.437106 167.450478 
L 191.403716 174.7583 
L 193.370327 181.46548 
L 195.336938 187.371803 
L 197.303548 192.77759 
L 199.270159 199.084341 
L 201.23677 203.989592 
L 203.20338 207.092914 
L 205.169991 211.597736 
L 207.136602 214.801165 
L 209.103212 219.005666 
L 211.069823 221.208024 
L 213.036434 224.911989 
L 215.003044 227.314561 
L 216.969655 229.316704 
L 218.936266 232.420026 
L 220.902876 235.223027 
L 222.869487 237.024955 
L 224.836098 241.029242 
L 226.802708 242.330635 
L 228.769319 244.332778 
L 232.702541 246.234814 
L 234.669151 247.536208 
L 236.635762 247.836529 
L 238.602373 249.338136 
L 240.568983 249.938779 
L 244.502205 250.239101 
L 248.435426 249.738565 
L 254.335258 246.435029 
L 256.301869 246.134707 
L 258.268479 245.033528 
L 260.23509 244.532993 
L 262.201701 242.731064 
L 266.134922 238.426456 
L 268.101533 236.123991 
L 270.068143 236.424312 
L 272.034754 236.224098 
L 274.001365 233.020669 
L 275.967975 231.21874 
L 277.934586 230.317776 
L 279.901197 228.816168 
L 281.867807 227.114346 
L 283.834418 223.510489 
L 285.801029 221.508345 
L 287.767639 220.807595 
L 289.73425 219.105773 
L 291.700861 217.704273 
L 293.667471 215.902344 
L 295.634082 211.397522 
L 297.600693 208.594521 
L 299.567303 204.39002 
L 301.533914 201.687127 
L 303.500525 198.383591 
L 305.467135 195.380376 
L 307.433746 193.778661 
M 311.366967 216.202666 
L 313.333578 202.087556 
L 315.300189 199.384662 
L 317.266799 197.782948 
L 321.200021 187.772232 
L 323.166631 182.366445 
L 325.133242 175.459051 
L 327.099853 165.848763 
L 331.033074 142.623901 
L 332.999685 128.508791 
L 334.966295 109.788752 
L 336.932906 97.175249 
L 338.899517 86.263569 
L 340.866127 74.050495 
L 342.832738 64.940743 
L 344.799349 57.132384 
L 346.765959 52.827777 
L 348.73257 53.328312 
L 350.699181 51.926812 
L 352.665791 53.928955 
L 354.632402 59.334742 
L 356.599013 64.039779 
L 358.565623 77.253924 
L 360.532234 88.365819 
L 362.498845 96.374392 
L 364.465455 107.986823 
L 366.432066 120.300004 
L 368.398677 129.009327 
L 370.365287 136.917793 
L 372.331898 145.927438 
L 374.298509 156.238475 
L 376.265119 164.947798 
L 378.23173 171.25455 
L 380.198341 178.862694 
L 382.164951 185.669981 
L 384.131562 191.376089 
L 386.098173 196.28134 
L 390.031394 206.992807 
L 391.998005 212.198379 
L 393.964615 216.202666 
L 395.931226 218.605238 
L 397.897837 221.508345 
L 401.831058 225.21231 
L 403.797669 227.915204 
L 405.764279 230.918419 
L 407.73089 234.422169 
L 409.697501 237.525491 
L 413.630722 241.129349 
L 415.597333 241.629885 
L 417.563943 242.630957 
L 419.530554 244.132564 
L 421.497165 244.833314 
L 423.463775 246.635243 
L 425.430386 248.236958 
L 427.396997 250.038887 
L 429.363607 249.538351 
L 431.330218 249.938779 
L 433.296829 249.938779 
L 435.263439 250.539422 
L 437.23005 249.037815 
L 439.196661 249.238029 
L 441.163271 248.837601 
L 443.129882 248.236958 
L 445.096493 247.936636 
L 447.063103 247.235886 
L 449.029714 247.335993 
L 450.996325 246.73535 
L 452.962935 244.332778 
L 454.929546 242.630957 
L 456.896157 241.629885 
L 458.862767 239.727849 
L 460.829378 237.325277 
L 462.795989 236.224098 
L 464.762599 234.422169 
L 466.72921 233.220883 
L 468.695821 230.618097 
L 470.662431 229.216597 
L 472.629042 226.113275 
L 474.595653 224.911989 
L 476.562263 221.208024 
L 478.528874 219.305988 
L 480.495485 215.501916 
L 482.462095 214.400737 
L 484.428706 212.698915 
L 486.395317 211.297415 
L 488.361927 208.694628 
L 490.328538 207.092914 
L 492.295149 203.288842 
L 494.261759 200.18552 
L 496.22837 198.083269 
L 498.194981 197.582733 
L 500.161591 193.978876 
L 502.128202 192.677482 
L 504.094813 189.974589 
L 506.061423 188.372874 
L 508.028034 186.370731 
L 509.994645 184.769017 
L 511.961255 177.761515 
L 513.927866 171.554871 
L 515.894477 163.245977 
L 519.827698 143.02433 
L 521.794309 131.512006 
L 523.760919 115.695075 
L 525.72753 105.183822 
L 527.694141 92.269999 
L 531.627362 73.349745 
L 533.593973 66.142029 
L 535.560583 59.434849 
L 537.527194 56.731956 
L 539.493805 54.329384 
L 541.460415 55.53067 
L 543.427026 59.835278 
L 545.393637 69.045137 
L 547.360247 80.056925 
L 549.326858 90.367962 
L 551.293469 102.781251 
L 553.260079 112.491645 
L 555.22669 124.504505 
L 557.193301 134.815543 
L 559.159911 143.324651 
L 561.126522 152.834832 
L 563.093133 159.542012 
L 565.059744 165.548441 
L 568.992965 180.164087 
L 570.959576 186.671053 
L 572.926186 194.679626 
L 574.892797 200.585948 
L 578.826018 211.497629 
L 580.792629 216.002451 
L 582.75924 219.606309 
L 584.72585 223.910917 
L 586.692461 226.513703 
L 588.659072 230.417883 
L 590.625682 232.820455 
L 594.558904 237.325277 
L 596.525514 240.528706 
L 598.492125 242.630957 
L 600.458736 245.133636 
L 602.425346 246.635243 
L 604.391957 247.936636 
L 606.358568 248.737493 
L 608.325178 250.038887 
L 610.291789 250.739637 
L 612.2584 250.739637 
L 614.880547 251.039958 
L 615.536084 251.34028 
L 616.191621 251.840815 
L 616.847158 252.04103 
L 618.158232 251.940923 
L 619.469305 251.34028 
L 620.780379 251.840815 
L 621.435916 251.740708 
L 622.74699 252.04103 
L 624.058064 251.34028 
L 624.7136 250.739637 
L 625.369137 250.939851 
L 626.024674 250.038887 
L 626.680211 249.838672 
L 627.335748 249.838672 
L 627.991285 250.038887 
L 628.646822 249.838672 
L 629.302359 249.938779 
L 629.957896 249.438244 
L 630.613432 249.838672 
L 631.924506 249.037815 
L 632.580043 248.437172 
L 633.23558 248.637386 
L 633.891117 248.537279 
L 634.546654 248.036743 
L 635.202191 248.13685 
L 635.857728 247.536208 
L 637.168801 247.035672 
L 637.824338 246.435029 
L 638.479875 246.0346 
L 639.135412 245.934493 
L 639.790949 245.534064 
L 641.102023 245.233743 
L 641.75756 244.6331 
L 642.413096 243.632028 
L 643.068633 243.732135 
L 644.379707 243.2316 
L 645.035244 243.331707 
L 645.690781 242.931278 
L 647.001855 242.430742 
L 647.657392 241.930206 
L 648.968465 239.627742 
L 649.624002 238.826884 
L 650.279539 238.826884 
L 650.935076 238.226241 
L 651.590613 237.325277 
L 652.24615 237.024955 
L 653.557224 235.122919 
L 654.21276 234.922705 
L 654.868297 234.322062 
L 655.523834 234.322062 
L 656.834908 233.020669 
L 657.490445 232.920562 
L 658.801519 231.018526 
L 659.457056 230.217668 
L 660.112592 229.917347 
L 660.768129 229.316704 
L 661.423666 228.115418 
L 662.079203 228.015311 
L 662.73474 227.014239 
L 663.390277 226.513703 
L 665.356888 223.009953 
L 666.012424 222.40931 
L 666.667961 221.608452 
L 667.323498 221.007809 
L 667.979035 220.807595 
L 668.634572 220.206952 
L 669.290109 219.906631 
L 669.945646 219.406095 
L 670.601183 219.606309 
L 671.25672 218.104702 
L 671.912257 217.203737 
L 672.567793 216.803309 
L 673.22333 215.602023 
L 674.534404 214.801165 
L 675.189941 213.199451 
L 675.845478 212.498701 
L 676.501015 211.297415 
L 678.467625 210.296343 
L 679.123162 208.894843 
L 679.778699 208.2942 
L 680.434236 208.194093 
L 681.089773 208.394307 
L 681.74531 208.2942 
L 682.400847 207.293128 
L 685.022994 204.990663 
L 685.678531 203.088627 
L 686.334068 203.388949 
L 687.645142 201.186591 
L 688.300679 200.085413 
L 688.956216 199.284555 
L 690.267289 196.781876 
L 690.922826 196.28134 
L 691.578363 194.979947 
L 693.544974 194.679626 
L 694.200511 194.17909 
L 694.856048 193.278125 
L 695.511585 194.078983 
L 696.167121 192.877697 
L 696.822658 193.178018 
L 697.478195 191.876625 
L 698.133732 191.075768 
L 700.75588 185.069338 
L 701.411417 184.869124 
L 702.066953 183.567731 
L 702.72249 181.365373 
L 703.378027 178.562373 
L 704.033564 176.259908 
L 704.689101 174.7583 
L 705.344638 171.855193 
L 706.655712 164.146941 
L 707.311249 160.943512 
L 707.966785 156.43869 
L 709.277859 148.830545 
L 710.588933 139.220258 
L 711.24447 130.210613 
L 712.555544 122.302147 
L 713.866617 117.096575 
L 715.177691 109.188109 
L 716.488765 100.178464 
L 717.144302 98.176321 
L 717.799839 93.871713 
L 718.455376 90.968605 
L 719.110913 83.961104 
L 720.421986 76.35296 
L 721.73306 70.746959 
L 722.388597 69.445565 
L 723.044134 67.343315 
L 723.699671 65.941815 
L 724.355208 62.23785 
L 725.010745 61.637207 
L 725.666281 62.137743 
L 726.321818 61.136671 
L 726.977355 59.835278 
L 727.632892 59.034421 
L 728.288429 58.834206 
L 728.943966 58.433778 
L 729.599503 57.232492 
L 730.25504 57.132384 
L 731.566113 58.133456 
L 732.22165 60.83635 
L 733.532724 64.540315 
L 736.154872 78.45521 
L 737.465945 84.46164 
L 738.121482 88.365819 
L 738.777019 89.967534 
L 739.432556 90.868498 
L 740.74363 97.075142 
L 743.365777 113.993253 
L 744.021314 116.295718 
L 744.676851 119.599254 
L 745.987925 127.307505 
L 746.643462 130.210613 
L 747.298999 131.411899 
L 749.265609 140.121222 
L 749.921146 142.223473 
L 750.576683 146.127652 
L 751.23222 148.930652 
L 751.887757 152.434403 
L 755.820978 168.952085 
L 757.787589 175.859479 
L 759.098663 181.865909 
L 759.7542 184.068267 
L 760.409737 186.77116 
L 761.065273 188.673196 
L 761.72081 191.075768 
L 762.376347 192.176947 
L 763.031884 193.978876 
L 763.687421 195.180162 
L 764.342958 196.681769 
L 765.654032 198.583805 
L 767.620642 204.890556 
L 768.276179 206.091842 
L 768.931716 207.993878 
L 769.587253 209.295271 
L 770.24279 209.895914 
L 770.898327 211.297415 
L 771.553864 212.298486 
L 772.209401 214.000308 
L 774.176011 217.504059 
L 774.831548 218.405023 
L 775.487085 219.506202 
L 776.142622 221.007809 
L 776.798159 221.308131 
L 777.453696 221.908774 
L 779.420306 224.411453 
L 780.075843 225.412525 
L 780.73138 225.91306 
L 781.386917 226.814025 
L 782.042454 228.415739 
L 782.697991 229.717133 
L 783.353528 230.317776 
L 784.009065 231.118633 
L 784.664602 232.520133 
L 785.320138 233.421098 
L 785.975675 235.022812 
L 786.631212 236.123991 
L 787.286749 236.724634 
L 787.942286 237.525491 
L 788.597823 238.026027 
L 789.25336 238.926992 
L 789.908897 240.829028 
L 791.21997 241.329563 
L 792.531044 243.331707 
L 794.497655 245.33385 
L 795.808729 245.734279 
L 796.464266 246.435029 
L 797.119802 246.134707 
L 797.775339 246.535136 
L 799.086413 247.836529 
L 799.74195 247.936636 
L 800.397487 248.737493 
L 801.053024 249.738565 
L 801.708561 250.239101 
L 803.019634 250.739637 
L 803.675171 250.839744 
L 804.330708 251.140065 
L 804.986245 251.039958 
L 805.641782 251.540494 
L 806.952856 251.640601 
L 807.608393 251.940923 
L 808.919466 251.740708 
L 809.575003 252.241244 
L 810.23054 251.840815 
L 812.197151 252.241244 
L 813.508225 251.540494 
L 814.163762 251.039958 
L 815.474835 251.240173 
L 816.785909 250.739637 
L 816.785909 250.739637 
" clip-path="url(#pb4207ca374)" style="fill: none; stroke: #2288ff; stroke-width: 1.5; stroke-linecap: square"/>
   </g>
   <g id="patch_4">
    <path d="M 52.09 262.972732 
L 52.09 26.88 
" style="fill: none; stroke: #000000; stroke-width: 0.8; stroke-linejoin: miter; stroke-linecap: square"/>
   </g>
   <g id="patch_5">
    <path d="M 853.2 262.972732 
L 853.2 26.88 
" style="fill: none; stroke: #000000; stroke-width: 0.8; stroke-linejoin: miter; stroke-linecap: square"/>
   </g>
   <g id="patch_6">
    <path d="M 52.09 262.972732 
L 853.2 262.972732 
" style="fill: none; stroke: #000000; stroke-width: 0.8; stroke-linejoin: miter; stroke-linecap: square"/>
   </g>
   <g id="patch_7">
    <path d="M 52.09 26.88 
L 853.2 26.88 
" style="fill: none; stroke: #000000; stroke-width: 0.8; stroke-linejoin: miter; stroke-linecap: square"/>
   </g>
   <g id="text_11">
    <text style="font-size: 12px; font-family: 'Noto Sans JP'; text-anchor: middle" x="452.645" y="20.88" transform="rotate(-0 452.645 20.88)">同時接続数の推移</text>
   </g>
  </g>
  <g id="axes_2">
   <g id="patch_8">
    <path d="M 52.09 529.445464 
L 853.2 529.445464 
L 853.2 293.352732 
L 52.09 293.352732 
z
" style="fill: #ffffff"/>
   </g>
   <g id="patch_9">
    <path d="M 307.433746 529.445464 
L 311.366967 529.445464 
L 311.366967 293.352732 
L 307.433746 293.352732 
z
" clip-path="url(#p0425255318)" style="fill: #808080; opacity: 0.3; stroke: #808080; stroke-linejoin: miter"/>
   </g>
   <g id="matplotlib.axis_3">
    <g id="xtick_10">
     <g id="line2d_40">
      <path d="M 73.407076 529.445464 
L 73.407076 293.352732 
" clip-path="url(#p0425255318)" style="fill: none; stroke: #b0b0b0; stroke-opacity: 0.3; stroke-width: 0.8; stroke-linecap: square"/>
     </g>
     <g id="line2d_41">
      <g>
       <use xlink:href="#m5562383d88" x="73.407076" y="529.445464" style="stroke: #000000; stroke-width: 0.8"/>
      </g>
     </g>
     <g id="text_12">
      <text style="font-size: 10px; font-family: 'Noto Sans JP'" transform="translate(37.633625 563.358113) rotate(-30)">06-30 12</text>
     </g>
    </g>
    <g id="xtick_11">
     <g id="line2d_42">
      <path d="M 167.804388 529.445464 
L 167.804388 293.352732 
" clip-path="url(#p0425255318)" style="fill: none; stroke: #b0b0b0; stroke-opacity: 0.3; stroke-width: 0.8; stroke-linecap: square"/>
     </g>
     <g id="line2d_43">
      <g>
       <use xlink:href="#m5562383d88" x="167.804388" y="529.445464" style="stroke: #000000; stroke-width: 0.8"/>
      </g>
     </g>
     <g id="text_13">
      <text style="font-size: 10px; font-family: 'Noto Sans JP'" transform="translate(132.030937 563.358113) rotate(-30)">07-01 00</text>
     </g>
    </g>
    <g id="xtick_12">
     <g id="line2d_44">
      <path d="M 262.201701 529.445464 
L 262.201701 293.352732 
" clip-path="url(#p0425255318)" style="fill: none; stroke: #b0b0b0; stroke-opacity: 0.3; stroke-width: 0.8; stroke-linecap: square"/>
     </g>
     <g id="line2d_45">
      <g>
       <use xlink:href="#m5562383d88" x="262.201701" y="529.445464" style="stroke: #000000; stroke-width: 0.8"/>
      </g>
     </g>
     <g id="text_14">
      <text style="font-size: 10px; font-family: 'Noto Sans JP'" transform="translate(226.428249 563.358113) rotate(-30)">07-01 12</text>
     </g>
    </g>
    <g id="xtick_13">
     <g id="line2d_46">
      <path d="M 356.599013 529.445464 
L 356.599013 293.352732 
" clip-path="url(#p0425255318)" style="fill: none; stroke: #b0b0b0; stroke-opacity: 0.3; stroke-width: 0.8; stroke-linecap: square"/>
     </g>
     <g id="line2d_47">
      <g>
       <use xlink:href="#m5562383d88" x="356.599013" y="529.445464" style="stroke: #000000; stroke-width: 0.8"/>
      </g>
     </g>
     <g id="text_15">
      <text style="font-size: 10px; font-family: 'Noto Sans JP'" transform="translate(320.825562 563.358113) rotate(-30)">07-02 00</text>
     </g>
    </g>
    <g id="xtick_14">
     <g id="line2d_48">
      <path d="M 450.996325 529.445464 
L 450.996325 293.352732 
" clip-path="url(#p0425255318)" style="fill: none; stroke: #b0b0b0; stroke-opacity: 0.3; stroke-width: 0.8; stroke-linecap: square"/>
     </g>
     <g id="line2d_49">
      <g>
       <use xlink:href="#m5562383d88" x="450.996325" y="529.445464" style="stroke: #000000; stroke-width: 0.8"/>
      </g>
     </g>
     <g id="text_16">
      <text style="font-size: 10px; font-family: 'Noto Sans JP'" transform="translate(415.222874 563.358113) rotate(-30)">07-02 12</text>
     </g>
    </g>
    <g id="xtick_15">
     <g id="line2d_50">
      <path d="M 545.393637 529.445464 
L 545.393637 293.352732 
" clip-path="url(#p0425255318)" style="fill: none; stroke: #b0b0b0; stroke-opacity: 0.3; stroke-width: 0.8; stroke-linecap: square"/>
     </g>
     <g id="line2d_51">
      <g>
       <use xlink:href="#m5562383d88" x="545.393637" y="529.445464" style="stroke: #000000; stroke-width: 0.8"/>
      </g>
     </g>
     <g id="text_17">
      <text style="font-size: 10px; font-family: 'Noto Sans JP'" transform="translate(509.620186 563.358113) rotate(-30)">07-03 00</text>
     </g>
    </g>
    <g id="xtick_16">
     <g id="line2d_52">
      <path d="M 639.790949 529.445464 
L 639.790949 293.352732 
" clip-path="url(#p0425255318)" style="fill: none; stroke: #b0b0b0; stroke-opacity: 0.3; stroke-width: 0.8; stroke-linecap: square"/>
     </g>
     <g id="line2d_53">
      <g>
       <use xlink:href="#m5562383d88" x="639.790949" y="529.445464" style="stroke: #000000; stroke-width: 0.8"/>
      </g>
     </g>
     <g id="text_18">
      <text style="font-size: 10px; font-family: 'Noto Sans JP'" transform="translate(604.017498 563.358113) rotate(-30)">07-03 12</text>
     </g>
    </g>
    <g id="xtick_17">
     <g id="line2d_54">
      <path d="M 734.188261 529.445464 
L 734.188261 293.352732 
" clip-path="url(#p0425255318)" style="fill: none; stroke: #b0b0b0; stroke-opacity: 0.3; stroke-width: 0.8; stroke-linecap: square"/>
     </g>
     <g id="line2d_55">
      <g>
       <use xlink:href="#m5562383d88" x="734.188261" y="529.445464" style="stroke: #000000; stroke-width: 0.8"/>
      </g>
     </g>
     <g id="text_19">
      <text style="font-size: 10px; font-family: 'Noto Sans JP'" transform="translate(698.41481 563.358113) rotate(-30)">07-04 00</text>
     </g>
    </g>
    <g id="xtick_18">
     <g id="line2d_56">
      <path d="M 828.585573 529.445464 
L 828.585573 293.352732 
" clip-path="url(#p0425255318)" style="fill: none; stroke: #b0b0b0; stroke-opacity: 0.3; stroke-width: 0.8; stroke-linecap: square"/>
     </g>
     <g id="line2d_57">
      <g>
       <use xlink:href="#m5562383d88" x="828.585573" y="529.445464" style="stroke: #000000; stroke-width: 0.8"/>
      </g>
     </g>
     <g id="text_20">
      <text style="font-size: 10px; font-family: 'Noto Sans JP'" transform="translate(792.812122 563.358113) rotate(-30)">07-04 12</text>
     </g>
    </g>
   </g>
   <g id="matplotlib.axis_4">
    <g id="ytick_11">
     <g id="line2d_58">
      <path d="M 52.09 513.745695 
L 853.2 513.745695 
" clip-path="url(#p0425255318)" style="fill: none; stroke: #b0b0b0; stroke-opacity: 0.3; stroke-width: 0.8; stroke-linecap: square"/>
     </g>
     <g id="line2d_59">
      <g>
       <use xlink:href="#m8159449654" x="52.09" y="513.745695" style="stroke: #000000; stroke-width: 0.8"/>
      </g>
     </g>
     <g id="text_21">
      <text style="font-size: 10px; font-family: 'Noto Sans JP'; text-anchor: end" x="45.09" y="517.730851" transform="rotate(-0 45.09 517.730851)">104720</text>
     </g>
    </g>
    <g id="ytick_12">
     <g id="line2d_60">
      <path d="M 52.09 487.248194 
L 853.2 487.248194 
" clip-path="url(#p0425255318)" style="fill: none; stroke: #b0b0b0; stroke-opacity: 0.3; stroke-width: 0.8; stroke-linecap: square"/>
     </g>
     <g id="line2d_61">
      <g>
       <use xlink:href="#m8159449654" x="52.09" y="487.248194" style="stroke: #000000; stroke-width: 0.8"/>
      </g>
     </g>
     <g id="text_22">
      <text style="font-size: 10px; font-family: 'Noto Sans JP'; text-anchor: end" x="45.09" y="491.23335" transform="rotate(-0 45.09 491.23335)">104800</text>
     </g>
    </g>
    <g id="ytick_13">
     <g id="line2d_62">
      <path d="M 52.09 460.750693 
L 853.2 460.750693 
" clip-path="url(#p0425255318)" style="fill: none; stroke: #b0b0b0; stroke-opacity: 0.3; stroke-width: 0.8; stroke-linecap: square"/>
     </g>
     <g id="line2d_63">
      <g>
       <use xlink:href="#m8159449654" x="52.09" y="460.750693" style="stroke: #000000; stroke-width: 0.8"/>
      </g>
     </g>
     <g id="text_23">
      <text style="font-size: 10px; font-family: 'Noto Sans JP'; text-anchor: end" x="45.09" y="464.735849" transform="rotate(-0 45.09 464.735849)">104880</text>
     </g>
    </g>
    <g id="ytick_14">
     <g id="line2d_64">
      <path d="M 52.09 434.253192 
L 853.2 434.253192 
" clip-path="url(#p0425255318)" style="fill: none; stroke: #b0b0b0; stroke-opacity: 0.3; stroke-width: 0.8; stroke-linecap: square"/>
     </g>
     <g id="line2d_65">
      <g>
       <use xlink:href="#m8159449654" x="52.09" y="434.253192" style="stroke: #000000; stroke-width: 0.8"/>
      </g>
     </g>
     <g id="text_24">
      <text style="font-size: 10px; font-family: 'Noto Sans JP'; text-anchor: end" x="45.09" y="438.238349" transform="rotate(-0 45.09 438.238349)">104960</text>
     </g>
    </g>
    <g id="ytick_15">
     <g id="line2d_66">
      <path d="M 52.09 407.755692 
L 853.2 407.755692 
" clip-path="url(#p0425255318)" style="fill: none; stroke: #b0b0b0; stroke-opacity: 0.3; stroke-width: 0.8; stroke-linecap: square"/>
     </g>
     <g id="line2d_67">
      <g>
       <use xlink:href="#m8159449654" x="52.09" y="407.755692" style="stroke: #000000; stroke-width: 0.8"/>
      </g>
     </g>
     <g id="text_25">
      <text style="font-size: 10px; font-family: 'Noto Sans JP'; text-anchor: end" x="45.09" y="411.740848" transform="rotate(-0 45.09 411.740848)">105040</text>
     </g>
    </g>
    <g id="ytick_16">
     <g id="line2d_68">
      <path d="M 52.09 381.258191 
L 853.2 381.258191 
" clip-path="url(#p0425255318)" style="fill: none; stroke: #b0b0b0; stroke-opacity: 0.3; stroke-width: 0.8; stroke-linecap: square"/>
     </g>
     <g id="line2d_69">
      <g>
       <use xlink:href="#m8159449654" x="52.09" y="381.258191" style="stroke: #000000; stroke-width: 0.8"/>
      </g>
     </g>
     <g id="text_26">
      <text style="font-size: 10px; font-family: 'Noto Sans JP'; text-anchor: end" x="45.09" y="385.243347" transform="rotate(-0 45.09 385.243347)">105120</text>
     </g>
    </g>
    <g id="ytick_17">
     <g id="line2d_70">
      <path d="M 52.09 354.76069 
L 853.2 354.76069 
" clip-path="url(#p0425255318)" style="fill: none; stroke: #b0b0b0; stroke-opacity: 0.3; stroke-width: 0.8; stroke-linecap: square"/>
     </g>
     <g id="line2d_71">
      <g>
       <use xlink:href="#m8159449654" x="52.09" y="354.76069" style="stroke: #000000; stroke-width: 0.8"/>
      </g>
     </g>
     <g id="text_27">
      <text style="font-size: 10px; font-family: 'Noto Sans JP'; text-anchor: end" x="45.09" y="358.745846" transform="rotate(-0 45.09 358.745846)">105200</text>
     </g>
    </g>
    <g id="ytick_18">
     <g id="line2d_72">
      <path d="M 52.09 328.263189 
L 853.2 328.263189 
" clip-path="url(#p0425255318)" style="fill: none; stroke: #b0b0b0; stroke-opacity: 0.3; stroke-width: 0.8; stroke-linecap: square"/>
     </g>
     <g id="line2d_73">
      <g>
       <use xlink:href="#m8159449654" x="52.09" y="328.263189" style="stroke: #000000; stroke-width: 0.8"/>
      </g>
     </g>
     <g id="text_28">
      <text style="font-size: 10px; font-family: 'Noto Sans JP'; text-anchor: end" x="45.09" y="332.248345" transform="rotate(-0 45.09 332.248345)">105280</text>
     </g>
    </g>
    <g id="ytick_19">
     <g id="line2d_74">
      <path d="M 52.09 301.765688 
L 853.2 301.765688 
" clip-path="url(#p0425255318)" style="fill: none; stroke: #b0b0b0; stroke-opacity: 0.3; stroke-width: 0.8; stroke-linecap: square"/>
     </g>
     <g id="line2d_75">
      <g>
       <use xlink:href="#m8159449654" x="52.09" y="301.765688" style="stroke: #000000; stroke-width: 0.8"/>
      </g>
     </g>
     <g id="text_29">
      <text style="font-size: 10px; font-family: 'Noto Sans JP'; text-anchor: end" x="45.09" y="305.750845" transform="rotate(-0 45.09 305.750845)">105360</text>
     </g>
    </g>
   </g>
   <g id="line2d_76">
    <path d="M 88.504091 518.713976 
L 89.207701 518.713976 
L 90.571217 518.051539 
L 91.266086 517.389101 
L 93.121256 517.389101 
L 95.083496 516.726664 
L 97.056662 516.395445 
L 101.057622 513.745695 
L 106.839458 512.752038 
L 110.772679 513.414476 
L 112.73929 512.42082 
L 114.7059 510.764726 
L 116.672511 510.764726 
L 118.639122 508.777413 
L 120.605732 506.458882 
L 124.538954 505.796444 
L 126.505564 504.471569 
L 128.472175 502.815476 
L 130.438786 503.146694 
L 132.405396 503.146694 
L 134.372007 503.477913 
L 136.338618 503.146694 
L 138.305228 501.821819 
L 140.271839 499.834507 
L 142.23845 496.522319 
L 144.20506 494.866225 
L 146.171671 493.54135 
L 148.138282 493.54135 
L 150.104892 492.216475 
L 152.071503 490.560382 
L 154.038114 488.573069 
L 156.004724 484.598444 
L 157.971335 479.630162 
L 159.937946 476.649194 
L 161.904556 474.9931 
L 163.871167 473.005787 
L 167.804388 471.018475 
L 169.770999 471.349693 
L 171.73761 469.6936 
L 173.70422 469.6936 
L 175.670831 469.362381 
L 177.637442 469.6936 
L 179.604052 468.368725 
L 181.570663 468.368725 
L 183.537274 466.712631 
L 185.503884 465.718975 
L 189.437106 465.056537 
L 191.403716 464.3941 
L 195.336938 463.731662 
L 197.303548 464.3941 
L 199.270159 464.062881 
L 201.23677 464.3941 
L 209.103212 463.069224 
L 215.003044 463.069224 
L 216.969655 462.738006 
L 218.936266 462.738006 
L 222.869487 462.075568 
L 226.802708 462.075568 
L 228.769319 461.744349 
L 230.73593 461.744349 
L 232.702541 462.075568 
L 234.669151 462.075568 
L 236.635762 461.744349 
L 238.602373 461.744349 
L 240.568983 462.075568 
L 242.535594 461.744349 
L 244.502205 461.744349 
L 246.468815 462.406787 
L 248.435426 461.744349 
L 250.402037 461.744349 
L 252.368647 461.413131 
L 256.301869 461.413131 
L 258.268479 460.750693 
L 262.201701 460.750693 
L 264.168311 459.425818 
L 266.134922 458.763381 
L 268.101533 457.769724 
L 270.068143 457.769724 
L 272.034754 457.438506 
L 277.934586 455.451193 
L 279.901197 455.451193 
L 283.834418 453.46388 
L 285.801029 453.132662 
L 287.767639 452.470224 
L 289.73425 452.139005 
L 291.700861 451.476568 
L 293.667471 451.145349 
L 295.634082 450.482912 
L 301.533914 447.501943 
L 303.500525 446.839505 
L 305.467135 446.508286 
L 307.433746 445.845849 
M 311.366967 443.858536 
L 313.333578 442.533661 
L 315.300189 439.552693 
L 317.266799 437.896599 
L 319.23341 437.56538 
L 321.200021 436.902942 
L 323.166631 436.571724 
L 327.099853 435.246849 
L 331.033074 432.597099 
L 332.999685 428.291255 
L 334.966295 426.96638 
L 336.932906 423.654192 
L 338.899517 420.010786 
L 340.866127 420.010786 
L 342.832738 417.361036 
L 344.799349 415.373723 
L 346.765959 414.380067 
L 348.73257 412.061535 
L 350.699181 410.73666 
L 352.665791 409.743004 
L 354.632402 408.08691 
L 356.599013 406.762035 
L 358.565623 407.093254 
L 360.532234 405.768379 
L 362.498845 404.774723 
L 364.465455 403.118629 
L 366.432066 402.456191 
L 368.398677 402.456191 
L 376.265119 401.131316 
L 378.23173 401.793754 
L 380.198341 401.793754 
L 382.164951 400.468879 
L 384.131562 399.475223 
L 388.064783 398.812785 
L 390.031394 399.144004 
L 391.998005 398.481566 
L 393.964615 398.812785 
L 397.897837 398.150348 
L 399.864447 397.48791 
L 403.797669 397.48791 
L 405.764279 397.819129 
L 407.73089 397.819129 
L 409.697501 397.48791 
L 411.664111 397.48791 
L 413.630722 397.819129 
L 417.563943 397.819129 
L 419.530554 397.48791 
L 423.463775 397.48791 
L 425.430386 397.819129 
L 427.396997 397.819129 
L 429.363607 397.156691 
L 431.330218 396.825473 
L 433.296829 397.48791 
L 437.23005 398.150348 
L 439.196661 397.48791 
L 441.163271 397.156691 
L 443.129882 396.494254 
L 445.096493 396.494254 
L 447.063103 395.831816 
L 449.029714 395.831816 
L 450.996325 394.506941 
L 452.962935 394.175722 
L 454.929546 393.513285 
L 456.896157 391.857191 
L 458.862767 391.857191 
L 460.829378 392.18841 
L 464.762599 392.18841 
L 466.72921 392.519629 
L 468.695821 392.18841 
L 470.662431 391.194754 
L 472.629042 390.863535 
L 474.595653 390.863535 
L 476.562263 390.532316 
L 478.528874 391.194754 
L 482.462095 390.532316 
L 486.395317 390.532316 
L 490.328538 387.882566 
L 492.295149 386.88891 
L 494.261759 386.557691 
L 496.22837 385.232816 
L 498.194981 385.564035 
L 502.128202 384.901597 
L 504.094813 385.232816 
L 506.061423 383.907941 
L 508.028034 383.245503 
L 511.961255 383.245503 
L 513.927866 380.926972 
L 515.894477 379.602097 
L 517.861087 378.608441 
L 519.827698 376.289909 
L 523.760919 374.965034 
L 525.72753 373.971378 
L 527.694141 372.646503 
L 529.660751 371.652847 
L 531.627362 368.340659 
L 533.593973 368.00944 
L 535.560583 366.684565 
L 537.527194 363.041159 
L 539.493805 361.053846 
L 541.460415 358.735315 
L 543.427026 357.41044 
L 545.393637 356.748003 
L 547.360247 357.741659 
L 549.326858 357.079221 
L 551.293469 355.423128 
L 553.260079 354.76069 
L 555.22669 353.767034 
L 557.193301 353.104596 
L 559.159911 353.104596 
L 561.126522 352.773377 
L 563.093133 353.104596 
L 565.059744 352.11094 
L 567.026354 352.442159 
L 578.826018 352.442159 
L 580.792629 351.779721 
L 584.72585 352.442159 
L 588.659072 351.779721 
L 592.592293 351.779721 
L 594.558904 351.448502 
L 598.492125 352.11094 
L 600.458736 352.11094 
L 604.391957 351.448502 
L 606.358568 352.442159 
L 608.325178 352.442159 
L 610.291789 351.779721 
L 612.2584 350.786065 
L 614.880547 350.123627 
L 616.847158 350.123627 
L 617.502695 350.454846 
L 618.813768 350.454846 
L 619.469305 349.792409 
L 620.780379 349.792409 
L 621.435916 349.46119 
L 622.74699 350.123627 
L 626.680211 350.123627 
L 627.335748 349.46119 
L 632.580043 349.46119 
L 633.23558 349.792409 
L 633.891117 350.454846 
L 635.202191 350.454846 
L 635.857728 350.123627 
L 637.824338 350.123627 
L 638.479875 349.792409 
L 640.446486 349.792409 
L 641.102023 349.129971 
L 641.75756 349.792409 
L 642.413096 349.792409 
L 643.068633 349.46119 
L 645.035244 349.46119 
L 645.690781 348.798752 
L 647.001855 348.798752 
L 648.312928 349.46119 
L 648.968465 349.46119 
L 649.624002 349.129971 
L 651.590613 349.129971 
L 652.24615 348.798752 
L 652.901687 349.129971 
L 653.557224 348.798752 
L 656.179371 348.798752 
L 656.834908 348.467534 
L 658.145982 347.142659 
L 658.801519 347.805096 
L 659.457056 347.805096 
L 660.768129 348.467534 
L 662.73474 347.473877 
L 663.390277 346.81144 
L 664.701351 347.473877 
L 665.356888 347.473877 
L 666.012424 347.142659 
L 666.667961 347.142659 
L 667.979035 346.480221 
L 669.290109 346.480221 
L 669.945646 346.81144 
L 670.601183 346.480221 
L 671.912257 346.480221 
L 672.567793 346.81144 
L 673.22333 347.473877 
L 673.878867 347.473877 
L 675.189941 346.149002 
L 675.845478 346.149002 
L 676.501015 345.155346 
L 677.156552 344.492908 
L 677.812089 344.16169 
L 678.467625 344.16169 
L 680.434236 342.174377 
L 681.089773 341.843158 
L 681.74531 341.843158 
L 682.400847 341.51194 
L 683.056384 341.843158 
L 684.367457 341.843158 
L 685.022994 342.174377 
L 686.334068 342.174377 
L 687.645142 341.51194 
L 688.300679 341.843158 
L 688.956216 341.180721 
L 690.267289 341.180721 
L 690.922826 341.51194 
L 692.2339 340.849502 
L 692.889437 340.849502 
L 693.544974 340.518283 
L 694.200511 340.518283 
L 695.511585 339.855846 
L 696.167121 339.193408 
L 696.822658 339.193408 
L 698.133732 338.530971 
L 698.789269 337.868533 
L 701.411417 337.868533 
L 702.066953 337.206096 
L 702.72249 337.206096 
L 703.378027 336.874877 
L 704.033564 335.881221 
L 704.689101 336.543658 
L 705.344638 336.212439 
L 706.000175 336.874877 
L 706.655712 335.881221 
L 707.311249 335.550002 
L 707.966785 334.887564 
L 709.277859 334.887564 
L 709.933396 334.556346 
L 710.588933 333.893908 
L 711.24447 333.893908 
L 711.900007 333.562689 
L 712.555544 333.893908 
L 713.211081 333.231471 
L 713.866617 333.231471 
L 715.833228 330.250502 
L 717.144302 330.250502 
L 719.110913 329.256846 
L 719.766449 327.269533 
L 720.421986 325.944658 
L 721.077523 325.28222 
L 721.73306 324.288564 
L 722.388597 323.957345 
L 725.010745 321.307595 
L 725.666281 321.970033 
L 726.977355 321.307595 
L 727.632892 320.313939 
L 728.288429 320.313939 
L 728.943966 320.976377 
L 729.599503 320.645158 
L 730.25504 320.645158 
L 730.910577 318.989064 
L 731.566113 318.326626 
L 732.877187 318.326626 
L 733.532724 316.339314 
L 734.188261 316.670533 
L 736.810409 315.345658 
L 738.121482 315.345658 
L 738.777019 314.020783 
L 739.432556 313.689564 
L 740.088093 313.027126 
L 740.74363 312.695908 
L 741.399167 312.695908 
L 742.054704 312.364689 
L 742.710241 312.695908 
L 743.365777 312.364689 
L 744.021314 311.702251 
L 744.676851 311.371032 
L 745.332388 311.371032 
L 745.987925 311.039814 
L 746.643462 311.039814 
L 747.298999 310.708595 
L 749.921146 310.708595 
L 751.23222 309.38372 
L 751.887757 309.38372 
L 753.854368 308.390064 
L 755.820978 308.390064 
L 756.476515 308.058845 
L 757.132052 308.058845 
L 757.787589 308.390064 
L 758.443126 308.390064 
L 759.7542 307.727626 
L 762.376347 307.727626 
L 763.031884 307.396407 
L 766.965105 307.396407 
L 767.620642 307.727626 
L 768.276179 307.396407 
L 768.931716 307.396407 
L 769.587253 307.065189 
L 778.764769 307.065189 
L 779.420306 306.73397 
L 784.664602 306.73397 
L 785.320138 306.402751 
L 791.875507 306.402751 
L 792.531044 306.73397 
L 795.153192 306.73397 
L 797.119802 305.740314 
L 797.775339 305.740314 
L 798.430876 305.077876 
L 799.086413 304.746657 
L 805.641782 304.746657 
L 806.297319 304.415439 
L 806.952856 304.746657 
L 809.575003 304.746657 
L 810.23054 304.415439 
L 810.886077 304.746657 
L 813.508225 304.746657 
L 814.163762 304.415439 
L 815.474835 304.415439 
L 816.785909 304.08422 
L 816.785909 304.08422 
" clip-path="url(#p0425255318)" style="fill: none; stroke: #2288ff; stroke-width: 1.5; stroke-linecap: square"/>
   </g>
   <g id="patch_10">
    <path d="M 52.09 529.445464 
L 52.09 293.352732 
" style="fill: none; stroke: #000000; stroke-width: 0.8; stroke-linejoin: miter; stroke-linecap: square"/>
   </g>
   <g id="patch_11">
    <path d="M 853.2 529.445464 
L 853.2 293.352732 
" style="fill: none; stroke: #000000; stroke-width: 0.8; stroke-linejoin: miter; stroke-linecap: square"/>
   </g>
   <g id="patch_12">
    <path d="M 52.09 529.445464 
L 853.2 529.445464 
" style="fill: none; stroke: #000000; stroke-width: 0.8; stroke-linejoin: miter; stroke-linecap: square"/>
   </g>
   <g id="patch_13">
    <path d="M 52.09 293.352732 
L 853.2 293.352732 
" style="fill: none; stroke: #000000; stroke-width: 0.8; stroke-linejoin: miter; stroke-linecap: square"/>
   </g>
   <g id="text_30">
    <text style="font-size: 12px; font-family: 'Noto Sans JP'; text-anchor: middle" x="452.645" y="287.352732" transform="rotate(-0 452.645 287.352732)">サーバー数の推移</text>
   </g>
  </g>
 </g>
 <defs>
  <clipPath id="pb4207ca374">
   <rect x="52.09" y="26.88" width="801.11" height="236.092732"/>
  </clipPath>
  <clipPath id="p0425255318">
   <rect x="52.09" y="293.352732" width="801.11" height="236.092732"/>
  </clipPath>
 </defs>
</svg>
