<!DOCTYPE svg  PUBLIC '-//W3C//DTD SVG 1.1//EN'  'http://www.w3.org/Graphics/SVG/1.1/DTD/svg11.dtd'>
<svg version="1.1" viewBox="0 0 864 576" xmlns="http://www.w3.org/2000/svg" xmlns:xlink="http://www.w3.org/1999/xlink">
 <defs>
  <style type="text/css">*{stroke-linejoin: round; stroke-linecap: butt}</style>
 </defs>
 <g id="aa">
  <g id="ab">
   <path d="m0 576h864v-576h-864z" fill="#fff"/>
  </g>
  <g id="ac">
   <g id="ad">
    <path d="m52 259.78h801.2v-232.9h-801.2z" fill="#fff"/>
   </g>
   <g id="ae">
    <path d="m178.71 259.78h.16269v-232.9h-.16269z" clip-path="url(#b)" fill="#ddd" stroke="#ddd"/>
   </g>
   <g id="af">
    <path d="m181.07 259.78h.16269v-232.9h-.16269z" clip-path="url(#b)" fill="#ddd" stroke="#ddd"/>
   </g>
   <g id="ag">
    <path d="m237.12 259.78h.16269v-232.9h-.16269z" clip-path="url(#b)" fill="#ddd" stroke="#ddd"/>
   </g>
   <g id="ah">
    <path d="m401.11 259.78h.16269v-232.9h-.16269z" clip-path="url(#b)" fill="#ddd" stroke="#ddd"/>
   </g>
   <g id="ai">
    <path d="m565.1 259.78h.16269v-232.9h-.16269z" clip-path="url(#b)" fill="#ddd" stroke="#ddd"/>
   </g>
   <g id="aj">
    <path d="m581.53 259.78h.40672v-232.9h-.40672z" clip-path="url(#b)" fill="#ddd" stroke="#ddd"/>
   </g>
   <g id="ak">
    <path d="m582.02 259.78h.16269v-232.9h-.16269z" clip-path="url(#b)" fill="#ddd" stroke="#ddd"/>
   </g>
   <g id="al">
    <path d="m729.09 259.78h.16269v-232.9h-.16269z" clip-path="url(#b)" fill="#ddd" stroke="#ddd"/>
   </g>
   <g id="am">
    <g id="an">
     <g id="ao">
      <path d="m87.849 259.78v-232.9" clip-path="url(#b)" fill="none" stroke="#b0b0b0" stroke-linecap="square" stroke-opacity=".3" stroke-width=".8"/>
     </g>
     <g id="ap">
      <defs>
       <path id="e" d="m0 0v3.5" stroke="#000" stroke-width=".8"/>
      </defs>
      <use x="87.848766" y="259.777732" stroke="#000000" stroke-width=".8" xlink:href="#e"/>
     </g>
    </g>
    <g id="aq">
     <g id="ar">
      <path d="m181.56 259.78v-232.9" clip-path="url(#b)" fill="none" stroke="#b0b0b0" stroke-linecap="square" stroke-opacity=".3" stroke-width=".8"/>
     </g>
     <g id="as">
      <use x="181.558272" y="259.777732" stroke="#000000" stroke-width=".8" xlink:href="#e"/>
     </g>
    </g>
    <g id="at">
     <g id="au">
      <path d="m275.27 259.78v-232.9" clip-path="url(#b)" fill="none" stroke="#b0b0b0" stroke-linecap="square" stroke-opacity=".3" stroke-width=".8"/>
     </g>
     <g id="av">
      <use x="275.267777" y="259.777732" stroke="#000000" stroke-width=".8" xlink:href="#e"/>
     </g>
    </g>
    <g id="aw">
     <g id="ax">
      <path d="m368.98 259.78v-232.9" clip-path="url(#b)" fill="none" stroke="#b0b0b0" stroke-linecap="square" stroke-opacity=".3" stroke-width=".8"/>
     </g>
     <g id="ay">
      <use x="368.977282" y="259.777732" stroke="#000000" stroke-width=".8" xlink:href="#e"/>
     </g>
    </g>
    <g id="az">
     <g id="ba">
      <path d="m462.69 259.78v-232.9" clip-path="url(#b)" fill="none" stroke="#b0b0b0" stroke-linecap="square" stroke-opacity=".3" stroke-width=".8"/>
     </g>
     <g id="bb">
      <use x="462.686787" y="259.777732" stroke="#000000" stroke-width=".8" xlink:href="#e"/>
     </g>
    </g>
    <g id="bc">
     <g id="bd">
      <path d="m532.97 259.78v-232.9" clip-path="url(#b)" fill="none" stroke="#b0b0b0" stroke-linecap="square" stroke-opacity=".3" stroke-width=".8"/>
     </g>
     <g id="be">
      <use x="532.968916" y="259.777732" stroke="#000000" stroke-width=".8" xlink:href="#e"/>
     </g>
    </g>
    <g id="bf">
     <g id="bg">
      <path d="m626.68 259.78v-232.9" clip-path="url(#b)" fill="none" stroke="#b0b0b0" stroke-linecap="square" stroke-opacity=".3" stroke-width=".8"/>
     </g>
     <g id="bh">
      <use x="626.678421" y="259.777732" stroke="#000000" stroke-width=".8" xlink:href="#e"/>
     </g>
    </g>
    <g id="bi">
     <g id="bj">
      <path d="m720.39 259.78v-232.9" clip-path="url(#b)" fill="none" stroke="#b0b0b0" stroke-linecap="square" stroke-opacity=".3" stroke-width=".8"/>
     </g>
     <g id="bk">
      <use x="720.387926" y="259.777732" stroke="#000000" stroke-width=".8" xlink:href="#e"/>
     </g>
    </g>
    <g id="bl">
     <g id="bm">
      <path d="m814.1 259.78v-232.9" clip-path="url(#b)" fill="none" stroke="#b0b0b0" stroke-linecap="square" stroke-opacity=".3" stroke-width=".8"/>
     </g>
     <g id="bn">
      <use x="814.097431" y="259.777732" stroke="#000000" stroke-width=".8" xlink:href="#e"/>
     </g>
    </g>
   </g>
   <g id="bo">
    <g id="bp">
     <g id="bq">
      <path d="m52 249.19h801.2" clip-path="url(#b)" fill="none" stroke="#b0b0b0" stroke-linecap="square" stroke-opacity=".3" stroke-width=".8"/>
     </g>
     <g id="br">
      <defs>
       <path id="g" d="m0 0h-3.5" stroke="#000" stroke-width=".8"/>
      </defs>
      <use x="52" y="249.191471" stroke="#000000" stroke-width=".8" xlink:href="#g"/>
     </g>
     <g id="bs">
      <!-- 0 -->
      <g transform="translate(39.3 253.18) scale(.1 -.1)">
       <defs>
        <path id="a" transform="scale(.015625)" d="m1830-90q-460 0-806 275-346 276-535 823-188 547-188 1366 0 820 188 1357 189 538 535 803 346 266 806 266 461 0 800-269 340-269 528-803 189-534 189-1354 0-819-189-1366-188-547-528-823-339-275-800-275zm0 589q237 0 422 185 186 186 288 599 103 413 103 1091 0 679-103 1082-102 403-288 582-185 180-422 180-236 0-422-180-186-179-292-582-105-403-105-1082 0-678 105-1091 106-413 292-599 186-185 422-185z"/>
       </defs>
       <use xlink:href="#a"/>
      </g>
     </g>
    </g>
    <g id="bt">
     <g id="bu">
      <path d="m52 224.54h801.2" clip-path="url(#b)" fill="none" stroke="#b0b0b0" stroke-linecap="square" stroke-opacity=".3" stroke-width=".8"/>
     </g>
     <g id="bv">
      <use x="52" y="224.543601" stroke="#000000" stroke-width=".8" xlink:href="#g"/>
     </g>
     <g id="bw">
      <!-- 600 -->
      <g transform="translate(27.9 228.53) scale(.1 -.1)">
       <defs>
        <path id="h" transform="scale(.015625)" d="m1971-90q-339 0-634 144-294 144-518 435-224 292-352 733-128 442-128 1044 0 678 147 1161 148 483 397 784 250 301 570 445t665 144q397 0 688-147 292-147 490-359l-403-448q-128 154-327 253-198 99-409 99-307 0-567-182-259-182-413-605-153-422-153-1145 0-608 115-1002t326-589q212-195 493-195 212 0 375 121 163 122 259 343t96 522q0 300-90 511-89 212-259 320-169 109-419 109-211 0-451-134t-458-461l-25 538q134 192 313 323t374 201q196 71 375 71 397 0 694-163 298-163 467-490 170-326 170-825 0-468-195-817-195-348-512-544-317-195-701-195z"/>
       </defs>
       <use xlink:href="#h"/>
       <use transform="translate(57)" xlink:href="#a"/>
       <use transform="translate(114)" xlink:href="#a"/>
      </g>
     </g>
    </g>
    <g id="bx">
     <g id="by">
      <path d="m52 199.9h801.2" clip-path="url(#b)" fill="none" stroke="#b0b0b0" stroke-linecap="square" stroke-opacity=".3" stroke-width=".8"/>
     </g>
     <g id="bz">
      <use x="52" y="199.89573" stroke="#000000" stroke-width=".8" xlink:href="#g"/>
     </g>
     <g id="ca">
      <!-- 1200 -->
      <g transform="translate(22.2 203.88) scale(.1 -.1)">
       <defs>
        <path id="i" transform="scale(.015625)" d="m544 0v608h1037v3277h-845v467q333 58 579 147 247 90 451 218h557v-4109h915v-608h-2694z"/>
        <path id="c" transform="scale(.015625)" d="m282 0v429q697 621 1164 1136 468 515 701 956 234 442 234 826 0 256-87 451-86 196-262 301-176 106-445 106-275 0-506-151-230-150-422-368l-416 410q301 333 637 518 336 186 803 186 429 0 749-176t496-493 176-745q0-455-224-919t-615-935q-390-470-889-950 186 20 394 36t374 16h1184v-634h-3046z"/>
       </defs>
       <use xlink:href="#i"/>
       <use transform="translate(57)" xlink:href="#c"/>
       <use transform="translate(114)" xlink:href="#a"/>
       <use transform="translate(171)" xlink:href="#a"/>
      </g>
     </g>
    </g>
    <g id="cb">
     <g id="cc">
      <path d="m52 175.25h801.2" clip-path="url(#b)" fill="none" stroke="#b0b0b0" stroke-linecap="square" stroke-opacity=".3" stroke-width=".8"/>
     </g>
     <g id="cd">
      <use x="52" y="175.247859" stroke="#000000" stroke-width=".8" xlink:href="#g"/>
     </g>
     <g id="ce">
      <!-- 1800 -->
      <g transform="translate(22.2 179.23) scale(.1 -.1)">
       <defs>
        <path id="j" transform="scale(.015625)" d="m1830-90q-441 0-787 163-345 164-547 448-202 285-202 650 0 314 122 557t314 419 403 291v32q-256 186-442 458-185 272-185 643 0 365 176 640t480 425q304 151 694 151 410 0 704-160t457-439q164-278 164-649 0-237-96-448t-234-381q-137-169-291-278v-32q218-115 397-285 179-169 288-406t109-557q0-346-189-628-189-281-532-448-342-166-803-166zm314 2708q205 198 310 419 106 221 106 464 0 211-83 384t-247 272q-163 99-393 99-288 0-480-183-192-182-192-502 0-256 134-429 135-172 359-294t486-230zm-294-2170q236 0 418 89 183 90 285 253 103 164 103 388 0 211-90 367-89 157-246 272-157 116-368 215t-454 195q-244-173-398-426-153-252-153-553 0-237 118-416 119-179 324-282 205-102 461-102z"/>
       </defs>
       <use xlink:href="#i"/>
       <use transform="translate(57)" xlink:href="#j"/>
       <use transform="translate(114)" xlink:href="#a"/>
       <use transform="translate(171)" xlink:href="#a"/>
      </g>
     </g>
    </g>
    <g id="cf">
     <g id="cg">
      <path d="m52 150.6h801.2" clip-path="url(#b)" fill="none" stroke="#b0b0b0" stroke-linecap="square" stroke-opacity=".3" stroke-width=".8"/>
     </g>
     <g id="ch">
      <use x="52" y="150.599988" stroke="#000000" stroke-width=".8" xlink:href="#g"/>
     </g>
     <g id="ci">
      <!-- 2400 -->
      <g transform="translate(22.2 154.59) scale(.1 -.1)">
       <defs>
        <path id="l" transform="scale(.015625)" d="m2170 0v3072q0 192 12 457 13 266 20 458h-26q-90-179-183-365-92-185-195-364l-921-1415h2579v-576h-3328v493l1875 2957h858v-4717h-691z"/>
       </defs>
       <use xlink:href="#c"/>
       <use transform="translate(57)" xlink:href="#l"/>
       <use transform="translate(114)" xlink:href="#a"/>
       <use transform="translate(171)" xlink:href="#a"/>
      </g>
     </g>
    </g>
    <g id="cj">
     <g id="ck">
      <path d="m52 125.95h801.2" clip-path="url(#b)" fill="none" stroke="#b0b0b0" stroke-linecap="square" stroke-opacity=".3" stroke-width=".8"/>
     </g>
     <g id="cl">
      <use x="52" y="125.952117" stroke="#000000" stroke-width=".8" xlink:href="#g"/>
     </g>
     <g id="cm">
      <!-- 3000 -->
      <g transform="translate(22.2 129.94) scale(.1 -.1)">
       <defs>
        <path id="n" transform="scale(.015625)" d="m1715-90q-371 0-656 90t-503 240q-217 150-377 323l359 474q211-205 479-359 269-153 634-153 269 0 467 92 199 93 311 266t112 423q0 256-125 451t-429 300q-304 106-835 106v551q467 0 732 105 266 106 384 291 119 186 119 423 0 307-192 489-192 183-531 183-269 0-503-119-233-118-438-316l-384 460q282 256 614 413 333 157 737 157 422 0 748-144 327-144 512-413 186-269 186-659 0-403-221-685-221-281-592-422v-26q269-70 490-227t349-400 128-557q0-422-215-726-214-304-573-468-358-163-787-163z"/>
       </defs>
       <use xlink:href="#n"/>
       <use transform="translate(57)" xlink:href="#a"/>
       <use transform="translate(114)" xlink:href="#a"/>
       <use transform="translate(171)" xlink:href="#a"/>
      </g>
     </g>
    </g>
    <g id="cn">
     <g id="co">
      <path d="m52 101.3h801.2" clip-path="url(#b)" fill="none" stroke="#b0b0b0" stroke-linecap="square" stroke-opacity=".3" stroke-width=".8"/>
     </g>
     <g id="cp">
      <use x="52" y="101.304246" stroke="#000000" stroke-width=".8" xlink:href="#g"/>
     </g>
     <g id="cq">
      <!-- 3600 -->
      <g transform="translate(22.2 105.29) scale(.1 -.1)">
       <use xlink:href="#n"/>
       <use transform="translate(57)" xlink:href="#h"/>
       <use transform="translate(114)" xlink:href="#a"/>
       <use transform="translate(171)" xlink:href="#a"/>
      </g>
     </g>
    </g>
    <g id="cr">
     <g id="cs">
      <path d="m52 76.656h801.2" clip-path="url(#b)" fill="none" stroke="#b0b0b0" stroke-linecap="square" stroke-opacity=".3" stroke-width=".8"/>
     </g>
     <g id="ct">
      <use x="52" y="76.656375" stroke="#000000" stroke-width=".8" xlink:href="#g"/>
     </g>
     <g id="cu">
      <!-- 4200 -->
      <g transform="translate(22.2 80.642) scale(.1 -.1)">
       <use xlink:href="#l"/>
       <use transform="translate(57)" xlink:href="#c"/>
       <use transform="translate(114)" xlink:href="#a"/>
       <use transform="translate(171)" xlink:href="#a"/>
      </g>
     </g>
    </g>
    <g id="cv">
     <g id="cw">
      <path d="m52 52.009h801.2" clip-path="url(#b)" fill="none" stroke="#b0b0b0" stroke-linecap="square" stroke-opacity=".3" stroke-width=".8"/>
     </g>
     <g id="cx">
      <use x="52" y="52.008504" stroke="#000000" stroke-width=".8" xlink:href="#g"/>
     </g>
     <g id="cy">
      <!-- 4800 -->
      <g transform="translate(22.2 55.994) scale(.1 -.1)">
       <use xlink:href="#l"/>
       <use transform="translate(57)" xlink:href="#j"/>
       <use transform="translate(114)" xlink:href="#a"/>
       <use transform="translate(171)" xlink:href="#a"/>
      </g>
     </g>
    </g>
    <g id="cz">
     <g id="da">
      <path d="m52 27.361h801.2" clip-path="url(#b)" fill="none" stroke="#b0b0b0" stroke-linecap="square" stroke-opacity=".3" stroke-width=".8"/>
     </g>
     <g id="db">
      <use x="52" y="27.360633" stroke="#000000" stroke-width=".8" xlink:href="#g"/>
     </g>
     <g id="dc">
      <!-- 5400 -->
      <g transform="translate(22.2 31.346) scale(.1 -.1)">
       <defs>
        <path id="m" transform="scale(.015625)" d="m1715-90q-365 0-653 90t-506 237q-217 147-383 307l352 480q134-134 294-246t361-183q202-70 452-70 262 0 473 118 212 119 333 346 122 227 122 541 0 460-247 716-246 256-649 256-224 0-384-64t-365-198l-365 237 141 2240h2387v-627h-1747l-109-1204q154 77 307 118 154 42 340 42 397 0 723-160t518-490q192-329 192-847 0-519-224-887t-586-560q-361-192-777-192z"/>
       </defs>
       <use xlink:href="#m"/>
       <use transform="translate(57)" xlink:href="#l"/>
       <use transform="translate(114)" xlink:href="#a"/>
       <use transform="translate(171)" xlink:href="#a"/>
      </g>
     </g>
    </g>
   </g>
   <g id="dd">
    <path d="m88.418 73.041 1.0575 22.923.40672 11.831 1.3829 36.068.65076 13.638 1.5456 21.32.24404 2.3415.48807 4.642.16269 1.1913 1.3015 7.8873.40672 1.4789.32538 1.8486.24404.53404.16269.45188.081345-.041079.16269-.32864.081345.04108.16269-.08216.081345-.082159.16269-.24648.081345.45188.081345-.12324.081345-.16432.16269-.65728.16269-.08216.65076-2.8345.32538-1.7664.40673-1.9308.081345.28756.081345-.49296.081345.08216.081345-.16432.081345.12324.16269-.94484.16269-.57512.40672-3.1631.56942-5.9155 1.2202-10.927.081345.24648.40672-2.4648.16269-.49296.24404-1.8897.81345-4.3134.081345.36972.24404-.94484.081345.49296.081345-.24648.16269.49296.16269-1.3967.081345.08216.081345-.36972.40673 1.6021.081345.2054.081345-.12324.081345.2054.16269-.69836.081345.36972.081345-.2054.16269 1.6021.081345-.16432.081345-.08216.081345.86268.40673-2.3826.32538-2.7113.40672-7.5998.40672-9.6537 2.1963-68.644.40672-4.6831.081345-.49296.081345-2.7523.24404-2.7523.081345.041079.32538 3.0399.24404 3.9437.081345.2054.32538 4.4366.16269 4.3134.32538 9.0376.32538 6.162.32538 8.1338.81345 22.183.48807 12.735.32538 5.4636.65076 13.844.40672 5.3815.32538 5.3404 1.3015 16.884.081345.32864.24404 2.7934.81345 6.4495.8948 3.4918.24404.6162h.081345l.24404.8216.24404-.12324.081345.36972.16269-.49296.32538 1.1913.081345-.08216.24404-.36972.081345.08216.24404-.65728.081345.04108.32538-1.2735.40672-2.0951.081346-.6162.081345.2054.40672-1.9308.081345.08216.081345.28756.56942-1.8897.081345.2054.081345.24648.16269-1.0681 1.9523-16.761.24404-2.1361.32538-2.054.081345-.04108.16269-.32864.081345-.04108.24404-2.1361.081345.16432.24404-.78052.32538-2.0951.16269.082159.081345-.53404.081345.32864.24404-1.4378.16269.53404.24404-.73944.16269.6162.081345-1.027.081345.16432.081345-.32864.16269.24648.081345.53404.081345-.69836.081345.08216.16269-.16432.081345-.4108.16269.45188.32538-1.4378.081345.32864.40672-3.2042.73211-17.089.16269-4.1491.7321-26.045.32538-10.023.32538-12.406.16269-3.6972.32538-8.0927.081345-.6162.40673-6.696.48807-5.2993.081345.36972.32538 3.5739.56942 5.7512.40672 8.1338 1.1388 29.372.16269 4.0258.48807 13.597 1.6269 34.548.16269 2.0951.48807 8.1338.32538 4.108.7321 7.8873.40673 3.5329.081345.4108.24404 2.1361.32538 2.5469.081345.16432.081345 28.92.081345-.49296.24404-1.0681h.081346l.081345-.4108.081345.32864.081345-.082159.16269-.24648.081345.08216.32538-1.1092.16269-.24648.73211-3.1631 1.0575-4.4777.40673-4.1901.81345-3.4507.24404-1.6843 2.359-24.196.081345-.2054.32538-3.081.24404-2.3415.081345-.24648.32538-2.0951.081345.4108.081345-.04108.24404-2.5469.24404-1.3967.081345.24648.16269-.65728.081346.16432.16269-.94484.24404-1.027.16269.45188.081345-.65728.081345.082159.081345-.16432.32538 2.2183.081345-.041079.081345.12324.081345-.12324.24404.4108.16269-.78052.081345-.16432.24404.69836.081345.57512.16269-.73944.081345-.04108.73211-12.776.65076-20.211.48807-19.472 1.4642-47.036.16269-1.6021.32538-3.7383.24404-1.8897.16269-.4108.16269.90376.081345-.12324.81345 10.886.081345.57512 3.5792 84.542.32538 6.8192.32538 6.7371.081345.69836.32538 5.2171.65076 7.4765.081345.36972.40672 4.8063.48807 4.0669.24404 1.3556.65076 2.9167.16269.73944.32538.94484.081345-.4108.32538 1.1502.16269.04108.16269.2054.081345-.16432.081345.16432.16269-.49296.081345.041079.48807-1.7664h.081345l.081346-.2054.16269.24648.40672-2.4648.081345-.082159.081345.082159.16269-.90376h.081345l.16269-1.0681.081345.36972.16269-.49296h.16269l.081345-.36972.081345.24648.16269-.36972.48807-4.2312.32538-3.5739.16269-1.7254.24404-3.4096.081345-.6162.16269-3.5329.081345.45188.40672 5.6279.081345.082159.081345-.12324.16269-.57512.16269 70.329h.081345l.8948-44.982.73211-15.2.81345-10.64.16269-.78052.48807-4.1901.16269-1.1502.081345.28756.081345-.28756.16269-1.1502.16269.12324.56942-3.7383.24404-3.8204.24404 11.05.16269-11.215.65076-20.54.081346-3.9847.081345 1.3146m.16269 108.9.081345-4.9707.16269-69.836.32538-23.292.56942-31.385.48807-15.528.32538-8.3392.24404 15.2m.16269 131.78.16269-80.681.32538-15.323.40672-9.243.16269-.57512.40672 2.3005 1.0575 12.981.40672 6.4495.24404 2.9167.97614 16.144 1.0575 12.201.56942 5.3404.40673 3.3275.56942 2.7523.40672 1.9308.24404.90376.081346-.04108.32538.90376.16269.57512.16269.4108.16269.2054.081345-.32864.40672 1.4378.24404 2.9988.65076 2.6702.081345-.2054.24404.73944.081345-.2054.24404.12324.32538.53404.081345-.2054.081345-.57512.081345.082159.16269-.4108.73211-4.1901.32538-2.054.65076-5.6279.081345.08216 1.1388-7.4765.081345-.2054.56942-4.7242.24404 4.9296.24404 2.2183.24404.16432.16269.32864.081345-.12324 1.2202-9.0376.56942-3.1631.081346 5.1761.081345 52.212.16269-27.811.40672-12.776.24404-4.5188.081345-.4108.48807-6.4906.48807-4.9296.7321-17.623.65076-19.02 1.7896-61.579.65076-7.9695.081345-.082159.16269 1.4378.081345-.2054.16269 1.4378 1.6269 35.904.40672 10.968 1.6269 33.11.48807 8.9965.40672 5.669.97614 10.434.40672 4.1491 1.0575 8.5035.16269.65728.16269.90376.7321 3.2864.081346-.08216.16269.53404.081345.49296.081345-.2054.081345 25.88.081345-1.1502.24404-1.6843.24404-.98592.81345-4.7242 1.1388-6.0798.32538-2.2183h.081345l1.1388-7.9695h.081345l.24404-1.1092.56942-4.642.32538-3.0399.081346-.28756.32538-2.5469.97614-6.4084.24404-1.52.081345-.16432.081345.16432.16269-.65728.32538-2.2183.081345.28756.32538-2.6291.081345.12324.48807-1.3556.24404-1.1092.16269-.45188.16269.65728.081345-.12324.16269-.73944.16269-.16432h.081345l.24404-1.561.16269-.86268h.081345l.081345.32864 1.0575-14.542.56942-14.994.24404-8.5857.65076-22.676.24404-6.2441.40672-13.269.24404-4.6831.24404-4.5188.16269-2.1361.081345.12324.24404-2.5469.16269.57512.081345-.28756.24404 1.1913.16269 1.9718.40672 8.3392.48807 8.8732 1.7082 39.724.97614 20.006.24404 3.9026.32538 4.8063.081345.65728.40672 6.4084.56942 7.3944.56942 5.8333.24404 2.3415.16269 1.7664.40673 3.4096.081345.16432.40672 3.2453 1.1388 4.2723.081345.082159.16269.36972.081345-.32864.081345.32864m.16269 12.242.16269-10.763.32538-1.2324.16269-.4108.081345.32864.081345-.12324.48807-1.561.16269-.45188.16269-.98592.24404-.90376h.081345l.32538-2.0129.081345.04108.16269-.73944.081345-.45188.081345.28756.32538-1.1913.16269-.6162.32538-1.6021.16269-.69836.081345.04108.081345.082159.081345-.082159.32538-2.5469.48807-3.7793.081345-.12324.24404-1.8075.24404-1.561h.081345l1.3015-8.5857.081345.12324.48807-2.8345.081345.12324.40673-1.6432.081345.36972.24404-1.2324.081345-.2054.40672-2.9167.081345.12324.32538-.45188.16269.69836.081345-.36972.081345.24648.24404-.86268.081345.12324.48807-1.8075.40673-6.8192.7321-17.089 1.5456-50.364.81345-18.198.16269.12324.24404-1.3967.081345-.49296.081345.08216.081345.16432.081345-.2054.73211 12.201.48807 10.229.48807 14.214.32538 6.5317.97614 27.154.48807 9.6127.32538 6.9014.081345.69836.40672 7.0246.8948 12.94.24404 3.2042.40672 4.2312.73211 6.696.16269.94484 1.0575 6.2852.16269.28756h.081345l.40672 1.52.24404 1.4789.24404.65728.081346.12324.081345-.2054.081345.082159.24404-.24648.32538-1.1092.081345.04108h.081345l.081345.24648.24404-.57512.081345.082159.081345-.12324.24404-.94484.16269-.4108.081345.12324.081345.24648.40672-2.0951.081345.08216.48807-1.7664.16269-1.2735.16269-1.3556.16269-.49296.081345.16432.24404-.78052.081345-.041079.81345-6.2852.081345.041079.48807-2.588.48807-3.0399.56942-4.642.16269-1.561.081345-.12324.24404-.73944.16269.082159.081345-.082159.24404-1.2324.081345.04108.081345-.36972.081345.28756.081345-.28756.24404-1.4378.81345-4.8474.24404-.4108.081345.4108.16269-.94484.081345.2054.56942-2.2183.16269.32864.48807-4.8474.40672-6.4906.56942-13.187.73211-27.606 1.1388-35.863.16269-3.081.65076-7.4765.081345.53404.16269-.2054.32538 1.9308.24404 5.4225.40672 7.3533.40672 11.174.32538 8.8732 1.0575 28.961 1.3015 26.907.16269 1.8486.8948 15.487 1.6269 16.884.40672 2.7113.24404 1.8897.56942 3.3685.48807 1.6432.081345.12324.16269.57512.081345-.041079.16269.57512.16269.32864.24404-.16432.16269.32864.081345-.04108.081345-.2054.16269.16432.081345-.12324.081345.16432.24404-.57512.16269.36972.24404-1.3146h.081345l.24404-.69836.48807-1.3146.081346.082159.48807-1.1913.16269-.57512.16269-.6162.32538-2.5469.081345-.28756.24404-1.2735.32538-1.9308.24404-2.2594.65076-5.5458.081345.08216.32538-2.1361.24404-1.2324.16269-.90376.81345-4.7653.65076-1.3556.24404-.12324.24404-.86268.081345 20.992.16269-20.951.16269-.8216.24404-.69836.40672-1.1502.081345.08216.16269-1.2735.081345-.082159.081345.082159.081345-.65728.081345.04108.081345-.16432.56942-4.1901.24404-2.0951.81345-16.637 2.359-81.872.56942-7.6408.24404-1.2324.081345.36972.081345-.2054.081345.2054.97614 16.227.24404 6.4495.24404 5.7101 2.115 58.785 2.0336 36.027.81345 8.216.081346-.16432.16269 1.6432.16269.69836.32538 2.4648.32538 1.4378.32538 1.0681.56942 3.1221.16269.16432.16269-.08216.16269-1.1913.16269.65728.16269-.53404.40673-.8216.081345.2054.40672-1.3967.081345.041079.16269-.53404.081345.24648.32538-1.1092.081346.24648.16269-.78052.40672-1.4378.081345-.45188.081345.04108.16269-.2054.081345.28756.24404-.65728.48807-2.6291.16269-1.4789.48807-4.5188.16269-.90376.24404-2.8756.16269-1.4789.8948-9.2019.48807-5.9976.8948-5.6279.081345.16432.32538-2.0951.081345.2054.081346-.32864.081345.78052.32538-2.0951.16269 1.2735.16269-.53404.56942 1.7664.081346-.16432.24404-1.1092.081345.28756.081345-.16432.32538.78052.081345-.041079.081345-.4108.081345.2054.32538-3.6561.40673-7.189.97614-30.317.40673-12.981 1.1388-33.48.56942-11.215h.081345l.081345-.32864.24404-3.3685.16269.90376.081345-.32864.16269 1.2324.32538 2.5059.16269 1.7664.40672 7.0657 1.2202 30.687.24404 4.8063.40672 11.297 2.359 54.636.7321 9.7359.48807 5.4225.81345 8.3392.24404 1.4378.16269.69836.081345.08216.40672 1.8486.16269.28756.081345.04108.081345-.24648.081345.04108.73211 2.1361.081345-.2054.24404.36972.081345-.08216.16269-.57512.24404-1.6843.081345.36972.081345-.2054.40673-2.2594.24404-.69836.56942-1.8486.16269-.57512.081345.04108.16269-.49296.081345.2054.16269-.69836.081345-.16432.24404-2.2183.16269-1.6021.32538-4.8885.81345-7.8462.24404-2.0951.32538-4.642.40673-3.9026.65076-7.1068.32538-2.6291.24404-1.027.081345-1.027.081346.12324.081345-.16432.32538-2.5059.16269.041079.081345-.24648.081345.28756.081345-.04108.081345-.24648.081345.4108.081345-.041079.24404.86268.24404 1.2735.081345-.28756.24404.73944.16269.04108.24404 1.4789.24404-.45188.081345.2054.24404-2.0951.7321-11.461.24404-5.4225.40672-13.063.40673-18.568.48807-14.665.16269-4.7653.56942-13.885.65076-12.858.081345.12324.24404-1.561.32538 2.7523.16269 5.0528.32538 10.722.40672 9.1608 1.0575 31.796.081345 1.1913.40672 11.79 1.7082 38.985.81345 11.05.8948 9.5716.40672 3.9026.24404 2.0951.56942 4.5599.16269 1.6432.7321 3.4096.081345.12324.24404 1.1092.56942 2.3826.081345-.082159.16269-.65728.081345.12324.16269-.32864.16269.4108.081345-.04108.081345.12324.40673-1.0681.081345.12324.24404-.16432.081345-.36972.16269.32864.081345-.12324.081345.2054.081345-.12324.24404-1.1502.24404-.36972.081345.04108.16269-.53404.40672-1.8075.081345.12324.97614-5.3815.48807-3.9026.24404-.98592.8948-5.5047.081345-.16432.65076-4.0258.081345-.28756.24404-2.0129.40673-1.8075.16269-.98591.16269-.12324.16269-.69836.081345.12324.73211-4.1491.16269.53404.16269-.4108.32538-3.1221.16269.32864.32538-2.4237.16269-.36972.8948-10.065.32538-7.9695.24404-5.2582.32538-8.8732.40672-13.762.73211-24.73.16269-2.9988.24404-4.108.081345-.49296.40672-7.1479.24404-1.9718.081345-.49296.16269-1.7664.081345.16432.32538 2.4648.32538 8.3392.24404 4.1491.48807 12.077.7321 20.704 2.0336 43.914.65076 9.8181 1.1388 11.954.32538 3.5329 1.3015 11.174.081345.04108.56942 3.3685h.081345l.16269.69836.081345-.08216.16269.53404.081345-.16432.32538 1.3556.24404-.28756.081345.2054.081345-.24648.16269.28756.081345-.082159.081345.082159.16269-.53404.081345.57512.081345-.53404.081345.24648.32538-.98592.081345-.2054.24404-1.027.16269-.16432.16269-.78052.081345.24648.081346-.08216.16269-.90376.081345.08216h.081345l1.4642-7.5587.24404-1.52.40672-2.5469.081345-.082159.24404-1.561.16269-.98592.65076-4.642h.081345l.081345-.94484.081345.08216.81345-4.7242.16269-.53404.16269-.65728.081345.08216.081345-.28756.32538-2.7523.16269.4108.40673-2.588.081345-.2054.081345.24648.24404-1.1502.081345.2054.081345-.04108.16269.32864.32538-.90376.081346.16432.16269-.45188.16269-.53404.16269-.57512.32538-3.7383.24404-.98592.40673-8.8732.65076-16.761.16269-6.2441.73211-28.057.32538-9.0786.32538-11.133.48807-8.4624.16269-1.4789.24404-1.8486.081345.16432.081345-.04108.081345-.49296.081345.12324.081345.36972.081345-.69836.32538 5.7101 1.1388 30.604.97614 26.414.32538 6.7782.40672 9.6948.40673 7.1479.24404 5.0117 1.5456 21.074.16269 1.3967.65076 6.5317 1.4642 10.311.40673 2.0951.16269.16432.40672 1.6432.16269 1.2324.081345-.082159m.16269 16.761.16269-14.255.32538-.69836h.081345l.16269-.86268.081345.16432.16269.4108.24404-1.2735.32538-.78052.16269-.28756.32538-.49296.24404-1.3967.081345-.08216.40672-1.9308.081345-.041079.081345-.32864.24404-1.6843.65076-3.0399.16269-.16432.16269-1.3556.081345.04108.24404-2.1361.24404-2.3415.24404-1.4378h.081345l.24404-1.8075.081345-.04108.24404-1.52.24404-1.2324.081345-.2054.24404-1.561.40672-2.6702.16269-.65728.16269-1.1502.40672-1.8486.081345-1.027.081346.28756.081345-.12324.24404-1.4789.081345.12324.32538-2.1361.16269-.32864.16269-.6162.40673-1.3146.081345.24648.16269-.69836.081345-.2054.081345.04108.24404-2.0129h.081345l.40672-3.4918.081345-.08216.24404-3.8615.16269-1.52.40672-9.6538.81345-26.291 1.0575-37.547.56942-12.611.24404-1.8486.081345.24648.081345-.04108.081345-1.2735.081345.8216.081345-.16432.40672 2.3826.081345 2.3826.97614 22.265.32538 9.6127 1.4642 38.697.24404 4.0258.32538 6.2441.16269 2.9988.40672 8.5446.65076 9.1608.97614 11.626.24404 1.8486.40673 5.0528.24404 1.561.65076 5.8333.081345.12324.16269.98592.081345-.04108.081345-.082159.081345 24.771.081345-1.0681.32538-2.7113.081345-.24648.081345.2054.081345.57512.24404-.6162.081345.16432.16269-.65728.081346.082159.32538-1.4378.081345-.04108.24404-.73944h.081345l.081345-.12324.16269-.49296.081345-.08216.32538-1.52.16269.32864.40672-2.0951.48807-1.8897.24404-1.52.40673-2.6291.32538-2.6702.081345.12324.97614-6.9836.24404-2.1772.16269-.45188.81345-7.2711 1.4642-10.64.081345-.2054.24404-1.0681.16269-.49296.081345.08216.16269-.90376.40672-3.9026.65076-4.5188.16269-.4108.16269-1.52.081345.24648.081345-.082159.16269-1.1092.081345.082159.081345-.082159.24404-1.7254.081345.16432.40672-5.9976.081345-.12324.081345-.53404.40672-8.6678.56942-18.034.81345-29.249.32538-9.7359.48807-14.665.40672-5.7922.081345.32864.081345-.24648.16269-1.52.16269.73944.16269-.4108.16269 1.8486.16269 2.7113 3.0911 75.381.56942 10.27.73211 10.804.32538 4.0669.56942 8.4214.24404 2.2594.081345.36972.40672 4.6009.32538 2.8345.81345 6.6549.48807 2.9577.16269 1.1913.24404.57512.081345-.08216.16269.45188h.081346l.24404.78052.081345.082159.081345.32864.081345-.2054.081345.082159.24404-.32864.16269.2054.081345.082159.24404.8216.081346-.16432.16269-.57512.081345.08216.24404-.8216.081345-.16432.32538-1.4378.081345.04108.32538-1.3967.081345.12324.48807-1.3146.081345.28756.081345-.12324.081345.24648 1.2202-6.696.65076-4.3545.40673-2.0951.40672-3.2864.24404-1.027.24404-1.0681.081345-.16432.32538-2.7523.081346.04108.32538-1.8075.32538-2.6702.48807-3.081.16269-1.3967.081345-.04108.16269-.6162.081345-.16432.24404-1.4789.081345-.12324.16269.78052.24404-1.9718.16269-.90376.081345.16432.32538-2.0951.081345.24648.081345.98592.48807-3.3275.8948-19.8.48807-14.665.40672-15.857.56942-19.883.32538-12.776.24404-6.2441.32538-9.5305.48807-8.8732.40672-3.6972.081345.16432.56942 6.9014.40673 8.0106.16269 4.108.97614 25.141.32538 7.6408.24404 5.6279 1.2202 31.015.8948 17.459 1.2202 18.198.16269 1.3556.32538 3.2453.97614 6.9836.32538 1.52.081345.36972.16269 1.1913.16269.57512.24404.69836.16269.45188.24404.082159.081345.36972.081345-.12324.24404.65728.65076-1.1502.24404-1.1913.081345.04108.32538-1.4789.16269.28756.081345-.8216.081346.36972.24404-.57512.56942-.65728.16269.4108.081345-.2054.16269.28756.081345-.16432.32538-2.4237.24404-2.5059 1.0575-13.556.24404-1.8897.081345-.28756.56942-6.0387.16269-.36972.40673-2.6291.81345-6.4084.24404-1.3556.081345.32864h.081345l.32538.90376.24404-1.4378.081345.2054.16269.73944.16269-.57512.24404 2.3826.081345.24648.24404-.78052.16269.12324.081345.45188.081345-.4108.16269.8216.081345-.24648.081345-.12324.32538-2.054.40672-3.3275.16269-2.5469.97614-29.865.24404-11.05.73211-25.716.32538-16.144.65076-16.227.48807-5.5869.24404-2.1772.16269.24648.73211 6.9014.48807 8.9965 3.1725 86.843.56942 10.763.32538 6.5728 1.3829 17.377.8948 7.6408.24404 1.9308.24404 1.4789.16269.32864.65076 2.5469.16269-.04108.24404-.36972.32538-.53404.081345-.53404.081345.28756.081345-.24648.16269-.8216.16269.12324.24404-1.4789.24404-1.1092.16269-.32864.081345.04108.081345-.04108.8948-3.6972.081346.082159.081345-.12324.32538-1.8486.24404-1.0681.16269-1.0681.32538-4.2312.16269-1.3967.24404-3.2042.7321-7.4765.48807-6.3263.081346.12324.8948-8.3392.48807-2.1772.081346-.12324.24404-1.4789.081345.08216.16269-.8216.081345.24648.24404-1.6843.081345-.4108.16269.57512.24404-.57512.65076 4.6831.081345-.16432.16269.32864.081345-.24648.16269.86268.24404.28756.40673-3.2453.081345-.12324.32538-6.2852.8948-29.002.32538-11.174.48807-16.473.48807-16.514.48807-8.7089.24404-1.6021.081345-.45188.16269 1.2324.081345-.6162.081345.041079.24404.53404.16269 2.8756.65076 16.514.97614 30.317 2.1963 51.719.8948 13.351.81345 9.1197.32538 3.5329.24404 2.0951.40672 3.9847.48807 4.5599.16269 1.3146.32538 2.4237.081345.32864.081345-.16432.65076 4.6009.081345-.04108.32538.69836.16269.4108.24404.90376.081345-.2054.16269.36972.16269-.45188.16269-.08216.081345.24648.16269-.2054.16269.4108.081345-.2054.081345-.082159.081345-.4108.081345.12324.081345.24648.24404-.65728.24404-.6162.081345.24648.24404-.8216.081346.12324.24404.32864.16269-.082159.56942-4.3134.081345.12324.081345-.4108.16269.45188.97614-5.7101.32538-2.588.24404-1.52.65076-4.3955.32538-2.2183.24404-1.1502h.081345l.40673-2.9988.16269-.8216.24404-1.7664.7321-4.5599.32538-2.588.16269-.082159.081345-.86268.081345.24648.65076-3.7383.081345.12324.081345-.86268.081346.04108.081345-.12324.24404-1.8486.56942-5.0528.40672-9.6127.32538-9.7359 1.3829-47.529.56942-13.597.32538-2.4237.081345.49296.081345-.98591.081345.041079.081345-.2054.16269 2.588.081345-.49296.081345.8216.081345-.12324.081345.57512 2.6844 67.699.081345 20.54.081345-2.3826.32538 3.2453.32538 3.4918.48807 4.108.48807 6.8192.32538 3.1221 1.8709 16.185.24404 1.52.24404 2.8756 1.0575 5.2582.16269 2.6702h.081345l.16269.4108.081345-.04108.24404.53404.081345-.2054.32538 2.1361.16269-.08216.081345-.12324.16269.28756.16269-.65728.081345-.04108.48807-1.8486.48807-.8216.32538-1.3967.081345.12324.081345-.04108.16269-.69836.081345.04108.081345-.04108.081345-.24648.24404-1.561.16269.2054.16269-.90376.081346.32864.7321-2.7523.97614-5.7101.081345-.12324 1.0575-6.4495.081345.2054.32538-2.0951.40672-4.4777.081345-.24648.32538-2.5059.081345.12324.56942-4.3545.16269-1.4378.32538-2.1361.16269-.86268.40673-2.9167.081345.28756.24404-2.0129.24404-.90376.16269-1.1502.56942-8.2981.65076-14.337.32538-10.804.40672-16.966.8948-29.126.48807-10.516.081345-.53404.081345.32864.081346-.08216.081345-1.027.16269.65728.081345-.73944.16269 1.2324.40672 4.642.40672 10.229 3.4978 87.459.40672 5.9976.8948 9.6127 1.2202 12.077.65076 4.2723.081345-.16432.16269 1.027.24404 1.52.32538 1.2735.24404.8216.24404 1.9308.081345-.36972.24404.8216m.16269 5.9155.16269-4.3545.081345-.12324.16269-.94484.16269.16432.081345-.12324.16269.36972.081345.2054.16269-.12324.32538-1.4378.081345-.36972.081345.12324h.081345l.16269-.78052.081345.12324.24404-.45188.24404-1.0681h.081345l.081345-.24648.081345.16432.081345-.04108.081345-.08216.32538-1.52.73211-4.5188h.081345l.97614-5.4225.081345-.2054.7321-4.7653.32538-2.4237.56942-4.1901.24404-1.561.48807-5.2171.081345-.16432.16269-1.2324.24404-2.054.24404-1.4378.081345-.2054.40672-3.2453.16269-.041079.24404-1.3556.32538-1.9718.081345-.12324.97614-7.0246.56942-12.242.56942-16.678 1.3829-47.036.32538-7.0246.48807-7.1479.16269-1.1502.081345-.12324.24404 1.1502.40672 5.135 1.5456 42.148.16269 4.4777m.40672 12.201.081345 2.054m.16269 3.7383.65076 14.09.56942 14.83.97614 12.201 1.1388 10.599.40673 4.1901 1.3015 7.8873.081345.24648.081345 16.144.081345-.4108.32538-1.4378.081345-.12324.16269.8216.081345.2054.16269-.2054.24404.49296.081346-.12324.16269-.86268.97614-3.4507.081345.2054.24404-.8216.081345.082159.081345-.12324.24404-.98592.081345-.082159.16269-.6162.16269-.04108.16269-.53404.081345.04108.40673-1.8075.24404-2.0129.40672-2.0951.40672-.6162.32538-2.3005.81345-4.8885.40672-3.3275.16269-.94484.16269-1.027.16269-1.52.24404-1.9718.32538-2.3826.73211-6.9836.24404-1.0681.16269-.04108.24404-1.6021.24404-2.6291.081345-.45188.40673-4.3545.40672-1.3967.081345.08216.56942-5.3404.081345.32864.081345-.24648.40673-4.1901.081345-.6162.8948-21.813.40673-13.721.32538-11.995.56942-19.061.73211-20.417.24404-2.2594.081345-.65728.081345.49296.16269.04108.081345.2054.081345 1.2735.32538 7.723.65076 12.16.24404 4.2723 2.1963 56.197.081345.78052.81345 18.732.56942 7.1068 1.9523 18.938.081345.24648.65076 5.9566.081345.082159.32538 1.8897.7321 3.2042.081345.082159.24404 1.3146.081345.08216.081345.4108.081345-.16432.081345.24648.081345-.32864.16269.45188.16269-.24648.32538-.4108.081345.12324.16269-.16432.16269.45188.56942-2.0129.24404.49296h.081345l.16269-.4108.16269.04108.40673-1.1092.081345 2.7934.081345-.53404.081345-.04108.48807-3.1221.56942-2.6291.7321-5.0117.081345.04108.32538-2.5469.81345-5.2171.16269-.53404.32538-1.6432.81345-5.7101.32538-3.5739.48807-3.5329.16269-1.1502.081345.36972.16269-1.8897.081345.2054.16269-.8216.081345.24648.16269-1.3967.081345-.12324.24404-1.3146.081345.49296.56942-4.8063.81345-14.378.8948-22.799.32538-15.158.40672-14.419.73211-28.92.40672-8.257.081345-.45188.32538-6.0798.16269-.2054.24404-1.3967.16269-1.027.48807 8.0927.40673 2.6702.81345 21.279.40672 11.338.40673 10.106.56942 14.296.48807 14.337.73211 14.789.81345 15.282 1.0575 14.049.8948 9.243.40672 1.3967.32538 2.8345.081345.08216.24404 1.027.16269.45188h.081345l.16269 1.2735.16269.28756.081345.6162.081345-.08216.24404-.16432.24404-1.0681.65076-1.4378h.081345l.40672-1.7664.081345-.082159.32538-2.5059.081345-.45188.081345.08216.32538-1.1092.24404-.94484.081345-.04108.081345.24648.56942-3.4918.24404-2.1361.081345.2054.32538-2.5469.56942-7.1068.081345-1.0681.081346 37.711.081345-10.147.40672-12.036 1.1388-17.13.97614-9.6948.081345.28756.24404-2.3826.081345.32864.16269-1.3146.081345.12324.48807-2.0951.16269 1.1502.081345-.04108.081345-.53404.081345.12324.24404-.90376.16269.36972.081345-.08216.081345-.53404.081345.57512.081345-.69836.081345.53404.081345-.16432h.081345l.16269-1.2735.56942-5.135.97614-30.399.24404-13.31.48807-18.691.81345-28.14.24404-6.4906.16269-6.5317.16269-4.4366.24404-1.9718.081345.49296.16269-.90376.24404-1.52.081345.49296.24404 3.1631.16269 1.9307.40672 6.0387 1.3829 35.411.40672 13.474.24404 6.3263.73211 24.812.24404 5.0939.8948 17.623.16269 2.1361.56942 10.516 1.2202 15.2.8948 7.3122.48807 2.7113.081345-.04108.081345.90376.081345-.08216.081345.32864.081345-.082159.16269.4108.24404.57512.16269-.32864.081345.16432.16269-.082159.081345.12324.48807-2.054.16269-.69836.081345.16432.16269-.28756.081345.08216.32538-2.1772.32538-2.054.40672-2.4648.081345.12324.081345-.24648.16269-1.1092.16269.12324.24404-.73944.32538-3.081.32538-3.4507.81345-11.215.24404-3.4918.32538-4.5188.40672-4.6831.40673-5.135.16269-1.027.48807-4.2312.32538-1.8897.081345.69836.40673-3.4918.16269-1.1913.16269.69836.081345-.32864.081345.08216.081345.36972.081345-.08216.16269-.45188.16269.32864h.081345l.32538 2.7113.081345.4108.24404-1.3967.081345.24648.16269.78052.16269.082159.32538 1.1502.32538-2.3826.24404-4.7242.97614-28.756.40672-19.143.081345-1.2324.40672-11.461.97614-21.526.24404-3.615.081345.041079.16269-.53404.081345.12324.081345-.16432.16269 1.2324.24404 2.2594.081345 1.3146.32538 11.133.32538 10.106.56942 16.555.65076 20.663.16269 5.1761.65076 18.773.97614 24.319.56942 10.311.48807 6.2441 2.2777 22.347.081346.04108.32538 1.8897.24404 1.4789.40672 2.2183.16269.49296.16269.8216.24404.4108.32538 1.7254.081345-.53404.081345.041079h.081345l.081345-.12324.081345.08216.32538-1.2324.16269-.36972.65076-1.4378.16269.08216.081345-.32864.081345.45188.24404-.53404.16269-.45188.081345.16432.081346.082159.24404-1.027.081345.28756.40672-2.2594.16269.16432.081345-.2054.24404-1.3556.081345.45188.56942-3.8204 1.1388-5.7922.16269-1.0681.24404-1.8075.24404-1.8486.24404-1.6843.16269-.73944.24404-2.5469h.081345l.16269-1.1913.24404-2.4237.24404-1.2735.081345.041079.48807-3.8615.081345.2054.16269-1.1502.16269-1.9718.16269-.49296.32538-2.8345.081345.16432.32538-1.6432.081345-.12324.081345.24648.081345-.49296.081346.2054.16269-1.1913.24404-1.6843.56942-11.749.48807-14.419.081345-1.1092.56942-21.074.24404-7.189.65076-17.911.48807-9.5305.32538-3.4918.32538-1.8897.081345.8216.081346-.4108.40672 1.6432.56942 13.926.40673 10.065 1.7082 43.586 1.0575 21.813 1.3015 17.007 1.6269 14.173.16269.94484.48807 5.0939 1.5456 7.0246.081345-.082159.081345.16432.081345-.08216.081345.08216.16269-.12324.16269.28756.16269.04108.16269.4108.081345-.04108.16269-.65728.16269.4108.081345-.45188.081345.28756.16269-.08216.16269-.24648.081345.16432 1.3015-3.4096.32538-1.3146.081346-.12324.081345-.6162.081345.08216.16269.24648.24404-1.2735.081345-.041079.40672-1.8897.081345-.12324.081345.08216.24404-1.1913.16269-.57512.16269-1.0681.40672-3.0399.16269-1.1502.48807-3.8615.32538-2.8345.081345-.08216.081345-.24648.48807-4.2723.32538-2.588.32538-3.5329h.081345l.40672-3.9026.24404-.8216.56942-2.0129.081345-.90376.16269.36972.24404-2.3415.7321-11.297 2.8471-84.419.32538-4.642.081345-.04108.081345-1.1092.16269.49296.48807 5.669.56942 18.116.8948 21.772.32538 8.9143.24404 7.189 1.1388 28.057.32538 5.4225 1.6269 22.347.24404 2.4648.32538 3.2453.65076 6.5317.32538 3.2864.24404 2.0129.24404 1.7254.16269.69836.48807 2.9988.16269.04108.7321 2.9167m.16269 2.9167.16269-1.8486h.081346l.081345.12324.16269-.69836.081345.16432.081345-.04108.16269-.24648.081345.08216.16269.28756.081345-.8216.081345.12324.24404-1.027.32538-.32864.24404-1.4789h.081345l.081345-.12324.081345.12324.32538-.53404.24404-1.6021.081345-.04108.56942-4.108.24404-1.1092.16269-.082159.24404-1.2324.24404-1.1092.24404-2.4648.7321-4.7653.081345-.2054 1.0575-8.4214.16269-.73944.24404-1.7254.24404-1.1092.32538-2.7113.081345-.12324 1.4642-7.5176.081345-.2054.081345.32864.081345-.2054.24404.32864.65076-4.9707.16269-2.1361 1.0575-27.688.81345-31.508.48807-15.323.73211-18.609.16269-5.8333.16269-4.4366.24404-2.8345.24404 1.3967.081345.16432 1.6269 53.938 1.7082 43.503 2.2777 33.932.65076 5.7512.81345 7.3533.16269 1.8075.16269.4108.32538 1.8897.16269.73944.24404 1.0681.081345.04108 1.0575 3.9437.7321 1.4789.081345-.16432.081345.12324.081345-.28756.081345.24648.16269-.24648.24404.24648.16269-.78052h.081345l.40672-.90376.16269-.2054.32538-1.3556.081345-.082159.7321-4.2312.24404.32864.32538-1.8897.16269-.32864.40672-2.7113.16269-.57512.32538-1.8486.81345-4.108.40672-2.3005.32538-2.2594.56942-4.2312.16269-1.6843.24404-2.0129.40672-2.3826.081345-.16432.40673-3.5739.32538-2.3826.081345-.69836.16269.32864.16269-.6162.24404.36972.16269-.78052.8948-12.119.65076-17.952.56942-22.758 1.1388-40.464.56942-9.9824.081345-.16432.081345.08216.24404.16432.081345.16432.40673 5.0939 2.8471 77.764 1.7082 29.372 2.0336 18.609.65076 4.108.24404 1.3146.32538 1.1092.16269.90376.40673 2.588.24404 1.9718.24404.45188.081345-.36972.081345.041079.081345-.082159.40672.65728.16269-.041079.16269.16432h.081345l.081345.16432.32538-.90376.081345.041079.24404-.69836.16269-.4108.16269.24648.081345-.08216.081345.28756.081345-.16432.081346.041079.081345-.082159.56942-2.054.56942-2.6291.16269-.65728.32538 12.242.32538 6.3263.081345.4108.081345-.082159.081345-.04108.081345-.2054.081345.28756.32538-1.8897.081346.2054.40672-1.4378.40672 2.6702.24404-4.5188.40673-6.0798.32538-4.0258.081345-.36972 1.0575-13.022.97614-9.6538.40673-2.054.16269-2.8756h.081345l.8948-13.022.48807-13.104 1.7896-68.685.32538-8.3392.48807-9.3662.56942-6.6549.081345.04108.081345-.24648.081345.12324.32538 4.0669.16269 1.7254.48807 9.243.32538 9.4073.7321 17.911.40673 12.365 1.2202 32.782.32538 7.0246.56942 10.722.73211 10.188.7321 8.4624.081345.45188.40673 4.9707 1.2202 8.4624.081345.12324.24404.65728.081345-.12324.16269.53404.081345-.16432.16269-.2054.081345.2054.081345-.08216.16269-.8216.16269-.24648.16269.36972.16269-.65728.24404-.49296h.081345l.081345.45188.081345-.082159.81345-4.4777.32538-1.1092.24404-1.0681.16269.28756.32538-1.3556.081345.28756.081345-.2054.081345.24648.40673-2.2183.16269-.4108 1.3015-13.721.081345-.24648 1.2202-10.722.16269-1.6432.16269-.86268.8948-6.4495h.16269l.081345.6162.081345-.36972.081345.16432.081345-.8216.081345.12324.081345-.45188.081345.041079.081345-.2054.081345.16432.081345-.24648.24404.65728.16269-.28756.081345.082159.16269-.45188.081345.6162.081345-.24648.16269.24648.16269-.65728.16269.04108h.081345l.24404-1.3146.081345.2054.081345-.32864.32538-4.5599.97614-28.756.32538-19.39.65076-21.608.40672-17.295.40672-12.981.65076-8.4624.16269.45188.081345-.082159.081345.94484.081345-.04108.081345.36972.16269 1.52.24404 1.7254.65076 10.475.40672 10.927.65076 15.734.65076 20.252v0" clip-path="url(#b)" fill="none" stroke="#28f" stroke-linecap="square" stroke-width="1.5"/>
   </g>
   <g id="de">
    <path d="m52 259.78v-232.9" fill="none" stroke="#000" stroke-linecap="square" stroke-width=".8"/>
   </g>
   <g id="df">
    <path d="m853.2 259.78v-232.9" fill="none" stroke="#000" stroke-linecap="square" stroke-width=".8"/>
   </g>
   <g id="dg">
    <path d="m52 259.78h801.2" fill="none" stroke="#000" stroke-linecap="square" stroke-width=".8"/>
   </g>
   <g id="dh">
    <path d="m52 26.88h801.2" fill="none" stroke="#000" stroke-linecap="square" stroke-width=".8"/>
   </g>
   <g id="di">
    <!-- 同時接続数の推移 -->
    <g transform="translate(404.6 20.88) scale(.12 -.12)">
     <defs>
      <path id="x" transform="scale(.015625)" d="m1587 3936h3232v-518h-3232v518zm320-1114h557v-2534h-557v2534zm301 0h2291v-2086h-2291v512h1734v1069h-1734v505zm-1683 2260h5113v-570h-4524v-5056h-589v5626zm4768 0h595v-4896q0-250-67-397t-227-218q-160-77-426-96t-675-19q-13 83-45 192t-77 218q-45 108-89 185 281-13 527-13 247 0 330 0 83 7 118 42 36 35 36 112v4890z"/>
      <path id="v" transform="scale(.015625)" d="m2714 4672h3238v-525h-3238v525zm-244-1235h3712v-538h-3712v538zm20-1184h3635v-531h-3635v531zm1523 3155h595v-2310h-595v2310zm832-2451h589v-2823q0-230-61-364-61-135-227-199-167-70-423-86t-633-16q-20 121-78 285-57 163-121 284 275-6 509-9t310-3q77 6 106 28 29 23 29 93v2810zm-2023-1677 487 282q153-160 313-352t294-381q135-189 206-343l-519-313q-64 153-189 348-124 196-278 394-154 199-314 365zm-2086 3718h1619v-4281h-1619v544h1056v3187h-1056v550zm32-1843h1293v-537h-1293v537zm-320 1843h563v-4832h-563v4832z"/>
      <path id="w" transform="scale(.015625)" d="m3866 5408h614v-870h-614v870zm-1479-653h3597v-518h-3597v518zm-230-1485h4e3v-518h-4e3v518zm825 922 519 102q64-160 121-342 58-182 96-352 39-170 45-304l-544-128q-6 134-42 313-35 180-83 365-48 186-112 346zm1856 109 589-71q-96-275-202-557-105-281-195-486l-518 77q58 147 122 329 64 183 118 372t86 336zm-2643-2106h3943v-518h-3943v518zm1408 685 602-115q-167-371-362-784t-390-797-362-685l-525 179q160 288 346 666t368 784 323 752zm-659-2157 358 403q352-102 733-240 381-137 752-304 371-166 697-336 327-169 558-329l-384-461q-218 160-532 336-313 176-685 345-371 170-755 323-384 154-742 263zm1894 1114 583-71q-122-550-353-944-230-393-604-662t-922-435q-547-167-1296-269-25 128-93 269-67 141-137 230 678 64 1168 192t819 349q330 221 531 550 202 330 304 791zm-4684 217q396 90 953 240 557 151 1120 311l77-544q-525-154-1053-311-528-156-963-284l-134 588zm121 2093h1965v-563h-1965v563zm819 1248h576v-5229q0-236-51-374t-192-208q-141-77-355-99-214-23-541-16-13 115-64 288t-109 294q205-6 381-6t234 0q64 0 92 28 29 29 29 93v5229z"/>
      <path id="u" transform="scale(.015625)" d="m4058 5408h595v-1798h-595v1798zm-1415-563h3443v-499h-3443v499zm231-992h3008v-499h-3008v499zm-224-877h3475v-1203h-531v729h-2432v-729h-512v1203zm1964-877h551v-1881q0-122 22-157 23-35 106-35 25 0 92 0 68 0 135 0t99 0q51 0 83 54t45 224 19 515q90-70 234-131t259-93q-19-429-83-662-64-234-183-326-118-93-316-93-39 0-103 0t-134 0-138 0q-67 0-99 0-237 0-365 64t-176 218q-48 153-48 422v1881zm-1164-6h550v-455q0-243-48-528-48-284-186-579-137-294-409-572-272-279-727-503-70 90-192 208-121 118-230 195 416 205 665 438 250 234 371 474 122 240 164 467 42 228 42 413v442zm-2240 3309 524-192q-121-244-259-503-137-259-275-496t-259-416l-410 173q122 186 246 438 125 253 240 515 116 263 193 481zm716-743 500-230q-224-359-496-756-272-396-548-764-275-368-518-650l-358 205q179 211 377 483 199 272 387 569 189 298 358 592 170 295 298 551zm-1721-665 307 403q166-154 339-340 173-185 320-364t224-327l-326-460q-77 160-218 348-141 189-314 384-172 196-332 356zm1485-832 435 179q128-211 249-458 122-246 215-474 93-227 137-412l-473-211q-32 185-119 422-86 237-201 486-115 250-243 468zm-1530-583q422 26 998 54 576 29 1184 68l7-499q-570-45-1127-84-556-38-992-70l-70 531zm1702-992 436 135q121-276 214-596t118-556l-454-148q-26 237-112 563-86 327-202 602zm-1363 109 499-83q-57-455-163-897-105-441-253-748-51 32-134 73-83 42-170 83-86 42-144 62 148 294 234 697t131 813zm691 627h525v-2861h-525v2861z"/>
      <path id="p" transform="scale(.015625)" d="m224 2022h3187v-499h-3187v499zm51 2247h3111v-487h-3111v487zm1127-1735 563-121q-154-320-333-672t-352-679q-173-326-326-582l-532 173q148 243 324 566t345 669q170 346 311 646zm934-832 563-64q-89-480-262-838t-461-614-701-432-976-298q-25 128-99 269t-157 237q659 102 1085 303 426 202 666 554t342 883zm422 3597 519-211q-147-218-298-436-150-217-278-377l-403 186q121 173 252 413 132 240 208 425zm-1203 109h563v-2957h-563v2957zm-1075-320 448 186q134-192 246-420 112-227 157-393l-467-211q-38 172-147 406t-237 432zm1094-1050 397-236q-160-263-400-529-240-265-519-489-278-224-553-378-51 103-141 237-89 135-179 218 269 109 534 294 266 186 493 416 228 231 368 467zm487-204q83-45 246-145 163-99 352-211t346-211 221-150l-327-423q-83 77-230 198-147 122-317 253-170 132-327 250-156 119-259 189l295 250zm1798 396h2311v-556h-2311v556zm115 1178 615-90q-103-640-263-1235t-384-1101q-224-505-512-889-44 57-134 134t-186 157-166 125q275 339 473 796 199 458 340 995 141 538 217 1108zm1223-1510 614-58q-147-1101-445-1940-297-838-813-1443-515-604-1321-1014-26 71-90 177-64 105-134 208-70 102-128 159 742 346 1212 880 471 535 730 1290 260 755 375 1741zm-1005-135q134-851 387-1597 253-745 659-1305 407-560 1002-874-70-57-154-150-83-93-154-189-70-96-121-179-633 371-1056 988-422 618-688 1434-265 816-425 1783l550 89zm-3309-3065 327 416q377-148 754-330 378-182 701-378 324-195 548-368l-416-435q-211 179-519 378-307 198-666 383-358 186-729 334z"/>
      <path id="t" transform="scale(.015625)" d="m3686 4378q-64-493-163-1041-99-547-265-1084-192-653-432-1104t-522-688-595-237q-320 0-596 221-275 221-448 621-172 400-172 931 0 537 220 1017 221 480 611 851 391 372 909 583 519 211 1121 211 576 0 1040-186 464-185 793-515 330-329 502-771 173-441 173-941 0-672-278-1194-278-521-816-851-538-329-1318-444l-378 601q166 20 307 42t263 48q307 70 585 217 279 148 496 375 218 227 342 534 125 308 125 692t-122 713q-121 330-358 573-236 243-582 380-346 138-781 138-525 0-935-186-409-185-694-489-284-304-432-656-147-352-147-678 0-365 89-605 90-240 224-355 135-115 276-115t288 144 297 457q151 314 298 800 147 461 246 982 100 522 145 1021l684-12z"/>
      <path id="q" transform="scale(.015625)" d="m2995 2925h2893v-519h-2893v519zm0-1280h2893v-519h-2893v519zm-64-1299h3232v-557h-3232v557zm1312 3577h563v-3763h-563v3763zm429 1466 634-141q-154-390-340-794-185-403-339-684l-512 140q103 199 208 458 106 259 195 528 90 269 154 493zm-1472 25 582-147q-153-518-371-1018-217-499-483-931t-573-758q-38 64-109 160-70 96-147 198-77 103-141 160 416 416 733 1034t509 1302zm128-1203h2720v-537h-2720v-4205h-582v4422l313 320h269zm-3174-2157q396 90 953 240 557 151 1120 311l77-544q-525-154-1053-311-528-156-963-284l-134 588zm121 2093h1965v-563h-1965v563zm819 1248h576v-5229q0-236-51-374t-192-208q-141-77-355-99-214-23-541-16-13 115-64 288t-109 294q205-6 381-6t234 0q64 0 92 28 29 29 29 93v5229z"/>
      <path id="o" transform="scale(.015625)" d="m4051 5402 595-109q-281-493-729-941t-1107-806q-39 64-106 144t-141 153q-73 74-137 119 608 288 1011 678t614 762zm-77-557h1511v-493h-1863l352 493zm1293 0h109l109 25 384-179q-192-505-496-905t-695-701q-390-301-845-519-454-217-947-358-44 109-137 253t-176 227q448 109 867 294 419 186 777 445 359 259 631 592t419 730v96zm-1990-954 377 307q167-96 336-218 170-121 320-249 151-128 247-237l-397-332q-90 108-237 236t-317 259q-169 132-329 234zm1107-934 595-109q-307-538-803-1031-496-492-1232-876-38 64-102 144t-138 156q-74 77-138 116 455 217 807 483t604 554q253 288 407 563zm-90-589h1460v-506h-1818l358 506zm1268 0h121l109 26 384-167q-192-614-531-1075t-787-794q-448-332-983-553-534-221-1129-355-45 115-132 269-86 153-176 249 551 96 1043 285 493 189 903 473 410 285 714 669t464 883v90zm-2132-1056 410 339q186-102 384-237 198-134 371-275t282-269l-435-371q-103 128-270 272-166 144-361 288t-381 253zm-2150 3533h589v-5376h-589v5376zm-992-1242h2336v-569h-2336v569zm1024-224 365-160q-96-339-231-707-134-368-291-727-157-358-336-672-179-313-365-537-44 128-134 291t-160 272q173 192 339 457 167 266 323 570 157 304 282 618t208 595zm941 1946 416-467q-314-122-695-221-380-99-784-173-403-74-780-131-20 102-71 236-51 135-102 231 358 58 732 138 375 80 711 179t573 208zm-397-2579q58-45 179-170 122-125 266-266 144-140 259-265t160-183l-352-473q-58 102-157 255-99 154-218 317-118 164-227 311-108 147-185 237l275 237z"/>
     </defs>
     <use xlink:href="#x"/>
     <use transform="translate(100)" xlink:href="#v"/>
     <use transform="translate(200)" xlink:href="#w"/>
     <use transform="translate(300)" xlink:href="#u"/>
     <use transform="translate(400)" xlink:href="#p"/>
     <use transform="translate(500)" xlink:href="#t"/>
     <use transform="translate(600)" xlink:href="#q"/>
     <use transform="translate(700)" xlink:href="#o"/>
    </g>
   </g>
  </g>
  <g id="dj">
   <g id="dk">
    <path d="m52 523.06h801.2v-232.9h-801.2z" fill="#fff"/>
   </g>
   <g id="dl">
    <path d="m178.71 523.06h.16269v-232.9h-.16269z" clip-path="url(#d)" fill="#ddd" stroke="#ddd"/>
   </g>
   <g id="dm">
    <path d="m181.07 523.06h.16269v-232.9h-.16269z" clip-path="url(#d)" fill="#ddd" stroke="#ddd"/>
   </g>
   <g id="dn">
    <path d="m237.12 523.06h.16269v-232.9h-.16269z" clip-path="url(#d)" fill="#ddd" stroke="#ddd"/>
   </g>
   <g id="do">
    <path d="m401.11 523.06h.16269v-232.9h-.16269z" clip-path="url(#d)" fill="#ddd" stroke="#ddd"/>
   </g>
   <g id="dp">
    <path d="m565.1 523.06h.16269v-232.9h-.16269z" clip-path="url(#d)" fill="#ddd" stroke="#ddd"/>
   </g>
   <g id="dq">
    <path d="m581.53 523.06h.40672v-232.9h-.40672z" clip-path="url(#d)" fill="#ddd" stroke="#ddd"/>
   </g>
   <g id="dr">
    <path d="m582.02 523.06h.16269v-232.9h-.16269z" clip-path="url(#d)" fill="#ddd" stroke="#ddd"/>
   </g>
   <g id="ds">
    <path d="m729.09 523.06h.16269v-232.9h-.16269z" clip-path="url(#d)" fill="#ddd" stroke="#ddd"/>
   </g>
   <g id="dt">
    <g id="du">
     <g id="dv">
      <path d="m87.849 523.06v-232.9" clip-path="url(#d)" fill="none" stroke="#b0b0b0" stroke-linecap="square" stroke-opacity=".3" stroke-width=".8"/>
     </g>
     <g id="dw">
      <use x="87.848766" y="523.055464" stroke="#000000" stroke-width=".8" xlink:href="#e"/>
     </g>
     <g id="dx">
      <!-- 2026-08-13 -->
      <g transform="translate(41.059 563.33) rotate(-30) scale(.1 -.1)">
       <defs>
        <path id="f" transform="scale(.015625)" d="m301 1536v544h1689v-544h-1689z"/>
       </defs>
       <use xlink:href="#c"/>
       <use transform="translate(57)" xlink:href="#a"/>
       <use transform="translate(114)" xlink:href="#c"/>
       <use transform="translate(171)" xlink:href="#h"/>
       <use transform="translate(228)" xlink:href="#f"/>
       <use transform="translate(263.7)" xlink:href="#a"/>
       <use transform="translate(320.7)" xlink:href="#j"/>
       <use transform="translate(377.7)" xlink:href="#f"/>
       <use transform="translate(413.4)" xlink:href="#i"/>
       <use transform="translate(470.4)" xlink:href="#n"/>
      </g>
     </g>
    </g>
    <g id="dy">
     <g id="dz">
      <path d="m181.56 523.06v-232.9" clip-path="url(#d)" fill="none" stroke="#b0b0b0" stroke-linecap="square" stroke-opacity=".3" stroke-width=".8"/>
     </g>
     <g id="ea">
      <use x="181.558272" y="523.055464" stroke="#000000" stroke-width=".8" xlink:href="#e"/>
     </g>
     <g id="eb">
      <!-- 2026-08-17 -->
      <g transform="translate(134.77 563.33) rotate(-30) scale(.1 -.1)">
       <defs>
        <path id="r" transform="scale(.015625)" d="m1235 0q32 646 109 1187t224 1024 384 941 576 938h-2208v627h3027v-455q-409-512-665-989-256-476-397-969t-205-1053-90-1251h-755z"/>
       </defs>
       <use xlink:href="#c"/>
       <use transform="translate(57)" xlink:href="#a"/>
       <use transform="translate(114)" xlink:href="#c"/>
       <use transform="translate(171)" xlink:href="#h"/>
       <use transform="translate(228)" xlink:href="#f"/>
       <use transform="translate(263.7)" xlink:href="#a"/>
       <use transform="translate(320.7)" xlink:href="#j"/>
       <use transform="translate(377.7)" xlink:href="#f"/>
       <use transform="translate(413.4)" xlink:href="#i"/>
       <use transform="translate(470.4)" xlink:href="#r"/>
      </g>
     </g>
    </g>
    <g id="ec">
     <g id="ed">
      <path d="m275.27 523.06v-232.9" clip-path="url(#d)" fill="none" stroke="#b0b0b0" stroke-linecap="square" stroke-opacity=".3" stroke-width=".8"/>
     </g>
     <g id="ee">
      <use x="275.267777" y="523.055464" stroke="#000000" stroke-width=".8" xlink:href="#e"/>
     </g>
     <g id="ef">
      <!-- 2026-08-21 -->
      <g transform="translate(228.48 563.33) rotate(-30) scale(.1 -.1)">
       <use xlink:href="#c"/>
       <use transform="translate(57)" xlink:href="#a"/>
       <use transform="translate(114)" xlink:href="#c"/>
       <use transform="translate(171)" xlink:href="#h"/>
       <use transform="translate(228)" xlink:href="#f"/>
       <use transform="translate(263.7)" xlink:href="#a"/>
       <use transform="translate(320.7)" xlink:href="#j"/>
       <use transform="translate(377.7)" xlink:href="#f"/>
       <use transform="translate(413.4)" xlink:href="#c"/>
       <use transform="translate(470.4)" xlink:href="#i"/>
      </g>
     </g>
    </g>
    <g id="eg">
     <g id="eh">
      <path d="m368.98 523.06v-232.9" clip-path="url(#d)" fill="none" stroke="#b0b0b0" stroke-linecap="square" stroke-opacity=".3" stroke-width=".8"/>
     </g>
     <g id="ei">
      <use x="368.977282" y="523.055464" stroke="#000000" stroke-width=".8" xlink:href="#e"/>
     </g>
     <g id="ej">
      <!-- 2026-08-25 -->
      <g transform="translate(322.19 563.33) rotate(-30) scale(.1 -.1)">
       <use xlink:href="#c"/>
       <use transform="translate(57)" xlink:href="#a"/>
       <use transform="translate(114)" xlink:href="#c"/>
       <use transform="translate(171)" xlink:href="#h"/>
       <use transform="translate(228)" xlink:href="#f"/>
       <use transform="translate(263.7)" xlink:href="#a"/>
       <use transform="translate(320.7)" xlink:href="#j"/>
       <use transform="translate(377.7)" xlink:href="#f"/>
       <use transform="translate(413.4)" xlink:href="#c"/>
       <use transform="translate(470.4)" xlink:href="#m"/>
      </g>
     </g>
    </g>
    <g id="ek">
     <g id="el">
      <path d="m462.69 523.06v-232.9" clip-path="url(#d)" fill="none" stroke="#b0b0b0" stroke-linecap="square" stroke-opacity=".3" stroke-width=".8"/>
     </g>
     <g id="em">
      <use x="462.686787" y="523.055464" stroke="#000000" stroke-width=".8" xlink:href="#e"/>
     </g>
     <g id="en">
      <!-- 2026-08-29 -->
      <g transform="translate(415.9 563.33) rotate(-30) scale(.1 -.1)">
       <defs>
        <path id="k" transform="scale(.015625)" d="m1562-90q-410 0-708 150-297 151-502 356l403 461q141-160 346-256t422-96q224 0 425 102 202 103 352 333 151 230 237 614 87 384 87 941 0 589-115 970t-323 563-496 182q-205 0-372-118-166-118-262-336t-96-525q0-301 86-512 87-211 259-323 173-112 417-112 224 0 460 141 237 141 448 461l32-544q-134-180-313-314t-371-208-384-74q-391 0-689 166-297 167-467 496-169 330-169 823 0 467 195 816t515 541 698 192q339 0 636-138 298-137 519-419 221-281 349-710t128-1018q0-691-141-1187t-391-807q-249-310-563-461-313-150-652-150z"/>
       </defs>
       <use xlink:href="#c"/>
       <use transform="translate(57)" xlink:href="#a"/>
       <use transform="translate(114)" xlink:href="#c"/>
       <use transform="translate(171)" xlink:href="#h"/>
       <use transform="translate(228)" xlink:href="#f"/>
       <use transform="translate(263.7)" xlink:href="#a"/>
       <use transform="translate(320.7)" xlink:href="#j"/>
       <use transform="translate(377.7)" xlink:href="#f"/>
       <use transform="translate(413.4)" xlink:href="#c"/>
       <use transform="translate(470.4)" xlink:href="#k"/>
      </g>
     </g>
    </g>
    <g id="eo">
     <g id="ep">
      <path d="m532.97 523.06v-232.9" clip-path="url(#d)" fill="none" stroke="#b0b0b0" stroke-linecap="square" stroke-opacity=".3" stroke-width=".8"/>
     </g>
     <g id="eq">
      <use x="532.968916" y="523.055464" stroke="#000000" stroke-width=".8" xlink:href="#e"/>
     </g>
     <g id="er">
      <!-- 2026-09-01 -->
      <g transform="translate(486.18 563.33) rotate(-30) scale(.1 -.1)">
       <use xlink:href="#c"/>
       <use transform="translate(57)" xlink:href="#a"/>
       <use transform="translate(114)" xlink:href="#c"/>
       <use transform="translate(171)" xlink:href="#h"/>
       <use transform="translate(228)" xlink:href="#f"/>
       <use transform="translate(263.7)" xlink:href="#a"/>
       <use transform="translate(320.7)" xlink:href="#k"/>
       <use transform="translate(377.7)" xlink:href="#f"/>
       <use transform="translate(413.4)" xlink:href="#a"/>
       <use transform="translate(470.4)" xlink:href="#i"/>
      </g>
     </g>
    </g>
    <g id="es">
     <g id="et">
      <path d="m626.68 523.06v-232.9" clip-path="url(#d)" fill="none" stroke="#b0b0b0" stroke-linecap="square" stroke-opacity=".3" stroke-width=".8"/>
     </g>
     <g id="eu">
      <use x="626.678421" y="523.055464" stroke="#000000" stroke-width=".8" xlink:href="#e"/>
     </g>
     <g id="ev">
      <!-- 2026-09-05 -->
      <g transform="translate(579.89 563.33) rotate(-30) scale(.1 -.1)">
       <use xlink:href="#c"/>
       <use transform="translate(57)" xlink:href="#a"/>
       <use transform="translate(114)" xlink:href="#c"/>
       <use transform="translate(171)" xlink:href="#h"/>
       <use transform="translate(228)" xlink:href="#f"/>
       <use transform="translate(263.7)" xlink:href="#a"/>
       <use transform="translate(320.7)" xlink:href="#k"/>
       <use transform="translate(377.7)" xlink:href="#f"/>
       <use transform="translate(413.4)" xlink:href="#a"/>
       <use transform="translate(470.4)" xlink:href="#m"/>
      </g>
     </g>
    </g>
    <g id="ew">
     <g id="ex">
      <path d="m720.39 523.06v-232.9" clip-path="url(#d)" fill="none" stroke="#b0b0b0" stroke-linecap="square" stroke-opacity=".3" stroke-width=".8"/>
     </g>
     <g id="ey">
      <use x="720.387926" y="523.055464" stroke="#000000" stroke-width=".8" xlink:href="#e"/>
     </g>
     <g id="ez">
      <!-- 2026-09-09 -->
      <g transform="translate(673.6 563.33) rotate(-30) scale(.1 -.1)">
       <use xlink:href="#c"/>
       <use transform="translate(57)" xlink:href="#a"/>
       <use transform="translate(114)" xlink:href="#c"/>
       <use transform="translate(171)" xlink:href="#h"/>
       <use transform="translate(228)" xlink:href="#f"/>
       <use transform="translate(263.7)" xlink:href="#a"/>
       <use transform="translate(320.7)" xlink:href="#k"/>
       <use transform="translate(377.7)" xlink:href="#f"/>
       <use transform="translate(413.4)" xlink:href="#a"/>
       <use transform="translate(470.4)" xlink:href="#k"/>
      </g>
     </g>
    </g>
    <g id="fa">
     <g id="fb">
      <path d="m814.1 523.06v-232.9" clip-path="url(#d)" fill="none" stroke="#b0b0b0" stroke-linecap="square" stroke-opacity=".3" stroke-width=".8"/>
     </g>
     <g id="fc">
      <use x="814.097431" y="523.055464" stroke="#000000" stroke-width=".8" xlink:href="#e"/>
     </g>
     <g id="fd">
      <!-- 2026-09-13 -->
      <g transform="translate(767.31 563.33) rotate(-30) scale(.1 -.1)">
       <use xlink:href="#c"/>
       <use transform="translate(57)" xlink:href="#a"/>
       <use transform="translate(114)" xlink:href="#c"/>
       <use transform="translate(171)" xlink:href="#h"/>
       <use transform="translate(228)" xlink:href="#f"/>
       <use transform="translate(263.7)" xlink:href="#a"/>
       <use transform="translate(320.7)" xlink:href="#k"/>
       <use transform="translate(377.7)" xlink:href="#f"/>
       <use transform="translate(413.4)" xlink:href="#i"/>
       <use transform="translate(470.4)" xlink:href="#n"/>
      </g>
     </g>
    </g>
   </g>
   <g id="fe">
    <g id="ff">
     <g id="fg">
      <path d="m52 504.31h801.2" clip-path="url(#d)" fill="none" stroke="#b0b0b0" stroke-linecap="square" stroke-opacity=".3" stroke-width=".8"/>
     </g>
     <g id="fh">
      <use x="52" y="504.313092" stroke="#000000" stroke-width=".8" xlink:href="#g"/>
     </g>
     <g id="fi">
      <!-- 144000 -->
      <g transform="translate(10.8 508.3) scale(.1 -.1)">
       <use xlink:href="#i"/>
       <use transform="translate(57)" xlink:href="#l"/>
       <use transform="translate(114)" xlink:href="#l"/>
       <use transform="translate(171)" xlink:href="#a"/>
       <use transform="translate(228)" xlink:href="#a"/>
       <use transform="translate(285)" xlink:href="#a"/>
      </g>
     </g>
    </g>
    <g id="fj">
     <g id="fk">
      <path d="m52 473.27h801.2" clip-path="url(#d)" fill="none" stroke="#b0b0b0" stroke-linecap="square" stroke-opacity=".3" stroke-width=".8"/>
     </g>
     <g id="fl">
      <use x="52" y="473.271753" stroke="#000000" stroke-width=".8" xlink:href="#g"/>
     </g>
     <g id="fm">
      <!-- 152000 -->
      <g transform="translate(10.8 477.26) scale(.1 -.1)">
       <use xlink:href="#i"/>
       <use transform="translate(57)" xlink:href="#m"/>
       <use transform="translate(114)" xlink:href="#c"/>
       <use transform="translate(171)" xlink:href="#a"/>
       <use transform="translate(228)" xlink:href="#a"/>
       <use transform="translate(285)" xlink:href="#a"/>
      </g>
     </g>
    </g>
    <g id="fn">
     <g id="fo">
      <path d="m52 442.23h801.2" clip-path="url(#d)" fill="none" stroke="#b0b0b0" stroke-linecap="square" stroke-opacity=".3" stroke-width=".8"/>
     </g>
     <g id="fp">
      <use x="52" y="442.230414" stroke="#000000" stroke-width=".8" xlink:href="#g"/>
     </g>
     <g id="fq">
      <!-- 160000 -->
      <g transform="translate(10.8 446.22) scale(.1 -.1)">
       <use xlink:href="#i"/>
       <use transform="translate(57)" xlink:href="#h"/>
       <use transform="translate(114)" xlink:href="#a"/>
       <use transform="translate(171)" xlink:href="#a"/>
       <use transform="translate(228)" xlink:href="#a"/>
       <use transform="translate(285)" xlink:href="#a"/>
      </g>
     </g>
    </g>
    <g id="fr">
     <g id="fs">
      <path d="m52 411.19h801.2" clip-path="url(#d)" fill="none" stroke="#b0b0b0" stroke-linecap="square" stroke-opacity=".3" stroke-width=".8"/>
     </g>
     <g id="ft">
      <use x="52" y="411.189076" stroke="#000000" stroke-width=".8" xlink:href="#g"/>
     </g>
     <g id="fu">
      <!-- 168000 -->
      <g transform="translate(10.8 415.17) scale(.1 -.1)">
       <use xlink:href="#i"/>
       <use transform="translate(57)" xlink:href="#h"/>
       <use transform="translate(114)" xlink:href="#j"/>
       <use transform="translate(171)" xlink:href="#a"/>
       <use transform="translate(228)" xlink:href="#a"/>
       <use transform="translate(285)" xlink:href="#a"/>
      </g>
     </g>
    </g>
    <g id="fv">
     <g id="fw">
      <path d="m52 380.15h801.2" clip-path="url(#d)" fill="none" stroke="#b0b0b0" stroke-linecap="square" stroke-opacity=".3" stroke-width=".8"/>
     </g>
     <g id="fx">
      <use x="52" y="380.147737" stroke="#000000" stroke-width=".8" xlink:href="#g"/>
     </g>
     <g id="fy">
      <!-- 176000 -->
      <g transform="translate(10.8 384.13) scale(.1 -.1)">
       <use xlink:href="#i"/>
       <use transform="translate(57)" xlink:href="#r"/>
       <use transform="translate(114)" xlink:href="#h"/>
       <use transform="translate(171)" xlink:href="#a"/>
       <use transform="translate(228)" xlink:href="#a"/>
       <use transform="translate(285)" xlink:href="#a"/>
      </g>
     </g>
    </g>
    <g id="fz">
     <g id="ga">
      <path d="m52 349.11h801.2" clip-path="url(#d)" fill="none" stroke="#b0b0b0" stroke-linecap="square" stroke-opacity=".3" stroke-width=".8"/>
     </g>
     <g id="gb">
      <use x="52" y="349.106398" stroke="#000000" stroke-width=".8" xlink:href="#g"/>
     </g>
     <g id="gc">
      <!-- 184000 -->
      <g transform="translate(10.8 353.09) scale(.1 -.1)">
       <use xlink:href="#i"/>
       <use transform="translate(57)" xlink:href="#j"/>
       <use transform="translate(114)" xlink:href="#l"/>
       <use transform="translate(171)" xlink:href="#a"/>
       <use transform="translate(228)" xlink:href="#a"/>
       <use transform="translate(285)" xlink:href="#a"/>
      </g>
     </g>
    </g>
    <g id="gd">
     <g id="ge">
      <path d="m52 318.07h801.2" clip-path="url(#d)" fill="none" stroke="#b0b0b0" stroke-linecap="square" stroke-opacity=".3" stroke-width=".8"/>
     </g>
     <g id="gf">
      <use x="52" y="318.065059" stroke="#000000" stroke-width=".8" xlink:href="#g"/>
     </g>
     <g id="gg">
      <!-- 192000 -->
      <g transform="translate(10.8 322.05) scale(.1 -.1)">
       <use xlink:href="#i"/>
       <use transform="translate(57)" xlink:href="#k"/>
       <use transform="translate(114)" xlink:href="#c"/>
       <use transform="translate(171)" xlink:href="#a"/>
       <use transform="translate(228)" xlink:href="#a"/>
       <use transform="translate(285)" xlink:href="#a"/>
      </g>
     </g>
    </g>
   </g>
   <g id="gh">
    <path d="m88.418 332.81 7.5651-.25221 1.9523-.01552 4.0673-.10476 2.5217-.13193.97614-.050442 1.1388-.10864 1.7082-.10864.32538-.054322 1.7896-.27549 1.3015-.13581 7.7278-.25997 5.0434-.10476 1.7082-.058202 3.9046-.10088 1.3829-.10088.81345-.069843 6.9957-.56262 1.4642-.038802 2.5217-.011641 3.2538-.10864 8.7039-.51994 4.8807-.59754 1.3829-.042682 3.3351-.050442 6.3449-.10476 2.4404-.12804 3.3351-.10864 1.7082-.12028m.16269 183.99.16269-184.03 2.0336-.27937m.16269-.019401 1.3015-.13969.97614-.058203 4.0673-.085363 7.4024-.10476.81345-.01164 7.4837-.46174 2.0336-.27549.73211-.019401.65076-.050442 3.5792-.062083 10.738-.10476.8948-.027162 2.359-.10864 6.9957-.55874 5.8568-.058203m.16269-.01164 3.0098-.034922 4.3113-.10864 6.4263-.41518.8948-.10864 1.9523-.10864 4.3113-.097004 6.5076-.10476 1.4642-.046562h.73211l1.3829-.031042 1.7896-.023281 1.3829-.093124 2.0336-.17073.40673-.10476 3.0911-.33757 2.9284-.031042 7.4024-.10476 1.6269-.050442.81345-.023281 2.0336-.089244h.16269l.081345 184.58.16269-184.6 4.2299-.28713.40673-.062083 1.8709-.19013.48807-.089244 5.2874-.14357 6.9957-.10476 2.9284-.17849 1.2202-.050442 1.9523-.093124.8948-.10088 1.7896-.27161 1.3829-.21729 2.359-.32205.32538-.034922 1.0575-.054322 3.1725-.042682 2.0336-.01164 4.8807-.10088 1.2202-.065962 2.9284-.17461 2.1963-.10088.56942-.058203 4.3113-.5083 2.115-.10088 1.7896-.019401 2.6844-.019401 5.6128-.10088.81345-.019401 1.3015-.038802 3.0098-.17849 2.6844-.23669 2.5217-.36862.73211-.034922.7321-.038802 10.005-.10864 6.9957-.22505 1.1388-.054322 1.0575-.14357.73211-.10476.7321-.097004 2.359-.33758 4.3113-.10864 2.9284-.031042.16269-.00388m.16269 0 2.115-.00776 3.9859-.081484 3.5792-.10864 8.0532-.65963 9.436-.10476.97614-.073724 7.6464-.46562 2.0336-.27549 2.2777-.11252 11.47-.10864 1.4642-.10476 7.4837-.46562.97614-.073723 1.7896-.15909h.73211l4.718-.1164 3.9046-.10476 1.7082-.062083 1.3829-.042682 2.5217-.097004.8948-.058203 6.3449-.69455.40672-.058203 2.359-.1164 5.2061-.10476 1.7082-.054322 11.714-.66351.97614-.12805 2.9284-.17073 1.9523-.011641 2.4404-.015521 1.1388.003881 3.8232-.073724 3.7419-.10864 5.1247-.34922 1.3829-.21729 1.3829-.093124.56942-.023281 6.2636-.10088.56942-.00776 1.7896-.023281 6.2636-.10864 9.1106-.53158.56942-.038802 1.7082-.019401.81345-.01552 4.3926-.007761m.16269 0 4.474-.10864 3.8232-.077604 1.3015-.042681 3.1725-.25609 1.6269-.19789 1.8709-.13581m.40672-.019401.081345-.00776m.16269-.00388 10.331-.097004.65076-.015521 4.6367-.10864 3.5792-.27937 1.3015-.14745 4.1486-.19401 1.8709-.019401 7.4024-.10864 8.3785-.50442 3.0098-.32593 4.962-.12804 8.0532-.10864.81345-.042682.8948-.031041.81345-.031042 4.0673-.10476.73211-.097004 1.4642-.24445.81345-.089244 1.1388-.10476.8948-.062083.81345-.023281.73211-.038801 1.4642-.034922 1.5456-.038802 5.9382-.097004.65076-.046562 2.7657-.093124.73211-.073723 5.0434-.33758 1.0575-.14745 4.474-.31817 9.0293-.10476 1.2202-.065963 8.5412-.50442.56942-.085363 1.9523-.17849 7.8905-.10864 2.603-.015521 1.4642-.034921 1.8709-.069843 1.2202-.046562 5.5315-.3725.73211-.038802.7321-.073723.81345-.050442.97614-.007761 3.3351-.050442 3.2538-.01164m.16269 0 6.0195-.097004.81345-.054323 1.4642-.038801 4.7994-.3337.56942-.058202 1.6269-.12417 4.1486-.093124.48807-.01552 4.3113-.097005 6.1009-.10476 1.3015-.085364 2.603-.10864 2.0336-.20565 1.7896-.15133 5.3688-.14745h2.2777l1.3829-.023281 3.2538-.050442 1.4642-.038802 8.2159-.48114.48807-.089244 7.077-.24057 2.115-.00388 3.1725-.042682 3.0911-.10476 1.7896-.062083.8948-.023281 5.1247-.59367.56942-.089244 3.0098-.17849.16269-.00388v0" clip-path="url(#d)" fill="none" stroke="#28f" stroke-linecap="square" stroke-width="1.5"/>
   </g>
   <g id="gi">
    <path d="m52 523.06v-232.9" fill="none" stroke="#000" stroke-linecap="square" stroke-width=".8"/>
   </g>
   <g id="gj">
    <path d="m853.2 523.06v-232.9" fill="none" stroke="#000" stroke-linecap="square" stroke-width=".8"/>
   </g>
   <g id="gk">
    <path d="m52 523.06h801.2" fill="none" stroke="#000" stroke-linecap="square" stroke-width=".8"/>
   </g>
   <g id="gl">
    <path d="m52 290.16h801.2" fill="none" stroke="#000" stroke-linecap="square" stroke-width=".8"/>
   </g>
   <g id="gm">
    <!-- サーバー数の推移 -->
    <g transform="translate(404.6 284.16) scale(.12 -.12)">
     <defs>
      <path id="z" transform="scale(.015625)" d="m4685 2893q0-621-84-1111-83-489-288-877-204-387-569-691t-928-560l-544 512q448 167 781 371 333 205 550 503 218 298 323 739 106 442 106 1075v1620q0 192-10 339-9 147-22 217h723q-6-70-22-217t-16-339v-1581zm-2304 2086q-7-64-23-199-16-134-16-313v-2317q0-128 6-256 7-128 13-224 7-96 13-140h-710q6 44 12 140 7 96 13 221 7 125 7 259v2317q0 122-10 256-9 135-28 256h723zm-1978-1197q45-12 144-22t237-20q138-9 285-9h4217q237 0 394 13t246 26v-679q-76 7-240 13-163 6-393 6h-4224q-147 0-282-3-134-3-234-10-99-6-150-12v697z"/>
      <path id="s" transform="scale(.015625)" d="m621 2854q109-6 265-16 157-9 339-16 183-6 349-6 128 0 352 0t509 0 598 0q314 0 624 0 311 0 586 0t486 0q212 0 327 0 230 0 416 16t301 22v-793q-109 6-308 19-198 13-409 13-109 0-324 0-214 0-489 0t-586 0q-310 0-624 0-313 0-598 0t-509 0-352 0q-262 0-525-10-262-9-428-22v793z"/>
      <path id="y" transform="scale(.015625)" d="m4941 5037q83-109 176-269t182-320q90-160 154-288l-416-179q-96 192-240 448t-272 435l416 173zm723 275q83-122 182-282 100-160 196-317 96-156 153-271l-416-186q-102 205-246 454-144 250-279 429l410 173zm-4339-3360q102 262 201 556 100 295 183 612t144 630q61 314 93 602l723-147q-19-83-45-183-26-99-48-195t-42-166q-32-154-86-394t-131-512-164-551q-86-278-182-514-115-301-269-618-153-317-326-618-173-300-346-550l-697 294q301 397 563 874t429 880zm3155 198q-96 250-215 531-118 282-243 567-124 285-246 534-122 250-224 429l659 218q96-179 221-429t253-535q128-284 249-566 122-281 218-525 90-230 195-518 106-288 211-592 106-304 195-589 90-285 154-515l-729-237q-84 352-199 736t-240 768-259 723z"/>
     </defs>
     <use xlink:href="#z"/>
     <use transform="translate(100)" xlink:href="#s"/>
     <use transform="translate(200)" xlink:href="#y"/>
     <use transform="translate(300)" xlink:href="#s"/>
     <use transform="translate(400)" xlink:href="#p"/>
     <use transform="translate(500)" xlink:href="#t"/>
     <use transform="translate(600)" xlink:href="#q"/>
     <use transform="translate(700)" xlink:href="#o"/>
    </g>
   </g>
  </g>
 </g>
 <defs>
  <clipPath id="b">
   <rect x="52" y="26.88" width="801.2" height="232.9"/>
  </clipPath>
  <clipPath id="d">
   <rect x="52" y="290.16" width="801.2" height="232.9"/>
  </clipPath>
 </defs>
</svg>
