<!DOCTYPE svg  PUBLIC '-//W3C//DTD SVG 1.1//EN'  'http://www.w3.org/Graphics/SVG/1.1/DTD/svg11.dtd'>
<svg version="1.1" viewBox="0 0 864 576" xmlns="http://www.w3.org/2000/svg" xmlns:xlink="http://www.w3.org/1999/xlink">
 <defs>
  <style type="text/css">*{stroke-linejoin: round; stroke-linecap: butt}</style>
 </defs>
 <g id="aa">
  <g id="ab">
   <path d="m0 576h864v-576h-864z" fill="#fff"/>
  </g>
  <g id="ac">
   <g id="ad">
    <path d="m52 259.78h801.2v-232.9h-801.2z" fill="#fff"/>
   </g>
   <g id="ae">
    <path d="m145.69 259.78h1.029v-232.9h-1.029z" clip-path="url(#c)" fill="#808080" opacity=".3" stroke="#808080"/>
   </g>
   <g id="af">
    <path d="m524.54 259.78h.68601v-232.9h-.68601z" clip-path="url(#c)" fill="#808080" opacity=".3" stroke="#808080"/>
   </g>
   <g id="ag">
    <g id="ah">
     <g id="ai">
      <path d="m109.16 259.78v-232.9" clip-path="url(#c)" fill="none" stroke="#b0b0b0" stroke-linecap="square" stroke-opacity=".3" stroke-width=".8"/>
     </g>
     <g id="aj">
      <defs>
       <path id="g" d="m0 0v3.5" stroke="#000" stroke-width=".8"/>
      </defs>
      <use x="109.164773" y="259.777732" stroke="#000000" stroke-width=".8" xlink:href="#g"/>
     </g>
    </g>
    <g id="ak">
     <g id="al">
      <path d="m207.95 259.78v-232.9" clip-path="url(#c)" fill="none" stroke="#b0b0b0" stroke-linecap="square" stroke-opacity=".3" stroke-width=".8"/>
     </g>
     <g id="am">
      <use x="207.949896" y="259.777732" stroke="#000000" stroke-width=".8" xlink:href="#g"/>
     </g>
    </g>
    <g id="an">
     <g id="ao">
      <path d="m306.74 259.78v-232.9" clip-path="url(#c)" fill="none" stroke="#b0b0b0" stroke-linecap="square" stroke-opacity=".3" stroke-width=".8"/>
     </g>
     <g id="ap">
      <use x="306.735019" y="259.777732" stroke="#000000" stroke-width=".8" xlink:href="#g"/>
     </g>
    </g>
    <g id="aq">
     <g id="ar">
      <path d="m405.52 259.78v-232.9" clip-path="url(#c)" fill="none" stroke="#b0b0b0" stroke-linecap="square" stroke-opacity=".3" stroke-width=".8"/>
     </g>
     <g id="as">
      <use x="405.520142" y="259.777732" stroke="#000000" stroke-width=".8" xlink:href="#g"/>
     </g>
    </g>
    <g id="at">
     <g id="au">
      <path d="m504.31 259.78v-232.9" clip-path="url(#c)" fill="none" stroke="#b0b0b0" stroke-linecap="square" stroke-opacity=".3" stroke-width=".8"/>
     </g>
     <g id="av">
      <use x="504.305265" y="259.777732" stroke="#000000" stroke-width=".8" xlink:href="#g"/>
     </g>
    </g>
    <g id="aw">
     <g id="ax">
      <path d="m603.09 259.78v-232.9" clip-path="url(#c)" fill="none" stroke="#b0b0b0" stroke-linecap="square" stroke-opacity=".3" stroke-width=".8"/>
     </g>
     <g id="ay">
      <use x="603.090389" y="259.777732" stroke="#000000" stroke-width=".8" xlink:href="#g"/>
     </g>
    </g>
    <g id="az">
     <g id="ba">
      <path d="m701.88 259.78v-232.9" clip-path="url(#c)" fill="none" stroke="#b0b0b0" stroke-linecap="square" stroke-opacity=".3" stroke-width=".8"/>
     </g>
     <g id="bb">
      <use x="701.875512" y="259.777732" stroke="#000000" stroke-width=".8" xlink:href="#g"/>
     </g>
    </g>
    <g id="bc">
     <g id="bd">
      <path d="m800.66 259.78v-232.9" clip-path="url(#c)" fill="none" stroke="#b0b0b0" stroke-linecap="square" stroke-opacity=".3" stroke-width=".8"/>
     </g>
     <g id="be">
      <use x="800.660635" y="259.777732" stroke="#000000" stroke-width=".8" xlink:href="#g"/>
     </g>
    </g>
   </g>
   <g id="bf">
    <g id="bg">
     <g id="bh">
      <path d="m52 246.93h801.2" clip-path="url(#c)" fill="none" stroke="#b0b0b0" stroke-linecap="square" stroke-opacity=".3" stroke-width=".8"/>
     </g>
     <g id="bi">
      <defs>
       <path id="f" d="m0 0h-3.5" stroke="#000" stroke-width=".8"/>
      </defs>
      <use x="52" y="246.926099" stroke="#000000" stroke-width=".8" xlink:href="#f"/>
     </g>
     <g id="bj">
      <!-- 300 -->
      <g transform="translate(27.9 250.91) scale(.1 -.1)">
       <defs>
        <path id="l" transform="scale(.015625)" d="m1715-90q-371 0-656 90t-503 240q-217 150-377 323l359 474q211-205 479-359 269-153 634-153 269 0 467 92 199 93 311 266t112 423q0 256-125 451t-429 300q-304 106-835 106v551q467 0 732 105 266 106 384 291 119 186 119 423 0 307-192 489-192 183-531 183-269 0-503-119-233-118-438-316l-384 460q282 256 614 413 333 157 737 157 422 0 748-144 327-144 512-413 186-269 186-659 0-403-221-685-221-281-592-422v-26q269-70 490-227t349-400 128-557q0-422-215-726-214-304-573-468-358-163-787-163z"/>
        <path id="a" transform="scale(.015625)" d="m1830-90q-460 0-806 275-346 276-535 823-188 547-188 1366 0 820 188 1357 189 538 535 803 346 266 806 266 461 0 800-269 340-269 528-803 189-534 189-1354 0-819-189-1366-188-547-528-823-339-275-800-275zm0 589q237 0 422 185 186 186 288 599 103 413 103 1091 0 679-103 1082-102 403-288 582-185 180-422 180-236 0-422-180-186-179-292-582-105-403-105-1082 0-678 105-1091 106-413 292-599 186-185 422-185z"/>
       </defs>
       <use xlink:href="#l"/>
       <use transform="translate(57)" xlink:href="#a"/>
       <use transform="translate(114)" xlink:href="#a"/>
      </g>
     </g>
    </g>
    <g id="bk">
     <g id="bl">
      <path d="m52 220.79h801.2" clip-path="url(#c)" fill="none" stroke="#b0b0b0" stroke-linecap="square" stroke-opacity=".3" stroke-width=".8"/>
     </g>
     <g id="bm">
      <use x="52" y="220.787184" stroke="#000000" stroke-width=".8" xlink:href="#f"/>
     </g>
     <g id="bn">
      <!-- 600 -->
      <g transform="translate(27.9 224.77) scale(.1 -.1)">
       <defs>
        <path id="k" transform="scale(.015625)" d="m1971-90q-339 0-634 144-294 144-518 435-224 292-352 733-128 442-128 1044 0 678 147 1161 148 483 397 784 250 301 570 445t665 144q397 0 688-147 292-147 490-359l-403-448q-128 154-327 253-198 99-409 99-307 0-567-182-259-182-413-605-153-422-153-1145 0-608 115-1002t326-589q212-195 493-195 212 0 375 121 163 122 259 343t96 522q0 300-90 511-89 212-259 320-169 109-419 109-211 0-451-134t-458-461l-25 538q134 192 313 323t374 201q196 71 375 71 397 0 694-163 298-163 467-490 170-326 170-825 0-468-195-817-195-348-512-544-317-195-701-195z"/>
       </defs>
       <use xlink:href="#k"/>
       <use transform="translate(57)" xlink:href="#a"/>
       <use transform="translate(114)" xlink:href="#a"/>
      </g>
     </g>
    </g>
    <g id="bo">
     <g id="bp">
      <path d="m52 194.65h801.2" clip-path="url(#c)" fill="none" stroke="#b0b0b0" stroke-linecap="square" stroke-opacity=".3" stroke-width=".8"/>
     </g>
     <g id="bq">
      <use x="52" y="194.648269" stroke="#000000" stroke-width=".8" xlink:href="#f"/>
     </g>
     <g id="br">
      <!-- 900 -->
      <g transform="translate(27.9 198.63) scale(.1 -.1)">
       <defs>
        <path id="m" transform="scale(.015625)" d="m1562-90q-410 0-708 150-297 151-502 356l403 461q141-160 346-256t422-96q224 0 425 102 202 103 352 333 151 230 237 614 87 384 87 941 0 589-115 970t-323 563-496 182q-205 0-372-118-166-118-262-336t-96-525q0-301 86-512 87-211 259-323 173-112 417-112 224 0 460 141 237 141 448 461l32-544q-134-180-313-314t-371-208-384-74q-391 0-689 166-297 167-467 496-169 330-169 823 0 467 195 816t515 541 698 192q339 0 636-138 298-137 519-419 221-281 349-710t128-1018q0-691-141-1187t-391-807q-249-310-563-461-313-150-652-150z"/>
       </defs>
       <use xlink:href="#m"/>
       <use transform="translate(57)" xlink:href="#a"/>
       <use transform="translate(114)" xlink:href="#a"/>
      </g>
     </g>
    </g>
    <g id="bs">
     <g id="bt">
      <path d="m52 168.51h801.2" clip-path="url(#c)" fill="none" stroke="#b0b0b0" stroke-linecap="square" stroke-opacity=".3" stroke-width=".8"/>
     </g>
     <g id="bu">
      <use x="52" y="168.509354" stroke="#000000" stroke-width=".8" xlink:href="#f"/>
     </g>
     <g id="bv">
      <!-- 1200 -->
      <g transform="translate(22.2 172.49) scale(.1 -.1)">
       <defs>
        <path id="e" transform="scale(.015625)" d="m544 0v608h1037v3277h-845v467q333 58 579 147 247 90 451 218h557v-4109h915v-608h-2694z"/>
        <path id="b" transform="scale(.015625)" d="m282 0v429q697 621 1164 1136 468 515 701 956 234 442 234 826 0 256-87 451-86 196-262 301-176 106-445 106-275 0-506-151-230-150-422-368l-416 410q301 333 637 518 336 186 803 186 429 0 749-176t496-493 176-745q0-455-224-919t-615-935q-390-470-889-950 186 20 394 36t374 16h1184v-634h-3046z"/>
       </defs>
       <use xlink:href="#e"/>
       <use transform="translate(57)" xlink:href="#b"/>
       <use transform="translate(114)" xlink:href="#a"/>
       <use transform="translate(171)" xlink:href="#a"/>
      </g>
     </g>
    </g>
    <g id="bw">
     <g id="bx">
      <path d="m52 142.37h801.2" clip-path="url(#c)" fill="none" stroke="#b0b0b0" stroke-linecap="square" stroke-opacity=".3" stroke-width=".8"/>
     </g>
     <g id="by">
      <use x="52" y="142.370439" stroke="#000000" stroke-width=".8" xlink:href="#f"/>
     </g>
     <g id="bz">
      <!-- 1500 -->
      <g transform="translate(22.2 146.36) scale(.1 -.1)">
       <defs>
        <path id="h" transform="scale(.015625)" d="m1715-90q-365 0-653 90t-506 237q-217 147-383 307l352 480q134-134 294-246t361-183q202-70 452-70 262 0 473 118 212 119 333 346 122 227 122 541 0 460-247 716-246 256-649 256-224 0-384-64t-365-198l-365 237 141 2240h2387v-627h-1747l-109-1204q154 77 307 118 154 42 340 42 397 0 723-160t518-490q192-329 192-847 0-519-224-887t-586-560q-361-192-777-192z"/>
       </defs>
       <use xlink:href="#e"/>
       <use transform="translate(57)" xlink:href="#h"/>
       <use transform="translate(114)" xlink:href="#a"/>
       <use transform="translate(171)" xlink:href="#a"/>
      </g>
     </g>
    </g>
    <g id="ca">
     <g id="cb">
      <path d="m52 116.23h801.2" clip-path="url(#c)" fill="none" stroke="#b0b0b0" stroke-linecap="square" stroke-opacity=".3" stroke-width=".8"/>
     </g>
     <g id="cc">
      <use x="52" y="116.231524" stroke="#000000" stroke-width=".8" xlink:href="#f"/>
     </g>
     <g id="cd">
      <!-- 1800 -->
      <g transform="translate(22.2 120.22) scale(.1 -.1)">
       <defs>
        <path id="q" transform="scale(.015625)" d="m1830-90q-441 0-787 163-345 164-547 448-202 285-202 650 0 314 122 557t314 419 403 291v32q-256 186-442 458-185 272-185 643 0 365 176 640t480 425q304 151 694 151 410 0 704-160t457-439q164-278 164-649 0-237-96-448t-234-381q-137-169-291-278v-32q218-115 397-285 179-169 288-406t109-557q0-346-189-628-189-281-532-448-342-166-803-166zm314 2708q205 198 310 419 106 221 106 464 0 211-83 384t-247 272q-163 99-393 99-288 0-480-183-192-182-192-502 0-256 134-429 135-172 359-294t486-230zm-294-2170q236 0 418 89 183 90 285 253 103 164 103 388 0 211-90 367-89 157-246 272-157 116-368 215t-454 195q-244-173-398-426-153-252-153-553 0-237 118-416 119-179 324-282 205-102 461-102z"/>
       </defs>
       <use xlink:href="#e"/>
       <use transform="translate(57)" xlink:href="#q"/>
       <use transform="translate(114)" xlink:href="#a"/>
       <use transform="translate(171)" xlink:href="#a"/>
      </g>
     </g>
    </g>
    <g id="ce">
     <g id="cf">
      <path d="m52 90.093h801.2" clip-path="url(#c)" fill="none" stroke="#b0b0b0" stroke-linecap="square" stroke-opacity=".3" stroke-width=".8"/>
     </g>
     <g id="cg">
      <use x="52" y="90.092609" stroke="#000000" stroke-width=".8" xlink:href="#f"/>
     </g>
     <g id="ch">
      <!-- 2100 -->
      <g transform="translate(22.2 94.078) scale(.1 -.1)">
       <use xlink:href="#b"/>
       <use transform="translate(57)" xlink:href="#e"/>
       <use transform="translate(114)" xlink:href="#a"/>
       <use transform="translate(171)" xlink:href="#a"/>
      </g>
     </g>
    </g>
    <g id="ci">
     <g id="cj">
      <path d="m52 63.954h801.2" clip-path="url(#c)" fill="none" stroke="#b0b0b0" stroke-linecap="square" stroke-opacity=".3" stroke-width=".8"/>
     </g>
     <g id="ck">
      <use x="52" y="63.953694" stroke="#000000" stroke-width=".8" xlink:href="#f"/>
     </g>
     <g id="cl">
      <!-- 2400 -->
      <g transform="translate(22.2 67.939) scale(.1 -.1)">
       <defs>
        <path id="r" transform="scale(.015625)" d="m2170 0v3072q0 192 12 457 13 266 20 458h-26q-90-179-183-365-92-185-195-364l-921-1415h2579v-576h-3328v493l1875 2957h858v-4717h-691z"/>
       </defs>
       <use xlink:href="#b"/>
       <use transform="translate(57)" xlink:href="#r"/>
       <use transform="translate(114)" xlink:href="#a"/>
       <use transform="translate(171)" xlink:href="#a"/>
      </g>
     </g>
    </g>
    <g id="cm">
     <g id="cn">
      <path d="m52 37.815h801.2" clip-path="url(#c)" fill="none" stroke="#b0b0b0" stroke-linecap="square" stroke-opacity=".3" stroke-width=".8"/>
     </g>
     <g id="co">
      <use x="52" y="37.814779" stroke="#000000" stroke-width=".8" xlink:href="#f"/>
     </g>
     <g id="cp">
      <!-- 2700 -->
      <g transform="translate(22.2 41.8) scale(.1 -.1)">
       <defs>
        <path id="j" transform="scale(.015625)" d="m1235 0q32 646 109 1187t224 1024 384 941 576 938h-2208v627h3027v-455q-409-512-665-989-256-476-397-969t-205-1053-90-1251h-755z"/>
       </defs>
       <use xlink:href="#b"/>
       <use transform="translate(57)" xlink:href="#j"/>
       <use transform="translate(114)" xlink:href="#a"/>
       <use transform="translate(171)" xlink:href="#a"/>
      </g>
     </g>
    </g>
   </g>
   <g id="cq">
    <path d="m88.418 222.44.097756.17426.086323-.34852.35672.34852.18179-.08713.48535-.8713 1.0296-3.2238 1.0467-5.1407.51222-1.3069.51565-.17426.48478-1.6555.51451-1.2198.51451-2.0911.51451-2.7882.51451-.60991.51451-3.2238.5145-2.3525 1.5435-9.2357 1.029-4.3565.51451-1.3941.5145-.78417.51451-2.004.51451-5.3149 1.5435-24.309 2.058-43.826.51451-8.5387 1.029-28.666.5145-5.3149.51451-2.3525.51451-.78417.51451 2.6139.51451 1.5683 2.5725 43.565.51451 12.46 2.5725 45.743 1.029 13.418 1.029 10.978 1.5435 14.464.51451 2.701.51451 3.9208.51451 2.7882.51451 3.6594.5145 1.9169.51451 3.2238 1.5435 6.5347.51451 2.4396.5145 1.5683.51451 3.4852.51451 1.1327.51451 1.7426 1.029 1.6555.51451 1.1327.5145.26139.51451 1.3069.51451.52278 1.029.26139 1.029-.43565 1.5435-2.8753.51451-.26139.51451-.95843.51451-.43565 1.029-3.3981 1.029-3.9208.51451.26139.51451-.17426.51451-2.7882.5145-1.5683.51451-.78417 1.029-2.7882.51451-3.1367.51451-1.7426.51451-.60991 1.5435-4.2694.51451-3.9208.51451-2.4396.51451-3.6594.5145-2.3525 1.029-5.4892.51451-1.3941m1.029 19.517.51451-12.285.5145-2.3525.51451-1.3941 1.5435-13.418.51451-6.012 1.029-18.21 1.029-22.654.51451-16.293 1.5435-31.105 1.029-14.725.51451-3.7466.51451.43565.51451-1.2198.51451 1.7426 1.029 8.8001 1.029 21.173.51451 6.9704 1.5435 28.404 1.029 14.725 1.029 16.555 1.029 12.111 1.029 10.891 2.058 18.123.5145 3.4852 1.5435 6.1862.51451 1.6555 1.029 4.9664 1.029 5.7506 1.029 3.1367.51451.43565.51451.8713.5145 1.3069.51451.60991 1.5435 4.5307.51451-.43565.51451.34852h.5145l.51451.52278.51451-1.3069.51451.17426.51451-.34852.51451-.52278.51451-.26139.5145-.60991.51451.08713.51451-.52278.51451-2.0911.51451-1.4812.51451-.8713.5145-1.6555.51451-2.0911.51451-.95843.51451-1.5683.51451-1.0456.51451-2.2654.51451-1.2198.5145-2.701.51451-1.0456.51451-3.2238.51451-1.6555.51451-3.3109.51451-.95843 1.029-2.701.51451-2.2654.51451-1.3941 1.029-6.012.51451-1.8297.5145-.43565.51451-3.1367.51451-1.1327.51451-2.3525.51451-1.3941 1.029-3.1367 1.5435-18.733 1.5435-27.62.51451-13.766.5145-9.1486.51451-11.24 1.029-16.468 1.029-12.111 1.029-4.4436.51451 1.0456.51451 3.7466 1.029 17.6 1.5435 28.23 1.029 19.43 1.5435 21.521.5145 5.2278 2.058 25.355 1.5435 14.638 1.029 7.0575.51451 3.7466.51451 2.2654.51451 3.3981 3.087 12.808 1.029 2.4396.51451.69704.51451 1.1327.51451.60991h.51451l.68601.26139.68601.8713.1715-.08713.343-.52278.343.43565.1715-.08713.343.26139.343-.60991.1715-.52278.1715.17426.1715-.78417.1715-.17426h.1715l.1715.17426.1715-.17426.1715.087129.1715-.43565.1715.34852.51451-1.2198.1715.17426.1715-.08713.1715-.43565.1715.08713.343-.78417.1715-.17426.343-.8713.1715-.08713.343-.52278.1715-.08713.343-1.3941.1715.08713.343-.43565.1715.08713.343-.52278.343-.69704.51451-2.701h.1715l.68601-2.3525.1715-.8713.1715-.17426.1715-.52278h.1715l.85751-2.8753.343-.95843.1715-.52278.1715-1.0456.1715-.087129 1.2005-5.5763.5145-1.2198.343-.69704.1715.17426.343-2.0911.1715-.34852.1715-1.0456.343-.69704.343-2.004.1715-1.0456.51451-.8713.343-1.7426.1715-.087129.1715.17426.1715-.08713.343-1.3941.51451-1.4812.1715-1.6555.1715.26139 1.5435-7.406h.1715l.1715-.17426.1715-.43565.1715-.78417.1715.69704.1715-1.0456.1715.26139 1.5435-10.281 1.2005-17.774.85751-18.907.343-11.153.343-5.7506.343-5.5763.85751-16.99.1715-2.5268.343-9.5843.5145-8.0159.343-2.9624.1715-1.2198.1715-3.2238.1715-.52278.1715.43565.51451-2.701.1715-.17426.1715-.34852.1715-1.0456.1715-.087129.343.8713 1.372 20.214.51451 7.4932.1715.78417.68601 12.547.343 7.5803.343 4.8793.51451 9.2358.1715 1.0456 2.5725 36.594 1.5435 17.862.85751 5.7506.51451 4.7921.343 2.7882.1715.52278 1.029 6.6219.343 1.7426.1715 1.3069.1715.26139.343 1.2198 1.372 6.6219.1715.69704.68601 4.3565.68601 2.4396.1715 1.6555.343.43565.68601 2.9624.343.69704.1715.17426.1715.60991.1715-.26139.1715.34852.343 1.1327.1715.08713.51451 2.004.343.43565.1715.08713.1715.26139.1715-.08713.1715.43565.343.08713.1715.26139.343-.17426.1715.43565.1715-.34852.51451.34852.343-.60991.1715-.43565.343.17426.343-.43565.51451-1.2198.51451-1.0456.343.26139.343-.26139.68601-.95843.343.43565.343-1.2198.68601-3.2238.343-1.3941.343-.26139.343-.95843.68601-.34852.68601-2.0911.343-.08713.68601-3.3109.343-.26139.343-.78417h.343l.343-1.1327.343-2.1782.68601-2.0911.68601-2.5268.343-1.5683.343-2.2654.343-.52278.68601-2.0911.343-2.2654.343-1.4812.343.087129.68601-1.4812 1.029-6.012.343-1.3069.343-2.5268.343-1.1327.343-1.7426h.343l.68601-3.1367.343-.69704.68601-2.004.343-.95843.343-1.9169.343-.8713.343-3.6594.343-4.8793.343-2.701.68601-11.675.343-5.7506 2.744-66.219.68601-11.763.343-4.1822.68601-10.194.343-3.3109 1.029-5.5763h.343l.343 1.1327.343 1.7426 1.029 7.406 1.029 16.206.343-3.1367.68601 14.376.68601 10.63 1.715 28.84 1.372 21.957.68601 11.414 2.401 30.408 1.029 7.5803 1.029 6.0991.343 2.8753.68601 2.9624.343 2.5268.343 1.1327.68601 3.8337.343.8713.343-.17426.343.087129.343.43565.343 1.0456.343.60991.343 1.3069.343-1.1327.343-.43565.343.60991.343-.26139.343.69704.343-.34852.68601.26139.68601-2.2654.68601.087129.343-1.5683.343-.8713.343-1.3941.343.34852.343-1.3069.343-.60991 2.058-6.5347.343-2.2654.68601-2.3525.343-1.2198.68601-5.0535.343-3.7466.343-2.2654.343-.8713 1.715-11.153.343-1.3941.343-2.1782.343-1.3941.343-.43565.343-2.4396.68601-2.4396.343-1.7426.343-.60991.343.34852.343-.69704.343-1.6555.343-.78417.68601-2.1782.343-.34852.343.26139.343-.26139.343.69704.343 2.2654.343-.08713.343.17426.343-.34852.343-.60991.343.69704.343-.08713.343-.26139.343-1.3941h.68601l.343-2.8753 1.372-17.339.68601-11.937.343-8.8001.343-12.198 1.372-25.703 1.029-20.388.68601-9.9328.343-7.1446.343-3.3109.343-.60991.343-1.7426.343-2.3525.343-.34852.343.52278.343 1.4812.343.52278.343 3.5723.68601 2.9624.68601 7.0575.343 7.7545.343 4.8793.68601 7.0575.68601 11.065.68601 15.248 2.744 43.129 2.058 29.537 1.715 18.297.68601 3.2238 1.715 11.763.343 1.5683.343 3.0495 1.372 4.8793.343 1.0456.343.60991.343 2.004.343-.087129.343.52278.68601 1.3941.343.26139.343.52278.68601-.34852.68601-1.0456.343-1.3069.68601.087129.343-1.1327.343-1.6555.68601-1.1327.343.17426.343-2.004.343-1.0456.343-1.9169.343-.34852.343-2.6139.343-1.0456.343-.34852.343-.95843.343-1.3069.343-.78417.343-3.3109.68601-9.1486.343-2.4396 1.029-10.717.343-3.2238.343-1.9169.343-2.6139.343-1.3941 1.029-2.6139.343-1.3941.343-3.0495.343-1.5683.343-2.1782.68601-3.2238.343-1.9169.343-.43565.343-1.2198h.343l.343-1.2198.343.78417.343-1.7426.343.34852.343.78417.343 1.2198 1.029 1.7426.343-.26139.343 2.6139 1.029 2.6139.343.17426.343 1.1327.343-.43565.343-1.2198 1.372-14.464 1.029-18.994.343-8.0159.68601-10.891 1.372-23.351.343-4.705 1.372-10.368.343 1.9169.343.78417.343.26139.343 1.1327.343 3.3109.343 2.0911 1.029 20.388.343 4.3565 1.372 26.139.343 2.9624.343 6.7961.343 3.6594 1.029 18.036 1.029 12.634.68601 10.804.68601 7.4932.343 1.2198 1.029 10.456 1.372 7.5803.343 1.4812 1.029 7.7545.343 2.0911.343 1.3941.68601 1.4812.343 2.6139.343 1.2198.68601 3.1367 2.744 7.5803.343-.17426.343.69704.343.26139.343.52278.343.08713.343-.08713.343-.43565.343-.08713.343.43565.343-.60991.343-.08713.343-.26139.343.17426.343.43565h.343l.68601-.8713.343.43565.343-.78417.343-.08713.343-1.0456.343.17426.343-.08713.343-1.5683.343-.69704.343-1.3941.68601-1.0456.68601-1.6555.68601-4.2694.343-.34852 1.029-3.6594.343-.52278 1.029-3.1367.343-.78417.343-.087129.68601-2.2654.343-.52278.343-1.2198.343-1.8297.68601-1.9169.343-2.8753 1.029-2.6139.343-.34852.343-1.0456.343-.08713 2.401-11.065.343-.78417.343-.17426 1.029-4.9664.68601-6.3605.343-4.008.68601-10.194 1.029-15.161 2.058-42.258.68601-9.9328.343-7.406.68601-6.2733.68601-5.6634 1.029-2.4396.343 1.3941.343 2.004.68601 8.2773.343 8.1902.68601 9.6714 2.058 38.686 1.372 19.953.68601 7.5803.68601 8.4516 2.744 24.832.68601 3.7466.68601 3.5723.343 2.3525.343 1.5683.343.95843.68601 2.701.343.69704 3.43 12.721h.343l.343.43565.343 1.4812.343-.26139.343.95843.343.08713.343 1.3941.68601.34852.343.34852.68601.34852 1.029-.52278.343-.78417.343-.26139.343-.69704.68601.34852.343-.17426.343.26139.68601.08713.343-.08713.343.60991.343-.34852 1.029-3.8337.68601-1.2198.343-.69704 1.715-4.5307.343-.8713.343-2.6139.68601-2.8753.343-.95843.343-1.3941.68601-1.6555.68601-2.701.68601-2.9624.343-.26139h.343l.343-.69704.343-1.2198.343-1.8297.343-.95843.68601-2.7882.343-2.004.343-.69704.68601-2.701.343.17426.343-2.0911.68601-2.7882.68601-4.008h.343l.68601-2.6139.343-2.0911.343-.60991.343-2.0911.68601-11.763.68601-10.368.343-6.2733 1.372-34.678.343-7.6674.68601-11.588.343-8.6258.343-4.008 1.372-11.24.343-.17426.68601-1.3069.343 1.2198.343 2.5268.68601 10.891.68601 6.5347.68601 10.63.343 5.6634 1.029 20.911.68601 12.111.343 3.2238 1.715 26.139 1.372 13.766 1.029 11.065.343 3.1367.343 1.8297.68601 5.402 1.029 5.3149 1.029 6.0991.343 1.1327 1.029 5.2278.343.8713.343 1.2198.343.34852.343 1.2198.343 1.7426 1.029 2.3525.68601.95843.343 1.0456.343.60991.343 1.3941.343.78417.343.34852.343.69704.343-.26139.343.17426.343-.34852.343-.17426.343-.52278m.68601 2.4396.343 1.3941.343-.08713.343.26139.68601-1.5683.343-.08713.343-.52278.343.17426.343-.8713.343.087129.68601-2.5268.343-.78417h.343l.343-.8713.343-2.0911.343-.26139.343-.95843.343-1.4812.343-.34852.343-1.1327.343-.69704.68601-3.0495.68601-2.9624.343-1.0456.343.17426.343-1.1327.343-2.6139 1.029-4.4436.343-2.5268.343-1.4812.343-2.1782.343-.95843 1.029-3.8337.343-.34852.343-.69704.343-1.1327.343.087129.68601-2.7882.343.08713.343-2.2654.68601-5.4892.343-1.6555.68601.17426.343-2.4396.343-1.3069.343-3.3981.343-1.6555.343-2.5268 1.372-17.077.68601-10.978 1.029-23.961.68601-16.555 1.029-20.563 1.029-13.331.343-2.2654.343-5.2278.343-.52278.68601.78417.343 1.8297.68601 5.8377.343 5.2278 1.029 19.778.68601 11.153.68601 16.38.68601 10.891.343 2.9624 3.43 47.311 1.029 6.9704 2.401 15.422 1.029 5.7506.343.69704.343 1.5683.343 2.0911.343 1.2198.343.60991 1.029 4.9664.68601 2.4396.343 1.1327 1.372 2.6139.343.43565.343.95843.68601 2.701.343.69704.68601.60991.343-.43565.343-.78417.343-.34852.343.52278.343-.8713.343.087129.343.69704.343-.52278.343.43565 1.029-1.4812 1.029-2.5268.343-.52278.68601-2.1782.343-.69704.68601-2.7882.343.26139.343-1.5683.343-.52278.343-.8713.68601-2.2654.343-.52278.68601-2.004.343-2.0911.343-.43565 1.372-5.1407.343-.78417.343-1.3941.343-.78417.68601-2.7882.68601-2.004.68601-2.3525.68601-2.0911.343-2.4396.343-.34852.343-1.2198.343-2.701.343-1.3941.343-.8713.343-1.3941.343-.43565.343-.17426.343-1.1327.343-2.6139.68601-6.709.68601-5.4892.68601-12.111 1.715-25.268 1.029-20.388.343-4.5307.343-7.9288.343-5.1407.68601-16.119.68601-11.24.343-4.8793.343-2.7882.343-.34852.343-5.1407.343-2.1782.343-.08713.68601 2.3525.343 5.0535.343 9.2358 1.715 31.192.343 9.9328 1.029 17.862.68601 11.588.68601 10.281.343 3.8337.68601 10.02 1.715 20.04.68601 6.1862 1.372 11.937 1.029 5.0535.68601 3.5723.68601 3.4852 2.744 12.198.343-.08713.68601 2.4396.68601 1.4812.343.34852.343 1.0456.343-.17426 1.715 2.7882.343-.17426.343.52278 1.029-.17426.68601-.78417.68601-.34852.343-1.2198.343-.17426h.343l.343-.43565.343.52278.343.08713.343-.52278.68601-2.4396.68601-2.7882 2.401-7.4932h.343l.68601-1.7426.343-1.6555.343-.43565.68601-3.8337.343.087129.343-.69704.343-.34852.343-1.3069.343-.08713 1.372-8.4516.343-1.4812.343-.8713.343-.43565.68601-2.4396.343-.34852.343-.95843.343-2.7882 1.029-4.0951.68601-2.5268.343-.08713.343-.26139.68601-2.7882.343-2.004 1.372-13.244 1.029-14.551.343-4.9664 2.744-63.518.343-5.2278.68601-14.812.343-5.3149.343-2.3525.68601-6.9704.343-.69704.343-2.7882.343 2.5268.343-.17426 1.029 9.4971.343 1.6555.68601 9.1486 5.1451 88.262 2.401 28.143.68601 5.3149.343 4.0951 1.372 8.9744.343 1.4812.343 3.7466.343.60991.343 2.4396.343 1.3069.343 2.0911.343.78417.343 2.0911.343.69704.68601 2.5268.343.8713.68601.78417.343-.087129.68601.087129.343-.26139.343.17426.343-.17426.343-.43565.343-.8713.343-.52278.343-.26139.68601-2.004.343-.26139.343-1.4812.343-.087129.68601-2.7882.68601-3.6594.343-1.2198.343.43565.343-.17426 1.029-3.9208.343.26139.343-1.6555.343-.34852.343-1.2198.68601-8.9744 1.029-7.9288 1.029-5.7506.343-3.7466.68601-2.7882.68601-4.1822.68601-3.8337.343-3.1367.68601-2.0911.343-.52278.343-.8713.343-.43565h.343l.343-.26139.343.69704.343.26139.343.52278.68601-.08713.343.08713.343 1.3941.343 2.1782.343-.78417.343 1.1327.343 2.0911.343-2.5268.343.17426.343-.52278.343-1.7426.343-3.3109.343-1.4812.343-.8713.343-2.9624.343-6.4476.343-2.7882 1.372-24.745.343-10.978.68601-11.24 1.715-36.072 1.372-23.002.68601-5.3149.343-1.6555.343-.43565.343-.78417.68601 4.5307.343 1.4812.68601 6.8832 3.087 47.921 1.372 24.745.68601 9.5843 2.744 42.694 1.715 16.816 2.058 15.248 1.372 6.3605.343 2.2654.343 1.1327 1.029 5.2278.343.34852.343.78417.343 1.4812.343.17426.343-.17426.343.08713.343-.26139.343.26139.343-.60991.343-.34852.343-.52278 1.372-3.7466.343-.60991.68601-2.3525.68601-2.1782.68601-2.6139.343-.34852.343.26139.343-2.3525.343-.08713.343-1.4812.343-2.3525.343-3.3109.343-.17426 1.029-7.3189.68601-2.5268.343-1.7426 1.029-8.3645.343-4.0951.343-1.1327.68601-4.4436.343-.60991.68601-5.2278.68601-2.9624.343-1.3941.68601-3.7466.343-.43565.343.43565.68601-2.1782.343-.08713 1.029-1.7426.343-1.1327.343.8713.68601 3.1367.343 2.4396.343-.17426h.343l.68601 4.008.343-2.6139.343.26139 1.715-15.161.343-3.7466.68601-10.891 1.029-24.571 1.715-29.624 1.029-11.85.68601-3.3109.343.60991.343.087129.343-.95843.343-.17426.343 3.2238.343 4.8793.343 9.3229.68601 11.588 1.715 34.59.343 3.6594.343 7.0575.68601 10.02.343 6.5347.343 4.1822.68601 11.153.343 3.2238 1.715 22.131.68601 6.6219.68601 4.8793.343 2.8753.343 1.6555.343 2.6139 1.029 4.9664.68601 2.4396.68601 2.701 1.715 8.2773.68601 2.2654 1.029 4.705.343.95843.343.43565.343 1.3941.68601 1.1327.343.17426 1.715 3.1367.343-.26139.343-.08713.343-.34852.343.26139 1.029-.17426.343-.69704 1.029-1.1327 1.029-.17426.343-.52278.343-.78417.343-.34852.343-1.5683.343-1.0456.343.087129.343-.43565.343-.8713.68601-2.6139.68601-3.2238 1.372-2.9624.343-2.1782.68601-2.8753.343-.08713.68601-2.9624.343-.52278.343-2.4396.68601-2.4396 1.372-4.7921.343-.34852.343-2.701.343-.78417.343-.26139.68601-5.2278.343-.8713.343-1.5683.68601-1.3069.343-1.4812.343-2.5268.68601-2.8753.343-.43565 1.029-7.8417 1.715-27.969.343-4.9664 2.744-54.717 1.372-13.854.343-1.6555.343-1.0456.343.78417.343.43565 1.029 10.456 3.087 55.589 3.773 49.315.343 2.004 1.715 14.899.68601 4.4436.68601 3.1367.68601 2.701 1.029 5.9248.343.69704.68601 2.5268 1.372 4.4436.343 1.6555 1.029 2.5268.343.26139v0" clip-path="url(#c)" fill="none" stroke="#28f" stroke-linecap="square" stroke-width="1.5"/>
   </g>
   <g id="cr">
    <path d="m52 259.78v-232.9" fill="none" stroke="#000" stroke-linecap="square" stroke-width=".8"/>
   </g>
   <g id="cs">
    <path d="m853.2 259.78v-232.9" fill="none" stroke="#000" stroke-linecap="square" stroke-width=".8"/>
   </g>
   <g id="ct">
    <path d="m52 259.78h801.2" fill="none" stroke="#000" stroke-linecap="square" stroke-width=".8"/>
   </g>
   <g id="cu">
    <path d="m52 26.88h801.2" fill="none" stroke="#000" stroke-linecap="square" stroke-width=".8"/>
   </g>
   <g id="cv">
    <!-- 同時接続数の推移 -->
    <g transform="translate(404.6 20.88) scale(.12 -.12)">
     <defs>
      <path id="x" transform="scale(.015625)" d="m1587 3936h3232v-518h-3232v518zm320-1114h557v-2534h-557v2534zm301 0h2291v-2086h-2291v512h1734v1069h-1734v505zm-1683 2260h5113v-570h-4524v-5056h-589v5626zm4768 0h595v-4896q0-250-67-397t-227-218q-160-77-426-96t-675-19q-13 83-45 192t-77 218q-45 108-89 185 281-13 527-13 247 0 330 0 83 7 118 42 36 35 36 112v4890z"/>
      <path id="v" transform="scale(.015625)" d="m2714 4672h3238v-525h-3238v525zm-244-1235h3712v-538h-3712v538zm20-1184h3635v-531h-3635v531zm1523 3155h595v-2310h-595v2310zm832-2451h589v-2823q0-230-61-364-61-135-227-199-167-70-423-86t-633-16q-20 121-78 285-57 163-121 284 275-6 509-9t310-3q77 6 106 28 29 23 29 93v2810zm-2023-1677 487 282q153-160 313-352t294-381q135-189 206-343l-519-313q-64 153-189 348-124 196-278 394-154 199-314 365zm-2086 3718h1619v-4281h-1619v544h1056v3187h-1056v550zm32-1843h1293v-537h-1293v537zm-320 1843h563v-4832h-563v4832z"/>
      <path id="w" transform="scale(.015625)" d="m3866 5408h614v-870h-614v870zm-1479-653h3597v-518h-3597v518zm-230-1485h4e3v-518h-4e3v518zm825 922 519 102q64-160 121-342 58-182 96-352 39-170 45-304l-544-128q-6 134-42 313-35 180-83 365-48 186-112 346zm1856 109 589-71q-96-275-202-557-105-281-195-486l-518 77q58 147 122 329 64 183 118 372t86 336zm-2643-2106h3943v-518h-3943v518zm1408 685 602-115q-167-371-362-784t-390-797-362-685l-525 179q160 288 346 666t368 784 323 752zm-659-2157 358 403q352-102 733-240 381-137 752-304 371-166 697-336 327-169 558-329l-384-461q-218 160-532 336-313 176-685 345-371 170-755 323-384 154-742 263zm1894 1114 583-71q-122-550-353-944-230-393-604-662t-922-435q-547-167-1296-269-25 128-93 269-67 141-137 230 678 64 1168 192t819 349q330 221 531 550 202 330 304 791zm-4684 217q396 90 953 240 557 151 1120 311l77-544q-525-154-1053-311-528-156-963-284l-134 588zm121 2093h1965v-563h-1965v563zm819 1248h576v-5229q0-236-51-374t-192-208q-141-77-355-99-214-23-541-16-13 115-64 288t-109 294q205-6 381-6t234 0q64 0 92 28 29 29 29 93v5229z"/>
      <path id="u" transform="scale(.015625)" d="m4058 5408h595v-1798h-595v1798zm-1415-563h3443v-499h-3443v499zm231-992h3008v-499h-3008v499zm-224-877h3475v-1203h-531v729h-2432v-729h-512v1203zm1964-877h551v-1881q0-122 22-157 23-35 106-35 25 0 92 0 68 0 135 0t99 0q51 0 83 54t45 224 19 515q90-70 234-131t259-93q-19-429-83-662-64-234-183-326-118-93-316-93-39 0-103 0t-134 0-138 0q-67 0-99 0-237 0-365 64t-176 218q-48 153-48 422v1881zm-1164-6h550v-455q0-243-48-528-48-284-186-579-137-294-409-572-272-279-727-503-70 90-192 208-121 118-230 195 416 205 665 438 250 234 371 474 122 240 164 467 42 228 42 413v442zm-2240 3309 524-192q-121-244-259-503-137-259-275-496t-259-416l-410 173q122 186 246 438 125 253 240 515 116 263 193 481zm716-743 500-230q-224-359-496-756-272-396-548-764-275-368-518-650l-358 205q179 211 377 483 199 272 387 569 189 298 358 592 170 295 298 551zm-1721-665 307 403q166-154 339-340 173-185 320-364t224-327l-326-460q-77 160-218 348-141 189-314 384-172 196-332 356zm1485-832 435 179q128-211 249-458 122-246 215-474 93-227 137-412l-473-211q-32 185-119 422-86 237-201 486-115 250-243 468zm-1530-583q422 26 998 54 576 29 1184 68l7-499q-570-45-1127-84-556-38-992-70l-70 531zm1702-992 436 135q121-276 214-596t118-556l-454-148q-26 237-112 563-86 327-202 602zm-1363 109 499-83q-57-455-163-897-105-441-253-748-51 32-134 73-83 42-170 83-86 42-144 62 148 294 234 697t131 813zm691 627h525v-2861h-525v2861z"/>
      <path id="o" transform="scale(.015625)" d="m224 2022h3187v-499h-3187v499zm51 2247h3111v-487h-3111v487zm1127-1735 563-121q-154-320-333-672t-352-679q-173-326-326-582l-532 173q148 243 324 566t345 669q170 346 311 646zm934-832 563-64q-89-480-262-838t-461-614-701-432-976-298q-25 128-99 269t-157 237q659 102 1085 303 426 202 666 554t342 883zm422 3597 519-211q-147-218-298-436-150-217-278-377l-403 186q121 173 252 413 132 240 208 425zm-1203 109h563v-2957h-563v2957zm-1075-320 448 186q134-192 246-420 112-227 157-393l-467-211q-38 172-147 406t-237 432zm1094-1050 397-236q-160-263-400-529-240-265-519-489-278-224-553-378-51 103-141 237-89 135-179 218 269 109 534 294 266 186 493 416 228 231 368 467zm487-204q83-45 246-145 163-99 352-211t346-211 221-150l-327-423q-83 77-230 198-147 122-317 253-170 132-327 250-156 119-259 189l295 250zm1798 396h2311v-556h-2311v556zm115 1178 615-90q-103-640-263-1235t-384-1101q-224-505-512-889-44 57-134 134t-186 157-166 125q275 339 473 796 199 458 340 995 141 538 217 1108zm1223-1510 614-58q-147-1101-445-1940-297-838-813-1443-515-604-1321-1014-26 71-90 177-64 105-134 208-70 102-128 159 742 346 1212 880 471 535 730 1290 260 755 375 1741zm-1005-135q134-851 387-1597 253-745 659-1305 407-560 1002-874-70-57-154-150-83-93-154-189-70-96-121-179-633 371-1056 988-422 618-688 1434-265 816-425 1783l550 89zm-3309-3065 327 416q377-148 754-330 378-182 701-378 324-195 548-368l-416-435q-211 179-519 378-307 198-666 383-358 186-729 334z"/>
      <path id="t" transform="scale(.015625)" d="m3686 4378q-64-493-163-1041-99-547-265-1084-192-653-432-1104t-522-688-595-237q-320 0-596 221-275 221-448 621-172 400-172 931 0 537 220 1017 221 480 611 851 391 372 909 583 519 211 1121 211 576 0 1040-186 464-185 793-515 330-329 502-771 173-441 173-941 0-672-278-1194-278-521-816-851-538-329-1318-444l-378 601q166 20 307 42t263 48q307 70 585 217 279 148 496 375 218 227 342 534 125 308 125 692t-122 713q-121 330-358 573-236 243-582 380-346 138-781 138-525 0-935-186-409-185-694-489-284-304-432-656-147-352-147-678 0-365 89-605 90-240 224-355 135-115 276-115t288 144 297 457q151 314 298 800 147 461 246 982 100 522 145 1021l684-12z"/>
      <path id="p" transform="scale(.015625)" d="m2995 2925h2893v-519h-2893v519zm0-1280h2893v-519h-2893v519zm-64-1299h3232v-557h-3232v557zm1312 3577h563v-3763h-563v3763zm429 1466 634-141q-154-390-340-794-185-403-339-684l-512 140q103 199 208 458 106 259 195 528 90 269 154 493zm-1472 25 582-147q-153-518-371-1018-217-499-483-931t-573-758q-38 64-109 160-70 96-147 198-77 103-141 160 416 416 733 1034t509 1302zm128-1203h2720v-537h-2720v-4205h-582v4422l313 320h269zm-3174-2157q396 90 953 240 557 151 1120 311l77-544q-525-154-1053-311-528-156-963-284l-134 588zm121 2093h1965v-563h-1965v563zm819 1248h576v-5229q0-236-51-374t-192-208q-141-77-355-99-214-23-541-16-13 115-64 288t-109 294q205-6 381-6t234 0q64 0 92 28 29 29 29 93v5229z"/>
      <path id="n" transform="scale(.015625)" d="m4051 5402 595-109q-281-493-729-941t-1107-806q-39 64-106 144t-141 153q-73 74-137 119 608 288 1011 678t614 762zm-77-557h1511v-493h-1863l352 493zm1293 0h109l109 25 384-179q-192-505-496-905t-695-701q-390-301-845-519-454-217-947-358-44 109-137 253t-176 227q448 109 867 294 419 186 777 445 359 259 631 592t419 730v96zm-1990-954 377 307q167-96 336-218 170-121 320-249 151-128 247-237l-397-332q-90 108-237 236t-317 259q-169 132-329 234zm1107-934 595-109q-307-538-803-1031-496-492-1232-876-38 64-102 144t-138 156q-74 77-138 116 455 217 807 483t604 554q253 288 407 563zm-90-589h1460v-506h-1818l358 506zm1268 0h121l109 26 384-167q-192-614-531-1075t-787-794q-448-332-983-553-534-221-1129-355-45 115-132 269-86 153-176 249 551 96 1043 285 493 189 903 473 410 285 714 669t464 883v90zm-2132-1056 410 339q186-102 384-237 198-134 371-275t282-269l-435-371q-103 128-270 272-166 144-361 288t-381 253zm-2150 3533h589v-5376h-589v5376zm-992-1242h2336v-569h-2336v569zm1024-224 365-160q-96-339-231-707-134-368-291-727-157-358-336-672-179-313-365-537-44 128-134 291t-160 272q173 192 339 457 167 266 323 570 157 304 282 618t208 595zm941 1946 416-467q-314-122-695-221-380-99-784-173-403-74-780-131-20 102-71 236-51 135-102 231 358 58 732 138 375 80 711 179t573 208zm-397-2579q58-45 179-170 122-125 266-266 144-140 259-265t160-183l-352-473q-58 102-157 255-99 154-218 317-118 164-227 311-108 147-185 237l275 237z"/>
     </defs>
     <use xlink:href="#x"/>
     <use transform="translate(100)" xlink:href="#v"/>
     <use transform="translate(200)" xlink:href="#w"/>
     <use transform="translate(300)" xlink:href="#u"/>
     <use transform="translate(400)" xlink:href="#o"/>
     <use transform="translate(500)" xlink:href="#t"/>
     <use transform="translate(600)" xlink:href="#p"/>
     <use transform="translate(700)" xlink:href="#n"/>
    </g>
   </g>
  </g>
  <g id="cw">
   <g id="cx">
    <path d="m52 523.06h801.2v-232.9h-801.2z" fill="#fff"/>
   </g>
   <g id="cy">
    <path d="m145.69 523.06h1.029v-232.9h-1.029z" clip-path="url(#d)" fill="#808080" opacity=".3" stroke="#808080"/>
   </g>
   <g id="cz">
    <path d="m524.54 523.06h.68601v-232.9h-.68601z" clip-path="url(#d)" fill="#808080" opacity=".3" stroke="#808080"/>
   </g>
   <g id="da">
    <g id="db">
     <g id="dc">
      <path d="m109.16 523.06v-232.9" clip-path="url(#d)" fill="none" stroke="#b0b0b0" stroke-linecap="square" stroke-opacity=".3" stroke-width=".8"/>
     </g>
     <g id="dd">
      <use x="109.164773" y="523.055464" stroke="#000000" stroke-width=".8" xlink:href="#g"/>
     </g>
     <g id="de">
      <!-- 2025-07-01 -->
      <g transform="translate(62.375 563.33) rotate(-30) scale(.1 -.1)">
       <defs>
        <path id="i" transform="scale(.015625)" d="m301 1536v544h1689v-544h-1689z"/>
       </defs>
       <use xlink:href="#b"/>
       <use transform="translate(57)" xlink:href="#a"/>
       <use transform="translate(114)" xlink:href="#b"/>
       <use transform="translate(171)" xlink:href="#h"/>
       <use transform="translate(228)" xlink:href="#i"/>
       <use transform="translate(263.7)" xlink:href="#a"/>
       <use transform="translate(320.7)" xlink:href="#j"/>
       <use transform="translate(377.7)" xlink:href="#i"/>
       <use transform="translate(413.4)" xlink:href="#a"/>
       <use transform="translate(470.4)" xlink:href="#e"/>
      </g>
     </g>
    </g>
    <g id="df">
     <g id="dg">
      <path d="m207.95 523.06v-232.9" clip-path="url(#d)" fill="none" stroke="#b0b0b0" stroke-linecap="square" stroke-opacity=".3" stroke-width=".8"/>
     </g>
     <g id="dh">
      <use x="207.949896" y="523.055464" stroke="#000000" stroke-width=".8" xlink:href="#g"/>
     </g>
     <g id="di">
      <!-- 2025-07-03 -->
      <g transform="translate(161.16 563.33) rotate(-30) scale(.1 -.1)">
       <use xlink:href="#b"/>
       <use transform="translate(57)" xlink:href="#a"/>
       <use transform="translate(114)" xlink:href="#b"/>
       <use transform="translate(171)" xlink:href="#h"/>
       <use transform="translate(228)" xlink:href="#i"/>
       <use transform="translate(263.7)" xlink:href="#a"/>
       <use transform="translate(320.7)" xlink:href="#j"/>
       <use transform="translate(377.7)" xlink:href="#i"/>
       <use transform="translate(413.4)" xlink:href="#a"/>
       <use transform="translate(470.4)" xlink:href="#l"/>
      </g>
     </g>
    </g>
    <g id="dj">
     <g id="dk">
      <path d="m306.74 523.06v-232.9" clip-path="url(#d)" fill="none" stroke="#b0b0b0" stroke-linecap="square" stroke-opacity=".3" stroke-width=".8"/>
     </g>
     <g id="dl">
      <use x="306.735019" y="523.055464" stroke="#000000" stroke-width=".8" xlink:href="#g"/>
     </g>
     <g id="dm">
      <!-- 2025-07-05 -->
      <g transform="translate(259.95 563.33) rotate(-30) scale(.1 -.1)">
       <use xlink:href="#b"/>
       <use transform="translate(57)" xlink:href="#a"/>
       <use transform="translate(114)" xlink:href="#b"/>
       <use transform="translate(171)" xlink:href="#h"/>
       <use transform="translate(228)" xlink:href="#i"/>
       <use transform="translate(263.7)" xlink:href="#a"/>
       <use transform="translate(320.7)" xlink:href="#j"/>
       <use transform="translate(377.7)" xlink:href="#i"/>
       <use transform="translate(413.4)" xlink:href="#a"/>
       <use transform="translate(470.4)" xlink:href="#h"/>
      </g>
     </g>
    </g>
    <g id="dn">
     <g id="do">
      <path d="m405.52 523.06v-232.9" clip-path="url(#d)" fill="none" stroke="#b0b0b0" stroke-linecap="square" stroke-opacity=".3" stroke-width=".8"/>
     </g>
     <g id="dp">
      <use x="405.520142" y="523.055464" stroke="#000000" stroke-width=".8" xlink:href="#g"/>
     </g>
     <g id="dq">
      <!-- 2025-07-07 -->
      <g transform="translate(358.73 563.33) rotate(-30) scale(.1 -.1)">
       <use xlink:href="#b"/>
       <use transform="translate(57)" xlink:href="#a"/>
       <use transform="translate(114)" xlink:href="#b"/>
       <use transform="translate(171)" xlink:href="#h"/>
       <use transform="translate(228)" xlink:href="#i"/>
       <use transform="translate(263.7)" xlink:href="#a"/>
       <use transform="translate(320.7)" xlink:href="#j"/>
       <use transform="translate(377.7)" xlink:href="#i"/>
       <use transform="translate(413.4)" xlink:href="#a"/>
       <use transform="translate(470.4)" xlink:href="#j"/>
      </g>
     </g>
    </g>
    <g id="dr">
     <g id="ds">
      <path d="m504.31 523.06v-232.9" clip-path="url(#d)" fill="none" stroke="#b0b0b0" stroke-linecap="square" stroke-opacity=".3" stroke-width=".8"/>
     </g>
     <g id="dt">
      <use x="504.305265" y="523.055464" stroke="#000000" stroke-width=".8" xlink:href="#g"/>
     </g>
     <g id="du">
      <!-- 2025-07-09 -->
      <g transform="translate(457.52 563.33) rotate(-30) scale(.1 -.1)">
       <use xlink:href="#b"/>
       <use transform="translate(57)" xlink:href="#a"/>
       <use transform="translate(114)" xlink:href="#b"/>
       <use transform="translate(171)" xlink:href="#h"/>
       <use transform="translate(228)" xlink:href="#i"/>
       <use transform="translate(263.7)" xlink:href="#a"/>
       <use transform="translate(320.7)" xlink:href="#j"/>
       <use transform="translate(377.7)" xlink:href="#i"/>
       <use transform="translate(413.4)" xlink:href="#a"/>
       <use transform="translate(470.4)" xlink:href="#m"/>
      </g>
     </g>
    </g>
    <g id="dv">
     <g id="dw">
      <path d="m603.09 523.06v-232.9" clip-path="url(#d)" fill="none" stroke="#b0b0b0" stroke-linecap="square" stroke-opacity=".3" stroke-width=".8"/>
     </g>
     <g id="dx">
      <use x="603.090389" y="523.055464" stroke="#000000" stroke-width=".8" xlink:href="#g"/>
     </g>
     <g id="dy">
      <!-- 2025-07-11 -->
      <g transform="translate(556.3 563.33) rotate(-30) scale(.1 -.1)">
       <use xlink:href="#b"/>
       <use transform="translate(57)" xlink:href="#a"/>
       <use transform="translate(114)" xlink:href="#b"/>
       <use transform="translate(171)" xlink:href="#h"/>
       <use transform="translate(228)" xlink:href="#i"/>
       <use transform="translate(263.7)" xlink:href="#a"/>
       <use transform="translate(320.7)" xlink:href="#j"/>
       <use transform="translate(377.7)" xlink:href="#i"/>
       <use transform="translate(413.4)" xlink:href="#e"/>
       <use transform="translate(470.4)" xlink:href="#e"/>
      </g>
     </g>
    </g>
    <g id="dz">
     <g id="ea">
      <path d="m701.88 523.06v-232.9" clip-path="url(#d)" fill="none" stroke="#b0b0b0" stroke-linecap="square" stroke-opacity=".3" stroke-width=".8"/>
     </g>
     <g id="eb">
      <use x="701.875512" y="523.055464" stroke="#000000" stroke-width=".8" xlink:href="#g"/>
     </g>
     <g id="ec">
      <!-- 2025-07-13 -->
      <g transform="translate(655.09 563.33) rotate(-30) scale(.1 -.1)">
       <use xlink:href="#b"/>
       <use transform="translate(57)" xlink:href="#a"/>
       <use transform="translate(114)" xlink:href="#b"/>
       <use transform="translate(171)" xlink:href="#h"/>
       <use transform="translate(228)" xlink:href="#i"/>
       <use transform="translate(263.7)" xlink:href="#a"/>
       <use transform="translate(320.7)" xlink:href="#j"/>
       <use transform="translate(377.7)" xlink:href="#i"/>
       <use transform="translate(413.4)" xlink:href="#e"/>
       <use transform="translate(470.4)" xlink:href="#l"/>
      </g>
     </g>
    </g>
    <g id="ed">
     <g id="ee">
      <path d="m800.66 523.06v-232.9" clip-path="url(#d)" fill="none" stroke="#b0b0b0" stroke-linecap="square" stroke-opacity=".3" stroke-width=".8"/>
     </g>
     <g id="ef">
      <use x="800.660635" y="523.055464" stroke="#000000" stroke-width=".8" xlink:href="#g"/>
     </g>
     <g id="eg">
      <!-- 2025-07-15 -->
      <g transform="translate(753.87 563.33) rotate(-30) scale(.1 -.1)">
       <use xlink:href="#b"/>
       <use transform="translate(57)" xlink:href="#a"/>
       <use transform="translate(114)" xlink:href="#b"/>
       <use transform="translate(171)" xlink:href="#h"/>
       <use transform="translate(228)" xlink:href="#i"/>
       <use transform="translate(263.7)" xlink:href="#a"/>
       <use transform="translate(320.7)" xlink:href="#j"/>
       <use transform="translate(377.7)" xlink:href="#i"/>
       <use transform="translate(413.4)" xlink:href="#e"/>
       <use transform="translate(470.4)" xlink:href="#h"/>
      </g>
     </g>
    </g>
   </g>
   <g id="eh">
    <g id="ei">
     <g id="ej">
      <path d="m52 512.89h801.2" clip-path="url(#d)" fill="none" stroke="#b0b0b0" stroke-linecap="square" stroke-opacity=".3" stroke-width=".8"/>
     </g>
     <g id="ek">
      <use x="52" y="512.892993" stroke="#000000" stroke-width=".8" xlink:href="#f"/>
     </g>
     <g id="el">
      <!-- 104700 -->
      <g transform="translate(10.8 516.88) scale(.1 -.1)">
       <use xlink:href="#e"/>
       <use transform="translate(57)" xlink:href="#a"/>
       <use transform="translate(114)" xlink:href="#r"/>
       <use transform="translate(171)" xlink:href="#j"/>
       <use transform="translate(228)" xlink:href="#a"/>
       <use transform="translate(285)" xlink:href="#a"/>
      </g>
     </g>
    </g>
    <g id="em">
     <g id="en">
      <path d="m52 487.47h801.2" clip-path="url(#d)" fill="none" stroke="#b0b0b0" stroke-linecap="square" stroke-opacity=".3" stroke-width=".8"/>
     </g>
     <g id="eo">
      <use x="52" y="487.465626" stroke="#000000" stroke-width=".8" xlink:href="#f"/>
     </g>
     <g id="ep">
      <!-- 105000 -->
      <g transform="translate(10.8 491.45) scale(.1 -.1)">
       <use xlink:href="#e"/>
       <use transform="translate(57)" xlink:href="#a"/>
       <use transform="translate(114)" xlink:href="#h"/>
       <use transform="translate(171)" xlink:href="#a"/>
       <use transform="translate(228)" xlink:href="#a"/>
       <use transform="translate(285)" xlink:href="#a"/>
      </g>
     </g>
    </g>
    <g id="eq">
     <g id="er">
      <path d="m52 462.04h801.2" clip-path="url(#d)" fill="none" stroke="#b0b0b0" stroke-linecap="square" stroke-opacity=".3" stroke-width=".8"/>
     </g>
     <g id="es">
      <use x="52" y="462.038258" stroke="#000000" stroke-width=".8" xlink:href="#f"/>
     </g>
     <g id="et">
      <!-- 105300 -->
      <g transform="translate(10.8 466.02) scale(.1 -.1)">
       <use xlink:href="#e"/>
       <use transform="translate(57)" xlink:href="#a"/>
       <use transform="translate(114)" xlink:href="#h"/>
       <use transform="translate(171)" xlink:href="#l"/>
       <use transform="translate(228)" xlink:href="#a"/>
       <use transform="translate(285)" xlink:href="#a"/>
      </g>
     </g>
    </g>
    <g id="eu">
     <g id="ev">
      <path d="m52 436.61h801.2" clip-path="url(#d)" fill="none" stroke="#b0b0b0" stroke-linecap="square" stroke-opacity=".3" stroke-width=".8"/>
     </g>
     <g id="ew">
      <use x="52" y="436.610891" stroke="#000000" stroke-width=".8" xlink:href="#f"/>
     </g>
     <g id="ex">
      <!-- 105600 -->
      <g transform="translate(10.8 440.6) scale(.1 -.1)">
       <use xlink:href="#e"/>
       <use transform="translate(57)" xlink:href="#a"/>
       <use transform="translate(114)" xlink:href="#h"/>
       <use transform="translate(171)" xlink:href="#k"/>
       <use transform="translate(228)" xlink:href="#a"/>
       <use transform="translate(285)" xlink:href="#a"/>
      </g>
     </g>
    </g>
    <g id="ey">
     <g id="ez">
      <path d="m52 411.18h801.2" clip-path="url(#d)" fill="none" stroke="#b0b0b0" stroke-linecap="square" stroke-opacity=".3" stroke-width=".8"/>
     </g>
     <g id="fa">
      <use x="52" y="411.183524" stroke="#000000" stroke-width=".8" xlink:href="#f"/>
     </g>
     <g id="fb">
      <!-- 105900 -->
      <g transform="translate(10.8 415.17) scale(.1 -.1)">
       <use xlink:href="#e"/>
       <use transform="translate(57)" xlink:href="#a"/>
       <use transform="translate(114)" xlink:href="#h"/>
       <use transform="translate(171)" xlink:href="#m"/>
       <use transform="translate(228)" xlink:href="#a"/>
       <use transform="translate(285)" xlink:href="#a"/>
      </g>
     </g>
    </g>
    <g id="fc">
     <g id="fd">
      <path d="m52 385.76h801.2" clip-path="url(#d)" fill="none" stroke="#b0b0b0" stroke-linecap="square" stroke-opacity=".3" stroke-width=".8"/>
     </g>
     <g id="fe">
      <use x="52" y="385.756157" stroke="#000000" stroke-width=".8" xlink:href="#f"/>
     </g>
     <g id="ff">
      <!-- 106200 -->
      <g transform="translate(10.8 389.74) scale(.1 -.1)">
       <use xlink:href="#e"/>
       <use transform="translate(57)" xlink:href="#a"/>
       <use transform="translate(114)" xlink:href="#k"/>
       <use transform="translate(171)" xlink:href="#b"/>
       <use transform="translate(228)" xlink:href="#a"/>
       <use transform="translate(285)" xlink:href="#a"/>
      </g>
     </g>
    </g>
    <g id="fg">
     <g id="fh">
      <path d="m52 360.33h801.2" clip-path="url(#d)" fill="none" stroke="#b0b0b0" stroke-linecap="square" stroke-opacity=".3" stroke-width=".8"/>
     </g>
     <g id="fi">
      <use x="52" y="360.32879" stroke="#000000" stroke-width=".8" xlink:href="#f"/>
     </g>
     <g id="fj">
      <!-- 106500 -->
      <g transform="translate(10.8 364.31) scale(.1 -.1)">
       <use xlink:href="#e"/>
       <use transform="translate(57)" xlink:href="#a"/>
       <use transform="translate(114)" xlink:href="#k"/>
       <use transform="translate(171)" xlink:href="#h"/>
       <use transform="translate(228)" xlink:href="#a"/>
       <use transform="translate(285)" xlink:href="#a"/>
      </g>
     </g>
    </g>
    <g id="fk">
     <g id="fl">
      <path d="m52 334.9h801.2" clip-path="url(#d)" fill="none" stroke="#b0b0b0" stroke-linecap="square" stroke-opacity=".3" stroke-width=".8"/>
     </g>
     <g id="fm">
      <use x="52" y="334.901422" stroke="#000000" stroke-width=".8" xlink:href="#f"/>
     </g>
     <g id="fn">
      <!-- 106800 -->
      <g transform="translate(10.8 338.89) scale(.1 -.1)">
       <use xlink:href="#e"/>
       <use transform="translate(57)" xlink:href="#a"/>
       <use transform="translate(114)" xlink:href="#k"/>
       <use transform="translate(171)" xlink:href="#q"/>
       <use transform="translate(228)" xlink:href="#a"/>
       <use transform="translate(285)" xlink:href="#a"/>
      </g>
     </g>
    </g>
    <g id="fo">
     <g id="fp">
      <path d="m52 309.47h801.2" clip-path="url(#d)" fill="none" stroke="#b0b0b0" stroke-linecap="square" stroke-opacity=".3" stroke-width=".8"/>
     </g>
     <g id="fq">
      <use x="52" y="309.474055" stroke="#000000" stroke-width=".8" xlink:href="#f"/>
     </g>
     <g id="fr">
      <!-- 107100 -->
      <g transform="translate(10.8 313.46) scale(.1 -.1)">
       <use xlink:href="#e"/>
       <use transform="translate(57)" xlink:href="#a"/>
       <use transform="translate(114)" xlink:href="#j"/>
       <use transform="translate(171)" xlink:href="#e"/>
       <use transform="translate(228)" xlink:href="#a"/>
       <use transform="translate(285)" xlink:href="#a"/>
      </g>
     </g>
    </g>
   </g>
   <g id="fs">
    <path d="m88.418 512.47h.18408l.53852-.33903h.48535l1.5429-.5933.53337-.33903 1.5126-.25427 1.029.16952.51451-.25427.51451-.42379h.51451l1.029-1.1019 1.029-.16952 1.029-.76282 1.5435.16952.51451-.084757.51451-.33903.51451-.50855.51451-.84758 1.029-.76282h.51451l1.029-.76282.51451-.50855.51451-1.0171.5145-1.2714.51451-.76282 1.5435-1.1866.51451-.25427.51451.084758.5145-.42379h1.5435l.51451-.33903h.51451l.51451-.42379.5145-.25427 2.5725-.50855.5145.16952.51451-.084758.51451.084758 2.5725-.33903 2.058-.084758 1.5435-.16952 6.6886-.084758 1.029-.084758h.51451l.51451-.16952h1.029l.51451-.33903 1.5435-.42379 1.029-.25427 1.029-.33903h.51451l1.029-.50855 1.5435-.33903 2.5725-.93234 1.029-.42379 1.029-.25427m1.029-.50855.51451-.33903.5145-.76282.51451-.42379 1.5435-.33903 1.029-.33903 1.029-.67806.51451-1.1019.51451-.33903 1.029-1.7799h.5145l1.029-1.1866.51451-.25427.51451-.5933 2.058-1.3561.51451.084758 1.5435-1.0171.51451-.16952 1.029-.084758 1.5435-.25427.51451.16952h.5145l1.029-.5933 1.029-.16952.51451.084758.51451-.16952.5145.084758 2.5725-.33903 1.029.084758 1.029-.084758 1.029.084758h3.087l1.029-.25427 1.029.25427.51451.084758 1.5435-.42379h.51451l.5145-.16952h.51451l.51451-.33903 1.029-.25427.51451-.42379 2.058.084758.51451.084758.51451-.084758.51451-.25427 1.5435-.16952.51451.16952 1.5435-.16952h.5145l1.5435-.93234.51451-.084758.51451-.33903.5145.084758 1.029-.16952.51451.084757.51451-.33903.51451-.16952h1.029l.51451-.5933 1.029-.5933.51451-.59331 1.5435-.5933 1.029-.5933.51451-.84758.51451-.084758.51451-.33903.5145-.93234 1.5435-1.4409.51451-.16952.51451.25427.51451-.16952.5145-.42379 2.058-.5933.51451-.084758.51451.084758.5145-.25427 1.029.084758h2.5725l.51451-.16952 1.029.16952 1.5435-.16952 3.6015-.084757.51451.25427h.51451l2.058-.5933 1.2005-.084758.1715-.084758.51451.16952h.85751l.1715-.16952 1.5435.084758.1715.16952 1.029-.084758.343-.084758h.343l.1715-.16952.1715.16952.85751-.084758.1715-.16952.51451.084758.343.084758.343-.084758 1.5435-.084758.343-.25427.1715-.16952.1715.16952.343.084758.1715.084758.85751-.33903.343.084758.68601-.25427 1.2005.084758.1715.16952h.1715l.343-.33903h.1715l.343-.42379.68601-.42379.343-.25427h1.8865l.1715-.16952 1.029-.084758 1.715-.76282h.51451l.1715-.16952.343-.084758.1715-.25427.1715.16952.1715-.084758.1715.16952.5145-.50855.51451-.084758.1715-.16952h.51451l.1715-.16952h.1715l.51451-.76282.51451-.084758.343-.16952.343-.84758 1.2005-1.1866.1715.16952.343-.16952.1715-.25427h.1715l.1715.16952.343-.084758.343-.5933h.343l.1715-.50855.1715.084758.85751-.33903h.1715l.1715-.33903.85751-.42379.1715.084757 1.2005-.50855h.68601l.343-.33903.343-.084757.51451-.16952 1.2005-.084758.343-.084758 2.2295-.084758.343-.084758 3.773-.084758.343-.084758 2.744-.084757.85751-.33903 4.116-.084758 1.372-.33903.343-.25427 2.401.084758.343.16952 1.372-.25427 1.715-.084758.68601-.42379 1.029-.084758.68601-.33903h.343l.68601-.25427h.343l.68601-.76282 1.715-.33903.343-.33903 2.058-.50855.343.084758.343-.16952.68601-.084758 1.029-.25427.343.084758.343-.25427.343-.084758.68601-.5933.343-.084758.68601-.84758.343-.25427h.343l1.372-.84758 1.715-.42379 1.372-1.4409.343-.50855h.343l1.029-1.0171h.343l.343-.25427.343-.42379.68601-.33903.343.084758.68601-.76282.68601-.67806.343-.25427h.343l.343-.50855 1.372-.25427h2.401l.343-.16952h.343l.343-.16952 1.372-.16952 1.029-.084758 2.744-.59331 3.43.084758.68601.084758 1.029-.084758.343-.25427 1.029.16952.343-.084757.68601.084757h1.715l1.029-.42379h1.372l.68601-.33903h1.029l.343-.16952 1.029-.084758.343-.084758.343.084758.343-.16952.343.084758 1.029-.25427.343-.25427.343.084757.68601-.76282.343-.42379.68601.25427.343-.25427h.68601l.68601-.33903 1.029-.084757.68601-.76282h.343l.68601-.25427.343.084758.343-.33903.343-.084758.343.084758.343-.084758.343.16952.343-.16952.343.084758.343-.084758 1.029-.76282h.343l.343-.16952.68601-1.1019.343-.42379 1.029-.5933.343-.67806.343-.084758 1.029-1.0171.343.084757 1.029-.67806.68601-1.3561.68601-.084758.68601-.76282 1.372-.42379.343-.25427.343-.084758.343-.25427 1.372-.42379.68601-.76282.68601-.084758 1.372-.25427.343-.42379 2.401-.084758.68601-.25427 1.029-.084758 1.029-.25427.343.084758.68601-.084758 1.029.084758.68601.084758.68601-.33903 1.372.084758.343.25427h3.087l.68601-.42379h.343l.68601-.25427 1.372.084758.68601.084758.343-.16952h.343l.343-.33903h.343l.343-.25427 1.372-.42379.343-.16952.68601-.084758.343-.33903.343-.50855 1.372-.25427h.343l.68601.25427h.343l.68601-.25427.343-.42379 1.715-.50855.343-.16952 1.029-.084758.343-.16952 1.029.16952 1.029-.084758.68601-.25427.68601-.16952 1.715-1.2714.343-.084758.343.084758.343-.25427h.68601l.343-.42379.68601-.33903.68601-.67806 1.029.084757.343-.33903.343-.16952.343.084758.68601-.50855.343-.50855.343.16952.343-.33903.343-.084758.343.25427.343-.33903.68601.16952.68601-.50855.343-.084758.343-.25427.68601.084757.343-.25427h.343l.343.16952.343-.084758.343-.42379.343.084758 1.029-.25427.343.084758.343-.084758.68601.084758 2.401.084758.343.25427 2.401-.084758.68601-.084758 1.715.084758.343.16952.343-.16952h1.372l.343-.16952 1.029.084758.68601.084758 3.087-.084758.68601-.084758 1.372.084758.343-.25427 1.372-.25427.343.16952.343-.25427.68601-.084758 1.029.16952.343-.25427.68601-.084758h.343l.68601-.25427 3.773-.084758.68601-.25427.68601-.33903 1.715-.084757.68601-.33903.343-.33903 1.372-.5933.68601.084758 1.372-1.0171.343.16952.343-.16952.343-.50855 1.029-.5933.343-.25427h.343l.68601-1.0171 1.029-.76282.343-.50855h.343l.68601-.76282.343.16952.68601-.084758.343-.50855.343.084758.343-.33903 1.029-.50855.343-.50855h.343l.68601-.42379 1.029-.42379 1.372-.084758 1.029-.42379 2.058.084758.68601.084758 2.401.084758.68601.084758 1.372-.16952.343-.084758.343.084758.68601-.084758h3.43l.343-.16952 1.029-.084758.68601-.084758 1.372-.084758.343-.084757 1.029.33903.68601-.25427 1.715-.084757 1.029-.16952.68601-.084758.343-.16952 2.058.084758.343-.25427 1.029-.25427.68601-.42379h.343l.343-.16952.343-.33903.343-.16952.343.084758 1.029-.25427.68601.16952.68601-.084758.343.084758 2.058-1.0171.68601-.084757 1.029-.25427.343-.25427.68601-.084758.343-.50855.343-.16952.343.084758.343-.33903.343-.084757.343-.67806.343-.42379.343-.84758.343-.33903h.343l.343-.16952.68601-.5933.343-.16952.343-.5933 2.058-1.5256 1.029-1.0171.343-.5933 1.372-.42379.343.16952.343-.084758.343-.25427.343-.084758.343-.33903h.343l.343-.16952.343.084758 2.401-.50855 1.029-.084758.68601-.16952.68601.084758 2.058-.084758.343-.084758.343.084758.68601-.084758.68601.084758 2.058-.084758.343-.084758.68601.084758 1.372-.084758 2.058-.42379m.68601.25427.343-.16952h.343l.343-.16952h3.773l.343-.25427 1.372-.16952.343-.084758.343.084758.68601-.42379.343.084758.68601-.084758.343.084758.343-.16952.68601.16952.343-.16952 1.029-.084758.68601-.33903.68601.33903.68601-.42379 1.029-.33903 1.029-.42379.343-.42379.343-.16952h.343l.343-.25427h.68601l.68601-.5933.68601.33903.343-.33903.343-.59331.68601-.33903h.343l1.372-.76282.68601-.59331.68601-.16952.343-.59331.343-.25427.343-.76282.343-.33903.343-.16952.343-.33903h.343l.68601-.67806 1.029-.33903.343-.16952.343-.33903 1.372-.5933.343.084757.343-.25427.68601.16952.343-.33903h.68601l.343-.25427 1.029-.084758 1.372-.16952.343-.084758.343.084758 1.372-.67806 1.715-.084758.343-.084758 1.029.16952 1.715-.084758.343-.084758.68601.16952 1.029-.16952.343.084758.343-.084758 1.029.16952h.68601l.343-.33903 2.744-.084758 1.029-.16952 1.029.16952 1.372-.084758.343-.25427 1.029-.084758 1.029-.42379 1.372-.25427.68601-.084758 1.715-.33903 1.029-.084758.343-.16952h.343l.343-.33903h.343l.68601-.84758.68601-.42379.343-.25427 1.372-.33903.343-.42379.343-.16952h.343l1.029-.42379h.343l.343-.33903.68601-.084758.68601-.84758.68601-.42379.343-.33903.68601-.42379.343-.33903.343-.16952.343-.33903.343-.084758.343-.33903.343-.084758.343-.33903.343-.16952.68601-.84758.343.084758.68601-1.2714.343-.33903.343-.16952.68601-.084757.343-.59331h.343l.68601-.33903.343-.33903h.343l.68601-.33903.343-.50855.343-.084758.68601-.42379.68601.084758.343-.42379.68601-.25427 1.715-.084758.343.33903.68601.084758h.343l.343-.25427 1.029-.16952 2.058-.084758.68601-.084758.343-.33903 1.029-.084757.68601-.084758 6.8601-.084758.68601-.16952.343.084758 2.058-.5933.343-.16952h.343l.343-.16952h.343l.343-.16952 1.029.16952.68601-.084758h.68601l.68601-.25427.343-.42379 1.372-.5933h.68601l.68601-.33903.343.084758.68601-.25427.343.16952.343-.16952.68601-.084758.343-.33903 1.029-.50855h.343l.68601-.25427.343.16952.68601-.25427.343-.42379 1.715-.76282.343.084758 1.029-.42379.343.084758.343-.25427h.343l1.372-.93234.343-.16952 1.715-1.6104h.343l.343-.33903.343-.084758 1.715-2.6275.68601-.084758.343-.33903.343-.16952.343-.59331.343-.33903.68601-.25427.343-.33903.343-.084757.68601-.59331.343-.33903 1.029-.25427.68601-.42379 2.058-.42379.343.084758.68601-.084758 1.029.16952 1.715-.084758.68601-.084758 1.715-.084758.68601-.084758.68601.084758 1.029.084758 1.029.16952.343-.16952.68601.084758 1.372.25427.343-.16952.343.16952.68601-.084758.343-.33903 1.372-.33903.68601.16952 1.372-.50855h.343l.343-.16952.68601-.084757 2.058-.42379.343.084758.343-.16952h.343l.343-.33903.343-.16952.343-.33903h.343l1.715-.76282 1.715-.42379.343-.42379.68601.084758.68601-.67806.68601-.42379.343.084758.343-.084758.343-.33903.68601.5933.68601.25427 1.715-.42379.343-.42379.343-.084758.68601-.5933h.343l.68601-.33903.343.084758.343-.42379.343-.16952.68601-.67806.343-.5933.68601-.59331.343-.5933.343-.16952.68601-.84758h.343l.68601-.76282.343.084757.68601-.50855.343-.84758.343-.084758.343-.5933.343-.084758.343-.33903.343-.67806.68601-.42379.68601-.084758.68601-.76282.68601-.084758.68601-.50855.343-.50855.343-.084758.343-.25427.343-.084758 1.029-1.0171.68601-.084757 1.372.33903.343-.25427.343-.084757 1.029.16952 2.058-.084758 1.372-.25427 2.401-.084758 1.029-.16952 2.401-.084758 1.372-.25427h1.029l.68601-.33903.343.084758.343-.084758.343.084758.343-.084758.68601.084758.68601-.084758.68601.084758.343-.25427 1.372-.33903.343-.25427h.343l.68601-.42379.68601-.25427.343-.16952.68601.084758 1.715-.42379.343-.33903.68601-.16952.343.084758.343.33903.343.084757.343-.16952.343.084758 1.029-.76282.343.16952.343-.084758.68601-.50855.68601.084758h.343l.343-.33903.343.084758.68601-.5933h.68601l.68601-.25427.343.084758.343-.084758.343.084758 1.029-.93234 1.029-.67806.68601-.84758.343-.084757.343-.67806.343.084758.343-.50855.343-.084758.343-.50855.68601-.33903.68601-.76282h.343l.343-.5933.343-.084758.68601-.67806.343.16952 1.372-.59331.68601.25427.68601-.25427 2.058-.42379 1.372-.084758 1.715-.33903 1.372-.16952 1.715-.084758 2.058-.42379h2.401l.343.16952h.68601l.68601.16952.343-.16952h.68601l.343-.16952.343.084758 1.372-.33903.68601.084758h.343l.343-.25427 3.087-.084758 1.029-.50855 1.715-.084758.68601-.25427.343.16952.343-.25427.68601-.084758h.343l.343-.16952 1.029.084758.68601.25427.68601-.084758.343-.16952.68601.084757.343-.16952.343.084758 1.372-.42379.343-.33903.343-.16952.343.25427.343-.25427.343-.084758.343-.25427h.68601l.343-.25427h.343l.343-.50855.343.25427h.343l.343-.84758 1.029-.5933.68601-.42379.343-.16952.68601-1.2714.343.16952.343-.16952h.343l1.372-1.4409.343.084758.68601-.5933.343-.59331.343.16952.343-.25427.343-.084757.343-.25427.343-.084758.343-.42379.68601.084757.343-.16952.343-.33903.343-.084758.343-.42379.343-.16952.343.084758 2.401-1.1019 1.715-.084758 1.029-.16952h1.029l.343-.16952 2.058-.084758 1.372-.33903.68601.084758h.343l.343-.16952 1.029.084757v0" clip-path="url(#d)" fill="none" stroke="#28f" stroke-linecap="square" stroke-width="1.5"/>
   </g>
   <g id="ft">
    <path d="m52 523.06v-232.9" fill="none" stroke="#000" stroke-linecap="square" stroke-width=".8"/>
   </g>
   <g id="fu">
    <path d="m853.2 523.06v-232.9" fill="none" stroke="#000" stroke-linecap="square" stroke-width=".8"/>
   </g>
   <g id="fv">
    <path d="m52 523.06h801.2" fill="none" stroke="#000" stroke-linecap="square" stroke-width=".8"/>
   </g>
   <g id="fw">
    <path d="m52 290.16h801.2" fill="none" stroke="#000" stroke-linecap="square" stroke-width=".8"/>
   </g>
   <g id="fx">
    <!-- サーバー数の推移 -->
    <g transform="translate(404.6 284.16) scale(.12 -.12)">
     <defs>
      <path id="z" transform="scale(.015625)" d="m4685 2893q0-621-84-1111-83-489-288-877-204-387-569-691t-928-560l-544 512q448 167 781 371 333 205 550 503 218 298 323 739 106 442 106 1075v1620q0 192-10 339-9 147-22 217h723q-6-70-22-217t-16-339v-1581zm-2304 2086q-7-64-23-199-16-134-16-313v-2317q0-128 6-256 7-128 13-224 7-96 13-140h-710q6 44 12 140 7 96 13 221 7 125 7 259v2317q0 122-10 256-9 135-28 256h723zm-1978-1197q45-12 144-22t237-20q138-9 285-9h4217q237 0 394 13t246 26v-679q-76 7-240 13-163 6-393 6h-4224q-147 0-282-3-134-3-234-10-99-6-150-12v697z"/>
      <path id="s" transform="scale(.015625)" d="m621 2854q109-6 265-16 157-9 339-16 183-6 349-6 128 0 352 0t509 0 598 0q314 0 624 0 311 0 586 0t486 0q212 0 327 0 230 0 416 16t301 22v-793q-109 6-308 19-198 13-409 13-109 0-324 0-214 0-489 0t-586 0q-310 0-624 0-313 0-598 0t-509 0-352 0q-262 0-525-10-262-9-428-22v793z"/>
      <path id="y" transform="scale(.015625)" d="m4941 5037q83-109 176-269t182-320q90-160 154-288l-416-179q-96 192-240 448t-272 435l416 173zm723 275q83-122 182-282 100-160 196-317 96-156 153-271l-416-186q-102 205-246 454-144 250-279 429l410 173zm-4339-3360q102 262 201 556 100 295 183 612t144 630q61 314 93 602l723-147q-19-83-45-183-26-99-48-195t-42-166q-32-154-86-394t-131-512-164-551q-86-278-182-514-115-301-269-618-153-317-326-618-173-300-346-550l-697 294q301 397 563 874t429 880zm3155 198q-96 250-215 531-118 282-243 567-124 285-246 534-122 250-224 429l659 218q96-179 221-429t253-535q128-284 249-566 122-281 218-525 90-230 195-518 106-288 211-592 106-304 195-589 90-285 154-515l-729-237q-84 352-199 736t-240 768-259 723z"/>
     </defs>
     <use xlink:href="#z"/>
     <use transform="translate(100)" xlink:href="#s"/>
     <use transform="translate(200)" xlink:href="#y"/>
     <use transform="translate(300)" xlink:href="#s"/>
     <use transform="translate(400)" xlink:href="#o"/>
     <use transform="translate(500)" xlink:href="#t"/>
     <use transform="translate(600)" xlink:href="#p"/>
     <use transform="translate(700)" xlink:href="#n"/>
    </g>
   </g>
  </g>
 </g>
 <defs>
  <clipPath id="c">
   <rect x="52" y="26.88" width="801.2" height="232.9"/>
  </clipPath>
  <clipPath id="d">
   <rect x="52" y="290.16" width="801.2" height="232.9"/>
  </clipPath>
 </defs>
</svg>
