<!DOCTYPE svg  PUBLIC '-//W3C//DTD SVG 1.1//EN'  'http://www.w3.org/Graphics/SVG/1.1/DTD/svg11.dtd'>
<svg version="1.1" viewBox="0 0 864 576" xmlns="http://www.w3.org/2000/svg" xmlns:xlink="http://www.w3.org/1999/xlink">
 <defs>
  <style type="text/css">*{stroke-linejoin: round; stroke-linecap: butt}</style>
 </defs>
 <g id="aa">
  <g id="ab">
   <path d="m0 576h864v-576h-864z" fill="#fff"/>
  </g>
  <g id="ac">
   <g id="ad">
    <path d="m52 259.78h801.2v-232.9h-801.2z" fill="#fff"/>
   </g>
   <g id="ae">
    <path d="m136.9 259.78h.87108v-232.9h-.87108z" clip-path="url(#c)" fill="#808080" opacity=".3" stroke="#808080"/>
   </g>
   <g id="af">
    <path d="m457.61 259.78h.58072v-232.9h-.58072z" clip-path="url(#c)" fill="#808080" opacity=".3" stroke="#808080"/>
   </g>
   <g id="ag">
    <path d="m803.13 259.78h1.1614v-232.9h-1.1614z" clip-path="url(#c)" fill="#808080" opacity=".3" stroke="#808080"/>
   </g>
   <g id="ah">
    <g id="ai">
     <g id="aj">
      <path d="m105.98 259.78v-232.9" clip-path="url(#c)" fill="none" stroke="#b0b0b0" stroke-linecap="square" stroke-opacity=".3" stroke-width=".8"/>
     </g>
     <g id="ak">
      <defs>
       <path id="e" d="m0 0v3.5" stroke="#000" stroke-width=".8"/>
      </defs>
      <use x="105.980605" y="259.777732" stroke="#000000" stroke-width=".8" xlink:href="#e"/>
     </g>
    </g>
    <g id="al">
     <g id="am">
      <path d="m189.6 259.78v-232.9" clip-path="url(#c)" fill="none" stroke="#b0b0b0" stroke-linecap="square" stroke-opacity=".3" stroke-width=".8"/>
     </g>
     <g id="an">
      <use x="189.604277" y="259.777732" stroke="#000000" stroke-width=".8" xlink:href="#e"/>
     </g>
    </g>
    <g id="ao">
     <g id="ap">
      <path d="m273.23 259.78v-232.9" clip-path="url(#c)" fill="none" stroke="#b0b0b0" stroke-linecap="square" stroke-opacity=".3" stroke-width=".8"/>
     </g>
     <g id="aq">
      <use x="273.227949" y="259.777732" stroke="#000000" stroke-width=".8" xlink:href="#e"/>
     </g>
    </g>
    <g id="ar">
     <g id="as">
      <path d="m356.85 259.78v-232.9" clip-path="url(#c)" fill="none" stroke="#b0b0b0" stroke-linecap="square" stroke-opacity=".3" stroke-width=".8"/>
     </g>
     <g id="at">
      <use x="356.851621" y="259.777732" stroke="#000000" stroke-width=".8" xlink:href="#e"/>
     </g>
    </g>
    <g id="au">
     <g id="av">
      <path d="m440.48 259.78v-232.9" clip-path="url(#c)" fill="none" stroke="#b0b0b0" stroke-linecap="square" stroke-opacity=".3" stroke-width=".8"/>
     </g>
     <g id="aw">
      <use x="440.475293" y="259.777732" stroke="#000000" stroke-width=".8" xlink:href="#e"/>
     </g>
    </g>
    <g id="ax">
     <g id="ay">
      <path d="m524.1 259.78v-232.9" clip-path="url(#c)" fill="none" stroke="#b0b0b0" stroke-linecap="square" stroke-opacity=".3" stroke-width=".8"/>
     </g>
     <g id="az">
      <use x="524.098966" y="259.777732" stroke="#000000" stroke-width=".8" xlink:href="#e"/>
     </g>
    </g>
    <g id="ba">
     <g id="bb">
      <path d="m607.72 259.78v-232.9" clip-path="url(#c)" fill="none" stroke="#b0b0b0" stroke-linecap="square" stroke-opacity=".3" stroke-width=".8"/>
     </g>
     <g id="bc">
      <use x="607.722638" y="259.777732" stroke="#000000" stroke-width=".8" xlink:href="#e"/>
     </g>
    </g>
    <g id="bd">
     <g id="be">
      <path d="m691.35 259.78v-232.9" clip-path="url(#c)" fill="none" stroke="#b0b0b0" stroke-linecap="square" stroke-opacity=".3" stroke-width=".8"/>
     </g>
     <g id="bf">
      <use x="691.34631" y="259.777732" stroke="#000000" stroke-width=".8" xlink:href="#e"/>
     </g>
    </g>
    <g id="bg">
     <g id="bh">
      <path d="m774.97 259.78v-232.9" clip-path="url(#c)" fill="none" stroke="#b0b0b0" stroke-linecap="square" stroke-opacity=".3" stroke-width=".8"/>
     </g>
     <g id="bi">
      <use x="774.969982" y="259.777732" stroke="#000000" stroke-width=".8" xlink:href="#e"/>
     </g>
    </g>
   </g>
   <g id="bj">
    <g id="bk">
     <g id="bl">
      <path d="m52 246.93h801.2" clip-path="url(#c)" fill="none" stroke="#b0b0b0" stroke-linecap="square" stroke-opacity=".3" stroke-width=".8"/>
     </g>
     <g id="bm">
      <defs>
       <path id="h" d="m0 0h-3.5" stroke="#000" stroke-width=".8"/>
      </defs>
      <use x="52" y="246.926099" stroke="#000000" stroke-width=".8" xlink:href="#h"/>
     </g>
     <g id="bn">
      <!-- 300 -->
      <g transform="translate(27.9 250.91) scale(.1 -.1)">
       <defs>
        <path id="n" transform="scale(.015625)" d="m1715-90q-371 0-656 90t-503 240q-217 150-377 323l359 474q211-205 479-359 269-153 634-153 269 0 467 92 199 93 311 266t112 423q0 256-125 451t-429 300q-304 106-835 106v551q467 0 732 105 266 106 384 291 119 186 119 423 0 307-192 489-192 183-531 183-269 0-503-119-233-118-438-316l-384 460q282 256 614 413 333 157 737 157 422 0 748-144 327-144 512-413 186-269 186-659 0-403-221-685-221-281-592-422v-26q269-70 490-227t349-400 128-557q0-422-215-726-214-304-573-468-358-163-787-163z"/>
        <path id="a" transform="scale(.015625)" d="m1830-90q-460 0-806 275-346 276-535 823-188 547-188 1366 0 820 188 1357 189 538 535 803 346 266 806 266 461 0 800-269 340-269 528-803 189-534 189-1354 0-819-189-1366-188-547-528-823-339-275-800-275zm0 589q237 0 422 185 186 186 288 599 103 413 103 1091 0 679-103 1082-102 403-288 582-185 180-422 180-236 0-422-180-186-179-292-582-105-403-105-1082 0-678 105-1091 106-413 292-599 186-185 422-185z"/>
       </defs>
       <use xlink:href="#n"/>
       <use transform="translate(57)" xlink:href="#a"/>
       <use transform="translate(114)" xlink:href="#a"/>
      </g>
     </g>
    </g>
    <g id="bo">
     <g id="bp">
      <path d="m52 220.79h801.2" clip-path="url(#c)" fill="none" stroke="#b0b0b0" stroke-linecap="square" stroke-opacity=".3" stroke-width=".8"/>
     </g>
     <g id="bq">
      <use x="52" y="220.787184" stroke="#000000" stroke-width=".8" xlink:href="#h"/>
     </g>
     <g id="br">
      <!-- 600 -->
      <g transform="translate(27.9 224.77) scale(.1 -.1)">
       <defs>
        <path id="k" transform="scale(.015625)" d="m1971-90q-339 0-634 144-294 144-518 435-224 292-352 733-128 442-128 1044 0 678 147 1161 148 483 397 784 250 301 570 445t665 144q397 0 688-147 292-147 490-359l-403-448q-128 154-327 253-198 99-409 99-307 0-567-182-259-182-413-605-153-422-153-1145 0-608 115-1002t326-589q212-195 493-195 212 0 375 121 163 122 259 343t96 522q0 300-90 511-89 212-259 320-169 109-419 109-211 0-451-134t-458-461l-25 538q134 192 313 323t374 201q196 71 375 71 397 0 694-163 298-163 467-490 170-326 170-825 0-468-195-817-195-348-512-544-317-195-701-195z"/>
       </defs>
       <use xlink:href="#k"/>
       <use transform="translate(57)" xlink:href="#a"/>
       <use transform="translate(114)" xlink:href="#a"/>
      </g>
     </g>
    </g>
    <g id="bs">
     <g id="bt">
      <path d="m52 194.65h801.2" clip-path="url(#c)" fill="none" stroke="#b0b0b0" stroke-linecap="square" stroke-opacity=".3" stroke-width=".8"/>
     </g>
     <g id="bu">
      <use x="52" y="194.648269" stroke="#000000" stroke-width=".8" xlink:href="#h"/>
     </g>
     <g id="bv">
      <!-- 900 -->
      <g transform="translate(27.9 198.63) scale(.1 -.1)">
       <defs>
        <path id="r" transform="scale(.015625)" d="m1562-90q-410 0-708 150-297 151-502 356l403 461q141-160 346-256t422-96q224 0 425 102 202 103 352 333 151 230 237 614 87 384 87 941 0 589-115 970t-323 563-496 182q-205 0-372-118-166-118-262-336t-96-525q0-301 86-512 87-211 259-323 173-112 417-112 224 0 460 141 237 141 448 461l32-544q-134-180-313-314t-371-208-384-74q-391 0-689 166-297 167-467 496-169 330-169 823 0 467 195 816t515 541 698 192q339 0 636-138 298-137 519-419 221-281 349-710t128-1018q0-691-141-1187t-391-807q-249-310-563-461-313-150-652-150z"/>
       </defs>
       <use xlink:href="#r"/>
       <use transform="translate(57)" xlink:href="#a"/>
       <use transform="translate(114)" xlink:href="#a"/>
      </g>
     </g>
    </g>
    <g id="bw">
     <g id="bx">
      <path d="m52 168.51h801.2" clip-path="url(#c)" fill="none" stroke="#b0b0b0" stroke-linecap="square" stroke-opacity=".3" stroke-width=".8"/>
     </g>
     <g id="by">
      <use x="52" y="168.509354" stroke="#000000" stroke-width=".8" xlink:href="#h"/>
     </g>
     <g id="bz">
      <!-- 1200 -->
      <g transform="translate(22.2 172.49) scale(.1 -.1)">
       <defs>
        <path id="f" transform="scale(.015625)" d="m544 0v608h1037v3277h-845v467q333 58 579 147 247 90 451 218h557v-4109h915v-608h-2694z"/>
        <path id="b" transform="scale(.015625)" d="m282 0v429q697 621 1164 1136 468 515 701 956 234 442 234 826 0 256-87 451-86 196-262 301-176 106-445 106-275 0-506-151-230-150-422-368l-416 410q301 333 637 518 336 186 803 186 429 0 749-176t496-493 176-745q0-455-224-919t-615-935q-390-470-889-950 186 20 394 36t374 16h1184v-634h-3046z"/>
       </defs>
       <use xlink:href="#f"/>
       <use transform="translate(57)" xlink:href="#b"/>
       <use transform="translate(114)" xlink:href="#a"/>
       <use transform="translate(171)" xlink:href="#a"/>
      </g>
     </g>
    </g>
    <g id="ca">
     <g id="cb">
      <path d="m52 142.37h801.2" clip-path="url(#c)" fill="none" stroke="#b0b0b0" stroke-linecap="square" stroke-opacity=".3" stroke-width=".8"/>
     </g>
     <g id="cc">
      <use x="52" y="142.370439" stroke="#000000" stroke-width=".8" xlink:href="#h"/>
     </g>
     <g id="cd">
      <!-- 1500 -->
      <g transform="translate(22.2 146.36) scale(.1 -.1)">
       <defs>
        <path id="j" transform="scale(.015625)" d="m1715-90q-365 0-653 90t-506 237q-217 147-383 307l352 480q134-134 294-246t361-183q202-70 452-70 262 0 473 118 212 119 333 346 122 227 122 541 0 460-247 716-246 256-649 256-224 0-384-64t-365-198l-365 237 141 2240h2387v-627h-1747l-109-1204q154 77 307 118 154 42 340 42 397 0 723-160t518-490q192-329 192-847 0-519-224-887t-586-560q-361-192-777-192z"/>
       </defs>
       <use xlink:href="#f"/>
       <use transform="translate(57)" xlink:href="#j"/>
       <use transform="translate(114)" xlink:href="#a"/>
       <use transform="translate(171)" xlink:href="#a"/>
      </g>
     </g>
    </g>
    <g id="ce">
     <g id="cf">
      <path d="m52 116.23h801.2" clip-path="url(#c)" fill="none" stroke="#b0b0b0" stroke-linecap="square" stroke-opacity=".3" stroke-width=".8"/>
     </g>
     <g id="cg">
      <use x="52" y="116.231524" stroke="#000000" stroke-width=".8" xlink:href="#h"/>
     </g>
     <g id="ch">
      <!-- 1800 -->
      <g transform="translate(22.2 120.22) scale(.1 -.1)">
       <defs>
        <path id="l" transform="scale(.015625)" d="m1830-90q-441 0-787 163-345 164-547 448-202 285-202 650 0 314 122 557t314 419 403 291v32q-256 186-442 458-185 272-185 643 0 365 176 640t480 425q304 151 694 151 410 0 704-160t457-439q164-278 164-649 0-237-96-448t-234-381q-137-169-291-278v-32q218-115 397-285 179-169 288-406t109-557q0-346-189-628-189-281-532-448-342-166-803-166zm314 2708q205 198 310 419 106 221 106 464 0 211-83 384t-247 272q-163 99-393 99-288 0-480-183-192-182-192-502 0-256 134-429 135-172 359-294t486-230zm-294-2170q236 0 418 89 183 90 285 253 103 164 103 388 0 211-90 367-89 157-246 272-157 116-368 215t-454 195q-244-173-398-426-153-252-153-553 0-237 118-416 119-179 324-282 205-102 461-102z"/>
       </defs>
       <use xlink:href="#f"/>
       <use transform="translate(57)" xlink:href="#l"/>
       <use transform="translate(114)" xlink:href="#a"/>
       <use transform="translate(171)" xlink:href="#a"/>
      </g>
     </g>
    </g>
    <g id="ci">
     <g id="cj">
      <path d="m52 90.093h801.2" clip-path="url(#c)" fill="none" stroke="#b0b0b0" stroke-linecap="square" stroke-opacity=".3" stroke-width=".8"/>
     </g>
     <g id="ck">
      <use x="52" y="90.092609" stroke="#000000" stroke-width=".8" xlink:href="#h"/>
     </g>
     <g id="cl">
      <!-- 2100 -->
      <g transform="translate(22.2 94.078) scale(.1 -.1)">
       <use xlink:href="#b"/>
       <use transform="translate(57)" xlink:href="#f"/>
       <use transform="translate(114)" xlink:href="#a"/>
       <use transform="translate(171)" xlink:href="#a"/>
      </g>
     </g>
    </g>
    <g id="cm">
     <g id="cn">
      <path d="m52 63.954h801.2" clip-path="url(#c)" fill="none" stroke="#b0b0b0" stroke-linecap="square" stroke-opacity=".3" stroke-width=".8"/>
     </g>
     <g id="co">
      <use x="52" y="63.953694" stroke="#000000" stroke-width=".8" xlink:href="#h"/>
     </g>
     <g id="cp">
      <!-- 2400 -->
      <g transform="translate(22.2 67.939) scale(.1 -.1)">
       <defs>
        <path id="m" transform="scale(.015625)" d="m2170 0v3072q0 192 12 457 13 266 20 458h-26q-90-179-183-365-92-185-195-364l-921-1415h2579v-576h-3328v493l1875 2957h858v-4717h-691z"/>
       </defs>
       <use xlink:href="#b"/>
       <use transform="translate(57)" xlink:href="#m"/>
       <use transform="translate(114)" xlink:href="#a"/>
       <use transform="translate(171)" xlink:href="#a"/>
      </g>
     </g>
    </g>
    <g id="cq">
     <g id="cr">
      <path d="m52 37.815h801.2" clip-path="url(#c)" fill="none" stroke="#b0b0b0" stroke-linecap="square" stroke-opacity=".3" stroke-width=".8"/>
     </g>
     <g id="cs">
      <use x="52" y="37.814779" stroke="#000000" stroke-width=".8" xlink:href="#h"/>
     </g>
     <g id="ct">
      <!-- 2700 -->
      <g transform="translate(22.2 41.8) scale(.1 -.1)">
       <defs>
        <path id="i" transform="scale(.015625)" d="m1235 0q32 646 109 1187t224 1024 384 941 576 938h-2208v627h3027v-455q-409-512-665-989-256-476-397-969t-205-1053-90-1251h-755z"/>
       </defs>
       <use xlink:href="#b"/>
       <use transform="translate(57)" xlink:href="#i"/>
       <use transform="translate(114)" xlink:href="#a"/>
       <use transform="translate(171)" xlink:href="#a"/>
      </g>
     </g>
    </g>
   </g>
   <g id="cu">
    <path d="m88.418 222.44.082752.17426.073074-.34852.30198.34852.15389-.08713.41086-.8713.87156-3.2238.88608-5.1407.4336-1.3069.43651-.17426.41038-1.6555.43554-1.2198.43554-2.0911.43554-2.7882.43554-.60991.43554-3.2238.43554-2.3525 1.3066-9.2357.87108-4.3565.43554-1.3941.43554-.78417.43554-2.004.43554-5.3149 1.3066-24.309 1.7422-43.826.43554-8.5387.87108-28.666.43554-5.3149.43554-2.3525.43554-.78417.43554 2.6139.43554 1.5683 2.1777 43.565.43554 12.46 2.6132 52.801.87108 12.198 1.7422 19.604.43554 2.701.43554 3.9208.43554 2.7882.43554 3.6594.43554 1.9169.43554 3.2238 1.3066 6.5347.43554 2.4396.43554 1.5683.43554 3.4852.43554 1.1327.43554 1.7426.87108 1.6555.43554 1.1327.43554.26139.43554 1.3069.43554.52278.87108.26139.87108-.43565 1.3066-2.8753.43554-.26139.43554-.95843.43554-.43565.87108-3.3981.87108-3.9208.43554.26139.43554-.17426.43554-2.7882.43554-1.5683.43554-.78417.87108-2.7882.43554-3.1367.43554-1.7426.43554-.60991 1.3066-4.2694.43554-3.9208.43554-2.4396.43554-3.6594 1.3066-7.8417.43554-1.3941m.87108 19.517.43554-12.285.43554-2.3525.43554-1.3941 1.3066-13.418.43554-6.012.87108-18.21.87108-22.654.43554-16.293 1.3066-31.105.87108-14.725.43554-3.7466.43554.43565.43554-1.2198.43554 1.7426.87108 8.8001.87108 21.173.43554 6.9704 1.3066 28.404.87108 14.725.87108 16.555.87108 12.111.87108 10.891 2.1777 21.608 2.6132 12.808.87108 5.7506.87108 3.1367.43554.43565.43554.8713.43554 1.3069.43554.60991 1.3066 4.5307.43554-.43565.43554.34852h.43554l.43554.52278.43554-1.3069.43554.17426.43554-.34852.43554-.52278.43554-.26139.43554-.60991.43554.08713.43554-.52278.43554-2.0911.43554-1.4812.43554-.8713 1.7422-6.2733.43554-1.0456.43554-2.2654.43554-1.2198.43554-2.701.43554-1.0456.43554-3.2238.43554-1.6555.43554-3.3109.43554-.95843.87108-2.701.43554-2.2654.43554-1.3941.87108-6.012.43554-1.8297.43554-.43565.43554-3.1367.43554-1.1327.43554-2.3525 1.3066-4.5307 1.3066-18.733 1.3066-27.62.43554-13.766 1.7422-36.856.87108-12.111.87108-4.4436.43554 1.0456.43554 3.7466.87108 17.6 1.3066 28.23.87108 19.43 1.3066 21.521.87108 11.763 1.7422 23.961 1.3066 13.418 1.7422 12.547 3.0488 14.115.43554 1.1327.43554.69704.43554 1.1327.43554.60991h.43554l.58072.26139.58072.8713.14518-.08713.29036-.52278.29036.43565.14518-.08713.29036.26139.29036-.60991.14518-.52278.14518.17426.29036-.95843h.14518l.14518.17426.14518-.17426.14518.087129.14518-.43565.14518.34852.43554-1.2198.14518.17426.14518-.08713.14518-.43565.14518.08713.29036-.78417.14518-.17426.29036-.8713.14518-.08713.29036-.52278.14518-.08713.29036-1.3941.14518.08713.29036-.43565.14518.08713.58072-1.2198.43554-2.701h.14518l.58072-2.3525.14518-.8713.14518-.17426.14518-.52278h.14518l.7259-2.8753.29036-.95843.14518-.52278.14518-1.0456.14518-.087129 1.0163-5.5763.43554-1.2198.29036-.69704.14518.17426.29036-2.0911.14518-.34852.29036-1.3941.14518-.34852.29036-2.004.29036-1.3069.14518-.17426.14518-.43565.29036-1.7426.14518-.087129.14518.17426.14518-.08713.29036-1.3941.43554-1.4812.14518-1.6555.14518.26139 1.3066-7.406h.14518l.14518-.17426.29036-1.2198.14518.69704.14518-1.0456.14518.26139 1.3066-10.281 1.0163-17.774.7259-18.907.29036-11.153.43554-8.1031 1.0163-22.741.29036-9.5843.43554-8.0159.43554-4.1822.14518-3.2238.14518-.52278.14518.43565.58072-2.8753.14518-.34852.14518-1.0456.14518-.087129.29036.8713 1.3066 22.915.29036 4.7921.14518.78417.58072 12.547.43554 9.5843.87108 15.683.43554 6.8832.58072 11.327 2.0325 31.192.43554 3.5723 2.0325 17.426.58072 3.7466.14518 1.3069.14518.26139.29036 1.2198 1.3066 7.3189.58072 4.3565.58072 2.4396.14518 1.6555.29036.43565.58072 2.9624.29036.69704.14518.17426.14518.60991.14518-.26139.29036.95843.14518.52278.14518.08713.58072 2.2654.43554.52278.14518-.08713.14518.43565.29036.08713.14518.26139.29036-.17426.14518.43565.14518-.34852.43554.34852.29036-.60991.14518-.43565.29036.17426.29036-.43565.58072-1.5683.29036-.69704.29036.26139.29036-.26139.58072-.95843.29036.43565.29036-1.2198.58072-3.2238.29036-1.3941.29036-.26139.29036-.95843.58072-.34852.58072-2.0911.29036-.08713.58072-3.3109.29036-.26139.29036-.78417h.29036l.29036-1.1327.29036-2.1782.87108-3.2238.58072-2.9624.29036-2.2654.29036-.52278.58072-2.0911.58072-3.7466.29036.087129.58072-1.4812.58072-4.008.87108-5.8377.29036-1.1327.29036-1.7426h.29036l.58072-3.1367.29036-.69704 1.4518-5.7506.87108-11.24.87108-17.426 2.3229-66.219.58072-11.763.58072-9.9328.58072-7.7545.87108-5.5763h.29036l.29036 1.1327.29036 1.7426.87108 7.406.87108 16.206.29036-3.1367.58072 14.376.58072 10.63 1.4518 28.84 1.1614 21.957.58072 11.414 2.0325 30.408.87108 7.5803.87108 6.0991.29036 2.8753.58072 2.9624.29036 2.5268.29036 1.1327.58072 3.8337.29036.8713.29036-.17426.29036.087129.29036.43565.29036 1.0456.29036.60991.29036 1.3069.29036-1.1327.29036-.43565.29036.60991.29036-.26139.29036.69704.29036-.34852.58072.26139.58072-2.2654.58072.087129.29036-1.5683.29036-.8713.29036-1.3941.29036.34852.29036-1.3069.29036-.60991 1.7422-6.5347.58072-3.6594.58072-2.1782.58072-5.0535.29036-3.7466.29036-2.2654.29036-.8713 1.4518-11.153.29036-1.3941.58072-3.5723.29036-.43565.29036-2.4396.58072-2.4396.29036-1.7426.29036-.60991.29036.34852.29036-.69704.29036-1.6555.29036-.78417.58072-2.1782.29036-.34852.29036.26139.29036-.26139.29036.69704.29036 2.2654.29036-.08713.29036.17426.29036-.34852.29036-.60991.29036.69704.29036-.08713.29036-.26139.29036-1.3941h.58072l.29036-2.8753 1.1614-17.339.87108-20.737.29036-12.198 1.1614-25.703.87108-20.388.58072-9.9328.29036-7.1446.29036-3.3109.29036-.60991.58072-4.0951.29036-.34852.29036.52278.29036 1.4812.29036.52278.29036 3.5723.58072 2.9624.58072 7.0575.58072 12.634.58072 7.0575.58072 11.065.58072 15.248 2.6132 48.27 1.1614 20.214 1.4518 19.43.29036 3.0495.87108 5.5763.87108 7.3189 1.1614 8.0159 1.1614 4.6179.29036.60991.29036 2.004.29036-.087129.29036.52278.58072 1.3941.29036.26139.29036.52278.58072-.34852.58072-1.0456.29036-1.3069.58072.087129.29036-1.1327.29036-1.6555.58072-1.1327.29036.17426.29036-2.004.29036-1.0456.29036-1.9169.29036-.34852.29036-2.6139.29036-1.0456.29036-.34852.87108-3.0495.29036-3.3109.58072-9.1486.29036-2.4396 1.1614-13.941.87108-5.9248.87108-2.6139.29036-1.3941.29036-3.0495.87108-5.1407.58072-3.7466.29036-.43565.29036-1.2198h.29036l.29036-1.2198.29036.78417.29036-1.7426.29036.34852.29036.78417.29036 1.2198.87108 1.7426.29036-.26139.29036 2.6139.87108 2.6139.29036.17426.29036 1.1327.29036-.43565.29036-1.2198 1.1614-14.464.87108-18.994.58072-13.069 1.7422-33.893 1.1614-10.368.29036 1.9169.29036.78417.29036.26139.29036 1.1327.58072 5.402.87108 20.388.29036 4.3565 1.1614 26.139.29036 2.9624.29036 6.7961.29036 3.6594.87108 18.036 1.1614 18.297.58072 9.0615.29036 3.5723.29036 1.2198.87108 10.456 1.1614 7.5803.29036 1.4812 1.1614 9.8457.29036 1.3941.58072 1.4812.29036 2.6139.29036 1.2198.58072 3.1367 2.3229 7.5803.29036-.17426.29036.69704.29036.26139.29036.52278.29036.08713.29036-.08713.29036-.43565.29036-.08713.29036.43565.29036-.60991.29036-.08713.29036-.26139.29036.17426.29036.43565h.29036l.58072-.8713.29036.43565.29036-.78417.29036-.08713.29036-1.0456.29036.17426.29036-.08713.29036-1.5683.29036-.69704.29036-1.3941.58072-1.0456.58072-1.6555.58072-4.2694.29036-.34852.87108-3.6594.29036-.52278.87108-3.1367.29036-.78417.29036-.087129.58072-2.2654.29036-.52278.29036-1.2198.29036-1.8297.58072-1.9169.29036-2.8753.87108-2.6139.29036-.34852.29036-1.0456.29036-.08713 2.0325-11.065.29036-.78417.29036-.17426.87108-4.9664.58072-6.3605.29036-4.008.87108-15.248.58072-10.107 1.7422-42.258.58072-9.9328.29036-7.406.58072-6.2733.58072-5.6634.87108-2.4396.29036 1.3941.29036 2.004.58072 8.2773.29036 8.1902.58072 9.6714 2.0325 43.826.29036 4.008.58072 10.804.58072 7.5803.58072 8.4516 2.3229 24.832.87108 5.4892 1.1614 6.709.58072 2.701.29036.69704 2.9036 12.721h.29036l.29036.43565.29036 1.4812.29036-.26139.29036.95843.29036.08713.29036 1.3941.58072.34852.29036.34852.58072.34852.87108-.52278.29036-.78417.29036-.26139.29036-.69704.58072.34852.29036-.17426.29036.26139.58072.08713.29036-.08713.29036.60991.29036-.34852.87108-3.8337.58072-1.2198.58072-1.6555.29036-1.2198.29036-.43565.87108-2.7882.29036-2.6139.58072-2.8753.29036-.95843.29036-1.3941.58072-1.6555.87108-4.0951.29036-1.5683.29036-.26139h.29036l.29036-.69704.29036-1.2198.29036-1.8297.29036-.95843.58072-2.7882.29036-2.004.29036-.69704.58072-2.701.29036.17426.58072-3.3981.29036-1.4812.58072-4.008h.29036l.58072-2.6139.29036-2.0911.29036-.60991.29036-2.0911.58072-11.763.58072-10.368.29036-6.2733 1.4518-42.345.58072-11.588.29036-8.6258.58072-6.6219.29036-2.4396.58072-6.1862.29036-.17426.58072-1.3069.29036 1.2198.29036 2.5268.87108 13.854.29036 3.5723 2.3229 49.315.29036 3.2238 1.4518 26.139 1.4518 17.687.87108 10.281.29036 1.8297.58072 5.402.87108 5.3149.87108 6.0991.29036 1.1327.87108 5.2278 1.1614 3.6594.29036 1.7426.87108 2.3525.58072.95843.29036 1.0456.29036.60991.29036 1.3941.29036.78417.29036.34852.29036.69704.29036-.26139.29036.17426.29036-.34852.29036-.17426.29036-.52278m.58072 2.4396.29036 1.3941.29036-.08713.29036.26139.58072-1.5683.29036-.08713.29036-.52278.29036.17426.29036-.8713.29036.087129.58072-2.5268.29036-.78417h.29036l.29036-.8713.29036-2.0911.29036-.26139.29036-.95843.29036-1.4812.29036-.34852 1.1614-4.8793.58072-2.9624.29036-1.0456.29036.17426.29036-1.1327.29036-2.6139.87108-4.4436.29036-2.5268.29036-1.4812.29036-2.1782.58072-2.2654.58072-2.5268.29036-.34852.29036-.69704.29036-1.1327.29036.087129.58072-2.7882.29036.08713.58072-5.3149.58072-4.0951.58072.17426.29036-2.4396.29036-1.3069.29036-3.3981.29036-1.6555.29036-2.5268 1.4518-22.305.29036-5.7506.87108-23.961 1.7422-42.084 1.1614-15.858.29036-.52278.58072.78417.29036 1.8297.58072 5.8377.29036 5.2278.87108 19.778.58072 11.153.87108 21.957.29036 5.3149.29036 2.9624 2.9036 47.311 1.1614 9.2358.29036 2.1782.58072 4.9664.58072 4.1822 1.1614 7.5803.29036.69704.87108 4.8793.29036.60991 1.1614 6.3605.87108 2.8753.29036.60991.29036.8713.58072.8713.58072 2.2654.29036 1.3941.29036.69704.58072.60991.29036-.43565.29036-.78417.29036-.34852.29036.52278.29036-.8713.29036.087129.29036.69704.29036-.52278.29036.43565.87108-1.4812.87108-2.5268.29036-.52278.58072-2.1782.29036-.69704.58072-2.7882.29036.26139.29036-1.5683.29036-.52278.87108-3.1367.29036-.52278.58072-2.004.29036-2.0911.29036-.43565 1.1614-5.1407.29036-.78417.29036-1.3941.29036-.78417.58072-2.7882.58072-2.004.58072-2.3525.58072-2.0911.29036-2.4396.29036-.34852.29036-1.2198.29036-2.701.87108-3.6594.29036-.43565.29036-.17426.29036-1.1327.29036-2.6139.58072-6.709.58072-5.4892.87108-16.99 1.7422-33.196.29036-7.5803.29036-4.5307 1.1614-29.188.58072-11.24.29036-4.8793.29036-2.7882.29036-.34852.29036-5.1407.29036-2.1782.29036-.08713.58072 2.3525.29036 5.0535.58072 15.248.58072 11.414 1.4518 35.462 1.1614 23.089 1.4518 22.915 1.1614 15.858.58072 6.1862 1.4518 13.766.29036 2.004.58072 2.7882.87108 5.4892 2.3229 12.198.29036-.08713.58072 2.4396.58072 1.4812.29036.34852.29036 1.0456.29036-.17426 1.4518 2.7882.29036-.17426.29036.52278.87108-.17426.58072-.78417.58072-.34852.29036-1.2198.29036-.17426h.29036l.29036-.43565.29036.52278.29036.08713.29036-.52278.58072-2.4396.58072-2.7882 2.0325-7.4932h.29036l.58072-1.7426.29036-1.6555.29036-.43565.58072-3.8337.29036.087129.29036-.69704.29036-.34852.29036-1.3069.29036-.08713 1.1614-8.4516.29036-1.4812.29036-.8713.29036-.43565.58072-2.4396.29036-.34852.29036-.95843.29036-2.7882.87108-4.0951.58072-2.5268.29036-.08713.29036-.26139.58072-2.7882.29036-2.004 1.1614-13.244 1.4518-27.62.58072-17.426 2.3229-58.028.29036-5.3149.58072-5.4892.29036-3.8337.29036-.69704.29036-2.7882.29036 2.5268.29036-.17426.87108 9.4971.29036 1.6555.58072 9.1486 4.3554 88.262 2.0325 28.143.58072 5.3149.29036 4.0951 1.1614 8.9744.29036 1.4812.29036 3.7466.29036.60991.29036 2.4396.29036 1.3069.29036 2.0911.29036.78417.29036 2.0911.29036.69704.58072 2.5268.29036.8713.58072.78417.29036-.087129.58072.087129.29036-.26139.29036.17426.29036-.17426.29036-.43565.58072-1.3941.29036-.26139 1.1614-3.7466.29036-.087129.58072-2.7882.58072-3.6594.29036-1.2198.29036.43565.29036-.17426.87108-3.9208.29036.26139.29036-1.6555.29036-.34852.29036-1.2198.58072-8.9744 1.1614-9.8457.29036-1.3069.29036-2.5268.29036-3.7466.58072-2.7882.58072-4.1822.58072-3.8337.29036-3.1367.58072-2.0911.29036-.52278.29036-.8713.29036-.43565h.29036l.29036-.26139.29036.69704.29036.26139.29036.52278.58072-.08713.29036.08713.29036 1.3941.29036 2.1782.29036-.78417.29036 1.1327.29036 2.0911.29036-2.5268.29036.17426.29036-.52278.29036-1.7426.29036-3.3109.29036-1.4812.29036-.8713.29036-2.9624.29036-6.4476.29036-2.7882 1.1614-24.745.29036-10.978.58072-11.24 1.4518-36.072 1.1614-23.002.87108-6.9704.29036-.43565.29036-.78417 1.1614 9.1486.29036 3.7466 2.6132 47.921 1.1614 24.745.58072 9.5843 2.3229 42.694 1.4518 16.816 2.0325 16.729.87108 4.8793.29036 2.2654.29036 1.1327.87108 5.2278.29036.34852.29036.78417.29036 1.4812.29036.17426.29036-.17426.29036.08713.29036-.26139.29036.26139.29036-.60991.29036-.34852.29036-.52278 1.1614-3.7466.29036-.60991.58072-2.3525.58072-2.1782.58072-2.6139.29036-.34852.29036.26139.29036-2.3525.29036-.08713.29036-1.4812.29036-2.3525.29036-3.3109.29036-.17426.87108-7.3189.58072-2.5268.29036-1.7426.87108-8.3645.29036-4.0951.29036-1.1327.58072-4.4436.29036-.60991.58072-5.2278.58072-2.9624.29036-1.3941.58072-3.7466.29036-.43565.29036.43565.58072-2.1782.29036-.08713.87108-1.7426.29036-1.1327.29036.8713.58072 3.1367.29036 2.4396.29036-.17426h.29036l.58072 4.008.29036-2.6139.29036.26139 1.4518-15.161.29036-3.7466.58072-10.891.87108-24.571 1.4518-29.624.87108-11.85.58072-3.3109.29036.60991.29036.087129.29036-.95843.29036-.17426.29036 3.2238.29036 4.8793.29036 9.3229.58072 11.588 2.0325 45.307.58072 10.02.87108 17.165.87108 12.547 1.4518 21.173 1.1614 10.717.29036 1.6555.58072 4.2694 4.9361 24.658.29036.43565.29036 1.3941.58072 1.1327.29036.17426 1.4518 3.1367.29036-.26139.29036-.08713.29036-.34852.29036.26139.87108-.17426.58072-1.1327.58072-.69704.87108-.17426.29036-.52278.29036-.78417.29036-.34852.58072-2.6139.29036.087129.29036-.43565.29036-.8713.58072-2.6139.58072-3.2238 1.1614-2.9624.29036-2.1782.58072-2.8753.29036-.08713.58072-2.9624.29036-.52278.29036-2.4396.58072-2.4396 1.1614-4.7921.29036-.34852.29036-2.701.29036-.78417.29036-.26139.58072-5.2278.29036-.8713.29036-1.5683.58072-1.3069.29036-1.4812.29036-2.5268.58072-2.8753.29036-.43565.87108-7.8417 2.6132-54.456 1.4518-33.196 1.1614-13.854.58072-2.701.29036.78417.29036.43565.87108 10.456 2.6132 55.589 3.194 49.315.29036 2.004 1.7422 17.252.58072 3.8337.87108 4.0951.87108 5.9248.29036.69704.58072 2.5268 1.1614 4.4436.29036 1.6555.87108 2.5268.29036.26139.58072 1.7426.29036.08713.58072 1.7426.29036.34852.87108 2.4396.58072.08713.58072-.78417.29036.17426.29036-.34852.29036-.78417.29036-.26139.29036-.52278.29036-.95843.29036.34852.58072-.60991.29036-1.8297.29036.17426.29036-.8713.29036.087129.29036-1.5683.29036-.69704.29036-.34852.29036-1.3069.29036-.52278.58072-2.5268.29036-2.3525.29036-1.0456.29036-1.4812.29036-.34852.29036-1.9169.29036-.69704.87108-4.3565.58072-1.8297.29036-.60991.29036-1.7426.29036.17426.29036-1.2198.29036-.69704h.29036l1.1614-7.2318.29036-.52278.29036-1.7426.87108-2.5268.29036-1.0456h.29036l.87108-6.012.29036-.34852 1.4518-8.1902 1.1614-12.285.87108-16.555.87108-22.131.87108-21.957.29036-3.3109.29036-6.012.29036-8.4516 1.4518-17.862.29036-.26139.29036-1.2198.29036-.34852.87108 7.5803.58072 12.808.58072 9.6714 2.0325 37.727.58072 12.982.58072 10.107.87108 11.501.58072 11.24.58072 7.3189 1.1614 10.194.58072 4.4436 1.1614 9.6714.29036.8713.29036 1.3069.29036.78417 1.1614 6.4476.29036 1.1327.58072 1.1327.58072 2.004.29036.69704.29036 1.9169.29036.69704.29036-.43565.58072.95843.29036.17426.29036.8713.29036 1.6555.29036-.17426.29036.26139.58072.69704.29036.17426h.29036l.58072.34852.58072-1.3941.29036.95843.29036-.17426.58072-1.2198.29036-.087129.29036-.34852.29036-.52278.29036.69704.87108-1.3941.29036-2.004.29036-.8713.29036-.34852.29036-.52278.87108-3.8337.29036-1.9169.58072-2.1782.29036-1.3941.29036-.60991.29036-.95843.87108-5.5763.29036-.69704.58072-3.8337.29036-2.0911 1.1614-3.3981.58072-3.0495.58072-5.1407.29036-.69704 1.1614-7.0575.29036-2.9624.29036-.69704.58072-2.701.29036 1.2198.29036-.95843.29036-.26139.29036-.78417.29036.08713.29036-.52278.29036-1.3941.58072-9.5843 1.1614-17.774.58072-16.032.29036-10.281.29036-5.402 1.1614-29.363.87108-15.77.58072-6.709h.29036l.29036-.17426.29036-1.6555.58072 2.4396.29036 1.7426.29036 3.5723.87108 19.169 1.1614 25.268.87108 20.04 2.0325 33.806.29036 3.0495.29036 6.0991 1.7422 19.43 1.1614 8.0159 3.4843 18.472.29036.60991.29036 1.9169 1.4518 4.4436.29036 1.6555 1.1614 3.1367.29036 1.2198.29036-.26139.29036.34852.29036-.087129.29036-.26139.29036-.8713.29036 1.0456.29036-.78417.58072-.52278.29036-.95843.29036-.17426h.29036l.29036-.26139.29036-.78417.29036-2.004.29036-.34852h.29036l.29036-.26139.29036-1.0456.29036-1.6555.29036-.43565.29036-1.0456h.29036l.29036-.8713.29036 1.3069.29036 1.8297.29036.69704.29036-.34852.29036 1.3069.29036-.17426.29036-2.2654.29036.8713.58072-.95843.58072.43565.29036-1.9169.29036.34852.29036.8713.29036.17426.29036-.08713.29036-1.0456.29036.17426m1.1614-2.7882.29036-1.6555.29036-3.3109.29036-1.7426 2.0325-17.862 1.1614-5.1407 1.1614-12.372 1.4518-25.616 1.4518-41.299 1.1614-29.798.58072-9.6714.58072-7.3189.29036-1.5683.29036 1.1327h.29036l.29036.43565.58072 2.7882.29036 5.5763v0" clip-path="url(#c)" fill="none" stroke="#28f" stroke-linecap="square" stroke-width="1.5"/>
   </g>
   <g id="cv">
    <path d="m52 259.78v-232.9" fill="none" stroke="#000" stroke-linecap="square" stroke-width=".8"/>
   </g>
   <g id="cw">
    <path d="m853.2 259.78v-232.9" fill="none" stroke="#000" stroke-linecap="square" stroke-width=".8"/>
   </g>
   <g id="cx">
    <path d="m52 259.78h801.2" fill="none" stroke="#000" stroke-linecap="square" stroke-width=".8"/>
   </g>
   <g id="cy">
    <path d="m52 26.88h801.2" fill="none" stroke="#000" stroke-linecap="square" stroke-width=".8"/>
   </g>
   <g id="cz">
    <!-- 同時接続数の推移 -->
    <g transform="translate(404.6 20.88) scale(.12 -.12)">
     <defs>
      <path id="x" transform="scale(.015625)" d="m1587 3936h3232v-518h-3232v518zm320-1114h557v-2534h-557v2534zm301 0h2291v-2086h-2291v512h1734v1069h-1734v505zm-1683 2260h5113v-570h-4524v-5056h-589v5626zm4768 0h595v-4896q0-250-67-397t-227-218q-160-77-426-96t-675-19q-13 83-45 192t-77 218q-45 108-89 185 281-13 527-13 247 0 330 0 83 7 118 42 36 35 36 112v4890z"/>
      <path id="v" transform="scale(.015625)" d="m2714 4672h3238v-525h-3238v525zm-244-1235h3712v-538h-3712v538zm20-1184h3635v-531h-3635v531zm1523 3155h595v-2310h-595v2310zm832-2451h589v-2823q0-230-61-364-61-135-227-199-167-70-423-86t-633-16q-20 121-78 285-57 163-121 284 275-6 509-9t310-3q77 6 106 28 29 23 29 93v2810zm-2023-1677 487 282q153-160 313-352t294-381q135-189 206-343l-519-313q-64 153-189 348-124 196-278 394-154 199-314 365zm-2086 3718h1619v-4281h-1619v544h1056v3187h-1056v550zm32-1843h1293v-537h-1293v537zm-320 1843h563v-4832h-563v4832z"/>
      <path id="w" transform="scale(.015625)" d="m3866 5408h614v-870h-614v870zm-1479-653h3597v-518h-3597v518zm-230-1485h4e3v-518h-4e3v518zm825 922 519 102q64-160 121-342 58-182 96-352 39-170 45-304l-544-128q-6 134-42 313-35 180-83 365-48 186-112 346zm1856 109 589-71q-96-275-202-557-105-281-195-486l-518 77q58 147 122 329 64 183 118 372t86 336zm-2643-2106h3943v-518h-3943v518zm1408 685 602-115q-167-371-362-784t-390-797-362-685l-525 179q160 288 346 666t368 784 323 752zm-659-2157 358 403q352-102 733-240 381-137 752-304 371-166 697-336 327-169 558-329l-384-461q-218 160-532 336-313 176-685 345-371 170-755 323-384 154-742 263zm1894 1114 583-71q-122-550-353-944-230-393-604-662t-922-435q-547-167-1296-269-25 128-93 269-67 141-137 230 678 64 1168 192t819 349q330 221 531 550 202 330 304 791zm-4684 217q396 90 953 240 557 151 1120 311l77-544q-525-154-1053-311-528-156-963-284l-134 588zm121 2093h1965v-563h-1965v563zm819 1248h576v-5229q0-236-51-374t-192-208q-141-77-355-99-214-23-541-16-13 115-64 288t-109 294q205-6 381-6t234 0q64 0 92 28 29 29 29 93v5229z"/>
      <path id="u" transform="scale(.015625)" d="m4058 5408h595v-1798h-595v1798zm-1415-563h3443v-499h-3443v499zm231-992h3008v-499h-3008v499zm-224-877h3475v-1203h-531v729h-2432v-729h-512v1203zm1964-877h551v-1881q0-122 22-157 23-35 106-35 25 0 92 0 68 0 135 0t99 0q51 0 83 54t45 224 19 515q90-70 234-131t259-93q-19-429-83-662-64-234-183-326-118-93-316-93-39 0-103 0t-134 0-138 0q-67 0-99 0-237 0-365 64t-176 218q-48 153-48 422v1881zm-1164-6h550v-455q0-243-48-528-48-284-186-579-137-294-409-572-272-279-727-503-70 90-192 208-121 118-230 195 416 205 665 438 250 234 371 474 122 240 164 467 42 228 42 413v442zm-2240 3309 524-192q-121-244-259-503-137-259-275-496t-259-416l-410 173q122 186 246 438 125 253 240 515 116 263 193 481zm716-743 500-230q-224-359-496-756-272-396-548-764-275-368-518-650l-358 205q179 211 377 483 199 272 387 569 189 298 358 592 170 295 298 551zm-1721-665 307 403q166-154 339-340 173-185 320-364t224-327l-326-460q-77 160-218 348-141 189-314 384-172 196-332 356zm1485-832 435 179q128-211 249-458 122-246 215-474 93-227 137-412l-473-211q-32 185-119 422-86 237-201 486-115 250-243 468zm-1530-583q422 26 998 54 576 29 1184 68l7-499q-570-45-1127-84-556-38-992-70l-70 531zm1702-992 436 135q121-276 214-596t118-556l-454-148q-26 237-112 563-86 327-202 602zm-1363 109 499-83q-57-455-163-897-105-441-253-748-51 32-134 73-83 42-170 83-86 42-144 62 148 294 234 697t131 813zm691 627h525v-2861h-525v2861z"/>
      <path id="p" transform="scale(.015625)" d="m224 2022h3187v-499h-3187v499zm51 2247h3111v-487h-3111v487zm1127-1735 563-121q-154-320-333-672t-352-679q-173-326-326-582l-532 173q148 243 324 566t345 669q170 346 311 646zm934-832 563-64q-89-480-262-838t-461-614-701-432-976-298q-25 128-99 269t-157 237q659 102 1085 303 426 202 666 554t342 883zm422 3597 519-211q-147-218-298-436-150-217-278-377l-403 186q121 173 252 413 132 240 208 425zm-1203 109h563v-2957h-563v2957zm-1075-320 448 186q134-192 246-420 112-227 157-393l-467-211q-38 172-147 406t-237 432zm1094-1050 397-236q-160-263-400-529-240-265-519-489-278-224-553-378-51 103-141 237-89 135-179 218 269 109 534 294 266 186 493 416 228 231 368 467zm487-204q83-45 246-145 163-99 352-211t346-211 221-150l-327-423q-83 77-230 198-147 122-317 253-170 132-327 250-156 119-259 189l295 250zm1798 396h2311v-556h-2311v556zm115 1178 615-90q-103-640-263-1235t-384-1101q-224-505-512-889-44 57-134 134t-186 157-166 125q275 339 473 796 199 458 340 995 141 538 217 1108zm1223-1510 614-58q-147-1101-445-1940-297-838-813-1443-515-604-1321-1014-26 71-90 177-64 105-134 208-70 102-128 159 742 346 1212 880 471 535 730 1290 260 755 375 1741zm-1005-135q134-851 387-1597 253-745 659-1305 407-560 1002-874-70-57-154-150-83-93-154-189-70-96-121-179-633 371-1056 988-422 618-688 1434-265 816-425 1783l550 89zm-3309-3065 327 416q377-148 754-330 378-182 701-378 324-195 548-368l-416-435q-211 179-519 378-307 198-666 383-358 186-729 334z"/>
      <path id="t" transform="scale(.015625)" d="m3686 4378q-64-493-163-1041-99-547-265-1084-192-653-432-1104t-522-688-595-237q-320 0-596 221-275 221-448 621-172 400-172 931 0 537 220 1017 221 480 611 851 391 372 909 583 519 211 1121 211 576 0 1040-186 464-185 793-515 330-329 502-771 173-441 173-941 0-672-278-1194-278-521-816-851-538-329-1318-444l-378 601q166 20 307 42t263 48q307 70 585 217 279 148 496 375 218 227 342 534 125 308 125 692t-122 713q-121 330-358 573-236 243-582 380-346 138-781 138-525 0-935-186-409-185-694-489-284-304-432-656-147-352-147-678 0-365 89-605 90-240 224-355 135-115 276-115t288 144 297 457q151 314 298 800 147 461 246 982 100 522 145 1021l684-12z"/>
      <path id="q" transform="scale(.015625)" d="m2995 2925h2893v-519h-2893v519zm0-1280h2893v-519h-2893v519zm-64-1299h3232v-557h-3232v557zm1312 3577h563v-3763h-563v3763zm429 1466 634-141q-154-390-340-794-185-403-339-684l-512 140q103 199 208 458 106 259 195 528 90 269 154 493zm-1472 25 582-147q-153-518-371-1018-217-499-483-931t-573-758q-38 64-109 160-70 96-147 198-77 103-141 160 416 416 733 1034t509 1302zm128-1203h2720v-537h-2720v-4205h-582v4422l313 320h269zm-3174-2157q396 90 953 240 557 151 1120 311l77-544q-525-154-1053-311-528-156-963-284l-134 588zm121 2093h1965v-563h-1965v563zm819 1248h576v-5229q0-236-51-374t-192-208q-141-77-355-99-214-23-541-16-13 115-64 288t-109 294q205-6 381-6t234 0q64 0 92 28 29 29 29 93v5229z"/>
      <path id="o" transform="scale(.015625)" d="m4051 5402 595-109q-281-493-729-941t-1107-806q-39 64-106 144t-141 153q-73 74-137 119 608 288 1011 678t614 762zm-77-557h1511v-493h-1863l352 493zm1293 0h109l109 25 384-179q-192-505-496-905t-695-701q-390-301-845-519-454-217-947-358-44 109-137 253t-176 227q448 109 867 294 419 186 777 445 359 259 631 592t419 730v96zm-1990-954 377 307q167-96 336-218 170-121 320-249 151-128 247-237l-397-332q-90 108-237 236t-317 259q-169 132-329 234zm1107-934 595-109q-307-538-803-1031-496-492-1232-876-38 64-102 144t-138 156q-74 77-138 116 455 217 807 483t604 554q253 288 407 563zm-90-589h1460v-506h-1818l358 506zm1268 0h121l109 26 384-167q-192-614-531-1075t-787-794q-448-332-983-553-534-221-1129-355-45 115-132 269-86 153-176 249 551 96 1043 285 493 189 903 473 410 285 714 669t464 883v90zm-2132-1056 410 339q186-102 384-237 198-134 371-275t282-269l-435-371q-103 128-270 272-166 144-361 288t-381 253zm-2150 3533h589v-5376h-589v5376zm-992-1242h2336v-569h-2336v569zm1024-224 365-160q-96-339-231-707-134-368-291-727-157-358-336-672-179-313-365-537-44 128-134 291t-160 272q173 192 339 457 167 266 323 570 157 304 282 618t208 595zm941 1946 416-467q-314-122-695-221-380-99-784-173-403-74-780-131-20 102-71 236-51 135-102 231 358 58 732 138 375 80 711 179t573 208zm-397-2579q58-45 179-170 122-125 266-266 144-140 259-265t160-183l-352-473q-58 102-157 255-99 154-218 317-118 164-227 311-108 147-185 237l275 237z"/>
     </defs>
     <use xlink:href="#x"/>
     <use transform="translate(100)" xlink:href="#v"/>
     <use transform="translate(200)" xlink:href="#w"/>
     <use transform="translate(300)" xlink:href="#u"/>
     <use transform="translate(400)" xlink:href="#p"/>
     <use transform="translate(500)" xlink:href="#t"/>
     <use transform="translate(600)" xlink:href="#q"/>
     <use transform="translate(700)" xlink:href="#o"/>
    </g>
   </g>
  </g>
  <g id="da">
   <g id="db">
    <path d="m52 523.06h801.2v-232.9h-801.2z" fill="#fff"/>
   </g>
   <g id="dc">
    <path d="m136.9 523.06h.87108v-232.9h-.87108z" clip-path="url(#d)" fill="#808080" opacity=".3" stroke="#808080"/>
   </g>
   <g id="dd">
    <path d="m457.61 523.06h.58072v-232.9h-.58072z" clip-path="url(#d)" fill="#808080" opacity=".3" stroke="#808080"/>
   </g>
   <g id="de">
    <path d="m803.13 523.06h1.1614v-232.9h-1.1614z" clip-path="url(#d)" fill="#808080" opacity=".3" stroke="#808080"/>
   </g>
   <g id="df">
    <g id="dg">
     <g id="dh">
      <path d="m105.98 523.06v-232.9" clip-path="url(#d)" fill="none" stroke="#b0b0b0" stroke-linecap="square" stroke-opacity=".3" stroke-width=".8"/>
     </g>
     <g id="di">
      <use x="105.980605" y="523.055464" stroke="#000000" stroke-width=".8" xlink:href="#e"/>
     </g>
     <g id="dj">
      <!-- 2025-07-01 -->
      <g transform="translate(59.191 563.33) rotate(-30) scale(.1 -.1)">
       <defs>
        <path id="g" transform="scale(.015625)" d="m301 1536v544h1689v-544h-1689z"/>
       </defs>
       <use xlink:href="#b"/>
       <use transform="translate(57)" xlink:href="#a"/>
       <use transform="translate(114)" xlink:href="#b"/>
       <use transform="translate(171)" xlink:href="#j"/>
       <use transform="translate(228)" xlink:href="#g"/>
       <use transform="translate(263.7)" xlink:href="#a"/>
       <use transform="translate(320.7)" xlink:href="#i"/>
       <use transform="translate(377.7)" xlink:href="#g"/>
       <use transform="translate(413.4)" xlink:href="#a"/>
       <use transform="translate(470.4)" xlink:href="#f"/>
      </g>
     </g>
    </g>
    <g id="dk">
     <g id="dl">
      <path d="m189.6 523.06v-232.9" clip-path="url(#d)" fill="none" stroke="#b0b0b0" stroke-linecap="square" stroke-opacity=".3" stroke-width=".8"/>
     </g>
     <g id="dm">
      <use x="189.604277" y="523.055464" stroke="#000000" stroke-width=".8" xlink:href="#e"/>
     </g>
     <g id="dn">
      <!-- 2025-07-03 -->
      <g transform="translate(142.81 563.33) rotate(-30) scale(.1 -.1)">
       <use xlink:href="#b"/>
       <use transform="translate(57)" xlink:href="#a"/>
       <use transform="translate(114)" xlink:href="#b"/>
       <use transform="translate(171)" xlink:href="#j"/>
       <use transform="translate(228)" xlink:href="#g"/>
       <use transform="translate(263.7)" xlink:href="#a"/>
       <use transform="translate(320.7)" xlink:href="#i"/>
       <use transform="translate(377.7)" xlink:href="#g"/>
       <use transform="translate(413.4)" xlink:href="#a"/>
       <use transform="translate(470.4)" xlink:href="#n"/>
      </g>
     </g>
    </g>
    <g id="do">
     <g id="dp">
      <path d="m273.23 523.06v-232.9" clip-path="url(#d)" fill="none" stroke="#b0b0b0" stroke-linecap="square" stroke-opacity=".3" stroke-width=".8"/>
     </g>
     <g id="dq">
      <use x="273.227949" y="523.055464" stroke="#000000" stroke-width=".8" xlink:href="#e"/>
     </g>
     <g id="dr">
      <!-- 2025-07-05 -->
      <g transform="translate(226.44 563.33) rotate(-30) scale(.1 -.1)">
       <use xlink:href="#b"/>
       <use transform="translate(57)" xlink:href="#a"/>
       <use transform="translate(114)" xlink:href="#b"/>
       <use transform="translate(171)" xlink:href="#j"/>
       <use transform="translate(228)" xlink:href="#g"/>
       <use transform="translate(263.7)" xlink:href="#a"/>
       <use transform="translate(320.7)" xlink:href="#i"/>
       <use transform="translate(377.7)" xlink:href="#g"/>
       <use transform="translate(413.4)" xlink:href="#a"/>
       <use transform="translate(470.4)" xlink:href="#j"/>
      </g>
     </g>
    </g>
    <g id="ds">
     <g id="dt">
      <path d="m356.85 523.06v-232.9" clip-path="url(#d)" fill="none" stroke="#b0b0b0" stroke-linecap="square" stroke-opacity=".3" stroke-width=".8"/>
     </g>
     <g id="du">
      <use x="356.851621" y="523.055464" stroke="#000000" stroke-width=".8" xlink:href="#e"/>
     </g>
     <g id="dv">
      <!-- 2025-07-07 -->
      <g transform="translate(310.06 563.33) rotate(-30) scale(.1 -.1)">
       <use xlink:href="#b"/>
       <use transform="translate(57)" xlink:href="#a"/>
       <use transform="translate(114)" xlink:href="#b"/>
       <use transform="translate(171)" xlink:href="#j"/>
       <use transform="translate(228)" xlink:href="#g"/>
       <use transform="translate(263.7)" xlink:href="#a"/>
       <use transform="translate(320.7)" xlink:href="#i"/>
       <use transform="translate(377.7)" xlink:href="#g"/>
       <use transform="translate(413.4)" xlink:href="#a"/>
       <use transform="translate(470.4)" xlink:href="#i"/>
      </g>
     </g>
    </g>
    <g id="dw">
     <g id="dx">
      <path d="m440.48 523.06v-232.9" clip-path="url(#d)" fill="none" stroke="#b0b0b0" stroke-linecap="square" stroke-opacity=".3" stroke-width=".8"/>
     </g>
     <g id="dy">
      <use x="440.475293" y="523.055464" stroke="#000000" stroke-width=".8" xlink:href="#e"/>
     </g>
     <g id="dz">
      <!-- 2025-07-09 -->
      <g transform="translate(393.69 563.33) rotate(-30) scale(.1 -.1)">
       <use xlink:href="#b"/>
       <use transform="translate(57)" xlink:href="#a"/>
       <use transform="translate(114)" xlink:href="#b"/>
       <use transform="translate(171)" xlink:href="#j"/>
       <use transform="translate(228)" xlink:href="#g"/>
       <use transform="translate(263.7)" xlink:href="#a"/>
       <use transform="translate(320.7)" xlink:href="#i"/>
       <use transform="translate(377.7)" xlink:href="#g"/>
       <use transform="translate(413.4)" xlink:href="#a"/>
       <use transform="translate(470.4)" xlink:href="#r"/>
      </g>
     </g>
    </g>
    <g id="ea">
     <g id="eb">
      <path d="m524.1 523.06v-232.9" clip-path="url(#d)" fill="none" stroke="#b0b0b0" stroke-linecap="square" stroke-opacity=".3" stroke-width=".8"/>
     </g>
     <g id="ec">
      <use x="524.098966" y="523.055464" stroke="#000000" stroke-width=".8" xlink:href="#e"/>
     </g>
     <g id="ed">
      <!-- 2025-07-11 -->
      <g transform="translate(477.31 563.33) rotate(-30) scale(.1 -.1)">
       <use xlink:href="#b"/>
       <use transform="translate(57)" xlink:href="#a"/>
       <use transform="translate(114)" xlink:href="#b"/>
       <use transform="translate(171)" xlink:href="#j"/>
       <use transform="translate(228)" xlink:href="#g"/>
       <use transform="translate(263.7)" xlink:href="#a"/>
       <use transform="translate(320.7)" xlink:href="#i"/>
       <use transform="translate(377.7)" xlink:href="#g"/>
       <use transform="translate(413.4)" xlink:href="#f"/>
       <use transform="translate(470.4)" xlink:href="#f"/>
      </g>
     </g>
    </g>
    <g id="ee">
     <g id="ef">
      <path d="m607.72 523.06v-232.9" clip-path="url(#d)" fill="none" stroke="#b0b0b0" stroke-linecap="square" stroke-opacity=".3" stroke-width=".8"/>
     </g>
     <g id="eg">
      <use x="607.722638" y="523.055464" stroke="#000000" stroke-width=".8" xlink:href="#e"/>
     </g>
     <g id="eh">
      <!-- 2025-07-13 -->
      <g transform="translate(560.93 563.33) rotate(-30) scale(.1 -.1)">
       <use xlink:href="#b"/>
       <use transform="translate(57)" xlink:href="#a"/>
       <use transform="translate(114)" xlink:href="#b"/>
       <use transform="translate(171)" xlink:href="#j"/>
       <use transform="translate(228)" xlink:href="#g"/>
       <use transform="translate(263.7)" xlink:href="#a"/>
       <use transform="translate(320.7)" xlink:href="#i"/>
       <use transform="translate(377.7)" xlink:href="#g"/>
       <use transform="translate(413.4)" xlink:href="#f"/>
       <use transform="translate(470.4)" xlink:href="#n"/>
      </g>
     </g>
    </g>
    <g id="ei">
     <g id="ej">
      <path d="m691.35 523.06v-232.9" clip-path="url(#d)" fill="none" stroke="#b0b0b0" stroke-linecap="square" stroke-opacity=".3" stroke-width=".8"/>
     </g>
     <g id="ek">
      <use x="691.34631" y="523.055464" stroke="#000000" stroke-width=".8" xlink:href="#e"/>
     </g>
     <g id="el">
      <!-- 2025-07-15 -->
      <g transform="translate(644.56 563.33) rotate(-30) scale(.1 -.1)">
       <use xlink:href="#b"/>
       <use transform="translate(57)" xlink:href="#a"/>
       <use transform="translate(114)" xlink:href="#b"/>
       <use transform="translate(171)" xlink:href="#j"/>
       <use transform="translate(228)" xlink:href="#g"/>
       <use transform="translate(263.7)" xlink:href="#a"/>
       <use transform="translate(320.7)" xlink:href="#i"/>
       <use transform="translate(377.7)" xlink:href="#g"/>
       <use transform="translate(413.4)" xlink:href="#f"/>
       <use transform="translate(470.4)" xlink:href="#j"/>
      </g>
     </g>
    </g>
    <g id="em">
     <g id="en">
      <path d="m774.97 523.06v-232.9" clip-path="url(#d)" fill="none" stroke="#b0b0b0" stroke-linecap="square" stroke-opacity=".3" stroke-width=".8"/>
     </g>
     <g id="eo">
      <use x="774.969982" y="523.055464" stroke="#000000" stroke-width=".8" xlink:href="#e"/>
     </g>
     <g id="ep">
      <!-- 2025-07-17 -->
      <g transform="translate(728.18 563.33) rotate(-30) scale(.1 -.1)">
       <use xlink:href="#b"/>
       <use transform="translate(57)" xlink:href="#a"/>
       <use transform="translate(114)" xlink:href="#b"/>
       <use transform="translate(171)" xlink:href="#j"/>
       <use transform="translate(228)" xlink:href="#g"/>
       <use transform="translate(263.7)" xlink:href="#a"/>
       <use transform="translate(320.7)" xlink:href="#i"/>
       <use transform="translate(377.7)" xlink:href="#g"/>
       <use transform="translate(413.4)" xlink:href="#f"/>
       <use transform="translate(470.4)" xlink:href="#i"/>
      </g>
     </g>
    </g>
   </g>
   <g id="eq">
    <g id="er">
     <g id="es">
      <path d="m52 505.65h801.2" clip-path="url(#d)" fill="none" stroke="#b0b0b0" stroke-linecap="square" stroke-opacity=".3" stroke-width=".8"/>
     </g>
     <g id="et">
      <use x="52" y="505.653244" stroke="#000000" stroke-width=".8" xlink:href="#h"/>
     </g>
     <g id="eu">
      <!-- 104800 -->
      <g transform="translate(10.8 509.64) scale(.1 -.1)">
       <use xlink:href="#f"/>
       <use transform="translate(57)" xlink:href="#a"/>
       <use transform="translate(114)" xlink:href="#m"/>
       <use transform="translate(171)" xlink:href="#l"/>
       <use transform="translate(228)" xlink:href="#a"/>
       <use transform="translate(285)" xlink:href="#a"/>
      </g>
     </g>
    </g>
    <g id="ev">
     <g id="ew">
      <path d="m52 476.95h801.2" clip-path="url(#d)" fill="none" stroke="#b0b0b0" stroke-linecap="square" stroke-opacity=".3" stroke-width=".8"/>
     </g>
     <g id="ex">
      <use x="52" y="476.95447" stroke="#000000" stroke-width=".8" xlink:href="#h"/>
     </g>
     <g id="ey">
      <!-- 105200 -->
      <g transform="translate(10.8 480.94) scale(.1 -.1)">
       <use xlink:href="#f"/>
       <use transform="translate(57)" xlink:href="#a"/>
       <use transform="translate(114)" xlink:href="#j"/>
       <use transform="translate(171)" xlink:href="#b"/>
       <use transform="translate(228)" xlink:href="#a"/>
       <use transform="translate(285)" xlink:href="#a"/>
      </g>
     </g>
    </g>
    <g id="ez">
     <g id="fa">
      <path d="m52 448.26h801.2" clip-path="url(#d)" fill="none" stroke="#b0b0b0" stroke-linecap="square" stroke-opacity=".3" stroke-width=".8"/>
     </g>
     <g id="fb">
      <use x="52" y="448.255695" stroke="#000000" stroke-width=".8" xlink:href="#h"/>
     </g>
     <g id="fc">
      <!-- 105600 -->
      <g transform="translate(10.8 452.24) scale(.1 -.1)">
       <use xlink:href="#f"/>
       <use transform="translate(57)" xlink:href="#a"/>
       <use transform="translate(114)" xlink:href="#j"/>
       <use transform="translate(171)" xlink:href="#k"/>
       <use transform="translate(228)" xlink:href="#a"/>
       <use transform="translate(285)" xlink:href="#a"/>
      </g>
     </g>
    </g>
    <g id="fd">
     <g id="fe">
      <path d="m52 419.56h801.2" clip-path="url(#d)" fill="none" stroke="#b0b0b0" stroke-linecap="square" stroke-opacity=".3" stroke-width=".8"/>
     </g>
     <g id="ff">
      <use x="52" y="419.55692" stroke="#000000" stroke-width=".8" xlink:href="#h"/>
     </g>
     <g id="fg">
      <!-- 106000 -->
      <g transform="translate(10.8 423.54) scale(.1 -.1)">
       <use xlink:href="#f"/>
       <use transform="translate(57)" xlink:href="#a"/>
       <use transform="translate(114)" xlink:href="#k"/>
       <use transform="translate(171)" xlink:href="#a"/>
       <use transform="translate(228)" xlink:href="#a"/>
       <use transform="translate(285)" xlink:href="#a"/>
      </g>
     </g>
    </g>
    <g id="fh">
     <g id="fi">
      <path d="m52 390.86h801.2" clip-path="url(#d)" fill="none" stroke="#b0b0b0" stroke-linecap="square" stroke-opacity=".3" stroke-width=".8"/>
     </g>
     <g id="fj">
      <use x="52" y="390.858145" stroke="#000000" stroke-width=".8" xlink:href="#h"/>
     </g>
     <g id="fk">
      <!-- 106400 -->
      <g transform="translate(10.8 394.84) scale(.1 -.1)">
       <use xlink:href="#f"/>
       <use transform="translate(57)" xlink:href="#a"/>
       <use transform="translate(114)" xlink:href="#k"/>
       <use transform="translate(171)" xlink:href="#m"/>
       <use transform="translate(228)" xlink:href="#a"/>
       <use transform="translate(285)" xlink:href="#a"/>
      </g>
     </g>
    </g>
    <g id="fl">
     <g id="fm">
      <path d="m52 362.16h801.2" clip-path="url(#d)" fill="none" stroke="#b0b0b0" stroke-linecap="square" stroke-opacity=".3" stroke-width=".8"/>
     </g>
     <g id="fn">
      <use x="52" y="362.159371" stroke="#000000" stroke-width=".8" xlink:href="#h"/>
     </g>
     <g id="fo">
      <!-- 106800 -->
      <g transform="translate(10.8 366.14) scale(.1 -.1)">
       <use xlink:href="#f"/>
       <use transform="translate(57)" xlink:href="#a"/>
       <use transform="translate(114)" xlink:href="#k"/>
       <use transform="translate(171)" xlink:href="#l"/>
       <use transform="translate(228)" xlink:href="#a"/>
       <use transform="translate(285)" xlink:href="#a"/>
      </g>
     </g>
    </g>
    <g id="fp">
     <g id="fq">
      <path d="m52 333.46h801.2" clip-path="url(#d)" fill="none" stroke="#b0b0b0" stroke-linecap="square" stroke-opacity=".3" stroke-width=".8"/>
     </g>
     <g id="fr">
      <use x="52" y="333.460596" stroke="#000000" stroke-width=".8" xlink:href="#h"/>
     </g>
     <g id="fs">
      <!-- 107200 -->
      <g transform="translate(10.8 337.45) scale(.1 -.1)">
       <use xlink:href="#f"/>
       <use transform="translate(57)" xlink:href="#a"/>
       <use transform="translate(114)" xlink:href="#i"/>
       <use transform="translate(171)" xlink:href="#b"/>
       <use transform="translate(228)" xlink:href="#a"/>
       <use transform="translate(285)" xlink:href="#a"/>
      </g>
     </g>
    </g>
    <g id="ft">
     <g id="fu">
      <path d="m52 304.76h801.2" clip-path="url(#d)" fill="none" stroke="#b0b0b0" stroke-linecap="square" stroke-opacity=".3" stroke-width=".8"/>
     </g>
     <g id="fv">
      <use x="52" y="304.761821" stroke="#000000" stroke-width=".8" xlink:href="#h"/>
     </g>
     <g id="fw">
      <!-- 107600 -->
      <g transform="translate(10.8 308.75) scale(.1 -.1)">
       <use xlink:href="#f"/>
       <use transform="translate(57)" xlink:href="#a"/>
       <use transform="translate(114)" xlink:href="#i"/>
       <use transform="translate(171)" xlink:href="#k"/>
       <use transform="translate(228)" xlink:href="#a"/>
       <use transform="translate(285)" xlink:href="#a"/>
      </g>
     </g>
    </g>
   </g>
   <g id="fx">
    <path d="m88.418 512.47h.15583l.45586-.28699h.41086l1.3061-.50223.45151-.28699 1.2805-.21524.87108.14349.43554-.21524.43554-.35874h.43554l.87108-.93271.87108-.14349.87108-.64572 1.3066.14349.43554-.071747.43554-.28699.43554-.43048.43554-.71747.87108-.64572h.43554l.87108-.64572.43554-.43048 1.3066-2.5829 1.3066-1.0045.43554-.21524.43554.071747.43554-.35873h1.3066l.43554-.28699h.43554l.87108-.57398 2.1777-.43048.43554.14349.43554-.071747.43554.071747 2.1777-.28699 1.7422-.071747 1.3066-.14349 5.662-.071747.87108-.071747h.43554l.43554-.14349h.87108l.43554-.28699 1.3066-.35874.87108-.21524.87108-.28699h.43554l.87108-.43048 1.3066-.28699 2.1777-.78922.87108-.35874.87108-.21524m.87108-.43048.43554-.28699.43554-.64572.43554-.35873 1.3066-.28699.87108-.28699.87108-.57398.43554-.93271.43554-.28699.87108-1.5067h.43554l.87108-1.0045.43554-.21524.43554-.50223 1.7422-1.148.43554.071747 1.3066-.86096.43554-.14349.87108-.071747 1.3066-.21524.43554.14349h.43554l.87108-.50223.87108-.14349.43554.071747.43554-.14349.43554.071747 2.1777-.28699.87108.071747.87108-.071747.87108.071747h2.6132l.87108-.21524.87108.21524.43554.071747 1.3066-.35873h.43554l.43554-.14349h.43554l.43554-.28699.87108-.21524.43554-.35873 1.7422.071746.43554.071747.43554-.071747.43554-.21524 1.3066-.14349.43554.14349 1.3066-.14349h.43554l1.3066-.78922.43554-.071746.43554-.28699.43554.071747.87108-.14349.43554.071747.43554-.28699.43554-.14349h.87108l.43554-.50223.87108-.50223.43554-.50223 1.3066-.50223.87108-.50223.43554-.71747.43554-.071747.43554-.28699.43554-.78922 1.3066-1.2197.43554-.14349.43554.21524.43554-.14349.43554-.35874 1.7422-.50223.43554-.071747.43554.071747.43554-.21524.87108.071747h2.1777l.43554-.14349.87108.14349 1.3066-.14349 3.0488-.071747.43554.21524h.43554l1.7422-.50223 1.0163-.071746.14518-.071747.43554.14349h.7259l.29036-.14349 1.1614.071747.29036.14349.7259-.071747.29036-.071746h.29036l.14518-.14349.29036.14349.29036-.071747h.29036l.29036-.14349.58072.14349.29036-.071747 1.3066-.071747.29036-.21524.14518-.14349.58072.28699.7259-.28699.29036.071747.58072-.21524 1.0163.071747.29036.14349.87108-.71747h.14518l.58072-.50223h1.597l.29036-.14349.7259-.071747 1.4518-.64572h.43554l.43554-.21524.14518-.21524.14518.14349.14518-.071747.14518.14349.29036-.28699.29036-.14349.29036-.071747.43554-.21524.14518.071747.87108-.78922.29036-.071747.29036-.14349.29036-.71747 1.0163-1.0045.14518.14349.29036-.14349.14518-.21524h.14518l.14518.14349.29036-.071747.29036-.50223h.29036l.14518-.43048.14518.071747.7259-.28699h.14518l.29036-.35874.29036-.21524.58072-.071747.29036-.21524.43554-.071747.29036-.071747h.43554l.43554-.28699.58072-.21524 1.0163-.071747.29036-.071746 1.8873-.071747.29036-.071747 3.194-.071747.29036-.071747 2.3229-.071747.7259-.28699 3.4843-.071747 1.1614-.28699.29036-.21524 2.0325.071747.29036.14349 1.1614-.21524 1.4518-.071747.58072-.35874.87108-.071747.58072-.28699h.29036l.58072-.21524h.29036l.87108-.71747.29036-.14349.87108-.071747.29036-.28699 1.7422-.43048.29036.071747.29036-.14349.58072-.071747.87108-.21524.29036.071747.29036-.21524.29036-.071747.58072-.50223.29036-.071747.58072-.71747.29036-.21524h.29036l1.1614-.71747 1.4518-.35873 1.1614-1.2197.29036-.43048h.29036l.87108-.86096h.29036l.29036-.21524.29036-.35874.58072-.28699.29036.071747 1.4518-1.4349h.29036l.29036-.43048 1.1614-.21524h2.0325l.29036-.14349h.29036l.29036-.14349 1.1614-.14349.87108-.071747 2.3229-.50223 2.9036.071747.58072.071747.87108-.071747.29036-.21524.87108.14349.29036-.071747.58072.071747h1.4518l.87108-.35873h1.1614l.58072-.28699h.87108l.29036-.14349.87108-.071747.29036-.071747.29036.071747.29036-.14349.29036.071747.87108-.21524.29036-.21524.29036.071746.87108-1.0045.58072.21524.29036-.21524h.58072l.58072-.28699.87108-.071747.58072-.64572h.29036l.58072-.21524.29036.071747.29036-.28699.29036-.071747.29036.071747.29036-.071747.29036.14349.29036-.14349.29036.071747.29036-.071747.87108-.64572h.29036l.29036-.14349.87108-1.2914.87108-.50223.29036-.57398.29036-.071746.87108-.86096.29036.071747.87108-.57398.58072-1.148.58072-.071747.58072-.64572 1.1614-.35873.29036-.21524.29036-.071747.29036-.21524 1.1614-.35874.58072-.64572.58072-.071747 1.1614-.21524.29036-.35873 2.0325-.071747.58072-.21524.87108-.071747.87108-.21524.29036.071747.58072-.071747.87108.071747.58072.071747.58072-.28699 1.1614.071747.29036.21524h2.6132l.58072-.35874h.29036l.58072-.21524 1.1614.071747.58072.071747.29036-.14349h.29036l.29036-.28699h.29036l.29036-.21524 1.1614-.35874.29036-.14349.58072-.071747.87108-.78922h.29036l.29036-.14349h.58072l.58072.21524h.29036l.58072-.21524.29036-.35873 1.4518-.43048.29036-.14349.87108-.071747.29036-.14349.87108.14349.87108-.071747.58072-.21524.58072-.14349 1.4518-1.0762.29036-.071746.29036.071746.29036-.21524h.58072l.29036-.35874.58072-.28699.58072-.57398.87108.071747.58072-.43048.29036.071747.58072-.43048.29036-.43048.29036.14349.29036-.28699.29036-.071747.29036.21524.29036-.28699.58072.14349.58072-.43048.29036-.071747.29036-.21524.58072.071747.29036-.21524h.29036l.29036.14349.29036-.071746.29036-.35874.29036.071747.87108-.21524.29036.071747.29036-.071747.58072.071747 2.0325.071747.29036.21524 2.0325-.071747.58072-.071747 1.4518.071747.29036.14349.29036-.14349h1.1614l.29036-.14349.87108.071747.58072.071747 2.6132-.071747.58072-.071747 1.1614.071747.29036-.21524 1.1614-.21524.29036.14349.29036-.21524.58072-.071747.87108.14349.29036-.21524.58072-.071747h.29036l.58072-.21524 3.194-.071747.58072-.21524.58072-.28699 1.4518-.071747.58072-.28699.87108-.64572h.29036l.29036-.14349.58072.071747 1.1614-.86096.29036.14349.29036-.14349.29036-.43048.87108-.50223.29036-.21524h.29036l.58072-.86096.87108-.64572.29036-.43048h.29036l.58072-.64572.29036.14349.58072-.071747.29036-.43048.29036.071747.87108-.64572.29036-.071747.29036-.43048h.29036l.58072-.35873.87108-.35874 1.1614-.071747.87108-.35874 1.7422.071747.58072.071747 2.0325.071747.58072.071747 1.1614-.14349.29036-.071747.29036.071747.58072-.071747h2.9036l.29036-.14349.87108-.071747.58072-.071746 1.1614-.071747.29036-.071747.87108.28699.58072-.21524 1.4518-.071747.87108-.14349.58072-.071747.29036-.14349 1.7422.071747.29036-.21524.87108-.21524.58072-.35873h.29036l.29036-.14349.58072-.43048.29036.071747.87108-.21524.58072.14349.58072-.071747.29036.071747 1.7422-.86096.58072-.071747.87108-.21524.29036-.21524.58072-.071747.29036-.43048.29036-.14349.29036.071747.29036-.28699.29036-.071747.87108-1.6502.29036-.28699h.29036l.29036-.14349.58072-.50223.29036-.14349.29036-.50223 1.7422-1.2914.87108-.86096.29036-.50223 1.1614-.35873.29036.14349.29036-.071747.29036-.21524.29036-.071747.29036-.28699h.29036l.29036-.14349.29036.071747 2.0325-.43048.87108-.071747.58072-.14349.58072.071747 1.7422-.071747.29036-.071747.29036.071747.58072-.071747.58072.071747 1.7422-.071747.29036-.071747.58072.071747 1.1614-.071747 1.7422-.35874m.58072.21524.29036-.14349h.29036l.29036-.14349h3.194l.29036-.21524 1.1614-.14349.29036-.071747.29036.071747.58072-.35874.29036.071747.58072-.071747.29036.071747.29036-.14349.58072.14349.29036-.14349.87108-.071747.58072-.28699.58072.28699.58072-.35874.87108-.28699.87108-.35874.29036-.35874.29036-.14349h.29036l.29036-.21524h.58072l.58072-.50223.58072.28699.29036-.28699.29036-.50223.58072-.28699h.29036l1.1614-.64572.58072-.50223.58072-.14349.29036-.50223.29036-.21524.29036-.64572.87108-.71747h.29036l.58072-.57398.87108-.28699.29036-.14349.58072-.43048.29036-.071747.29036-.28699.58072.071747.29036-.21524.58072.14349.29036-.28699h.58072l.29036-.21524.87108-.071747 1.1614-.14349.29036-.071747.29036.071747 1.1614-.57398 1.4518-.071747.29036-.071747.87108.14349 1.4518-.071747.29036-.071747.58072.14349.87108-.14349.29036.071747.29036-.071747.87108.14349h.58072l.29036-.28699 2.3229-.071747.87108-.14349.87108.14349 1.1614-.071747.29036-.21524.87108-.071747.87108-.35874 1.1614-.21524.58072-.071747 1.4518-.28699.87108-.071747.29036-.14349h.29036l.29036-.28699h.29036l.58072-.71747.58072-.35874.29036-.21524 1.1614-.28699.29036-.35874.29036-.14349h.29036l.87108-.35874h.29036l.29036-.28699.58072-.071747.58072-.71747.58072-.35873 2.3229-1.7219.29036-.071747 1.1614-1.148.29036.071747.58072-1.0762.58072-.43048.58072-.071747.29036-.50223h.29036l.58072-.28699.29036-.28699h.29036l.58072-.28699.29036-.43048.29036-.071747.58072-.35874.58072.071747.29036-.35873.58072-.21524 1.4518-.071747.29036.28699.58072.071747h.29036l.29036-.21524.87108-.14349 1.7422-.071747.58072-.071747.29036-.28699.87108-.071747.58072-.071747 5.8072-.071746.58072-.14349.29036.071747 1.7422-.50223.29036-.14349h.29036l.29036-.14349h.29036l.29036-.14349.87108.14349.58072-.071747h.58072l.58072-.21524.29036-.35874 1.1614-.50223h.58072l.58072-.28699.29036.071746.58072-.21524.29036.14349.29036-.14349.58072-.071747.58072-.43048.58072-.28699h.29036l.58072-.21524.29036.14349.58072-.21524.29036-.35874 1.4518-.64572.29036.071747.87108-.35873.29036.071747.29036-.21524h.29036l1.1614-.78922.29036-.14349 1.4518-1.3632h.29036l.29036-.28699.29036-.071747 1.4518-2.2242.58072-.071747 1.4518-1.2914.29036-.14349.29036-.28699.29036-.071747.58072-.50223.29036-.28699.87108-.21524.58072-.35874 1.7422-.35874.29036.071747.58072-.071747.87108.14349 1.4518-.071747.58072-.071747 1.4518-.071747.58072-.071747.58072.071747.87108.071747.87108.14349.29036-.14349.58072.071747 1.1614.21524.29036-.14349.29036.14349.58072-.071747.29036-.28699 1.1614-.28699.58072.14349 1.1614-.43048h.29036l.29036-.14349.58072-.071747 1.7422-.35874.29036.071747.29036-.14349h.29036l.87108-.71747h.29036l1.4518-.64572 1.4518-.35874.29036-.35874.58072.071747.87108-.71747.29036-.21524.29036.071747.29036-.071747.29036-.28699.58072.50223.58072.21524 1.4518-.35874.29036-.35874.29036-.071747.58072-.50223h.29036l.58072-.28699.29036.071747.29036-.35874.29036-.14349.58072-.57398.29036-.50223.58072-.50223.29036-.50223.29036-.14349.58072-.71747h.29036l.58072-.64572.29036.071747.58072-.43048.29036-.71747.29036-.071747.29036-.50223.29036-.071747.29036-.28699.29036-.57398.58072-.35874.58072-.071747.58072-.64572.58072-.071747.58072-.43048.29036-.43048.29036-.071747.29036-.21524.29036-.071747.87108-.86096.58072-.071747 1.1614.28699.29036-.21524.29036-.071747.87108.14349 1.7422-.071747 1.1614-.21524 2.0325-.071747.87108-.14349 2.0325-.071747 1.1614-.21524h.87108l.58072-.28699.29036.071747.29036-.071747.29036.071747.29036-.071747.58072.071747.58072-.071747.58072.071747.29036-.21524 1.1614-.28699.29036-.21524h.29036l.58072-.35874.58072-.21524.29036-.14349.58072.071747 1.4518-.35874.29036-.28699.58072-.14349.29036.071747.29036.28699.29036.071747.29036-.14349.29036.071747.87108-.64572.29036.14349.29036-.071747.58072-.43048.58072.071747h.29036l.29036-.28699.29036.071747.58072-.50223h.58072l.58072-.21524.29036.071747.29036-.071747.29036.071747 1.1614-1.0045.58072-.35874.58072-.71747.29036-.071746.29036-.57398.29036.071747.29036-.43048.29036-.071747.29036-.43048.58072-.28699.58072-.64572h.29036l.29036-.50223.29036-.071747.58072-.57398.29036.14349 1.1614-.50223.58072.21524.58072-.21524 1.7422-.35874 1.1614-.071747 1.4518-.28699 1.1614-.14349 1.4518-.071747 1.7422-.35874h2.0325l.29036.14349h.58072l.58072.14349.29036-.14349h.58072l.29036-.14349.29036.071747 1.1614-.28699.58072.071747h.29036l.29036-.21524 2.6132-.071747.87108-.43048 1.4518-.071747.58072-.21524.29036.14349.29036-.21524.58072-.071747h.29036l.29036-.14349.87108.071747.58072.21524.58072-.071747.29036-.14349.58072.071747.29036-.14349.29036.071747 1.1614-.35873.58072-.43048.29036.21524.29036-.21524.29036-.071747.29036-.21524h.58072l.29036-.21524h.29036l.29036-.43048.29036.21524h.29036l.29036-.71747.87108-.50223.58072-.35874.29036-.14349.58072-1.0762.29036.14349.29036-.14349h.29036l1.1614-1.2197.29036.071747.58072-.50223.29036-.50223.29036.14349.29036-.21524.29036-.071747.29036-.21524.29036-.071747.29036-.35873.58072.071747.29036-.14349.29036-.28699.29036-.071747.29036-.35874.29036-.14349.29036.071747 2.0325-.93271 1.4518-.071747.87108-.14349h.87108l.29036-.14349 1.7422-.071747 1.1614-.28699.58072.071747h.29036l.29036-.14349 1.1614.071747.87108.14349 1.1614-.21524 1.1614-.14349 1.4518-.071747 1.1614-.21524.87108.071747 1.1614.21524h.29036l.29036-.21524.29036-.071747.87108-.71747h2.6132l.29036-.14349.29036.071747.58072-.14349.29036.071747.58072-.21524 1.1614-.21524.29036-.35873.58072-.21524.29036.071747.29036.21524h.29036l.29036-.21524.29036-.35874.29036-.071747.29036-.21524.29036-.071746.29036.14349.87108-.50223.29036-.21524h.29036l1.1614-1.148.58072-.14349.87108-1.0045.29036-.35874.87108-.50223.58072-.71747.29036-.14349.29036-.57398.29036-.21524.87108-.28699.29036.14349.29036-.28699.58072-.21524.29036-.21524.29036.14349.29036-.28699h.29036l.29036-.14349.87108-.93271 1.4518.071747.29036-.21524 1.1614-.071747.87108-.14349.87108.14349 2.3229-.071747.87108-.14349h3.7747l.29036-.28699 1.4518-.071747 1.4518-.28699 2.0325-.071747.58072-.21524.29036.071747 1.1614-.14349 1.4518-.43048.29036-.14349.29036-.35874.58072-.21524.29036-.21524 1.1614-.35874.29036.14349h.29036l.29036-.21524h.58072l.58072-.35874.29036.071747.29036-.14349.29036.14349 1.1614-.50223.29036.071747 2.0325-.57398.29036.14349.58072-.14349.29036-.21524.58072-.071747.29036.071747.58072-.21524 1.1614-.50223.29036-.071747.29036-.43048.29036-.21524.29036-.35874.58072-.21524.29036-.14349.29036-.35874.29036.071747.29036-.071747.58072-.35873.29036-.43048.58072-.35874.29036-.57398 1.1614-.50223.29036-.43048.29036-.14349.29036-.57398.87108-.64572.29036-.35874.58072-.071747.29036.21524.58072-.21524.29036-.21524h.29036l.29036.14349 1.1614-.35873.87108-.43048.29036.071747 1.1614-.21524 2.0325-.071747.58072-.071747 3.4843.071747.29036.14349 1.1614-.14349 2.9036.071747 1.7422.21524.87108-.28699.58072-.21524 1.1614-.21524.58072.14349.29036-.071747.29036.14349.29036-.071746.29036-.21524.29036.21524h.87108l.29036-.21524.29036.071747.58072-.35874.29036.14349.29036-.28699.29036.21524 1.4518-.071747m1.1614 0 .87108-.14349.58072-.35874.29036-.35873.58072-.071747h.29036l.58072-.43048.58072.14349.58072-.35874.29036.14349.29036-.35873.29036.21524.29036-.071747.87108-1.0762.29036-.071747.29036-.28699.29036.071747.29036-.14349.29036-.64572 1.4518-1.5784.29036-.43048.29036-.071747.87108-.71747.29036-.21524.29036-.43048h.29036l.29036-.64572.58072-.64572v0" clip-path="url(#d)" fill="none" stroke="#28f" stroke-linecap="square" stroke-width="1.5"/>
   </g>
   <g id="fy">
    <path d="m52 523.06v-232.9" fill="none" stroke="#000" stroke-linecap="square" stroke-width=".8"/>
   </g>
   <g id="fz">
    <path d="m853.2 523.06v-232.9" fill="none" stroke="#000" stroke-linecap="square" stroke-width=".8"/>
   </g>
   <g id="ga">
    <path d="m52 523.06h801.2" fill="none" stroke="#000" stroke-linecap="square" stroke-width=".8"/>
   </g>
   <g id="gb">
    <path d="m52 290.16h801.2" fill="none" stroke="#000" stroke-linecap="square" stroke-width=".8"/>
   </g>
   <g id="gc">
    <!-- サーバー数の推移 -->
    <g transform="translate(404.6 284.16) scale(.12 -.12)">
     <defs>
      <path id="z" transform="scale(.015625)" d="m4685 2893q0-621-84-1111-83-489-288-877-204-387-569-691t-928-560l-544 512q448 167 781 371 333 205 550 503 218 298 323 739 106 442 106 1075v1620q0 192-10 339-9 147-22 217h723q-6-70-22-217t-16-339v-1581zm-2304 2086q-7-64-23-199-16-134-16-313v-2317q0-128 6-256 7-128 13-224 7-96 13-140h-710q6 44 12 140 7 96 13 221 7 125 7 259v2317q0 122-10 256-9 135-28 256h723zm-1978-1197q45-12 144-22t237-20q138-9 285-9h4217q237 0 394 13t246 26v-679q-76 7-240 13-163 6-393 6h-4224q-147 0-282-3-134-3-234-10-99-6-150-12v697z"/>
      <path id="s" transform="scale(.015625)" d="m621 2854q109-6 265-16 157-9 339-16 183-6 349-6 128 0 352 0t509 0 598 0q314 0 624 0 311 0 586 0t486 0q212 0 327 0 230 0 416 16t301 22v-793q-109 6-308 19-198 13-409 13-109 0-324 0-214 0-489 0t-586 0q-310 0-624 0-313 0-598 0t-509 0-352 0q-262 0-525-10-262-9-428-22v793z"/>
      <path id="y" transform="scale(.015625)" d="m4941 5037q83-109 176-269t182-320q90-160 154-288l-416-179q-96 192-240 448t-272 435l416 173zm723 275q83-122 182-282 100-160 196-317 96-156 153-271l-416-186q-102 205-246 454-144 250-279 429l410 173zm-4339-3360q102 262 201 556 100 295 183 612t144 630q61 314 93 602l723-147q-19-83-45-183-26-99-48-195t-42-166q-32-154-86-394t-131-512-164-551q-86-278-182-514-115-301-269-618-153-317-326-618-173-300-346-550l-697 294q301 397 563 874t429 880zm3155 198q-96 250-215 531-118 282-243 567-124 285-246 534-122 250-224 429l659 218q96-179 221-429t253-535q128-284 249-566 122-281 218-525 90-230 195-518 106-288 211-592 106-304 195-589 90-285 154-515l-729-237q-84 352-199 736t-240 768-259 723z"/>
     </defs>
     <use xlink:href="#z"/>
     <use transform="translate(100)" xlink:href="#s"/>
     <use transform="translate(200)" xlink:href="#y"/>
     <use transform="translate(300)" xlink:href="#s"/>
     <use transform="translate(400)" xlink:href="#p"/>
     <use transform="translate(500)" xlink:href="#t"/>
     <use transform="translate(600)" xlink:href="#q"/>
     <use transform="translate(700)" xlink:href="#o"/>
    </g>
   </g>
  </g>
 </g>
 <defs>
  <clipPath id="c">
   <rect x="52" y="26.88" width="801.2" height="232.9"/>
  </clipPath>
  <clipPath id="d">
   <rect x="52" y="290.16" width="801.2" height="232.9"/>
  </clipPath>
 </defs>
</svg>
