<!DOCTYPE svg  PUBLIC '-//W3C//DTD SVG 1.1//EN'  'http://www.w3.org/Graphics/SVG/1.1/DTD/svg11.dtd'>
<svg version="1.1" viewBox="0 0 864 576" xmlns="http://www.w3.org/2000/svg" xmlns:xlink="http://www.w3.org/1999/xlink">
 <defs>
  <style type="text/css">*{stroke-linejoin: round; stroke-linecap: butt}</style>
 </defs>
 <g id="aa">
  <g id="ab">
   <path d="m0 576h864v-576h-864z" fill="#fff"/>
  </g>
  <g id="ac">
   <g id="ad">
    <path d="m52 259.78h801.2v-232.9h-801.2z" fill="#fff"/>
   </g>
   <g id="ae">
    <path d="m131.96 259.78h.78221v-232.9h-.78221z" clip-path="url(#b)" fill="#808080" opacity=".3" stroke="#808080"/>
   </g>
   <g id="af">
    <path d="m419.94 259.78h.52147v-232.9h-.52147z" clip-path="url(#b)" fill="#808080" opacity=".3" stroke="#808080"/>
   </g>
   <g id="ag">
    <path d="m730.22 259.78h1.0429v-232.9h-1.0429z" clip-path="url(#b)" fill="#808080" opacity=".3" stroke="#808080"/>
   </g>
   <g id="ah">
    <g id="ai">
     <g id="aj">
      <path d="m104.19 259.78v-232.9" clip-path="url(#b)" fill="none" stroke="#b0b0b0" stroke-linecap="square" stroke-opacity=".3" stroke-width=".8"/>
     </g>
     <g id="ak">
      <defs>
       <path id="g" d="m0 0v3.5" stroke="#000" stroke-width=".8"/>
      </defs>
      <use x="104.188832" y="259.777732" stroke="#000000" stroke-width=".8" xlink:href="#g"/>
     </g>
    </g>
    <g id="al">
     <g id="am">
      <path d="m254.37 259.78v-232.9" clip-path="url(#b)" fill="none" stroke="#b0b0b0" stroke-linecap="square" stroke-opacity=".3" stroke-width=".8"/>
     </g>
     <g id="an">
      <use x="254.373084" y="259.777732" stroke="#000000" stroke-width=".8" xlink:href="#g"/>
     </g>
    </g>
    <g id="ao">
     <g id="ap">
      <path d="m404.56 259.78v-232.9" clip-path="url(#b)" fill="none" stroke="#b0b0b0" stroke-linecap="square" stroke-opacity=".3" stroke-width=".8"/>
     </g>
     <g id="aq">
      <use x="404.557335" y="259.777732" stroke="#000000" stroke-width=".8" xlink:href="#g"/>
     </g>
    </g>
    <g id="ar">
     <g id="as">
      <path d="m554.74 259.78v-232.9" clip-path="url(#b)" fill="none" stroke="#b0b0b0" stroke-linecap="square" stroke-opacity=".3" stroke-width=".8"/>
     </g>
     <g id="at">
      <use x="554.741587" y="259.777732" stroke="#000000" stroke-width=".8" xlink:href="#g"/>
     </g>
    </g>
    <g id="au">
     <g id="av">
      <path d="m704.93 259.78v-232.9" clip-path="url(#b)" fill="none" stroke="#b0b0b0" stroke-linecap="square" stroke-opacity=".3" stroke-width=".8"/>
     </g>
     <g id="aw">
      <use x="704.925839" y="259.777732" stroke="#000000" stroke-width=".8" xlink:href="#g"/>
     </g>
    </g>
   </g>
   <g id="ax">
    <g id="ay">
     <g id="az">
      <path d="m52 246.93h801.2" clip-path="url(#b)" fill="none" stroke="#b0b0b0" stroke-linecap="square" stroke-opacity=".3" stroke-width=".8"/>
     </g>
     <g id="ba">
      <defs>
       <path id="d" d="m0 0h-3.5" stroke="#000" stroke-width=".8"/>
      </defs>
      <use x="52" y="246.926099" stroke="#000000" stroke-width=".8" xlink:href="#d"/>
     </g>
     <g id="bb">
      <!-- 300 -->
      <g transform="translate(27.9 250.91) scale(.1 -.1)">
       <defs>
        <path id="r" transform="scale(.015625)" d="m1715-90q-371 0-656 90t-503 240q-217 150-377 323l359 474q211-205 479-359 269-153 634-153 269 0 467 92 199 93 311 266t112 423q0 256-125 451t-429 300q-304 106-835 106v551q467 0 732 105 266 106 384 291 119 186 119 423 0 307-192 489-192 183-531 183-269 0-503-119-233-118-438-316l-384 460q282 256 614 413 333 157 737 157 422 0 748-144 327-144 512-413 186-269 186-659 0-403-221-685-221-281-592-422v-26q269-70 490-227t349-400 128-557q0-422-215-726-214-304-573-468-358-163-787-163z"/>
        <path id="a" transform="scale(.015625)" d="m1830-90q-460 0-806 275-346 276-535 823-188 547-188 1366 0 820 188 1357 189 538 535 803 346 266 806 266 461 0 800-269 340-269 528-803 189-534 189-1354 0-819-189-1366-188-547-528-823-339-275-800-275zm0 589q237 0 422 185 186 186 288 599 103 413 103 1091 0 679-103 1082-102 403-288 582-185 180-422 180-236 0-422-180-186-179-292-582-105-403-105-1082 0-678 105-1091 106-413 292-599 186-185 422-185z"/>
       </defs>
       <use xlink:href="#r"/>
       <use transform="translate(57)" xlink:href="#a"/>
       <use transform="translate(114)" xlink:href="#a"/>
      </g>
     </g>
    </g>
    <g id="bc">
     <g id="bd">
      <path d="m52 220.79h801.2" clip-path="url(#b)" fill="none" stroke="#b0b0b0" stroke-linecap="square" stroke-opacity=".3" stroke-width=".8"/>
     </g>
     <g id="be">
      <use x="52" y="220.787184" stroke="#000000" stroke-width=".8" xlink:href="#d"/>
     </g>
     <g id="bf">
      <!-- 600 -->
      <g transform="translate(27.9 224.77) scale(.1 -.1)">
       <defs>
        <path id="k" transform="scale(.015625)" d="m1971-90q-339 0-634 144-294 144-518 435-224 292-352 733-128 442-128 1044 0 678 147 1161 148 483 397 784 250 301 570 445t665 144q397 0 688-147 292-147 490-359l-403-448q-128 154-327 253-198 99-409 99-307 0-567-182-259-182-413-605-153-422-153-1145 0-608 115-1002t326-589q212-195 493-195 212 0 375 121 163 122 259 343t96 522q0 300-90 511-89 212-259 320-169 109-419 109-211 0-451-134t-458-461l-25 538q134 192 313 323t374 201q196 71 375 71 397 0 694-163 298-163 467-490 170-326 170-825 0-468-195-817-195-348-512-544-317-195-701-195z"/>
       </defs>
       <use xlink:href="#k"/>
       <use transform="translate(57)" xlink:href="#a"/>
       <use transform="translate(114)" xlink:href="#a"/>
      </g>
     </g>
    </g>
    <g id="bg">
     <g id="bh">
      <path d="m52 194.65h801.2" clip-path="url(#b)" fill="none" stroke="#b0b0b0" stroke-linecap="square" stroke-opacity=".3" stroke-width=".8"/>
     </g>
     <g id="bi">
      <use x="52" y="194.648269" stroke="#000000" stroke-width=".8" xlink:href="#d"/>
     </g>
     <g id="bj">
      <!-- 900 -->
      <g transform="translate(27.9 198.63) scale(.1 -.1)">
       <defs>
        <path id="q" transform="scale(.015625)" d="m1562-90q-410 0-708 150-297 151-502 356l403 461q141-160 346-256t422-96q224 0 425 102 202 103 352 333 151 230 237 614 87 384 87 941 0 589-115 970t-323 563-496 182q-205 0-372-118-166-118-262-336t-96-525q0-301 86-512 87-211 259-323 173-112 417-112 224 0 460 141 237 141 448 461l32-544q-134-180-313-314t-371-208-384-74q-391 0-689 166-297 167-467 496-169 330-169 823 0 467 195 816t515 541 698 192q339 0 636-138 298-137 519-419 221-281 349-710t128-1018q0-691-141-1187t-391-807q-249-310-563-461-313-150-652-150z"/>
       </defs>
       <use xlink:href="#q"/>
       <use transform="translate(57)" xlink:href="#a"/>
       <use transform="translate(114)" xlink:href="#a"/>
      </g>
     </g>
    </g>
    <g id="bk">
     <g id="bl">
      <path d="m52 168.51h801.2" clip-path="url(#b)" fill="none" stroke="#b0b0b0" stroke-linecap="square" stroke-opacity=".3" stroke-width=".8"/>
     </g>
     <g id="bm">
      <use x="52" y="168.509354" stroke="#000000" stroke-width=".8" xlink:href="#d"/>
     </g>
     <g id="bn">
      <!-- 1200 -->
      <g transform="translate(22.2 172.49) scale(.1 -.1)">
       <defs>
        <path id="f" transform="scale(.015625)" d="m544 0v608h1037v3277h-845v467q333 58 579 147 247 90 451 218h557v-4109h915v-608h-2694z"/>
        <path id="e" transform="scale(.015625)" d="m282 0v429q697 621 1164 1136 468 515 701 956 234 442 234 826 0 256-87 451-86 196-262 301-176 106-445 106-275 0-506-151-230-150-422-368l-416 410q301 333 637 518 336 186 803 186 429 0 749-176t496-493 176-745q0-455-224-919t-615-935q-390-470-889-950 186 20 394 36t374 16h1184v-634h-3046z"/>
       </defs>
       <use xlink:href="#f"/>
       <use transform="translate(57)" xlink:href="#e"/>
       <use transform="translate(114)" xlink:href="#a"/>
       <use transform="translate(171)" xlink:href="#a"/>
      </g>
     </g>
    </g>
    <g id="bo">
     <g id="bp">
      <path d="m52 142.37h801.2" clip-path="url(#b)" fill="none" stroke="#b0b0b0" stroke-linecap="square" stroke-opacity=".3" stroke-width=".8"/>
     </g>
     <g id="bq">
      <use x="52" y="142.370439" stroke="#000000" stroke-width=".8" xlink:href="#d"/>
     </g>
     <g id="br">
      <!-- 1500 -->
      <g transform="translate(22.2 146.36) scale(.1 -.1)">
       <defs>
        <path id="j" transform="scale(.015625)" d="m1715-90q-365 0-653 90t-506 237q-217 147-383 307l352 480q134-134 294-246t361-183q202-70 452-70 262 0 473 118 212 119 333 346 122 227 122 541 0 460-247 716-246 256-649 256-224 0-384-64t-365-198l-365 237 141 2240h2387v-627h-1747l-109-1204q154 77 307 118 154 42 340 42 397 0 723-160t518-490q192-329 192-847 0-519-224-887t-586-560q-361-192-777-192z"/>
       </defs>
       <use xlink:href="#f"/>
       <use transform="translate(57)" xlink:href="#j"/>
       <use transform="translate(114)" xlink:href="#a"/>
       <use transform="translate(171)" xlink:href="#a"/>
      </g>
     </g>
    </g>
    <g id="bs">
     <g id="bt">
      <path d="m52 116.23h801.2" clip-path="url(#b)" fill="none" stroke="#b0b0b0" stroke-linecap="square" stroke-opacity=".3" stroke-width=".8"/>
     </g>
     <g id="bu">
      <use x="52" y="116.231524" stroke="#000000" stroke-width=".8" xlink:href="#d"/>
     </g>
     <g id="bv">
      <!-- 1800 -->
      <g transform="translate(22.2 120.22) scale(.1 -.1)">
       <defs>
        <path id="l" transform="scale(.015625)" d="m1830-90q-441 0-787 163-345 164-547 448-202 285-202 650 0 314 122 557t314 419 403 291v32q-256 186-442 458-185 272-185 643 0 365 176 640t480 425q304 151 694 151 410 0 704-160t457-439q164-278 164-649 0-237-96-448t-234-381q-137-169-291-278v-32q218-115 397-285 179-169 288-406t109-557q0-346-189-628-189-281-532-448-342-166-803-166zm314 2708q205 198 310 419 106 221 106 464 0 211-83 384t-247 272q-163 99-393 99-288 0-480-183-192-182-192-502 0-256 134-429 135-172 359-294t486-230zm-294-2170q236 0 418 89 183 90 285 253 103 164 103 388 0 211-90 367-89 157-246 272-157 116-368 215t-454 195q-244-173-398-426-153-252-153-553 0-237 118-416 119-179 324-282 205-102 461-102z"/>
       </defs>
       <use xlink:href="#f"/>
       <use transform="translate(57)" xlink:href="#l"/>
       <use transform="translate(114)" xlink:href="#a"/>
       <use transform="translate(171)" xlink:href="#a"/>
      </g>
     </g>
    </g>
    <g id="bw">
     <g id="bx">
      <path d="m52 90.093h801.2" clip-path="url(#b)" fill="none" stroke="#b0b0b0" stroke-linecap="square" stroke-opacity=".3" stroke-width=".8"/>
     </g>
     <g id="by">
      <use x="52" y="90.092609" stroke="#000000" stroke-width=".8" xlink:href="#d"/>
     </g>
     <g id="bz">
      <!-- 2100 -->
      <g transform="translate(22.2 94.078) scale(.1 -.1)">
       <use xlink:href="#e"/>
       <use transform="translate(57)" xlink:href="#f"/>
       <use transform="translate(114)" xlink:href="#a"/>
       <use transform="translate(171)" xlink:href="#a"/>
      </g>
     </g>
    </g>
    <g id="ca">
     <g id="cb">
      <path d="m52 63.954h801.2" clip-path="url(#b)" fill="none" stroke="#b0b0b0" stroke-linecap="square" stroke-opacity=".3" stroke-width=".8"/>
     </g>
     <g id="cc">
      <use x="52" y="63.953694" stroke="#000000" stroke-width=".8" xlink:href="#d"/>
     </g>
     <g id="cd">
      <!-- 2400 -->
      <g transform="translate(22.2 67.939) scale(.1 -.1)">
       <defs>
        <path id="m" transform="scale(.015625)" d="m2170 0v3072q0 192 12 457 13 266 20 458h-26q-90-179-183-365-92-185-195-364l-921-1415h2579v-576h-3328v493l1875 2957h858v-4717h-691z"/>
       </defs>
       <use xlink:href="#e"/>
       <use transform="translate(57)" xlink:href="#m"/>
       <use transform="translate(114)" xlink:href="#a"/>
       <use transform="translate(171)" xlink:href="#a"/>
      </g>
     </g>
    </g>
    <g id="ce">
     <g id="cf">
      <path d="m52 37.815h801.2" clip-path="url(#b)" fill="none" stroke="#b0b0b0" stroke-linecap="square" stroke-opacity=".3" stroke-width=".8"/>
     </g>
     <g id="cg">
      <use x="52" y="37.814779" stroke="#000000" stroke-width=".8" xlink:href="#d"/>
     </g>
     <g id="ch">
      <!-- 2700 -->
      <g transform="translate(22.2 41.8) scale(.1 -.1)">
       <defs>
        <path id="i" transform="scale(.015625)" d="m1235 0q32 646 109 1187t224 1024 384 941 576 938h-2208v627h3027v-455q-409-512-665-989-256-476-397-969t-205-1053-90-1251h-755z"/>
       </defs>
       <use xlink:href="#e"/>
       <use transform="translate(57)" xlink:href="#i"/>
       <use transform="translate(114)" xlink:href="#a"/>
       <use transform="translate(171)" xlink:href="#a"/>
      </g>
     </g>
    </g>
   </g>
   <g id="ci">
    <path d="m88.418 222.44.07431.17426.065618-.34852.27117.34852.13819-.08713.36894-.8713.78264-3.2238.79568-5.1407.38937-1.3069.39197-.17426.36851-1.6555.3911-1.2198.3911-2.0911.3911-2.7882.3911-.60991 1.1733-8.8872 1.5644-10.281.3911-1.3941.3911-.78417.3911-2.004.3911-5.3149 1.5644-35.375.78221-21.173 1.5644-48.793.3911-5.3149.3911-2.3525.3911-.78417.3911 2.6139.3911 1.5683 1.9555 43.565.78221 21.608.78221 19.778 1.1733 23.874 1.1733 17.339 1.1733 14.464.3911 2.701.3911 3.9208.3911 2.7882.3911 3.6594.3911 1.9169.3911 3.2238 1.1733 6.5347.3911 2.4396.3911 1.5683.3911 3.4852.3911 1.1327.3911 1.7426.78221 1.6555.3911 1.1327.3911.26139.3911 1.3069.3911.52278.78221.26139.78221-.43565 1.1733-2.8753.3911-.26139.3911-.95843.3911-.43565.78221-3.3981.78221-3.9208.3911.26139.3911-.17426.3911-2.7882.3911-1.5683.3911-.78417.78221-2.7882.3911-3.1367.3911-1.7426.3911-.60991 1.1733-4.2694.3911-3.9208.3911-2.4396.3911-3.6594 1.1733-7.8417.3911-1.3941m.78221 19.517.3911-12.285.3911-2.3525.3911-1.3941 1.1733-13.418.3911-6.012.78221-18.21.78221-22.654.3911-16.293 1.1733-31.105.78221-14.725.3911-3.7466.3911.43565.3911-1.2198.3911 1.7426.78221 8.8001.78221 21.173.3911 6.9704 1.1733 28.404.78221 14.725.78221 16.555.78221 12.111.78221 10.891 1.9555 21.608 2.3466 12.808.78221 5.7506.78221 3.1367.3911.43565.3911.8713.3911 1.3069.3911.60991 1.1733 4.5307.3911-.43565.3911.34852h.3911l.3911.52278.3911-1.3069.3911.17426.3911-.34852.3911-.52278.3911-.26139.3911-.60991.3911.08713.3911-.52278.3911-2.0911.3911-1.4812.3911-.8713 1.5644-6.2733.3911-1.0456.3911-2.2654.3911-1.2198.3911-2.701.3911-1.0456.3911-3.2238.3911-1.6555.3911-3.3109.3911-.95843.78221-2.701.3911-2.2654.3911-1.3941.78221-6.012.3911-1.8297.3911-.43565.3911-3.1367.3911-1.1327.3911-2.3525 1.1733-4.5307 1.1733-18.733 1.1733-27.62.3911-13.766 1.5644-36.856.78221-12.111.78221-4.4436.3911 1.0456.3911 3.7466.78221 17.6 1.1733 28.23.78221 19.43 1.1733 21.521.78221 11.763 1.5644 23.961 1.1733 13.418 1.5644 12.547 2.7377 14.115.3911 1.1327.3911.69704.3911 1.1327.3911.60991h.3911l.52147.26139.52147.8713.13037-.08713.26074-.52278.52147.52278.13037.08713.26074-.60991.13037-.52278.13037.17426.26074-.95843h.13037l.13037.17426.13037-.17426.13037.087129.13037-.43565.13037.34852.3911-1.2198.13037.17426.13037-.08713.13037-.43565.13037.08713.26074-.78417.13037-.17426.26074-.8713.13037-.08713.26074-.52278.13037-.08713.26074-1.3941.13037.08713.26074-.43565.13037.08713.52147-1.2198.3911-2.701h.13037l.52147-2.3525.26074-1.0456.13037-.52278h.13037l1.0429-4.3565.13037-1.0456.13037-.087129.91258-5.5763.3911-1.2198.26074-.69704.13037.17426.26074-2.0911.13037-.34852.26074-1.3941.13037-.34852.3911-3.0495.3911-.8713.26074-1.7426.13037-.087129.13037.17426.13037-.08713.3911-1.9169.26074-.95843.13037-1.6555.13037.26139 1.1733-7.406h.13037l.13037-.17426.26074-1.2198.13037.69704.13037-1.0456.13037.26139 1.1733-10.281.91258-17.774 1.8252-52.888.13037-1.7426.91258-23.874.3911-4.1822.26074-3.7466.13037.43565.52147-2.8753.13037-.34852.13037-1.0456.13037-.087129.26074.8713 1.1733 22.915.26074 4.7921.13037.78417.52147 12.547.3911 9.5843 1.0429 20.737.13037 1.8297.52147 11.327 1.8252 31.192.3911 3.5723 1.8252 17.426 1.4341 8.8872.26074 1.2198.3911 3.0495.26074 1.9169.26074 2.1782.3911 2.1782.26074 1.2198.13037 1.6555.26074.43565.52147 2.9624.26074.69704.13037.17426.13037.60991.13037-.26139.26074.95843.78221 2.8753.3911.52278.13037-.08713.13037.43565.26074.08713.13037.26139.26074-.17426.13037.43565.13037-.34852.3911.34852.26074-.60991.13037-.43565.26074.17426.26074-.43565.52147-1.5683.26074-.69704.26074.26139.26074-.26139.52147-.95843.26074.43565.26074-1.2198.52147-3.2238.26074-1.3941.26074-.26139.26074-.95843.52147-.34852.52147-2.0911.26074-.08713.52147-3.3109.26074-.26139.26074-.78417h.26074l.26074-1.1327.26074-2.1782.78221-3.2238.52147-2.9624.26074-2.2654.26074-.52278.52147-2.0911.52147-3.7466.26074.087129.52147-1.4812.52147-4.008.78221-5.8377.26074-1.1327.26074-1.7426h.26074l.52147-3.1367.26074-.69704 1.3037-5.7506.78221-11.24.78221-17.426 2.0859-66.219.52147-11.763.52147-9.9328.52147-7.7545.78221-5.5763h.26074l.26074 1.1327.26074 1.7426.78221 7.406.78221 16.206.26074-3.1367.52147 14.376.52147 10.63 1.5644 34.068 1.3037 28.143 1.8252 30.408.78221 7.5803.78221 6.0991.26074 2.8753.52147 2.9624.26074 2.5268.26074 1.1327.52147 3.8337.26074.8713.26074-.17426.26074.087129.26074.43565.78221 2.9624.26074-1.1327.26074-.43565.26074.60991.26074-.26139.26074.69704.26074-.34852.52147.26139.52147-2.2654.52147.087129.26074-1.5683.26074-.8713.26074-1.3941.26074.34852.26074-1.3069.26074-.60991 1.5644-6.5347.52147-3.6594.52147-2.1782.52147-5.0535.52147-6.012.26074-.8713 1.3037-11.153.26074-1.3941.52147-3.5723.26074-.43565.26074-2.4396.52147-2.4396.26074-1.7426.26074-.60991.26074.34852.26074-.69704.26074-1.6555.26074-.78417.52147-2.1782.26074-.34852.26074.26139.26074-.26139.26074.69704.26074 2.2654.26074-.08713.26074.17426.26074-.34852.26074-.60991.26074.69704.26074-.08713.26074-.26139.26074-1.3941h.52147l.26074-2.8753 1.0429-17.339.78221-20.737.26074-12.198 1.0429-25.703.78221-20.388.52147-9.9328.26074-7.1446.26074-3.3109.26074-.60991.52147-4.0951.26074-.34852.26074.52278.26074 1.4812.26074.52278.26074 3.5723.52147 2.9624.52147 7.0575.52147 12.634.52147 7.0575.52147 11.065.52147 15.248 2.8681 59.248.52147 9.2358 1.3037 19.43.26074 3.0495.78221 5.5763 1.0429 9.41.26074 1.5683.26074 3.0495 1.0429 4.8793.52147 1.6555.26074 2.004.26074-.087129.26074.52278.52147 1.3941.26074.26139.26074.52278.52147-.34852.52147-1.0456.26074-1.3069.52147.087129.26074-1.1327.26074-1.6555.52147-1.1327.26074.17426.26074-2.004.26074-1.0456.26074-1.9169.26074-.34852.26074-2.6139.26074-1.0456.26074-.34852.78221-3.0495.26074-3.3109.52147-9.1486.26074-2.4396 1.0429-13.941.78221-5.9248.78221-2.6139.26074-1.3941.26074-3.0495.78221-5.1407.52147-3.7466.26074-.43565.26074-1.2198h.26074l.26074-1.2198.26074.78417.26074-1.7426.26074.34852.26074.78417.26074 1.2198.78221 1.7426.26074-.26139.26074 2.6139 1.3037 3.9208.26074-.43565.26074-1.2198 1.0429-14.464.78221-18.994.52147-13.069 1.5644-33.893 1.0429-10.368.26074 1.9169.26074.78417.26074.26139.26074 1.1327.52147 5.402.78221 20.388.26074 4.3565 1.0429 26.139.26074 2.9624.26074 6.7961.26074 3.6594.78221 18.036 1.0429 18.297.52147 9.0615.26074 3.5723.26074 1.2198.78221 10.456 1.0429 7.5803.26074 1.4812 1.0429 9.8457.26074 1.3941.52147 1.4812.26074 2.6139.26074 1.2198.52147 3.1367 2.0859 7.5803.26074-.17426.26074.69704.26074.26139.26074.52278.26074.08713.26074-.08713.26074-.43565.26074-.08713.26074.43565.26074-.60991.26074-.08713.26074-.26139.26074.17426.26074.43565h.26074l.52147-.8713.26074.43565.26074-.78417.26074-.08713.26074-1.0456.26074.17426.26074-.08713.26074-1.5683.26074-.69704.26074-1.3941.52147-1.0456.52147-1.6555.52147-4.2694.26074-.34852.78221-3.6594.26074-.52278.78221-3.1367.26074-.78417.26074-.087129.52147-2.2654.26074-.52278.26074-1.2198.26074-1.8297.52147-1.9169.26074-2.8753.78221-2.6139.26074-.34852.26074-1.0456.26074-.08713 1.8252-11.065.26074-.78417.26074-.17426.78221-4.9664.52147-6.3605.26074-4.008.78221-15.248.52147-10.107 1.5644-42.258.52147-9.9328.26074-7.406.52147-6.2733.52147-5.6634.78221-2.4396.26074 1.3941.26074 2.004.52147 8.2773.52147 12.982.78221 16.468.78221 21.608 1.3037 25.442.52147 7.5803.52147 8.4516 2.0859 24.832.78221 5.4892 1.0429 6.709.52147 2.701.26074.69704 2.6074 12.721h.26074l.26074.43565.26074 1.4812.26074-.26139.26074.95843.26074.08713.26074 1.3941.52147.34852.52147.52278.26074.17426.78221-.52278.26074-.78417.26074-.26139.26074-.69704.52147.34852.26074-.17426.26074.26139.52147.08713.26074-.08713.26074.60991.26074-.34852.78221-3.8337.52147-1.2198.52147-1.6555.26074-1.2198.26074-.43565.78221-2.7882.26074-2.6139.78221-3.8337.26074-1.3941.52147-1.6555.78221-4.0951.26074-1.5683.26074-.26139h.26074l.26074-.69704.26074-1.2198.26074-1.8297.26074-.95843.52147-2.7882.26074-2.004.26074-.69704.52147-2.701.26074.17426.52147-3.3981.26074-1.4812.52147-4.008h.26074l.52147-2.6139.26074-2.0911.26074-.60991.26074-2.0911.52147-11.763.52147-10.368.26074-6.2733 1.3037-42.345.52147-11.588.26074-8.6258.52147-6.6219.52147-5.8377.26074-2.7882.26074-.17426.52147-1.3069.26074 1.2198.26074 2.5268.78221 13.854.26074 3.5723 2.3466 52.539 1.3037 26.139 1.5644 21.173.52147 6.7961.26074 1.8297.78221 7.0575.26074 1.3941 1.0429 8.3645.26074 1.1327.78221 5.2278 1.0429 3.6594.26074 1.7426 1.0429 2.7882.26074.52278 1.0429 3.8337.26074.34852.26074.69704.26074-.26139.26074.17426.78221-1.0456m.52147 2.4396.26074 1.3941.26074-.08713.26074.26139.52147-1.5683.26074-.08713.26074-.52278.26074.17426.26074-.8713.26074.087129.52147-2.5268.26074-.78417h.26074l.26074-.8713.26074-2.0911.26074-.26139.26074-.95843.26074-1.4812.26074-.34852 1.0429-4.8793.52147-2.9624.26074-1.0456.26074.17426.26074-1.1327.26074-2.6139.78221-4.4436.52147-4.008.26074-2.1782.52147-2.2654.52147-2.5268.26074-.34852.26074-.69704.26074-1.1327.26074.087129.52147-2.7882.26074.08713 1.0429-9.41.52147.17426.26074-2.4396.26074-1.3069.26074-3.3981.26074-1.6555.26074-2.5268 1.3037-22.305.26074-5.7506.78221-23.961 1.5644-42.084 1.0429-15.858.26074-.52278.52147.78417.26074 1.8297.52147 5.8377.52147 12.547 1.0429 23.612.78221 21.957.26074 5.3149.26074 2.9624 2.6074 47.311 1.0429 9.2358 2.3466 18.907.26074.69704.78221 4.8793.26074.60991 1.0429 6.3605.78221 2.8753 1.3037 3.3109.78221 3.3981.52147.60991.26074-.43565.26074-.78417.26074-.34852.26074.52278.26074-.8713.26074.087129.26074.69704.26074-.52278.26074.43565.78221-1.4812.78221-2.5268.26074-.52278.52147-2.1782.26074-.69704.52147-2.7882.26074.26139.26074-1.5683.26074-.52278.52147-2.0911.26074-1.0456.26074-.52278.52147-2.004.26074-2.0911.26074-.43565 1.0429-5.1407.26074-.78417.26074-1.3941.26074-.78417.52147-2.7882.52147-2.004.52147-2.3525.52147-2.0911.26074-2.4396.26074-.34852.26074-1.2198.26074-2.701.78221-3.6594.26074-.43565.26074-.17426.26074-1.1327.52147-6.2733.78221-8.5387.78221-16.99 1.5644-33.196.78221-20.04.26074-5.1407.78221-22.305.52147-9.9328.26074-2.7882.26074-.34852.26074-5.1407.26074-2.1782.26074-.08713.52147 2.3525.26074 5.0535.52147 15.248.52147 11.414 1.5644 41.561.52147 11.588 1.0429 19.691 1.3037 21.521 2.0859 22.915.52147 3.2238.52147 3.5723.52147 3.4852 2.0859 12.198.26074-.08713.52147 2.4396.52147 1.4812.26074.34852.26074 1.0456.26074-.17426 1.3037 2.7882.26074-.17426.26074.52278.78221-.17426.52147-.78417.52147-.34852.26074-1.2198.26074-.17426h.26074l.26074-.43565.26074.52278.26074.08713.26074-.52278.52147-2.4396.52147-2.7882 1.8252-7.4932h.26074l.52147-1.7426.26074-1.6555.26074-.43565.52147-3.8337.26074.087129.26074-.69704.26074-.34852.26074-1.3069.26074-.08713 1.0429-8.4516.52147-2.3525.26074-.43565.52147-2.4396.26074-.34852.26074-.95843.26074-2.7882 1.0429-5.3149.26074-1.3069.26074-.08713.26074-.26139.52147-2.7882.26074-2.004 1.0429-13.244 1.3037-27.62.52147-17.426 2.0859-58.028.26074-5.3149.52147-5.4892.26074-3.8337.26074-.69704.26074-2.7882.26074 2.5268.26074-.17426.78221 9.4971.26074 1.6555.78221 15.161.52147 10.543 2.3466 56.286 1.0429 19.604.52147 7.1446.52147 8.4516.78221 10.891.26074 2.7882.52147 6.4476 1.3037 11.85.26074.60991.26074 2.4396.26074 1.3069.26074 2.0911.26074.78417.26074 2.0911.26074.69704.78221 3.3981.52147.78417.26074-.087129.52147.087129.26074-.26139.26074.17426.26074-.17426.26074-.43565.52147-1.3941.26074-.26139 1.0429-3.7466.26074-.087129.52147-2.7882.52147-3.6594.26074-1.2198.26074.43565.26074-.17426.78221-3.9208.26074.26139.26074-1.6555.26074-.34852.26074-1.2198.52147-8.9744 1.0429-9.8457.26074-1.3069.26074-2.5268.26074-3.7466.52147-2.7882.52147-4.1822.52147-3.8337.26074-3.1367.52147-2.0911.26074-.52278.26074-.8713.26074-.43565h.26074l.26074-.26139.26074.69704.26074.26139.26074.52278.52147-.08713.26074.08713.26074 1.3941.26074 2.1782.26074-.78417.26074 1.1327.26074 2.0911.26074-2.5268.26074.17426.26074-.52278.26074-1.7426.26074-3.3109.52147-2.3525.26074-2.9624.26074-6.4476.26074-2.7882 1.0429-24.745.26074-10.978 1.0429-24.222.78221-23.089 1.0429-23.002.78221-6.9704.26074-.43565.26074-.78417 1.0429 9.1486.78221 12.808 1.3037 28.753.26074 3.4852 1.3037 31.367.78221 15.073 2.0859 40.69.78221 10.63 1.8252 17.949 1.0429 6.3605.26074 2.2654.26074 1.1327.78221 5.2278.26074.34852.26074.78417.26074 1.4812.26074.17426.26074-.17426.26074.08713.26074-.26139.26074.26139.52147-.95843.26074-.52278 1.0429-3.7466.26074-.60991.52147-2.3525.52147-2.1782.52147-2.6139.26074-.34852.26074.26139.26074-2.3525.26074-.08713.26074-1.4812.52147-5.6634.26074-.17426.78221-7.3189.52147-2.5268.26074-1.7426.78221-8.3645.26074-4.0951.26074-1.1327.52147-4.4436.26074-.60991.52147-5.2278.52147-2.9624.26074-1.3941.52147-3.7466.26074-.43565.26074.43565.52147-2.1782.26074-.08713.78221-1.7426.26074-1.1327.26074.8713.52147 3.1367.26074 2.4396.26074-.17426h.26074l.52147 4.008.26074-2.6139.26074.26139 1.3037-15.161.26074-3.7466.52147-10.891.78221-24.571 1.3037-29.624.78221-11.85.52147-3.3109.26074.60991.26074.087129.26074-.95843.26074-.17426.26074 3.2238.26074 4.8793.26074 9.3229.52147 11.588 1.8252 45.307.52147 10.02.78221 17.165 1.5644 26.662 1.0429 12.198 1.0429 9.8457 1.0429 6.012 1.0429 5.7506.52147 3.3981.78221 4.2694.78221 4.008.26074 1.9169.26074.95843.26074.43565.26074 1.3941.52147 1.1327.26074.17426 1.3037 3.1367.26074-.26139.26074-.08713.26074-.34852.26074.26139.78221-.17426.52147-1.1327.52147-.69704.78221-.17426.26074-.52278.26074-.78417.26074-.34852.52147-2.6139.26074.087129.26074-.43565.26074-.8713.78221-4.4436.26074-1.3941 1.0429-2.9624.52147-3.4852.26074-1.5683.26074-.08713.52147-2.9624.26074-.52278.26074-2.4396.52147-2.4396 1.0429-4.7921.26074-.34852.26074-2.701.26074-.78417.26074-.26139.52147-5.2278.26074-.8713.26074-1.5683.52147-1.3069.26074-1.4812.26074-2.5268.52147-2.8753.26074-.43565.78221-7.8417 2.3466-54.456 1.3037-33.196 1.0429-13.854.52147-2.701.52147 1.2198.78221 10.456 2.3466 55.589 2.8681 49.315.26074 2.004 1.5644 17.252.52147 3.8337.78221 4.0951.78221 5.9248.26074.69704.52147 2.5268 1.0429 4.4436.26074 1.6555.78221 2.5268.26074.26139.52147 1.7426.26074.08713.52147 1.7426.26074.34852.78221 2.4396.52147.08713.52147-.78417.26074.17426.26074-.34852.26074-.78417.26074-.26139.26074-.52278.26074-.95843.26074.34852.52147-.60991.26074-1.8297.26074.17426.26074-.8713.26074.087129.26074-1.5683.26074-.69704.26074-.34852.26074-1.3069.26074-.52278.52147-2.5268.26074-2.3525.78221-2.8753.26074-1.9169.26074-.69704.78221-4.3565.52147-1.8297.26074-.60991.26074-1.7426.26074.17426.52147-1.9169h.26074l1.0429-7.2318.26074-.52278.26074-1.7426.78221-2.5268.26074-1.0456h.26074l.78221-6.012.26074-.34852 1.3037-8.1902 1.0429-12.285.78221-16.555.78221-22.131.78221-21.957.26074-3.3109.78221-18.21.26074-3.2238.26074-5.5763.26074-2.004.26074-3.3109.26074-.26139.26074-1.2198.26074-.34852.78221 7.5803.52147 12.808 1.0429 18.994 1.0429 23.264.26074 5.1407.52147 12.982.52147 10.107.78221 11.501.52147 11.24.78221 10.02 1.0429 9.4971 1.3037 12.111.26074.8713 1.0429 5.6634.52147 2.8753.26074 1.1327.52147 1.1327.52147 2.004.26074.69704.26074 1.9169.26074.69704.26074-.43565.52147.95843.26074.17426.26074.8713.26074 1.6555.26074-.17426.26074.26139.52147.69704.26074.17426h.26074l.52147.34852.52147-1.3941.26074.95843.26074-.17426.52147-1.2198.26074-.087129.52147-.8713.26074.69704.78221-1.3941.26074-2.004.26074-.8713.52147-.8713 2.0859-9.9328.26074-.95843.78221-5.5763.26074-.69704 1.0429-6.7961.26074-1.1327.26074-.43565.26074-.95843.52147-3.0495.78221-5.8377 1.0429-7.0575.26074-2.9624.26074-.69704.52147-2.701.26074 1.2198.26074-.95843.26074-.26139.26074-.78417.26074.08713.26074-.52278.26074-1.3941.52147-9.5843 1.0429-17.774.52147-16.032.26074-10.281.26074-5.402 1.0429-29.363.78221-15.77.52147-6.709h.26074l.26074-.17426.26074-1.6555.78221 4.1822.26074 3.5723.78221 19.169 1.0429 25.268.78221 20.04 1.8252 33.806.26074 3.0495.26074 6.0991 1.5644 19.43 1.3037 9.5843 1.3037 8.4516 1.5644 8.4516.26074.60991.26074 1.9169 1.3037 4.4436.26074 1.6555 1.0429 3.1367.26074 1.2198.26074-.26139.26074.34852.26074-.087129.26074-.26139.26074-.8713.26074 1.0456.26074-.78417.52147-.52278.26074-.95843.26074-.17426h.26074l.26074-.26139.26074-.78417.26074-2.004.26074-.34852h.26074l.26074-.26139.26074-1.0456.26074-1.6555.26074-.43565.26074-1.0456h.26074l.26074-.8713.78221 3.8337.26074-.34852.26074 1.3069.26074-.17426.26074-2.2654.26074.8713.52147-.95843.52147.43565.26074-1.9169.26074.34852.26074.8713.26074.17426.26074-.08713.26074-1.0456.26074.17426m1.0429-2.7882.26074-1.6555.26074-3.3109.26074-1.7426 1.8252-17.862 1.0429-5.1407 1.0429-12.372 1.3037-25.616 1.3037-41.299 1.0429-29.798.52147-9.6714.52147-7.3189.26074-1.5683.26074 1.1327h.26074l.26074.43565.52147 2.7882.52147 12.895.26074 6.5347.26074 1.9169.26074 7.5803.26074 2.6139.26074 5.0535.78221 19.517 2.3466 45.22 1.8252 24.832 2.0859 19.081.26074.60991 1.3037 7.9288 1.3037 5.402.26074.52278.52147 2.7882.52147 2.5268.78221 1.6555.52147 1.4812.52147.08713.26074-.34852.26074.52278.26074-1.0456.26074-.08713.26074.17426.26074-.087129.26074-.95843.26074.34852.52147-1.3941.26074-.60991.26074-1.0456.78221-1.7426.52147-2.004.26074-1.3941.26074-2.0911.26074-.17426.52147-1.6555.52147-2.701.26074.087129.52147-2.701.78221-1.7426.78221-4.705.52147-1.4812.52147-2.7882 1.3037-7.7545.52147-1.2198.26074-.087129.26074-1.8297.26074-.08713.26074-2.2654.26074-.08713 1.3037-5.6634.26074-1.2198h.26074l.26074-.60991.26074-1.3941.26074-3.0495.78221-3.1367.26074-4.5307.26074-2.3525 1.5644-35.2 1.0429-30.67.26074-5.2278 1.0429-32.412 1.0429-14.202.52147-1.7426.26074-.69704.26074-.34852.26074-1.0456.52147 5.3149.26074.34852.26074 4.6179.78221 25.79 1.0429 19.343 2.6074 48.096.78221 10.02.52147 8.4516.26074 3.3981.52147 8.3645 2.0859 20.388.78221 4.008.26074.52278.26074 1.1327.26074.08713.78221 2.9624.26074.95843.26074.52278.78221 3.6594.52147-1.0456.52147.17426.26074-.60991h.52147l.26074-.95843h.26074l.26074.26139.26074-.52278.26074-1.3941.52147-1.4812 1.3037-5.0535.26074-.34852.52147-2.0911.26074-.52278.26074-2.0911.26074-.52278.26074-1.4812.78221-6.5347 1.0429-9.1486.52147-4.1822.26074-1.0456.26074-2.701.26074-.52278.26074-2.004.26074-.52278.26074-1.2198.26074-.60991.52147-4.008.26074.08713.26074-1.3941.26074-.69704.78221-4.4436.26074-.26139.26074-.95843.26074-.08713.52147-.52278.26074 1.0456.26074-.26139.26074-1.5683.26074-.52278.26074.69704.52147 2.701.52147.26139.26074-.60991.26074 2.0911.52147-4.5307.26074-3.2238.52147-9.9328.26074-3.0495.52147-12.285 1.5644-45.046.78221-19.169.52147-6.5347.52147-8.5387.52147-2.1782.26074-.43565v0" clip-path="url(#b)" fill="none" stroke="#28f" stroke-linecap="square" stroke-width="1.5"/>
   </g>
   <g id="cj">
    <path d="m52 259.78v-232.9" fill="none" stroke="#000" stroke-linecap="square" stroke-width=".8"/>
   </g>
   <g id="ck">
    <path d="m853.2 259.78v-232.9" fill="none" stroke="#000" stroke-linecap="square" stroke-width=".8"/>
   </g>
   <g id="cl">
    <path d="m52 259.78h801.2" fill="none" stroke="#000" stroke-linecap="square" stroke-width=".8"/>
   </g>
   <g id="cm">
    <path d="m52 26.88h801.2" fill="none" stroke="#000" stroke-linecap="square" stroke-width=".8"/>
   </g>
   <g id="cn">
    <!-- 同時接続数の推移 -->
    <g transform="translate(404.6 20.88) scale(.12 -.12)">
     <defs>
      <path id="x" transform="scale(.015625)" d="m1587 3936h3232v-518h-3232v518zm320-1114h557v-2534h-557v2534zm301 0h2291v-2086h-2291v512h1734v1069h-1734v505zm-1683 2260h5113v-570h-4524v-5056h-589v5626zm4768 0h595v-4896q0-250-67-397t-227-218q-160-77-426-96t-675-19q-13 83-45 192t-77 218q-45 108-89 185 281-13 527-13 247 0 330 0 83 7 118 42 36 35 36 112v4890z"/>
      <path id="v" transform="scale(.015625)" d="m2714 4672h3238v-525h-3238v525zm-244-1235h3712v-538h-3712v538zm20-1184h3635v-531h-3635v531zm1523 3155h595v-2310h-595v2310zm832-2451h589v-2823q0-230-61-364-61-135-227-199-167-70-423-86t-633-16q-20 121-78 285-57 163-121 284 275-6 509-9t310-3q77 6 106 28 29 23 29 93v2810zm-2023-1677 487 282q153-160 313-352t294-381q135-189 206-343l-519-313q-64 153-189 348-124 196-278 394-154 199-314 365zm-2086 3718h1619v-4281h-1619v544h1056v3187h-1056v550zm32-1843h1293v-537h-1293v537zm-320 1843h563v-4832h-563v4832z"/>
      <path id="w" transform="scale(.015625)" d="m3866 5408h614v-870h-614v870zm-1479-653h3597v-518h-3597v518zm-230-1485h4e3v-518h-4e3v518zm825 922 519 102q64-160 121-342 58-182 96-352 39-170 45-304l-544-128q-6 134-42 313-35 180-83 365-48 186-112 346zm1856 109 589-71q-96-275-202-557-105-281-195-486l-518 77q58 147 122 329 64 183 118 372t86 336zm-2643-2106h3943v-518h-3943v518zm1408 685 602-115q-167-371-362-784t-390-797-362-685l-525 179q160 288 346 666t368 784 323 752zm-659-2157 358 403q352-102 733-240 381-137 752-304 371-166 697-336 327-169 558-329l-384-461q-218 160-532 336-313 176-685 345-371 170-755 323-384 154-742 263zm1894 1114 583-71q-122-550-353-944-230-393-604-662t-922-435q-547-167-1296-269-25 128-93 269-67 141-137 230 678 64 1168 192t819 349q330 221 531 550 202 330 304 791zm-4684 217q396 90 953 240 557 151 1120 311l77-544q-525-154-1053-311-528-156-963-284l-134 588zm121 2093h1965v-563h-1965v563zm819 1248h576v-5229q0-236-51-374t-192-208q-141-77-355-99-214-23-541-16-13 115-64 288t-109 294q205-6 381-6t234 0q64 0 92 28 29 29 29 93v5229z"/>
      <path id="u" transform="scale(.015625)" d="m4058 5408h595v-1798h-595v1798zm-1415-563h3443v-499h-3443v499zm231-992h3008v-499h-3008v499zm-224-877h3475v-1203h-531v729h-2432v-729h-512v1203zm1964-877h551v-1881q0-122 22-157 23-35 106-35 25 0 92 0 68 0 135 0t99 0q51 0 83 54t45 224 19 515q90-70 234-131t259-93q-19-429-83-662-64-234-183-326-118-93-316-93-39 0-103 0t-134 0-138 0q-67 0-99 0-237 0-365 64t-176 218q-48 153-48 422v1881zm-1164-6h550v-455q0-243-48-528-48-284-186-579-137-294-409-572-272-279-727-503-70 90-192 208-121 118-230 195 416 205 665 438 250 234 371 474 122 240 164 467 42 228 42 413v442zm-2240 3309 524-192q-121-244-259-503-137-259-275-496t-259-416l-410 173q122 186 246 438 125 253 240 515 116 263 193 481zm716-743 500-230q-224-359-496-756-272-396-548-764-275-368-518-650l-358 205q179 211 377 483 199 272 387 569 189 298 358 592 170 295 298 551zm-1721-665 307 403q166-154 339-340 173-185 320-364t224-327l-326-460q-77 160-218 348-141 189-314 384-172 196-332 356zm1485-832 435 179q128-211 249-458 122-246 215-474 93-227 137-412l-473-211q-32 185-119 422-86 237-201 486-115 250-243 468zm-1530-583q422 26 998 54 576 29 1184 68l7-499q-570-45-1127-84-556-38-992-70l-70 531zm1702-992 436 135q121-276 214-596t118-556l-454-148q-26 237-112 563-86 327-202 602zm-1363 109 499-83q-57-455-163-897-105-441-253-748-51 32-134 73-83 42-170 83-86 42-144 62 148 294 234 697t131 813zm691 627h525v-2861h-525v2861z"/>
      <path id="o" transform="scale(.015625)" d="m224 2022h3187v-499h-3187v499zm51 2247h3111v-487h-3111v487zm1127-1735 563-121q-154-320-333-672t-352-679q-173-326-326-582l-532 173q148 243 324 566t345 669q170 346 311 646zm934-832 563-64q-89-480-262-838t-461-614-701-432-976-298q-25 128-99 269t-157 237q659 102 1085 303 426 202 666 554t342 883zm422 3597 519-211q-147-218-298-436-150-217-278-377l-403 186q121 173 252 413 132 240 208 425zm-1203 109h563v-2957h-563v2957zm-1075-320 448 186q134-192 246-420 112-227 157-393l-467-211q-38 172-147 406t-237 432zm1094-1050 397-236q-160-263-400-529-240-265-519-489-278-224-553-378-51 103-141 237-89 135-179 218 269 109 534 294 266 186 493 416 228 231 368 467zm487-204q83-45 246-145 163-99 352-211t346-211 221-150l-327-423q-83 77-230 198-147 122-317 253-170 132-327 250-156 119-259 189l295 250zm1798 396h2311v-556h-2311v556zm115 1178 615-90q-103-640-263-1235t-384-1101q-224-505-512-889-44 57-134 134t-186 157-166 125q275 339 473 796 199 458 340 995 141 538 217 1108zm1223-1510 614-58q-147-1101-445-1940-297-838-813-1443-515-604-1321-1014-26 71-90 177-64 105-134 208-70 102-128 159 742 346 1212 880 471 535 730 1290 260 755 375 1741zm-1005-135q134-851 387-1597 253-745 659-1305 407-560 1002-874-70-57-154-150-83-93-154-189-70-96-121-179-633 371-1056 988-422 618-688 1434-265 816-425 1783l550 89zm-3309-3065 327 416q377-148 754-330 378-182 701-378 324-195 548-368l-416-435q-211 179-519 378-307 198-666 383-358 186-729 334z"/>
      <path id="t" transform="scale(.015625)" d="m3686 4378q-64-493-163-1041-99-547-265-1084-192-653-432-1104t-522-688-595-237q-320 0-596 221-275 221-448 621-172 400-172 931 0 537 220 1017 221 480 611 851 391 372 909 583 519 211 1121 211 576 0 1040-186 464-185 793-515 330-329 502-771 173-441 173-941 0-672-278-1194-278-521-816-851-538-329-1318-444l-378 601q166 20 307 42t263 48q307 70 585 217 279 148 496 375 218 227 342 534 125 308 125 692t-122 713q-121 330-358 573-236 243-582 380-346 138-781 138-525 0-935-186-409-185-694-489-284-304-432-656-147-352-147-678 0-365 89-605 90-240 224-355 135-115 276-115t288 144 297 457q151 314 298 800 147 461 246 982 100 522 145 1021l684-12z"/>
      <path id="p" transform="scale(.015625)" d="m2995 2925h2893v-519h-2893v519zm0-1280h2893v-519h-2893v519zm-64-1299h3232v-557h-3232v557zm1312 3577h563v-3763h-563v3763zm429 1466 634-141q-154-390-340-794-185-403-339-684l-512 140q103 199 208 458 106 259 195 528 90 269 154 493zm-1472 25 582-147q-153-518-371-1018-217-499-483-931t-573-758q-38 64-109 160-70 96-147 198-77 103-141 160 416 416 733 1034t509 1302zm128-1203h2720v-537h-2720v-4205h-582v4422l313 320h269zm-3174-2157q396 90 953 240 557 151 1120 311l77-544q-525-154-1053-311-528-156-963-284l-134 588zm121 2093h1965v-563h-1965v563zm819 1248h576v-5229q0-236-51-374t-192-208q-141-77-355-99-214-23-541-16-13 115-64 288t-109 294q205-6 381-6t234 0q64 0 92 28 29 29 29 93v5229z"/>
      <path id="n" transform="scale(.015625)" d="m4051 5402 595-109q-281-493-729-941t-1107-806q-39 64-106 144t-141 153q-73 74-137 119 608 288 1011 678t614 762zm-77-557h1511v-493h-1863l352 493zm1293 0h109l109 25 384-179q-192-505-496-905t-695-701q-390-301-845-519-454-217-947-358-44 109-137 253t-176 227q448 109 867 294 419 186 777 445 359 259 631 592t419 730v96zm-1990-954 377 307q167-96 336-218 170-121 320-249 151-128 247-237l-397-332q-90 108-237 236t-317 259q-169 132-329 234zm1107-934 595-109q-307-538-803-1031-496-492-1232-876-38 64-102 144t-138 156q-74 77-138 116 455 217 807 483t604 554q253 288 407 563zm-90-589h1460v-506h-1818l358 506zm1268 0h121l109 26 384-167q-192-614-531-1075t-787-794q-448-332-983-553-534-221-1129-355-45 115-132 269-86 153-176 249 551 96 1043 285 493 189 903 473 410 285 714 669t464 883v90zm-2132-1056 410 339q186-102 384-237 198-134 371-275t282-269l-435-371q-103 128-270 272-166 144-361 288t-381 253zm-2150 3533h589v-5376h-589v5376zm-992-1242h2336v-569h-2336v569zm1024-224 365-160q-96-339-231-707-134-368-291-727-157-358-336-672-179-313-365-537-44 128-134 291t-160 272q173 192 339 457 167 266 323 570 157 304 282 618t208 595zm941 1946 416-467q-314-122-695-221-380-99-784-173-403-74-780-131-20 102-71 236-51 135-102 231 358 58 732 138 375 80 711 179t573 208zm-397-2579q58-45 179-170 122-125 266-266 144-140 259-265t160-183l-352-473q-58 102-157 255-99 154-218 317-118 164-227 311-108 147-185 237l275 237z"/>
     </defs>
     <use xlink:href="#x"/>
     <use transform="translate(100)" xlink:href="#v"/>
     <use transform="translate(200)" xlink:href="#w"/>
     <use transform="translate(300)" xlink:href="#u"/>
     <use transform="translate(400)" xlink:href="#o"/>
     <use transform="translate(500)" xlink:href="#t"/>
     <use transform="translate(600)" xlink:href="#p"/>
     <use transform="translate(700)" xlink:href="#n"/>
    </g>
   </g>
  </g>
  <g id="co">
   <g id="cp">
    <path d="m52 523.06h801.2v-232.9h-801.2z" fill="#fff"/>
   </g>
   <g id="cq">
    <path d="m131.96 523.06h.78221v-232.9h-.78221z" clip-path="url(#c)" fill="#808080" opacity=".3" stroke="#808080"/>
   </g>
   <g id="cr">
    <path d="m419.94 523.06h.52147v-232.9h-.52147z" clip-path="url(#c)" fill="#808080" opacity=".3" stroke="#808080"/>
   </g>
   <g id="cs">
    <path d="m730.22 523.06h1.0429v-232.9h-1.0429z" clip-path="url(#c)" fill="#808080" opacity=".3" stroke="#808080"/>
   </g>
   <g id="ct">
    <g id="cu">
     <g id="cv">
      <path d="m104.19 523.06v-232.9" clip-path="url(#c)" fill="none" stroke="#b0b0b0" stroke-linecap="square" stroke-opacity=".3" stroke-width=".8"/>
     </g>
     <g id="cw">
      <use x="104.188832" y="523.055464" stroke="#000000" stroke-width=".8" xlink:href="#g"/>
     </g>
     <g id="cx">
      <!-- 2025-07-01 -->
      <g transform="translate(57.399 563.33) rotate(-30) scale(.1 -.1)">
       <defs>
        <path id="h" transform="scale(.015625)" d="m301 1536v544h1689v-544h-1689z"/>
       </defs>
       <use xlink:href="#e"/>
       <use transform="translate(57)" xlink:href="#a"/>
       <use transform="translate(114)" xlink:href="#e"/>
       <use transform="translate(171)" xlink:href="#j"/>
       <use transform="translate(228)" xlink:href="#h"/>
       <use transform="translate(263.7)" xlink:href="#a"/>
       <use transform="translate(320.7)" xlink:href="#i"/>
       <use transform="translate(377.7)" xlink:href="#h"/>
       <use transform="translate(413.4)" xlink:href="#a"/>
       <use transform="translate(470.4)" xlink:href="#f"/>
      </g>
     </g>
    </g>
    <g id="cy">
     <g id="cz">
      <path d="m254.37 523.06v-232.9" clip-path="url(#c)" fill="none" stroke="#b0b0b0" stroke-linecap="square" stroke-opacity=".3" stroke-width=".8"/>
     </g>
     <g id="da">
      <use x="254.373084" y="523.055464" stroke="#000000" stroke-width=".8" xlink:href="#g"/>
     </g>
     <g id="db">
      <!-- 2025-07-05 -->
      <g transform="translate(207.58 563.33) rotate(-30) scale(.1 -.1)">
       <use xlink:href="#e"/>
       <use transform="translate(57)" xlink:href="#a"/>
       <use transform="translate(114)" xlink:href="#e"/>
       <use transform="translate(171)" xlink:href="#j"/>
       <use transform="translate(228)" xlink:href="#h"/>
       <use transform="translate(263.7)" xlink:href="#a"/>
       <use transform="translate(320.7)" xlink:href="#i"/>
       <use transform="translate(377.7)" xlink:href="#h"/>
       <use transform="translate(413.4)" xlink:href="#a"/>
       <use transform="translate(470.4)" xlink:href="#j"/>
      </g>
     </g>
    </g>
    <g id="dc">
     <g id="dd">
      <path d="m404.56 523.06v-232.9" clip-path="url(#c)" fill="none" stroke="#b0b0b0" stroke-linecap="square" stroke-opacity=".3" stroke-width=".8"/>
     </g>
     <g id="de">
      <use x="404.557335" y="523.055464" stroke="#000000" stroke-width=".8" xlink:href="#g"/>
     </g>
     <g id="df">
      <!-- 2025-07-09 -->
      <g transform="translate(357.77 563.33) rotate(-30) scale(.1 -.1)">
       <use xlink:href="#e"/>
       <use transform="translate(57)" xlink:href="#a"/>
       <use transform="translate(114)" xlink:href="#e"/>
       <use transform="translate(171)" xlink:href="#j"/>
       <use transform="translate(228)" xlink:href="#h"/>
       <use transform="translate(263.7)" xlink:href="#a"/>
       <use transform="translate(320.7)" xlink:href="#i"/>
       <use transform="translate(377.7)" xlink:href="#h"/>
       <use transform="translate(413.4)" xlink:href="#a"/>
       <use transform="translate(470.4)" xlink:href="#q"/>
      </g>
     </g>
    </g>
    <g id="dg">
     <g id="dh">
      <path d="m554.74 523.06v-232.9" clip-path="url(#c)" fill="none" stroke="#b0b0b0" stroke-linecap="square" stroke-opacity=".3" stroke-width=".8"/>
     </g>
     <g id="di">
      <use x="554.741587" y="523.055464" stroke="#000000" stroke-width=".8" xlink:href="#g"/>
     </g>
     <g id="dj">
      <!-- 2025-07-13 -->
      <g transform="translate(507.95 563.33) rotate(-30) scale(.1 -.1)">
       <use xlink:href="#e"/>
       <use transform="translate(57)" xlink:href="#a"/>
       <use transform="translate(114)" xlink:href="#e"/>
       <use transform="translate(171)" xlink:href="#j"/>
       <use transform="translate(228)" xlink:href="#h"/>
       <use transform="translate(263.7)" xlink:href="#a"/>
       <use transform="translate(320.7)" xlink:href="#i"/>
       <use transform="translate(377.7)" xlink:href="#h"/>
       <use transform="translate(413.4)" xlink:href="#f"/>
       <use transform="translate(470.4)" xlink:href="#r"/>
      </g>
     </g>
    </g>
    <g id="dk">
     <g id="dl">
      <path d="m704.93 523.06v-232.9" clip-path="url(#c)" fill="none" stroke="#b0b0b0" stroke-linecap="square" stroke-opacity=".3" stroke-width=".8"/>
     </g>
     <g id="dm">
      <use x="704.925839" y="523.055464" stroke="#000000" stroke-width=".8" xlink:href="#g"/>
     </g>
     <g id="dn">
      <!-- 2025-07-17 -->
      <g transform="translate(658.14 563.33) rotate(-30) scale(.1 -.1)">
       <use xlink:href="#e"/>
       <use transform="translate(57)" xlink:href="#a"/>
       <use transform="translate(114)" xlink:href="#e"/>
       <use transform="translate(171)" xlink:href="#j"/>
       <use transform="translate(228)" xlink:href="#h"/>
       <use transform="translate(263.7)" xlink:href="#a"/>
       <use transform="translate(320.7)" xlink:href="#i"/>
       <use transform="translate(377.7)" xlink:href="#h"/>
       <use transform="translate(413.4)" xlink:href="#f"/>
       <use transform="translate(470.4)" xlink:href="#i"/>
      </g>
     </g>
    </g>
   </g>
   <g id="do">
    <g id="dp">
     <g id="dq">
      <path d="m52 506.39h801.2" clip-path="url(#c)" fill="none" stroke="#b0b0b0" stroke-linecap="square" stroke-opacity=".3" stroke-width=".8"/>
     </g>
     <g id="dr">
      <use x="52" y="506.390662" stroke="#000000" stroke-width=".8" xlink:href="#d"/>
     </g>
     <g id="ds">
      <!-- 104800 -->
      <g transform="translate(10.8 510.38) scale(.1 -.1)">
       <use xlink:href="#f"/>
       <use transform="translate(57)" xlink:href="#a"/>
       <use transform="translate(114)" xlink:href="#m"/>
       <use transform="translate(171)" xlink:href="#l"/>
       <use transform="translate(228)" xlink:href="#a"/>
       <use transform="translate(285)" xlink:href="#a"/>
      </g>
     </g>
    </g>
    <g id="dt">
     <g id="du">
      <path d="m52 480.8h801.2" clip-path="url(#c)" fill="none" stroke="#b0b0b0" stroke-linecap="square" stroke-opacity=".3" stroke-width=".8"/>
     </g>
     <g id="dv">
      <use x="52" y="480.796801" stroke="#000000" stroke-width=".8" xlink:href="#d"/>
     </g>
     <g id="dw">
      <!-- 105200 -->
      <g transform="translate(10.8 484.78) scale(.1 -.1)">
       <use xlink:href="#f"/>
       <use transform="translate(57)" xlink:href="#a"/>
       <use transform="translate(114)" xlink:href="#j"/>
       <use transform="translate(171)" xlink:href="#e"/>
       <use transform="translate(228)" xlink:href="#a"/>
       <use transform="translate(285)" xlink:href="#a"/>
      </g>
     </g>
    </g>
    <g id="dx">
     <g id="dy">
      <path d="m52 455.2h801.2" clip-path="url(#c)" fill="none" stroke="#b0b0b0" stroke-linecap="square" stroke-opacity=".3" stroke-width=".8"/>
     </g>
     <g id="dz">
      <use x="52" y="455.202941" stroke="#000000" stroke-width=".8" xlink:href="#d"/>
     </g>
     <g id="ea">
      <!-- 105600 -->
      <g transform="translate(10.8 459.19) scale(.1 -.1)">
       <use xlink:href="#f"/>
       <use transform="translate(57)" xlink:href="#a"/>
       <use transform="translate(114)" xlink:href="#j"/>
       <use transform="translate(171)" xlink:href="#k"/>
       <use transform="translate(228)" xlink:href="#a"/>
       <use transform="translate(285)" xlink:href="#a"/>
      </g>
     </g>
    </g>
    <g id="eb">
     <g id="ec">
      <path d="m52 429.61h801.2" clip-path="url(#c)" fill="none" stroke="#b0b0b0" stroke-linecap="square" stroke-opacity=".3" stroke-width=".8"/>
     </g>
     <g id="ed">
      <use x="52" y="429.60908" stroke="#000000" stroke-width=".8" xlink:href="#d"/>
     </g>
     <g id="ee">
      <!-- 106000 -->
      <g transform="translate(10.8 433.59) scale(.1 -.1)">
       <use xlink:href="#f"/>
       <use transform="translate(57)" xlink:href="#a"/>
       <use transform="translate(114)" xlink:href="#k"/>
       <use transform="translate(171)" xlink:href="#a"/>
       <use transform="translate(228)" xlink:href="#a"/>
       <use transform="translate(285)" xlink:href="#a"/>
      </g>
     </g>
    </g>
    <g id="ef">
     <g id="eg">
      <path d="m52 404.02h801.2" clip-path="url(#c)" fill="none" stroke="#b0b0b0" stroke-linecap="square" stroke-opacity=".3" stroke-width=".8"/>
     </g>
     <g id="eh">
      <use x="52" y="404.01522" stroke="#000000" stroke-width=".8" xlink:href="#d"/>
     </g>
     <g id="ei">
      <!-- 106400 -->
      <g transform="translate(10.8 408) scale(.1 -.1)">
       <use xlink:href="#f"/>
       <use transform="translate(57)" xlink:href="#a"/>
       <use transform="translate(114)" xlink:href="#k"/>
       <use transform="translate(171)" xlink:href="#m"/>
       <use transform="translate(228)" xlink:href="#a"/>
       <use transform="translate(285)" xlink:href="#a"/>
      </g>
     </g>
    </g>
    <g id="ej">
     <g id="ek">
      <path d="m52 378.42h801.2" clip-path="url(#c)" fill="none" stroke="#b0b0b0" stroke-linecap="square" stroke-opacity=".3" stroke-width=".8"/>
     </g>
     <g id="el">
      <use x="52" y="378.421359" stroke="#000000" stroke-width=".8" xlink:href="#d"/>
     </g>
     <g id="em">
      <!-- 106800 -->
      <g transform="translate(10.8 382.41) scale(.1 -.1)">
       <use xlink:href="#f"/>
       <use transform="translate(57)" xlink:href="#a"/>
       <use transform="translate(114)" xlink:href="#k"/>
       <use transform="translate(171)" xlink:href="#l"/>
       <use transform="translate(228)" xlink:href="#a"/>
       <use transform="translate(285)" xlink:href="#a"/>
      </g>
     </g>
    </g>
    <g id="en">
     <g id="eo">
      <path d="m52 352.83h801.2" clip-path="url(#c)" fill="none" stroke="#b0b0b0" stroke-linecap="square" stroke-opacity=".3" stroke-width=".8"/>
     </g>
     <g id="ep">
      <use x="52" y="352.827499" stroke="#000000" stroke-width=".8" xlink:href="#d"/>
     </g>
     <g id="eq">
      <!-- 107200 -->
      <g transform="translate(10.8 356.81) scale(.1 -.1)">
       <use xlink:href="#f"/>
       <use transform="translate(57)" xlink:href="#a"/>
       <use transform="translate(114)" xlink:href="#i"/>
       <use transform="translate(171)" xlink:href="#e"/>
       <use transform="translate(228)" xlink:href="#a"/>
       <use transform="translate(285)" xlink:href="#a"/>
      </g>
     </g>
    </g>
    <g id="er">
     <g id="es">
      <path d="m52 327.23h801.2" clip-path="url(#c)" fill="none" stroke="#b0b0b0" stroke-linecap="square" stroke-opacity=".3" stroke-width=".8"/>
     </g>
     <g id="et">
      <use x="52" y="327.233638" stroke="#000000" stroke-width=".8" xlink:href="#d"/>
     </g>
     <g id="eu">
      <!-- 107600 -->
      <g transform="translate(10.8 331.22) scale(.1 -.1)">
       <use xlink:href="#f"/>
       <use transform="translate(57)" xlink:href="#a"/>
       <use transform="translate(114)" xlink:href="#i"/>
       <use transform="translate(171)" xlink:href="#k"/>
       <use transform="translate(228)" xlink:href="#a"/>
       <use transform="translate(285)" xlink:href="#a"/>
      </g>
     </g>
    </g>
    <g id="ev">
     <g id="ew">
      <path d="m52 301.64h801.2" clip-path="url(#c)" fill="none" stroke="#b0b0b0" stroke-linecap="square" stroke-opacity=".3" stroke-width=".8"/>
     </g>
     <g id="ex">
      <use x="52" y="301.639778" stroke="#000000" stroke-width=".8" xlink:href="#d"/>
     </g>
     <g id="ey">
      <!-- 108000 -->
      <g transform="translate(10.8 305.62) scale(.1 -.1)">
       <use xlink:href="#f"/>
       <use transform="translate(57)" xlink:href="#a"/>
       <use transform="translate(114)" xlink:href="#l"/>
       <use transform="translate(171)" xlink:href="#a"/>
       <use transform="translate(228)" xlink:href="#a"/>
       <use transform="translate(285)" xlink:href="#a"/>
      </g>
     </g>
    </g>
   </g>
   <g id="ez">
    <path d="m88.418 512.47h.13993l.7783-.25594 1.1729-.44789.40544-.25594 1.1498-.19195.78221.12797.3911-.19195.3911-.31992h.3911l.78221-.8318.78221-.12797.78221-.57586 1.1733.12797.3911-.063984.78221-.63985.3911-.63985.78221-.57586h.3911l.78221-.57586.3911-.38391 1.1733-2.3034 1.1733-.89578.3911-.19195.3911.063984.3911-.31992h1.1733l.3911-.25594h.3911l.78221-.51188 1.9555-.38391.3911.12797.3911-.063985.3911.063985 1.9555-.25594 1.5644-.063985 1.1733-.12797 5.0844-.063985.78221-.063984h.3911l.3911-.12797h.78221l1.1733-.57586.78221-.063985 1.1733-.38391h.3911l.78221-.38391 1.1733-.25594 1.9555-.70383.78221-.31992.78221-.19195m.78221-.38391.3911-.25594.3911-.57586.3911-.31992 1.1733-.25594.78221-.25594.78221-.51188.3911-.8318.3911-.25594.78221-1.3437h.3911l.78221-.89578.3911-.19195.3911-.44789 1.5644-1.0238.3911.063985 1.5644-.89578.78221-.063985 1.1733-.19195.3911.12797h.3911l.78221-.44789.78221-.12797.3911.063984.3911-.12797.3911.063985 1.9555-.25594.78221.063985.78221-.063985.78221.063985h2.3466l.78221-.19195.78221.19195.3911.063984 1.1733-.31992h.3911l.3911-.12797h.3911l.3911-.25594.78221-.19195.3911-.31992 1.5644.063985.3911.063984.3911-.063984.3911-.19195 1.1733-.12797.3911.12797 1.1733-.12797h.3911l1.1733-.70383.3911-.063984.3911-.25594.3911.063985.78221-.12797.3911.063985.78221-.38391h.78221l.3911-.44789 1.9555-1.1517 1.1733-.63985.3911-.63985.3911-.063985.3911-.25594.3911-.70383 1.1733-1.0877.3911-.12797.3911.19195.3911-.12797.3911-.31992 1.5644-.44789.3911-.063985.3911.063985.3911-.19195.78221.063984h1.9555l.3911-.12797.78221.12797 1.1733-.12797 2.7377-.063984.3911.19195h.3911l1.6948-.44789.26074.063985h.13037l.26074-.12797h2.6074l.26074.12797.65184-.063985.26074-.063985h.26074l.13037-.12797.26074.12797.26074-.063984h.26074l.26074-.12797.52147.12797.26074-.063985 1.1733-.063985.26074-.19195.13037-.12797.26074.12797.26074.12797.65184-.25594.26074.063985.52147-.19195.91258.063984.26074.12797.78221-.63985h.13037l.52147-.44789h1.4341l.26074-.12797.65184-.063984 1.3037-.57586h.3911l.3911-.19195.13037-.19195.13037.12797.13037-.063984.13037.12797.3911-.38391.3911-.063985.3911-.19195.13037.063985.78221-.70383.26074-.063985.26074-.12797.26074-.63985.91258-.89578.13037.12797.26074-.12797.26074-.19195.13037.12797.26074-.063985.26074-.44789h.26074l.13037-.38391.13037.063985.65184-.25594h.13037l.26074-.31992.26074-.19195.52147-.063984.26074-.19195.3911-.063985.26074-.063985h.3911l.3911-.25594.52147-.19195.91258-.063985.26074-.063984 1.6948-.063985.26074-.063985 2.8681-.063984.26074-.063985 2.0859-.063985.65184-.25594 3.1288-.063985 1.0429-.25594.26074-.19195 1.8252.063985.26074.12797 1.0429-.19195 1.3037-.063984.52147-.31992.78221-.063985.52147-.25594h.26074l.52147-.19195h.26074l.78221-.63985.26074-.12797.78221-.063985.26074-.25594 1.5644-.38391.26074.063985.26074-.12797.52147-.063985.78221-.19195.26074.063985 1.0429-.70383.26074-.063985.52147-.63985.26074-.19195h.26074l1.0429-.63985 1.3037-.31992 1.0429-1.0877.26074-.38391h.26074l.78221-.76782h.26074l1.0429-.76782.26074.063985 1.3037-1.2797h.26074l.26074-.38391 1.0429-.19195h1.8252l.26074-.12797h.26074l.26074-.12797 1.0429-.12797.78221-.063985 2.0859-.44789 2.6074.063984.52147.063985.78221-.063985.26074-.19195.78221.12797.26074-.063985.52147.063985h1.3037l.78221-.31992h1.0429l.52147-.25594h.78221l.26074-.12797.78221-.063985.26074-.063985.26074.063985.26074-.12797.26074.063984.78221-.19195.26074-.19195.26074.063985.78221-.89578.52147.19195.26074-.19195h.52147l.52147-.25594.78221-.063984.52147-.57586h.26074l.52147-.19195.26074.063985.26074-.25594.26074-.063985.26074.063985.26074-.063985.26074.12797.26074-.12797.26074.063985.26074-.063985.78221-.57586h.26074l.26074-.12797.78221-1.1517.78221-.44789.26074-.51188.26074-.063985.78221-.76782.26074.063985.78221-.51188.52147-1.0238.52147-.063984.52147-.57586 1.0429-.31992.78221-.44789 1.0429-.31992.52147-.57586.52147-.063985 1.0429-.19195.26074-.31992 1.8252-.063985.52147-.19195.78221-.063984.78221-.19195.26074.063984.52147-.063984.78221.063984.52147.063985.52147-.25594 1.0429.063985.26074.19195h2.3466l.52147-.31992h.26074l.52147-.19195 1.0429.063984.52147.063985.26074-.12797h.26074l.26074-.25594h.26074l.52147-.25594.52147-.063985.52147-.31992.52147-.063985.78221-.70383h.26074l.26074-.12797h.52147l.52147.19195h.26074l.52147-.19195.26074-.31992 1.3037-.38391.26074-.12797.78221-.063985.26074-.12797.78221.12797.78221-.063984.52147-.19195.52147-.12797 1.5644-1.0238.26074.063985.26074-.19195h.52147l.26074-.31992.52147-.25594.52147-.51188.78221.063984.52147-.38391.26074.063985.52147-.38391.26074-.38391.26074.12797.26074-.25594.26074-.063985.26074.19195.26074-.25594.52147.12797 1.0429-.63985.52147.063985.26074-.19195h.26074l.26074.12797.26074-.063984.26074-.31992.26074.063984.78221-.19195.26074.063985.26074-.063985.52147.063985 1.8252.063985.26074.19195 1.8252-.063985.52147-.063985 1.3037.063985.26074.12797.26074-.12797h1.0429l.26074-.12797.78221.063984.52147.063985 2.3466-.063985.52147-.063984 1.0429.063984.52147-.25594.78221-.12797.26074.12797.52147-.25594 1.0429.12797.52147-.25594h.52147l.52147-.19195 2.8681-.063985.52147-.19195.52147-.25594 1.3037-.063985.52147-.25594.78221-.57586h.26074l.26074-.12797.52147.063985 1.0429-.76782.26074.12797.26074-.12797.26074-.38391.78221-.44789.26074-.19195h.26074l.52147-.76782.78221-.57586.26074-.38391h.26074l.52147-.57586.26074.12797.52147-.063984.26074-.38391.26074.063984.52147-.38391 1.3037-.8318 1.0429-.44789 1.0429-.063985.78221-.31992 1.5644.063984.52147.063985 1.8252.063985.52147.063984 1.0429-.12797.26074-.063985.26074.063985.52147-.063985h2.6074l.26074-.12797.78221-.063985.52147-.063984 1.0429-.063985.26074-.063985.78221.25594.52147-.19195 1.3037-.063985.78221-.12797.52147-.063985.26074-.12797 1.5644.063985.78221-.38391h.26074l.52147-.31992h.26074l.26074-.12797.52147-.38391.26074.063985.78221-.19195.52147.12797.52147-.063984.26074.063984 1.5644-.76782.52147-.063985.78221-.19195.52147-.25594h.26074l.26074-.38391.26074-.12797.26074.063985.26074-.25594.26074-.063984.78221-1.4716.26074-.25594h.26074l.26074-.12797.52147-.44789.26074-.12797.26074-.44789 2.0859-1.6636.26074-.25594.26074-.44789 1.0429-.31992.26074.12797.26074-.063984.78221-.51188h.26074l.26074-.12797.26074.063985 1.8252-.38391.78221-.063985.52147-.12797.52147.063984 1.5644-.063984.26074-.063985.26074.063985.52147-.063985.52147.063985 1.5644-.063985.26074-.063984.52147.063984 1.0429-.063984 1.5644-.31992m.52147.19195.26074-.12797h.26074l.26074-.12797h2.8681l.52147-.25594.78221-.063985.26074-.063984.26074.063984.52147-.31992.26074.063985.52147-.063985.26074.063985.26074-.12797.52147.12797.26074-.12797.78221-.063984.52147-.25594.52147.25594.52147-.31992.78221-.25594.78221-.31992.26074-.31992.26074-.12797h.26074l.26074-.19195h.52147l.52147-.44789.52147.25594.26074-.25594.26074-.44789.52147-.25594h.26074l1.0429-.57586.52147-.44789.52147-.12797.26074-.44789.26074-.19195.26074-.57586.78221-.63985h.26074l.52147-.51188.78221-.25594.26074-.12797.52147-.38391.26074-.063985.26074-.25594.52147.063984.26074-.19195.52147.12797.26074-.25594h.52147l.26074-.19195.78221-.063985 1.0429-.12797.26074-.063985.26074.063985 1.0429-.51188 1.3037-.063985.26074-.063984.78221.12797 1.3037-.063985.26074-.063984.52147.12797.78221-.12797.26074.063984.26074-.063984.78221.12797h.52147l.26074-.25594 2.0859-.063984.78221-.12797.78221.12797 1.0429-.063985.26074-.19195.78221-.063985.78221-.31992 1.0429-.19195.52147-.063985 1.3037-.25594.78221-.063985.26074-.12797h.26074l.26074-.25594h.26074l.52147-.63985.52147-.31992.52147-.25594.78221-.19195.26074-.31992.26074-.12797h.26074l.78221-.31992h.26074l.26074-.25594.52147-.063985.52147-.63985.52147-.31992.52147-.38391 3.1288-2.1755.52147-.95977.52147-.38391.52147-.063984.26074-.44789h.26074l.52147-.25594.26074-.25594h.26074l.52147-.25594.26074-.38391.26074-.063985.52147-.31992.52147.063984.26074-.31992.52147-.19195 1.3037-.063985.26074.25594.52147.063985h.26074l.52147-.25594.52147-.063985 1.5644-.063984.52147-.063985.26074-.25594.78221-.063984.52147-.063985 5.2147-.063984.52147-.12797.26074.063985 1.5644-.44789.26074-.12797h.26074l.26074-.12797h.26074l.26074-.12797.78221.12797.52147-.063985h.52147l.52147-.19195.26074-.31992 1.0429-.44789h.52147l.52147-.25594.26074.063984.52147-.19195.26074.12797.26074-.12797.52147-.063984.52147-.38391.52147-.25594h.26074l.52147-.19195.26074.12797.52147-.19195.26074-.31992 1.3037-.57586.26074.063985.78221-.31992.26074.063985.26074-.19195h.26074l3.6503-2.7513.52147-.89579.52147-.70383.52147-.063984 1.3037-1.1517.26074-.12797.26074-.25594.26074-.063985 1.3037-.8318.26074-.063985.52147-.31992 1.5644-.31992.26074.063984.52147-.063984.78221.12797 1.3037-.063985.52147-.063984 1.3037-.063985.52147-.063985.52147.063985.78221.063985.78221.12797.26074-.12797.52147.063984 1.0429.19195.26074-.12797.26074.12797.52147-.063984.26074-.25594 1.0429-.25594.52147.12797 1.0429-.38391h.26074l.26074-.12797.52147-.063985 1.5644-.31992.26074.063984.26074-.12797h.26074l.78221-.63985h.26074l1.3037-.57586 1.3037-.31992.26074-.31992.52147.063985.78221-.63985.26074-.19195.26074.063985.26074-.063985.26074-.25594.52147.44789.52147.19195 1.3037-.31992.26074-.31992.26074-.063985.52147-.44789h.26074l.52147-.25594.26074.063985.26074-.31992.26074-.12797.52147-.51188.26074-.44789.52147-.44789.26074-.44789.26074-.12797.52147-.63985h.26074l.52147-.57586.26074.063985.52147-.38391.26074-.63985.26074-.063985.26074-.44789.26074-.063984.26074-.25594.26074-.51188.52147-.31992.52147-.063985.52147-.57586.52147-.063984.52147-.38391.26074-.38391.26074-.063985 1.5644-1.0877.78221.063985.52147.19195.52147-.25594.78221.12797 1.5644-.063984 1.0429-.19195 1.8252-.063985.78221-.12797 1.8252-.063985 1.0429-.19195h.78221l.52147-.25594.26074.063984.26074-.063984.26074.063984.26074-.063984.52147.063984.52147-.063984.52147.063984.78221-.38391.52147-.063984.26074-.19195h.26074l.52147-.31992.52147-.19195.26074-.12797.52147.063985 1.3037-.31992.26074-.25594.52147-.12797.26074.063984.26074.25594.26074.063985.26074-.12797.26074.063985.78221-.57586.26074.12797.26074-.063984.52147-.38391.52147.063984h.26074l.26074-.25594.26074.063985.78221-.44789h.26074l.52147-.19195.26074.063985.26074-.063985.26074.063985 1.0429-.89578.78221-.70383.26074-.25594.26074-.063985.26074-.51188.26074.063985.26074-.38391.26074-.063985.26074-.38391.52147-.25594.52147-.57586h.26074l.26074-.44789.26074-.063985.52147-.51188.26074.12797 1.0429-.44789.52147.19195.52147-.19195 1.5644-.31992 1.0429-.063985 1.3037-.25594 1.0429-.12797 1.3037-.063985 1.5644-.31992h1.8252l.26074.12797h.52147l.52147.12797.26074-.12797h.52147l.26074-.12797.26074.063985 1.0429-.25594.52147.063985h.26074l.26074-.19195 2.3466-.063985.78221-.38391 1.3037-.063984.52147-.19195.26074.12797.52147-.25594h.52147l.26074-.12797.78221.063985.52147.19195.52147-.063985.26074-.12797.52147.063985.26074-.12797.26074.063985 1.0429-.31992.52147-.38391.26074.19195.78221-.44789h.52147l.26074-.19195h.26074l.26074-.38391.26074.19195h.26074l.26074-.63985.78221-.44789 1.0429-.89578.26074-.51188.26074.12797.26074-.12797h.26074l1.0429-1.0877.26074.063984.52147-.44789.26074-.44789.26074.12797.78221-.44789.26074-.063985.26074-.31992.52147.063985.26074-.12797.26074-.25594.26074-.063985.26074-.31992.26074-.12797.26074.063984 1.8252-.8318 1.3037-.063985.78221-.12797h.78221l.26074-.12797 1.5644-.063985 1.0429-.25594.52147.063985h.26074l.26074-.12797 1.0429.063984.78221.12797 1.0429-.19195 1.0429-.12797 1.3037-.063984 1.0429-.19195.78221.063984 1.0429.19195h.26074l1.3037-.89578h2.3466l.26074-.12797.26074.063985.52147-.12797.26074.063985.52147-.19195 1.0429-.19195.26074-.31992.52147-.19195.26074.063984.26074.19195h.26074l1.3037-.8318.26074.12797.78221-.44789.26074-.19195h.26074l1.0429-1.0238.52147-.12797.78221-.89578.26074-.31992.78221-.44789.52147-.63985.26074-.12797.26074-.51188.52147-.25594.52147-.19195.26074.12797.26074-.25594.52147-.19195.26074-.19195.26074.12797.26074-.25594h.26074l.26074-.12797.78221-.8318 1.3037.063985.26074-.19195 1.0429-.063985.78221-.12797.78221.12797 2.0859-.063984.78221-.12797h3.3896l.26074-.25594 1.3037-.063985 1.3037-.25594 1.8252-.063984.52147-.19195.26074.063984 1.0429-.12797 1.3037-.38391.26074-.12797.26074-.31992.52147-.19195.78221-.38391.26074.063985.26074-.19195.26074.12797h.26074l.26074-.19195h.52147l.52147-.31992.26074.063984.26074-.12797.26074.12797 1.0429-.44789.26074.063984 1.8252-.51188.26074.12797.52147-.12797.52147-.25594h.78221l1.3037-.57586.26074-.063985.52147-.57586.26074-.31992.52147-.19195.26074-.12797.26074-.31992.26074.063985.26074-.063985 1.3037-1.0238.26074-.51188 1.0429-.44789.26074-.38391.26074-.12797.26074-.51188 1.3037-.95977h.26074l.26074.19195.52147-.19195.26074-.19195h.26074l.26074.12797 1.0429-.31992.78221-.38391.26074.063985 1.0429-.19195 1.8252-.063985.52147-.063984 3.1288.063984.26074.12797 1.0429-.12797 2.6074.063985 1.5644.19195.78221-.25594.52147-.19195 1.0429-.19195.52147.12797.26074-.063985.26074.12797.26074-.063984.26074-.19195.26074.19195h.78221l.26074-.19195.26074.063984.52147-.31992.26074.12797.26074-.25594.26074.19195 1.3037-.063985m1.0429 0 .78221-.12797.52147-.31992.26074-.31992.52147-.063984h.26074l.52147-.38391.52147.12797.52147-.31992.26074.12797.26074-.31992.26074.19195.26074-.063985.78221-.95977.26074-.063984.26074-.25594.26074.063985.26074-.12797.26074-.57586 1.3037-1.4077.26074-.38391.26074-.063984.78221-.63985.26074-.19195.26074-.38391h.26074l.26074-.57586.52147-.57586h.52147l.26074-.12797.26074-.25594.26074.063984.26074-.063984.52147-.31992h.26074l1.0429-.63985.78221-.31992.26074.063984 1.3037-.25594.52147-.063985 1.0429-.19195.52147.12797 1.0429-.19195.26074.12797 2.3466.063984.26074.12797 1.3037-.063985.78221-.12797.52147.12797.52147-.063985.26074.063985.78221-.25594.26074-.12797.52147-.063984.26074-.19195.52147-.063985.26074-.063985.52147.063985h.78221l.52147-.25594 1.0429-.063984.78221-.31992h.26074l.52147-.25594 1.3037-.38391.52147.19195.52147-.19195.52147.25594.78221-.31992.52147-.12797.26074-.19195 1.0429.063985.78221-.51188h.26074l.52147-.51188h.52147l.26074-.25594h.26074l.26074-.19195.26074.12797.26074-.19195.26074-.38391.52147-.19195.52147-.51188 1.8252-1.7276.26074-.063984.26074-.8318.52147-.70383.26074-.51188 1.0429-.51188 1.0429-.95977.78221-.31992.26074.063984.78221-.31992.26074-.51188 1.0429-.51188.26074-.44789.52147-.25594h.26074l.26074-.12797.26074.12797.26074-.12797.52147.063985h.26074l.52147-.25594 2.8681-.063984.52147-.063985.78221.063985.26074.12797h4.954l.26074-.12797h.78221l.78221-.38391h.26074l.26074-.19195.52147-.063985.52147-.19195.52147-.063985.26074.063985.52147-.25594h.26074l.26074-.19195.26074.063984.78221-.31992.26074-.063985.26074-.25594.52147.063984.26074-.19195.26074.063985.26074-.19195.26074.063985.26074-.19195.78221-.063985.26074.19195.78221-.19195.26074-.19195.26074.063985 1.0429-.57586.26074-.19195.26074.19195.26074-.12797h.52147l.26074-.19195h.52147l.26074-.12797h.26074l.26074-.25594.26074.063984 1.0429-.44789h.78221l.26074-.12797h.26074l1.3037-1.0238.78221-1.4716.78221-.89578.52147-.19195.26074-.25594v0" clip-path="url(#c)" fill="none" stroke="#28f" stroke-linecap="square" stroke-width="1.5"/>
   </g>
   <g id="fa">
    <path d="m52 523.06v-232.9" fill="none" stroke="#000" stroke-linecap="square" stroke-width=".8"/>
   </g>
   <g id="fb">
    <path d="m853.2 523.06v-232.9" fill="none" stroke="#000" stroke-linecap="square" stroke-width=".8"/>
   </g>
   <g id="fc">
    <path d="m52 523.06h801.2" fill="none" stroke="#000" stroke-linecap="square" stroke-width=".8"/>
   </g>
   <g id="fd">
    <path d="m52 290.16h801.2" fill="none" stroke="#000" stroke-linecap="square" stroke-width=".8"/>
   </g>
   <g id="fe">
    <!-- サーバー数の推移 -->
    <g transform="translate(404.6 284.16) scale(.12 -.12)">
     <defs>
      <path id="z" transform="scale(.015625)" d="m4685 2893q0-621-84-1111-83-489-288-877-204-387-569-691t-928-560l-544 512q448 167 781 371 333 205 550 503 218 298 323 739 106 442 106 1075v1620q0 192-10 339-9 147-22 217h723q-6-70-22-217t-16-339v-1581zm-2304 2086q-7-64-23-199-16-134-16-313v-2317q0-128 6-256 7-128 13-224 7-96 13-140h-710q6 44 12 140 7 96 13 221 7 125 7 259v2317q0 122-10 256-9 135-28 256h723zm-1978-1197q45-12 144-22t237-20q138-9 285-9h4217q237 0 394 13t246 26v-679q-76 7-240 13-163 6-393 6h-4224q-147 0-282-3-134-3-234-10-99-6-150-12v697z"/>
      <path id="s" transform="scale(.015625)" d="m621 2854q109-6 265-16 157-9 339-16 183-6 349-6 128 0 352 0t509 0 598 0q314 0 624 0 311 0 586 0t486 0q212 0 327 0 230 0 416 16t301 22v-793q-109 6-308 19-198 13-409 13-109 0-324 0-214 0-489 0t-586 0q-310 0-624 0-313 0-598 0t-509 0-352 0q-262 0-525-10-262-9-428-22v793z"/>
      <path id="y" transform="scale(.015625)" d="m4941 5037q83-109 176-269t182-320q90-160 154-288l-416-179q-96 192-240 448t-272 435l416 173zm723 275q83-122 182-282 100-160 196-317 96-156 153-271l-416-186q-102 205-246 454-144 250-279 429l410 173zm-4339-3360q102 262 201 556 100 295 183 612t144 630q61 314 93 602l723-147q-19-83-45-183-26-99-48-195t-42-166q-32-154-86-394t-131-512-164-551q-86-278-182-514-115-301-269-618-153-317-326-618-173-300-346-550l-697 294q301 397 563 874t429 880zm3155 198q-96 250-215 531-118 282-243 567-124 285-246 534-122 250-224 429l659 218q96-179 221-429t253-535q128-284 249-566 122-281 218-525 90-230 195-518 106-288 211-592 106-304 195-589 90-285 154-515l-729-237q-84 352-199 736t-240 768-259 723z"/>
     </defs>
     <use xlink:href="#z"/>
     <use transform="translate(100)" xlink:href="#s"/>
     <use transform="translate(200)" xlink:href="#y"/>
     <use transform="translate(300)" xlink:href="#s"/>
     <use transform="translate(400)" xlink:href="#o"/>
     <use transform="translate(500)" xlink:href="#t"/>
     <use transform="translate(600)" xlink:href="#p"/>
     <use transform="translate(700)" xlink:href="#n"/>
    </g>
   </g>
  </g>
 </g>
 <defs>
  <clipPath id="b">
   <rect x="52" y="26.88" width="801.2" height="232.9"/>
  </clipPath>
  <clipPath id="c">
   <rect x="52" y="290.16" width="801.2" height="232.9"/>
  </clipPath>
 </defs>
</svg>
