<!DOCTYPE svg  PUBLIC '-//W3C//DTD SVG 1.1//EN'  'http://www.w3.org/Graphics/SVG/1.1/DTD/svg11.dtd'>
<svg version="1.1" viewBox="0 0 864 576" xmlns="http://www.w3.org/2000/svg" xmlns:xlink="http://www.w3.org/1999/xlink">
 <defs>
  <style type="text/css">*{stroke-linejoin: round; stroke-linecap: butt}</style>
 </defs>
 <g id="aa">
  <g id="ab">
   <path d="m0 576h864v-576h-864z" fill="#fff"/>
  </g>
  <g id="ac">
   <g id="ad">
    <path d="m52 259.78h801.2v-232.9h-801.2z" fill="#fff"/>
   </g>
   <g id="ae">
    <path d="m133.91 259.78h.81732v-232.9h-.81732z" clip-path="url(#d)" fill="#808080" opacity=".3" stroke="#808080"/>
   </g>
   <g id="af">
    <path d="m434.82 259.78h.54488v-232.9h-.54488z" clip-path="url(#d)" fill="#808080" opacity=".3" stroke="#808080"/>
   </g>
   <g id="ag">
    <path d="m759.02 259.78h1.0898v-232.9h-1.0898z" clip-path="url(#d)" fill="#808080" opacity=".3" stroke="#808080"/>
   </g>
   <g id="ah">
    <g id="ai">
     <g id="aj">
      <path d="m104.9 259.78v-232.9" clip-path="url(#d)" fill="none" stroke="#b0b0b0" stroke-linecap="square" stroke-opacity=".3" stroke-width=".8"/>
     </g>
     <g id="ak">
      <defs>
       <path id="e" d="m0 0v3.5" stroke="#000" stroke-width=".8"/>
      </defs>
      <use x="104.896701" y="259.777732" stroke="#000000" stroke-width=".8" xlink:href="#e"/>
     </g>
    </g>
    <g id="al">
     <g id="am">
      <path d="m183.36 259.78v-232.9" clip-path="url(#d)" fill="none" stroke="#b0b0b0" stroke-linecap="square" stroke-opacity=".3" stroke-width=".8"/>
     </g>
     <g id="an">
      <use x="183.359355" y="259.777732" stroke="#000000" stroke-width=".8" xlink:href="#e"/>
     </g>
    </g>
    <g id="ao">
     <g id="ap">
      <path d="m261.82 259.78v-232.9" clip-path="url(#d)" fill="none" stroke="#b0b0b0" stroke-linecap="square" stroke-opacity=".3" stroke-width=".8"/>
     </g>
     <g id="aq">
      <use x="261.822008" y="259.777732" stroke="#000000" stroke-width=".8" xlink:href="#e"/>
     </g>
    </g>
    <g id="ar">
     <g id="as">
      <path d="m340.28 259.78v-232.9" clip-path="url(#d)" fill="none" stroke="#b0b0b0" stroke-linecap="square" stroke-opacity=".3" stroke-width=".8"/>
     </g>
     <g id="at">
      <use x="340.284662" y="259.777732" stroke="#000000" stroke-width=".8" xlink:href="#e"/>
     </g>
    </g>
    <g id="au">
     <g id="av">
      <path d="m418.75 259.78v-232.9" clip-path="url(#d)" fill="none" stroke="#b0b0b0" stroke-linecap="square" stroke-opacity=".3" stroke-width=".8"/>
     </g>
     <g id="aw">
      <use x="418.747315" y="259.777732" stroke="#000000" stroke-width=".8" xlink:href="#e"/>
     </g>
    </g>
    <g id="ax">
     <g id="ay">
      <path d="m497.21 259.78v-232.9" clip-path="url(#d)" fill="none" stroke="#b0b0b0" stroke-linecap="square" stroke-opacity=".3" stroke-width=".8"/>
     </g>
     <g id="az">
      <use x="497.209969" y="259.777732" stroke="#000000" stroke-width=".8" xlink:href="#e"/>
     </g>
    </g>
    <g id="ba">
     <g id="bb">
      <path d="m575.67 259.78v-232.9" clip-path="url(#d)" fill="none" stroke="#b0b0b0" stroke-linecap="square" stroke-opacity=".3" stroke-width=".8"/>
     </g>
     <g id="bc">
      <use x="575.672622" y="259.777732" stroke="#000000" stroke-width=".8" xlink:href="#e"/>
     </g>
    </g>
    <g id="bd">
     <g id="be">
      <path d="m654.14 259.78v-232.9" clip-path="url(#d)" fill="none" stroke="#b0b0b0" stroke-linecap="square" stroke-opacity=".3" stroke-width=".8"/>
     </g>
     <g id="bf">
      <use x="654.135276" y="259.777732" stroke="#000000" stroke-width=".8" xlink:href="#e"/>
     </g>
    </g>
    <g id="bg">
     <g id="bh">
      <path d="m732.6 259.78v-232.9" clip-path="url(#d)" fill="none" stroke="#b0b0b0" stroke-linecap="square" stroke-opacity=".3" stroke-width=".8"/>
     </g>
     <g id="bi">
      <use x="732.597929" y="259.777732" stroke="#000000" stroke-width=".8" xlink:href="#e"/>
     </g>
    </g>
    <g id="bj">
     <g id="bk">
      <path d="m811.06 259.78v-232.9" clip-path="url(#d)" fill="none" stroke="#b0b0b0" stroke-linecap="square" stroke-opacity=".3" stroke-width=".8"/>
     </g>
     <g id="bl">
      <use x="811.060583" y="259.777732" stroke="#000000" stroke-width=".8" xlink:href="#e"/>
     </g>
    </g>
   </g>
   <g id="bm">
    <g id="bn">
     <g id="bo">
      <path d="m52 246.93h801.2" clip-path="url(#d)" fill="none" stroke="#b0b0b0" stroke-linecap="square" stroke-opacity=".3" stroke-width=".8"/>
     </g>
     <g id="bp">
      <defs>
       <path id="h" d="m0 0h-3.5" stroke="#000" stroke-width=".8"/>
      </defs>
      <use x="52" y="246.926099" stroke="#000000" stroke-width=".8" xlink:href="#h"/>
     </g>
     <g id="bq">
      <!-- 300 -->
      <g transform="translate(27.9 250.91) scale(.1 -.1)">
       <defs>
        <path id="o" transform="scale(.015625)" d="m1715-90q-371 0-656 90t-503 240q-217 150-377 323l359 474q211-205 479-359 269-153 634-153 269 0 467 92 199 93 311 266t112 423q0 256-125 451t-429 300q-304 106-835 106v551q467 0 732 105 266 106 384 291 119 186 119 423 0 307-192 489-192 183-531 183-269 0-503-119-233-118-438-316l-384 460q282 256 614 413 333 157 737 157 422 0 748-144 327-144 512-413 186-269 186-659 0-403-221-685-221-281-592-422v-26q269-70 490-227t349-400 128-557q0-422-215-726-214-304-573-468-358-163-787-163z"/>
        <path id="a" transform="scale(.015625)" d="m1830-90q-460 0-806 275-346 276-535 823-188 547-188 1366 0 820 188 1357 189 538 535 803 346 266 806 266 461 0 800-269 340-269 528-803 189-534 189-1354 0-819-189-1366-188-547-528-823-339-275-800-275zm0 589q237 0 422 185 186 186 288 599 103 413 103 1091 0 679-103 1082-102 403-288 582-185 180-422 180-236 0-422-180-186-179-292-582-105-403-105-1082 0-678 105-1091 106-413 292-599 186-185 422-185z"/>
       </defs>
       <use xlink:href="#o"/>
       <use transform="translate(57)" xlink:href="#a"/>
       <use transform="translate(114)" xlink:href="#a"/>
      </g>
     </g>
    </g>
    <g id="br">
     <g id="bs">
      <path d="m52 220.79h801.2" clip-path="url(#d)" fill="none" stroke="#b0b0b0" stroke-linecap="square" stroke-opacity=".3" stroke-width=".8"/>
     </g>
     <g id="bt">
      <use x="52" y="220.787184" stroke="#000000" stroke-width=".8" xlink:href="#h"/>
     </g>
     <g id="bu">
      <!-- 600 -->
      <g transform="translate(27.9 224.77) scale(.1 -.1)">
       <defs>
        <path id="k" transform="scale(.015625)" d="m1971-90q-339 0-634 144-294 144-518 435-224 292-352 733-128 442-128 1044 0 678 147 1161 148 483 397 784 250 301 570 445t665 144q397 0 688-147 292-147 490-359l-403-448q-128 154-327 253-198 99-409 99-307 0-567-182-259-182-413-605-153-422-153-1145 0-608 115-1002t326-589q212-195 493-195 212 0 375 121 163 122 259 343t96 522q0 300-90 511-89 212-259 320-169 109-419 109-211 0-451-134t-458-461l-25 538q134 192 313 323t374 201q196 71 375 71 397 0 694-163 298-163 467-490 170-326 170-825 0-468-195-817-195-348-512-544-317-195-701-195z"/>
       </defs>
       <use xlink:href="#k"/>
       <use transform="translate(57)" xlink:href="#a"/>
       <use transform="translate(114)" xlink:href="#a"/>
      </g>
     </g>
    </g>
    <g id="bv">
     <g id="bw">
      <path d="m52 194.65h801.2" clip-path="url(#d)" fill="none" stroke="#b0b0b0" stroke-linecap="square" stroke-opacity=".3" stroke-width=".8"/>
     </g>
     <g id="bx">
      <use x="52" y="194.648269" stroke="#000000" stroke-width=".8" xlink:href="#h"/>
     </g>
     <g id="by">
      <!-- 900 -->
      <g transform="translate(27.9 198.63) scale(.1 -.1)">
       <defs>
        <path id="m" transform="scale(.015625)" d="m1562-90q-410 0-708 150-297 151-502 356l403 461q141-160 346-256t422-96q224 0 425 102 202 103 352 333 151 230 237 614 87 384 87 941 0 589-115 970t-323 563-496 182q-205 0-372-118-166-118-262-336t-96-525q0-301 86-512 87-211 259-323 173-112 417-112 224 0 460 141 237 141 448 461l32-544q-134-180-313-314t-371-208-384-74q-391 0-689 166-297 167-467 496-169 330-169 823 0 467 195 816t515 541 698 192q339 0 636-138 298-137 519-419 221-281 349-710t128-1018q0-691-141-1187t-391-807q-249-310-563-461-313-150-652-150z"/>
       </defs>
       <use xlink:href="#m"/>
       <use transform="translate(57)" xlink:href="#a"/>
       <use transform="translate(114)" xlink:href="#a"/>
      </g>
     </g>
    </g>
    <g id="bz">
     <g id="ca">
      <path d="m52 168.51h801.2" clip-path="url(#d)" fill="none" stroke="#b0b0b0" stroke-linecap="square" stroke-opacity=".3" stroke-width=".8"/>
     </g>
     <g id="cb">
      <use x="52" y="168.509354" stroke="#000000" stroke-width=".8" xlink:href="#h"/>
     </g>
     <g id="cc">
      <!-- 1200 -->
      <g transform="translate(22.2 172.49) scale(.1 -.1)">
       <defs>
        <path id="f" transform="scale(.015625)" d="m544 0v608h1037v3277h-845v467q333 58 579 147 247 90 451 218h557v-4109h915v-608h-2694z"/>
        <path id="b" transform="scale(.015625)" d="m282 0v429q697 621 1164 1136 468 515 701 956 234 442 234 826 0 256-87 451-86 196-262 301-176 106-445 106-275 0-506-151-230-150-422-368l-416 410q301 333 637 518 336 186 803 186 429 0 749-176t496-493 176-745q0-455-224-919t-615-935q-390-470-889-950 186 20 394 36t374 16h1184v-634h-3046z"/>
       </defs>
       <use xlink:href="#f"/>
       <use transform="translate(57)" xlink:href="#b"/>
       <use transform="translate(114)" xlink:href="#a"/>
       <use transform="translate(171)" xlink:href="#a"/>
      </g>
     </g>
    </g>
    <g id="cd">
     <g id="ce">
      <path d="m52 142.37h801.2" clip-path="url(#d)" fill="none" stroke="#b0b0b0" stroke-linecap="square" stroke-opacity=".3" stroke-width=".8"/>
     </g>
     <g id="cf">
      <use x="52" y="142.370439" stroke="#000000" stroke-width=".8" xlink:href="#h"/>
     </g>
     <g id="cg">
      <!-- 1500 -->
      <g transform="translate(22.2 146.36) scale(.1 -.1)">
       <defs>
        <path id="j" transform="scale(.015625)" d="m1715-90q-365 0-653 90t-506 237q-217 147-383 307l352 480q134-134 294-246t361-183q202-70 452-70 262 0 473 118 212 119 333 346 122 227 122 541 0 460-247 716-246 256-649 256-224 0-384-64t-365-198l-365 237 141 2240h2387v-627h-1747l-109-1204q154 77 307 118 154 42 340 42 397 0 723-160t518-490q192-329 192-847 0-519-224-887t-586-560q-361-192-777-192z"/>
       </defs>
       <use xlink:href="#f"/>
       <use transform="translate(57)" xlink:href="#j"/>
       <use transform="translate(114)" xlink:href="#a"/>
       <use transform="translate(171)" xlink:href="#a"/>
      </g>
     </g>
    </g>
    <g id="ch">
     <g id="ci">
      <path d="m52 116.23h801.2" clip-path="url(#d)" fill="none" stroke="#b0b0b0" stroke-linecap="square" stroke-opacity=".3" stroke-width=".8"/>
     </g>
     <g id="cj">
      <use x="52" y="116.231524" stroke="#000000" stroke-width=".8" xlink:href="#h"/>
     </g>
     <g id="ck">
      <!-- 1800 -->
      <g transform="translate(22.2 120.22) scale(.1 -.1)">
       <defs>
        <path id="l" transform="scale(.015625)" d="m1830-90q-441 0-787 163-345 164-547 448-202 285-202 650 0 314 122 557t314 419 403 291v32q-256 186-442 458-185 272-185 643 0 365 176 640t480 425q304 151 694 151 410 0 704-160t457-439q164-278 164-649 0-237-96-448t-234-381q-137-169-291-278v-32q218-115 397-285 179-169 288-406t109-557q0-346-189-628-189-281-532-448-342-166-803-166zm314 2708q205 198 310 419 106 221 106 464 0 211-83 384t-247 272q-163 99-393 99-288 0-480-183-192-182-192-502 0-256 134-429 135-172 359-294t486-230zm-294-2170q236 0 418 89 183 90 285 253 103 164 103 388 0 211-90 367-89 157-246 272-157 116-368 215t-454 195q-244-173-398-426-153-252-153-553 0-237 118-416 119-179 324-282 205-102 461-102z"/>
       </defs>
       <use xlink:href="#f"/>
       <use transform="translate(57)" xlink:href="#l"/>
       <use transform="translate(114)" xlink:href="#a"/>
       <use transform="translate(171)" xlink:href="#a"/>
      </g>
     </g>
    </g>
    <g id="cl">
     <g id="cm">
      <path d="m52 90.093h801.2" clip-path="url(#d)" fill="none" stroke="#b0b0b0" stroke-linecap="square" stroke-opacity=".3" stroke-width=".8"/>
     </g>
     <g id="cn">
      <use x="52" y="90.092609" stroke="#000000" stroke-width=".8" xlink:href="#h"/>
     </g>
     <g id="co">
      <!-- 2100 -->
      <g transform="translate(22.2 94.078) scale(.1 -.1)">
       <use xlink:href="#b"/>
       <use transform="translate(57)" xlink:href="#f"/>
       <use transform="translate(114)" xlink:href="#a"/>
       <use transform="translate(171)" xlink:href="#a"/>
      </g>
     </g>
    </g>
    <g id="cp">
     <g id="cq">
      <path d="m52 63.954h801.2" clip-path="url(#d)" fill="none" stroke="#b0b0b0" stroke-linecap="square" stroke-opacity=".3" stroke-width=".8"/>
     </g>
     <g id="cr">
      <use x="52" y="63.953694" stroke="#000000" stroke-width=".8" xlink:href="#h"/>
     </g>
     <g id="cs">
      <!-- 2400 -->
      <g transform="translate(22.2 67.939) scale(.1 -.1)">
       <defs>
        <path id="n" transform="scale(.015625)" d="m2170 0v3072q0 192 12 457 13 266 20 458h-26q-90-179-183-365-92-185-195-364l-921-1415h2579v-576h-3328v493l1875 2957h858v-4717h-691z"/>
       </defs>
       <use xlink:href="#b"/>
       <use transform="translate(57)" xlink:href="#n"/>
       <use transform="translate(114)" xlink:href="#a"/>
       <use transform="translate(171)" xlink:href="#a"/>
      </g>
     </g>
    </g>
    <g id="ct">
     <g id="cu">
      <path d="m52 37.815h801.2" clip-path="url(#d)" fill="none" stroke="#b0b0b0" stroke-linecap="square" stroke-opacity=".3" stroke-width=".8"/>
     </g>
     <g id="cv">
      <use x="52" y="37.814779" stroke="#000000" stroke-width=".8" xlink:href="#h"/>
     </g>
     <g id="cw">
      <!-- 2700 -->
      <g transform="translate(22.2 41.8) scale(.1 -.1)">
       <defs>
        <path id="i" transform="scale(.015625)" d="m1235 0q32 646 109 1187t224 1024 384 941 576 938h-2208v627h3027v-455q-409-512-665-989-256-476-397-969t-205-1053-90-1251h-755z"/>
       </defs>
       <use xlink:href="#b"/>
       <use transform="translate(57)" xlink:href="#i"/>
       <use transform="translate(114)" xlink:href="#a"/>
       <use transform="translate(171)" xlink:href="#a"/>
      </g>
     </g>
    </g>
   </g>
   <g id="cx">
    <path d="m88.418 222.44.077645.17426.068564-.34852.28334.34852.14439-.08713.3855-.8713.81777-3.2238.8314-5.1407.40684-1.3069.40957-.17426.38505-1.6555.40866-1.2198.40866-2.0911.40866-2.7882.40866-.60991 1.226-8.8872 1.6346-10.281.40866-1.3941.40866-.78417.40866-2.004.40866-5.3149 1.226-24.309 2.452-65.783.40866-15.248.40866-5.3149.40866-2.3525.40866-.78417.40866 2.6139.40866 1.5683 2.0433 43.565.81732 21.608.81732 19.778 1.226 23.874.81732 12.198 1.6346 19.604.40866 2.701.40866 3.9208.40866 2.7882.40866 3.6594.40866 1.9169.40866 3.2238 1.226 6.5347.40866 2.4396.40866 1.5683.40866 3.4852.40866 1.1327.40866 1.7426.81732 1.6555.40866 1.1327.40866.26139.40866 1.3069.40866.52278.81732.26139.81732-.43565 1.226-2.8753.40866-.26139.40866-.95843.40866-.43565.81732-3.3981.81732-3.9208.40866.26139.40866-.17426.40866-2.7882.40866-1.5683.40866-.78417.81732-2.7882.40866-3.1367.40866-1.7426.40866-.60991 1.226-4.2694.40866-3.9208.40866-2.4396.40866-3.6594.81732-5.2278.40866-2.6139.40866-1.3941m.81732 19.517.40866-12.285.40866-2.3525.40866-1.3941 1.226-13.418.40866-6.012.81732-18.21.81732-22.654.40866-16.293 1.226-31.105.81732-14.725.40866-3.7466.40866.43565.40866-1.2198.40866 1.7426.81732 8.8001.81732 21.173.40866 6.9704 1.226 28.404.81732 14.725.81732 16.555.81732 12.111.81732 10.891 2.0433 21.608 2.452 12.808.81732 5.7506.81732 3.1367.40866.43565.40866.8713.40866 1.3069.40866.60991 1.226 4.5307.40866-.43565.40866.34852h.40866l.40866.52278.40866-1.3069.40866.17426.40866-.34852.40866-.52278.40866-.26139.40866-.60991.40866.08713.40866-.52278.40866-2.0911.40866-1.4812.40866-.8713 1.6346-6.2733.40866-1.0456.40866-2.2654.40866-1.2198.40866-2.701.40866-1.0456.40866-3.2238.40866-1.6555.40866-3.3109.40866-.95843.81732-2.701.40866-2.2654.40866-1.3941.81732-6.012.40866-1.8297.40866-.43565.40866-3.1367.40866-1.1327.40866-2.3525 1.226-4.5307 1.226-18.733 1.226-27.62.40866-13.766 1.6346-36.856.81732-12.111.81732-4.4436.40866 1.0456.40866 3.7466.81732 17.6 1.226 28.23.81732 19.43 1.226 21.521.81732 11.763 1.6346 23.961 1.226 13.418 1.6346 12.547 2.8606 14.115.40866 1.1327.40866.69704.40866 1.1327.40866.60991h.40866l.54488.26139.54488.8713.13622-.08713.27244-.52278.54488.52278.13622.08713.27244-.60991.13622-.52278.13622.17426.27244-.95843h.13622l.13622.17426.13622-.17426.13622.087129.13622-.43565.13622.34852.40866-1.2198.13622.17426.13622-.08713.13622-.43565.13622.08713.27244-.78417.13622-.17426.27244-.8713.13622-.08713.27244-.52278.13622-.08713.27244-1.3941.13622.08713.27244-.43565.13622.08713.54488-1.2198.40866-2.701h.13622l.54488-2.3525.40866-1.5683h.13622l1.0898-4.3565.13622-1.0456.13622-.087129.95354-5.5763.40866-1.2198.27244-.69704.13622.17426.27244-2.0911.13622-.34852.27244-1.3941.13622-.34852.40866-3.0495.40866-.8713.27244-1.7426.13622-.087129.13622.17426.13622-.08713.40866-1.9169.27244-.95843.13622-1.6555.13622.26139 1.226-7.406h.13622l.13622-.17426.27244-1.2198.13622.69704.13622-1.0456.13622.26139 1.226-10.281.95354-17.774.6811-18.907.27244-11.153.40866-8.1031.95354-22.741.27244-9.5843.40866-8.0159.40866-4.1822.13622-3.2238.13622-.52278.13622.43565.54488-2.8753.13622-.34852.13622-1.0456.13622-.087129.27244.8713 1.226 22.915.27244 4.7921.13622.78417.54488 12.547.40866 9.5843.81732 15.683.40866 6.8832.54488 11.327 1.9071 31.192.40866 3.5723 1.9071 17.426 1.4984 8.8872.27244 1.2198.40866 3.0495.27244 1.9169.27244 2.1782.40866 2.1782.27244 1.2198.13622 1.6555.27244.43565.54488 2.9624.27244.69704.13622.17426.13622.60991.13622-.26139 1.0898 3.8337.40866.52278.13622-.08713.13622.43565.27244.08713.13622.26139.27244-.17426.13622.43565.13622-.34852.40866.34852.27244-.60991.13622-.43565.27244.17426.27244-.43565.54488-1.5683.27244-.69704.27244.26139.27244-.26139.54488-.95843.27244.43565.27244-1.2198.54488-3.2238.27244-1.3941.27244-.26139.27244-.95843.54488-.34852.54488-2.0911.27244-.08713.54488-3.3109.27244-.26139.27244-.78417h.27244l.27244-1.1327.27244-2.1782.81732-3.2238.54488-2.9624.27244-2.2654.27244-.52278.54488-2.0911.54488-3.7466.27244.087129.54488-1.4812.54488-4.008.81732-5.8377.27244-1.1327.27244-1.7426h.27244l.54488-3.1367.27244-.69704 1.3622-5.7506.81732-11.24.81732-17.426 2.1795-66.219.54488-11.763.54488-9.9328.54488-7.7545.81732-5.5763h.27244l.27244 1.1327.27244 1.7426.81732 7.406.81732 16.206.27244-3.1367.54488 14.376.54488 10.63 1.3622 28.84 2.9968 55.937.54488 7.8417.81732 7.5803.81732 6.0991.27244 2.8753.54488 2.9624.27244 2.5268.27244 1.1327.54488 3.8337.27244.8713.27244-.17426.27244.087129.27244.43565.81732 2.9624.27244-1.1327.27244-.43565.27244.60991.27244-.26139.27244.69704.27244-.34852.54488.26139.54488-2.2654.54488.087129.27244-1.5683.27244-.8713.27244-1.3941.27244.34852.27244-1.3069.27244-.60991 1.6346-6.5347.54488-3.6594.54488-2.1782.54488-5.0535.54488-6.012.27244-.8713 1.3622-11.153.27244-1.3941.54488-3.5723.27244-.43565.27244-2.4396.54488-2.4396.27244-1.7426.27244-.60991.27244.34852.27244-.69704.27244-1.6555.27244-.78417.54488-2.1782.27244-.34852.27244.26139.27244-.26139.27244.69704.27244 2.2654.27244-.08713.27244.17426.27244-.34852.27244-.60991.27244.69704.27244-.08713.27244-.26139.27244-1.3941h.54488l.27244-2.8753 1.0898-17.339.81732-20.737.27244-12.198 1.0898-25.703.81732-20.388.54488-9.9328.27244-7.1446.27244-3.3109.27244-.60991.54488-4.0951.27244-.34852.27244.52278.27244 1.4812.27244.52278.27244 3.5723.54488 2.9624.54488 7.0575.54488 12.634.54488 7.0575.54488 11.065.54488 15.248 2.9968 59.248.54488 9.2358 1.3622 19.43.27244 3.0495.81732 5.5763 1.0898 9.41.27244 1.5683.27244 3.0495 1.0898 4.8793.54488 1.6555.27244 2.004.27244-.087129.27244.52278.54488 1.3941.27244.26139.27244.52278.54488-.34852.54488-1.0456.27244-1.3069.54488.087129.27244-1.1327.27244-1.6555.54488-1.1327.27244.17426.27244-2.004.27244-1.0456.27244-1.9169.27244-.34852.27244-2.6139.27244-1.0456.27244-.34852.81732-3.0495.27244-3.3109.54488-9.1486.27244-2.4396 1.0898-13.941.81732-5.9248.81732-2.6139.27244-1.3941.27244-3.0495.81732-5.1407.54488-3.7466.27244-.43565.27244-1.2198h.27244l.27244-1.2198.27244.78417.27244-1.7426.27244.34852.27244.78417.27244 1.2198.81732 1.7426.27244-.26139.27244 2.6139.81732 2.6139.27244.17426.27244 1.1327.27244-.43565.27244-1.2198 1.0898-14.464.81732-18.994.54488-13.069 1.6346-33.893 1.0898-10.368.27244 1.9169.27244.78417.27244.26139.27244 1.1327.54488 5.402.81732 20.388.27244 4.3565 1.0898 26.139.27244 2.9624.27244 6.7961.27244 3.6594.81732 18.036 1.0898 18.297.54488 9.0615.27244 3.5723.27244 1.2198.81732 10.456 1.0898 7.5803.27244 1.4812 1.0898 9.8457.27244 1.3941.54488 1.4812.27244 2.6139.27244 1.2198.54488 3.1367 2.1795 7.5803.27244-.17426.27244.69704.27244.26139.27244.52278.27244.08713.27244-.08713.27244-.43565.27244-.08713.27244.43565.27244-.60991.27244-.08713.27244-.26139.27244.17426.27244.43565h.27244l.54488-.8713.27244.43565.27244-.78417.27244-.08713.27244-1.0456.27244.17426.27244-.08713.27244-1.5683.27244-.69704.27244-1.3941.54488-1.0456.54488-1.6555.54488-4.2694.27244-.34852.81732-3.6594.27244-.52278.81732-3.1367.27244-.78417.27244-.087129.54488-2.2654.27244-.52278.27244-1.2198.27244-1.8297.54488-1.9169.27244-2.8753.81732-2.6139.27244-.34852.27244-1.0456.27244-.08713 1.9071-11.065.27244-.78417.27244-.17426.81732-4.9664.54488-6.3605.27244-4.008.81732-15.248.54488-10.107 1.6346-42.258.54488-9.9328.27244-7.406.54488-6.2733.54488-5.6634.81732-2.4396.27244 1.3941.27244 2.004.54488 8.2773.27244 8.1902.81732 16.293.27244 4.9664.81732 21.608 1.3622 25.442.54488 7.5803.54488 8.4516 2.1795 24.832.81732 5.4892 1.0898 6.709.54488 2.701.27244.69704 2.7244 12.721h.27244l.27244.43565.27244 1.4812.27244-.26139.27244.95843.27244.08713.27244 1.3941.54488.34852.54488.52278.27244.17426.81732-.52278.27244-.78417.27244-.26139.27244-.69704.54488.34852.27244-.17426.27244.26139.54488.08713.27244-.08713.27244.60991.27244-.34852.81732-3.8337.54488-1.2198.54488-1.6555.27244-1.2198.27244-.43565.81732-2.7882.27244-2.6139.81732-3.8337.27244-1.3941.54488-1.6555.81732-4.0951.27244-1.5683.27244-.26139h.27244l.27244-.69704.27244-1.2198.27244-1.8297.27244-.95843.54488-2.7882.27244-2.004.27244-.69704.54488-2.701.27244.17426.54488-3.3981.27244-1.4812.54488-4.008h.27244l.54488-2.6139.27244-2.0911.27244-.60991.27244-2.0911.54488-11.763.54488-10.368.27244-6.2733 1.3622-42.345.54488-11.588.27244-8.6258.54488-6.6219.54488-5.8377.27244-2.7882.27244-.17426.54488-1.3069.27244 1.2198.27244 2.5268.81732 13.854.27244 3.5723 2.452 52.539 1.3622 26.139 1.6346 21.173.54488 6.7961.27244 1.8297.81732 7.0575.27244 1.3941 1.0898 8.3645.27244 1.1327.81732 5.2278 1.0898 3.6594.27244 1.7426.81732 2.3525.54488.95843 1.0898 3.8337.27244.34852.27244.69704.27244-.26139.27244.17426.81732-1.0456m.54488 2.4396.27244 1.3941.27244-.08713.27244.26139.54488-1.5683.27244-.08713.27244-.52278.27244.17426.27244-.8713.27244.087129.54488-2.5268.27244-.78417h.27244l.27244-.8713.27244-2.0911.27244-.26139.27244-.95843.27244-1.4812.27244-.34852 1.0898-4.8793.54488-2.9624.27244-1.0456.27244.17426.27244-1.1327.27244-2.6139.81732-4.4436.27244-2.5268.27244-1.4812.27244-2.1782.54488-2.2654.54488-2.5268.27244-.34852.27244-.69704.27244-1.1327.27244.087129.54488-2.7882.27244.08713.54488-5.3149.54488-4.0951.54488.17426.27244-2.4396.27244-1.3069.27244-3.3981.27244-1.6555.27244-2.5268 1.3622-22.305.27244-5.7506.81732-23.961 1.6346-42.084 1.0898-15.858.27244-.52278.54488.78417.27244 1.8297.54488 5.8377.54488 12.547 1.0898 23.612.81732 21.957.27244 5.3149.27244 2.9624 2.7244 47.311 1.0898 9.2358 2.452 18.907.27244.69704.81732 4.8793.27244.60991 1.0898 6.3605.81732 2.8753 1.3622 3.3109.81732 3.3981.54488.60991.27244-.43565.27244-.78417.27244-.34852.27244.52278.27244-.8713.27244.087129.27244.69704.27244-.52278.27244.43565.81732-1.4812.81732-2.5268.27244-.52278.54488-2.1782.27244-.69704.54488-2.7882.27244.26139.27244-1.5683.27244-.52278.54488-2.0911.27244-1.0456.27244-.52278.54488-2.004.27244-2.0911.27244-.43565 1.0898-5.1407.27244-.78417.27244-1.3941.27244-.78417.54488-2.7882.54488-2.004.54488-2.3525.54488-2.0911.27244-2.4396.27244-.34852.27244-1.2198.27244-2.701.81732-3.6594.27244-.43565.27244-.17426.27244-1.1327.54488-6.2733.81732-8.5387.81732-16.99 1.6346-33.196.81732-20.04.27244-5.1407.54488-16.119.81732-16.119.27244-2.7882.27244-.34852.27244-5.1407.27244-2.1782.27244-.08713.54488 2.3525.27244 5.0535.54488 15.248.54488 11.414 1.6346 41.561.54488 11.588 1.0898 19.691 1.3622 21.521 1.3622 15.858.54488 5.2278 1.9071 12.111 2.1795 12.198.27244-.08713.54488 2.4396.54488 1.4812.27244.34852.27244 1.0456.27244-.17426 1.3622 2.7882.27244-.17426.27244.52278.81732-.17426.54488-.78417.54488-.34852.27244-1.2198.27244-.17426h.27244l.27244-.43565.27244.52278.27244.08713.27244-.52278.54488-2.4396.54488-2.7882 1.9071-7.4932h.27244l.54488-1.7426.27244-1.6555.27244-.43565.54488-3.8337.27244.087129.27244-.69704.27244-.34852.27244-1.3069.27244-.08713 1.0898-8.4516.54488-2.3525.27244-.43565.54488-2.4396.27244-.34852.27244-.95843.27244-2.7882 1.0898-5.3149.27244-1.3069.27244-.08713.27244-.26139.54488-2.7882.27244-2.004 1.0898-13.244 1.3622-27.62.54488-17.426 2.1795-58.028.27244-5.3149.54488-5.4892.27244-3.8337.27244-.69704.27244-2.7882.27244 2.5268.27244-.17426.81732 9.4971.27244 1.6555.54488 9.1486 4.0866 88.262 1.9071 28.143.54488 5.3149.27244 4.0951 1.0898 8.9744.27244 1.4812.27244 3.7466.27244.60991.27244 2.4396.27244 1.3069.27244 2.0911.27244.78417.27244 2.0911.27244.69704.81732 3.3981.54488.78417.27244-.087129.54488.087129.27244-.26139.27244.17426.27244-.17426.27244-.43565.54488-1.3941.27244-.26139 1.0898-3.7466.27244-.087129.54488-2.7882.54488-3.6594.27244-1.2198.27244.43565.27244-.17426.81732-3.9208.27244.26139.27244-1.6555.27244-.34852.27244-1.2198.54488-8.9744 1.0898-9.8457.27244-1.3069.27244-2.5268.27244-3.7466.54488-2.7882.54488-4.1822.54488-3.8337.27244-3.1367.54488-2.0911.27244-.52278.27244-.8713.27244-.43565h.27244l.27244-.26139.27244.69704.27244.26139.27244.52278.54488-.08713.27244.08713.27244 1.3941.27244 2.1782.27244-.78417.27244 1.1327.27244 2.0911.27244-2.5268.27244.17426.27244-.52278.27244-1.7426.27244-3.3109.54488-2.3525.27244-2.9624.27244-6.4476.27244-2.7882 1.0898-24.745.27244-10.978.54488-11.24 1.6346-42.084.81732-16.99.81732-6.9704.27244-.43565.27244-.78417 1.0898 9.1486.54488 8.9744.27244 3.8337.81732 17.165.27244 4.008.27244 7.5803.27244 3.4852 1.3622 31.367.81732 15.073 2.1795 40.69.81732 10.63 1.9071 17.949 1.0898 6.3605.27244 2.2654.27244 1.1327.81732 5.2278.27244.34852.27244.78417.27244 1.4812.27244.17426.27244-.17426.27244.08713.27244-.26139.27244.26139.54488-.95843.27244-.52278 1.0898-3.7466.27244-.60991.54488-2.3525.54488-2.1782.54488-2.6139.27244-.34852.27244.26139.27244-2.3525.27244-.08713.27244-1.4812.54488-5.6634.27244-.17426.81732-7.3189.54488-2.5268.27244-1.7426.81732-8.3645.27244-4.0951.27244-1.1327.54488-4.4436.27244-.60991.54488-5.2278.54488-2.9624.27244-1.3941.54488-3.7466.27244-.43565.27244.43565.54488-2.1782.27244-.08713.81732-1.7426.27244-1.1327.27244.8713.54488 3.1367.27244 2.4396.27244-.17426h.27244l.54488 4.008.27244-2.6139.27244.26139 1.3622-15.161.27244-3.7466.54488-10.891.81732-24.571 1.3622-29.624.81732-11.85.54488-3.3109.27244.60991.27244.087129.27244-.95843.27244-.17426.27244 3.2238.27244 4.8793.27244 9.3229.54488 11.588 1.9071 45.307.54488 10.02.81732 17.165 1.6346 26.662.81732 10.02.54488 4.8793.27244 2.8753.27244 1.6555.54488 4.2694 4.6315 24.658.27244.43565.27244 1.3941.54488 1.1327.27244.17426 1.3622 3.1367.27244-.26139.27244-.08713.27244-.34852.27244.26139.81732-.17426.54488-1.1327.54488-.69704.81732-.17426.27244-.52278.27244-.78417.27244-.34852.54488-2.6139.27244.087129.27244-.43565.27244-.8713.81732-4.4436.27244-1.3941 1.0898-2.9624.54488-3.4852.27244-1.5683.27244-.08713.54488-2.9624.27244-.52278.27244-2.4396.54488-2.4396 1.0898-4.7921.27244-.34852.27244-2.701.27244-.78417.27244-.26139.54488-5.2278.27244-.8713.27244-1.5683.54488-1.3069.27244-1.4812.27244-2.5268.54488-2.8753.27244-.43565.81732-7.8417 2.452-54.456 1.3622-33.196 1.0898-13.854.54488-2.701.27244.78417.27244.43565.81732 10.456 2.452 55.589 2.9968 49.315.27244 2.004 1.6346 17.252.54488 3.8337.81732 4.0951.81732 5.9248.27244.69704.54488 2.5268 1.0898 4.4436.27244 1.6555.81732 2.5268.27244.26139.54488 1.7426.27244.08713.54488 1.7426.27244.34852.81732 2.4396.54488.08713.54488-.78417.27244.17426.27244-.34852.27244-.78417.27244-.26139.27244-.52278.27244-.95843.27244.34852.54488-.60991.27244-1.8297.27244.17426.27244-.8713.27244.087129.27244-1.5683.27244-.69704.27244-.34852.27244-1.3069.27244-.52278.54488-2.5268.27244-2.3525.81732-2.8753.27244-1.9169.27244-.69704.81732-4.3565.54488-1.8297.27244-.60991.27244-1.7426.27244.17426.27244-1.2198.27244-.69704h.27244l1.0898-7.2318.27244-.52278.27244-1.7426.81732-2.5268.27244-1.0456h.27244l.81732-6.012.27244-.34852 1.3622-8.1902 1.0898-12.285.81732-16.555.81732-22.131.81732-21.957.27244-3.3109.81732-18.21.27244-3.2238.27244-5.5763.27244-2.004.27244-3.3109.27244-.26139.27244-1.2198.27244-.34852.81732 7.5803.54488 12.808 1.0898 18.994 1.0898 23.264.27244 5.1407.54488 12.982.54488 10.107.81732 11.501.54488 11.24.81732 10.02 1.0898 9.4971 1.3622 12.111.27244.8713 1.0898 5.6634.54488 2.8753.27244 1.1327.54488 1.1327.54488 2.004.27244.69704.27244 1.9169.27244.69704.27244-.43565.54488.95843.27244.17426.27244.8713.27244 1.6555.27244-.17426.27244.26139.54488.69704.27244.17426h.27244l.54488.34852.54488-1.3941.27244.95843.27244-.17426.54488-1.2198.27244-.087129.54488-.8713.27244.69704.81732-1.3941.27244-2.004.27244-.8713.54488-.8713 2.1795-9.9328.27244-.95843.81732-5.5763.27244-.69704 1.0898-6.7961.27244-1.1327.27244-.43565.27244-.95843.54488-3.0495.54488-5.1407.27244-.69704 1.0898-7.0575.27244-2.9624.27244-.69704.54488-2.701.27244 1.2198.27244-.95843.27244-.26139.27244-.78417.27244.08713.27244-.52278.27244-1.3941.54488-9.5843 1.0898-17.774.54488-16.032.27244-10.281.27244-5.402 1.0898-29.363.81732-15.77.54488-6.709h.27244l.27244-.17426.27244-1.6555.54488 2.4396.27244 1.7426.27244 3.5723.81732 19.169 1.0898 25.268.81732 20.04 1.9071 33.806.27244 3.0495.27244 6.0991 1.6346 19.43 1.0898 8.0159 3.2693 18.472.27244.60991.27244 1.9169 1.3622 4.4436.27244 1.6555 1.0898 3.1367.27244 1.2198.27244-.26139.27244.34852.27244-.087129.27244-.26139.27244-.8713.27244 1.0456.27244-.78417.54488-.52278.27244-.95843.27244-.17426h.27244l.27244-.26139.27244-.78417.27244-2.004.27244-.34852h.27244l.27244-.26139.27244-1.0456.27244-1.6555.27244-.43565.27244-1.0456h.27244l.27244-.8713.81732 3.8337.27244-.34852.27244 1.3069.27244-.17426.27244-2.2654.27244.8713.54488-.95843.54488.43565.27244-1.9169.27244.34852.27244.8713.27244.17426.27244-.08713.27244-1.0456.27244.17426m1.0898-2.7882.27244-1.6555.27244-3.3109.27244-1.7426 1.9071-17.862 1.0898-5.1407 1.0898-12.372 1.3622-25.616 1.3622-41.299 1.0898-29.798.54488-9.6714.54488-7.3189.27244-1.5683.27244 1.1327h.27244l.27244.43565.54488 2.7882.54488 12.895.27244 6.5347.27244 1.9169.27244 7.5803.27244 2.6139.27244 5.0535.81732 19.517 2.452 45.22 1.9071 24.832 2.1795 19.081.27244.60991 1.3622 7.9288 1.3622 5.402.27244.52278.54488 2.7882.54488 2.5268.81732 1.6555.54488 1.4812.54488.08713.27244-.34852.27244.52278.27244-1.0456.27244-.08713.27244.17426.27244-.087129.27244-.95843.27244.34852.54488-1.3941.27244-.60991.27244-1.0456.81732-1.7426.54488-2.004.27244-1.3941.27244-2.0911.27244-.17426.54488-1.6555.54488-2.701.27244.087129.54488-2.701.81732-1.7426.81732-4.705.54488-1.4812.54488-2.7882 1.3622-7.7545.54488-1.2198.27244-.087129.27244-1.8297.27244-.08713.27244-2.2654.27244-.08713 1.3622-5.6634.27244-1.2198h.27244l.27244-.60991.27244-1.3941.27244-3.0495.81732-3.1367.27244-4.5307.27244-2.3525 1.6346-35.2 1.0898-30.67.27244-5.2278 1.0898-32.412 1.0898-14.202.54488-1.7426.27244-.69704.27244-.34852.27244-1.0456.54488 5.3149.27244.34852.27244 4.6179.81732 25.79.81732 14.551 2.9968 52.888v0" clip-path="url(#d)" fill="none" stroke="#28f" stroke-linecap="square" stroke-width="1.5"/>
   </g>
   <g id="cy">
    <path d="m52 259.78v-232.9" fill="none" stroke="#000" stroke-linecap="square" stroke-width=".8"/>
   </g>
   <g id="cz">
    <path d="m853.2 259.78v-232.9" fill="none" stroke="#000" stroke-linecap="square" stroke-width=".8"/>
   </g>
   <g id="da">
    <path d="m52 259.78h801.2" fill="none" stroke="#000" stroke-linecap="square" stroke-width=".8"/>
   </g>
   <g id="db">
    <path d="m52 26.88h801.2" fill="none" stroke="#000" stroke-linecap="square" stroke-width=".8"/>
   </g>
   <g id="dc">
    <!-- 同時接続数の推移 -->
    <g transform="translate(404.6 20.88) scale(.12 -.12)">
     <defs>
      <path id="x" transform="scale(.015625)" d="m1587 3936h3232v-518h-3232v518zm320-1114h557v-2534h-557v2534zm301 0h2291v-2086h-2291v512h1734v1069h-1734v505zm-1683 2260h5113v-570h-4524v-5056h-589v5626zm4768 0h595v-4896q0-250-67-397t-227-218q-160-77-426-96t-675-19q-13 83-45 192t-77 218q-45 108-89 185 281-13 527-13 247 0 330 0 83 7 118 42 36 35 36 112v4890z"/>
      <path id="v" transform="scale(.015625)" d="m2714 4672h3238v-525h-3238v525zm-244-1235h3712v-538h-3712v538zm20-1184h3635v-531h-3635v531zm1523 3155h595v-2310h-595v2310zm832-2451h589v-2823q0-230-61-364-61-135-227-199-167-70-423-86t-633-16q-20 121-78 285-57 163-121 284 275-6 509-9t310-3q77 6 106 28 29 23 29 93v2810zm-2023-1677 487 282q153-160 313-352t294-381q135-189 206-343l-519-313q-64 153-189 348-124 196-278 394-154 199-314 365zm-2086 3718h1619v-4281h-1619v544h1056v3187h-1056v550zm32-1843h1293v-537h-1293v537zm-320 1843h563v-4832h-563v4832z"/>
      <path id="w" transform="scale(.015625)" d="m3866 5408h614v-870h-614v870zm-1479-653h3597v-518h-3597v518zm-230-1485h4e3v-518h-4e3v518zm825 922 519 102q64-160 121-342 58-182 96-352 39-170 45-304l-544-128q-6 134-42 313-35 180-83 365-48 186-112 346zm1856 109 589-71q-96-275-202-557-105-281-195-486l-518 77q58 147 122 329 64 183 118 372t86 336zm-2643-2106h3943v-518h-3943v518zm1408 685 602-115q-167-371-362-784t-390-797-362-685l-525 179q160 288 346 666t368 784 323 752zm-659-2157 358 403q352-102 733-240 381-137 752-304 371-166 697-336 327-169 558-329l-384-461q-218 160-532 336-313 176-685 345-371 170-755 323-384 154-742 263zm1894 1114 583-71q-122-550-353-944-230-393-604-662t-922-435q-547-167-1296-269-25 128-93 269-67 141-137 230 678 64 1168 192t819 349q330 221 531 550 202 330 304 791zm-4684 217q396 90 953 240 557 151 1120 311l77-544q-525-154-1053-311-528-156-963-284l-134 588zm121 2093h1965v-563h-1965v563zm819 1248h576v-5229q0-236-51-374t-192-208q-141-77-355-99-214-23-541-16-13 115-64 288t-109 294q205-6 381-6t234 0q64 0 92 28 29 29 29 93v5229z"/>
      <path id="u" transform="scale(.015625)" d="m4058 5408h595v-1798h-595v1798zm-1415-563h3443v-499h-3443v499zm231-992h3008v-499h-3008v499zm-224-877h3475v-1203h-531v729h-2432v-729h-512v1203zm1964-877h551v-1881q0-122 22-157 23-35 106-35 25 0 92 0 68 0 135 0t99 0q51 0 83 54t45 224 19 515q90-70 234-131t259-93q-19-429-83-662-64-234-183-326-118-93-316-93-39 0-103 0t-134 0-138 0q-67 0-99 0-237 0-365 64t-176 218q-48 153-48 422v1881zm-1164-6h550v-455q0-243-48-528-48-284-186-579-137-294-409-572-272-279-727-503-70 90-192 208-121 118-230 195 416 205 665 438 250 234 371 474 122 240 164 467 42 228 42 413v442zm-2240 3309 524-192q-121-244-259-503-137-259-275-496t-259-416l-410 173q122 186 246 438 125 253 240 515 116 263 193 481zm716-743 500-230q-224-359-496-756-272-396-548-764-275-368-518-650l-358 205q179 211 377 483 199 272 387 569 189 298 358 592 170 295 298 551zm-1721-665 307 403q166-154 339-340 173-185 320-364t224-327l-326-460q-77 160-218 348-141 189-314 384-172 196-332 356zm1485-832 435 179q128-211 249-458 122-246 215-474 93-227 137-412l-473-211q-32 185-119 422-86 237-201 486-115 250-243 468zm-1530-583q422 26 998 54 576 29 1184 68l7-499q-570-45-1127-84-556-38-992-70l-70 531zm1702-992 436 135q121-276 214-596t118-556l-454-148q-26 237-112 563-86 327-202 602zm-1363 109 499-83q-57-455-163-897-105-441-253-748-51 32-134 73-83 42-170 83-86 42-144 62 148 294 234 697t131 813zm691 627h525v-2861h-525v2861z"/>
      <path id="q" transform="scale(.015625)" d="m224 2022h3187v-499h-3187v499zm51 2247h3111v-487h-3111v487zm1127-1735 563-121q-154-320-333-672t-352-679q-173-326-326-582l-532 173q148 243 324 566t345 669q170 346 311 646zm934-832 563-64q-89-480-262-838t-461-614-701-432-976-298q-25 128-99 269t-157 237q659 102 1085 303 426 202 666 554t342 883zm422 3597 519-211q-147-218-298-436-150-217-278-377l-403 186q121 173 252 413 132 240 208 425zm-1203 109h563v-2957h-563v2957zm-1075-320 448 186q134-192 246-420 112-227 157-393l-467-211q-38 172-147 406t-237 432zm1094-1050 397-236q-160-263-400-529-240-265-519-489-278-224-553-378-51 103-141 237-89 135-179 218 269 109 534 294 266 186 493 416 228 231 368 467zm487-204q83-45 246-145 163-99 352-211t346-211 221-150l-327-423q-83 77-230 198-147 122-317 253-170 132-327 250-156 119-259 189l295 250zm1798 396h2311v-556h-2311v556zm115 1178 615-90q-103-640-263-1235t-384-1101q-224-505-512-889-44 57-134 134t-186 157-166 125q275 339 473 796 199 458 340 995 141 538 217 1108zm1223-1510 614-58q-147-1101-445-1940-297-838-813-1443-515-604-1321-1014-26 71-90 177-64 105-134 208-70 102-128 159 742 346 1212 880 471 535 730 1290 260 755 375 1741zm-1005-135q134-851 387-1597 253-745 659-1305 407-560 1002-874-70-57-154-150-83-93-154-189-70-96-121-179-633 371-1056 988-422 618-688 1434-265 816-425 1783l550 89zm-3309-3065 327 416q377-148 754-330 378-182 701-378 324-195 548-368l-416-435q-211 179-519 378-307 198-666 383-358 186-729 334z"/>
      <path id="t" transform="scale(.015625)" d="m3686 4378q-64-493-163-1041-99-547-265-1084-192-653-432-1104t-522-688-595-237q-320 0-596 221-275 221-448 621-172 400-172 931 0 537 220 1017 221 480 611 851 391 372 909 583 519 211 1121 211 576 0 1040-186 464-185 793-515 330-329 502-771 173-441 173-941 0-672-278-1194-278-521-816-851-538-329-1318-444l-378 601q166 20 307 42t263 48q307 70 585 217 279 148 496 375 218 227 342 534 125 308 125 692t-122 713q-121 330-358 573-236 243-582 380-346 138-781 138-525 0-935-186-409-185-694-489-284-304-432-656-147-352-147-678 0-365 89-605 90-240 224-355 135-115 276-115t288 144 297 457q151 314 298 800 147 461 246 982 100 522 145 1021l684-12z"/>
      <path id="r" transform="scale(.015625)" d="m2995 2925h2893v-519h-2893v519zm0-1280h2893v-519h-2893v519zm-64-1299h3232v-557h-3232v557zm1312 3577h563v-3763h-563v3763zm429 1466 634-141q-154-390-340-794-185-403-339-684l-512 140q103 199 208 458 106 259 195 528 90 269 154 493zm-1472 25 582-147q-153-518-371-1018-217-499-483-931t-573-758q-38 64-109 160-70 96-147 198-77 103-141 160 416 416 733 1034t509 1302zm128-1203h2720v-537h-2720v-4205h-582v4422l313 320h269zm-3174-2157q396 90 953 240 557 151 1120 311l77-544q-525-154-1053-311-528-156-963-284l-134 588zm121 2093h1965v-563h-1965v563zm819 1248h576v-5229q0-236-51-374t-192-208q-141-77-355-99-214-23-541-16-13 115-64 288t-109 294q205-6 381-6t234 0q64 0 92 28 29 29 29 93v5229z"/>
      <path id="p" transform="scale(.015625)" d="m4051 5402 595-109q-281-493-729-941t-1107-806q-39 64-106 144t-141 153q-73 74-137 119 608 288 1011 678t614 762zm-77-557h1511v-493h-1863l352 493zm1293 0h109l109 25 384-179q-192-505-496-905t-695-701q-390-301-845-519-454-217-947-358-44 109-137 253t-176 227q448 109 867 294 419 186 777 445 359 259 631 592t419 730v96zm-1990-954 377 307q167-96 336-218 170-121 320-249 151-128 247-237l-397-332q-90 108-237 236t-317 259q-169 132-329 234zm1107-934 595-109q-307-538-803-1031-496-492-1232-876-38 64-102 144t-138 156q-74 77-138 116 455 217 807 483t604 554q253 288 407 563zm-90-589h1460v-506h-1818l358 506zm1268 0h121l109 26 384-167q-192-614-531-1075t-787-794q-448-332-983-553-534-221-1129-355-45 115-132 269-86 153-176 249 551 96 1043 285 493 189 903 473 410 285 714 669t464 883v90zm-2132-1056 410 339q186-102 384-237 198-134 371-275t282-269l-435-371q-103 128-270 272-166 144-361 288t-381 253zm-2150 3533h589v-5376h-589v5376zm-992-1242h2336v-569h-2336v569zm1024-224 365-160q-96-339-231-707-134-368-291-727-157-358-336-672-179-313-365-537-44 128-134 291t-160 272q173 192 339 457 167 266 323 570 157 304 282 618t208 595zm941 1946 416-467q-314-122-695-221-380-99-784-173-403-74-780-131-20 102-71 236-51 135-102 231 358 58 732 138 375 80 711 179t573 208zm-397-2579q58-45 179-170 122-125 266-266 144-140 259-265t160-183l-352-473q-58 102-157 255-99 154-218 317-118 164-227 311-108 147-185 237l275 237z"/>
     </defs>
     <use xlink:href="#x"/>
     <use transform="translate(100)" xlink:href="#v"/>
     <use transform="translate(200)" xlink:href="#w"/>
     <use transform="translate(300)" xlink:href="#u"/>
     <use transform="translate(400)" xlink:href="#q"/>
     <use transform="translate(500)" xlink:href="#t"/>
     <use transform="translate(600)" xlink:href="#r"/>
     <use transform="translate(700)" xlink:href="#p"/>
    </g>
   </g>
  </g>
  <g id="dd">
   <g id="de">
    <path d="m52 523.06h801.2v-232.9h-801.2z" fill="#fff"/>
   </g>
   <g id="df">
    <path d="m133.91 523.06h.81732v-232.9h-.81732z" clip-path="url(#c)" fill="#808080" opacity=".3" stroke="#808080"/>
   </g>
   <g id="dg">
    <path d="m434.82 523.06h.54488v-232.9h-.54488z" clip-path="url(#c)" fill="#808080" opacity=".3" stroke="#808080"/>
   </g>
   <g id="dh">
    <path d="m759.02 523.06h1.0898v-232.9h-1.0898z" clip-path="url(#c)" fill="#808080" opacity=".3" stroke="#808080"/>
   </g>
   <g id="di">
    <g id="dj">
     <g id="dk">
      <path d="m104.9 523.06v-232.9" clip-path="url(#c)" fill="none" stroke="#b0b0b0" stroke-linecap="square" stroke-opacity=".3" stroke-width=".8"/>
     </g>
     <g id="dl">
      <use x="104.896701" y="523.055464" stroke="#000000" stroke-width=".8" xlink:href="#e"/>
     </g>
     <g id="dm">
      <!-- 2025-07-01 -->
      <g transform="translate(58.107 563.33) rotate(-30) scale(.1 -.1)">
       <defs>
        <path id="g" transform="scale(.015625)" d="m301 1536v544h1689v-544h-1689z"/>
       </defs>
       <use xlink:href="#b"/>
       <use transform="translate(57)" xlink:href="#a"/>
       <use transform="translate(114)" xlink:href="#b"/>
       <use transform="translate(171)" xlink:href="#j"/>
       <use transform="translate(228)" xlink:href="#g"/>
       <use transform="translate(263.7)" xlink:href="#a"/>
       <use transform="translate(320.7)" xlink:href="#i"/>
       <use transform="translate(377.7)" xlink:href="#g"/>
       <use transform="translate(413.4)" xlink:href="#a"/>
       <use transform="translate(470.4)" xlink:href="#f"/>
      </g>
     </g>
    </g>
    <g id="dn">
     <g id="do">
      <path d="m183.36 523.06v-232.9" clip-path="url(#c)" fill="none" stroke="#b0b0b0" stroke-linecap="square" stroke-opacity=".3" stroke-width=".8"/>
     </g>
     <g id="dp">
      <use x="183.359355" y="523.055464" stroke="#000000" stroke-width=".8" xlink:href="#e"/>
     </g>
     <g id="dq">
      <!-- 2025-07-03 -->
      <g transform="translate(136.57 563.33) rotate(-30) scale(.1 -.1)">
       <use xlink:href="#b"/>
       <use transform="translate(57)" xlink:href="#a"/>
       <use transform="translate(114)" xlink:href="#b"/>
       <use transform="translate(171)" xlink:href="#j"/>
       <use transform="translate(228)" xlink:href="#g"/>
       <use transform="translate(263.7)" xlink:href="#a"/>
       <use transform="translate(320.7)" xlink:href="#i"/>
       <use transform="translate(377.7)" xlink:href="#g"/>
       <use transform="translate(413.4)" xlink:href="#a"/>
       <use transform="translate(470.4)" xlink:href="#o"/>
      </g>
     </g>
    </g>
    <g id="dr">
     <g id="ds">
      <path d="m261.82 523.06v-232.9" clip-path="url(#c)" fill="none" stroke="#b0b0b0" stroke-linecap="square" stroke-opacity=".3" stroke-width=".8"/>
     </g>
     <g id="dt">
      <use x="261.822008" y="523.055464" stroke="#000000" stroke-width=".8" xlink:href="#e"/>
     </g>
     <g id="du">
      <!-- 2025-07-05 -->
      <g transform="translate(215.03 563.33) rotate(-30) scale(.1 -.1)">
       <use xlink:href="#b"/>
       <use transform="translate(57)" xlink:href="#a"/>
       <use transform="translate(114)" xlink:href="#b"/>
       <use transform="translate(171)" xlink:href="#j"/>
       <use transform="translate(228)" xlink:href="#g"/>
       <use transform="translate(263.7)" xlink:href="#a"/>
       <use transform="translate(320.7)" xlink:href="#i"/>
       <use transform="translate(377.7)" xlink:href="#g"/>
       <use transform="translate(413.4)" xlink:href="#a"/>
       <use transform="translate(470.4)" xlink:href="#j"/>
      </g>
     </g>
    </g>
    <g id="dv">
     <g id="dw">
      <path d="m340.28 523.06v-232.9" clip-path="url(#c)" fill="none" stroke="#b0b0b0" stroke-linecap="square" stroke-opacity=".3" stroke-width=".8"/>
     </g>
     <g id="dx">
      <use x="340.284662" y="523.055464" stroke="#000000" stroke-width=".8" xlink:href="#e"/>
     </g>
     <g id="dy">
      <!-- 2025-07-07 -->
      <g transform="translate(293.5 563.33) rotate(-30) scale(.1 -.1)">
       <use xlink:href="#b"/>
       <use transform="translate(57)" xlink:href="#a"/>
       <use transform="translate(114)" xlink:href="#b"/>
       <use transform="translate(171)" xlink:href="#j"/>
       <use transform="translate(228)" xlink:href="#g"/>
       <use transform="translate(263.7)" xlink:href="#a"/>
       <use transform="translate(320.7)" xlink:href="#i"/>
       <use transform="translate(377.7)" xlink:href="#g"/>
       <use transform="translate(413.4)" xlink:href="#a"/>
       <use transform="translate(470.4)" xlink:href="#i"/>
      </g>
     </g>
    </g>
    <g id="dz">
     <g id="ea">
      <path d="m418.75 523.06v-232.9" clip-path="url(#c)" fill="none" stroke="#b0b0b0" stroke-linecap="square" stroke-opacity=".3" stroke-width=".8"/>
     </g>
     <g id="eb">
      <use x="418.747315" y="523.055464" stroke="#000000" stroke-width=".8" xlink:href="#e"/>
     </g>
     <g id="ec">
      <!-- 2025-07-09 -->
      <g transform="translate(371.96 563.33) rotate(-30) scale(.1 -.1)">
       <use xlink:href="#b"/>
       <use transform="translate(57)" xlink:href="#a"/>
       <use transform="translate(114)" xlink:href="#b"/>
       <use transform="translate(171)" xlink:href="#j"/>
       <use transform="translate(228)" xlink:href="#g"/>
       <use transform="translate(263.7)" xlink:href="#a"/>
       <use transform="translate(320.7)" xlink:href="#i"/>
       <use transform="translate(377.7)" xlink:href="#g"/>
       <use transform="translate(413.4)" xlink:href="#a"/>
       <use transform="translate(470.4)" xlink:href="#m"/>
      </g>
     </g>
    </g>
    <g id="ed">
     <g id="ee">
      <path d="m497.21 523.06v-232.9" clip-path="url(#c)" fill="none" stroke="#b0b0b0" stroke-linecap="square" stroke-opacity=".3" stroke-width=".8"/>
     </g>
     <g id="ef">
      <use x="497.209969" y="523.055464" stroke="#000000" stroke-width=".8" xlink:href="#e"/>
     </g>
     <g id="eg">
      <!-- 2025-07-11 -->
      <g transform="translate(450.42 563.33) rotate(-30) scale(.1 -.1)">
       <use xlink:href="#b"/>
       <use transform="translate(57)" xlink:href="#a"/>
       <use transform="translate(114)" xlink:href="#b"/>
       <use transform="translate(171)" xlink:href="#j"/>
       <use transform="translate(228)" xlink:href="#g"/>
       <use transform="translate(263.7)" xlink:href="#a"/>
       <use transform="translate(320.7)" xlink:href="#i"/>
       <use transform="translate(377.7)" xlink:href="#g"/>
       <use transform="translate(413.4)" xlink:href="#f"/>
       <use transform="translate(470.4)" xlink:href="#f"/>
      </g>
     </g>
    </g>
    <g id="eh">
     <g id="ei">
      <path d="m575.67 523.06v-232.9" clip-path="url(#c)" fill="none" stroke="#b0b0b0" stroke-linecap="square" stroke-opacity=".3" stroke-width=".8"/>
     </g>
     <g id="ej">
      <use x="575.672622" y="523.055464" stroke="#000000" stroke-width=".8" xlink:href="#e"/>
     </g>
     <g id="ek">
      <!-- 2025-07-13 -->
      <g transform="translate(528.88 563.33) rotate(-30) scale(.1 -.1)">
       <use xlink:href="#b"/>
       <use transform="translate(57)" xlink:href="#a"/>
       <use transform="translate(114)" xlink:href="#b"/>
       <use transform="translate(171)" xlink:href="#j"/>
       <use transform="translate(228)" xlink:href="#g"/>
       <use transform="translate(263.7)" xlink:href="#a"/>
       <use transform="translate(320.7)" xlink:href="#i"/>
       <use transform="translate(377.7)" xlink:href="#g"/>
       <use transform="translate(413.4)" xlink:href="#f"/>
       <use transform="translate(470.4)" xlink:href="#o"/>
      </g>
     </g>
    </g>
    <g id="el">
     <g id="em">
      <path d="m654.14 523.06v-232.9" clip-path="url(#c)" fill="none" stroke="#b0b0b0" stroke-linecap="square" stroke-opacity=".3" stroke-width=".8"/>
     </g>
     <g id="en">
      <use x="654.135276" y="523.055464" stroke="#000000" stroke-width=".8" xlink:href="#e"/>
     </g>
     <g id="eo">
      <!-- 2025-07-15 -->
      <g transform="translate(607.35 563.33) rotate(-30) scale(.1 -.1)">
       <use xlink:href="#b"/>
       <use transform="translate(57)" xlink:href="#a"/>
       <use transform="translate(114)" xlink:href="#b"/>
       <use transform="translate(171)" xlink:href="#j"/>
       <use transform="translate(228)" xlink:href="#g"/>
       <use transform="translate(263.7)" xlink:href="#a"/>
       <use transform="translate(320.7)" xlink:href="#i"/>
       <use transform="translate(377.7)" xlink:href="#g"/>
       <use transform="translate(413.4)" xlink:href="#f"/>
       <use transform="translate(470.4)" xlink:href="#j"/>
      </g>
     </g>
    </g>
    <g id="ep">
     <g id="eq">
      <path d="m732.6 523.06v-232.9" clip-path="url(#c)" fill="none" stroke="#b0b0b0" stroke-linecap="square" stroke-opacity=".3" stroke-width=".8"/>
     </g>
     <g id="er">
      <use x="732.597929" y="523.055464" stroke="#000000" stroke-width=".8" xlink:href="#e"/>
     </g>
     <g id="es">
      <!-- 2025-07-17 -->
      <g transform="translate(685.81 563.33) rotate(-30) scale(.1 -.1)">
       <use xlink:href="#b"/>
       <use transform="translate(57)" xlink:href="#a"/>
       <use transform="translate(114)" xlink:href="#b"/>
       <use transform="translate(171)" xlink:href="#j"/>
       <use transform="translate(228)" xlink:href="#g"/>
       <use transform="translate(263.7)" xlink:href="#a"/>
       <use transform="translate(320.7)" xlink:href="#i"/>
       <use transform="translate(377.7)" xlink:href="#g"/>
       <use transform="translate(413.4)" xlink:href="#f"/>
       <use transform="translate(470.4)" xlink:href="#i"/>
      </g>
     </g>
    </g>
    <g id="et">
     <g id="eu">
      <path d="m811.06 523.06v-232.9" clip-path="url(#c)" fill="none" stroke="#b0b0b0" stroke-linecap="square" stroke-opacity=".3" stroke-width=".8"/>
     </g>
     <g id="ev">
      <use x="811.060583" y="523.055464" stroke="#000000" stroke-width=".8" xlink:href="#e"/>
     </g>
     <g id="ew">
      <!-- 2025-07-19 -->
      <g transform="translate(764.27 563.33) rotate(-30) scale(.1 -.1)">
       <use xlink:href="#b"/>
       <use transform="translate(57)" xlink:href="#a"/>
       <use transform="translate(114)" xlink:href="#b"/>
       <use transform="translate(171)" xlink:href="#j"/>
       <use transform="translate(228)" xlink:href="#g"/>
       <use transform="translate(263.7)" xlink:href="#a"/>
       <use transform="translate(320.7)" xlink:href="#i"/>
       <use transform="translate(377.7)" xlink:href="#g"/>
       <use transform="translate(413.4)" xlink:href="#f"/>
       <use transform="translate(470.4)" xlink:href="#m"/>
      </g>
     </g>
    </g>
   </g>
   <g id="ex">
    <g id="ey">
     <g id="ez">
      <path d="m52 506.14h801.2" clip-path="url(#c)" fill="none" stroke="#b0b0b0" stroke-linecap="square" stroke-opacity=".3" stroke-width=".8"/>
     </g>
     <g id="fa">
      <use x="52" y="506.14209" stroke="#000000" stroke-width=".8" xlink:href="#h"/>
     </g>
     <g id="fb">
      <!-- 104800 -->
      <g transform="translate(10.8 510.13) scale(.1 -.1)">
       <use xlink:href="#f"/>
       <use transform="translate(57)" xlink:href="#a"/>
       <use transform="translate(114)" xlink:href="#n"/>
       <use transform="translate(171)" xlink:href="#l"/>
       <use transform="translate(228)" xlink:href="#a"/>
       <use transform="translate(285)" xlink:href="#a"/>
      </g>
     </g>
    </g>
    <g id="fc">
     <g id="fd">
      <path d="m52 479.5h801.2" clip-path="url(#c)" fill="none" stroke="#b0b0b0" stroke-linecap="square" stroke-opacity=".3" stroke-width=".8"/>
     </g>
     <g id="fe">
      <use x="52" y="479.50161" stroke="#000000" stroke-width=".8" xlink:href="#h"/>
     </g>
     <g id="ff">
      <!-- 105200 -->
      <g transform="translate(10.8 483.49) scale(.1 -.1)">
       <use xlink:href="#f"/>
       <use transform="translate(57)" xlink:href="#a"/>
       <use transform="translate(114)" xlink:href="#j"/>
       <use transform="translate(171)" xlink:href="#b"/>
       <use transform="translate(228)" xlink:href="#a"/>
       <use transform="translate(285)" xlink:href="#a"/>
      </g>
     </g>
    </g>
    <g id="fg">
     <g id="fh">
      <path d="m52 452.86h801.2" clip-path="url(#c)" fill="none" stroke="#b0b0b0" stroke-linecap="square" stroke-opacity=".3" stroke-width=".8"/>
     </g>
     <g id="fi">
      <use x="52" y="452.86113" stroke="#000000" stroke-width=".8" xlink:href="#h"/>
     </g>
     <g id="fj">
      <!-- 105600 -->
      <g transform="translate(10.8 456.85) scale(.1 -.1)">
       <use xlink:href="#f"/>
       <use transform="translate(57)" xlink:href="#a"/>
       <use transform="translate(114)" xlink:href="#j"/>
       <use transform="translate(171)" xlink:href="#k"/>
       <use transform="translate(228)" xlink:href="#a"/>
       <use transform="translate(285)" xlink:href="#a"/>
      </g>
     </g>
    </g>
    <g id="fk">
     <g id="fl">
      <path d="m52 426.22h801.2" clip-path="url(#c)" fill="none" stroke="#b0b0b0" stroke-linecap="square" stroke-opacity=".3" stroke-width=".8"/>
     </g>
     <g id="fm">
      <use x="52" y="426.220651" stroke="#000000" stroke-width=".8" xlink:href="#h"/>
     </g>
     <g id="fn">
      <!-- 106000 -->
      <g transform="translate(10.8 430.21) scale(.1 -.1)">
       <use xlink:href="#f"/>
       <use transform="translate(57)" xlink:href="#a"/>
       <use transform="translate(114)" xlink:href="#k"/>
       <use transform="translate(171)" xlink:href="#a"/>
       <use transform="translate(228)" xlink:href="#a"/>
       <use transform="translate(285)" xlink:href="#a"/>
      </g>
     </g>
    </g>
    <g id="fo">
     <g id="fp">
      <path d="m52 399.58h801.2" clip-path="url(#c)" fill="none" stroke="#b0b0b0" stroke-linecap="square" stroke-opacity=".3" stroke-width=".8"/>
     </g>
     <g id="fq">
      <use x="52" y="399.580171" stroke="#000000" stroke-width=".8" xlink:href="#h"/>
     </g>
     <g id="fr">
      <!-- 106400 -->
      <g transform="translate(10.8 403.57) scale(.1 -.1)">
       <use xlink:href="#f"/>
       <use transform="translate(57)" xlink:href="#a"/>
       <use transform="translate(114)" xlink:href="#k"/>
       <use transform="translate(171)" xlink:href="#n"/>
       <use transform="translate(228)" xlink:href="#a"/>
       <use transform="translate(285)" xlink:href="#a"/>
      </g>
     </g>
    </g>
    <g id="fs">
     <g id="ft">
      <path d="m52 372.94h801.2" clip-path="url(#c)" fill="none" stroke="#b0b0b0" stroke-linecap="square" stroke-opacity=".3" stroke-width=".8"/>
     </g>
     <g id="fu">
      <use x="52" y="372.939692" stroke="#000000" stroke-width=".8" xlink:href="#h"/>
     </g>
     <g id="fv">
      <!-- 106800 -->
      <g transform="translate(10.8 376.92) scale(.1 -.1)">
       <use xlink:href="#f"/>
       <use transform="translate(57)" xlink:href="#a"/>
       <use transform="translate(114)" xlink:href="#k"/>
       <use transform="translate(171)" xlink:href="#l"/>
       <use transform="translate(228)" xlink:href="#a"/>
       <use transform="translate(285)" xlink:href="#a"/>
      </g>
     </g>
    </g>
    <g id="fw">
     <g id="fx">
      <path d="m52 346.3h801.2" clip-path="url(#c)" fill="none" stroke="#b0b0b0" stroke-linecap="square" stroke-opacity=".3" stroke-width=".8"/>
     </g>
     <g id="fy">
      <use x="52" y="346.299212" stroke="#000000" stroke-width=".8" xlink:href="#h"/>
     </g>
     <g id="fz">
      <!-- 107200 -->
      <g transform="translate(10.8 350.28) scale(.1 -.1)">
       <use xlink:href="#f"/>
       <use transform="translate(57)" xlink:href="#a"/>
       <use transform="translate(114)" xlink:href="#i"/>
       <use transform="translate(171)" xlink:href="#b"/>
       <use transform="translate(228)" xlink:href="#a"/>
       <use transform="translate(285)" xlink:href="#a"/>
      </g>
     </g>
    </g>
    <g id="ga">
     <g id="gb">
      <path d="m52 319.66h801.2" clip-path="url(#c)" fill="none" stroke="#b0b0b0" stroke-linecap="square" stroke-opacity=".3" stroke-width=".8"/>
     </g>
     <g id="gc">
      <use x="52" y="319.658733" stroke="#000000" stroke-width=".8" xlink:href="#h"/>
     </g>
     <g id="gd">
      <!-- 107600 -->
      <g transform="translate(10.8 323.64) scale(.1 -.1)">
       <use xlink:href="#f"/>
       <use transform="translate(57)" xlink:href="#a"/>
       <use transform="translate(114)" xlink:href="#i"/>
       <use transform="translate(171)" xlink:href="#k"/>
       <use transform="translate(228)" xlink:href="#a"/>
       <use transform="translate(285)" xlink:href="#a"/>
      </g>
     </g>
    </g>
    <g id="ge">
     <g id="gf">
      <path d="m52 293.02h801.2" clip-path="url(#c)" fill="none" stroke="#b0b0b0" stroke-linecap="square" stroke-opacity=".3" stroke-width=".8"/>
     </g>
     <g id="gg">
      <use x="52" y="293.018253" stroke="#000000" stroke-width=".8" xlink:href="#h"/>
     </g>
     <g id="gh">
      <!-- 108000 -->
      <g transform="translate(10.8 297) scale(.1 -.1)">
       <use xlink:href="#f"/>
       <use transform="translate(57)" xlink:href="#a"/>
       <use transform="translate(114)" xlink:href="#l"/>
       <use transform="translate(171)" xlink:href="#a"/>
       <use transform="translate(228)" xlink:href="#a"/>
       <use transform="translate(285)" xlink:href="#a"/>
      </g>
     </g>
    </g>
   </g>
   <g id="gi">
    <path d="m88.418 512.47h.14621l.81323-.2664 1.2255-.46621.42364-.2664 1.2015-.1998.81732.1332.40866-.1998.40866-.33301h.40866l.81732-.86582.81732-.1332.81732-.59941 1.226.1332.40866-.066601.40866-.2664.40866-.39961.40866-.66601.81732-.59941h.40866l.81732-.59941.40866-.39961 1.226-2.3976 1.226-.93242.40866-.1998.40866.066601.40866-.33301h1.226l.40866-.2664h.40866l.81732-.53281 2.0433-.39961.40866.1332.40866-.066601.40866.066601 2.0433-.2664 1.6346-.066601 1.226-.1332 5.3126-.066601.81732-.066601h.40866l.40866-.1332h.81732l.40866-.2664 1.226-.33301.81732-.1998.81732-.2664h.40866l.81732-.39961 1.226-.2664 2.0433-.73261.81732-.33301.81732-.1998m.81732-.39961.40866-.2664.40866-.59941.40866-.33301 1.226-.2664.81732-.2664.81732-.53281.40866-.86582.40866-.2664.81732-1.3986h.40866l.81732-.93242.40866-.1998.40866-.46621 1.6346-1.0656.40866.066601 1.226-.79921.40866-.1332.81732-.066602 1.226-.1998.40866.1332h.40866l.81732-.46621.81732-.1332.40866.066602.40866-.1332.40866.066601 2.0433-.2664.81732.066601.81732-.066601.81732.066601h2.452l.81732-.1998.81732.1998.40866.066601 1.226-.33301h.40866l.40866-.1332h.40866l.40866-.2664.81732-.1998.40866-.33301 1.6346.066601.40866.066602.40866-.066602.40866-.1998 1.226-.1332.40866.1332 1.226-.1332h.40866l1.226-.73261.40866-.066601.40866-.2664.40866.066601.81732-.1332.40866.066601.40866-.2664.40866-.1332h.81732l.40866-.46621.81732-.46621.40866-.46621 1.226-.46621.81732-.46621.40866-.66601.40866-.066601.40866-.2664.40866-.73261 1.226-1.1322.40866-.1332.40866.1998.40866-.1332.40866-.33301 1.6346-.46621.40866-.066601.40866.066601.40866-.1998.81732.066602h2.0433l.40866-.1332.81732.1332 1.226-.1332 2.8606-.066601.40866.1998h.40866l1.7709-.46621.27244.066601h.13622l.27244-.1332h2.7244l.27244.1332.6811-.066601.27244-.066601h.27244l.13622-.1332.27244.1332.27244-.066601h.27244l.27244-.1332.54488.1332.27244-.066601 1.226-.066602.27244-.1998.13622-.1332.54488.2664.6811-.2664.27244.066602.54488-.1998.95354.066601.27244.1332.81732-.66601h.13622l.54488-.46621h1.4984l.27244-.1332.6811-.066601 1.3622-.59941h.40866l.40866-.1998.13622-.1998.13622.1332.13622-.066601.13622.1332.27244-.2664.27244-.1332.27244-.066601.40866-.1998.13622.066601.81732-.73261.27244-.066601.27244-.1332.27244-.66601.95354-.93242.13622.1332.27244-.1332.13622-.1998h.13622l.13622.1332.27244-.066601.27244-.46621h.27244l.13622-.39961.13622.066601.6811-.2664h.13622l.27244-.33301.27244-.1998.54488-.066601.27244-.1998.40866-.066601.27244-.066601h.40866l.40866-.2664.54488-.1998.95354-.066601.27244-.066601 1.7709-.066601.27244-.066602 2.9968-.066601.27244-.066601 2.1795-.066601.6811-.2664 3.2693-.066601 1.0898-.2664.27244-.1998 1.9071.066602.27244.1332 1.0898-.1998 1.3622-.066601.54488-.33301.81732-.066601.54488-.2664h.27244l.54488-.1998h.27244l.81732-.66601.27244-.1332.81732-.066601.27244-.2664 1.6346-.39961.27244.066601.27244-.1332.54488-.066601.81732-.1998.27244.066601 1.0898-.73261.27244-.066601.54488-.66601.27244-.1998h.27244l1.0898-.66601 1.3622-.33301 1.0898-1.1322.27244-.39961h.27244l.81732-.79922h.27244l1.0898-.79921.27244.066601 1.3622-1.332h.27244l.27244-.39961 1.0898-.1998h1.9071l.27244-.1332h.27244l.27244-.1332 1.0898-.1332.81732-.066601 2.1795-.46621 2.7244.066601.54488.066601.81732-.066601.27244-.1998.81732.1332.27244-.066602.54488.066602h1.3622l.81732-.33301h1.0898l.54488-.2664h.81732l.27244-.1332.81732-.066601.27244-.066601.27244.066601.27244-.1332.27244.066601.81732-.1998.27244-.1998.27244.066601.81732-.93242.54488.1998.27244-.1998h.54488l.54488-.2664.81732-.066601.54488-.59941h.27244l.54488-.1998.27244.066601.27244-.2664.27244-.066601.27244.066601.27244-.066601.27244.1332.27244-.1332.27244.066601.27244-.066601.81732-.59941h.27244l.27244-.1332.81732-1.1988.81732-.46621.27244-.53281.27244-.066601.81732-.79921.27244.066601.81732-.53281.54488-1.0656.54488-.066601.54488-.59941 1.0898-.33301.81732-.46621 1.0898-.33301.54488-.59941.54488-.066601 1.0898-.1998.27244-.33301 1.9071-.066601.54488-.1998.81732-.066601.81732-.1998.27244.066601.54488-.066601.81732.066601.54488.066601.54488-.2664 1.0898.066601.27244.1998h2.452l.54488-.33301h.27244l.54488-.1998 1.0898.066602.54488.066601.27244-.1332h.27244l.27244-.2664h.27244l.54488-.2664.54488-.066601.54488-.33301.54488-.066602.81732-.73261h.27244l.27244-.1332h.54488l.54488.1998h.27244l.54488-.1998.27244-.33301 1.3622-.39961.27244-.1332.81732-.066601.27244-.1332.81732.1332.81732-.066601.54488-.1998.54488-.1332 1.6346-1.0656.27244.066601.27244-.1998h.54488l.27244-.33301.54488-.2664.54488-.53281.81732.066601.54488-.39961.27244.066601.54488-.39961.27244-.39961.27244.1332.27244-.2664.27244-.066601.27244.1998.27244-.2664.54488.1332 1.0898-.66601.54488.066602.27244-.1998h.27244l.27244.1332.27244-.066601.27244-.33301.27244.066601.81732-.1998.27244.066601.27244-.066601.54488.066601 1.9071.066601.27244.1998 1.9071-.066601.54488-.066602 1.3622.066602.27244.1332.27244-.1332h1.0898l.27244-.1332.81732.066601.54488.066602 2.452-.066602.54488-.066601 1.0898.066601.54488-.2664.81732-.1332.27244.1332.54488-.2664 1.0898.1332.54488-.2664h.54488l.54488-.1998 2.9968-.066601.54488-.1998.54488-.2664 1.3622-.066601.54488-.2664.81732-.59941h.27244l.27244-.1332.54488.066601 1.0898-.79921.27244.1332.27244-.1332.27244-.39961.81732-.46621.27244-.1998h.27244l.54488-.79922.81732-.59941.27244-.39961h.27244l.54488-.59941.27244.1332.54488-.066601.27244-.39961.27244.066601.54488-.39961 1.3622-.86582 1.0898-.46621 1.0898-.066602.81732-.33301 1.6346.066602.54488.066601 1.9071.066601.54488.066601 1.0898-.1332.27244-.066601.27244.066601.54488-.066601h2.7244l.27244-.1332.81732-.066601.54488-.066601 1.0898-.066601.27244-.066602.81732.2664.54488-.1998 1.3622-.066602.81732-.1332.54488-.066601.27244-.1332 1.6346.066602.81732-.39961h.27244l.54488-.33301h.27244l.27244-.1332.54488-.39961.27244.066601.81732-.1998.54488.1332.54488-.066601.27244.066601 1.6346-.79922.54488-.066601.81732-.1998.54488-.2664h.27244l.27244-.39961.27244-.1332.27244.066601.27244-.2664.27244-.066602.81732-1.5318.27244-.2664h.27244l.27244-.1332.54488-.46621.27244-.1332.27244-.46621 2.1795-1.7316.27244-.2664.27244-.46621 1.0898-.33301.27244.1332.27244-.066602.81732-.53281h.27244l.27244-.1332.27244.066602 1.9071-.39961.81732-.066601.54488-.1332.54488.066601 1.6346-.066601.27244-.066601.27244.066601.54488-.066601.54488.066601 1.6346-.066601.27244-.066602.54488.066602 1.0898-.066602 1.6346-.33301m.54488.1998.27244-.1332h.27244l.27244-.1332h2.9968l.54488-.2664.81732-.066601.27244-.066601.27244.066601.54488-.33301.27244.066601.54488-.066601.27244.066601.27244-.1332.54488.1332.27244-.1332.81732-.066601.54488-.2664.54488.2664.54488-.33301.81732-.2664.81732-.33301.27244-.33301.27244-.1332h.27244l.27244-.1998h.54488l.54488-.46621.54488.2664.27244-.2664.27244-.46621.54488-.2664h.27244l1.0898-.59941.54488-.46621.54488-.1332.27244-.46621.27244-.1998.27244-.59941.81732-.66601h.27244l.54488-.53281.81732-.2664.27244-.1332.54488-.39961.27244-.066601.27244-.2664.54488.066601.27244-.1998.54488.1332.27244-.2664h.54488l.27244-.1998.81732-.066601 1.0898-.1332.27244-.066601.27244.066601 1.0898-.53281 1.3622-.066602.27244-.066601.81732.1332 1.3622-.066602.27244-.066601.54488.1332.81732-.1332.27244.066601.27244-.066601.81732.1332h.54488l.27244-.2664 2.1795-.066601.81732-.1332.81732.1332 1.0898-.066602.27244-.1998.81732-.066601.81732-.33301 1.0898-.1998.54488-.066601 1.3622-.2664.81732-.066601.27244-.1332h.27244l.27244-.2664h.27244l.54488-.66601.54488-.33301.54488-.2664.81732-.1998.27244-.33301.27244-.1332h.27244l.81732-.33301h.27244l.27244-.2664.54488-.066601.54488-.66601.54488-.33301.54488-.39961 3.2693-2.2644.54488-.99902.54488-.39961.54488-.066601.27244-.46621h.27244l.54488-.2664.27244-.2664h.27244l.54488-.2664.27244-.39961.27244-.066602.54488-.33301.54488.066602.27244-.33301.54488-.1998 1.3622-.066601.27244.2664.54488.066601h.27244l.54488-.2664.54488-.066601 1.6346-.066601.54488-.066602.27244-.2664.81732-.066602.54488-.066601 5.4488-.066601.54488-.1332.27244.066601 1.6346-.46621.27244-.1332h.27244l.27244-.1332h.27244l.27244-.1332.81732.1332.54488-.066602h.54488l.54488-.1998.27244-.33301 1.0898-.46621h.54488l.54488-.2664.27244.066601.54488-.1998.27244.1332.27244-.1332.54488-.066601.54488-.39961.54488-.2664h.27244l.54488-.1998.27244.1332.54488-.1998.27244-.33301 1.3622-.59941.27244.066602.81732-.33301.27244.066601.27244-.1998h.27244l3.8142-2.8639.54488-.93242.54488-.73261.54488-.066601 1.3622-1.1988.27244-.1332.27244-.2664.27244-.066601 1.3622-.86582.27244-.066601.54488-.33301 1.6346-.33301.27244.066601.54488-.066601.81732.1332 1.3622-.066601.54488-.066601 1.3622-.066601.54488-.066602.54488.066602.81732.066601.81732.1332.27244-.1332.54488.066601 1.0898.1998.27244-.1332.27244.1332.54488-.066602.27244-.2664 1.0898-.2664.54488.1332 1.0898-.39961h.27244l.27244-.1332.54488-.066602 1.6346-.33301.27244.066602.27244-.1332h.27244l.81732-.66601h.27244l1.3622-.59941 1.3622-.33301.27244-.33301.54488.066602.81732-.66601.27244-.1998.27244.066601.27244-.066601.27244-.2664.54488.46621.54488.1998 1.3622-.33301.27244-.33301.27244-.066601.54488-.46621h.27244l.54488-.2664.27244.066601.27244-.33301.27244-.1332.54488-.53281.27244-.46621.54488-.46621.27244-.46621.27244-.1332.54488-.66601h.27244l.54488-.59941.27244.066601.54488-.39961.27244-.66601.27244-.066601.27244-.46621.27244-.066601.27244-.2664.27244-.53281.54488-.33301.54488-.066602.54488-.59941.54488-.066602.54488-.39961.27244-.39961.27244-.066601 1.6346-1.1322.81732.066602.54488.1998.54488-.2664.81732.1332 1.6346-.066601 1.0898-.1998 1.9071-.066601.81732-.1332 1.9071-.066601 1.0898-.1998h.81732l.54488-.2664.27244.066601.27244-.066601.27244.066601.27244-.066601.54488.066601.54488-.066601.54488.066601.81732-.39961.54488-.066601.27244-.1998h.27244l.54488-.33301.54488-.1998.27244-.1332.54488.066601 1.3622-.33301.27244-.2664.54488-.1332.27244.066601.27244.2664.27244.066601.27244-.1332.27244.066601.81732-.59941.27244.1332.27244-.066601.54488-.39961.54488.066602h.27244l.27244-.2664.27244.066601.81732-.46621h.27244l.54488-.1998.27244.066601.27244-.066601.27244.066601 1.0898-.93242.81732-.73261.27244-.2664.27244-.066601.27244-.53281.27244.066601.27244-.39961.27244-.066602.27244-.39961.54488-.2664.54488-.59941h.27244l.27244-.46621.27244-.066601.54488-.53281.27244.1332 1.0898-.46621.54488.1998.54488-.1998 1.6346-.33301 1.0898-.066601 1.3622-.2664 1.0898-.1332 1.3622-.066601 1.6346-.33301h1.9071l.27244.1332h.54488l.54488.1332.27244-.1332h.54488l.27244-.1332.27244.066601 1.0898-.2664.54488.066601h.27244l.27244-.1998 2.452-.066601.81732-.39961 1.3622-.066601.54488-.1998.27244.1332.54488-.2664h.54488l.27244-.1332.81732.066601.54488.1998.54488-.066602.27244-.1332.54488.066601.27244-.1332.27244.066601 1.0898-.33301.54488-.39961.27244.1998.81732-.46621h.54488l.27244-.1998h.27244l.27244-.39961.27244.1998h.27244l.27244-.66601.81732-.46621 1.0898-.93242.27244-.53281.27244.1332.27244-.1332h.27244l1.0898-1.1322.27244.066601.54488-.46621.27244-.46621.27244.1332.81732-.46621.27244-.066601.27244-.33301.54488.066601.27244-.1332.27244-.2664.27244-.066601.27244-.33301.27244-.1332.27244.066602 1.9071-.86582 1.3622-.066601.81732-.1332h.81732l.27244-.1332 1.6346-.066601 1.0898-.2664.54488.066601h.27244l.27244-.1332 1.0898.066601.81732.1332 1.0898-.1998 1.0898-.1332 1.3622-.066601 1.0898-.1998.81732.066601 1.0898.1998h.27244l1.3622-.93242h2.452l.27244-.1332.27244.066601.54488-.1332.27244.066601.54488-.1998 1.0898-.1998.27244-.33301.54488-.1998.27244.066601.27244.1998h.27244l1.3622-.86582.27244.1332.81732-.46621.27244-.1998h.27244l1.0898-1.0656.54488-.1332.81732-.93242.27244-.33301.81732-.46621.54488-.66601.27244-.1332.27244-.53281.54488-.2664.54488-.1998.27244.1332.27244-.2664.54488-.1998.27244-.1998.27244.1332.27244-.2664h.27244l.27244-.1332.81732-.86582 1.3622.066601.27244-.1998 1.0898-.066602.81732-.1332.81732.1332 2.1795-.066601.81732-.1332h3.5417l.27244-.2664 1.3622-.066601 1.3622-.2664 1.9071-.066601.54488-.1998.27244.066601 1.0898-.1332 1.3622-.39961.27244-.1332.27244-.33301.54488-.1998.81732-.39961.27244.066601.27244-.1998.27244.1332h.27244l.27244-.1998h.54488l.54488-.33301.27244.066601.27244-.1332.27244.1332 1.0898-.46621.27244.066601 1.9071-.53281.27244.1332.54488-.1332.54488-.2664h.81732l1.3622-.59941.27244-.066601.27244-.39961 1.6346-1.1988.27244.066601.27244-.066601 1.3622-1.0656.27244-.53281 1.0898-.46621.27244-.39961.27244-.1332.27244-.53281 1.3622-.99902h.27244l.27244.1998.54488-.1998.27244-.1998h.27244l.27244.1332 1.0898-.33301.81732-.39961.27244.066601 1.0898-.1998 1.9071-.066601.54488-.066602 3.2693.066602.27244.1332 1.0898-.1332 2.7244.066601 1.6346.1998.81732-.2664.54488-.1998 1.0898-.1998.54488.1332.27244-.066601.27244.1332.27244-.066601.27244-.1998.27244.1998h.81732l.27244-.1998.27244.066601.54488-.33301.27244.1332.27244-.2664.27244.1998 1.3622-.066602m1.0898 0 .81732-.1332.54488-.33301.27244-.33301.54488-.066601h.27244l.54488-.39961.54488.1332.54488-.33301.27244.1332.27244-.33301.27244.1998.27244-.066601.81732-.99902.27244-.066601.27244-.2664.27244.066601.27244-.1332.27244-.59941 1.3622-1.4652.27244-.39961.27244-.066601.81732-.66601.27244-.1998.27244-.39961h.27244l.27244-.59941.54488-.59941h.54488l.27244-.1332.27244-.2664.27244.066601.27244-.066601.54488-.33301h.27244l1.0898-.66601.81732-.33301.27244.066601 1.3622-.2664.54488-.066601 1.0898-.1998.54488.1332 1.0898-.1998.27244.1332 2.452.066602.27244.1332 1.3622-.066601.81732-.1332.54488.1332.54488-.066601.27244.066601.81732-.2664.27244-.1332.54488-.066602.27244-.1998.54488-.066601.27244-.066602.54488.066602h.81732l.54488-.2664 1.0898-.066601.81732-.33301h.27244l.54488-.2664 1.3622-.39961.54488.1998.54488-.1998.54488.2664.81732-.333.54488-.1332.27244-.1998 1.0898.066601.81732-.53281h.27244l.54488-.53281h.54488l.27244-.2664h.27244l.27244-.1998.27244.1332.27244-.1998.27244-.39961.54488-.1998.54488-.53281 1.9071-1.7982.27244-.066601.27244-.86582.54488-.73261.27244-.53281 1.0898-.53281 1.0898-.99902.81732-.33301.27244.066601.81732-.33301.27244-.53281 1.0898-.53281.27244-.46621.54488-.2664h.27244l.27244-.1332.27244.1332.27244-.1332.54488.066601v0" clip-path="url(#c)" fill="none" stroke="#28f" stroke-linecap="square" stroke-width="1.5"/>
   </g>
   <g id="gj">
    <path d="m52 523.06v-232.9" fill="none" stroke="#000" stroke-linecap="square" stroke-width=".8"/>
   </g>
   <g id="gk">
    <path d="m853.2 523.06v-232.9" fill="none" stroke="#000" stroke-linecap="square" stroke-width=".8"/>
   </g>
   <g id="gl">
    <path d="m52 523.06h801.2" fill="none" stroke="#000" stroke-linecap="square" stroke-width=".8"/>
   </g>
   <g id="gm">
    <path d="m52 290.16h801.2" fill="none" stroke="#000" stroke-linecap="square" stroke-width=".8"/>
   </g>
   <g id="gn">
    <!-- サーバー数の推移 -->
    <g transform="translate(404.6 284.16) scale(.12 -.12)">
     <defs>
      <path id="z" transform="scale(.015625)" d="m4685 2893q0-621-84-1111-83-489-288-877-204-387-569-691t-928-560l-544 512q448 167 781 371 333 205 550 503 218 298 323 739 106 442 106 1075v1620q0 192-10 339-9 147-22 217h723q-6-70-22-217t-16-339v-1581zm-2304 2086q-7-64-23-199-16-134-16-313v-2317q0-128 6-256 7-128 13-224 7-96 13-140h-710q6 44 12 140 7 96 13 221 7 125 7 259v2317q0 122-10 256-9 135-28 256h723zm-1978-1197q45-12 144-22t237-20q138-9 285-9h4217q237 0 394 13t246 26v-679q-76 7-240 13-163 6-393 6h-4224q-147 0-282-3-134-3-234-10-99-6-150-12v697z"/>
      <path id="s" transform="scale(.015625)" d="m621 2854q109-6 265-16 157-9 339-16 183-6 349-6 128 0 352 0t509 0 598 0q314 0 624 0 311 0 586 0t486 0q212 0 327 0 230 0 416 16t301 22v-793q-109 6-308 19-198 13-409 13-109 0-324 0-214 0-489 0t-586 0q-310 0-624 0-313 0-598 0t-509 0-352 0q-262 0-525-10-262-9-428-22v793z"/>
      <path id="y" transform="scale(.015625)" d="m4941 5037q83-109 176-269t182-320q90-160 154-288l-416-179q-96 192-240 448t-272 435l416 173zm723 275q83-122 182-282 100-160 196-317 96-156 153-271l-416-186q-102 205-246 454-144 250-279 429l410 173zm-4339-3360q102 262 201 556 100 295 183 612t144 630q61 314 93 602l723-147q-19-83-45-183-26-99-48-195t-42-166q-32-154-86-394t-131-512-164-551q-86-278-182-514-115-301-269-618-153-317-326-618-173-300-346-550l-697 294q301 397 563 874t429 880zm3155 198q-96 250-215 531-118 282-243 567-124 285-246 534-122 250-224 429l659 218q96-179 221-429t253-535q128-284 249-566 122-281 218-525 90-230 195-518 106-288 211-592 106-304 195-589 90-285 154-515l-729-237q-84 352-199 736t-240 768-259 723z"/>
     </defs>
     <use xlink:href="#z"/>
     <use transform="translate(100)" xlink:href="#s"/>
     <use transform="translate(200)" xlink:href="#y"/>
     <use transform="translate(300)" xlink:href="#s"/>
     <use transform="translate(400)" xlink:href="#q"/>
     <use transform="translate(500)" xlink:href="#t"/>
     <use transform="translate(600)" xlink:href="#r"/>
     <use transform="translate(700)" xlink:href="#p"/>
    </g>
   </g>
  </g>
 </g>
 <defs>
  <clipPath id="d">
   <rect x="52" y="26.88" width="801.2" height="232.9"/>
  </clipPath>
  <clipPath id="c">
   <rect x="52" y="290.16" width="801.2" height="232.9"/>
  </clipPath>
 </defs>
</svg>
