<!DOCTYPE svg  PUBLIC '-//W3C//DTD SVG 1.1//EN'  'http://www.w3.org/Graphics/SVG/1.1/DTD/svg11.dtd'>
<svg version="1.1" viewBox="0 0 864 576" xmlns="http://www.w3.org/2000/svg" xmlns:xlink="http://www.w3.org/1999/xlink">
 <defs>
  <style type="text/css">*{stroke-linejoin: round; stroke-linecap: butt}</style>
 </defs>
 <g id="aa">
  <g id="ab">
   <path d="m0 576h864v-576h-864z" fill="#fff"/>
  </g>
  <g id="ac">
   <g id="ad">
    <path d="m52 259.78h801.2v-232.9h-801.2z" fill="#fff"/>
   </g>
   <g id="ae">
    <path d="m135.35 259.78h.84318v-232.9h-.84318z" clip-path="url(#c)" fill="#808080" opacity=".3" stroke="#808080"/>
   </g>
   <g id="af">
    <path d="m445.78 259.78h.56212v-232.9h-.56212z" clip-path="url(#c)" fill="#808080" opacity=".3" stroke="#808080"/>
   </g>
   <g id="ag">
    <path d="m780.24 259.78h1.1242v-232.9h-1.1242z" clip-path="url(#c)" fill="#808080" opacity=".3" stroke="#808080"/>
   </g>
   <g id="ah">
    <g id="ai">
     <g id="aj">
      <path d="m105.42 259.78v-232.9" clip-path="url(#c)" fill="none" stroke="#b0b0b0" stroke-linecap="square" stroke-opacity=".3" stroke-width=".8"/>
     </g>
     <g id="ak">
      <defs>
       <path id="e" d="m0 0v3.5" stroke="#000" stroke-width=".8"/>
      </defs>
      <use x="105.418116" y="259.777732" stroke="#000000" stroke-width=".8" xlink:href="#e"/>
     </g>
    </g>
    <g id="al">
     <g id="am">
      <path d="m186.36 259.78v-232.9" clip-path="url(#c)" fill="none" stroke="#b0b0b0" stroke-linecap="square" stroke-opacity=".3" stroke-width=".8"/>
     </g>
     <g id="an">
      <use x="186.363492" y="259.777732" stroke="#000000" stroke-width=".8" xlink:href="#e"/>
     </g>
    </g>
    <g id="ao">
     <g id="ap">
      <path d="m267.31 259.78v-232.9" clip-path="url(#c)" fill="none" stroke="#b0b0b0" stroke-linecap="square" stroke-opacity=".3" stroke-width=".8"/>
     </g>
     <g id="aq">
      <use x="267.308868" y="259.777732" stroke="#000000" stroke-width=".8" xlink:href="#e"/>
     </g>
    </g>
    <g id="ar">
     <g id="as">
      <path d="m348.25 259.78v-232.9" clip-path="url(#c)" fill="none" stroke="#b0b0b0" stroke-linecap="square" stroke-opacity=".3" stroke-width=".8"/>
     </g>
     <g id="at">
      <use x="348.254244" y="259.777732" stroke="#000000" stroke-width=".8" xlink:href="#e"/>
     </g>
    </g>
    <g id="au">
     <g id="av">
      <path d="m429.2 259.78v-232.9" clip-path="url(#c)" fill="none" stroke="#b0b0b0" stroke-linecap="square" stroke-opacity=".3" stroke-width=".8"/>
     </g>
     <g id="aw">
      <use x="429.199619" y="259.777732" stroke="#000000" stroke-width=".8" xlink:href="#e"/>
     </g>
    </g>
    <g id="ax">
     <g id="ay">
      <path d="m510.14 259.78v-232.9" clip-path="url(#c)" fill="none" stroke="#b0b0b0" stroke-linecap="square" stroke-opacity=".3" stroke-width=".8"/>
     </g>
     <g id="az">
      <use x="510.144995" y="259.777732" stroke="#000000" stroke-width=".8" xlink:href="#e"/>
     </g>
    </g>
    <g id="ba">
     <g id="bb">
      <path d="m591.09 259.78v-232.9" clip-path="url(#c)" fill="none" stroke="#b0b0b0" stroke-linecap="square" stroke-opacity=".3" stroke-width=".8"/>
     </g>
     <g id="bc">
      <use x="591.090371" y="259.777732" stroke="#000000" stroke-width=".8" xlink:href="#e"/>
     </g>
    </g>
    <g id="bd">
     <g id="be">
      <path d="m672.04 259.78v-232.9" clip-path="url(#c)" fill="none" stroke="#b0b0b0" stroke-linecap="square" stroke-opacity=".3" stroke-width=".8"/>
     </g>
     <g id="bf">
      <use x="672.035747" y="259.777732" stroke="#000000" stroke-width=".8" xlink:href="#e"/>
     </g>
    </g>
    <g id="bg">
     <g id="bh">
      <path d="m752.98 259.78v-232.9" clip-path="url(#c)" fill="none" stroke="#b0b0b0" stroke-linecap="square" stroke-opacity=".3" stroke-width=".8"/>
     </g>
     <g id="bi">
      <use x="752.981123" y="259.777732" stroke="#000000" stroke-width=".8" xlink:href="#e"/>
     </g>
    </g>
    <g id="bj">
     <g id="bk">
      <path d="m833.93 259.78v-232.9" clip-path="url(#c)" fill="none" stroke="#b0b0b0" stroke-linecap="square" stroke-opacity=".3" stroke-width=".8"/>
     </g>
     <g id="bl">
      <use x="833.926498" y="259.777732" stroke="#000000" stroke-width=".8" xlink:href="#e"/>
     </g>
    </g>
   </g>
   <g id="bm">
    <g id="bn">
     <g id="bo">
      <path d="m52 246.93h801.2" clip-path="url(#c)" fill="none" stroke="#b0b0b0" stroke-linecap="square" stroke-opacity=".3" stroke-width=".8"/>
     </g>
     <g id="bp">
      <defs>
       <path id="h" d="m0 0h-3.5" stroke="#000" stroke-width=".8"/>
      </defs>
      <use x="52" y="246.926099" stroke="#000000" stroke-width=".8" xlink:href="#h"/>
     </g>
     <g id="bq">
      <!-- 300 -->
      <g transform="translate(27.9 250.91) scale(.1 -.1)">
       <defs>
        <path id="o" transform="scale(.015625)" d="m1715-90q-371 0-656 90t-503 240q-217 150-377 323l359 474q211-205 479-359 269-153 634-153 269 0 467 92 199 93 311 266t112 423q0 256-125 451t-429 300q-304 106-835 106v551q467 0 732 105 266 106 384 291 119 186 119 423 0 307-192 489-192 183-531 183-269 0-503-119-233-118-438-316l-384 460q282 256 614 413 333 157 737 157 422 0 748-144 327-144 512-413 186-269 186-659 0-403-221-685-221-281-592-422v-26q269-70 490-227t349-400 128-557q0-422-215-726-214-304-573-468-358-163-787-163z"/>
        <path id="a" transform="scale(.015625)" d="m1830-90q-460 0-806 275-346 276-535 823-188 547-188 1366 0 820 188 1357 189 538 535 803 346 266 806 266 461 0 800-269 340-269 528-803 189-534 189-1354 0-819-189-1366-188-547-528-823-339-275-800-275zm0 589q237 0 422 185 186 186 288 599 103 413 103 1091 0 679-103 1082-102 403-288 582-185 180-422 180-236 0-422-180-186-179-292-582-105-403-105-1082 0-678 105-1091 106-413 292-599 186-185 422-185z"/>
       </defs>
       <use xlink:href="#o"/>
       <use transform="translate(57)" xlink:href="#a"/>
       <use transform="translate(114)" xlink:href="#a"/>
      </g>
     </g>
    </g>
    <g id="br">
     <g id="bs">
      <path d="m52 220.79h801.2" clip-path="url(#c)" fill="none" stroke="#b0b0b0" stroke-linecap="square" stroke-opacity=".3" stroke-width=".8"/>
     </g>
     <g id="bt">
      <use x="52" y="220.787184" stroke="#000000" stroke-width=".8" xlink:href="#h"/>
     </g>
     <g id="bu">
      <!-- 600 -->
      <g transform="translate(27.9 224.77) scale(.1 -.1)">
       <defs>
        <path id="k" transform="scale(.015625)" d="m1971-90q-339 0-634 144-294 144-518 435-224 292-352 733-128 442-128 1044 0 678 147 1161 148 483 397 784 250 301 570 445t665 144q397 0 688-147 292-147 490-359l-403-448q-128 154-327 253-198 99-409 99-307 0-567-182-259-182-413-605-153-422-153-1145 0-608 115-1002t326-589q212-195 493-195 212 0 375 121 163 122 259 343t96 522q0 300-90 511-89 212-259 320-169 109-419 109-211 0-451-134t-458-461l-25 538q134 192 313 323t374 201q196 71 375 71 397 0 694-163 298-163 467-490 170-326 170-825 0-468-195-817-195-348-512-544-317-195-701-195z"/>
       </defs>
       <use xlink:href="#k"/>
       <use transform="translate(57)" xlink:href="#a"/>
       <use transform="translate(114)" xlink:href="#a"/>
      </g>
     </g>
    </g>
    <g id="bv">
     <g id="bw">
      <path d="m52 194.65h801.2" clip-path="url(#c)" fill="none" stroke="#b0b0b0" stroke-linecap="square" stroke-opacity=".3" stroke-width=".8"/>
     </g>
     <g id="bx">
      <use x="52" y="194.648269" stroke="#000000" stroke-width=".8" xlink:href="#h"/>
     </g>
     <g id="by">
      <!-- 900 -->
      <g transform="translate(27.9 198.63) scale(.1 -.1)">
       <defs>
        <path id="l" transform="scale(.015625)" d="m1562-90q-410 0-708 150-297 151-502 356l403 461q141-160 346-256t422-96q224 0 425 102 202 103 352 333 151 230 237 614 87 384 87 941 0 589-115 970t-323 563-496 182q-205 0-372-118-166-118-262-336t-96-525q0-301 86-512 87-211 259-323 173-112 417-112 224 0 460 141 237 141 448 461l32-544q-134-180-313-314t-371-208-384-74q-391 0-689 166-297 167-467 496-169 330-169 823 0 467 195 816t515 541 698 192q339 0 636-138 298-137 519-419 221-281 349-710t128-1018q0-691-141-1187t-391-807q-249-310-563-461-313-150-652-150z"/>
       </defs>
       <use xlink:href="#l"/>
       <use transform="translate(57)" xlink:href="#a"/>
       <use transform="translate(114)" xlink:href="#a"/>
      </g>
     </g>
    </g>
    <g id="bz">
     <g id="ca">
      <path d="m52 168.51h801.2" clip-path="url(#c)" fill="none" stroke="#b0b0b0" stroke-linecap="square" stroke-opacity=".3" stroke-width=".8"/>
     </g>
     <g id="cb">
      <use x="52" y="168.509354" stroke="#000000" stroke-width=".8" xlink:href="#h"/>
     </g>
     <g id="cc">
      <!-- 1200 -->
      <g transform="translate(22.2 172.49) scale(.1 -.1)">
       <defs>
        <path id="g" transform="scale(.015625)" d="m544 0v608h1037v3277h-845v467q333 58 579 147 247 90 451 218h557v-4109h915v-608h-2694z"/>
        <path id="b" transform="scale(.015625)" d="m282 0v429q697 621 1164 1136 468 515 701 956 234 442 234 826 0 256-87 451-86 196-262 301-176 106-445 106-275 0-506-151-230-150-422-368l-416 410q301 333 637 518 336 186 803 186 429 0 749-176t496-493 176-745q0-455-224-919t-615-935q-390-470-889-950 186 20 394 36t374 16h1184v-634h-3046z"/>
       </defs>
       <use xlink:href="#g"/>
       <use transform="translate(57)" xlink:href="#b"/>
       <use transform="translate(114)" xlink:href="#a"/>
       <use transform="translate(171)" xlink:href="#a"/>
      </g>
     </g>
    </g>
    <g id="cd">
     <g id="ce">
      <path d="m52 142.37h801.2" clip-path="url(#c)" fill="none" stroke="#b0b0b0" stroke-linecap="square" stroke-opacity=".3" stroke-width=".8"/>
     </g>
     <g id="cf">
      <use x="52" y="142.370439" stroke="#000000" stroke-width=".8" xlink:href="#h"/>
     </g>
     <g id="cg">
      <!-- 1500 -->
      <g transform="translate(22.2 146.36) scale(.1 -.1)">
       <defs>
        <path id="j" transform="scale(.015625)" d="m1715-90q-365 0-653 90t-506 237q-217 147-383 307l352 480q134-134 294-246t361-183q202-70 452-70 262 0 473 118 212 119 333 346 122 227 122 541 0 460-247 716-246 256-649 256-224 0-384-64t-365-198l-365 237 141 2240h2387v-627h-1747l-109-1204q154 77 307 118 154 42 340 42 397 0 723-160t518-490q192-329 192-847 0-519-224-887t-586-560q-361-192-777-192z"/>
       </defs>
       <use xlink:href="#g"/>
       <use transform="translate(57)" xlink:href="#j"/>
       <use transform="translate(114)" xlink:href="#a"/>
       <use transform="translate(171)" xlink:href="#a"/>
      </g>
     </g>
    </g>
    <g id="ch">
     <g id="ci">
      <path d="m52 116.23h801.2" clip-path="url(#c)" fill="none" stroke="#b0b0b0" stroke-linecap="square" stroke-opacity=".3" stroke-width=".8"/>
     </g>
     <g id="cj">
      <use x="52" y="116.231524" stroke="#000000" stroke-width=".8" xlink:href="#h"/>
     </g>
     <g id="ck">
      <!-- 1800 -->
      <g transform="translate(22.2 120.22) scale(.1 -.1)">
       <defs>
        <path id="m" transform="scale(.015625)" d="m1830-90q-441 0-787 163-345 164-547 448-202 285-202 650 0 314 122 557t314 419 403 291v32q-256 186-442 458-185 272-185 643 0 365 176 640t480 425q304 151 694 151 410 0 704-160t457-439q164-278 164-649 0-237-96-448t-234-381q-137-169-291-278v-32q218-115 397-285 179-169 288-406t109-557q0-346-189-628-189-281-532-448-342-166-803-166zm314 2708q205 198 310 419 106 221 106 464 0 211-83 384t-247 272q-163 99-393 99-288 0-480-183-192-182-192-502 0-256 134-429 135-172 359-294t486-230zm-294-2170q236 0 418 89 183 90 285 253 103 164 103 388 0 211-90 367-89 157-246 272-157 116-368 215t-454 195q-244-173-398-426-153-252-153-553 0-237 118-416 119-179 324-282 205-102 461-102z"/>
       </defs>
       <use xlink:href="#g"/>
       <use transform="translate(57)" xlink:href="#m"/>
       <use transform="translate(114)" xlink:href="#a"/>
       <use transform="translate(171)" xlink:href="#a"/>
      </g>
     </g>
    </g>
    <g id="cl">
     <g id="cm">
      <path d="m52 90.093h801.2" clip-path="url(#c)" fill="none" stroke="#b0b0b0" stroke-linecap="square" stroke-opacity=".3" stroke-width=".8"/>
     </g>
     <g id="cn">
      <use x="52" y="90.092609" stroke="#000000" stroke-width=".8" xlink:href="#h"/>
     </g>
     <g id="co">
      <!-- 2100 -->
      <g transform="translate(22.2 94.078) scale(.1 -.1)">
       <use xlink:href="#b"/>
       <use transform="translate(57)" xlink:href="#g"/>
       <use transform="translate(114)" xlink:href="#a"/>
       <use transform="translate(171)" xlink:href="#a"/>
      </g>
     </g>
    </g>
    <g id="cp">
     <g id="cq">
      <path d="m52 63.954h801.2" clip-path="url(#c)" fill="none" stroke="#b0b0b0" stroke-linecap="square" stroke-opacity=".3" stroke-width=".8"/>
     </g>
     <g id="cr">
      <use x="52" y="63.953694" stroke="#000000" stroke-width=".8" xlink:href="#h"/>
     </g>
     <g id="cs">
      <!-- 2400 -->
      <g transform="translate(22.2 67.939) scale(.1 -.1)">
       <defs>
        <path id="n" transform="scale(.015625)" d="m2170 0v3072q0 192 12 457 13 266 20 458h-26q-90-179-183-365-92-185-195-364l-921-1415h2579v-576h-3328v493l1875 2957h858v-4717h-691z"/>
       </defs>
       <use xlink:href="#b"/>
       <use transform="translate(57)" xlink:href="#n"/>
       <use transform="translate(114)" xlink:href="#a"/>
       <use transform="translate(171)" xlink:href="#a"/>
      </g>
     </g>
    </g>
    <g id="ct">
     <g id="cu">
      <path d="m52 37.815h801.2" clip-path="url(#c)" fill="none" stroke="#b0b0b0" stroke-linecap="square" stroke-opacity=".3" stroke-width=".8"/>
     </g>
     <g id="cv">
      <use x="52" y="37.814779" stroke="#000000" stroke-width=".8" xlink:href="#h"/>
     </g>
     <g id="cw">
      <!-- 2700 -->
      <g transform="translate(22.2 41.8) scale(.1 -.1)">
       <defs>
        <path id="i" transform="scale(.015625)" d="m1235 0q32 646 109 1187t224 1024 384 941 576 938h-2208v627h3027v-455q-409-512-665-989-256-476-397-969t-205-1053-90-1251h-755z"/>
       </defs>
       <use xlink:href="#b"/>
       <use transform="translate(57)" xlink:href="#i"/>
       <use transform="translate(114)" xlink:href="#a"/>
       <use transform="translate(171)" xlink:href="#a"/>
      </g>
     </g>
    </g>
   </g>
   <g id="cx">
    <path d="m88.418 222.44.080102.17426.070734-.34852.2923.34852.14896-.08713.3977-.8713.84365-3.2238.8577-5.1407.41972-1.3069.42253-.17426.39723-1.6555.42159-1.2198.42159-2.0911.42159-2.7882.42159-.60991.42159-3.2238.42159-2.3525 1.2648-9.2357.84318-4.3565.42159-1.3941.42159-.78417.42159-2.004.42159-5.3149 1.2648-24.309 1.6864-43.826.42159-8.5387.84318-28.666.42159-5.3149.42159-2.3525.42159-.78417.42159 2.6139.42159 1.5683 2.108 43.565.42159 12.46 2.5295 52.801.84318 12.198 1.6864 19.604.42159 2.701.42159 3.9208.42159 2.7882.42159 3.6594.42159 1.9169.42159 3.2238 1.2648 6.5347.42159 2.4396.42159 1.5683.42159 3.4852.42159 1.1327.42159 1.7426.84318 1.6555.42159 1.1327.42159.26139.42159 1.3069.42159.52278.84318.26139.84318-.43565 1.2648-2.8753.42159-.26139.42159-.95843.42159-.43565.84318-3.3981.84318-3.9208.42159.26139.42159-.17426.42159-2.7882.42159-1.5683.42159-.78417.84318-2.7882.42159-3.1367.42159-1.7426.42159-.60991 1.2648-4.2694.42159-3.9208.42159-2.4396.42159-3.6594.84318-5.2278.42159-2.6139.42159-1.3941m.84318 19.517.42159-12.285.42159-2.3525.42159-1.3941 1.2648-13.418.42159-6.012.84318-18.21.84318-22.654.42159-16.293 1.2648-31.105.84318-14.725.42159-3.7466.42159.43565.42159-1.2198.42159 1.7426.84318 8.8001.84318 21.173.42159 6.9704 1.2648 28.404.84318 14.725.84318 16.555.84318 12.111.84318 10.891 2.108 21.608 2.5295 12.808.84318 5.7506.84318 3.1367.42159.43565.42159.8713.42159 1.3069.42159.60991 1.2648 4.5307.42159-.43565.42159.34852h.42159l.42159.52278.42159-1.3069.42159.17426.42159-.34852.42159-.52278.42159-.26139.42159-.60991.42159.08713.42159-.52278.42159-2.0911.42159-1.4812.42159-.8713 1.6864-6.2733.42159-1.0456.42159-2.2654.42159-1.2198.42159-2.701.42159-1.0456.42159-3.2238.42159-1.6555.42159-3.3109.42159-.95843.84318-2.701.42159-2.2654.42159-1.3941.84318-6.012.42159-1.8297.42159-.43565.42159-3.1367.42159-1.1327.42159-2.3525 1.2648-4.5307 1.2648-18.733 1.2648-27.62.42159-13.766 1.6864-36.856.84318-12.111.84318-4.4436.42159 1.0456.42159 3.7466.84318 17.6 1.2648 28.23.84318 19.43 1.2648 21.521.84318 11.763 1.6864 23.961 1.2648 13.418 1.6864 12.547 2.9511 14.115.42159 1.1327.42159.69704.42159 1.1327.42159.60991h.42159l.56212.26139.56212.8713.14053-.08713.28106-.52278.56212.52278.14053.08713.28106-.60991.14053-.52278.14053.17426.28106-.95843h.14053l.14053.17426.14053-.17426.14053.087129.14053-.43565.14053.34852.42159-1.2198.14053.17426.14053-.08713.14053-.43565.14053.08713.28106-.78417.14053-.17426.28106-.8713.14053-.08713.28106-.52278.14053-.08713.28106-1.3941.14053.08713.28106-.43565.14053.08713.56212-1.2198.42159-2.701h.14053l.56212-2.3525.28106-1.0456.14053-.52278h.14053l.70265-2.8753.28106-.95843.14053-.52278.14053-1.0456.14053-.087129.98371-5.5763.42159-1.2198.28106-.69704.14053.17426.28106-2.0911.14053-.34852.28106-1.3941.14053-.34852.28106-2.004.28106-1.3069.14053-.17426.14053-.43565.28106-1.7426.14053-.087129.14053.17426.14053-.08713.42159-1.9169.28106-.95843.14053-1.6555.14053.26139 1.2648-7.406h.14053l.14053-.17426.28106-1.2198.14053.69704.14053-1.0456.14053.26139 1.2648-10.281.98371-17.774.70265-18.907.28106-11.153.42159-8.1031.98371-22.741.28106-9.5843.42159-8.0159.42159-4.1822.14053-3.2238.14053-.52278.14053.43565.56212-2.8753.14053-.34852.14053-1.0456.14053-.087129.28106.8713 1.2648 22.915.28106 4.7921.14053.78417.56212 12.547.42159 9.5843.84318 15.683.42159 6.8832.56212 11.327 1.9674 31.192.42159 3.5723 1.9674 17.426 1.5458 8.8872.28106 1.2198.28106 2.5268.28106 1.2198.56212 4.3565.56212 2.4396.14053 1.6555.28106.43565.56212 2.9624.28106.69704.14053.17426.14053.60991.14053-.26139.28106.95843.14053.52278.14053.08713.56212 2.2654.42159.52278.14053-.08713.14053.43565.28106.08713.14053.26139.28106-.17426.14053.43565.14053-.34852.42159.34852.28106-.60991.14053-.43565.28106.17426.28106-.43565.56212-1.5683.28106-.69704.28106.26139.28106-.26139.56212-.95843.28106.43565.28106-1.2198.56212-3.2238.28106-1.3941.28106-.26139.28106-.95843.56212-.34852.56212-2.0911.28106-.08713.56212-3.3109.28106-.26139.28106-.78417h.28106l.28106-1.1327.28106-2.1782.84318-3.2238.56212-2.9624.28106-2.2654.28106-.52278.56212-2.0911.56212-3.7466.28106.087129.56212-1.4812.56212-4.008.84318-5.8377.28106-1.1327.28106-1.7426h.28106l.56212-3.1367.28106-.69704 1.4053-5.7506.84318-11.24.84318-17.426 2.2485-66.219.56212-11.763.56212-9.9328.56212-7.7545.84318-5.5763h.28106l.28106 1.1327.28106 1.7426.84318 7.406.84318 16.206.28106-3.1367.56212 14.376.56212 10.63 1.4053 28.84 1.1242 21.957.56212 11.414 1.9674 30.408.84318 7.5803.84318 6.0991.28106 2.8753.56212 2.9624.28106 2.5268.28106 1.1327.56212 3.8337.28106.8713.28106-.17426.28106.087129.28106.43565.28106 1.0456.28106.60991.28106 1.3069.28106-1.1327.28106-.43565.28106.60991.28106-.26139.28106.69704.28106-.34852.56212.26139.56212-2.2654.56212.087129.28106-1.5683.28106-.8713.28106-1.3941.28106.34852.28106-1.3069.28106-.60991 1.6864-6.5347.56212-3.6594.56212-2.1782.56212-5.0535.56212-6.012.28106-.8713 1.4053-11.153.28106-1.3941.56212-3.5723.28106-.43565.28106-2.4396.56212-2.4396.28106-1.7426.28106-.60991.28106.34852.28106-.69704.28106-1.6555.28106-.78417.56212-2.1782.28106-.34852.28106.26139.28106-.26139.28106.69704.28106 2.2654.28106-.08713.28106.17426.28106-.34852.28106-.60991.28106.69704.28106-.08713.28106-.26139.28106-1.3941h.56212l.28106-2.8753 1.1242-17.339.84318-20.737.28106-12.198 1.1242-25.703.84318-20.388.56212-9.9328.28106-7.1446.28106-3.3109.28106-.60991.56212-4.0951.28106-.34852.28106.52278.28106 1.4812.28106.52278.28106 3.5723.56212 2.9624.56212 7.0575.56212 12.634.56212 7.0575.56212 11.065.56212 15.248 3.0917 59.248.56212 9.2358 1.4053 19.43.28106 3.0495.84318 5.5763.84318 7.3189 1.1242 8.0159 1.1242 4.6179.28106.60991.28106 2.004.28106-.087129.28106.52278.56212 1.3941.28106.26139.28106.52278.56212-.34852.56212-1.0456.28106-1.3069.56212.087129.28106-1.1327.28106-1.6555.56212-1.1327.28106.17426.28106-2.004.28106-1.0456.28106-1.9169.28106-.34852.28106-2.6139.28106-1.0456.28106-.34852.84318-3.0495.28106-3.3109.56212-9.1486.28106-2.4396 1.1242-13.941.84318-5.9248.84318-2.6139.28106-1.3941.28106-3.0495.84318-5.1407.56212-3.7466.28106-.43565.28106-1.2198h.28106l.28106-1.2198.28106.78417.28106-1.7426.28106.34852.28106.78417.28106 1.2198.84318 1.7426.28106-.26139.28106 2.6139.84318 2.6139.28106.17426.28106 1.1327.28106-.43565.28106-1.2198 1.1242-14.464.84318-18.994.56212-13.069 1.6864-33.893 1.1242-10.368.28106 1.9169.28106.78417.28106.26139.28106 1.1327.56212 5.402.84318 20.388.28106 4.3565 1.1242 26.139.28106 2.9624.28106 6.7961.28106 3.6594.84318 18.036 1.1242 18.297.56212 9.0615.28106 3.5723.28106 1.2198.84318 10.456 1.1242 7.5803.28106 1.4812 1.1242 9.8457.28106 1.3941.56212 1.4812.28106 2.6139.28106 1.2198.56212 3.1367 2.2485 7.5803.28106-.17426.28106.69704.28106.26139.28106.52278.28106.08713.28106-.08713.28106-.43565.28106-.08713.28106.43565.28106-.60991.28106-.08713.28106-.26139.28106.17426.28106.43565h.28106l.56212-.8713.28106.43565.28106-.78417.28106-.08713.28106-1.0456.28106.17426.28106-.08713.28106-1.5683.28106-.69704.28106-1.3941.56212-1.0456.56212-1.6555.56212-4.2694.28106-.34852.84318-3.6594.28106-.52278.84318-3.1367.28106-.78417.28106-.087129.56212-2.2654.28106-.52278.28106-1.2198.28106-1.8297.56212-1.9169.28106-2.8753.84318-2.6139.28106-.34852.28106-1.0456.28106-.08713 1.9674-11.065.28106-.78417.28106-.17426.84318-4.9664.56212-6.3605.28106-4.008.84318-15.248.56212-10.107 1.6864-42.258.56212-9.9328.28106-7.406.56212-6.2733.56212-5.6634.84318-2.4396.28106 1.3941.28106 2.004.56212 8.2773.28106 8.1902.56212 9.6714 1.9674 43.826.28106 4.008.56212 10.804.56212 7.5803.56212 8.4516 2.2485 24.832.84318 5.4892 1.1242 6.709.56212 2.701.28106.69704 2.8106 12.721h.28106l.28106.43565.28106 1.4812.28106-.26139.28106.95843.28106.08713.28106 1.3941.56212.34852.56212.52278.28106.17426.84318-.52278.28106-.78417.28106-.26139.28106-.69704.56212.34852.28106-.17426.28106.26139.56212.08713.28106-.08713.28106.60991.28106-.34852.84318-3.8337.56212-1.2198.56212-1.6555.28106-1.2198.28106-.43565.84318-2.7882.28106-2.6139.56212-2.8753.28106-.95843.28106-1.3941.56212-1.6555.84318-4.0951.28106-1.5683.28106-.26139h.28106l.28106-.69704.28106-1.2198.28106-1.8297.28106-.95843.56212-2.7882.28106-2.004.28106-.69704.56212-2.701.28106.17426.56212-3.3981.28106-1.4812.56212-4.008h.28106l.56212-2.6139.28106-2.0911.28106-.60991.28106-2.0911.56212-11.763.56212-10.368.28106-6.2733 1.4053-42.345.56212-11.588.28106-8.6258.56212-6.6219.56212-5.8377.28106-2.7882.28106-.17426.56212-1.3069.28106 1.2198.28106 2.5268.84318 13.854.28106 3.5723 2.5295 52.539 1.4053 26.139 1.6864 21.173.56212 6.7961.28106 1.8297.84318 7.0575.28106 1.3941 1.1242 8.3645.28106 1.1327.84318 5.2278 1.1242 3.6594.28106 1.7426.84318 2.3525.56212.95843.28106 1.0456.28106.60991.28106 1.3941.28106.78417.28106.34852.28106.69704.28106-.26139.28106.17426.84318-1.0456m.56212 2.4396.28106 1.3941.28106-.08713.28106.26139.56212-1.5683.28106-.08713.28106-.52278.28106.17426.28106-.8713.28106.087129.56212-2.5268.28106-.78417h.28106l.28106-.8713.28106-2.0911.28106-.26139.28106-.95843.28106-1.4812.28106-.34852 1.1242-4.8793.56212-2.9624.28106-1.0456.28106.17426.28106-1.1327.28106-2.6139.84318-4.4436.28106-2.5268.28106-1.4812.28106-2.1782.56212-2.2654.56212-2.5268.28106-.34852.28106-.69704.28106-1.1327.28106.087129.56212-2.7882.28106.08713.56212-5.3149.56212-4.0951.56212.17426.28106-2.4396.28106-1.3069.28106-3.3981.28106-1.6555.28106-2.5268 1.4053-22.305.28106-5.7506.84318-23.961 1.6864-42.084 1.1242-15.858.28106-.52278.56212.78417.28106 1.8297.56212 5.8377.28106 5.2278.84318 19.778.56212 11.153.84318 21.957.28106 5.3149.28106 2.9624 2.8106 47.311 1.1242 9.2358.28106 2.1782.56212 4.9664.56212 4.1822 1.1242 7.5803.28106.69704.84318 4.8793.28106.60991 1.1242 6.3605.84318 2.8753 1.4053 3.3109.84318 3.3981.56212.60991.28106-.43565.28106-.78417.28106-.34852.28106.52278.28106-.8713.28106.087129.28106.69704.28106-.52278.28106.43565.84318-1.4812.84318-2.5268.28106-.52278.56212-2.1782.28106-.69704.56212-2.7882.28106.26139.28106-1.5683.28106-.52278.84318-3.1367.28106-.52278.56212-2.004.28106-2.0911.28106-.43565 1.1242-5.1407.28106-.78417.28106-1.3941.28106-.78417.56212-2.7882.56212-2.004.56212-2.3525.56212-2.0911.28106-2.4396.28106-.34852.28106-1.2198.28106-2.701.84318-3.6594.28106-.43565.28106-.17426.28106-1.1327.28106-2.6139.56212-6.709.56212-5.4892.84318-16.99 1.6864-33.196.28106-7.5803.28106-4.5307 1.1242-29.188.84318-16.119.28106-2.7882.28106-.34852.28106-5.1407.28106-2.1782.28106-.08713.56212 2.3525.28106 5.0535.56212 15.248.56212 11.414 1.6864 41.561.56212 11.588 1.1242 19.691 1.4053 21.521 1.4053 15.858.56212 5.2278 1.9674 12.111 2.2485 12.198.28106-.08713.56212 2.4396.56212 1.4812.28106.34852.28106 1.0456.28106-.17426 1.4053 2.7882.28106-.17426.28106.52278.84318-.17426.56212-.78417.56212-.34852.28106-1.2198.28106-.17426h.28106l.28106-.43565.28106.52278.28106.08713.28106-.52278.56212-2.4396.56212-2.7882 1.9674-7.4932h.28106l.56212-1.7426.28106-1.6555.28106-.43565.56212-3.8337.28106.087129.28106-.69704.28106-.34852.28106-1.3069.28106-.08713 1.1242-8.4516.28106-1.4812.28106-.8713.28106-.43565.56212-2.4396.28106-.34852.28106-.95843.28106-2.7882.84318-4.0951.56212-2.5268.28106-.08713.28106-.26139.56212-2.7882.28106-2.004 1.1242-13.244 1.4053-27.62.56212-17.426 2.2485-58.028.28106-5.3149.56212-5.4892.28106-3.8337.28106-.69704.28106-2.7882.28106 2.5268.28106-.17426.84318 9.4971.28106 1.6555.56212 9.1486 4.2159 88.262 1.9674 28.143.56212 5.3149.28106 4.0951 1.1242 8.9744.28106 1.4812.28106 3.7466.28106.60991.28106 2.4396.28106 1.3069.28106 2.0911.28106.78417.28106 2.0911.28106.69704.84318 3.3981.56212.78417.28106-.087129.56212.087129.28106-.26139.28106.17426.28106-.17426.28106-.43565.56212-1.3941.28106-.26139 1.1242-3.7466.28106-.087129.56212-2.7882.56212-3.6594.28106-1.2198.28106.43565.28106-.17426.84318-3.9208.28106.26139.28106-1.6555.28106-.34852.28106-1.2198.56212-8.9744 1.1242-9.8457.28106-1.3069.28106-2.5268.28106-3.7466.56212-2.7882.56212-4.1822.56212-3.8337.28106-3.1367.56212-2.0911.28106-.52278.28106-.8713.28106-.43565h.28106l.28106-.26139.28106.69704.28106.26139.28106.52278.56212-.08713.28106.08713.28106 1.3941.28106 2.1782.28106-.78417.28106 1.1327.28106 2.0911.28106-2.5268.28106.17426.28106-.52278.28106-1.7426.28106-3.3109.28106-1.4812.28106-.8713.28106-2.9624.28106-6.4476.28106-2.7882 1.1242-24.745.28106-10.978.56212-11.24 1.6864-42.084.84318-16.99.84318-6.9704.28106-.43565.28106-.78417 1.1242 9.1486.56212 8.9744.28106 3.8337.84318 17.165.28106 4.008.28106 7.5803.28106 3.4852 1.4053 31.367.84318 15.073 2.2485 40.69.56212 7.6674 1.4053 13.854 1.4053 10.107.56212 3.3109.28106 2.2654.28106 1.1327.84318 5.2278.28106.34852.28106.78417.28106 1.4812.28106.17426.28106-.17426.28106.08713.28106-.26139.28106.26139.56212-.95843.28106-.52278 1.1242-3.7466.28106-.60991.56212-2.3525.56212-2.1782.56212-2.6139.28106-.34852.28106.26139.28106-2.3525.28106-.08713.28106-1.4812.28106-2.3525.28106-3.3109.28106-.17426.84318-7.3189.56212-2.5268.28106-1.7426.84318-8.3645.28106-4.0951.28106-1.1327.56212-4.4436.28106-.60991.56212-5.2278.56212-2.9624.28106-1.3941.56212-3.7466.28106-.43565.28106.43565.56212-2.1782.28106-.08713.84318-1.7426.28106-1.1327.28106.8713.56212 3.1367.28106 2.4396.28106-.17426h.28106l.56212 4.008.28106-2.6139.28106.26139 1.4053-15.161.28106-3.7466.56212-10.891.84318-24.571 1.4053-29.624.84318-11.85.56212-3.3109.28106.60991.28106.087129.28106-.95843.28106-.17426.28106 3.2238.28106 4.8793.28106 9.3229.56212 11.588 1.9674 45.307.56212 10.02.84318 17.165 1.6864 26.662.84318 10.02.56212 4.8793.28106 2.8753.28106 1.6555.56212 4.2694 4.778 24.658.28106.43565.28106 1.3941.56212 1.1327.28106.17426 1.4053 3.1367.28106-.26139.28106-.08713.28106-.34852.28106.26139.84318-.17426.56212-1.1327.56212-.69704.84318-.17426.28106-.52278.28106-.78417.28106-.34852.56212-2.6139.28106.087129.28106-.43565.28106-.8713.84318-4.4436.28106-1.3941 1.1242-2.9624.28106-2.1782.56212-2.8753.28106-.08713.56212-2.9624.28106-.52278.28106-2.4396.56212-2.4396 1.1242-4.7921.28106-.34852.28106-2.701.28106-.78417.28106-.26139.56212-5.2278.28106-.8713.28106-1.5683.56212-1.3069.28106-1.4812.28106-2.5268.56212-2.8753.28106-.43565.84318-7.8417 2.5295-54.456 1.4053-33.196 1.1242-13.854.56212-2.701.28106.78417.28106.43565.84318 10.456 2.5295 55.589 3.0917 49.315.28106 2.004 1.6864 17.252.56212 3.8337.84318 4.0951.84318 5.9248.28106.69704.56212 2.5268 1.1242 4.4436.28106 1.6555.84318 2.5268.28106.26139.56212 1.7426.28106.08713.56212 1.7426.28106.34852.84318 2.4396.56212.08713.56212-.78417.28106.17426.28106-.34852.28106-.78417.28106-.26139.28106-.52278.28106-.95843.28106.34852.56212-.60991.28106-1.8297.28106.17426.28106-.8713.28106.087129.28106-1.5683.28106-.69704.28106-.34852.28106-1.3069.28106-.52278.56212-2.5268.28106-2.3525.28106-1.0456.28106-1.4812.28106-.34852.28106-1.9169.28106-.69704.84318-4.3565.56212-1.8297.28106-.60991.28106-1.7426.28106.17426.28106-1.2198.28106-.69704h.28106l1.1242-7.2318.28106-.52278.28106-1.7426.84318-2.5268.28106-1.0456h.28106l.84318-6.012.28106-.34852 1.4053-8.1902 1.1242-12.285.84318-16.555.84318-22.131.84318-21.957.28106-3.3109.28106-6.012.28106-8.4516 1.4053-17.862.28106-.26139.28106-1.2198.28106-.34852.84318 7.5803.56212 12.808 1.1242 18.994 1.1242 23.264.28106 5.1407.56212 12.982.56212 10.107.84318 11.501.56212 11.24.84318 10.02 1.1242 9.4971 1.4053 12.111.28106.8713 1.1242 5.6634.56212 2.8753.28106 1.1327.56212 1.1327.56212 2.004.28106.69704.28106 1.9169.28106.69704.28106-.43565.56212.95843.28106.17426.28106.8713.28106 1.6555.28106-.17426.28106.26139.56212.69704.28106.17426h.28106l.56212.34852.56212-1.3941.28106.95843.28106-.17426.56212-1.2198.28106-.087129.56212-.8713.28106.69704.84318-1.3941.28106-2.004.28106-.8713.56212-.8713 2.2485-9.9328.28106-.95843.84318-5.5763.28106-.69704 1.1242-6.7961.28106-1.1327.28106-.43565.28106-.95843.56212-3.0495.56212-5.1407.28106-.69704 1.1242-7.0575.28106-2.9624.28106-.69704.56212-2.701.28106 1.2198.28106-.95843.28106-.26139.28106-.78417.28106.08713.28106-.52278.28106-1.3941.56212-9.5843 1.1242-17.774.56212-16.032.28106-10.281.28106-5.402 1.1242-29.363.84318-15.77.56212-6.709h.28106l.28106-.17426.28106-1.6555.56212 2.4396.28106 1.7426.28106 3.5723.84318 19.169 1.1242 25.268.84318 20.04 1.9674 33.806.28106 3.0495.28106 6.0991 1.6864 19.43 1.1242 8.0159 3.3727 18.472.28106.60991.28106 1.9169 1.4053 4.4436.28106 1.6555 1.1242 3.1367.28106 1.2198.28106-.26139.28106.34852.28106-.087129.28106-.26139.28106-.8713.28106 1.0456.28106-.78417.56212-.52278.28106-.95843.28106-.17426h.28106l.28106-.26139.28106-.78417.28106-2.004.28106-.34852h.28106l.28106-.26139.28106-1.0456.28106-1.6555.28106-.43565.28106-1.0456h.28106l.28106-.8713.84318 3.8337.28106-.34852.28106 1.3069.28106-.17426.28106-2.2654.28106.8713.56212-.95843.56212.43565.28106-1.9169.28106.34852.28106.8713.28106.17426.28106-.08713.28106-1.0456.28106.17426m1.1242-2.7882.28106-1.6555.28106-3.3109.28106-1.7426 1.9674-17.862 1.1242-5.1407 1.1242-12.372 1.4053-25.616 1.4053-41.299 1.1242-29.798.56212-9.6714.56212-7.3189.28106-1.5683.28106 1.1327h.28106l.28106.43565.56212 2.7882.56212 12.895.28106 6.5347.28106 1.9169.28106 7.5803.28106 2.6139.28106 5.0535.84318 19.517 2.5295 45.22 1.9674 24.832 2.2485 19.081.28106.60991 1.4053 7.9288 1.4053 5.402.28106.52278.56212 2.7882.56212 2.5268.84318 1.6555.56212 1.4812.56212.08713.28106-.34852.28106.52278.28106-1.0456.28106-.08713.28106.17426.28106-.087129.28106-.95843.28106.34852.56212-1.3941.28106-.60991.28106-1.0456.84318-1.7426.56212-2.004.28106-1.3941.28106-2.0911.28106-.17426.56212-1.6555.56212-2.701.28106.087129.56212-2.701v0" clip-path="url(#c)" fill="none" stroke="#28f" stroke-linecap="square" stroke-width="1.5"/>
   </g>
   <g id="cy">
    <path d="m52 259.78v-232.9" fill="none" stroke="#000" stroke-linecap="square" stroke-width=".8"/>
   </g>
   <g id="cz">
    <path d="m853.2 259.78v-232.9" fill="none" stroke="#000" stroke-linecap="square" stroke-width=".8"/>
   </g>
   <g id="da">
    <path d="m52 259.78h801.2" fill="none" stroke="#000" stroke-linecap="square" stroke-width=".8"/>
   </g>
   <g id="db">
    <path d="m52 26.88h801.2" fill="none" stroke="#000" stroke-linecap="square" stroke-width=".8"/>
   </g>
   <g id="dc">
    <!-- 同時接続数の推移 -->
    <g transform="translate(404.6 20.88) scale(.12 -.12)">
     <defs>
      <path id="x" transform="scale(.015625)" d="m1587 3936h3232v-518h-3232v518zm320-1114h557v-2534h-557v2534zm301 0h2291v-2086h-2291v512h1734v1069h-1734v505zm-1683 2260h5113v-570h-4524v-5056h-589v5626zm4768 0h595v-4896q0-250-67-397t-227-218q-160-77-426-96t-675-19q-13 83-45 192t-77 218q-45 108-89 185 281-13 527-13 247 0 330 0 83 7 118 42 36 35 36 112v4890z"/>
      <path id="v" transform="scale(.015625)" d="m2714 4672h3238v-525h-3238v525zm-244-1235h3712v-538h-3712v538zm20-1184h3635v-531h-3635v531zm1523 3155h595v-2310h-595v2310zm832-2451h589v-2823q0-230-61-364-61-135-227-199-167-70-423-86t-633-16q-20 121-78 285-57 163-121 284 275-6 509-9t310-3q77 6 106 28 29 23 29 93v2810zm-2023-1677 487 282q153-160 313-352t294-381q135-189 206-343l-519-313q-64 153-189 348-124 196-278 394-154 199-314 365zm-2086 3718h1619v-4281h-1619v544h1056v3187h-1056v550zm32-1843h1293v-537h-1293v537zm-320 1843h563v-4832h-563v4832z"/>
      <path id="w" transform="scale(.015625)" d="m3866 5408h614v-870h-614v870zm-1479-653h3597v-518h-3597v518zm-230-1485h4e3v-518h-4e3v518zm825 922 519 102q64-160 121-342 58-182 96-352 39-170 45-304l-544-128q-6 134-42 313-35 180-83 365-48 186-112 346zm1856 109 589-71q-96-275-202-557-105-281-195-486l-518 77q58 147 122 329 64 183 118 372t86 336zm-2643-2106h3943v-518h-3943v518zm1408 685 602-115q-167-371-362-784t-390-797-362-685l-525 179q160 288 346 666t368 784 323 752zm-659-2157 358 403q352-102 733-240 381-137 752-304 371-166 697-336 327-169 558-329l-384-461q-218 160-532 336-313 176-685 345-371 170-755 323-384 154-742 263zm1894 1114 583-71q-122-550-353-944-230-393-604-662t-922-435q-547-167-1296-269-25 128-93 269-67 141-137 230 678 64 1168 192t819 349q330 221 531 550 202 330 304 791zm-4684 217q396 90 953 240 557 151 1120 311l77-544q-525-154-1053-311-528-156-963-284l-134 588zm121 2093h1965v-563h-1965v563zm819 1248h576v-5229q0-236-51-374t-192-208q-141-77-355-99-214-23-541-16-13 115-64 288t-109 294q205-6 381-6t234 0q64 0 92 28 29 29 29 93v5229z"/>
      <path id="u" transform="scale(.015625)" d="m4058 5408h595v-1798h-595v1798zm-1415-563h3443v-499h-3443v499zm231-992h3008v-499h-3008v499zm-224-877h3475v-1203h-531v729h-2432v-729h-512v1203zm1964-877h551v-1881q0-122 22-157 23-35 106-35 25 0 92 0 68 0 135 0t99 0q51 0 83 54t45 224 19 515q90-70 234-131t259-93q-19-429-83-662-64-234-183-326-118-93-316-93-39 0-103 0t-134 0-138 0q-67 0-99 0-237 0-365 64t-176 218q-48 153-48 422v1881zm-1164-6h550v-455q0-243-48-528-48-284-186-579-137-294-409-572-272-279-727-503-70 90-192 208-121 118-230 195 416 205 665 438 250 234 371 474 122 240 164 467 42 228 42 413v442zm-2240 3309 524-192q-121-244-259-503-137-259-275-496t-259-416l-410 173q122 186 246 438 125 253 240 515 116 263 193 481zm716-743 500-230q-224-359-496-756-272-396-548-764-275-368-518-650l-358 205q179 211 377 483 199 272 387 569 189 298 358 592 170 295 298 551zm-1721-665 307 403q166-154 339-340 173-185 320-364t224-327l-326-460q-77 160-218 348-141 189-314 384-172 196-332 356zm1485-832 435 179q128-211 249-458 122-246 215-474 93-227 137-412l-473-211q-32 185-119 422-86 237-201 486-115 250-243 468zm-1530-583q422 26 998 54 576 29 1184 68l7-499q-570-45-1127-84-556-38-992-70l-70 531zm1702-992 436 135q121-276 214-596t118-556l-454-148q-26 237-112 563-86 327-202 602zm-1363 109 499-83q-57-455-163-897-105-441-253-748-51 32-134 73-83 42-170 83-86 42-144 62 148 294 234 697t131 813zm691 627h525v-2861h-525v2861z"/>
      <path id="q" transform="scale(.015625)" d="m224 2022h3187v-499h-3187v499zm51 2247h3111v-487h-3111v487zm1127-1735 563-121q-154-320-333-672t-352-679q-173-326-326-582l-532 173q148 243 324 566t345 669q170 346 311 646zm934-832 563-64q-89-480-262-838t-461-614-701-432-976-298q-25 128-99 269t-157 237q659 102 1085 303 426 202 666 554t342 883zm422 3597 519-211q-147-218-298-436-150-217-278-377l-403 186q121 173 252 413 132 240 208 425zm-1203 109h563v-2957h-563v2957zm-1075-320 448 186q134-192 246-420 112-227 157-393l-467-211q-38 172-147 406t-237 432zm1094-1050 397-236q-160-263-400-529-240-265-519-489-278-224-553-378-51 103-141 237-89 135-179 218 269 109 534 294 266 186 493 416 228 231 368 467zm487-204q83-45 246-145 163-99 352-211t346-211 221-150l-327-423q-83 77-230 198-147 122-317 253-170 132-327 250-156 119-259 189l295 250zm1798 396h2311v-556h-2311v556zm115 1178 615-90q-103-640-263-1235t-384-1101q-224-505-512-889-44 57-134 134t-186 157-166 125q275 339 473 796 199 458 340 995 141 538 217 1108zm1223-1510 614-58q-147-1101-445-1940-297-838-813-1443-515-604-1321-1014-26 71-90 177-64 105-134 208-70 102-128 159 742 346 1212 880 471 535 730 1290 260 755 375 1741zm-1005-135q134-851 387-1597 253-745 659-1305 407-560 1002-874-70-57-154-150-83-93-154-189-70-96-121-179-633 371-1056 988-422 618-688 1434-265 816-425 1783l550 89zm-3309-3065 327 416q377-148 754-330 378-182 701-378 324-195 548-368l-416-435q-211 179-519 378-307 198-666 383-358 186-729 334z"/>
      <path id="t" transform="scale(.015625)" d="m3686 4378q-64-493-163-1041-99-547-265-1084-192-653-432-1104t-522-688-595-237q-320 0-596 221-275 221-448 621-172 400-172 931 0 537 220 1017 221 480 611 851 391 372 909 583 519 211 1121 211 576 0 1040-186 464-185 793-515 330-329 502-771 173-441 173-941 0-672-278-1194-278-521-816-851-538-329-1318-444l-378 601q166 20 307 42t263 48q307 70 585 217 279 148 496 375 218 227 342 534 125 308 125 692t-122 713q-121 330-358 573-236 243-582 380-346 138-781 138-525 0-935-186-409-185-694-489-284-304-432-656-147-352-147-678 0-365 89-605 90-240 224-355 135-115 276-115t288 144 297 457q151 314 298 800 147 461 246 982 100 522 145 1021l684-12z"/>
      <path id="r" transform="scale(.015625)" d="m2995 2925h2893v-519h-2893v519zm0-1280h2893v-519h-2893v519zm-64-1299h3232v-557h-3232v557zm1312 3577h563v-3763h-563v3763zm429 1466 634-141q-154-390-340-794-185-403-339-684l-512 140q103 199 208 458 106 259 195 528 90 269 154 493zm-1472 25 582-147q-153-518-371-1018-217-499-483-931t-573-758q-38 64-109 160-70 96-147 198-77 103-141 160 416 416 733 1034t509 1302zm128-1203h2720v-537h-2720v-4205h-582v4422l313 320h269zm-3174-2157q396 90 953 240 557 151 1120 311l77-544q-525-154-1053-311-528-156-963-284l-134 588zm121 2093h1965v-563h-1965v563zm819 1248h576v-5229q0-236-51-374t-192-208q-141-77-355-99-214-23-541-16-13 115-64 288t-109 294q205-6 381-6t234 0q64 0 92 28 29 29 29 93v5229z"/>
      <path id="p" transform="scale(.015625)" d="m4051 5402 595-109q-281-493-729-941t-1107-806q-39 64-106 144t-141 153q-73 74-137 119 608 288 1011 678t614 762zm-77-557h1511v-493h-1863l352 493zm1293 0h109l109 25 384-179q-192-505-496-905t-695-701q-390-301-845-519-454-217-947-358-44 109-137 253t-176 227q448 109 867 294 419 186 777 445 359 259 631 592t419 730v96zm-1990-954 377 307q167-96 336-218 170-121 320-249 151-128 247-237l-397-332q-90 108-237 236t-317 259q-169 132-329 234zm1107-934 595-109q-307-538-803-1031-496-492-1232-876-38 64-102 144t-138 156q-74 77-138 116 455 217 807 483t604 554q253 288 407 563zm-90-589h1460v-506h-1818l358 506zm1268 0h121l109 26 384-167q-192-614-531-1075t-787-794q-448-332-983-553-534-221-1129-355-45 115-132 269-86 153-176 249 551 96 1043 285 493 189 903 473 410 285 714 669t464 883v90zm-2132-1056 410 339q186-102 384-237 198-134 371-275t282-269l-435-371q-103 128-270 272-166 144-361 288t-381 253zm-2150 3533h589v-5376h-589v5376zm-992-1242h2336v-569h-2336v569zm1024-224 365-160q-96-339-231-707-134-368-291-727-157-358-336-672-179-313-365-537-44 128-134 291t-160 272q173 192 339 457 167 266 323 570 157 304 282 618t208 595zm941 1946 416-467q-314-122-695-221-380-99-784-173-403-74-780-131-20 102-71 236-51 135-102 231 358 58 732 138 375 80 711 179t573 208zm-397-2579q58-45 179-170 122-125 266-266 144-140 259-265t160-183l-352-473q-58 102-157 255-99 154-218 317-118 164-227 311-108 147-185 237l275 237z"/>
     </defs>
     <use xlink:href="#x"/>
     <use transform="translate(100)" xlink:href="#v"/>
     <use transform="translate(200)" xlink:href="#w"/>
     <use transform="translate(300)" xlink:href="#u"/>
     <use transform="translate(400)" xlink:href="#q"/>
     <use transform="translate(500)" xlink:href="#t"/>
     <use transform="translate(600)" xlink:href="#r"/>
     <use transform="translate(700)" xlink:href="#p"/>
    </g>
   </g>
  </g>
  <g id="dd">
   <g id="de">
    <path d="m52 523.06h801.2v-232.9h-801.2z" fill="#fff"/>
   </g>
   <g id="df">
    <path d="m135.35 523.06h.84318v-232.9h-.84318z" clip-path="url(#d)" fill="#808080" opacity=".3" stroke="#808080"/>
   </g>
   <g id="dg">
    <path d="m445.78 523.06h.56212v-232.9h-.56212z" clip-path="url(#d)" fill="#808080" opacity=".3" stroke="#808080"/>
   </g>
   <g id="dh">
    <path d="m780.24 523.06h1.1242v-232.9h-1.1242z" clip-path="url(#d)" fill="#808080" opacity=".3" stroke="#808080"/>
   </g>
   <g id="di">
    <g id="dj">
     <g id="dk">
      <path d="m105.42 523.06v-232.9" clip-path="url(#d)" fill="none" stroke="#b0b0b0" stroke-linecap="square" stroke-opacity=".3" stroke-width=".8"/>
     </g>
     <g id="dl">
      <use x="105.418116" y="523.055464" stroke="#000000" stroke-width=".8" xlink:href="#e"/>
     </g>
     <g id="dm">
      <!-- 2025-07-01 -->
      <g transform="translate(58.629 563.33) rotate(-30) scale(.1 -.1)">
       <defs>
        <path id="f" transform="scale(.015625)" d="m301 1536v544h1689v-544h-1689z"/>
       </defs>
       <use xlink:href="#b"/>
       <use transform="translate(57)" xlink:href="#a"/>
       <use transform="translate(114)" xlink:href="#b"/>
       <use transform="translate(171)" xlink:href="#j"/>
       <use transform="translate(228)" xlink:href="#f"/>
       <use transform="translate(263.7)" xlink:href="#a"/>
       <use transform="translate(320.7)" xlink:href="#i"/>
       <use transform="translate(377.7)" xlink:href="#f"/>
       <use transform="translate(413.4)" xlink:href="#a"/>
       <use transform="translate(470.4)" xlink:href="#g"/>
      </g>
     </g>
    </g>
    <g id="dn">
     <g id="do">
      <path d="m186.36 523.06v-232.9" clip-path="url(#d)" fill="none" stroke="#b0b0b0" stroke-linecap="square" stroke-opacity=".3" stroke-width=".8"/>
     </g>
     <g id="dp">
      <use x="186.363492" y="523.055464" stroke="#000000" stroke-width=".8" xlink:href="#e"/>
     </g>
     <g id="dq">
      <!-- 2025-07-03 -->
      <g transform="translate(139.57 563.33) rotate(-30) scale(.1 -.1)">
       <use xlink:href="#b"/>
       <use transform="translate(57)" xlink:href="#a"/>
       <use transform="translate(114)" xlink:href="#b"/>
       <use transform="translate(171)" xlink:href="#j"/>
       <use transform="translate(228)" xlink:href="#f"/>
       <use transform="translate(263.7)" xlink:href="#a"/>
       <use transform="translate(320.7)" xlink:href="#i"/>
       <use transform="translate(377.7)" xlink:href="#f"/>
       <use transform="translate(413.4)" xlink:href="#a"/>
       <use transform="translate(470.4)" xlink:href="#o"/>
      </g>
     </g>
    </g>
    <g id="dr">
     <g id="ds">
      <path d="m267.31 523.06v-232.9" clip-path="url(#d)" fill="none" stroke="#b0b0b0" stroke-linecap="square" stroke-opacity=".3" stroke-width=".8"/>
     </g>
     <g id="dt">
      <use x="267.308868" y="523.055464" stroke="#000000" stroke-width=".8" xlink:href="#e"/>
     </g>
     <g id="du">
      <!-- 2025-07-05 -->
      <g transform="translate(220.52 563.33) rotate(-30) scale(.1 -.1)">
       <use xlink:href="#b"/>
       <use transform="translate(57)" xlink:href="#a"/>
       <use transform="translate(114)" xlink:href="#b"/>
       <use transform="translate(171)" xlink:href="#j"/>
       <use transform="translate(228)" xlink:href="#f"/>
       <use transform="translate(263.7)" xlink:href="#a"/>
       <use transform="translate(320.7)" xlink:href="#i"/>
       <use transform="translate(377.7)" xlink:href="#f"/>
       <use transform="translate(413.4)" xlink:href="#a"/>
       <use transform="translate(470.4)" xlink:href="#j"/>
      </g>
     </g>
    </g>
    <g id="dv">
     <g id="dw">
      <path d="m348.25 523.06v-232.9" clip-path="url(#d)" fill="none" stroke="#b0b0b0" stroke-linecap="square" stroke-opacity=".3" stroke-width=".8"/>
     </g>
     <g id="dx">
      <use x="348.254244" y="523.055464" stroke="#000000" stroke-width=".8" xlink:href="#e"/>
     </g>
     <g id="dy">
      <!-- 2025-07-07 -->
      <g transform="translate(301.46 563.33) rotate(-30) scale(.1 -.1)">
       <use xlink:href="#b"/>
       <use transform="translate(57)" xlink:href="#a"/>
       <use transform="translate(114)" xlink:href="#b"/>
       <use transform="translate(171)" xlink:href="#j"/>
       <use transform="translate(228)" xlink:href="#f"/>
       <use transform="translate(263.7)" xlink:href="#a"/>
       <use transform="translate(320.7)" xlink:href="#i"/>
       <use transform="translate(377.7)" xlink:href="#f"/>
       <use transform="translate(413.4)" xlink:href="#a"/>
       <use transform="translate(470.4)" xlink:href="#i"/>
      </g>
     </g>
    </g>
    <g id="dz">
     <g id="ea">
      <path d="m429.2 523.06v-232.9" clip-path="url(#d)" fill="none" stroke="#b0b0b0" stroke-linecap="square" stroke-opacity=".3" stroke-width=".8"/>
     </g>
     <g id="eb">
      <use x="429.199619" y="523.055464" stroke="#000000" stroke-width=".8" xlink:href="#e"/>
     </g>
     <g id="ec">
      <!-- 2025-07-09 -->
      <g transform="translate(382.41 563.33) rotate(-30) scale(.1 -.1)">
       <use xlink:href="#b"/>
       <use transform="translate(57)" xlink:href="#a"/>
       <use transform="translate(114)" xlink:href="#b"/>
       <use transform="translate(171)" xlink:href="#j"/>
       <use transform="translate(228)" xlink:href="#f"/>
       <use transform="translate(263.7)" xlink:href="#a"/>
       <use transform="translate(320.7)" xlink:href="#i"/>
       <use transform="translate(377.7)" xlink:href="#f"/>
       <use transform="translate(413.4)" xlink:href="#a"/>
       <use transform="translate(470.4)" xlink:href="#l"/>
      </g>
     </g>
    </g>
    <g id="ed">
     <g id="ee">
      <path d="m510.14 523.06v-232.9" clip-path="url(#d)" fill="none" stroke="#b0b0b0" stroke-linecap="square" stroke-opacity=".3" stroke-width=".8"/>
     </g>
     <g id="ef">
      <use x="510.144995" y="523.055464" stroke="#000000" stroke-width=".8" xlink:href="#e"/>
     </g>
     <g id="eg">
      <!-- 2025-07-11 -->
      <g transform="translate(463.36 563.33) rotate(-30) scale(.1 -.1)">
       <use xlink:href="#b"/>
       <use transform="translate(57)" xlink:href="#a"/>
       <use transform="translate(114)" xlink:href="#b"/>
       <use transform="translate(171)" xlink:href="#j"/>
       <use transform="translate(228)" xlink:href="#f"/>
       <use transform="translate(263.7)" xlink:href="#a"/>
       <use transform="translate(320.7)" xlink:href="#i"/>
       <use transform="translate(377.7)" xlink:href="#f"/>
       <use transform="translate(413.4)" xlink:href="#g"/>
       <use transform="translate(470.4)" xlink:href="#g"/>
      </g>
     </g>
    </g>
    <g id="eh">
     <g id="ei">
      <path d="m591.09 523.06v-232.9" clip-path="url(#d)" fill="none" stroke="#b0b0b0" stroke-linecap="square" stroke-opacity=".3" stroke-width=".8"/>
     </g>
     <g id="ej">
      <use x="591.090371" y="523.055464" stroke="#000000" stroke-width=".8" xlink:href="#e"/>
     </g>
     <g id="ek">
      <!-- 2025-07-13 -->
      <g transform="translate(544.3 563.33) rotate(-30) scale(.1 -.1)">
       <use xlink:href="#b"/>
       <use transform="translate(57)" xlink:href="#a"/>
       <use transform="translate(114)" xlink:href="#b"/>
       <use transform="translate(171)" xlink:href="#j"/>
       <use transform="translate(228)" xlink:href="#f"/>
       <use transform="translate(263.7)" xlink:href="#a"/>
       <use transform="translate(320.7)" xlink:href="#i"/>
       <use transform="translate(377.7)" xlink:href="#f"/>
       <use transform="translate(413.4)" xlink:href="#g"/>
       <use transform="translate(470.4)" xlink:href="#o"/>
      </g>
     </g>
    </g>
    <g id="el">
     <g id="em">
      <path d="m672.04 523.06v-232.9" clip-path="url(#d)" fill="none" stroke="#b0b0b0" stroke-linecap="square" stroke-opacity=".3" stroke-width=".8"/>
     </g>
     <g id="en">
      <use x="672.035747" y="523.055464" stroke="#000000" stroke-width=".8" xlink:href="#e"/>
     </g>
     <g id="eo">
      <!-- 2025-07-15 -->
      <g transform="translate(625.25 563.33) rotate(-30) scale(.1 -.1)">
       <use xlink:href="#b"/>
       <use transform="translate(57)" xlink:href="#a"/>
       <use transform="translate(114)" xlink:href="#b"/>
       <use transform="translate(171)" xlink:href="#j"/>
       <use transform="translate(228)" xlink:href="#f"/>
       <use transform="translate(263.7)" xlink:href="#a"/>
       <use transform="translate(320.7)" xlink:href="#i"/>
       <use transform="translate(377.7)" xlink:href="#f"/>
       <use transform="translate(413.4)" xlink:href="#g"/>
       <use transform="translate(470.4)" xlink:href="#j"/>
      </g>
     </g>
    </g>
    <g id="ep">
     <g id="eq">
      <path d="m752.98 523.06v-232.9" clip-path="url(#d)" fill="none" stroke="#b0b0b0" stroke-linecap="square" stroke-opacity=".3" stroke-width=".8"/>
     </g>
     <g id="er">
      <use x="752.981123" y="523.055464" stroke="#000000" stroke-width=".8" xlink:href="#e"/>
     </g>
     <g id="es">
      <!-- 2025-07-17 -->
      <g transform="translate(706.19 563.33) rotate(-30) scale(.1 -.1)">
       <use xlink:href="#b"/>
       <use transform="translate(57)" xlink:href="#a"/>
       <use transform="translate(114)" xlink:href="#b"/>
       <use transform="translate(171)" xlink:href="#j"/>
       <use transform="translate(228)" xlink:href="#f"/>
       <use transform="translate(263.7)" xlink:href="#a"/>
       <use transform="translate(320.7)" xlink:href="#i"/>
       <use transform="translate(377.7)" xlink:href="#f"/>
       <use transform="translate(413.4)" xlink:href="#g"/>
       <use transform="translate(470.4)" xlink:href="#i"/>
      </g>
     </g>
    </g>
    <g id="et">
     <g id="eu">
      <path d="m833.93 523.06v-232.9" clip-path="url(#d)" fill="none" stroke="#b0b0b0" stroke-linecap="square" stroke-opacity=".3" stroke-width=".8"/>
     </g>
     <g id="ev">
      <use x="833.926498" y="523.055464" stroke="#000000" stroke-width=".8" xlink:href="#e"/>
     </g>
     <g id="ew">
      <!-- 2025-07-19 -->
      <g transform="translate(787.14 563.33) rotate(-30) scale(.1 -.1)">
       <use xlink:href="#b"/>
       <use transform="translate(57)" xlink:href="#a"/>
       <use transform="translate(114)" xlink:href="#b"/>
       <use transform="translate(171)" xlink:href="#j"/>
       <use transform="translate(228)" xlink:href="#f"/>
       <use transform="translate(263.7)" xlink:href="#a"/>
       <use transform="translate(320.7)" xlink:href="#i"/>
       <use transform="translate(377.7)" xlink:href="#f"/>
       <use transform="translate(413.4)" xlink:href="#g"/>
       <use transform="translate(470.4)" xlink:href="#l"/>
      </g>
     </g>
    </g>
   </g>
   <g id="ex">
    <g id="ey">
     <g id="ez">
      <path d="m52 505.77h801.2" clip-path="url(#d)" fill="none" stroke="#b0b0b0" stroke-linecap="square" stroke-opacity=".3" stroke-width=".8"/>
     </g>
     <g id="fa">
      <use x="52" y="505.769038" stroke="#000000" stroke-width=".8" xlink:href="#h"/>
     </g>
     <g id="fb">
      <!-- 104800 -->
      <g transform="translate(10.8 509.75) scale(.1 -.1)">
       <use xlink:href="#g"/>
       <use transform="translate(57)" xlink:href="#a"/>
       <use transform="translate(114)" xlink:href="#n"/>
       <use transform="translate(171)" xlink:href="#m"/>
       <use transform="translate(228)" xlink:href="#a"/>
       <use transform="translate(285)" xlink:href="#a"/>
      </g>
     </g>
    </g>
    <g id="fc">
     <g id="fd">
      <path d="m52 477.56h801.2" clip-path="url(#d)" fill="none" stroke="#b0b0b0" stroke-linecap="square" stroke-opacity=".3" stroke-width=".8"/>
     </g>
     <g id="fe">
      <use x="52" y="477.557818" stroke="#000000" stroke-width=".8" xlink:href="#h"/>
     </g>
     <g id="ff">
      <!-- 105200 -->
      <g transform="translate(10.8 481.54) scale(.1 -.1)">
       <use xlink:href="#g"/>
       <use transform="translate(57)" xlink:href="#a"/>
       <use transform="translate(114)" xlink:href="#j"/>
       <use transform="translate(171)" xlink:href="#b"/>
       <use transform="translate(228)" xlink:href="#a"/>
       <use transform="translate(285)" xlink:href="#a"/>
      </g>
     </g>
    </g>
    <g id="fg">
     <g id="fh">
      <path d="m52 449.35h801.2" clip-path="url(#d)" fill="none" stroke="#b0b0b0" stroke-linecap="square" stroke-opacity=".3" stroke-width=".8"/>
     </g>
     <g id="fi">
      <use x="52" y="449.346597" stroke="#000000" stroke-width=".8" xlink:href="#h"/>
     </g>
     <g id="fj">
      <!-- 105600 -->
      <g transform="translate(10.8 453.33) scale(.1 -.1)">
       <use xlink:href="#g"/>
       <use transform="translate(57)" xlink:href="#a"/>
       <use transform="translate(114)" xlink:href="#j"/>
       <use transform="translate(171)" xlink:href="#k"/>
       <use transform="translate(228)" xlink:href="#a"/>
       <use transform="translate(285)" xlink:href="#a"/>
      </g>
     </g>
    </g>
    <g id="fk">
     <g id="fl">
      <path d="m52 421.14h801.2" clip-path="url(#d)" fill="none" stroke="#b0b0b0" stroke-linecap="square" stroke-opacity=".3" stroke-width=".8"/>
     </g>
     <g id="fm">
      <use x="52" y="421.135377" stroke="#000000" stroke-width=".8" xlink:href="#h"/>
     </g>
     <g id="fn">
      <!-- 106000 -->
      <g transform="translate(10.8 425.12) scale(.1 -.1)">
       <use xlink:href="#g"/>
       <use transform="translate(57)" xlink:href="#a"/>
       <use transform="translate(114)" xlink:href="#k"/>
       <use transform="translate(171)" xlink:href="#a"/>
       <use transform="translate(228)" xlink:href="#a"/>
       <use transform="translate(285)" xlink:href="#a"/>
      </g>
     </g>
    </g>
    <g id="fo">
     <g id="fp">
      <path d="m52 392.92h801.2" clip-path="url(#d)" fill="none" stroke="#b0b0b0" stroke-linecap="square" stroke-opacity=".3" stroke-width=".8"/>
     </g>
     <g id="fq">
      <use x="52" y="392.924156" stroke="#000000" stroke-width=".8" xlink:href="#h"/>
     </g>
     <g id="fr">
      <!-- 106400 -->
      <g transform="translate(10.8 396.91) scale(.1 -.1)">
       <use xlink:href="#g"/>
       <use transform="translate(57)" xlink:href="#a"/>
       <use transform="translate(114)" xlink:href="#k"/>
       <use transform="translate(171)" xlink:href="#n"/>
       <use transform="translate(228)" xlink:href="#a"/>
       <use transform="translate(285)" xlink:href="#a"/>
      </g>
     </g>
    </g>
    <g id="fs">
     <g id="ft">
      <path d="m52 364.71h801.2" clip-path="url(#d)" fill="none" stroke="#b0b0b0" stroke-linecap="square" stroke-opacity=".3" stroke-width=".8"/>
     </g>
     <g id="fu">
      <use x="52" y="364.712935" stroke="#000000" stroke-width=".8" xlink:href="#h"/>
     </g>
     <g id="fv">
      <!-- 106800 -->
      <g transform="translate(10.8 368.7) scale(.1 -.1)">
       <use xlink:href="#g"/>
       <use transform="translate(57)" xlink:href="#a"/>
       <use transform="translate(114)" xlink:href="#k"/>
       <use transform="translate(171)" xlink:href="#m"/>
       <use transform="translate(228)" xlink:href="#a"/>
       <use transform="translate(285)" xlink:href="#a"/>
      </g>
     </g>
    </g>
    <g id="fw">
     <g id="fx">
      <path d="m52 336.5h801.2" clip-path="url(#d)" fill="none" stroke="#b0b0b0" stroke-linecap="square" stroke-opacity=".3" stroke-width=".8"/>
     </g>
     <g id="fy">
      <use x="52" y="336.501715" stroke="#000000" stroke-width=".8" xlink:href="#h"/>
     </g>
     <g id="fz">
      <!-- 107200 -->
      <g transform="translate(10.8 340.49) scale(.1 -.1)">
       <use xlink:href="#g"/>
       <use transform="translate(57)" xlink:href="#a"/>
       <use transform="translate(114)" xlink:href="#i"/>
       <use transform="translate(171)" xlink:href="#b"/>
       <use transform="translate(228)" xlink:href="#a"/>
       <use transform="translate(285)" xlink:href="#a"/>
      </g>
     </g>
    </g>
    <g id="ga">
     <g id="gb">
      <path d="m52 308.29h801.2" clip-path="url(#d)" fill="none" stroke="#b0b0b0" stroke-linecap="square" stroke-opacity=".3" stroke-width=".8"/>
     </g>
     <g id="gc">
      <use x="52" y="308.290494" stroke="#000000" stroke-width=".8" xlink:href="#h"/>
     </g>
     <g id="gd">
      <!-- 107600 -->
      <g transform="translate(10.8 312.28) scale(.1 -.1)">
       <use xlink:href="#g"/>
       <use transform="translate(57)" xlink:href="#a"/>
       <use transform="translate(114)" xlink:href="#i"/>
       <use transform="translate(171)" xlink:href="#k"/>
       <use transform="translate(228)" xlink:href="#a"/>
       <use transform="translate(285)" xlink:href="#a"/>
      </g>
     </g>
    </g>
   </g>
   <g id="ge">
    <path d="m88.418 512.47h.15084l.83896-.28211 1.2643-.4937.43705-.28211 1.2395-.21158.84318.14106.42159-.21158.42159-.35264h.42159l.84318-.91686.84318-.14106.84318-.63475 1.2648.14106.42159-.070528.42159-.28211.42159-.42317.42159-.70528.84318-.63475h.42159l.84318-.63475.42159-.42317 1.2648-2.539 1.2648-.98739.42159-.21158.42159.070528.42159-.35264h1.2648l.42159-.28211h.42159l.84318-.56422 2.108-.42317.42159.14106.42159-.070528.42159.070528 2.108-.28211 1.6864-.070528 1.2648-.14106 5.4807-.070528.84318-.070529h.42159l.42159-.14106h.84318l.42159-.28211 1.2648-.35264.84318-.21158.84318-.28211h.42159l.84318-.42317 1.2648-.28211 2.108-.77581.84318-.35264.84318-.21158m.84318-.42317.42159-.28211.42159-.63475.42159-.35264 1.2648-.28211.84318-.28211.84318-.56422.42159-.91686.42159-.28211.84318-1.4811h.42159l.84318-.98739.42159-.21158.42159-.4937 1.6864-1.1284.42159.070528 1.2648-.84634.42159-.14106.84318-.070528 1.2648-.21158.42159.14106h.42159l.84318-.4937.84318-.14106.42159.070528.42159-.14106.42159.070528 2.108-.28211.84318.070528.84318-.070528.84318.070528h2.5295l.84318-.21158.84318.21158.42159.070528 1.2648-.35264h.42159l.42159-.14106h.42159l.42159-.28211.84318-.21158.42159-.35264 1.6864.070528.42159.070528.42159-.070528.42159-.21158 1.2648-.14106.42159.14106 1.2648-.14106h.42159l1.2648-.77581.42159-.070528.42159-.28211.42159.070528.84318-.14106.42159.070528.42159-.28211.42159-.14106h.84318l.42159-.4937.84318-.4937.42159-.4937 1.2648-.4937.84318-.4937.42159-.70528.42159-.070528.42159-.28211.42159-.77581 1.2648-1.199.42159-.14106.42159.21158.42159-.14106.42159-.35264 1.6864-.4937.42159-.070528.42159.070528.42159-.21158.84318.070528h2.108l.42159-.14106.84318.14106 1.2648-.14106 2.9511-.070528.42159.21158h.42159l1.6864-.4937.98371-.070528.14053-.070528.42159.14106h.70265l.28106-.14106 1.1242.070528.28106.14106.70265-.070528.28106-.070528h.28106l.14053-.14106.28106.14106.28106-.070528h.28106l.28106-.14106.56212.14106.28106-.070528 1.2648-.070528.28106-.21158.14053-.14106.56212.28211.70265-.28211.28106.070528.56212-.21158.98371.070528.28106.14106.84318-.70528h.14053l.56212-.4937h1.5458l.28106-.14106.70265-.070528 1.4053-.63475h.42159l.42159-.21158.14053-.21158.14053.14106.14053-.070528.14053.14106.28106-.28211.28106-.14106.28106-.070528.42159-.21158.14053.070528.84318-.77581.28106-.070528.28106-.14106.28106-.70528.98371-.98739.14053.14106.28106-.14106.14053-.21158h.14053l.14053.14106.28106-.070528.28106-.4937h.28106l.14053-.42317.14053.070528.70265-.28211h.14053l.28106-.35264.28106-.21158.56212-.070528.28106-.21158.42159-.070528.28106-.070528h.42159l.42159-.28211.56212-.21158.98371-.070528.28106-.070528 1.8269-.070529.28106-.070528 3.0917-.070528.28106-.070528 2.2485-.070528.70265-.28211 3.3727-.070528 1.1242-.28211.28106-.21158 1.9674.070528.28106.14106 1.1242-.21158 1.4053-.070528.56212-.35264.84318-.070528.56212-.28211h.28106l.56212-.21158h.28106l.84318-.70528.28106-.14106.84318-.070528.28106-.28211 1.6864-.42317.28106.070528.28106-.14106.56212-.070528.84318-.21158.28106.070529.28106-.21158.28106-.070528.56212-.4937.28106-.070528.56212-.70528.28106-.21158h.28106l1.1242-.70528 1.4053-.35264 1.1242-1.199.28106-.42317h.28106l.84318-.84634h.28106l.28106-.21158.28106-.35264.56212-.28211.28106.070528 1.4053-1.4106h.28106l.28106-.42317 1.1242-.21158h1.9674l.28106-.14106h.28106l.28106-.14106 1.1242-.14106.84318-.070528 2.2485-.4937 2.8106.070528.56212.070528.84318-.070528.28106-.21158.84318.14106.28106-.070528.56212.070528h1.4053l.84318-.35264h1.1242l.56212-.28211h.84318l.28106-.14106.84318-.070528.28106-.070528.28106.070528.28106-.14106.28106.070528.84318-.21158.28106-.21158.28106.070528.84318-.98739.56212.21158.28106-.21158h.56212l.56212-.28211.84318-.070528.56212-.63475h.28106l.56212-.21158.28106.070528.28106-.28211.28106-.070528.28106.070528.28106-.070528.28106.14106.28106-.14106.28106.070528.28106-.070528.84318-.63475h.28106l.28106-.14106.84318-1.2695.84318-.4937.28106-.56422.28106-.070528.84318-.84634.28106.070528.84318-.56422.56212-1.1284.56212-.070528.56212-.63475 1.1242-.35264.28106-.21158.28106-.070528.28106-.21158 1.1242-.35264.56212-.63475.56212-.070528 1.1242-.21158.28106-.35264 1.9674-.070528.56212-.21158.84318-.070528.84318-.21158.28106.070528.56212-.070528.84318.070528.56212.070528.56212-.28211 1.1242.070528.28106.21158h2.5295l.56212-.35264h.28106l.56212-.21158 1.1242.070528.56212.070528.28106-.14106h.28106l.28106-.28211h.28106l.28106-.21158 1.1242-.35264.28106-.14106.56212-.070528.84318-.77581h.28106l.28106-.14106h.56212l.56212.21158h.28106l.56212-.21158.28106-.35264 1.4053-.42317.28106-.14106.84318-.070528.28106-.14106.84318.14106.84318-.070528.56212-.21158.56212-.14106 1.4053-1.0579.28106-.070528.28106.070528.28106-.21158h.56212l.28106-.35264.56212-.28211.56212-.56422.84318.070528.56212-.42317.28106.070528.56212-.42317.28106-.42317.28106.14106.28106-.28211.28106-.070528.28106.21158.28106-.28211.56212.14106.56212-.42317.28106-.070528.28106-.21158.56212.070528.28106-.21158h.28106l.28106.14106.28106-.070528.28106-.35264.28106.070528.84318-.21158.28106.070528.28106-.070528.56212.070528 1.9674.070528.28106.21158 1.9674-.070528.56212-.070528 1.4053.070528.28106.14106.28106-.14106h1.1242l.28106-.14106.84318.070528.56212.070528 2.5295-.070528.56212-.070528 1.1242.070528.28106-.21158 1.1242-.21158.28106.14106.28106-.21158.56212-.070528.84318.14106.28106-.21158.56212-.070529h.28106l.56212-.21158 3.0917-.070528.56212-.21158.56212-.28211 1.4053-.070528.56212-.28211.84318-.63475h.28106l.28106-.14106.56212.070528 1.1242-.84634.28106.14106.28106-.14106.28106-.42317.84318-.4937.28106-.21158h.28106l.56212-.84634.84318-.63475.28106-.42317h.28106l.56212-.63475.28106.14106.56212-.070528.28106-.42317.28106.070528.84318-.63475.28106-.070528.28106-.42317h.28106l.56212-.35264.84318-.35264 1.1242-.070528.84318-.35264 1.6864.070528.56212.070528 1.9674.070528.56212.070528 1.1242-.14106.28106-.070528.28106.070528.56212-.070528h2.8106l.28106-.14106.84318-.070528.56212-.070528 1.1242-.070528.28106-.070528.84318.28211.56212-.21158 1.4053-.070528.84318-.14106.56212-.070528.28106-.14106 1.6864.070529.28106-.21158.84318-.21158.56212-.35264h.28106l.28106-.14106.56212-.42317.28106.070528.84318-.21158.56212.14106.56212-.070529.28106.070529 1.6864-.84634.56212-.070528.84318-.21158.28106-.21158.56212-.070529.28106-.42317.28106-.14106.28106.070528.28106-.28211.28106-.070528.84318-1.6221.28106-.28211h.28106l.28106-.14106.56212-.4937.28106-.14106.28106-.4937 1.6864-1.2695.56212-.56422.28106-.28211.28106-.4937 1.1242-.35264.28106.14106.28106-.070528.28106-.21158.28106-.070528.28106-.28211h.28106l.28106-.14106.28106.070528 1.9674-.42317.84318-.070528.56212-.14106.56212.070528 1.6864-.070528.28106-.070529.28106.070529.56212-.070529.56212.070529 1.6864-.070529.28106-.070528.56212.070528 1.1242-.070528 1.6864-.35264m.56212.21158.28106-.14106h.28106l.28106-.14106h3.0917l.28106-.21158 1.1242-.14106.28106-.070528.28106.070528.56212-.35264.28106.070528.56212-.070528.28106.070528.28106-.14106.56212.14106.28106-.14106.84318-.070529.56212-.28211.56212.28211.56212-.35264.84318-.28211.84318-.35264.28106-.35264.28106-.14106h.28106l.28106-.21158h.56212l.56212-.4937.56212.28211.28106-.28211.28106-.4937.56212-.28211h.28106l1.1242-.63475.56212-.4937.56212-.14106.28106-.4937.28106-.21158.28106-.63475.84318-.70528h.28106l.56212-.56422.84318-.28211.28106-.14106.56212-.42317.28106-.070528.28106-.28211.56212.070528.28106-.21158.56212.14106.28106-.28211h.56212l.28106-.21158.84318-.070528 1.1242-.14106.28106-.070528.28106.070528 1.1242-.56422 1.4053-.070528.28106-.070528.84318.14106 1.4053-.070528.28106-.070528.56212.14106.84318-.14106.28106.070528.28106-.070528.84318.14106h.56212l.28106-.28211 2.2485-.070528.84318-.14106.84318.14106 1.1242-.070528.28106-.21158.84318-.070528.84318-.35264 1.1242-.21158.56212-.070528 1.4053-.28211.84318-.070528.28106-.14106h.28106l.28106-.28211h.28106l.56212-.70528.56212-.35264.28106-.21158 1.1242-.28211.28106-.35264.28106-.14106h.28106l.84318-.35264h.28106l.28106-.28211.56212-.070528.56212-.70528.56212-.35264 2.2485-1.6927.28106-.070528 1.1242-1.1284.28106.070528.56212-1.0579.56212-.42317.56212-.070528.28106-.4937h.28106l.56212-.28211.28106-.28211h.28106l.56212-.28211.28106-.42317.28106-.070528.56212-.35264.56212.070528.28106-.35264.56212-.21158 1.4053-.070528.28106.28211.56212.070528h.28106l.28106-.21158.84318-.14106 1.6864-.070528.56212-.070528.28106-.28211.84318-.070528.56212-.070528 5.6212-.070528.56212-.14106.28106.070528 1.6864-.4937.28106-.14106h.28106l.28106-.14106h.28106l.28106-.14106.84318.14106.56212-.070528h.56212l.56212-.21158.28106-.35264 1.1242-.4937h.56212l.56212-.28211.28106.070528.56212-.21158.28106.14106.28106-.14106.56212-.070528.56212-.42317.56212-.28211h.28106l.56212-.21158.28106.14106.56212-.21158.28106-.35264 1.4053-.63475.28106.070528.84318-.35264.28106.070528.28106-.21158h.28106l1.1242-.77581.28106-.14106 1.4053-1.34h.28106l.28106-.28211.28106-.070528 1.4053-2.1864.56212-.070528 1.4053-1.2695.28106-.14106.28106-.28211.28106-.070528.56212-.4937.28106-.28211.84318-.21158.56212-.35264 1.6864-.35264.28106.070528.56212-.070528.84318.14106 1.4053-.070528.56212-.070528 1.4053-.070528.56212-.070528.56212.070528.84318.070528.84318.14106.28106-.14106.56212.070528 1.1242.21158.28106-.14106.28106.14106.56212-.070528.28106-.28211 1.1242-.28211.56212.14106 1.1242-.42317h.28106l.28106-.14106.56212-.070528 1.6864-.35264.28106.070528.28106-.14106h.28106l.84318-.70528h.28106l1.4053-.63475 1.4053-.35264.28106-.35264.56212.070528.84318-.70528.28106-.21158.28106.070528.28106-.070528.28106-.28211.56212.4937.56212.21158 1.4053-.35264.28106-.35264.28106-.070528.56212-.4937h.28106l.56212-.28211.28106.070528.28106-.35264.28106-.14106.56212-.56422.28106-.4937.56212-.4937.28106-.4937.28106-.14106.56212-.70528h.28106l.56212-.63475.28106.070528.56212-.42317.28106-.70528.28106-.070528.28106-.4937.28106-.070528.28106-.28211.28106-.56422.56212-.35264.56212-.070528.56212-.63475.56212-.070528.56212-.42317.28106-.42317.28106-.070528.28106-.21158.28106-.070528.84318-.84634.56212-.070528 1.1242.28211.28106-.21158.28106-.070528.84318.14106 1.6864-.070528 1.1242-.21158 1.9674-.070528.84318-.14106 1.9674-.070528 1.1242-.21158h.84318l.56212-.28211.28106.070528.28106-.070528.28106.070528.28106-.070528.56212.070528.56212-.070528.56212.070528.28106-.21158 1.1242-.28211.28106-.21158h.28106l.56212-.35264.56212-.21158.28106-.14106.56212.070528 1.4053-.35264.28106-.28211.56212-.14106.28106.070528.28106.28211.28106.070528.28106-.14106.28106.070528.84318-.63475.28106.14106.28106-.070528.56212-.42317.56212.070528h.28106l.28106-.28211.28106.070528.56212-.4937h.56212l.56212-.21158.28106.070528.28106-.070528.28106.070528 1.1242-.98739.56212-.35264.56212-.70528.28106-.070528.28106-.56422.28106.070528.28106-.42317.28106-.070528.28106-.42317.56212-.28211.56212-.63475h.28106l.28106-.4937.28106-.070528.56212-.56422.28106.14106 1.1242-.4937.56212.21158.56212-.21158 1.6864-.35264 1.1242-.070528 1.4053-.28211 1.1242-.14106 1.4053-.070528 1.6864-.35264h1.9674l.28106.14106h.56212l.56212.14106.28106-.14106h.56212l.28106-.14106.28106.070528 1.1242-.28211.56212.070528h.28106l.28106-.21158 2.5295-.070528.84318-.42317 1.4053-.070528.56212-.21158.28106.14106.28106-.21158.56212-.070528h.28106l.28106-.14106.84318.070528.56212.21158.56212-.070528.28106-.14106.56212.070528.28106-.14106.28106.070528 1.1242-.35264.56212-.42317.28106.21158.28106-.21158.28106-.070528.28106-.21158h.56212l.28106-.21158h.28106l.28106-.42317.28106.21158h.28106l.28106-.70528.84318-.4937.56212-.35264.28106-.14106.56212-1.0579.28106.14106.28106-.14106h.28106l1.1242-1.199.28106.070528.56212-.4937.28106-.4937.28106.14106.28106-.21158.28106-.070528.28106-.21158.28106-.070528.28106-.35264.56212.070528.28106-.14106.28106-.28211.28106-.070528.28106-.35264.28106-.14106.28106.070528 1.9674-.91686 1.4053-.070528.84318-.14106h.84318l.28106-.14106 1.6864-.070528 1.1242-.28211.56212.070528h.28106l.28106-.14106 1.1242.070528.84318.14106 1.1242-.21158 1.1242-.14106 1.4053-.070528 1.1242-.21158.84318.070528 1.1242.21158h.28106l.28106-.21158.28106-.070528.84318-.70528h2.5295l.28106-.14106.28106.070528.56212-.14106.28106.070528.56212-.21158 1.1242-.21158.28106-.35264.56212-.21158.28106.070528.28106.21158h.28106l.28106-.21158.28106-.35264.28106-.070528.28106-.21158.28106-.070528.28106.14106.84318-.4937.28106-.21158h.28106l1.1242-1.1284.56212-.14106.84318-.98739.28106-.35264.84318-.4937.56212-.70528.28106-.14106.28106-.56422.28106-.21158.84318-.28211.28106.14106.28106-.28211.56212-.21158.28106-.21158.28106.14106.28106-.28211h.28106l.28106-.14106.84318-.91686 1.4053.070528.28106-.21158 1.1242-.070528.84318-.14106.84318.14106 2.2485-.070528.84318-.14106h3.6538l.28106-.28211 1.4053-.070529 1.4053-.28211 1.9674-.070528.56212-.21158.28106.070528 1.1242-.14106 1.4053-.42317.28106-.14106.28106-.35264.56212-.21158.28106-.21158 1.1242-.35264.28106.14106h.28106l.28106-.21158h.56212l.56212-.35264.28106.070529.28106-.14106.28106.14106 1.1242-.4937.28106.070528 1.9674-.56422.28106.14106.56212-.14106.28106-.21158.56212-.070528.28106.070528.56212-.21158 1.1242-.4937.28106-.070528.28106-.42317.28106-.21158.28106-.35264.56212-.21158.28106-.14106.28106-.35264.28106.070528.28106-.070528.56212-.35264.28106-.42317.56212-.35264.28106-.56422 1.1242-.4937.28106-.42317.28106-.14106.28106-.56422.84318-.63475.28106-.35264.56212-.070528.28106.21158.56212-.21158.28106-.21158h.28106l.28106.14106 1.1242-.35264.84318-.42317.28106.070528 1.1242-.21158 1.9674-.070528.56212-.070528 3.3727.070528.28106.14106 1.1242-.14106 2.8106.070528 1.6864.21158.84318-.28211.56212-.21158 1.1242-.21158.56212.14106.28106-.070528.28106.14106.28106-.070528.28106-.21158.28106.21158h.84318l.28106-.21158.28106.070529.56212-.35264.28106.14106.28106-.28211.28106.21158 1.4053-.070528m1.1242 0 .84318-.14106.56212-.35264.28106-.35264.56212-.070528h.28106l.56212-.42317.56212.14106.56212-.35264.28106.14106.28106-.35264.28106.21158.28106-.070528.84318-1.0579.28106-.070528.28106-.28211.28106.070528.28106-.14106.28106-.63475 1.4053-1.5516.28106-.42317.28106-.070528.84318-.70528.28106-.21158.28106-.42317h.28106l.28106-.63475.56212-.63475h.56212l.28106-.14106.28106-.28211.28106.070528.28106-.070528.56212-.35264h.28106l.56212-.35264.84318-.4937.28106-.21158 1.4053-.070528.28106-.14106.84318-.070528 1.1242-.21158.56212.14106 1.1242-.21158.28106.14106 2.5295.070529.28106.14106 1.4053-.070528.84318-.14106.56212.14106.56212-.070528.28106.070528.84318-.28211.28106-.14106.56212-.070528.28106-.21158.56212-.070528.28106-.070528.56212.070528h.84318l.28106-.21158.56212-.070528.84318-.070528.84318-.35264h.28106v0" clip-path="url(#d)" fill="none" stroke="#28f" stroke-linecap="square" stroke-width="1.5"/>
   </g>
   <g id="gf">
    <path d="m52 523.06v-232.9" fill="none" stroke="#000" stroke-linecap="square" stroke-width=".8"/>
   </g>
   <g id="gg">
    <path d="m853.2 523.06v-232.9" fill="none" stroke="#000" stroke-linecap="square" stroke-width=".8"/>
   </g>
   <g id="gh">
    <path d="m52 523.06h801.2" fill="none" stroke="#000" stroke-linecap="square" stroke-width=".8"/>
   </g>
   <g id="gi">
    <path d="m52 290.16h801.2" fill="none" stroke="#000" stroke-linecap="square" stroke-width=".8"/>
   </g>
   <g id="gj">
    <!-- サーバー数の推移 -->
    <g transform="translate(404.6 284.16) scale(.12 -.12)">
     <defs>
      <path id="z" transform="scale(.015625)" d="m4685 2893q0-621-84-1111-83-489-288-877-204-387-569-691t-928-560l-544 512q448 167 781 371 333 205 550 503 218 298 323 739 106 442 106 1075v1620q0 192-10 339-9 147-22 217h723q-6-70-22-217t-16-339v-1581zm-2304 2086q-7-64-23-199-16-134-16-313v-2317q0-128 6-256 7-128 13-224 7-96 13-140h-710q6 44 12 140 7 96 13 221 7 125 7 259v2317q0 122-10 256-9 135-28 256h723zm-1978-1197q45-12 144-22t237-20q138-9 285-9h4217q237 0 394 13t246 26v-679q-76 7-240 13-163 6-393 6h-4224q-147 0-282-3-134-3-234-10-99-6-150-12v697z"/>
      <path id="s" transform="scale(.015625)" d="m621 2854q109-6 265-16 157-9 339-16 183-6 349-6 128 0 352 0t509 0 598 0q314 0 624 0 311 0 586 0t486 0q212 0 327 0 230 0 416 16t301 22v-793q-109 6-308 19-198 13-409 13-109 0-324 0-214 0-489 0t-586 0q-310 0-624 0-313 0-598 0t-509 0-352 0q-262 0-525-10-262-9-428-22v793z"/>
      <path id="y" transform="scale(.015625)" d="m4941 5037q83-109 176-269t182-320q90-160 154-288l-416-179q-96 192-240 448t-272 435l416 173zm723 275q83-122 182-282 100-160 196-317 96-156 153-271l-416-186q-102 205-246 454-144 250-279 429l410 173zm-4339-3360q102 262 201 556 100 295 183 612t144 630q61 314 93 602l723-147q-19-83-45-183-26-99-48-195t-42-166q-32-154-86-394t-131-512-164-551q-86-278-182-514-115-301-269-618-153-317-326-618-173-300-346-550l-697 294q301 397 563 874t429 880zm3155 198q-96 250-215 531-118 282-243 567-124 285-246 534-122 250-224 429l659 218q96-179 221-429t253-535q128-284 249-566 122-281 218-525 90-230 195-518 106-288 211-592 106-304 195-589 90-285 154-515l-729-237q-84 352-199 736t-240 768-259 723z"/>
     </defs>
     <use xlink:href="#z"/>
     <use transform="translate(100)" xlink:href="#s"/>
     <use transform="translate(200)" xlink:href="#y"/>
     <use transform="translate(300)" xlink:href="#s"/>
     <use transform="translate(400)" xlink:href="#q"/>
     <use transform="translate(500)" xlink:href="#t"/>
     <use transform="translate(600)" xlink:href="#r"/>
     <use transform="translate(700)" xlink:href="#p"/>
    </g>
   </g>
  </g>
 </g>
 <defs>
  <clipPath id="c">
   <rect x="52" y="26.88" width="801.2" height="232.9"/>
  </clipPath>
  <clipPath id="d">
   <rect x="52" y="290.16" width="801.2" height="232.9"/>
  </clipPath>
 </defs>
</svg>
