<!DOCTYPE svg  PUBLIC '-//W3C//DTD SVG 1.1//EN'  'http://www.w3.org/Graphics/SVG/1.1/DTD/svg11.dtd'>
<svg version="1.1" viewBox="0 0 864 576" xmlns="http://www.w3.org/2000/svg" xmlns:xlink="http://www.w3.org/1999/xlink">
 <defs>
  <style type="text/css">*{stroke-linejoin: round; stroke-linecap: butt}</style>
 </defs>
 <g id="aa">
  <g id="ab">
   <path d="m0 576h864v-576h-864z" fill="#fff"/>
  </g>
  <g id="ac">
   <g id="ad">
    <path d="m52 259.78h801.2v-232.9h-801.2z" fill="#fff"/>
   </g>
   <g id="ae">
    <path d="m131.71 259.78h.77776v-232.9h-.77776z" clip-path="url(#c)" fill="#808080" opacity=".3" stroke="#808080"/>
   </g>
   <g id="af">
    <path d="m418.05 259.78h.5185v-232.9h-.5185z" clip-path="url(#c)" fill="#808080" opacity=".3" stroke="#808080"/>
   </g>
   <g id="ag">
    <path d="m726.56 259.78h1.037v-232.9h-1.037z" clip-path="url(#c)" fill="#808080" opacity=".3" stroke="#808080"/>
   </g>
   <g id="ah">
    <g id="ai">
     <g id="aj">
      <path d="m104.1 259.78v-232.9" clip-path="url(#c)" fill="none" stroke="#b0b0b0" stroke-linecap="square" stroke-opacity=".3" stroke-width=".8"/>
     </g>
     <g id="ak">
      <defs>
       <path id="g" d="m0 0v3.5" stroke="#000" stroke-width=".8"/>
      </defs>
      <use x="104.099018" y="259.777732" stroke="#000000" stroke-width=".8" xlink:href="#g"/>
     </g>
    </g>
    <g id="al">
     <g id="am">
      <path d="m253.43 259.78v-232.9" clip-path="url(#c)" fill="none" stroke="#b0b0b0" stroke-linecap="square" stroke-opacity=".3" stroke-width=".8"/>
     </g>
     <g id="an">
      <use x="253.427972" y="259.777732" stroke="#000000" stroke-width=".8" xlink:href="#g"/>
     </g>
    </g>
    <g id="ao">
     <g id="ap">
      <path d="m402.76 259.78v-232.9" clip-path="url(#c)" fill="none" stroke="#b0b0b0" stroke-linecap="square" stroke-opacity=".3" stroke-width=".8"/>
     </g>
     <g id="aq">
      <use x="402.756925" y="259.777732" stroke="#000000" stroke-width=".8" xlink:href="#g"/>
     </g>
    </g>
    <g id="ar">
     <g id="as">
      <path d="m552.09 259.78v-232.9" clip-path="url(#c)" fill="none" stroke="#b0b0b0" stroke-linecap="square" stroke-opacity=".3" stroke-width=".8"/>
     </g>
     <g id="at">
      <use x="552.085878" y="259.777732" stroke="#000000" stroke-width=".8" xlink:href="#g"/>
     </g>
    </g>
    <g id="au">
     <g id="av">
      <path d="m701.41 259.78v-232.9" clip-path="url(#c)" fill="none" stroke="#b0b0b0" stroke-linecap="square" stroke-opacity=".3" stroke-width=".8"/>
     </g>
     <g id="aw">
      <use x="701.414832" y="259.777732" stroke="#000000" stroke-width=".8" xlink:href="#g"/>
     </g>
    </g>
    <g id="ax">
     <g id="ay">
      <path d="m850.74 259.78v-232.9" clip-path="url(#c)" fill="none" stroke="#b0b0b0" stroke-linecap="square" stroke-opacity=".3" stroke-width=".8"/>
     </g>
     <g id="az">
      <use x="850.743785" y="259.777732" stroke="#000000" stroke-width=".8" xlink:href="#g"/>
     </g>
    </g>
   </g>
   <g id="ba">
    <g id="bb">
     <g id="bc">
      <path d="m52 246.93h801.2" clip-path="url(#c)" fill="none" stroke="#b0b0b0" stroke-linecap="square" stroke-opacity=".3" stroke-width=".8"/>
     </g>
     <g id="bd">
      <defs>
       <path id="e" d="m0 0h-3.5" stroke="#000" stroke-width=".8"/>
      </defs>
      <use x="52" y="246.926099" stroke="#000000" stroke-width=".8" xlink:href="#e"/>
     </g>
     <g id="be">
      <!-- 300 -->
      <g transform="translate(27.9 250.91) scale(.1 -.1)">
       <defs>
        <path id="r" transform="scale(.015625)" d="m1715-90q-371 0-656 90t-503 240q-217 150-377 323l359 474q211-205 479-359 269-153 634-153 269 0 467 92 199 93 311 266t112 423q0 256-125 451t-429 300q-304 106-835 106v551q467 0 732 105 266 106 384 291 119 186 119 423 0 307-192 489-192 183-531 183-269 0-503-119-233-118-438-316l-384 460q282 256 614 413 333 157 737 157 422 0 748-144 327-144 512-413 186-269 186-659 0-403-221-685-221-281-592-422v-26q269-70 490-227t349-400 128-557q0-422-215-726-214-304-573-468-358-163-787-163z"/>
        <path id="a" transform="scale(.015625)" d="m1830-90q-460 0-806 275-346 276-535 823-188 547-188 1366 0 820 188 1357 189 538 535 803 346 266 806 266 461 0 800-269 340-269 528-803 189-534 189-1354 0-819-189-1366-188-547-528-823-339-275-800-275zm0 589q237 0 422 185 186 186 288 599 103 413 103 1091 0 679-103 1082-102 403-288 582-185 180-422 180-236 0-422-180-186-179-292-582-105-403-105-1082 0-678 105-1091 106-413 292-599 186-185 422-185z"/>
       </defs>
       <use xlink:href="#r"/>
       <use transform="translate(57)" xlink:href="#a"/>
       <use transform="translate(114)" xlink:href="#a"/>
      </g>
     </g>
    </g>
    <g id="bf">
     <g id="bg">
      <path d="m52 220.79h801.2" clip-path="url(#c)" fill="none" stroke="#b0b0b0" stroke-linecap="square" stroke-opacity=".3" stroke-width=".8"/>
     </g>
     <g id="bh">
      <use x="52" y="220.787184" stroke="#000000" stroke-width=".8" xlink:href="#e"/>
     </g>
     <g id="bi">
      <!-- 600 -->
      <g transform="translate(27.9 224.77) scale(.1 -.1)">
       <defs>
        <path id="k" transform="scale(.015625)" d="m1971-90q-339 0-634 144-294 144-518 435-224 292-352 733-128 442-128 1044 0 678 147 1161 148 483 397 784 250 301 570 445t665 144q397 0 688-147 292-147 490-359l-403-448q-128 154-327 253-198 99-409 99-307 0-567-182-259-182-413-605-153-422-153-1145 0-608 115-1002t326-589q212-195 493-195 212 0 375 121 163 122 259 343t96 522q0 300-90 511-89 212-259 320-169 109-419 109-211 0-451-134t-458-461l-25 538q134 192 313 323t374 201q196 71 375 71 397 0 694-163 298-163 467-490 170-326 170-825 0-468-195-817-195-348-512-544-317-195-701-195z"/>
       </defs>
       <use xlink:href="#k"/>
       <use transform="translate(57)" xlink:href="#a"/>
       <use transform="translate(114)" xlink:href="#a"/>
      </g>
     </g>
    </g>
    <g id="bj">
     <g id="bk">
      <path d="m52 194.65h801.2" clip-path="url(#c)" fill="none" stroke="#b0b0b0" stroke-linecap="square" stroke-opacity=".3" stroke-width=".8"/>
     </g>
     <g id="bl">
      <use x="52" y="194.648269" stroke="#000000" stroke-width=".8" xlink:href="#e"/>
     </g>
     <g id="bm">
      <!-- 900 -->
      <g transform="translate(27.9 198.63) scale(.1 -.1)">
       <defs>
        <path id="q" transform="scale(.015625)" d="m1562-90q-410 0-708 150-297 151-502 356l403 461q141-160 346-256t422-96q224 0 425 102 202 103 352 333 151 230 237 614 87 384 87 941 0 589-115 970t-323 563-496 182q-205 0-372-118-166-118-262-336t-96-525q0-301 86-512 87-211 259-323 173-112 417-112 224 0 460 141 237 141 448 461l32-544q-134-180-313-314t-371-208-384-74q-391 0-689 166-297 167-467 496-169 330-169 823 0 467 195 816t515 541 698 192q339 0 636-138 298-137 519-419 221-281 349-710t128-1018q0-691-141-1187t-391-807q-249-310-563-461-313-150-652-150z"/>
       </defs>
       <use xlink:href="#q"/>
       <use transform="translate(57)" xlink:href="#a"/>
       <use transform="translate(114)" xlink:href="#a"/>
      </g>
     </g>
    </g>
    <g id="bn">
     <g id="bo">
      <path d="m52 168.51h801.2" clip-path="url(#c)" fill="none" stroke="#b0b0b0" stroke-linecap="square" stroke-opacity=".3" stroke-width=".8"/>
     </g>
     <g id="bp">
      <use x="52" y="168.509354" stroke="#000000" stroke-width=".8" xlink:href="#e"/>
     </g>
     <g id="bq">
      <!-- 1200 -->
      <g transform="translate(22.2 172.49) scale(.1 -.1)">
       <defs>
        <path id="f" transform="scale(.015625)" d="m544 0v608h1037v3277h-845v467q333 58 579 147 247 90 451 218h557v-4109h915v-608h-2694z"/>
        <path id="d" transform="scale(.015625)" d="m282 0v429q697 621 1164 1136 468 515 701 956 234 442 234 826 0 256-87 451-86 196-262 301-176 106-445 106-275 0-506-151-230-150-422-368l-416 410q301 333 637 518 336 186 803 186 429 0 749-176t496-493 176-745q0-455-224-919t-615-935q-390-470-889-950 186 20 394 36t374 16h1184v-634h-3046z"/>
       </defs>
       <use xlink:href="#f"/>
       <use transform="translate(57)" xlink:href="#d"/>
       <use transform="translate(114)" xlink:href="#a"/>
       <use transform="translate(171)" xlink:href="#a"/>
      </g>
     </g>
    </g>
    <g id="br">
     <g id="bs">
      <path d="m52 142.37h801.2" clip-path="url(#c)" fill="none" stroke="#b0b0b0" stroke-linecap="square" stroke-opacity=".3" stroke-width=".8"/>
     </g>
     <g id="bt">
      <use x="52" y="142.370439" stroke="#000000" stroke-width=".8" xlink:href="#e"/>
     </g>
     <g id="bu">
      <!-- 1500 -->
      <g transform="translate(22.2 146.36) scale(.1 -.1)">
       <defs>
        <path id="j" transform="scale(.015625)" d="m1715-90q-365 0-653 90t-506 237q-217 147-383 307l352 480q134-134 294-246t361-183q202-70 452-70 262 0 473 118 212 119 333 346 122 227 122 541 0 460-247 716-246 256-649 256-224 0-384-64t-365-198l-365 237 141 2240h2387v-627h-1747l-109-1204q154 77 307 118 154 42 340 42 397 0 723-160t518-490q192-329 192-847 0-519-224-887t-586-560q-361-192-777-192z"/>
       </defs>
       <use xlink:href="#f"/>
       <use transform="translate(57)" xlink:href="#j"/>
       <use transform="translate(114)" xlink:href="#a"/>
       <use transform="translate(171)" xlink:href="#a"/>
      </g>
     </g>
    </g>
    <g id="bv">
     <g id="bw">
      <path d="m52 116.23h801.2" clip-path="url(#c)" fill="none" stroke="#b0b0b0" stroke-linecap="square" stroke-opacity=".3" stroke-width=".8"/>
     </g>
     <g id="bx">
      <use x="52" y="116.231524" stroke="#000000" stroke-width=".8" xlink:href="#e"/>
     </g>
     <g id="by">
      <!-- 1800 -->
      <g transform="translate(22.2 120.22) scale(.1 -.1)">
       <defs>
        <path id="l" transform="scale(.015625)" d="m1830-90q-441 0-787 163-345 164-547 448-202 285-202 650 0 314 122 557t314 419 403 291v32q-256 186-442 458-185 272-185 643 0 365 176 640t480 425q304 151 694 151 410 0 704-160t457-439q164-278 164-649 0-237-96-448t-234-381q-137-169-291-278v-32q218-115 397-285 179-169 288-406t109-557q0-346-189-628-189-281-532-448-342-166-803-166zm314 2708q205 198 310 419 106 221 106 464 0 211-83 384t-247 272q-163 99-393 99-288 0-480-183-192-182-192-502 0-256 134-429 135-172 359-294t486-230zm-294-2170q236 0 418 89 183 90 285 253 103 164 103 388 0 211-90 367-89 157-246 272-157 116-368 215t-454 195q-244-173-398-426-153-252-153-553 0-237 118-416 119-179 324-282 205-102 461-102z"/>
       </defs>
       <use xlink:href="#f"/>
       <use transform="translate(57)" xlink:href="#l"/>
       <use transform="translate(114)" xlink:href="#a"/>
       <use transform="translate(171)" xlink:href="#a"/>
      </g>
     </g>
    </g>
    <g id="bz">
     <g id="ca">
      <path d="m52 90.093h801.2" clip-path="url(#c)" fill="none" stroke="#b0b0b0" stroke-linecap="square" stroke-opacity=".3" stroke-width=".8"/>
     </g>
     <g id="cb">
      <use x="52" y="90.092609" stroke="#000000" stroke-width=".8" xlink:href="#e"/>
     </g>
     <g id="cc">
      <!-- 2100 -->
      <g transform="translate(22.2 94.078) scale(.1 -.1)">
       <use xlink:href="#d"/>
       <use transform="translate(57)" xlink:href="#f"/>
       <use transform="translate(114)" xlink:href="#a"/>
       <use transform="translate(171)" xlink:href="#a"/>
      </g>
     </g>
    </g>
    <g id="cd">
     <g id="ce">
      <path d="m52 63.954h801.2" clip-path="url(#c)" fill="none" stroke="#b0b0b0" stroke-linecap="square" stroke-opacity=".3" stroke-width=".8"/>
     </g>
     <g id="cf">
      <use x="52" y="63.953694" stroke="#000000" stroke-width=".8" xlink:href="#e"/>
     </g>
     <g id="cg">
      <!-- 2400 -->
      <g transform="translate(22.2 67.939) scale(.1 -.1)">
       <defs>
        <path id="m" transform="scale(.015625)" d="m2170 0v3072q0 192 12 457 13 266 20 458h-26q-90-179-183-365-92-185-195-364l-921-1415h2579v-576h-3328v493l1875 2957h858v-4717h-691z"/>
       </defs>
       <use xlink:href="#d"/>
       <use transform="translate(57)" xlink:href="#m"/>
       <use transform="translate(114)" xlink:href="#a"/>
       <use transform="translate(171)" xlink:href="#a"/>
      </g>
     </g>
    </g>
    <g id="ch">
     <g id="ci">
      <path d="m52 37.815h801.2" clip-path="url(#c)" fill="none" stroke="#b0b0b0" stroke-linecap="square" stroke-opacity=".3" stroke-width=".8"/>
     </g>
     <g id="cj">
      <use x="52" y="37.814779" stroke="#000000" stroke-width=".8" xlink:href="#e"/>
     </g>
     <g id="ck">
      <!-- 2700 -->
      <g transform="translate(22.2 41.8) scale(.1 -.1)">
       <defs>
        <path id="i" transform="scale(.015625)" d="m1235 0q32 646 109 1187t224 1024 384 941 576 938h-2208v627h3027v-455q-409-512-665-989-256-476-397-969t-205-1053-90-1251h-755z"/>
       </defs>
       <use xlink:href="#d"/>
       <use transform="translate(57)" xlink:href="#i"/>
       <use transform="translate(114)" xlink:href="#a"/>
       <use transform="translate(171)" xlink:href="#a"/>
      </g>
     </g>
    </g>
   </g>
   <g id="cl">
    <path d="m88.418 222.44.073887.17426.065245-.34852.26962.34852.1374-.08713.36684-.8713.77819-3.2238.79115-5.1407.38715-1.3069.38974-.17426.36641-1.6555.38888-1.2198.38888-2.0911.38888-2.7882.38888-.60991 1.1666-8.8872 1.5555-10.281.38888-1.3941.38888-.78417.38888-2.004.38888-5.3149 1.5555-35.375.77776-21.173 1.5555-48.793.38888-5.3149.38888-2.3525.38888-.78417.38888 2.6139.38888 1.5683 1.9444 43.565.77776 21.608.77776 19.778 1.1666 23.874 1.1666 17.339 1.1666 14.464.38888 2.701.38888 3.9208.38888 2.7882.38888 3.6594.38888 1.9169.38888 3.2238 1.1666 6.5347.38888 2.4396.38888 1.5683.38888 3.4852.38888 1.1327.38888 1.7426.77776 1.6555.38888 1.1327.38888.26139.38888 1.3069.38888.52278.77776.26139.77776-.43565 1.1666-2.8753.38888-.26139.38888-.95843.38888-.43565.77776-3.3981.77776-3.9208.38888.26139.38888-.17426.38888-2.7882.38888-1.5683.38888-.78417.77776-2.7882.38888-3.1367.38888-1.7426.38888-.60991 1.1666-4.2694.38888-3.9208.38888-2.4396.38888-3.6594.77775-5.2278.38888-2.6139.38888-1.3941m.77776 19.517.38888-12.285.38888-2.3525.38888-1.3941 1.1666-13.418.38888-6.012.77776-18.21.77776-22.654.38888-16.293 1.1666-31.105.77776-14.725.38888-3.7466.38888.43565.38888-1.2198.38888 1.7426.77776 8.8001.77775 21.173.38888 6.9704 1.1666 28.404.77776 14.725.77776 16.555 2.3333 32.064 1.1666 12.547 2.3333 12.808.77776 5.7506.77776 3.1367.38888.43565.38888.8713.38888 1.3069.38888.60991 1.1666 4.5307.38888-.43565.38888.34852h.38888l.38888.52278.38888-1.3069.38888.17426.38888-.34852.38888-.52278.38888-.26139.38888-.60991.38888.08713.38888-.52278.38888-2.0911.38888-1.4812.38888-.8713 1.5555-6.2733.38888-1.0456.38888-2.2654.38888-1.2198.38888-2.701.38888-1.0456.38888-3.2238.38888-1.6555.38888-3.3109.38888-.95843.77776-2.701.38888-2.2654.38888-1.3941.77776-6.012.38888-1.8297.38888-.43565.38888-3.1367.38888-1.1327.38888-2.3525 1.1666-4.5307 1.1666-18.733 1.1666-27.62.38888-13.766 1.9444-43.129.38888-5.8377.77776-4.4436.38888 1.0456.38888 3.7466.77776 17.6 1.1666 28.23.77776 19.43 1.1666 21.521.77776 11.763 1.5555 23.961 1.1666 13.418 1.5555 12.547 2.7221 14.115.38888 1.1327.38888.69704.38888 1.1327.38888.60991h.38888l.5185.26139.5185.8713.12963-.08713.25925-.52278.5185.52278.12963.08713.25925-.60991.12963-.52278.12963.17426.25925-.95843h.12963l.12963.17426.12963-.17426.12963.087129.12963-.43565.12962.34852.38888-1.2198.12963.17426.12963-.08713.12962-.43565.12963.08713.25925-.78417.12963-.17426.25925-.8713.12963-.08713.25925-.52278.12963-.08713.25925-1.3941.12963.08713.25925-.43565.12963.08713.5185-1.2198.38888-2.701h.12963l.5185-2.3525.25925-1.0456.12963-.52278h.12963l1.037-4.3565.12962-1.0456.12963-.087129.90738-5.5763.38888-1.2198.25925-.69704.12963.17426.25925-2.0911.12962-.34852.25925-1.3941.12963-.34852.38888-3.0495.38888-.8713.25925-1.7426.12962-.087129.12963.17426.12963-.08713.38888-1.9169.25925-.95843.12963-1.6555.12963.26139 1.1666-7.406h.12963l.12963-.17426.25925-1.2198.12962.69704.12963-1.0456.12963.26139 1.1666-10.281.90738-17.774 1.8148-52.888.12963-1.7426.90738-23.874.38888-4.1822.25925-3.7466.12962.43565.5185-2.8753.12963-.34852.12962-1.0456.12963-.087129.25925.8713 1.1666 22.915.25925 4.7921.12963.78417.5185 12.547.38888 9.5843 1.037 20.737.25925 5.2278 2.074 37.03.38888 4.6179.64813 5.7506.5185 6.4476 1.037 8.2773.25925 1.7426.25925 1.5683.38888 2.004.5185 2.7882.38888 3.0495.25925 1.9169.25925 2.1782.38888 2.1782.25925 1.2198.12963 1.6555.25925.43565.5185 2.9624.25925.69704.12963.17426.12963.60991.12963-.26139 1.037 3.8337.38888.52278.12963-.08713.12962.43565.25925.08713.12963.26139.25925-.17426.12962.43565.12963-.34852.38888.34852.25925-.60991.12963-.43565.25925.17426.25925-.43565.5185-1.5683.25925-.69704.25925.26139.25925-.26139.5185-.95843.25925.43565.25925-1.2198.5185-3.2238.25925-1.3941.25925-.26139.25925-.95843.5185-.34852.5185-2.0911.25925-.08713.5185-3.3109.25925-.26139.25925-.78417h.25925l.25925-1.1327.25925-2.1782.77775-3.2238.5185-2.9624.25925-2.2654.25925-.52278.5185-2.0911.5185-3.7466.25925.087129.5185-1.4812.5185-4.008.77776-5.8377.25925-1.1327.25925-1.7426h.25925l.5185-3.1367.25925-.69704 1.2963-5.7506.77776-11.24.77776-17.426 2.074-66.219.5185-11.763.5185-9.9328.5185-7.7545.77776-5.5763h.25925l.25925 1.1327.25925 1.7426.77776 7.406.77776 16.206.25925-3.1367.5185 14.376.5185 10.63 1.8148 40.08 1.8148 35.985.5185 8.713.5185 7.8417.77776 7.5803.77776 6.0991.25925 2.8753.5185 2.9624.25925 2.5268.25925 1.1327.5185 3.8337.25925.8713.25925-.17426.25925.087129.25925.43565.77776 2.9624.25925-1.1327.25925-.43565.25925.60991.25925-.26139.25925.69704.25925-.34852.5185.26139.5185-2.2654.5185.087129.25925-1.5683.25925-.8713.25925-1.3941.25925.34852.25925-1.3069.25925-.60991 1.5555-6.5347.5185-3.6594.5185-2.1782.5185-5.0535.5185-6.012.25925-.8713 1.2963-11.153.25925-1.3941.5185-3.5723.25925-.43565.25925-2.4396.5185-2.4396.25925-1.7426.25925-.60991.25925.34852.25925-.69704.25925-1.6555.25925-.78417.5185-2.1782.25925-.34852.25925.26139.25925-.26139.25925.69704.25925 2.2654.25925-.08713.25925.17426.25925-.34852.25925-.60991.25925.69704.25925-.08713.25925-.26139.25925-1.3941h.5185l.25925-2.8753 1.037-17.339.77776-20.737.25925-12.198 1.037-25.703.77776-20.388.5185-9.9328.25925-7.1446.25925-3.3109.25925-.60991.5185-4.0951.25925-.34852.25925.52278.25925 1.4812.25925.52278.25925 3.5723.5185 2.9624.5185 7.0575.5185 12.634.5185 7.0575.5185 11.065.5185 15.248 2.8518 59.248.5185 9.2358 1.2963 19.43.25925 3.0495.77775 5.5763 1.037 9.41.25925 1.5683.25925 3.0495 1.037 4.8793.5185 1.6555.25925 2.004.25925-.087129.25925.52278.5185 1.3941.25925.26139.25925.52278.5185-.34852.5185-1.0456.25925-1.3069.5185.087129.25925-1.1327.25925-1.6555.5185-1.1327.25925.17426.25925-2.004.25925-1.0456.25925-1.9169.25925-.34852.25925-2.6139.25925-1.0456.25925-.34852.77776-3.0495.25925-3.3109.5185-9.1486.25925-2.4396 1.037-13.941.77776-5.9248.77776-2.6139.25925-1.3941.25925-3.0495.77776-5.1407.5185-3.7466.25925-.43565.25925-1.2198h.25925l.25925-1.2198.25925.78417.25925-1.7426.25925.34852.25925.78417.25925 1.2198.77776 1.7426.25925-.26139.25925 2.6139 1.2963 3.9208.25925-.43565.25925-1.2198 1.037-14.464.77776-18.994.5185-13.069 1.5555-33.893 1.037-10.368.25925 1.9169.25925.78417.25925.26139.25925 1.1327.5185 5.402.77776 20.388.25925 4.3565 1.037 26.139.25925 2.9624.25925 6.7961.25925 3.6594.77776 18.036 1.037 18.297.5185 9.0615.25925 3.5723.25925 1.2198.77776 10.456 1.037 7.5803.25925 1.4812 1.037 9.8457.25925 1.3941.5185 1.4812.25925 2.6139.25925 1.2198.5185 3.1367 2.074 7.5803.25925-.17426.25925.69704.25925.26139.25925.52278.25925.08713.25925-.08713.25925-.43565.25925-.08713.25925.43565.25925-.60991.25925-.08713.25925-.26139.25925.17426.25925.43565h.25925l.5185-.8713.25925.43565.25925-.78417.25925-.08713.25925-1.0456.25925.17426.25925-.08713.25925-1.5683.25925-.69704.25925-1.3941.5185-1.0456.5185-1.6555.5185-4.2694.25925-.34852.77776-3.6594.25925-.52278.77776-3.1367.25925-.78417.25925-.087129.5185-2.2654.25925-.52278.25925-1.2198.25925-1.8297.5185-1.9169.25925-2.8753.77776-2.6139.25925-.34852.25925-1.0456.25925-.08713 1.8148-11.065.25925-.78417.25925-.17426.77776-4.9664.5185-6.3605.25925-4.008.77776-15.248.5185-10.107 1.5555-42.258.5185-9.9328.25925-7.406.5185-6.2733.5185-5.6634.77776-2.4396.25925 1.3941.25925 2.004.5185 8.2773.5185 12.982.77775 16.468.77776 21.608 1.2963 25.442.5185 7.5803.5185 8.4516 2.074 24.832.77776 5.4892 1.037 6.709.5185 2.701.25925.69704 2.5925 12.721h.25925l.25925.43565.25925 1.4812.25925-.26139.25925.95843.25925.08713.25925 1.3941.5185.34852.5185.52278.25925.17426.77776-.52278.25925-.78417.25925-.26139.25925-.69704.5185.34852.25925-.17426.25925.26139.5185.08713.25925-.08713.25925.60991.25925-.34852.77776-3.8337.5185-1.2198.5185-1.6555.25925-1.2198.25925-.43565.77776-2.7882.25925-2.6139.77776-3.8337.25925-1.3941.5185-1.6555.77776-4.0951.25925-1.5683.25925-.26139h.25925l.25925-.69704.25925-1.2198.25925-1.8297.25925-.95843.5185-2.7882.25925-2.004.25925-.69704.5185-2.701.25925.17426.5185-3.3981.25925-1.4812.5185-4.008h.25925l.5185-2.6139.25925-2.0911.25925-.60991.25925-2.0911.5185-11.763.5185-10.368.25925-6.2733 1.2963-42.345.5185-11.588.25925-8.6258.5185-6.6219.5185-5.8377.25925-2.7882.25925-.17426.5185-1.3069.25925 1.2198.25925 2.5268.77776 13.854.25925 3.5723 2.3333 52.539 1.2963 26.139 1.5555 21.173.5185 6.7961.25925 1.8297.77776 7.0575.25925 1.3941 1.037 8.3645.25925 1.1327.77776 5.2278 1.037 3.6594.25925 1.7426 1.037 2.7882.25925.52278 1.037 3.8337.25925.34852.25925.69704.25925-.26139.25925.17426.77776-1.0456m.5185 2.4396.25925 1.3941.25925-.08713.25925.26139.5185-1.5683.25925-.08713.25925-.52278.25925.17426.25925-.8713.25925.087129.5185-2.5268.25925-.78417h.25925l.25925-.8713.25925-2.0911.25925-.26139.25925-.95843.25925-1.4812.25925-.34852 1.037-4.8793.5185-2.9624.25925-1.0456.25925.17426.25925-1.1327.25925-2.6139.77775-4.4436.5185-4.008.25925-2.1782.5185-2.2654.5185-2.5268.25925-.34852.25925-.69704.25925-1.1327.25925.087129.5185-2.7882.25925.08713 1.037-9.41.5185.17426.25925-2.4396.25925-1.3069.25925-3.3981.25925-1.6555.25925-2.5268 1.2963-22.305.25925-5.7506.77776-23.961 1.5555-42.084 1.037-15.858.25925-.52278.5185.78417.25925 1.8297.5185 5.8377.5185 12.547 1.037 23.612.77776 21.957.25925 5.3149.25925 2.9624 2.5925 47.311 1.037 9.2358 2.3333 18.907.25925.69704.77776 4.8793.25925.60991 1.037 6.3605.77776 2.8753 1.2963 3.3109.77776 3.3981.5185.60991.25925-.43565.25925-.78417.25925-.34852.25925.52278.25925-.8713.25925.087129.25925.69704.25925-.52278.25925.43565.77776-1.4812.77776-2.5268.25925-.52278.5185-2.1782.25925-.69704.5185-2.7882.25925.26139.25925-1.5683.25925-.52278.5185-2.0911.25925-1.0456.25925-.52278.5185-2.004.25925-2.0911.25925-.43565 1.037-5.1407.25925-.78417.25925-1.3941.25925-.78417.5185-2.7882.5185-2.004.5185-2.3525.5185-2.0911.25925-2.4396.25925-.34852.25925-1.2198.25925-2.701.77776-3.6594.25925-.43565.25925-.17426.25925-1.1327.5185-6.2733.77776-8.5387 2.8518-62.298 1.037-29.188.77776-16.119.25925-2.7882.25925-.34852.25925-5.1407.25925-2.1782.25925-.08713.5185 2.3525.25925 5.0535.5185 15.248.5185 11.414 1.5555 41.561.5185 11.588 1.037 19.691 1.2963 21.521 2.074 22.915.5185 3.2238.5185 3.5723.5185 3.4852 2.074 12.198.25925-.08713.5185 2.4396.5185 1.4812.25925.34852.25925 1.0456.25925-.17426 1.2963 2.7882.25925-.17426.25925.52278.77776-.17426.5185-.78417.5185-.34852.25925-1.2198.25925-.17426h.25925l.25925-.43565.25925.52278.25925.08713.25925-.52278.5185-2.4396.5185-2.7882 1.8148-7.4932h.25925l.5185-1.7426.25925-1.6555.25925-.43565.5185-3.8337.25925.087129.25925-.69704.25925-.34852.25925-1.3069.25925-.08713 1.037-8.4516.5185-2.3525.25925-.43565.5185-2.4396.25925-.34852.25925-.95843.25925-2.7882 1.037-5.3149.25925-1.3069.25925-.08713.25925-.26139.5185-2.7882.25925-2.004 1.037-13.244 1.2963-27.62.5185-17.426 2.074-58.028.25925-5.3149.5185-5.4892.25925-3.8337.25925-.69704.25925-2.7882.25925 2.5268.25925-.17426.77776 9.4971.25925 1.6555.77776 15.161.5185 10.543 2.3333 56.286 1.037 19.604.5185 7.1446.77776 12.547.5185 6.7961.25925 2.7882.5185 6.4476 1.2963 11.85.25925.60991.25925 2.4396.25925 1.3069.25925 2.0911.25925.78417.25925 2.0911.25925.69704.77776 3.3981.5185.78417.25925-.087129.5185.087129.25925-.26139.25925.17426.25925-.17426.25925-.43565.5185-1.3941.25925-.26139 1.037-3.7466.25925-.087129.5185-2.7882.5185-3.6594.25925-1.2198.25925.43565.25925-.17426.77776-3.9208.25925.26139.25925-1.6555.25925-.34852.25925-1.2198.5185-8.9744 1.037-9.8457.25925-1.3069.25925-2.5268.25925-3.7466.5185-2.7882.5185-4.1822.5185-3.8337.25925-3.1367.5185-2.0911.25925-.52278.25925-.8713.25925-.43565h.25925l.25925-.26139.25925.69704.25925.26139.25925.52278.5185-.08713.25925.08713.25925 1.3941.25925 2.1782.25925-.78417.25925 1.1327.25925 2.0911.25925-2.5268.25925.17426.25925-.52278.25925-1.7426.25925-3.3109.5185-2.3525.25925-2.9624.25925-6.4476.25925-2.7882 1.037-24.745.25925-10.978 1.037-24.222.77776-23.089 1.037-23.002.77776-6.9704.25925-.43565.25925-.78417 1.037 9.1486.77776 12.808 1.2963 28.753.25925 3.4852 1.2963 31.367.77776 15.073 2.074 40.69.77776 10.63 1.8148 17.949 1.037 6.3605.25925 2.2654.25925 1.1327.77776 5.2278.25925.34852.25925.78417.25925 1.4812.25925.17426.25925-.17426.25925.08713.25925-.26139.25925.26139.5185-.95843.25925-.52278 1.037-3.7466.25925-.60991.5185-2.3525.5185-2.1782.5185-2.6139.25925-.34852.25925.26139.25925-2.3525.25925-.08713.25925-1.4812.5185-5.6634.25925-.17426.77776-7.3189.5185-2.5268.25925-1.7426.77776-8.3645.25925-4.0951.25925-1.1327.5185-4.4436.25925-.60991.5185-5.2278.5185-2.9624.25925-1.3941.5185-3.7466.25925-.43565.25925.43565.5185-2.1782.25925-.08713.77776-1.7426.25925-1.1327.25925.8713.5185 3.1367.25925 2.4396.25925-.17426h.25925l.5185 4.008.25925-2.6139.25925.26139 1.2963-15.161.25925-3.7466.5185-10.891.77776-24.571 1.2963-29.624.77776-11.85.5185-3.3109.25925.60991.25925.087129.25925-.95843.25925-.17426.25925 3.2238.25925 4.8793.25925 9.3229.5185 11.588 1.8148 45.307.5185 10.02.77776 17.165 1.5555 26.662 1.037 12.198 1.037 9.8457 1.037 6.012 1.037 5.7506.5185 3.3981.77776 4.2694.77776 4.008.25925 1.9169.25925.95843.25925.43565.25925 1.3941.5185 1.1327.25925.17426 1.2963 3.1367.25925-.26139.25925-.08713.25925-.34852.25925.26139.77776-.17426.5185-1.1327.5185-.69704.77776-.17426.25925-.52278.25925-.78417.25925-.34852.5185-2.6139.25925.087129.25925-.43565.25925-.8713.77776-4.4436.25925-1.3941 1.037-2.9624.5185-3.4852.25925-1.5683.25925-.08713.5185-2.9624.25925-.52278.25925-2.4396.5185-2.4396 1.037-4.7921.25925-.34852.25925-2.701.25925-.78417.25925-.26139.5185-5.2278.25925-.8713.25925-1.5683.5185-1.3069.25925-1.4812.25925-2.5268.5185-2.8753.25925-.43565.77776-7.8417 2.3333-54.456 1.2963-33.196 1.037-13.854.5185-2.701.5185 1.2198.77776 10.456 2.3333 55.589 2.8518 49.315.25925 2.004 1.5555 17.252.5185 3.8337.77776 4.0951.77776 5.9248.25925.69704.5185 2.5268 1.037 4.4436.25925 1.6555.77776 2.5268.25925.26139.5185 1.7426.25925.08713.5185 1.7426.25925.34852.77776 2.4396.5185.08713.5185-.78417.25925.17426.25925-.34852.25925-.78417.25925-.26139.25925-.52278.25925-.95843.25925.34852.5185-.60991.25925-1.8297.25925.17426.25925-.8713.25925.087129.25925-1.5683.25925-.69704.25925-.34852.25925-1.3069.25925-.52278.5185-2.5268.25925-2.3525.77776-2.8753.25925-1.9169.25925-.69704.77776-4.3565.5185-1.8297.25925-.60991.25925-1.7426.25925.17426.5185-1.9169h.25925l1.037-7.2318.25925-.52278.25925-1.7426.77776-2.5268.25925-1.0456h.25925l.77776-6.012.25925-.34852 1.2963-8.1902 1.037-12.285.77776-16.555.77776-22.131.77776-21.957.25925-3.3109.77776-18.21.25925-3.2238.25925-5.5763.25925-2.004.25925-3.3109.25925-.26139.25925-1.2198.25925-.34852.77776 7.5803.5185 12.808 1.037 18.994 1.037 23.264.25925 5.1407.5185 12.982.5185 10.107.77776 11.501.5185 11.24.77776 10.02 1.037 9.4971 1.2963 12.111.25925.8713 1.037 5.6634.5185 2.8753.25925 1.1327.5185 1.1327.5185 2.004.25925.69704.25925 1.9169.25925.69704.25925-.43565.5185.95843.25925.17426.25925.8713.25925 1.6555.25925-.17426.25925.26139.5185.69704.25925.17426h.25925l.5185.34852.5185-1.3941.25925.95843.25925-.17426.5185-1.2198.25925-.087129.5185-.8713.25925.69704.77776-1.3941.25925-2.004.25925-.8713.5185-.8713 2.074-9.9328.25925-.95843.77776-5.5763.25925-.69704 1.037-6.7961.25925-1.1327.25925-.43565.25925-.95843.5185-3.0495.77776-5.8377 1.037-7.0575.25925-2.9624.25925-.69704.5185-2.701.25925 1.2198.25925-.95843.25925-.26139.25925-.78417.25925.08713.25925-.52278.25925-1.3941.5185-9.5843 1.037-17.774.5185-16.032.25925-10.281.25925-5.402 1.037-29.363.77776-15.77.5185-6.709h.25925l.25925-.17426.25925-1.6555.77776 4.1822.25925 3.5723.77776 19.169 1.037 25.268.77776 20.04 1.8148 33.806.25925 3.0495.25925 6.0991 1.5555 19.43 1.2963 9.5843 1.2963 8.4516 1.5555 8.4516.25925.60991.25925 1.9169 1.2963 4.4436.25925 1.6555 1.037 3.1367.25925 1.2198.25925-.26139.25925.34852.25925-.087129.25925-.26139.25925-.8713.25925 1.0456.25925-.78417.5185-.52278.25925-.95843.25925-.17426h.25925l.25925-.26139.25925-.78417.25925-2.004.25925-.34852h.25925l.25925-.26139.25925-1.0456.25925-1.6555.25925-.43565.25925-1.0456h.25925l.25925-.8713.77776 3.8337.25925-.34852.25925 1.3069.25925-.17426.25925-2.2654.25925.8713.5185-.95843.5185.43565.25925-1.9169.25925.34852.25925.8713.25925.17426.25925-.08713.25925-1.0456.25925.17426m1.037-2.7882.25925-1.6555.25925-3.3109.25925-1.7426 1.8148-17.862 1.037-5.1407 1.037-12.372 1.2963-25.616 1.2963-41.299 1.037-29.798.5185-9.6714.5185-7.3189.25925-1.5683.25925 1.1327h.25925l.25925.43565.5185 2.7882.5185 12.895.25925 6.5347.25925 1.9169.25925 7.5803.25925 2.6139.25925 5.0535.77776 19.517 2.3333 45.22 1.8148 24.832 2.074 19.081.25925.60991 1.2963 7.9288 1.2963 5.402.25925.52278.5185 2.7882.5185 2.5268.77776 1.6555.5185 1.4812.5185.08713.25925-.34852.25925.52278.25925-1.0456.25925-.08713.25925.17426.25925-.087129.25925-.95843.25925.34852.5185-1.3941.25925-.60991.25925-1.0456.77775-1.7426.5185-2.004.25925-1.3941.25925-2.0911.25925-.17426.5185-1.6555.5185-2.701.25925.087129.5185-2.701.77776-1.7426.77776-4.705.5185-1.4812.5185-2.7882 1.2963-7.7545.5185-1.2198.25925-.087129.25925-1.8297.25925-.08713.25925-2.2654.25925-.08713 1.2963-5.6634.25925-1.2198h.25925l.25925-.60991.25925-1.3941.25925-3.0495.77776-3.1367.25925-4.5307.25925-2.3525 1.5555-35.2 1.037-30.67.25925-5.2278 1.037-32.412 1.037-14.202.5185-1.7426.25925-.69704.25925-.34852.25925-1.0456.5185 5.3149.25925.34852.25925 4.6179.77776 25.79 1.037 19.343 2.5925 48.096.77776 10.02.5185 8.4516.25925 3.3981.5185 8.3645 2.074 20.388.77776 4.008.25925.52278.25925 1.1327.25925.08713.77776 2.9624.25925.95843.25925.52278.77776 3.6594.5185-1.0456.5185.17426.25925-.60991h.5185l.25925-.95843h.25925l.25925.26139.25925-.52278.25925-1.3941.5185-1.4812 1.2963-5.0535.25925-.34852.5185-2.0911.25925-.52278.25925-2.0911.25925-.52278.25925-1.4812.77776-6.5347 1.037-9.1486.5185-4.1822.25925-1.0456.25925-2.701.25925-.52278.25925-2.004.25925-.52278.25925-1.2198.25925-.60991.5185-4.008.25925.08713.25925-1.3941.25925-.69704.77775-4.4436.25925-.26139.25925-.95843.25925-.08713.5185-.52278.25925 1.0456.25925-.26139.25925-1.5683.25925-.52278.25925.69704.5185 2.701.5185.26139.25925-.60991.25925 2.0911.5185-4.5307.25925-3.2238.5185-9.9328.25925-3.0495.5185-12.285 1.5555-45.046.77776-19.169.5185-6.5347.5185-8.5387.5185-2.1782.25925-.43565.25925-3.3981.25925-.43565.25925.43565.5185 1.9169.25925 2.9624 1.5555 29.45.25925 2.2654.25925 4.3565.5185 13.069v0" clip-path="url(#c)" fill="none" stroke="#28f" stroke-linecap="square" stroke-width="1.5"/>
   </g>
   <g id="cm">
    <path d="m52 259.78v-232.9" fill="none" stroke="#000" stroke-linecap="square" stroke-width=".8"/>
   </g>
   <g id="cn">
    <path d="m853.2 259.78v-232.9" fill="none" stroke="#000" stroke-linecap="square" stroke-width=".8"/>
   </g>
   <g id="co">
    <path d="m52 259.78h801.2" fill="none" stroke="#000" stroke-linecap="square" stroke-width=".8"/>
   </g>
   <g id="cp">
    <path d="m52 26.88h801.2" fill="none" stroke="#000" stroke-linecap="square" stroke-width=".8"/>
   </g>
   <g id="cq">
    <!-- 同時接続数の推移 -->
    <g transform="translate(404.6 20.88) scale(.12 -.12)">
     <defs>
      <path id="x" transform="scale(.015625)" d="m1587 3936h3232v-518h-3232v518zm320-1114h557v-2534h-557v2534zm301 0h2291v-2086h-2291v512h1734v1069h-1734v505zm-1683 2260h5113v-570h-4524v-5056h-589v5626zm4768 0h595v-4896q0-250-67-397t-227-218q-160-77-426-96t-675-19q-13 83-45 192t-77 218q-45 108-89 185 281-13 527-13 247 0 330 0 83 7 118 42 36 35 36 112v4890z"/>
      <path id="v" transform="scale(.015625)" d="m2714 4672h3238v-525h-3238v525zm-244-1235h3712v-538h-3712v538zm20-1184h3635v-531h-3635v531zm1523 3155h595v-2310h-595v2310zm832-2451h589v-2823q0-230-61-364-61-135-227-199-167-70-423-86t-633-16q-20 121-78 285-57 163-121 284 275-6 509-9t310-3q77 6 106 28 29 23 29 93v2810zm-2023-1677 487 282q153-160 313-352t294-381q135-189 206-343l-519-313q-64 153-189 348-124 196-278 394-154 199-314 365zm-2086 3718h1619v-4281h-1619v544h1056v3187h-1056v550zm32-1843h1293v-537h-1293v537zm-320 1843h563v-4832h-563v4832z"/>
      <path id="w" transform="scale(.015625)" d="m3866 5408h614v-870h-614v870zm-1479-653h3597v-518h-3597v518zm-230-1485h4e3v-518h-4e3v518zm825 922 519 102q64-160 121-342 58-182 96-352 39-170 45-304l-544-128q-6 134-42 313-35 180-83 365-48 186-112 346zm1856 109 589-71q-96-275-202-557-105-281-195-486l-518 77q58 147 122 329 64 183 118 372t86 336zm-2643-2106h3943v-518h-3943v518zm1408 685 602-115q-167-371-362-784t-390-797-362-685l-525 179q160 288 346 666t368 784 323 752zm-659-2157 358 403q352-102 733-240 381-137 752-304 371-166 697-336 327-169 558-329l-384-461q-218 160-532 336-313 176-685 345-371 170-755 323-384 154-742 263zm1894 1114 583-71q-122-550-353-944-230-393-604-662t-922-435q-547-167-1296-269-25 128-93 269-67 141-137 230 678 64 1168 192t819 349q330 221 531 550 202 330 304 791zm-4684 217q396 90 953 240 557 151 1120 311l77-544q-525-154-1053-311-528-156-963-284l-134 588zm121 2093h1965v-563h-1965v563zm819 1248h576v-5229q0-236-51-374t-192-208q-141-77-355-99-214-23-541-16-13 115-64 288t-109 294q205-6 381-6t234 0q64 0 92 28 29 29 29 93v5229z"/>
      <path id="u" transform="scale(.015625)" d="m4058 5408h595v-1798h-595v1798zm-1415-563h3443v-499h-3443v499zm231-992h3008v-499h-3008v499zm-224-877h3475v-1203h-531v729h-2432v-729h-512v1203zm1964-877h551v-1881q0-122 22-157 23-35 106-35 25 0 92 0 68 0 135 0t99 0q51 0 83 54t45 224 19 515q90-70 234-131t259-93q-19-429-83-662-64-234-183-326-118-93-316-93-39 0-103 0t-134 0-138 0q-67 0-99 0-237 0-365 64t-176 218q-48 153-48 422v1881zm-1164-6h550v-455q0-243-48-528-48-284-186-579-137-294-409-572-272-279-727-503-70 90-192 208-121 118-230 195 416 205 665 438 250 234 371 474 122 240 164 467 42 228 42 413v442zm-2240 3309 524-192q-121-244-259-503-137-259-275-496t-259-416l-410 173q122 186 246 438 125 253 240 515 116 263 193 481zm716-743 500-230q-224-359-496-756-272-396-548-764-275-368-518-650l-358 205q179 211 377 483 199 272 387 569 189 298 358 592 170 295 298 551zm-1721-665 307 403q166-154 339-340 173-185 320-364t224-327l-326-460q-77 160-218 348-141 189-314 384-172 196-332 356zm1485-832 435 179q128-211 249-458 122-246 215-474 93-227 137-412l-473-211q-32 185-119 422-86 237-201 486-115 250-243 468zm-1530-583q422 26 998 54 576 29 1184 68l7-499q-570-45-1127-84-556-38-992-70l-70 531zm1702-992 436 135q121-276 214-596t118-556l-454-148q-26 237-112 563-86 327-202 602zm-1363 109 499-83q-57-455-163-897-105-441-253-748-51 32-134 73-83 42-170 83-86 42-144 62 148 294 234 697t131 813zm691 627h525v-2861h-525v2861z"/>
      <path id="o" transform="scale(.015625)" d="m224 2022h3187v-499h-3187v499zm51 2247h3111v-487h-3111v487zm1127-1735 563-121q-154-320-333-672t-352-679q-173-326-326-582l-532 173q148 243 324 566t345 669q170 346 311 646zm934-832 563-64q-89-480-262-838t-461-614-701-432-976-298q-25 128-99 269t-157 237q659 102 1085 303 426 202 666 554t342 883zm422 3597 519-211q-147-218-298-436-150-217-278-377l-403 186q121 173 252 413 132 240 208 425zm-1203 109h563v-2957h-563v2957zm-1075-320 448 186q134-192 246-420 112-227 157-393l-467-211q-38 172-147 406t-237 432zm1094-1050 397-236q-160-263-400-529-240-265-519-489-278-224-553-378-51 103-141 237-89 135-179 218 269 109 534 294 266 186 493 416 228 231 368 467zm487-204q83-45 246-145 163-99 352-211t346-211 221-150l-327-423q-83 77-230 198-147 122-317 253-170 132-327 250-156 119-259 189l295 250zm1798 396h2311v-556h-2311v556zm115 1178 615-90q-103-640-263-1235t-384-1101q-224-505-512-889-44 57-134 134t-186 157-166 125q275 339 473 796 199 458 340 995 141 538 217 1108zm1223-1510 614-58q-147-1101-445-1940-297-838-813-1443-515-604-1321-1014-26 71-90 177-64 105-134 208-70 102-128 159 742 346 1212 880 471 535 730 1290 260 755 375 1741zm-1005-135q134-851 387-1597 253-745 659-1305 407-560 1002-874-70-57-154-150-83-93-154-189-70-96-121-179-633 371-1056 988-422 618-688 1434-265 816-425 1783l550 89zm-3309-3065 327 416q377-148 754-330 378-182 701-378 324-195 548-368l-416-435q-211 179-519 378-307 198-666 383-358 186-729 334z"/>
      <path id="t" transform="scale(.015625)" d="m3686 4378q-64-493-163-1041-99-547-265-1084-192-653-432-1104t-522-688-595-237q-320 0-596 221-275 221-448 621-172 400-172 931 0 537 220 1017 221 480 611 851 391 372 909 583 519 211 1121 211 576 0 1040-186 464-185 793-515 330-329 502-771 173-441 173-941 0-672-278-1194-278-521-816-851-538-329-1318-444l-378 601q166 20 307 42t263 48q307 70 585 217 279 148 496 375 218 227 342 534 125 308 125 692t-122 713q-121 330-358 573-236 243-582 380-346 138-781 138-525 0-935-186-409-185-694-489-284-304-432-656-147-352-147-678 0-365 89-605 90-240 224-355 135-115 276-115t288 144 297 457q151 314 298 800 147 461 246 982 100 522 145 1021l684-12z"/>
      <path id="p" transform="scale(.015625)" d="m2995 2925h2893v-519h-2893v519zm0-1280h2893v-519h-2893v519zm-64-1299h3232v-557h-3232v557zm1312 3577h563v-3763h-563v3763zm429 1466 634-141q-154-390-340-794-185-403-339-684l-512 140q103 199 208 458 106 259 195 528 90 269 154 493zm-1472 25 582-147q-153-518-371-1018-217-499-483-931t-573-758q-38 64-109 160-70 96-147 198-77 103-141 160 416 416 733 1034t509 1302zm128-1203h2720v-537h-2720v-4205h-582v4422l313 320h269zm-3174-2157q396 90 953 240 557 151 1120 311l77-544q-525-154-1053-311-528-156-963-284l-134 588zm121 2093h1965v-563h-1965v563zm819 1248h576v-5229q0-236-51-374t-192-208q-141-77-355-99-214-23-541-16-13 115-64 288t-109 294q205-6 381-6t234 0q64 0 92 28 29 29 29 93v5229z"/>
      <path id="n" transform="scale(.015625)" d="m4051 5402 595-109q-281-493-729-941t-1107-806q-39 64-106 144t-141 153q-73 74-137 119 608 288 1011 678t614 762zm-77-557h1511v-493h-1863l352 493zm1293 0h109l109 25 384-179q-192-505-496-905t-695-701q-390-301-845-519-454-217-947-358-44 109-137 253t-176 227q448 109 867 294 419 186 777 445 359 259 631 592t419 730v96zm-1990-954 377 307q167-96 336-218 170-121 320-249 151-128 247-237l-397-332q-90 108-237 236t-317 259q-169 132-329 234zm1107-934 595-109q-307-538-803-1031-496-492-1232-876-38 64-102 144t-138 156q-74 77-138 116 455 217 807 483t604 554q253 288 407 563zm-90-589h1460v-506h-1818l358 506zm1268 0h121l109 26 384-167q-192-614-531-1075t-787-794q-448-332-983-553-534-221-1129-355-45 115-132 269-86 153-176 249 551 96 1043 285 493 189 903 473 410 285 714 669t464 883v90zm-2132-1056 410 339q186-102 384-237 198-134 371-275t282-269l-435-371q-103 128-270 272-166 144-361 288t-381 253zm-2150 3533h589v-5376h-589v5376zm-992-1242h2336v-569h-2336v569zm1024-224 365-160q-96-339-231-707-134-368-291-727-157-358-336-672-179-313-365-537-44 128-134 291t-160 272q173 192 339 457 167 266 323 570 157 304 282 618t208 595zm941 1946 416-467q-314-122-695-221-380-99-784-173-403-74-780-131-20 102-71 236-51 135-102 231 358 58 732 138 375 80 711 179t573 208zm-397-2579q58-45 179-170 122-125 266-266 144-140 259-265t160-183l-352-473q-58 102-157 255-99 154-218 317-118 164-227 311-108 147-185 237l275 237z"/>
     </defs>
     <use xlink:href="#x"/>
     <use transform="translate(100)" xlink:href="#v"/>
     <use transform="translate(200)" xlink:href="#w"/>
     <use transform="translate(300)" xlink:href="#u"/>
     <use transform="translate(400)" xlink:href="#o"/>
     <use transform="translate(500)" xlink:href="#t"/>
     <use transform="translate(600)" xlink:href="#p"/>
     <use transform="translate(700)" xlink:href="#n"/>
    </g>
   </g>
  </g>
  <g id="cr">
   <g id="cs">
    <path d="m52 523.06h801.2v-232.9h-801.2z" fill="#fff"/>
   </g>
   <g id="ct">
    <path d="m131.71 523.06h.77776v-232.9h-.77776z" clip-path="url(#b)" fill="#808080" opacity=".3" stroke="#808080"/>
   </g>
   <g id="cu">
    <path d="m418.05 523.06h.5185v-232.9h-.5185z" clip-path="url(#b)" fill="#808080" opacity=".3" stroke="#808080"/>
   </g>
   <g id="cv">
    <path d="m726.56 523.06h1.037v-232.9h-1.037z" clip-path="url(#b)" fill="#808080" opacity=".3" stroke="#808080"/>
   </g>
   <g id="cw">
    <g id="cx">
     <g id="cy">
      <path d="m104.1 523.06v-232.9" clip-path="url(#b)" fill="none" stroke="#b0b0b0" stroke-linecap="square" stroke-opacity=".3" stroke-width=".8"/>
     </g>
     <g id="cz">
      <use x="104.099018" y="523.055464" stroke="#000000" stroke-width=".8" xlink:href="#g"/>
     </g>
     <g id="da">
      <!-- 2025-07-01 -->
      <g transform="translate(57.309 563.33) rotate(-30) scale(.1 -.1)">
       <defs>
        <path id="h" transform="scale(.015625)" d="m301 1536v544h1689v-544h-1689z"/>
       </defs>
       <use xlink:href="#d"/>
       <use transform="translate(57)" xlink:href="#a"/>
       <use transform="translate(114)" xlink:href="#d"/>
       <use transform="translate(171)" xlink:href="#j"/>
       <use transform="translate(228)" xlink:href="#h"/>
       <use transform="translate(263.7)" xlink:href="#a"/>
       <use transform="translate(320.7)" xlink:href="#i"/>
       <use transform="translate(377.7)" xlink:href="#h"/>
       <use transform="translate(413.4)" xlink:href="#a"/>
       <use transform="translate(470.4)" xlink:href="#f"/>
      </g>
     </g>
    </g>
    <g id="db">
     <g id="dc">
      <path d="m253.43 523.06v-232.9" clip-path="url(#b)" fill="none" stroke="#b0b0b0" stroke-linecap="square" stroke-opacity=".3" stroke-width=".8"/>
     </g>
     <g id="dd">
      <use x="253.427972" y="523.055464" stroke="#000000" stroke-width=".8" xlink:href="#g"/>
     </g>
     <g id="de">
      <!-- 2025-07-05 -->
      <g transform="translate(206.64 563.33) rotate(-30) scale(.1 -.1)">
       <use xlink:href="#d"/>
       <use transform="translate(57)" xlink:href="#a"/>
       <use transform="translate(114)" xlink:href="#d"/>
       <use transform="translate(171)" xlink:href="#j"/>
       <use transform="translate(228)" xlink:href="#h"/>
       <use transform="translate(263.7)" xlink:href="#a"/>
       <use transform="translate(320.7)" xlink:href="#i"/>
       <use transform="translate(377.7)" xlink:href="#h"/>
       <use transform="translate(413.4)" xlink:href="#a"/>
       <use transform="translate(470.4)" xlink:href="#j"/>
      </g>
     </g>
    </g>
    <g id="df">
     <g id="dg">
      <path d="m402.76 523.06v-232.9" clip-path="url(#b)" fill="none" stroke="#b0b0b0" stroke-linecap="square" stroke-opacity=".3" stroke-width=".8"/>
     </g>
     <g id="dh">
      <use x="402.756925" y="523.055464" stroke="#000000" stroke-width=".8" xlink:href="#g"/>
     </g>
     <g id="di">
      <!-- 2025-07-09 -->
      <g transform="translate(355.97 563.33) rotate(-30) scale(.1 -.1)">
       <use xlink:href="#d"/>
       <use transform="translate(57)" xlink:href="#a"/>
       <use transform="translate(114)" xlink:href="#d"/>
       <use transform="translate(171)" xlink:href="#j"/>
       <use transform="translate(228)" xlink:href="#h"/>
       <use transform="translate(263.7)" xlink:href="#a"/>
       <use transform="translate(320.7)" xlink:href="#i"/>
       <use transform="translate(377.7)" xlink:href="#h"/>
       <use transform="translate(413.4)" xlink:href="#a"/>
       <use transform="translate(470.4)" xlink:href="#q"/>
      </g>
     </g>
    </g>
    <g id="dj">
     <g id="dk">
      <path d="m552.09 523.06v-232.9" clip-path="url(#b)" fill="none" stroke="#b0b0b0" stroke-linecap="square" stroke-opacity=".3" stroke-width=".8"/>
     </g>
     <g id="dl">
      <use x="552.085878" y="523.055464" stroke="#000000" stroke-width=".8" xlink:href="#g"/>
     </g>
     <g id="dm">
      <!-- 2025-07-13 -->
      <g transform="translate(505.3 563.33) rotate(-30) scale(.1 -.1)">
       <use xlink:href="#d"/>
       <use transform="translate(57)" xlink:href="#a"/>
       <use transform="translate(114)" xlink:href="#d"/>
       <use transform="translate(171)" xlink:href="#j"/>
       <use transform="translate(228)" xlink:href="#h"/>
       <use transform="translate(263.7)" xlink:href="#a"/>
       <use transform="translate(320.7)" xlink:href="#i"/>
       <use transform="translate(377.7)" xlink:href="#h"/>
       <use transform="translate(413.4)" xlink:href="#f"/>
       <use transform="translate(470.4)" xlink:href="#r"/>
      </g>
     </g>
    </g>
    <g id="dn">
     <g id="do">
      <path d="m701.41 523.06v-232.9" clip-path="url(#b)" fill="none" stroke="#b0b0b0" stroke-linecap="square" stroke-opacity=".3" stroke-width=".8"/>
     </g>
     <g id="dp">
      <use x="701.414832" y="523.055464" stroke="#000000" stroke-width=".8" xlink:href="#g"/>
     </g>
     <g id="dq">
      <!-- 2025-07-17 -->
      <g transform="translate(654.63 563.33) rotate(-30) scale(.1 -.1)">
       <use xlink:href="#d"/>
       <use transform="translate(57)" xlink:href="#a"/>
       <use transform="translate(114)" xlink:href="#d"/>
       <use transform="translate(171)" xlink:href="#j"/>
       <use transform="translate(228)" xlink:href="#h"/>
       <use transform="translate(263.7)" xlink:href="#a"/>
       <use transform="translate(320.7)" xlink:href="#i"/>
       <use transform="translate(377.7)" xlink:href="#h"/>
       <use transform="translate(413.4)" xlink:href="#f"/>
       <use transform="translate(470.4)" xlink:href="#i"/>
      </g>
     </g>
    </g>
    <g id="dr">
     <g id="ds">
      <path d="m850.74 523.06v-232.9" clip-path="url(#b)" fill="none" stroke="#b0b0b0" stroke-linecap="square" stroke-opacity=".3" stroke-width=".8"/>
     </g>
     <g id="dt">
      <use x="850.743785" y="523.055464" stroke="#000000" stroke-width=".8" xlink:href="#g"/>
     </g>
     <g id="du">
      <!-- 2025-07-21 -->
      <g transform="translate(803.95 563.33) rotate(-30) scale(.1 -.1)">
       <use xlink:href="#d"/>
       <use transform="translate(57)" xlink:href="#a"/>
       <use transform="translate(114)" xlink:href="#d"/>
       <use transform="translate(171)" xlink:href="#j"/>
       <use transform="translate(228)" xlink:href="#h"/>
       <use transform="translate(263.7)" xlink:href="#a"/>
       <use transform="translate(320.7)" xlink:href="#i"/>
       <use transform="translate(377.7)" xlink:href="#h"/>
       <use transform="translate(413.4)" xlink:href="#d"/>
       <use transform="translate(470.4)" xlink:href="#f"/>
      </g>
     </g>
    </g>
   </g>
   <g id="dv">
    <g id="dw">
     <g id="dx">
      <path d="m52 506.47h801.2" clip-path="url(#b)" fill="none" stroke="#b0b0b0" stroke-linecap="square" stroke-opacity=".3" stroke-width=".8"/>
     </g>
     <g id="dy">
      <use x="52" y="506.470428" stroke="#000000" stroke-width=".8" xlink:href="#e"/>
     </g>
     <g id="dz">
      <!-- 104800 -->
      <g transform="translate(10.8 510.46) scale(.1 -.1)">
       <use xlink:href="#f"/>
       <use transform="translate(57)" xlink:href="#a"/>
       <use transform="translate(114)" xlink:href="#m"/>
       <use transform="translate(171)" xlink:href="#l"/>
       <use transform="translate(228)" xlink:href="#a"/>
       <use transform="translate(285)" xlink:href="#a"/>
      </g>
     </g>
    </g>
    <g id="ea">
     <g id="eb">
      <path d="m52 481.21h801.2" clip-path="url(#b)" fill="none" stroke="#b0b0b0" stroke-linecap="square" stroke-opacity=".3" stroke-width=".8"/>
     </g>
     <g id="ec">
      <use x="52" y="481.212425" stroke="#000000" stroke-width=".8" xlink:href="#e"/>
     </g>
     <g id="ed">
      <!-- 105200 -->
      <g transform="translate(10.8 485.2) scale(.1 -.1)">
       <use xlink:href="#f"/>
       <use transform="translate(57)" xlink:href="#a"/>
       <use transform="translate(114)" xlink:href="#j"/>
       <use transform="translate(171)" xlink:href="#d"/>
       <use transform="translate(228)" xlink:href="#a"/>
       <use transform="translate(285)" xlink:href="#a"/>
      </g>
     </g>
    </g>
    <g id="ee">
     <g id="ef">
      <path d="m52 455.95h801.2" clip-path="url(#b)" fill="none" stroke="#b0b0b0" stroke-linecap="square" stroke-opacity=".3" stroke-width=".8"/>
     </g>
     <g id="eg">
      <use x="52" y="455.954421" stroke="#000000" stroke-width=".8" xlink:href="#e"/>
     </g>
     <g id="eh">
      <!-- 105600 -->
      <g transform="translate(10.8 459.94) scale(.1 -.1)">
       <use xlink:href="#f"/>
       <use transform="translate(57)" xlink:href="#a"/>
       <use transform="translate(114)" xlink:href="#j"/>
       <use transform="translate(171)" xlink:href="#k"/>
       <use transform="translate(228)" xlink:href="#a"/>
       <use transform="translate(285)" xlink:href="#a"/>
      </g>
     </g>
    </g>
    <g id="ei">
     <g id="ej">
      <path d="m52 430.7h801.2" clip-path="url(#b)" fill="none" stroke="#b0b0b0" stroke-linecap="square" stroke-opacity=".3" stroke-width=".8"/>
     </g>
     <g id="ek">
      <use x="52" y="430.696418" stroke="#000000" stroke-width=".8" xlink:href="#e"/>
     </g>
     <g id="el">
      <!-- 106000 -->
      <g transform="translate(10.8 434.68) scale(.1 -.1)">
       <use xlink:href="#f"/>
       <use transform="translate(57)" xlink:href="#a"/>
       <use transform="translate(114)" xlink:href="#k"/>
       <use transform="translate(171)" xlink:href="#a"/>
       <use transform="translate(228)" xlink:href="#a"/>
       <use transform="translate(285)" xlink:href="#a"/>
      </g>
     </g>
    </g>
    <g id="em">
     <g id="en">
      <path d="m52 405.44h801.2" clip-path="url(#b)" fill="none" stroke="#b0b0b0" stroke-linecap="square" stroke-opacity=".3" stroke-width=".8"/>
     </g>
     <g id="eo">
      <use x="52" y="405.438415" stroke="#000000" stroke-width=".8" xlink:href="#e"/>
     </g>
     <g id="ep">
      <!-- 106400 -->
      <g transform="translate(10.8 409.42) scale(.1 -.1)">
       <use xlink:href="#f"/>
       <use transform="translate(57)" xlink:href="#a"/>
       <use transform="translate(114)" xlink:href="#k"/>
       <use transform="translate(171)" xlink:href="#m"/>
       <use transform="translate(228)" xlink:href="#a"/>
       <use transform="translate(285)" xlink:href="#a"/>
      </g>
     </g>
    </g>
    <g id="eq">
     <g id="er">
      <path d="m52 380.18h801.2" clip-path="url(#b)" fill="none" stroke="#b0b0b0" stroke-linecap="square" stroke-opacity=".3" stroke-width=".8"/>
     </g>
     <g id="es">
      <use x="52" y="380.180412" stroke="#000000" stroke-width=".8" xlink:href="#e"/>
     </g>
     <g id="et">
      <!-- 106800 -->
      <g transform="translate(10.8 384.17) scale(.1 -.1)">
       <use xlink:href="#f"/>
       <use transform="translate(57)" xlink:href="#a"/>
       <use transform="translate(114)" xlink:href="#k"/>
       <use transform="translate(171)" xlink:href="#l"/>
       <use transform="translate(228)" xlink:href="#a"/>
       <use transform="translate(285)" xlink:href="#a"/>
      </g>
     </g>
    </g>
    <g id="eu">
     <g id="ev">
      <path d="m52 354.92h801.2" clip-path="url(#b)" fill="none" stroke="#b0b0b0" stroke-linecap="square" stroke-opacity=".3" stroke-width=".8"/>
     </g>
     <g id="ew">
      <use x="52" y="354.922409" stroke="#000000" stroke-width=".8" xlink:href="#e"/>
     </g>
     <g id="ex">
      <!-- 107200 -->
      <g transform="translate(10.8 358.91) scale(.1 -.1)">
       <use xlink:href="#f"/>
       <use transform="translate(57)" xlink:href="#a"/>
       <use transform="translate(114)" xlink:href="#i"/>
       <use transform="translate(171)" xlink:href="#d"/>
       <use transform="translate(228)" xlink:href="#a"/>
       <use transform="translate(285)" xlink:href="#a"/>
      </g>
     </g>
    </g>
    <g id="ey">
     <g id="ez">
      <path d="m52 329.66h801.2" clip-path="url(#b)" fill="none" stroke="#b0b0b0" stroke-linecap="square" stroke-opacity=".3" stroke-width=".8"/>
     </g>
     <g id="fa">
      <use x="52" y="329.664406" stroke="#000000" stroke-width=".8" xlink:href="#e"/>
     </g>
     <g id="fb">
      <!-- 107600 -->
      <g transform="translate(10.8 333.65) scale(.1 -.1)">
       <use xlink:href="#f"/>
       <use transform="translate(57)" xlink:href="#a"/>
       <use transform="translate(114)" xlink:href="#i"/>
       <use transform="translate(171)" xlink:href="#k"/>
       <use transform="translate(228)" xlink:href="#a"/>
       <use transform="translate(285)" xlink:href="#a"/>
      </g>
     </g>
    </g>
    <g id="fc">
     <g id="fd">
      <path d="m52 304.41h801.2" clip-path="url(#b)" fill="none" stroke="#b0b0b0" stroke-linecap="square" stroke-opacity=".3" stroke-width=".8"/>
     </g>
     <g id="fe">
      <use x="52" y="304.406403" stroke="#000000" stroke-width=".8" xlink:href="#e"/>
     </g>
     <g id="ff">
      <!-- 108000 -->
      <g transform="translate(10.8 308.39) scale(.1 -.1)">
       <use xlink:href="#f"/>
       <use transform="translate(57)" xlink:href="#a"/>
       <use transform="translate(114)" xlink:href="#l"/>
       <use transform="translate(171)" xlink:href="#a"/>
       <use transform="translate(228)" xlink:href="#a"/>
       <use transform="translate(285)" xlink:href="#a"/>
      </g>
     </g>
    </g>
   </g>
   <g id="fg">
    <path d="m88.418 512.47h.13913l.77387-.25258 1.1662-.44202.40314-.25258 1.1433-.18944.77776.12629.38888-.18944.38888-.31572h.38888l.77776-.82088.77776-.12629.77776-.5683 1.1666.12629.38888-.063145.77776-.63145.38888-.63145.77776-.5683h.38888l.77776-.5683.38888-.37887 1.1666-2.2732 1.1666-.88403.38888-.18944.38888.063145.38888-.31572h1.1666l.38888-.25258h.38888l.77776-.50516 1.9444-.37887.38888.12629.38888-.063145.38888.063145 1.9444-.25258 1.5555-.063145 1.1666-.12629 5.0554-.063145.77776-.063145h.38888l.38888-.12629h.77776l1.1666-.5683.77776-.063145 1.1666-.37887h.38888l.77776-.37887 1.1666-.25258 1.9444-.6946.77775-.31572.77776-.18944m.77776-.37887.38888-.25258.38888-.5683.38888-.31572 1.1666-.25258.77776-.25258.77776-.50516.38888-.82088.38888-.25258.77776-1.326h.38888l.77776-.88403.38888-.18944.38888-.44202 1.5555-1.0103.38888.063145 1.5555-.88403.77776-.063145 1.1666-.18944.38888.12629h.38888l.77776-.44202.77776-.12629.38888.063145.38888-.12629.38888.063145 1.9444-.25258.77776.063145.77776-.063145.77776.063145h2.3333l.77776-.18944.77776.18944.38888.063145 1.1666-.31572h.38888l.38888-.12629h.38888l.38888-.25258.77776-.18944.38888-.31572 1.5555.063145.38888.063145.38888-.063145.38888-.18944 1.1666-.12629.38888.12629 1.1666-.12629h.38888l1.1666-.6946.38888-.063145.38888-.25258.38888.063145.77776-.12629.38888.063145.77776-.37887h.77776l.38888-.44202 1.9444-1.1366 1.1666-.63145.38888-.63145.38888-.063145.38888-.25258.38888-.6946 1.1666-1.0735.38888-.12629.38888.18944.38888-.12629.38888-.31572 1.5555-.44202.38888-.063145.38888.063145.38888-.18944.77776.063145h1.9444l.38888-.12629.77776.12629 1.1666-.12629 2.7221-.063145.38888.18944h.38888l1.6851-.44202.25925.063145h.12963l.25925-.12629h2.5925l.25925.12629.64813-.063145.25925-.063145h.25925l.12963-.12629.25925.12629.25925-.063145h.25925l.25925-.12629.5185.12629.25925-.063145 1.1666-.063145.25925-.18944.12963-.12629.5185.25258.64813-.25258.25925.063145.5185-.18944.90738.063145.25925.12629.77776-.63145h.12963l.5185-.44202h1.4259l.25925-.12629.64813-.063145 1.2963-.5683h.38888l.38888-.18944.12963-.18944.12963.12629.12963-.063145.12963.12629.38888-.37887.38888-.063145.38888-.18944.12963.063145.77776-.6946.25925-.063145.25925-.12629.25925-.63145.90738-.88403.12962.12629.25925-.12629.25925-.18944.12963.12629.25925-.063145.25925-.44202h.25925l.12962-.37887.12963.063145.64813-.25258h.12963l.25925-.31572.25925-.18944.5185-.063145.25925-.18944.38888-.063145.25925-.063145h.38888l.38888-.25258.5185-.18944.90738-.063145.25925-.063145 1.6851-.063145.25925-.063145 2.8518-.063145.25925-.063145 2.074-.063145.64813-.25258 3.111-.063145 1.037-.25258.25925-.18944 1.8148.063145.25925.12629 1.037-.18944 1.2963-.063145.5185-.31572.77776-.063145.5185-.25258h.25925l.5185-.18944h.25925l.77776-.63145.25925-.12629.77776-.063145.25925-.25258 1.5555-.37887.25925.063145.25925-.12629.5185-.063145.77776-.18944.25925.063145 1.037-.6946.25925-.063145.5185-.63145.25925-.18944h.25925l1.037-.63145 1.2963-.31572 1.037-1.0735.25925-.37887h.25925l.77776-.75774h.25925l1.037-.75774.25925.063145 1.2963-1.2629h.25925l.25925-.37887 1.037-.18944h1.8148l.25925-.12629h.25925l.25925-.12629 1.037-.12629.77776-.063145 2.074-.44202 2.5925.063145.5185.063145.77776-.063145.25925-.18944.77776.12629.25925-.063145.5185.063145h1.2963l.77776-.31572h1.037l.5185-.25258h.77776l.25925-.12629.77776-.063145.25925-.063145.25925.063145.25925-.12629.25925.063145.77776-.18944.25925-.18944.25925.063145.77776-.88403.5185.18944.25925-.18944h.5185l.5185-.25258.77776-.063145.5185-.5683h.25925l.5185-.18944.25925.063145.25925-.25258.25925-.063145.25925.063145.25925-.063145.25925.12629.25925-.12629.25925.063145.25925-.063145.77776-.5683h.25925l.25925-.12629.77776-1.1366.77776-.44202.25925-.50516.25925-.063145.77776-.75774.25925.063145.77776-.50516.5185-1.0103.5185-.063145.5185-.5683 1.037-.31572.77776-.44202 1.037-.31572.5185-.5683.5185-.063145 1.037-.18944.25925-.31572 1.8148-.063145.5185-.18944.77776-.063145.77776-.18944.25925.063145.5185-.063145.77776.063145.5185.063145.5185-.25258 1.037.063145.25925.18944h2.3333l.5185-.31572h.25925l.5185-.18944 1.037.063145.5185.063145.25925-.12629h.25925l.25925-.25258h.25925l.5185-.25258.5185-.063145.5185-.31572.5185-.063145.77776-.6946h.25925l.25925-.12629h.5185l.5185.18944h.25925l.5185-.18944.25925-.31572 1.2963-.37887.25925-.12629.77776-.063145.25925-.12629.77776.12629.77776-.063145.5185-.18944.5185-.12629 1.5555-1.0103.25925.063145.25925-.18944h.5185l.25925-.31572.5185-.25258.5185-.50516.77776.063145.5185-.37887.25925.063145.5185-.37887.25925-.37887.25925.12629.25925-.25258.25925-.063145.25925.18944.25925-.25258.5185.12629 1.037-.63145.5185.063145.25925-.18944h.25925l.25925.12629.25925-.063145.25925-.31572.25925.063145.77776-.18944.25925.063145.25925-.063145.5185.063145 1.8148.063145.25925.18944 1.8148-.063145.5185-.063145 1.2963.063145.25925.12629.25925-.12629h1.037l.25925-.12629.77776.063145.5185.063145 2.3333-.063145.5185-.063145 1.037.063145.5185-.25258.77776-.12629.25925.12629.5185-.25258 1.037.12629.5185-.25258h.5185l.5185-.18944 2.8518-.063145.5185-.18944.5185-.25258 1.2963-.063145.5185-.25258.77776-.5683h.25925l.25925-.12629.5185.063145 1.037-.75774.25925.12629.25925-.12629.25925-.37887.77776-.44202.25925-.18944h.25925l.5185-.75774.77776-.5683.25925-.37887h.25925l.5185-.5683.25925.12629.5185-.063145.25925-.37887.25925.063145.5185-.37887 1.2963-.82088 1.037-.44202 1.037-.063145.77776-.31572 1.5555.063145.5185.063145 1.8148.063145.5185.063145 1.037-.12629.25925-.063145.25925.063145.5185-.063145h2.5925l.25925-.12629.77776-.063145.5185-.063145 1.037-.063145.25925-.063145.77776.25258.5185-.18944 1.2963-.063145.77776-.12629.5185-.063145.25925-.12629 1.5555.063145.77776-.37887h.25925l.5185-.31572h.25925l.25925-.12629.5185-.37887.25925.063145.77776-.18944.5185.12629.5185-.063145.25925.063145 1.5555-.75774.5185-.063145.77776-.18944.5185-.25258h.25925l.25925-.37887.25925-.12629.25925.063145.25925-.25258.25925-.063145.77776-1.4523.25925-.25258h.25925l.25925-.12629.5185-.44202.25925-.12629.25925-.44202 2.074-1.6418.25925-.25258.25925-.44202 1.037-.31573.25925.12629.25925-.063145.77776-.50516h.25925l.25925-.12629.25925.063145 1.8148-.37887.77776-.063145.5185-.12629.5185.063145 1.5555-.063145.25925-.063145.25925.063145.5185-.063145.5185.063145 1.5555-.063145.25925-.063145.5185.063145 1.037-.063145 1.5555-.31572m.5185.18944.25925-.12629h.25925l.25925-.12629h2.8518l.5185-.25258.77776-.063145.25925-.063145.25925.063145.5185-.31572.25925.063145.5185-.063145.25925.063145.25925-.12629.5185.12629.25925-.12629.77776-.063145.5185-.25258.5185.25258.5185-.31572.77776-.25258.77776-.31572.25925-.31572.25925-.12629h.25925l.25925-.18944h.5185l.5185-.44202.5185.25258.25925-.25258.25925-.44202.5185-.25258h.25925l1.037-.5683.5185-.44202.5185-.12629.25925-.44202.25925-.18944.25925-.5683.77776-.63145h.25925l.5185-.50516.77776-.25258.25925-.12629.5185-.37887.25925-.063145.25925-.25258.5185.063145.25925-.18944.5185.12629.25925-.25258h.5185l.25925-.18944.77776-.063145 1.037-.12629.25925-.063145.25925.063145 1.037-.50516 1.2963-.063145.25925-.063145.77776.12629 1.2963-.063145.25925-.063145.5185.12629.77776-.12629.25925.063145.25925-.063145.77776.12629h.5185l.25925-.25258 2.074-.063145.77776-.12629.77776.12629 1.037-.063145.25925-.18944.77776-.063145.77776-.31572 1.037-.18944.5185-.063145 1.2963-.25258.77776-.063145.25925-.12629h.25925l.25925-.25258h.25925l.5185-.63145.5185-.31572.5185-.25258.77776-.18944.25925-.31572.25925-.12629h.25925l.77776-.31572h.25925l.25925-.25258.5185-.063145.5185-.63145.5185-.31572.5185-.37887 3.111-2.1469.5185-.94718.5185-.37887.5185-.063145.25925-.44202h.25925l.5185-.25258.25925-.25258h.25925l.5185-.25258.25925-.37887.25925-.063145.5185-.31572.5185.063145.25925-.31572.5185-.18944 1.2963-.063145.25925.25258.5185.063145h.25925l.5185-.25258.5185-.063145 1.5555-.063145.5185-.063145.25925-.25258.77776-.063145.5185-.063145 5.185-.063145.5185-.12629.25925.063145 1.5555-.44202.25925-.12629h.25925l.25925-.12629h.25925l.25925-.12629.77776.12629.5185-.063145h.5185l.5185-.18944.25925-.31572 1.037-.44202h.5185l.5185-.25258.25925.063145.5185-.18944.25925.12629.25925-.12629.5185-.063145.5185-.37887.5185-.25258h.25925l.5185-.18944.25925.12629.5185-.18944.25925-.31572 1.2963-.5683.25925.063145.77776-.31572.25925.063145.25925-.18944h.25925l3.6295-2.7152.5185-.88403.5185-.6946.5185-.063145 1.2963-1.1366.25925-.12629.25925-.25258.25925-.063145 1.2963-.82088.25925-.063145.5185-.31572 1.5555-.31572.25925.063145.5185-.063145.77776.12629 1.2963-.063145.5185-.063145 1.2963-.063145.5185-.063145.5185.063145.77776.063145.77776.12629.25925-.12629.5185.063145 1.037.18944.25925-.12629.25925.12629.5185-.063145.25925-.25258 1.037-.25258.5185.12629 1.037-.37887h.25925l.25925-.12629.5185-.063145 1.5555-.31572.25925.063145.25925-.12629h.25925l.77776-.63145h.25925l1.2963-.5683 1.2963-.31572.25925-.31572.5185.063145.77776-.63145.25925-.18944.25925.063145.25925-.063145.25925-.25258.5185.44202.5185.18944 1.2963-.31572.25925-.31572.25925-.063145.5185-.44202h.25925l.5185-.25258.25925.063145.25925-.31572.25925-.12629.5185-.50516.25925-.44202.5185-.44202.25925-.44202.25925-.12629.5185-.63145h.25925l.5185-.5683.25925.063145.5185-.37887.25925-.63145.25925-.063145.25925-.44202.25925-.063145.25925-.25258.25925-.50516.5185-.31572.5185-.063145.5185-.5683.5185-.063145.5185-.37887.25925-.37887.25925-.063145 1.5555-1.0735.77776.063145.5185.18944.5185-.25258.77776.12629 1.5555-.063145 1.037-.18944 1.8148-.063145.77776-.12629 1.8148-.063145 1.037-.18944h.77776l.5185-.25258.25925.063145.25925-.063145.25925.063145.25925-.063145.5185.063145.5185-.063145.5185.063145.77776-.37887.5185-.063145.25925-.18944h.25925l.5185-.31572.5185-.18944.25925-.12629.5185.063145 1.2963-.31572.25925-.25258.5185-.12629.25925.063145.25925.25258.25925.063145.25925-.12629.25925.063145.77776-.5683.25925.12629.25925-.063145.5185-.37887.5185.063145h.25925l.25925-.25258.25925.063145.77776-.44202h.25925l.5185-.18944.25925.063145.25925-.063145.25925.063145 1.037-.88403.77776-.6946.25925-.25258.25925-.063145.25925-.50516.25925.063145.25925-.37887.25925-.063145.25925-.37887.5185-.25258.5185-.5683h.25925l.25925-.44202.25925-.063145.5185-.50516.25925.12629 1.037-.44202.5185.18944.5185-.18944 1.5555-.31572 1.037-.063145 1.2963-.25258 1.037-.12629 1.2963-.063145 1.5555-.31572h1.8148l.25925.12629h.5185l.5185.12629.25925-.12629h.5185l.25925-.12629.25925.063145 1.037-.25258.5185.063145h.25925l.25925-.18944 2.3333-.063145.77776-.37887 1.2963-.063145.5185-.18944.25925.12629.5185-.25258h.5185l.25925-.12629.77776.063145.5185.18944.5185-.063145.25925-.12629.5185.063145.25925-.12629.25925.063145 1.037-.31572.5185-.37887.25925.18944.77776-.44202h.5185l.25925-.18944h.25925l.25925-.37887.25925.18944h.25925l.25925-.63145.77776-.44202 1.037-.88403.25925-.50516.25925.12629.25925-.12629h.25925l1.037-1.0735.25925.063145.5185-.44202.25925-.44202.25925.12629.77776-.44202.25925-.063145.25925-.31572.5185.063145.25925-.12629.25925-.25258.25925-.063145.25925-.31572.25925-.12629.25925.063145 1.8148-.82088 1.2963-.063145.77776-.12629h.77776l.25925-.12629 1.5555-.063145 1.037-.25258.5185.063145h.25925l.25925-.12629 1.037.063145.77776.12629 1.037-.18944 1.037-.12629 1.2963-.063145 1.037-.18944.77775.063145 1.037.18944h.25925l1.2963-.88403h2.3333l.25925-.12629.25925.063145.5185-.12629.25925.063145.5185-.18944 1.037-.18944.25925-.31572.5185-.18944.25925.063145.25925.18944h.25925l1.2963-.82088.25925.12629.77776-.44202.25925-.18944h.25925l1.037-1.0103.5185-.12629.77776-.88403.25925-.31572.77776-.44202.5185-.63145.25925-.12629.25925-.50516.5185-.25258.5185-.18944.25925.12629.25925-.25258.5185-.18944.25925-.18944.25925.12629.25925-.25258h.25925l.25925-.12629.77776-.82088 1.2963.063145.25925-.18944 1.037-.063145.77776-.12629.77776.12629 2.074-.063145.77776-.12629h3.3703l.25925-.25258 1.2963-.063145 1.2963-.25258 1.8148-.063145.5185-.18944.25925.063145 1.037-.12629 1.2963-.37887.25925-.12629.25925-.31572.5185-.18944.77776-.37887.25925.063145.25925-.18944.25925.12629h.25925l.25925-.18944h.5185l.5185-.31572.25925.063145.25925-.12629.25925.12629 1.037-.44202.25925.063145 1.8148-.50516.25925.12629.5185-.12629.5185-.25258h.77776l1.2963-.5683.25925-.063145.5185-.5683.25925-.31572.5185-.18944.25925-.12629.25925-.31572.25925.063145.25925-.063145 1.2963-1.0103.25925-.50516 1.037-.44202.25925-.37887.25925-.12629.25925-.50516 1.2963-.94718h.25925l.25925.18944.5185-.18944.25925-.18944h.25925l.25925.12629 1.037-.31572.77776-.37887.25925.063145 1.037-.18944 1.8148-.063145.5185-.063145 3.111.063145.25925.12629 1.037-.12629 2.5925.063145 1.5555.18944.77776-.25258.5185-.18944 1.037-.18944.5185.12629.25925-.063145.25925.12629.25925-.063145.25925-.18944.25925.18944h.77776l.25925-.18944.25925.063145.5185-.31572.25925.12629.25925-.25258.25925.18944 1.2963-.063145m1.037 0 .77776-.12629.5185-.31573.25925-.31572.5185-.063145h.25925l.5185-.37887.5185.12629.5185-.31572.25925.12629.25925-.31572.25925.18944.25925-.063145.77776-.94718.25925-.063145.25925-.25258.25925.063145.25925-.12629.25925-.5683 1.2963-1.3892.25925-.37887.25925-.063145.77776-.63145.25925-.18944.25925-.37887h.25925l.25925-.5683.5185-.5683h.5185l.25925-.12629.25925-.25258.25925.063145.25925-.063145.5185-.31572h.25925l1.037-.63145.77776-.31572.25925.063145 1.2963-.25258.5185-.063145 1.037-.18944.5185.12629 1.037-.18944.25925.12629 2.3333.063145.25925.12629 1.2963-.063145.77776-.12629.5185.12629.5185-.063145.25925.063145.77776-.25258.25925-.12629.5185-.063145.25925-.18944.5185-.063145.25925-.063145.5185.063145h.77776l.5185-.25258 1.037-.063145.77776-.31572h.25925l.5185-.25258 1.2963-.37887.5185.18944.5185-.18944.5185.25258.77776-.31572.5185-.12629.25925-.18944 1.037.063145.77776-.50516h.25925l.5185-.50516h.5185l.25925-.25258h.25925l.25925-.18944.25925.12629.25925-.18944.25925-.37887.5185-.18944.5185-.50516 1.8148-1.7049.25925-.063145.25925-.82089.5185-.6946.25925-.50516 1.037-.50516 1.037-.94718.77776-.31572.25925.063145.77776-.31572.25925-.50516 1.037-.50516.25925-.44202.5185-.25258h.25925l.25925-.12629.25925.12629.25925-.12629.5185.063145h.25925l.5185-.25258 2.8518-.063145.5185-.063145.77776.063145.25925.12629h4.9258l.25925-.12629h.77776l.77776-.37887h.25925l.25925-.18944.5185-.063145.5185-.18944.5185-.063145.25925.063145.5185-.25258h.25925l.25925-.18944.25925.063145.77776-.31572.25925-.063145.25925-.25258.5185.063145.25925-.18944.25925.063145.25925-.18944.25925.063145.25925-.18944.77776-.063145.25925.18944.77776-.18944.25925-.18944.25925.063145 1.037-.56831.25925-.18944.25925.18944.25925-.12629h.5185l.25925-.18944h.5185l.25925-.12629h.25925l.25925-.25258.25925.063145 1.037-.44202h.77776l.25925-.12629h.25925l1.2963-1.0103.77776-1.4523.77776-.88403.5185-.18944 1.037-.88403 1.5555-1.2629.25925-.31572.5185.063145 1.037-.63145v0" clip-path="url(#b)" fill="none" stroke="#28f" stroke-linecap="square" stroke-width="1.5"/>
   </g>
   <g id="fh">
    <path d="m52 523.06v-232.9" fill="none" stroke="#000" stroke-linecap="square" stroke-width=".8"/>
   </g>
   <g id="fi">
    <path d="m853.2 523.06v-232.9" fill="none" stroke="#000" stroke-linecap="square" stroke-width=".8"/>
   </g>
   <g id="fj">
    <path d="m52 523.06h801.2" fill="none" stroke="#000" stroke-linecap="square" stroke-width=".8"/>
   </g>
   <g id="fk">
    <path d="m52 290.16h801.2" fill="none" stroke="#000" stroke-linecap="square" stroke-width=".8"/>
   </g>
   <g id="fl">
    <!-- サーバー数の推移 -->
    <g transform="translate(404.6 284.16) scale(.12 -.12)">
     <defs>
      <path id="z" transform="scale(.015625)" d="m4685 2893q0-621-84-1111-83-489-288-877-204-387-569-691t-928-560l-544 512q448 167 781 371 333 205 550 503 218 298 323 739 106 442 106 1075v1620q0 192-10 339-9 147-22 217h723q-6-70-22-217t-16-339v-1581zm-2304 2086q-7-64-23-199-16-134-16-313v-2317q0-128 6-256 7-128 13-224 7-96 13-140h-710q6 44 12 140 7 96 13 221 7 125 7 259v2317q0 122-10 256-9 135-28 256h723zm-1978-1197q45-12 144-22t237-20q138-9 285-9h4217q237 0 394 13t246 26v-679q-76 7-240 13-163 6-393 6h-4224q-147 0-282-3-134-3-234-10-99-6-150-12v697z"/>
      <path id="s" transform="scale(.015625)" d="m621 2854q109-6 265-16 157-9 339-16 183-6 349-6 128 0 352 0t509 0 598 0q314 0 624 0 311 0 586 0t486 0q212 0 327 0 230 0 416 16t301 22v-793q-109 6-308 19-198 13-409 13-109 0-324 0-214 0-489 0t-586 0q-310 0-624 0-313 0-598 0t-509 0-352 0q-262 0-525-10-262-9-428-22v793z"/>
      <path id="y" transform="scale(.015625)" d="m4941 5037q83-109 176-269t182-320q90-160 154-288l-416-179q-96 192-240 448t-272 435l416 173zm723 275q83-122 182-282 100-160 196-317 96-156 153-271l-416-186q-102 205-246 454-144 250-279 429l410 173zm-4339-3360q102 262 201 556 100 295 183 612t144 630q61 314 93 602l723-147q-19-83-45-183-26-99-48-195t-42-166q-32-154-86-394t-131-512-164-551q-86-278-182-514-115-301-269-618-153-317-326-618-173-300-346-550l-697 294q301 397 563 874t429 880zm3155 198q-96 250-215 531-118 282-243 567-124 285-246 534-122 250-224 429l659 218q96-179 221-429t253-535q128-284 249-566 122-281 218-525 90-230 195-518 106-288 211-592 106-304 195-589 90-285 154-515l-729-237q-84 352-199 736t-240 768-259 723z"/>
     </defs>
     <use xlink:href="#z"/>
     <use transform="translate(100)" xlink:href="#s"/>
     <use transform="translate(200)" xlink:href="#y"/>
     <use transform="translate(300)" xlink:href="#s"/>
     <use transform="translate(400)" xlink:href="#o"/>
     <use transform="translate(500)" xlink:href="#t"/>
     <use transform="translate(600)" xlink:href="#p"/>
     <use transform="translate(700)" xlink:href="#n"/>
    </g>
   </g>
  </g>
 </g>
 <defs>
  <clipPath id="c">
   <rect x="52" y="26.88" width="801.2" height="232.9"/>
  </clipPath>
  <clipPath id="b">
   <rect x="52" y="290.16" width="801.2" height="232.9"/>
  </clipPath>
 </defs>
</svg>
