<!DOCTYPE svg  PUBLIC '-//W3C//DTD SVG 1.1//EN'  'http://www.w3.org/Graphics/SVG/1.1/DTD/svg11.dtd'>
<svg version="1.1" viewBox="0 0 864 576" xmlns="http://www.w3.org/2000/svg" xmlns:xlink="http://www.w3.org/1999/xlink">
 <defs>
  <style type="text/css">*{stroke-linejoin: round; stroke-linecap: butt}</style>
 </defs>
 <g id="aa">
  <g id="ab">
   <path d="m0 576h864v-576h-864z" fill="#fff"/>
  </g>
  <g id="ac">
   <g id="ad">
    <path d="m52 259.78h801.2v-232.9h-801.2z" fill="#fff"/>
   </g>
   <g id="ae">
    <path d="m131.85 259.78h.78026v-232.9h-.78026z" clip-path="url(#b)" fill="#808080" opacity=".3" stroke="#808080"/>
   </g>
   <g id="af">
    <path d="m419.11 259.78h.52017v-232.9h-.52017z" clip-path="url(#b)" fill="#808080" opacity=".3" stroke="#808080"/>
   </g>
   <g id="ag">
    <path d="m728.61 259.78h1.0403v-232.9h-1.0403z" clip-path="url(#b)" fill="#808080" opacity=".3" stroke="#808080"/>
   </g>
   <g id="ah">
    <g id="ai">
     <g id="aj">
      <path d="m104.15 259.78v-232.9" clip-path="url(#b)" fill="none" stroke="#b0b0b0" stroke-linecap="square" stroke-opacity=".3" stroke-width=".8"/>
     </g>
     <g id="ak">
      <defs>
       <path id="g" d="m0 0v3.5" stroke="#000" stroke-width=".8"/>
      </defs>
      <use x="104.149412" y="259.777732" stroke="#000000" stroke-width=".8" xlink:href="#g"/>
     </g>
    </g>
    <g id="al">
     <g id="am">
      <path d="m253.96 259.78v-232.9" clip-path="url(#b)" fill="none" stroke="#b0b0b0" stroke-linecap="square" stroke-opacity=".3" stroke-width=".8"/>
     </g>
     <g id="an">
      <use x="253.958268" y="259.777732" stroke="#000000" stroke-width=".8" xlink:href="#g"/>
     </g>
    </g>
    <g id="ao">
     <g id="ap">
      <path d="m403.77 259.78v-232.9" clip-path="url(#b)" fill="none" stroke="#b0b0b0" stroke-linecap="square" stroke-opacity=".3" stroke-width=".8"/>
     </g>
     <g id="aq">
      <use x="403.767124" y="259.777732" stroke="#000000" stroke-width=".8" xlink:href="#g"/>
     </g>
    </g>
    <g id="ar">
     <g id="as">
      <path d="m553.58 259.78v-232.9" clip-path="url(#b)" fill="none" stroke="#b0b0b0" stroke-linecap="square" stroke-opacity=".3" stroke-width=".8"/>
     </g>
     <g id="at">
      <use x="553.575981" y="259.777732" stroke="#000000" stroke-width=".8" xlink:href="#g"/>
     </g>
    </g>
    <g id="au">
     <g id="av">
      <path d="m703.38 259.78v-232.9" clip-path="url(#b)" fill="none" stroke="#b0b0b0" stroke-linecap="square" stroke-opacity=".3" stroke-width=".8"/>
     </g>
     <g id="aw">
      <use x="703.384837" y="259.777732" stroke="#000000" stroke-width=".8" xlink:href="#g"/>
     </g>
    </g>
    <g id="ax">
     <g id="ay">
      <path d="m853.19 259.78v-232.9" clip-path="url(#b)" fill="none" stroke="#b0b0b0" stroke-linecap="square" stroke-opacity=".3" stroke-width=".8"/>
     </g>
     <g id="az">
      <use x="853.193693" y="259.777732" stroke="#000000" stroke-width=".8" xlink:href="#g"/>
     </g>
    </g>
   </g>
   <g id="ba">
    <g id="bb">
     <g id="bc">
      <path d="m52 246.93h801.2" clip-path="url(#b)" fill="none" stroke="#b0b0b0" stroke-linecap="square" stroke-opacity=".3" stroke-width=".8"/>
     </g>
     <g id="bd">
      <defs>
       <path id="e" d="m0 0h-3.5" stroke="#000" stroke-width=".8"/>
      </defs>
      <use x="52" y="246.926099" stroke="#000000" stroke-width=".8" xlink:href="#e"/>
     </g>
     <g id="be">
      <!-- 300 -->
      <g transform="translate(27.9 250.91) scale(.1 -.1)">
       <defs>
        <path id="r" transform="scale(.015625)" d="m1715-90q-371 0-656 90t-503 240q-217 150-377 323l359 474q211-205 479-359 269-153 634-153 269 0 467 92 199 93 311 266t112 423q0 256-125 451t-429 300q-304 106-835 106v551q467 0 732 105 266 106 384 291 119 186 119 423 0 307-192 489-192 183-531 183-269 0-503-119-233-118-438-316l-384 460q282 256 614 413 333 157 737 157 422 0 748-144 327-144 512-413 186-269 186-659 0-403-221-685-221-281-592-422v-26q269-70 490-227t349-400 128-557q0-422-215-726-214-304-573-468-358-163-787-163z"/>
        <path id="a" transform="scale(.015625)" d="m1830-90q-460 0-806 275-346 276-535 823-188 547-188 1366 0 820 188 1357 189 538 535 803 346 266 806 266 461 0 800-269 340-269 528-803 189-534 189-1354 0-819-189-1366-188-547-528-823-339-275-800-275zm0 589q237 0 422 185 186 186 288 599 103 413 103 1091 0 679-103 1082-102 403-288 582-185 180-422 180-236 0-422-180-186-179-292-582-105-403-105-1082 0-678 105-1091 106-413 292-599 186-185 422-185z"/>
       </defs>
       <use xlink:href="#r"/>
       <use transform="translate(57)" xlink:href="#a"/>
       <use transform="translate(114)" xlink:href="#a"/>
      </g>
     </g>
    </g>
    <g id="bf">
     <g id="bg">
      <path d="m52 220.79h801.2" clip-path="url(#b)" fill="none" stroke="#b0b0b0" stroke-linecap="square" stroke-opacity=".3" stroke-width=".8"/>
     </g>
     <g id="bh">
      <use x="52" y="220.787184" stroke="#000000" stroke-width=".8" xlink:href="#e"/>
     </g>
     <g id="bi">
      <!-- 600 -->
      <g transform="translate(27.9 224.77) scale(.1 -.1)">
       <defs>
        <path id="k" transform="scale(.015625)" d="m1971-90q-339 0-634 144-294 144-518 435-224 292-352 733-128 442-128 1044 0 678 147 1161 148 483 397 784 250 301 570 445t665 144q397 0 688-147 292-147 490-359l-403-448q-128 154-327 253-198 99-409 99-307 0-567-182-259-182-413-605-153-422-153-1145 0-608 115-1002t326-589q212-195 493-195 212 0 375 121 163 122 259 343t96 522q0 300-90 511-89 212-259 320-169 109-419 109-211 0-451-134t-458-461l-25 538q134 192 313 323t374 201q196 71 375 71 397 0 694-163 298-163 467-490 170-326 170-825 0-468-195-817-195-348-512-544-317-195-701-195z"/>
       </defs>
       <use xlink:href="#k"/>
       <use transform="translate(57)" xlink:href="#a"/>
       <use transform="translate(114)" xlink:href="#a"/>
      </g>
     </g>
    </g>
    <g id="bj">
     <g id="bk">
      <path d="m52 194.65h801.2" clip-path="url(#b)" fill="none" stroke="#b0b0b0" stroke-linecap="square" stroke-opacity=".3" stroke-width=".8"/>
     </g>
     <g id="bl">
      <use x="52" y="194.648269" stroke="#000000" stroke-width=".8" xlink:href="#e"/>
     </g>
     <g id="bm">
      <!-- 900 -->
      <g transform="translate(27.9 198.63) scale(.1 -.1)">
       <defs>
        <path id="q" transform="scale(.015625)" d="m1562-90q-410 0-708 150-297 151-502 356l403 461q141-160 346-256t422-96q224 0 425 102 202 103 352 333 151 230 237 614 87 384 87 941 0 589-115 970t-323 563-496 182q-205 0-372-118-166-118-262-336t-96-525q0-301 86-512 87-211 259-323 173-112 417-112 224 0 460 141 237 141 448 461l32-544q-134-180-313-314t-371-208-384-74q-391 0-689 166-297 167-467 496-169 330-169 823 0 467 195 816t515 541 698 192q339 0 636-138 298-137 519-419 221-281 349-710t128-1018q0-691-141-1187t-391-807q-249-310-563-461-313-150-652-150z"/>
       </defs>
       <use xlink:href="#q"/>
       <use transform="translate(57)" xlink:href="#a"/>
       <use transform="translate(114)" xlink:href="#a"/>
      </g>
     </g>
    </g>
    <g id="bn">
     <g id="bo">
      <path d="m52 168.51h801.2" clip-path="url(#b)" fill="none" stroke="#b0b0b0" stroke-linecap="square" stroke-opacity=".3" stroke-width=".8"/>
     </g>
     <g id="bp">
      <use x="52" y="168.509354" stroke="#000000" stroke-width=".8" xlink:href="#e"/>
     </g>
     <g id="bq">
      <!-- 1200 -->
      <g transform="translate(22.2 172.49) scale(.1 -.1)">
       <defs>
        <path id="f" transform="scale(.015625)" d="m544 0v608h1037v3277h-845v467q333 58 579 147 247 90 451 218h557v-4109h915v-608h-2694z"/>
        <path id="d" transform="scale(.015625)" d="m282 0v429q697 621 1164 1136 468 515 701 956 234 442 234 826 0 256-87 451-86 196-262 301-176 106-445 106-275 0-506-151-230-150-422-368l-416 410q301 333 637 518 336 186 803 186 429 0 749-176t496-493 176-745q0-455-224-919t-615-935q-390-470-889-950 186 20 394 36t374 16h1184v-634h-3046z"/>
       </defs>
       <use xlink:href="#f"/>
       <use transform="translate(57)" xlink:href="#d"/>
       <use transform="translate(114)" xlink:href="#a"/>
       <use transform="translate(171)" xlink:href="#a"/>
      </g>
     </g>
    </g>
    <g id="br">
     <g id="bs">
      <path d="m52 142.37h801.2" clip-path="url(#b)" fill="none" stroke="#b0b0b0" stroke-linecap="square" stroke-opacity=".3" stroke-width=".8"/>
     </g>
     <g id="bt">
      <use x="52" y="142.370439" stroke="#000000" stroke-width=".8" xlink:href="#e"/>
     </g>
     <g id="bu">
      <!-- 1500 -->
      <g transform="translate(22.2 146.36) scale(.1 -.1)">
       <defs>
        <path id="j" transform="scale(.015625)" d="m1715-90q-365 0-653 90t-506 237q-217 147-383 307l352 480q134-134 294-246t361-183q202-70 452-70 262 0 473 118 212 119 333 346 122 227 122 541 0 460-247 716-246 256-649 256-224 0-384-64t-365-198l-365 237 141 2240h2387v-627h-1747l-109-1204q154 77 307 118 154 42 340 42 397 0 723-160t518-490q192-329 192-847 0-519-224-887t-586-560q-361-192-777-192z"/>
       </defs>
       <use xlink:href="#f"/>
       <use transform="translate(57)" xlink:href="#j"/>
       <use transform="translate(114)" xlink:href="#a"/>
       <use transform="translate(171)" xlink:href="#a"/>
      </g>
     </g>
    </g>
    <g id="bv">
     <g id="bw">
      <path d="m52 116.23h801.2" clip-path="url(#b)" fill="none" stroke="#b0b0b0" stroke-linecap="square" stroke-opacity=".3" stroke-width=".8"/>
     </g>
     <g id="bx">
      <use x="52" y="116.231524" stroke="#000000" stroke-width=".8" xlink:href="#e"/>
     </g>
     <g id="by">
      <!-- 1800 -->
      <g transform="translate(22.2 120.22) scale(.1 -.1)">
       <defs>
        <path id="l" transform="scale(.015625)" d="m1830-90q-441 0-787 163-345 164-547 448-202 285-202 650 0 314 122 557t314 419 403 291v32q-256 186-442 458-185 272-185 643 0 365 176 640t480 425q304 151 694 151 410 0 704-160t457-439q164-278 164-649 0-237-96-448t-234-381q-137-169-291-278v-32q218-115 397-285 179-169 288-406t109-557q0-346-189-628-189-281-532-448-342-166-803-166zm314 2708q205 198 310 419 106 221 106 464 0 211-83 384t-247 272q-163 99-393 99-288 0-480-183-192-182-192-502 0-256 134-429 135-172 359-294t486-230zm-294-2170q236 0 418 89 183 90 285 253 103 164 103 388 0 211-90 367-89 157-246 272-157 116-368 215t-454 195q-244-173-398-426-153-252-153-553 0-237 118-416 119-179 324-282 205-102 461-102z"/>
       </defs>
       <use xlink:href="#f"/>
       <use transform="translate(57)" xlink:href="#l"/>
       <use transform="translate(114)" xlink:href="#a"/>
       <use transform="translate(171)" xlink:href="#a"/>
      </g>
     </g>
    </g>
    <g id="bz">
     <g id="ca">
      <path d="m52 90.093h801.2" clip-path="url(#b)" fill="none" stroke="#b0b0b0" stroke-linecap="square" stroke-opacity=".3" stroke-width=".8"/>
     </g>
     <g id="cb">
      <use x="52" y="90.092609" stroke="#000000" stroke-width=".8" xlink:href="#e"/>
     </g>
     <g id="cc">
      <!-- 2100 -->
      <g transform="translate(22.2 94.078) scale(.1 -.1)">
       <use xlink:href="#d"/>
       <use transform="translate(57)" xlink:href="#f"/>
       <use transform="translate(114)" xlink:href="#a"/>
       <use transform="translate(171)" xlink:href="#a"/>
      </g>
     </g>
    </g>
    <g id="cd">
     <g id="ce">
      <path d="m52 63.954h801.2" clip-path="url(#b)" fill="none" stroke="#b0b0b0" stroke-linecap="square" stroke-opacity=".3" stroke-width=".8"/>
     </g>
     <g id="cf">
      <use x="52" y="63.953694" stroke="#000000" stroke-width=".8" xlink:href="#e"/>
     </g>
     <g id="cg">
      <!-- 2400 -->
      <g transform="translate(22.2 67.939) scale(.1 -.1)">
       <defs>
        <path id="m" transform="scale(.015625)" d="m2170 0v3072q0 192 12 457 13 266 20 458h-26q-90-179-183-365-92-185-195-364l-921-1415h2579v-576h-3328v493l1875 2957h858v-4717h-691z"/>
       </defs>
       <use xlink:href="#d"/>
       <use transform="translate(57)" xlink:href="#m"/>
       <use transform="translate(114)" xlink:href="#a"/>
       <use transform="translate(171)" xlink:href="#a"/>
      </g>
     </g>
    </g>
    <g id="ch">
     <g id="ci">
      <path d="m52 37.815h801.2" clip-path="url(#b)" fill="none" stroke="#b0b0b0" stroke-linecap="square" stroke-opacity=".3" stroke-width=".8"/>
     </g>
     <g id="cj">
      <use x="52" y="37.814779" stroke="#000000" stroke-width=".8" xlink:href="#e"/>
     </g>
     <g id="ck">
      <!-- 2700 -->
      <g transform="translate(22.2 41.8) scale(.1 -.1)">
       <defs>
        <path id="i" transform="scale(.015625)" d="m1235 0q32 646 109 1187t224 1024 384 941 576 938h-2208v627h3027v-455q-409-512-665-989-256-476-397-969t-205-1053-90-1251h-755z"/>
       </defs>
       <use xlink:href="#d"/>
       <use transform="translate(57)" xlink:href="#i"/>
       <use transform="translate(114)" xlink:href="#a"/>
       <use transform="translate(171)" xlink:href="#a"/>
      </g>
     </g>
    </g>
   </g>
   <g id="cl">
    <path d="m88.418 222.44.074124.17426.065455-.34852.27049.34852.13784-.08713.36802-.8713.78069-3.2238.79369-5.1407.38839-1.3069.39099-.17426.36759-1.6555.39013-1.2198.39013-2.0911.39013-2.7882.39013-.60991 1.1704-8.8872 1.5605-10.281.39013-1.3941.39013-.78417.39013-2.004.39013-5.3149 1.5605-35.375.78026-21.173 1.5605-48.793.39013-5.3149.39013-2.3525.39013-.78417.39013 2.6139.39013 1.5683 1.9506 43.565.78026 21.608.78025 19.778 1.1704 23.874 1.1704 17.339 1.1704 14.464.39013 2.701.39013 3.9208.39013 2.7882.39013 3.6594.39013 1.9169.39013 3.2238 1.1704 6.5347.39013 2.4396.39013 1.5683.39013 3.4852.39013 1.1327.39013 1.7426.78026 1.6555.39013 1.1327.39013.26139.39013 1.3069.39013.52278.78025.26139.78026-.43565 1.1704-2.8753.39013-.26139.39013-.95843.39013-.43565.78025-3.3981.78026-3.9208.39013.26139.39013-.17426.39013-2.7882.39013-1.5683.39013-.78417.78025-2.7882.39013-3.1367.39013-1.7426.39013-.60991 1.1704-4.2694.39013-3.9208.39013-2.4396.39013-3.6594 1.1704-7.8417.39013-1.3941m.78026 19.517.39013-12.285.39013-2.3525.39013-1.3941 1.1704-13.418.39013-6.012.78025-18.21.78025-22.654.39013-16.293 1.1704-31.105.78026-14.725.39013-3.7466.39013.43565.39013-1.2198.39013 1.7426.78025 8.8001.78026 21.173.39013 6.9704 1.1704 28.404.78025 14.725.78025 16.555.78026 12.111.78025 10.891 1.9506 21.608 2.3408 12.808.78025 5.7506.78026 3.1367.39013.43565.39013.8713.39013 1.3069.39013.60991 1.1704 4.5307.39013-.43565.39013.34852h.39013l.39013.52278.39013-1.3069.39013.17426.39013-.34852.39013-.52278.39013-.26139.39013-.60991.39013.08713.39013-.52278.39013-2.0911.39013-1.4812.39013-.8713 1.5605-6.2733.39013-1.0456.39013-2.2654.39013-1.2198.39013-2.701.39013-1.0456.39013-3.2238.39013-1.6555.39013-3.3109.39013-.95843.78025-2.701.39013-2.2654.39013-1.3941.78025-6.012.39013-1.8297.39013-.43565.39013-3.1367.39013-1.1327.39013-2.3525 1.1704-4.5307 1.1704-18.733 1.1704-27.62.39013-13.766 1.5605-36.856.78025-12.111.78026-4.4436.39013 1.0456.39013 3.7466.78025 17.6 1.1704 28.23.78026 19.43 1.1704 21.521.78026 11.763 1.5605 23.961 1.1704 13.418 1.5605 12.547 2.7309 14.115.39013 1.1327.39013.69704.39013 1.1327.39013.60991h.39013l.52017.26139.52017.8713.13004-.08713.26008-.52278.52017.52278.13004.08713.26008-.60991.13004-.52278.13004.17426.26008-.95843h.13004l.13004.17426.13004-.17426.13004.087129.13004-.43565.13004.34852.39013-1.2198.13004.17426.13004-.08713.13004-.43565.13004.08713.26008-.78417.13004-.17426.26008-.8713.13004-.08713.26008-.52278.13004-.08713.26008-1.3941.13004.08713.26008-.43565.13004.08713.52017-1.2198.39013-2.701h.13004l.52017-2.3525.26008-1.0456.13004-.52278h.13004l1.0403-4.3565.13004-1.0456.13004-.087129.9103-5.5763.39013-1.2198.26008-.69704.13004.17426.26008-2.0911.13004-.34852.26008-1.3941.13004-.34852.39013-3.0495.39013-.8713.26008-1.7426.13004-.087129.13004.17426.13004-.08713.39013-1.9169.26008-.95843.13004-1.6555.13004.26139 1.1704-7.406h.13004l.13004-.17426.26008-1.2198.13004.69704.13004-1.0456.13004.26139 1.1704-10.281.9103-17.774 1.8206-52.888.13004-1.7426.9103-23.874.39013-4.1822.26008-3.7466.13004.43565.52017-2.8753.13004-.34852.13004-1.0456.13004-.087129.26008.8713 1.1704 22.915.26008 4.7921.13004.78417.52017 12.547.39013 9.5843 1.0403 20.737.13004 1.8297.52017 11.327 1.8206 31.192.39013 3.5723 1.8206 17.426 1.4305 8.8872.26008 1.2198.39013 3.0495.26008 1.9169.26008 2.1782.39013 2.1782.26008 1.2198.13004 1.6555.26008.43565.52017 2.9624.26008.69704.13004.17426.13004.60991.13004-.26139 1.0403 3.8337.39013.52278.13004-.08713.13004.43565.26008.08713.13004.26139.26008-.17426.13004.43565.13004-.34852.39013.34852.26008-.60991.13004-.43565.26008.17426.26008-.43565.52017-1.5683.26008-.69704.26008.26139.26008-.26139.52017-.95843.26008.43565.26008-1.2198.52017-3.2238.26008-1.3941.26008-.26139.26008-.95843.52017-.34852.52017-2.0911.26008-.08713.52017-3.3109.26008-.26139.26008-.78417h.26008l.26008-1.1327.26008-2.1782.78026-3.2238.52017-2.9624.26008-2.2654.26008-.52278.52017-2.0911.52017-3.7466.26008.087129.52017-1.4812.52017-4.008.78026-5.8377.26008-1.1327.26008-1.7426h.26008l.52017-3.1367.26008-.69704 1.3004-5.7506.78025-11.24.78026-17.426 2.0807-66.219.52017-11.763.52017-9.9328.52017-7.7545.78026-5.5763h.26008l.26008 1.1327.26008 1.7426.78026 7.406.78025 16.206.26008-3.1367.52017 14.376.52017 10.63 1.5605 34.068 1.3004 28.143 1.8206 30.408.78025 7.5803.78026 6.0991.26008 2.8753.52017 2.9624.26008 2.5268.26008 1.1327.52017 3.8337.26008.8713.26008-.17426.26008.087129.26008.43565.78025 2.9624.26008-1.1327.26008-.43565.26008.60991.26008-.26139.26008.69704.26008-.34852.52017.26139.52017-2.2654.52017.087129.26008-1.5683.26008-.8713.26008-1.3941.26008.34852.26008-1.3069.26008-.60991 1.5605-6.5347.52017-3.6594.52017-2.1782.52017-5.0535.52017-6.012.26008-.8713 1.3004-11.153.26008-1.3941.52017-3.5723.26008-.43565.26008-2.4396.52017-2.4396.26008-1.7426.26008-.60991.26008.34852.26008-.69704.26008-1.6555.26008-.78417.52017-2.1782.26008-.34852.26008.26139.26008-.26139.26008.69704.26008 2.2654.26008-.08713.26008.17426.26008-.34852.26008-.60991.26008.69704.26008-.08713.26008-.26139.26008-1.3941h.52017l.26008-2.8753 1.0403-17.339.78026-20.737.26008-12.198 1.0403-25.703.78025-20.388.52017-9.9328.26008-7.1446.26008-3.3109.26008-.60991.52017-4.0951.26008-.34852.26008.52278.26008 1.4812.26008.52278.26008 3.5723.52017 2.9624.52017 7.0575.52017 12.634.52017 7.0575.52017 11.065.52017 15.248 2.8609 59.248.52017 9.2358 1.3004 19.43.26008 3.0495.78026 5.5763 1.0403 9.41.26008 1.5683.26008 3.0495 1.0403 4.8793.52017 1.6555.26008 2.004.26008-.087129.26008.52278.52017 1.3941.26008.26139.26008.52278.52017-.34852.52017-1.0456.26008-1.3069.52017.087129.26008-1.1327.26008-1.6555.52017-1.1327.26008.17426.26008-2.004.26008-1.0456.26008-1.9169.26008-.34852.26008-2.6139.26008-1.0456.26008-.34852.78025-3.0495.26008-3.3109.52017-9.1486.26008-2.4396 1.0403-13.941.78025-5.9248.78026-2.6139.26008-1.3941.26008-3.0495.78025-5.1407.52017-3.7466.26008-.43565.26008-1.2198h.26008l.26008-1.2198.26008.78417.26008-1.7426.26008.34852.26008.78417.26008 1.2198.78026 1.7426.26008-.26139.26008 2.6139 1.3004 3.9208.26008-.43565.26008-1.2198 1.0403-14.464.78026-18.994.52017-13.069 1.5605-33.893 1.0403-10.368.26008 1.9169.26008.78417.26008.26139.26008 1.1327.52017 5.402.78026 20.388.26008 4.3565 1.0403 26.139.26008 2.9624.26008 6.7961.26008 3.6594.78026 18.036 1.0403 18.297.52017 9.0615.26008 3.5723.26008 1.2198.78026 10.456 1.0403 7.5803.26008 1.4812 1.0403 9.8457.26008 1.3941.52017 1.4812.26008 2.6139.26008 1.2198.52017 3.1367 2.0807 7.5803.26008-.17426.26008.69704.26008.26139.26008.52278.26008.08713.26008-.08713.26008-.43565.26008-.08713.26008.43565.26008-.60991.26008-.08713.26008-.26139.26008.17426.26008.43565h.26008l.52017-.8713.26008.43565.26008-.78417.26008-.08713.26008-1.0456.26008.17426.26008-.08713.26008-1.5683.26008-.69704.26008-1.3941.52017-1.0456.52017-1.6555.52017-4.2694.26008-.34852.78025-3.6594.26008-.52278.78025-3.1367.26008-.78417.26008-.087129.52017-2.2654.26008-.52278.26008-1.2198.26008-1.8297.52017-1.9169.26008-2.8753.78025-2.6139.26008-.34852.26008-1.0456.26008-.08713 1.8206-11.065.26008-.78417.26008-.17426.78025-4.9664.52017-6.3605.26008-4.008.78025-15.248.52017-10.107 1.5605-42.258.52017-9.9328.26008-7.406.52017-6.2733.52017-5.6634.78025-2.4396.26008 1.3941.26008 2.004.52017 8.2773.52017 12.982.78025 16.468.78026 21.608 1.3004 25.442.52017 7.5803.52017 8.4516 2.0807 24.832.78025 5.4892 1.0403 6.709.52017 2.701.26008.69704 2.6008 12.721h.26008l.26008.43565.26008 1.4812.26008-.26139.26008.95843.26008.08713.26008 1.3941.52017.34852.52017.52278.26008.17426.78025-.52278.26008-.78417.26008-.26139.26008-.69704.52017.34852.26008-.17426.26008.26139.52017.08713.26008-.08713.26008.60991.26008-.34852.78026-3.8337.52017-1.2198.52017-1.6555.26008-1.2198.26008-.43565.78025-2.7882.26008-2.6139.78025-3.8337.26008-1.3941.52017-1.6555.78025-4.0951.26008-1.5683.26008-.26139h.26008l.26008-.69704.26008-1.2198.26008-1.8297.26008-.95843.52017-2.7882.26008-2.004.26008-.69704.52017-2.701.26008.17426.52017-3.3981.26008-1.4812.52017-4.008h.26008l.52017-2.6139.26008-2.0911.26008-.60991.26008-2.0911.52017-11.763.52017-10.368.26008-6.2733 1.3004-42.345.52017-11.588.26008-8.6258.52017-6.6219.52017-5.8377.26008-2.7882.26008-.17426.52017-1.3069.26008 1.2198.26008 2.5268.78025 13.854.26008 3.5723 2.3408 52.539 1.3004 26.139 1.5605 21.173.52017 6.7961.26008 1.8297.78025 7.0575.26008 1.3941 1.0403 8.3645.26008 1.1327.78026 5.2278 1.0403 3.6594.26008 1.7426 1.0403 2.7882.26008.52278 1.0403 3.8337.26008.34852.26008.69704.26008-.26139.26008.17426.78026-1.0456m.52017 2.4396.26008 1.3941.26008-.08713.26008.26139.52017-1.5683.26008-.08713.26008-.52278.26008.17426.26008-.8713.26008.087129.52017-2.5268.26008-.78417h.26008l.26008-.8713.26008-2.0911.26008-.26139.26008-.95843.26008-1.4812.26008-.34852 1.0403-4.8793.52017-2.9624.26008-1.0456.26008.17426.26008-1.1327.26008-2.6139.78026-4.4436.52017-4.008.26008-2.1782.52017-2.2654.52017-2.5268.26008-.34852.26008-.69704.26008-1.1327.26008.087129.52017-2.7882.26008.08713 1.0403-9.41.52017.17426.26008-2.4396.26008-1.3069.26008-3.3981.26008-1.6555.26008-2.5268 1.3004-22.305.26008-5.7506.78025-23.961 1.5605-42.084 1.0403-15.858.26008-.52278.52017.78417.26008 1.8297.52017 5.8377.52017 12.547 1.0403 23.612.78026 21.957.26008 5.3149.26008 2.9624 2.6008 47.311 1.0403 9.2358 2.3408 18.907.26008.69704.78026 4.8793.26008.60991 1.0403 6.3605.78025 2.8753 1.3004 3.3109.78026 3.3981.52017.60991.26008-.43565.26008-.78417.26008-.34852.26008.52278.26008-.8713.26008.087129.26008.69704.26008-.52278.26008.43565.78025-1.4812.78026-2.5268.26008-.52278.52017-2.1782.26008-.69704.52017-2.7882.26008.26139.26008-1.5683.26008-.52278.78026-3.1367.26008-.52278.52017-2.004.26008-2.0911.26008-.43565 1.0403-5.1407.26008-.78417.26008-1.3941.26008-.78417.52017-2.7882.52017-2.004.52017-2.3525.52017-2.0911.26008-2.4396.26008-.34852.26008-1.2198.26008-2.701.78026-3.6594.26008-.43565.26008-.17426.26008-1.1327.52017-6.2733.78025-8.5387.78026-16.99 1.5605-33.196.78025-20.04.26008-5.1407.78025-22.305.52017-9.9328.26008-2.7882.26008-.34852.26008-5.1407.26008-2.1782.26008-.08713.52017 2.3525.26008 5.0535.52017 15.248.52017 11.414 1.5605 41.561.52017 11.588 1.0403 19.691 1.3004 21.521 2.0807 22.915.52017 3.2238.52017 3.5723.52017 3.4852 2.0807 12.198.26008-.08713.52017 2.4396.52017 1.4812.26008.34852.26008 1.0456.26008-.17426 1.3004 2.7882.26008-.17426.26008.52278.78026-.17426.52017-.78417.52017-.34852.26008-1.2198.26008-.17426h.26008l.26008-.43565.26008.52278.26008.08713.26008-.52278.52017-2.4396.52017-2.7882 1.8206-7.4932h.26008l.52017-1.7426.26008-1.6555.26008-.43565.52017-3.8337.26008.087129.26008-.69704.26008-.34852.26008-1.3069.26008-.08713 1.0403-8.4516.52017-2.3525.26008-.43565.52017-2.4396.26008-.34852.26008-.95843.26008-2.7882 1.0403-5.3149.26008-1.3069.26008-.08713.26008-.26139.52017-2.7882.26008-2.004 1.0403-13.244 1.3004-27.62.52017-17.426 2.0807-58.028.26008-5.3149.52017-5.4892.26008-3.8337.26008-.69704.26008-2.7882.26008 2.5268.26008-.17426.78025 9.4971.26008 1.6555.78025 15.161.52017 10.543 2.3408 56.286 1.0403 19.604.52017 7.1446.52017 8.4516.78025 10.891.26008 2.7882.52017 6.4476 1.3004 11.85.26008.60991.26008 2.4396.26008 1.3069.26008 2.0911.26008.78417.26008 2.0911.26008.69704.78025 3.3981.52017.78417.26008-.087129.52017.087129.26008-.26139.26008.17426.26008-.17426.26008-.43565.52017-1.3941.26008-.26139 1.0403-3.7466.26008-.087129.52017-2.7882.52017-3.6594.26008-1.2198.26008.43565.26008-.17426.78025-3.9208.26008.26139.26008-1.6555.26008-.34852.26008-1.2198.52017-8.9744 1.0403-9.8457.26008-1.3069.26008-2.5268.26008-3.7466.52017-2.7882.52017-4.1822.52017-3.8337.26008-3.1367.52017-2.0911.26008-.52278.26008-.8713.26008-.43565h.26008l.26008-.26139.26008.69704.26008.26139.26008.52278.52017-.08713.26008.08713.26008 1.3941.26008 2.1782.26008-.78417.26008 1.1327.26008 2.0911.26008-2.5268.26008.17426.26008-.52278.26008-1.7426.26008-3.3109.52017-2.3525.26008-2.9624.26008-6.4476.26008-2.7882 1.0403-24.745.26008-10.978 1.0403-24.222.78025-23.089 1.0403-23.002.78025-6.9704.26008-.43565.26008-.78417 1.0403 9.1486.78026 12.808 1.3004 28.753.26008 3.4852 1.3004 31.367.78025 15.073 2.0807 40.69.78025 10.63 1.8206 17.949 1.0403 6.3605.26008 2.2654.26008 1.1327.78025 5.2278.26008.34852.26008.78417.26008 1.4812.26008.17426.26008-.17426.26008.08713.26008-.26139.26008.26139.52017-.95843.26008-.52278 1.0403-3.7466.26008-.60991.52017-2.3525.52017-2.1782.52017-2.6139.26008-.34852.26008.26139.26008-2.3525.26008-.08713.26008-1.4812.52017-5.6634.26008-.17426.78025-7.3189.52017-2.5268.26008-1.7426.78025-8.3645.26008-4.0951.26008-1.1327.52017-4.4436.26008-.60991.52017-5.2278.52017-2.9624.26008-1.3941.52017-3.7466.26008-.43565.26008.43565.52017-2.1782.26008-.08713.78026-1.7426.26008-1.1327.26008.8713.52017 3.1367.26008 2.4396.26008-.17426h.26008l.52017 4.008.26008-2.6139.26008.26139 1.3004-15.161.26008-3.7466.52017-10.891.78026-24.571 1.3004-29.624.78025-11.85.52017-3.3109.26008.60991.26008.087129.26008-.95843.26008-.17426.26008 3.2238.26008 4.8793.26008 9.3229.52017 11.588 1.8206 45.307.52017 10.02.78026 17.165 1.5605 26.662 1.0403 12.198 1.0403 9.8457 1.0403 6.012 1.0403 5.7506.52017 3.3981.78025 4.2694.78026 4.008.26008 1.9169.26008.95843.26008.43565.26008 1.3941.52017 1.1327.26008.17426 1.3004 3.1367.26008-.26139.26008-.08713.26008-.34852.26008.26139.78025-.17426.52017-1.1327.52017-.69704.78026-.17426.26008-.52278.26008-.78417.26008-.34852.52017-2.6139.26008.087129.26008-.43565.26008-.8713.78026-4.4436.26008-1.3941 1.0403-2.9624.52017-3.4852.26008-1.5683.26008-.08713.52017-2.9624.26008-.52278.26008-2.4396.52017-2.4396 1.0403-4.7921.26008-.34852.26008-2.701.26008-.78417.26008-.26139.52017-5.2278.26008-.8713.26008-1.5683.52017-1.3069.26008-1.4812.26008-2.5268.52017-2.8753.26008-.43565.78025-7.8417 2.3408-54.456 1.3004-33.196 1.0403-13.854.52017-2.701.52017 1.2198.78026 10.456 2.3408 55.589 2.8609 49.315.26008 2.004 1.5605 17.252.52017 3.8337.78026 4.0951.78025 5.9248.26008.69704.52017 2.5268 1.0403 4.4436.26008 1.6555.78025 2.5268.26008.26139.52017 1.7426.26008.08713.52017 1.7426.26008.34852.78026 2.4396.52017.08713.52017-.78417.26008.17426.26008-.34852.26008-.78417.26008-.26139.26008-.52278.26008-.95843.26008.34852.52017-.60991.26008-1.8297.26008.17426.26008-.8713.26008.087129.26008-1.5683.26008-.69704.26008-.34852.26008-1.3069.26008-.52278.52017-2.5268.26008-2.3525.78026-2.8753.26008-1.9169.26008-.69704.78026-4.3565.52017-1.8297.26008-.60991.26008-1.7426.26008.17426.52017-1.9169h.26008l1.0403-7.2318.26008-.52278.26008-1.7426.78026-2.5268.26008-1.0456h.26008l.78026-6.012.26008-.34852 1.3004-8.1902 1.0403-12.285.78025-16.555.78026-22.131.78025-21.957.26008-3.3109.78026-18.21.26008-3.2238.26008-5.5763.26008-2.004.26008-3.3109.26008-.26139.26008-1.2198.26008-.34852.78026 7.5803.52017 12.808 1.0403 18.994 1.0403 23.264.26008 5.1407.52017 12.982.52017 10.107.78025 11.501.52017 11.24.78026 10.02 1.0403 9.4971 1.3004 12.111.26008.8713 1.0403 5.6634.52017 2.8753.26008 1.1327.52017 1.1327.52017 2.004.26008.69704.26008 1.9169.26008.69704.26008-.43565.52017.95843.26008.17426.26008.8713.26008 1.6555.26008-.17426.26008.26139.52017.69704.26008.17426h.26008l.52017.34852.52017-1.3941.26008.95843.26008-.17426.52017-1.2198.26008-.087129.52017-.8713.26008.69704.78025-1.3941.26008-2.004.26008-.8713.52017-.8713 2.0807-9.9328.26008-.95843.78026-5.5763.26008-.69704 1.0403-6.7961.26008-1.1327.26008-.43565.26008-.95843.52017-3.0495.78025-5.8377 1.0403-7.0575.26008-2.9624.26008-.69704.52017-2.701.26008 1.2198.26008-.95843.26008-.26139.26008-.78417.26008.08713.26008-.52278.26008-1.3941.52017-9.5843 1.0403-17.774.52017-16.032.26008-10.281.26008-5.402 1.0403-29.363.78025-15.77.52017-6.709h.26008l.26008-.17426.26008-1.6555.78025 4.1822.26008 3.5723.78025 19.169 1.0403 25.268.78025 20.04 1.8206 33.806.26008 3.0495.26008 6.0991 1.5605 19.43 1.3004 9.5843 1.3004 8.4516 1.5605 8.4516.26008.60991.26008 1.9169 1.3004 4.4436.26008 1.6555 1.0403 3.1367.26008 1.2198.26008-.26139.26008.34852.26008-.087129.26008-.26139.26008-.8713.26008 1.0456.26008-.78417.52017-.52278.26008-.95843.26008-.17426h.26008l.26008-.26139.26008-.78417.26008-2.004.26008-.34852h.26008l.26008-.26139.26008-1.0456.26008-1.6555.26008-.43565.26008-1.0456h.26008l.26008-.8713.78025 3.8337.26008-.34852.26008 1.3069.26008-.17426.26008-2.2654.26008.8713.52017-.95843.52017.43565.26008-1.9169.26008.34852.26008.8713.26008.17426.26008-.08713.26008-1.0456.26008.17426m1.0403-2.7882.26008-1.6555.26008-3.3109.26008-1.7426 1.8206-17.862 1.0403-5.1407 1.0403-12.372 1.3004-25.616 1.3004-41.299 1.0403-29.798.52017-9.6714.52017-7.3189.26008-1.5683.26008 1.1327h.26008l.26008.43565.52017 2.7882.52017 12.895.26008 6.5347.26008 1.9169.26008 7.5803.26008 2.6139.26008 5.0535.78025 19.517 2.3408 45.22 1.8206 24.832 2.0807 19.081.26008.60991 1.3004 7.9288 1.3004 5.402.26008.52278.52017 2.7882.52017 2.5268.78025 1.6555.52017 1.4812.52017.08713.26008-.34852.26008.52278.26008-1.0456.26008-.08713.26008.17426.26008-.087129.26008-.95843.26008.34852.52017-1.3941.26008-.60991.26008-1.0456.78025-1.7426.52017-2.004.26008-1.3941.26008-2.0911.26008-.17426.52017-1.6555.52017-2.701.26008.087129.52017-2.701.78025-1.7426.78026-4.705.52017-1.4812.52017-2.7882 1.3004-7.7545.52017-1.2198.26008-.087129.26008-1.8297.26008-.08713.26008-2.2654.26008-.08713 1.3004-5.6634.26008-1.2198h.26008l.26008-.60991.26008-1.3941.26008-3.0495.78026-3.1367.26008-4.5307.26008-2.3525 1.5605-35.2 1.0403-30.67.26008-5.2278 1.0403-32.412 1.0403-14.202.52017-1.7426.26008-.69704.26008-.34852.26008-1.0456.52017 5.3149.26008.34852.26008 4.6179.78026 25.79 1.0403 19.343 2.6008 48.096.78026 10.02.52017 8.4516.26008 3.3981.52017 8.3645 2.0807 20.388.78026 4.008.26008.52278.26008 1.1327.26008.08713.78026 2.9624.26008.95843.26008.52278.78026 3.6594.52017-1.0456.52017.17426.26008-.60991h.52017l.26008-.95843h.26008l.26008.26139.26008-.52278.26008-1.3941.52017-1.4812 1.3004-5.0535.26008-.34852.52017-2.0911.26008-.52278.26008-2.0911.26008-.52278.26008-1.4812.78025-6.5347 1.0403-9.1486.52017-4.1822.26008-1.0456.26008-2.701.26008-.52278.26008-2.004.26008-.52278.26008-1.2198.26008-.60991.52017-4.008.26008.08713.26008-1.3941.26008-.69704.78026-4.4436.26008-.26139.26008-.95843.26008-.08713.52017-.52278.26008 1.0456.26008-.26139.26008-1.5683.26008-.52278.26008.69704.52017 2.701.52017.26139.26008-.60991.26008 2.0911.52017-4.5307.26008-3.2238.52017-9.9328.26008-3.0495.52017-12.285 1.5605-45.046.78026-19.169.52017-6.5347.52017-8.5387.52017-2.1782.26008-.43565.26008-3.3981.26008-.43565.26008.43565.52017 1.9169.26008 2.9624.26008 4.9664v0" clip-path="url(#b)" fill="none" stroke="#28f" stroke-linecap="square" stroke-width="1.5"/>
   </g>
   <g id="cm">
    <path d="m52 259.78v-232.9" fill="none" stroke="#000" stroke-linecap="square" stroke-width=".8"/>
   </g>
   <g id="cn">
    <path d="m853.2 259.78v-232.9" fill="none" stroke="#000" stroke-linecap="square" stroke-width=".8"/>
   </g>
   <g id="co">
    <path d="m52 259.78h801.2" fill="none" stroke="#000" stroke-linecap="square" stroke-width=".8"/>
   </g>
   <g id="cp">
    <path d="m52 26.88h801.2" fill="none" stroke="#000" stroke-linecap="square" stroke-width=".8"/>
   </g>
   <g id="cq">
    <!-- 同時接続数の推移 -->
    <g transform="translate(404.6 20.88) scale(.12 -.12)">
     <defs>
      <path id="x" transform="scale(.015625)" d="m1587 3936h3232v-518h-3232v518zm320-1114h557v-2534h-557v2534zm301 0h2291v-2086h-2291v512h1734v1069h-1734v505zm-1683 2260h5113v-570h-4524v-5056h-589v5626zm4768 0h595v-4896q0-250-67-397t-227-218q-160-77-426-96t-675-19q-13 83-45 192t-77 218q-45 108-89 185 281-13 527-13 247 0 330 0 83 7 118 42 36 35 36 112v4890z"/>
      <path id="v" transform="scale(.015625)" d="m2714 4672h3238v-525h-3238v525zm-244-1235h3712v-538h-3712v538zm20-1184h3635v-531h-3635v531zm1523 3155h595v-2310h-595v2310zm832-2451h589v-2823q0-230-61-364-61-135-227-199-167-70-423-86t-633-16q-20 121-78 285-57 163-121 284 275-6 509-9t310-3q77 6 106 28 29 23 29 93v2810zm-2023-1677 487 282q153-160 313-352t294-381q135-189 206-343l-519-313q-64 153-189 348-124 196-278 394-154 199-314 365zm-2086 3718h1619v-4281h-1619v544h1056v3187h-1056v550zm32-1843h1293v-537h-1293v537zm-320 1843h563v-4832h-563v4832z"/>
      <path id="w" transform="scale(.015625)" d="m3866 5408h614v-870h-614v870zm-1479-653h3597v-518h-3597v518zm-230-1485h4e3v-518h-4e3v518zm825 922 519 102q64-160 121-342 58-182 96-352 39-170 45-304l-544-128q-6 134-42 313-35 180-83 365-48 186-112 346zm1856 109 589-71q-96-275-202-557-105-281-195-486l-518 77q58 147 122 329 64 183 118 372t86 336zm-2643-2106h3943v-518h-3943v518zm1408 685 602-115q-167-371-362-784t-390-797-362-685l-525 179q160 288 346 666t368 784 323 752zm-659-2157 358 403q352-102 733-240 381-137 752-304 371-166 697-336 327-169 558-329l-384-461q-218 160-532 336-313 176-685 345-371 170-755 323-384 154-742 263zm1894 1114 583-71q-122-550-353-944-230-393-604-662t-922-435q-547-167-1296-269-25 128-93 269-67 141-137 230 678 64 1168 192t819 349q330 221 531 550 202 330 304 791zm-4684 217q396 90 953 240 557 151 1120 311l77-544q-525-154-1053-311-528-156-963-284l-134 588zm121 2093h1965v-563h-1965v563zm819 1248h576v-5229q0-236-51-374t-192-208q-141-77-355-99-214-23-541-16-13 115-64 288t-109 294q205-6 381-6t234 0q64 0 92 28 29 29 29 93v5229z"/>
      <path id="u" transform="scale(.015625)" d="m4058 5408h595v-1798h-595v1798zm-1415-563h3443v-499h-3443v499zm231-992h3008v-499h-3008v499zm-224-877h3475v-1203h-531v729h-2432v-729h-512v1203zm1964-877h551v-1881q0-122 22-157 23-35 106-35 25 0 92 0 68 0 135 0t99 0q51 0 83 54t45 224 19 515q90-70 234-131t259-93q-19-429-83-662-64-234-183-326-118-93-316-93-39 0-103 0t-134 0-138 0q-67 0-99 0-237 0-365 64t-176 218q-48 153-48 422v1881zm-1164-6h550v-455q0-243-48-528-48-284-186-579-137-294-409-572-272-279-727-503-70 90-192 208-121 118-230 195 416 205 665 438 250 234 371 474 122 240 164 467 42 228 42 413v442zm-2240 3309 524-192q-121-244-259-503-137-259-275-496t-259-416l-410 173q122 186 246 438 125 253 240 515 116 263 193 481zm716-743 500-230q-224-359-496-756-272-396-548-764-275-368-518-650l-358 205q179 211 377 483 199 272 387 569 189 298 358 592 170 295 298 551zm-1721-665 307 403q166-154 339-340 173-185 320-364t224-327l-326-460q-77 160-218 348-141 189-314 384-172 196-332 356zm1485-832 435 179q128-211 249-458 122-246 215-474 93-227 137-412l-473-211q-32 185-119 422-86 237-201 486-115 250-243 468zm-1530-583q422 26 998 54 576 29 1184 68l7-499q-570-45-1127-84-556-38-992-70l-70 531zm1702-992 436 135q121-276 214-596t118-556l-454-148q-26 237-112 563-86 327-202 602zm-1363 109 499-83q-57-455-163-897-105-441-253-748-51 32-134 73-83 42-170 83-86 42-144 62 148 294 234 697t131 813zm691 627h525v-2861h-525v2861z"/>
      <path id="o" transform="scale(.015625)" d="m224 2022h3187v-499h-3187v499zm51 2247h3111v-487h-3111v487zm1127-1735 563-121q-154-320-333-672t-352-679q-173-326-326-582l-532 173q148 243 324 566t345 669q170 346 311 646zm934-832 563-64q-89-480-262-838t-461-614-701-432-976-298q-25 128-99 269t-157 237q659 102 1085 303 426 202 666 554t342 883zm422 3597 519-211q-147-218-298-436-150-217-278-377l-403 186q121 173 252 413 132 240 208 425zm-1203 109h563v-2957h-563v2957zm-1075-320 448 186q134-192 246-420 112-227 157-393l-467-211q-38 172-147 406t-237 432zm1094-1050 397-236q-160-263-400-529-240-265-519-489-278-224-553-378-51 103-141 237-89 135-179 218 269 109 534 294 266 186 493 416 228 231 368 467zm487-204q83-45 246-145 163-99 352-211t346-211 221-150l-327-423q-83 77-230 198-147 122-317 253-170 132-327 250-156 119-259 189l295 250zm1798 396h2311v-556h-2311v556zm115 1178 615-90q-103-640-263-1235t-384-1101q-224-505-512-889-44 57-134 134t-186 157-166 125q275 339 473 796 199 458 340 995 141 538 217 1108zm1223-1510 614-58q-147-1101-445-1940-297-838-813-1443-515-604-1321-1014-26 71-90 177-64 105-134 208-70 102-128 159 742 346 1212 880 471 535 730 1290 260 755 375 1741zm-1005-135q134-851 387-1597 253-745 659-1305 407-560 1002-874-70-57-154-150-83-93-154-189-70-96-121-179-633 371-1056 988-422 618-688 1434-265 816-425 1783l550 89zm-3309-3065 327 416q377-148 754-330 378-182 701-378 324-195 548-368l-416-435q-211 179-519 378-307 198-666 383-358 186-729 334z"/>
      <path id="t" transform="scale(.015625)" d="m3686 4378q-64-493-163-1041-99-547-265-1084-192-653-432-1104t-522-688-595-237q-320 0-596 221-275 221-448 621-172 400-172 931 0 537 220 1017 221 480 611 851 391 372 909 583 519 211 1121 211 576 0 1040-186 464-185 793-515 330-329 502-771 173-441 173-941 0-672-278-1194-278-521-816-851-538-329-1318-444l-378 601q166 20 307 42t263 48q307 70 585 217 279 148 496 375 218 227 342 534 125 308 125 692t-122 713q-121 330-358 573-236 243-582 380-346 138-781 138-525 0-935-186-409-185-694-489-284-304-432-656-147-352-147-678 0-365 89-605 90-240 224-355 135-115 276-115t288 144 297 457q151 314 298 800 147 461 246 982 100 522 145 1021l684-12z"/>
      <path id="p" transform="scale(.015625)" d="m2995 2925h2893v-519h-2893v519zm0-1280h2893v-519h-2893v519zm-64-1299h3232v-557h-3232v557zm1312 3577h563v-3763h-563v3763zm429 1466 634-141q-154-390-340-794-185-403-339-684l-512 140q103 199 208 458 106 259 195 528 90 269 154 493zm-1472 25 582-147q-153-518-371-1018-217-499-483-931t-573-758q-38 64-109 160-70 96-147 198-77 103-141 160 416 416 733 1034t509 1302zm128-1203h2720v-537h-2720v-4205h-582v4422l313 320h269zm-3174-2157q396 90 953 240 557 151 1120 311l77-544q-525-154-1053-311-528-156-963-284l-134 588zm121 2093h1965v-563h-1965v563zm819 1248h576v-5229q0-236-51-374t-192-208q-141-77-355-99-214-23-541-16-13 115-64 288t-109 294q205-6 381-6t234 0q64 0 92 28 29 29 29 93v5229z"/>
      <path id="n" transform="scale(.015625)" d="m4051 5402 595-109q-281-493-729-941t-1107-806q-39 64-106 144t-141 153q-73 74-137 119 608 288 1011 678t614 762zm-77-557h1511v-493h-1863l352 493zm1293 0h109l109 25 384-179q-192-505-496-905t-695-701q-390-301-845-519-454-217-947-358-44 109-137 253t-176 227q448 109 867 294 419 186 777 445 359 259 631 592t419 730v96zm-1990-954 377 307q167-96 336-218 170-121 320-249 151-128 247-237l-397-332q-90 108-237 236t-317 259q-169 132-329 234zm1107-934 595-109q-307-538-803-1031-496-492-1232-876-38 64-102 144t-138 156q-74 77-138 116 455 217 807 483t604 554q253 288 407 563zm-90-589h1460v-506h-1818l358 506zm1268 0h121l109 26 384-167q-192-614-531-1075t-787-794q-448-332-983-553-534-221-1129-355-45 115-132 269-86 153-176 249 551 96 1043 285 493 189 903 473 410 285 714 669t464 883v90zm-2132-1056 410 339q186-102 384-237 198-134 371-275t282-269l-435-371q-103 128-270 272-166 144-361 288t-381 253zm-2150 3533h589v-5376h-589v5376zm-992-1242h2336v-569h-2336v569zm1024-224 365-160q-96-339-231-707-134-368-291-727-157-358-336-672-179-313-365-537-44 128-134 291t-160 272q173 192 339 457 167 266 323 570 157 304 282 618t208 595zm941 1946 416-467q-314-122-695-221-380-99-784-173-403-74-780-131-20 102-71 236-51 135-102 231 358 58 732 138 375 80 711 179t573 208zm-397-2579q58-45 179-170 122-125 266-266 144-140 259-265t160-183l-352-473q-58 102-157 255-99 154-218 317-118 164-227 311-108 147-185 237l275 237z"/>
     </defs>
     <use xlink:href="#x"/>
     <use transform="translate(100)" xlink:href="#v"/>
     <use transform="translate(200)" xlink:href="#w"/>
     <use transform="translate(300)" xlink:href="#u"/>
     <use transform="translate(400)" xlink:href="#o"/>
     <use transform="translate(500)" xlink:href="#t"/>
     <use transform="translate(600)" xlink:href="#p"/>
     <use transform="translate(700)" xlink:href="#n"/>
    </g>
   </g>
  </g>
  <g id="cr">
   <g id="cs">
    <path d="m52 523.06h801.2v-232.9h-801.2z" fill="#fff"/>
   </g>
   <g id="ct">
    <path d="m131.85 523.06h.78026v-232.9h-.78026z" clip-path="url(#c)" fill="#808080" opacity=".3" stroke="#808080"/>
   </g>
   <g id="cu">
    <path d="m419.11 523.06h.52017v-232.9h-.52017z" clip-path="url(#c)" fill="#808080" opacity=".3" stroke="#808080"/>
   </g>
   <g id="cv">
    <path d="m728.61 523.06h1.0403v-232.9h-1.0403z" clip-path="url(#c)" fill="#808080" opacity=".3" stroke="#808080"/>
   </g>
   <g id="cw">
    <g id="cx">
     <g id="cy">
      <path d="m104.15 523.06v-232.9" clip-path="url(#c)" fill="none" stroke="#b0b0b0" stroke-linecap="square" stroke-opacity=".3" stroke-width=".8"/>
     </g>
     <g id="cz">
      <use x="104.149412" y="523.055464" stroke="#000000" stroke-width=".8" xlink:href="#g"/>
     </g>
     <g id="da">
      <!-- 2025-07-01 -->
      <g transform="translate(57.36 563.33) rotate(-30) scale(.1 -.1)">
       <defs>
        <path id="h" transform="scale(.015625)" d="m301 1536v544h1689v-544h-1689z"/>
       </defs>
       <use xlink:href="#d"/>
       <use transform="translate(57)" xlink:href="#a"/>
       <use transform="translate(114)" xlink:href="#d"/>
       <use transform="translate(171)" xlink:href="#j"/>
       <use transform="translate(228)" xlink:href="#h"/>
       <use transform="translate(263.7)" xlink:href="#a"/>
       <use transform="translate(320.7)" xlink:href="#i"/>
       <use transform="translate(377.7)" xlink:href="#h"/>
       <use transform="translate(413.4)" xlink:href="#a"/>
       <use transform="translate(470.4)" xlink:href="#f"/>
      </g>
     </g>
    </g>
    <g id="db">
     <g id="dc">
      <path d="m253.96 523.06v-232.9" clip-path="url(#c)" fill="none" stroke="#b0b0b0" stroke-linecap="square" stroke-opacity=".3" stroke-width=".8"/>
     </g>
     <g id="dd">
      <use x="253.958268" y="523.055464" stroke="#000000" stroke-width=".8" xlink:href="#g"/>
     </g>
     <g id="de">
      <!-- 2025-07-05 -->
      <g transform="translate(207.17 563.33) rotate(-30) scale(.1 -.1)">
       <use xlink:href="#d"/>
       <use transform="translate(57)" xlink:href="#a"/>
       <use transform="translate(114)" xlink:href="#d"/>
       <use transform="translate(171)" xlink:href="#j"/>
       <use transform="translate(228)" xlink:href="#h"/>
       <use transform="translate(263.7)" xlink:href="#a"/>
       <use transform="translate(320.7)" xlink:href="#i"/>
       <use transform="translate(377.7)" xlink:href="#h"/>
       <use transform="translate(413.4)" xlink:href="#a"/>
       <use transform="translate(470.4)" xlink:href="#j"/>
      </g>
     </g>
    </g>
    <g id="df">
     <g id="dg">
      <path d="m403.77 523.06v-232.9" clip-path="url(#c)" fill="none" stroke="#b0b0b0" stroke-linecap="square" stroke-opacity=".3" stroke-width=".8"/>
     </g>
     <g id="dh">
      <use x="403.767124" y="523.055464" stroke="#000000" stroke-width=".8" xlink:href="#g"/>
     </g>
     <g id="di">
      <!-- 2025-07-09 -->
      <g transform="translate(356.98 563.33) rotate(-30) scale(.1 -.1)">
       <use xlink:href="#d"/>
       <use transform="translate(57)" xlink:href="#a"/>
       <use transform="translate(114)" xlink:href="#d"/>
       <use transform="translate(171)" xlink:href="#j"/>
       <use transform="translate(228)" xlink:href="#h"/>
       <use transform="translate(263.7)" xlink:href="#a"/>
       <use transform="translate(320.7)" xlink:href="#i"/>
       <use transform="translate(377.7)" xlink:href="#h"/>
       <use transform="translate(413.4)" xlink:href="#a"/>
       <use transform="translate(470.4)" xlink:href="#q"/>
      </g>
     </g>
    </g>
    <g id="dj">
     <g id="dk">
      <path d="m553.58 523.06v-232.9" clip-path="url(#c)" fill="none" stroke="#b0b0b0" stroke-linecap="square" stroke-opacity=".3" stroke-width=".8"/>
     </g>
     <g id="dl">
      <use x="553.575981" y="523.055464" stroke="#000000" stroke-width=".8" xlink:href="#g"/>
     </g>
     <g id="dm">
      <!-- 2025-07-13 -->
      <g transform="translate(506.79 563.33) rotate(-30) scale(.1 -.1)">
       <use xlink:href="#d"/>
       <use transform="translate(57)" xlink:href="#a"/>
       <use transform="translate(114)" xlink:href="#d"/>
       <use transform="translate(171)" xlink:href="#j"/>
       <use transform="translate(228)" xlink:href="#h"/>
       <use transform="translate(263.7)" xlink:href="#a"/>
       <use transform="translate(320.7)" xlink:href="#i"/>
       <use transform="translate(377.7)" xlink:href="#h"/>
       <use transform="translate(413.4)" xlink:href="#f"/>
       <use transform="translate(470.4)" xlink:href="#r"/>
      </g>
     </g>
    </g>
    <g id="dn">
     <g id="do">
      <path d="m703.38 523.06v-232.9" clip-path="url(#c)" fill="none" stroke="#b0b0b0" stroke-linecap="square" stroke-opacity=".3" stroke-width=".8"/>
     </g>
     <g id="dp">
      <use x="703.384837" y="523.055464" stroke="#000000" stroke-width=".8" xlink:href="#g"/>
     </g>
     <g id="dq">
      <!-- 2025-07-17 -->
      <g transform="translate(656.6 563.33) rotate(-30) scale(.1 -.1)">
       <use xlink:href="#d"/>
       <use transform="translate(57)" xlink:href="#a"/>
       <use transform="translate(114)" xlink:href="#d"/>
       <use transform="translate(171)" xlink:href="#j"/>
       <use transform="translate(228)" xlink:href="#h"/>
       <use transform="translate(263.7)" xlink:href="#a"/>
       <use transform="translate(320.7)" xlink:href="#i"/>
       <use transform="translate(377.7)" xlink:href="#h"/>
       <use transform="translate(413.4)" xlink:href="#f"/>
       <use transform="translate(470.4)" xlink:href="#i"/>
      </g>
     </g>
    </g>
    <g id="dr">
     <g id="ds">
      <path d="m853.19 523.06v-232.9" clip-path="url(#c)" fill="none" stroke="#b0b0b0" stroke-linecap="square" stroke-opacity=".3" stroke-width=".8"/>
     </g>
     <g id="dt">
      <use x="853.193693" y="523.055464" stroke="#000000" stroke-width=".8" xlink:href="#g"/>
     </g>
     <g id="du">
      <!-- 2025-07-21 -->
      <g transform="translate(806.4 563.33) rotate(-30) scale(.1 -.1)">
       <use xlink:href="#d"/>
       <use transform="translate(57)" xlink:href="#a"/>
       <use transform="translate(114)" xlink:href="#d"/>
       <use transform="translate(171)" xlink:href="#j"/>
       <use transform="translate(228)" xlink:href="#h"/>
       <use transform="translate(263.7)" xlink:href="#a"/>
       <use transform="translate(320.7)" xlink:href="#i"/>
       <use transform="translate(377.7)" xlink:href="#h"/>
       <use transform="translate(413.4)" xlink:href="#d"/>
       <use transform="translate(470.4)" xlink:href="#f"/>
      </g>
     </g>
    </g>
   </g>
   <g id="dv">
    <g id="dw">
     <g id="dx">
      <path d="m52 506.43h801.2" clip-path="url(#c)" fill="none" stroke="#b0b0b0" stroke-linecap="square" stroke-opacity=".3" stroke-width=".8"/>
     </g>
     <g id="dy">
      <use x="52" y="506.43262" stroke="#000000" stroke-width=".8" xlink:href="#e"/>
     </g>
     <g id="dz">
      <!-- 104800 -->
      <g transform="translate(10.8 510.42) scale(.1 -.1)">
       <use xlink:href="#f"/>
       <use transform="translate(57)" xlink:href="#a"/>
       <use transform="translate(114)" xlink:href="#m"/>
       <use transform="translate(171)" xlink:href="#l"/>
       <use transform="translate(228)" xlink:href="#a"/>
       <use transform="translate(285)" xlink:href="#a"/>
      </g>
     </g>
    </g>
    <g id="ea">
     <g id="eb">
      <path d="m52 481.02h801.2" clip-path="url(#c)" fill="none" stroke="#b0b0b0" stroke-linecap="square" stroke-opacity=".3" stroke-width=".8"/>
     </g>
     <g id="ec">
      <use x="52" y="481.015428" stroke="#000000" stroke-width=".8" xlink:href="#e"/>
     </g>
     <g id="ed">
      <!-- 105200 -->
      <g transform="translate(10.8 485) scale(.1 -.1)">
       <use xlink:href="#f"/>
       <use transform="translate(57)" xlink:href="#a"/>
       <use transform="translate(114)" xlink:href="#j"/>
       <use transform="translate(171)" xlink:href="#d"/>
       <use transform="translate(228)" xlink:href="#a"/>
       <use transform="translate(285)" xlink:href="#a"/>
      </g>
     </g>
    </g>
    <g id="ee">
     <g id="ef">
      <path d="m52 455.6h801.2" clip-path="url(#c)" fill="none" stroke="#b0b0b0" stroke-linecap="square" stroke-opacity=".3" stroke-width=".8"/>
     </g>
     <g id="eg">
      <use x="52" y="455.598236" stroke="#000000" stroke-width=".8" xlink:href="#e"/>
     </g>
     <g id="eh">
      <!-- 105600 -->
      <g transform="translate(10.8 459.58) scale(.1 -.1)">
       <use xlink:href="#f"/>
       <use transform="translate(57)" xlink:href="#a"/>
       <use transform="translate(114)" xlink:href="#j"/>
       <use transform="translate(171)" xlink:href="#k"/>
       <use transform="translate(228)" xlink:href="#a"/>
       <use transform="translate(285)" xlink:href="#a"/>
      </g>
     </g>
    </g>
    <g id="ei">
     <g id="ej">
      <path d="m52 430.18h801.2" clip-path="url(#c)" fill="none" stroke="#b0b0b0" stroke-linecap="square" stroke-opacity=".3" stroke-width=".8"/>
     </g>
     <g id="ek">
      <use x="52" y="430.181044" stroke="#000000" stroke-width=".8" xlink:href="#e"/>
     </g>
     <g id="el">
      <!-- 106000 -->
      <g transform="translate(10.8 434.17) scale(.1 -.1)">
       <use xlink:href="#f"/>
       <use transform="translate(57)" xlink:href="#a"/>
       <use transform="translate(114)" xlink:href="#k"/>
       <use transform="translate(171)" xlink:href="#a"/>
       <use transform="translate(228)" xlink:href="#a"/>
       <use transform="translate(285)" xlink:href="#a"/>
      </g>
     </g>
    </g>
    <g id="em">
     <g id="en">
      <path d="m52 404.76h801.2" clip-path="url(#c)" fill="none" stroke="#b0b0b0" stroke-linecap="square" stroke-opacity=".3" stroke-width=".8"/>
     </g>
     <g id="eo">
      <use x="52" y="404.763852" stroke="#000000" stroke-width=".8" xlink:href="#e"/>
     </g>
     <g id="ep">
      <!-- 106400 -->
      <g transform="translate(10.8 408.75) scale(.1 -.1)">
       <use xlink:href="#f"/>
       <use transform="translate(57)" xlink:href="#a"/>
       <use transform="translate(114)" xlink:href="#k"/>
       <use transform="translate(171)" xlink:href="#m"/>
       <use transform="translate(228)" xlink:href="#a"/>
       <use transform="translate(285)" xlink:href="#a"/>
      </g>
     </g>
    </g>
    <g id="eq">
     <g id="er">
      <path d="m52 379.35h801.2" clip-path="url(#c)" fill="none" stroke="#b0b0b0" stroke-linecap="square" stroke-opacity=".3" stroke-width=".8"/>
     </g>
     <g id="es">
      <use x="52" y="379.346659" stroke="#000000" stroke-width=".8" xlink:href="#e"/>
     </g>
     <g id="et">
      <!-- 106800 -->
      <g transform="translate(10.8 383.33) scale(.1 -.1)">
       <use xlink:href="#f"/>
       <use transform="translate(57)" xlink:href="#a"/>
       <use transform="translate(114)" xlink:href="#k"/>
       <use transform="translate(171)" xlink:href="#l"/>
       <use transform="translate(228)" xlink:href="#a"/>
       <use transform="translate(285)" xlink:href="#a"/>
      </g>
     </g>
    </g>
    <g id="eu">
     <g id="ev">
      <path d="m52 353.93h801.2" clip-path="url(#c)" fill="none" stroke="#b0b0b0" stroke-linecap="square" stroke-opacity=".3" stroke-width=".8"/>
     </g>
     <g id="ew">
      <use x="52" y="353.929467" stroke="#000000" stroke-width=".8" xlink:href="#e"/>
     </g>
     <g id="ex">
      <!-- 107200 -->
      <g transform="translate(10.8 357.91) scale(.1 -.1)">
       <use xlink:href="#f"/>
       <use transform="translate(57)" xlink:href="#a"/>
       <use transform="translate(114)" xlink:href="#i"/>
       <use transform="translate(171)" xlink:href="#d"/>
       <use transform="translate(228)" xlink:href="#a"/>
       <use transform="translate(285)" xlink:href="#a"/>
      </g>
     </g>
    </g>
    <g id="ey">
     <g id="ez">
      <path d="m52 328.51h801.2" clip-path="url(#c)" fill="none" stroke="#b0b0b0" stroke-linecap="square" stroke-opacity=".3" stroke-width=".8"/>
     </g>
     <g id="fa">
      <use x="52" y="328.512275" stroke="#000000" stroke-width=".8" xlink:href="#e"/>
     </g>
     <g id="fb">
      <!-- 107600 -->
      <g transform="translate(10.8 332.5) scale(.1 -.1)">
       <use xlink:href="#f"/>
       <use transform="translate(57)" xlink:href="#a"/>
       <use transform="translate(114)" xlink:href="#i"/>
       <use transform="translate(171)" xlink:href="#k"/>
       <use transform="translate(228)" xlink:href="#a"/>
       <use transform="translate(285)" xlink:href="#a"/>
      </g>
     </g>
    </g>
    <g id="fc">
     <g id="fd">
      <path d="m52 303.1h801.2" clip-path="url(#c)" fill="none" stroke="#b0b0b0" stroke-linecap="square" stroke-opacity=".3" stroke-width=".8"/>
     </g>
     <g id="fe">
      <use x="52" y="303.095083" stroke="#000000" stroke-width=".8" xlink:href="#e"/>
     </g>
     <g id="ff">
      <!-- 108000 -->
      <g transform="translate(10.8 307.08) scale(.1 -.1)">
       <use xlink:href="#f"/>
       <use transform="translate(57)" xlink:href="#a"/>
       <use transform="translate(114)" xlink:href="#l"/>
       <use transform="translate(171)" xlink:href="#a"/>
       <use transform="translate(228)" xlink:href="#a"/>
       <use transform="translate(285)" xlink:href="#a"/>
      </g>
     </g>
    </g>
   </g>
   <g id="fg">
    <path d="m88.418 512.47h.13958l.77635-.25417 1.1699-.4448.40443-.25417 1.147-.19063.78025.12709.39013-.19063.39013-.31772h.39013l.78026-.82606.78025-.12709.78026-.57189 1.1704.12709.39013-.063543.78026-.63543.39013-.63543.78026-.57189h.39013l.78025-.57189.39013-.38126 1.1704-2.2875 1.1704-.8896.39013-.19063.39013.063543.39013-.31772h1.1704l.39013-.25417h.39013l.78025-.50834 1.9506-.38126.39013.12709.39013-.063543.39013.063543 1.9506-.25417 1.5605-.063543 1.1704-.12709 5.0717-.063543.78025-.063543h.39013l.39013-.12709h.78025l1.1704-.57189.78025-.063543 1.1704-.38126h.39013l.78026-.38126 1.1704-.25417 1.9506-.69897.78025-.31772.78025-.19063m.78026-.38126.39013-.25417.39013-.57189.39013-.31772 1.1704-.25417.78026-.25417.78025-.50834.39013-.82606.39013-.25417.78025-1.3344h.39013l.78026-.8896.39013-.19063.39013-.4448 1.5605-1.0167.39013.063543 1.5605-.8896.78026-.063543 1.1704-.19063.39013.12709h.39013l.78025-.4448.78026-.12709.39013.063543.39013-.12709.39013.063543 1.9506-.25417.78025.063543.78026-.063543.78025.063543h2.3408l.78026-.19063.78025.19063.39013.063543 1.1704-.31772h.39013l.39013-.12709h.39013l.39013-.25417.78026-.19063.39013-.31772 1.5605.063543.39013.063543.39013-.063543.39013-.19063 1.1704-.12709.39013.12709 1.1704-.12709h.39013l1.1704-.69897.39013-.063543.39013-.25417.39013.063543.78025-.12709.39013.063543.78026-.38126h.78025l.39013-.4448 1.9506-1.1438 1.1704-.63543.39013-.63543.39013-.063543.39013-.25417.39013-.69897 1.1704-1.0802.39013-.12709.39013.19063.39013-.12709.39013-.31772 1.5605-.4448.39013-.063543.39013.063543.39013-.19063.78025.063543h1.9506l.39013-.12709.78026.12709 1.1704-.12709 2.7309-.063543.39013.19063h.39013l1.6906-.4448.26008.063543h.13004l.26008-.12709h2.6008l.26008.12709.65021-.063543.26008-.063543h.26008l.13004-.12709.26008.12709.26008-.063543h.26008l.26008-.12709.52017.12709.26008-.063543 1.1704-.063543.26008-.19063.13004-.12708.26008.12708.26008.12709.65021-.25417.26008.063542.52017-.19063.9103.063543.26008.12708.78025-.63543h.13004l.52017-.4448h1.4305l.26008-.12709.65021-.063543 1.3004-.57189h.39013l.39013-.19063.13004-.19063.13004.12709.13004-.063543.13004.12709.39013-.38126.39013-.063543.39013-.19063.13004.063543.78025-.69897.26008-.063543.26008-.12709.26008-.63543.9103-.8896.13004.12709.26008-.12709.26008-.19063.13004.12709.26008-.063543.26008-.4448h.26008l.13004-.38126.13004.063543.65021-.25417h.13004l.26008-.31772.26008-.19063.52017-.063543.26008-.19063.39013-.063543.26008-.063543h.39013l.39013-.25417.52017-.19063.9103-.063543.26008-.063543 1.6906-.063543.26008-.063543 2.8609-.063543.26008-.063543 2.0807-.063543.65021-.25417 3.121-.063543 1.0403-.25417.26008-.19063 1.8206.063543.26008.12709 1.0403-.19063 1.3004-.063543.52017-.31772.78025-.063543.52017-.25417h.26008l.52017-.19063h.26008l.78026-.63543.26008-.12709.78026-.063543.26008-.25417 1.5605-.38126.26008.063543.26008-.12709.52017-.063543.78025-.19063.26008.063543 1.0403-.69897.26008-.063543.52017-.63543.26008-.19063h.26008l1.0403-.63543 1.3004-.31772 1.0403-1.0802.26008-.38126h.26008l.78025-.76252h.26008l1.0403-.76252.26008.063543 1.3004-1.2709h.26008l.26008-.38126 1.0403-.19063h1.8206l.26008-.12709h.26008l.26008-.12709 1.0403-.12709.78025-.063543 2.0807-.4448 2.6008.063543.52017.063543.78025-.063543.26008-.19063.78025.12708.26008-.063542.52017.063542h1.3004l.78025-.31771h1.0403l.52017-.25417h.78026l.26008-.12709.78025-.063543.26008-.063543.26008.063543.26008-.12709.26008.063543.78026-.19063.26008-.19063.26008.063543.78026-.8896.52017.19063.26008-.19063h.52017l.52017-.25417.78025-.063543.52017-.57189h.26008l.52017-.19063.26008.063543.26008-.25417.26008-.063543.26008.063543.26008-.063543.26008.12708.26008-.12708.26008.063543.26008-.063543.78026-.57189h.26008l.26008-.12709.78025-1.1438.78026-.4448.26008-.50834.26008-.063543.78026-.76252.26008.063543.78026-.50834.52017-1.0167.52017-.063543.52017-.57189 1.0403-.31772.78026-.4448 1.0403-.31772.52017-.57189.52017-.063543 1.0403-.19063.26008-.31772 1.8206-.063543.52017-.19063.78025-.063543.78025-.19063.26008.063543.52017-.063543.78025.063543.52017.063543.52017-.25417 1.0403.063543.26008.19063h2.3408l.52017-.31772h.26008l.52017-.19063 1.0403.063543.52017.063543.26008-.12709h.26008l.26008-.25417h.26008l.52017-.25417.52017-.063543.52017-.31771.52017-.063543.78025-.69897h.26008l.26008-.12709h.52017l.52017.19063h.26008l.52017-.19063.26008-.31772 1.3004-.38126.26008-.12709.78025-.063543.26008-.12709.78025.12709.78026-.063543.52017-.19063.52017-.12709 1.5605-1.0167.26008.063543.26008-.19063h.52017l.26008-.31772.52017-.25417.52017-.50834.78026.063543.52017-.38126.26008.063543.52017-.38126.26008-.38126.26008.12709.26008-.25417.26008-.063543.26008.19063.26008-.25417.52017.12709 1.0403-.63543.52017.063543.26008-.19063h.26008l.26008.12709.26008-.063543.26008-.31771.26008.063543.78026-.19063.26008.063543.26008-.063543.52017.063543 1.8206.063543.26008.19063 1.8206-.063543.52017-.063542 1.3004.063542.26008.12709.26008-.12709h1.0403l.26008-.12708.78025.063543.52017.063542 2.3408-.063542.52017-.063543 1.0403.063543.52017-.25417.78025-.12709.26008.12709.52017-.25417 1.0403.12709.52017-.25417h.52017l.52017-.19063 2.8609-.063543.52017-.19063.52017-.25417 1.3004-.063543.52017-.25417.78025-.57189h.26008l.26008-.12709.52017.063543 1.0403-.76252.26008.12709.26008-.12709.26008-.38126.78026-.4448.26008-.19063h.26008l.52017-.76252.78026-.57189.26008-.38126h.26008l.52017-.57189.26008.12709.52017-.063543.26008-.38126.26008.063543.52017-.38126 1.3004-.82606 1.0403-.4448 1.0403-.063543.78026-.31772 1.5605.063543.52017.063543 1.8206.063543.52017.063543 1.0403-.12709.26008-.063543.26008.063543.52017-.063543h2.6008l.26008-.12709.78026-.063543.52017-.063543 1.0403-.063543.26008-.063543.78025.25417.52017-.19063 1.3004-.063543.78025-.12709.52017-.063543.26008-.12709 1.5605.063543.78025-.38126h.26008l.52017-.31771h.26008l.26008-.12709.52017-.38126.26008.063543.78025-.19063.52017.12709.52017-.063543.26008.063543 1.5605-.76252.52017-.063543.78025-.19063.52017-.25417h.26008l.26008-.38126.26008-.12709.26008.063543.26008-.25417.26008-.063543.78025-1.4615.26008-.25417h.26008l.26008-.12709.52017-.4448.26008-.12709.26008-.4448 2.0807-1.6521.26008-.25417.26008-.4448 1.0403-.31772.26008.12709.26008-.063543.78025-.50834h.26008l.26008-.12709.26008.063543 1.8206-.38126.78025-.063543.52017-.12709.52017.063543 1.5605-.063543.26008-.063543.26008.063543.52017-.063543.52017.063543 1.5605-.063543.26008-.063543.52017.063543 1.0403-.063543 1.5605-.31771m.52017.19063.26008-.12709h.26008l.26008-.12708h2.8609l.52017-.25417.78025-.063543.26008-.063543.26008.063543.52017-.31772.26008.063543.52017-.063543.26008.063543.26008-.12709.52017.12709.26008-.12709.78025-.063543.52017-.25417.52017.25417.52017-.31772.78026-.25417.78025-.31772.26008-.31772.26008-.12709h.26008l.26008-.19063h.52017l.52017-.4448.52017.25417.26008-.25417.26008-.4448.52017-.25417h.26008l1.0403-.57189.52017-.4448.52017-.12709.26008-.4448.26008-.19063.26008-.57189.78026-.63543h.26008l.52017-.50834.78026-.25417.26008-.12709.52017-.38126.26008-.063543.26008-.25417.52017.063543.26008-.19063.52017.12709.26008-.25417h.52017l.26008-.19063.78026-.063543 1.0403-.12709.26008-.063543.26008.063543 1.0403-.50834 1.3004-.063543.26008-.063543.78025.12709 1.3004-.063543.26008-.063543.52017.12709.78025-.12709.26008.063543.26008-.063543.78025.12709h.52017l.26008-.25417 2.0807-.063543.78025-.12709.78025.12709 1.0403-.063543.26008-.19063.78025-.063543.78025-.31772 1.0403-.19063.52017-.063543 1.3004-.25417.78026-.063543.26008-.12709h.26008l.26008-.25417h.26008l.52017-.63543.52017-.31772.52017-.25417.78026-.19063.26008-.31772.26008-.12709h.26008l.78025-.31771h.26008l.26008-.25417.52017-.063543.52017-.63543.52017-.31772.52017-.38126 3.121-2.1605.52017-.95314.52017-.38126.52017-.063543.26008-.4448h.26008l.52017-.25417.26008-.25417h.26008l.52017-.25417.26008-.38126.26008-.063543.52017-.31772.52017.063543.26008-.31772.52017-.19063 1.3004-.063543.26008.25417.52017.063543h.26008l.52017-.25417.52017-.063543 1.5605-.063543.52017-.063543.26008-.25417.78026-.063543.52017-.063543 5.2017-.063543.52017-.12709.26008.063543 1.5605-.4448.26008-.12709h.26008l.26008-.12709h.26008l.26008-.12709.78026.12709.52017-.063543h.52017l.52017-.19063.26008-.31771 1.0403-.4448h.52017l.52017-.25417.26008.063543.52017-.19063.26008.12709.26008-.12709.52017-.063543.52017-.38126.52017-.25417h.26008l.52017-.19063.26008.12709.52017-.19063.26008-.31772 1.3004-.57189.26008.063543.78025-.31772.26008.063543.26008-.19063h.26008l3.6412-2.7323.52017-.8896.52017-.69897.52017-.063543 1.3004-1.1438.26008-.12709.26008-.25417.26008-.063543 1.3004-.82606.26008-.063543.52017-.31772 1.5605-.31772.26008.063543.52017-.063543.78025.12709 1.3004-.063543.52017-.063543 1.3004-.063543.52017-.063543.52017.063543.78026.063543.78025.12709.26008-.12709.52017.063543 1.0403.19063.26008-.12709.26008.12709.52017-.063543.26008-.25417 1.0403-.25417.52017.12709 1.0403-.38126h.26008l.26008-.12709.52017-.063543 1.5605-.31772.26008.063543.26008-.12709h.26008l.78025-.63543h.26008l1.3004-.57189 1.3004-.31772.26008-.31772.52017.063543.78025-.63543.26008-.19063.26008.063543.26008-.063543.26008-.25417.52017.4448.52017.19063 1.3004-.31772.26008-.31772.26008-.063543.52017-.4448h.26008l.52017-.25417.26008.063543.26008-.31772.26008-.12709.52017-.50834.26008-.4448.52017-.4448.26008-.4448.26008-.12709.52017-.63543h.26008l.52017-.57189.26008.063543.52017-.38126.26008-.63543.26008-.063543.26008-.4448.26008-.063543.26008-.25417.26008-.50834.52017-.31772.52017-.063543.52017-.57189.52017-.063543.52017-.38126.26008-.38126.26008-.063543 1.5605-1.0802.78025.063543.52017.19063.52017-.25417.78025.12709 1.5605-.063543 1.0403-.19063 1.8206-.063543.78026-.12709 1.8206-.063543 1.0403-.19063h.78025l.52017-.25417.26008.063543.26008-.063543.26008.063543.26008-.063543.52017.063543.52017-.063543.52017.063543.78025-.38126.52017-.063543.26008-.19063h.26008l.52017-.31772.52017-.19063.26008-.12709.52017.063543 1.3004-.31772.26008-.25417.52017-.12709.26008.063543.26008.25417.26008.063543.26008-.12709.26008.063543.78026-.57189.26008.12709.26008-.063543.52017-.38126.52017.063543h.26008l.26008-.25417.26008.063543.78025-.4448h.26008l.52017-.19063.26008.063543.26008-.063543.26008.063543 1.0403-.8896.78025-.69897.26008-.25417.26008-.063543.26008-.50834.26008.063543.26008-.38126.26008-.063543.26008-.38126.52017-.25417.52017-.57189h.26008l.26008-.4448.26008-.063543.52017-.50834.26008.12709 1.0403-.4448.52017.19063.52017-.19063 1.5605-.31772 1.0403-.063543 1.3004-.25417 1.0403-.12709 1.3004-.063543 1.5605-.31772h1.8206l.26008.12709h.52017l.52017.12709.26008-.12709h.52017l.26008-.12709.26008.063543 1.0403-.25417.52017.063543h.26008l.26008-.19063 2.3408-.063543.78025-.38126 1.3004-.063543.52017-.19063.26008.12709.52017-.25417h.52017l.26008-.12709.78026.063543.52017.19063.52017-.063543.26008-.12708.52017.063543.26008-.12709.26008.063543 1.0403-.31772.52017-.38126.26008.19063.78025-.4448h.52017l.26008-.19063h.26008l.26008-.38126.26008.19063h.26008l.26008-.63543.78025-.4448 1.0403-.8896.26008-.50834.26008.12709.26008-.12709h.26008l1.0403-1.0802.26008.063543.52017-.4448.26008-.4448.26008.12709.78026-.4448.26008-.063543.26008-.31771.52017.063542.26008-.12708.26008-.25417.26008-.063543.26008-.31772.26008-.12709.26008.063543 1.8206-.82606 1.3004-.063543.78025-.12709h.78025l.26008-.12709 1.5605-.063543 1.0403-.25417.52017.063543h.26008l.26008-.12709 1.0403.063543.78026.12709 1.0403-.19063 1.0403-.12709 1.3004-.063543 1.0403-.19063.78026.063543 1.0403.19063h.26008l1.3004-.8896h2.3408l.26008-.12709.26008.063543.52017-.12709.26008.063543.52017-.19063 1.0403-.19063.26008-.31772.52017-.19063.26008.063543.26008.19063h.26008l1.3004-.82606.26008.12709.78026-.4448.26008-.19063h.26008l1.0403-1.0167.52017-.12708.78026-.8896.26008-.31772.78025-.4448.52017-.63543.26008-.12709.26008-.50834.52017-.25417.52017-.19063.26008.12709.26008-.25417.52017-.19063.26008-.19063.26008.12709.26008-.25417h.26008l.26008-.12709.78025-.82606 1.3004.063543.26008-.19063 1.0403-.063543.78025-.12709.78026.12709 2.0807-.063543.78026-.12709h3.3811l.26008-.25417 1.3004-.063543 1.3004-.25417 1.8206-.063543.52017-.19063.26008.063543 1.0403-.12709 1.3004-.38126.26008-.12709.26008-.31772.52017-.19063.78026-.38126.26008.063543.26008-.19063.26008.12709h.26008l.26008-.19063h.52017l.52017-.31772.26008.063543.26008-.12709.26008.12709 1.0403-.4448.26008.063543 1.8206-.50834.26008.12709.52017-.12709.52017-.25417h.78026l1.3004-.57189.26008-.063543.52017-.57189.26008-.31772.52017-.19063.26008-.12709.26008-.31772.26008.063543.26008-.063543 1.3004-1.0167.26008-.50834 1.0403-.4448.26008-.38126.26008-.12709.26008-.50834 1.3004-.95314h.26008l.26008.19063.52017-.19063.26008-.19063h.26008l.26008.12709 1.0403-.31772.78025-.38126.26008.063543 1.0403-.19063 1.8206-.063543.52017-.063543 3.121.063543.26008.12708 1.0403-.12708 2.6008.063543 1.5605.19063.78025-.25417.52017-.19063 1.0403-.19063.52017.12709.26008-.063543.26008.12709.26008-.063543.26008-.19063.26008.19063h.78025l.26008-.19063.26008.063543.52017-.31772.26008.12709.26008-.25417.26008.19063 1.3004-.063543m1.0403 0 .78025-.12709.52017-.31772.26008-.31772.52017-.063543h.26008l.52017-.38126.52017.12709.52017-.31772.26008.12709.26008-.31772.26008.19063.26008-.063543.78026-.95314.26008-.063543.26008-.25417.26008.063543.26008-.12709.26008-.57189 1.3004-1.3979.26008-.38126.26008-.063543.78026-.63543.26008-.19063.26008-.38126h.26008l.26008-.57189.52017-.57189h.52017l.26008-.12709.26008-.25417.26008.063543.26008-.063543.52017-.31772h.26008l1.0403-.63543.78026-.31771.26008.063543 1.3004-.25417.52017-.063543 1.0403-.19063.52017.12709 1.0403-.19063.26008.12709 2.3408.063543.26008.12709 1.3004-.063543.78025-.12709.52017.12709.52017-.063543.26008.063543.78026-.25417.26008-.12709.52017-.063543.26008-.19063.52017-.063543.26008-.063543.52017.063543h.78026l.52017-.25417 1.0403-.063543.78025-.31772h.26008l.52017-.25417 1.3004-.38126.52017.19063.52017-.19063.52017.25417.78025-.31772.52017-.12709.26008-.19063 1.0403.063543.78025-.50834h.26008l.52017-.50834h.52017l.26008-.25417h.26008l.26008-.19063.26008.12709.26008-.19063.26008-.38126.52017-.19063.52017-.50834 1.8206-1.7157.26008-.063543.26008-.82606.52017-.69897.26008-.50834 1.0403-.50834 1.0403-.95314.78025-.31772.26008.063543.78026-.31772.26008-.50834 1.0403-.50834.26008-.4448.52017-.25417h.26008l.26008-.12708.26008.12708.26008-.12708.52017.063542h.26008l.52017-.25417 2.8609-.063543.52017-.063543.78026.063543.26008.12709h4.9416l.26008-.12709h.78025l.78026-.38126h.26008l.26008-.19063.52017-.063543.52017-.19063.52017-.063543.26008.063543.52017-.25417h.26008l.26008-.19063.26008.063543.78026-.31772.26008-.063543.26008-.25417.52017.063543.26008-.19063.26008.063543.26008-.19063.26008.063543.26008-.19063.78026-.063543.26008.19063.78026-.19063.26008-.19063.26008.063543 1.0403-.57189.26008-.19063.26008.19063.26008-.12709h.52017l.26008-.19063h.52017l.26008-.12709h.26008l.26008-.25417.26008.063543 1.0403-.4448h.78025l.26008-.12709h.26008l1.3004-1.0167.78026-1.4615.78025-.8896.52017-.19063 1.0403-.8896 1.0403-.82606v0" clip-path="url(#c)" fill="none" stroke="#28f" stroke-linecap="square" stroke-width="1.5"/>
   </g>
   <g id="fh">
    <path d="m52 523.06v-232.9" fill="none" stroke="#000" stroke-linecap="square" stroke-width=".8"/>
   </g>
   <g id="fi">
    <path d="m853.2 523.06v-232.9" fill="none" stroke="#000" stroke-linecap="square" stroke-width=".8"/>
   </g>
   <g id="fj">
    <path d="m52 523.06h801.2" fill="none" stroke="#000" stroke-linecap="square" stroke-width=".8"/>
   </g>
   <g id="fk">
    <path d="m52 290.16h801.2" fill="none" stroke="#000" stroke-linecap="square" stroke-width=".8"/>
   </g>
   <g id="fl">
    <!-- サーバー数の推移 -->
    <g transform="translate(404.6 284.16) scale(.12 -.12)">
     <defs>
      <path id="z" transform="scale(.015625)" d="m4685 2893q0-621-84-1111-83-489-288-877-204-387-569-691t-928-560l-544 512q448 167 781 371 333 205 550 503 218 298 323 739 106 442 106 1075v1620q0 192-10 339-9 147-22 217h723q-6-70-22-217t-16-339v-1581zm-2304 2086q-7-64-23-199-16-134-16-313v-2317q0-128 6-256 7-128 13-224 7-96 13-140h-710q6 44 12 140 7 96 13 221 7 125 7 259v2317q0 122-10 256-9 135-28 256h723zm-1978-1197q45-12 144-22t237-20q138-9 285-9h4217q237 0 394 13t246 26v-679q-76 7-240 13-163 6-393 6h-4224q-147 0-282-3-134-3-234-10-99-6-150-12v697z"/>
      <path id="s" transform="scale(.015625)" d="m621 2854q109-6 265-16 157-9 339-16 183-6 349-6 128 0 352 0t509 0 598 0q314 0 624 0 311 0 586 0t486 0q212 0 327 0 230 0 416 16t301 22v-793q-109 6-308 19-198 13-409 13-109 0-324 0-214 0-489 0t-586 0q-310 0-624 0-313 0-598 0t-509 0-352 0q-262 0-525-10-262-9-428-22v793z"/>
      <path id="y" transform="scale(.015625)" d="m4941 5037q83-109 176-269t182-320q90-160 154-288l-416-179q-96 192-240 448t-272 435l416 173zm723 275q83-122 182-282 100-160 196-317 96-156 153-271l-416-186q-102 205-246 454-144 250-279 429l410 173zm-4339-3360q102 262 201 556 100 295 183 612t144 630q61 314 93 602l723-147q-19-83-45-183-26-99-48-195t-42-166q-32-154-86-394t-131-512-164-551q-86-278-182-514-115-301-269-618-153-317-326-618-173-300-346-550l-697 294q301 397 563 874t429 880zm3155 198q-96 250-215 531-118 282-243 567-124 285-246 534-122 250-224 429l659 218q96-179 221-429t253-535q128-284 249-566 122-281 218-525 90-230 195-518 106-288 211-592 106-304 195-589 90-285 154-515l-729-237q-84 352-199 736t-240 768-259 723z"/>
     </defs>
     <use xlink:href="#z"/>
     <use transform="translate(100)" xlink:href="#s"/>
     <use transform="translate(200)" xlink:href="#y"/>
     <use transform="translate(300)" xlink:href="#s"/>
     <use transform="translate(400)" xlink:href="#o"/>
     <use transform="translate(500)" xlink:href="#t"/>
     <use transform="translate(600)" xlink:href="#p"/>
     <use transform="translate(700)" xlink:href="#n"/>
    </g>
   </g>
  </g>
 </g>
 <defs>
  <clipPath id="b">
   <rect x="52" y="26.88" width="801.2" height="232.9"/>
  </clipPath>
  <clipPath id="c">
   <rect x="52" y="290.16" width="801.2" height="232.9"/>
  </clipPath>
 </defs>
</svg>
