<!DOCTYPE svg  PUBLIC '-//W3C//DTD SVG 1.1//EN'  'http://www.w3.org/Graphics/SVG/1.1/DTD/svg11.dtd'>
<svg version="1.1" viewBox="0 0 864 576" xmlns="http://www.w3.org/2000/svg" xmlns:xlink="http://www.w3.org/1999/xlink">
 <defs>
  <style type="text/css">*{stroke-linejoin: round; stroke-linecap: butt}</style>
 </defs>
 <g id="aa">
  <g id="ab">
   <path d="m0 576h864v-576h-864z" fill="#fff"/>
  </g>
  <g id="ac">
   <g id="ad">
    <path d="m52 259.78h801.2v-232.9h-801.2z" fill="#fff"/>
   </g>
   <g id="ae">
    <path d="m133.37 259.78h.80765v-232.9h-.80765z" clip-path="url(#d)" fill="#808080" opacity=".3" stroke="#808080"/>
   </g>
   <g id="af">
    <path d="m430.72 259.78h.53844v-232.9h-.53844z" clip-path="url(#d)" fill="#808080" opacity=".3" stroke="#808080"/>
   </g>
   <g id="ag">
    <path d="m751.09 259.78h1.0769v-232.9h-1.0769z" clip-path="url(#d)" fill="#808080" opacity=".3" stroke="#808080"/>
   </g>
   <g id="ah">
    <g id="ai">
     <g id="aj">
      <path d="m104.7 259.78v-232.9" clip-path="url(#d)" fill="none" stroke="#b0b0b0" stroke-linecap="square" stroke-opacity=".3" stroke-width=".8"/>
     </g>
     <g id="ak">
      <defs>
       <path id="e" d="m0 0v3.5" stroke="#000" stroke-width=".8"/>
      </defs>
      <use x="104.701796" y="259.777732" stroke="#000000" stroke-width=".8" xlink:href="#e"/>
     </g>
    </g>
    <g id="al">
     <g id="am">
      <path d="m182.24 259.78v-232.9" clip-path="url(#d)" fill="none" stroke="#b0b0b0" stroke-linecap="square" stroke-opacity=".3" stroke-width=".8"/>
     </g>
     <g id="an">
      <use x="182.236407" y="259.777732" stroke="#000000" stroke-width=".8" xlink:href="#e"/>
     </g>
    </g>
    <g id="ao">
     <g id="ap">
      <path d="m259.77 259.78v-232.9" clip-path="url(#d)" fill="none" stroke="#b0b0b0" stroke-linecap="square" stroke-opacity=".3" stroke-width=".8"/>
     </g>
     <g id="aq">
      <use x="259.771018" y="259.777732" stroke="#000000" stroke-width=".8" xlink:href="#e"/>
     </g>
    </g>
    <g id="ar">
     <g id="as">
      <path d="m337.31 259.78v-232.9" clip-path="url(#d)" fill="none" stroke="#b0b0b0" stroke-linecap="square" stroke-opacity=".3" stroke-width=".8"/>
     </g>
     <g id="at">
      <use x="337.305629" y="259.777732" stroke="#000000" stroke-width=".8" xlink:href="#e"/>
     </g>
    </g>
    <g id="au">
     <g id="av">
      <path d="m414.84 259.78v-232.9" clip-path="url(#d)" fill="none" stroke="#b0b0b0" stroke-linecap="square" stroke-opacity=".3" stroke-width=".8"/>
     </g>
     <g id="aw">
      <use x="414.840241" y="259.777732" stroke="#000000" stroke-width=".8" xlink:href="#e"/>
     </g>
    </g>
    <g id="ax">
     <g id="ay">
      <path d="m492.37 259.78v-232.9" clip-path="url(#d)" fill="none" stroke="#b0b0b0" stroke-linecap="square" stroke-opacity=".3" stroke-width=".8"/>
     </g>
     <g id="az">
      <use x="492.374852" y="259.777732" stroke="#000000" stroke-width=".8" xlink:href="#e"/>
     </g>
    </g>
    <g id="ba">
     <g id="bb">
      <path d="m569.91 259.78v-232.9" clip-path="url(#d)" fill="none" stroke="#b0b0b0" stroke-linecap="square" stroke-opacity=".3" stroke-width=".8"/>
     </g>
     <g id="bc">
      <use x="569.909463" y="259.777732" stroke="#000000" stroke-width=".8" xlink:href="#e"/>
     </g>
    </g>
    <g id="bd">
     <g id="be">
      <path d="m647.44 259.78v-232.9" clip-path="url(#d)" fill="none" stroke="#b0b0b0" stroke-linecap="square" stroke-opacity=".3" stroke-width=".8"/>
     </g>
     <g id="bf">
      <use x="647.444074" y="259.777732" stroke="#000000" stroke-width=".8" xlink:href="#e"/>
     </g>
    </g>
    <g id="bg">
     <g id="bh">
      <path d="m724.98 259.78v-232.9" clip-path="url(#d)" fill="none" stroke="#b0b0b0" stroke-linecap="square" stroke-opacity=".3" stroke-width=".8"/>
     </g>
     <g id="bi">
      <use x="724.978685" y="259.777732" stroke="#000000" stroke-width=".8" xlink:href="#e"/>
     </g>
    </g>
    <g id="bj">
     <g id="bk">
      <path d="m802.51 259.78v-232.9" clip-path="url(#d)" fill="none" stroke="#b0b0b0" stroke-linecap="square" stroke-opacity=".3" stroke-width=".8"/>
     </g>
     <g id="bl">
      <use x="802.513296" y="259.777732" stroke="#000000" stroke-width=".8" xlink:href="#e"/>
     </g>
    </g>
   </g>
   <g id="bm">
    <g id="bn">
     <g id="bo">
      <path d="m52 246.93h801.2" clip-path="url(#d)" fill="none" stroke="#b0b0b0" stroke-linecap="square" stroke-opacity=".3" stroke-width=".8"/>
     </g>
     <g id="bp">
      <defs>
       <path id="h" d="m0 0h-3.5" stroke="#000" stroke-width=".8"/>
      </defs>
      <use x="52" y="246.926099" stroke="#000000" stroke-width=".8" xlink:href="#h"/>
     </g>
     <g id="bq">
      <!-- 300 -->
      <g transform="translate(27.9 250.91) scale(.1 -.1)">
       <defs>
        <path id="o" transform="scale(.015625)" d="m1715-90q-371 0-656 90t-503 240q-217 150-377 323l359 474q211-205 479-359 269-153 634-153 269 0 467 92 199 93 311 266t112 423q0 256-125 451t-429 300q-304 106-835 106v551q467 0 732 105 266 106 384 291 119 186 119 423 0 307-192 489-192 183-531 183-269 0-503-119-233-118-438-316l-384 460q282 256 614 413 333 157 737 157 422 0 748-144 327-144 512-413 186-269 186-659 0-403-221-685-221-281-592-422v-26q269-70 490-227t349-400 128-557q0-422-215-726-214-304-573-468-358-163-787-163z"/>
        <path id="a" transform="scale(.015625)" d="m1830-90q-460 0-806 275-346 276-535 823-188 547-188 1366 0 820 188 1357 189 538 535 803 346 266 806 266 461 0 800-269 340-269 528-803 189-534 189-1354 0-819-189-1366-188-547-528-823-339-275-800-275zm0 589q237 0 422 185 186 186 288 599 103 413 103 1091 0 679-103 1082-102 403-288 582-185 180-422 180-236 0-422-180-186-179-292-582-105-403-105-1082 0-678 105-1091 106-413 292-599 186-185 422-185z"/>
       </defs>
       <use xlink:href="#o"/>
       <use transform="translate(57)" xlink:href="#a"/>
       <use transform="translate(114)" xlink:href="#a"/>
      </g>
     </g>
    </g>
    <g id="br">
     <g id="bs">
      <path d="m52 220.79h801.2" clip-path="url(#d)" fill="none" stroke="#b0b0b0" stroke-linecap="square" stroke-opacity=".3" stroke-width=".8"/>
     </g>
     <g id="bt">
      <use x="52" y="220.787184" stroke="#000000" stroke-width=".8" xlink:href="#h"/>
     </g>
     <g id="bu">
      <!-- 600 -->
      <g transform="translate(27.9 224.77) scale(.1 -.1)">
       <defs>
        <path id="k" transform="scale(.015625)" d="m1971-90q-339 0-634 144-294 144-518 435-224 292-352 733-128 442-128 1044 0 678 147 1161 148 483 397 784 250 301 570 445t665 144q397 0 688-147 292-147 490-359l-403-448q-128 154-327 253-198 99-409 99-307 0-567-182-259-182-413-605-153-422-153-1145 0-608 115-1002t326-589q212-195 493-195 212 0 375 121 163 122 259 343t96 522q0 300-90 511-89 212-259 320-169 109-419 109-211 0-451-134t-458-461l-25 538q134 192 313 323t374 201q196 71 375 71 397 0 694-163 298-163 467-490 170-326 170-825 0-468-195-817-195-348-512-544-317-195-701-195z"/>
       </defs>
       <use xlink:href="#k"/>
       <use transform="translate(57)" xlink:href="#a"/>
       <use transform="translate(114)" xlink:href="#a"/>
      </g>
     </g>
    </g>
    <g id="bv">
     <g id="bw">
      <path d="m52 194.65h801.2" clip-path="url(#d)" fill="none" stroke="#b0b0b0" stroke-linecap="square" stroke-opacity=".3" stroke-width=".8"/>
     </g>
     <g id="bx">
      <use x="52" y="194.648269" stroke="#000000" stroke-width=".8" xlink:href="#h"/>
     </g>
     <g id="by">
      <!-- 900 -->
      <g transform="translate(27.9 198.63) scale(.1 -.1)">
       <defs>
        <path id="m" transform="scale(.015625)" d="m1562-90q-410 0-708 150-297 151-502 356l403 461q141-160 346-256t422-96q224 0 425 102 202 103 352 333 151 230 237 614 87 384 87 941 0 589-115 970t-323 563-496 182q-205 0-372-118-166-118-262-336t-96-525q0-301 86-512 87-211 259-323 173-112 417-112 224 0 460 141 237 141 448 461l32-544q-134-180-313-314t-371-208-384-74q-391 0-689 166-297 167-467 496-169 330-169 823 0 467 195 816t515 541 698 192q339 0 636-138 298-137 519-419 221-281 349-710t128-1018q0-691-141-1187t-391-807q-249-310-563-461-313-150-652-150z"/>
       </defs>
       <use xlink:href="#m"/>
       <use transform="translate(57)" xlink:href="#a"/>
       <use transform="translate(114)" xlink:href="#a"/>
      </g>
     </g>
    </g>
    <g id="bz">
     <g id="ca">
      <path d="m52 168.51h801.2" clip-path="url(#d)" fill="none" stroke="#b0b0b0" stroke-linecap="square" stroke-opacity=".3" stroke-width=".8"/>
     </g>
     <g id="cb">
      <use x="52" y="168.509354" stroke="#000000" stroke-width=".8" xlink:href="#h"/>
     </g>
     <g id="cc">
      <!-- 1200 -->
      <g transform="translate(22.2 172.49) scale(.1 -.1)">
       <defs>
        <path id="f" transform="scale(.015625)" d="m544 0v608h1037v3277h-845v467q333 58 579 147 247 90 451 218h557v-4109h915v-608h-2694z"/>
        <path id="b" transform="scale(.015625)" d="m282 0v429q697 621 1164 1136 468 515 701 956 234 442 234 826 0 256-87 451-86 196-262 301-176 106-445 106-275 0-506-151-230-150-422-368l-416 410q301 333 637 518 336 186 803 186 429 0 749-176t496-493 176-745q0-455-224-919t-615-935q-390-470-889-950 186 20 394 36t374 16h1184v-634h-3046z"/>
       </defs>
       <use xlink:href="#f"/>
       <use transform="translate(57)" xlink:href="#b"/>
       <use transform="translate(114)" xlink:href="#a"/>
       <use transform="translate(171)" xlink:href="#a"/>
      </g>
     </g>
    </g>
    <g id="cd">
     <g id="ce">
      <path d="m52 142.37h801.2" clip-path="url(#d)" fill="none" stroke="#b0b0b0" stroke-linecap="square" stroke-opacity=".3" stroke-width=".8"/>
     </g>
     <g id="cf">
      <use x="52" y="142.370439" stroke="#000000" stroke-width=".8" xlink:href="#h"/>
     </g>
     <g id="cg">
      <!-- 1500 -->
      <g transform="translate(22.2 146.36) scale(.1 -.1)">
       <defs>
        <path id="j" transform="scale(.015625)" d="m1715-90q-365 0-653 90t-506 237q-217 147-383 307l352 480q134-134 294-246t361-183q202-70 452-70 262 0 473 118 212 119 333 346 122 227 122 541 0 460-247 716-246 256-649 256-224 0-384-64t-365-198l-365 237 141 2240h2387v-627h-1747l-109-1204q154 77 307 118 154 42 340 42 397 0 723-160t518-490q192-329 192-847 0-519-224-887t-586-560q-361-192-777-192z"/>
       </defs>
       <use xlink:href="#f"/>
       <use transform="translate(57)" xlink:href="#j"/>
       <use transform="translate(114)" xlink:href="#a"/>
       <use transform="translate(171)" xlink:href="#a"/>
      </g>
     </g>
    </g>
    <g id="ch">
     <g id="ci">
      <path d="m52 116.23h801.2" clip-path="url(#d)" fill="none" stroke="#b0b0b0" stroke-linecap="square" stroke-opacity=".3" stroke-width=".8"/>
     </g>
     <g id="cj">
      <use x="52" y="116.231524" stroke="#000000" stroke-width=".8" xlink:href="#h"/>
     </g>
     <g id="ck">
      <!-- 1800 -->
      <g transform="translate(22.2 120.22) scale(.1 -.1)">
       <defs>
        <path id="l" transform="scale(.015625)" d="m1830-90q-441 0-787 163-345 164-547 448-202 285-202 650 0 314 122 557t314 419 403 291v32q-256 186-442 458-185 272-185 643 0 365 176 640t480 425q304 151 694 151 410 0 704-160t457-439q164-278 164-649 0-237-96-448t-234-381q-137-169-291-278v-32q218-115 397-285 179-169 288-406t109-557q0-346-189-628-189-281-532-448-342-166-803-166zm314 2708q205 198 310 419 106 221 106 464 0 211-83 384t-247 272q-163 99-393 99-288 0-480-183-192-182-192-502 0-256 134-429 135-172 359-294t486-230zm-294-2170q236 0 418 89 183 90 285 253 103 164 103 388 0 211-90 367-89 157-246 272-157 116-368 215t-454 195q-244-173-398-426-153-252-153-553 0-237 118-416 119-179 324-282 205-102 461-102z"/>
       </defs>
       <use xlink:href="#f"/>
       <use transform="translate(57)" xlink:href="#l"/>
       <use transform="translate(114)" xlink:href="#a"/>
       <use transform="translate(171)" xlink:href="#a"/>
      </g>
     </g>
    </g>
    <g id="cl">
     <g id="cm">
      <path d="m52 90.093h801.2" clip-path="url(#d)" fill="none" stroke="#b0b0b0" stroke-linecap="square" stroke-opacity=".3" stroke-width=".8"/>
     </g>
     <g id="cn">
      <use x="52" y="90.092609" stroke="#000000" stroke-width=".8" xlink:href="#h"/>
     </g>
     <g id="co">
      <!-- 2100 -->
      <g transform="translate(22.2 94.078) scale(.1 -.1)">
       <use xlink:href="#b"/>
       <use transform="translate(57)" xlink:href="#f"/>
       <use transform="translate(114)" xlink:href="#a"/>
       <use transform="translate(171)" xlink:href="#a"/>
      </g>
     </g>
    </g>
    <g id="cp">
     <g id="cq">
      <path d="m52 63.954h801.2" clip-path="url(#d)" fill="none" stroke="#b0b0b0" stroke-linecap="square" stroke-opacity=".3" stroke-width=".8"/>
     </g>
     <g id="cr">
      <use x="52" y="63.953694" stroke="#000000" stroke-width=".8" xlink:href="#h"/>
     </g>
     <g id="cs">
      <!-- 2400 -->
      <g transform="translate(22.2 67.939) scale(.1 -.1)">
       <defs>
        <path id="n" transform="scale(.015625)" d="m2170 0v3072q0 192 12 457 13 266 20 458h-26q-90-179-183-365-92-185-195-364l-921-1415h2579v-576h-3328v493l1875 2957h858v-4717h-691z"/>
       </defs>
       <use xlink:href="#b"/>
       <use transform="translate(57)" xlink:href="#n"/>
       <use transform="translate(114)" xlink:href="#a"/>
       <use transform="translate(171)" xlink:href="#a"/>
      </g>
     </g>
    </g>
    <g id="ct">
     <g id="cu">
      <path d="m52 37.815h801.2" clip-path="url(#d)" fill="none" stroke="#b0b0b0" stroke-linecap="square" stroke-opacity=".3" stroke-width=".8"/>
     </g>
     <g id="cv">
      <use x="52" y="37.814779" stroke="#000000" stroke-width=".8" xlink:href="#h"/>
     </g>
     <g id="cw">
      <!-- 2700 -->
      <g transform="translate(22.2 41.8) scale(.1 -.1)">
       <defs>
        <path id="i" transform="scale(.015625)" d="m1235 0q32 646 109 1187t224 1024 384 941 576 938h-2208v627h3027v-455q-409-512-665-989-256-476-397-969t-205-1053-90-1251h-755z"/>
       </defs>
       <use xlink:href="#b"/>
       <use transform="translate(57)" xlink:href="#i"/>
       <use transform="translate(114)" xlink:href="#a"/>
       <use transform="translate(171)" xlink:href="#a"/>
      </g>
     </g>
    </g>
   </g>
   <g id="cx">
    <path d="m88.418 222.44.076727.17426.067753-.34852.27999.34852.14268-.08713.38094-.8713.8081-3.2238.82156-5.1407.40203-1.3069.40472-.17426.38049-1.6555.40383-1.2198.40383-2.0911.40383-2.7882.40383-.60991 1.2115-8.8872 1.6153-10.281.40383-1.3941.40383-.78417.40383-2.004.40383-5.3149 1.6153-35.375.80765-21.173 1.6153-48.793.40383-5.3149.40383-2.3525.40383-.78417.40383 2.6139.40383 1.5683 2.0191 43.565.80765 21.608.80765 19.778 1.2115 23.874 1.2115 17.339 1.2115 14.464.40383 2.701.40383 3.9208.40383 2.7882.40383 3.6594.40383 1.9169.40383 3.2238 1.2115 6.5347.40383 2.4396.40383 1.5683.40383 3.4852.40383 1.1327.40383 1.7426.80765 1.6555.40383 1.1327.40383.26139.40383 1.3069.40383.52278.80765.26139.80765-.43565 1.2115-2.8753.40383-.26139.40383-.95843.40383-.43565.80765-3.3981.80765-3.9208.40383.26139.40383-.17426.40383-2.7882.40383-1.5683.40383-.78417.80765-2.7882.40383-3.1367.40383-1.7426.40383-.60991 1.2115-4.2694.40383-3.9208.40383-2.4396.40383-3.6594 1.2115-7.8417.40383-1.3941m.80765 19.517.40383-12.285.40383-2.3525.40383-1.3941 1.2115-13.418.40383-6.012.80765-18.21.80765-22.654.40383-16.293 1.2115-31.105.80765-14.725.40383-3.7466.40383.43565.40383-1.2198.40383 1.7426.80765 8.8001.80765 21.173.40383 6.9704 1.2115 28.404.80765 14.725.80765 16.555.80765 12.111.80765 10.891 2.0191 21.608 2.423 12.808.80765 5.7506.80765 3.1367.40383.43565.40383.8713.40383 1.3069.40383.60991 1.2115 4.5307.40383-.43565.40383.34852h.40383l.40383.52278.40383-1.3069.40383.17426.40383-.34852.40383-.52278.40383-.26139.40383-.60991.40383.08713.40383-.52278.40383-2.0911.40383-1.4812.40383-.8713 1.6153-6.2733.40383-1.0456.40383-2.2654.40383-1.2198.40383-2.701.40383-1.0456.40383-3.2238.40383-1.6555.40383-3.3109.40383-.95843.80765-2.701.40383-2.2654.40383-1.3941.80765-6.012.40383-1.8297.40383-.43565.40383-3.1367.40383-1.1327.40383-2.3525 1.2115-4.5307 1.2115-18.733 1.2115-27.62.40383-13.766 1.6153-36.856.80765-12.111.80765-4.4436.40383 1.0456.40383 3.7466.80765 17.6 1.2115 28.23.80765 19.43 1.2115 21.521.80765 11.763 1.6153 23.961 1.2115 13.418 1.6153 12.547 2.8268 14.115.40383 1.1327.40383.69704.40383 1.1327.40383.60991h.40383l.53843.26139.53844.8713.13461-.08713.26922-.52278.53844.52278.13461.08713.26922-.60991.13461-.52278.13461.17426.26922-.95843h.13461l.13461.17426.13461-.17426.13461.087129.13461-.43565.13461.34852.40383-1.2198.13461.17426.13461-.08713.13461-.43565.13461.08713.26922-.78417.13461-.17426.26922-.8713.13461-.08713.26922-.52278.13461-.08713.26922-1.3941.13461.08713.26922-.43565.13461.08713.53843-1.2198.40383-2.701h.13461l.53844-2.3525.26922-1.0456.13461-.52278h.13461l1.0769-4.3565.13461-1.0456.13461-.087129.94226-5.5763.40383-1.2198.26922-.69704.13461.17426.26922-2.0911.13461-.34852.26922-1.3941.13461-.34852.40383-3.0495.40383-.8713.26922-1.7426.13461-.087129.13461.17426.13461-.08713.40383-1.9169.26922-.95843.13461-1.6555.13461.26139 1.2115-7.406h.13461l.13461-.17426.26922-1.2198.13461.69704.13461-1.0456.13461.26139 1.2115-10.281.94226-17.774 1.8845-52.888.13461-1.7426.94226-23.874.40383-4.1822.13461-3.2238.13461-.52278.13461.43565.53844-2.8753.13461-.34852.13461-1.0456.13461-.087129.26922.8713 1.2115 22.915.26922 4.7921.13461.78417.53844 12.547.40383 9.5843 1.0769 20.737.13461 1.8297.53843 11.327 1.8845 31.192.40383 3.5723 1.8845 17.426 1.4807 8.8872.26922 1.2198.40383 3.0495.26922 1.9169.26922 2.1782.40383 2.1782.26922 1.2198.13461 1.6555.26922.43565.53844 2.9624.26922.69704.13461.17426.13461.60991.13461-.26139 1.0769 3.8337.40383.52278.13461-.08713.13461.43565.26922.08713.13461.26139.26922-.17426.13461.43565.13461-.34852.40383.34852.26922-.60991.13461-.43565.26922.17426.26922-.43565.53844-1.5683.26922-.69704.26922.26139.26922-.26139.53844-.95843.26922.43565.26922-1.2198.53843-3.2238.26922-1.3941.26922-.26139.26922-.95843.53843-.34852.53844-2.0911.26922-.08713.53843-3.3109.26922-.26139.26922-.78417h.26922l.26922-1.1327.26922-2.1782.80765-3.2238.53843-2.9624.26922-2.2654.26922-.52278.53844-2.0911.53844-3.7466.26922.087129.53844-1.4812.53844-4.008.80765-5.8377.26922-1.1327.26922-1.7426h.26922l.53844-3.1367.26922-.69704 1.3461-5.7506.80765-11.24.80765-17.426 2.1537-66.219.53844-11.763.53844-9.9328.53843-7.7545.80765-5.5763h.26922l.26922 1.1327.26922 1.7426.80765 7.406.80765 16.206.26922-3.1367.53843 14.376.53844 10.63 1.3461 28.84 2.9614 55.937.53843 7.8417.80765 7.5803.80765 6.0991.26922 2.8753.53844 2.9624.26922 2.5268.26922 1.1327.53844 3.8337.26922.8713.26922-.17426.26922.087129.26922.43565.80765 2.9624.26922-1.1327.26922-.43565.26922.60991.26922-.26139.26922.69704.26922-.34852.53844.26139.53843-2.2654.53844.087129.26922-1.5683.26922-.8713.26922-1.3941.26922.34852.26922-1.3069.26922-.60991 1.6153-6.5347.53844-3.6594.53844-2.1782.53843-5.0535.53844-6.012.26922-.8713 1.3461-11.153.26922-1.3941.53844-3.5723.26922-.43565.26922-2.4396.53843-2.4396.26922-1.7426.26922-.60991.26922.34852.26922-.69704.26922-1.6555.26922-.78417.53844-2.1782.26922-.34852.26922.26139.26922-.26139.26922.69704.26922 2.2654.26922-.08713.26922.17426.26922-.34852.26922-.60991.26922.69704.26922-.08713.26922-.26139.26922-1.3941h.53844l.26922-2.8753 1.0769-17.339.80765-20.737.26922-12.198 1.0769-25.703.80765-20.388.53844-9.9328.26922-7.1446.26922-3.3109.26922-.60991.53844-4.0951.26922-.34852.26922.52278.26922 1.4812.26922.52278.26922 3.5723.53844 2.9624.53843 7.0575.53844 12.634.53844 7.0575.53844 11.065.53844 15.248 2.9614 59.248.53844 9.2358 1.3461 19.43.26922 3.0495.80765 5.5763 1.0769 9.41.26922 1.5683.26922 3.0495 1.0769 4.8793.53844 1.6555.26922 2.004.26922-.087129.26922.52278.53844 1.3941.26922.26139.26922.52278.53844-.34852.53844-1.0456.26922-1.3069.53844.087129.26922-1.1327.26922-1.6555.53843-1.1327.26922.17426.26922-2.004.26922-1.0456.26922-1.9169.26922-.34852.26922-2.6139.26922-1.0456.26922-.34852.80765-3.0495.26922-3.3109.53844-9.1486.26922-2.4396 1.0769-13.941.80765-5.9248.80765-2.6139.26922-1.3941.26922-3.0495.80765-5.1407.53844-3.7466.26922-.43565.26922-1.2198h.26922l.26922-1.2198.26922.78417.26922-1.7426.26922.34852.26922.78417.26922 1.2198.80765 1.7426.26922-.26139.26922 2.6139.80765 2.6139.26922.17426.26922 1.1327.26922-.43565.26922-1.2198 1.0769-14.464.80765-18.994.53844-13.069 1.6153-33.893 1.0769-10.368.26922 1.9169.26922.78417.26922.26139.26922 1.1327.53843 5.402.80765 20.388.26922 4.3565 1.0769 26.139.26922 2.9624.26922 6.7961.26922 3.6594.80765 18.036 1.0769 18.297.53843 9.0615.26922 3.5723.26922 1.2198.80765 10.456 1.0769 7.5803.26922 1.4812 1.0769 9.8457.26922 1.3941.53844 1.4812.26922 2.6139.26922 1.2198.53844 3.1367 2.1537 7.5803.26922-.17426.26922.69704.26922.26139.26922.52278.26922.08713.26922-.08713.26922-.43565.26922-.08713.26922.43565.26922-.60991.26922-.08713.26922-.26139.26922.17426.26922.43565h.26922l.53844-.8713.26922.43565.26922-.78417.26922-.08713.26922-1.0456.26922.17426.26922-.08713.26922-1.5683.26922-.69704.26922-1.3941.53844-1.0456.53844-1.6555.53844-4.2694.26922-.34852.80765-3.6594.26922-.52278.80765-3.1367.26922-.78417.26922-.087129.53844-2.2654.26922-.52278.26922-1.2198.26922-1.8297.53844-1.9169.26922-2.8753.80765-2.6139.26922-.34852.26922-1.0456.26922-.08713 1.8845-11.065.26922-.78417.26922-.17426.80765-4.9664.53844-6.3605.26922-4.008.80765-15.248.53843-10.107 1.6153-42.258.53844-9.9328.26922-7.406.53844-6.2733.53844-5.6634.80765-2.4396.26922 1.3941.26922 2.004.53843 8.2773.26922 8.1902.80765 16.293.26922 4.9664.80765 21.608 1.3461 25.442.53843 7.5803.53844 8.4516 2.1537 24.832.80765 5.4892 1.0769 6.709.53844 2.701.26922.69704 2.6922 12.721h.26922l.26922.43565.26922 1.4812.26922-.26139.26922.95843.26922.08713.26922 1.3941.53844.34852.53844.52278.26922.17426.80765-.52278.26922-.78417.26922-.26139.26922-.69704.53843.34852.26922-.17426.26922.26139.53844.08713.26922-.08713.26922.60991.26922-.34852.80765-3.8337.53844-1.2198.53844-1.6555.26922-1.2198.26922-.43565.80765-2.7882.26922-2.6139.80765-3.8337.26922-1.3941.53844-1.6555.80765-4.0951.26922-1.5683.26922-.26139h.26922l.26922-.69704.26922-1.2198.26922-1.8297.26922-.95843.53844-2.7882.26922-2.004.26922-.69704.53844-2.701.26922.17426.53843-3.3981.26922-1.4812.53844-4.008h.26922l.53844-2.6139.26922-2.0911.26922-.60991.26922-2.0911.53844-11.763.53844-10.368.26922-6.2733 1.3461-42.345.53844-11.588.26922-8.6258.53844-6.6219.53844-5.8377.26922-2.7882.26922-.17426.53843-1.3069.26922 1.2198.26922 2.5268.80765 13.854.26922 3.5723 2.423 52.539 1.3461 26.139 1.6153 21.173.53844 6.7961.26922 1.8297.80765 7.0575.26922 1.3941 1.0769 8.3645.26922 1.1327.80765 5.2278 1.0769 3.6594.26922 1.7426.80765 2.3525.53844.95843 1.0769 3.8337.26922.34852.26922.69704.26922-.26139.26922.17426.80765-1.0456m.53844 2.4396.26922 1.3941.26922-.08713.26922.26139.53844-1.5683.26922-.08713.26922-.52278.26922.17426.26922-.8713.26922.087129.53844-2.5268.26922-.78417h.26922l.26922-.8713.26922-2.0911.26922-.26139.26922-.95843.26922-1.4812.26922-.34852 1.0769-4.8793.53843-2.9624.26922-1.0456.26922.17426.26922-1.1327.26922-2.6139.80765-4.4436.53844-4.008.26922-2.1782.53844-2.2654.53844-2.5268.26922-.34852.26922-.69704.26922-1.1327.26922.087129.53843-2.7882.26922.08713.53844-5.3149.53843-4.0951.53844.17426.26922-2.4396.26922-1.3069.26922-3.3981.26922-1.6555.26922-2.5268 1.3461-22.305.26922-5.7506.80765-23.961 1.6153-42.084 1.0769-15.858.26922-.52278.53844.78417.26922 1.8297.53844 5.8377.53844 12.547 1.0769 23.612.80765 21.957.26922 5.3149.26922 2.9624 2.6922 47.311 1.0769 9.2358 2.423 18.907.26922.69704.80765 4.8793.26922.60991 1.0769 6.3605.80765 2.8753 1.3461 3.3109.80765 3.3981.53843.60991.26922-.43565.26922-.78417.26922-.34852.26922.52278.26922-.8713.26922.087129.26922.69704.26922-.52278.26922.43565.80765-1.4812.80765-2.5268.26922-.52278.53844-2.1782.26922-.69704.53844-2.7882.26922.26139.26922-1.5683.26922-.52278.80765-3.1367.26922-.52278.53843-2.004.26922-2.0911.26922-.43565 1.0769-5.1407.26922-.78417.26922-1.3941.26922-.78417.53844-2.7882.53844-2.004.53843-2.3525.53844-2.0911.26922-2.4396.26922-.34852.26922-1.2198.26922-2.701.80765-3.6594.26922-.43565.26922-.17426.26922-1.1327.53844-6.2733.80765-8.5387.80765-16.99 1.6153-33.196.80765-20.04.26922-5.1407.53844-16.119.80765-16.119.26922-2.7882.26922-.34852.26922-5.1407.26922-2.1782.26922-.08713.53844 2.3525.26922 5.0535.53843 15.248.53844 11.414 1.6153 41.561.53843 11.588 1.0769 19.691 1.3461 21.521 2.1537 22.915.53844 3.2238.53844 3.5723.53844 3.4852 2.1537 12.198.26922-.08713.53844 2.4396.53844 1.4812.26922.34852.26922 1.0456.26922-.17426 1.3461 2.7882.26922-.17426.26922.52278.80765-.17426.53844-.78417.53844-.34852.26922-1.2198.26922-.17426h.26922l.26922-.43565.26922.52278.26922.08713.26922-.52278.53844-2.4396.53844-2.7882 1.8845-7.4932h.26922l.53844-1.7426.26922-1.6555.26922-.43565.53844-3.8337.26922.087129.26922-.69704.26922-.34852.26922-1.3069.26922-.08713 1.0769-8.4516.53844-2.3525.26922-.43565.53844-2.4396.26922-.34852.26922-.95843.26922-2.7882 1.0769-5.3149.26922-1.3069.26922-.08713.26922-.26139.53844-2.7882.26922-2.004 1.0769-13.244 1.3461-27.62.53844-17.426 2.1537-58.028.26922-5.3149.53844-5.4892.26922-3.8337.26922-.69704.26922-2.7882.26922 2.5268.26922-.17426.80765 9.4971.26922 1.6555.80765 15.161.53844 10.543 2.423 56.286 1.0769 19.604.53844 7.1446.53844 8.4516.80765 10.891.26922 2.7882.26922 4.0951 1.0769 8.9744.26922 1.4812.26922 3.7466.26922.60991.26922 2.4396.26922 1.3069.26922 2.0911.26922.78417.26922 2.0911.26922.69704.80765 3.3981.53844.78417.26922-.087129.53844.087129.26922-.26139.26922.17426.26922-.17426.26922-.43565.53843-1.3941.26922-.26139 1.0769-3.7466.26922-.087129.53844-2.7882.53843-3.6594.26922-1.2198.26922.43565.26922-.17426.80765-3.9208.26922.26139.26922-1.6555.26922-.34852.26922-1.2198.53844-8.9744 1.0769-9.8457.26922-1.3069.26922-2.5268.26922-3.7466.53844-2.7882.53844-4.1822.53843-3.8337.26922-3.1367.53844-2.0911.26922-.52278.26922-.8713.26922-.43565h.26922l.26922-.26139.26922.69704.26922.26139.26922.52278.53844-.08713.26922.08713.26922 1.3941.26922 2.1782.26922-.78417.26922 1.1327.26922 2.0911.26922-2.5268.26922.17426.26922-.52278.26922-1.7426.26922-3.3109.53844-2.3525.26922-2.9624.26922-6.4476.26922-2.7882 1.0769-24.745.26922-10.978 1.0769-24.222.80765-23.089 1.0769-23.002.80765-6.9704.26922-.43565.26922-.78417 1.0769 9.1486.53844 8.9744.26922 3.8337.80765 17.165.26922 4.008.26922 7.5803.26922 3.4852 1.3461 31.367.80765 15.073 2.1537 40.69.80765 10.63 1.8845 17.949 1.0769 6.3605.26922 2.2654.26922 1.1327.80765 5.2278.26922.34852.26922.78417.26922 1.4812.26922.17426.26922-.17426.26922.08713.26922-.26139.26922.26139.53844-.95843.26922-.52278 1.0769-3.7466.26922-.60991.53844-2.3525.53844-2.1782.53843-2.6139.26922-.34852.26922.26139.26922-2.3525.26922-.08713.26922-1.4812.53844-5.6634.26922-.17426.80765-7.3189.53844-2.5268.26922-1.7426.80765-8.3645.26922-4.0951.26922-1.1327.53844-4.4436.26922-.60991.53844-5.2278.53844-2.9624.26922-1.3941.53844-3.7466.26922-.43565.26922.43565.53844-2.1782.26922-.08713.80765-1.7426.26922-1.1327.26922.8713.53844 3.1367.26922 2.4396.26922-.17426h.26922l.53844 4.008.26922-2.6139.26922.26139 1.3461-15.161.26922-3.7466.53844-10.891.80765-24.571 1.3461-29.624.80765-11.85.53844-3.3109.26922.60991.26922.087129.26922-.95843.26922-.17426.26922 3.2238.26922 4.8793.26922 9.3229.53843 11.588 1.8845 45.307.53844 10.02.80765 17.165 1.6153 26.662 1.0769 12.198 1.0769 9.8457 1.0769 6.012 1.0769 5.7506.53844 3.3981.53844 3.2238.53843 2.2654 1.0769 5.6634.26922.43565.26922 1.3941.53844 1.1327.26922.17426 1.3461 3.1367.26922-.26139.26922-.08713.26922-.34852.26922.26139.80765-.17426.53844-1.1327.53843-.69704.80765-.17426.26922-.52278.26922-.78417.26922-.34852.53844-2.6139.26922.087129.26922-.43565.26922-.8713.80765-4.4436.26922-1.3941 1.0769-2.9624.53844-3.4852.26922-1.5683.26922-.08713.53843-2.9624.26922-.52278.26922-2.4396.53844-2.4396 1.0769-4.7921.26922-.34852.26922-2.701.26922-.78417.26922-.26139.53844-5.2278.26922-.8713.26922-1.5683.53844-1.3069.26922-1.4812.26922-2.5268.53844-2.8753.26922-.43565.80765-7.8417 2.423-54.456 1.3461-33.196 1.0769-13.854.53844-2.701.26922.78417.26922.43565.80765 10.456 2.423 55.589 2.9614 49.315.26922 2.004 1.6153 17.252.53843 3.8337.80765 4.0951.80765 5.9248.26922.69704.53844 2.5268 1.0769 4.4436.26922 1.6555.80765 2.5268.26922.26139.53843 1.7426.26922.08713.53844 1.7426.26922.34852.80765 2.4396.53844.08713.53844-.78417.26922.17426.26922-.34852.26922-.78417.26922-.26139.26922-.52278.26922-.95843.26922.34852.53843-.60991.26922-1.8297.26922.17426.26922-.8713.26922.087129.26922-1.5683.26922-.69704.26922-.34852.26922-1.3069.26922-.52278.53844-2.5268.26922-2.3525.80765-2.8753.26922-1.9169.26922-.69704.80765-4.3565.53844-1.8297.26922-.60991.26922-1.7426.26922.17426.26922-1.2198.26922-.69704h.26922l1.0769-7.2318.26922-.52278.26922-1.7426.80765-2.5268.26922-1.0456h.26922l.80765-6.012.26922-.34852 1.3461-8.1902 1.0769-12.285.80765-16.555.80765-22.131.80765-21.957.26922-3.3109.80765-18.21.26922-3.2238.26922-5.5763.26922-2.004.26922-3.3109.26922-.26139.26922-1.2198.26922-.34852.80765 7.5803.53844 12.808 1.0769 18.994 1.0769 23.264.26922 5.1407.53844 12.982.53843 10.107.80765 11.501.53843 11.24.80765 10.02 1.0769 9.4971 1.3461 12.111.26922.8713 1.0769 5.6634.53844 2.8753.26922 1.1327.53844 1.1327.53844 2.004.26922.69704.26922 1.9169.26922.69704.26922-.43565.53843.95843.26922.17426.26922.8713.26922 1.6555.26922-.17426.26922.26139.53844.69704.26922.17426h.26922l.53844.34852.53844-1.3941.26922.95843.26922-.17426.53844-1.2198.26922-.087129.53843-.8713.26922.69704.80765-1.3941.26922-2.004.26922-.8713.53844-.8713 2.1537-9.9328.26922-.95843.80765-5.5763.26922-.69704 1.0769-6.7961.26922-1.1327.26922-.43565.26922-.95843.53843-3.0495.53844-5.1407.26922-.69704 1.0769-7.0575.26922-2.9624.26922-.69704.53844-2.701.26922 1.2198.26922-.95843.26922-.26139.26922-.78417.26922.08713.26922-.52278.26922-1.3941.53843-9.5843 1.0769-17.774.53844-16.032.26922-10.281.26922-5.402 1.0769-29.363.80765-15.77.53844-6.709h.26922l.26922-.17426.26922-1.6555.53844 2.4396.26922 1.7426.26922 3.5723.80765 19.169 1.0769 25.268.80765 20.04 1.8845 33.806.26922 3.0495.26922 6.0991 1.6153 19.43 1.0769 8.0159 3.2306 18.472.26922.60991.26922 1.9169 1.3461 4.4436.26922 1.6555 1.0769 3.1367.26922 1.2198.26922-.26139.26922.34852.26922-.087129.26922-.26139.26922-.8713.26922 1.0456.26922-.78417.53844-.52278.26922-.95843.26922-.17426h.26922l.26922-.26139.26922-.78417.26922-2.004.26922-.34852h.26922l.26922-.26139.26922-1.0456.26922-1.6555.26922-.43565.26922-1.0456h.26922l.26922-.8713.80765 3.8337.26922-.34852.26922 1.3069.26922-.17426.26922-2.2654.26922.8713.53844-.95843.53844.43565.26922-1.9169.26922.34852.26922.8713.26922.17426.26922-.08713.26922-1.0456.26922.17426m1.0769-2.7882.26922-1.6555.26922-3.3109.26922-1.7426 1.8845-17.862 1.0769-5.1407 1.0769-12.372 1.3461-25.616 1.3461-41.299 1.0769-29.798.53844-9.6714.53844-7.3189.26922-1.5683.26922 1.1327h.26922l.26922.43565.53844 2.7882.53844 12.895.26922 6.5347.26922 1.9169.26922 7.5803.26922 2.6139.26922 5.0535.80765 19.517 2.423 45.22 1.8845 24.832 2.1537 19.081.26922.60991 1.3461 7.9288 1.3461 5.402.26922.52278.53844 2.7882.53844 2.5268.80765 1.6555.53844 1.4812.53844.08713.26922-.34852.26922.52278.26922-1.0456.26922-.08713.26922.17426.26922-.087129.26922-.95843.26922.34852.53844-1.3941.26922-.60991.26922-1.0456.80765-1.7426.53844-2.004.26922-1.3941.26922-2.0911.26922-.17426.53844-1.6555.53843-2.701.26922.087129.53844-2.701.80765-1.7426.80765-4.705.53844-1.4812.53844-2.7882 1.3461-7.7545.53843-1.2198.26922-.087129.26922-1.8297.26922-.08713.26922-2.2654.26922-.08713 1.3461-5.6634.26922-1.2198h.26922l.26922-.60991.26922-1.3941.26922-3.0495.80765-3.1367.26922-4.5307.26922-2.3525 1.6153-35.2 1.0769-30.67.26922-5.2278 1.0769-32.412 1.0769-14.202.53844-1.7426.26922-.69704.26922-.34852.26922-1.0456.53844 5.3149.26922.34852.26922 4.6179.80765 25.79.80765 14.551 3.2306 56.024 1.0769 15.335.26922 3.3981.53844 8.3645 2.1537 20.388.80765 4.008.26922.52278.26922 1.1327.26922.08713.80765 2.9624.26922.95843.26922.52278.80765 3.6594.53844-1.0456v0" clip-path="url(#d)" fill="none" stroke="#28f" stroke-linecap="square" stroke-width="1.5"/>
   </g>
   <g id="cy">
    <path d="m52 259.78v-232.9" fill="none" stroke="#000" stroke-linecap="square" stroke-width=".8"/>
   </g>
   <g id="cz">
    <path d="m853.2 259.78v-232.9" fill="none" stroke="#000" stroke-linecap="square" stroke-width=".8"/>
   </g>
   <g id="da">
    <path d="m52 259.78h801.2" fill="none" stroke="#000" stroke-linecap="square" stroke-width=".8"/>
   </g>
   <g id="db">
    <path d="m52 26.88h801.2" fill="none" stroke="#000" stroke-linecap="square" stroke-width=".8"/>
   </g>
   <g id="dc">
    <!-- 同時接続数の推移 -->
    <g transform="translate(404.6 20.88) scale(.12 -.12)">
     <defs>
      <path id="x" transform="scale(.015625)" d="m1587 3936h3232v-518h-3232v518zm320-1114h557v-2534h-557v2534zm301 0h2291v-2086h-2291v512h1734v1069h-1734v505zm-1683 2260h5113v-570h-4524v-5056h-589v5626zm4768 0h595v-4896q0-250-67-397t-227-218q-160-77-426-96t-675-19q-13 83-45 192t-77 218q-45 108-89 185 281-13 527-13 247 0 330 0 83 7 118 42 36 35 36 112v4890z"/>
      <path id="v" transform="scale(.015625)" d="m2714 4672h3238v-525h-3238v525zm-244-1235h3712v-538h-3712v538zm20-1184h3635v-531h-3635v531zm1523 3155h595v-2310h-595v2310zm832-2451h589v-2823q0-230-61-364-61-135-227-199-167-70-423-86t-633-16q-20 121-78 285-57 163-121 284 275-6 509-9t310-3q77 6 106 28 29 23 29 93v2810zm-2023-1677 487 282q153-160 313-352t294-381q135-189 206-343l-519-313q-64 153-189 348-124 196-278 394-154 199-314 365zm-2086 3718h1619v-4281h-1619v544h1056v3187h-1056v550zm32-1843h1293v-537h-1293v537zm-320 1843h563v-4832h-563v4832z"/>
      <path id="w" transform="scale(.015625)" d="m3866 5408h614v-870h-614v870zm-1479-653h3597v-518h-3597v518zm-230-1485h4e3v-518h-4e3v518zm825 922 519 102q64-160 121-342 58-182 96-352 39-170 45-304l-544-128q-6 134-42 313-35 180-83 365-48 186-112 346zm1856 109 589-71q-96-275-202-557-105-281-195-486l-518 77q58 147 122 329 64 183 118 372t86 336zm-2643-2106h3943v-518h-3943v518zm1408 685 602-115q-167-371-362-784t-390-797-362-685l-525 179q160 288 346 666t368 784 323 752zm-659-2157 358 403q352-102 733-240 381-137 752-304 371-166 697-336 327-169 558-329l-384-461q-218 160-532 336-313 176-685 345-371 170-755 323-384 154-742 263zm1894 1114 583-71q-122-550-353-944-230-393-604-662t-922-435q-547-167-1296-269-25 128-93 269-67 141-137 230 678 64 1168 192t819 349q330 221 531 550 202 330 304 791zm-4684 217q396 90 953 240 557 151 1120 311l77-544q-525-154-1053-311-528-156-963-284l-134 588zm121 2093h1965v-563h-1965v563zm819 1248h576v-5229q0-236-51-374t-192-208q-141-77-355-99-214-23-541-16-13 115-64 288t-109 294q205-6 381-6t234 0q64 0 92 28 29 29 29 93v5229z"/>
      <path id="u" transform="scale(.015625)" d="m4058 5408h595v-1798h-595v1798zm-1415-563h3443v-499h-3443v499zm231-992h3008v-499h-3008v499zm-224-877h3475v-1203h-531v729h-2432v-729h-512v1203zm1964-877h551v-1881q0-122 22-157 23-35 106-35 25 0 92 0 68 0 135 0t99 0q51 0 83 54t45 224 19 515q90-70 234-131t259-93q-19-429-83-662-64-234-183-326-118-93-316-93-39 0-103 0t-134 0-138 0q-67 0-99 0-237 0-365 64t-176 218q-48 153-48 422v1881zm-1164-6h550v-455q0-243-48-528-48-284-186-579-137-294-409-572-272-279-727-503-70 90-192 208-121 118-230 195 416 205 665 438 250 234 371 474 122 240 164 467 42 228 42 413v442zm-2240 3309 524-192q-121-244-259-503-137-259-275-496t-259-416l-410 173q122 186 246 438 125 253 240 515 116 263 193 481zm716-743 500-230q-224-359-496-756-272-396-548-764-275-368-518-650l-358 205q179 211 377 483 199 272 387 569 189 298 358 592 170 295 298 551zm-1721-665 307 403q166-154 339-340 173-185 320-364t224-327l-326-460q-77 160-218 348-141 189-314 384-172 196-332 356zm1485-832 435 179q128-211 249-458 122-246 215-474 93-227 137-412l-473-211q-32 185-119 422-86 237-201 486-115 250-243 468zm-1530-583q422 26 998 54 576 29 1184 68l7-499q-570-45-1127-84-556-38-992-70l-70 531zm1702-992 436 135q121-276 214-596t118-556l-454-148q-26 237-112 563-86 327-202 602zm-1363 109 499-83q-57-455-163-897-105-441-253-748-51 32-134 73-83 42-170 83-86 42-144 62 148 294 234 697t131 813zm691 627h525v-2861h-525v2861z"/>
      <path id="q" transform="scale(.015625)" d="m224 2022h3187v-499h-3187v499zm51 2247h3111v-487h-3111v487zm1127-1735 563-121q-154-320-333-672t-352-679q-173-326-326-582l-532 173q148 243 324 566t345 669q170 346 311 646zm934-832 563-64q-89-480-262-838t-461-614-701-432-976-298q-25 128-99 269t-157 237q659 102 1085 303 426 202 666 554t342 883zm422 3597 519-211q-147-218-298-436-150-217-278-377l-403 186q121 173 252 413 132 240 208 425zm-1203 109h563v-2957h-563v2957zm-1075-320 448 186q134-192 246-420 112-227 157-393l-467-211q-38 172-147 406t-237 432zm1094-1050 397-236q-160-263-400-529-240-265-519-489-278-224-553-378-51 103-141 237-89 135-179 218 269 109 534 294 266 186 493 416 228 231 368 467zm487-204q83-45 246-145 163-99 352-211t346-211 221-150l-327-423q-83 77-230 198-147 122-317 253-170 132-327 250-156 119-259 189l295 250zm1798 396h2311v-556h-2311v556zm115 1178 615-90q-103-640-263-1235t-384-1101q-224-505-512-889-44 57-134 134t-186 157-166 125q275 339 473 796 199 458 340 995 141 538 217 1108zm1223-1510 614-58q-147-1101-445-1940-297-838-813-1443-515-604-1321-1014-26 71-90 177-64 105-134 208-70 102-128 159 742 346 1212 880 471 535 730 1290 260 755 375 1741zm-1005-135q134-851 387-1597 253-745 659-1305 407-560 1002-874-70-57-154-150-83-93-154-189-70-96-121-179-633 371-1056 988-422 618-688 1434-265 816-425 1783l550 89zm-3309-3065 327 416q377-148 754-330 378-182 701-378 324-195 548-368l-416-435q-211 179-519 378-307 198-666 383-358 186-729 334z"/>
      <path id="t" transform="scale(.015625)" d="m3686 4378q-64-493-163-1041-99-547-265-1084-192-653-432-1104t-522-688-595-237q-320 0-596 221-275 221-448 621-172 400-172 931 0 537 220 1017 221 480 611 851 391 372 909 583 519 211 1121 211 576 0 1040-186 464-185 793-515 330-329 502-771 173-441 173-941 0-672-278-1194-278-521-816-851-538-329-1318-444l-378 601q166 20 307 42t263 48q307 70 585 217 279 148 496 375 218 227 342 534 125 308 125 692t-122 713q-121 330-358 573-236 243-582 380-346 138-781 138-525 0-935-186-409-185-694-489-284-304-432-656-147-352-147-678 0-365 89-605 90-240 224-355 135-115 276-115t288 144 297 457q151 314 298 800 147 461 246 982 100 522 145 1021l684-12z"/>
      <path id="r" transform="scale(.015625)" d="m2995 2925h2893v-519h-2893v519zm0-1280h2893v-519h-2893v519zm-64-1299h3232v-557h-3232v557zm1312 3577h563v-3763h-563v3763zm429 1466 634-141q-154-390-340-794-185-403-339-684l-512 140q103 199 208 458 106 259 195 528 90 269 154 493zm-1472 25 582-147q-153-518-371-1018-217-499-483-931t-573-758q-38 64-109 160-70 96-147 198-77 103-141 160 416 416 733 1034t509 1302zm128-1203h2720v-537h-2720v-4205h-582v4422l313 320h269zm-3174-2157q396 90 953 240 557 151 1120 311l77-544q-525-154-1053-311-528-156-963-284l-134 588zm121 2093h1965v-563h-1965v563zm819 1248h576v-5229q0-236-51-374t-192-208q-141-77-355-99-214-23-541-16-13 115-64 288t-109 294q205-6 381-6t234 0q64 0 92 28 29 29 29 93v5229z"/>
      <path id="p" transform="scale(.015625)" d="m4051 5402 595-109q-281-493-729-941t-1107-806q-39 64-106 144t-141 153q-73 74-137 119 608 288 1011 678t614 762zm-77-557h1511v-493h-1863l352 493zm1293 0h109l109 25 384-179q-192-505-496-905t-695-701q-390-301-845-519-454-217-947-358-44 109-137 253t-176 227q448 109 867 294 419 186 777 445 359 259 631 592t419 730v96zm-1990-954 377 307q167-96 336-218 170-121 320-249 151-128 247-237l-397-332q-90 108-237 236t-317 259q-169 132-329 234zm1107-934 595-109q-307-538-803-1031-496-492-1232-876-38 64-102 144t-138 156q-74 77-138 116 455 217 807 483t604 554q253 288 407 563zm-90-589h1460v-506h-1818l358 506zm1268 0h121l109 26 384-167q-192-614-531-1075t-787-794q-448-332-983-553-534-221-1129-355-45 115-132 269-86 153-176 249 551 96 1043 285 493 189 903 473 410 285 714 669t464 883v90zm-2132-1056 410 339q186-102 384-237 198-134 371-275t282-269l-435-371q-103 128-270 272-166 144-361 288t-381 253zm-2150 3533h589v-5376h-589v5376zm-992-1242h2336v-569h-2336v569zm1024-224 365-160q-96-339-231-707-134-368-291-727-157-358-336-672-179-313-365-537-44 128-134 291t-160 272q173 192 339 457 167 266 323 570 157 304 282 618t208 595zm941 1946 416-467q-314-122-695-221-380-99-784-173-403-74-780-131-20 102-71 236-51 135-102 231 358 58 732 138 375 80 711 179t573 208zm-397-2579q58-45 179-170 122-125 266-266 144-140 259-265t160-183l-352-473q-58 102-157 255-99 154-218 317-118 164-227 311-108 147-185 237l275 237z"/>
     </defs>
     <use xlink:href="#x"/>
     <use transform="translate(100)" xlink:href="#v"/>
     <use transform="translate(200)" xlink:href="#w"/>
     <use transform="translate(300)" xlink:href="#u"/>
     <use transform="translate(400)" xlink:href="#q"/>
     <use transform="translate(500)" xlink:href="#t"/>
     <use transform="translate(600)" xlink:href="#r"/>
     <use transform="translate(700)" xlink:href="#p"/>
    </g>
   </g>
  </g>
  <g id="dd">
   <g id="de">
    <path d="m52 523.06h801.2v-232.9h-801.2z" fill="#fff"/>
   </g>
   <g id="df">
    <path d="m133.37 523.06h.80765v-232.9h-.80765z" clip-path="url(#c)" fill="#808080" opacity=".3" stroke="#808080"/>
   </g>
   <g id="dg">
    <path d="m430.72 523.06h.53844v-232.9h-.53844z" clip-path="url(#c)" fill="#808080" opacity=".3" stroke="#808080"/>
   </g>
   <g id="dh">
    <path d="m751.09 523.06h1.0769v-232.9h-1.0769z" clip-path="url(#c)" fill="#808080" opacity=".3" stroke="#808080"/>
   </g>
   <g id="di">
    <g id="dj">
     <g id="dk">
      <path d="m104.7 523.06v-232.9" clip-path="url(#c)" fill="none" stroke="#b0b0b0" stroke-linecap="square" stroke-opacity=".3" stroke-width=".8"/>
     </g>
     <g id="dl">
      <use x="104.701796" y="523.055464" stroke="#000000" stroke-width=".8" xlink:href="#e"/>
     </g>
     <g id="dm">
      <!-- 2025-07-01 -->
      <g transform="translate(57.912 563.33) rotate(-30) scale(.1 -.1)">
       <defs>
        <path id="g" transform="scale(.015625)" d="m301 1536v544h1689v-544h-1689z"/>
       </defs>
       <use xlink:href="#b"/>
       <use transform="translate(57)" xlink:href="#a"/>
       <use transform="translate(114)" xlink:href="#b"/>
       <use transform="translate(171)" xlink:href="#j"/>
       <use transform="translate(228)" xlink:href="#g"/>
       <use transform="translate(263.7)" xlink:href="#a"/>
       <use transform="translate(320.7)" xlink:href="#i"/>
       <use transform="translate(377.7)" xlink:href="#g"/>
       <use transform="translate(413.4)" xlink:href="#a"/>
       <use transform="translate(470.4)" xlink:href="#f"/>
      </g>
     </g>
    </g>
    <g id="dn">
     <g id="do">
      <path d="m182.24 523.06v-232.9" clip-path="url(#c)" fill="none" stroke="#b0b0b0" stroke-linecap="square" stroke-opacity=".3" stroke-width=".8"/>
     </g>
     <g id="dp">
      <use x="182.236407" y="523.055464" stroke="#000000" stroke-width=".8" xlink:href="#e"/>
     </g>
     <g id="dq">
      <!-- 2025-07-03 -->
      <g transform="translate(135.45 563.33) rotate(-30) scale(.1 -.1)">
       <use xlink:href="#b"/>
       <use transform="translate(57)" xlink:href="#a"/>
       <use transform="translate(114)" xlink:href="#b"/>
       <use transform="translate(171)" xlink:href="#j"/>
       <use transform="translate(228)" xlink:href="#g"/>
       <use transform="translate(263.7)" xlink:href="#a"/>
       <use transform="translate(320.7)" xlink:href="#i"/>
       <use transform="translate(377.7)" xlink:href="#g"/>
       <use transform="translate(413.4)" xlink:href="#a"/>
       <use transform="translate(470.4)" xlink:href="#o"/>
      </g>
     </g>
    </g>
    <g id="dr">
     <g id="ds">
      <path d="m259.77 523.06v-232.9" clip-path="url(#c)" fill="none" stroke="#b0b0b0" stroke-linecap="square" stroke-opacity=".3" stroke-width=".8"/>
     </g>
     <g id="dt">
      <use x="259.771018" y="523.055464" stroke="#000000" stroke-width=".8" xlink:href="#e"/>
     </g>
     <g id="du">
      <!-- 2025-07-05 -->
      <g transform="translate(212.98 563.33) rotate(-30) scale(.1 -.1)">
       <use xlink:href="#b"/>
       <use transform="translate(57)" xlink:href="#a"/>
       <use transform="translate(114)" xlink:href="#b"/>
       <use transform="translate(171)" xlink:href="#j"/>
       <use transform="translate(228)" xlink:href="#g"/>
       <use transform="translate(263.7)" xlink:href="#a"/>
       <use transform="translate(320.7)" xlink:href="#i"/>
       <use transform="translate(377.7)" xlink:href="#g"/>
       <use transform="translate(413.4)" xlink:href="#a"/>
       <use transform="translate(470.4)" xlink:href="#j"/>
      </g>
     </g>
    </g>
    <g id="dv">
     <g id="dw">
      <path d="m337.31 523.06v-232.9" clip-path="url(#c)" fill="none" stroke="#b0b0b0" stroke-linecap="square" stroke-opacity=".3" stroke-width=".8"/>
     </g>
     <g id="dx">
      <use x="337.305629" y="523.055464" stroke="#000000" stroke-width=".8" xlink:href="#e"/>
     </g>
     <g id="dy">
      <!-- 2025-07-07 -->
      <g transform="translate(290.52 563.33) rotate(-30) scale(.1 -.1)">
       <use xlink:href="#b"/>
       <use transform="translate(57)" xlink:href="#a"/>
       <use transform="translate(114)" xlink:href="#b"/>
       <use transform="translate(171)" xlink:href="#j"/>
       <use transform="translate(228)" xlink:href="#g"/>
       <use transform="translate(263.7)" xlink:href="#a"/>
       <use transform="translate(320.7)" xlink:href="#i"/>
       <use transform="translate(377.7)" xlink:href="#g"/>
       <use transform="translate(413.4)" xlink:href="#a"/>
       <use transform="translate(470.4)" xlink:href="#i"/>
      </g>
     </g>
    </g>
    <g id="dz">
     <g id="ea">
      <path d="m414.84 523.06v-232.9" clip-path="url(#c)" fill="none" stroke="#b0b0b0" stroke-linecap="square" stroke-opacity=".3" stroke-width=".8"/>
     </g>
     <g id="eb">
      <use x="414.840241" y="523.055464" stroke="#000000" stroke-width=".8" xlink:href="#e"/>
     </g>
     <g id="ec">
      <!-- 2025-07-09 -->
      <g transform="translate(368.05 563.33) rotate(-30) scale(.1 -.1)">
       <use xlink:href="#b"/>
       <use transform="translate(57)" xlink:href="#a"/>
       <use transform="translate(114)" xlink:href="#b"/>
       <use transform="translate(171)" xlink:href="#j"/>
       <use transform="translate(228)" xlink:href="#g"/>
       <use transform="translate(263.7)" xlink:href="#a"/>
       <use transform="translate(320.7)" xlink:href="#i"/>
       <use transform="translate(377.7)" xlink:href="#g"/>
       <use transform="translate(413.4)" xlink:href="#a"/>
       <use transform="translate(470.4)" xlink:href="#m"/>
      </g>
     </g>
    </g>
    <g id="ed">
     <g id="ee">
      <path d="m492.37 523.06v-232.9" clip-path="url(#c)" fill="none" stroke="#b0b0b0" stroke-linecap="square" stroke-opacity=".3" stroke-width=".8"/>
     </g>
     <g id="ef">
      <use x="492.374852" y="523.055464" stroke="#000000" stroke-width=".8" xlink:href="#e"/>
     </g>
     <g id="eg">
      <!-- 2025-07-11 -->
      <g transform="translate(445.59 563.33) rotate(-30) scale(.1 -.1)">
       <use xlink:href="#b"/>
       <use transform="translate(57)" xlink:href="#a"/>
       <use transform="translate(114)" xlink:href="#b"/>
       <use transform="translate(171)" xlink:href="#j"/>
       <use transform="translate(228)" xlink:href="#g"/>
       <use transform="translate(263.7)" xlink:href="#a"/>
       <use transform="translate(320.7)" xlink:href="#i"/>
       <use transform="translate(377.7)" xlink:href="#g"/>
       <use transform="translate(413.4)" xlink:href="#f"/>
       <use transform="translate(470.4)" xlink:href="#f"/>
      </g>
     </g>
    </g>
    <g id="eh">
     <g id="ei">
      <path d="m569.91 523.06v-232.9" clip-path="url(#c)" fill="none" stroke="#b0b0b0" stroke-linecap="square" stroke-opacity=".3" stroke-width=".8"/>
     </g>
     <g id="ej">
      <use x="569.909463" y="523.055464" stroke="#000000" stroke-width=".8" xlink:href="#e"/>
     </g>
     <g id="ek">
      <!-- 2025-07-13 -->
      <g transform="translate(523.12 563.33) rotate(-30) scale(.1 -.1)">
       <use xlink:href="#b"/>
       <use transform="translate(57)" xlink:href="#a"/>
       <use transform="translate(114)" xlink:href="#b"/>
       <use transform="translate(171)" xlink:href="#j"/>
       <use transform="translate(228)" xlink:href="#g"/>
       <use transform="translate(263.7)" xlink:href="#a"/>
       <use transform="translate(320.7)" xlink:href="#i"/>
       <use transform="translate(377.7)" xlink:href="#g"/>
       <use transform="translate(413.4)" xlink:href="#f"/>
       <use transform="translate(470.4)" xlink:href="#o"/>
      </g>
     </g>
    </g>
    <g id="el">
     <g id="em">
      <path d="m647.44 523.06v-232.9" clip-path="url(#c)" fill="none" stroke="#b0b0b0" stroke-linecap="square" stroke-opacity=".3" stroke-width=".8"/>
     </g>
     <g id="en">
      <use x="647.444074" y="523.055464" stroke="#000000" stroke-width=".8" xlink:href="#e"/>
     </g>
     <g id="eo">
      <!-- 2025-07-15 -->
      <g transform="translate(600.65 563.33) rotate(-30) scale(.1 -.1)">
       <use xlink:href="#b"/>
       <use transform="translate(57)" xlink:href="#a"/>
       <use transform="translate(114)" xlink:href="#b"/>
       <use transform="translate(171)" xlink:href="#j"/>
       <use transform="translate(228)" xlink:href="#g"/>
       <use transform="translate(263.7)" xlink:href="#a"/>
       <use transform="translate(320.7)" xlink:href="#i"/>
       <use transform="translate(377.7)" xlink:href="#g"/>
       <use transform="translate(413.4)" xlink:href="#f"/>
       <use transform="translate(470.4)" xlink:href="#j"/>
      </g>
     </g>
    </g>
    <g id="ep">
     <g id="eq">
      <path d="m724.98 523.06v-232.9" clip-path="url(#c)" fill="none" stroke="#b0b0b0" stroke-linecap="square" stroke-opacity=".3" stroke-width=".8"/>
     </g>
     <g id="er">
      <use x="724.978685" y="523.055464" stroke="#000000" stroke-width=".8" xlink:href="#e"/>
     </g>
     <g id="es">
      <!-- 2025-07-17 -->
      <g transform="translate(678.19 563.33) rotate(-30) scale(.1 -.1)">
       <use xlink:href="#b"/>
       <use transform="translate(57)" xlink:href="#a"/>
       <use transform="translate(114)" xlink:href="#b"/>
       <use transform="translate(171)" xlink:href="#j"/>
       <use transform="translate(228)" xlink:href="#g"/>
       <use transform="translate(263.7)" xlink:href="#a"/>
       <use transform="translate(320.7)" xlink:href="#i"/>
       <use transform="translate(377.7)" xlink:href="#g"/>
       <use transform="translate(413.4)" xlink:href="#f"/>
       <use transform="translate(470.4)" xlink:href="#i"/>
      </g>
     </g>
    </g>
    <g id="et">
     <g id="eu">
      <path d="m802.51 523.06v-232.9" clip-path="url(#c)" fill="none" stroke="#b0b0b0" stroke-linecap="square" stroke-opacity=".3" stroke-width=".8"/>
     </g>
     <g id="ev">
      <use x="802.513296" y="523.055464" stroke="#000000" stroke-width=".8" xlink:href="#e"/>
     </g>
     <g id="ew">
      <!-- 2025-07-19 -->
      <g transform="translate(755.72 563.33) rotate(-30) scale(.1 -.1)">
       <use xlink:href="#b"/>
       <use transform="translate(57)" xlink:href="#a"/>
       <use transform="translate(114)" xlink:href="#b"/>
       <use transform="translate(171)" xlink:href="#j"/>
       <use transform="translate(228)" xlink:href="#g"/>
       <use transform="translate(263.7)" xlink:href="#a"/>
       <use transform="translate(320.7)" xlink:href="#i"/>
       <use transform="translate(377.7)" xlink:href="#g"/>
       <use transform="translate(413.4)" xlink:href="#f"/>
       <use transform="translate(470.4)" xlink:href="#m"/>
      </g>
     </g>
    </g>
   </g>
   <g id="ex">
    <g id="ey">
     <g id="ez">
      <path d="m52 506.15h801.2" clip-path="url(#c)" fill="none" stroke="#b0b0b0" stroke-linecap="square" stroke-opacity=".3" stroke-width=".8"/>
     </g>
     <g id="fa">
      <use x="52" y="506.152025" stroke="#000000" stroke-width=".8" xlink:href="#h"/>
     </g>
     <g id="fb">
      <!-- 104800 -->
      <g transform="translate(10.8 510.14) scale(.1 -.1)">
       <use xlink:href="#f"/>
       <use transform="translate(57)" xlink:href="#a"/>
       <use transform="translate(114)" xlink:href="#n"/>
       <use transform="translate(171)" xlink:href="#l"/>
       <use transform="translate(228)" xlink:href="#a"/>
       <use transform="translate(285)" xlink:href="#a"/>
      </g>
     </g>
    </g>
    <g id="fc">
     <g id="fd">
      <path d="m52 479.55h801.2" clip-path="url(#c)" fill="none" stroke="#b0b0b0" stroke-linecap="square" stroke-opacity=".3" stroke-width=".8"/>
     </g>
     <g id="fe">
      <use x="52" y="479.553381" stroke="#000000" stroke-width=".8" xlink:href="#h"/>
     </g>
     <g id="ff">
      <!-- 105200 -->
      <g transform="translate(10.8 483.54) scale(.1 -.1)">
       <use xlink:href="#f"/>
       <use transform="translate(57)" xlink:href="#a"/>
       <use transform="translate(114)" xlink:href="#j"/>
       <use transform="translate(171)" xlink:href="#b"/>
       <use transform="translate(228)" xlink:href="#a"/>
       <use transform="translate(285)" xlink:href="#a"/>
      </g>
     </g>
    </g>
    <g id="fg">
     <g id="fh">
      <path d="m52 452.95h801.2" clip-path="url(#c)" fill="none" stroke="#b0b0b0" stroke-linecap="square" stroke-opacity=".3" stroke-width=".8"/>
     </g>
     <g id="fi">
      <use x="52" y="452.954736" stroke="#000000" stroke-width=".8" xlink:href="#h"/>
     </g>
     <g id="fj">
      <!-- 105600 -->
      <g transform="translate(10.8 456.94) scale(.1 -.1)">
       <use xlink:href="#f"/>
       <use transform="translate(57)" xlink:href="#a"/>
       <use transform="translate(114)" xlink:href="#j"/>
       <use transform="translate(171)" xlink:href="#k"/>
       <use transform="translate(228)" xlink:href="#a"/>
       <use transform="translate(285)" xlink:href="#a"/>
      </g>
     </g>
    </g>
    <g id="fk">
     <g id="fl">
      <path d="m52 426.36h801.2" clip-path="url(#c)" fill="none" stroke="#b0b0b0" stroke-linecap="square" stroke-opacity=".3" stroke-width=".8"/>
     </g>
     <g id="fm">
      <use x="52" y="426.356092" stroke="#000000" stroke-width=".8" xlink:href="#h"/>
     </g>
     <g id="fn">
      <!-- 106000 -->
      <g transform="translate(10.8 430.34) scale(.1 -.1)">
       <use xlink:href="#f"/>
       <use transform="translate(57)" xlink:href="#a"/>
       <use transform="translate(114)" xlink:href="#k"/>
       <use transform="translate(171)" xlink:href="#a"/>
       <use transform="translate(228)" xlink:href="#a"/>
       <use transform="translate(285)" xlink:href="#a"/>
      </g>
     </g>
    </g>
    <g id="fo">
     <g id="fp">
      <path d="m52 399.76h801.2" clip-path="url(#c)" fill="none" stroke="#b0b0b0" stroke-linecap="square" stroke-opacity=".3" stroke-width=".8"/>
     </g>
     <g id="fq">
      <use x="52" y="399.757447" stroke="#000000" stroke-width=".8" xlink:href="#h"/>
     </g>
     <g id="fr">
      <!-- 106400 -->
      <g transform="translate(10.8 403.74) scale(.1 -.1)">
       <use xlink:href="#f"/>
       <use transform="translate(57)" xlink:href="#a"/>
       <use transform="translate(114)" xlink:href="#k"/>
       <use transform="translate(171)" xlink:href="#n"/>
       <use transform="translate(228)" xlink:href="#a"/>
       <use transform="translate(285)" xlink:href="#a"/>
      </g>
     </g>
    </g>
    <g id="fs">
     <g id="ft">
      <path d="m52 373.16h801.2" clip-path="url(#c)" fill="none" stroke="#b0b0b0" stroke-linecap="square" stroke-opacity=".3" stroke-width=".8"/>
     </g>
     <g id="fu">
      <use x="52" y="373.158802" stroke="#000000" stroke-width=".8" xlink:href="#h"/>
     </g>
     <g id="fv">
      <!-- 106800 -->
      <g transform="translate(10.8 377.14) scale(.1 -.1)">
       <use xlink:href="#f"/>
       <use transform="translate(57)" xlink:href="#a"/>
       <use transform="translate(114)" xlink:href="#k"/>
       <use transform="translate(171)" xlink:href="#l"/>
       <use transform="translate(228)" xlink:href="#a"/>
       <use transform="translate(285)" xlink:href="#a"/>
      </g>
     </g>
    </g>
    <g id="fw">
     <g id="fx">
      <path d="m52 346.56h801.2" clip-path="url(#c)" fill="none" stroke="#b0b0b0" stroke-linecap="square" stroke-opacity=".3" stroke-width=".8"/>
     </g>
     <g id="fy">
      <use x="52" y="346.560158" stroke="#000000" stroke-width=".8" xlink:href="#h"/>
     </g>
     <g id="fz">
      <!-- 107200 -->
      <g transform="translate(10.8 350.55) scale(.1 -.1)">
       <use xlink:href="#f"/>
       <use transform="translate(57)" xlink:href="#a"/>
       <use transform="translate(114)" xlink:href="#i"/>
       <use transform="translate(171)" xlink:href="#b"/>
       <use transform="translate(228)" xlink:href="#a"/>
       <use transform="translate(285)" xlink:href="#a"/>
      </g>
     </g>
    </g>
    <g id="ga">
     <g id="gb">
      <path d="m52 319.96h801.2" clip-path="url(#c)" fill="none" stroke="#b0b0b0" stroke-linecap="square" stroke-opacity=".3" stroke-width=".8"/>
     </g>
     <g id="gc">
      <use x="52" y="319.961513" stroke="#000000" stroke-width=".8" xlink:href="#h"/>
     </g>
     <g id="gd">
      <!-- 107600 -->
      <g transform="translate(10.8 323.95) scale(.1 -.1)">
       <use xlink:href="#f"/>
       <use transform="translate(57)" xlink:href="#a"/>
       <use transform="translate(114)" xlink:href="#i"/>
       <use transform="translate(171)" xlink:href="#k"/>
       <use transform="translate(228)" xlink:href="#a"/>
       <use transform="translate(285)" xlink:href="#a"/>
      </g>
     </g>
    </g>
    <g id="ge">
     <g id="gf">
      <path d="m52 293.36h801.2" clip-path="url(#c)" fill="none" stroke="#b0b0b0" stroke-linecap="square" stroke-opacity=".3" stroke-width=".8"/>
     </g>
     <g id="gg">
      <use x="52" y="293.362869" stroke="#000000" stroke-width=".8" xlink:href="#h"/>
     </g>
     <g id="gh">
      <!-- 108000 -->
      <g transform="translate(10.8 297.35) scale(.1 -.1)">
       <use xlink:href="#f"/>
       <use transform="translate(57)" xlink:href="#a"/>
       <use transform="translate(114)" xlink:href="#l"/>
       <use transform="translate(171)" xlink:href="#a"/>
       <use transform="translate(228)" xlink:href="#a"/>
       <use transform="translate(285)" xlink:href="#a"/>
      </g>
     </g>
    </g>
   </g>
   <g id="gi">
    <path d="m88.418 512.47h.14448l.80361-.26599 1.211-.46548.41863-.26599 1.1872-.19949.80765.13299.40383-.19949.40383-.33248h.40383l.80765-.86446.80765-.13299.80765-.59847 1.2115.13299.40383-.066496.80765-.66497.40383-.66497.80765-.59847h.40383l.80765-.59847.40383-.39898 1.2115-2.3939 1.2115-.93095.40383-.19949.40383.066497.40383-.33248h1.2115l.40383-.26599h.40383l.80765-.53197 2.0191-.39898.40383.13299.40383-.066497.40383.066497 2.0191-.26599 1.6153-.066497 1.2115-.13299 5.2497-.066497.80765-.066496h.40383l.40383-.13299h.80765l1.2115-.59847.80765-.066497 1.2115-.39898h.40383l.80765-.39898 1.2115-.26599 2.0191-.73146.80765-.33248.80765-.19949m.80765-.39898.40383-.26599.40383-.59847.40383-.33248 1.2115-.26599.80765-.26599.80765-.53197.40383-.86446.40383-.26599.80765-1.3964h.40383l.80765-.93095.40383-.19949.40383-.46548 1.6153-1.0639.40383.066496 1.6153-.93095.80765-.066497 1.2115-.19949.40383.13299h.40383l.80765-.46548.80765-.13299.40383.066497.40383-.13299.40383.066497 2.0191-.26599.80765.066496.80765-.066496.80765.066496h2.423l.80765-.19949.80765.19949.40383.066497 1.2115-.33248h.40383l.40383-.13299h.40383l.40383-.26599.80765-.19949.40383-.33248 1.6153.066497.40383.066496.40383-.066496.40383-.19949 1.2115-.13299.40383.13299 1.2115-.13299h.40383l1.2115-.73146.40383-.066497.40383-.26599.40383.066497.80765-.13299.40383.066497.80765-.39898h.80765l.40383-.46548 2.0191-1.1969 1.2115-.66497.40383-.66497.40383-.066497.40383-.26599.40383-.73146 1.2115-1.1304.40383-.13299.40383.19949.40383-.13299.40383-.33248 1.6153-.46548.40383-.066497.40383.066497.40383-.19949.80765.066496h2.0191l.40383-.13299.80765.13299 1.2115-.13299 2.8268-.066496.40383.19949h.40383l1.7499-.46548.26922.066497h.13461l.26922-.13299h2.6922l.26922.13299.67304-.066497.26922-.066496h.26922l.13461-.13299.26922.13299.26922-.066497h.26922l.26922-.13299.53844.13299.26922-.066497 1.2115-.066496.26922-.19949.13461-.13299.53843.26599.67304-.26599.26922.066496.53844-.19949.94226.066497.26922.13299.80765-.66497h.13461l.53844-.46548h1.4807l.26922-.13299.67304-.066497 1.3461-.59847h.40383l.26922-.13299.13461-.066496.13461-.19949.13461.13299.13461-.066497.13461.13299.26922-.26599.26922-.13299.26922-.066497.26922-.13299.13461-.066496.13461.066496.80765-.73146.26922-.066496.26922-.13299.26922-.66497.94226-.93095.13461.13299.26922-.13299.13461-.19949h.13461l.13461.13299.26922-.066496.26922-.46548h.26922l.13461-.39898.13461.066496.67304-.26599h.13461l.26922-.33248.26922-.19949.53844-.066497.26922-.19949.40383-.066497.26922-.066497h.40383l.40383-.26599.53844-.19949.94226-.066497.26922-.066496 1.7499-.066497.26922-.066496 2.9614-.066497.26922-.066497 2.1537-.066496.67304-.26599 3.2306-.066496 1.0769-.26599.26922-.19949 1.8845.066497.26922.13299 1.0769-.19949 1.3461-.066496.53844-.33248.80765-.066497.53844-.26599h.26922l.53843-.19949h.26922l.80765-.66497.26922-.13299.80765-.066497.26922-.26599 1.6153-.39898.26922.066496.26922-.13299.53844-.066496.80765-.19949.26922.066496 1.0769-.73146.26922-.066497.53843-.66497.26922-.19949h.26922l1.0769-.66497 1.3461-.33248 1.0769-1.1304.26922-.39898h.26922l.80765-.79796h.26922l1.0769-.79796.26922.066497 1.3461-1.3299h.26922l.26922-.39898 1.0769-.19949h1.8845l.26922-.13299h.26922l.26922-.13299 1.0769-.13299.80765-.066496 2.1537-.46548 2.6922.066496.53844.066497.80765-.066497.26922-.19949.80765.13299.26922-.066497.53844.066497h1.3461l.80765-.33248h1.0769l.53844-.26599h.80765l.26922-.13299.80765-.066497.26922-.066496.26922.066496.26922-.13299.26922.066497.80765-.19949.26922-.19949.26922.066497.80765-.93095.53844.19949.26922-.19949h.53844l.53844-.26599.80765-.066497.53844-.59847h.26922l.53844-.19949.26922.066496.26922-.26599.26922-.066497.26922.066497.26922-.066497.26922.13299.26922-.13299.26922.066497.26922-.066497.80765-.59847h.26922l.26922-.13299.80765-1.1969.80765-.46548.26922-.53197.26922-.066496.80765-.79796.26922.066497.80765-.53197.53844-1.0639.53843-.066496.53844-.59847 1.0769-.33248.80765-.46548 1.0769-.33248.53843-.59847.53844-.066496 1.0769-.19949.26922-.33248 1.8845-.066497.53844-.19949.80765-.066496.80765-.19949.26922.066496.53843-.066496.80765.066496.53843.066497.53844-.26599 1.0769.066496.26922.19949h2.423l.53844-.33248h.26922l.53844-.19949 1.0769.066497.53844.066496.26922-.13299h.26922l.26922-.26599h.26922l.53844-.26599.53843-.066496.53844-.33248.53844-.066497.80765-.73146h.26922l.26922-.13299h.53844l.53844.19949h.26922l.53844-.19949.26922-.33248 1.3461-.39898.26922-.13299.80765-.066497.26922-.13299.80765.13299.80765-.066496.53843-.19949.53844-.13299 1.6153-1.0639.26922.066497.26922-.19949h.53844l.26922-.33248.53844-.26599.53844-.53197.80765.066497.53844-.39898.26922.066497.53844-.39898.26922-.39898.26922.13299.26922-.26599.26922-.066496.26922.19949.26922-.26599.53843.13299 1.0769-.66497.53844.066497.26922-.19949h.26922l.26922.13299.26922-.066496.26922-.33248.26922.066496.80765-.19949.26922.066497.26922-.066497.53844.066497 1.8845.066497.26922.19949 1.8845-.066496.53844-.066497 1.3461.066497.26922.13299.26922-.13299h1.0769l.26922-.13299.80765.066496.53844.066497 2.423-.066497.53844-.066496 1.0769.066496.53843-.26599.80765-.13299.26922.13299.53844-.26599 1.0769.13299.53844-.26599h.53844l.53844-.19949 2.9614-.066496.53844-.19949.53844-.26599 1.3461-.066496.53844-.26599.80765-.59847h.26922l.26922-.13299.53843.066496 1.0769-.79796.26922.13299.26922-.13299.26922-.39898.80765-.46548.26922-.19949h.26922l.53844-.79796.80765-.59847.26922-.39898h.26922l.53844-.59847.26922.13299.53844-.066496.26922-.39898.26922.066497.53844-.39898 1.3461-.86446 1.0769-.46548 1.0769-.066497.80765-.33248 1.6153.066497.53844.066496 1.8845.066497.53844.066497 1.0769-.13299.26922-.066496.26922.066496.53844-.066496h2.6922l.26922-.13299.80765-.066496.53843-.066497 1.0769-.066496.26922-.066497.80765.26599.53843-.19949 1.3461-.066497.80765-.13299.53843-.066497.26922-.13299 1.6153.066497.80765-.39898h.26922l.53844-.33248h.26922l.26922-.13299.53844-.39898.26922.066497.80765-.19949.53844.13299.53843-.066497.26922.066497 1.6153-.79796.53844-.066497.80765-.19949.53844-.26599h.26922l.26922-.39898.26922-.13299.26922.066496.26922-.26599.26922-.066497.80765-1.5294.26922-.26599h.26922l.26922-.13299.53844-.46548.26922-.13299.26922-.46548 2.1537-1.7289.26922-.26599.26922-.46548 1.0769-.33248.26922.13299.26922-.066496.80765-.53197h.26922l.26922-.13299.26922.066496 1.8845-.39898.80765-.066497.53844-.13299.53844.066496 1.6153-.066496.26922-.066497.26922.066497.53844-.066497.53844.066497 1.6153-.066497.26922-.066496.53844.066496 1.0769-.066496 1.6153-.33248m.53844.19949.26922-.13299h.26922l.26922-.13299h2.9614l.53843-.26599.80765-.066496.26922-.066497.26922.066497.53844-.33248.26922.066496.53843-.066496.26922.066496.26922-.13299.53844.13299.26922-.13299.80765-.066496.53843-.26599.53844.26599.53844-.33248.80765-.26599.80765-.33248.26922-.33248.26922-.13299h.26922l.26922-.19949h.53844l.53844-.46548.53843.26599.26922-.26599.26922-.46548.53844-.26599h.26922l1.0769-.59847.53844-.46548.53844-.13299.26922-.46548.26922-.19949.26922-.59847.80765-.66497h.26922l.53844-.53197.80765-.26599.26922-.13299.53844-.39898.26922-.066497.26922-.26599.53844.066496.26922-.19949.53843.13299.26922-.26599h.53844l.26922-.19949.80765-.066497 1.0769-.13299.26922-.066497.26922.066497 1.0769-.53197 1.3461-.066497.26922-.066496.80765.13299 1.3461-.066497.26922-.066496.53844.13299.80765-.13299.26922.066496.26922-.066496.80765.13299h.53844l.26922-.26599 2.1537-.066496.80765-.13299.80765.13299 1.0769-.066497.26922-.19949.80765-.066496.80765-.33248 1.0769-.19949.53844-.066497 1.3461-.26599.80765-.066497.26922-.13299h.26922l.26922-.26599h.26922l.53844-.66497.53844-.33248.53844-.26599.80765-.19949.26922-.33248.26922-.13299h.26922l.80765-.33248h.26922l.26922-.26599.53844-.066496.53844-.66497.53844-.33248.53843-.39898 3.2306-2.2609.53844-.99745.53844-.39898.53844-.066496.26922-.46548h.26922l.53844-.26599.26922-.26599h.26922l.53844-.26599.26922-.39898.26922-.066496.53843-.33248.53844.066496.26922-.33248.53843-.19949 1.3461-.066496.26922.26599.53844.066497h.26922l.53844-.26599.53844-.066496 1.6153-.066497.53844-.066497.26922-.26599.80765-.066497.53844-.066496 5.3843-.066497.53844-.13299.26922.066497 1.6153-.46548.26922-.13299h.26922l.26922-.13299h.26922l.26922-.13299.80765.13299.53844-.066497h.53844l.53843-.19949.26922-.33248 1.0769-.46548h.53844l.53844-.26599.26922.066496.53844-.19949.26922.13299.26922-.13299.53844-.066496.53844-.39898.53843-.26599h.26922l.53844-.19949.26922.13299.53844-.19949.26922-.33248 1.3461-.59847.26922.066496.80765-.33248.26922.066497.26922-.19949h.26922l3.769-2.8594.53843-.93095.53844-.73146.53844-.066496 1.3461-1.1969.26922-.13299.26922-.26599.26922-.066496 1.3461-.86446.26922-.066497.53843-.33248 1.6153-.33248.26922.066496.53844-.066496.80765.13299 1.3461-.066497.53844-.066496 1.3461-.066497.53844-.066496.53844.066496.80765.066497.80765.13299.26922-.13299.53844.066496 1.0769.19949.26922-.13299.26922.13299.53843-.066496.26922-.26599 1.0769-.26599.53844.13299 1.0769-.39898h.26922l.26922-.13299.53843-.066496 1.6153-.33248.26922.066497.26922-.13299h.26922l.80765-.66497h.26922l1.3461-.59847 1.3461-.33248.26922-.33248.53844.066497.80765-.66497.26922-.19949.26922.066496.26922-.066496.26922-.26599.53843.46548.53844.19949 1.3461-.33248.26922-.33248.26922-.066496.53844-.46548h.26922l.53844-.26599.26922.066497.26922-.33248.26922-.13299.53844-.53197.26922-.46548.53844-.46548.26922-.46548.26922-.13299.53844-.66497h.26922l.53844-.59847.26922.066496.53844-.39898.26922-.66497.26922-.066497.26922-.46548.26922-.066497.26922-.26599.26922-.53197.53843-.33248.53844-.066497.53844-.59847.53844-.066497.53844-.39898.26922-.39898.26922-.066497 1.6153-1.1304.80765.066496.53844.19949.53844-.26599.80765.13299 1.6153-.066497 1.0769-.19949 1.8845-.066496.80765-.13299 1.8845-.066497 1.0769-.19949h.80765l.53844-.26599.26922.066496.26922-.066496.26922.066496.26922-.066496.53844.066496.53843-.066496.53844.066496.80765-.39898.53844-.066497.26922-.19949h.26922l.53844-.33248.53844-.19949.26922-.13299.53844.066497 1.3461-.33248.26922-.26599.53844-.13299.26922.066497.26922.26599.26922.066497.26922-.13299.26922.066497.80765-.59847.26922.13299.26922-.066497.53844-.39898.53844.066497h.26922l.26922-.26599.26922.066496.80765-.46548h.26922l.53844-.19949.26922.066497.26922-.066497.26922.066497 1.0769-.93095.80765-.73146.26922-.26599.26922-.066497.26922-.53197.26922.066497.26922-.39898.26922-.066496.26922-.39898.53844-.26599.53843-.59847h.26922l.26922-.46548.26922-.066497.53843-.53197.26922.13299 1.0769-.46548.53844.19949.53844-.19949 1.6153-.33248 1.0769-.066496 1.3461-.26599 1.0769-.13299 1.3461-.066497 1.6153-.33248h1.8845l.26922.13299h.53844l.53844.13299.26922-.13299h.53844l.26922-.13299.26922.066497 1.0769-.26599.53844.066496h.26922l.26922-.19949 2.423-.066496.80765-.39898 1.3461-.066497.53844-.19949.26922.13299.53844-.26599h.53844l.26922-.13299.80765.066497.53844.19949.53844-.066497.26922-.13299.53844.066496.26922-.13299.26922.066497 1.0769-.33248.53844-.39898.26922.19949.80765-.46548h.53844l.26922-.19949h.26922l.26922-.39898.26922.19949h.26922l.26922-.66497.80765-.46548 1.0769-.93095.26922-.53197.26922.13299.26922-.13299h.26922l1.0769-1.1304.26922.066496.53844-.46548.26922-.46548.26922.13299.80765-.46548.26922-.066497.26922-.33248.53844.066497.26922-.13299.26922-.26599.26922-.066497.26922-.33248.26922-.13299.26922.066497 1.8845-.86446 1.3461-.066497.80765-.13299h.80765l.26922-.13299 1.6153-.066497 1.0769-.26599.53844.066496h.26922l.26922-.13299 1.0769.066497.80765.13299 1.0769-.19949 1.0769-.13299 1.3461-.066497 1.0769-.19949.80765.066497 1.0769.19949h.26922l1.3461-.93095h2.423l.26922-.13299.26922.066497.53843-.13299.26922.066497.53844-.19949 1.0769-.19949.26922-.33248.53843-.19949.26922.066497.26922.19949h.26922l1.3461-.86446.26922.13299.80765-.46548.26922-.19949h.26922l1.0769-1.0639.53843-.13299.80765-.93095.26922-.33248.80765-.46548.53844-.66497.26922-.13299.26922-.53197.53844-.26599.53843-.19949.26922.13299.26922-.26599.53844-.19949.26922-.19949.26922.13299.26922-.26599h.26922l.26922-.13299.80765-.86446 1.3461.066497.26922-.19949 1.0769-.066497.80765-.13299.80765.13299 2.1537-.066496.80765-.13299h3.4998l.26922-.26599 1.3461-.066496 1.3461-.26599 1.8845-.066496.53844-.19949.26922.066496 1.0769-.13299 1.3461-.39898.26922-.13299.26922-.33248.53844-.19949.80765-.39898.26922.066496.26922-.19949.26922.13299h.26922l.26922-.19949h.53844l.53844-.33248.26922.066496.26922-.13299.26922.13299 1.0769-.46548.26922.066497 1.8845-.53197.26922.13299.53844-.13299.53844-.26599h.80765l1.3461-.59847.26922-.066497.26922-.39898 1.6153-1.1969.26922.066496.26922-.066496 1.3461-1.0639.26922-.53197 1.0769-.46548.26922-.39898.26922-.13299.26922-.53197 1.3461-.99745h.26922l.26922.19949.53844-.19949.26922-.19949h.26922l.26922.13299 1.0769-.33248.80765-.39898.26922.066497 1.0769-.19949 1.8845-.066497.53844-.066496 3.2306.066496.26922.13299 1.0769-.13299 2.6922.066497 1.6153.19949.80765-.26599.53844-.19949 1.0769-.19949.53844.13299.26922-.066497.26922.13299.26922-.066497.26922-.19949.26922.19949h.80765l.26922-.19949.26922.066497.53843-.33248.26922.13299.26922-.26599.26922.19949 1.3461-.066496m1.0769 0 .80765-.13299.53844-.33248.26922-.33248.53843-.066496h.26922l.53844-.39898.53843.13299.53844-.33248.26922.13299.26922-.33248.26922.19949.26922-.066496.80765-.99745.26922-.066497.26922-.26599.26922.066497.26922-.13299.26922-.59847 1.3461-1.4629.26922-.39898.26922-.066496.80765-.66497.26922-.19949.26922-.39898h.26922l.26922-.59847.53843-.59847h.53844l.26922-.13299.26922-.26599.26922.066497.26922-.066497.53844-.33248h.26922l1.0769-.66497.80765-.33248.26922.066497 1.3461-.26599.53844-.066496 1.0769-.19949.53843.13299 1.0769-.19949.26922.13299 2.423.066497.26922.13299 1.3461-.066496.80765-.13299.53843.13299.53844-.066497.26922.066497.80765-.26599.26922-.13299.53844-.066497.26922-.19949.53844-.066497.26922-.066497.53843.066497h.80765l.53843-.26599 1.0769-.066496.80765-.33248h.26922l.53843-.26599 1.3461-.39898.53844.19949.53844-.19949.53844.26599.80765-.33248.53844-.13299.26922-.19949 1.0769.066497.80765-.53197h.26922l.53844-.53197h.53844l.26922-.26599h.26922l.26922-.19949.26922.13299.26922-.19949.26922-.39898.53844-.19949.53844-.53197 1.8845-1.7954.26922-.066497.26922-.86446.53843-.73146.26922-.53197 1.0769-.53197 1.0769-.99745.80765-.33248.26922.066496.80765-.33248.26922-.53197 1.0769-.53197.26922-.46548.53844-.26599h.26922l.26922-.13299.26922.13299.26922-.13299.53843.066496h.26922l.53844-.26599 2.9614-.066497.53844-.066496.80765.066496.26922.13299h3.2306v0" clip-path="url(#c)" fill="none" stroke="#28f" stroke-linecap="square" stroke-width="1.5"/>
   </g>
   <g id="gj">
    <path d="m52 523.06v-232.9" fill="none" stroke="#000" stroke-linecap="square" stroke-width=".8"/>
   </g>
   <g id="gk">
    <path d="m853.2 523.06v-232.9" fill="none" stroke="#000" stroke-linecap="square" stroke-width=".8"/>
   </g>
   <g id="gl">
    <path d="m52 523.06h801.2" fill="none" stroke="#000" stroke-linecap="square" stroke-width=".8"/>
   </g>
   <g id="gm">
    <path d="m52 290.16h801.2" fill="none" stroke="#000" stroke-linecap="square" stroke-width=".8"/>
   </g>
   <g id="gn">
    <!-- サーバー数の推移 -->
    <g transform="translate(404.6 284.16) scale(.12 -.12)">
     <defs>
      <path id="z" transform="scale(.015625)" d="m4685 2893q0-621-84-1111-83-489-288-877-204-387-569-691t-928-560l-544 512q448 167 781 371 333 205 550 503 218 298 323 739 106 442 106 1075v1620q0 192-10 339-9 147-22 217h723q-6-70-22-217t-16-339v-1581zm-2304 2086q-7-64-23-199-16-134-16-313v-2317q0-128 6-256 7-128 13-224 7-96 13-140h-710q6 44 12 140 7 96 13 221 7 125 7 259v2317q0 122-10 256-9 135-28 256h723zm-1978-1197q45-12 144-22t237-20q138-9 285-9h4217q237 0 394 13t246 26v-679q-76 7-240 13-163 6-393 6h-4224q-147 0-282-3-134-3-234-10-99-6-150-12v697z"/>
      <path id="s" transform="scale(.015625)" d="m621 2854q109-6 265-16 157-9 339-16 183-6 349-6 128 0 352 0t509 0 598 0q314 0 624 0 311 0 586 0t486 0q212 0 327 0 230 0 416 16t301 22v-793q-109 6-308 19-198 13-409 13-109 0-324 0-214 0-489 0t-586 0q-310 0-624 0-313 0-598 0t-509 0-352 0q-262 0-525-10-262-9-428-22v793z"/>
      <path id="y" transform="scale(.015625)" d="m4941 5037q83-109 176-269t182-320q90-160 154-288l-416-179q-96 192-240 448t-272 435l416 173zm723 275q83-122 182-282 100-160 196-317 96-156 153-271l-416-186q-102 205-246 454-144 250-279 429l410 173zm-4339-3360q102 262 201 556 100 295 183 612t144 630q61 314 93 602l723-147q-19-83-45-183-26-99-48-195t-42-166q-32-154-86-394t-131-512-164-551q-86-278-182-514-115-301-269-618-153-317-326-618-173-300-346-550l-697 294q301 397 563 874t429 880zm3155 198q-96 250-215 531-118 282-243 567-124 285-246 534-122 250-224 429l659 218q96-179 221-429t253-535q128-284 249-566 122-281 218-525 90-230 195-518 106-288 211-592 106-304 195-589 90-285 154-515l-729-237q-84 352-199 736t-240 768-259 723z"/>
     </defs>
     <use xlink:href="#z"/>
     <use transform="translate(100)" xlink:href="#s"/>
     <use transform="translate(200)" xlink:href="#y"/>
     <use transform="translate(300)" xlink:href="#s"/>
     <use transform="translate(400)" xlink:href="#q"/>
     <use transform="translate(500)" xlink:href="#t"/>
     <use transform="translate(600)" xlink:href="#r"/>
     <use transform="translate(700)" xlink:href="#p"/>
    </g>
   </g>
  </g>
 </g>
 <defs>
  <clipPath id="d">
   <rect x="52" y="26.88" width="801.2" height="232.9"/>
  </clipPath>
  <clipPath id="c">
   <rect x="52" y="290.16" width="801.2" height="232.9"/>
  </clipPath>
 </defs>
</svg>
