<!DOCTYPE svg  PUBLIC '-//W3C//DTD SVG 1.1//EN'  'http://www.w3.org/Graphics/SVG/1.1/DTD/svg11.dtd'>
<svg version="1.1" viewBox="0 0 864 576" xmlns="http://www.w3.org/2000/svg" xmlns:xlink="http://www.w3.org/1999/xlink">
 <defs>
  <style type="text/css">*{stroke-linejoin: round; stroke-linecap: butt}</style>
 </defs>
 <g id="aa">
  <g id="ab">
   <path d="m0 576h864v-576h-864z" fill="#fff"/>
  </g>
  <g id="ac">
   <g id="ad">
    <path d="m52 259.78h801.2v-232.9h-801.2z" fill="#fff"/>
   </g>
   <g id="ae">
    <path d="m131.49 259.78h.7739v-232.9h-.7739z" clip-path="url(#c)" fill="#808080" opacity=".3" stroke="#808080"/>
   </g>
   <g id="af">
    <path d="m416.42 259.78h.51593v-232.9h-.51593z" clip-path="url(#c)" fill="#808080" opacity=".3" stroke="#808080"/>
   </g>
   <g id="ag">
    <path d="m723.4 259.78h1.0319v-232.9h-1.0319z" clip-path="url(#c)" fill="#808080" opacity=".3" stroke="#808080"/>
   </g>
   <g id="ah">
    <g id="ai">
     <g id="aj">
      <path d="m104.02 259.78v-232.9" clip-path="url(#c)" fill="none" stroke="#b0b0b0" stroke-linecap="square" stroke-opacity=".3" stroke-width=".8"/>
     </g>
     <g id="ak">
      <defs>
       <path id="g" d="m0 0v3.5" stroke="#000" stroke-width=".8"/>
      </defs>
      <use x="104.021266" y="259.777732" stroke="#000000" stroke-width=".8" xlink:href="#g"/>
     </g>
    </g>
    <g id="al">
     <g id="am">
      <path d="m252.61 259.78v-232.9" clip-path="url(#c)" fill="none" stroke="#b0b0b0" stroke-linecap="square" stroke-opacity=".3" stroke-width=".8"/>
     </g>
     <g id="an">
      <use x="252.609785" y="259.777732" stroke="#000000" stroke-width=".8" xlink:href="#g"/>
     </g>
    </g>
    <g id="ao">
     <g id="ap">
      <path d="m401.2 259.78v-232.9" clip-path="url(#c)" fill="none" stroke="#b0b0b0" stroke-linecap="square" stroke-opacity=".3" stroke-width=".8"/>
     </g>
     <g id="aq">
      <use x="401.198304" y="259.777732" stroke="#000000" stroke-width=".8" xlink:href="#g"/>
     </g>
    </g>
    <g id="ar">
     <g id="as">
      <path d="m549.79 259.78v-232.9" clip-path="url(#c)" fill="none" stroke="#b0b0b0" stroke-linecap="square" stroke-opacity=".3" stroke-width=".8"/>
     </g>
     <g id="at">
      <use x="549.786823" y="259.777732" stroke="#000000" stroke-width=".8" xlink:href="#g"/>
     </g>
    </g>
    <g id="au">
     <g id="av">
      <path d="m698.38 259.78v-232.9" clip-path="url(#c)" fill="none" stroke="#b0b0b0" stroke-linecap="square" stroke-opacity=".3" stroke-width=".8"/>
     </g>
     <g id="aw">
      <use x="698.375342" y="259.777732" stroke="#000000" stroke-width=".8" xlink:href="#g"/>
     </g>
    </g>
    <g id="ax">
     <g id="ay">
      <path d="m846.96 259.78v-232.9" clip-path="url(#c)" fill="none" stroke="#b0b0b0" stroke-linecap="square" stroke-opacity=".3" stroke-width=".8"/>
     </g>
     <g id="az">
      <use x="846.963861" y="259.777732" stroke="#000000" stroke-width=".8" xlink:href="#g"/>
     </g>
    </g>
   </g>
   <g id="ba">
    <g id="bb">
     <g id="bc">
      <path d="m52 246.93h801.2" clip-path="url(#c)" fill="none" stroke="#b0b0b0" stroke-linecap="square" stroke-opacity=".3" stroke-width=".8"/>
     </g>
     <g id="bd">
      <defs>
       <path id="e" d="m0 0h-3.5" stroke="#000" stroke-width=".8"/>
      </defs>
      <use x="52" y="246.926099" stroke="#000000" stroke-width=".8" xlink:href="#e"/>
     </g>
     <g id="be">
      <!-- 300 -->
      <g transform="translate(27.9 250.91) scale(.1 -.1)">
       <defs>
        <path id="r" transform="scale(.015625)" d="m1715-90q-371 0-656 90t-503 240q-217 150-377 323l359 474q211-205 479-359 269-153 634-153 269 0 467 92 199 93 311 266t112 423q0 256-125 451t-429 300q-304 106-835 106v551q467 0 732 105 266 106 384 291 119 186 119 423 0 307-192 489-192 183-531 183-269 0-503-119-233-118-438-316l-384 460q282 256 614 413 333 157 737 157 422 0 748-144 327-144 512-413 186-269 186-659 0-403-221-685-221-281-592-422v-26q269-70 490-227t349-400 128-557q0-422-215-726-214-304-573-468-358-163-787-163z"/>
        <path id="a" transform="scale(.015625)" d="m1830-90q-460 0-806 275-346 276-535 823-188 547-188 1366 0 820 188 1357 189 538 535 803 346 266 806 266 461 0 800-269 340-269 528-803 189-534 189-1354 0-819-189-1366-188-547-528-823-339-275-800-275zm0 589q237 0 422 185 186 186 288 599 103 413 103 1091 0 679-103 1082-102 403-288 582-185 180-422 180-236 0-422-180-186-179-292-582-105-403-105-1082 0-678 105-1091 106-413 292-599 186-185 422-185z"/>
       </defs>
       <use xlink:href="#r"/>
       <use transform="translate(57)" xlink:href="#a"/>
       <use transform="translate(114)" xlink:href="#a"/>
      </g>
     </g>
    </g>
    <g id="bf">
     <g id="bg">
      <path d="m52 220.79h801.2" clip-path="url(#c)" fill="none" stroke="#b0b0b0" stroke-linecap="square" stroke-opacity=".3" stroke-width=".8"/>
     </g>
     <g id="bh">
      <use x="52" y="220.787184" stroke="#000000" stroke-width=".8" xlink:href="#e"/>
     </g>
     <g id="bi">
      <!-- 600 -->
      <g transform="translate(27.9 224.77) scale(.1 -.1)">
       <defs>
        <path id="k" transform="scale(.015625)" d="m1971-90q-339 0-634 144-294 144-518 435-224 292-352 733-128 442-128 1044 0 678 147 1161 148 483 397 784 250 301 570 445t665 144q397 0 688-147 292-147 490-359l-403-448q-128 154-327 253-198 99-409 99-307 0-567-182-259-182-413-605-153-422-153-1145 0-608 115-1002t326-589q212-195 493-195 212 0 375 121 163 122 259 343t96 522q0 300-90 511-89 212-259 320-169 109-419 109-211 0-451-134t-458-461l-25 538q134 192 313 323t374 201q196 71 375 71 397 0 694-163 298-163 467-490 170-326 170-825 0-468-195-817-195-348-512-544-317-195-701-195z"/>
       </defs>
       <use xlink:href="#k"/>
       <use transform="translate(57)" xlink:href="#a"/>
       <use transform="translate(114)" xlink:href="#a"/>
      </g>
     </g>
    </g>
    <g id="bj">
     <g id="bk">
      <path d="m52 194.65h801.2" clip-path="url(#c)" fill="none" stroke="#b0b0b0" stroke-linecap="square" stroke-opacity=".3" stroke-width=".8"/>
     </g>
     <g id="bl">
      <use x="52" y="194.648269" stroke="#000000" stroke-width=".8" xlink:href="#e"/>
     </g>
     <g id="bm">
      <!-- 900 -->
      <g transform="translate(27.9 198.63) scale(.1 -.1)">
       <defs>
        <path id="q" transform="scale(.015625)" d="m1562-90q-410 0-708 150-297 151-502 356l403 461q141-160 346-256t422-96q224 0 425 102 202 103 352 333 151 230 237 614 87 384 87 941 0 589-115 970t-323 563-496 182q-205 0-372-118-166-118-262-336t-96-525q0-301 86-512 87-211 259-323 173-112 417-112 224 0 460 141 237 141 448 461l32-544q-134-180-313-314t-371-208-384-74q-391 0-689 166-297 167-467 496-169 330-169 823 0 467 195 816t515 541 698 192q339 0 636-138 298-137 519-419 221-281 349-710t128-1018q0-691-141-1187t-391-807q-249-310-563-461-313-150-652-150z"/>
       </defs>
       <use xlink:href="#q"/>
       <use transform="translate(57)" xlink:href="#a"/>
       <use transform="translate(114)" xlink:href="#a"/>
      </g>
     </g>
    </g>
    <g id="bn">
     <g id="bo">
      <path d="m52 168.51h801.2" clip-path="url(#c)" fill="none" stroke="#b0b0b0" stroke-linecap="square" stroke-opacity=".3" stroke-width=".8"/>
     </g>
     <g id="bp">
      <use x="52" y="168.509354" stroke="#000000" stroke-width=".8" xlink:href="#e"/>
     </g>
     <g id="bq">
      <!-- 1200 -->
      <g transform="translate(22.2 172.49) scale(.1 -.1)">
       <defs>
        <path id="f" transform="scale(.015625)" d="m544 0v608h1037v3277h-845v467q333 58 579 147 247 90 451 218h557v-4109h915v-608h-2694z"/>
        <path id="d" transform="scale(.015625)" d="m282 0v429q697 621 1164 1136 468 515 701 956 234 442 234 826 0 256-87 451-86 196-262 301-176 106-445 106-275 0-506-151-230-150-422-368l-416 410q301 333 637 518 336 186 803 186 429 0 749-176t496-493 176-745q0-455-224-919t-615-935q-390-470-889-950 186 20 394 36t374 16h1184v-634h-3046z"/>
       </defs>
       <use xlink:href="#f"/>
       <use transform="translate(57)" xlink:href="#d"/>
       <use transform="translate(114)" xlink:href="#a"/>
       <use transform="translate(171)" xlink:href="#a"/>
      </g>
     </g>
    </g>
    <g id="br">
     <g id="bs">
      <path d="m52 142.37h801.2" clip-path="url(#c)" fill="none" stroke="#b0b0b0" stroke-linecap="square" stroke-opacity=".3" stroke-width=".8"/>
     </g>
     <g id="bt">
      <use x="52" y="142.370439" stroke="#000000" stroke-width=".8" xlink:href="#e"/>
     </g>
     <g id="bu">
      <!-- 1500 -->
      <g transform="translate(22.2 146.36) scale(.1 -.1)">
       <defs>
        <path id="j" transform="scale(.015625)" d="m1715-90q-365 0-653 90t-506 237q-217 147-383 307l352 480q134-134 294-246t361-183q202-70 452-70 262 0 473 118 212 119 333 346 122 227 122 541 0 460-247 716-246 256-649 256-224 0-384-64t-365-198l-365 237 141 2240h2387v-627h-1747l-109-1204q154 77 307 118 154 42 340 42 397 0 723-160t518-490q192-329 192-847 0-519-224-887t-586-560q-361-192-777-192z"/>
       </defs>
       <use xlink:href="#f"/>
       <use transform="translate(57)" xlink:href="#j"/>
       <use transform="translate(114)" xlink:href="#a"/>
       <use transform="translate(171)" xlink:href="#a"/>
      </g>
     </g>
    </g>
    <g id="bv">
     <g id="bw">
      <path d="m52 116.23h801.2" clip-path="url(#c)" fill="none" stroke="#b0b0b0" stroke-linecap="square" stroke-opacity=".3" stroke-width=".8"/>
     </g>
     <g id="bx">
      <use x="52" y="116.231524" stroke="#000000" stroke-width=".8" xlink:href="#e"/>
     </g>
     <g id="by">
      <!-- 1800 -->
      <g transform="translate(22.2 120.22) scale(.1 -.1)">
       <defs>
        <path id="l" transform="scale(.015625)" d="m1830-90q-441 0-787 163-345 164-547 448-202 285-202 650 0 314 122 557t314 419 403 291v32q-256 186-442 458-185 272-185 643 0 365 176 640t480 425q304 151 694 151 410 0 704-160t457-439q164-278 164-649 0-237-96-448t-234-381q-137-169-291-278v-32q218-115 397-285 179-169 288-406t109-557q0-346-189-628-189-281-532-448-342-166-803-166zm314 2708q205 198 310 419 106 221 106 464 0 211-83 384t-247 272q-163 99-393 99-288 0-480-183-192-182-192-502 0-256 134-429 135-172 359-294t486-230zm-294-2170q236 0 418 89 183 90 285 253 103 164 103 388 0 211-90 367-89 157-246 272-157 116-368 215t-454 195q-244-173-398-426-153-252-153-553 0-237 118-416 119-179 324-282 205-102 461-102z"/>
       </defs>
       <use xlink:href="#f"/>
       <use transform="translate(57)" xlink:href="#l"/>
       <use transform="translate(114)" xlink:href="#a"/>
       <use transform="translate(171)" xlink:href="#a"/>
      </g>
     </g>
    </g>
    <g id="bz">
     <g id="ca">
      <path d="m52 90.093h801.2" clip-path="url(#c)" fill="none" stroke="#b0b0b0" stroke-linecap="square" stroke-opacity=".3" stroke-width=".8"/>
     </g>
     <g id="cb">
      <use x="52" y="90.092609" stroke="#000000" stroke-width=".8" xlink:href="#e"/>
     </g>
     <g id="cc">
      <!-- 2100 -->
      <g transform="translate(22.2 94.078) scale(.1 -.1)">
       <use xlink:href="#d"/>
       <use transform="translate(57)" xlink:href="#f"/>
       <use transform="translate(114)" xlink:href="#a"/>
       <use transform="translate(171)" xlink:href="#a"/>
      </g>
     </g>
    </g>
    <g id="cd">
     <g id="ce">
      <path d="m52 63.954h801.2" clip-path="url(#c)" fill="none" stroke="#b0b0b0" stroke-linecap="square" stroke-opacity=".3" stroke-width=".8"/>
     </g>
     <g id="cf">
      <use x="52" y="63.953694" stroke="#000000" stroke-width=".8" xlink:href="#e"/>
     </g>
     <g id="cg">
      <!-- 2400 -->
      <g transform="translate(22.2 67.939) scale(.1 -.1)">
       <defs>
        <path id="m" transform="scale(.015625)" d="m2170 0v3072q0 192 12 457 13 266 20 458h-26q-90-179-183-365-92-185-195-364l-921-1415h2579v-576h-3328v493l1875 2957h858v-4717h-691z"/>
       </defs>
       <use xlink:href="#d"/>
       <use transform="translate(57)" xlink:href="#m"/>
       <use transform="translate(114)" xlink:href="#a"/>
       <use transform="translate(171)" xlink:href="#a"/>
      </g>
     </g>
    </g>
    <g id="ch">
     <g id="ci">
      <path d="m52 37.815h801.2" clip-path="url(#c)" fill="none" stroke="#b0b0b0" stroke-linecap="square" stroke-opacity=".3" stroke-width=".8"/>
     </g>
     <g id="cj">
      <use x="52" y="37.814779" stroke="#000000" stroke-width=".8" xlink:href="#e"/>
     </g>
     <g id="ck">
      <!-- 2700 -->
      <g transform="translate(22.2 41.8) scale(.1 -.1)">
       <defs>
        <path id="i" transform="scale(.015625)" d="m1235 0q32 646 109 1187t224 1024 384 941 576 938h-2208v627h3027v-455q-409-512-665-989-256-476-397-969t-205-1053-90-1251h-755z"/>
       </defs>
       <use xlink:href="#d"/>
       <use transform="translate(57)" xlink:href="#i"/>
       <use transform="translate(114)" xlink:href="#a"/>
       <use transform="translate(171)" xlink:href="#a"/>
      </g>
     </g>
    </g>
   </g>
   <g id="cl">
    <path d="m88.418 222.44.07352.17426.064922-.34852.26828.34852.13672-.08713.36502-.8713.77433-3.2238.78723-5.1407.38523-1.3069.38781-.17426.36459-1.6555.38695-1.2198.38695-2.0911.38695-2.7882.38695-.60991 1.1608-8.8872 1.5478-10.281.38695-1.3941.38695-.78417.38695-2.004.38695-5.3149 1.5478-35.375.7739-21.173 1.5478-48.793.38695-5.3149.38695-2.3525.38695-.78417.38695 2.6139.38695 1.5683 1.9347 43.565.7739 21.608.7739 19.778 1.1608 23.874 1.1608 17.339 1.1608 14.464.38695 2.701.38695 3.9208.38695 2.7882.38695 3.6594.38695 1.9169.38695 3.2238 1.9347 10.543.38695 3.4852.38695 1.1327.38695 1.7426.7739 1.6555.38695 1.1327.38695.26139.38695 1.3069.38695.52278.7739.26139.7739-.43565 1.1608-2.8753.38695-.26139.38695-.95843.38695-.43565.7739-3.3981.7739-3.9208.38695.26139.38695-.17426.38695-2.7882.38695-1.5683.38695-.78417.7739-2.7882.38695-3.1367.38695-1.7426.38695-.60991 1.1608-4.2694.38695-3.9208.38695-2.4396.38695-3.6594 1.1608-7.8417.38695-1.3941m.7739 19.517.38695-12.285.38695-2.3525.38695-1.3941 1.1608-13.418.38695-6.012.7739-18.21.7739-22.654.38695-16.293 1.1608-31.105.7739-14.725.38695-3.7466.38695.43565.38695-1.2198.38695 1.7426.7739 8.8001.7739 21.173.38695 6.9704 1.1608 28.404.7739 14.725.7739 16.555 2.3217 32.064 1.1608 12.547 2.3217 12.808.7739 5.7506.7739 3.1367.38695.43565.38695.8713.38695 1.3069.38695.60991 1.1608 4.5307.38695-.43565.38695.34852h.38695l.38695.52278.38695-1.3069.38695.17426.38695-.34852.38695-.52278.38695-.26139.38695-.60991.38695.08713.38695-.52278.7739-3.5723.38695-.8713 1.5478-6.2733.38695-1.0456.38695-2.2654.38695-1.2198.38695-2.701.38695-1.0456.38695-3.2238.38695-1.6555.38695-3.3109.38695-.95843.7739-2.701.38695-2.2654.38695-1.3941.7739-6.012.38695-1.8297.38695-.43565.38695-3.1367.38695-1.1327.38695-2.3525 1.1608-4.5307 1.1608-18.733 1.1608-27.62.38695-13.766 1.9347-43.129.38695-5.8377.7739-4.4436.38695 1.0456.38695 3.7466.7739 17.6 1.1608 28.23.7739 19.43 1.1608 21.521.7739 11.763 1.5478 23.961 1.1608 13.418 1.5478 12.547 2.7086 14.115.38695 1.1327.38695.69704.38695 1.1327.38695.60991h.38695l.51593.26139.51593.8713.12898-.08713.25797-.52278.51593.52278.12898.08713.25797-.60991.12898-.52278.12898.17426.25797-.95843h.12898l.12898.17426.12898-.17426.12898.087129.12898-.43565.12898.34852.38695-1.2198.12898.17426.12898-.08713.12898-.43565.12898.08713.25797-.78417.12898-.17426.25797-.8713.12898-.08713.25797-.52278.12898-.08713.25797-1.3941.12898.08713.25797-.43565.12898.08713.51593-1.2198.38695-2.701h.12898l.51593-2.3525.25797-1.0456.12898-.52278h.12898l1.0319-4.3565.12898-1.0456.12898-.087129.90288-5.5763.38695-1.2198.25797-.69704.12898.17426.25797-2.0911.12898-.34852.25797-1.3941.12898-.34852.38695-3.0495.38695-.8713.25797-1.7426.12898-.087129.12898.17426.12898-.08713.38695-1.9169.25797-.95843.12898-1.6555.12898.26139 1.1608-7.406h.12898l.12898-.17426.25797-1.2198.12898.69704.12898-1.0456.12898.26139 1.1608-10.281.90288-17.774 1.8058-52.888.12898-1.7426.90288-23.874.38695-4.1822.25797-3.7466.12898.43565.51593-2.8753.12898-.34852.12898-1.0456.12898-.087129.25797.8713 1.1608 22.915.25797 4.7921.12898.78417.51593 12.547.38695 9.5843 1.0319 20.737.25797 5.2278 2.0637 37.03.38695 4.6179.64492 5.7506.51593 6.4476 1.0319 8.2773.25797 1.7426.25797 1.5683.38695 2.004.51593 2.7882.38695 3.0495.38695 2.701.25797 2.3525.51593 2.4396.12898 1.6555.25797.43565.51593 2.9624.25797.69704.12898.17426.12898.60991.12898-.26139 1.0319 3.8337.38695.52278.12898-.08713.12898.43565.25797.08713.12898.26139.25797-.17426.12898.43565.12898-.34852.38695.34852.25797-.60991.12898-.43565.25797.17426.25797-.43565.51593-1.5683.25797-.69704.25797.26139.25797-.26139.51593-.95843.25797.43565.25797-1.2198.51593-3.2238.25797-1.3941.25797-.26139.25797-.95843.51593-.34852.51593-2.0911.25797-.08713.51593-3.3109.25797-.26139.25797-.78417h.25797l.25797-1.1327.25797-2.1782.7739-3.2238.51593-2.9624.25797-2.2654.25797-.52278.51593-2.0911.51593-3.7466.25797.087129.51593-1.4812.51593-4.008.7739-5.8377.25797-1.1327.25797-1.7426h.25797l.51593-3.1367.25797-.69704 1.2898-5.7506.7739-11.24.7739-17.426 2.0637-66.219.51593-11.763.51593-9.9328.51593-7.7545.7739-5.5763h.25797l.25797 1.1327.25797 1.7426.7739 7.406.7739 16.206.25797-3.1367.51593 14.376.51593 10.63 1.8058 40.08 1.8058 35.985.51593 8.713.51593 7.8417.7739 7.5803.7739 6.0991.25797 2.8753.51593 2.9624.25797 2.5268.25797 1.1327.51593 3.8337.25797.8713.25797-.17426.25797.087129.25797.43565.7739 2.9624.25797-1.1327.25797-.43565.25797.60991.25797-.26139.25797.69704.25797-.34852.51593.26139.51593-2.2654.51593.087129.25797-1.5683.25797-.8713.25797-1.3941.25797.34852.25797-1.3069.25797-.60991 1.5478-6.5347.51593-3.6594.51593-2.1782.51593-5.0535.51593-6.012.25797-.8713 1.2898-11.153.25797-1.3941.51593-3.5723.25797-.43565.25797-2.4396.51593-2.4396.25797-1.7426.25797-.60991.25797.34852.25797-.69704.25797-1.6555.25797-.78417.51593-2.1782.25797-.34852.25797.26139.25797-.26139.25797.69704.25797 2.2654.25797-.08713.25797.17426.25797-.34852.25797-.60991.25797.69704.25797-.08713.25797-.26139.25797-1.3941h.51593l.25797-2.8753 1.0319-17.339.7739-20.737.25797-12.198 1.0319-25.703.7739-20.388.51593-9.9328.25797-7.1446.25797-3.3109.25797-.60991.51593-4.0951.25797-.34852.25797.52278.25797 1.4812.25797.52278.25797 3.5723.51593 2.9624.51593 7.0575.51593 12.634.51593 7.0575.51593 11.065.7739 20.824 2.8376 58.9 1.8058 26.487.7739 5.5763 1.0319 9.41.25797 1.5683.25797 3.0495 1.0319 4.8793.51593 1.6555.25797 2.004.25797-.087129.25797.52278.51593 1.3941.25797.26139.25797.52278.51593-.34852.51593-1.0456.25797-1.3069.51593.087129.25797-1.1327.25797-1.6555.51593-1.1327.25797.17426.25797-2.004.25797-1.0456.25797-1.9169.25797-.34852.25797-2.6139.25797-1.0456.25797-.34852.7739-3.0495.25797-3.3109.51593-9.1486.25797-2.4396 1.0319-13.941.7739-5.9248.7739-2.6139.25797-1.3941.25797-3.0495.7739-5.1407.51593-3.7466.25797-.43565.25797-1.2198h.25797l.25797-1.2198.25797.78417.25797-1.7426.25797.34852.25797.78417.25797 1.2198.7739 1.7426.25797-.26139.25797 2.6139 1.2898 3.9208.25797-.43565.25797-1.2198 1.0319-14.464.7739-18.994.51593-13.069 1.5478-33.893 1.0319-10.368.25797 1.9169.25797.78417.25797.26139.25797 1.1327.51593 5.402.7739 20.388.25797 4.3565 1.0319 26.139.25797 2.9624.25797 6.7961.25797 3.6594.7739 18.036 1.0319 18.297.51593 9.0615.25797 3.5723.25797 1.2198.7739 10.456 1.0319 7.5803.25797 1.4812 1.0319 9.8457.25797 1.3941.51593 1.4812.25797 2.6139.25797 1.2198.51593 3.1367 2.0637 7.5803.25797-.17426.25797.69704.25797.26139.25797.52278.25797.08713.25797-.08713.25797-.43565.25797-.08713.25797.43565.25797-.60991.25797-.08713.25797-.26139.25797.17426.25797.43565h.25797l.51593-.8713.25797.43565.25797-.78417.25797-.08713.25797-1.0456.25797.17426.25797-.08713.25797-1.5683.25797-.69704.25797-1.3941.51593-1.0456.51593-1.6555.51593-4.2694.25797-.34852.7739-3.6594.25797-.52278.7739-3.1367.25797-.78417.25797-.087129.51593-2.2654.25797-.52278.25797-1.2198.25797-1.8297.51593-1.9169.25797-2.8753.7739-2.6139.25797-.34852.25797-1.0456.25797-.08713 1.8058-11.065.25797-.78417.25797-.17426.7739-4.9664.51593-6.3605.25797-4.008.7739-15.248.51593-10.107 1.5478-42.258.51593-9.9328.25797-7.406.51593-6.2733.51593-5.6634.7739-2.4396.51593 3.3981.51593 8.2773.51593 12.982.7739 16.468.7739 21.608 1.2898 25.442.51593 7.5803.51593 8.4516 2.0637 24.832.7739 5.4892 1.0319 6.709.51593 2.701.25797.69704 2.5797 12.721h.25797l.25797.43565.25797 1.4812.25797-.26139.25797.95843.25797.08713.25797 1.3941.51593.34852.51593.52278.25797.17426.7739-.52278.25797-.78417.25797-.26139.25797-.69704.51593.34852.25797-.17426.25797.26139.51593.08713.25797-.08713.25797.60991.25797-.34852.7739-3.8337.51593-1.2198.51593-1.6555.25797-1.2198.25797-.43565.7739-2.7882.25797-2.6139.7739-3.8337.51593-2.1782.51593-2.0911.7739-4.4436.25797-.26139h.25797l.25797-.69704.25797-1.2198.25797-1.8297.25797-.95843 1.5478-8.1902.25797.17426.51593-3.3981.25797-1.4812.51593-4.008h.25797l.51593-2.6139.25797-2.0911.25797-.60991.25797-2.0911.51593-11.763.51593-10.368.25797-6.2733 1.2898-42.345.51593-11.588.25797-8.6258.51593-6.6219.51593-5.8377.25797-2.7882.25797-.17426.51593-1.3069.25797 1.2198.25797 2.5268.7739 13.854.25797 3.5723 2.3217 52.539 1.2898 26.139 1.5478 21.173.51593 6.7961.25797 1.8297.7739 7.0575.25797 1.3941 1.0319 8.3645.25797 1.1327.7739 5.2278 1.0319 3.6594.25797 1.7426 1.0319 2.7882.25797.52278 1.0319 3.8337.25797.34852.25797.69704.25797-.26139.25797.17426.7739-1.0456m.51593 2.4396.25797 1.3941.25797-.08713.25797.26139.51593-1.5683.25797-.08713.25797-.52278.25797.17426.25797-.8713.25797.087129.51593-2.5268.25797-.78417h.25797l.25797-.8713.25797-2.0911.25797-.26139.25797-.95843.25797-1.4812.25797-.34852 1.0319-4.8793.51593-2.9624.25797-1.0456.25797.17426.25797-1.1327.25797-2.6139.7739-4.4436.51593-4.008.25797-2.1782.51593-2.2654.51593-2.5268.25797-.34852.25797-.69704.25797-1.1327.25797.087129.51593-2.7882.25797.08713 1.0319-9.41.51593.17426.25797-2.4396.25797-1.3069.25797-3.3981.25797-1.6555.25797-2.5268 1.2898-22.305.25797-5.7506 1.2898-40.515.7739-20.563.7739-13.331.25797-2.2654.25797-5.2278.25797-.52278.51593.78417.25797 1.8297.51593 5.8377.51593 12.547 1.0319 23.612.7739 21.957.25797 5.3149.25797 2.9624 2.5797 47.311 1.0319 9.2358 2.3217 18.907.25797.69704.7739 4.8793.25797.60991 1.0319 6.3605.7739 2.8753 1.2898 3.3109.7739 3.3981.51593.60991.25797-.43565.25797-.78417.25797-.34852.25797.52278.25797-.8713.25797.087129.25797.69704.25797-.52278.25797.43565.7739-1.4812.7739-2.5268.25797-.52278.51593-2.1782.25797-.69704.51593-2.7882.25797.26139.25797-1.5683.25797-.52278.7739-3.1367.25797-.52278.51593-2.004.25797-2.0911.25797-.43565 1.0319-5.1407.25797-.78417 1.0319-4.9664.51593-2.004.7739-3.5723.25797-.8713.25797-2.4396.25797-.34852.25797-1.2198.25797-2.701.7739-3.6594.25797-.43565.25797-.17426.25797-1.1327.51593-6.2733.7739-8.5387 2.8376-62.298 1.0319-29.188.7739-16.119.25797-2.7882.25797-.34852.25797-5.1407.25797-2.1782.25797-.08713.51593 2.3525.25797 5.0535.51593 15.248.51593 11.414 1.5478 41.561.51593 11.588 1.0319 19.691 1.2898 21.521 2.0637 22.915.51593 3.2238.51593 3.5723.51593 3.4852 2.0637 12.198.25797-.08713.51593 2.4396.51593 1.4812.25797.34852.25797 1.0456.25797-.17426 1.2898 2.7882.25797-.17426.25797.52278.7739-.17426.51593-.78417.51593-.34852.25797-1.2198.25797-.17426h.25797l.25797-.43565.25797.52278.25797.08713.25797-.52278.51593-2.4396.51593-2.7882 1.8058-7.4932h.25797l.51593-1.7426.25797-1.6555.25797-.43565.51593-3.8337.25797.087129.25797-.69704.25797-.34852.25797-1.3069.25797-.08713 1.0319-8.4516.51593-2.3525.25797-.43565.51593-2.4396.25797-.34852.25797-.95843.25797-2.7882 1.0319-5.3149.25797-1.3069.25797-.08713.25797-.26139.7739-4.7921 1.0319-13.244 1.2898-27.62.51593-17.426 2.0637-58.028.25797-5.3149.51593-5.4892.25797-3.8337.25797-.69704.25797-2.7882.25797 2.5268.25797-.17426.7739 9.4971.25797 1.6555.7739 15.161.51593 10.543 2.3217 56.286 1.0319 19.604.51593 7.1446.7739 12.547.51593 6.7961.25797 2.7882.51593 6.4476 1.2898 11.85.25797.60991.25797 2.4396.25797 1.3069.25797 2.0911.25797.78417.25797 2.0911.25797.69704.7739 3.3981.51593.78417.25797-.087129.51593.087129.25797-.26139.25797.17426.25797-.17426.25797-.43565.51593-1.3941.25797-.26139 1.0319-3.7466.25797-.087129.51593-2.7882.51593-3.6594.25797-1.2198.25797.43565.25797-.17426.7739-3.9208.25797.26139.25797-1.6555.25797-.34852.25797-1.2198.51593-8.9744 1.0319-9.8457.25797-1.3069.25797-2.5268.25797-3.7466.51593-2.7882.51593-4.1822.51593-3.8337.25797-3.1367.51593-2.0911.25797-.52278.25797-.8713.25797-.43565h.25797l.25797-.26139.25797.69704.25797.26139.25797.52278.51593-.08713.25797.08713.25797 1.3941.25797 2.1782.25797-.78417.25797 1.1327.25797 2.0911.25797-2.5268.25797.17426.25797-.52278.25797-1.7426.25797-3.3109.51593-2.3525.25797-2.9624.25797-6.4476.25797-2.7882 1.0319-24.745.25797-10.978 1.0319-24.222.7739-23.089 1.0319-23.002.7739-6.9704.25797-.43565.25797-.78417 1.0319 9.1486.7739 12.808 1.2898 28.753.25797 3.4852 1.2898 31.367.7739 15.073 2.0637 40.69.7739 10.63 1.8058 17.949 1.0319 6.3605.25797 2.2654.25797 1.1327.7739 5.2278.25797.34852.25797.78417.25797 1.4812.25797.17426.25797-.17426.25797.08713.25797-.26139.25797.26139.51593-.95843.25797-.52278 1.0319-3.7466.25797-.60991.51593-2.3525.51593-2.1782.51593-2.6139.25797-.34852.25797.26139.25797-2.3525.25797-.08713.25797-1.4812.51593-5.6634.25797-.17426.7739-7.3189.51593-2.5268.25797-1.7426.7739-8.3645.25797-4.0951.25797-1.1327.51593-4.4436.25797-.60991.51593-5.2278.51593-2.9624.25797-1.3941.51593-3.7466.25797-.43565.25797.43565.51593-2.1782.25797-.08713.7739-1.7426.25797-1.1327.25797.8713.51593 3.1367.25797 2.4396.25797-.17426h.25797l.51593 4.008.25797-2.6139.25797.26139 1.2898-15.161.25797-3.7466.51593-10.891.7739-24.571 1.2898-29.624.7739-11.85.51593-3.3109.25797.60991.25797.087129.25797-.95843.25797-.17426.25797 3.2238.25797 4.8793.25797 9.3229.51593 11.588 1.8058 45.307.51593 10.02.7739 17.165 1.5478 26.662 1.0319 12.198 1.0319 9.8457 1.0319 6.012 1.0319 5.7506.51593 3.3981.7739 4.2694.7739 4.008.25797 1.9169.25797.95843.25797.43565.25797 1.3941.51593 1.1327.25797.17426 1.2898 3.1367.25797-.26139.25797-.08713.25797-.34852.25797.26139.7739-.17426.51593-1.1327.51593-.69704.7739-.17426.25797-.52278.25797-.78417.25797-.34852.51593-2.6139.25797.087129.25797-.43565.25797-.8713.7739-4.4436.25797-1.3941 1.0319-2.9624.51593-3.4852.25797-1.5683.25797-.08713.51593-2.9624.25797-.52278.25797-2.4396.51593-2.4396 1.0319-4.7921.25797-.34852.25797-2.701.25797-.78417.25797-.26139.51593-5.2278.25797-.8713.25797-1.5683.51593-1.3069.25797-1.4812.25797-2.5268.51593-2.8753.25797-.43565.7739-7.8417 2.3217-54.456 1.2898-33.196 1.0319-13.854.51593-2.701.51593 1.2198.7739 10.456 2.3217 55.589 2.8376 49.315.25797 2.004 1.5478 17.252.51593 3.8337 1.0319 6.1862.51593 3.8337.25797.69704.7739 3.5723 1.5478 6.9704.25797.60991.25797.26139.51593 1.7426.25797.08713.51593 1.7426.25797.34852.7739 2.4396.51593.08713.51593-.78417.25797.17426.25797-.34852.25797-.78417.25797-.26139.25797-.52278.25797-.95843.25797.34852.51593-.60991.25797-1.8297.25797.17426.25797-.8713.25797.087129.25797-1.5683.25797-.69704.25797-.34852.25797-1.3069.25797-.52278.51593-2.5268.25797-2.3525.7739-2.8753.25797-1.9169.25797-.69704.7739-4.3565.51593-1.8297.25797-.60991.25797-1.7426.25797.17426.51593-1.9169h.25797l1.0319-7.2318.25797-.52278.25797-1.7426.7739-2.5268.25797-1.0456h.25797l.7739-6.012.25797-.34852 1.2898-8.1902 1.0319-12.285.7739-16.555.7739-22.131.7739-21.957.25797-3.3109.7739-18.21.25797-3.2238.25797-5.5763.25797-2.004.25797-3.3109.25797-.26139.25797-1.2198.25797-.34852.7739 7.5803.51593 12.808 1.0319 18.994 1.0319 23.264.25797 5.1407.51593 12.982.51593 10.107.7739 11.501.51593 11.24.7739 10.02 1.0319 9.4971 1.2898 12.111.25797.8713 1.0319 5.6634.51593 2.8753.25797 1.1327.51593 1.1327.51593 2.004.25797.69704.25797 1.9169.25797.69704.25797-.43565.51593.95843.25797.17426.25797.8713.25797 1.6555.25797-.17426.25797.26139.51593.69704.25797.17426h.25797l.51593.34852.51593-1.3941.25797.95843.25797-.17426.51593-1.2198.25797-.087129.51593-.8713.25797.69704.7739-1.3941.25797-2.004.25797-.8713.51593-.8713 2.0637-9.9328.25797-.95843.7739-5.5763.25797-.69704 1.0319-6.7961.25797-1.1327.25797-.43565.25797-.95843.51593-3.0495.7739-5.8377 1.0319-7.0575.25797-2.9624.25797-.69704.51593-2.701.25797 1.2198.25797-.95843.25797-.26139.25797-.78417.25797.08713.25797-.52278.25797-1.3941.51593-9.5843 1.0319-17.774.51593-16.032.25797-10.281.25797-5.402 1.0319-29.363.7739-15.77.51593-6.709h.25797l.25797-.17426.25797-1.6555.7739 4.1822.25797 3.5723.7739 19.169 1.0319 25.268.7739 20.04 1.8058 33.806.25797 3.0495.25797 6.0991 1.5478 19.43 1.2898 9.5843 1.2898 8.4516 1.5478 8.4516.25797.60991.25797 1.9169 1.2898 4.4436.25797 1.6555 1.0319 3.1367.25797 1.2198.25797-.26139.25797.34852.25797-.087129.25797-.26139.25797-.8713.25797 1.0456.25797-.78417.51593-.52278.25797-.95843.25797-.17426h.25797l.25797-.26139.25797-.78417.25797-2.004.25797-.34852h.25797l.25797-.26139.25797-1.0456.25797-1.6555.25797-.43565.25797-1.0456h.25797l.25797-.8713.7739 3.8337.25797-.34852.25797 1.3069.25797-.17426.25797-2.2654.25797.8713.51593-.95843.51593.43565.25797-1.9169.25797.34852.25797.8713.25797.17426.25797-.08713.25797-1.0456.25797.17426m1.0319-2.7882.25797-1.6555.25797-3.3109.25797-1.7426 1.8058-17.862 1.0319-5.1407 1.0319-12.372 1.2898-25.616 1.2898-41.299 1.0319-29.798.51593-9.6714.51593-7.3189.25797-1.5683.25797 1.1327h.25797l.25797.43565.51593 2.7882.51593 12.895.25797 6.5347.25797 1.9169.25797 7.5803.25797 2.6139.25797 5.0535.7739 19.517 2.3217 45.22 1.8058 24.832 2.0637 19.081.25797.60991 1.2898 7.9288 1.2898 5.402.25797.52278.51593 2.7882.51593 2.5268.7739 1.6555.51593 1.4812.51593.08713.25797-.34852.25797.52278.25797-1.0456.25797-.08713.25797.17426.25797-.087129.25797-.95843.25797.34852.51593-1.3941.25797-.60991.25797-1.0456.7739-1.7426.51593-2.004.25797-1.3941.25797-2.0911.25797-.17426.51593-1.6555.51593-2.701.25797.087129.51593-2.701.7739-1.7426.7739-4.705.51593-1.4812.51593-2.7882 1.2898-7.7545.51593-1.2198.25797-.087129.25797-1.8297.25797-.08713.25797-2.2654.25797-.08713 1.2898-5.6634.25797-1.2198h.25797l.25797-.60991.25797-1.3941.25797-3.0495.7739-3.1367.25797-4.5307.25797-2.3525 1.5478-35.2 1.0319-30.67.25797-5.2278 1.0319-32.412 1.0319-14.202.51593-1.7426.25797-.69704.25797-.34852.25797-1.0456.51593 5.3149.25797.34852.25797 4.6179.7739 25.79 1.0319 19.343 2.5797 48.096.7739 10.02.51593 8.4516.25797 3.3981.51593 8.3645 2.0637 20.388.7739 4.008.25797.52278.25797 1.1327.25797.08713.7739 2.9624.25797.95843.25797.52278.7739 3.6594.51593-1.0456.51593.17426.25797-.60991h.51593l.25797-.95843h.25797l.25797.26139.25797-.52278.25797-1.3941.51593-1.4812 1.2898-5.0535.25797-.34852.51593-2.0911.25797-.52278.25797-2.0911.25797-.52278.25797-1.4812.7739-6.5347 1.0319-9.1486.51593-4.1822.25797-1.0456.25797-2.701.25797-.52278.25797-2.004.25797-.52278.25797-1.2198.25797-.60991.51593-4.008.25797.08713.25797-1.3941.25797-.69704.7739-4.4436.25797-.26139.25797-.95843.25797-.08713.51593-.52278.25797 1.0456.25797-.26139.25797-1.5683.25797-.52278.25797.69704.51593 2.701.51593.26139.25797-.60991.25797 2.0911.51593-4.5307.25797-3.2238.51593-9.9328.25797-3.0495.51593-12.285 1.5478-45.046.7739-19.169.51593-6.5347.51593-8.5387.51593-2.1782.25797-.43565.25797-3.3981.25797-.43565.25797.43565.51593 1.9169.25797 2.9624 1.5478 29.45.25797 2.2654.25797 4.3565 1.0319 25.18.25797 4.1822 1.2898 28.23.51593 7.4932 1.0319 17.426v0" clip-path="url(#c)" fill="none" stroke="#28f" stroke-linecap="square" stroke-width="1.5"/>
   </g>
   <g id="cm">
    <path d="m52 259.78v-232.9" fill="none" stroke="#000" stroke-linecap="square" stroke-width=".8"/>
   </g>
   <g id="cn">
    <path d="m853.2 259.78v-232.9" fill="none" stroke="#000" stroke-linecap="square" stroke-width=".8"/>
   </g>
   <g id="co">
    <path d="m52 259.78h801.2" fill="none" stroke="#000" stroke-linecap="square" stroke-width=".8"/>
   </g>
   <g id="cp">
    <path d="m52 26.88h801.2" fill="none" stroke="#000" stroke-linecap="square" stroke-width=".8"/>
   </g>
   <g id="cq">
    <!-- 同時接続数の推移 -->
    <g transform="translate(404.6 20.88) scale(.12 -.12)">
     <defs>
      <path id="x" transform="scale(.015625)" d="m1587 3936h3232v-518h-3232v518zm320-1114h557v-2534h-557v2534zm301 0h2291v-2086h-2291v512h1734v1069h-1734v505zm-1683 2260h5113v-570h-4524v-5056h-589v5626zm4768 0h595v-4896q0-250-67-397t-227-218q-160-77-426-96t-675-19q-13 83-45 192t-77 218q-45 108-89 185 281-13 527-13 247 0 330 0 83 7 118 42 36 35 36 112v4890z"/>
      <path id="v" transform="scale(.015625)" d="m2714 4672h3238v-525h-3238v525zm-244-1235h3712v-538h-3712v538zm20-1184h3635v-531h-3635v531zm1523 3155h595v-2310h-595v2310zm832-2451h589v-2823q0-230-61-364-61-135-227-199-167-70-423-86t-633-16q-20 121-78 285-57 163-121 284 275-6 509-9t310-3q77 6 106 28 29 23 29 93v2810zm-2023-1677 487 282q153-160 313-352t294-381q135-189 206-343l-519-313q-64 153-189 348-124 196-278 394-154 199-314 365zm-2086 3718h1619v-4281h-1619v544h1056v3187h-1056v550zm32-1843h1293v-537h-1293v537zm-320 1843h563v-4832h-563v4832z"/>
      <path id="w" transform="scale(.015625)" d="m3866 5408h614v-870h-614v870zm-1479-653h3597v-518h-3597v518zm-230-1485h4e3v-518h-4e3v518zm825 922 519 102q64-160 121-342 58-182 96-352 39-170 45-304l-544-128q-6 134-42 313-35 180-83 365-48 186-112 346zm1856 109 589-71q-96-275-202-557-105-281-195-486l-518 77q58 147 122 329 64 183 118 372t86 336zm-2643-2106h3943v-518h-3943v518zm1408 685 602-115q-167-371-362-784t-390-797-362-685l-525 179q160 288 346 666t368 784 323 752zm-659-2157 358 403q352-102 733-240 381-137 752-304 371-166 697-336 327-169 558-329l-384-461q-218 160-532 336-313 176-685 345-371 170-755 323-384 154-742 263zm1894 1114 583-71q-122-550-353-944-230-393-604-662t-922-435q-547-167-1296-269-25 128-93 269-67 141-137 230 678 64 1168 192t819 349q330 221 531 550 202 330 304 791zm-4684 217q396 90 953 240 557 151 1120 311l77-544q-525-154-1053-311-528-156-963-284l-134 588zm121 2093h1965v-563h-1965v563zm819 1248h576v-5229q0-236-51-374t-192-208q-141-77-355-99-214-23-541-16-13 115-64 288t-109 294q205-6 381-6t234 0q64 0 92 28 29 29 29 93v5229z"/>
      <path id="u" transform="scale(.015625)" d="m4058 5408h595v-1798h-595v1798zm-1415-563h3443v-499h-3443v499zm231-992h3008v-499h-3008v499zm-224-877h3475v-1203h-531v729h-2432v-729h-512v1203zm1964-877h551v-1881q0-122 22-157 23-35 106-35 25 0 92 0 68 0 135 0t99 0q51 0 83 54t45 224 19 515q90-70 234-131t259-93q-19-429-83-662-64-234-183-326-118-93-316-93-39 0-103 0t-134 0-138 0q-67 0-99 0-237 0-365 64t-176 218q-48 153-48 422v1881zm-1164-6h550v-455q0-243-48-528-48-284-186-579-137-294-409-572-272-279-727-503-70 90-192 208-121 118-230 195 416 205 665 438 250 234 371 474 122 240 164 467 42 228 42 413v442zm-2240 3309 524-192q-121-244-259-503-137-259-275-496t-259-416l-410 173q122 186 246 438 125 253 240 515 116 263 193 481zm716-743 500-230q-224-359-496-756-272-396-548-764-275-368-518-650l-358 205q179 211 377 483 199 272 387 569 189 298 358 592 170 295 298 551zm-1721-665 307 403q166-154 339-340 173-185 320-364t224-327l-326-460q-77 160-218 348-141 189-314 384-172 196-332 356zm1485-832 435 179q128-211 249-458 122-246 215-474 93-227 137-412l-473-211q-32 185-119 422-86 237-201 486-115 250-243 468zm-1530-583q422 26 998 54 576 29 1184 68l7-499q-570-45-1127-84-556-38-992-70l-70 531zm1702-992 436 135q121-276 214-596t118-556l-454-148q-26 237-112 563-86 327-202 602zm-1363 109 499-83q-57-455-163-897-105-441-253-748-51 32-134 73-83 42-170 83-86 42-144 62 148 294 234 697t131 813zm691 627h525v-2861h-525v2861z"/>
      <path id="o" transform="scale(.015625)" d="m224 2022h3187v-499h-3187v499zm51 2247h3111v-487h-3111v487zm1127-1735 563-121q-154-320-333-672t-352-679q-173-326-326-582l-532 173q148 243 324 566t345 669q170 346 311 646zm934-832 563-64q-89-480-262-838t-461-614-701-432-976-298q-25 128-99 269t-157 237q659 102 1085 303 426 202 666 554t342 883zm422 3597 519-211q-147-218-298-436-150-217-278-377l-403 186q121 173 252 413 132 240 208 425zm-1203 109h563v-2957h-563v2957zm-1075-320 448 186q134-192 246-420 112-227 157-393l-467-211q-38 172-147 406t-237 432zm1094-1050 397-236q-160-263-400-529-240-265-519-489-278-224-553-378-51 103-141 237-89 135-179 218 269 109 534 294 266 186 493 416 228 231 368 467zm487-204q83-45 246-145 163-99 352-211t346-211 221-150l-327-423q-83 77-230 198-147 122-317 253-170 132-327 250-156 119-259 189l295 250zm1798 396h2311v-556h-2311v556zm115 1178 615-90q-103-640-263-1235t-384-1101q-224-505-512-889-44 57-134 134t-186 157-166 125q275 339 473 796 199 458 340 995 141 538 217 1108zm1223-1510 614-58q-147-1101-445-1940-297-838-813-1443-515-604-1321-1014-26 71-90 177-64 105-134 208-70 102-128 159 742 346 1212 880 471 535 730 1290 260 755 375 1741zm-1005-135q134-851 387-1597 253-745 659-1305 407-560 1002-874-70-57-154-150-83-93-154-189-70-96-121-179-633 371-1056 988-422 618-688 1434-265 816-425 1783l550 89zm-3309-3065 327 416q377-148 754-330 378-182 701-378 324-195 548-368l-416-435q-211 179-519 378-307 198-666 383-358 186-729 334z"/>
      <path id="t" transform="scale(.015625)" d="m3686 4378q-64-493-163-1041-99-547-265-1084-192-653-432-1104t-522-688-595-237q-320 0-596 221-275 221-448 621-172 400-172 931 0 537 220 1017 221 480 611 851 391 372 909 583 519 211 1121 211 576 0 1040-186 464-185 793-515 330-329 502-771 173-441 173-941 0-672-278-1194-278-521-816-851-538-329-1318-444l-378 601q166 20 307 42t263 48q307 70 585 217 279 148 496 375 218 227 342 534 125 308 125 692t-122 713q-121 330-358 573-236 243-582 380-346 138-781 138-525 0-935-186-409-185-694-489-284-304-432-656-147-352-147-678 0-365 89-605 90-240 224-355 135-115 276-115t288 144 297 457q151 314 298 800 147 461 246 982 100 522 145 1021l684-12z"/>
      <path id="p" transform="scale(.015625)" d="m2995 2925h2893v-519h-2893v519zm0-1280h2893v-519h-2893v519zm-64-1299h3232v-557h-3232v557zm1312 3577h563v-3763h-563v3763zm429 1466 634-141q-154-390-340-794-185-403-339-684l-512 140q103 199 208 458 106 259 195 528 90 269 154 493zm-1472 25 582-147q-153-518-371-1018-217-499-483-931t-573-758q-38 64-109 160-70 96-147 198-77 103-141 160 416 416 733 1034t509 1302zm128-1203h2720v-537h-2720v-4205h-582v4422l313 320h269zm-3174-2157q396 90 953 240 557 151 1120 311l77-544q-525-154-1053-311-528-156-963-284l-134 588zm121 2093h1965v-563h-1965v563zm819 1248h576v-5229q0-236-51-374t-192-208q-141-77-355-99-214-23-541-16-13 115-64 288t-109 294q205-6 381-6t234 0q64 0 92 28 29 29 29 93v5229z"/>
      <path id="n" transform="scale(.015625)" d="m4051 5402 595-109q-281-493-729-941t-1107-806q-39 64-106 144t-141 153q-73 74-137 119 608 288 1011 678t614 762zm-77-557h1511v-493h-1863l352 493zm1293 0h109l109 25 384-179q-192-505-496-905t-695-701q-390-301-845-519-454-217-947-358-44 109-137 253t-176 227q448 109 867 294 419 186 777 445 359 259 631 592t419 730v96zm-1990-954 377 307q167-96 336-218 170-121 320-249 151-128 247-237l-397-332q-90 108-237 236t-317 259q-169 132-329 234zm1107-934 595-109q-307-538-803-1031-496-492-1232-876-38 64-102 144t-138 156q-74 77-138 116 455 217 807 483t604 554q253 288 407 563zm-90-589h1460v-506h-1818l358 506zm1268 0h121l109 26 384-167q-192-614-531-1075t-787-794q-448-332-983-553-534-221-1129-355-45 115-132 269-86 153-176 249 551 96 1043 285 493 189 903 473 410 285 714 669t464 883v90zm-2132-1056 410 339q186-102 384-237 198-134 371-275t282-269l-435-371q-103 128-270 272-166 144-361 288t-381 253zm-2150 3533h589v-5376h-589v5376zm-992-1242h2336v-569h-2336v569zm1024-224 365-160q-96-339-231-707-134-368-291-727-157-358-336-672-179-313-365-537-44 128-134 291t-160 272q173 192 339 457 167 266 323 570 157 304 282 618t208 595zm941 1946 416-467q-314-122-695-221-380-99-784-173-403-74-780-131-20 102-71 236-51 135-102 231 358 58 732 138 375 80 711 179t573 208zm-397-2579q58-45 179-170 122-125 266-266 144-140 259-265t160-183l-352-473q-58 102-157 255-99 154-218 317-118 164-227 311-108 147-185 237l275 237z"/>
     </defs>
     <use xlink:href="#x"/>
     <use transform="translate(100)" xlink:href="#v"/>
     <use transform="translate(200)" xlink:href="#w"/>
     <use transform="translate(300)" xlink:href="#u"/>
     <use transform="translate(400)" xlink:href="#o"/>
     <use transform="translate(500)" xlink:href="#t"/>
     <use transform="translate(600)" xlink:href="#p"/>
     <use transform="translate(700)" xlink:href="#n"/>
    </g>
   </g>
  </g>
  <g id="cr">
   <g id="cs">
    <path d="m52 523.06h801.2v-232.9h-801.2z" fill="#fff"/>
   </g>
   <g id="ct">
    <path d="m131.49 523.06h.7739v-232.9h-.7739z" clip-path="url(#b)" fill="#808080" opacity=".3" stroke="#808080"/>
   </g>
   <g id="cu">
    <path d="m416.42 523.06h.51593v-232.9h-.51593z" clip-path="url(#b)" fill="#808080" opacity=".3" stroke="#808080"/>
   </g>
   <g id="cv">
    <path d="m723.4 523.06h1.0319v-232.9h-1.0319z" clip-path="url(#b)" fill="#808080" opacity=".3" stroke="#808080"/>
   </g>
   <g id="cw">
    <g id="cx">
     <g id="cy">
      <path d="m104.02 523.06v-232.9" clip-path="url(#b)" fill="none" stroke="#b0b0b0" stroke-linecap="square" stroke-opacity=".3" stroke-width=".8"/>
     </g>
     <g id="cz">
      <use x="104.021266" y="523.055464" stroke="#000000" stroke-width=".8" xlink:href="#g"/>
     </g>
     <g id="da">
      <!-- 2025-07-01 -->
      <g transform="translate(57.232 563.33) rotate(-30) scale(.1 -.1)">
       <defs>
        <path id="h" transform="scale(.015625)" d="m301 1536v544h1689v-544h-1689z"/>
       </defs>
       <use xlink:href="#d"/>
       <use transform="translate(57)" xlink:href="#a"/>
       <use transform="translate(114)" xlink:href="#d"/>
       <use transform="translate(171)" xlink:href="#j"/>
       <use transform="translate(228)" xlink:href="#h"/>
       <use transform="translate(263.7)" xlink:href="#a"/>
       <use transform="translate(320.7)" xlink:href="#i"/>
       <use transform="translate(377.7)" xlink:href="#h"/>
       <use transform="translate(413.4)" xlink:href="#a"/>
       <use transform="translate(470.4)" xlink:href="#f"/>
      </g>
     </g>
    </g>
    <g id="db">
     <g id="dc">
      <path d="m252.61 523.06v-232.9" clip-path="url(#b)" fill="none" stroke="#b0b0b0" stroke-linecap="square" stroke-opacity=".3" stroke-width=".8"/>
     </g>
     <g id="dd">
      <use x="252.609785" y="523.055464" stroke="#000000" stroke-width=".8" xlink:href="#g"/>
     </g>
     <g id="de">
      <!-- 2025-07-05 -->
      <g transform="translate(205.82 563.33) rotate(-30) scale(.1 -.1)">
       <use xlink:href="#d"/>
       <use transform="translate(57)" xlink:href="#a"/>
       <use transform="translate(114)" xlink:href="#d"/>
       <use transform="translate(171)" xlink:href="#j"/>
       <use transform="translate(228)" xlink:href="#h"/>
       <use transform="translate(263.7)" xlink:href="#a"/>
       <use transform="translate(320.7)" xlink:href="#i"/>
       <use transform="translate(377.7)" xlink:href="#h"/>
       <use transform="translate(413.4)" xlink:href="#a"/>
       <use transform="translate(470.4)" xlink:href="#j"/>
      </g>
     </g>
    </g>
    <g id="df">
     <g id="dg">
      <path d="m401.2 523.06v-232.9" clip-path="url(#b)" fill="none" stroke="#b0b0b0" stroke-linecap="square" stroke-opacity=".3" stroke-width=".8"/>
     </g>
     <g id="dh">
      <use x="401.198304" y="523.055464" stroke="#000000" stroke-width=".8" xlink:href="#g"/>
     </g>
     <g id="di">
      <!-- 2025-07-09 -->
      <g transform="translate(354.41 563.33) rotate(-30) scale(.1 -.1)">
       <use xlink:href="#d"/>
       <use transform="translate(57)" xlink:href="#a"/>
       <use transform="translate(114)" xlink:href="#d"/>
       <use transform="translate(171)" xlink:href="#j"/>
       <use transform="translate(228)" xlink:href="#h"/>
       <use transform="translate(263.7)" xlink:href="#a"/>
       <use transform="translate(320.7)" xlink:href="#i"/>
       <use transform="translate(377.7)" xlink:href="#h"/>
       <use transform="translate(413.4)" xlink:href="#a"/>
       <use transform="translate(470.4)" xlink:href="#q"/>
      </g>
     </g>
    </g>
    <g id="dj">
     <g id="dk">
      <path d="m549.79 523.06v-232.9" clip-path="url(#b)" fill="none" stroke="#b0b0b0" stroke-linecap="square" stroke-opacity=".3" stroke-width=".8"/>
     </g>
     <g id="dl">
      <use x="549.786823" y="523.055464" stroke="#000000" stroke-width=".8" xlink:href="#g"/>
     </g>
     <g id="dm">
      <!-- 2025-07-13 -->
      <g transform="translate(503 563.33) rotate(-30) scale(.1 -.1)">
       <use xlink:href="#d"/>
       <use transform="translate(57)" xlink:href="#a"/>
       <use transform="translate(114)" xlink:href="#d"/>
       <use transform="translate(171)" xlink:href="#j"/>
       <use transform="translate(228)" xlink:href="#h"/>
       <use transform="translate(263.7)" xlink:href="#a"/>
       <use transform="translate(320.7)" xlink:href="#i"/>
       <use transform="translate(377.7)" xlink:href="#h"/>
       <use transform="translate(413.4)" xlink:href="#f"/>
       <use transform="translate(470.4)" xlink:href="#r"/>
      </g>
     </g>
    </g>
    <g id="dn">
     <g id="do">
      <path d="m698.38 523.06v-232.9" clip-path="url(#b)" fill="none" stroke="#b0b0b0" stroke-linecap="square" stroke-opacity=".3" stroke-width=".8"/>
     </g>
     <g id="dp">
      <use x="698.375342" y="523.055464" stroke="#000000" stroke-width=".8" xlink:href="#g"/>
     </g>
     <g id="dq">
      <!-- 2025-07-17 -->
      <g transform="translate(651.59 563.33) rotate(-30) scale(.1 -.1)">
       <use xlink:href="#d"/>
       <use transform="translate(57)" xlink:href="#a"/>
       <use transform="translate(114)" xlink:href="#d"/>
       <use transform="translate(171)" xlink:href="#j"/>
       <use transform="translate(228)" xlink:href="#h"/>
       <use transform="translate(263.7)" xlink:href="#a"/>
       <use transform="translate(320.7)" xlink:href="#i"/>
       <use transform="translate(377.7)" xlink:href="#h"/>
       <use transform="translate(413.4)" xlink:href="#f"/>
       <use transform="translate(470.4)" xlink:href="#i"/>
      </g>
     </g>
    </g>
    <g id="dr">
     <g id="ds">
      <path d="m846.96 523.06v-232.9" clip-path="url(#b)" fill="none" stroke="#b0b0b0" stroke-linecap="square" stroke-opacity=".3" stroke-width=".8"/>
     </g>
     <g id="dt">
      <use x="846.963861" y="523.055464" stroke="#000000" stroke-width=".8" xlink:href="#g"/>
     </g>
     <g id="du">
      <!-- 2025-07-21 -->
      <g transform="translate(800.17 563.33) rotate(-30) scale(.1 -.1)">
       <use xlink:href="#d"/>
       <use transform="translate(57)" xlink:href="#a"/>
       <use transform="translate(114)" xlink:href="#d"/>
       <use transform="translate(171)" xlink:href="#j"/>
       <use transform="translate(228)" xlink:href="#h"/>
       <use transform="translate(263.7)" xlink:href="#a"/>
       <use transform="translate(320.7)" xlink:href="#i"/>
       <use transform="translate(377.7)" xlink:href="#h"/>
       <use transform="translate(413.4)" xlink:href="#d"/>
       <use transform="translate(470.4)" xlink:href="#f"/>
      </g>
     </g>
    </g>
   </g>
   <g id="dv">
    <g id="dw">
     <g id="dx">
      <path d="m52 506.5h801.2" clip-path="url(#b)" fill="none" stroke="#b0b0b0" stroke-linecap="square" stroke-opacity=".3" stroke-width=".8"/>
     </g>
     <g id="dy">
      <use x="52" y="506.500689" stroke="#000000" stroke-width=".8" xlink:href="#e"/>
     </g>
     <g id="dz">
      <!-- 104800 -->
      <g transform="translate(10.8 510.49) scale(.1 -.1)">
       <use xlink:href="#f"/>
       <use transform="translate(57)" xlink:href="#a"/>
       <use transform="translate(114)" xlink:href="#m"/>
       <use transform="translate(171)" xlink:href="#l"/>
       <use transform="translate(228)" xlink:href="#a"/>
       <use transform="translate(285)" xlink:href="#a"/>
      </g>
     </g>
    </g>
    <g id="ea">
     <g id="eb">
      <path d="m52 481.37h801.2" clip-path="url(#b)" fill="none" stroke="#b0b0b0" stroke-linecap="square" stroke-opacity=".3" stroke-width=".8"/>
     </g>
     <g id="ec">
      <use x="52" y="481.3701" stroke="#000000" stroke-width=".8" xlink:href="#e"/>
     </g>
     <g id="ed">
      <!-- 105200 -->
      <g transform="translate(10.8 485.36) scale(.1 -.1)">
       <use xlink:href="#f"/>
       <use transform="translate(57)" xlink:href="#a"/>
       <use transform="translate(114)" xlink:href="#j"/>
       <use transform="translate(171)" xlink:href="#d"/>
       <use transform="translate(228)" xlink:href="#a"/>
       <use transform="translate(285)" xlink:href="#a"/>
      </g>
     </g>
    </g>
    <g id="ee">
     <g id="ef">
      <path d="m52 456.24h801.2" clip-path="url(#b)" fill="none" stroke="#b0b0b0" stroke-linecap="square" stroke-opacity=".3" stroke-width=".8"/>
     </g>
     <g id="eg">
      <use x="52" y="456.239511" stroke="#000000" stroke-width=".8" xlink:href="#e"/>
     </g>
     <g id="eh">
      <!-- 105600 -->
      <g transform="translate(10.8 460.22) scale(.1 -.1)">
       <use xlink:href="#f"/>
       <use transform="translate(57)" xlink:href="#a"/>
       <use transform="translate(114)" xlink:href="#j"/>
       <use transform="translate(171)" xlink:href="#k"/>
       <use transform="translate(228)" xlink:href="#a"/>
       <use transform="translate(285)" xlink:href="#a"/>
      </g>
     </g>
    </g>
    <g id="ei">
     <g id="ej">
      <path d="m52 431.11h801.2" clip-path="url(#b)" fill="none" stroke="#b0b0b0" stroke-linecap="square" stroke-opacity=".3" stroke-width=".8"/>
     </g>
     <g id="ek">
      <use x="52" y="431.108922" stroke="#000000" stroke-width=".8" xlink:href="#e"/>
     </g>
     <g id="el">
      <!-- 106000 -->
      <g transform="translate(10.8 435.09) scale(.1 -.1)">
       <use xlink:href="#f"/>
       <use transform="translate(57)" xlink:href="#a"/>
       <use transform="translate(114)" xlink:href="#k"/>
       <use transform="translate(171)" xlink:href="#a"/>
       <use transform="translate(228)" xlink:href="#a"/>
       <use transform="translate(285)" xlink:href="#a"/>
      </g>
     </g>
    </g>
    <g id="em">
     <g id="en">
      <path d="m52 405.98h801.2" clip-path="url(#b)" fill="none" stroke="#b0b0b0" stroke-linecap="square" stroke-opacity=".3" stroke-width=".8"/>
     </g>
     <g id="eo">
      <use x="52" y="405.978333" stroke="#000000" stroke-width=".8" xlink:href="#e"/>
     </g>
     <g id="ep">
      <!-- 106400 -->
      <g transform="translate(10.8 409.96) scale(.1 -.1)">
       <use xlink:href="#f"/>
       <use transform="translate(57)" xlink:href="#a"/>
       <use transform="translate(114)" xlink:href="#k"/>
       <use transform="translate(171)" xlink:href="#m"/>
       <use transform="translate(228)" xlink:href="#a"/>
       <use transform="translate(285)" xlink:href="#a"/>
      </g>
     </g>
    </g>
    <g id="eq">
     <g id="er">
      <path d="m52 380.85h801.2" clip-path="url(#b)" fill="none" stroke="#b0b0b0" stroke-linecap="square" stroke-opacity=".3" stroke-width=".8"/>
     </g>
     <g id="es">
      <use x="52" y="380.847744" stroke="#000000" stroke-width=".8" xlink:href="#e"/>
     </g>
     <g id="et">
      <!-- 106800 -->
      <g transform="translate(10.8 384.83) scale(.1 -.1)">
       <use xlink:href="#f"/>
       <use transform="translate(57)" xlink:href="#a"/>
       <use transform="translate(114)" xlink:href="#k"/>
       <use transform="translate(171)" xlink:href="#l"/>
       <use transform="translate(228)" xlink:href="#a"/>
       <use transform="translate(285)" xlink:href="#a"/>
      </g>
     </g>
    </g>
    <g id="eu">
     <g id="ev">
      <path d="m52 355.72h801.2" clip-path="url(#b)" fill="none" stroke="#b0b0b0" stroke-linecap="square" stroke-opacity=".3" stroke-width=".8"/>
     </g>
     <g id="ew">
      <use x="52" y="355.717156" stroke="#000000" stroke-width=".8" xlink:href="#e"/>
     </g>
     <g id="ex">
      <!-- 107200 -->
      <g transform="translate(10.8 359.7) scale(.1 -.1)">
       <use xlink:href="#f"/>
       <use transform="translate(57)" xlink:href="#a"/>
       <use transform="translate(114)" xlink:href="#i"/>
       <use transform="translate(171)" xlink:href="#d"/>
       <use transform="translate(228)" xlink:href="#a"/>
       <use transform="translate(285)" xlink:href="#a"/>
      </g>
     </g>
    </g>
    <g id="ey">
     <g id="ez">
      <path d="m52 330.59h801.2" clip-path="url(#b)" fill="none" stroke="#b0b0b0" stroke-linecap="square" stroke-opacity=".3" stroke-width=".8"/>
     </g>
     <g id="fa">
      <use x="52" y="330.586567" stroke="#000000" stroke-width=".8" xlink:href="#e"/>
     </g>
     <g id="fb">
      <!-- 107600 -->
      <g transform="translate(10.8 334.57) scale(.1 -.1)">
       <use xlink:href="#f"/>
       <use transform="translate(57)" xlink:href="#a"/>
       <use transform="translate(114)" xlink:href="#i"/>
       <use transform="translate(171)" xlink:href="#k"/>
       <use transform="translate(228)" xlink:href="#a"/>
       <use transform="translate(285)" xlink:href="#a"/>
      </g>
     </g>
    </g>
    <g id="fc">
     <g id="fd">
      <path d="m52 305.46h801.2" clip-path="url(#b)" fill="none" stroke="#b0b0b0" stroke-linecap="square" stroke-opacity=".3" stroke-width=".8"/>
     </g>
     <g id="fe">
      <use x="52" y="305.455978" stroke="#000000" stroke-width=".8" xlink:href="#e"/>
     </g>
     <g id="ff">
      <!-- 108000 -->
      <g transform="translate(10.8 309.44) scale(.1 -.1)">
       <use xlink:href="#f"/>
       <use transform="translate(57)" xlink:href="#a"/>
       <use transform="translate(114)" xlink:href="#l"/>
       <use transform="translate(171)" xlink:href="#a"/>
       <use transform="translate(228)" xlink:href="#a"/>
       <use transform="translate(285)" xlink:href="#a"/>
      </g>
     </g>
    </g>
   </g>
   <g id="fg">
    <path d="m88.418 512.47h.13844l.77003-.25131 1.1604-.43978.40114-.25131 1.1376-.18848.7739.12565.38695-.18848.38695-.31413h.38695l.7739-.81674.7739-.12565.7739-.56544 1.1608.12565.38695-.062827.7739-.62826.38695-.62826.7739-.56544h.38695l.7739-.56544.38695-.37696 1.1608-2.2618 1.1608-.87957.38695-.18848.38695.062827.38695-.31413h1.1608l.38695-.25131h.38695l.7739-.50261 1.9347-.37696.38695.12565.38695-.062827.38695.062827 1.9347-.25131 1.5478-.062826 1.1608-.12565 5.0303-.062827.7739-.062826h.38695l.38695-.12565h.7739l1.1608-.56544.7739-.062827 1.1608-.37696h.38695l.7739-.37696 1.1608-.25131 1.9347-.69109.7739-.31413.7739-.18848m.7739-.37696.38695-.25131.38695-.56544.38695-.31413 1.1608-.25131.7739-.25131.7739-.50261.38695-.81674.38695-.25131.7739-1.3194h.38695l.7739-.87957.38695-.18848.38695-.43979 1.5478-1.0052.38695.062826 1.5478-.87957.7739-.062827 1.1608-.18848.38695.12565h.38695l.7739-.43979.7739-.12565.38695.062827.38695-.12565.38695.062826 1.9347-.2513.7739.062826.7739-.062826.7739.062826h2.3217l.7739-.18848.7739.18848.38695.062827 1.1608-.31413h.38695l.38695-.12565h.38695l.38695-.25131.7739-.18848.38695-.31413 1.5478.062826.38695.062827.38695-.062827.38695-.18848 1.1608-.12565.38695.12565 1.1608-.12565h.38695l1.1608-.69109.38695-.062827.38695-.25131.38695.062827.7739-.12565.38695.062826.7739-.37696h.7739l.38695-.43978 1.9347-1.1309 1.1608-.62826.38695-.62826.38695-.062826.38695-.25131.38695-.69109 1.1608-1.0681.38695-.12565.38695.18848.38695-.12565.38695-.31413 1.5478-.43979.38695-.062826.38695.062826.38695-.18848.7739.062826h1.9347l.38695-.12565.7739.12565 1.1608-.12565 2.7086-.062826.38695.18848h.38695l1.6768-.43978.25797.062827h.12898l.25797-.12565h2.5797l.25797.12565.64492-.062827.25797-.062826h.25797l.12898-.12565.25797.12565.25797-.062827h.25797l.25797-.12565.51593.12565.25797-.062826 1.1608-.062827.25797-.18848.12898-.12565.51593.25131.64492-.25131.25797.062826.51593-.18848.90288.062826.25797.12565.7739-.62826h.12898l.51593-.43979h1.4188l.25797-.12565.64492-.062826 1.2898-.56544h.38695l.38695-.18848.12898-.18848.12898.12565.12898-.062827.12898.12565.38695-.37696.38695-.062826.38695-.18848.12898.062827.7739-.69109.25797-.062827.25797-.12565.25797-.62826.90288-.87957.12898.12565.25797-.12565.25797-.18848.12898.12565.25797-.062827.25797-.43978h.25797l.12898-.37696.12898.062826.64492-.2513h.12898l.25797-.31413.25797-.18848.51593-.062827.25797-.18848.38695-.062827.25797-.062826h.38695l.38695-.25131.51593-.18848.90288-.062827.25797-.062826 1.6768-.062827.25797-.062826 2.8376-.062827.25797-.062826 2.0637-.062827.64492-.25131 3.0956-.062826 1.0319-.25131.25797-.18848 1.8058.062826.25797.12565 1.0319-.18848 1.2898-.062827.51593-.31413.7739-.062827.51593-.25131h.25797l.51593-.18848h.25797l.7739-.62826.25797-.12565.7739-.062826.25797-.25131 1.5478-.37696.25797.062827.25797-.12565.51593-.062827.7739-.18848.25797.062826 1.0319-.69109.25797-.062826.51593-.62826.25797-.18848h.25797l1.0319-.62826 1.2898-.31413 1.0319-1.068.25797-.37696h.25797l.7739-.75392h.25797l1.0319-.75392.25797.062827 1.2898-1.2565h.25797l.25797-.37696 1.0319-.18848h1.8058l.25797-.12565h.25797l.25797-.12565 1.0319-.12565.7739-.062826 2.0637-.43979 2.5797.062827.51593.062826.7739-.062826.25797-.18848.7739.12565.25797-.062826.51593.062826h1.2898l.7739-.31413h1.0319l.51593-.25131h.7739l.25797-.12565.7739-.062826.25797-.062827.25797.062827.25797-.12565.25797.062826.7739-.18848.25797-.18848.25797.062827.7739-.87957.51593.18848.25797-.18848h.51593l.51593-.25131.7739-.062826.51593-.56544h.25797l.51593-.18848.25797.062827.25797-.25131.25797-.062827.25797.062827.25797-.062827.25797.12565.25797-.12565.25797.062827.25797-.062827.7739-.56544h.25797l.25797-.12565.7739-1.1309.7739-.43979.25797-.50261.25797-.062827.7739-.75392.25797.062827.7739-.50261.51593-1.0052.51593-.062827.51593-.56544 1.0319-.31413.7739-.43979 1.0319-.31413.51593-.56544.51593-.062827 1.0319-.18848.25797-.31413 1.8058-.062826.51593-.18848.7739-.062826.7739-.18848.25797.062826.51593-.062826.7739.062826.51593.062827.51593-.25131 1.0319.062826.25797.18848h2.3217l.51593-.31413h.25797l.51593-.18848 1.0319.062826.51593.062827.25797-.12565h.25797l.25797-.25131h.25797l.51593-.25131.51593-.062826.51593-.31413.51593-.062826.7739-.69109h.25797l.25797-.12565h.51593l.51593.18848h.25797l.51593-.18848.25797-.31413 1.2898-.37696.25797-.12565.7739-.062826.25797-.12565.7739.12565.7739-.062827.51593-.18848.51593-.12565 1.5478-1.0052.25797.062826.25797-.18848h.51593l.25797-.31413.51593-.25131.51593-.50261.7739.062826.51593-.37696.25797.062827.51593-.37696.25797-.37696.25797.12565.25797-.25131.25797-.062826.25797.18848.25797-.25131.51593.12565 1.0319-.62826.51593.062827.25797-.18848h.25797l.25797.12565.25797-.062826.25797-.31413.25797.062826.7739-.18848.25797.062826.25797-.062826.51593.062826 1.8058.062827.25797.18848 1.8058-.062827.51593-.062826 1.2898.062826.25797.12565.25797-.12565h1.0319l.25797-.12565.7739.062826.51593.062826 2.3217-.062826.51593-.062826 1.0319.062826.51593-.25131.7739-.12565.25797.12565.51593-.25131 1.0319.12565.51593-.25131h.51593l.51593-.18848 2.8376-.062827.51593-.18848.51593-.25131 1.2898-.062826.51593-.25131.7739-.56544h.25797l.25797-.12565.51593.062826 1.0319-.75392.25797.12565.25797-.12565.25797-.37696.7739-.43979.25797-.18848h.25797l.51593-.75392.7739-.56544.25797-.37696h.25797l.51593-.56544.25797.12565.51593-.062827.25797-.37696.25797.062827.51593-.37696 1.2898-.81674 1.0319-.43978 1.0319-.062827.7739-.31413 1.5478.062826.51593.062827 1.8058.062826.51593.062827 1.0319-.12565.25797-.062827.25797.062827.51593-.062827h2.5797l.25797-.12565.7739-.062826.51593-.062827 1.0319-.062826.25797-.062827.7739.25131.51593-.18848 1.2898-.062827.7739-.12565.51593-.062826.25797-.12565 1.5478.062827.7739-.37696h.25797l.51593-.31413h.25797l.25797-.12565.51593-.37696.25797.062826.7739-.18848.51593.12565.51593-.062827.25797.062827 1.5478-.75392.51593-.062827.7739-.18848.51593-.25131h.25797l.25797-.37696.25797-.12565.25797.062827.25797-.25131.25797-.062827.7739-1.445.25797-.25131h.25797l.25797-.12565.51593-.43979.25797-.12565.25797-.43979 2.0637-1.6335.25797-.25131.25797-.43978 1.0319-.31413.25797.12565.25797-.062826.7739-.50261h.25797l.25797-.12565.25797.062827 1.8058-.37696.7739-.062827.51593-.12565.51593.062827 1.5478-.062827.25797-.062826.25797.062826.51593-.062826.51593.062826 1.5478-.062826.25797-.062827.51593.062827 1.0319-.062827 1.5478-.31413m.51593.18848.25797-.12565h.25797l.25797-.12565h2.8376l.51593-.25131.7739-.062827.25797-.062826.25797.062826.51593-.31413.25797.062826.51593-.062826.25797.062826.25797-.12565.51593.12565.25797-.12565.7739-.062826.51593-.25131.51593.25131.51593-.31413.7739-.25131.7739-.31413.25797-.31413.25797-.12565h.25797l.25797-.18848h.51593l.51593-.43979.51593.25131.25797-.25131.25797-.43978.51593-.25131h.25797l1.0319-.56544.51593-.43978.51593-.12565.25797-.43979.25797-.18848.25797-.56544.7739-.62826h.25797l.51593-.50261.7739-.25131.25797-.12565.51593-.37696.25797-.062826.25797-.25131.51593.062827.25797-.18848.51593.12565.25797-.25131h.51593l.25797-.18848.7739-.062827 1.0319-.12565.25797-.062826.25797.062826 1.0319-.50261 1.2898-.062827.25797-.062826.7739.12565 1.2898-.062827.25797-.062826.51593.12565.7739-.12565.25797.062826.25797-.062826.7739.12565h.51593l.25797-.25131 2.0637-.062827.7739-.12565.7739.12565 1.0319-.062826.25797-.18848.7739-.062826.7739-.31413 1.0319-.18848.51593-.062826 1.2898-.25131.7739-.062827.25797-.12565h.25797l.25797-.25131h.25797l.51593-.62826.51593-.31413.51593-.25131.7739-.18848.25797-.31413.25797-.12565h.25797l.7739-.31413h.25797l.25797-.2513.51593-.062827.51593-.62826.51593-.31413.51593-.37696 3.0956-2.1361.51593-.9424.51593-.37696.51593-.062826.25797-.43979h.25797l.51593-.2513.25797-.25131h.25797l.51593-.25131.25797-.37696.25797-.062827.51593-.31413.51593.062827.25797-.31413.51593-.18848 1.2898-.062827.25797.25131.51593.062827h.25797l.51593-.25131.51593-.062827 1.5478-.062826.51593-.062827.25797-.25131.7739-.062826.51593-.062826 5.1593-.062827.51593-.12565.25797.062827 1.5478-.43979.25797-.12565h.25797l.25797-.12565h.25797l.25797-.12565.7739.12565.51593-.062826h.51593l.51593-.18848.25797-.31413 1.0319-.43978h.51593l.51593-.25131.25797.062826.51593-.18848.25797.12565.25797-.12565.51593-.062826.51593-.37696.51593-.25131h.25797l.51593-.18848.25797.12565.51593-.18848.25797-.31413 1.2898-.56544.25797.062827.7739-.31413.25797.062827.25797-.18848h.25797l3.6115-2.7015.51593-.87957.51593-.69109.51593-.062826 1.2898-1.1309.25797-.12565.25797-.2513.25797-.062827 1.2898-.81674.25797-.062827.51593-.31413 1.5478-.31413.25797.062826.51593-.062826.7739.12565 1.2898-.062827.51593-.062826 1.2898-.062827.51593-.062826.51593.062826.7739.062827.7739.12565.25797-.12565.51593.062826 1.0319.18848.25797-.12565.25797.12565.51593-.062827.25797-.25131 1.0319-.25131.51593.12565 1.0319-.37696h.25797l.25797-.12565.51593-.062827 1.5478-.31413.25797.062826.25797-.12565h.25797l.7739-.62826h.25797l1.2898-.56544 1.2898-.31413.25797-.31413.51593.062826.7739-.62826.25797-.18848.25797.062826.25797-.062826.25797-.25131.51593.43978.51593.18848 1.2898-.31413.25797-.31413.25797-.062826.51593-.43979h.25797l.51593-.25131.25797.062827.25797-.31413.25797-.12565.51593-.50261.25797-.43979.51593-.43978.25797-.43978.25797-.12565.51593-.62826h.25797l.51593-.56544.25797.062826.51593-.37696.25797-.62826.25797-.062827.25797-.43978.25797-.062826.25797-.25131.25797-.50261.51593-.31413.51593-.062827.51593-.56544.51593-.062827.51593-.37696.25797-.37696.25797-.062827 1.5478-1.068.7739.062827.51593.18848.51593-.25131.7739.12565 1.5478-.062826 1.0319-.18848 1.8058-.062826.7739-.12565 1.8058-.062827 1.0319-.18848h.7739l.51593-.25131.25797.062827.25797-.062827.25797.062827.25797-.062827.51593.062827.51593-.062827.51593.062827.7739-.37696.51593-.062827.25797-.18848h.25797l.51593-.31413.51593-.18848.25797-.12565.51593.062827 1.2898-.31413.25797-.25131.51593-.12565.25797.062827.25797.25131.25797.062826.25797-.12565.25797.062827.7739-.56544.25797.12565.25797-.062826.51593-.37696.51593.062827h.25797l.25797-.25131.25797.062826.7739-.43978h.25797l.51593-.18848.25797.062827.25797-.062827.25797.062827 1.0319-.87957.7739-.69109.25797-.25131.25797-.062826.25797-.50261.25797.062826.25797-.37696.25797-.062827.25797-.37696.51593-.25131.51593-.56544h.25797l.25797-.43978.25797-.062827.51593-.50261.25797.12565 1.0319-.43979.51593.18848.51593-.18848 1.5478-.31413 1.0319-.062827 1.2898-.2513 1.0319-.12565 1.2898-.062827 1.5478-.31413h1.8058l.25797.12565h.51593l.51593.12565.25797-.12565h.51593l.25797-.12565.25797.062826 1.0319-.25131.51593.062827h.25797l.25797-.18848 2.3217-.062826.7739-.37696 1.2898-.062826.51593-.18848.25797.12565.51593-.25131h.51593l.25797-.12565.7739.062827.51593.18848.51593-.062826.25797-.12565.51593.062826.25797-.12565.25797.062827 1.0319-.31413.51593-.37696.25797.18848.7739-.43978h.51593l.25797-.18848h.25797l.25797-.37696.25797.18848h.25797l.25797-.62826.7739-.43978 1.0319-.87957.25797-.50261.25797.12565.25797-.12565h.25797l1.0319-1.0681.25797.062827.51593-.43978.25797-.43979.25797.12565.7739-.43978.25797-.062826.25797-.31413.51593.062827.25797-.12565.25797-.25131.25797-.062827.25797-.31413.25797-.12565.25797.062826 1.8058-.81674 1.2898-.062826.7739-.12565h.7739l.25797-.12565 1.5478-.062826 1.0319-.25131.51593.062826h.25797l.25797-.12565 1.0319.062827.7739.12565 1.0319-.18848 1.0319-.12565 1.2898-.062826 1.0319-.18848.7739.062827 1.0319.18848h.25797l1.2898-.87957h2.3217l.25797-.12565.25797.062826.51593-.12565.25797.062827.51593-.18848 1.0319-.18848.25797-.31413.51593-.18848.25797.062827.25797.18848h.25797l1.2898-.81674.25797.12565.7739-.43979.25797-.18848h.25797l1.0319-1.0052.51593-.12565.7739-.87957.25797-.31413.7739-.43979.51593-.62826.25797-.12565.25797-.50261.51593-.25131.51593-.18848.25797.12565.25797-.2513.51593-.18848.25797-.18848.25797.12565.25797-.25131h.25797l.25797-.12565.7739-.81674 1.2898.062826.25797-.18848 1.0319-.062827.7739-.12565.7739.12565 2.0637-.062826.7739-.12565h3.3536l.25797-.25131 1.2898-.062826 1.2898-.25131 1.8058-.062827.51593-.18848.25797.062826 1.0319-.12565 1.2898-.37696.25797-.12565.25797-.31413.51593-.18848.7739-.37696.25797.062826.25797-.18848.25797.12565h.25797l.25797-.18848h.51593l.51593-.31413.25797.062827.25797-.12565.25797.12565 1.0319-.43979.25797.062827 1.8058-.50261.25797.12565.51593-.12565.51593-.25131h.7739l1.2898-.56544.25797-.062827.51593-.56544.25797-.31413.51593-.18848.25797-.12565.25797-.31413.25797.062826.25797-.062826 1.2898-1.0052.25797-.50261 1.0319-.43979.25797-.37696.25797-.12565.25797-.50261 1.2898-.9424h.25797l.25797.18848.51593-.18848.25797-.18848h.25797l.25797.12565 1.0319-.31413.7739-.37696.25797.062827 1.0319-.18848 1.8058-.062826.51593-.062827 3.0956.062827.25797.12565 1.0319-.12565 2.5797.062826 1.5478.18848.7739-.25131.51593-.18848 1.0319-.18848.51593.12565.25797-.062827.25797.12565.25797-.062826.25797-.18848.25797.18848h.7739l.25797-.18848.25797.062827.51593-.31413.25797.12565.25797-.2513.25797.18848 1.2898-.062827m1.0319 0 .7739-.12565.51593-.31413.25797-.31413.51593-.062827h.25797l.51593-.37696.51593.12565.51593-.31413.25797.12565.25797-.31413.25797.18848.25797-.062826.7739-.9424.25797-.062827.25797-.25131.25797.062827.25797-.12565.25797-.56544 1.2898-1.3822.25797-.37696.25797-.062826.7739-.62826.25797-.18848.25797-.37696h.25797l.25797-.56544.51593-.56544h.51593l.25797-.12565.25797-.25131.25797.062827.25797-.062827.51593-.31413h.25797l1.0319-.62826.7739-.31413.25797.062827 1.2898-.25131.51593-.062827 1.0319-.18848.51593.12565 1.0319-.18848.25797.12565 2.3217.062827.25797.12565 1.2898-.062827.7739-.12565.51593.12565.51593-.062826.25797.062826.7739-.25131.25797-.12565.51593-.062826.25797-.18848.51593-.062826.25797-.062827.51593.062827h.7739l.51593-.25131 1.0319-.062826.7739-.31413h.25797l.51593-.25131 1.2898-.37696.51593.18848.51593-.18848.51593.2513.7739-.31413.51593-.12565.25797-.18848 1.0319.062826.7739-.50261h.25797l.51593-.50261h.51593l.25797-.25131h.25797l.25797-.18848.25797.12565.25797-.18848.25797-.37696.51593-.18848.51593-.50261 1.8058-1.6963.25797-.062826.25797-.81674.51593-.69109.25797-.50261 1.0319-.50261 1.0319-.9424.7739-.31413.25797.062827.7739-.31413.25797-.50261 1.0319-.50261.25797-.43978.51593-.25131h.25797l.25797-.12565.25797.12565.25797-.12565.51593.062826h.25797l.51593-.25131 2.8376-.062826.51593-.062827.7739.062827.25797.12565h4.9014l.25797-.12565h.7739l.7739-.37696h.25797l.25797-.18848.51593-.062827.51593-.18848.51593-.062827.25797.062827.51593-.25131h.25797l.25797-.18848.25797.062827.7739-.31413.25797-.062826.25797-.25131.51593.062827.25797-.18848.25797.062827.25797-.18848.25797.062827.25797-.18848.7739-.062826.25797.18848.7739-.18848.25797-.18848.25797.062827 1.0319-.56544.25797-.18848.25797.18848.25797-.12565h.51593l.25797-.18848h.51593l.25797-.12565h.25797l.25797-.25131.25797.062827 1.0319-.43978h.7739l.25797-.12565h.25797l1.2898-1.0052.7739-1.445.7739-.87957.51593-.18848 1.0319-.87957 1.5478-1.2565.25797-.31413.51593.062826 1.0319-.62826.7739-.37696.25797-.25131.25797.062826.25797-.12565.51593.062827.51593-.062827.51593-.18848.25797-.18848h.25797v0" clip-path="url(#b)" fill="none" stroke="#28f" stroke-linecap="square" stroke-width="1.5"/>
   </g>
   <g id="fh">
    <path d="m52 523.06v-232.9" fill="none" stroke="#000" stroke-linecap="square" stroke-width=".8"/>
   </g>
   <g id="fi">
    <path d="m853.2 523.06v-232.9" fill="none" stroke="#000" stroke-linecap="square" stroke-width=".8"/>
   </g>
   <g id="fj">
    <path d="m52 523.06h801.2" fill="none" stroke="#000" stroke-linecap="square" stroke-width=".8"/>
   </g>
   <g id="fk">
    <path d="m52 290.16h801.2" fill="none" stroke="#000" stroke-linecap="square" stroke-width=".8"/>
   </g>
   <g id="fl">
    <!-- サーバー数の推移 -->
    <g transform="translate(404.6 284.16) scale(.12 -.12)">
     <defs>
      <path id="z" transform="scale(.015625)" d="m4685 2893q0-621-84-1111-83-489-288-877-204-387-569-691t-928-560l-544 512q448 167 781 371 333 205 550 503 218 298 323 739 106 442 106 1075v1620q0 192-10 339-9 147-22 217h723q-6-70-22-217t-16-339v-1581zm-2304 2086q-7-64-23-199-16-134-16-313v-2317q0-128 6-256 7-128 13-224 7-96 13-140h-710q6 44 12 140 7 96 13 221 7 125 7 259v2317q0 122-10 256-9 135-28 256h723zm-1978-1197q45-12 144-22t237-20q138-9 285-9h4217q237 0 394 13t246 26v-679q-76 7-240 13-163 6-393 6h-4224q-147 0-282-3-134-3-234-10-99-6-150-12v697z"/>
      <path id="s" transform="scale(.015625)" d="m621 2854q109-6 265-16 157-9 339-16 183-6 349-6 128 0 352 0t509 0 598 0q314 0 624 0 311 0 586 0t486 0q212 0 327 0 230 0 416 16t301 22v-793q-109 6-308 19-198 13-409 13-109 0-324 0-214 0-489 0t-586 0q-310 0-624 0-313 0-598 0t-509 0-352 0q-262 0-525-10-262-9-428-22v793z"/>
      <path id="y" transform="scale(.015625)" d="m4941 5037q83-109 176-269t182-320q90-160 154-288l-416-179q-96 192-240 448t-272 435l416 173zm723 275q83-122 182-282 100-160 196-317 96-156 153-271l-416-186q-102 205-246 454-144 250-279 429l410 173zm-4339-3360q102 262 201 556 100 295 183 612t144 630q61 314 93 602l723-147q-19-83-45-183-26-99-48-195t-42-166q-32-154-86-394t-131-512-164-551q-86-278-182-514-115-301-269-618-153-317-326-618-173-300-346-550l-697 294q301 397 563 874t429 880zm3155 198q-96 250-215 531-118 282-243 567-124 285-246 534-122 250-224 429l659 218q96-179 221-429t253-535q128-284 249-566 122-281 218-525 90-230 195-518 106-288 211-592 106-304 195-589 90-285 154-515l-729-237q-84 352-199 736t-240 768-259 723z"/>
     </defs>
     <use xlink:href="#z"/>
     <use transform="translate(100)" xlink:href="#s"/>
     <use transform="translate(200)" xlink:href="#y"/>
     <use transform="translate(300)" xlink:href="#s"/>
     <use transform="translate(400)" xlink:href="#o"/>
     <use transform="translate(500)" xlink:href="#t"/>
     <use transform="translate(600)" xlink:href="#p"/>
     <use transform="translate(700)" xlink:href="#n"/>
    </g>
   </g>
  </g>
 </g>
 <defs>
  <clipPath id="c">
   <rect x="52" y="26.88" width="801.2" height="232.9"/>
  </clipPath>
  <clipPath id="b">
   <rect x="52" y="290.16" width="801.2" height="232.9"/>
  </clipPath>
 </defs>
</svg>
