<!DOCTYPE svg  PUBLIC '-//W3C//DTD SVG 1.1//EN'  'http://www.w3.org/Graphics/SVG/1.1/DTD/svg11.dtd'>
<svg version="1.1" viewBox="0 0 864 576" xmlns="http://www.w3.org/2000/svg" xmlns:xlink="http://www.w3.org/1999/xlink">
 <defs>
  <style type="text/css">*{stroke-linejoin: round; stroke-linecap: butt}</style>
 </defs>
 <g id="e">
  <g id="f">
   <path d="m0 576h864v-576h-864z" fill="#fff"/>
  </g>
  <g id="g">
   <g id="h">
    <path d="m40.84 262.97h812.36v-236.09h-812.36z" fill="#fff"/>
   </g>
   <g id="i">
    <g id="j">
     <g id="k">
      <path d="m62.859 262.97v-236.09" clip-path="url(#a)" fill="none" stroke="#b0b0b0" stroke-linecap="square" stroke-opacity=".3" stroke-width=".8"/>
     </g>
     <g id="l">
      <defs>
       <path id="b" d="m0 0v3.5" stroke="#000" stroke-width=".8"/>
      </defs>
      <use x="62.858959" y="262.972732" stroke="#000000" stroke-width=".8" xlink:href="#b"/>
     </g>
    </g>
    <g id="m">
     <g id="n">
      <path d="m156.07 262.97v-236.09" clip-path="url(#a)" fill="none" stroke="#b0b0b0" stroke-linecap="square" stroke-opacity=".3" stroke-width=".8"/>
     </g>
     <g id="o">
      <use x="156.065011" y="262.972732" stroke="#000000" stroke-width=".8" xlink:href="#b"/>
     </g>
    </g>
    <g id="p">
     <g id="q">
      <path d="m249.27 262.97v-236.09" clip-path="url(#a)" fill="none" stroke="#b0b0b0" stroke-linecap="square" stroke-opacity=".3" stroke-width=".8"/>
     </g>
     <g id="r">
      <use x="249.271063" y="262.972732" stroke="#000000" stroke-width=".8" xlink:href="#b"/>
     </g>
    </g>
    <g id="s">
     <g id="t">
      <path d="m342.48 262.97v-236.09" clip-path="url(#a)" fill="none" stroke="#b0b0b0" stroke-linecap="square" stroke-opacity=".3" stroke-width=".8"/>
     </g>
     <g id="u">
      <use x="342.477115" y="262.972732" stroke="#000000" stroke-width=".8" xlink:href="#b"/>
     </g>
    </g>
    <g id="v">
     <g id="w">
      <path d="m435.68 262.97v-236.09" clip-path="url(#a)" fill="none" stroke="#b0b0b0" stroke-linecap="square" stroke-opacity=".3" stroke-width=".8"/>
     </g>
     <g id="x">
      <use x="435.683167" y="262.972732" stroke="#000000" stroke-width=".8" xlink:href="#b"/>
     </g>
    </g>
    <g id="y">
     <g id="z">
      <path d="m528.89 262.97v-236.09" clip-path="url(#a)" fill="none" stroke="#b0b0b0" stroke-linecap="square" stroke-opacity=".3" stroke-width=".8"/>
     </g>
     <g id="aa">
      <use x="528.889219" y="262.972732" stroke="#000000" stroke-width=".8" xlink:href="#b"/>
     </g>
    </g>
    <g id="ab">
     <g id="ac">
      <path d="m622.1 262.97v-236.09" clip-path="url(#a)" fill="none" stroke="#b0b0b0" stroke-linecap="square" stroke-opacity=".3" stroke-width=".8"/>
     </g>
     <g id="ad">
      <use x="622.095271" y="262.972732" stroke="#000000" stroke-width=".8" xlink:href="#b"/>
     </g>
    </g>
    <g id="ae">
     <g id="af">
      <path d="m715.3 262.97v-236.09" clip-path="url(#a)" fill="none" stroke="#b0b0b0" stroke-linecap="square" stroke-opacity=".3" stroke-width=".8"/>
     </g>
     <g id="ag">
      <use x="715.301323" y="262.972732" stroke="#000000" stroke-width=".8" xlink:href="#b"/>
     </g>
    </g>
    <g id="ah">
     <g id="ai">
      <path d="m808.51 262.97v-236.09" clip-path="url(#a)" fill="none" stroke="#b0b0b0" stroke-linecap="square" stroke-opacity=".3" stroke-width=".8"/>
     </g>
     <g id="aj">
      <use x="808.507374" y="262.972732" stroke="#000000" stroke-width=".8" xlink:href="#b"/>
     </g>
    </g>
   </g>
   <g id="ak">
    <g id="al">
     <g id="am">
      <path d="m40.84 238.83h812.36" clip-path="url(#a)" fill="none" stroke="#b0b0b0" stroke-linecap="square" stroke-opacity=".3" stroke-width=".8"/>
     </g>
     <g id="an">
      <defs>
       <path id="d" d="m0 0h-3.5" stroke="#000" stroke-width=".8"/>
      </defs>
      <use x="40.84" y="238.826884" stroke="#000000" stroke-width=".8" xlink:href="#d"/>
     </g>
     <g id="ao">
      <text transform="rotate(-0 33.84 242.81)" x="33.84" y="242.812041" font-family="'Noto Sans JP'" font-size="10px" text-anchor="end">15</text>
     </g>
    </g>
    <g id="ap">
     <g id="aq">
      <path d="m40.84 210.08h812.36" clip-path="url(#a)" fill="none" stroke="#b0b0b0" stroke-linecap="square" stroke-opacity=".3" stroke-width=".8"/>
     </g>
     <g id="ar">
      <use x="40.84" y="210.081828" stroke="#000000" stroke-width=".8" xlink:href="#d"/>
     </g>
     <g id="as">
      <text transform="rotate(-0 33.84 214.07)" x="33.84" y="214.066984" font-family="'Noto Sans JP'" font-size="10px" text-anchor="end">30</text>
     </g>
    </g>
    <g id="at">
     <g id="au">
      <path d="m40.84 181.34h812.36" clip-path="url(#a)" fill="none" stroke="#b0b0b0" stroke-linecap="square" stroke-opacity=".3" stroke-width=".8"/>
     </g>
     <g id="av">
      <use x="40.84" y="181.336771" stroke="#000000" stroke-width=".8" xlink:href="#d"/>
     </g>
     <g id="aw">
      <text transform="rotate(-0 33.84 185.32)" x="33.84" y="185.321927" font-family="'Noto Sans JP'" font-size="10px" text-anchor="end">45</text>
     </g>
    </g>
    <g id="ax">
     <g id="ay">
      <path d="m40.84 152.59h812.36" clip-path="url(#a)" fill="none" stroke="#b0b0b0" stroke-linecap="square" stroke-opacity=".3" stroke-width=".8"/>
     </g>
     <g id="az">
      <use x="40.84" y="152.591714" stroke="#000000" stroke-width=".8" xlink:href="#d"/>
     </g>
     <g id="ba">
      <text transform="rotate(-0 33.84 156.58)" x="33.84" y="156.576871" font-family="'Noto Sans JP'" font-size="10px" text-anchor="end">60</text>
     </g>
    </g>
    <g id="bb">
     <g id="bc">
      <path d="m40.84 123.85h812.36" clip-path="url(#a)" fill="none" stroke="#b0b0b0" stroke-linecap="square" stroke-opacity=".3" stroke-width=".8"/>
     </g>
     <g id="bd">
      <use x="40.84" y="123.846658" stroke="#000000" stroke-width=".8" xlink:href="#d"/>
     </g>
     <g id="be">
      <text transform="rotate(-0 33.84 127.83)" x="33.84" y="127.831814" font-family="'Noto Sans JP'" font-size="10px" text-anchor="end">75</text>
     </g>
    </g>
    <g id="bf">
     <g id="bg">
      <path d="m40.84 95.102h812.36" clip-path="url(#a)" fill="none" stroke="#b0b0b0" stroke-linecap="square" stroke-opacity=".3" stroke-width=".8"/>
     </g>
     <g id="bh">
      <use x="40.84" y="95.101601" stroke="#000000" stroke-width=".8" xlink:href="#d"/>
     </g>
     <g id="bi">
      <text transform="rotate(-0 33.84 99.087)" x="33.84" y="99.086757" font-family="'Noto Sans JP'" font-size="10px" text-anchor="end">90</text>
     </g>
    </g>
    <g id="bj">
     <g id="bk">
      <path d="m40.84 66.357h812.36" clip-path="url(#a)" fill="none" stroke="#b0b0b0" stroke-linecap="square" stroke-opacity=".3" stroke-width=".8"/>
     </g>
     <g id="bl">
      <use x="40.84" y="66.356544" stroke="#000000" stroke-width=".8" xlink:href="#d"/>
     </g>
     <g id="bm">
      <text transform="rotate(-0 33.84 70.342)" x="33.84" y="70.341701" font-family="'Noto Sans JP'" font-size="10px" text-anchor="end">105</text>
     </g>
    </g>
    <g id="bn">
     <g id="bo">
      <path d="m40.84 37.611h812.36" clip-path="url(#a)" fill="none" stroke="#b0b0b0" stroke-linecap="square" stroke-opacity=".3" stroke-width=".8"/>
     </g>
     <g id="bp">
      <use x="40.84" y="37.611488" stroke="#000000" stroke-width=".8" xlink:href="#d"/>
     </g>
     <g id="bq">
      <text transform="rotate(-0 33.84 41.597)" x="33.84" y="41.596644" font-family="'Noto Sans JP'" font-size="10px" text-anchor="end">120</text>
     </g>
    </g>
   </g>
   <g id="br">
    <path d="m77.765 221.58h.69473l1.3463-5.749h.6861l1.8318-3.8327h1.9375l1.9483-3.8327h1.9375l2.013-9.5817 1.9332-3.8327 1.9461 1.9163 1.8296-3.8327 11.651-34.494 1.9418 1.9163 1.9418-3.8327 3.8836 7.6653 1.9418-5.749h1.9418l1.9418-5.749 1.9418 1.9163 3.8836-22.996 1.9418-7.6653 1.9418-19.163 1.9418-7.6653 1.9418-17.247 1.9418-13.414 3.8836-7.6653 1.9418 5.749 1.9418-11.498 1.9418-5.749 1.9418-7.6653 1.9418-1.9163 1.9418 1.9163 1.9418 7.6653h1.9418l3.8836 15.331 1.9418 19.163 1.9418 9.5817 1.9418 3.8327 1.9418 11.498 1.9418 15.331 3.8836 26.829 1.9418 7.6653 1.9418 5.749 1.9418 9.5817h1.9418l1.9418 1.9163 1.9418 7.6653 3.8836 7.6653 1.9418 1.9163 1.9418 3.8327 1.9418 5.749 1.9418-3.8327 1.9418 1.9163h3.8836l1.9418 1.9163 1.9418 11.498 1.9418 3.8327 1.9418 1.9163 3.8836 15.331h1.9418l1.9418 1.9163 1.9418 3.8327h1.9418l1.9418 1.9163 3.8836-3.8327h3.8836l1.9418-1.9163h1.9418l1.9418-1.9163 1.9418-7.6653 1.9418 1.9163 1.9418-1.9163h1.9418l3.8836 3.8327h1.9418l1.9418-1.9163 1.9418-3.8327 1.9418 1.9163 1.9418-1.9163h1.9418l1.9418-7.6653 3.8836-3.8327h3.8836l1.9418-5.749 1.9418-1.9163 1.9418-5.749h1.9418l1.9418-5.749 3.8836 3.8327 1.9418-5.749 1.9418-1.9163h1.9418l1.9418-1.9163 1.9418 5.749 3.8836-7.6653 1.9418-1.9163 1.9418-3.8327 1.9418-7.6653 1.9418-5.749h1.9418l1.9418-11.498 1.9418-5.749 1.9418-3.8327 1.9418-5.749 3.8836-19.163 1.9418-15.331 1.9418-7.6653 1.9418-5.749 1.9418-13.414 1.9418-3.8327 1.9418 3.8327 1.9418 1.9163 1.9418-3.8327 1.9418 1.9163 1.9418 5.749 1.9418 3.8327 1.9418 7.6653 1.9418 11.498h1.9418l1.9418 7.6653 1.9418 13.414 1.9418 7.6653 5.8254 28.745 1.9418 5.749 1.9418 9.5817 1.9418 3.8327 1.9418 5.749 1.9418 1.9163h1.9418l1.9418 5.749 1.9418 3.8327 1.9418 1.9163h1.9418l1.9418 7.6653 1.9418 1.9163 3.8836 7.6653 1.9418 5.749 1.9418 1.9163 1.9418 3.8327h3.8836l1.9418 1.9163h1.9418l1.9418 5.749h1.9418l1.9418 3.8327 1.9418-1.9163 1.9418 1.9163h3.8836l1.9418-1.9163 1.9418-3.8327 1.9418-1.9163h1.9418l1.9418-1.9163 1.9418-3.8327h3.8836l1.9418-1.9163 1.9418 3.8327h1.9418l1.9418-9.5817 1.9418 1.9163 1.9418-3.8327 3.8836-3.8327 1.9418-7.6653h1.9418l1.9418-3.8327 3.8836-3.8327 3.8836-7.6653 1.9418-5.749 3.8836-3.8327 1.9418 3.8327 1.9418 1.9163 1.9418-3.8327 1.9418-5.749 1.9418-1.9163 1.9418 7.6653 1.9418-5.749h1.9418l1.9418-3.8327 1.9418-5.749 1.9418-3.8327h1.9418l1.9418-5.749 3.8836-3.8327 1.9418-7.6653 1.9418-3.8327 1.9418-11.498 3.8836-3.8327 1.9418-15.331 1.9418-13.414 1.9418-7.6653 1.9418 1.9163 1.9418-5.749 1.9418-13.414 1.9418-22.996 1.9418 3.8327 1.9418 9.5817h1.9418l1.9418-1.9163 1.9418 5.749 1.9418 3.8327 1.9418 26.829h1.9418l1.9418 13.414h1.9418l1.9418 11.498 1.9418 7.6653 1.9418 5.749 1.9418 11.498 1.9418 5.749 1.9418 9.5817 1.9418 1.9163 1.9418 7.6653 1.9418 11.498 1.9418 3.8327 1.9418 5.749 1.9418 3.8327 1.9418 7.6653h1.9418l1.9418 7.6653h1.9418l1.9418 1.9163 1.9418-1.9163 1.9418 1.9163 1.9418 3.8327h1.9418l1.9418 1.9163 1.9418 5.749 1.9418 3.8327h1.9418l3.8836 7.6653 1.9418-1.9163h1.9418l3.8836 3.8327 2.5891 3.8327.64726 1.9163.64726 3.8327h5.8254l.64726-1.9163h1.9418l.64726-1.9163h1.2945l.64726 1.9163h.64726l.64726 1.9163.64726-3.8327h1.9418l1.2945-3.8327h.64726l.64726-1.9163h1.2945l1.2945-3.8327h2.5891l.64726 1.9163 1.2945-3.8327h1.2945l.64726-1.9163h.64726l.64726-1.9163h1.2945l.64726-1.9163h.64726l.64726-3.8327h.64726l.64726-1.9163h.64726l.64726-1.9163h.64726l.64726-3.8327h2.5891l1.2945-3.8327.64726-3.8327h2.5891l.64726-1.9163.64726 1.9163h2.5891l.64726-1.9163h2.5891l.64726 1.9163.64726-3.8327.64726 1.9163h.64726l1.2945 3.8327.64726-3.8327 1.9418-5.749.64726 1.9163h.64726l.64726-1.9163h.64726l.64726 1.9163.64726-3.8327h1.2945l1.2945-3.8327.64726-3.8327h.64726l.64726-5.749h1.9418l.64726 5.749.64726-1.9163h1.2945l1.2945-3.8327h1.2945l.64726-1.9163.64726 1.9163h.64726l.64726-3.8327.64726-1.9163h1.2945l.64726-3.8327 1.2945-3.8327.64726-3.8327h1.2945l.64726-5.749.64726-3.8327.64726-1.9163h.64726l.64726-5.749.64726 3.8327.64726-5.749h.64726l.64726-3.8327 1.2945-19.163.64726-1.9163.64726-3.8327.64726-1.9163.64726-5.749.64726-7.6653.64726-1.9163h.64726l.64726-5.749.64726 1.9163.64726-1.9163.64726 1.9163.64726-1.9163.64726 1.9163.64726-11.498.64726-1.9163 1.2945-11.498.64726-3.8327.64726-1.9163.64726 1.9163 1.2945-3.8327.64726-5.749.64726-1.9163.64726 3.8327h1.2945l.64726-3.8327h1.9418l.64726 1.9163h1.2945l1.2945 3.8327.64726-3.8327 1.2945 7.6653.64726 1.9163.64726 5.749.64726 3.8327.64726 5.749.64726 1.9163.64726 3.8327.64726 1.9163.64726 3.8327h.64726l.64726 1.9163.64726 3.8327.64726 1.9163h.64726l.64726 3.8327.64726 1.9163.64726-1.9163h.64726l.64726 1.9163.64726-1.9163.64726 1.9163.64726 5.749.64726 3.8327.64726 1.9163 1.2945 15.331.64726-1.9163.64726 5.749 1.2945 7.6653.64726 5.749h1.2945l.64726 3.8327.64726 1.9163.64726 5.749.64726 1.9163h1.2945l.64726 1.9163h.64726l.64726 1.9163h.64726l1.2945 3.8327h.64726l.64726 1.9163h1.9418l.64726 5.749h.64726l.64726 1.9163.64726 3.8327.64726 1.9163h.64726l.64726 3.8327h1.2945l.64726 1.9163h.64726l1.2945 3.8327h2.5891l.64726 3.8327h3.2363l1.9418 5.749h1.9418l.64726 1.9163h.64726l1.2945 3.8327h.64726l.64726 1.9163h.64726l1.2945 3.8327h.64726l1.9418 5.749h1.9418l.64726 1.9163h1.2945l.64726 1.9163h2.5891l.64726-1.9163.64726 1.9163.64726-1.9163.64726 1.9163h.64726l.64726 1.9163.64726-1.9163h2.5891l.64726 1.9163h2.5891l.64726-1.9163h6.4726l1.2945-3.8327 1.2945-1.9163h1.9418l.64726-1.9163h1.2945l1.2945-1.9163h1.2945l1.2945-1.9163 1.2945 1.9163 1.2945 5.749h3.8836l1.2945-1.9163h1.2945l2.5891 3.8327v0" clip-path="url(#a)" fill="none" stroke="#28f" stroke-linecap="square" stroke-width="1.5"/>
   </g>
   <g id="bs">
    <path d="m40.84 262.97v-236.09" fill="none" stroke="#000" stroke-linecap="square" stroke-width=".8"/>
   </g>
   <g id="bt">
    <path d="m853.2 262.97v-236.09" fill="none" stroke="#000" stroke-linecap="square" stroke-width=".8"/>
   </g>
   <g id="bu">
    <path d="m40.84 262.97h812.36" fill="none" stroke="#000" stroke-linecap="square" stroke-width=".8"/>
   </g>
   <g id="bv">
    <path d="m40.84 26.88h812.36" fill="none" stroke="#000" stroke-linecap="square" stroke-width=".8"/>
   </g>
   <g id="bw">
    <text transform="rotate(-0 447.02 20.88)" x="447.02" y="20.88" font-family="'Noto Sans JP'" font-size="12px" text-anchor="middle">同時接続数の推移</text>
   </g>
  </g>
  <g id="bx">
   <g id="by">
    <path d="m40.84 529.45h812.36v-236.09h-812.36z" fill="#fff"/>
   </g>
   <g id="bz">
    <g id="ca">
     <g id="cb">
      <path d="m62.859 529.45v-236.09" clip-path="url(#c)" fill="none" stroke="#b0b0b0" stroke-linecap="square" stroke-opacity=".3" stroke-width=".8"/>
     </g>
     <g id="cc">
      <use x="62.858959" y="529.445464" stroke="#000000" stroke-width=".8" xlink:href="#b"/>
     </g>
     <g id="cd">
      <text transform="translate(27.086 563.36) rotate(-30)" font-family="'Noto Sans JP'" font-size="10px">06-30 12</text>
     </g>
    </g>
    <g id="ce">
     <g id="cf">
      <path d="m156.07 529.45v-236.09" clip-path="url(#c)" fill="none" stroke="#b0b0b0" stroke-linecap="square" stroke-opacity=".3" stroke-width=".8"/>
     </g>
     <g id="cg">
      <use x="156.065011" y="529.445464" stroke="#000000" stroke-width=".8" xlink:href="#b"/>
     </g>
     <g id="ch">
      <text transform="translate(120.29 563.36) rotate(-30)" font-family="'Noto Sans JP'" font-size="10px">07-01 00</text>
     </g>
    </g>
    <g id="ci">
     <g id="cj">
      <path d="m249.27 529.45v-236.09" clip-path="url(#c)" fill="none" stroke="#b0b0b0" stroke-linecap="square" stroke-opacity=".3" stroke-width=".8"/>
     </g>
     <g id="ck">
      <use x="249.271063" y="529.445464" stroke="#000000" stroke-width=".8" xlink:href="#b"/>
     </g>
     <g id="cl">
      <text transform="translate(213.5 563.36) rotate(-30)" font-family="'Noto Sans JP'" font-size="10px">07-01 12</text>
     </g>
    </g>
    <g id="cm">
     <g id="cn">
      <path d="m342.48 529.45v-236.09" clip-path="url(#c)" fill="none" stroke="#b0b0b0" stroke-linecap="square" stroke-opacity=".3" stroke-width=".8"/>
     </g>
     <g id="co">
      <use x="342.477115" y="529.445464" stroke="#000000" stroke-width=".8" xlink:href="#b"/>
     </g>
     <g id="cp">
      <text transform="translate(306.7 563.36) rotate(-30)" font-family="'Noto Sans JP'" font-size="10px">07-02 00</text>
     </g>
    </g>
    <g id="cq">
     <g id="cr">
      <path d="m435.68 529.45v-236.09" clip-path="url(#c)" fill="none" stroke="#b0b0b0" stroke-linecap="square" stroke-opacity=".3" stroke-width=".8"/>
     </g>
     <g id="cs">
      <use x="435.683167" y="529.445464" stroke="#000000" stroke-width=".8" xlink:href="#b"/>
     </g>
     <g id="ct">
      <text transform="translate(399.91 563.36) rotate(-30)" font-family="'Noto Sans JP'" font-size="10px">07-02 12</text>
     </g>
    </g>
    <g id="cu">
     <g id="cv">
      <path d="m528.89 529.45v-236.09" clip-path="url(#c)" fill="none" stroke="#b0b0b0" stroke-linecap="square" stroke-opacity=".3" stroke-width=".8"/>
     </g>
     <g id="cw">
      <use x="528.889219" y="529.445464" stroke="#000000" stroke-width=".8" xlink:href="#b"/>
     </g>
     <g id="cx">
      <text transform="translate(493.12 563.36) rotate(-30)" font-family="'Noto Sans JP'" font-size="10px">07-03 00</text>
     </g>
    </g>
    <g id="cy">
     <g id="cz">
      <path d="m622.1 529.45v-236.09" clip-path="url(#c)" fill="none" stroke="#b0b0b0" stroke-linecap="square" stroke-opacity=".3" stroke-width=".8"/>
     </g>
     <g id="da">
      <use x="622.095271" y="529.445464" stroke="#000000" stroke-width=".8" xlink:href="#b"/>
     </g>
     <g id="db">
      <text transform="translate(586.32 563.36) rotate(-30)" font-family="'Noto Sans JP'" font-size="10px">07-03 12</text>
     </g>
    </g>
    <g id="dc">
     <g id="dd">
      <path d="m715.3 529.45v-236.09" clip-path="url(#c)" fill="none" stroke="#b0b0b0" stroke-linecap="square" stroke-opacity=".3" stroke-width=".8"/>
     </g>
     <g id="de">
      <use x="715.301323" y="529.445464" stroke="#000000" stroke-width=".8" xlink:href="#b"/>
     </g>
     <g id="df">
      <text transform="translate(679.53 563.36) rotate(-30)" font-family="'Noto Sans JP'" font-size="10px">07-04 00</text>
     </g>
    </g>
    <g id="dg">
     <g id="dh">
      <path d="m808.51 529.45v-236.09" clip-path="url(#c)" fill="none" stroke="#b0b0b0" stroke-linecap="square" stroke-opacity=".3" stroke-width=".8"/>
     </g>
     <g id="di">
      <use x="808.507374" y="529.445464" stroke="#000000" stroke-width=".8" xlink:href="#b"/>
     </g>
     <g id="dj">
      <text transform="translate(772.73 563.36) rotate(-30)" font-family="'Noto Sans JP'" font-size="10px">07-04 12</text>
     </g>
    </g>
   </g>
   <g id="dk">
    <g id="dl">
     <g id="dm">
      <path d="m40.84 497.25h812.36" clip-path="url(#c)" fill="none" stroke="#b0b0b0" stroke-linecap="square" stroke-opacity=".3" stroke-width=".8"/>
     </g>
     <g id="dn">
      <use x="40.84" y="497.251" stroke="#000000" stroke-width=".8" xlink:href="#d"/>
     </g>
     <g id="do">
      <text transform="rotate(-0 33.84 501.24)" x="33.84" y="501.236157" font-family="'Noto Sans JP'" font-size="10px" text-anchor="end">2964</text>
     </g>
    </g>
    <g id="dp">
     <g id="dq">
      <path d="m40.84 454.33h812.36" clip-path="url(#c)" fill="none" stroke="#b0b0b0" stroke-linecap="square" stroke-opacity=".3" stroke-width=".8"/>
     </g>
     <g id="dr">
      <use x="40.84" y="454.325049" stroke="#000000" stroke-width=".8" xlink:href="#d"/>
     </g>
     <g id="ds">
      <text transform="rotate(-0 33.84 458.31)" x="33.84" y="458.310205" font-family="'Noto Sans JP'" font-size="10px" text-anchor="end">2966</text>
     </g>
    </g>
    <g id="dt">
     <g id="du">
      <path d="m40.84 411.4h812.36" clip-path="url(#c)" fill="none" stroke="#b0b0b0" stroke-linecap="square" stroke-opacity=".3" stroke-width=".8"/>
     </g>
     <g id="dv">
      <use x="40.84" y="411.399098" stroke="#000000" stroke-width=".8" xlink:href="#d"/>
     </g>
     <g id="dw">
      <text transform="rotate(-0 33.84 415.38)" x="33.84" y="415.384254" font-family="'Noto Sans JP'" font-size="10px" text-anchor="end">2968</text>
     </g>
    </g>
    <g id="dx">
     <g id="dy">
      <path d="m40.84 368.47h812.36" clip-path="url(#c)" fill="none" stroke="#b0b0b0" stroke-linecap="square" stroke-opacity=".3" stroke-width=".8"/>
     </g>
     <g id="dz">
      <use x="40.84" y="368.473147" stroke="#000000" stroke-width=".8" xlink:href="#d"/>
     </g>
     <g id="ea">
      <text transform="rotate(-0 33.84 372.46)" x="33.84" y="372.458303" font-family="'Noto Sans JP'" font-size="10px" text-anchor="end">2970</text>
     </g>
    </g>
    <g id="eb">
     <g id="ec">
      <path d="m40.84 325.55h812.36" clip-path="url(#c)" fill="none" stroke="#b0b0b0" stroke-linecap="square" stroke-opacity=".3" stroke-width=".8"/>
     </g>
     <g id="ed">
      <use x="40.84" y="325.547195" stroke="#000000" stroke-width=".8" xlink:href="#d"/>
     </g>
     <g id="ee">
      <text transform="rotate(-0 33.84 329.53)" x="33.84" y="329.532352" font-family="'Noto Sans JP'" font-size="10px" text-anchor="end">2972</text>
     </g>
    </g>
   </g>
   <g id="ef">
    <path d="m77.765 518.71h16.274l1.8296-21.463h11.651l1.9418-21.463h11.651l1.9418-21.463h3.8836l3.8836-42.926h33.01l1.9418-21.463h122.33l1.9418 21.463h15.534l1.9418-21.463h7.7672l1.9418-21.463h5.8254l1.9418-21.463h17.476l1.9418 21.463h147.58l1.9418-21.463h50.487l1.9418 21.463h106.15l.64726-21.463.64726 21.463h42.072l.64726-21.463h6.4726l.64726 21.463h57.607l.64726-21.463h36.247l.64726-21.463h16.182l1.2945-21.463v0" clip-path="url(#c)" fill="none" stroke="#28f" stroke-linecap="square" stroke-width="1.5"/>
   </g>
   <g id="eg">
    <path d="m40.84 529.45v-236.09" fill="none" stroke="#000" stroke-linecap="square" stroke-width=".8"/>
   </g>
   <g id="eh">
    <path d="m853.2 529.45v-236.09" fill="none" stroke="#000" stroke-linecap="square" stroke-width=".8"/>
   </g>
   <g id="ei">
    <path d="m40.84 529.45h812.36" fill="none" stroke="#000" stroke-linecap="square" stroke-width=".8"/>
   </g>
   <g id="ej">
    <path d="m40.84 293.35h812.36" fill="none" stroke="#000" stroke-linecap="square" stroke-width=".8"/>
   </g>
   <g id="ek">
    <text transform="rotate(-0 447.02 287.35)" x="447.02" y="287.352732" font-family="'Noto Sans JP'" font-size="12px" text-anchor="middle">サーバー数の推移</text>
   </g>
  </g>
 </g>
 <defs>
  <clipPath id="a">
   <rect x="40.84" y="26.88" width="812.36" height="236.09"/>
  </clipPath>
  <clipPath id="c">
   <rect x="40.84" y="293.35" width="812.36" height="236.09"/>
  </clipPath>
 </defs>
</svg>
