<?xml version="1.0" encoding="utf-8" standalone="no"?>
<!DOCTYPE svg PUBLIC "-//W3C//DTD SVG 1.1//EN"
  "http://www.w3.org/Graphics/SVG/1.1/DTD/svg11.dtd">
<svg xmlns:xlink="http://www.w3.org/1999/xlink" width="864pt" height="576pt" viewBox="0 0 864 576" xmlns="http://www.w3.org/2000/svg" version="1.1">
 <metadata>
  <rdf:RDF xmlns:dc="http://purl.org/dc/elements/1.1/" xmlns:cc="http://creativecommons.org/ns#" xmlns:rdf="http://www.w3.org/1999/02/22-rdf-syntax-ns#">
   <cc:Work>
    <dc:type rdf:resource="http://purl.org/dc/dcmitype/StillImage"/>
    <dc:date>2025-07-04T01:16:39.069867</dc:date>
    <dc:format>image/svg+xml</dc:format>
    <dc:creator>
     <cc:Agent>
      <dc:title>Matplotlib v3.10.3, https://matplotlib.org/</dc:title>
     </cc:Agent>
    </dc:creator>
   </cc:Work>
  </rdf:RDF>
 </metadata>
 <defs>
  <style type="text/css">*{stroke-linejoin: round; stroke-linecap: butt}</style>
 </defs>
 <g id="figure_1">
  <g id="patch_1">
   <path d="M 0 576 
L 864 576 
L 864 0 
L 0 0 
z
" style="fill: #ffffff"/>
  </g>
  <g id="axes_1">
   <g id="patch_2">
    <path d="M 40.84 262.972732 
L 853.2 262.972732 
L 853.2 26.88 
L 40.84 26.88 
z
" style="fill: #ffffff"/>
   </g>
   <g id="matplotlib.axis_1">
    <g id="xtick_1">
     <g id="line2d_1">
      <path d="M 62.414981 262.972732 
L 62.414981 26.88 
" clip-path="url(#p4d086390c6)" style="fill: none; stroke: #b0b0b0; stroke-opacity: 0.3; stroke-width: 0.8; stroke-linecap: square"/>
     </g>
     <g id="line2d_2">
      <defs>
       <path id="m8dc26248b6" d="M 0 0 
L 0 3.5 
" style="stroke: #000000; stroke-width: 0.8"/>
      </defs>
      <g>
       <use xlink:href="#m8dc26248b6" x="62.414981" y="262.972732" style="stroke: #000000; stroke-width: 0.8"/>
      </g>
     </g>
    </g>
    <g id="xtick_2">
     <g id="line2d_3">
      <path d="M 158.3971 262.972732 
L 158.3971 26.88 
" clip-path="url(#p4d086390c6)" style="fill: none; stroke: #b0b0b0; stroke-opacity: 0.3; stroke-width: 0.8; stroke-linecap: square"/>
     </g>
     <g id="line2d_4">
      <g>
       <use xlink:href="#m8dc26248b6" x="158.3971" y="262.972732" style="stroke: #000000; stroke-width: 0.8"/>
      </g>
     </g>
    </g>
    <g id="xtick_3">
     <g id="line2d_5">
      <path d="M 254.37922 262.972732 
L 254.37922 26.88 
" clip-path="url(#p4d086390c6)" style="fill: none; stroke: #b0b0b0; stroke-opacity: 0.3; stroke-width: 0.8; stroke-linecap: square"/>
     </g>
     <g id="line2d_6">
      <g>
       <use xlink:href="#m8dc26248b6" x="254.37922" y="262.972732" style="stroke: #000000; stroke-width: 0.8"/>
      </g>
     </g>
    </g>
    <g id="xtick_4">
     <g id="line2d_7">
      <path d="M 350.36134 262.972732 
L 350.36134 26.88 
" clip-path="url(#p4d086390c6)" style="fill: none; stroke: #b0b0b0; stroke-opacity: 0.3; stroke-width: 0.8; stroke-linecap: square"/>
     </g>
     <g id="line2d_8">
      <g>
       <use xlink:href="#m8dc26248b6" x="350.36134" y="262.972732" style="stroke: #000000; stroke-width: 0.8"/>
      </g>
     </g>
    </g>
    <g id="xtick_5">
     <g id="line2d_9">
      <path d="M 446.343459 262.972732 
L 446.343459 26.88 
" clip-path="url(#p4d086390c6)" style="fill: none; stroke: #b0b0b0; stroke-opacity: 0.3; stroke-width: 0.8; stroke-linecap: square"/>
     </g>
     <g id="line2d_10">
      <g>
       <use xlink:href="#m8dc26248b6" x="446.343459" y="262.972732" style="stroke: #000000; stroke-width: 0.8"/>
      </g>
     </g>
    </g>
    <g id="xtick_6">
     <g id="line2d_11">
      <path d="M 542.325579 262.972732 
L 542.325579 26.88 
" clip-path="url(#p4d086390c6)" style="fill: none; stroke: #b0b0b0; stroke-opacity: 0.3; stroke-width: 0.8; stroke-linecap: square"/>
     </g>
     <g id="line2d_12">
      <g>
       <use xlink:href="#m8dc26248b6" x="542.325579" y="262.972732" style="stroke: #000000; stroke-width: 0.8"/>
      </g>
     </g>
    </g>
    <g id="xtick_7">
     <g id="line2d_13">
      <path d="M 638.307699 262.972732 
L 638.307699 26.88 
" clip-path="url(#p4d086390c6)" style="fill: none; stroke: #b0b0b0; stroke-opacity: 0.3; stroke-width: 0.8; stroke-linecap: square"/>
     </g>
     <g id="line2d_14">
      <g>
       <use xlink:href="#m8dc26248b6" x="638.307699" y="262.972732" style="stroke: #000000; stroke-width: 0.8"/>
      </g>
     </g>
    </g>
    <g id="xtick_8">
     <g id="line2d_15">
      <path d="M 734.289818 262.972732 
L 734.289818 26.88 
" clip-path="url(#p4d086390c6)" style="fill: none; stroke: #b0b0b0; stroke-opacity: 0.3; stroke-width: 0.8; stroke-linecap: square"/>
     </g>
     <g id="line2d_16">
      <g>
       <use xlink:href="#m8dc26248b6" x="734.289818" y="262.972732" style="stroke: #000000; stroke-width: 0.8"/>
      </g>
     </g>
    </g>
    <g id="xtick_9">
     <g id="line2d_17">
      <path d="M 830.271938 262.972732 
L 830.271938 26.88 
" clip-path="url(#p4d086390c6)" style="fill: none; stroke: #b0b0b0; stroke-opacity: 0.3; stroke-width: 0.8; stroke-linecap: square"/>
     </g>
     <g id="line2d_18">
      <g>
       <use xlink:href="#m8dc26248b6" x="830.271938" y="262.972732" style="stroke: #000000; stroke-width: 0.8"/>
      </g>
     </g>
    </g>
   </g>
   <g id="matplotlib.axis_2">
    <g id="ytick_1">
     <g id="line2d_19">
      <path d="M 40.84 238.826884 
L 853.2 238.826884 
" clip-path="url(#p4d086390c6)" style="fill: none; stroke: #b0b0b0; stroke-opacity: 0.3; stroke-width: 0.8; stroke-linecap: square"/>
     </g>
     <g id="line2d_20">
      <defs>
       <path id="m6cc514e9bf" d="M 0 0 
L -3.5 0 
" style="stroke: #000000; stroke-width: 0.8"/>
      </defs>
      <g>
       <use xlink:href="#m6cc514e9bf" x="40.84" y="238.826884" style="stroke: #000000; stroke-width: 0.8"/>
      </g>
     </g>
     <g id="text_1">
      <!-- 15 -->
      <g transform="translate(22.44 242.812041) scale(0.1 -0.1)">
       <defs>
        <path id="NotoSansJP-Medium-31" d="M 544 0 
L 544 608 
L 1581 608 
L 1581 3885 
L 736 3885 
L 736 4352 
Q 1069 4410 1315 4499 
Q 1562 4589 1766 4717 
L 2323 4717 
L 2323 608 
L 3238 608 
L 3238 0 
L 544 0 
z
" transform="scale(0.015625)"/>
        <path id="NotoSansJP-Medium-35" d="M 1715 -90 
Q 1350 -90 1062 0 
Q 774 90 556 237 
Q 339 384 173 544 
L 525 1024 
Q 659 890 819 778 
Q 979 666 1180 595 
Q 1382 525 1632 525 
Q 1894 525 2105 643 
Q 2317 762 2438 989 
Q 2560 1216 2560 1530 
Q 2560 1990 2313 2246 
Q 2067 2502 1664 2502 
Q 1440 2502 1280 2438 
Q 1120 2374 915 2240 
L 550 2477 
L 691 4717 
L 3078 4717 
L 3078 4090 
L 1331 4090 
L 1222 2886 
Q 1376 2963 1529 3004 
Q 1683 3046 1869 3046 
Q 2266 3046 2592 2886 
Q 2918 2726 3110 2396 
Q 3302 2067 3302 1549 
Q 3302 1030 3078 662 
Q 2854 294 2492 102 
Q 2131 -90 1715 -90 
z
" transform="scale(0.015625)"/>
       </defs>
       <use xlink:href="#NotoSansJP-Medium-31"/>
       <use xlink:href="#NotoSansJP-Medium-35" transform="translate(56.999985 0)"/>
      </g>
     </g>
    </g>
    <g id="ytick_2">
     <g id="line2d_21">
      <path d="M 40.84 210.081828 
L 853.2 210.081828 
" clip-path="url(#p4d086390c6)" style="fill: none; stroke: #b0b0b0; stroke-opacity: 0.3; stroke-width: 0.8; stroke-linecap: square"/>
     </g>
     <g id="line2d_22">
      <g>
       <use xlink:href="#m6cc514e9bf" x="40.84" y="210.081828" style="stroke: #000000; stroke-width: 0.8"/>
      </g>
     </g>
     <g id="text_2">
      <!-- 30 -->
      <g transform="translate(22.44 214.066984) scale(0.1 -0.1)">
       <defs>
        <path id="NotoSansJP-Medium-33" d="M 1715 -90 
Q 1344 -90 1059 0 
Q 774 90 556 240 
Q 339 390 179 563 
L 538 1037 
Q 749 832 1017 678 
Q 1286 525 1651 525 
Q 1920 525 2118 617 
Q 2317 710 2429 883 
Q 2541 1056 2541 1306 
Q 2541 1562 2416 1757 
Q 2291 1952 1987 2057 
Q 1683 2163 1152 2163 
L 1152 2714 
Q 1619 2714 1884 2819 
Q 2150 2925 2268 3110 
Q 2387 3296 2387 3533 
Q 2387 3840 2195 4022 
Q 2003 4205 1664 4205 
Q 1395 4205 1161 4086 
Q 928 3968 723 3770 
L 339 4230 
Q 621 4486 953 4643 
Q 1286 4800 1690 4800 
Q 2112 4800 2438 4656 
Q 2765 4512 2950 4243 
Q 3136 3974 3136 3584 
Q 3136 3181 2915 2899 
Q 2694 2618 2323 2477 
L 2323 2451 
Q 2592 2381 2813 2224 
Q 3034 2067 3162 1824 
Q 3290 1581 3290 1267 
Q 3290 845 3075 541 
Q 2861 237 2502 73 
Q 2144 -90 1715 -90 
z
" transform="scale(0.015625)"/>
        <path id="NotoSansJP-Medium-30" d="M 1830 -90 
Q 1370 -90 1024 185 
Q 678 461 489 1008 
Q 301 1555 301 2374 
Q 301 3194 489 3731 
Q 678 4269 1024 4534 
Q 1370 4800 1830 4800 
Q 2291 4800 2630 4531 
Q 2970 4262 3158 3728 
Q 3347 3194 3347 2374 
Q 3347 1555 3158 1008 
Q 2970 461 2630 185 
Q 2291 -90 1830 -90 
z
M 1830 499 
Q 2067 499 2252 684 
Q 2438 870 2540 1283 
Q 2643 1696 2643 2374 
Q 2643 3053 2540 3456 
Q 2438 3859 2252 4038 
Q 2067 4218 1830 4218 
Q 1594 4218 1408 4038 
Q 1222 3859 1116 3456 
Q 1011 3053 1011 2374 
Q 1011 1696 1116 1283 
Q 1222 870 1408 684 
Q 1594 499 1830 499 
z
" transform="scale(0.015625)"/>
       </defs>
       <use xlink:href="#NotoSansJP-Medium-33"/>
       <use xlink:href="#NotoSansJP-Medium-30" transform="translate(56.999985 0)"/>
      </g>
     </g>
    </g>
    <g id="ytick_3">
     <g id="line2d_23">
      <path d="M 40.84 181.336771 
L 853.2 181.336771 
" clip-path="url(#p4d086390c6)" style="fill: none; stroke: #b0b0b0; stroke-opacity: 0.3; stroke-width: 0.8; stroke-linecap: square"/>
     </g>
     <g id="line2d_24">
      <g>
       <use xlink:href="#m6cc514e9bf" x="40.84" y="181.336771" style="stroke: #000000; stroke-width: 0.8"/>
      </g>
     </g>
     <g id="text_3">
      <!-- 45 -->
      <g transform="translate(22.44 185.321927) scale(0.1 -0.1)">
       <defs>
        <path id="NotoSansJP-Medium-34" d="M 2170 0 
L 2170 3072 
Q 2170 3264 2182 3529 
Q 2195 3795 2202 3987 
L 2176 3987 
Q 2086 3808 1993 3622 
Q 1901 3437 1798 3258 
L 877 1843 
L 3456 1843 
L 3456 1267 
L 128 1267 
L 128 1760 
L 2003 4717 
L 2861 4717 
L 2861 0 
L 2170 0 
z
" transform="scale(0.015625)"/>
       </defs>
       <use xlink:href="#NotoSansJP-Medium-34"/>
       <use xlink:href="#NotoSansJP-Medium-35" transform="translate(56.999985 0)"/>
      </g>
     </g>
    </g>
    <g id="ytick_4">
     <g id="line2d_25">
      <path d="M 40.84 152.591714 
L 853.2 152.591714 
" clip-path="url(#p4d086390c6)" style="fill: none; stroke: #b0b0b0; stroke-opacity: 0.3; stroke-width: 0.8; stroke-linecap: square"/>
     </g>
     <g id="line2d_26">
      <g>
       <use xlink:href="#m6cc514e9bf" x="40.84" y="152.591714" style="stroke: #000000; stroke-width: 0.8"/>
      </g>
     </g>
     <g id="text_4">
      <!-- 60 -->
      <g transform="translate(22.44 156.576871) scale(0.1 -0.1)">
       <defs>
        <path id="NotoSansJP-Medium-36" d="M 1971 -90 
Q 1632 -90 1337 54 
Q 1043 198 819 489 
Q 595 781 467 1222 
Q 339 1664 339 2266 
Q 339 2944 486 3427 
Q 634 3910 883 4211 
Q 1133 4512 1453 4656 
Q 1773 4800 2118 4800 
Q 2515 4800 2806 4653 
Q 3098 4506 3296 4294 
L 2893 3846 
Q 2765 4000 2566 4099 
Q 2368 4198 2157 4198 
Q 1850 4198 1590 4016 
Q 1331 3834 1177 3411 
Q 1024 2989 1024 2266 
Q 1024 1658 1139 1264 
Q 1254 870 1465 675 
Q 1677 480 1958 480 
Q 2170 480 2333 601 
Q 2496 723 2592 944 
Q 2688 1165 2688 1466 
Q 2688 1766 2598 1977 
Q 2509 2189 2339 2297 
Q 2170 2406 1920 2406 
Q 1709 2406 1469 2272 
Q 1229 2138 1011 1811 
L 986 2349 
Q 1120 2541 1299 2672 
Q 1478 2803 1673 2873 
Q 1869 2944 2048 2944 
Q 2445 2944 2742 2781 
Q 3040 2618 3209 2291 
Q 3379 1965 3379 1466 
Q 3379 998 3184 649 
Q 2989 301 2672 105 
Q 2355 -90 1971 -90 
z
" transform="scale(0.015625)"/>
       </defs>
       <use xlink:href="#NotoSansJP-Medium-36"/>
       <use xlink:href="#NotoSansJP-Medium-30" transform="translate(56.999985 0)"/>
      </g>
     </g>
    </g>
    <g id="ytick_5">
     <g id="line2d_27">
      <path d="M 40.84 123.846658 
L 853.2 123.846658 
" clip-path="url(#p4d086390c6)" style="fill: none; stroke: #b0b0b0; stroke-opacity: 0.3; stroke-width: 0.8; stroke-linecap: square"/>
     </g>
     <g id="line2d_28">
      <g>
       <use xlink:href="#m6cc514e9bf" x="40.84" y="123.846658" style="stroke: #000000; stroke-width: 0.8"/>
      </g>
     </g>
     <g id="text_5">
      <!-- 75 -->
      <g transform="translate(22.44 127.831814) scale(0.1 -0.1)">
       <defs>
        <path id="NotoSansJP-Medium-37" d="M 1235 0 
Q 1267 646 1344 1187 
Q 1421 1728 1568 2211 
Q 1715 2694 1952 3152 
Q 2189 3610 2528 4090 
L 320 4090 
L 320 4717 
L 3347 4717 
L 3347 4262 
Q 2938 3750 2682 3273 
Q 2426 2797 2285 2304 
Q 2144 1811 2080 1251 
Q 2016 691 1990 0 
L 1235 0 
z
" transform="scale(0.015625)"/>
       </defs>
       <use xlink:href="#NotoSansJP-Medium-37"/>
       <use xlink:href="#NotoSansJP-Medium-35" transform="translate(56.999985 0)"/>
      </g>
     </g>
    </g>
    <g id="ytick_6">
     <g id="line2d_29">
      <path d="M 40.84 95.101601 
L 853.2 95.101601 
" clip-path="url(#p4d086390c6)" style="fill: none; stroke: #b0b0b0; stroke-opacity: 0.3; stroke-width: 0.8; stroke-linecap: square"/>
     </g>
     <g id="line2d_30">
      <g>
       <use xlink:href="#m6cc514e9bf" x="40.84" y="95.101601" style="stroke: #000000; stroke-width: 0.8"/>
      </g>
     </g>
     <g id="text_6">
      <!-- 90 -->
      <g transform="translate(22.44 99.086757) scale(0.1 -0.1)">
       <defs>
        <path id="NotoSansJP-Medium-39" d="M 1562 -90 
Q 1152 -90 854 60 
Q 557 211 352 416 
L 755 877 
Q 896 717 1101 621 
Q 1306 525 1523 525 
Q 1747 525 1948 627 
Q 2150 730 2300 960 
Q 2451 1190 2537 1574 
Q 2624 1958 2624 2515 
Q 2624 3104 2509 3485 
Q 2394 3866 2186 4048 
Q 1978 4230 1690 4230 
Q 1485 4230 1318 4112 
Q 1152 3994 1056 3776 
Q 960 3558 960 3251 
Q 960 2950 1046 2739 
Q 1133 2528 1305 2416 
Q 1478 2304 1722 2304 
Q 1946 2304 2182 2445 
Q 2419 2586 2630 2906 
L 2662 2362 
Q 2528 2182 2349 2048 
Q 2170 1914 1978 1840 
Q 1786 1766 1594 1766 
Q 1203 1766 905 1932 
Q 608 2099 438 2428 
Q 269 2758 269 3251 
Q 269 3718 464 4067 
Q 659 4416 979 4608 
Q 1299 4800 1677 4800 
Q 2016 4800 2313 4662 
Q 2611 4525 2832 4243 
Q 3053 3962 3181 3533 
Q 3309 3104 3309 2515 
Q 3309 1824 3168 1328 
Q 3027 832 2777 521 
Q 2528 211 2214 60 
Q 1901 -90 1562 -90 
z
" transform="scale(0.015625)"/>
       </defs>
       <use xlink:href="#NotoSansJP-Medium-39"/>
       <use xlink:href="#NotoSansJP-Medium-30" transform="translate(56.999985 0)"/>
      </g>
     </g>
    </g>
    <g id="ytick_7">
     <g id="line2d_31">
      <path d="M 40.84 66.356544 
L 853.2 66.356544 
" clip-path="url(#p4d086390c6)" style="fill: none; stroke: #b0b0b0; stroke-opacity: 0.3; stroke-width: 0.8; stroke-linecap: square"/>
     </g>
     <g id="line2d_32">
      <g>
       <use xlink:href="#m6cc514e9bf" x="40.84" y="66.356544" style="stroke: #000000; stroke-width: 0.8"/>
      </g>
     </g>
     <g id="text_7">
      <!-- 105 -->
      <g transform="translate(16.74 70.341701) scale(0.1 -0.1)">
       <use xlink:href="#NotoSansJP-Medium-31"/>
       <use xlink:href="#NotoSansJP-Medium-30" transform="translate(56.999985 0)"/>
       <use xlink:href="#NotoSansJP-Medium-35" transform="translate(113.999969 0)"/>
      </g>
     </g>
    </g>
    <g id="ytick_8">
     <g id="line2d_33">
      <path d="M 40.84 37.611488 
L 853.2 37.611488 
" clip-path="url(#p4d086390c6)" style="fill: none; stroke: #b0b0b0; stroke-opacity: 0.3; stroke-width: 0.8; stroke-linecap: square"/>
     </g>
     <g id="line2d_34">
      <g>
       <use xlink:href="#m6cc514e9bf" x="40.84" y="37.611488" style="stroke: #000000; stroke-width: 0.8"/>
      </g>
     </g>
     <g id="text_8">
      <!-- 120 -->
      <g transform="translate(16.74 41.596644) scale(0.1 -0.1)">
       <defs>
        <path id="NotoSansJP-Medium-32" d="M 282 0 
L 282 429 
Q 979 1050 1446 1565 
Q 1914 2080 2147 2521 
Q 2381 2963 2381 3347 
Q 2381 3603 2294 3798 
Q 2208 3994 2032 4099 
Q 1856 4205 1587 4205 
Q 1312 4205 1081 4054 
Q 851 3904 659 3686 
L 243 4096 
Q 544 4429 880 4614 
Q 1216 4800 1683 4800 
Q 2112 4800 2432 4624 
Q 2752 4448 2928 4131 
Q 3104 3814 3104 3386 
Q 3104 2931 2880 2467 
Q 2656 2003 2265 1532 
Q 1875 1062 1376 582 
Q 1562 602 1770 618 
Q 1978 634 2144 634 
L 3328 634 
L 3328 0 
L 282 0 
z
" transform="scale(0.015625)"/>
       </defs>
       <use xlink:href="#NotoSansJP-Medium-31"/>
       <use xlink:href="#NotoSansJP-Medium-32" transform="translate(56.999985 0)"/>
       <use xlink:href="#NotoSansJP-Medium-30" transform="translate(113.999969 0)"/>
      </g>
     </g>
    </g>
   </g>
   <g id="line2d_35">
    <path d="M 77.765455 221.57985 
L 78.480877 221.57985 
L 79.867285 215.830839 
L 80.57382 215.830839 
L 82.460136 211.998165 
L 84.455319 211.998165 
L 86.461612 208.165491 
L 88.456796 208.165491 
L 90.529743 198.583805 
L 92.520484 194.751131 
L 94.524555 196.667468 
L 96.408648 192.834794 
L 108.406413 158.340726 
L 110.406041 160.257063 
L 112.405668 156.424389 
L 116.404923 164.089737 
L 118.404551 158.340726 
L 120.404178 158.340726 
L 122.403806 152.591714 
L 124.403433 154.508052 
L 128.402688 131.512006 
L 130.402316 123.846658 
L 132.401943 104.683287 
L 134.401571 97.017938 
L 136.401198 79.770904 
L 138.400826 66.356544 
L 142.400081 58.691196 
L 144.399708 64.440207 
L 146.399336 52.942185 
L 148.398963 47.193173 
L 150.39859 39.527825 
L 152.398218 37.611488 
L 154.397845 39.527825 
L 156.397473 47.193173 
L 158.3971 47.193173 
L 162.396355 62.52387 
L 164.395983 81.687241 
L 166.39561 91.268927 
L 168.395238 95.101601 
L 170.394865 106.599624 
L 172.394493 121.930321 
L 176.393748 148.75904 
L 178.393375 156.424389 
L 180.393003 162.1734 
L 182.39263 171.755086 
L 184.392258 171.755086 
L 186.391885 173.671423 
L 188.391513 181.336771 
L 192.390768 189.00212 
L 194.390395 190.918457 
L 196.390023 194.751131 
L 198.38965 200.500142 
L 200.389278 196.667468 
L 202.388905 198.583805 
L 206.38816 198.583805 
L 208.387788 200.500142 
L 210.387415 211.998165 
L 212.387043 215.830839 
L 214.38667 217.747176 
L 218.385925 233.077873 
L 220.385553 233.077873 
L 222.38518 234.99421 
L 224.384808 238.826884 
L 226.384435 238.826884 
L 228.384063 240.743221 
L 232.383318 236.910547 
L 236.382573 236.910547 
L 238.3822 234.99421 
L 240.381828 234.99421 
L 242.381455 233.077873 
L 244.381083 225.412525 
L 246.38071 227.328862 
L 248.380338 225.412525 
L 250.379965 225.412525 
L 254.37922 229.245199 
L 256.378848 229.245199 
L 258.378475 227.328862 
L 260.378103 223.496187 
L 262.37773 225.412525 
L 264.377358 223.496187 
L 266.376985 223.496187 
L 268.376613 215.830839 
L 272.375868 211.998165 
L 276.375123 211.998165 
L 278.37475 206.249154 
L 280.374377 204.332816 
L 282.374005 198.583805 
L 284.373632 198.583805 
L 286.37326 192.834794 
L 290.372515 196.667468 
L 292.372142 190.918457 
L 294.37177 189.00212 
L 296.371397 189.00212 
L 298.371025 187.085782 
L 300.370652 192.834794 
L 304.369907 185.169445 
L 306.369535 183.253108 
L 308.369162 179.420434 
L 310.36879 171.755086 
L 312.368417 166.006074 
L 314.368045 166.006074 
L 316.367672 154.508052 
L 318.3673 148.75904 
L 320.366927 144.926366 
L 322.366555 139.177355 
L 326.36581 120.013984 
L 328.365437 104.683287 
L 330.365065 97.017938 
L 332.364692 91.268927 
L 334.36432 77.854567 
L 336.363947 74.021893 
L 338.363575 77.854567 
L 340.363202 79.770904 
L 342.36283 75.93823 
L 344.362457 77.854567 
L 346.362085 83.603578 
L 348.361712 87.436253 
L 350.36134 95.101601 
L 352.360967 106.599624 
L 354.360595 106.599624 
L 356.360222 114.264972 
L 358.35985 127.679332 
L 360.359477 135.34468 
L 366.35836 164.089737 
L 368.357987 169.838748 
L 370.357615 179.420434 
L 372.357242 183.253108 
L 374.35687 189.00212 
L 376.356497 190.918457 
L 378.356125 190.918457 
L 380.355752 196.667468 
L 382.35538 200.500142 
L 384.355007 202.416479 
L 386.354635 202.416479 
L 388.354262 210.081828 
L 390.35389 211.998165 
L 394.353145 219.663513 
L 396.352772 225.412525 
L 398.3524 227.328862 
L 400.352027 231.161536 
L 404.351282 231.161536 
L 406.35091 233.077873 
L 408.350537 233.077873 
L 410.350165 238.826884 
L 412.349792 238.826884 
L 414.349419 242.659559 
L 416.349047 240.743221 
L 418.348674 242.659559 
L 422.347929 242.659559 
L 424.347557 240.743221 
L 426.347184 236.910547 
L 428.346812 234.99421 
L 430.346439 234.99421 
L 432.346067 233.077873 
L 434.345694 229.245199 
L 438.344949 229.245199 
L 440.344577 227.328862 
L 442.344204 231.161536 
L 444.343832 231.161536 
L 446.343459 221.57985 
L 448.343087 223.496187 
L 450.342714 219.663513 
L 454.341969 215.830839 
L 456.341597 208.165491 
L 458.341224 208.165491 
L 460.340852 204.332816 
L 464.340107 200.500142 
L 468.339362 192.834794 
L 470.338989 187.085782 
L 474.338244 183.253108 
L 476.337872 187.085782 
L 478.337499 189.00212 
L 480.337127 185.169445 
L 482.336754 179.420434 
L 484.336382 177.504097 
L 486.336009 185.169445 
L 488.335637 179.420434 
L 490.335264 179.420434 
L 492.334892 175.58776 
L 494.334519 169.838748 
L 496.334147 166.006074 
L 498.333774 166.006074 
L 500.333402 160.257063 
L 504.332657 156.424389 
L 506.332284 148.75904 
L 508.331912 144.926366 
L 510.331539 133.428343 
L 514.330794 129.595669 
L 516.330422 114.264972 
L 518.330049 100.850612 
L 520.329677 93.185264 
L 522.329304 95.101601 
L 524.328932 89.35259 
L 526.328559 75.93823 
L 528.328187 52.942185 
L 530.327814 56.774859 
L 532.327442 66.356544 
L 534.327069 66.356544 
L 536.326697 64.440207 
L 538.326324 70.189219 
L 540.325952 74.021893 
L 542.325579 100.850612 
L 544.325206 100.850612 
L 546.324834 114.264972 
L 548.324461 114.264972 
L 550.324089 125.762995 
L 552.323716 133.428343 
L 554.323344 139.177355 
L 556.322971 150.675377 
L 558.322599 156.424389 
L 560.322226 166.006074 
L 562.321854 167.922411 
L 564.321481 175.58776 
L 566.321109 187.085782 
L 568.320736 190.918457 
L 570.320364 196.667468 
L 572.319991 200.500142 
L 574.319619 208.165491 
L 576.319246 208.165491 
L 578.318874 215.830839 
L 580.318501 215.830839 
L 582.318129 217.747176 
L 584.317756 215.830839 
L 586.317384 217.747176 
L 588.317011 221.57985 
L 590.316639 221.57985 
L 592.316266 223.496187 
L 594.315894 229.245199 
L 596.315521 233.077873 
L 598.315149 233.077873 
L 602.314404 240.743221 
L 604.314031 238.826884 
L 606.313659 238.826884 
L 610.312914 242.659559 
L 612.979084 246.492233 
L 613.645626 248.40857 
L 614.312169 252.241244 
L 620.311051 252.241244 
L 620.977594 250.324907 
L 622.977221 250.324907 
L 623.643764 248.40857 
L 624.976849 248.40857 
L 625.643391 250.324907 
L 626.309934 250.324907 
L 626.976476 252.241244 
L 627.643019 248.40857 
L 629.642646 248.40857 
L 630.975731 244.575896 
L 631.642274 244.575896 
L 632.308816 242.659559 
L 633.641901 242.659559 
L 634.974986 238.826884 
L 637.641156 238.826884 
L 638.307699 240.743221 
L 639.640784 236.910547 
L 640.973869 236.910547 
L 641.640411 234.99421 
L 642.306954 234.99421 
L 642.973496 233.077873 
L 644.306581 233.077873 
L 644.973124 231.161536 
L 645.639666 231.161536 
L 646.306209 227.328862 
L 646.972751 227.328862 
L 647.639294 225.412525 
L 648.305836 225.412525 
L 648.972379 223.496187 
L 649.638921 223.496187 
L 650.305464 219.663513 
L 652.971634 219.663513 
L 654.304719 215.830839 
L 654.971261 211.998165 
L 657.637431 211.998165 
L 658.303974 210.081828 
L 658.970516 211.998165 
L 661.636686 211.998165 
L 662.303229 210.081828 
L 664.969399 210.081828 
L 665.635941 211.998165 
L 666.302484 208.165491 
L 666.969026 210.081828 
L 667.635569 210.081828 
L 668.968654 213.914502 
L 669.635196 210.081828 
L 671.634824 204.332816 
L 672.301366 206.249154 
L 672.967909 206.249154 
L 673.634451 204.332816 
L 674.300993 204.332816 
L 674.967536 206.249154 
L 675.634078 202.416479 
L 676.967163 202.416479 
L 678.300248 198.583805 
L 678.966791 194.751131 
L 679.633333 194.751131 
L 680.299876 189.00212 
L 682.299503 189.00212 
L 682.966046 194.751131 
L 683.632588 192.834794 
L 684.965673 192.834794 
L 686.298758 189.00212 
L 687.631843 189.00212 
L 688.298386 187.085782 
L 688.964928 189.00212 
L 689.631471 189.00212 
L 690.298013 185.169445 
L 690.964556 183.253108 
L 692.297641 183.253108 
L 692.964183 179.420434 
L 694.297268 175.58776 
L 694.963811 171.755086 
L 696.296896 171.755086 
L 696.963438 166.006074 
L 697.629981 162.1734 
L 698.296523 160.257063 
L 698.963066 160.257063 
L 699.629608 154.508052 
L 700.296151 158.340726 
L 700.962693 152.591714 
L 701.629236 152.591714 
L 702.295778 148.75904 
L 703.628863 129.595669 
L 704.295406 127.679332 
L 704.961948 123.846658 
L 705.628491 121.930321 
L 706.295033 116.181309 
L 706.961576 108.515961 
L 707.628118 106.599624 
L 708.294661 106.599624 
L 708.961203 100.850612 
L 709.627746 102.76695 
L 710.294288 100.850612 
L 710.960831 102.76695 
L 711.627373 100.850612 
L 712.293916 102.76695 
L 712.960458 91.268927 
L 713.627001 89.35259 
L 714.960086 77.854567 
L 715.626628 74.021893 
L 716.293171 72.105556 
L 716.959713 74.021893 
L 718.292798 70.189219 
L 718.959341 64.440207 
L 719.625883 62.52387 
L 720.292426 66.356544 
L 721.625511 66.356544 
L 722.292053 62.52387 
L 724.291681 62.52387 
L 724.958223 64.440207 
L 726.291308 64.440207 
L 727.624393 68.272882 
L 728.290936 64.440207 
L 729.624021 72.105556 
L 730.290563 74.021893 
L 730.957106 79.770904 
L 731.623648 83.603578 
L 732.290191 89.35259 
L 732.956733 91.268927 
L 733.623276 95.101601 
L 734.289818 97.017938 
L 734.956361 100.850612 
L 735.622903 100.850612 
L 736.289446 102.76695 
L 736.955988 106.599624 
L 737.622531 108.515961 
L 738.289073 108.515961 
L 738.955616 112.348635 
L 739.622158 114.264972 
L 740.288701 112.348635 
L 740.955243 112.348635 
L 741.621786 114.264972 
L 742.288328 112.348635 
L 742.954871 114.264972 
L 743.621413 120.013984 
L 744.287956 123.846658 
L 744.954498 125.762995 
L 746.287583 141.093692 
L 746.954126 139.177355 
L 747.620668 144.926366 
L 748.953753 152.591714 
L 749.620296 158.340726 
L 750.953381 158.340726 
L 751.619923 162.1734 
L 752.286466 164.089737 
L 752.953008 169.838748 
L 753.619551 171.755086 
L 754.952636 171.755086 
L 755.619178 173.671423 
L 756.285721 173.671423 
L 756.952263 175.58776 
L 757.618806 175.58776 
L 758.951891 179.420434 
L 759.618433 179.420434 
L 760.284976 181.336771 
L 762.284603 181.336771 
L 762.951146 187.085782 
L 763.617688 187.085782 
L 764.284231 189.00212 
L 764.950773 192.834794 
L 765.617316 194.751131 
L 766.283858 194.751131 
L 766.950401 198.583805 
L 768.283486 198.583805 
L 768.950028 200.500142 
L 769.616571 200.500142 
L 770.949656 204.332816 
L 773.615826 204.332816 
L 774.282368 208.165491 
L 777.615081 208.165491 
L 779.614708 213.914502 
L 781.614336 213.914502 
L 782.280878 215.830839 
L 782.947421 215.830839 
L 784.280506 219.663513 
L 784.947048 219.663513 
L 785.613591 221.57985 
L 786.280133 221.57985 
L 787.613218 225.412525 
L 788.279761 225.412525 
L 790.279388 231.161536 
L 792.279016 231.161536 
L 792.945558 233.077873 
L 794.278643 233.077873 
L 794.945186 234.99421 
L 797.611356 234.99421 
L 798.277898 233.077873 
L 798.944441 234.99421 
L 799.610983 233.077873 
L 800.277526 234.99421 
L 800.944068 234.99421 
L 801.610611 236.910547 
L 802.277153 234.99421 
L 804.943323 234.99421 
L 805.609865 236.910547 
L 808.276035 236.910547 
L 808.942578 234.99421 
L 815.608003 234.99421 
L 816.274545 233.077873 
L 816.274545 233.077873 
" clip-path="url(#p4d086390c6)" style="fill: none; stroke: #2288ff; stroke-width: 1.5; stroke-linecap: square"/>
   </g>
   <g id="patch_3">
    <path d="M 40.84 262.972732 
L 40.84 26.88 
" style="fill: none; stroke: #000000; stroke-width: 0.8; stroke-linejoin: miter; stroke-linecap: square"/>
   </g>
   <g id="patch_4">
    <path d="M 853.2 262.972732 
L 853.2 26.88 
" style="fill: none; stroke: #000000; stroke-width: 0.8; stroke-linejoin: miter; stroke-linecap: square"/>
   </g>
   <g id="patch_5">
    <path d="M 40.84 262.972732 
L 853.2 262.972732 
" style="fill: none; stroke: #000000; stroke-width: 0.8; stroke-linejoin: miter; stroke-linecap: square"/>
   </g>
   <g id="patch_6">
    <path d="M 40.84 26.88 
L 853.2 26.88 
" style="fill: none; stroke: #000000; stroke-width: 0.8; stroke-linejoin: miter; stroke-linecap: square"/>
   </g>
   <g id="text_9">
    <!-- 同時接続数の推移 -->
    <g transform="translate(399.02 20.88) scale(0.12 -0.12)">
     <defs>
      <path id="NotoSansJP-Medium-540c" d="M 1587 3936 
L 4819 3936 
L 4819 3418 
L 1587 3418 
L 1587 3936 
z
M 1907 2822 
L 2464 2822 
L 2464 288 
L 1907 288 
L 1907 2822 
z
M 2208 2822 
L 4499 2822 
L 4499 736 
L 2208 736 
L 2208 1248 
L 3942 1248 
L 3942 2317 
L 2208 2317 
L 2208 2822 
z
M 525 5082 
L 5638 5082 
L 5638 4512 
L 1114 4512 
L 1114 -544 
L 525 -544 
L 525 5082 
z
M 5293 5082 
L 5888 5082 
L 5888 186 
Q 5888 -64 5821 -211 
Q 5754 -358 5594 -429 
Q 5434 -506 5168 -525 
Q 4902 -544 4493 -544 
Q 4480 -461 4448 -352 
Q 4416 -243 4371 -134 
Q 4326 -26 4282 51 
Q 4563 38 4809 38 
Q 5056 38 5139 38 
Q 5222 45 5257 80 
Q 5293 115 5293 192 
L 5293 5082 
z
" transform="scale(0.015625)"/>
      <path id="NotoSansJP-Medium-6642" d="M 2714 4672 
L 5952 4672 
L 5952 4147 
L 2714 4147 
L 2714 4672 
z
M 2470 3437 
L 6182 3437 
L 6182 2899 
L 2470 2899 
L 2470 3437 
z
M 2490 2253 
L 6125 2253 
L 6125 1722 
L 2490 1722 
L 2490 2253 
z
M 4013 5408 
L 4608 5408 
L 4608 3098 
L 4013 3098 
L 4013 5408 
z
M 4845 2957 
L 5434 2957 
L 5434 134 
Q 5434 -96 5373 -230 
Q 5312 -365 5146 -429 
Q 4979 -499 4723 -515 
Q 4467 -531 4090 -531 
Q 4070 -410 4012 -246 
Q 3955 -83 3891 38 
Q 4166 32 4400 29 
Q 4634 26 4710 26 
Q 4787 32 4816 54 
Q 4845 77 4845 147 
L 4845 2957 
z
M 2822 1280 
L 3309 1562 
Q 3462 1402 3622 1210 
Q 3782 1018 3916 829 
Q 4051 640 4122 486 
L 3603 173 
Q 3539 326 3414 521 
Q 3290 717 3136 915 
Q 2982 1114 2822 1280 
z
M 736 4998 
L 2355 4998 
L 2355 717 
L 736 717 
L 736 1261 
L 1792 1261 
L 1792 4448 
L 736 4448 
L 736 4998 
z
M 768 3155 
L 2061 3155 
L 2061 2618 
L 768 2618 
L 768 3155 
z
M 448 4998 
L 1011 4998 
L 1011 166 
L 448 166 
L 448 4998 
z
" transform="scale(0.015625)"/>
      <path id="NotoSansJP-Medium-63a5" d="M 3866 5408 
L 4480 5408 
L 4480 4538 
L 3866 4538 
L 3866 5408 
z
M 2387 4755 
L 5984 4755 
L 5984 4237 
L 2387 4237 
L 2387 4755 
z
M 2157 3270 
L 6157 3270 
L 6157 2752 
L 2157 2752 
L 2157 3270 
z
M 2982 4192 
L 3501 4294 
Q 3565 4134 3622 3952 
Q 3680 3770 3718 3600 
Q 3757 3430 3763 3296 
L 3219 3168 
Q 3213 3302 3177 3481 
Q 3142 3661 3094 3846 
Q 3046 4032 2982 4192 
z
M 4838 4301 
L 5427 4230 
Q 5331 3955 5225 3673 
Q 5120 3392 5030 3187 
L 4512 3264 
Q 4570 3411 4634 3593 
Q 4698 3776 4752 3965 
Q 4806 4154 4838 4301 
z
M 2195 2195 
L 6138 2195 
L 6138 1677 
L 2195 1677 
L 2195 2195 
z
M 3603 2880 
L 4205 2765 
Q 4038 2394 3843 1981 
Q 3648 1568 3453 1184 
Q 3258 800 3091 499 
L 2566 678 
Q 2726 966 2912 1344 
Q 3098 1722 3280 2128 
Q 3462 2534 3603 2880 
z
M 2944 723 
L 3302 1126 
Q 3654 1024 4035 886 
Q 4416 749 4787 582 
Q 5158 416 5484 246 
Q 5811 77 6042 -83 
L 5658 -544 
Q 5440 -384 5126 -208 
Q 4813 -32 4441 137 
Q 4070 307 3686 460 
Q 3302 614 2944 723 
z
M 4838 1837 
L 5421 1766 
Q 5299 1216 5068 822 
Q 4838 429 4464 160 
Q 4090 -109 3542 -275 
Q 2995 -442 2246 -544 
Q 2221 -416 2153 -275 
Q 2086 -134 2016 -45 
Q 2694 19 3184 147 
Q 3674 275 4003 496 
Q 4333 717 4534 1046 
Q 4736 1376 4838 1837 
z
M 154 2054 
Q 550 2144 1107 2294 
Q 1664 2445 2227 2605 
L 2304 2061 
Q 1779 1907 1251 1750 
Q 723 1594 288 1466 
L 154 2054 
z
M 275 4147 
L 2240 4147 
L 2240 3584 
L 275 3584 
L 275 4147 
z
M 1094 5395 
L 1670 5395 
L 1670 166 
Q 1670 -70 1619 -208 
Q 1568 -346 1427 -416 
Q 1286 -493 1072 -515 
Q 858 -538 531 -531 
Q 518 -416 467 -243 
Q 416 -70 358 51 
Q 563 45 739 45 
Q 915 45 973 45 
Q 1037 45 1065 73 
Q 1094 102 1094 166 
L 1094 5395 
z
" transform="scale(0.015625)"/>
      <path id="NotoSansJP-Medium-7d9a" d="M 4058 5408 
L 4653 5408 
L 4653 3610 
L 4058 3610 
L 4058 5408 
z
M 2643 4845 
L 6086 4845 
L 6086 4346 
L 2643 4346 
L 2643 4845 
z
M 2874 3853 
L 5882 3853 
L 5882 3354 
L 2874 3354 
L 2874 3853 
z
M 2650 2976 
L 6125 2976 
L 6125 1773 
L 5594 1773 
L 5594 2502 
L 3162 2502 
L 3162 1773 
L 2650 1773 
L 2650 2976 
z
M 4614 2099 
L 5165 2099 
L 5165 218 
Q 5165 96 5187 61 
Q 5210 26 5293 26 
Q 5318 26 5385 26 
Q 5453 26 5520 26 
Q 5587 26 5619 26 
Q 5670 26 5702 80 
Q 5734 134 5747 304 
Q 5760 474 5766 819 
Q 5856 749 6000 688 
Q 6144 627 6259 595 
Q 6240 166 6176 -67 
Q 6112 -301 5993 -393 
Q 5875 -486 5677 -486 
Q 5638 -486 5574 -486 
Q 5510 -486 5440 -486 
Q 5370 -486 5302 -486 
Q 5235 -486 5203 -486 
Q 4966 -486 4838 -422 
Q 4710 -358 4662 -204 
Q 4614 -51 4614 218 
L 4614 2099 
z
M 3450 2093 
L 4000 2093 
L 4000 1638 
Q 4000 1395 3952 1110 
Q 3904 826 3766 531 
Q 3629 237 3357 -41 
Q 3085 -320 2630 -544 
Q 2560 -454 2438 -336 
Q 2317 -218 2208 -141 
Q 2624 64 2873 297 
Q 3123 531 3244 771 
Q 3366 1011 3408 1238 
Q 3450 1466 3450 1651 
L 3450 2093 
z
M 1210 5402 
L 1734 5210 
Q 1613 4966 1475 4707 
Q 1338 4448 1200 4211 
Q 1062 3974 941 3795 
L 531 3968 
Q 653 4154 777 4406 
Q 902 4659 1017 4921 
Q 1133 5184 1210 5402 
z
M 1926 4659 
L 2426 4429 
Q 2202 4070 1930 3673 
Q 1658 3277 1382 2909 
Q 1107 2541 864 2259 
L 506 2464 
Q 685 2675 883 2947 
Q 1082 3219 1270 3516 
Q 1459 3814 1628 4108 
Q 1798 4403 1926 4659 
z
M 205 3994 
L 512 4397 
Q 678 4243 851 4057 
Q 1024 3872 1171 3693 
Q 1318 3514 1395 3366 
L 1069 2906 
Q 992 3066 851 3254 
Q 710 3443 537 3638 
Q 365 3834 205 3994 
z
M 1690 3162 
L 2125 3341 
Q 2253 3130 2374 2883 
Q 2496 2637 2589 2409 
Q 2682 2182 2726 1997 
L 2253 1786 
Q 2221 1971 2134 2208 
Q 2048 2445 1933 2694 
Q 1818 2944 1690 3162 
z
M 160 2579 
Q 582 2605 1158 2633 
Q 1734 2662 2342 2701 
L 2349 2202 
Q 1779 2157 1222 2118 
Q 666 2080 230 2048 
L 160 2579 
z
M 1862 1587 
L 2298 1722 
Q 2419 1446 2512 1126 
Q 2605 806 2630 570 
L 2176 422 
Q 2150 659 2064 985 
Q 1978 1312 1862 1587 
z
M 499 1696 
L 998 1613 
Q 941 1158 835 716 
Q 730 275 582 -32 
Q 531 0 448 41 
Q 365 83 278 124 
Q 192 166 134 186 
Q 282 480 368 883 
Q 454 1286 499 1696 
z
M 1190 2323 
L 1715 2323 
L 1715 -538 
L 1190 -538 
L 1190 2323 
z
" transform="scale(0.015625)"/>
      <path id="NotoSansJP-Medium-6570" d="M 224 2022 
L 3411 2022 
L 3411 1523 
L 224 1523 
L 224 2022 
z
M 275 4269 
L 3386 4269 
L 3386 3782 
L 275 3782 
L 275 4269 
z
M 1402 2534 
L 1965 2413 
Q 1811 2093 1632 1741 
Q 1453 1389 1280 1062 
Q 1107 736 954 480 
L 422 653 
Q 570 896 746 1219 
Q 922 1542 1091 1888 
Q 1261 2234 1402 2534 
z
M 2336 1702 
L 2899 1638 
Q 2810 1158 2637 800 
Q 2464 442 2176 186 
Q 1888 -70 1475 -246 
Q 1062 -422 499 -544 
Q 474 -416 400 -275 
Q 326 -134 243 -38 
Q 902 64 1328 265 
Q 1754 467 1994 819 
Q 2234 1171 2336 1702 
z
M 2758 5299 
L 3277 5088 
Q 3130 4870 2979 4652 
Q 2829 4435 2701 4275 
L 2298 4461 
Q 2419 4634 2550 4874 
Q 2682 5114 2758 5299 
z
M 1555 5408 
L 2118 5408 
L 2118 2451 
L 1555 2451 
L 1555 5408 
z
M 480 5088 
L 928 5274 
Q 1062 5082 1174 4854 
Q 1286 4627 1331 4461 
L 864 4250 
Q 826 4422 717 4656 
Q 608 4890 480 5088 
z
M 1574 4038 
L 1971 3802 
Q 1811 3539 1571 3273 
Q 1331 3008 1052 2784 
Q 774 2560 499 2406 
Q 448 2509 358 2643 
Q 269 2778 179 2861 
Q 448 2970 713 3155 
Q 979 3341 1206 3571 
Q 1434 3802 1574 4038 
z
M 2061 3834 
Q 2144 3789 2307 3689 
Q 2470 3590 2659 3478 
Q 2848 3366 3005 3267 
Q 3162 3168 3226 3117 
L 2899 2694 
Q 2816 2771 2669 2892 
Q 2522 3014 2352 3145 
Q 2182 3277 2025 3395 
Q 1869 3514 1766 3584 
L 2061 3834 
z
M 3859 4230 
L 6170 4230 
L 6170 3674 
L 3859 3674 
L 3859 4230 
z
M 3974 5408 
L 4589 5318 
Q 4486 4678 4326 4083 
Q 4166 3488 3942 2982 
Q 3718 2477 3430 2093 
Q 3386 2150 3296 2227 
Q 3206 2304 3110 2384 
Q 3014 2464 2944 2509 
Q 3219 2848 3417 3305 
Q 3616 3763 3757 4300 
Q 3898 4838 3974 5408 
z
M 5197 3898 
L 5811 3840 
Q 5664 2739 5366 1900 
Q 5069 1062 4553 457 
Q 4038 -147 3232 -557 
Q 3206 -486 3142 -380 
Q 3078 -275 3008 -172 
Q 2938 -70 2880 -13 
Q 3622 333 4092 867 
Q 4563 1402 4822 2157 
Q 5082 2912 5197 3898 
z
M 4192 3763 
Q 4326 2912 4579 2166 
Q 4832 1421 5238 861 
Q 5645 301 6240 -13 
Q 6170 -70 6086 -163 
Q 6003 -256 5932 -352 
Q 5862 -448 5811 -531 
Q 5178 -160 4755 457 
Q 4333 1075 4067 1891 
Q 3802 2707 3642 3674 
L 4192 3763 
z
M 883 698 
L 1210 1114 
Q 1587 966 1964 784 
Q 2342 602 2665 406 
Q 2989 211 3213 38 
L 2797 -397 
Q 2586 -218 2278 -19 
Q 1971 179 1612 364 
Q 1254 550 883 698 
z
" transform="scale(0.015625)"/>
      <path id="NotoSansJP-Medium-306e" d="M 3686 4378 
Q 3622 3885 3523 3337 
Q 3424 2790 3258 2253 
Q 3066 1600 2826 1149 
Q 2586 698 2304 461 
Q 2022 224 1709 224 
Q 1389 224 1113 445 
Q 838 666 665 1066 
Q 493 1466 493 1997 
Q 493 2534 713 3014 
Q 934 3494 1324 3865 
Q 1715 4237 2233 4448 
Q 2752 4659 3354 4659 
Q 3930 4659 4394 4473 
Q 4858 4288 5187 3958 
Q 5517 3629 5689 3187 
Q 5862 2746 5862 2246 
Q 5862 1574 5584 1052 
Q 5306 531 4768 201 
Q 4230 -128 3450 -243 
L 3072 358 
Q 3238 378 3379 400 
Q 3520 422 3642 448 
Q 3949 518 4227 665 
Q 4506 813 4723 1040 
Q 4941 1267 5065 1574 
Q 5190 1882 5190 2266 
Q 5190 2650 5068 2979 
Q 4947 3309 4710 3552 
Q 4474 3795 4128 3932 
Q 3782 4070 3347 4070 
Q 2822 4070 2412 3884 
Q 2003 3699 1718 3395 
Q 1434 3091 1286 2739 
Q 1139 2387 1139 2061 
Q 1139 1696 1228 1456 
Q 1318 1216 1452 1101 
Q 1587 986 1728 986 
Q 1869 986 2016 1130 
Q 2163 1274 2313 1587 
Q 2464 1901 2611 2387 
Q 2758 2848 2857 3369 
Q 2957 3891 3002 4390 
L 3686 4378 
z
" transform="scale(0.015625)"/>
      <path id="NotoSansJP-Medium-63a8" d="M 2995 2925 
L 5888 2925 
L 5888 2406 
L 2995 2406 
L 2995 2925 
z
M 2995 1645 
L 5888 1645 
L 5888 1126 
L 2995 1126 
L 2995 1645 
z
M 2931 346 
L 6163 346 
L 6163 -211 
L 2931 -211 
L 2931 346 
z
M 4243 3923 
L 4806 3923 
L 4806 160 
L 4243 160 
L 4243 3923 
z
M 4672 5389 
L 5306 5248 
Q 5152 4858 4966 4454 
Q 4781 4051 4627 3770 
L 4115 3910 
Q 4218 4109 4323 4368 
Q 4429 4627 4518 4896 
Q 4608 5165 4672 5389 
z
M 3200 5414 
L 3782 5267 
Q 3629 4749 3411 4249 
Q 3194 3750 2928 3318 
Q 2662 2886 2355 2560 
Q 2317 2624 2246 2720 
Q 2176 2816 2099 2918 
Q 2022 3021 1958 3078 
Q 2374 3494 2691 4112 
Q 3008 4730 3200 5414 
z
M 3328 4211 
L 6048 4211 
L 6048 3674 
L 3328 3674 
L 3328 -531 
L 2746 -531 
L 2746 3891 
L 3059 4211 
L 3328 4211 
z
M 154 2054 
Q 550 2144 1107 2294 
Q 1664 2445 2227 2605 
L 2304 2061 
Q 1779 1907 1251 1750 
Q 723 1594 288 1466 
L 154 2054 
z
M 275 4147 
L 2240 4147 
L 2240 3584 
L 275 3584 
L 275 4147 
z
M 1094 5395 
L 1670 5395 
L 1670 166 
Q 1670 -70 1619 -208 
Q 1568 -346 1427 -416 
Q 1286 -493 1072 -515 
Q 858 -538 531 -531 
Q 518 -416 467 -243 
Q 416 -70 358 51 
Q 563 45 739 45 
Q 915 45 973 45 
Q 1037 45 1065 73 
Q 1094 102 1094 166 
L 1094 5395 
z
" transform="scale(0.015625)"/>
      <path id="NotoSansJP-Medium-79fb" d="M 4051 5402 
L 4646 5293 
Q 4365 4800 3917 4352 
Q 3469 3904 2810 3546 
Q 2771 3610 2704 3690 
Q 2637 3770 2563 3843 
Q 2490 3917 2426 3962 
Q 3034 4250 3437 4640 
Q 3840 5030 4051 5402 
z
M 3974 4845 
L 5485 4845 
L 5485 4352 
L 3622 4352 
L 3974 4845 
z
M 5267 4845 
L 5376 4845 
L 5485 4870 
L 5869 4691 
Q 5677 4186 5373 3786 
Q 5069 3386 4678 3085 
Q 4288 2784 3833 2566 
Q 3379 2349 2886 2208 
Q 2842 2317 2749 2461 
Q 2656 2605 2573 2688 
Q 3021 2797 3440 2982 
Q 3859 3168 4217 3427 
Q 4576 3686 4848 4019 
Q 5120 4352 5267 4749 
L 5267 4845 
z
M 3277 3891 
L 3654 4198 
Q 3821 4102 3990 3980 
Q 4160 3859 4310 3731 
Q 4461 3603 4557 3494 
L 4160 3162 
Q 4070 3270 3923 3398 
Q 3776 3526 3606 3657 
Q 3437 3789 3277 3891 
z
M 4384 2957 
L 4979 2848 
Q 4672 2310 4176 1817 
Q 3680 1325 2944 941 
Q 2906 1005 2842 1085 
Q 2778 1165 2704 1241 
Q 2630 1318 2566 1357 
Q 3021 1574 3373 1840 
Q 3725 2106 3977 2394 
Q 4230 2682 4384 2957 
z
M 4294 2368 
L 5754 2368 
L 5754 1862 
L 3936 1862 
L 4294 2368 
z
M 5562 2368 
L 5683 2368 
L 5792 2394 
L 6176 2227 
Q 5984 1613 5645 1152 
Q 5306 691 4858 358 
Q 4410 26 3875 -195 
Q 3341 -416 2746 -550 
Q 2701 -435 2614 -281 
Q 2528 -128 2438 -32 
Q 2989 64 3481 253 
Q 3974 442 4384 726 
Q 4794 1011 5098 1395 
Q 5402 1779 5562 2278 
L 5562 2368 
z
M 3430 1312 
L 3840 1651 
Q 4026 1549 4224 1414 
Q 4422 1280 4595 1139 
Q 4768 998 4877 870 
L 4442 499 
Q 4339 627 4172 771 
Q 4006 915 3811 1059 
Q 3616 1203 3430 1312 
z
M 1280 4845 
L 1869 4845 
L 1869 -531 
L 1280 -531 
L 1280 4845 
z
M 288 3603 
L 2624 3603 
L 2624 3034 
L 288 3034 
L 288 3603 
z
M 1312 3379 
L 1677 3219 
Q 1581 2880 1446 2512 
Q 1312 2144 1155 1785 
Q 998 1427 819 1113 
Q 640 800 454 576 
Q 410 704 320 867 
Q 230 1030 160 1139 
Q 333 1331 499 1596 
Q 666 1862 822 2166 
Q 979 2470 1104 2784 
Q 1229 3098 1312 3379 
z
M 2253 5325 
L 2669 4858 
Q 2355 4736 1974 4637 
Q 1594 4538 1190 4464 
Q 787 4390 410 4333 
Q 390 4435 339 4569 
Q 288 4704 237 4800 
Q 595 4858 969 4938 
Q 1344 5018 1680 5117 
Q 2016 5216 2253 5325 
z
M 1856 2746 
Q 1914 2701 2035 2576 
Q 2157 2451 2301 2310 
Q 2445 2170 2560 2045 
Q 2675 1920 2720 1862 
L 2368 1389 
Q 2310 1491 2211 1644 
Q 2112 1798 1993 1961 
Q 1875 2125 1766 2272 
Q 1658 2419 1581 2509 
L 1856 2746 
z
" transform="scale(0.015625)"/>
     </defs>
     <use xlink:href="#NotoSansJP-Medium-540c"/>
     <use xlink:href="#NotoSansJP-Medium-6642" transform="translate(99.999985 0)"/>
     <use xlink:href="#NotoSansJP-Medium-63a5" transform="translate(199.999969 0)"/>
     <use xlink:href="#NotoSansJP-Medium-7d9a" transform="translate(299.999954 0)"/>
     <use xlink:href="#NotoSansJP-Medium-6570" transform="translate(399.999939 0)"/>
     <use xlink:href="#NotoSansJP-Medium-306e" transform="translate(499.999924 0)"/>
     <use xlink:href="#NotoSansJP-Medium-63a8" transform="translate(599.999908 0)"/>
     <use xlink:href="#NotoSansJP-Medium-79fb" transform="translate(699.999893 0)"/>
    </g>
   </g>
  </g>
  <g id="axes_2">
   <g id="patch_7">
    <path d="M 40.84 529.445464 
L 853.2 529.445464 
L 853.2 293.352732 
L 40.84 293.352732 
z
" style="fill: #ffffff"/>
   </g>
   <g id="matplotlib.axis_3">
    <g id="xtick_10">
     <g id="line2d_36">
      <path d="M 62.414981 529.445464 
L 62.414981 293.352732 
" clip-path="url(#p7912c17d23)" style="fill: none; stroke: #b0b0b0; stroke-opacity: 0.3; stroke-width: 0.8; stroke-linecap: square"/>
     </g>
     <g id="line2d_37">
      <g>
       <use xlink:href="#m8dc26248b6" x="62.414981" y="529.445464" style="stroke: #000000; stroke-width: 0.8"/>
      </g>
     </g>
     <g id="text_10">
      <!-- 06-30 12 -->
      <g transform="translate(26.64153 563.358113) rotate(-30) scale(0.1 -0.1)">
       <defs>
        <path id="NotoSansJP-Medium-2d" d="M 301 1536 
L 301 2080 
L 1990 2080 
L 1990 1536 
L 301 1536 
z
" transform="scale(0.015625)"/>
        <path id="NotoSansJP-Medium-20" transform="scale(0.015625)"/>
       </defs>
       <use xlink:href="#NotoSansJP-Medium-30"/>
       <use xlink:href="#NotoSansJP-Medium-36" transform="translate(56.999985 0)"/>
       <use xlink:href="#NotoSansJP-Medium-2d" transform="translate(113.999969 0)"/>
       <use xlink:href="#NotoSansJP-Medium-33" transform="translate(149.699966 0)"/>
       <use xlink:href="#NotoSansJP-Medium-30" transform="translate(206.699951 0)"/>
       <use xlink:href="#NotoSansJP-Medium-20" transform="translate(263.699936 0)"/>
       <use xlink:href="#NotoSansJP-Medium-31" transform="translate(286.199921 0)"/>
       <use xlink:href="#NotoSansJP-Medium-32" transform="translate(343.199905 0)"/>
      </g>
     </g>
    </g>
    <g id="xtick_11">
     <g id="line2d_38">
      <path d="M 158.3971 529.445464 
L 158.3971 293.352732 
" clip-path="url(#p7912c17d23)" style="fill: none; stroke: #b0b0b0; stroke-opacity: 0.3; stroke-width: 0.8; stroke-linecap: square"/>
     </g>
     <g id="line2d_39">
      <g>
       <use xlink:href="#m8dc26248b6" x="158.3971" y="529.445464" style="stroke: #000000; stroke-width: 0.8"/>
      </g>
     </g>
     <g id="text_11">
      <!-- 07-01 00 -->
      <g transform="translate(122.623649 563.358113) rotate(-30) scale(0.1 -0.1)">
       <use xlink:href="#NotoSansJP-Medium-30"/>
       <use xlink:href="#NotoSansJP-Medium-37" transform="translate(56.999985 0)"/>
       <use xlink:href="#NotoSansJP-Medium-2d" transform="translate(113.999969 0)"/>
       <use xlink:href="#NotoSansJP-Medium-30" transform="translate(149.699966 0)"/>
       <use xlink:href="#NotoSansJP-Medium-31" transform="translate(206.699951 0)"/>
       <use xlink:href="#NotoSansJP-Medium-20" transform="translate(263.699936 0)"/>
       <use xlink:href="#NotoSansJP-Medium-30" transform="translate(286.199921 0)"/>
       <use xlink:href="#NotoSansJP-Medium-30" transform="translate(343.199905 0)"/>
      </g>
     </g>
    </g>
    <g id="xtick_12">
     <g id="line2d_40">
      <path d="M 254.37922 529.445464 
L 254.37922 293.352732 
" clip-path="url(#p7912c17d23)" style="fill: none; stroke: #b0b0b0; stroke-opacity: 0.3; stroke-width: 0.8; stroke-linecap: square"/>
     </g>
     <g id="line2d_41">
      <g>
       <use xlink:href="#m8dc26248b6" x="254.37922" y="529.445464" style="stroke: #000000; stroke-width: 0.8"/>
      </g>
     </g>
     <g id="text_12">
      <!-- 07-01 12 -->
      <g transform="translate(218.605769 563.358113) rotate(-30) scale(0.1 -0.1)">
       <use xlink:href="#NotoSansJP-Medium-30"/>
       <use xlink:href="#NotoSansJP-Medium-37" transform="translate(56.999985 0)"/>
       <use xlink:href="#NotoSansJP-Medium-2d" transform="translate(113.999969 0)"/>
       <use xlink:href="#NotoSansJP-Medium-30" transform="translate(149.699966 0)"/>
       <use xlink:href="#NotoSansJP-Medium-31" transform="translate(206.699951 0)"/>
       <use xlink:href="#NotoSansJP-Medium-20" transform="translate(263.699936 0)"/>
       <use xlink:href="#NotoSansJP-Medium-31" transform="translate(286.199921 0)"/>
       <use xlink:href="#NotoSansJP-Medium-32" transform="translate(343.199905 0)"/>
      </g>
     </g>
    </g>
    <g id="xtick_13">
     <g id="line2d_42">
      <path d="M 350.36134 529.445464 
L 350.36134 293.352732 
" clip-path="url(#p7912c17d23)" style="fill: none; stroke: #b0b0b0; stroke-opacity: 0.3; stroke-width: 0.8; stroke-linecap: square"/>
     </g>
     <g id="line2d_43">
      <g>
       <use xlink:href="#m8dc26248b6" x="350.36134" y="529.445464" style="stroke: #000000; stroke-width: 0.8"/>
      </g>
     </g>
     <g id="text_13">
      <!-- 07-02 00 -->
      <g transform="translate(314.587889 563.358113) rotate(-30) scale(0.1 -0.1)">
       <use xlink:href="#NotoSansJP-Medium-30"/>
       <use xlink:href="#NotoSansJP-Medium-37" transform="translate(56.999985 0)"/>
       <use xlink:href="#NotoSansJP-Medium-2d" transform="translate(113.999969 0)"/>
       <use xlink:href="#NotoSansJP-Medium-30" transform="translate(149.699966 0)"/>
       <use xlink:href="#NotoSansJP-Medium-32" transform="translate(206.699951 0)"/>
       <use xlink:href="#NotoSansJP-Medium-20" transform="translate(263.699936 0)"/>
       <use xlink:href="#NotoSansJP-Medium-30" transform="translate(286.199921 0)"/>
       <use xlink:href="#NotoSansJP-Medium-30" transform="translate(343.199905 0)"/>
      </g>
     </g>
    </g>
    <g id="xtick_14">
     <g id="line2d_44">
      <path d="M 446.343459 529.445464 
L 446.343459 293.352732 
" clip-path="url(#p7912c17d23)" style="fill: none; stroke: #b0b0b0; stroke-opacity: 0.3; stroke-width: 0.8; stroke-linecap: square"/>
     </g>
     <g id="line2d_45">
      <g>
       <use xlink:href="#m8dc26248b6" x="446.343459" y="529.445464" style="stroke: #000000; stroke-width: 0.8"/>
      </g>
     </g>
     <g id="text_14">
      <!-- 07-02 12 -->
      <g transform="translate(410.570008 563.358113) rotate(-30) scale(0.1 -0.1)">
       <use xlink:href="#NotoSansJP-Medium-30"/>
       <use xlink:href="#NotoSansJP-Medium-37" transform="translate(56.999985 0)"/>
       <use xlink:href="#NotoSansJP-Medium-2d" transform="translate(113.999969 0)"/>
       <use xlink:href="#NotoSansJP-Medium-30" transform="translate(149.699966 0)"/>
       <use xlink:href="#NotoSansJP-Medium-32" transform="translate(206.699951 0)"/>
       <use xlink:href="#NotoSansJP-Medium-20" transform="translate(263.699936 0)"/>
       <use xlink:href="#NotoSansJP-Medium-31" transform="translate(286.199921 0)"/>
       <use xlink:href="#NotoSansJP-Medium-32" transform="translate(343.199905 0)"/>
      </g>
     </g>
    </g>
    <g id="xtick_15">
     <g id="line2d_46">
      <path d="M 542.325579 529.445464 
L 542.325579 293.352732 
" clip-path="url(#p7912c17d23)" style="fill: none; stroke: #b0b0b0; stroke-opacity: 0.3; stroke-width: 0.8; stroke-linecap: square"/>
     </g>
     <g id="line2d_47">
      <g>
       <use xlink:href="#m8dc26248b6" x="542.325579" y="529.445464" style="stroke: #000000; stroke-width: 0.8"/>
      </g>
     </g>
     <g id="text_15">
      <!-- 07-03 00 -->
      <g transform="translate(506.552128 563.358113) rotate(-30) scale(0.1 -0.1)">
       <use xlink:href="#NotoSansJP-Medium-30"/>
       <use xlink:href="#NotoSansJP-Medium-37" transform="translate(56.999985 0)"/>
       <use xlink:href="#NotoSansJP-Medium-2d" transform="translate(113.999969 0)"/>
       <use xlink:href="#NotoSansJP-Medium-30" transform="translate(149.699966 0)"/>
       <use xlink:href="#NotoSansJP-Medium-33" transform="translate(206.699951 0)"/>
       <use xlink:href="#NotoSansJP-Medium-20" transform="translate(263.699936 0)"/>
       <use xlink:href="#NotoSansJP-Medium-30" transform="translate(286.199921 0)"/>
       <use xlink:href="#NotoSansJP-Medium-30" transform="translate(343.199905 0)"/>
      </g>
     </g>
    </g>
    <g id="xtick_16">
     <g id="line2d_48">
      <path d="M 638.307699 529.445464 
L 638.307699 293.352732 
" clip-path="url(#p7912c17d23)" style="fill: none; stroke: #b0b0b0; stroke-opacity: 0.3; stroke-width: 0.8; stroke-linecap: square"/>
     </g>
     <g id="line2d_49">
      <g>
       <use xlink:href="#m8dc26248b6" x="638.307699" y="529.445464" style="stroke: #000000; stroke-width: 0.8"/>
      </g>
     </g>
     <g id="text_16">
      <!-- 07-03 12 -->
      <g transform="translate(602.534248 563.358113) rotate(-30) scale(0.1 -0.1)">
       <use xlink:href="#NotoSansJP-Medium-30"/>
       <use xlink:href="#NotoSansJP-Medium-37" transform="translate(56.999985 0)"/>
       <use xlink:href="#NotoSansJP-Medium-2d" transform="translate(113.999969 0)"/>
       <use xlink:href="#NotoSansJP-Medium-30" transform="translate(149.699966 0)"/>
       <use xlink:href="#NotoSansJP-Medium-33" transform="translate(206.699951 0)"/>
       <use xlink:href="#NotoSansJP-Medium-20" transform="translate(263.699936 0)"/>
       <use xlink:href="#NotoSansJP-Medium-31" transform="translate(286.199921 0)"/>
       <use xlink:href="#NotoSansJP-Medium-32" transform="translate(343.199905 0)"/>
      </g>
     </g>
    </g>
    <g id="xtick_17">
     <g id="line2d_50">
      <path d="M 734.289818 529.445464 
L 734.289818 293.352732 
" clip-path="url(#p7912c17d23)" style="fill: none; stroke: #b0b0b0; stroke-opacity: 0.3; stroke-width: 0.8; stroke-linecap: square"/>
     </g>
     <g id="line2d_51">
      <g>
       <use xlink:href="#m8dc26248b6" x="734.289818" y="529.445464" style="stroke: #000000; stroke-width: 0.8"/>
      </g>
     </g>
     <g id="text_17">
      <!-- 07-04 00 -->
      <g transform="translate(698.516367 563.358113) rotate(-30) scale(0.1 -0.1)">
       <use xlink:href="#NotoSansJP-Medium-30"/>
       <use xlink:href="#NotoSansJP-Medium-37" transform="translate(56.999985 0)"/>
       <use xlink:href="#NotoSansJP-Medium-2d" transform="translate(113.999969 0)"/>
       <use xlink:href="#NotoSansJP-Medium-30" transform="translate(149.699966 0)"/>
       <use xlink:href="#NotoSansJP-Medium-34" transform="translate(206.699951 0)"/>
       <use xlink:href="#NotoSansJP-Medium-20" transform="translate(263.699936 0)"/>
       <use xlink:href="#NotoSansJP-Medium-30" transform="translate(286.199921 0)"/>
       <use xlink:href="#NotoSansJP-Medium-30" transform="translate(343.199905 0)"/>
      </g>
     </g>
    </g>
    <g id="xtick_18">
     <g id="line2d_52">
      <path d="M 830.271938 529.445464 
L 830.271938 293.352732 
" clip-path="url(#p7912c17d23)" style="fill: none; stroke: #b0b0b0; stroke-opacity: 0.3; stroke-width: 0.8; stroke-linecap: square"/>
     </g>
     <g id="line2d_53">
      <g>
       <use xlink:href="#m8dc26248b6" x="830.271938" y="529.445464" style="stroke: #000000; stroke-width: 0.8"/>
      </g>
     </g>
     <g id="text_18">
      <!-- 07-04 12 -->
      <g transform="translate(794.498487 563.358113) rotate(-30) scale(0.1 -0.1)">
       <use xlink:href="#NotoSansJP-Medium-30"/>
       <use xlink:href="#NotoSansJP-Medium-37" transform="translate(56.999985 0)"/>
       <use xlink:href="#NotoSansJP-Medium-2d" transform="translate(113.999969 0)"/>
       <use xlink:href="#NotoSansJP-Medium-30" transform="translate(149.699966 0)"/>
       <use xlink:href="#NotoSansJP-Medium-34" transform="translate(206.699951 0)"/>
       <use xlink:href="#NotoSansJP-Medium-20" transform="translate(263.699936 0)"/>
       <use xlink:href="#NotoSansJP-Medium-31" transform="translate(286.199921 0)"/>
       <use xlink:href="#NotoSansJP-Medium-32" transform="translate(343.199905 0)"/>
      </g>
     </g>
    </g>
   </g>
   <g id="matplotlib.axis_4">
    <g id="ytick_9">
     <g id="line2d_54">
      <path d="M 40.84 518.713976 
L 853.2 518.713976 
" clip-path="url(#p7912c17d23)" style="fill: none; stroke: #b0b0b0; stroke-opacity: 0.3; stroke-width: 0.8; stroke-linecap: square"/>
     </g>
     <g id="line2d_55">
      <g>
       <use xlink:href="#m6cc514e9bf" x="40.84" y="518.713976" style="stroke: #000000; stroke-width: 0.8"/>
      </g>
     </g>
     <g id="text_19">
      <!-- 2963 -->
      <g transform="translate(11.04 522.699132) scale(0.1 -0.1)">
       <use xlink:href="#NotoSansJP-Medium-32"/>
       <use xlink:href="#NotoSansJP-Medium-39" transform="translate(56.999985 0)"/>
       <use xlink:href="#NotoSansJP-Medium-36" transform="translate(113.999969 0)"/>
       <use xlink:href="#NotoSansJP-Medium-33" transform="translate(170.999954 0)"/>
      </g>
     </g>
    </g>
    <g id="ytick_10">
     <g id="line2d_56">
      <path d="M 40.84 491.885257 
L 853.2 491.885257 
" clip-path="url(#p7912c17d23)" style="fill: none; stroke: #b0b0b0; stroke-opacity: 0.3; stroke-width: 0.8; stroke-linecap: square"/>
     </g>
     <g id="line2d_57">
      <g>
       <use xlink:href="#m6cc514e9bf" x="40.84" y="491.885257" style="stroke: #000000; stroke-width: 0.8"/>
      </g>
     </g>
     <g id="text_20">
      <!-- 2964 -->
      <g transform="translate(11.04 495.870413) scale(0.1 -0.1)">
       <use xlink:href="#NotoSansJP-Medium-32"/>
       <use xlink:href="#NotoSansJP-Medium-39" transform="translate(56.999985 0)"/>
       <use xlink:href="#NotoSansJP-Medium-36" transform="translate(113.999969 0)"/>
       <use xlink:href="#NotoSansJP-Medium-34" transform="translate(170.999954 0)"/>
      </g>
     </g>
    </g>
    <g id="ytick_11">
     <g id="line2d_58">
      <path d="M 40.84 465.056537 
L 853.2 465.056537 
" clip-path="url(#p7912c17d23)" style="fill: none; stroke: #b0b0b0; stroke-opacity: 0.3; stroke-width: 0.8; stroke-linecap: square"/>
     </g>
     <g id="line2d_59">
      <g>
       <use xlink:href="#m6cc514e9bf" x="40.84" y="465.056537" style="stroke: #000000; stroke-width: 0.8"/>
      </g>
     </g>
     <g id="text_21">
      <!-- 2965 -->
      <g transform="translate(11.04 469.041693) scale(0.1 -0.1)">
       <use xlink:href="#NotoSansJP-Medium-32"/>
       <use xlink:href="#NotoSansJP-Medium-39" transform="translate(56.999985 0)"/>
       <use xlink:href="#NotoSansJP-Medium-36" transform="translate(113.999969 0)"/>
       <use xlink:href="#NotoSansJP-Medium-35" transform="translate(170.999954 0)"/>
      </g>
     </g>
    </g>
    <g id="ytick_12">
     <g id="line2d_60">
      <path d="M 40.84 438.227817 
L 853.2 438.227817 
" clip-path="url(#p7912c17d23)" style="fill: none; stroke: #b0b0b0; stroke-opacity: 0.3; stroke-width: 0.8; stroke-linecap: square"/>
     </g>
     <g id="line2d_61">
      <g>
       <use xlink:href="#m6cc514e9bf" x="40.84" y="438.227817" style="stroke: #000000; stroke-width: 0.8"/>
      </g>
     </g>
     <g id="text_22">
      <!-- 2966 -->
      <g transform="translate(11.04 442.212974) scale(0.1 -0.1)">
       <use xlink:href="#NotoSansJP-Medium-32"/>
       <use xlink:href="#NotoSansJP-Medium-39" transform="translate(56.999985 0)"/>
       <use xlink:href="#NotoSansJP-Medium-36" transform="translate(113.999969 0)"/>
       <use xlink:href="#NotoSansJP-Medium-36" transform="translate(170.999954 0)"/>
      </g>
     </g>
    </g>
    <g id="ytick_13">
     <g id="line2d_62">
      <path d="M 40.84 411.399098 
L 853.2 411.399098 
" clip-path="url(#p7912c17d23)" style="fill: none; stroke: #b0b0b0; stroke-opacity: 0.3; stroke-width: 0.8; stroke-linecap: square"/>
     </g>
     <g id="line2d_63">
      <g>
       <use xlink:href="#m6cc514e9bf" x="40.84" y="411.399098" style="stroke: #000000; stroke-width: 0.8"/>
      </g>
     </g>
     <g id="text_23">
      <!-- 2967 -->
      <g transform="translate(11.04 415.384254) scale(0.1 -0.1)">
       <use xlink:href="#NotoSansJP-Medium-32"/>
       <use xlink:href="#NotoSansJP-Medium-39" transform="translate(56.999985 0)"/>
       <use xlink:href="#NotoSansJP-Medium-36" transform="translate(113.999969 0)"/>
       <use xlink:href="#NotoSansJP-Medium-37" transform="translate(170.999954 0)"/>
      </g>
     </g>
    </g>
    <g id="ytick_14">
     <g id="line2d_64">
      <path d="M 40.84 384.570378 
L 853.2 384.570378 
" clip-path="url(#p7912c17d23)" style="fill: none; stroke: #b0b0b0; stroke-opacity: 0.3; stroke-width: 0.8; stroke-linecap: square"/>
     </g>
     <g id="line2d_65">
      <g>
       <use xlink:href="#m6cc514e9bf" x="40.84" y="384.570378" style="stroke: #000000; stroke-width: 0.8"/>
      </g>
     </g>
     <g id="text_24">
      <!-- 2968 -->
      <g transform="translate(11.04 388.555535) scale(0.1 -0.1)">
       <defs>
        <path id="NotoSansJP-Medium-38" d="M 1830 -90 
Q 1389 -90 1043 73 
Q 698 237 496 521 
Q 294 806 294 1171 
Q 294 1485 416 1728 
Q 538 1971 730 2147 
Q 922 2323 1133 2438 
L 1133 2470 
Q 877 2656 691 2928 
Q 506 3200 506 3571 
Q 506 3936 682 4211 
Q 858 4486 1162 4636 
Q 1466 4787 1856 4787 
Q 2266 4787 2560 4627 
Q 2854 4467 3017 4188 
Q 3181 3910 3181 3539 
Q 3181 3302 3085 3091 
Q 2989 2880 2851 2710 
Q 2714 2541 2560 2432 
L 2560 2400 
Q 2778 2285 2957 2115 
Q 3136 1946 3245 1709 
Q 3354 1472 3354 1152 
Q 3354 806 3165 524 
Q 2976 243 2633 76 
Q 2291 -90 1830 -90 
z
M 2144 2618 
Q 2349 2816 2454 3037 
Q 2560 3258 2560 3501 
Q 2560 3712 2477 3885 
Q 2394 4058 2230 4157 
Q 2067 4256 1837 4256 
Q 1549 4256 1357 4073 
Q 1165 3891 1165 3571 
Q 1165 3315 1299 3142 
Q 1434 2970 1658 2848 
Q 1882 2726 2144 2618 
z
M 1850 448 
Q 2086 448 2268 537 
Q 2451 627 2553 790 
Q 2656 954 2656 1178 
Q 2656 1389 2566 1545 
Q 2477 1702 2320 1817 
Q 2163 1933 1952 2032 
Q 1741 2131 1498 2227 
Q 1254 2054 1100 1801 
Q 947 1549 947 1248 
Q 947 1011 1065 832 
Q 1184 653 1389 550 
Q 1594 448 1850 448 
z
" transform="scale(0.015625)"/>
       </defs>
       <use xlink:href="#NotoSansJP-Medium-32"/>
       <use xlink:href="#NotoSansJP-Medium-39" transform="translate(56.999985 0)"/>
       <use xlink:href="#NotoSansJP-Medium-36" transform="translate(113.999969 0)"/>
       <use xlink:href="#NotoSansJP-Medium-38" transform="translate(170.999954 0)"/>
      </g>
     </g>
    </g>
    <g id="ytick_15">
     <g id="line2d_66">
      <path d="M 40.84 357.741659 
L 853.2 357.741659 
" clip-path="url(#p7912c17d23)" style="fill: none; stroke: #b0b0b0; stroke-opacity: 0.3; stroke-width: 0.8; stroke-linecap: square"/>
     </g>
     <g id="line2d_67">
      <g>
       <use xlink:href="#m6cc514e9bf" x="40.84" y="357.741659" style="stroke: #000000; stroke-width: 0.8"/>
      </g>
     </g>
     <g id="text_25">
      <!-- 2969 -->
      <g transform="translate(11.04 361.726815) scale(0.1 -0.1)">
       <use xlink:href="#NotoSansJP-Medium-32"/>
       <use xlink:href="#NotoSansJP-Medium-39" transform="translate(56.999985 0)"/>
       <use xlink:href="#NotoSansJP-Medium-36" transform="translate(113.999969 0)"/>
       <use xlink:href="#NotoSansJP-Medium-39" transform="translate(170.999954 0)"/>
      </g>
     </g>
    </g>
    <g id="ytick_16">
     <g id="line2d_68">
      <path d="M 40.84 330.912939 
L 853.2 330.912939 
" clip-path="url(#p7912c17d23)" style="fill: none; stroke: #b0b0b0; stroke-opacity: 0.3; stroke-width: 0.8; stroke-linecap: square"/>
     </g>
     <g id="line2d_69">
      <g>
       <use xlink:href="#m6cc514e9bf" x="40.84" y="330.912939" style="stroke: #000000; stroke-width: 0.8"/>
      </g>
     </g>
     <g id="text_26">
      <!-- 2970 -->
      <g transform="translate(11.04 334.898096) scale(0.1 -0.1)">
       <use xlink:href="#NotoSansJP-Medium-32"/>
       <use xlink:href="#NotoSansJP-Medium-39" transform="translate(56.999985 0)"/>
       <use xlink:href="#NotoSansJP-Medium-37" transform="translate(113.999969 0)"/>
       <use xlink:href="#NotoSansJP-Medium-30" transform="translate(170.999954 0)"/>
      </g>
     </g>
    </g>
    <g id="ytick_17">
     <g id="line2d_70">
      <path d="M 40.84 304.08422 
L 853.2 304.08422 
" clip-path="url(#p7912c17d23)" style="fill: none; stroke: #b0b0b0; stroke-opacity: 0.3; stroke-width: 0.8; stroke-linecap: square"/>
     </g>
     <g id="line2d_71">
      <g>
       <use xlink:href="#m6cc514e9bf" x="40.84" y="304.08422" style="stroke: #000000; stroke-width: 0.8"/>
      </g>
     </g>
     <g id="text_27">
      <!-- 2971 -->
      <g transform="translate(11.04 308.069376) scale(0.1 -0.1)">
       <use xlink:href="#NotoSansJP-Medium-32"/>
       <use xlink:href="#NotoSansJP-Medium-39" transform="translate(56.999985 0)"/>
       <use xlink:href="#NotoSansJP-Medium-37" transform="translate(113.999969 0)"/>
       <use xlink:href="#NotoSansJP-Medium-31" transform="translate(170.999954 0)"/>
      </g>
     </g>
    </g>
   </g>
   <g id="line2d_72">
    <path d="M 77.765455 518.713976 
L 94.524555 518.713976 
L 96.408648 491.885257 
L 108.406413 491.885257 
L 110.406041 465.056537 
L 122.403806 465.056537 
L 124.403433 438.227817 
L 128.402688 438.227817 
L 132.401943 384.570378 
L 166.39561 384.570378 
L 168.395238 357.741659 
L 294.37177 357.741659 
L 296.371397 384.570378 
L 312.368417 384.570378 
L 314.368045 357.741659 
L 322.366555 357.741659 
L 324.366182 330.912939 
L 330.365065 330.912939 
L 332.364692 304.08422 
L 350.36134 304.08422 
L 352.360967 330.912939 
L 504.332657 330.912939 
L 506.332284 304.08422 
L 558.322599 304.08422 
L 560.322226 330.912939 
L 669.635196 330.912939 
L 670.301739 304.08422 
L 670.968281 330.912939 
L 714.293543 330.912939 
L 714.960086 304.08422 
L 721.625511 304.08422 
L 722.292053 330.912939 
L 781.614336 330.912939 
L 782.280878 304.08422 
L 816.274545 304.08422 
L 816.274545 304.08422 
" clip-path="url(#p7912c17d23)" style="fill: none; stroke: #2288ff; stroke-width: 1.5; stroke-linecap: square"/>
   </g>
   <g id="patch_8">
    <path d="M 40.84 529.445464 
L 40.84 293.352732 
" style="fill: none; stroke: #000000; stroke-width: 0.8; stroke-linejoin: miter; stroke-linecap: square"/>
   </g>
   <g id="patch_9">
    <path d="M 853.2 529.445464 
L 853.2 293.352732 
" style="fill: none; stroke: #000000; stroke-width: 0.8; stroke-linejoin: miter; stroke-linecap: square"/>
   </g>
   <g id="patch_10">
    <path d="M 40.84 529.445464 
L 853.2 529.445464 
" style="fill: none; stroke: #000000; stroke-width: 0.8; stroke-linejoin: miter; stroke-linecap: square"/>
   </g>
   <g id="patch_11">
    <path d="M 40.84 293.352732 
L 853.2 293.352732 
" style="fill: none; stroke: #000000; stroke-width: 0.8; stroke-linejoin: miter; stroke-linecap: square"/>
   </g>
   <g id="text_28">
    <!-- サーバー数の推移 -->
    <g transform="translate(399.02 287.352732) scale(0.12 -0.12)">
     <defs>
      <path id="NotoSansJP-Medium-30b5" d="M 4685 2893 
Q 4685 2272 4601 1782 
Q 4518 1293 4313 905 
Q 4109 518 3744 214 
Q 3379 -90 2816 -346 
L 2272 166 
Q 2720 333 3053 537 
Q 3386 742 3603 1040 
Q 3821 1338 3926 1779 
Q 4032 2221 4032 2854 
L 4032 4474 
Q 4032 4666 4022 4813 
Q 4013 4960 4000 5030 
L 4723 5030 
Q 4717 4960 4701 4813 
Q 4685 4666 4685 4474 
L 4685 2893 
z
M 2381 4979 
Q 2374 4915 2358 4780 
Q 2342 4646 2342 4467 
L 2342 2150 
Q 2342 2022 2348 1894 
Q 2355 1766 2361 1670 
Q 2368 1574 2374 1530 
L 1664 1530 
Q 1670 1574 1676 1670 
Q 1683 1766 1689 1891 
Q 1696 2016 1696 2150 
L 1696 4467 
Q 1696 4589 1686 4723 
Q 1677 4858 1658 4979 
L 2381 4979 
z
M 403 3782 
Q 448 3770 547 3760 
Q 646 3750 784 3740 
Q 922 3731 1069 3731 
L 5286 3731 
Q 5523 3731 5680 3744 
Q 5837 3757 5926 3770 
L 5926 3091 
Q 5850 3098 5686 3104 
Q 5523 3110 5293 3110 
L 1069 3110 
Q 922 3110 787 3107 
Q 653 3104 553 3097 
Q 454 3091 403 3085 
L 403 3782 
z
" transform="scale(0.015625)"/>
      <path id="NotoSansJP-Medium-30fc" d="M 621 2854 
Q 730 2848 886 2838 
Q 1043 2829 1225 2822 
Q 1408 2816 1574 2816 
Q 1702 2816 1926 2816 
Q 2150 2816 2435 2816 
Q 2720 2816 3033 2816 
Q 3347 2816 3657 2816 
Q 3968 2816 4243 2816 
Q 4518 2816 4729 2816 
Q 4941 2816 5056 2816 
Q 5286 2816 5472 2832 
Q 5658 2848 5773 2854 
L 5773 2061 
Q 5664 2067 5465 2080 
Q 5267 2093 5056 2093 
Q 4947 2093 4732 2093 
Q 4518 2093 4243 2093 
Q 3968 2093 3657 2093 
Q 3347 2093 3033 2093 
Q 2720 2093 2435 2093 
Q 2150 2093 1926 2093 
Q 1702 2093 1574 2093 
Q 1312 2093 1049 2083 
Q 787 2074 621 2061 
L 621 2854 
z
" transform="scale(0.015625)"/>
      <path id="NotoSansJP-Medium-30d0" d="M 4941 5037 
Q 5024 4928 5117 4768 
Q 5210 4608 5299 4448 
Q 5389 4288 5453 4160 
L 5037 3981 
Q 4941 4173 4797 4429 
Q 4653 4685 4525 4864 
L 4941 5037 
z
M 5664 5312 
Q 5747 5190 5846 5030 
Q 5946 4870 6042 4713 
Q 6138 4557 6195 4442 
L 5779 4256 
Q 5677 4461 5533 4710 
Q 5389 4960 5254 5139 
L 5664 5312 
z
M 1325 1952 
Q 1427 2214 1526 2508 
Q 1626 2803 1709 3120 
Q 1792 3437 1853 3750 
Q 1914 4064 1946 4352 
L 2669 4205 
Q 2650 4122 2624 4022 
Q 2598 3923 2576 3827 
Q 2554 3731 2534 3661 
Q 2502 3507 2448 3267 
Q 2394 3027 2317 2755 
Q 2240 2483 2153 2204 
Q 2067 1926 1971 1690 
Q 1856 1389 1702 1072 
Q 1549 755 1376 454 
Q 1203 154 1030 -96 
L 333 198 
Q 634 595 896 1072 
Q 1158 1549 1325 1952 
z
M 4480 2150 
Q 4384 2400 4265 2681 
Q 4147 2963 4022 3248 
Q 3898 3533 3776 3782 
Q 3654 4032 3552 4211 
L 4211 4429 
Q 4307 4250 4432 4000 
Q 4557 3750 4685 3465 
Q 4813 3181 4934 2899 
Q 5056 2618 5152 2374 
Q 5242 2144 5347 1856 
Q 5453 1568 5558 1264 
Q 5664 960 5753 675 
Q 5843 390 5907 160 
L 5178 -77 
Q 5094 275 4979 659 
Q 4864 1043 4739 1427 
Q 4614 1811 4480 2150 
z
" transform="scale(0.015625)"/>
     </defs>
     <use xlink:href="#NotoSansJP-Medium-30b5"/>
     <use xlink:href="#NotoSansJP-Medium-30fc" transform="translate(99.999985 0)"/>
     <use xlink:href="#NotoSansJP-Medium-30d0" transform="translate(199.999969 0)"/>
     <use xlink:href="#NotoSansJP-Medium-30fc" transform="translate(299.999954 0)"/>
     <use xlink:href="#NotoSansJP-Medium-6570" transform="translate(399.999939 0)"/>
     <use xlink:href="#NotoSansJP-Medium-306e" transform="translate(499.999924 0)"/>
     <use xlink:href="#NotoSansJP-Medium-63a8" transform="translate(599.999908 0)"/>
     <use xlink:href="#NotoSansJP-Medium-79fb" transform="translate(699.999893 0)"/>
    </g>
   </g>
  </g>
 </g>
 <defs>
  <clipPath id="p4d086390c6">
   <rect x="40.84" y="26.88" width="812.36" height="236.092732"/>
  </clipPath>
  <clipPath id="p7912c17d23">
   <rect x="40.84" y="293.352732" width="812.36" height="236.092732"/>
  </clipPath>
 </defs>
</svg>
